<svg class="main-svg" xmlns="http://www.w3.org/2000/svg" xmlns:xlink="http://www.w3.org/1999/xlink" width="926" height="600" style="" viewBox="0 0 926 600"><rect x="0" y="0" width="926" height="600" style="fill: rgb(255, 255, 255); fill-opacity: 1;"/><defs id="defs-eca7bf"><g class="clips"><clipPath id="clipeca7bfxyplot" class="plotclip"><rect width="766" height="436"/></clipPath><clipPath class="axesclip" id="clipeca7bfx"><rect x="80" y="0" width="766" height="600"/></clipPath><clipPath class="axesclip" id="clipeca7bfy"><rect x="0" y="60" width="926" height="436"/></clipPath><clipPath class="axesclip" id="clipeca7bfxy"><rect x="80" y="60" width="766" height="436"/></clipPath></g><g class="gradients"/><g class="patterns"/></defs><g class="bglayer"><rect class="bg" x="80" y="60" width="766" height="436" style="fill: rgb(255, 255, 255); fill-opacity: 1; stroke-width: 0;"/></g><g class="layer-below"><g class="imagelayer"/><g class="shapelayer"/></g><g class="cartesianlayer"><g class="subplot xy"><g class="layer-subplot"><g class="shapelayer"/><g class="imagelayer"/></g><g class="minor-gridlayer"><g class="x"/><g class="y"/></g><g class="gridlayer"><g class="x"/><g class="y"/></g><g class="zerolinelayer"><path class="yzl zl crisp" transform="translate(0,469.63)" d="M80,0h766" style="stroke: rgb(255, 255, 255); stroke-opacity: 1; stroke-width: 2px;"/></g><path class="xlines-below"/><path class="ylines-below"/><g class="overlines-below"/><g class="xaxislayer-below"/><g class="yaxislayer-below"/><g class="overaxes-below"/><g class="plot" transform="translate(80,60)" clip-path="url(#clipeca7bfxyplot)"><g class="scatterlayer mlayer"><g class="trace scatter tracea84865" style="stroke-miterlimit: 2; opacity: 1;"><g class="fills"/><g class="errorbars"/><g class="lines"><path class="js-line" d="M45.8,265.91L158.2,252.22L270.6,351.95L383,401.81L495.4,30.28L607.8,135.87L720.2,367.59" style="vector-effect: none; fill: none; stroke: rgb(247, 230, 143); stroke-opacity: 1; stroke-width: 2px; opacity: 1;"/></g><g class="points"><path class="point" transform="translate(45.8,265.91)" d="M6,0A6,6 0 1,1 0,-6A6,6 0 0,1 6,0Z" style="opacity: 1; stroke-width: 0px; fill: rgb(247, 230, 143); fill-opacity: 1;"/><path class="point" transform="translate(158.2,252.22)" d="M6,0A6,6 0 1,1 0,-6A6,6 0 0,1 6,0Z" style="opacity: 1; stroke-width: 0px; fill: rgb(247, 230, 143); fill-opacity: 1;"/><path class="point" transform="translate(270.6,351.95)" d="M6,0A6,6 0 1,1 0,-6A6,6 0 0,1 6,0Z" style="opacity: 1; stroke-width: 0px; fill: rgb(247, 230, 143); fill-opacity: 1;"/><path class="point" transform="translate(383,401.81)" d="M6,0A6,6 0 1,1 0,-6A6,6 0 0,1 6,0Z" style="opacity: 1; stroke-width: 0px; fill: rgb(247, 230, 143); fill-opacity: 1;"/><path class="point" transform="translate(495.4,30.28)" d="M6,0A6,6 0 1,1 0,-6A6,6 0 0,1 6,0Z" style="opacity: 1; stroke-width: 0px; fill: rgb(247, 230, 143); fill-opacity: 1;"/><path class="point" transform="translate(607.8,135.87)" d="M6,0A6,6 0 1,1 0,-6A6,6 0 0,1 6,0Z" style="opacity: 1; stroke-width: 0px; fill: rgb(247, 230, 143); fill-opacity: 1;"/><path class="point" transform="translate(720.2,367.59)" d="M6,0A6,6 0 1,1 0,-6A6,6 0 0,1 6,0Z" style="opacity: 1; stroke-width: 0px; fill: rgb(247, 230, 143); fill-opacity: 1;"/></g><g class="text"/></g><g class="trace scatter trace0e934d" style="stroke-miterlimit: 2; opacity: 1;"><g class="fills"/><g class="errorbars"/><g class="lines"><path class="js-line" d="M45.8,294.26L158.2,139.78L270.6,34.19L383,397.9L495.4,87.96L607.8,406.7L720.2,303.06" style="vector-effect: none; fill: none; stroke: rgb(255, 158, 224); stroke-opacity: 1; stroke-width: 2px; opacity: 1;"/></g><g class="points"><path class="point" transform="translate(45.8,294.26)" d="M6,0A6,6 0 1,1 0,-6A6,6 0 0,1 6,0Z" style="opacity: 1; stroke-width: 0px; fill: rgb(255, 158, 224); fill-opacity: 1;"/><path class="point" transform="translate(158.2,139.78)" d="M6,0A6,6 0 1,1 0,-6A6,6 0 0,1 6,0Z" style="opacity: 1; stroke-width: 0px; fill: rgb(255, 158, 224); fill-opacity: 1;"/><path class="point" transform="translate(270.6,34.19)" d="M6,0A6,6 0 1,1 0,-6A6,6 0 0,1 6,0Z" style="opacity: 1; stroke-width: 0px; fill: rgb(255, 158, 224); fill-opacity: 1;"/><path class="point" transform="translate(383,397.9)" d="M6,0A6,6 0 1,1 0,-6A6,6 0 0,1 6,0Z" style="opacity: 1; stroke-width: 0px; fill: rgb(255, 158, 224); fill-opacity: 1;"/><path class="point" transform="translate(495.4,87.96)" d="M6,0A6,6 0 1,1 0,-6A6,6 0 0,1 6,0Z" style="opacity: 1; stroke-width: 0px; fill: rgb(255, 158, 224); fill-opacity: 1;"/><path class="point" transform="translate(607.8,406.7)" d="M6,0A6,6 0 1,1 0,-6A6,6 0 0,1 6,0Z" style="opacity: 1; stroke-width: 0px; fill: rgb(255, 158, 224); fill-opacity: 1;"/><path class="point" transform="translate(720.2,303.06)" d="M6,0A6,6 0 1,1 0,-6A6,6 0 0,1 6,0Z" style="opacity: 1; stroke-width: 0px; fill: rgb(255, 158, 224); fill-opacity: 1;"/></g><g class="text"/></g><g class="trace scatter tracef908eb" style="stroke-miterlimit: 2; opacity: 1;"><g class="fills"/><g class="errorbars"/><g class="lines"><path class="js-line" d="M45.8,29.3L158.2,150.54L270.6,253.2L383,101.65L495.4,273.73L607.8,116.32L720.2,405.72" style="vector-effect: none; fill: none; stroke: rgb(224, 205, 33); stroke-opacity: 1; stroke-width: 2px; opacity: 1;"/></g><g class="points"><path class="point" transform="translate(45.8,29.3)" d="M6,0A6,6 0 1,1 0,-6A6,6 0 0,1 6,0Z" style="opacity: 1; stroke-width: 0px; fill: rgb(224, 205, 33); fill-opacity: 1;"/><path class="point" transform="translate(158.2,150.54)" d="M6,0A6,6 0 1,1 0,-6A6,6 0 0,1 6,0Z" style="opacity: 1; stroke-width: 0px; fill: rgb(224, 205, 33); fill-opacity: 1;"/><path class="point" transform="translate(270.6,253.2)" d="M6,0A6,6 0 1,1 0,-6A6,6 0 0,1 6,0Z" style="opacity: 1; stroke-width: 0px; fill: rgb(224, 205, 33); fill-opacity: 1;"/><path class="point" transform="translate(383,101.65)" d="M6,0A6,6 0 1,1 0,-6A6,6 0 0,1 6,0Z" style="opacity: 1; stroke-width: 0px; fill: rgb(224, 205, 33); fill-opacity: 1;"/><path class="point" transform="translate(495.4,273.73)" d="M6,0A6,6 0 1,1 0,-6A6,6 0 0,1 6,0Z" style="opacity: 1; stroke-width: 0px; fill: rgb(224, 205, 33); fill-opacity: 1;"/><path class="point" transform="translate(607.8,116.32)" d="M6,0A6,6 0 1,1 0,-6A6,6 0 0,1 6,0Z" style="opacity: 1; stroke-width: 0px; fill: rgb(224, 205, 33); fill-opacity: 1;"/><path class="point" transform="translate(720.2,405.72)" d="M6,0A6,6 0 1,1 0,-6A6,6 0 0,1 6,0Z" style="opacity: 1; stroke-width: 0px; fill: rgb(224, 205, 33); fill-opacity: 1;"/></g><g class="text"/></g><g class="trace scatter tracef253ea" style="stroke-miterlimit: 2; opacity: 1;"><g class="fills"/><g class="errorbars"/><g class="lines"><path class="js-line" d="M45.8,87.96L158.2,379.32L270.6,52.77L383,270.8L495.4,363.68L607.8,263.95L720.2,100.67" style="vector-effect: none; fill: none; stroke: rgb(249, 22, 147); stroke-opacity: 1; stroke-width: 2px; opacity: 1;"/></g><g class="points"><path class="point" transform="translate(45.8,87.96)" d="M6,0A6,6 0 1,1 0,-6A6,6 0 0,1 6,0Z" style="opacity: 1; stroke-width: 0px; fill: rgb(249, 22, 147); fill-opacity: 1;"/><path class="point" transform="translate(158.2,379.32)" d="M6,0A6,6 0 1,1 0,-6A6,6 0 0,1 6,0Z" style="opacity: 1; stroke-width: 0px; fill: rgb(249, 22, 147); fill-opacity: 1;"/><path class="point" transform="translate(270.6,52.77)" d="M6,0A6,6 0 1,1 0,-6A6,6 0 0,1 6,0Z" style="opacity: 1; stroke-width: 0px; fill: rgb(249, 22, 147); fill-opacity: 1;"/><path class="point" transform="translate(383,270.8)" d="M6,0A6,6 0 1,1 0,-6A6,6 0 0,1 6,0Z" style="opacity: 1; stroke-width: 0px; fill: rgb(249, 22, 147); fill-opacity: 1;"/><path class="point" transform="translate(495.4,363.68)" d="M6,0A6,6 0 1,1 0,-6A6,6 0 0,1 6,0Z" style="opacity: 1; stroke-width: 0px; fill: rgb(249, 22, 147); fill-opacity: 1;"/><path class="point" transform="translate(607.8,263.95)" d="M6,0A6,6 0 1,1 0,-6A6,6 0 0,1 6,0Z" style="opacity: 1; stroke-width: 0px; fill: rgb(249, 22, 147); fill-opacity: 1;"/><path class="point" transform="translate(720.2,100.67)" d="M6,0A6,6 0 1,1 0,-6A6,6 0 0,1 6,0Z" style="opacity: 1; stroke-width: 0px; fill: rgb(249, 22, 147); fill-opacity: 1;"/></g><g class="text"/></g></g></g><g class="overplot"/><path class="xlines-above crisp" d="M0,0" style="fill: none;"/><path class="ylines-above crisp" d="M79.5,60V496" style="fill: none; stroke-width: 1px; stroke: rgb(255, 255, 255); stroke-opacity: 1;"/><g class="overlines-above"/><g class="xaxislayer-above"><g class="xtick"><text text-anchor="start" x="1.9249999999999998" y="502.5" transform="translate(153.9,0) rotate(90,1.9249999999999998,497)" style="font-family: monospace; font-size: 11px; fill: rgb(0, 0, 0); fill-opacity: 1; white-space: pre; opacity: 1;">1865</text></g><g class="xtick"><text text-anchor="start" x="1.9249999999999998" y="502.5" style="font-family: monospace; font-size: 11px; fill: rgb(0, 0, 0); fill-opacity: 1; white-space: pre; opacity: 1;" transform="translate(294.4,0) rotate(90,1.9249999999999998,497)">1870</text></g><g class="xtick"><text text-anchor="start" x="1.9249999999999998" y="502.5" style="font-family: monospace; font-size: 11px; fill: rgb(0, 0, 0); fill-opacity: 1; white-space: pre; opacity: 1;" transform="translate(434.9,0) rotate(90,1.9249999999999998,497)">1875</text></g><g class="xtick"><text text-anchor="start" x="1.9249999999999998" y="502.5" style="font-family: monospace; font-size: 11px; fill: rgb(0, 0, 0); fill-opacity: 1; white-space: pre; opacity: 1;" transform="translate(575.4,0) rotate(90,1.9249999999999998,497)">1880</text></g><g class="xtick"><text text-anchor="start" x="1.9249999999999998" y="502.5" style="font-family: monospace; font-size: 11px; fill: rgb(0, 0, 0); fill-opacity: 1; white-space: pre; opacity: 1;" transform="translate(715.9,0) rotate(90,1.9249999999999998,497)">1885</text></g></g><g class="yaxislayer-above"><g class="ytick"><text text-anchor="end" x="76.8" y="3.8499999999999996" transform="translate(0,469.63)" style="font-family: monospace; font-size: 11px; fill: rgb(0, 0, 0); fill-opacity: 1; white-space: pre; opacity: 1;">0</text></g><g class="ytick"><text text-anchor="end" x="76.8" y="3.8499999999999996" style="font-family: monospace; font-size: 11px; fill: rgb(0, 0, 0); fill-opacity: 1; white-space: pre; opacity: 1;" transform="translate(0,420.75)">50</text></g><g class="ytick"><text text-anchor="end" x="76.8" y="3.8499999999999996" style="font-family: monospace; font-size: 11px; fill: rgb(0, 0, 0); fill-opacity: 1; white-space: pre; opacity: 1;" transform="translate(0,371.86)">100</text></g><g class="ytick"><text text-anchor="end" x="76.8" y="3.8499999999999996" style="font-family: monospace; font-size: 11px; fill: rgb(0, 0, 0); fill-opacity: 1; white-space: pre; opacity: 1;" transform="translate(0,322.98)">150</text></g><g class="ytick"><text text-anchor="end" x="76.8" y="3.8499999999999996" style="font-family: monospace; font-size: 11px; fill: rgb(0, 0, 0); fill-opacity: 1; white-space: pre; opacity: 1;" transform="translate(0,274.09000000000003)">200</text></g><g class="ytick"><text text-anchor="end" x="76.8" y="3.8499999999999996" style="font-family: monospace; font-size: 11px; fill: rgb(0, 0, 0); fill-opacity: 1; white-space: pre; opacity: 1;" transform="translate(0,225.2)">250</text></g><g class="ytick"><text text-anchor="end" x="76.8" y="3.8499999999999996" style="font-family: monospace; font-size: 11px; fill: rgb(0, 0, 0); fill-opacity: 1; white-space: pre; opacity: 1;" transform="translate(0,176.32)">300</text></g><g class="ytick"><text text-anchor="end" x="76.8" y="3.8499999999999996" style="font-family: monospace; font-size: 11px; fill: rgb(0, 0, 0); fill-opacity: 1; white-space: pre; opacity: 1;" transform="translate(0,127.43)">350</text></g><g class="ytick"><text text-anchor="end" x="76.8" y="3.8499999999999996" style="font-family: monospace; font-size: 11px; fill: rgb(0, 0, 0); fill-opacity: 1; white-space: pre; opacity: 1;" transform="translate(0,78.55)">400</text></g></g><g class="overaxes-above"/></g></g><g class="polarlayer"/><g class="smithlayer"/><g class="ternarylayer"/><g class="geolayer"/><g class="funnelarealayer"/><g class="pielayer"/><g class="iciclelayer"/><g class="treemaplayer"/><g class="sunburstlayer"/><g class="glimages"/><defs id="topdefs-eca7bf"><g class="clips"/><clipPath id="legendeca7bf"><rect width="726" height="48" x="0" y="0"/></clipPath></defs><g class="layer-above"><g class="imagelayer"/><g class="shapelayer"/></g><g class="infolayer"><g class="legend" pointer-events="all" transform="translate(80,539.6)"><rect class="bg" shape-rendering="crispEdges" style="stroke: rgb(68, 68, 68); stroke-opacity: 1; fill: rgb(255, 255, 255); fill-opacity: 1; stroke-width: 0px;" width="726" height="48" x="0" y="0"/><g class="scrollbox" transform="" clip-path="url(#legendeca7bf)"><text class="legendtitletext" text-anchor="start" x="2" y="18.2" style="font-family: monospace; font-size: 14px; fill: rgb(42, 63, 95); fill-opacity: 1; white-space: pre;">his keep read</text><g class="groups" transform=""><g class="traces" transform="translate(119.828125,14.5)" style="opacity: 1;"><text class="legendtext" text-anchor="start" x="40" y="4.680000000000001" style="font-family: monospace; font-size: 12px; fill: rgb(42, 63, 95); fill-opacity: 1; white-space: pre;">election administration enjoy</text><g class="layers" style="opacity: 1;"><g class="legendfill"/><g class="legendlines"><path class="js-line" d="M5,0h30" style="fill: none; stroke: rgb(247, 230, 143); stroke-opacity: 1; stroke-width: 2px;"/></g><g class="legendsymbols"><g class="legendpoints"><path class="scatterpts" transform="translate(20,0)" d="M6,0A6,6 0 1,1 0,-6A6,6 0 0,1 6,0Z" style="opacity: 1; stroke-width: 0px; fill: rgb(247, 230, 143); fill-opacity: 1;"/></g></g></g><rect class="legendtoggle" x="0" y="-9.5" width="252.140625" height="19" style="fill: rgb(0, 0, 0); fill-opacity: 0;"/></g></g><g class="groups" transform="translate(254.640625,0)"><g class="traces" transform="translate(119.828125,14.5)" style="opacity: 1;"><text class="legendtext" text-anchor="start" x="40" y="4.680000000000001" style="font-family: monospace; font-size: 12px; fill: rgb(42, 63, 95); fill-opacity: 1; white-space: pre;">would painting pick</text><g class="layers" style="opacity: 1;"><g class="legendfill"/><g class="legendlines"><path class="js-line" d="M5,0h30" style="fill: none; stroke: rgb(255, 158, 224); stroke-opacity: 1; stroke-width: 2px;"/></g><g class="legendsymbols"><g class="legendpoints"><path class="scatterpts" transform="translate(20,0)" d="M6,0A6,6 0 1,1 0,-6A6,6 0 0,1 6,0Z" style="opacity: 1; stroke-width: 0px; fill: rgb(255, 158, 224); fill-opacity: 1;"/></g></g></g><rect class="legendtoggle" x="0" y="-9.5" width="181.125" height="19" style="fill: rgb(0, 0, 0); fill-opacity: 0;"/></g></g><g class="groups" transform="translate(438.265625,0)"><g class="traces" transform="translate(119.828125,14.5)" style="opacity: 1;"><text class="legendtext" text-anchor="start" x="40" y="4.680000000000001" style="font-family: monospace; font-size: 12px; fill: rgb(42, 63, 95); fill-opacity: 1; white-space: pre;">them project hair</text><g class="layers" style="opacity: 1;"><g class="legendfill"/><g class="legendlines"><path class="js-line" d="M5,0h30" style="fill: none; stroke: rgb(224, 205, 33); stroke-opacity: 1; stroke-width: 2px;"/></g><g class="legendsymbols"><g class="legendpoints"><path class="scatterpts" transform="translate(20,0)" d="M6,0A6,6 0 1,1 0,-6A6,6 0 0,1 6,0Z" style="opacity: 1; stroke-width: 0px; fill: rgb(224, 205, 33); fill-opacity: 1;"/></g></g></g><rect class="legendtoggle" x="0" y="-9.5" width="164.921875" height="19" style="fill: rgb(0, 0, 0); fill-opacity: 0;"/></g></g><g class="groups" transform="translate(0,19)"><g class="traces" transform="translate(119.828125,14.5)" style="opacity: 1;"><text class="legendtext" text-anchor="start" x="40" y="4.680000000000001" style="font-family: monospace; font-size: 12px; fill: rgb(42, 63, 95); fill-opacity: 1; white-space: pre;">compare somebody view</text><g class="layers" style="opacity: 1;"><g class="legendfill"/><g class="legendlines"><path class="js-line" d="M5,0h30" style="fill: none; stroke: rgb(249, 22, 147); stroke-opacity: 1; stroke-width: 2px;"/></g><g class="legendsymbols"><g class="legendpoints"><path class="scatterpts" transform="translate(20,0)" d="M6,0A6,6 0 1,1 0,-6A6,6 0 0,1 6,0Z" style="opacity: 1; stroke-width: 0px; fill: rgb(249, 22, 147); fill-opacity: 1;"/></g></g></g><rect class="legendtoggle" x="0" y="-9.5" width="194.53125" height="19" style="fill: rgb(0, 0, 0); fill-opacity: 0;"/></g></g></g><rect class="scrollbar" rx="20" ry="3" width="0" height="0" style="fill: rgb(128, 139, 164); fill-opacity: 1;" x="0" y="0"/></g><g class="g-gtitle"><text class="gtitle" x="463" y="30" text-anchor="middle" dy="0em" style="font-family: monospace; font-size: 25px; fill: rgb(0, 0, 0); opacity: 1; font-weight: normal; white-space: pre;">three clearly success</text></g><g class="g-xtitle"/><g class="g-ytitle"><text class="ytitle" transform="rotate(-90,32.684375,278)" x="32.684375" y="278" text-anchor="middle" style="font-family: monospace; font-size: 14px; fill: rgb(0, 0, 0); opacity: 1; font-weight: normal; white-space: pre;">quickly be western</text></g></g></svg>