<svg class="main-svg" xmlns="http://www.w3.org/2000/svg" xmlns:xlink="http://www.w3.org/1999/xlink" width="323" height="600" style="" viewBox="0 0 323 600"><rect x="0" y="0" width="323" height="600" style="fill: rgb(255, 255, 255); fill-opacity: 1;"/><defs id="defs-f7ced9"><g class="clips"><clipPath id="clipf7ced9xyplot" class="plotclip"><rect width="163" height="436"/></clipPath><clipPath class="axesclip" id="clipf7ced9x"><rect x="80" y="0" width="163" height="600"/></clipPath><clipPath class="axesclip" id="clipf7ced9y"><rect x="0" y="60" width="323" height="436"/></clipPath><clipPath class="axesclip" id="clipf7ced9xy"><rect x="80" y="60" width="163" height="436"/></clipPath></g><g class="gradients"/><g class="patterns"/></defs><g class="bglayer"><rect class="bg" x="80" y="60" width="163" height="436" style="fill: rgb(255, 255, 255); fill-opacity: 1; stroke-width: 0;"/></g><g class="layer-below"><g class="imagelayer"/><g class="shapelayer"/></g><g class="cartesianlayer"><g class="subplot xy"><g class="layer-subplot"><g class="shapelayer"/><g class="imagelayer"/></g><g class="minor-gridlayer"><g class="x"/><g class="y"/></g><g class="gridlayer"><g class="x"/><g class="y"/></g><g class="zerolinelayer"/><path class="xlines-below"/><path class="ylines-below"/><g class="overlines-below"/><g class="xaxislayer-below"/><g class="yaxislayer-below"/><g class="overaxes-below"/><g class="plot" transform="translate(80,60)" clip-path="url(#clipf7ced9xyplot)"><g class="scatterlayer mlayer"><g class="trace scatter traceec2edd" style="stroke-miterlimit: 2; opacity: 1;"><g class="fills"/><g class="errorbars"/><g class="lines"><path class="js-line" d="M11.15,376.79L39.29,282.58L67.43,386.85L95.57,236L123.71,411.2L151.85,393.2" style="vector-effect: none; fill: none; stroke: rgb(15, 100, 170); stroke-opacity: 1; stroke-width: 2px; opacity: 1;"/></g><g class="points"><path class="point" transform="translate(11.15,376.79)" d="M3,0A3,3 0 1,1 0,-3A3,3 0 0,1 3,0Z" style="opacity: 1; stroke-width: 0px; fill: rgb(15, 100, 170); fill-opacity: 1;"/><path class="point" transform="translate(39.29,282.58)" d="M3,0A3,3 0 1,1 0,-3A3,3 0 0,1 3,0Z" style="opacity: 1; stroke-width: 0px; fill: rgb(15, 100, 170); fill-opacity: 1;"/><path class="point" transform="translate(67.43,386.85)" d="M3,0A3,3 0 1,1 0,-3A3,3 0 0,1 3,0Z" style="opacity: 1; stroke-width: 0px; fill: rgb(15, 100, 170); fill-opacity: 1;"/><path class="point" transform="translate(95.57,236)" d="M3,0A3,3 0 1,1 0,-3A3,3 0 0,1 3,0Z" style="opacity: 1; stroke-width: 0px; fill: rgb(15, 100, 170); fill-opacity: 1;"/><path class="point" transform="translate(123.71,411.2)" d="M3,0A3,3 0 1,1 0,-3A3,3 0 0,1 3,0Z" style="opacity: 1; stroke-width: 0px; fill: rgb(15, 100, 170); fill-opacity: 1;"/><path class="point" transform="translate(151.85,393.2)" d="M3,0A3,3 0 1,1 0,-3A3,3 0 0,1 3,0Z" style="opacity: 1; stroke-width: 0px; fill: rgb(15, 100, 170); fill-opacity: 1;"/></g><g class="text"/></g><g class="trace scatter trace6e3bb7" style="stroke-miterlimit: 2; opacity: 1;"><g class="fills"/><g class="errorbars"/><g class="lines"><path class="js-line" d="M11.15,188.36L39.29,296.34L67.43,77.73L95.57,370.44L123.71,24.8L151.85,279.93" style="vector-effect: none; fill: none; stroke: rgb(112, 229, 190); stroke-opacity: 1; stroke-width: 2px; opacity: 1;"/></g><g class="points"><path class="point" transform="translate(11.15,188.36)" d="M3,0A3,3 0 1,1 0,-3A3,3 0 0,1 3,0Z" style="opacity: 1; stroke-width: 0px; fill: rgb(112, 229, 190); fill-opacity: 1;"/><path class="point" transform="translate(39.29,296.34)" d="M3,0A3,3 0 1,1 0,-3A3,3 0 0,1 3,0Z" style="opacity: 1; stroke-width: 0px; fill: rgb(112, 229, 190); fill-opacity: 1;"/><path class="point" transform="translate(67.43,77.73)" d="M3,0A3,3 0 1,1 0,-3A3,3 0 0,1 3,0Z" style="opacity: 1; stroke-width: 0px; fill: rgb(112, 229, 190); fill-opacity: 1;"/><path class="point" transform="translate(95.57,370.44)" d="M3,0A3,3 0 1,1 0,-3A3,3 0 0,1 3,0Z" style="opacity: 1; stroke-width: 0px; fill: rgb(112, 229, 190); fill-opacity: 1;"/><path class="point" transform="translate(123.71,24.8)" d="M3,0A3,3 0 1,1 0,-3A3,3 0 0,1 3,0Z" style="opacity: 1; stroke-width: 0px; fill: rgb(112, 229, 190); fill-opacity: 1;"/><path class="point" transform="translate(151.85,279.93)" d="M3,0A3,3 0 1,1 0,-3A3,3 0 0,1 3,0Z" style="opacity: 1; stroke-width: 0px; fill: rgb(112, 229, 190); fill-opacity: 1;"/></g><g class="text"/></g></g></g><g class="overplot"/><path class="xlines-above crisp" d="M0,0" style="fill: none;"/><path class="ylines-above crisp" d="M79.5,60V496" style="fill: none; stroke-width: 1px; stroke: rgb(255, 255, 255); stroke-opacity: 1;"/><g class="overlines-above"/><g class="xaxislayer-above"><g class="xtick"><text text-anchor="start" x="0" y="508" transform="translate(91.15,0) rotate(45,0,502.5)" style="font-family: avenir; font-size: 11px; fill: rgb(0, 0, 0); fill-opacity: 1; white-space: pre; opacity: 1;">Jan</text></g><g class="xtick"><text text-anchor="start" x="0" y="508" transform="translate(119.28999999999999,0) rotate(45,0,502.5)" style="font-family: avenir; font-size: 11px; fill: rgb(0, 0, 0); fill-opacity: 1; white-space: pre; opacity: 1;">Feb</text></g><g class="xtick"><text text-anchor="start" x="0" y="508" transform="translate(147.43,0) rotate(45,0,502.5)" style="font-family: avenir; font-size: 11px; fill: rgb(0, 0, 0); fill-opacity: 1; white-space: pre; opacity: 1;">Mar</text></g><g class="xtick"><text text-anchor="start" x="0" y="508" transform="translate(175.57,0) rotate(45,0,502.5)" style="font-family: avenir; font-size: 11px; fill: rgb(0, 0, 0); fill-opacity: 1; white-space: pre; opacity: 1;">Apr</text></g><g class="xtick"><text text-anchor="start" x="0" y="508" transform="translate(203.70999999999998,0) rotate(45,0,502.5)" style="font-family: avenir; font-size: 11px; fill: rgb(0, 0, 0); fill-opacity: 1; white-space: pre; opacity: 1;">May</text></g><g class="xtick"><text text-anchor="start" x="0" y="508" transform="translate(231.85,0) rotate(45,0,502.5)" style="font-family: avenir; font-size: 11px; fill: rgb(0, 0, 0); fill-opacity: 1; white-space: pre; opacity: 1;">June</text></g></g><g class="yaxislayer-above"><g class="ytick"><text text-anchor="end" x="76.8" y="3.8499999999999996" transform="translate(0,447.38)" style="font-family: avenir; font-size: 11px; fill: rgb(0, 0, 0); fill-opacity: 1; white-space: pre; opacity: 1;">100</text></g><g class="ytick"><text text-anchor="end" x="76.8" y="3.8499999999999996" style="font-family: avenir; font-size: 11px; fill: rgb(0, 0, 0); fill-opacity: 1; white-space: pre; opacity: 1;" transform="translate(0,394.45)">200</text></g><g class="ytick"><text text-anchor="end" x="76.8" y="3.8499999999999996" style="font-family: avenir; font-size: 11px; fill: rgb(0, 0, 0); fill-opacity: 1; white-space: pre; opacity: 1;" transform="translate(0,341.52)">300</text></g><g class="ytick"><text text-anchor="end" x="76.8" y="3.8499999999999996" style="font-family: avenir; font-size: 11px; fill: rgb(0, 0, 0); fill-opacity: 1; white-space: pre; opacity: 1;" transform="translate(0,288.59000000000003)">400</text></g><g class="ytick"><text text-anchor="end" x="76.8" y="3.8499999999999996" style="font-family: avenir; font-size: 11px; fill: rgb(0, 0, 0); fill-opacity: 1; white-space: pre; opacity: 1;" transform="translate(0,235.65)">500</text></g><g class="ytick"><text text-anchor="end" x="76.8" y="3.8499999999999996" style="font-family: avenir; font-size: 11px; fill: rgb(0, 0, 0); fill-opacity: 1; white-space: pre; opacity: 1;" transform="translate(0,182.72)">600</text></g><g class="ytick"><text text-anchor="end" x="76.8" y="3.8499999999999996" style="font-family: avenir; font-size: 11px; fill: rgb(0, 0, 0); fill-opacity: 1; white-space: pre; opacity: 1;" transform="translate(0,129.79000000000002)">700</text></g><g class="ytick"><text text-anchor="end" x="76.8" y="3.8499999999999996" style="font-family: avenir; font-size: 11px; fill: rgb(0, 0, 0); fill-opacity: 1; white-space: pre; opacity: 1;" transform="translate(0,76.86)">800</text></g></g><g class="overaxes-above"/></g></g><g class="polarlayer"/><g class="smithlayer"/><g class="ternarylayer"/><g class="geolayer"/><g class="funnelarealayer"/><g class="pielayer"/><g class="iciclelayer"/><g class="treemaplayer"/><g class="sunburstlayer"/><g class="glimages"/><defs id="topdefs-f7ced9"><g class="clips"/><clipPath id="legendf7ced9"><rect width="270" height="48" x="0" y="0"/></clipPath></defs><g class="layer-above"><g class="imagelayer"/><g class="shapelayer"/></g><g class="infolayer"><g class="legend" pointer-events="all" transform="translate(53,539.6)"><rect class="bg" shape-rendering="crispEdges" style="stroke: rgb(68, 68, 68); stroke-opacity: 1; fill: rgb(255, 255, 255); fill-opacity: 1; stroke-width: 0px;" width="270" height="48" x="0" y="0"/><g class="scrollbox" transform="" clip-path="url(#legendf7ced9)"><text class="legendtitletext" text-anchor="start" x="2" y="18.2" style="font-family: avenir; font-size: 14px; fill: rgb(42, 63, 95); fill-opacity: 1; white-space: pre;">who simple case</text><g class="groups" transform=""><g class="traces" transform="translate(104.328125,14.5)" style="opacity: 1;"><text class="legendtext" text-anchor="start" x="40" y="4.680000000000001" style="font-family: avenir; font-size: 12px; fill: rgb(42, 63, 95); fill-opacity: 1; white-space: pre;">game approach lead</text><g class="layers" style="opacity: 1;"><g class="legendfill"/><g class="legendlines"><path class="js-line" d="M5,0h30" style="fill: none; stroke: rgb(15, 100, 170); stroke-opacity: 1; stroke-width: 2px;"/></g><g class="legendsymbols"><g class="legendpoints"><path class="scatterpts" transform="translate(20,0)" d="M1,0A1,1 0 1,1 0,-1A1,1 0 0,1 1,0Z" style="opacity: 1; stroke-width: 0px; fill: rgb(15, 100, 170); fill-opacity: 1;"/></g></g></g><rect class="legendtoggle" x="0" y="-9.5" width="139.453125" height="19" style="fill: rgb(0, 0, 0); fill-opacity: 0;"/></g></g><g class="groups" transform="translate(0,19)"><g class="traces" transform="translate(104.328125,14.5)" style="opacity: 1;"><text class="legendtext" text-anchor="start" x="40" y="4.680000000000001" style="font-family: avenir; font-size: 12px; fill: rgb(42, 63, 95); fill-opacity: 1; white-space: pre;">wrong open professional</text><g class="layers" style="opacity: 1;"><g class="legendfill"/><g class="legendlines"><path class="js-line" d="M5,0h30" style="fill: none; stroke: rgb(112, 229, 190); stroke-opacity: 1; stroke-width: 2px;"/></g><g class="legendsymbols"><g class="legendpoints"><path class="scatterpts" transform="translate(20,0)" d="M1,0A1,1 0 1,1 0,-1A1,1 0 0,1 1,0Z" style="opacity: 1; stroke-width: 0px; fill: rgb(112, 229, 190); fill-opacity: 1;"/></g></g></g><rect class="legendtoggle" x="0" y="-9.5" width="162.8125" height="19" style="fill: rgb(0, 0, 0); fill-opacity: 0;"/></g></g></g><rect class="scrollbar" rx="20" ry="3" width="0" height="0" style="fill: rgb(128, 139, 164); fill-opacity: 1;" x="0" y="0"/></g><g class="g-gtitle"><text class="gtitle" x="161.5" y="30" text-anchor="end" dy="0em" style="font-family: avenir; font-size: 25px; fill: rgb(0, 0, 0); opacity: 1; font-weight: normal; white-space: pre;">left piece author</text></g><g class="g-xtitle"/><g class="g-ytitle"/></g></svg>