<svg class="main-svg" xmlns="http://www.w3.org/2000/svg" xmlns:xlink="http://www.w3.org/1999/xlink" width="755" height="600" style="" viewBox="0 0 755 600"><rect x="0" y="0" width="755" height="600" style="fill: rgb(255, 255, 255); fill-opacity: 1;"/><defs id="defs-396db2"><g class="clips"><clipPath id="clip396db2xyplot" class="plotclip"><rect width="523" height="460"/></clipPath><clipPath class="axesclip" id="clip396db2x"><rect x="80" y="0" width="523" height="600"/></clipPath><clipPath class="axesclip" id="clip396db2y"><rect x="0" y="60" width="755" height="460"/></clipPath><clipPath class="axesclip" id="clip396db2xy"><rect x="80" y="60" width="523" height="460"/></clipPath></g><g class="gradients"/><g class="patterns"/></defs><g class="bglayer"><rect class="bg" x="80" y="60" width="523" height="460" style="fill: rgb(255, 255, 255); fill-opacity: 1; stroke-width: 0;"/></g><g class="layer-below"><g class="imagelayer"/><g class="shapelayer"/></g><g class="cartesianlayer"><g class="subplot xy"><g class="layer-subplot"><g class="shapelayer"/><g class="imagelayer"/></g><g class="minor-gridlayer"><g class="x"/><g class="y"/></g><g class="gridlayer"><g class="x"><path class="xgrid crisp" transform="translate(114.9,0)" d="M0,60v460" style="stroke: rgb(208, 208, 208); stroke-opacity: 1; stroke-width: 1px;"/><path class="xgrid crisp" transform="translate(156.1,0)" d="M0,60v460" style="stroke: rgb(208, 208, 208); stroke-opacity: 1; stroke-width: 1px;"/><path class="xgrid crisp" transform="translate(197.3,0)" d="M0,60v460" style="stroke: rgb(208, 208, 208); stroke-opacity: 1; stroke-width: 1px;"/><path class="xgrid crisp" transform="translate(238.5,0)" d="M0,60v460" style="stroke: rgb(208, 208, 208); stroke-opacity: 1; stroke-width: 1px;"/><path class="xgrid crisp" transform="translate(279.7,0)" d="M0,60v460" style="stroke: rgb(208, 208, 208); stroke-opacity: 1; stroke-width: 1px;"/><path class="xgrid crisp" transform="translate(320.9,0)" d="M0,60v460" style="stroke: rgb(208, 208, 208); stroke-opacity: 1; stroke-width: 1px;"/><path class="xgrid crisp" transform="translate(362.1,0)" d="M0,60v460" style="stroke: rgb(208, 208, 208); stroke-opacity: 1; stroke-width: 1px;"/><path class="xgrid crisp" transform="translate(403.3,0)" d="M0,60v460" style="stroke: rgb(208, 208, 208); stroke-opacity: 1; stroke-width: 1px;"/><path class="xgrid crisp" transform="translate(444.5,0)" d="M0,60v460" style="stroke: rgb(208, 208, 208); stroke-opacity: 1; stroke-width: 1px;"/><path class="xgrid crisp" transform="translate(485.7,0)" d="M0,60v460" style="stroke: rgb(208, 208, 208); stroke-opacity: 1; stroke-width: 1px;"/><path class="xgrid crisp" transform="translate(526.9,0)" d="M0,60v460" style="stroke: rgb(208, 208, 208); stroke-opacity: 1; stroke-width: 1px;"/><path class="xgrid crisp" transform="translate(568.1,0)" d="M0,60v460" style="stroke: rgb(208, 208, 208); stroke-opacity: 1; stroke-width: 1px;"/></g><g class="y"><path class="ygrid crisp" transform="translate(0,420.45)" d="M80,0h523" style="stroke: rgb(208, 208, 208); stroke-opacity: 1; stroke-width: 1px;"/><path class="ygrid crisp" transform="translate(0,351.97)" d="M80,0h523" style="stroke: rgb(208, 208, 208); stroke-opacity: 1; stroke-width: 1px;"/><path class="ygrid crisp" transform="translate(0,283.49)" d="M80,0h523" style="stroke: rgb(208, 208, 208); stroke-opacity: 1; stroke-width: 1px;"/><path class="ygrid crisp" transform="translate(0,215.01)" d="M80,0h523" style="stroke: rgb(208, 208, 208); stroke-opacity: 1; stroke-width: 1px;"/><path class="ygrid crisp" transform="translate(0,146.53)" d="M80,0h523" style="stroke: rgb(208, 208, 208); stroke-opacity: 1; stroke-width: 1px;"/><path class="ygrid crisp" transform="translate(0,78.05)" d="M80,0h523" style="stroke: rgb(208, 208, 208); stroke-opacity: 1; stroke-width: 1px;"/></g></g><g class="zerolinelayer"><path class="yzl zl crisp" transform="translate(0,488.93)" d="M80,0h523" style="stroke: rgb(255, 255, 255); stroke-opacity: 1; stroke-width: 2px;"/></g><path class="xlines-below"/><path class="ylines-below"/><g class="overlines-below"/><g class="xaxislayer-below"/><g class="yaxislayer-below"/><g class="overaxes-below"/><g class="plot" transform="translate(80,60)" clip-path="url(#clip396db2xyplot)"><g class="scatterlayer mlayer"><g class="trace scatter trace238813" style="stroke-miterlimit: 2; opacity: 1;"><g class="fills"/><g class="errorbars"/><g class="lines"><path class="js-line" d="M34.9,324.84L76.1,46.13L117.3,35.17L158.5,152.96L199.7,31.75L240.9,241.98L282.1,56.4L323.3,105.71L364.5,346.07L405.7,374.84L446.9,363.88L488.1,381.68" style="vector-effect: none; fill: none; stroke: rgb(144, 237, 173); stroke-opacity: 1; stroke-width: 2px; opacity: 1;"/></g><g class="points"><path class="point" transform="translate(34.9,324.84)" d="M7,0A7,7 0 1,1 0,-7A7,7 0 0,1 7,0Z" style="opacity: 1; stroke: rgb(144, 237, 173); stroke-opacity: 1; stroke-width: 1px; fill: none;"/><path class="point" transform="translate(76.1,46.13)" d="M7,0A7,7 0 1,1 0,-7A7,7 0 0,1 7,0Z" style="opacity: 1; stroke: rgb(144, 237, 173); stroke-opacity: 1; stroke-width: 1px; fill: none;"/><path class="point" transform="translate(117.3,35.17)" d="M7,0A7,7 0 1,1 0,-7A7,7 0 0,1 7,0Z" style="opacity: 1; stroke: rgb(144, 237, 173); stroke-opacity: 1; stroke-width: 1px; fill: none;"/><path class="point" transform="translate(158.5,152.96)" d="M7,0A7,7 0 1,1 0,-7A7,7 0 0,1 7,0Z" style="opacity: 1; stroke: rgb(144, 237, 173); stroke-opacity: 1; stroke-width: 1px; fill: none;"/><path class="point" transform="translate(199.7,31.75)" d="M7,0A7,7 0 1,1 0,-7A7,7 0 0,1 7,0Z" style="opacity: 1; stroke: rgb(144, 237, 173); stroke-opacity: 1; stroke-width: 1px; fill: none;"/><path class="point" transform="translate(240.9,241.98)" d="M7,0A7,7 0 1,1 0,-7A7,7 0 0,1 7,0Z" style="opacity: 1; stroke: rgb(144, 237, 173); stroke-opacity: 1; stroke-width: 1px; fill: none;"/><path class="point" transform="translate(282.1,56.4)" d="M7,0A7,7 0 1,1 0,-7A7,7 0 0,1 7,0Z" style="opacity: 1; stroke: rgb(144, 237, 173); stroke-opacity: 1; stroke-width: 1px; fill: none;"/><path class="point" transform="translate(323.3,105.71)" d="M7,0A7,7 0 1,1 0,-7A7,7 0 0,1 7,0Z" style="opacity: 1; stroke: rgb(144, 237, 173); stroke-opacity: 1; stroke-width: 1px; fill: none;"/><path class="point" transform="translate(364.5,346.07)" d="M7,0A7,7 0 1,1 0,-7A7,7 0 0,1 7,0Z" style="opacity: 1; stroke: rgb(144, 237, 173); stroke-opacity: 1; stroke-width: 1px; fill: none;"/><path class="point" transform="translate(405.7,374.84)" d="M7,0A7,7 0 1,1 0,-7A7,7 0 0,1 7,0Z" style="opacity: 1; stroke: rgb(144, 237, 173); stroke-opacity: 1; stroke-width: 1px; fill: none;"/><path class="point" transform="translate(446.9,363.88)" d="M7,0A7,7 0 1,1 0,-7A7,7 0 0,1 7,0Z" style="opacity: 1; stroke: rgb(144, 237, 173); stroke-opacity: 1; stroke-width: 1px; fill: none;"/><path class="point" transform="translate(488.1,381.68)" d="M7,0A7,7 0 1,1 0,-7A7,7 0 0,1 7,0Z" style="opacity: 1; stroke: rgb(144, 237, 173); stroke-opacity: 1; stroke-width: 1px; fill: none;"/></g><g class="text"/></g><g class="trace scatter tracec58cb1" style="stroke-miterlimit: 2; opacity: 1;"><g class="fills"/><g class="errorbars"/><g class="lines"><path class="js-line" d="M34.9,122.83L76.1,46.13L117.3,101.6L158.5,209.11L199.7,169.4L240.9,367.3L282.1,106.39L323.3,106.39L364.5,362.51L405.7,428.25L446.9,213.22L488.1,304.3" style="vector-effect: none; fill: none; stroke: rgb(134, 249, 62); stroke-opacity: 1; stroke-width: 2px; opacity: 1;"/></g><g class="points"><path class="point" transform="translate(34.9,122.83)" d="M7,0A7,7 0 1,1 0,-7A7,7 0 0,1 7,0Z" style="opacity: 1; stroke: rgb(134, 249, 62); stroke-opacity: 1; stroke-width: 1px; fill: none;"/><path class="point" transform="translate(76.1,46.13)" d="M7,0A7,7 0 1,1 0,-7A7,7 0 0,1 7,0Z" style="opacity: 1; stroke: rgb(134, 249, 62); stroke-opacity: 1; stroke-width: 1px; fill: none;"/><path class="point" transform="translate(117.3,101.6)" d="M7,0A7,7 0 1,1 0,-7A7,7 0 0,1 7,0Z" style="opacity: 1; stroke: rgb(134, 249, 62); stroke-opacity: 1; stroke-width: 1px; fill: none;"/><path class="point" transform="translate(158.5,209.11)" d="M7,0A7,7 0 1,1 0,-7A7,7 0 0,1 7,0Z" style="opacity: 1; stroke: rgb(134, 249, 62); stroke-opacity: 1; stroke-width: 1px; fill: none;"/><path class="point" transform="translate(199.7,169.4)" d="M7,0A7,7 0 1,1 0,-7A7,7 0 0,1 7,0Z" style="opacity: 1; stroke: rgb(134, 249, 62); stroke-opacity: 1; stroke-width: 1px; fill: none;"/><path class="point" transform="translate(240.9,367.3)" d="M7,0A7,7 0 1,1 0,-7A7,7 0 0,1 7,0Z" style="opacity: 1; stroke: rgb(134, 249, 62); stroke-opacity: 1; stroke-width: 1px; fill: none;"/><path class="point" transform="translate(282.1,106.39)" d="M7,0A7,7 0 1,1 0,-7A7,7 0 0,1 7,0Z" style="opacity: 1; stroke: rgb(134, 249, 62); stroke-opacity: 1; stroke-width: 1px; fill: none;"/><path class="point" transform="translate(323.3,106.39)" d="M7,0A7,7 0 1,1 0,-7A7,7 0 0,1 7,0Z" style="opacity: 1; stroke: rgb(134, 249, 62); stroke-opacity: 1; stroke-width: 1px; fill: none;"/><path class="point" transform="translate(364.5,362.51)" d="M7,0A7,7 0 1,1 0,-7A7,7 0 0,1 7,0Z" style="opacity: 1; stroke: rgb(134, 249, 62); stroke-opacity: 1; stroke-width: 1px; fill: none;"/><path class="point" transform="translate(405.7,428.25)" d="M7,0A7,7 0 1,1 0,-7A7,7 0 0,1 7,0Z" style="opacity: 1; stroke: rgb(134, 249, 62); stroke-opacity: 1; stroke-width: 1px; fill: none;"/><path class="point" transform="translate(446.9,213.22)" d="M7,0A7,7 0 1,1 0,-7A7,7 0 0,1 7,0Z" style="opacity: 1; stroke: rgb(134, 249, 62); stroke-opacity: 1; stroke-width: 1px; fill: none;"/><path class="point" transform="translate(488.1,304.3)" d="M7,0A7,7 0 1,1 0,-7A7,7 0 0,1 7,0Z" style="opacity: 1; stroke: rgb(134, 249, 62); stroke-opacity: 1; stroke-width: 1px; fill: none;"/></g><g class="text"/></g><g class="trace scatter trace11ee7a" style="stroke-miterlimit: 2; opacity: 1;"><g class="fills"/><g class="errorbars"/><g class="lines"><path class="js-line" d="M34.9,79L76.1,157.75L117.3,327.58L158.5,296.77L199.7,124.2L240.9,296.77L282.1,365.93L323.3,370.73L364.5,262.53L405.7,410.45L446.9,220.76L488.1,110.5" style="vector-effect: none; fill: none; stroke: rgb(158, 34, 88); stroke-opacity: 1; stroke-width: 2px; opacity: 1;"/></g><g class="points"><path class="point" transform="translate(34.9,79)" d="M7,0A7,7 0 1,1 0,-7A7,7 0 0,1 7,0Z" style="opacity: 1; stroke: rgb(158, 34, 88); stroke-opacity: 1; stroke-width: 1px; fill: none;"/><path class="point" transform="translate(76.1,157.75)" d="M7,0A7,7 0 1,1 0,-7A7,7 0 0,1 7,0Z" style="opacity: 1; stroke: rgb(158, 34, 88); stroke-opacity: 1; stroke-width: 1px; fill: none;"/><path class="point" transform="translate(117.3,327.58)" d="M7,0A7,7 0 1,1 0,-7A7,7 0 0,1 7,0Z" style="opacity: 1; stroke: rgb(158, 34, 88); stroke-opacity: 1; stroke-width: 1px; fill: none;"/><path class="point" transform="translate(158.5,296.77)" d="M7,0A7,7 0 1,1 0,-7A7,7 0 0,1 7,0Z" style="opacity: 1; stroke: rgb(158, 34, 88); stroke-opacity: 1; stroke-width: 1px; fill: none;"/><path class="point" transform="translate(199.7,124.2)" d="M7,0A7,7 0 1,1 0,-7A7,7 0 0,1 7,0Z" style="opacity: 1; stroke: rgb(158, 34, 88); stroke-opacity: 1; stroke-width: 1px; fill: none;"/><path class="point" transform="translate(240.9,296.77)" d="M7,0A7,7 0 1,1 0,-7A7,7 0 0,1 7,0Z" style="opacity: 1; stroke: rgb(158, 34, 88); stroke-opacity: 1; stroke-width: 1px; fill: none;"/><path class="point" transform="translate(282.1,365.93)" d="M7,0A7,7 0 1,1 0,-7A7,7 0 0,1 7,0Z" style="opacity: 1; stroke: rgb(158, 34, 88); stroke-opacity: 1; stroke-width: 1px; fill: none;"/><path class="point" transform="translate(323.3,370.73)" d="M7,0A7,7 0 1,1 0,-7A7,7 0 0,1 7,0Z" style="opacity: 1; stroke: rgb(158, 34, 88); stroke-opacity: 1; stroke-width: 1px; fill: none;"/><path class="point" transform="translate(364.5,262.53)" d="M7,0A7,7 0 1,1 0,-7A7,7 0 0,1 7,0Z" style="opacity: 1; stroke: rgb(158, 34, 88); stroke-opacity: 1; stroke-width: 1px; fill: none;"/><path class="point" transform="translate(405.7,410.45)" d="M7,0A7,7 0 1,1 0,-7A7,7 0 0,1 7,0Z" style="opacity: 1; stroke: rgb(158, 34, 88); stroke-opacity: 1; stroke-width: 1px; fill: none;"/><path class="point" transform="translate(446.9,220.76)" d="M7,0A7,7 0 1,1 0,-7A7,7 0 0,1 7,0Z" style="opacity: 1; stroke: rgb(158, 34, 88); stroke-opacity: 1; stroke-width: 1px; fill: none;"/><path class="point" transform="translate(488.1,110.5)" d="M7,0A7,7 0 1,1 0,-7A7,7 0 0,1 7,0Z" style="opacity: 1; stroke: rgb(158, 34, 88); stroke-opacity: 1; stroke-width: 1px; fill: none;"/></g><g class="text"/></g></g></g><g class="overplot"/><path class="xlines-above crisp" d="M0,0" style="fill: none;"/><path class="ylines-above crisp" d="M0,0" style="fill: none;"/><g class="overlines-above"/><g class="xaxislayer-above"><g class="xtick"><text text-anchor="start" x="0" y="534" transform="translate(114.9,0) rotate(45,0,527.5)" style="font-family: avenir; font-size: 13px; fill: rgb(0, 0, 0); fill-opacity: 1; white-space: pre; opacity: 1;">Jan</text></g><g class="xtick"><text text-anchor="start" x="0" y="534" transform="translate(156.1,0) rotate(45,0,527.5)" style="font-family: avenir; font-size: 13px; fill: rgb(0, 0, 0); fill-opacity: 1; white-space: pre; opacity: 1;">Feb</text></g><g class="xtick"><text text-anchor="start" x="0" y="534" transform="translate(197.3,0) rotate(45,0,527.5)" style="font-family: avenir; font-size: 13px; fill: rgb(0, 0, 0); fill-opacity: 1; white-space: pre; opacity: 1;">Mar</text></g><g class="xtick"><text text-anchor="start" x="0" y="534" transform="translate(238.5,0) rotate(45,0,527.5)" style="font-family: avenir; font-size: 13px; fill: rgb(0, 0, 0); fill-opacity: 1; white-space: pre; opacity: 1;">Apr</text></g><g class="xtick"><text text-anchor="start" x="0" y="534" transform="translate(279.7,0) rotate(45,0,527.5)" style="font-family: avenir; font-size: 13px; fill: rgb(0, 0, 0); fill-opacity: 1; white-space: pre; opacity: 1;">May</text></g><g class="xtick"><text text-anchor="start" x="0" y="534" transform="translate(320.9,0) rotate(45,0,527.5)" style="font-family: avenir; font-size: 13px; fill: rgb(0, 0, 0); fill-opacity: 1; white-space: pre; opacity: 1;">June</text></g><g class="xtick"><text text-anchor="start" x="0" y="534" transform="translate(362.1,0) rotate(45,0,527.5)" style="font-family: avenir; font-size: 13px; fill: rgb(0, 0, 0); fill-opacity: 1; white-space: pre; opacity: 1;">July</text></g><g class="xtick"><text text-anchor="start" x="0" y="534" transform="translate(403.3,0) rotate(45,0,527.5)" style="font-family: avenir; font-size: 13px; fill: rgb(0, 0, 0); fill-opacity: 1; white-space: pre; opacity: 1;">Aug</text></g><g class="xtick"><text text-anchor="start" x="0" y="534" transform="translate(444.5,0) rotate(45,0,527.5)" style="font-family: avenir; font-size: 13px; fill: rgb(0, 0, 0); fill-opacity: 1; white-space: pre; opacity: 1;">Sep</text></g><g class="xtick"><text text-anchor="start" x="0" y="534" transform="translate(485.7,0) rotate(45,0,527.5)" style="font-family: avenir; font-size: 13px; fill: rgb(0, 0, 0); fill-opacity: 1; white-space: pre; opacity: 1;">Oct</text></g><g class="xtick"><text text-anchor="start" x="0" y="534" transform="translate(526.9,0) rotate(45,0,527.5)" style="font-family: avenir; font-size: 13px; fill: rgb(0, 0, 0); fill-opacity: 1; white-space: pre; opacity: 1;">Nov</text></g><g class="xtick"><text text-anchor="start" x="0" y="534" transform="translate(568.1,0) rotate(45,0,527.5)" style="font-family: avenir; font-size: 13px; fill: rgb(0, 0, 0); fill-opacity: 1; white-space: pre; opacity: 1;">Dec</text></g></g><g class="yaxislayer-above"><g class="ytick"><text text-anchor="end" x="79" y="4.55" transform="translate(0,488.93)" style="font-family: avenir; font-size: 13px; fill: rgb(0, 0, 0); fill-opacity: 1; white-space: pre; opacity: 1;">0</text></g><g class="ytick"><text text-anchor="end" x="79" y="4.55" style="font-family: avenir; font-size: 13px; fill: rgb(0, 0, 0); fill-opacity: 1; white-space: pre; opacity: 1;" transform="translate(0,420.45)">100</text></g><g class="ytick"><text text-anchor="end" x="79" y="4.55" style="font-family: avenir; font-size: 13px; fill: rgb(0, 0, 0); fill-opacity: 1; white-space: pre; opacity: 1;" transform="translate(0,351.97)">200</text></g><g class="ytick"><text text-anchor="end" x="79" y="4.55" style="font-family: avenir; font-size: 13px; fill: rgb(0, 0, 0); fill-opacity: 1; white-space: pre; opacity: 1;" transform="translate(0,283.49)">300</text></g><g class="ytick"><text text-anchor="end" x="79" y="4.55" style="font-family: avenir; font-size: 13px; fill: rgb(0, 0, 0); fill-opacity: 1; white-space: pre; opacity: 1;" transform="translate(0,215.01)">400</text></g><g class="ytick"><text text-anchor="end" x="79" y="4.55" style="font-family: avenir; font-size: 13px; fill: rgb(0, 0, 0); fill-opacity: 1; white-space: pre; opacity: 1;" transform="translate(0,146.53)">500</text></g><g class="ytick"><text text-anchor="end" x="79" y="4.55" style="font-family: avenir; font-size: 13px; fill: rgb(0, 0, 0); fill-opacity: 1; white-space: pre; opacity: 1;" transform="translate(0,78.05)">600</text></g></g><g class="overaxes-above"/></g></g><g class="polarlayer"/><g class="smithlayer"/><g class="ternarylayer"/><g class="geolayer"/><g class="funnelarealayer"/><g class="pielayer"/><g class="iciclelayer"/><g class="treemaplayer"/><g class="sunburstlayer"/><g class="glimages"/><defs id="topdefs-396db2"><g class="clips"/><clipPath id="legend396db2"><rect width="130" height="86" x="0" y="0"/></clipPath></defs><g class="layer-above"><g class="imagelayer"/><g class="shapelayer"/></g><g class="infolayer"><g class="legend" pointer-events="all" transform="translate(613.46,60)"><rect class="bg" shape-rendering="crispEdges" style="stroke: rgb(68, 68, 68); stroke-opacity: 1; fill: rgb(255, 255, 255); fill-opacity: 1; stroke-width: 0px;" width="130" height="86" x="0" y="0"/><g class="scrollbox" transform="" clip-path="url(#legend396db2)"><text class="legendtitletext" text-anchor="start" x="2" y="18.2" style="font-family: avenir; font-size: 14px; fill: rgb(42, 63, 95); fill-opacity: 1; white-space: pre;">participant week all</text><g class="groups" transform=""><g class="traces" transform="translate(0,32.7)" style="opacity: 1;"><text class="legendtext" text-anchor="start" x="40" y="4.680000000000001" style="font-family: avenir; font-size: 12px; fill: rgb(42, 63, 95); fill-opacity: 1; white-space: pre;">open reflect town</text><g class="layers" style="opacity: 1;"><g class="legendfill"/><g class="legendlines"><path class="js-line" d="M5,0h30" style="fill: none; stroke: rgb(144, 237, 173); stroke-opacity: 1; stroke-width: 2px;"/></g><g class="legendsymbols"><g class="legendpoints"><path class="scatterpts" transform="translate(20,0)" d="M7,0A7,7 0 1,1 0,-7A7,7 0 0,1 7,0Z" style="opacity: 1; stroke: rgb(144, 237, 173); stroke-opacity: 1; stroke-width: 1px; fill: none;"/></g></g></g><rect class="legendtoggle" x="0" y="-9.5" width="124.96875" height="19" style="fill: rgb(0, 0, 0); fill-opacity: 0;"/></g></g><g class="groups" transform=""><g class="traces" transform="translate(0,51.7)" style="opacity: 1;"><text class="legendtext" text-anchor="start" x="40" y="4.680000000000001" style="font-family: avenir; font-size: 12px; fill: rgb(42, 63, 95); fill-opacity: 1; white-space: pre;">yard eight talk</text><g class="layers" style="opacity: 1;"><g class="legendfill"/><g class="legendlines"><path class="js-line" d="M5,0h30" style="fill: none; stroke: rgb(134, 249, 62); stroke-opacity: 1; stroke-width: 2px;"/></g><g class="legendsymbols"><g class="legendpoints"><path class="scatterpts" transform="translate(20,0)" d="M7,0A7,7 0 1,1 0,-7A7,7 0 0,1 7,0Z" style="opacity: 1; stroke: rgb(134, 249, 62); stroke-opacity: 1; stroke-width: 1px; fill: none;"/></g></g></g><rect class="legendtoggle" x="0" y="-9.5" width="124.96875" height="19" style="fill: rgb(0, 0, 0); fill-opacity: 0;"/></g></g><g class="groups" transform=""><g class="traces" transform="translate(0,70.7)" style="opacity: 1;"><text class="legendtext" text-anchor="start" x="40" y="4.680000000000001" style="font-family: avenir; font-size: 12px; fill: rgb(42, 63, 95); fill-opacity: 1; white-space: pre;">its call prepare</text><g class="layers" style="opacity: 1;"><g class="legendfill"/><g class="legendlines"><path class="js-line" d="M5,0h30" style="fill: none; stroke: rgb(158, 34, 88); stroke-opacity: 1; stroke-width: 2px;"/></g><g class="legendsymbols"><g class="legendpoints"><path class="scatterpts" transform="translate(20,0)" d="M7,0A7,7 0 1,1 0,-7A7,7 0 0,1 7,0Z" style="opacity: 1; stroke: rgb(158, 34, 88); stroke-opacity: 1; stroke-width: 1px; fill: none;"/></g></g></g><rect class="legendtoggle" x="0" y="-9.5" width="124.96875" height="19" style="fill: rgb(0, 0, 0); fill-opacity: 0;"/></g></g></g><rect class="scrollbar" rx="20" ry="3" width="0" height="0" style="fill: rgb(128, 139, 164); fill-opacity: 1;" x="0" y="0"/></g><g class="g-gtitle"><text class="gtitle" x="377.5" y="30" text-anchor="middle" dy="0em" style="font-family: avenir; font-size: 25px; fill: rgb(0, 0, 0); opacity: 1; font-weight: normal; white-space: pre;">defense truth still</text></g><g class="g-xtitle"><text class="xtitle" x="341.5" y="575.731640625" text-anchor="middle" style="font-family: avenir; font-size: 14px; fill: rgb(0, 0, 0); opacity: 1; font-weight: normal; white-space: pre;">Month</text></g><g class="g-ytitle"/></g></svg>