<svg class="main-svg" xmlns="http://www.w3.org/2000/svg" xmlns:xlink="http://www.w3.org/1999/xlink" width="896" height="600" style="" viewBox="0 0 896 600"><rect x="0" y="0" width="896" height="600" style="fill: rgb(255, 255, 255); fill-opacity: 1;"/><defs id="defs-6150c1"><g class="clips"><clipPath id="clip6150c1xyplot" class="plotclip"><rect width="581" height="460"/></clipPath><clipPath class="axesclip" id="clip6150c1x"><rect x="80" y="0" width="581" height="600"/></clipPath><clipPath class="axesclip" id="clip6150c1y"><rect x="0" y="60" width="896" height="460"/></clipPath><clipPath class="axesclip" id="clip6150c1xy"><rect x="80" y="60" width="581" height="460"/></clipPath></g><g class="gradients"/><g class="patterns"/></defs><g class="bglayer"><rect class="bg" x="80" y="60" width="581" height="460" style="fill: rgb(255, 255, 255); fill-opacity: 1; stroke-width: 0;"/></g><g class="layer-below"><g class="imagelayer"/><g class="shapelayer"/></g><g class="cartesianlayer"><g class="subplot xy"><g class="layer-subplot"><g class="shapelayer"/><g class="imagelayer"/></g><g class="minor-gridlayer"><g class="x"/><g class="y"/></g><g class="gridlayer"><g class="x"/><g class="y"><path class="ygrid crisp" transform="translate(0,424.08)" d="M80,0h581" style="stroke: rgb(208, 208, 208); stroke-opacity: 1; stroke-width: 1px;"/><path class="ygrid crisp" transform="translate(0,352.19)" d="M80,0h581" style="stroke: rgb(208, 208, 208); stroke-opacity: 1; stroke-width: 1px;"/><path class="ygrid crisp" transform="translate(0,280.28999999999996)" d="M80,0h581" style="stroke: rgb(208, 208, 208); stroke-opacity: 1; stroke-width: 1px;"/><path class="ygrid crisp" transform="translate(0,208.4)" d="M80,0h581" style="stroke: rgb(208, 208, 208); stroke-opacity: 1; stroke-width: 1px;"/><path class="ygrid crisp" transform="translate(0,136.51)" d="M80,0h581" style="stroke: rgb(208, 208, 208); stroke-opacity: 1; stroke-width: 1px;"/><path class="ygrid crisp" transform="translate(0,64.62)" d="M80,0h581" style="stroke: rgb(208, 208, 208); stroke-opacity: 1; stroke-width: 1px;"/></g></g><g class="zerolinelayer"><path class="yzl zl crisp" transform="translate(0,495.97)" d="M80,0h581" style="stroke: rgb(255, 255, 255); stroke-opacity: 1; stroke-width: 2px;"/></g><path class="xlines-below"/><path class="ylines-below"/><g class="overlines-below"/><g class="xaxislayer-below"/><g class="yaxislayer-below"/><g class="overaxes-below"/><g class="plot" transform="translate(80,60)" clip-path="url(#clip6150c1xyplot)"><g class="scatterlayer mlayer"><g class="trace scatter trace2e7995" style="stroke-miterlimit: 2; opacity: 1;"><g class="fills"/><g class="errorbars"/><g class="lines"><path class="js-line" d="M36.55,425.91L92.98,180.75L149.42,402.9L205.85,232.52L262.28,340.35L318.72,191.54L375.15,150.56L431.58,156.31L488.02,219.58L544.45,116.77" style="vector-effect: none; fill: none; stroke: rgb(71, 110, 193); stroke-opacity: 1; stroke-width: 2px; opacity: 1;"/></g><g class="points"><path class="point" transform="translate(36.55,425.91)" d="M6,0A6,6 0 1,1 0,-6A6,6 0 0,1 6,0Z" style="opacity: 1; stroke: rgb(71, 110, 193); stroke-opacity: 1; stroke-width: 1px; fill: none;"/><path class="point" transform="translate(92.98,180.75)" d="M6,0A6,6 0 1,1 0,-6A6,6 0 0,1 6,0Z" style="opacity: 1; stroke: rgb(71, 110, 193); stroke-opacity: 1; stroke-width: 1px; fill: none;"/><path class="point" transform="translate(149.42,402.9)" d="M6,0A6,6 0 1,1 0,-6A6,6 0 0,1 6,0Z" style="opacity: 1; stroke: rgb(71, 110, 193); stroke-opacity: 1; stroke-width: 1px; fill: none;"/><path class="point" transform="translate(205.85,232.52)" d="M6,0A6,6 0 1,1 0,-6A6,6 0 0,1 6,0Z" style="opacity: 1; stroke: rgb(71, 110, 193); stroke-opacity: 1; stroke-width: 1px; fill: none;"/><path class="point" transform="translate(262.28,340.35)" d="M6,0A6,6 0 1,1 0,-6A6,6 0 0,1 6,0Z" style="opacity: 1; stroke: rgb(71, 110, 193); stroke-opacity: 1; stroke-width: 1px; fill: none;"/><path class="point" transform="translate(318.72,191.54)" d="M6,0A6,6 0 1,1 0,-6A6,6 0 0,1 6,0Z" style="opacity: 1; stroke: rgb(71, 110, 193); stroke-opacity: 1; stroke-width: 1px; fill: none;"/><path class="point" transform="translate(375.15,150.56)" d="M6,0A6,6 0 1,1 0,-6A6,6 0 0,1 6,0Z" style="opacity: 1; stroke: rgb(71, 110, 193); stroke-opacity: 1; stroke-width: 1px; fill: none;"/><path class="point" transform="translate(431.58,156.31)" d="M6,0A6,6 0 1,1 0,-6A6,6 0 0,1 6,0Z" style="opacity: 1; stroke: rgb(71, 110, 193); stroke-opacity: 1; stroke-width: 1px; fill: none;"/><path class="point" transform="translate(488.02,219.58)" d="M6,0A6,6 0 1,1 0,-6A6,6 0 0,1 6,0Z" style="opacity: 1; stroke: rgb(71, 110, 193); stroke-opacity: 1; stroke-width: 1px; fill: none;"/><path class="point" transform="translate(544.45,116.77)" d="M6,0A6,6 0 1,1 0,-6A6,6 0 0,1 6,0Z" style="opacity: 1; stroke: rgb(71, 110, 193); stroke-opacity: 1; stroke-width: 1px; fill: none;"/></g><g class="text"/></g><g class="trace scatter traceff903b" style="stroke-miterlimit: 2; opacity: 1;"><g class="fills"/><g class="errorbars"/><g class="lines"><path class="js-line" d="M36.55,299.38L92.98,336.76L149.42,410.81L205.85,354.01L262.28,107.42L318.72,154.87L375.15,429.5L431.58,118.93L488.02,337.48L544.45,73.64" style="vector-effect: none; fill: none; stroke: rgb(192, 76, 224); stroke-opacity: 1; stroke-width: 2px; opacity: 1;"/></g><g class="points"><path class="point" transform="translate(36.55,299.38)" d="M6,0A6,6 0 1,1 0,-6A6,6 0 0,1 6,0Z" style="opacity: 1; stroke: rgb(192, 76, 224); stroke-opacity: 1; stroke-width: 1px; fill: none;"/><path class="point" transform="translate(92.98,336.76)" d="M6,0A6,6 0 1,1 0,-6A6,6 0 0,1 6,0Z" style="opacity: 1; stroke: rgb(192, 76, 224); stroke-opacity: 1; stroke-width: 1px; fill: none;"/><path class="point" transform="translate(149.42,410.81)" d="M6,0A6,6 0 1,1 0,-6A6,6 0 0,1 6,0Z" style="opacity: 1; stroke: rgb(192, 76, 224); stroke-opacity: 1; stroke-width: 1px; fill: none;"/><path class="point" transform="translate(205.85,354.01)" d="M6,0A6,6 0 1,1 0,-6A6,6 0 0,1 6,0Z" style="opacity: 1; stroke: rgb(192, 76, 224); stroke-opacity: 1; stroke-width: 1px; fill: none;"/><path class="point" transform="translate(262.28,107.42)" d="M6,0A6,6 0 1,1 0,-6A6,6 0 0,1 6,0Z" style="opacity: 1; stroke: rgb(192, 76, 224); stroke-opacity: 1; stroke-width: 1px; fill: none;"/><path class="point" transform="translate(318.72,154.87)" d="M6,0A6,6 0 1,1 0,-6A6,6 0 0,1 6,0Z" style="opacity: 1; stroke: rgb(192, 76, 224); stroke-opacity: 1; stroke-width: 1px; fill: none;"/><path class="point" transform="translate(375.15,429.5)" d="M6,0A6,6 0 1,1 0,-6A6,6 0 0,1 6,0Z" style="opacity: 1; stroke: rgb(192, 76, 224); stroke-opacity: 1; stroke-width: 1px; fill: none;"/><path class="point" transform="translate(431.58,118.93)" d="M6,0A6,6 0 1,1 0,-6A6,6 0 0,1 6,0Z" style="opacity: 1; stroke: rgb(192, 76, 224); stroke-opacity: 1; stroke-width: 1px; fill: none;"/><path class="point" transform="translate(488.02,337.48)" d="M6,0A6,6 0 1,1 0,-6A6,6 0 0,1 6,0Z" style="opacity: 1; stroke: rgb(192, 76, 224); stroke-opacity: 1; stroke-width: 1px; fill: none;"/><path class="point" transform="translate(544.45,73.64)" d="M6,0A6,6 0 1,1 0,-6A6,6 0 0,1 6,0Z" style="opacity: 1; stroke: rgb(192, 76, 224); stroke-opacity: 1; stroke-width: 1px; fill: none;"/></g><g class="text"/></g><g class="trace scatter trace103f56" style="stroke-miterlimit: 2; opacity: 1;"><g class="fills"/><g class="errorbars"/><g class="lines"><path class="js-line" d="M36.55,336.04L92.98,273.49L149.42,235.39L205.85,173.56L262.28,200.16L318.72,57.1L375.15,349.7L431.58,143.37L488.02,144.81L544.45,117.49" style="vector-effect: none; fill: none; stroke: rgb(249, 205, 194); stroke-opacity: 1; stroke-width: 2px; opacity: 1;"/></g><g class="points"><path class="point" transform="translate(36.55,336.04)" d="M6,0A6,6 0 1,1 0,-6A6,6 0 0,1 6,0Z" style="opacity: 1; stroke: rgb(249, 205, 194); stroke-opacity: 1; stroke-width: 1px; fill: none;"/><path class="point" transform="translate(92.98,273.49)" d="M6,0A6,6 0 1,1 0,-6A6,6 0 0,1 6,0Z" style="opacity: 1; stroke: rgb(249, 205, 194); stroke-opacity: 1; stroke-width: 1px; fill: none;"/><path class="point" transform="translate(149.42,235.39)" d="M6,0A6,6 0 1,1 0,-6A6,6 0 0,1 6,0Z" style="opacity: 1; stroke: rgb(249, 205, 194); stroke-opacity: 1; stroke-width: 1px; fill: none;"/><path class="point" transform="translate(205.85,173.56)" d="M6,0A6,6 0 1,1 0,-6A6,6 0 0,1 6,0Z" style="opacity: 1; stroke: rgb(249, 205, 194); stroke-opacity: 1; stroke-width: 1px; fill: none;"/><path class="point" transform="translate(262.28,200.16)" d="M6,0A6,6 0 1,1 0,-6A6,6 0 0,1 6,0Z" style="opacity: 1; stroke: rgb(249, 205, 194); stroke-opacity: 1; stroke-width: 1px; fill: none;"/><path class="point" transform="translate(318.72,57.1)" d="M6,0A6,6 0 1,1 0,-6A6,6 0 0,1 6,0Z" style="opacity: 1; stroke: rgb(249, 205, 194); stroke-opacity: 1; stroke-width: 1px; fill: none;"/><path class="point" transform="translate(375.15,349.7)" d="M6,0A6,6 0 1,1 0,-6A6,6 0 0,1 6,0Z" style="opacity: 1; stroke: rgb(249, 205, 194); stroke-opacity: 1; stroke-width: 1px; fill: none;"/><path class="point" transform="translate(431.58,143.37)" d="M6,0A6,6 0 1,1 0,-6A6,6 0 0,1 6,0Z" style="opacity: 1; stroke: rgb(249, 205, 194); stroke-opacity: 1; stroke-width: 1px; fill: none;"/><path class="point" transform="translate(488.02,144.81)" d="M6,0A6,6 0 1,1 0,-6A6,6 0 0,1 6,0Z" style="opacity: 1; stroke: rgb(249, 205, 194); stroke-opacity: 1; stroke-width: 1px; fill: none;"/><path class="point" transform="translate(544.45,117.49)" d="M6,0A6,6 0 1,1 0,-6A6,6 0 0,1 6,0Z" style="opacity: 1; stroke: rgb(249, 205, 194); stroke-opacity: 1; stroke-width: 1px; fill: none;"/></g><g class="text"/></g><g class="trace scatter trace8e3ed0" style="stroke-miterlimit: 2; opacity: 1;"><g class="fills"/><g class="errorbars"/><g class="lines"><path class="js-line" d="M36.55,62.85L92.98,384.93L149.42,267.02L205.85,351.14L262.28,203.04L318.72,264.15L375.15,213.11L431.58,72.2L488.02,30.5L544.45,255.52" style="vector-effect: none; fill: none; stroke: rgb(220, 229, 137); stroke-opacity: 1; stroke-width: 2px; opacity: 1;"/></g><g class="points"><path class="point" transform="translate(36.55,62.85)" d="M6,0A6,6 0 1,1 0,-6A6,6 0 0,1 6,0Z" style="opacity: 1; stroke: rgb(220, 229, 137); stroke-opacity: 1; stroke-width: 1px; fill: none;"/><path class="point" transform="translate(92.98,384.93)" d="M6,0A6,6 0 1,1 0,-6A6,6 0 0,1 6,0Z" style="opacity: 1; stroke: rgb(220, 229, 137); stroke-opacity: 1; stroke-width: 1px; fill: none;"/><path class="point" transform="translate(149.42,267.02)" d="M6,0A6,6 0 1,1 0,-6A6,6 0 0,1 6,0Z" style="opacity: 1; stroke: rgb(220, 229, 137); stroke-opacity: 1; stroke-width: 1px; fill: none;"/><path class="point" transform="translate(205.85,351.14)" d="M6,0A6,6 0 1,1 0,-6A6,6 0 0,1 6,0Z" style="opacity: 1; stroke: rgb(220, 229, 137); stroke-opacity: 1; stroke-width: 1px; fill: none;"/><path class="point" transform="translate(262.28,203.04)" d="M6,0A6,6 0 1,1 0,-6A6,6 0 0,1 6,0Z" style="opacity: 1; stroke: rgb(220, 229, 137); stroke-opacity: 1; stroke-width: 1px; fill: none;"/><path class="point" transform="translate(318.72,264.15)" d="M6,0A6,6 0 1,1 0,-6A6,6 0 0,1 6,0Z" style="opacity: 1; stroke: rgb(220, 229, 137); stroke-opacity: 1; stroke-width: 1px; fill: none;"/><path class="point" transform="translate(375.15,213.11)" d="M6,0A6,6 0 1,1 0,-6A6,6 0 0,1 6,0Z" style="opacity: 1; stroke: rgb(220, 229, 137); stroke-opacity: 1; stroke-width: 1px; fill: none;"/><path class="point" transform="translate(431.58,72.2)" d="M6,0A6,6 0 1,1 0,-6A6,6 0 0,1 6,0Z" style="opacity: 1; stroke: rgb(220, 229, 137); stroke-opacity: 1; stroke-width: 1px; fill: none;"/><path class="point" transform="translate(488.02,30.5)" d="M6,0A6,6 0 1,1 0,-6A6,6 0 0,1 6,0Z" style="opacity: 1; stroke: rgb(220, 229, 137); stroke-opacity: 1; stroke-width: 1px; fill: none;"/><path class="point" transform="translate(544.45,255.52)" d="M6,0A6,6 0 1,1 0,-6A6,6 0 0,1 6,0Z" style="opacity: 1; stroke: rgb(220, 229, 137); stroke-opacity: 1; stroke-width: 1px; fill: none;"/></g><g class="text"/></g></g></g><g class="overplot"/><path class="xlines-above crisp" d="M0,0" style="fill: none;"/><path class="ylines-above crisp" d="M0,0" style="fill: none;"/><g class="overlines-above"/><g class="xaxislayer-above"><g class="xtick"><text text-anchor="start" x="1.75" y="526" transform="translate(144.76999999999998,0) rotate(90,1.75,521)" style="font-family: monospace; font-size: 10px; fill: rgb(0, 0, 0); fill-opacity: 1; white-space: pre; opacity: 1;">1860</text></g><g class="xtick"><text text-anchor="start" x="1.75" y="526" style="font-family: monospace; font-size: 10px; fill: rgb(0, 0, 0); fill-opacity: 1; white-space: pre; opacity: 1;" transform="translate(215.31,0) rotate(90,1.75,521)">1865</text></g><g class="xtick"><text text-anchor="start" x="1.75" y="526" style="font-family: monospace; font-size: 10px; fill: rgb(0, 0, 0); fill-opacity: 1; white-space: pre; opacity: 1;" transform="translate(285.85,0) rotate(90,1.75,521)">1870</text></g><g class="xtick"><text text-anchor="start" x="1.75" y="526" style="font-family: monospace; font-size: 10px; fill: rgb(0, 0, 0); fill-opacity: 1; white-space: pre; opacity: 1;" transform="translate(356.39,0) rotate(90,1.75,521)">1875</text></g><g class="xtick"><text text-anchor="start" x="1.75" y="526" style="font-family: monospace; font-size: 10px; fill: rgb(0, 0, 0); fill-opacity: 1; white-space: pre; opacity: 1;" transform="translate(426.93,0) rotate(90,1.75,521)">1880</text></g><g class="xtick"><text text-anchor="start" x="1.75" y="526" style="font-family: monospace; font-size: 10px; fill: rgb(0, 0, 0); fill-opacity: 1; white-space: pre; opacity: 1;" transform="translate(497.47,0) rotate(90,1.75,521)">1885</text></g><g class="xtick"><text text-anchor="start" x="1.75" y="526" style="font-family: monospace; font-size: 10px; fill: rgb(0, 0, 0); fill-opacity: 1; white-space: pre; opacity: 1;" transform="translate(568.02,0) rotate(90,1.75,521)">1890</text></g><g class="xtick"><text text-anchor="start" x="1.75" y="526" style="font-family: monospace; font-size: 10px; fill: rgb(0, 0, 0); fill-opacity: 1; white-space: pre; opacity: 1;" transform="translate(638.56,0) rotate(90,1.75,521)">1895</text></g></g><g class="yaxislayer-above"><g class="ytick"><text text-anchor="end" x="79" y="3.5" transform="translate(0,495.97)" style="font-family: monospace; font-size: 10px; fill: rgb(0, 0, 0); fill-opacity: 1; white-space: pre; opacity: 1;">0</text></g><g class="ytick"><text text-anchor="end" x="79" y="3.5" style="font-family: monospace; font-size: 10px; fill: rgb(0, 0, 0); fill-opacity: 1; white-space: pre; opacity: 1;" transform="translate(0,424.08)">100</text></g><g class="ytick"><text text-anchor="end" x="79" y="3.5" style="font-family: monospace; font-size: 10px; fill: rgb(0, 0, 0); fill-opacity: 1; white-space: pre; opacity: 1;" transform="translate(0,352.19)">200</text></g><g class="ytick"><text text-anchor="end" x="79" y="3.5" style="font-family: monospace; font-size: 10px; fill: rgb(0, 0, 0); fill-opacity: 1; white-space: pre; opacity: 1;" transform="translate(0,280.28999999999996)">300</text></g><g class="ytick"><text text-anchor="end" x="79" y="3.5" style="font-family: monospace; font-size: 10px; fill: rgb(0, 0, 0); fill-opacity: 1; white-space: pre; opacity: 1;" transform="translate(0,208.4)">400</text></g><g class="ytick"><text text-anchor="end" x="79" y="3.5" style="font-family: monospace; font-size: 10px; fill: rgb(0, 0, 0); fill-opacity: 1; white-space: pre; opacity: 1;" transform="translate(0,136.51)">500</text></g><g class="ytick"><text text-anchor="end" x="79" y="3.5" style="font-family: monospace; font-size: 10px; fill: rgb(0, 0, 0); fill-opacity: 1; white-space: pre; opacity: 1;" transform="translate(0,64.62)">600</text></g></g><g class="overaxes-above"/></g></g><g class="polarlayer"/><g class="smithlayer"/><g class="ternarylayer"/><g class="geolayer"/><g class="funnelarealayer"/><g class="pielayer"/><g class="iciclelayer"/><g class="treemaplayer"/><g class="sunburstlayer"/><g class="glimages"/><defs id="topdefs-6150c1"><g class="clips"/><clipPath id="legend6150c1"><rect width="211" height="105" x="0" y="0"/></clipPath></defs><g class="layer-above"><g class="imagelayer"/><g class="shapelayer"/></g><g class="infolayer"><g class="legend" pointer-events="all" transform="translate(672.62,60)"><rect class="bg" shape-rendering="crispEdges" style="stroke: rgb(68, 68, 68); stroke-opacity: 1; fill: rgb(255, 255, 255); fill-opacity: 1; stroke-width: 0px;" width="211" height="105" x="0" y="0"/><g class="scrollbox" transform="" clip-path="url(#legend6150c1)"><text class="legendtitletext" text-anchor="start" x="2" y="18.2" style="font-family: monospace; font-size: 14px; fill: rgb(42, 63, 95); fill-opacity: 1; white-space: pre;">car door window</text><g class="groups" transform=""><g class="traces" transform="translate(0,32.7)" style="opacity: 1;"><text class="legendtext" text-anchor="start" x="40" y="4.680000000000001" style="font-family: monospace; font-size: 12px; fill: rgb(42, 63, 95); fill-opacity: 1; white-space: pre;">enter information bit</text><g class="layers" style="opacity: 1;"><g class="legendfill"/><g class="legendlines"><path class="js-line" d="M5,0h30" style="fill: none; stroke: rgb(71, 110, 193); stroke-opacity: 1; stroke-width: 2px;"/></g><g class="legendsymbols"><g class="legendpoints"><path class="scatterpts" transform="translate(20,0)" d="M6,0A6,6 0 1,1 0,-6A6,6 0 0,1 6,0Z" style="opacity: 1; stroke: rgb(71, 110, 193); stroke-opacity: 1; stroke-width: 1px; fill: none;"/></g></g></g><rect class="legendtoggle" x="0" y="-9.5" width="205.640625" height="19" style="fill: rgb(0, 0, 0); fill-opacity: 0;"/></g></g><g class="groups" transform=""><g class="traces" transform="translate(0,51.7)" style="opacity: 1;"><text class="legendtext" text-anchor="start" x="40" y="4.680000000000001" style="font-family: monospace; font-size: 12px; fill: rgb(42, 63, 95); fill-opacity: 1; white-space: pre;">appear business similar</text><g class="layers" style="opacity: 1;"><g class="legendfill"/><g class="legendlines"><path class="js-line" d="M5,0h30" style="fill: none; stroke: rgb(192, 76, 224); stroke-opacity: 1; stroke-width: 2px;"/></g><g class="legendsymbols"><g class="legendpoints"><path class="scatterpts" transform="translate(20,0)" d="M6,0A6,6 0 1,1 0,-6A6,6 0 0,1 6,0Z" style="opacity: 1; stroke: rgb(192, 76, 224); stroke-opacity: 1; stroke-width: 1px; fill: none;"/></g></g></g><rect class="legendtoggle" x="0" y="-9.5" width="205.640625" height="19" style="fill: rgb(0, 0, 0); fill-opacity: 0;"/></g></g><g class="groups" transform=""><g class="traces" transform="translate(0,70.7)" style="opacity: 1;"><text class="legendtext" text-anchor="start" x="40" y="4.680000000000001" style="font-family: monospace; font-size: 12px; fill: rgb(42, 63, 95); fill-opacity: 1; white-space: pre;">visit personal skill</text><g class="layers" style="opacity: 1;"><g class="legendfill"/><g class="legendlines"><path class="js-line" d="M5,0h30" style="fill: none; stroke: rgb(249, 205, 194); stroke-opacity: 1; stroke-width: 2px;"/></g><g class="legendsymbols"><g class="legendpoints"><path class="scatterpts" transform="translate(20,0)" d="M6,0A6,6 0 1,1 0,-6A6,6 0 0,1 6,0Z" style="opacity: 1; stroke: rgb(249, 205, 194); stroke-opacity: 1; stroke-width: 1px; fill: none;"/></g></g></g><rect class="legendtoggle" x="0" y="-9.5" width="205.640625" height="19" style="fill: rgb(0, 0, 0); fill-opacity: 0;"/></g></g><g class="groups" transform=""><g class="traces" transform="translate(0,89.7)" style="opacity: 1;"><text class="legendtext" text-anchor="start" x="40" y="4.680000000000001" style="font-family: monospace; font-size: 12px; fill: rgb(42, 63, 95); fill-opacity: 1; white-space: pre;">close best size</text><g class="layers" style="opacity: 1;"><g class="legendfill"/><g class="legendlines"><path class="js-line" d="M5,0h30" style="fill: none; stroke: rgb(220, 229, 137); stroke-opacity: 1; stroke-width: 2px;"/></g><g class="legendsymbols"><g class="legendpoints"><path class="scatterpts" transform="translate(20,0)" d="M6,0A6,6 0 1,1 0,-6A6,6 0 0,1 6,0Z" style="opacity: 1; stroke: rgb(220, 229, 137); stroke-opacity: 1; stroke-width: 1px; fill: none;"/></g></g></g><rect class="legendtoggle" x="0" y="-9.5" width="205.640625" height="19" style="fill: rgb(0, 0, 0); fill-opacity: 0;"/></g></g></g><rect class="scrollbar" rx="20" ry="3" width="0" height="0" style="fill: rgb(128, 139, 164); fill-opacity: 1;" x="0" y="0"/></g><g class="g-gtitle"><text class="gtitle" x="448" y="30" text-anchor="middle" dy="0em" style="font-family: monospace; font-size: 25px; fill: rgb(0, 0, 0); opacity: 1; font-weight: normal; white-space: pre;">could add keep</text></g><g class="g-xtitle"><text class="xtitle" x="370.5" y="569.315625" text-anchor="middle" style="font-family: monospace; font-size: 14px; fill: rgb(0, 0, 0); opacity: 1; font-weight: normal; white-space: pre;">Year</text></g><g class="g-ytitle"><text class="ytitle" transform="rotate(-90,36.684375,290)" x="36.684375" y="290" text-anchor="middle" style="font-family: monospace; font-size: 14px; fill: rgb(0, 0, 0); opacity: 1; font-weight: normal; white-space: pre;">another say center</text></g></g></svg>