<svg class="main-svg" xmlns="http://www.w3.org/2000/svg" xmlns:xlink="http://www.w3.org/1999/xlink" width="858" height="600" style="" viewBox="0 0 858 600"><rect x="0" y="0" width="858" height="600" style="fill: rgb(255, 255, 255); fill-opacity: 1;"/><defs id="defs-d80918"><g class="clips"><clipPath id="clipd80918xyplot" class="plotclip"><rect width="549" height="460"/></clipPath><clipPath class="axesclip" id="clipd80918x"><rect x="80" y="0" width="549" height="600"/></clipPath><clipPath class="axesclip" id="clipd80918y"><rect x="0" y="60" width="858" height="460"/></clipPath><clipPath class="axesclip" id="clipd80918xy"><rect x="80" y="60" width="549" height="460"/></clipPath></g><g class="gradients"/><g class="patterns"/></defs><g class="bglayer"><rect class="bg" x="80" y="60" width="549" height="460" style="fill: rgb(255, 255, 255); fill-opacity: 1; stroke-width: 0;"/></g><g class="layer-below"><g class="imagelayer"/><g class="shapelayer"/></g><g class="cartesianlayer"><g class="subplot xy"><g class="layer-subplot"><g class="shapelayer"/><g class="imagelayer"/></g><g class="minor-gridlayer"><g class="x"/><g class="y"/></g><g class="gridlayer"><g class="x"><path class="xgrid crisp" transform="translate(96.98,0)" d="M0,60v460" style="stroke: rgb(208, 208, 208); stroke-opacity: 1; stroke-width: 1px;"/><path class="xgrid crisp" transform="translate(177.45999999999998,0)" d="M0,60v460" style="stroke: rgb(208, 208, 208); stroke-opacity: 1; stroke-width: 1px;"/><path class="xgrid crisp" transform="translate(257.93,0)" d="M0,60v460" style="stroke: rgb(208, 208, 208); stroke-opacity: 1; stroke-width: 1px;"/><path class="xgrid crisp" transform="translate(338.4,0)" d="M0,60v460" style="stroke: rgb(208, 208, 208); stroke-opacity: 1; stroke-width: 1px;"/><path class="xgrid crisp" transform="translate(418.88,0)" d="M0,60v460" style="stroke: rgb(208, 208, 208); stroke-opacity: 1; stroke-width: 1px;"/><path class="xgrid crisp" transform="translate(499.35,0)" d="M0,60v460" style="stroke: rgb(208, 208, 208); stroke-opacity: 1; stroke-width: 1px;"/><path class="xgrid crisp" transform="translate(579.8299999999999,0)" d="M0,60v460" style="stroke: rgb(208, 208, 208); stroke-opacity: 1; stroke-width: 1px;"/></g><g class="y"/></g><g class="zerolinelayer"><path class="yzl zl crisp" transform="translate(0,505.42)" d="M80,0h549" style="stroke: rgb(255, 255, 255); stroke-opacity: 1; stroke-width: 2px;"/></g><path class="xlines-below"/><path class="ylines-below"/><g class="overlines-below"/><g class="xaxislayer-below"/><g class="yaxislayer-below"/><g class="overaxes-below"/><g class="plot" transform="translate(80,60)" clip-path="url(#clipd80918xyplot)"><g class="scatterlayer mlayer"><g class="trace scatter tracef31e4a" style="stroke-miterlimit: 2; opacity: 1;"><g class="fills"/><g class="errorbars"/><g class="lines"><path class="js-line" d="M33.08,47.36L81.36,431.38L129.65,225.32L177.93,422.01L226.22,258.1L274.5,155.07L322.78,136.34L371.07,117.6L419.35,230L467.64,89.51L515.92,417.33" style="vector-effect: none; fill: none; stroke: rgb(44, 167, 249); stroke-opacity: 1; stroke-width: 2px; opacity: 1;"/></g><g class="points"><path class="point" transform="translate(33.08,47.36)" d="M4.5,0A4.5,4.5 0 1,1 0,-4.5A4.5,4.5 0 0,1 4.5,0Z" style="opacity: 1; stroke: rgb(44, 167, 249); stroke-opacity: 1; stroke-width: 1px; fill: none;"/><path class="point" transform="translate(81.36,431.38)" d="M4.5,0A4.5,4.5 0 1,1 0,-4.5A4.5,4.5 0 0,1 4.5,0Z" style="opacity: 1; stroke: rgb(44, 167, 249); stroke-opacity: 1; stroke-width: 1px; fill: none;"/><path class="point" transform="translate(129.65,225.32)" d="M4.5,0A4.5,4.5 0 1,1 0,-4.5A4.5,4.5 0 0,1 4.5,0Z" style="opacity: 1; stroke: rgb(44, 167, 249); stroke-opacity: 1; stroke-width: 1px; fill: none;"/><path class="point" transform="translate(177.93,422.01)" d="M4.5,0A4.5,4.5 0 1,1 0,-4.5A4.5,4.5 0 0,1 4.5,0Z" style="opacity: 1; stroke: rgb(44, 167, 249); stroke-opacity: 1; stroke-width: 1px; fill: none;"/><path class="point" transform="translate(226.22,258.1)" d="M4.5,0A4.5,4.5 0 1,1 0,-4.5A4.5,4.5 0 0,1 4.5,0Z" style="opacity: 1; stroke: rgb(44, 167, 249); stroke-opacity: 1; stroke-width: 1px; fill: none;"/><path class="point" transform="translate(274.5,155.07)" d="M4.5,0A4.5,4.5 0 1,1 0,-4.5A4.5,4.5 0 0,1 4.5,0Z" style="opacity: 1; stroke: rgb(44, 167, 249); stroke-opacity: 1; stroke-width: 1px; fill: none;"/><path class="point" transform="translate(322.78,136.34)" d="M4.5,0A4.5,4.5 0 1,1 0,-4.5A4.5,4.5 0 0,1 4.5,0Z" style="opacity: 1; stroke: rgb(44, 167, 249); stroke-opacity: 1; stroke-width: 1px; fill: none;"/><path class="point" transform="translate(371.07,117.6)" d="M4.5,0A4.5,4.5 0 1,1 0,-4.5A4.5,4.5 0 0,1 4.5,0Z" style="opacity: 1; stroke: rgb(44, 167, 249); stroke-opacity: 1; stroke-width: 1px; fill: none;"/><path class="point" transform="translate(419.35,230)" d="M4.5,0A4.5,4.5 0 1,1 0,-4.5A4.5,4.5 0 0,1 4.5,0Z" style="opacity: 1; stroke: rgb(44, 167, 249); stroke-opacity: 1; stroke-width: 1px; fill: none;"/><path class="point" transform="translate(467.64,89.51)" d="M4.5,0A4.5,4.5 0 1,1 0,-4.5A4.5,4.5 0 0,1 4.5,0Z" style="opacity: 1; stroke: rgb(44, 167, 249); stroke-opacity: 1; stroke-width: 1px; fill: none;"/><path class="point" transform="translate(515.92,417.33)" d="M4.5,0A4.5,4.5 0 1,1 0,-4.5A4.5,4.5 0 0,1 4.5,0Z" style="opacity: 1; stroke: rgb(44, 167, 249); stroke-opacity: 1; stroke-width: 1px; fill: none;"/></g><g class="text"/></g><g class="trace scatter trace52f868" style="stroke-miterlimit: 2; opacity: 1;"><g class="fills"/><g class="errorbars"/><g class="lines"><path class="js-line" d="M33.08,52.04L81.36,37.99L129.65,155.07L177.93,342.4L226.22,281.51L274.5,230L322.78,248.73L371.07,304.93L419.35,426.69L467.64,365.81L515.92,197.22" style="vector-effect: none; fill: none; stroke: rgb(186, 92, 20); stroke-opacity: 1; stroke-width: 2px; opacity: 1;"/></g><g class="points"><path class="point" transform="translate(33.08,52.04)" d="M4.5,0A4.5,4.5 0 1,1 0,-4.5A4.5,4.5 0 0,1 4.5,0Z" style="opacity: 1; stroke: rgb(186, 92, 20); stroke-opacity: 1; stroke-width: 1px; fill: none;"/><path class="point" transform="translate(81.36,37.99)" d="M4.5,0A4.5,4.5 0 1,1 0,-4.5A4.5,4.5 0 0,1 4.5,0Z" style="opacity: 1; stroke: rgb(186, 92, 20); stroke-opacity: 1; stroke-width: 1px; fill: none;"/><path class="point" transform="translate(129.65,155.07)" d="M4.5,0A4.5,4.5 0 1,1 0,-4.5A4.5,4.5 0 0,1 4.5,0Z" style="opacity: 1; stroke: rgb(186, 92, 20); stroke-opacity: 1; stroke-width: 1px; fill: none;"/><path class="point" transform="translate(177.93,342.4)" d="M4.5,0A4.5,4.5 0 1,1 0,-4.5A4.5,4.5 0 0,1 4.5,0Z" style="opacity: 1; stroke: rgb(186, 92, 20); stroke-opacity: 1; stroke-width: 1px; fill: none;"/><path class="point" transform="translate(226.22,281.51)" d="M4.5,0A4.5,4.5 0 1,1 0,-4.5A4.5,4.5 0 0,1 4.5,0Z" style="opacity: 1; stroke: rgb(186, 92, 20); stroke-opacity: 1; stroke-width: 1px; fill: none;"/><path class="point" transform="translate(274.5,230)" d="M4.5,0A4.5,4.5 0 1,1 0,-4.5A4.5,4.5 0 0,1 4.5,0Z" style="opacity: 1; stroke: rgb(186, 92, 20); stroke-opacity: 1; stroke-width: 1px; fill: none;"/><path class="point" transform="translate(322.78,248.73)" d="M4.5,0A4.5,4.5 0 1,1 0,-4.5A4.5,4.5 0 0,1 4.5,0Z" style="opacity: 1; stroke: rgb(186, 92, 20); stroke-opacity: 1; stroke-width: 1px; fill: none;"/><path class="point" transform="translate(371.07,304.93)" d="M4.5,0A4.5,4.5 0 1,1 0,-4.5A4.5,4.5 0 0,1 4.5,0Z" style="opacity: 1; stroke: rgb(186, 92, 20); stroke-opacity: 1; stroke-width: 1px; fill: none;"/><path class="point" transform="translate(419.35,426.69)" d="M4.5,0A4.5,4.5 0 1,1 0,-4.5A4.5,4.5 0 0,1 4.5,0Z" style="opacity: 1; stroke: rgb(186, 92, 20); stroke-opacity: 1; stroke-width: 1px; fill: none;"/><path class="point" transform="translate(467.64,365.81)" d="M4.5,0A4.5,4.5 0 1,1 0,-4.5A4.5,4.5 0 0,1 4.5,0Z" style="opacity: 1; stroke: rgb(186, 92, 20); stroke-opacity: 1; stroke-width: 1px; fill: none;"/><path class="point" transform="translate(515.92,197.22)" d="M4.5,0A4.5,4.5 0 1,1 0,-4.5A4.5,4.5 0 0,1 4.5,0Z" style="opacity: 1; stroke: rgb(186, 92, 20); stroke-opacity: 1; stroke-width: 1px; fill: none;"/></g><g class="text"/></g><g class="trace scatter trace5c4aa7" style="stroke-miterlimit: 2; opacity: 1;"><g class="fills"/><g class="errorbars"/><g class="lines"><path class="js-line" d="M33.08,389.23L81.36,230L129.65,33.31L177.93,94.19L226.22,309.61L274.5,393.91L322.78,192.53L371.07,211.27L419.35,347.08L467.64,103.56L515.92,28.63" style="vector-effect: none; fill: none; stroke: rgb(148, 247, 245); stroke-opacity: 1; stroke-width: 2px; opacity: 1;"/></g><g class="points"><path class="point" transform="translate(33.08,389.23)" d="M4.5,0A4.5,4.5 0 1,1 0,-4.5A4.5,4.5 0 0,1 4.5,0Z" style="opacity: 1; stroke: rgb(148, 247, 245); stroke-opacity: 1; stroke-width: 1px; fill: none;"/><path class="point" transform="translate(81.36,230)" d="M4.5,0A4.5,4.5 0 1,1 0,-4.5A4.5,4.5 0 0,1 4.5,0Z" style="opacity: 1; stroke: rgb(148, 247, 245); stroke-opacity: 1; stroke-width: 1px; fill: none;"/><path class="point" transform="translate(129.65,33.31)" d="M4.5,0A4.5,4.5 0 1,1 0,-4.5A4.5,4.5 0 0,1 4.5,0Z" style="opacity: 1; stroke: rgb(148, 247, 245); stroke-opacity: 1; stroke-width: 1px; fill: none;"/><path class="point" transform="translate(177.93,94.19)" d="M4.5,0A4.5,4.5 0 1,1 0,-4.5A4.5,4.5 0 0,1 4.5,0Z" style="opacity: 1; stroke: rgb(148, 247, 245); stroke-opacity: 1; stroke-width: 1px; fill: none;"/><path class="point" transform="translate(226.22,309.61)" d="M4.5,0A4.5,4.5 0 1,1 0,-4.5A4.5,4.5 0 0,1 4.5,0Z" style="opacity: 1; stroke: rgb(148, 247, 245); stroke-opacity: 1; stroke-width: 1px; fill: none;"/><path class="point" transform="translate(274.5,393.91)" d="M4.5,0A4.5,4.5 0 1,1 0,-4.5A4.5,4.5 0 0,1 4.5,0Z" style="opacity: 1; stroke: rgb(148, 247, 245); stroke-opacity: 1; stroke-width: 1px; fill: none;"/><path class="point" transform="translate(322.78,192.53)" d="M4.5,0A4.5,4.5 0 1,1 0,-4.5A4.5,4.5 0 0,1 4.5,0Z" style="opacity: 1; stroke: rgb(148, 247, 245); stroke-opacity: 1; stroke-width: 1px; fill: none;"/><path class="point" transform="translate(371.07,211.27)" d="M4.5,0A4.5,4.5 0 1,1 0,-4.5A4.5,4.5 0 0,1 4.5,0Z" style="opacity: 1; stroke: rgb(148, 247, 245); stroke-opacity: 1; stroke-width: 1px; fill: none;"/><path class="point" transform="translate(419.35,347.08)" d="M4.5,0A4.5,4.5 0 1,1 0,-4.5A4.5,4.5 0 0,1 4.5,0Z" style="opacity: 1; stroke: rgb(148, 247, 245); stroke-opacity: 1; stroke-width: 1px; fill: none;"/><path class="point" transform="translate(467.64,103.56)" d="M4.5,0A4.5,4.5 0 1,1 0,-4.5A4.5,4.5 0 0,1 4.5,0Z" style="opacity: 1; stroke: rgb(148, 247, 245); stroke-opacity: 1; stroke-width: 1px; fill: none;"/><path class="point" transform="translate(515.92,28.63)" d="M4.5,0A4.5,4.5 0 1,1 0,-4.5A4.5,4.5 0 0,1 4.5,0Z" style="opacity: 1; stroke: rgb(148, 247, 245); stroke-opacity: 1; stroke-width: 1px; fill: none;"/></g><g class="text"/></g></g></g><g class="overplot"/><path class="xlines-above crisp" d="M0,0" style="fill: none;"/><path class="ylines-above crisp" d="M79.5,60V520" style="fill: none; stroke-width: 1px; stroke: rgb(255, 255, 255); stroke-opacity: 1;"/><g class="overlines-above"/><g class="xaxislayer-above"><g class="xtick"><text text-anchor="start" x="2.4499999999999997" y="528" transform="translate(96.98,0) rotate(90,2.4499999999999997,521)" style="font-family: monospace; font-size: 14px; fill: rgb(0, 0, 0); fill-opacity: 1; white-space: pre; opacity: 1;">1895</text></g><g class="xtick"><text text-anchor="start" x="2.4499999999999997" y="528" style="font-family: monospace; font-size: 14px; fill: rgb(0, 0, 0); fill-opacity: 1; white-space: pre; opacity: 1;" transform="translate(177.45999999999998,0) rotate(90,2.4499999999999997,521)">1900</text></g><g class="xtick"><text text-anchor="start" x="2.4499999999999997" y="528" style="font-family: monospace; font-size: 14px; fill: rgb(0, 0, 0); fill-opacity: 1; white-space: pre; opacity: 1;" transform="translate(257.93,0) rotate(90,2.4499999999999997,521)">1905</text></g><g class="xtick"><text text-anchor="start" x="2.4499999999999997" y="528" style="font-family: monospace; font-size: 14px; fill: rgb(0, 0, 0); fill-opacity: 1; white-space: pre; opacity: 1;" transform="translate(338.4,0) rotate(90,2.4499999999999997,521)">1910</text></g><g class="xtick"><text text-anchor="start" x="2.4499999999999997" y="528" style="font-family: monospace; font-size: 14px; fill: rgb(0, 0, 0); fill-opacity: 1; white-space: pre; opacity: 1;" transform="translate(418.88,0) rotate(90,2.4499999999999997,521)">1915</text></g><g class="xtick"><text text-anchor="start" x="2.4499999999999997" y="528" style="font-family: monospace; font-size: 14px; fill: rgb(0, 0, 0); fill-opacity: 1; white-space: pre; opacity: 1;" transform="translate(499.35,0) rotate(90,2.4499999999999997,521)">1920</text></g><g class="xtick"><text text-anchor="start" x="2.4499999999999997" y="528" style="font-family: monospace; font-size: 14px; fill: rgb(0, 0, 0); fill-opacity: 1; white-space: pre; opacity: 1;" transform="translate(579.8299999999999,0) rotate(90,2.4499999999999997,521)">1925</text></g></g><g class="yaxislayer-above"><g class="ytick"><text text-anchor="end" x="76.2" y="4.8999999999999995" transform="translate(0,505.42)" style="font-family: monospace; font-size: 14px; fill: rgb(0, 0, 0); fill-opacity: 1; white-space: pre; opacity: 1;">0</text></g><g class="ytick"><text text-anchor="end" x="76.2" y="4.8999999999999995" style="font-family: monospace; font-size: 14px; fill: rgb(0, 0, 0); fill-opacity: 1; white-space: pre; opacity: 1;" transform="translate(0,458.59)">10</text></g><g class="ytick"><text text-anchor="end" x="76.2" y="4.8999999999999995" style="font-family: monospace; font-size: 14px; fill: rgb(0, 0, 0); fill-opacity: 1; white-space: pre; opacity: 1;" transform="translate(0,411.76)">20</text></g><g class="ytick"><text text-anchor="end" x="76.2" y="4.8999999999999995" style="font-family: monospace; font-size: 14px; fill: rgb(0, 0, 0); fill-opacity: 1; white-space: pre; opacity: 1;" transform="translate(0,364.93)">30</text></g><g class="ytick"><text text-anchor="end" x="76.2" y="4.8999999999999995" style="font-family: monospace; font-size: 14px; fill: rgb(0, 0, 0); fill-opacity: 1; white-space: pre; opacity: 1;" transform="translate(0,318.1)">40</text></g><g class="ytick"><text text-anchor="end" x="76.2" y="4.8999999999999995" style="font-family: monospace; font-size: 14px; fill: rgb(0, 0, 0); fill-opacity: 1; white-space: pre; opacity: 1;" transform="translate(0,271.27)">50</text></g><g class="ytick"><text text-anchor="end" x="76.2" y="4.8999999999999995" style="font-family: monospace; font-size: 14px; fill: rgb(0, 0, 0); fill-opacity: 1; white-space: pre; opacity: 1;" transform="translate(0,224.44)">60</text></g><g class="ytick"><text text-anchor="end" x="76.2" y="4.8999999999999995" style="font-family: monospace; font-size: 14px; fill: rgb(0, 0, 0); fill-opacity: 1; white-space: pre; opacity: 1;" transform="translate(0,177.6)">70</text></g><g class="ytick"><text text-anchor="end" x="76.2" y="4.8999999999999995" style="font-family: monospace; font-size: 14px; fill: rgb(0, 0, 0); fill-opacity: 1; white-space: pre; opacity: 1;" transform="translate(0,130.76999999999998)">80</text></g><g class="ytick"><text text-anchor="end" x="76.2" y="4.8999999999999995" style="font-family: monospace; font-size: 14px; fill: rgb(0, 0, 0); fill-opacity: 1; white-space: pre; opacity: 1;" transform="translate(0,83.94)">90</text></g></g><g class="overaxes-above"/></g></g><g class="polarlayer"/><g class="smithlayer"/><g class="ternarylayer"/><g class="geolayer"/><g class="funnelarealayer"/><g class="pielayer"/><g class="iciclelayer"/><g class="treemaplayer"/><g class="sunburstlayer"/><g class="glimages"/><defs id="topdefs-d80918"><g class="clips"/><clipPath id="legendd80918"><rect width="206" height="67" x="0" y="0"/></clipPath></defs><g class="layer-above"><g class="imagelayer"/><g class="shapelayer"/></g><g class="infolayer"><g class="legend" pointer-events="all" transform="translate(639.98,60)"><rect class="bg" shape-rendering="crispEdges" style="stroke: rgb(68, 68, 68); stroke-opacity: 1; fill: rgb(255, 255, 255); fill-opacity: 1; stroke-width: 0px;" width="206" height="67" x="0" y="0"/><g class="scrollbox" transform="" clip-path="url(#legendd80918)"><g class="groups" transform=""><g class="traces" transform="translate(0,14.5)" style="opacity: 1;"><text class="legendtext" text-anchor="start" x="40" y="4.680000000000001" style="font-family: monospace; font-size: 12px; fill: rgb(42, 63, 95); fill-opacity: 1; white-space: pre;">voice degree situation</text><g class="layers" style="opacity: 1;"><g class="legendfill"/><g class="legendlines"><path class="js-line" d="M5,0h30" style="fill: none; stroke: rgb(44, 167, 249); stroke-opacity: 1; stroke-width: 2px;"/></g><g class="legendsymbols"><g class="legendpoints"><path class="scatterpts" transform="translate(20,0)" d="M4.5,0A4.5,4.5 0 1,1 0,-4.5A4.5,4.5 0 0,1 4.5,0Z" style="opacity: 1; stroke: rgb(44, 167, 249); stroke-opacity: 1; stroke-width: 1px; fill: none;"/></g></g></g><rect class="legendtoggle" x="0" y="-9.5" width="200.234375" height="19" style="fill: rgb(0, 0, 0); fill-opacity: 0;"/></g></g><g class="groups" transform=""><g class="traces" transform="translate(0,33.5)" style="opacity: 1;"><text class="legendtext" text-anchor="start" x="40" y="4.680000000000001" style="font-family: monospace; font-size: 12px; fill: rgb(42, 63, 95); fill-opacity: 1; white-space: pre;">one general property</text><g class="layers" style="opacity: 1;"><g class="legendfill"/><g class="legendlines"><path class="js-line" d="M5,0h30" style="fill: none; stroke: rgb(186, 92, 20); stroke-opacity: 1; stroke-width: 2px;"/></g><g class="legendsymbols"><g class="legendpoints"><path class="scatterpts" transform="translate(20,0)" d="M4.5,0A4.5,4.5 0 1,1 0,-4.5A4.5,4.5 0 0,1 4.5,0Z" style="opacity: 1; stroke: rgb(186, 92, 20); stroke-opacity: 1; stroke-width: 1px; fill: none;"/></g></g></g><rect class="legendtoggle" x="0" y="-9.5" width="200.234375" height="19" style="fill: rgb(0, 0, 0); fill-opacity: 0;"/></g></g><g class="groups" transform=""><g class="traces" transform="translate(0,52.5)" style="opacity: 1;"><text class="legendtext" text-anchor="start" x="40" y="4.680000000000001" style="font-family: monospace; font-size: 12px; fill: rgb(42, 63, 95); fill-opacity: 1; white-space: pre;">record page discover</text><g class="layers" style="opacity: 1;"><g class="legendfill"/><g class="legendlines"><path class="js-line" d="M5,0h30" style="fill: none; stroke: rgb(148, 247, 245); stroke-opacity: 1; stroke-width: 2px;"/></g><g class="legendsymbols"><g class="legendpoints"><path class="scatterpts" transform="translate(20,0)" d="M4.5,0A4.5,4.5 0 1,1 0,-4.5A4.5,4.5 0 0,1 4.5,0Z" style="opacity: 1; stroke: rgb(148, 247, 245); stroke-opacity: 1; stroke-width: 1px; fill: none;"/></g></g></g><rect class="legendtoggle" x="0" y="-9.5" width="200.234375" height="19" style="fill: rgb(0, 0, 0); fill-opacity: 0;"/></g></g></g><rect class="scrollbar" rx="20" ry="3" width="0" height="0" style="fill: rgb(128, 139, 164); fill-opacity: 1;" x="0" y="0"/></g><g class="g-gtitle"><text class="gtitle" x="429" y="30" text-anchor="middle" dy="0em" style="font-family: monospace; font-size: 25px; fill: rgb(0, 0, 0); opacity: 1; font-weight: normal; white-space: pre;">remain chance give</text></g><g class="g-xtitle"><text class="xtitle" x="354.5" y="578.9123046875" text-anchor="middle" style="font-family: monospace; font-size: 14px; fill: rgb(0, 0, 0); opacity: 1; font-weight: normal; white-space: pre;">Year</text></g><g class="g-ytitle"><text class="ytitle" transform="rotate(-90,35.090625,290)" x="35.090625" y="290" text-anchor="middle" style="font-family: monospace; font-size: 14px; fill: rgb(0, 0, 0); opacity: 1; font-weight: normal; white-space: pre;">push she example</text></g></g></svg>