<svg class="main-svg" xmlns="http://www.w3.org/2000/svg" xmlns:xlink="http://www.w3.org/1999/xlink" width="882" height="600" style="" viewBox="0 0 882 600"><rect x="0" y="0" width="882" height="600" style="fill: rgb(255, 255, 255); fill-opacity: 1;"/><defs id="defs-0c0431"><g class="clips"><clipPath id="clip0c0431xyplot" class="plotclip"><rect width="588" height="460"/></clipPath><clipPath class="axesclip" id="clip0c0431x"><rect x="80" y="0" width="588" height="600"/></clipPath><clipPath class="axesclip" id="clip0c0431y"><rect x="0" y="60" width="882" height="460"/></clipPath><clipPath class="axesclip" id="clip0c0431xy"><rect x="80" y="60" width="588" height="460"/></clipPath></g><g class="gradients"/><g class="patterns"/></defs><g class="bglayer"><rect class="bg" x="80" y="60" width="588" height="460" style="fill: rgb(51, 51, 51); fill-opacity: 1; stroke-width: 0;"/></g><g class="layer-below"><g class="imagelayer"/><g class="shapelayer"/></g><g class="cartesianlayer"><g class="subplot xy"><g class="layer-subplot"><g class="shapelayer"/><g class="imagelayer"/></g><g class="minor-gridlayer"><g class="x"/><g class="y"/></g><g class="gridlayer"><g class="x"/><g class="y"/></g><g class="zerolinelayer"><path class="yzl zl crisp" transform="translate(0,494.76)" d="M80,0h588" style="stroke: rgb(255, 255, 255); stroke-opacity: 1; stroke-width: 2px;"/></g><path class="xlines-below"/><path class="ylines-below"/><g class="overlines-below"/><g class="xaxislayer-below"/><g class="yaxislayer-below"/><g class="overaxes-below"/><g class="plot" transform="translate(80,60)" clip-path="url(#clip0c0431xyplot)"><g class="scatterlayer mlayer"><g class="trace scatter trace78e578" style="stroke-miterlimit: 2; opacity: 1;"><g class="fills"/><g class="errorbars"/><g class="lines"><path class="js-line" d="M37.53,120.26L140.11,121.1L242.71,272.47L345.29,428.88L447.88,248.08L550.47,269.94" style="vector-effect: none; fill: none; stroke: rgb(145, 251, 255); stroke-opacity: 1; stroke-width: 2px; opacity: 1;"/></g><g class="points"><path class="point" transform="translate(37.53,120.26)" d="M6.5,0A6.5,6.5 0 1,1 0,-6.5A6.5,6.5 0 0,1 6.5,0Z" style="opacity: 1; stroke: rgb(145, 251, 255); stroke-opacity: 1; stroke-width: 1px; fill: none;"/><path class="point" transform="translate(140.11,121.1)" d="M6.5,0A6.5,6.5 0 1,1 0,-6.5A6.5,6.5 0 0,1 6.5,0Z" style="opacity: 1; stroke: rgb(145, 251, 255); stroke-opacity: 1; stroke-width: 1px; fill: none;"/><path class="point" transform="translate(242.71,272.47)" d="M6.5,0A6.5,6.5 0 1,1 0,-6.5A6.5,6.5 0 0,1 6.5,0Z" style="opacity: 1; stroke: rgb(145, 251, 255); stroke-opacity: 1; stroke-width: 1px; fill: none;"/><path class="point" transform="translate(345.29,428.88)" d="M6.5,0A6.5,6.5 0 1,1 0,-6.5A6.5,6.5 0 0,1 6.5,0Z" style="opacity: 1; stroke: rgb(145, 251, 255); stroke-opacity: 1; stroke-width: 1px; fill: none;"/><path class="point" transform="translate(447.88,248.08)" d="M6.5,0A6.5,6.5 0 1,1 0,-6.5A6.5,6.5 0 0,1 6.5,0Z" style="opacity: 1; stroke: rgb(145, 251, 255); stroke-opacity: 1; stroke-width: 1px; fill: none;"/><path class="point" transform="translate(550.47,269.94)" d="M6.5,0A6.5,6.5 0 1,1 0,-6.5A6.5,6.5 0 0,1 6.5,0Z" style="opacity: 1; stroke: rgb(145, 251, 255); stroke-opacity: 1; stroke-width: 1px; fill: none;"/></g><g class="text"/></g><g class="trace scatter tracea81728" style="stroke-miterlimit: 2; opacity: 1;"><g class="fills"/><g class="errorbars"/><g class="lines"><path class="js-line" d="M37.53,424.67L140.11,185.01L242.71,400.28L345.29,264.06L447.88,205.19L550.47,301.9" style="vector-effect: none; fill: none; stroke: rgb(198, 158, 45); stroke-opacity: 1; stroke-width: 2px; opacity: 1;"/></g><g class="points"><path class="point" transform="translate(37.53,424.67)" d="M6.5,0A6.5,6.5 0 1,1 0,-6.5A6.5,6.5 0 0,1 6.5,0Z" style="opacity: 1; stroke: rgb(198, 158, 45); stroke-opacity: 1; stroke-width: 1px; fill: none;"/><path class="point" transform="translate(140.11,185.01)" d="M6.5,0A6.5,6.5 0 1,1 0,-6.5A6.5,6.5 0 0,1 6.5,0Z" style="opacity: 1; stroke: rgb(198, 158, 45); stroke-opacity: 1; stroke-width: 1px; fill: none;"/><path class="point" transform="translate(242.71,400.28)" d="M6.5,0A6.5,6.5 0 1,1 0,-6.5A6.5,6.5 0 0,1 6.5,0Z" style="opacity: 1; stroke: rgb(198, 158, 45); stroke-opacity: 1; stroke-width: 1px; fill: none;"/><path class="point" transform="translate(345.29,264.06)" d="M6.5,0A6.5,6.5 0 1,1 0,-6.5A6.5,6.5 0 0,1 6.5,0Z" style="opacity: 1; stroke: rgb(198, 158, 45); stroke-opacity: 1; stroke-width: 1px; fill: none;"/><path class="point" transform="translate(447.88,205.19)" d="M6.5,0A6.5,6.5 0 1,1 0,-6.5A6.5,6.5 0 0,1 6.5,0Z" style="opacity: 1; stroke: rgb(198, 158, 45); stroke-opacity: 1; stroke-width: 1px; fill: none;"/><path class="point" transform="translate(550.47,301.9)" d="M6.5,0A6.5,6.5 0 1,1 0,-6.5A6.5,6.5 0 0,1 6.5,0Z" style="opacity: 1; stroke: rgb(198, 158, 45); stroke-opacity: 1; stroke-width: 1px; fill: none;"/></g><g class="text"/></g><g class="trace scatter traced7f8c9" style="stroke-miterlimit: 2; opacity: 1;"><g class="fills"/><g class="errorbars"/><g class="lines"><path class="js-line" d="M37.53,45.42L140.11,102.6L242.71,238.83L345.29,31.13L447.88,425.51L550.47,88.31" style="vector-effect: none; fill: none; stroke: rgb(96, 255, 139); stroke-opacity: 1; stroke-width: 2px; opacity: 1;"/></g><g class="points"><path class="point" transform="translate(37.53,45.42)" d="M6.5,0A6.5,6.5 0 1,1 0,-6.5A6.5,6.5 0 0,1 6.5,0Z" style="opacity: 1; stroke: rgb(96, 255, 139); stroke-opacity: 1; stroke-width: 1px; fill: none;"/><path class="point" transform="translate(140.11,102.6)" d="M6.5,0A6.5,6.5 0 1,1 0,-6.5A6.5,6.5 0 0,1 6.5,0Z" style="opacity: 1; stroke: rgb(96, 255, 139); stroke-opacity: 1; stroke-width: 1px; fill: none;"/><path class="point" transform="translate(242.71,238.83)" d="M6.5,0A6.5,6.5 0 1,1 0,-6.5A6.5,6.5 0 0,1 6.5,0Z" style="opacity: 1; stroke: rgb(96, 255, 139); stroke-opacity: 1; stroke-width: 1px; fill: none;"/><path class="point" transform="translate(345.29,31.13)" d="M6.5,0A6.5,6.5 0 1,1 0,-6.5A6.5,6.5 0 0,1 6.5,0Z" style="opacity: 1; stroke: rgb(96, 255, 139); stroke-opacity: 1; stroke-width: 1px; fill: none;"/><path class="point" transform="translate(447.88,425.51)" d="M6.5,0A6.5,6.5 0 1,1 0,-6.5A6.5,6.5 0 0,1 6.5,0Z" style="opacity: 1; stroke: rgb(96, 255, 139); stroke-opacity: 1; stroke-width: 1px; fill: none;"/><path class="point" transform="translate(550.47,88.31)" d="M6.5,0A6.5,6.5 0 1,1 0,-6.5A6.5,6.5 0 0,1 6.5,0Z" style="opacity: 1; stroke: rgb(96, 255, 139); stroke-opacity: 1; stroke-width: 1px; fill: none;"/></g><g class="text"/></g><g class="trace scatter trace8244c8" style="stroke-miterlimit: 2; opacity: 1;"><g class="fills"/><g class="errorbars"/><g class="lines"><path class="js-line" d="M37.53,288.44L140.11,310.31L242.71,416.26L345.29,104.28L447.88,62.24L550.47,288.44" style="vector-effect: none; fill: none; stroke: rgb(144, 174, 229); stroke-opacity: 1; stroke-width: 2px; opacity: 1;"/></g><g class="points"><path class="point" transform="translate(37.53,288.44)" d="M6.5,0A6.5,6.5 0 1,1 0,-6.5A6.5,6.5 0 0,1 6.5,0Z" style="opacity: 1; stroke: rgb(144, 174, 229); stroke-opacity: 1; stroke-width: 1px; fill: none;"/><path class="point" transform="translate(140.11,310.31)" d="M6.5,0A6.5,6.5 0 1,1 0,-6.5A6.5,6.5 0 0,1 6.5,0Z" style="opacity: 1; stroke: rgb(144, 174, 229); stroke-opacity: 1; stroke-width: 1px; fill: none;"/><path class="point" transform="translate(242.71,416.26)" d="M6.5,0A6.5,6.5 0 1,1 0,-6.5A6.5,6.5 0 0,1 6.5,0Z" style="opacity: 1; stroke: rgb(144, 174, 229); stroke-opacity: 1; stroke-width: 1px; fill: none;"/><path class="point" transform="translate(345.29,104.28)" d="M6.5,0A6.5,6.5 0 1,1 0,-6.5A6.5,6.5 0 0,1 6.5,0Z" style="opacity: 1; stroke: rgb(144, 174, 229); stroke-opacity: 1; stroke-width: 1px; fill: none;"/><path class="point" transform="translate(447.88,62.24)" d="M6.5,0A6.5,6.5 0 1,1 0,-6.5A6.5,6.5 0 0,1 6.5,0Z" style="opacity: 1; stroke: rgb(144, 174, 229); stroke-opacity: 1; stroke-width: 1px; fill: none;"/><path class="point" transform="translate(550.47,288.44)" d="M6.5,0A6.5,6.5 0 1,1 0,-6.5A6.5,6.5 0 0,1 6.5,0Z" style="opacity: 1; stroke: rgb(144, 174, 229); stroke-opacity: 1; stroke-width: 1px; fill: none;"/></g><g class="text"/></g></g></g><g class="overplot"/><path class="xlines-above crisp" d="M0,0" style="fill: none;"/><path class="ylines-above crisp" d="M0,0" style="fill: none;"/><g class="overlines-above"/><g class="xaxislayer-above"><g class="xtick"><text text-anchor="start" x="0" y="541" transform="translate(117.53,0) rotate(45,0,531)" style="font-family: monospace; font-size: 20px; fill: rgb(0, 0, 0); fill-opacity: 1; white-space: pre; opacity: 1;">Jan</text></g><g class="xtick"><text text-anchor="start" x="0" y="541" transform="translate(220.11,0) rotate(45,0,531)" style="font-family: monospace; font-size: 20px; fill: rgb(0, 0, 0); fill-opacity: 1; white-space: pre; opacity: 1;">Feb</text></g><g class="xtick"><text text-anchor="start" x="0" y="541" transform="translate(322.71000000000004,0) rotate(45,0,531)" style="font-family: monospace; font-size: 20px; fill: rgb(0, 0, 0); fill-opacity: 1; white-space: pre; opacity: 1;">Mar</text></g><g class="xtick"><text text-anchor="start" x="0" y="541" transform="translate(425.29,0) rotate(45,0,531)" style="font-family: monospace; font-size: 20px; fill: rgb(0, 0, 0); fill-opacity: 1; white-space: pre; opacity: 1;">Apr</text></g><g class="xtick"><text text-anchor="start" x="0" y="541" transform="translate(527.88,0) rotate(45,0,531)" style="font-family: monospace; font-size: 20px; fill: rgb(0, 0, 0); fill-opacity: 1; white-space: pre; opacity: 1;">May</text></g><g class="xtick"><text text-anchor="start" x="0" y="541" transform="translate(630.47,0) rotate(45,0,531)" style="font-family: monospace; font-size: 20px; fill: rgb(0, 0, 0); fill-opacity: 1; white-space: pre; opacity: 1;">June</text></g></g><g class="yaxislayer-above"><g class="ytick"><text text-anchor="end" x="79" y="7" transform="translate(0,494.76)" style="font-family: monospace; font-size: 20px; fill: rgb(0, 0, 0); fill-opacity: 1; white-space: pre; opacity: 1;">0</text></g><g class="ytick"><text text-anchor="end" x="79" y="7" style="font-family: monospace; font-size: 20px; fill: rgb(0, 0, 0); fill-opacity: 1; white-space: pre; opacity: 1;" transform="translate(0,410.67)">100</text></g><g class="ytick"><text text-anchor="end" x="79" y="7" style="font-family: monospace; font-size: 20px; fill: rgb(0, 0, 0); fill-opacity: 1; white-space: pre; opacity: 1;" transform="translate(0,326.58)">200</text></g><g class="ytick"><text text-anchor="end" x="79" y="7" style="font-family: monospace; font-size: 20px; fill: rgb(0, 0, 0); fill-opacity: 1; white-space: pre; opacity: 1;" transform="translate(0,242.49)">300</text></g><g class="ytick"><text text-anchor="end" x="79" y="7" style="font-family: monospace; font-size: 20px; fill: rgb(0, 0, 0); fill-opacity: 1; white-space: pre; opacity: 1;" transform="translate(0,158.4)">400</text></g><g class="ytick"><text text-anchor="end" x="79" y="7" style="font-family: monospace; font-size: 20px; fill: rgb(0, 0, 0); fill-opacity: 1; white-space: pre; opacity: 1;" transform="translate(0,74.31)">500</text></g></g><g class="overaxes-above"/></g></g><g class="polarlayer"/><g class="smithlayer"/><g class="ternarylayer"/><g class="geolayer"/><g class="funnelarealayer"/><g class="pielayer"/><g class="iciclelayer"/><g class="treemaplayer"/><g class="sunburstlayer"/><g class="glimages"/><defs id="topdefs-0c0431"><g class="clips"/><clipPath id="legend0c0431"><rect width="190" height="86" x="0" y="0"/></clipPath></defs><g class="layer-above"><g class="imagelayer"/><g class="shapelayer"/></g><g class="infolayer"><g class="legend" pointer-events="all" transform="translate(679.76,60)"><rect class="bg" shape-rendering="crispEdges" style="stroke: rgb(68, 68, 68); stroke-opacity: 1; fill: rgb(255, 255, 255); fill-opacity: 1; stroke-width: 0px;" width="190" height="86" x="0" y="0"/><g class="scrollbox" transform="" clip-path="url(#legend0c0431)"><g class="groups" transform=""><g class="traces" transform="translate(0,14.5)" style="opacity: 1;"><text class="legendtext" text-anchor="start" x="40" y="4.680000000000001" style="font-family: monospace; font-size: 12px; fill: rgb(42, 63, 95); fill-opacity: 1; white-space: pre;">special head whether</text><g class="layers" style="opacity: 1;"><g class="legendfill"/><g class="legendlines"><path class="js-line" d="M5,0h30" style="fill: none; stroke: rgb(145, 251, 255); stroke-opacity: 1; stroke-width: 2px;"/></g><g class="legendsymbols"><g class="legendpoints"><path class="scatterpts" transform="translate(20,0)" d="M6.5,0A6.5,6.5 0 1,1 0,-6.5A6.5,6.5 0 0,1 6.5,0Z" style="opacity: 1; stroke: rgb(145, 251, 255); stroke-opacity: 1; stroke-width: 1px; fill: none;"/></g></g></g><rect class="legendtoggle" x="0" y="-9.5" width="184.03125" height="19" style="fill: rgb(0, 0, 0); fill-opacity: 0;"/></g></g><g class="groups" transform=""><g class="traces" transform="translate(0,33.5)" style="opacity: 1;"><text class="legendtext" text-anchor="start" x="40" y="4.680000000000001" style="font-family: monospace; font-size: 12px; fill: rgb(42, 63, 95); fill-opacity: 1; white-space: pre;">stay recent middle</text><g class="layers" style="opacity: 1;"><g class="legendfill"/><g class="legendlines"><path class="js-line" d="M5,0h30" style="fill: none; stroke: rgb(198, 158, 45); stroke-opacity: 1; stroke-width: 2px;"/></g><g class="legendsymbols"><g class="legendpoints"><path class="scatterpts" transform="translate(20,0)" d="M6.5,0A6.5,6.5 0 1,1 0,-6.5A6.5,6.5 0 0,1 6.5,0Z" style="opacity: 1; stroke: rgb(198, 158, 45); stroke-opacity: 1; stroke-width: 1px; fill: none;"/></g></g></g><rect class="legendtoggle" x="0" y="-9.5" width="184.03125" height="19" style="fill: rgb(0, 0, 0); fill-opacity: 0;"/></g></g><g class="groups" transform=""><g class="traces" transform="translate(0,52.5)" style="opacity: 1;"><text class="legendtext" text-anchor="start" x="40" y="4.680000000000001" style="font-family: monospace; font-size: 12px; fill: rgb(42, 63, 95); fill-opacity: 1; white-space: pre;">deal dog many</text><g class="layers" style="opacity: 1;"><g class="legendfill"/><g class="legendlines"><path class="js-line" d="M5,0h30" style="fill: none; stroke: rgb(96, 255, 139); stroke-opacity: 1; stroke-width: 2px;"/></g><g class="legendsymbols"><g class="legendpoints"><path class="scatterpts" transform="translate(20,0)" d="M6.5,0A6.5,6.5 0 1,1 0,-6.5A6.5,6.5 0 0,1 6.5,0Z" style="opacity: 1; stroke: rgb(96, 255, 139); stroke-opacity: 1; stroke-width: 1px; fill: none;"/></g></g></g><rect class="legendtoggle" x="0" y="-9.5" width="184.03125" height="19" style="fill: rgb(0, 0, 0); fill-opacity: 0;"/></g></g><g class="groups" transform=""><g class="traces" transform="translate(0,71.5)" style="opacity: 1;"><text class="legendtext" text-anchor="start" x="40" y="4.680000000000001" style="font-family: monospace; font-size: 12px; fill: rgb(42, 63, 95); fill-opacity: 1; white-space: pre;">go several hope</text><g class="layers" style="opacity: 1;"><g class="legendfill"/><g class="legendlines"><path class="js-line" d="M5,0h30" style="fill: none; stroke: rgb(144, 174, 229); stroke-opacity: 1; stroke-width: 2px;"/></g><g class="legendsymbols"><g class="legendpoints"><path class="scatterpts" transform="translate(20,0)" d="M6.5,0A6.5,6.5 0 1,1 0,-6.5A6.5,6.5 0 0,1 6.5,0Z" style="opacity: 1; stroke: rgb(144, 174, 229); stroke-opacity: 1; stroke-width: 1px; fill: none;"/></g></g></g><rect class="legendtoggle" x="0" y="-9.5" width="184.03125" height="19" style="fill: rgb(0, 0, 0); fill-opacity: 0;"/></g></g></g><rect class="scrollbar" rx="20" ry="3" width="0" height="0" style="fill: rgb(128, 139, 164); fill-opacity: 1;" x="0" y="0"/></g><g class="g-gtitle"><text class="gtitle" x="441" y="30" text-anchor="end" dy="0em" style="font-family: monospace; font-size: 25px; fill: rgb(0, 0, 0); opacity: 1; font-weight: normal; white-space: pre;">worry half police</text></g><g class="g-xtitle"/><g class="g-ytitle"><text class="ytitle" transform="rotate(-90,18.684375000000003,290)" x="18.684375000000003" y="290" text-anchor="middle" style="font-family: monospace; font-size: 14px; fill: rgb(0, 0, 0); opacity: 1; font-weight: normal; white-space: pre;">wear decision down</text></g></g></svg>