<svg class="main-svg" xmlns="http://www.w3.org/2000/svg" xmlns:xlink="http://www.w3.org/1999/xlink" width="693" height="600" style="" viewBox="0 0 693 600"><rect x="0" y="0" width="693" height="600" style="fill: rgb(255, 255, 255); fill-opacity: 1;"/><defs id="defs-fccb24"><g class="clips"><clipPath id="clipfccb24xyplot" class="plotclip"><rect width="533" height="454"/></clipPath><clipPath class="axesclip" id="clipfccb24x"><rect x="80" y="0" width="533" height="600"/></clipPath><clipPath class="axesclip" id="clipfccb24y"><rect x="0" y="60" width="693" height="454"/></clipPath><clipPath class="axesclip" id="clipfccb24xy"><rect x="80" y="60" width="533" height="454"/></clipPath></g><g class="gradients"/><g class="patterns"/></defs><g class="bglayer"><rect class="bg" x="80" y="60" width="533" height="454" style="fill: rgb(255, 255, 255); fill-opacity: 1; stroke-width: 0;"/></g><g class="layer-below"><g class="imagelayer"/><g class="shapelayer"/></g><g class="cartesianlayer"><g class="subplot xy"><g class="layer-subplot"><g class="shapelayer"/><g class="imagelayer"/></g><g class="minor-gridlayer"><g class="x"/><g class="y"/></g><g class="gridlayer"><g class="x"/><g class="y"><path class="ygrid crisp" transform="translate(0,409.22)" d="M80,0h533" style="stroke: rgb(208, 208, 208); stroke-opacity: 1; stroke-width: 1px;"/><path class="ygrid crisp" transform="translate(0,323.75)" d="M80,0h533" style="stroke: rgb(208, 208, 208); stroke-opacity: 1; stroke-width: 1px;"/><path class="ygrid crisp" transform="translate(0,238.28)" d="M80,0h533" style="stroke: rgb(208, 208, 208); stroke-opacity: 1; stroke-width: 1px;"/><path class="ygrid crisp" transform="translate(0,152.82)" d="M80,0h533" style="stroke: rgb(208, 208, 208); stroke-opacity: 1; stroke-width: 1px;"/><path class="ygrid crisp" transform="translate(0,67.35)" d="M80,0h533" style="stroke: rgb(208, 208, 208); stroke-opacity: 1; stroke-width: 1px;"/></g></g><g class="zerolinelayer"><path class="yzl zl crisp" transform="translate(0,494.68)" d="M80,0h533" style="stroke: rgb(255, 255, 255); stroke-opacity: 1; stroke-width: 2px;"/></g><path class="xlines-below"/><path class="ylines-below"/><g class="overlines-below"/><g class="xaxislayer-below"/><g class="yaxislayer-below"/><g class="overaxes-below"/><g class="plot" transform="translate(80,60)" clip-path="url(#clipfccb24xyplot)"><g class="scatterlayer mlayer"><g class="trace scatter traceece3e6" style="stroke-miterlimit: 2; opacity: 1;"><g class="fills"/><g class="errorbars"/><g class="lines"><path class="js-line" d="M33.53,46.67L85.3,344.09L137.07,94.53L188.84,186.83L240.61,272.3L292.39,236.4L344.16,272.3L395.93,29.57L447.7,303.06L499.47,332.12" style="vector-effect: none; fill: none; stroke: rgb(249, 184, 234); stroke-opacity: 1; stroke-width: 2px; opacity: 1;"/></g><g class="points"><path class="point" transform="translate(33.53,46.67)" d="M5.5,0A5.5,5.5 0 1,1 0,-5.5A5.5,5.5 0 0,1 5.5,0Z" style="opacity: 1; stroke-width: 0px; fill: rgb(249, 184, 234); fill-opacity: 1;"/><path class="point" transform="translate(85.3,344.09)" d="M5.5,0A5.5,5.5 0 1,1 0,-5.5A5.5,5.5 0 0,1 5.5,0Z" style="opacity: 1; stroke-width: 0px; fill: rgb(249, 184, 234); fill-opacity: 1;"/><path class="point" transform="translate(137.07,94.53)" d="M5.5,0A5.5,5.5 0 1,1 0,-5.5A5.5,5.5 0 0,1 5.5,0Z" style="opacity: 1; stroke-width: 0px; fill: rgb(249, 184, 234); fill-opacity: 1;"/><path class="point" transform="translate(188.84,186.83)" d="M5.5,0A5.5,5.5 0 1,1 0,-5.5A5.5,5.5 0 0,1 5.5,0Z" style="opacity: 1; stroke-width: 0px; fill: rgb(249, 184, 234); fill-opacity: 1;"/><path class="point" transform="translate(240.61,272.3)" d="M5.5,0A5.5,5.5 0 1,1 0,-5.5A5.5,5.5 0 0,1 5.5,0Z" style="opacity: 1; stroke-width: 0px; fill: rgb(249, 184, 234); fill-opacity: 1;"/><path class="point" transform="translate(292.39,236.4)" d="M5.5,0A5.5,5.5 0 1,1 0,-5.5A5.5,5.5 0 0,1 5.5,0Z" style="opacity: 1; stroke-width: 0px; fill: rgb(249, 184, 234); fill-opacity: 1;"/><path class="point" transform="translate(344.16,272.3)" d="M5.5,0A5.5,5.5 0 1,1 0,-5.5A5.5,5.5 0 0,1 5.5,0Z" style="opacity: 1; stroke-width: 0px; fill: rgb(249, 184, 234); fill-opacity: 1;"/><path class="point" transform="translate(395.93,29.57)" d="M5.5,0A5.5,5.5 0 1,1 0,-5.5A5.5,5.5 0 0,1 5.5,0Z" style="opacity: 1; stroke-width: 0px; fill: rgb(249, 184, 234); fill-opacity: 1;"/><path class="point" transform="translate(447.7,303.06)" d="M5.5,0A5.5,5.5 0 1,1 0,-5.5A5.5,5.5 0 0,1 5.5,0Z" style="opacity: 1; stroke-width: 0px; fill: rgb(249, 184, 234); fill-opacity: 1;"/><path class="point" transform="translate(499.47,332.12)" d="M5.5,0A5.5,5.5 0 1,1 0,-5.5A5.5,5.5 0 0,1 5.5,0Z" style="opacity: 1; stroke-width: 0px; fill: rgb(249, 184, 234); fill-opacity: 1;"/></g><g class="text"/></g><g class="trace scatter tracef80b3c" style="stroke-miterlimit: 2; opacity: 1;"><g class="fills"/><g class="errorbars"/><g class="lines"><path class="js-line" d="M33.53,316.74L85.3,388.53L137.07,161.19L188.84,424.43L240.61,75.73L292.39,279.13L344.16,390.24L395.93,282.55L447.7,231.27L499.47,60.34" style="vector-effect: none; fill: none; stroke: rgb(215, 26, 221); stroke-opacity: 1; stroke-width: 2px; opacity: 1;"/></g><g class="points"><path class="point" transform="translate(33.53,316.74)" d="M5.5,0A5.5,5.5 0 1,1 0,-5.5A5.5,5.5 0 0,1 5.5,0Z" style="opacity: 1; stroke-width: 0px; fill: rgb(215, 26, 221); fill-opacity: 1;"/><path class="point" transform="translate(85.3,388.53)" d="M5.5,0A5.5,5.5 0 1,1 0,-5.5A5.5,5.5 0 0,1 5.5,0Z" style="opacity: 1; stroke-width: 0px; fill: rgb(215, 26, 221); fill-opacity: 1;"/><path class="point" transform="translate(137.07,161.19)" d="M5.5,0A5.5,5.5 0 1,1 0,-5.5A5.5,5.5 0 0,1 5.5,0Z" style="opacity: 1; stroke-width: 0px; fill: rgb(215, 26, 221); fill-opacity: 1;"/><path class="point" transform="translate(188.84,424.43)" d="M5.5,0A5.5,5.5 0 1,1 0,-5.5A5.5,5.5 0 0,1 5.5,0Z" style="opacity: 1; stroke-width: 0px; fill: rgb(215, 26, 221); fill-opacity: 1;"/><path class="point" transform="translate(240.61,75.73)" d="M5.5,0A5.5,5.5 0 1,1 0,-5.5A5.5,5.5 0 0,1 5.5,0Z" style="opacity: 1; stroke-width: 0px; fill: rgb(215, 26, 221); fill-opacity: 1;"/><path class="point" transform="translate(292.39,279.13)" d="M5.5,0A5.5,5.5 0 1,1 0,-5.5A5.5,5.5 0 0,1 5.5,0Z" style="opacity: 1; stroke-width: 0px; fill: rgb(215, 26, 221); fill-opacity: 1;"/><path class="point" transform="translate(344.16,390.24)" d="M5.5,0A5.5,5.5 0 1,1 0,-5.5A5.5,5.5 0 0,1 5.5,0Z" style="opacity: 1; stroke-width: 0px; fill: rgb(215, 26, 221); fill-opacity: 1;"/><path class="point" transform="translate(395.93,282.55)" d="M5.5,0A5.5,5.5 0 1,1 0,-5.5A5.5,5.5 0 0,1 5.5,0Z" style="opacity: 1; stroke-width: 0px; fill: rgb(215, 26, 221); fill-opacity: 1;"/><path class="point" transform="translate(447.7,231.27)" d="M5.5,0A5.5,5.5 0 1,1 0,-5.5A5.5,5.5 0 0,1 5.5,0Z" style="opacity: 1; stroke-width: 0px; fill: rgb(215, 26, 221); fill-opacity: 1;"/><path class="point" transform="translate(499.47,60.34)" d="M5.5,0A5.5,5.5 0 1,1 0,-5.5A5.5,5.5 0 0,1 5.5,0Z" style="opacity: 1; stroke-width: 0px; fill: rgb(215, 26, 221); fill-opacity: 1;"/></g><g class="text"/></g></g></g><g class="overplot"/><path class="xlines-above crisp" d="M0,0" style="fill: none;"/><path class="ylines-above crisp" d="M79.5,60V514" style="fill: none; stroke-width: 1px; stroke: rgb(255, 255, 255); stroke-opacity: 1;"/><g class="overlines-above"/><g class="xaxislayer-above"><g class="xtick"><text text-anchor="start" x="1.9249999999999998" y="520.5" transform="translate(191.18,0) rotate(90,1.9249999999999998,515)" style="font-family: Balto; font-size: 11px; fill: rgb(0, 0, 0); fill-opacity: 1; white-space: pre; opacity: 1;">1780</text></g><g class="xtick"><text text-anchor="start" x="1.9249999999999998" y="520.5" style="font-family: Balto; font-size: 11px; fill: rgb(0, 0, 0); fill-opacity: 1; white-space: pre; opacity: 1;" transform="translate(320.61,0) rotate(90,1.9249999999999998,515)">1785</text></g><g class="xtick"><text text-anchor="start" x="1.9249999999999998" y="520.5" style="font-family: Balto; font-size: 11px; fill: rgb(0, 0, 0); fill-opacity: 1; white-space: pre; opacity: 1;" transform="translate(450.04,0) rotate(90,1.9249999999999998,515)">1790</text></g><g class="xtick"><text text-anchor="start" x="1.9249999999999998" y="520.5" style="font-family: Balto; font-size: 11px; fill: rgb(0, 0, 0); fill-opacity: 1; white-space: pre; opacity: 1;" transform="translate(579.47,0) rotate(90,1.9249999999999998,515)">1795</text></g></g><g class="yaxislayer-above"><g class="ytick"><text text-anchor="end" x="76.8" y="3.8499999999999996" transform="translate(0,494.68)" style="font-family: Balto; font-size: 11px; fill: rgb(0, 0, 0); fill-opacity: 1; white-space: pre; opacity: 1;">0</text></g><g class="ytick"><text text-anchor="end" x="76.8" y="3.8499999999999996" style="font-family: Balto; font-size: 11px; fill: rgb(0, 0, 0); fill-opacity: 1; white-space: pre; opacity: 1;" transform="translate(0,409.22)">50</text></g><g class="ytick"><text text-anchor="end" x="76.8" y="3.8499999999999996" style="font-family: Balto; font-size: 11px; fill: rgb(0, 0, 0); fill-opacity: 1; white-space: pre; opacity: 1;" transform="translate(0,323.75)">100</text></g><g class="ytick"><text text-anchor="end" x="76.8" y="3.8499999999999996" style="font-family: Balto; font-size: 11px; fill: rgb(0, 0, 0); fill-opacity: 1; white-space: pre; opacity: 1;" transform="translate(0,238.28)">150</text></g><g class="ytick"><text text-anchor="end" x="76.8" y="3.8499999999999996" style="font-family: Balto; font-size: 11px; fill: rgb(0, 0, 0); fill-opacity: 1; white-space: pre; opacity: 1;" transform="translate(0,152.82)">200</text></g><g class="ytick"><text text-anchor="end" x="76.8" y="3.8499999999999996" style="font-family: Balto; font-size: 11px; fill: rgb(0, 0, 0); fill-opacity: 1; white-space: pre; opacity: 1;" transform="translate(0,67.35)">250</text></g></g><g class="overaxes-above"/></g></g><g class="polarlayer"/><g class="smithlayer"/><g class="ternarylayer"/><g class="geolayer"/><g class="funnelarealayer"/><g class="pielayer"/><g class="iciclelayer"/><g class="treemaplayer"/><g class="sunburstlayer"/><g class="glimages"/><defs id="topdefs-fccb24"><g class="clips"/><clipPath id="legendfccb24"><rect width="244" height="29" x="0" y="0"/></clipPath></defs><g class="layer-above"><g class="imagelayer"/><g class="shapelayer"/></g><g class="infolayer"><g class="legend" pointer-events="all" transform="translate(80,559.4000000000001)"><rect class="bg" shape-rendering="crispEdges" style="stroke: rgb(68, 68, 68); stroke-opacity: 1; fill: rgb(255, 255, 255); fill-opacity: 1; stroke-width: 0px;" width="244" height="29" x="0" y="0"/><g class="scrollbox" transform="" clip-path="url(#legendfccb24)"><g class="groups" transform=""><g class="traces" transform="translate(0,14.5)" style="opacity: 1;"><text class="legendtext" text-anchor="start" x="40" y="4.680000000000001" style="font-family: Balto; font-size: 12px; fill: rgb(42, 63, 95); fill-opacity: 1; white-space: pre;">else seat set</text><g class="layers" style="opacity: 1;"><g class="legendfill"/><g class="legendlines"><path class="js-line" d="M5,0h30" style="fill: none; stroke: rgb(249, 184, 234); stroke-opacity: 1; stroke-width: 2px;"/></g><g class="legendsymbols"><g class="legendpoints"><path class="scatterpts" transform="translate(20,0)" d="M5.5,0A5.5,5.5 0 1,1 0,-5.5A5.5,5.5 0 0,1 5.5,0Z" style="opacity: 1; stroke-width: 0px; fill: rgb(249, 184, 234); fill-opacity: 1;"/></g></g></g><rect class="legendtoggle" x="0" y="-9.5" width="99.8125" height="19" style="fill: rgb(0, 0, 0); fill-opacity: 0;"/></g></g><g class="groups" transform="translate(102.3125,0)"><g class="traces" transform="translate(0,14.5)" style="opacity: 1;"><text class="legendtext" text-anchor="start" x="40" y="4.680000000000001" style="font-family: Balto; font-size: 12px; fill: rgb(42, 63, 95); fill-opacity: 1; white-space: pre;">with toward despite</text><g class="layers" style="opacity: 1;"><g class="legendfill"/><g class="legendlines"><path class="js-line" d="M5,0h30" style="fill: none; stroke: rgb(215, 26, 221); stroke-opacity: 1; stroke-width: 2px;"/></g><g class="legendsymbols"><g class="legendpoints"><path class="scatterpts" transform="translate(20,0)" d="M5.5,0A5.5,5.5 0 1,1 0,-5.5A5.5,5.5 0 0,1 5.5,0Z" style="opacity: 1; stroke-width: 0px; fill: rgb(215, 26, 221); fill-opacity: 1;"/></g></g></g><rect class="legendtoggle" x="0" y="-9.5" width="138.828125" height="19" style="fill: rgb(0, 0, 0); fill-opacity: 0;"/></g></g></g><rect class="scrollbar" rx="20" ry="3" width="0" height="0" style="fill: rgb(128, 139, 164); fill-opacity: 1;" x="0" y="0"/></g><g class="g-gtitle"><text class="gtitle" x="346.5" y="30" text-anchor="middle" dy="0em" style="font-family: Balto; font-size: 25px; fill: rgb(0, 0, 0); opacity: 1; font-weight: normal; white-space: pre;">collection direction second</text></g><g class="g-xtitle"/><g class="g-ytitle"><text class="ytitle" transform="rotate(-90,34.996875,287)" x="34.996875" y="287" text-anchor="middle" style="font-family: Balto; font-size: 14px; fill: rgb(0, 0, 0); opacity: 1; font-weight: normal; white-space: pre;">have may probably</text></g></g></svg>