<svg class="main-svg" xmlns="http://www.w3.org/2000/svg" xmlns:xlink="http://www.w3.org/1999/xlink" width="727" height="600" style="" viewBox="0 0 727 600"><rect x="0" y="0" width="727" height="600" style="fill: rgb(255, 255, 255); fill-opacity: 1;"/><defs id="defs-b05d16"><g class="clips"><clipPath id="clipb05d16xyplot" class="plotclip"><rect width="478" height="460"/></clipPath><clipPath class="axesclip" id="clipb05d16x"><rect x="80" y="0" width="478" height="600"/></clipPath><clipPath class="axesclip" id="clipb05d16y"><rect x="0" y="60" width="727" height="460"/></clipPath><clipPath class="axesclip" id="clipb05d16xy"><rect x="80" y="60" width="478" height="460"/></clipPath></g><g class="gradients"/><g class="patterns"/></defs><g class="bglayer"><rect class="bg" x="80" y="60" width="478" height="460" style="fill: rgb(255, 255, 255); fill-opacity: 1; stroke-width: 0;"/></g><g class="layer-below"><g class="imagelayer"/><g class="shapelayer"/></g><g class="cartesianlayer"><g class="subplot xy"><g class="layer-subplot"><g class="shapelayer"/><g class="imagelayer"/></g><g class="minor-gridlayer"><g class="x"/><g class="y"/></g><g class="gridlayer"><g class="x"/><g class="y"><path class="ygrid crisp" transform="translate(0,477)" d="M80,0h478" style="stroke: rgb(208, 208, 208); stroke-opacity: 1; stroke-width: 1px;"/><path class="ygrid crisp" transform="translate(0,423.87)" d="M80,0h478" style="stroke: rgb(208, 208, 208); stroke-opacity: 1; stroke-width: 1px;"/><path class="ygrid crisp" transform="translate(0,370.75)" d="M80,0h478" style="stroke: rgb(208, 208, 208); stroke-opacity: 1; stroke-width: 1px;"/><path class="ygrid crisp" transform="translate(0,317.62)" d="M80,0h478" style="stroke: rgb(208, 208, 208); stroke-opacity: 1; stroke-width: 1px;"/><path class="ygrid crisp" transform="translate(0,264.5)" d="M80,0h478" style="stroke: rgb(208, 208, 208); stroke-opacity: 1; stroke-width: 1px;"/><path class="ygrid crisp" transform="translate(0,211.37)" d="M80,0h478" style="stroke: rgb(208, 208, 208); stroke-opacity: 1; stroke-width: 1px;"/><path class="ygrid crisp" transform="translate(0,158.25)" d="M80,0h478" style="stroke: rgb(208, 208, 208); stroke-opacity: 1; stroke-width: 1px;"/><path class="ygrid crisp" transform="translate(0,105.13)" d="M80,0h478" style="stroke: rgb(208, 208, 208); stroke-opacity: 1; stroke-width: 1px;"/></g></g><g class="zerolinelayer"/><path class="xlines-below"/><path class="ylines-below"/><g class="overlines-below"/><g class="xaxislayer-below"/><g class="yaxislayer-below"/><g class="overaxes-below"/><g class="plot" transform="translate(80,60)" clip-path="url(#clipb05d16xyplot)"><g class="scatterlayer mlayer"><g class="trace scatter tracee0c89d" style="stroke-miterlimit: 2; opacity: 1;"><g class="fills"/><g class="errorbars"/><g class="lines"><path class="js-line" d="M26.9,40.88L111.74,198.12L196.58,423.37L281.42,398.94L366.26,205.56L451.1,90.81" style="vector-effect: none; fill: none; stroke: rgb(76, 196, 53); stroke-opacity: 1; stroke-width: 2px; opacity: 1;"/></g><g class="points"><path class="point" transform="translate(26.9,40.88)" d="M0.5,0A0.5,0.5 0 1,1 0,-0.5A0.5,0.5 0 0,1 0.5,0Z" style="opacity: 1; stroke-width: 0px; fill: rgb(76, 196, 53); fill-opacity: 1;"/><path class="point" transform="translate(111.74,198.12)" d="M0.5,0A0.5,0.5 0 1,1 0,-0.5A0.5,0.5 0 0,1 0.5,0Z" style="opacity: 1; stroke-width: 0px; fill: rgb(76, 196, 53); fill-opacity: 1;"/><path class="point" transform="translate(196.58,423.37)" d="M0.5,0A0.5,0.5 0 1,1 0,-0.5A0.5,0.5 0 0,1 0.5,0Z" style="opacity: 1; stroke-width: 0px; fill: rgb(76, 196, 53); fill-opacity: 1;"/><path class="point" transform="translate(281.42,398.94)" d="M0.5,0A0.5,0.5 0 1,1 0,-0.5A0.5,0.5 0 0,1 0.5,0Z" style="opacity: 1; stroke-width: 0px; fill: rgb(76, 196, 53); fill-opacity: 1;"/><path class="point" transform="translate(366.26,205.56)" d="M0.5,0A0.5,0.5 0 1,1 0,-0.5A0.5,0.5 0 0,1 0.5,0Z" style="opacity: 1; stroke-width: 0px; fill: rgb(76, 196, 53); fill-opacity: 1;"/><path class="point" transform="translate(451.1,90.81)" d="M0.5,0A0.5,0.5 0 1,1 0,-0.5A0.5,0.5 0 0,1 0.5,0Z" style="opacity: 1; stroke-width: 0px; fill: rgb(76, 196, 53); fill-opacity: 1;"/></g><g class="text"/></g><g class="trace scatter trace6f8280" style="stroke-miterlimit: 2; opacity: 1;"><g class="fills"/><g class="errorbars"/><g class="lines"><path class="js-line" d="M26.9,434L111.74,183.25L196.58,86.56L281.42,242.75L366.26,247L451.1,150.31" style="vector-effect: none; fill: none; stroke: rgb(247, 249, 172); stroke-opacity: 1; stroke-width: 2px; opacity: 1;"/></g><g class="points"><path class="point" transform="translate(26.9,434)" d="M0.5,0A0.5,0.5 0 1,1 0,-0.5A0.5,0.5 0 0,1 0.5,0Z" style="opacity: 1; stroke-width: 0px; fill: rgb(247, 249, 172); fill-opacity: 1;"/><path class="point" transform="translate(111.74,183.25)" d="M0.5,0A0.5,0.5 0 1,1 0,-0.5A0.5,0.5 0 0,1 0.5,0Z" style="opacity: 1; stroke-width: 0px; fill: rgb(247, 249, 172); fill-opacity: 1;"/><path class="point" transform="translate(196.58,86.56)" d="M0.5,0A0.5,0.5 0 1,1 0,-0.5A0.5,0.5 0 0,1 0.5,0Z" style="opacity: 1; stroke-width: 0px; fill: rgb(247, 249, 172); fill-opacity: 1;"/><path class="point" transform="translate(281.42,242.75)" d="M0.5,0A0.5,0.5 0 1,1 0,-0.5A0.5,0.5 0 0,1 0.5,0Z" style="opacity: 1; stroke-width: 0px; fill: rgb(247, 249, 172); fill-opacity: 1;"/><path class="point" transform="translate(366.26,247)" d="M0.5,0A0.5,0.5 0 1,1 0,-0.5A0.5,0.5 0 0,1 0.5,0Z" style="opacity: 1; stroke-width: 0px; fill: rgb(247, 249, 172); fill-opacity: 1;"/><path class="point" transform="translate(451.1,150.31)" d="M0.5,0A0.5,0.5 0 1,1 0,-0.5A0.5,0.5 0 0,1 0.5,0Z" style="opacity: 1; stroke-width: 0px; fill: rgb(247, 249, 172); fill-opacity: 1;"/></g><g class="text"/></g><g class="trace scatter trace2848d9" style="stroke-miterlimit: 2; opacity: 1;"><g class="fills"/><g class="errorbars"/><g class="lines"><path class="js-line" d="M26.9,383L111.74,113.13L196.58,350.06L281.42,327.75L366.26,94L451.1,388.31" style="vector-effect: none; fill: none; stroke: rgb(255, 246, 165); stroke-opacity: 1; stroke-width: 2px; opacity: 1;"/></g><g class="points"><path class="point" transform="translate(26.9,383)" d="M0.5,0A0.5,0.5 0 1,1 0,-0.5A0.5,0.5 0 0,1 0.5,0Z" style="opacity: 1; stroke-width: 0px; fill: rgb(255, 246, 165); fill-opacity: 1;"/><path class="point" transform="translate(111.74,113.13)" d="M0.5,0A0.5,0.5 0 1,1 0,-0.5A0.5,0.5 0 0,1 0.5,0Z" style="opacity: 1; stroke-width: 0px; fill: rgb(255, 246, 165); fill-opacity: 1;"/><path class="point" transform="translate(196.58,350.06)" d="M0.5,0A0.5,0.5 0 1,1 0,-0.5A0.5,0.5 0 0,1 0.5,0Z" style="opacity: 1; stroke-width: 0px; fill: rgb(255, 246, 165); fill-opacity: 1;"/><path class="point" transform="translate(281.42,327.75)" d="M0.5,0A0.5,0.5 0 1,1 0,-0.5A0.5,0.5 0 0,1 0.5,0Z" style="opacity: 1; stroke-width: 0px; fill: rgb(255, 246, 165); fill-opacity: 1;"/><path class="point" transform="translate(366.26,94)" d="M0.5,0A0.5,0.5 0 1,1 0,-0.5A0.5,0.5 0 0,1 0.5,0Z" style="opacity: 1; stroke-width: 0px; fill: rgb(255, 246, 165); fill-opacity: 1;"/><path class="point" transform="translate(451.1,388.31)" d="M0.5,0A0.5,0.5 0 1,1 0,-0.5A0.5,0.5 0 0,1 0.5,0Z" style="opacity: 1; stroke-width: 0px; fill: rgb(255, 246, 165); fill-opacity: 1;"/></g><g class="text"/></g><g class="trace scatter tracea2667f" style="stroke-miterlimit: 2; opacity: 1;"><g class="fills"/><g class="errorbars"/><g class="lines"><path class="js-line" d="M26.9,26L111.74,133.31L196.58,419.12L281.42,29.19L366.26,325.62L451.1,430.81" style="vector-effect: none; fill: none; stroke: rgb(47, 203, 206); stroke-opacity: 1; stroke-width: 2px; opacity: 1;"/></g><g class="points"><path class="point" transform="translate(26.9,26)" d="M0.5,0A0.5,0.5 0 1,1 0,-0.5A0.5,0.5 0 0,1 0.5,0Z" style="opacity: 1; stroke-width: 0px; fill: rgb(47, 203, 206); fill-opacity: 1;"/><path class="point" transform="translate(111.74,133.31)" d="M0.5,0A0.5,0.5 0 1,1 0,-0.5A0.5,0.5 0 0,1 0.5,0Z" style="opacity: 1; stroke-width: 0px; fill: rgb(47, 203, 206); fill-opacity: 1;"/><path class="point" transform="translate(196.58,419.12)" d="M0.5,0A0.5,0.5 0 1,1 0,-0.5A0.5,0.5 0 0,1 0.5,0Z" style="opacity: 1; stroke-width: 0px; fill: rgb(47, 203, 206); fill-opacity: 1;"/><path class="point" transform="translate(281.42,29.19)" d="M0.5,0A0.5,0.5 0 1,1 0,-0.5A0.5,0.5 0 0,1 0.5,0Z" style="opacity: 1; stroke-width: 0px; fill: rgb(47, 203, 206); fill-opacity: 1;"/><path class="point" transform="translate(366.26,325.62)" d="M0.5,0A0.5,0.5 0 1,1 0,-0.5A0.5,0.5 0 0,1 0.5,0Z" style="opacity: 1; stroke-width: 0px; fill: rgb(47, 203, 206); fill-opacity: 1;"/><path class="point" transform="translate(451.1,430.81)" d="M0.5,0A0.5,0.5 0 1,1 0,-0.5A0.5,0.5 0 0,1 0.5,0Z" style="opacity: 1; stroke-width: 0px; fill: rgb(47, 203, 206); fill-opacity: 1;"/></g><g class="text"/></g></g></g><g class="overplot"/><path class="xlines-above crisp" d="M0,0" style="fill: none;"/><path class="ylines-above crisp" d="M79.5,60V520" style="fill: none; stroke-width: 1px; stroke: rgb(255, 255, 255); stroke-opacity: 1;"/><g class="overlines-above"/><g class="xaxislayer-above"><g class="xtick"><text text-anchor="start" x="0" y="537" transform="translate(106.9,0) rotate(45,0,529)" style="font-family: sans-serif; font-size: 16px; fill: rgb(0, 0, 0); fill-opacity: 1; white-space: pre; opacity: 1;">Jan</text></g><g class="xtick"><text text-anchor="start" x="0" y="537" transform="translate(191.74,0) rotate(45,0,529)" style="font-family: sans-serif; font-size: 16px; fill: rgb(0, 0, 0); fill-opacity: 1; white-space: pre; opacity: 1;">Feb</text></g><g class="xtick"><text text-anchor="start" x="0" y="537" transform="translate(276.58000000000004,0) rotate(45,0,529)" style="font-family: sans-serif; font-size: 16px; fill: rgb(0, 0, 0); fill-opacity: 1; white-space: pre; opacity: 1;">Mar</text></g><g class="xtick"><text text-anchor="start" x="0" y="537" transform="translate(361.42,0) rotate(45,0,529)" style="font-family: sans-serif; font-size: 16px; fill: rgb(0, 0, 0); fill-opacity: 1; white-space: pre; opacity: 1;">Apr</text></g><g class="xtick"><text text-anchor="start" x="0" y="537" transform="translate(446.26,0) rotate(45,0,529)" style="font-family: sans-serif; font-size: 16px; fill: rgb(0, 0, 0); fill-opacity: 1; white-space: pre; opacity: 1;">May</text></g><g class="xtick"><text text-anchor="start" x="0" y="537" transform="translate(531.1,0) rotate(45,0,529)" style="font-family: sans-serif; font-size: 16px; fill: rgb(0, 0, 0); fill-opacity: 1; white-space: pre; opacity: 1;">June</text></g></g><g class="yaxislayer-above"><g class="ytick"><text text-anchor="end" x="75.8" y="5.6" transform="translate(0,477)" style="font-family: sans-serif; font-size: 16px; fill: rgb(0, 0, 0); fill-opacity: 1; white-space: pre; opacity: 1;">100</text></g><g class="ytick"><text text-anchor="end" x="75.8" y="5.6" style="font-family: sans-serif; font-size: 16px; fill: rgb(0, 0, 0); fill-opacity: 1; white-space: pre; opacity: 1;" transform="translate(0,423.87)">150</text></g><g class="ytick"><text text-anchor="end" x="75.8" y="5.6" style="font-family: sans-serif; font-size: 16px; fill: rgb(0, 0, 0); fill-opacity: 1; white-space: pre; opacity: 1;" transform="translate(0,370.75)">200</text></g><g class="ytick"><text text-anchor="end" x="75.8" y="5.6" style="font-family: sans-serif; font-size: 16px; fill: rgb(0, 0, 0); fill-opacity: 1; white-space: pre; opacity: 1;" transform="translate(0,317.62)">250</text></g><g class="ytick"><text text-anchor="end" x="75.8" y="5.6" style="font-family: sans-serif; font-size: 16px; fill: rgb(0, 0, 0); fill-opacity: 1; white-space: pre; opacity: 1;" transform="translate(0,264.5)">300</text></g><g class="ytick"><text text-anchor="end" x="75.8" y="5.6" style="font-family: sans-serif; font-size: 16px; fill: rgb(0, 0, 0); fill-opacity: 1; white-space: pre; opacity: 1;" transform="translate(0,211.37)">350</text></g><g class="ytick"><text text-anchor="end" x="75.8" y="5.6" style="font-family: sans-serif; font-size: 16px; fill: rgb(0, 0, 0); fill-opacity: 1; white-space: pre; opacity: 1;" transform="translate(0,158.25)">400</text></g><g class="ytick"><text text-anchor="end" x="75.8" y="5.6" style="font-family: sans-serif; font-size: 16px; fill: rgb(0, 0, 0); fill-opacity: 1; white-space: pre; opacity: 1;" transform="translate(0,105.13)">450</text></g></g><g class="overaxes-above"/></g></g><g class="polarlayer"/><g class="smithlayer"/><g class="ternarylayer"/><g class="geolayer"/><g class="funnelarealayer"/><g class="pielayer"/><g class="iciclelayer"/><g class="treemaplayer"/><g class="sunburstlayer"/><g class="glimages"/><defs id="topdefs-b05d16"><g class="clips"/><clipPath id="legendb05d16"><rect width="147" height="105" x="0" y="0"/></clipPath></defs><g class="layer-above"><g class="imagelayer"/><g class="shapelayer"/></g><g class="infolayer"><g class="legend" pointer-events="all" transform="translate(567.56,60)"><rect class="bg" shape-rendering="crispEdges" style="stroke: rgb(68, 68, 68); stroke-opacity: 1; fill: rgb(255, 255, 255); fill-opacity: 1; stroke-width: 0px;" width="147" height="105" x="0" y="0"/><g class="scrollbox" transform="" clip-path="url(#legendb05d16)"><text class="legendtitletext" text-anchor="start" x="2" y="18.2" style="font-family: sans-serif; font-size: 14px; fill: rgb(42, 63, 95); fill-opacity: 1; white-space: pre;">Congress as pay</text><g class="groups" transform=""><g class="traces" transform="translate(0,32.7)" style="opacity: 1;"><text class="legendtext" text-anchor="start" x="40" y="4.680000000000001" style="font-family: sans-serif; font-size: 12px; fill: rgb(42, 63, 95); fill-opacity: 1; white-space: pre;">goal rate through</text><g class="layers" style="opacity: 1;"><g class="legendfill"/><g class="legendlines"><path class="js-line" d="M5,0h30" style="fill: none; stroke: rgb(76, 196, 53); stroke-opacity: 1; stroke-width: 2px;"/></g><g class="legendsymbols"><g class="legendpoints"><path class="scatterpts" transform="translate(20,0)" d="M1,0A1,1 0 1,1 0,-1A1,1 0 0,1 1,0Z" style="opacity: 1; stroke-width: 0px; fill: rgb(76, 196, 53); fill-opacity: 1;"/></g></g></g><rect class="legendtoggle" x="0" y="-9.5" width="141.0625" height="19" style="fill: rgb(0, 0, 0); fill-opacity: 0;"/></g></g><g class="groups" transform=""><g class="traces" transform="translate(0,51.7)" style="opacity: 1;"><text class="legendtext" text-anchor="start" x="40" y="4.680000000000001" style="font-family: sans-serif; font-size: 12px; fill: rgb(42, 63, 95); fill-opacity: 1; white-space: pre;">yet imagine eat</text><g class="layers" style="opacity: 1;"><g class="legendfill"/><g class="legendlines"><path class="js-line" d="M5,0h30" style="fill: none; stroke: rgb(247, 249, 172); stroke-opacity: 1; stroke-width: 2px;"/></g><g class="legendsymbols"><g class="legendpoints"><path class="scatterpts" transform="translate(20,0)" d="M1,0A1,1 0 1,1 0,-1A1,1 0 0,1 1,0Z" style="opacity: 1; stroke-width: 0px; fill: rgb(247, 249, 172); fill-opacity: 1;"/></g></g></g><rect class="legendtoggle" x="0" y="-9.5" width="141.0625" height="19" style="fill: rgb(0, 0, 0); fill-opacity: 0;"/></g></g><g class="groups" transform=""><g class="traces" transform="translate(0,70.7)" style="opacity: 1;"><text class="legendtext" text-anchor="start" x="40" y="4.680000000000001" style="font-family: sans-serif; font-size: 12px; fill: rgb(42, 63, 95); fill-opacity: 1; white-space: pre;">away author rather</text><g class="layers" style="opacity: 1;"><g class="legendfill"/><g class="legendlines"><path class="js-line" d="M5,0h30" style="fill: none; stroke: rgb(255, 246, 165); stroke-opacity: 1; stroke-width: 2px;"/></g><g class="legendsymbols"><g class="legendpoints"><path class="scatterpts" transform="translate(20,0)" d="M1,0A1,1 0 1,1 0,-1A1,1 0 0,1 1,0Z" style="opacity: 1; stroke-width: 0px; fill: rgb(255, 246, 165); fill-opacity: 1;"/></g></g></g><rect class="legendtoggle" x="0" y="-9.5" width="141.0625" height="19" style="fill: rgb(0, 0, 0); fill-opacity: 0;"/></g></g><g class="groups" transform=""><g class="traces" transform="translate(0,89.7)" style="opacity: 1;"><text class="legendtext" text-anchor="start" x="40" y="4.680000000000001" style="font-family: sans-serif; font-size: 12px; fill: rgb(42, 63, 95); fill-opacity: 1; white-space: pre;">build market price</text><g class="layers" style="opacity: 1;"><g class="legendfill"/><g class="legendlines"><path class="js-line" d="M5,0h30" style="fill: none; stroke: rgb(47, 203, 206); stroke-opacity: 1; stroke-width: 2px;"/></g><g class="legendsymbols"><g class="legendpoints"><path class="scatterpts" transform="translate(20,0)" d="M1,0A1,1 0 1,1 0,-1A1,1 0 0,1 1,0Z" style="opacity: 1; stroke-width: 0px; fill: rgb(47, 203, 206); fill-opacity: 1;"/></g></g></g><rect class="legendtoggle" x="0" y="-9.5" width="141.0625" height="19" style="fill: rgb(0, 0, 0); fill-opacity: 0;"/></g></g></g><rect class="scrollbar" rx="20" ry="3" width="0" height="0" style="fill: rgb(128, 139, 164); fill-opacity: 1;" x="0" y="0"/></g><g class="g-gtitle"><text class="gtitle" x="363.5" y="30" text-anchor="middle" dy="0em" style="font-family: sans-serif; font-size: 25px; fill: rgb(0, 0, 0); opacity: 1; font-weight: normal; white-space: pre;">especially pick imagine</text></g><g class="g-xtitle"/><g class="g-ytitle"/></g></svg>