<svg class="main-svg" xmlns="http://www.w3.org/2000/svg" xmlns:xlink="http://www.w3.org/1999/xlink" width="374" height="600" style="" viewBox="0 0 374 600"><rect x="0" y="0" width="374" height="600" style="fill: rgb(255, 255, 255); fill-opacity: 1;"/><defs id="defs-b5ae77"><g class="clips"><clipPath id="clipb5ae77xyplot" class="plotclip"><rect width="137" height="460"/></clipPath><clipPath class="axesclip" id="clipb5ae77x"><rect x="80" y="0" width="137" height="600"/></clipPath><clipPath class="axesclip" id="clipb5ae77y"><rect x="0" y="60" width="374" height="460"/></clipPath><clipPath class="axesclip" id="clipb5ae77xy"><rect x="80" y="60" width="137" height="460"/></clipPath></g><g class="gradients"/><g class="patterns"/></defs><g class="bglayer"><rect class="bg" x="80" y="60" width="137" height="460" style="fill: rgb(255, 255, 255); fill-opacity: 1; stroke-width: 0;"/></g><g class="layer-below"><g class="imagelayer"/><g class="shapelayer"/></g><g class="cartesianlayer"><g class="subplot xy"><g class="layer-subplot"><g class="shapelayer"/><g class="imagelayer"/></g><g class="minor-gridlayer"><g class="x"/><g class="y"/></g><g class="gridlayer"><g class="x"/><g class="y"><path class="ygrid crisp" transform="translate(0,425.37)" d="M80,0h137" style="stroke: rgb(208, 208, 208); stroke-opacity: 1; stroke-width: 1px;"/><path class="ygrid crisp" transform="translate(0,358.02)" d="M80,0h137" style="stroke: rgb(208, 208, 208); stroke-opacity: 1; stroke-width: 1px;"/><path class="ygrid crisp" transform="translate(0,290.66999999999996)" d="M80,0h137" style="stroke: rgb(208, 208, 208); stroke-opacity: 1; stroke-width: 1px;"/><path class="ygrid crisp" transform="translate(0,223.32)" d="M80,0h137" style="stroke: rgb(208, 208, 208); stroke-opacity: 1; stroke-width: 1px;"/><path class="ygrid crisp" transform="translate(0,155.97)" d="M80,0h137" style="stroke: rgb(208, 208, 208); stroke-opacity: 1; stroke-width: 1px;"/><path class="ygrid crisp" transform="translate(0,88.63)" d="M80,0h137" style="stroke: rgb(208, 208, 208); stroke-opacity: 1; stroke-width: 1px;"/></g></g><g class="zerolinelayer"><path class="yzl zl crisp" transform="translate(0,492.72)" d="M80,0h137" style="stroke: rgb(255, 255, 255); stroke-opacity: 1; stroke-width: 2px;"/></g><path class="xlines-below"/><path class="ylines-below"/><g class="overlines-below"/><g class="xaxislayer-below"/><g class="yaxislayer-below"/><g class="overaxes-below"/><g class="plot" transform="translate(80,60)" clip-path="url(#clipb5ae77xyplot)"><g class="scatterlayer mlayer"><g class="trace scatter trace02522a" style="stroke-miterlimit: 2; opacity: 1;"><g class="fills"/><g class="errorbars"/><g class="lines"><path class="js-line" d="M12.48,74.42L23.68,100.02L34.89,233.37L46.09,256.27L57.3,314.19L68.5,366.72L79.71,83.85L90.91,34.01L102.12,226.63L113.32,411.17L124.53,256.27" style="vector-effect: none; fill: none; stroke: rgb(154, 244, 211); stroke-opacity: 1; stroke-width: 2px; opacity: 1;"/></g><g class="points"><path class="point" transform="translate(12.48,74.42)" d="M4.5,0A4.5,4.5 0 1,1 0,-4.5A4.5,4.5 0 0,1 4.5,0Z" style="opacity: 1; stroke: rgb(154, 244, 211); stroke-opacity: 1; stroke-width: 1px; fill: none;"/><path class="point" transform="translate(23.68,100.02)" d="M4.5,0A4.5,4.5 0 1,1 0,-4.5A4.5,4.5 0 0,1 4.5,0Z" style="opacity: 1; stroke: rgb(154, 244, 211); stroke-opacity: 1; stroke-width: 1px; fill: none;"/><path class="point" transform="translate(34.89,233.37)" d="M4.5,0A4.5,4.5 0 1,1 0,-4.5A4.5,4.5 0 0,1 4.5,0Z" style="opacity: 1; stroke: rgb(154, 244, 211); stroke-opacity: 1; stroke-width: 1px; fill: none;"/><path class="point" transform="translate(46.09,256.27)" d="M4.5,0A4.5,4.5 0 1,1 0,-4.5A4.5,4.5 0 0,1 4.5,0Z" style="opacity: 1; stroke: rgb(154, 244, 211); stroke-opacity: 1; stroke-width: 1px; fill: none;"/><path class="point" transform="translate(57.3,314.19)" d="M4.5,0A4.5,4.5 0 1,1 0,-4.5A4.5,4.5 0 0,1 4.5,0Z" style="opacity: 1; stroke: rgb(154, 244, 211); stroke-opacity: 1; stroke-width: 1px; fill: none;"/><path class="point" transform="translate(68.5,366.72)" d="M4.5,0A4.5,4.5 0 1,1 0,-4.5A4.5,4.5 0 0,1 4.5,0Z" style="opacity: 1; stroke: rgb(154, 244, 211); stroke-opacity: 1; stroke-width: 1px; fill: none;"/><path class="point" transform="translate(79.71,83.85)" d="M4.5,0A4.5,4.5 0 1,1 0,-4.5A4.5,4.5 0 0,1 4.5,0Z" style="opacity: 1; stroke: rgb(154, 244, 211); stroke-opacity: 1; stroke-width: 1px; fill: none;"/><path class="point" transform="translate(90.91,34.01)" d="M4.5,0A4.5,4.5 0 1,1 0,-4.5A4.5,4.5 0 0,1 4.5,0Z" style="opacity: 1; stroke: rgb(154, 244, 211); stroke-opacity: 1; stroke-width: 1px; fill: none;"/><path class="point" transform="translate(102.12,226.63)" d="M4.5,0A4.5,4.5 0 1,1 0,-4.5A4.5,4.5 0 0,1 4.5,0Z" style="opacity: 1; stroke: rgb(154, 244, 211); stroke-opacity: 1; stroke-width: 1px; fill: none;"/><path class="point" transform="translate(113.32,411.17)" d="M4.5,0A4.5,4.5 0 1,1 0,-4.5A4.5,4.5 0 0,1 4.5,0Z" style="opacity: 1; stroke: rgb(154, 244, 211); stroke-opacity: 1; stroke-width: 1px; fill: none;"/><path class="point" transform="translate(124.53,256.27)" d="M4.5,0A4.5,4.5 0 1,1 0,-4.5A4.5,4.5 0 0,1 4.5,0Z" style="opacity: 1; stroke: rgb(154, 244, 211); stroke-opacity: 1; stroke-width: 1px; fill: none;"/></g><g class="text"/></g><g class="trace scatter trace45c2ca" style="stroke-miterlimit: 2; opacity: 1;"><g class="fills"/><g class="errorbars"/><g class="lines"><path class="js-line" d="M12.48,279.17L23.68,28.63L34.89,431.38L46.09,240.1L57.3,100.02L68.5,223.94L79.71,431.38L90.91,202.39L102.12,329L113.32,135.04L124.53,252.23" style="vector-effect: none; fill: none; stroke: rgb(188, 131, 26); stroke-opacity: 1; stroke-width: 2px; opacity: 1;"/></g><g class="points"><path class="point" transform="translate(12.48,279.17)" d="M4.5,0A4.5,4.5 0 1,1 0,-4.5A4.5,4.5 0 0,1 4.5,0Z" style="opacity: 1; stroke: rgb(188, 131, 26); stroke-opacity: 1; stroke-width: 1px; fill: none;"/><path class="point" transform="translate(23.68,28.63)" d="M4.5,0A4.5,4.5 0 1,1 0,-4.5A4.5,4.5 0 0,1 4.5,0Z" style="opacity: 1; stroke: rgb(188, 131, 26); stroke-opacity: 1; stroke-width: 1px; fill: none;"/><path class="point" transform="translate(34.89,431.38)" d="M4.5,0A4.5,4.5 0 1,1 0,-4.5A4.5,4.5 0 0,1 4.5,0Z" style="opacity: 1; stroke: rgb(188, 131, 26); stroke-opacity: 1; stroke-width: 1px; fill: none;"/><path class="point" transform="translate(46.09,240.1)" d="M4.5,0A4.5,4.5 0 1,1 0,-4.5A4.5,4.5 0 0,1 4.5,0Z" style="opacity: 1; stroke: rgb(188, 131, 26); stroke-opacity: 1; stroke-width: 1px; fill: none;"/><path class="point" transform="translate(57.3,100.02)" d="M4.5,0A4.5,4.5 0 1,1 0,-4.5A4.5,4.5 0 0,1 4.5,0Z" style="opacity: 1; stroke: rgb(188, 131, 26); stroke-opacity: 1; stroke-width: 1px; fill: none;"/><path class="point" transform="translate(68.5,223.94)" d="M4.5,0A4.5,4.5 0 1,1 0,-4.5A4.5,4.5 0 0,1 4.5,0Z" style="opacity: 1; stroke: rgb(188, 131, 26); stroke-opacity: 1; stroke-width: 1px; fill: none;"/><path class="point" transform="translate(79.71,431.38)" d="M4.5,0A4.5,4.5 0 1,1 0,-4.5A4.5,4.5 0 0,1 4.5,0Z" style="opacity: 1; stroke: rgb(188, 131, 26); stroke-opacity: 1; stroke-width: 1px; fill: none;"/><path class="point" transform="translate(90.91,202.39)" d="M4.5,0A4.5,4.5 0 1,1 0,-4.5A4.5,4.5 0 0,1 4.5,0Z" style="opacity: 1; stroke: rgb(188, 131, 26); stroke-opacity: 1; stroke-width: 1px; fill: none;"/><path class="point" transform="translate(102.12,329)" d="M4.5,0A4.5,4.5 0 1,1 0,-4.5A4.5,4.5 0 0,1 4.5,0Z" style="opacity: 1; stroke: rgb(188, 131, 26); stroke-opacity: 1; stroke-width: 1px; fill: none;"/><path class="point" transform="translate(113.32,135.04)" d="M4.5,0A4.5,4.5 0 1,1 0,-4.5A4.5,4.5 0 0,1 4.5,0Z" style="opacity: 1; stroke: rgb(188, 131, 26); stroke-opacity: 1; stroke-width: 1px; fill: none;"/><path class="point" transform="translate(124.53,252.23)" d="M4.5,0A4.5,4.5 0 1,1 0,-4.5A4.5,4.5 0 0,1 4.5,0Z" style="opacity: 1; stroke: rgb(188, 131, 26); stroke-opacity: 1; stroke-width: 1px; fill: none;"/></g><g class="text"/></g><g class="trace scatter traced5acd8" style="stroke-miterlimit: 2; opacity: 1;"><g class="fills"/><g class="errorbars"/><g class="lines"><path class="js-line" d="M12.48,164.67L23.68,425.99L34.89,246.84L46.09,55.56L57.3,368.07L68.5,416.56L79.71,355.94L90.91,430.03L102.12,122.91L113.32,341.13L124.53,302.06" style="vector-effect: none; fill: none; stroke: rgb(75, 66, 206); stroke-opacity: 1; stroke-width: 2px; opacity: 1;"/></g><g class="points"><path class="point" transform="translate(12.48,164.67)" d="M4.5,0A4.5,4.5 0 1,1 0,-4.5A4.5,4.5 0 0,1 4.5,0Z" style="opacity: 1; stroke: rgb(75, 66, 206); stroke-opacity: 1; stroke-width: 1px; fill: none;"/><path class="point" transform="translate(23.68,425.99)" d="M4.5,0A4.5,4.5 0 1,1 0,-4.5A4.5,4.5 0 0,1 4.5,0Z" style="opacity: 1; stroke: rgb(75, 66, 206); stroke-opacity: 1; stroke-width: 1px; fill: none;"/><path class="point" transform="translate(34.89,246.84)" d="M4.5,0A4.5,4.5 0 1,1 0,-4.5A4.5,4.5 0 0,1 4.5,0Z" style="opacity: 1; stroke: rgb(75, 66, 206); stroke-opacity: 1; stroke-width: 1px; fill: none;"/><path class="point" transform="translate(46.09,55.56)" d="M4.5,0A4.5,4.5 0 1,1 0,-4.5A4.5,4.5 0 0,1 4.5,0Z" style="opacity: 1; stroke: rgb(75, 66, 206); stroke-opacity: 1; stroke-width: 1px; fill: none;"/><path class="point" transform="translate(57.3,368.07)" d="M4.5,0A4.5,4.5 0 1,1 0,-4.5A4.5,4.5 0 0,1 4.5,0Z" style="opacity: 1; stroke: rgb(75, 66, 206); stroke-opacity: 1; stroke-width: 1px; fill: none;"/><path class="point" transform="translate(68.5,416.56)" d="M4.5,0A4.5,4.5 0 1,1 0,-4.5A4.5,4.5 0 0,1 4.5,0Z" style="opacity: 1; stroke: rgb(75, 66, 206); stroke-opacity: 1; stroke-width: 1px; fill: none;"/><path class="point" transform="translate(79.71,355.94)" d="M4.5,0A4.5,4.5 0 1,1 0,-4.5A4.5,4.5 0 0,1 4.5,0Z" style="opacity: 1; stroke: rgb(75, 66, 206); stroke-opacity: 1; stroke-width: 1px; fill: none;"/><path class="point" transform="translate(90.91,430.03)" d="M4.5,0A4.5,4.5 0 1,1 0,-4.5A4.5,4.5 0 0,1 4.5,0Z" style="opacity: 1; stroke: rgb(75, 66, 206); stroke-opacity: 1; stroke-width: 1px; fill: none;"/><path class="point" transform="translate(102.12,122.91)" d="M4.5,0A4.5,4.5 0 1,1 0,-4.5A4.5,4.5 0 0,1 4.5,0Z" style="opacity: 1; stroke: rgb(75, 66, 206); stroke-opacity: 1; stroke-width: 1px; fill: none;"/><path class="point" transform="translate(113.32,341.13)" d="M4.5,0A4.5,4.5 0 1,1 0,-4.5A4.5,4.5 0 0,1 4.5,0Z" style="opacity: 1; stroke: rgb(75, 66, 206); stroke-opacity: 1; stroke-width: 1px; fill: none;"/><path class="point" transform="translate(124.53,302.06)" d="M4.5,0A4.5,4.5 0 1,1 0,-4.5A4.5,4.5 0 0,1 4.5,0Z" style="opacity: 1; stroke: rgb(75, 66, 206); stroke-opacity: 1; stroke-width: 1px; fill: none;"/></g><g class="text"/></g></g></g><g class="overplot"/><path class="xlines-above crisp" d="M0,0" style="fill: none;"/><path class="ylines-above crisp" d="M0,0" style="fill: none;"/><g class="overlines-above"/><g class="xaxislayer-above"><g class="xtick"><text text-anchor="start" x="0" y="537" transform="translate(92.48,0) rotate(45,0,529)" style="font-family: Balto; font-size: 16px; fill: rgb(0, 0, 0); fill-opacity: 1; white-space: pre; opacity: 1;">Jan</text></g><g class="xtick"><text text-anchor="start" x="0" y="537" transform="translate(114.89,0) rotate(45,0,529)" style="font-family: Balto; font-size: 16px; fill: rgb(0, 0, 0); fill-opacity: 1; white-space: pre; opacity: 1;">Mar</text></g><g class="xtick"><text text-anchor="start" x="0" y="537" transform="translate(137.3,0) rotate(45,0,529)" style="font-family: Balto; font-size: 16px; fill: rgb(0, 0, 0); fill-opacity: 1; white-space: pre; opacity: 1;">May</text></g><g class="xtick"><text text-anchor="start" x="0" y="537" transform="translate(159.70999999999998,0) rotate(45,0,529)" style="font-family: Balto; font-size: 16px; fill: rgb(0, 0, 0); fill-opacity: 1; white-space: pre; opacity: 1;">July</text></g><g class="xtick"><text text-anchor="start" x="0" y="537" transform="translate(182.12,0) rotate(45,0,529)" style="font-family: Balto; font-size: 16px; fill: rgb(0, 0, 0); fill-opacity: 1; white-space: pre; opacity: 1;">Sep</text></g><g class="xtick"><text text-anchor="start" x="0" y="537" transform="translate(204.53,0) rotate(45,0,529)" style="font-family: Balto; font-size: 16px; fill: rgb(0, 0, 0); fill-opacity: 1; white-space: pre; opacity: 1;">Nov</text></g></g><g class="yaxislayer-above"><g class="ytick"><text text-anchor="end" x="79" y="5.6" transform="translate(0,492.72)" style="font-family: Balto; font-size: 16px; fill: rgb(0, 0, 0); fill-opacity: 1; white-space: pre; opacity: 1;">0</text></g><g class="ytick"><text text-anchor="end" x="79" y="5.6" style="font-family: Balto; font-size: 16px; fill: rgb(0, 0, 0); fill-opacity: 1; white-space: pre; opacity: 1;" transform="translate(0,425.37)">50</text></g><g class="ytick"><text text-anchor="end" x="79" y="5.6" style="font-family: Balto; font-size: 16px; fill: rgb(0, 0, 0); fill-opacity: 1; white-space: pre; opacity: 1;" transform="translate(0,358.02)">100</text></g><g class="ytick"><text text-anchor="end" x="79" y="5.6" style="font-family: Balto; font-size: 16px; fill: rgb(0, 0, 0); fill-opacity: 1; white-space: pre; opacity: 1;" transform="translate(0,290.66999999999996)">150</text></g><g class="ytick"><text text-anchor="end" x="79" y="5.6" style="font-family: Balto; font-size: 16px; fill: rgb(0, 0, 0); fill-opacity: 1; white-space: pre; opacity: 1;" transform="translate(0,223.32)">200</text></g><g class="ytick"><text text-anchor="end" x="79" y="5.6" style="font-family: Balto; font-size: 16px; fill: rgb(0, 0, 0); fill-opacity: 1; white-space: pre; opacity: 1;" transform="translate(0,155.97)">250</text></g><g class="ytick"><text text-anchor="end" x="79" y="5.6" style="font-family: Balto; font-size: 16px; fill: rgb(0, 0, 0); fill-opacity: 1; white-space: pre; opacity: 1;" transform="translate(0,88.63)">300</text></g></g><g class="overaxes-above"/></g></g><g class="polarlayer"/><g class="smithlayer"/><g class="ternarylayer"/><g class="geolayer"/><g class="funnelarealayer"/><g class="pielayer"/><g class="iciclelayer"/><g class="treemaplayer"/><g class="sunburstlayer"/><g class="glimages"/><defs id="topdefs-b5ae77"><g class="clips"/><clipPath id="legendb5ae77"><rect width="142" height="67" x="0" y="0"/></clipPath></defs><g class="layer-above"><g class="imagelayer"/><g class="shapelayer"/></g><g class="infolayer"><g class="legend" pointer-events="all" transform="translate(219.74,60)"><rect class="bg" shape-rendering="crispEdges" style="stroke: rgb(68, 68, 68); stroke-opacity: 1; fill: rgb(255, 255, 255); fill-opacity: 1; stroke-width: 0px;" width="142" height="67" x="0" y="0"/><g class="scrollbox" transform="" clip-path="url(#legendb5ae77)"><g class="groups" transform=""><g class="traces" transform="translate(0,14.5)" style="opacity: 1;"><text class="legendtext" text-anchor="start" x="40" y="4.680000000000001" style="font-family: Balto; font-size: 12px; fill: rgb(42, 63, 95); fill-opacity: 1; white-space: pre;">brother reflect price</text><g class="layers" style="opacity: 1;"><g class="legendfill"/><g class="legendlines"><path class="js-line" d="M5,0h30" style="fill: none; stroke: rgb(154, 244, 211); stroke-opacity: 1; stroke-width: 2px;"/></g><g class="legendsymbols"><g class="legendpoints"><path class="scatterpts" transform="translate(20,0)" d="M4.5,0A4.5,4.5 0 1,1 0,-4.5A4.5,4.5 0 0,1 4.5,0Z" style="opacity: 1; stroke: rgb(154, 244, 211); stroke-opacity: 1; stroke-width: 1px; fill: none;"/></g></g></g><rect class="legendtoggle" x="0" y="-9.5" width="136.953125" height="19" style="fill: rgb(0, 0, 0); fill-opacity: 0;"/></g></g><g class="groups" transform=""><g class="traces" transform="translate(0,33.5)" style="opacity: 1;"><text class="legendtext" text-anchor="start" x="40" y="4.680000000000001" style="font-family: Balto; font-size: 12px; fill: rgb(42, 63, 95); fill-opacity: 1; white-space: pre;">focus senior huge</text><g class="layers" style="opacity: 1;"><g class="legendfill"/><g class="legendlines"><path class="js-line" d="M5,0h30" style="fill: none; stroke: rgb(188, 131, 26); stroke-opacity: 1; stroke-width: 2px;"/></g><g class="legendsymbols"><g class="legendpoints"><path class="scatterpts" transform="translate(20,0)" d="M4.5,0A4.5,4.5 0 1,1 0,-4.5A4.5,4.5 0 0,1 4.5,0Z" style="opacity: 1; stroke: rgb(188, 131, 26); stroke-opacity: 1; stroke-width: 1px; fill: none;"/></g></g></g><rect class="legendtoggle" x="0" y="-9.5" width="136.953125" height="19" style="fill: rgb(0, 0, 0); fill-opacity: 0;"/></g></g><g class="groups" transform=""><g class="traces" transform="translate(0,52.5)" style="opacity: 1;"><text class="legendtext" text-anchor="start" x="40" y="4.680000000000001" style="font-family: Balto; font-size: 12px; fill: rgb(42, 63, 95); fill-opacity: 1; white-space: pre;">try base analysis</text><g class="layers" style="opacity: 1;"><g class="legendfill"/><g class="legendlines"><path class="js-line" d="M5,0h30" style="fill: none; stroke: rgb(75, 66, 206); stroke-opacity: 1; stroke-width: 2px;"/></g><g class="legendsymbols"><g class="legendpoints"><path class="scatterpts" transform="translate(20,0)" d="M4.5,0A4.5,4.5 0 1,1 0,-4.5A4.5,4.5 0 0,1 4.5,0Z" style="opacity: 1; stroke: rgb(75, 66, 206); stroke-opacity: 1; stroke-width: 1px; fill: none;"/></g></g></g><rect class="legendtoggle" x="0" y="-9.5" width="136.953125" height="19" style="fill: rgb(0, 0, 0); fill-opacity: 0;"/></g></g></g><rect class="scrollbar" rx="20" ry="3" width="0" height="0" style="fill: rgb(128, 139, 164); fill-opacity: 1;" x="0" y="0"/></g><g class="g-gtitle"><text class="gtitle" x="187" y="30" text-anchor="middle" dy="0em" style="font-family: Balto; font-size: 25px; fill: rgb(0, 0, 0); opacity: 1; font-weight: normal; white-space: pre;">town building fear</text></g><g class="g-xtitle"><text class="xtitle" x="148.5" y="582.5236328125" text-anchor="middle" style="font-family: Balto; font-size: 14px; fill: rgb(0, 0, 0); opacity: 1; font-weight: normal; white-space: pre;">Month</text></g><g class="g-ytitle"/></g></svg>