<svg class="main-svg" xmlns="http://www.w3.org/2000/svg" xmlns:xlink="http://www.w3.org/1999/xlink" width="511" height="600" style="" viewBox="0 0 511 600"><rect x="0" y="0" width="511" height="600" style="fill: rgb(255, 255, 255); fill-opacity: 1;"/><defs id="defs-af8206"><g class="clips"><clipPath id="clipaf8206xyplot" class="plotclip"><rect width="271" height="460"/></clipPath><clipPath class="axesclip" id="clipaf8206x"><rect x="80" y="0" width="271" height="600"/></clipPath><clipPath class="axesclip" id="clipaf8206y"><rect x="0" y="60" width="511" height="460"/></clipPath><clipPath class="axesclip" id="clipaf8206xy"><rect x="80" y="60" width="271" height="460"/></clipPath></g><g class="gradients"/><g class="patterns"/></defs><g class="bglayer"><rect class="bg" x="80" y="60" width="271" height="460" style="fill: rgb(255, 255, 255); fill-opacity: 1; stroke-width: 0;"/></g><g class="layer-below"><g class="imagelayer"/><g class="shapelayer"/></g><g class="cartesianlayer"><g class="subplot xy"><g class="layer-subplot"><g class="shapelayer"/><g class="imagelayer"/></g><g class="minor-gridlayer"><g class="x"/><g class="y"/></g><g class="gridlayer"><g class="x"><path class="xgrid crisp" transform="translate(96.55,0)" d="M0,60v460" style="stroke: rgb(208, 208, 208); stroke-opacity: 1; stroke-width: 1px;"/><path class="xgrid crisp" transform="translate(144.13,0)" d="M0,60v460" style="stroke: rgb(208, 208, 208); stroke-opacity: 1; stroke-width: 1px;"/><path class="xgrid crisp" transform="translate(191.70999999999998,0)" d="M0,60v460" style="stroke: rgb(208, 208, 208); stroke-opacity: 1; stroke-width: 1px;"/><path class="xgrid crisp" transform="translate(239.29,0)" d="M0,60v460" style="stroke: rgb(208, 208, 208); stroke-opacity: 1; stroke-width: 1px;"/><path class="xgrid crisp" transform="translate(286.87,0)" d="M0,60v460" style="stroke: rgb(208, 208, 208); stroke-opacity: 1; stroke-width: 1px;"/><path class="xgrid crisp" transform="translate(334.45,0)" d="M0,60v460" style="stroke: rgb(208, 208, 208); stroke-opacity: 1; stroke-width: 1px;"/></g><g class="y"/></g><g class="zerolinelayer"/><path class="xlines-below"/><path class="ylines-below"/><g class="overlines-below"/><g class="xaxislayer-below"/><g class="yaxislayer-below"/><g class="overaxes-below"/><g class="plot" transform="translate(80,60)" clip-path="url(#clipaf8206xyplot)"><g class="scatterlayer mlayer"><g class="trace scatter trace6c381f" style="stroke-miterlimit: 2; opacity: 1;"><g class="fills"/><g class="errorbars"/><g class="lines"><path class="js-line" d="M16.55,47.42L64.13,434L111.71,408.5L159.29,26L206.87,61.7L254.45,122.9" style="vector-effect: none; fill: none; stroke: rgb(86, 43, 160); stroke-opacity: 1; stroke-width: 2px; opacity: 1;"/></g><g class="points"><path class="point" transform="translate(16.55,47.42)" d="M3,0A3,3 0 1,1 0,-3A3,3 0 0,1 3,0Z" style="opacity: 1; stroke-width: 0px; fill: rgb(86, 43, 160); fill-opacity: 1;"/><path class="point" transform="translate(64.13,434)" d="M3,0A3,3 0 1,1 0,-3A3,3 0 0,1 3,0Z" style="opacity: 1; stroke-width: 0px; fill: rgb(86, 43, 160); fill-opacity: 1;"/><path class="point" transform="translate(111.71,408.5)" d="M3,0A3,3 0 1,1 0,-3A3,3 0 0,1 3,0Z" style="opacity: 1; stroke-width: 0px; fill: rgb(86, 43, 160); fill-opacity: 1;"/><path class="point" transform="translate(159.29,26)" d="M3,0A3,3 0 1,1 0,-3A3,3 0 0,1 3,0Z" style="opacity: 1; stroke-width: 0px; fill: rgb(86, 43, 160); fill-opacity: 1;"/><path class="point" transform="translate(206.87,61.7)" d="M3,0A3,3 0 1,1 0,-3A3,3 0 0,1 3,0Z" style="opacity: 1; stroke-width: 0px; fill: rgb(86, 43, 160); fill-opacity: 1;"/><path class="point" transform="translate(254.45,122.9)" d="M3,0A3,3 0 1,1 0,-3A3,3 0 0,1 3,0Z" style="opacity: 1; stroke-width: 0px; fill: rgb(86, 43, 160); fill-opacity: 1;"/></g><g class="text"/></g></g></g><g class="overplot"/><path class="xlines-above crisp" d="M0,0" style="fill: none;"/><path class="ylines-above crisp" d="M0,0" style="fill: none;"/><g class="overlines-above"/><g class="xaxislayer-above"><g class="xtick"><text text-anchor="start" x="2.275" y="527.5" transform="translate(96.55,0) rotate(90,2.275,521)" style="font-family: Balto; font-size: 13px; fill: rgb(0, 0, 0); fill-opacity: 1; white-space: pre; opacity: 1;">Jan</text></g><g class="xtick"><text text-anchor="start" x="2.275" y="527.5" transform="translate(144.13,0) rotate(90,2.275,521)" style="font-family: Balto; font-size: 13px; fill: rgb(0, 0, 0); fill-opacity: 1; white-space: pre; opacity: 1;">Feb</text></g><g class="xtick"><text text-anchor="start" x="2.275" y="527.5" transform="translate(191.70999999999998,0) rotate(90,2.275,521)" style="font-family: Balto; font-size: 13px; fill: rgb(0, 0, 0); fill-opacity: 1; white-space: pre; opacity: 1;">Mar</text></g><g class="xtick"><text text-anchor="start" x="2.275" y="527.5" transform="translate(239.29,0) rotate(90,2.275,521)" style="font-family: Balto; font-size: 13px; fill: rgb(0, 0, 0); fill-opacity: 1; white-space: pre; opacity: 1;">Apr</text></g><g class="xtick"><text text-anchor="start" x="2.275" y="527.5" transform="translate(286.87,0) rotate(90,2.275,521)" style="font-family: Balto; font-size: 13px; fill: rgb(0, 0, 0); fill-opacity: 1; white-space: pre; opacity: 1;">May</text></g><g class="xtick"><text text-anchor="start" x="2.275" y="527.5" transform="translate(334.45,0) rotate(90,2.275,521)" style="font-family: Balto; font-size: 13px; fill: rgb(0, 0, 0); fill-opacity: 1; white-space: pre; opacity: 1;">June</text></g></g><g class="yaxislayer-above"><g class="ytick"><text text-anchor="end" x="79" y="4.55" transform="translate(0,485.84)" style="font-family: Balto; font-size: 13px; fill: rgb(0, 0, 0); fill-opacity: 1; white-space: pre; opacity: 1;">250</text></g><g class="ytick"><text text-anchor="end" x="79" y="4.55" style="font-family: Balto; font-size: 13px; fill: rgb(0, 0, 0); fill-opacity: 1; white-space: pre; opacity: 1;" transform="translate(0,434.84)">300</text></g><g class="ytick"><text text-anchor="end" x="79" y="4.55" style="font-family: Balto; font-size: 13px; fill: rgb(0, 0, 0); fill-opacity: 1; white-space: pre; opacity: 1;" transform="translate(0,383.84)">350</text></g><g class="ytick"><text text-anchor="end" x="79" y="4.55" style="font-family: Balto; font-size: 13px; fill: rgb(0, 0, 0); fill-opacity: 1; white-space: pre; opacity: 1;" transform="translate(0,332.84)">400</text></g><g class="ytick"><text text-anchor="end" x="79" y="4.55" style="font-family: Balto; font-size: 13px; fill: rgb(0, 0, 0); fill-opacity: 1; white-space: pre; opacity: 1;" transform="translate(0,281.84000000000003)">450</text></g><g class="ytick"><text text-anchor="end" x="79" y="4.55" style="font-family: Balto; font-size: 13px; fill: rgb(0, 0, 0); fill-opacity: 1; white-space: pre; opacity: 1;" transform="translate(0,230.84)">500</text></g><g class="ytick"><text text-anchor="end" x="79" y="4.55" style="font-family: Balto; font-size: 13px; fill: rgb(0, 0, 0); fill-opacity: 1; white-space: pre; opacity: 1;" transform="translate(0,179.84)">550</text></g><g class="ytick"><text text-anchor="end" x="79" y="4.55" style="font-family: Balto; font-size: 13px; fill: rgb(0, 0, 0); fill-opacity: 1; white-space: pre; opacity: 1;" transform="translate(0,128.84)">600</text></g><g class="ytick"><text text-anchor="end" x="79" y="4.55" style="font-family: Balto; font-size: 13px; fill: rgb(0, 0, 0); fill-opacity: 1; white-space: pre; opacity: 1;" transform="translate(0,77.84)">650</text></g></g><g class="overaxes-above"/></g></g><g class="polarlayer"/><g class="smithlayer"/><g class="ternarylayer"/><g class="geolayer"/><g class="funnelarealayer"/><g class="pielayer"/><g class="iciclelayer"/><g class="treemaplayer"/><g class="sunburstlayer"/><g class="glimages"/><defs id="topdefs-af8206"><g class="clips"/><clipPath id="legendaf8206"><rect width="143" height="48" x="0" y="0"/></clipPath></defs><g class="layer-above"><g class="imagelayer"/><g class="shapelayer"/></g><g class="infolayer"><g class="legend" pointer-events="all" transform="translate(356.42,60)"><rect class="bg" shape-rendering="crispEdges" style="stroke: rgb(68, 68, 68); stroke-opacity: 1; fill: rgb(255, 255, 255); fill-opacity: 1; stroke-width: 0px;" width="143" height="48" x="0" y="0"/><g class="scrollbox" transform="" clip-path="url(#legendaf8206)"><text class="legendtitletext" text-anchor="start" x="2" y="18.2" style="font-family: Balto; font-size: 14px; fill: rgb(42, 63, 95); fill-opacity: 1; white-space: pre;">be pretty work</text><g class="groups" transform=""><g class="traces" transform="translate(0,32.7)" style="opacity: 1;"><text class="legendtext" text-anchor="start" x="40" y="4.680000000000001" style="font-family: Balto; font-size: 12px; fill: rgb(42, 63, 95); fill-opacity: 1; white-space: pre;">owner paper several</text><g class="layers" style="opacity: 1;"><g class="legendfill"/><g class="legendlines"><path class="js-line" d="M5,0h30" style="fill: none; stroke: rgb(86, 43, 160); stroke-opacity: 1; stroke-width: 2px;"/></g><g class="legendsymbols"><g class="legendpoints"><path class="scatterpts" transform="translate(20,0)" d="M1,0A1,1 0 1,1 0,-1A1,1 0 0,1 1,0Z" style="opacity: 1; stroke-width: 0px; fill: rgb(86, 43, 160); fill-opacity: 1;"/></g></g></g><rect class="legendtoggle" x="0" y="-9.5" width="137.28125" height="19" style="fill: rgb(0, 0, 0); fill-opacity: 0;"/></g></g></g><rect class="scrollbar" rx="20" ry="3" width="0" height="0" style="fill: rgb(128, 139, 164); fill-opacity: 1;" x="0" y="0"/></g><g class="g-gtitle"><text class="gtitle" x="255.5" y="30" text-anchor="start" dy="0em" style="font-family: Balto; font-size: 25px; fill: rgb(0, 0, 0); opacity: 1; font-weight: normal; white-space: pre;">window its environmental</text></g><g class="g-xtitle"><text class="xtitle" x="215.5" y="569.633984375" text-anchor="middle" style="font-family: Balto; font-size: 14px; fill: rgb(0, 0, 0); opacity: 1; font-weight: normal; white-space: pre;">Month</text></g><g class="g-ytitle"/></g></svg>