<svg class="main-svg" xmlns="http://www.w3.org/2000/svg" xmlns:xlink="http://www.w3.org/1999/xlink" width="548" height="600" style="" viewBox="0 0 548 600"><rect x="0" y="0" width="548" height="600" style="fill: rgb(255, 255, 255); fill-opacity: 1;"/><defs id="defs-54ceb5"><g class="clips"><clipPath id="clip54ceb5xyplot" class="plotclip"><rect width="388" height="454"/></clipPath><clipPath class="axesclip" id="clip54ceb5x"><rect x="80" y="0" width="388" height="600"/></clipPath><clipPath class="axesclip" id="clip54ceb5y"><rect x="0" y="60" width="548" height="454"/></clipPath><clipPath class="axesclip" id="clip54ceb5xy"><rect x="80" y="60" width="388" height="454"/></clipPath></g><g class="gradients"/><g class="patterns"/></defs><g class="bglayer"><rect class="bg" x="80" y="60" width="388" height="454" style="fill: rgb(255, 255, 255); fill-opacity: 1; stroke-width: 0;"/></g><g class="layer-below"><g class="imagelayer"/><g class="shapelayer"/></g><g class="cartesianlayer"><g class="subplot xy"><g class="layer-subplot"><g class="shapelayer"/><g class="imagelayer"/></g><g class="minor-gridlayer"><g class="x"/><g class="y"/></g><g class="gridlayer"><g class="x"/><g class="y"><path class="ygrid crisp" transform="translate(0,433.22)" d="M80,0h388" style="stroke: rgb(208, 208, 208); stroke-opacity: 1; stroke-width: 1px;"/><path class="ygrid crisp" transform="translate(0,365.84)" d="M80,0h388" style="stroke: rgb(208, 208, 208); stroke-opacity: 1; stroke-width: 1px;"/><path class="ygrid crisp" transform="translate(0,298.45)" d="M80,0h388" style="stroke: rgb(208, 208, 208); stroke-opacity: 1; stroke-width: 1px;"/><path class="ygrid crisp" transform="translate(0,231.07)" d="M80,0h388" style="stroke: rgb(208, 208, 208); stroke-opacity: 1; stroke-width: 1px;"/><path class="ygrid crisp" transform="translate(0,163.69)" d="M80,0h388" style="stroke: rgb(208, 208, 208); stroke-opacity: 1; stroke-width: 1px;"/><path class="ygrid crisp" transform="translate(0,96.31)" d="M80,0h388" style="stroke: rgb(208, 208, 208); stroke-opacity: 1; stroke-width: 1px;"/></g></g><g class="zerolinelayer"><path class="yzl zl crisp" transform="translate(0,500.6)" d="M80,0h388" style="stroke: rgb(255, 255, 255); stroke-opacity: 1; stroke-width: 2px;"/></g><path class="xlines-below"/><path class="ylines-below"/><g class="overlines-below"/><g class="xaxislayer-below"/><g class="yaxislayer-below"/><g class="overaxes-below"/><g class="plot" transform="translate(80,60)" clip-path="url(#clip54ceb5xyplot)"><g class="scatterlayer mlayer"><g class="trace scatter traceb7f5b2" style="stroke-miterlimit: 2; opacity: 1;"><g class="fills"/><g class="errorbars"/><g class="lines"><path class="js-line" d="M26.28,253.28L56.77,300.44L87.27,424.43L117.76,253.28L148.26,299.1L178.75,187.25L209.25,324.7L239.74,129.3L270.24,264.06L300.73,319.31L331.23,262.71L361.73,326.05" style="vector-effect: none; fill: none; stroke: rgb(68, 252, 249); stroke-opacity: 1; stroke-width: 2px; opacity: 1;"/></g><g class="points"><path class="point" transform="translate(26.28,253.28)" d="M5.5,0A5.5,5.5 0 1,1 0,-5.5A5.5,5.5 0 0,1 5.5,0Z" style="opacity: 1; stroke: rgb(68, 252, 249); stroke-opacity: 1; stroke-width: 1px; fill: none;"/><path class="point" transform="translate(56.77,300.44)" d="M5.5,0A5.5,5.5 0 1,1 0,-5.5A5.5,5.5 0 0,1 5.5,0Z" style="opacity: 1; stroke: rgb(68, 252, 249); stroke-opacity: 1; stroke-width: 1px; fill: none;"/><path class="point" transform="translate(87.27,424.43)" d="M5.5,0A5.5,5.5 0 1,1 0,-5.5A5.5,5.5 0 0,1 5.5,0Z" style="opacity: 1; stroke: rgb(68, 252, 249); stroke-opacity: 1; stroke-width: 1px; fill: none;"/><path class="point" transform="translate(117.76,253.28)" d="M5.5,0A5.5,5.5 0 1,1 0,-5.5A5.5,5.5 0 0,1 5.5,0Z" style="opacity: 1; stroke: rgb(68, 252, 249); stroke-opacity: 1; stroke-width: 1px; fill: none;"/><path class="point" transform="translate(148.26,299.1)" d="M5.5,0A5.5,5.5 0 1,1 0,-5.5A5.5,5.5 0 0,1 5.5,0Z" style="opacity: 1; stroke: rgb(68, 252, 249); stroke-opacity: 1; stroke-width: 1px; fill: none;"/><path class="point" transform="translate(178.75,187.25)" d="M5.5,0A5.5,5.5 0 1,1 0,-5.5A5.5,5.5 0 0,1 5.5,0Z" style="opacity: 1; stroke: rgb(68, 252, 249); stroke-opacity: 1; stroke-width: 1px; fill: none;"/><path class="point" transform="translate(209.25,324.7)" d="M5.5,0A5.5,5.5 0 1,1 0,-5.5A5.5,5.5 0 0,1 5.5,0Z" style="opacity: 1; stroke: rgb(68, 252, 249); stroke-opacity: 1; stroke-width: 1px; fill: none;"/><path class="point" transform="translate(239.74,129.3)" d="M5.5,0A5.5,5.5 0 1,1 0,-5.5A5.5,5.5 0 0,1 5.5,0Z" style="opacity: 1; stroke: rgb(68, 252, 249); stroke-opacity: 1; stroke-width: 1px; fill: none;"/><path class="point" transform="translate(270.24,264.06)" d="M5.5,0A5.5,5.5 0 1,1 0,-5.5A5.5,5.5 0 0,1 5.5,0Z" style="opacity: 1; stroke: rgb(68, 252, 249); stroke-opacity: 1; stroke-width: 1px; fill: none;"/><path class="point" transform="translate(300.73,319.31)" d="M5.5,0A5.5,5.5 0 1,1 0,-5.5A5.5,5.5 0 0,1 5.5,0Z" style="opacity: 1; stroke: rgb(68, 252, 249); stroke-opacity: 1; stroke-width: 1px; fill: none;"/><path class="point" transform="translate(331.23,262.71)" d="M5.5,0A5.5,5.5 0 1,1 0,-5.5A5.5,5.5 0 0,1 5.5,0Z" style="opacity: 1; stroke: rgb(68, 252, 249); stroke-opacity: 1; stroke-width: 1px; fill: none;"/><path class="point" transform="translate(361.73,326.05)" d="M5.5,0A5.5,5.5 0 1,1 0,-5.5A5.5,5.5 0 0,1 5.5,0Z" style="opacity: 1; stroke: rgb(68, 252, 249); stroke-opacity: 1; stroke-width: 1px; fill: none;"/></g><g class="text"/></g><g class="trace scatter trace29a999" style="stroke-miterlimit: 2; opacity: 1;"><g class="fills"/><g class="errorbars"/><g class="lines"><path class="js-line" d="M26.28,29.58L56.77,301.79L87.27,40.36L117.76,164.34L148.26,149.51L178.75,129.3L209.25,288.32L239.74,237.11L270.24,142.77L300.73,168.38L331.23,53.83L361.73,346.26" style="vector-effect: none; fill: none; stroke: rgb(209, 90, 77); stroke-opacity: 1; stroke-width: 2px; opacity: 1;"/></g><g class="points"><path class="point" transform="translate(26.28,29.58)" d="M5.5,0A5.5,5.5 0 1,1 0,-5.5A5.5,5.5 0 0,1 5.5,0Z" style="opacity: 1; stroke: rgb(209, 90, 77); stroke-opacity: 1; stroke-width: 1px; fill: none;"/><path class="point" transform="translate(56.77,301.79)" d="M5.5,0A5.5,5.5 0 1,1 0,-5.5A5.5,5.5 0 0,1 5.5,0Z" style="opacity: 1; stroke: rgb(209, 90, 77); stroke-opacity: 1; stroke-width: 1px; fill: none;"/><path class="point" transform="translate(87.27,40.36)" d="M5.5,0A5.5,5.5 0 1,1 0,-5.5A5.5,5.5 0 0,1 5.5,0Z" style="opacity: 1; stroke: rgb(209, 90, 77); stroke-opacity: 1; stroke-width: 1px; fill: none;"/><path class="point" transform="translate(117.76,164.34)" d="M5.5,0A5.5,5.5 0 1,1 0,-5.5A5.5,5.5 0 0,1 5.5,0Z" style="opacity: 1; stroke: rgb(209, 90, 77); stroke-opacity: 1; stroke-width: 1px; fill: none;"/><path class="point" transform="translate(148.26,149.51)" d="M5.5,0A5.5,5.5 0 1,1 0,-5.5A5.5,5.5 0 0,1 5.5,0Z" style="opacity: 1; stroke: rgb(209, 90, 77); stroke-opacity: 1; stroke-width: 1px; fill: none;"/><path class="point" transform="translate(178.75,129.3)" d="M5.5,0A5.5,5.5 0 1,1 0,-5.5A5.5,5.5 0 0,1 5.5,0Z" style="opacity: 1; stroke: rgb(209, 90, 77); stroke-opacity: 1; stroke-width: 1px; fill: none;"/><path class="point" transform="translate(209.25,288.32)" d="M5.5,0A5.5,5.5 0 1,1 0,-5.5A5.5,5.5 0 0,1 5.5,0Z" style="opacity: 1; stroke: rgb(209, 90, 77); stroke-opacity: 1; stroke-width: 1px; fill: none;"/><path class="point" transform="translate(239.74,237.11)" d="M5.5,0A5.5,5.5 0 1,1 0,-5.5A5.5,5.5 0 0,1 5.5,0Z" style="opacity: 1; stroke: rgb(209, 90, 77); stroke-opacity: 1; stroke-width: 1px; fill: none;"/><path class="point" transform="translate(270.24,142.77)" d="M5.5,0A5.5,5.5 0 1,1 0,-5.5A5.5,5.5 0 0,1 5.5,0Z" style="opacity: 1; stroke: rgb(209, 90, 77); stroke-opacity: 1; stroke-width: 1px; fill: none;"/><path class="point" transform="translate(300.73,168.38)" d="M5.5,0A5.5,5.5 0 1,1 0,-5.5A5.5,5.5 0 0,1 5.5,0Z" style="opacity: 1; stroke: rgb(209, 90, 77); stroke-opacity: 1; stroke-width: 1px; fill: none;"/><path class="point" transform="translate(331.23,53.83)" d="M5.5,0A5.5,5.5 0 1,1 0,-5.5A5.5,5.5 0 0,1 5.5,0Z" style="opacity: 1; stroke: rgb(209, 90, 77); stroke-opacity: 1; stroke-width: 1px; fill: none;"/><path class="point" transform="translate(361.73,346.26)" d="M5.5,0A5.5,5.5 0 1,1 0,-5.5A5.5,5.5 0 0,1 5.5,0Z" style="opacity: 1; stroke: rgb(209, 90, 77); stroke-opacity: 1; stroke-width: 1px; fill: none;"/></g><g class="text"/></g></g></g><g class="overplot"/><path class="xlines-above crisp" d="M0,0" style="fill: none;"/><path class="ylines-above crisp" d="M0,0" style="fill: none;"/><g class="overlines-above"/><g class="xaxislayer-above"><g class="xtick"><text text-anchor="start" x="2.8" y="523" transform="translate(136.77,0) rotate(90,2.8,515)" style="font-family: monospace; font-size: 16px; fill: rgb(0, 0, 0); fill-opacity: 1; white-space: pre; opacity: 1;">1825</text></g><g class="xtick"><text text-anchor="start" x="2.8" y="523" style="font-family: monospace; font-size: 16px; fill: rgb(0, 0, 0); fill-opacity: 1; white-space: pre; opacity: 1;" transform="translate(213.01,0) rotate(90,2.8,515)">1830</text></g><g class="xtick"><text text-anchor="start" x="2.8" y="523" style="font-family: monospace; font-size: 16px; fill: rgb(0, 0, 0); fill-opacity: 1; white-space: pre; opacity: 1;" transform="translate(289.25,0) rotate(90,2.8,515)">1835</text></g><g class="xtick"><text text-anchor="start" x="2.8" y="523" style="font-family: monospace; font-size: 16px; fill: rgb(0, 0, 0); fill-opacity: 1; white-space: pre; opacity: 1;" transform="translate(365.49,0) rotate(90,2.8,515)">1840</text></g><g class="xtick"><text text-anchor="start" x="2.8" y="523" style="font-family: monospace; font-size: 16px; fill: rgb(0, 0, 0); fill-opacity: 1; white-space: pre; opacity: 1;" transform="translate(441.73,0) rotate(90,2.8,515)">1845</text></g></g><g class="yaxislayer-above"><g class="ytick"><text text-anchor="end" x="79" y="5.6" transform="translate(0,500.6)" style="font-family: monospace; font-size: 16px; fill: rgb(0, 0, 0); fill-opacity: 1; white-space: pre; opacity: 1;">0</text></g><g class="ytick"><text text-anchor="end" x="79" y="5.6" style="font-family: monospace; font-size: 16px; fill: rgb(0, 0, 0); fill-opacity: 1; white-space: pre; opacity: 1;" transform="translate(0,433.22)">50</text></g><g class="ytick"><text text-anchor="end" x="79" y="5.6" style="font-family: monospace; font-size: 16px; fill: rgb(0, 0, 0); fill-opacity: 1; white-space: pre; opacity: 1;" transform="translate(0,365.84)">100</text></g><g class="ytick"><text text-anchor="end" x="79" y="5.6" style="font-family: monospace; font-size: 16px; fill: rgb(0, 0, 0); fill-opacity: 1; white-space: pre; opacity: 1;" transform="translate(0,298.45)">150</text></g><g class="ytick"><text text-anchor="end" x="79" y="5.6" style="font-family: monospace; font-size: 16px; fill: rgb(0, 0, 0); fill-opacity: 1; white-space: pre; opacity: 1;" transform="translate(0,231.07)">200</text></g><g class="ytick"><text text-anchor="end" x="79" y="5.6" style="font-family: monospace; font-size: 16px; fill: rgb(0, 0, 0); fill-opacity: 1; white-space: pre; opacity: 1;" transform="translate(0,163.69)">250</text></g><g class="ytick"><text text-anchor="end" x="79" y="5.6" style="font-family: monospace; font-size: 16px; fill: rgb(0, 0, 0); fill-opacity: 1; white-space: pre; opacity: 1;" transform="translate(0,96.31)">300</text></g></g><g class="overaxes-above"/></g></g><g class="polarlayer"/><g class="smithlayer"/><g class="ternarylayer"/><g class="geolayer"/><g class="funnelarealayer"/><g class="pielayer"/><g class="iciclelayer"/><g class="treemaplayer"/><g class="sunburstlayer"/><g class="glimages"/><defs id="topdefs-54ceb5"><g class="clips"/><clipPath id="legend54ceb5"><rect width="300" height="29" x="0" y="0"/></clipPath></defs><g class="layer-above"><g class="imagelayer"/><g class="shapelayer"/></g><g class="infolayer"><g class="legend" pointer-events="all" transform="translate(80,559.4000000000001)"><rect class="bg" shape-rendering="crispEdges" style="stroke: rgb(68, 68, 68); stroke-opacity: 1; fill: rgb(255, 255, 255); fill-opacity: 1; stroke-width: 0px;" width="300" height="29" x="0" y="0"/><g class="scrollbox" transform="" clip-path="url(#legend54ceb5)"><g class="groups" transform=""><g class="traces" transform="translate(0,14.5)" style="opacity: 1;"><text class="legendtext" text-anchor="start" x="40" y="4.680000000000001" style="font-family: monospace; font-size: 12px; fill: rgb(42, 63, 95); fill-opacity: 1; white-space: pre;">wait thought up</text><g class="layers" style="opacity: 1;"><g class="legendfill"/><g class="legendlines"><path class="js-line" d="M5,0h30" style="fill: none; stroke: rgb(68, 252, 249); stroke-opacity: 1; stroke-width: 2px;"/></g><g class="legendsymbols"><g class="legendpoints"><path class="scatterpts" transform="translate(20,0)" d="M5.5,0A5.5,5.5 0 1,1 0,-5.5A5.5,5.5 0 0,1 5.5,0Z" style="opacity: 1; stroke: rgb(68, 252, 249); stroke-opacity: 1; stroke-width: 1px; fill: none;"/></g></g></g><rect class="legendtoggle" x="0" y="-9.5" width="151.53125" height="19" style="fill: rgb(0, 0, 0); fill-opacity: 0;"/></g></g><g class="groups" transform="translate(154.03125,0)"><g class="traces" transform="translate(0,14.5)" style="opacity: 1;"><text class="legendtext" text-anchor="start" x="40" y="4.680000000000001" style="font-family: monospace; font-size: 12px; fill: rgb(42, 63, 95); fill-opacity: 1; white-space: pre;">light old home</text><g class="layers" style="opacity: 1;"><g class="legendfill"/><g class="legendlines"><path class="js-line" d="M5,0h30" style="fill: none; stroke: rgb(209, 90, 77); stroke-opacity: 1; stroke-width: 2px;"/></g><g class="legendsymbols"><g class="legendpoints"><path class="scatterpts" transform="translate(20,0)" d="M5.5,0A5.5,5.5 0 1,1 0,-5.5A5.5,5.5 0 0,1 5.5,0Z" style="opacity: 1; stroke: rgb(209, 90, 77); stroke-opacity: 1; stroke-width: 1px; fill: none;"/></g></g></g><rect class="legendtoggle" x="0" y="-9.5" width="143.328125" height="19" style="fill: rgb(0, 0, 0); fill-opacity: 0;"/></g></g></g><rect class="scrollbar" rx="20" ry="3" width="0" height="0" style="fill: rgb(128, 139, 164); fill-opacity: 1;" x="0" y="0"/></g><g class="g-gtitle"><text class="gtitle" x="274" y="30" text-anchor="end" dy="0em" style="font-family: monospace; font-size: 25px; fill: rgb(0, 0, 0); opacity: 1; font-weight: normal; white-space: pre;">growth back help</text></g><g class="g-xtitle"><text class="xtitle" x="274" y="577.7189453125" text-anchor="middle" style="font-family: monospace; font-size: 14px; fill: rgb(0, 0, 0); opacity: 1; font-weight: normal; white-space: pre;">Year</text></g><g class="g-ytitle"/></g></svg>