<svg class="main-svg" xmlns="http://www.w3.org/2000/svg" xmlns:xlink="http://www.w3.org/1999/xlink" width="933" height="600" style="" viewBox="0 0 933 600"><rect x="0" y="0" width="933" height="600" style="fill: rgb(255, 255, 255); fill-opacity: 1;"/><defs id="defs-026114"><g class="clips"><clipPath id="clip026114xyplot" class="plotclip"><rect width="773" height="454"/></clipPath><clipPath class="axesclip" id="clip026114x"><rect x="80" y="0" width="773" height="600"/></clipPath><clipPath class="axesclip" id="clip026114y"><rect x="0" y="60" width="933" height="454"/></clipPath><clipPath class="axesclip" id="clip026114xy"><rect x="80" y="60" width="773" height="454"/></clipPath></g><g class="gradients"/><g class="patterns"/></defs><g class="bglayer"><rect class="bg" x="80" y="60" width="773" height="454" style="fill: rgb(255, 255, 255); fill-opacity: 1; stroke-width: 0;"/></g><g class="layer-below"><g class="imagelayer"/><g class="shapelayer"/></g><g class="cartesianlayer"><g class="subplot xy"><g class="layer-subplot"><g class="shapelayer"/><g class="imagelayer"/></g><g class="minor-gridlayer"><g class="x"/><g class="y"/></g><g class="gridlayer"><g class="x"/><g class="y"><path class="ygrid crisp" transform="translate(0,439.58)" d="M80,0h773" style="stroke: rgb(208, 208, 208); stroke-opacity: 1; stroke-width: 1px;"/><path class="ygrid crisp" transform="translate(0,388.29)" d="M80,0h773" style="stroke: rgb(208, 208, 208); stroke-opacity: 1; stroke-width: 1px;"/><path class="ygrid crisp" transform="translate(0,337)" d="M80,0h773" style="stroke: rgb(208, 208, 208); stroke-opacity: 1; stroke-width: 1px;"/><path class="ygrid crisp" transform="translate(0,285.72)" d="M80,0h773" style="stroke: rgb(208, 208, 208); stroke-opacity: 1; stroke-width: 1px;"/><path class="ygrid crisp" transform="translate(0,234.43)" d="M80,0h773" style="stroke: rgb(208, 208, 208); stroke-opacity: 1; stroke-width: 1px;"/><path class="ygrid crisp" transform="translate(0,183.14)" d="M80,0h773" style="stroke: rgb(208, 208, 208); stroke-opacity: 1; stroke-width: 1px;"/><path class="ygrid crisp" transform="translate(0,131.86)" d="M80,0h773" style="stroke: rgb(208, 208, 208); stroke-opacity: 1; stroke-width: 1px;"/><path class="ygrid crisp" transform="translate(0,80.57)" d="M80,0h773" style="stroke: rgb(208, 208, 208); stroke-opacity: 1; stroke-width: 1px;"/></g></g><g class="zerolinelayer"><path class="yzl zl crisp" transform="translate(0,490.86)" d="M80,0h773" style="stroke: rgb(255, 255, 255); stroke-opacity: 1; stroke-width: 2px;"/></g><path class="xlines-below"/><path class="ylines-below"/><g class="overlines-below"/><g class="xaxislayer-below"/><g class="yaxislayer-below"/><g class="overaxes-below"/><g class="plot" transform="translate(80,60)" clip-path="url(#clip026114xyplot)"><g class="scatterlayer mlayer"><g class="trace scatter traceefb796" style="stroke-miterlimit: 2; opacity: 1;"><g class="fills"/><g class="errorbars"/><g class="lines"><path class="js-line" d="M41.65,297.52L127.86,146.22L214.08,53.91L300.29,407.79L386.5,428.3L472.71,177L558.92,384.71L645.14,415.48L731.35,328.29" style="vector-effect: none; fill: none; stroke: rgb(214, 249, 167); stroke-opacity: 1; stroke-width: 2px; opacity: 1;"/></g><g class="points"><path class="point" transform="translate(41.65,297.52)" d="M3,0A3,3 0 1,1 0,-3A3,3 0 0,1 3,0Z" style="opacity: 1; stroke-width: 0px; fill: rgb(214, 249, 167); fill-opacity: 1;"/><path class="point" transform="translate(127.86,146.22)" d="M3,0A3,3 0 1,1 0,-3A3,3 0 0,1 3,0Z" style="opacity: 1; stroke-width: 0px; fill: rgb(214, 249, 167); fill-opacity: 1;"/><path class="point" transform="translate(214.08,53.91)" d="M3,0A3,3 0 1,1 0,-3A3,3 0 0,1 3,0Z" style="opacity: 1; stroke-width: 0px; fill: rgb(214, 249, 167); fill-opacity: 1;"/><path class="point" transform="translate(300.29,407.79)" d="M3,0A3,3 0 1,1 0,-3A3,3 0 0,1 3,0Z" style="opacity: 1; stroke-width: 0px; fill: rgb(214, 249, 167); fill-opacity: 1;"/><path class="point" transform="translate(386.5,428.3)" d="M3,0A3,3 0 1,1 0,-3A3,3 0 0,1 3,0Z" style="opacity: 1; stroke-width: 0px; fill: rgb(214, 249, 167); fill-opacity: 1;"/><path class="point" transform="translate(472.71,177)" d="M3,0A3,3 0 1,1 0,-3A3,3 0 0,1 3,0Z" style="opacity: 1; stroke-width: 0px; fill: rgb(214, 249, 167); fill-opacity: 1;"/><path class="point" transform="translate(558.92,384.71)" d="M3,0A3,3 0 1,1 0,-3A3,3 0 0,1 3,0Z" style="opacity: 1; stroke-width: 0px; fill: rgb(214, 249, 167); fill-opacity: 1;"/><path class="point" transform="translate(645.14,415.48)" d="M3,0A3,3 0 1,1 0,-3A3,3 0 0,1 3,0Z" style="opacity: 1; stroke-width: 0px; fill: rgb(214, 249, 167); fill-opacity: 1;"/><path class="point" transform="translate(731.35,328.29)" d="M3,0A3,3 0 1,1 0,-3A3,3 0 0,1 3,0Z" style="opacity: 1; stroke-width: 0px; fill: rgb(214, 249, 167); fill-opacity: 1;"/></g><g class="text"/></g><g class="trace scatter tracea11818" style="stroke-miterlimit: 2; opacity: 1;"><g class="fills"/><g class="errorbars"/><g class="lines"><path class="js-line" d="M41.65,25.7L127.86,28.26L214.08,351.37L300.29,402.66L386.5,425.74L472.71,400.09L558.92,389.84L645.14,359.06L731.35,153.92" style="vector-effect: none; fill: none; stroke: rgb(164, 54, 237); stroke-opacity: 1; stroke-width: 2px; opacity: 1;"/></g><g class="points"><path class="point" transform="translate(41.65,25.7)" d="M3,0A3,3 0 1,1 0,-3A3,3 0 0,1 3,0Z" style="opacity: 1; stroke-width: 0px; fill: rgb(164, 54, 237); fill-opacity: 1;"/><path class="point" transform="translate(127.86,28.26)" d="M3,0A3,3 0 1,1 0,-3A3,3 0 0,1 3,0Z" style="opacity: 1; stroke-width: 0px; fill: rgb(164, 54, 237); fill-opacity: 1;"/><path class="point" transform="translate(214.08,351.37)" d="M3,0A3,3 0 1,1 0,-3A3,3 0 0,1 3,0Z" style="opacity: 1; stroke-width: 0px; fill: rgb(164, 54, 237); fill-opacity: 1;"/><path class="point" transform="translate(300.29,402.66)" d="M3,0A3,3 0 1,1 0,-3A3,3 0 0,1 3,0Z" style="opacity: 1; stroke-width: 0px; fill: rgb(164, 54, 237); fill-opacity: 1;"/><path class="point" transform="translate(386.5,425.74)" d="M3,0A3,3 0 1,1 0,-3A3,3 0 0,1 3,0Z" style="opacity: 1; stroke-width: 0px; fill: rgb(164, 54, 237); fill-opacity: 1;"/><path class="point" transform="translate(472.71,400.09)" d="M3,0A3,3 0 1,1 0,-3A3,3 0 0,1 3,0Z" style="opacity: 1; stroke-width: 0px; fill: rgb(164, 54, 237); fill-opacity: 1;"/><path class="point" transform="translate(558.92,389.84)" d="M3,0A3,3 0 1,1 0,-3A3,3 0 0,1 3,0Z" style="opacity: 1; stroke-width: 0px; fill: rgb(164, 54, 237); fill-opacity: 1;"/><path class="point" transform="translate(645.14,359.06)" d="M3,0A3,3 0 1,1 0,-3A3,3 0 0,1 3,0Z" style="opacity: 1; stroke-width: 0px; fill: rgb(164, 54, 237); fill-opacity: 1;"/><path class="point" transform="translate(731.35,153.92)" d="M3,0A3,3 0 1,1 0,-3A3,3 0 0,1 3,0Z" style="opacity: 1; stroke-width: 0px; fill: rgb(164, 54, 237); fill-opacity: 1;"/></g><g class="text"/></g><g class="trace scatter trace7b41bd" style="stroke-miterlimit: 2; opacity: 1;"><g class="fills"/><g class="errorbars"/><g class="lines"><path class="js-line" d="M41.65,223.15L127.86,30.83L214.08,392.4L300.29,153.92L386.5,243.67L472.71,153.92L558.92,202.64L645.14,189.82L731.35,133.4" style="vector-effect: none; fill: none; stroke: rgb(164, 249, 203); stroke-opacity: 1; stroke-width: 2px; opacity: 1;"/></g><g class="points"><path class="point" transform="translate(41.65,223.15)" d="M3,0A3,3 0 1,1 0,-3A3,3 0 0,1 3,0Z" style="opacity: 1; stroke-width: 0px; fill: rgb(164, 249, 203); fill-opacity: 1;"/><path class="point" transform="translate(127.86,30.83)" d="M3,0A3,3 0 1,1 0,-3A3,3 0 0,1 3,0Z" style="opacity: 1; stroke-width: 0px; fill: rgb(164, 249, 203); fill-opacity: 1;"/><path class="point" transform="translate(214.08,392.4)" d="M3,0A3,3 0 1,1 0,-3A3,3 0 0,1 3,0Z" style="opacity: 1; stroke-width: 0px; fill: rgb(164, 249, 203); fill-opacity: 1;"/><path class="point" transform="translate(300.29,153.92)" d="M3,0A3,3 0 1,1 0,-3A3,3 0 0,1 3,0Z" style="opacity: 1; stroke-width: 0px; fill: rgb(164, 249, 203); fill-opacity: 1;"/><path class="point" transform="translate(386.5,243.67)" d="M3,0A3,3 0 1,1 0,-3A3,3 0 0,1 3,0Z" style="opacity: 1; stroke-width: 0px; fill: rgb(164, 249, 203); fill-opacity: 1;"/><path class="point" transform="translate(472.71,153.92)" d="M3,0A3,3 0 1,1 0,-3A3,3 0 0,1 3,0Z" style="opacity: 1; stroke-width: 0px; fill: rgb(164, 249, 203); fill-opacity: 1;"/><path class="point" transform="translate(558.92,202.64)" d="M3,0A3,3 0 1,1 0,-3A3,3 0 0,1 3,0Z" style="opacity: 1; stroke-width: 0px; fill: rgb(164, 249, 203); fill-opacity: 1;"/><path class="point" transform="translate(645.14,189.82)" d="M3,0A3,3 0 1,1 0,-3A3,3 0 0,1 3,0Z" style="opacity: 1; stroke-width: 0px; fill: rgb(164, 249, 203); fill-opacity: 1;"/><path class="point" transform="translate(731.35,133.4)" d="M3,0A3,3 0 1,1 0,-3A3,3 0 0,1 3,0Z" style="opacity: 1; stroke-width: 0px; fill: rgb(164, 249, 203); fill-opacity: 1;"/></g><g class="text"/></g><g class="trace scatter trace2c2a8e" style="stroke-miterlimit: 2; opacity: 1;"><g class="fills"/><g class="errorbars"/><g class="lines"><path class="js-line" d="M41.65,212.9L127.86,156.48L214.08,59.04L300.29,225.72L386.5,412.91L472.71,397.53L558.92,279.57L645.14,251.36L731.35,284.7" style="vector-effect: none; fill: none; stroke: rgb(163, 32, 73); stroke-opacity: 1; stroke-width: 2px; opacity: 1;"/></g><g class="points"><path class="point" transform="translate(41.65,212.9)" d="M3,0A3,3 0 1,1 0,-3A3,3 0 0,1 3,0Z" style="opacity: 1; stroke-width: 0px; fill: rgb(163, 32, 73); fill-opacity: 1;"/><path class="point" transform="translate(127.86,156.48)" d="M3,0A3,3 0 1,1 0,-3A3,3 0 0,1 3,0Z" style="opacity: 1; stroke-width: 0px; fill: rgb(163, 32, 73); fill-opacity: 1;"/><path class="point" transform="translate(214.08,59.04)" d="M3,0A3,3 0 1,1 0,-3A3,3 0 0,1 3,0Z" style="opacity: 1; stroke-width: 0px; fill: rgb(163, 32, 73); fill-opacity: 1;"/><path class="point" transform="translate(300.29,225.72)" d="M3,0A3,3 0 1,1 0,-3A3,3 0 0,1 3,0Z" style="opacity: 1; stroke-width: 0px; fill: rgb(163, 32, 73); fill-opacity: 1;"/><path class="point" transform="translate(386.5,412.91)" d="M3,0A3,3 0 1,1 0,-3A3,3 0 0,1 3,0Z" style="opacity: 1; stroke-width: 0px; fill: rgb(163, 32, 73); fill-opacity: 1;"/><path class="point" transform="translate(472.71,397.53)" d="M3,0A3,3 0 1,1 0,-3A3,3 0 0,1 3,0Z" style="opacity: 1; stroke-width: 0px; fill: rgb(163, 32, 73); fill-opacity: 1;"/><path class="point" transform="translate(558.92,279.57)" d="M3,0A3,3 0 1,1 0,-3A3,3 0 0,1 3,0Z" style="opacity: 1; stroke-width: 0px; fill: rgb(163, 32, 73); fill-opacity: 1;"/><path class="point" transform="translate(645.14,251.36)" d="M3,0A3,3 0 1,1 0,-3A3,3 0 0,1 3,0Z" style="opacity: 1; stroke-width: 0px; fill: rgb(163, 32, 73); fill-opacity: 1;"/><path class="point" transform="translate(731.35,284.7)" d="M3,0A3,3 0 1,1 0,-3A3,3 0 0,1 3,0Z" style="opacity: 1; stroke-width: 0px; fill: rgb(163, 32, 73); fill-opacity: 1;"/></g><g class="text"/></g></g></g><g class="overplot"/><path class="xlines-above crisp" d="M0,0" style="fill: none;"/><path class="ylines-above crisp" d="M79.5,60V514" style="fill: none; stroke-width: 1px; stroke: rgb(255, 255, 255); stroke-opacity: 1;"/><g class="overlines-above"/><g class="xaxislayer-above"><g class="xtick"><text text-anchor="start" x="2.0999999999999996" y="521" transform="translate(121.65,0) rotate(90,2.0999999999999996,515)" style="font-family: serif; font-size: 12px; fill: rgb(0, 0, 0); fill-opacity: 1; white-space: pre; opacity: 1;">Jan</text></g><g class="xtick"><text text-anchor="start" x="2.0999999999999996" y="521" transform="translate(207.86,0) rotate(90,2.0999999999999996,515)" style="font-family: serif; font-size: 12px; fill: rgb(0, 0, 0); fill-opacity: 1; white-space: pre; opacity: 1;">Feb</text></g><g class="xtick"><text text-anchor="start" x="2.0999999999999996" y="521" transform="translate(294.08000000000004,0) rotate(90,2.0999999999999996,515)" style="font-family: serif; font-size: 12px; fill: rgb(0, 0, 0); fill-opacity: 1; white-space: pre; opacity: 1;">Mar</text></g><g class="xtick"><text text-anchor="start" x="2.0999999999999996" y="521" transform="translate(380.29,0) rotate(90,2.0999999999999996,515)" style="font-family: serif; font-size: 12px; fill: rgb(0, 0, 0); fill-opacity: 1; white-space: pre; opacity: 1;">Apr</text></g><g class="xtick"><text text-anchor="start" x="2.0999999999999996" y="521" transform="translate(466.5,0) rotate(90,2.0999999999999996,515)" style="font-family: serif; font-size: 12px; fill: rgb(0, 0, 0); fill-opacity: 1; white-space: pre; opacity: 1;">May</text></g><g class="xtick"><text text-anchor="start" x="2.0999999999999996" y="521" transform="translate(552.71,0) rotate(90,2.0999999999999996,515)" style="font-family: serif; font-size: 12px; fill: rgb(0, 0, 0); fill-opacity: 1; white-space: pre; opacity: 1;">June</text></g><g class="xtick"><text text-anchor="start" x="2.0999999999999996" y="521" transform="translate(638.92,0) rotate(90,2.0999999999999996,515)" style="font-family: serif; font-size: 12px; fill: rgb(0, 0, 0); fill-opacity: 1; white-space: pre; opacity: 1;">July</text></g><g class="xtick"><text text-anchor="start" x="2.0999999999999996" y="521" transform="translate(725.14,0) rotate(90,2.0999999999999996,515)" style="font-family: serif; font-size: 12px; fill: rgb(0, 0, 0); fill-opacity: 1; white-space: pre; opacity: 1;">Aug</text></g><g class="xtick"><text text-anchor="start" x="2.0999999999999996" y="521" transform="translate(811.35,0) rotate(90,2.0999999999999996,515)" style="font-family: serif; font-size: 12px; fill: rgb(0, 0, 0); fill-opacity: 1; white-space: pre; opacity: 1;">Sep</text></g></g><g class="yaxislayer-above"><g class="ytick"><text text-anchor="end" x="76.6" y="4.199999999999999" transform="translate(0,490.86)" style="font-family: serif; font-size: 12px; fill: rgb(0, 0, 0); fill-opacity: 1; white-space: pre; opacity: 1;">0</text></g><g class="ytick"><text text-anchor="end" x="76.6" y="4.199999999999999" style="font-family: serif; font-size: 12px; fill: rgb(0, 0, 0); fill-opacity: 1; white-space: pre; opacity: 1;" transform="translate(0,439.58)">20</text></g><g class="ytick"><text text-anchor="end" x="76.6" y="4.199999999999999" style="font-family: serif; font-size: 12px; fill: rgb(0, 0, 0); fill-opacity: 1; white-space: pre; opacity: 1;" transform="translate(0,388.29)">40</text></g><g class="ytick"><text text-anchor="end" x="76.6" y="4.199999999999999" style="font-family: serif; font-size: 12px; fill: rgb(0, 0, 0); fill-opacity: 1; white-space: pre; opacity: 1;" transform="translate(0,337)">60</text></g><g class="ytick"><text text-anchor="end" x="76.6" y="4.199999999999999" style="font-family: serif; font-size: 12px; fill: rgb(0, 0, 0); fill-opacity: 1; white-space: pre; opacity: 1;" transform="translate(0,285.72)">80</text></g><g class="ytick"><text text-anchor="end" x="76.6" y="4.199999999999999" style="font-family: serif; font-size: 12px; fill: rgb(0, 0, 0); fill-opacity: 1; white-space: pre; opacity: 1;" transform="translate(0,234.43)">100</text></g><g class="ytick"><text text-anchor="end" x="76.6" y="4.199999999999999" style="font-family: serif; font-size: 12px; fill: rgb(0, 0, 0); fill-opacity: 1; white-space: pre; opacity: 1;" transform="translate(0,183.14)">120</text></g><g class="ytick"><text text-anchor="end" x="76.6" y="4.199999999999999" style="font-family: serif; font-size: 12px; fill: rgb(0, 0, 0); fill-opacity: 1; white-space: pre; opacity: 1;" transform="translate(0,131.86)">140</text></g><g class="ytick"><text text-anchor="end" x="76.6" y="4.199999999999999" style="font-family: serif; font-size: 12px; fill: rgb(0, 0, 0); fill-opacity: 1; white-space: pre; opacity: 1;" transform="translate(0,80.57)">160</text></g></g><g class="overaxes-above"/></g></g><g class="polarlayer"/><g class="smithlayer"/><g class="ternarylayer"/><g class="geolayer"/><g class="funnelarealayer"/><g class="pielayer"/><g class="iciclelayer"/><g class="treemaplayer"/><g class="sunburstlayer"/><g class="glimages"/><defs id="topdefs-026114"><g class="clips"/><clipPath id="legend026114"><rect width="560" height="29" x="0" y="0"/></clipPath></defs><g class="layer-above"><g class="imagelayer"/><g class="shapelayer"/></g><g class="infolayer"><g class="legend" pointer-events="all" transform="translate(80,559.4000000000001)"><rect class="bg" shape-rendering="crispEdges" style="stroke: rgb(68, 68, 68); stroke-opacity: 1; fill: rgb(255, 255, 255); fill-opacity: 1; stroke-width: 0px;" width="560" height="29" x="0" y="0"/><g class="scrollbox" transform="" clip-path="url(#legend026114)"><g class="groups" transform=""><g class="traces" transform="translate(0,14.5)" style="opacity: 1;"><text class="legendtext" text-anchor="start" x="40" y="4.680000000000001" style="font-family: serif; font-size: 12px; fill: rgb(42, 63, 95); fill-opacity: 1; white-space: pre;">husband able certainly</text><g class="layers" style="opacity: 1;"><g class="legendfill"/><g class="legendlines"><path class="js-line" d="M5,0h30" style="fill: none; stroke: rgb(214, 249, 167); stroke-opacity: 1; stroke-width: 2px;"/></g><g class="legendsymbols"><g class="legendpoints"><path class="scatterpts" transform="translate(20,0)" d="M1,0A1,1 0 1,1 0,-1A1,1 0 0,1 1,0Z" style="opacity: 1; stroke-width: 0px; fill: rgb(214, 249, 167); fill-opacity: 1;"/></g></g></g><rect class="legendtoggle" x="0" y="-9.5" width="152.46875" height="19" style="fill: rgb(0, 0, 0); fill-opacity: 0;"/></g></g><g class="groups" transform="translate(154.96875,0)"><g class="traces" transform="translate(0,14.5)" style="opacity: 1;"><text class="legendtext" text-anchor="start" x="40" y="4.680000000000001" style="font-family: serif; font-size: 12px; fill: rgb(42, 63, 95); fill-opacity: 1; white-space: pre;">fall provide carry</text><g class="layers" style="opacity: 1;"><g class="legendfill"/><g class="legendlines"><path class="js-line" d="M5,0h30" style="fill: none; stroke: rgb(164, 54, 237); stroke-opacity: 1; stroke-width: 2px;"/></g><g class="legendsymbols"><g class="legendpoints"><path class="scatterpts" transform="translate(20,0)" d="M1,0A1,1 0 1,1 0,-1A1,1 0 0,1 1,0Z" style="opacity: 1; stroke-width: 0px; fill: rgb(164, 54, 237); fill-opacity: 1;"/></g></g></g><rect class="legendtoggle" x="0" y="-9.5" width="126.796875" height="19" style="fill: rgb(0, 0, 0); fill-opacity: 0;"/></g></g><g class="groups" transform="translate(284.265625,0)"><g class="traces" transform="translate(0,14.5)" style="opacity: 1;"><text class="legendtext" text-anchor="start" x="40" y="4.680000000000001" style="font-family: serif; font-size: 12px; fill: rgb(42, 63, 95); fill-opacity: 1; white-space: pre;">indeed computer fish</text><g class="layers" style="opacity: 1;"><g class="legendfill"/><g class="legendlines"><path class="js-line" d="M5,0h30" style="fill: none; stroke: rgb(164, 249, 203); stroke-opacity: 1; stroke-width: 2px;"/></g><g class="legendsymbols"><g class="legendpoints"><path class="scatterpts" transform="translate(20,0)" d="M1,0A1,1 0 1,1 0,-1A1,1 0 0,1 1,0Z" style="opacity: 1; stroke-width: 0px; fill: rgb(164, 249, 203); fill-opacity: 1;"/></g></g></g><rect class="legendtoggle" x="0" y="-9.5" width="144.8125" height="19" style="fill: rgb(0, 0, 0); fill-opacity: 0;"/></g></g><g class="groups" transform="translate(431.578125,0)"><g class="traces" transform="translate(0,14.5)" style="opacity: 1;"><text class="legendtext" text-anchor="start" x="40" y="4.680000000000001" style="font-family: serif; font-size: 12px; fill: rgb(42, 63, 95); fill-opacity: 1; white-space: pre;">bag yeah interest</text><g class="layers" style="opacity: 1;"><g class="legendfill"/><g class="legendlines"><path class="js-line" d="M5,0h30" style="fill: none; stroke: rgb(163, 32, 73); stroke-opacity: 1; stroke-width: 2px;"/></g><g class="legendsymbols"><g class="legendpoints"><path class="scatterpts" transform="translate(20,0)" d="M1,0A1,1 0 1,1 0,-1A1,1 0 0,1 1,0Z" style="opacity: 1; stroke-width: 0px; fill: rgb(163, 32, 73); fill-opacity: 1;"/></g></g></g><rect class="legendtoggle" x="0" y="-9.5" width="125.46875" height="19" style="fill: rgb(0, 0, 0); fill-opacity: 0;"/></g></g></g><rect class="scrollbar" rx="20" ry="3" width="0" height="0" style="fill: rgb(128, 139, 164); fill-opacity: 1;" x="0" y="0"/></g><g class="g-gtitle"><text class="gtitle" x="466.5" y="30" text-anchor="middle" dy="0em" style="font-family: serif; font-size: 25px; fill: rgb(0, 0, 0); opacity: 1; font-weight: normal; white-space: pre;">section business share</text></g><g class="g-xtitle"/><g class="g-ytitle"/></g></svg>