<svg class="main-svg" xmlns="http://www.w3.org/2000/svg" xmlns:xlink="http://www.w3.org/1999/xlink" width="599" height="600" style="" viewBox="0 0 599 600"><rect x="0" y="0" width="599" height="600" style="fill: rgb(255, 255, 255); fill-opacity: 1;"/><defs id="defs-6f0bbd"><g class="clips"><clipPath id="clip6f0bbdxyplot" class="plotclip"><rect width="375" height="460"/></clipPath><clipPath class="axesclip" id="clip6f0bbdx"><rect x="80" y="0" width="375" height="600"/></clipPath><clipPath class="axesclip" id="clip6f0bbdy"><rect x="0" y="60" width="599" height="460"/></clipPath><clipPath class="axesclip" id="clip6f0bbdxy"><rect x="80" y="60" width="375" height="460"/></clipPath></g><g class="gradients"/><g class="patterns"/></defs><g class="bglayer"><rect class="bg" x="80" y="60" width="375" height="460" style="fill: rgb(51, 51, 51); fill-opacity: 1; stroke-width: 0;"/></g><g class="layer-below"><g class="imagelayer"/><g class="shapelayer"/></g><g class="cartesianlayer"><g class="subplot xy"><g class="layer-subplot"><g class="shapelayer"/><g class="imagelayer"/></g><g class="minor-gridlayer"><g class="x"/><g class="y"/></g><g class="gridlayer"><g class="x"/><g class="y"/></g><g class="zerolinelayer"/><path class="xlines-below"/><path class="ylines-below"/><g class="overlines-below"/><g class="xaxislayer-below"/><g class="yaxislayer-below"/><g class="overaxes-below"/><g class="plot" transform="translate(80,60)" clip-path="url(#clip6f0bbdxyplot)"><g class="scatterlayer mlayer"><g class="trace scatter tracef88185" style="stroke-miterlimit: 2; opacity: 1;"><g class="fills"/><g class="errorbars"/><g class="lines"><path class="js-line" d="M28.13,296.66L81.25,427.63L134.38,352.11L187.5,345.04L240.63,32.38L293.75,214.07L346.88,195.19" style="vector-effect: none; fill: none; stroke: rgb(234, 152, 178); stroke-opacity: 1; stroke-width: 2px; opacity: 1;"/></g><g class="points"><path class="point" transform="translate(28.13,296.66)" d="M7.5,0A7.5,7.5 0 1,1 0,-7.5A7.5,7.5 0 0,1 7.5,0Z" style="opacity: 1; stroke: rgb(234, 152, 178); stroke-opacity: 1; stroke-width: 1px; fill: none;"/><path class="point" transform="translate(81.25,427.63)" d="M7.5,0A7.5,7.5 0 1,1 0,-7.5A7.5,7.5 0 0,1 7.5,0Z" style="opacity: 1; stroke: rgb(234, 152, 178); stroke-opacity: 1; stroke-width: 1px; fill: none;"/><path class="point" transform="translate(134.38,352.11)" d="M7.5,0A7.5,7.5 0 1,1 0,-7.5A7.5,7.5 0 0,1 7.5,0Z" style="opacity: 1; stroke: rgb(234, 152, 178); stroke-opacity: 1; stroke-width: 1px; fill: none;"/><path class="point" transform="translate(187.5,345.04)" d="M7.5,0A7.5,7.5 0 1,1 0,-7.5A7.5,7.5 0 0,1 7.5,0Z" style="opacity: 1; stroke: rgb(234, 152, 178); stroke-opacity: 1; stroke-width: 1px; fill: none;"/><path class="point" transform="translate(240.63,32.38)" d="M7.5,0A7.5,7.5 0 1,1 0,-7.5A7.5,7.5 0 0,1 7.5,0Z" style="opacity: 1; stroke: rgb(234, 152, 178); stroke-opacity: 1; stroke-width: 1px; fill: none;"/><path class="point" transform="translate(293.75,214.07)" d="M7.5,0A7.5,7.5 0 1,1 0,-7.5A7.5,7.5 0 0,1 7.5,0Z" style="opacity: 1; stroke: rgb(234, 152, 178); stroke-opacity: 1; stroke-width: 1px; fill: none;"/><path class="point" transform="translate(346.88,195.19)" d="M7.5,0A7.5,7.5 0 1,1 0,-7.5A7.5,7.5 0 0,1 7.5,0Z" style="opacity: 1; stroke: rgb(234, 152, 178); stroke-opacity: 1; stroke-width: 1px; fill: none;"/></g><g class="text"/></g></g></g><g class="overplot"/><path class="xlines-above crisp" d="M0,0" style="fill: none;"/><path class="ylines-above crisp" d="M79.5,60V520" style="fill: none; stroke-width: 1px; stroke: rgb(255, 255, 255); stroke-opacity: 1;"/><g class="overlines-above"/><g class="xaxislayer-above"><g class="xtick"><text text-anchor="middle" x="0" y="541" transform="translate(161.25,0)" style="font-family: sans-serif; font-size: 20px; fill: rgb(0, 0, 0); fill-opacity: 1; white-space: pre; opacity: 1;">1904</text></g><g class="xtick"><text text-anchor="middle" x="0" y="541" style="font-family: sans-serif; font-size: 20px; fill: rgb(0, 0, 0); fill-opacity: 1; white-space: pre; opacity: 1;" transform="translate(267.5,0)">1906</text></g><g class="xtick"><text text-anchor="middle" x="0" y="541" style="font-family: sans-serif; font-size: 20px; fill: rgb(0, 0, 0); fill-opacity: 1; white-space: pre; opacity: 1;" transform="translate(373.75,0)">1908</text></g></g><g class="yaxislayer-above"><g class="ytick"><text text-anchor="end" x="75" y="7" transform="translate(0,518.3)" style="font-family: sans-serif; font-size: 20px; fill: rgb(0, 0, 0); fill-opacity: 1; white-space: pre; opacity: 1;">150</text></g><g class="ytick"><text text-anchor="end" x="75" y="7" style="font-family: sans-serif; font-size: 20px; fill: rgb(0, 0, 0); fill-opacity: 1; white-space: pre; opacity: 1;" transform="translate(0,459.31)">200</text></g><g class="ytick"><text text-anchor="end" x="75" y="7" style="font-family: sans-serif; font-size: 20px; fill: rgb(0, 0, 0); fill-opacity: 1; white-space: pre; opacity: 1;" transform="translate(0,400.32)">250</text></g><g class="ytick"><text text-anchor="end" x="75" y="7" style="font-family: sans-serif; font-size: 20px; fill: rgb(0, 0, 0); fill-opacity: 1; white-space: pre; opacity: 1;" transform="translate(0,341.32)">300</text></g><g class="ytick"><text text-anchor="end" x="75" y="7" style="font-family: sans-serif; font-size: 20px; fill: rgb(0, 0, 0); fill-opacity: 1; white-space: pre; opacity: 1;" transform="translate(0,282.33000000000004)">350</text></g><g class="ytick"><text text-anchor="end" x="75" y="7" style="font-family: sans-serif; font-size: 20px; fill: rgb(0, 0, 0); fill-opacity: 1; white-space: pre; opacity: 1;" transform="translate(0,223.34)">400</text></g><g class="ytick"><text text-anchor="end" x="75" y="7" style="font-family: sans-serif; font-size: 20px; fill: rgb(0, 0, 0); fill-opacity: 1; white-space: pre; opacity: 1;" transform="translate(0,164.35)">450</text></g><g class="ytick"><text text-anchor="end" x="75" y="7" style="font-family: sans-serif; font-size: 20px; fill: rgb(0, 0, 0); fill-opacity: 1; white-space: pre; opacity: 1;" transform="translate(0,105.35)">500</text></g></g><g class="overaxes-above"/></g></g><g class="polarlayer"/><g class="smithlayer"/><g class="ternarylayer"/><g class="geolayer"/><g class="funnelarealayer"/><g class="pielayer"/><g class="iciclelayer"/><g class="treemaplayer"/><g class="sunburstlayer"/><g class="glimages"/><defs id="topdefs-6f0bbd"><g class="clips"/><clipPath id="legend6f0bbd"><rect width="124" height="29" x="0" y="0"/></clipPath></defs><g class="layer-above"><g class="imagelayer"/><g class="shapelayer"/></g><g class="infolayer"><g class="legend" pointer-events="all" transform="translate(462.5,60)"><rect class="bg" shape-rendering="crispEdges" style="stroke: rgb(68, 68, 68); stroke-opacity: 1; fill: rgb(255, 255, 255); fill-opacity: 1; stroke-width: 0px;" width="124" height="29" x="0" y="0"/><g class="scrollbox" transform="" clip-path="url(#legend6f0bbd)"><g class="groups" transform=""><g class="traces" transform="translate(0,14.5)" style="opacity: 1;"><text class="legendtext" text-anchor="start" x="40" y="4.680000000000001" style="font-family: sans-serif; font-size: 12px; fill: rgb(42, 63, 95); fill-opacity: 1; white-space: pre;">wear image all</text><g class="layers" style="opacity: 1;"><g class="legendfill"/><g class="legendlines"><path class="js-line" d="M5,0h30" style="fill: none; stroke: rgb(234, 152, 178); stroke-opacity: 1; stroke-width: 2px;"/></g><g class="legendsymbols"><g class="legendpoints"><path class="scatterpts" transform="translate(20,0)" d="M7.5,0A7.5,7.5 0 1,1 0,-7.5A7.5,7.5 0 0,1 7.5,0Z" style="opacity: 1; stroke: rgb(234, 152, 178); stroke-opacity: 1; stroke-width: 1px; fill: none;"/></g></g></g><rect class="legendtoggle" x="0" y="-9.5" width="118.703125" height="19" style="fill: rgb(0, 0, 0); fill-opacity: 0;"/></g></g></g><rect class="scrollbar" rx="20" ry="3" width="0" height="0" style="fill: rgb(128, 139, 164); fill-opacity: 1;" x="0" y="0"/></g><g class="g-gtitle"><text class="gtitle" x="299.5" y="30" text-anchor="middle" dy="0em" style="font-family: sans-serif; font-size: 25px; fill: rgb(0, 0, 0); opacity: 1; font-weight: normal; white-space: pre;">from discuss carry</text></g><g class="g-xtitle"><text class="xtitle" x="267.5" y="569.3" text-anchor="middle" style="font-family: sans-serif; font-size: 14px; fill: rgb(0, 0, 0); opacity: 1; font-weight: normal; white-space: pre;">Year</text></g><g class="g-ytitle"><text class="ytitle" transform="rotate(-90,16.325000000000003,290)" x="16.325000000000003" y="290" text-anchor="middle" style="font-family: sans-serif; font-size: 14px; fill: rgb(0, 0, 0); opacity: 1; font-weight: normal; white-space: pre;">trouble describe maybe</text></g></g></svg>