<svg class="main-svg" xmlns="http://www.w3.org/2000/svg" xmlns:xlink="http://www.w3.org/1999/xlink" width="698" height="600" style="" viewBox="0 0 698 600"><rect x="0" y="0" width="698" height="600" style="fill: rgb(255, 255, 255); fill-opacity: 1;"/><defs id="defs-b6584c"><g class="clips"><clipPath id="clipb6584cxyplot" class="plotclip"><rect width="442" height="460"/></clipPath><clipPath class="axesclip" id="clipb6584cx"><rect x="80" y="0" width="442" height="600"/></clipPath><clipPath class="axesclip" id="clipb6584cy"><rect x="0" y="60" width="698" height="460"/></clipPath><clipPath class="axesclip" id="clipb6584cxy"><rect x="80" y="60" width="442" height="460"/></clipPath></g><g class="gradients"/><g class="patterns"/></defs><g class="bglayer"><rect class="bg" x="80" y="60" width="442" height="460" style="fill: rgb(255, 255, 255); fill-opacity: 1; stroke-width: 0;"/></g><g class="layer-below"><g class="imagelayer"/><g class="shapelayer"/></g><g class="cartesianlayer"><g class="subplot xy"><g class="layer-subplot"><g class="shapelayer"/><g class="imagelayer"/></g><g class="minor-gridlayer"><g class="x"/><g class="y"/></g><g class="gridlayer"><g class="x"><path class="xgrid crisp" transform="translate(105.1,0)" d="M0,60v460" style="stroke: rgb(208, 208, 208); stroke-opacity: 1; stroke-width: 1px;"/><path class="xgrid crisp" transform="translate(154.07,0)" d="M0,60v460" style="stroke: rgb(208, 208, 208); stroke-opacity: 1; stroke-width: 1px;"/><path class="xgrid crisp" transform="translate(203.05,0)" d="M0,60v460" style="stroke: rgb(208, 208, 208); stroke-opacity: 1; stroke-width: 1px;"/><path class="xgrid crisp" transform="translate(252.02,0)" d="M0,60v460" style="stroke: rgb(208, 208, 208); stroke-opacity: 1; stroke-width: 1px;"/><path class="xgrid crisp" transform="translate(301,0)" d="M0,60v460" style="stroke: rgb(208, 208, 208); stroke-opacity: 1; stroke-width: 1px;"/><path class="xgrid crisp" transform="translate(349.97,0)" d="M0,60v460" style="stroke: rgb(208, 208, 208); stroke-opacity: 1; stroke-width: 1px;"/><path class="xgrid crisp" transform="translate(398.95,0)" d="M0,60v460" style="stroke: rgb(208, 208, 208); stroke-opacity: 1; stroke-width: 1px;"/><path class="xgrid crisp" transform="translate(447.92,0)" d="M0,60v460" style="stroke: rgb(208, 208, 208); stroke-opacity: 1; stroke-width: 1px;"/><path class="xgrid crisp" transform="translate(496.9,0)" d="M0,60v460" style="stroke: rgb(208, 208, 208); stroke-opacity: 1; stroke-width: 1px;"/></g><g class="y"><path class="ygrid crisp" transform="translate(0,445.48)" d="M80,0h442" style="stroke: rgb(208, 208, 208); stroke-opacity: 1; stroke-width: 1px;"/><path class="ygrid crisp" transform="translate(0,390.35)" d="M80,0h442" style="stroke: rgb(208, 208, 208); stroke-opacity: 1; stroke-width: 1px;"/><path class="ygrid crisp" transform="translate(0,335.21)" d="M80,0h442" style="stroke: rgb(208, 208, 208); stroke-opacity: 1; stroke-width: 1px;"/><path class="ygrid crisp" transform="translate(0,280.08000000000004)" d="M80,0h442" style="stroke: rgb(208, 208, 208); stroke-opacity: 1; stroke-width: 1px;"/><path class="ygrid crisp" transform="translate(0,224.94)" d="M80,0h442" style="stroke: rgb(208, 208, 208); stroke-opacity: 1; stroke-width: 1px;"/><path class="ygrid crisp" transform="translate(0,169.81)" d="M80,0h442" style="stroke: rgb(208, 208, 208); stroke-opacity: 1; stroke-width: 1px;"/><path class="ygrid crisp" transform="translate(0,114.67)" d="M80,0h442" style="stroke: rgb(208, 208, 208); stroke-opacity: 1; stroke-width: 1px;"/></g></g><g class="zerolinelayer"><path class="yzl zl crisp" transform="translate(0,500.62)" d="M80,0h442" style="stroke: rgb(255, 255, 255); stroke-opacity: 1; stroke-width: 2px;"/></g><path class="xlines-below"/><path class="ylines-below"/><g class="overlines-below"/><g class="xaxislayer-below"/><g class="yaxislayer-below"/><g class="overaxes-below"/><g class="plot" transform="translate(80,60)" clip-path="url(#clipb6584cxyplot)"><g class="scatterlayer mlayer"><g class="trace scatter trace3dc848" style="stroke-miterlimit: 2; opacity: 1;"><g class="fills"/><g class="errorbars"/><g class="lines"><path class="js-line" d="M25.1,161.63L74.07,238.82L123.05,37.03L172.02,201.33L221,335.86L269.97,322.63L318.95,387.69L367.92,434L416.9,156.12" style="vector-effect: none; fill: none; stroke: rgb(152, 249, 162); stroke-opacity: 1; stroke-width: 2px; opacity: 1;"/></g><g class="points"><path class="point" transform="translate(25.1,161.63)" d="M0.5,0A0.5,0.5 0 1,1 0,-0.5A0.5,0.5 0 0,1 0.5,0Z" style="opacity: 1; stroke: rgb(152, 249, 162); stroke-opacity: 1; stroke-width: 1px; fill: none;"/><path class="point" transform="translate(74.07,238.82)" d="M0.5,0A0.5,0.5 0 1,1 0,-0.5A0.5,0.5 0 0,1 0.5,0Z" style="opacity: 1; stroke: rgb(152, 249, 162); stroke-opacity: 1; stroke-width: 1px; fill: none;"/><path class="point" transform="translate(123.05,37.03)" d="M0.5,0A0.5,0.5 0 1,1 0,-0.5A0.5,0.5 0 0,1 0.5,0Z" style="opacity: 1; stroke: rgb(152, 249, 162); stroke-opacity: 1; stroke-width: 1px; fill: none;"/><path class="point" transform="translate(172.02,201.33)" d="M0.5,0A0.5,0.5 0 1,1 0,-0.5A0.5,0.5 0 0,1 0.5,0Z" style="opacity: 1; stroke: rgb(152, 249, 162); stroke-opacity: 1; stroke-width: 1px; fill: none;"/><path class="point" transform="translate(221,335.86)" d="M0.5,0A0.5,0.5 0 1,1 0,-0.5A0.5,0.5 0 0,1 0.5,0Z" style="opacity: 1; stroke: rgb(152, 249, 162); stroke-opacity: 1; stroke-width: 1px; fill: none;"/><path class="point" transform="translate(269.97,322.63)" d="M0.5,0A0.5,0.5 0 1,1 0,-0.5A0.5,0.5 0 0,1 0.5,0Z" style="opacity: 1; stroke: rgb(152, 249, 162); stroke-opacity: 1; stroke-width: 1px; fill: none;"/><path class="point" transform="translate(318.95,387.69)" d="M0.5,0A0.5,0.5 0 1,1 0,-0.5A0.5,0.5 0 0,1 0.5,0Z" style="opacity: 1; stroke: rgb(152, 249, 162); stroke-opacity: 1; stroke-width: 1px; fill: none;"/><path class="point" transform="translate(367.92,434)" d="M0.5,0A0.5,0.5 0 1,1 0,-0.5A0.5,0.5 0 0,1 0.5,0Z" style="opacity: 1; stroke: rgb(152, 249, 162); stroke-opacity: 1; stroke-width: 1px; fill: none;"/><path class="point" transform="translate(416.9,156.12)" d="M0.5,0A0.5,0.5 0 1,1 0,-0.5A0.5,0.5 0 0,1 0.5,0Z" style="opacity: 1; stroke: rgb(152, 249, 162); stroke-opacity: 1; stroke-width: 1px; fill: none;"/></g><g class="text"/></g><g class="trace scatter trace4a3818" style="stroke-miterlimit: 2; opacity: 1;"><g class="fills"/><g class="errorbars"/><g class="lines"><path class="js-line" d="M25.1,250.95L74.07,132.96L123.05,313.81L172.02,117.52L221,167.15L269.97,264.18L318.95,284.03L367.92,314.91L416.9,306.09" style="vector-effect: none; fill: none; stroke: rgb(208, 2, 239); stroke-opacity: 1; stroke-width: 2px; opacity: 1;"/></g><g class="points"><path class="point" transform="translate(25.1,250.95)" d="M0.5,0A0.5,0.5 0 1,1 0,-0.5A0.5,0.5 0 0,1 0.5,0Z" style="opacity: 1; stroke: rgb(208, 2, 239); stroke-opacity: 1; stroke-width: 1px; fill: none;"/><path class="point" transform="translate(74.07,132.96)" d="M0.5,0A0.5,0.5 0 1,1 0,-0.5A0.5,0.5 0 0,1 0.5,0Z" style="opacity: 1; stroke: rgb(208, 2, 239); stroke-opacity: 1; stroke-width: 1px; fill: none;"/><path class="point" transform="translate(123.05,313.81)" d="M0.5,0A0.5,0.5 0 1,1 0,-0.5A0.5,0.5 0 0,1 0.5,0Z" style="opacity: 1; stroke: rgb(208, 2, 239); stroke-opacity: 1; stroke-width: 1px; fill: none;"/><path class="point" transform="translate(172.02,117.52)" d="M0.5,0A0.5,0.5 0 1,1 0,-0.5A0.5,0.5 0 0,1 0.5,0Z" style="opacity: 1; stroke: rgb(208, 2, 239); stroke-opacity: 1; stroke-width: 1px; fill: none;"/><path class="point" transform="translate(221,167.15)" d="M0.5,0A0.5,0.5 0 1,1 0,-0.5A0.5,0.5 0 0,1 0.5,0Z" style="opacity: 1; stroke: rgb(208, 2, 239); stroke-opacity: 1; stroke-width: 1px; fill: none;"/><path class="point" transform="translate(269.97,264.18)" d="M0.5,0A0.5,0.5 0 1,1 0,-0.5A0.5,0.5 0 0,1 0.5,0Z" style="opacity: 1; stroke: rgb(208, 2, 239); stroke-opacity: 1; stroke-width: 1px; fill: none;"/><path class="point" transform="translate(318.95,284.03)" d="M0.5,0A0.5,0.5 0 1,1 0,-0.5A0.5,0.5 0 0,1 0.5,0Z" style="opacity: 1; stroke: rgb(208, 2, 239); stroke-opacity: 1; stroke-width: 1px; fill: none;"/><path class="point" transform="translate(367.92,314.91)" d="M0.5,0A0.5,0.5 0 1,1 0,-0.5A0.5,0.5 0 0,1 0.5,0Z" style="opacity: 1; stroke: rgb(208, 2, 239); stroke-opacity: 1; stroke-width: 1px; fill: none;"/><path class="point" transform="translate(416.9,306.09)" d="M0.5,0A0.5,0.5 0 1,1 0,-0.5A0.5,0.5 0 0,1 0.5,0Z" style="opacity: 1; stroke: rgb(208, 2, 239); stroke-opacity: 1; stroke-width: 1px; fill: none;"/></g><g class="text"/></g><g class="trace scatter tracebe2d7e" style="stroke-miterlimit: 2; opacity: 1;"><g class="fills"/><g class="errorbars"/><g class="lines"><path class="js-line" d="M25.1,112.01L74.07,413.05L123.05,224.49L172.02,276.31L221,51.36L269.97,26L318.95,212.36L367.92,42.54L416.9,60.18" style="vector-effect: none; fill: none; stroke: rgb(244, 117, 119); stroke-opacity: 1; stroke-width: 2px; opacity: 1;"/></g><g class="points"><path class="point" transform="translate(25.1,112.01)" d="M0.5,0A0.5,0.5 0 1,1 0,-0.5A0.5,0.5 0 0,1 0.5,0Z" style="opacity: 1; stroke: rgb(244, 117, 119); stroke-opacity: 1; stroke-width: 1px; fill: none;"/><path class="point" transform="translate(74.07,413.05)" d="M0.5,0A0.5,0.5 0 1,1 0,-0.5A0.5,0.5 0 0,1 0.5,0Z" style="opacity: 1; stroke: rgb(244, 117, 119); stroke-opacity: 1; stroke-width: 1px; fill: none;"/><path class="point" transform="translate(123.05,224.49)" d="M0.5,0A0.5,0.5 0 1,1 0,-0.5A0.5,0.5 0 0,1 0.5,0Z" style="opacity: 1; stroke: rgb(244, 117, 119); stroke-opacity: 1; stroke-width: 1px; fill: none;"/><path class="point" transform="translate(172.02,276.31)" d="M0.5,0A0.5,0.5 0 1,1 0,-0.5A0.5,0.5 0 0,1 0.5,0Z" style="opacity: 1; stroke: rgb(244, 117, 119); stroke-opacity: 1; stroke-width: 1px; fill: none;"/><path class="point" transform="translate(221,51.36)" d="M0.5,0A0.5,0.5 0 1,1 0,-0.5A0.5,0.5 0 0,1 0.5,0Z" style="opacity: 1; stroke: rgb(244, 117, 119); stroke-opacity: 1; stroke-width: 1px; fill: none;"/><path class="point" transform="translate(269.97,26)" d="M0.5,0A0.5,0.5 0 1,1 0,-0.5A0.5,0.5 0 0,1 0.5,0Z" style="opacity: 1; stroke: rgb(244, 117, 119); stroke-opacity: 1; stroke-width: 1px; fill: none;"/><path class="point" transform="translate(318.95,212.36)" d="M0.5,0A0.5,0.5 0 1,1 0,-0.5A0.5,0.5 0 0,1 0.5,0Z" style="opacity: 1; stroke: rgb(244, 117, 119); stroke-opacity: 1; stroke-width: 1px; fill: none;"/><path class="point" transform="translate(367.92,42.54)" d="M0.5,0A0.5,0.5 0 1,1 0,-0.5A0.5,0.5 0 0,1 0.5,0Z" style="opacity: 1; stroke: rgb(244, 117, 119); stroke-opacity: 1; stroke-width: 1px; fill: none;"/><path class="point" transform="translate(416.9,60.18)" d="M0.5,0A0.5,0.5 0 1,1 0,-0.5A0.5,0.5 0 0,1 0.5,0Z" style="opacity: 1; stroke: rgb(244, 117, 119); stroke-opacity: 1; stroke-width: 1px; fill: none;"/></g><g class="text"/></g></g></g><g class="overplot"/><path class="xlines-above crisp" d="M0,0" style="fill: none;"/><path class="ylines-above crisp" d="M79.5,60V520" style="fill: none; stroke-width: 1px; stroke: rgb(255, 255, 255); stroke-opacity: 1;"/><g class="overlines-above"/><g class="xaxislayer-above"><g class="xtick"><text text-anchor="start" x="1.75" y="526" transform="translate(105.1,0) rotate(90,1.75,521)" style="font-family: serif; font-size: 10px; fill: rgb(0, 0, 0); fill-opacity: 1; white-space: pre; opacity: 1;">Jan</text></g><g class="xtick"><text text-anchor="start" x="1.75" y="526" transform="translate(154.07,0) rotate(90,1.75,521)" style="font-family: serif; font-size: 10px; fill: rgb(0, 0, 0); fill-opacity: 1; white-space: pre; opacity: 1;">Feb</text></g><g class="xtick"><text text-anchor="start" x="1.75" y="526" transform="translate(203.05,0) rotate(90,1.75,521)" style="font-family: serif; font-size: 10px; fill: rgb(0, 0, 0); fill-opacity: 1; white-space: pre; opacity: 1;">Mar</text></g><g class="xtick"><text text-anchor="start" x="1.75" y="526" transform="translate(252.02,0) rotate(90,1.75,521)" style="font-family: serif; font-size: 10px; fill: rgb(0, 0, 0); fill-opacity: 1; white-space: pre; opacity: 1;">Apr</text></g><g class="xtick"><text text-anchor="start" x="1.75" y="526" transform="translate(301,0) rotate(90,1.75,521)" style="font-family: serif; font-size: 10px; fill: rgb(0, 0, 0); fill-opacity: 1; white-space: pre; opacity: 1;">May</text></g><g class="xtick"><text text-anchor="start" x="1.75" y="526" transform="translate(349.97,0) rotate(90,1.75,521)" style="font-family: serif; font-size: 10px; fill: rgb(0, 0, 0); fill-opacity: 1; white-space: pre; opacity: 1;">June</text></g><g class="xtick"><text text-anchor="start" x="1.75" y="526" transform="translate(398.95,0) rotate(90,1.75,521)" style="font-family: serif; font-size: 10px; fill: rgb(0, 0, 0); fill-opacity: 1; white-space: pre; opacity: 1;">July</text></g><g class="xtick"><text text-anchor="start" x="1.75" y="526" transform="translate(447.92,0) rotate(90,1.75,521)" style="font-family: serif; font-size: 10px; fill: rgb(0, 0, 0); fill-opacity: 1; white-space: pre; opacity: 1;">Aug</text></g><g class="xtick"><text text-anchor="start" x="1.75" y="526" transform="translate(496.9,0) rotate(90,1.75,521)" style="font-family: serif; font-size: 10px; fill: rgb(0, 0, 0); fill-opacity: 1; white-space: pre; opacity: 1;">Sep</text></g></g><g class="yaxislayer-above"><g class="ytick"><text text-anchor="end" x="77" y="3.5" transform="translate(0,500.62)" style="font-family: serif; font-size: 10px; fill: rgb(0, 0, 0); fill-opacity: 1; white-space: pre; opacity: 1;">0</text></g><g class="ytick"><text text-anchor="end" x="77" y="3.5" style="font-family: serif; font-size: 10px; fill: rgb(0, 0, 0); fill-opacity: 1; white-space: pre; opacity: 1;" transform="translate(0,445.48)">50</text></g><g class="ytick"><text text-anchor="end" x="77" y="3.5" style="font-family: serif; font-size: 10px; fill: rgb(0, 0, 0); fill-opacity: 1; white-space: pre; opacity: 1;" transform="translate(0,390.35)">100</text></g><g class="ytick"><text text-anchor="end" x="77" y="3.5" style="font-family: serif; font-size: 10px; fill: rgb(0, 0, 0); fill-opacity: 1; white-space: pre; opacity: 1;" transform="translate(0,335.21)">150</text></g><g class="ytick"><text text-anchor="end" x="77" y="3.5" style="font-family: serif; font-size: 10px; fill: rgb(0, 0, 0); fill-opacity: 1; white-space: pre; opacity: 1;" transform="translate(0,280.08000000000004)">200</text></g><g class="ytick"><text text-anchor="end" x="77" y="3.5" style="font-family: serif; font-size: 10px; fill: rgb(0, 0, 0); fill-opacity: 1; white-space: pre; opacity: 1;" transform="translate(0,224.94)">250</text></g><g class="ytick"><text text-anchor="end" x="77" y="3.5" style="font-family: serif; font-size: 10px; fill: rgb(0, 0, 0); fill-opacity: 1; white-space: pre; opacity: 1;" transform="translate(0,169.81)">300</text></g><g class="ytick"><text text-anchor="end" x="77" y="3.5" style="font-family: serif; font-size: 10px; fill: rgb(0, 0, 0); fill-opacity: 1; white-space: pre; opacity: 1;" transform="translate(0,114.67)">350</text></g></g><g class="overaxes-above"/></g></g><g class="polarlayer"/><g class="smithlayer"/><g class="ternarylayer"/><g class="geolayer"/><g class="funnelarealayer"/><g class="pielayer"/><g class="iciclelayer"/><g class="treemaplayer"/><g class="sunburstlayer"/><g class="glimages"/><defs id="topdefs-b6584c"><g class="clips"/><clipPath id="legendb6584c"><rect width="155" height="67" x="0" y="0"/></clipPath></defs><g class="layer-above"><g class="imagelayer"/><g class="shapelayer"/></g><g class="infolayer"><g class="legend" pointer-events="all" transform="translate(530.84,60)"><rect class="bg" shape-rendering="crispEdges" style="stroke: rgb(68, 68, 68); stroke-opacity: 1; fill: rgb(255, 255, 255); fill-opacity: 1; stroke-width: 0px;" width="155" height="67" x="0" y="0"/><g class="scrollbox" transform="" clip-path="url(#legendb6584c)"><g class="groups" transform=""><g class="traces" transform="translate(0,14.5)" style="opacity: 1;"><text class="legendtext" text-anchor="start" x="40" y="4.680000000000001" style="font-family: serif; font-size: 12px; fill: rgb(42, 63, 95); fill-opacity: 1; white-space: pre;">bed age focus</text><g class="layers" style="opacity: 1;"><g class="legendfill"/><g class="legendlines"><path class="js-line" d="M5,0h30" style="fill: none; stroke: rgb(152, 249, 162); stroke-opacity: 1; stroke-width: 2px;"/></g><g class="legendsymbols"><g class="legendpoints"><path class="scatterpts" transform="translate(20,0)" d="M1,0A1,1 0 1,1 0,-1A1,1 0 0,1 1,0Z" style="opacity: 1; stroke: rgb(152, 249, 162); stroke-opacity: 1; stroke-width: 1px; fill: none;"/></g></g></g><rect class="legendtoggle" x="0" y="-9.5" width="149.625" height="19" style="fill: rgb(0, 0, 0); fill-opacity: 0;"/></g></g><g class="groups" transform=""><g class="traces" transform="translate(0,33.5)" style="opacity: 1;"><text class="legendtext" text-anchor="start" x="40" y="4.680000000000001" style="font-family: serif; font-size: 12px; fill: rgb(42, 63, 95); fill-opacity: 1; white-space: pre;">real employee specific</text><g class="layers" style="opacity: 1;"><g class="legendfill"/><g class="legendlines"><path class="js-line" d="M5,0h30" style="fill: none; stroke: rgb(208, 2, 239); stroke-opacity: 1; stroke-width: 2px;"/></g><g class="legendsymbols"><g class="legendpoints"><path class="scatterpts" transform="translate(20,0)" d="M1,0A1,1 0 1,1 0,-1A1,1 0 0,1 1,0Z" style="opacity: 1; stroke: rgb(208, 2, 239); stroke-opacity: 1; stroke-width: 1px; fill: none;"/></g></g></g><rect class="legendtoggle" x="0" y="-9.5" width="149.625" height="19" style="fill: rgb(0, 0, 0); fill-opacity: 0;"/></g></g><g class="groups" transform=""><g class="traces" transform="translate(0,52.5)" style="opacity: 1;"><text class="legendtext" text-anchor="start" x="40" y="4.680000000000001" style="font-family: serif; font-size: 12px; fill: rgb(42, 63, 95); fill-opacity: 1; white-space: pre;">place report watch</text><g class="layers" style="opacity: 1;"><g class="legendfill"/><g class="legendlines"><path class="js-line" d="M5,0h30" style="fill: none; stroke: rgb(244, 117, 119); stroke-opacity: 1; stroke-width: 2px;"/></g><g class="legendsymbols"><g class="legendpoints"><path class="scatterpts" transform="translate(20,0)" d="M1,0A1,1 0 1,1 0,-1A1,1 0 0,1 1,0Z" style="opacity: 1; stroke: rgb(244, 117, 119); stroke-opacity: 1; stroke-width: 1px; fill: none;"/></g></g></g><rect class="legendtoggle" x="0" y="-9.5" width="149.625" height="19" style="fill: rgb(0, 0, 0); fill-opacity: 0;"/></g></g></g><rect class="scrollbar" rx="20" ry="3" width="0" height="0" style="fill: rgb(128, 139, 164); fill-opacity: 1;" x="0" y="0"/></g><g class="g-gtitle"><text class="gtitle" x="349" y="30" text-anchor="middle" dy="0em" style="font-family: serif; font-size: 25px; fill: rgb(0, 0, 0); opacity: 1; font-weight: normal; white-space: pre;">character join wear</text></g><g class="g-xtitle"/><g class="g-ytitle"><text class="ytitle" transform="rotate(-90,36.7,290)" x="36.7" y="290" text-anchor="middle" style="font-family: serif; font-size: 14px; fill: rgb(0, 0, 0); opacity: 1; font-weight: normal; white-space: pre;">community adult yard</text></g></g></svg>