<svg class="main-svg" xmlns="http://www.w3.org/2000/svg" xmlns:xlink="http://www.w3.org/1999/xlink" width="807" height="600" style="" viewBox="0 0 807 600"><rect x="0" y="0" width="807" height="600" style="fill: rgb(255, 255, 255); fill-opacity: 1;"/><defs id="defs-b04671"><g class="clips"><clipPath id="clipb04671xyplot" class="plotclip"><rect width="544" height="460"/></clipPath><clipPath class="axesclip" id="clipb04671x"><rect x="80" y="0" width="544" height="600"/></clipPath><clipPath class="axesclip" id="clipb04671y"><rect x="0" y="60" width="807" height="460"/></clipPath><clipPath class="axesclip" id="clipb04671xy"><rect x="80" y="60" width="544" height="460"/></clipPath></g><g class="gradients"/><g class="patterns"/></defs><g class="bglayer"><rect class="bg" x="80" y="60" width="544" height="460" style="fill: rgb(255, 255, 255); fill-opacity: 1; stroke-width: 0;"/></g><g class="layer-below"><g class="imagelayer"/><g class="shapelayer"/></g><g class="cartesianlayer"><g class="subplot xy"><g class="layer-subplot"><g class="shapelayer"/><g class="imagelayer"/></g><g class="minor-gridlayer"><g class="x"/><g class="y"/></g><g class="gridlayer"><g class="x"/><g class="y"><path class="ygrid crisp" transform="translate(0,465.01)" d="M80,0h544" style="stroke: rgb(208, 208, 208); stroke-opacity: 1; stroke-width: 1px;"/><path class="ygrid crisp" transform="translate(0,410.4)" d="M80,0h544" style="stroke: rgb(208, 208, 208); stroke-opacity: 1; stroke-width: 1px;"/><path class="ygrid crisp" transform="translate(0,355.8)" d="M80,0h544" style="stroke: rgb(208, 208, 208); stroke-opacity: 1; stroke-width: 1px;"/><path class="ygrid crisp" transform="translate(0,301.19)" d="M80,0h544" style="stroke: rgb(208, 208, 208); stroke-opacity: 1; stroke-width: 1px;"/><path class="ygrid crisp" transform="translate(0,246.59)" d="M80,0h544" style="stroke: rgb(208, 208, 208); stroke-opacity: 1; stroke-width: 1px;"/><path class="ygrid crisp" transform="translate(0,191.99)" d="M80,0h544" style="stroke: rgb(208, 208, 208); stroke-opacity: 1; stroke-width: 1px;"/><path class="ygrid crisp" transform="translate(0,137.38)" d="M80,0h544" style="stroke: rgb(208, 208, 208); stroke-opacity: 1; stroke-width: 1px;"/><path class="ygrid crisp" transform="translate(0,82.78)" d="M80,0h544" style="stroke: rgb(208, 208, 208); stroke-opacity: 1; stroke-width: 1px;"/></g></g><g class="zerolinelayer"><path class="yzl zl crisp" transform="translate(0,519.61)" d="M80,0h544" style="stroke: rgb(255, 255, 255); stroke-opacity: 1; stroke-width: 2px;"/></g><path class="xlines-below"/><path class="ylines-below"/><g class="overlines-below"/><g class="xaxislayer-below"/><g class="yaxislayer-below"/><g class="overaxes-below"/><g class="plot" transform="translate(80,60)" clip-path="url(#clipb04671xyplot)"><g class="scatterlayer mlayer"><g class="trace scatter trace241273" style="stroke-miterlimit: 2; opacity: 1;"><g class="fills"/><g class="errorbars"/><g class="lines"><path class="js-line" d="M34.07,296.34L86.95,293.61L139.82,415.38L192.69,297.44L245.56,415.38L298.44,335.66L351.31,209.52L404.18,239.01L457.05,242.29L509.92,366.24" style="vector-effect: none; fill: none; stroke: rgb(160, 247, 218); stroke-opacity: 1; stroke-width: 2px; opacity: 1;"/></g><g class="points"><path class="point" transform="translate(34.07,296.34)" d="M5.5,0A5.5,5.5 0 1,1 0,-5.5A5.5,5.5 0 0,1 5.5,0Z" style="opacity: 1; stroke: rgb(160, 247, 218); stroke-opacity: 1; stroke-width: 1px; fill: none;"/><path class="point" transform="translate(86.95,293.61)" d="M5.5,0A5.5,5.5 0 1,1 0,-5.5A5.5,5.5 0 0,1 5.5,0Z" style="opacity: 1; stroke: rgb(160, 247, 218); stroke-opacity: 1; stroke-width: 1px; fill: none;"/><path class="point" transform="translate(139.82,415.38)" d="M5.5,0A5.5,5.5 0 1,1 0,-5.5A5.5,5.5 0 0,1 5.5,0Z" style="opacity: 1; stroke: rgb(160, 247, 218); stroke-opacity: 1; stroke-width: 1px; fill: none;"/><path class="point" transform="translate(192.69,297.44)" d="M5.5,0A5.5,5.5 0 1,1 0,-5.5A5.5,5.5 0 0,1 5.5,0Z" style="opacity: 1; stroke: rgb(160, 247, 218); stroke-opacity: 1; stroke-width: 1px; fill: none;"/><path class="point" transform="translate(245.56,415.38)" d="M5.5,0A5.5,5.5 0 1,1 0,-5.5A5.5,5.5 0 0,1 5.5,0Z" style="opacity: 1; stroke: rgb(160, 247, 218); stroke-opacity: 1; stroke-width: 1px; fill: none;"/><path class="point" transform="translate(298.44,335.66)" d="M5.5,0A5.5,5.5 0 1,1 0,-5.5A5.5,5.5 0 0,1 5.5,0Z" style="opacity: 1; stroke: rgb(160, 247, 218); stroke-opacity: 1; stroke-width: 1px; fill: none;"/><path class="point" transform="translate(351.31,209.52)" d="M5.5,0A5.5,5.5 0 1,1 0,-5.5A5.5,5.5 0 0,1 5.5,0Z" style="opacity: 1; stroke: rgb(160, 247, 218); stroke-opacity: 1; stroke-width: 1px; fill: none;"/><path class="point" transform="translate(404.18,239.01)" d="M5.5,0A5.5,5.5 0 1,1 0,-5.5A5.5,5.5 0 0,1 5.5,0Z" style="opacity: 1; stroke: rgb(160, 247, 218); stroke-opacity: 1; stroke-width: 1px; fill: none;"/><path class="point" transform="translate(457.05,242.29)" d="M5.5,0A5.5,5.5 0 1,1 0,-5.5A5.5,5.5 0 0,1 5.5,0Z" style="opacity: 1; stroke: rgb(160, 247, 218); stroke-opacity: 1; stroke-width: 1px; fill: none;"/><path class="point" transform="translate(509.92,366.24)" d="M5.5,0A5.5,5.5 0 1,1 0,-5.5A5.5,5.5 0 0,1 5.5,0Z" style="opacity: 1; stroke: rgb(160, 247, 218); stroke-opacity: 1; stroke-width: 1px; fill: none;"/></g><g class="text"/></g><g class="trace scatter trace517f04" style="stroke-miterlimit: 2; opacity: 1;"><g class="fills"/><g class="errorbars"/><g class="lines"><path class="js-line" d="M34.07,68.1L86.95,55.54L139.82,29.88L192.69,168.57L245.56,315.46L298.44,225.36L351.31,359.14L404.18,426.85L457.05,353.68L509.92,391.9" style="vector-effect: none; fill: none; stroke: rgb(11, 22, 226); stroke-opacity: 1; stroke-width: 2px; opacity: 1;"/></g><g class="points"><path class="point" transform="translate(34.07,68.1)" d="M5.5,0A5.5,5.5 0 1,1 0,-5.5A5.5,5.5 0 0,1 5.5,0Z" style="opacity: 1; stroke: rgb(11, 22, 226); stroke-opacity: 1; stroke-width: 1px; fill: none;"/><path class="point" transform="translate(86.95,55.54)" d="M5.5,0A5.5,5.5 0 1,1 0,-5.5A5.5,5.5 0 0,1 5.5,0Z" style="opacity: 1; stroke: rgb(11, 22, 226); stroke-opacity: 1; stroke-width: 1px; fill: none;"/><path class="point" transform="translate(139.82,29.88)" d="M5.5,0A5.5,5.5 0 1,1 0,-5.5A5.5,5.5 0 0,1 5.5,0Z" style="opacity: 1; stroke: rgb(11, 22, 226); stroke-opacity: 1; stroke-width: 1px; fill: none;"/><path class="point" transform="translate(192.69,168.57)" d="M5.5,0A5.5,5.5 0 1,1 0,-5.5A5.5,5.5 0 0,1 5.5,0Z" style="opacity: 1; stroke: rgb(11, 22, 226); stroke-opacity: 1; stroke-width: 1px; fill: none;"/><path class="point" transform="translate(245.56,315.46)" d="M5.5,0A5.5,5.5 0 1,1 0,-5.5A5.5,5.5 0 0,1 5.5,0Z" style="opacity: 1; stroke: rgb(11, 22, 226); stroke-opacity: 1; stroke-width: 1px; fill: none;"/><path class="point" transform="translate(298.44,225.36)" d="M5.5,0A5.5,5.5 0 1,1 0,-5.5A5.5,5.5 0 0,1 5.5,0Z" style="opacity: 1; stroke: rgb(11, 22, 226); stroke-opacity: 1; stroke-width: 1px; fill: none;"/><path class="point" transform="translate(351.31,359.14)" d="M5.5,0A5.5,5.5 0 1,1 0,-5.5A5.5,5.5 0 0,1 5.5,0Z" style="opacity: 1; stroke: rgb(11, 22, 226); stroke-opacity: 1; stroke-width: 1px; fill: none;"/><path class="point" transform="translate(404.18,426.85)" d="M5.5,0A5.5,5.5 0 1,1 0,-5.5A5.5,5.5 0 0,1 5.5,0Z" style="opacity: 1; stroke: rgb(11, 22, 226); stroke-opacity: 1; stroke-width: 1px; fill: none;"/><path class="point" transform="translate(457.05,353.68)" d="M5.5,0A5.5,5.5 0 1,1 0,-5.5A5.5,5.5 0 0,1 5.5,0Z" style="opacity: 1; stroke: rgb(11, 22, 226); stroke-opacity: 1; stroke-width: 1px; fill: none;"/><path class="point" transform="translate(509.92,391.9)" d="M5.5,0A5.5,5.5 0 1,1 0,-5.5A5.5,5.5 0 0,1 5.5,0Z" style="opacity: 1; stroke: rgb(11, 22, 226); stroke-opacity: 1; stroke-width: 1px; fill: none;"/></g><g class="text"/></g><g class="trace scatter trace16295a" style="stroke-miterlimit: 2; opacity: 1;"><g class="fills"/><g class="errorbars"/><g class="lines"><path class="js-line" d="M34.07,241.74L86.95,80.11L139.82,169.66L192.69,384.8L245.56,382.62L298.44,386.99L351.31,430.13L404.18,73.01L457.05,49.53L509.92,95.4" style="vector-effect: none; fill: none; stroke: rgb(94, 173, 219); stroke-opacity: 1; stroke-width: 2px; opacity: 1;"/></g><g class="points"><path class="point" transform="translate(34.07,241.74)" d="M5.5,0A5.5,5.5 0 1,1 0,-5.5A5.5,5.5 0 0,1 5.5,0Z" style="opacity: 1; stroke: rgb(94, 173, 219); stroke-opacity: 1; stroke-width: 1px; fill: none;"/><path class="point" transform="translate(86.95,80.11)" d="M5.5,0A5.5,5.5 0 1,1 0,-5.5A5.5,5.5 0 0,1 5.5,0Z" style="opacity: 1; stroke: rgb(94, 173, 219); stroke-opacity: 1; stroke-width: 1px; fill: none;"/><path class="point" transform="translate(139.82,169.66)" d="M5.5,0A5.5,5.5 0 1,1 0,-5.5A5.5,5.5 0 0,1 5.5,0Z" style="opacity: 1; stroke: rgb(94, 173, 219); stroke-opacity: 1; stroke-width: 1px; fill: none;"/><path class="point" transform="translate(192.69,384.8)" d="M5.5,0A5.5,5.5 0 1,1 0,-5.5A5.5,5.5 0 0,1 5.5,0Z" style="opacity: 1; stroke: rgb(94, 173, 219); stroke-opacity: 1; stroke-width: 1px; fill: none;"/><path class="point" transform="translate(245.56,382.62)" d="M5.5,0A5.5,5.5 0 1,1 0,-5.5A5.5,5.5 0 0,1 5.5,0Z" style="opacity: 1; stroke: rgb(94, 173, 219); stroke-opacity: 1; stroke-width: 1px; fill: none;"/><path class="point" transform="translate(298.44,386.99)" d="M5.5,0A5.5,5.5 0 1,1 0,-5.5A5.5,5.5 0 0,1 5.5,0Z" style="opacity: 1; stroke: rgb(94, 173, 219); stroke-opacity: 1; stroke-width: 1px; fill: none;"/><path class="point" transform="translate(351.31,430.13)" d="M5.5,0A5.5,5.5 0 1,1 0,-5.5A5.5,5.5 0 0,1 5.5,0Z" style="opacity: 1; stroke: rgb(94, 173, 219); stroke-opacity: 1; stroke-width: 1px; fill: none;"/><path class="point" transform="translate(404.18,73.01)" d="M5.5,0A5.5,5.5 0 1,1 0,-5.5A5.5,5.5 0 0,1 5.5,0Z" style="opacity: 1; stroke: rgb(94, 173, 219); stroke-opacity: 1; stroke-width: 1px; fill: none;"/><path class="point" transform="translate(457.05,49.53)" d="M5.5,0A5.5,5.5 0 1,1 0,-5.5A5.5,5.5 0 0,1 5.5,0Z" style="opacity: 1; stroke: rgb(94, 173, 219); stroke-opacity: 1; stroke-width: 1px; fill: none;"/><path class="point" transform="translate(509.92,95.4)" d="M5.5,0A5.5,5.5 0 1,1 0,-5.5A5.5,5.5 0 0,1 5.5,0Z" style="opacity: 1; stroke: rgb(94, 173, 219); stroke-opacity: 1; stroke-width: 1px; fill: none;"/></g><g class="text"/></g></g></g><g class="overplot"/><path class="xlines-above crisp" d="M0,0" style="fill: none;"/><path class="ylines-above crisp" d="M79.5,60V520" style="fill: none; stroke-width: 1px; stroke: rgb(255, 255, 255); stroke-opacity: 1;"/><g class="overlines-above"/><g class="xaxislayer-above"><g class="xtick"><text text-anchor="start" x="0" y="536" transform="translate(114.07,0) rotate(45,0,528.5)" style="font-family: Balto; font-size: 15px; fill: rgb(0, 0, 0); fill-opacity: 1; white-space: pre; opacity: 1;">Jan</text></g><g class="xtick"><text text-anchor="start" x="0" y="536" transform="translate(166.95,0) rotate(45,0,528.5)" style="font-family: Balto; font-size: 15px; fill: rgb(0, 0, 0); fill-opacity: 1; white-space: pre; opacity: 1;">Feb</text></g><g class="xtick"><text text-anchor="start" x="0" y="536" transform="translate(219.82,0) rotate(45,0,528.5)" style="font-family: Balto; font-size: 15px; fill: rgb(0, 0, 0); fill-opacity: 1; white-space: pre; opacity: 1;">Mar</text></g><g class="xtick"><text text-anchor="start" x="0" y="536" transform="translate(272.69,0) rotate(45,0,528.5)" style="font-family: Balto; font-size: 15px; fill: rgb(0, 0, 0); fill-opacity: 1; white-space: pre; opacity: 1;">Apr</text></g><g class="xtick"><text text-anchor="start" x="0" y="536" transform="translate(325.56,0) rotate(45,0,528.5)" style="font-family: Balto; font-size: 15px; fill: rgb(0, 0, 0); fill-opacity: 1; white-space: pre; opacity: 1;">May</text></g><g class="xtick"><text text-anchor="start" x="0" y="536" transform="translate(378.44,0) rotate(45,0,528.5)" style="font-family: Balto; font-size: 15px; fill: rgb(0, 0, 0); fill-opacity: 1; white-space: pre; opacity: 1;">June</text></g><g class="xtick"><text text-anchor="start" x="0" y="536" transform="translate(431.31,0) rotate(45,0,528.5)" style="font-family: Balto; font-size: 15px; fill: rgb(0, 0, 0); fill-opacity: 1; white-space: pre; opacity: 1;">July</text></g><g class="xtick"><text text-anchor="start" x="0" y="536" transform="translate(484.18,0) rotate(45,0,528.5)" style="font-family: Balto; font-size: 15px; fill: rgb(0, 0, 0); fill-opacity: 1; white-space: pre; opacity: 1;">Aug</text></g><g class="xtick"><text text-anchor="start" x="0" y="536" transform="translate(537.05,0) rotate(45,0,528.5)" style="font-family: Balto; font-size: 15px; fill: rgb(0, 0, 0); fill-opacity: 1; white-space: pre; opacity: 1;">Sep</text></g><g class="xtick"><text text-anchor="start" x="0" y="536" transform="translate(589.9200000000001,0) rotate(45,0,528.5)" style="font-family: Balto; font-size: 15px; fill: rgb(0, 0, 0); fill-opacity: 1; white-space: pre; opacity: 1;">Oct</text></g></g><g class="yaxislayer-above"><g class="ytick"><text text-anchor="end" x="76" y="5.25" transform="translate(0,519.61)" style="font-family: Balto; font-size: 15px; fill: rgb(0, 0, 0); fill-opacity: 1; white-space: pre; opacity: 1;">0</text></g><g class="ytick"><text text-anchor="end" x="76" y="5.25" style="font-family: Balto; font-size: 15px; fill: rgb(0, 0, 0); fill-opacity: 1; white-space: pre; opacity: 1;" transform="translate(0,465.01)">100</text></g><g class="ytick"><text text-anchor="end" x="76" y="5.25" style="font-family: Balto; font-size: 15px; fill: rgb(0, 0, 0); fill-opacity: 1; white-space: pre; opacity: 1;" transform="translate(0,410.4)">200</text></g><g class="ytick"><text text-anchor="end" x="76" y="5.25" style="font-family: Balto; font-size: 15px; fill: rgb(0, 0, 0); fill-opacity: 1; white-space: pre; opacity: 1;" transform="translate(0,355.8)">300</text></g><g class="ytick"><text text-anchor="end" x="76" y="5.25" style="font-family: Balto; font-size: 15px; fill: rgb(0, 0, 0); fill-opacity: 1; white-space: pre; opacity: 1;" transform="translate(0,301.19)">400</text></g><g class="ytick"><text text-anchor="end" x="76" y="5.25" style="font-family: Balto; font-size: 15px; fill: rgb(0, 0, 0); fill-opacity: 1; white-space: pre; opacity: 1;" transform="translate(0,246.59)">500</text></g><g class="ytick"><text text-anchor="end" x="76" y="5.25" style="font-family: Balto; font-size: 15px; fill: rgb(0, 0, 0); fill-opacity: 1; white-space: pre; opacity: 1;" transform="translate(0,191.99)">600</text></g><g class="ytick"><text text-anchor="end" x="76" y="5.25" style="font-family: Balto; font-size: 15px; fill: rgb(0, 0, 0); fill-opacity: 1; white-space: pre; opacity: 1;" transform="translate(0,137.38)">700</text></g><g class="ytick"><text text-anchor="end" x="76" y="5.25" style="font-family: Balto; font-size: 15px; fill: rgb(0, 0, 0); fill-opacity: 1; white-space: pre; opacity: 1;" transform="translate(0,82.78)">800</text></g></g><g class="overaxes-above"/></g></g><g class="polarlayer"/><g class="smithlayer"/><g class="ternarylayer"/><g class="geolayer"/><g class="funnelarealayer"/><g class="pielayer"/><g class="iciclelayer"/><g class="treemaplayer"/><g class="sunburstlayer"/><g class="glimages"/><defs id="topdefs-b04671"><g class="clips"/><clipPath id="legendb04671"><rect width="160" height="86" x="0" y="0"/></clipPath></defs><g class="layer-above"><g class="imagelayer"/><g class="shapelayer"/></g><g class="infolayer"><g class="legend" pointer-events="all" transform="translate(634.88,60)"><rect class="bg" shape-rendering="crispEdges" style="stroke: rgb(68, 68, 68); stroke-opacity: 1; fill: rgb(255, 255, 255); fill-opacity: 1; stroke-width: 0px;" width="160" height="86" x="0" y="0"/><g class="scrollbox" transform="" clip-path="url(#legendb04671)"><text class="legendtitletext" text-anchor="start" x="2" y="18.2" style="font-family: Balto; font-size: 14px; fill: rgb(42, 63, 95); fill-opacity: 1; white-space: pre;">thus official ask</text><g class="groups" transform=""><g class="traces" transform="translate(0,32.7)" style="opacity: 1;"><text class="legendtext" text-anchor="start" x="40" y="4.680000000000001" style="font-family: Balto; font-size: 12px; fill: rgb(42, 63, 95); fill-opacity: 1; white-space: pre;">oil effort rock</text><g class="layers" style="opacity: 1;"><g class="legendfill"/><g class="legendlines"><path class="js-line" d="M5,0h30" style="fill: none; stroke: rgb(160, 247, 218); stroke-opacity: 1; stroke-width: 2px;"/></g><g class="legendsymbols"><g class="legendpoints"><path class="scatterpts" transform="translate(20,0)" d="M5.5,0A5.5,5.5 0 1,1 0,-5.5A5.5,5.5 0 0,1 5.5,0Z" style="opacity: 1; stroke: rgb(160, 247, 218); stroke-opacity: 1; stroke-width: 1px; fill: none;"/></g></g></g><rect class="legendtoggle" x="0" y="-9.5" width="154.984375" height="19" style="fill: rgb(0, 0, 0); fill-opacity: 0;"/></g></g><g class="groups" transform=""><g class="traces" transform="translate(0,51.7)" style="opacity: 1;"><text class="legendtext" text-anchor="start" x="40" y="4.680000000000001" style="font-family: Balto; font-size: 12px; fill: rgb(42, 63, 95); fill-opacity: 1; white-space: pre;">position sort travel</text><g class="layers" style="opacity: 1;"><g class="legendfill"/><g class="legendlines"><path class="js-line" d="M5,0h30" style="fill: none; stroke: rgb(11, 22, 226); stroke-opacity: 1; stroke-width: 2px;"/></g><g class="legendsymbols"><g class="legendpoints"><path class="scatterpts" transform="translate(20,0)" d="M5.5,0A5.5,5.5 0 1,1 0,-5.5A5.5,5.5 0 0,1 5.5,0Z" style="opacity: 1; stroke: rgb(11, 22, 226); stroke-opacity: 1; stroke-width: 1px; fill: none;"/></g></g></g><rect class="legendtoggle" x="0" y="-9.5" width="154.984375" height="19" style="fill: rgb(0, 0, 0); fill-opacity: 0;"/></g></g><g class="groups" transform=""><g class="traces" transform="translate(0,70.7)" style="opacity: 1;"><text class="legendtext" text-anchor="start" x="40" y="4.680000000000001" style="font-family: Balto; font-size: 12px; fill: rgb(42, 63, 95); fill-opacity: 1; white-space: pre;">possible report scientist</text><g class="layers" style="opacity: 1;"><g class="legendfill"/><g class="legendlines"><path class="js-line" d="M5,0h30" style="fill: none; stroke: rgb(94, 173, 219); stroke-opacity: 1; stroke-width: 2px;"/></g><g class="legendsymbols"><g class="legendpoints"><path class="scatterpts" transform="translate(20,0)" d="M5.5,0A5.5,5.5 0 1,1 0,-5.5A5.5,5.5 0 0,1 5.5,0Z" style="opacity: 1; stroke: rgb(94, 173, 219); stroke-opacity: 1; stroke-width: 1px; fill: none;"/></g></g></g><rect class="legendtoggle" x="0" y="-9.5" width="154.984375" height="19" style="fill: rgb(0, 0, 0); fill-opacity: 0;"/></g></g></g><rect class="scrollbar" rx="20" ry="3" width="0" height="0" style="fill: rgb(128, 139, 164); fill-opacity: 1;" x="0" y="0"/></g><g class="g-gtitle"><text class="gtitle" x="403.5" y="30" text-anchor="middle" dy="0em" style="font-family: Balto; font-size: 25px; fill: rgb(0, 0, 0); opacity: 1; font-weight: normal; white-space: pre;">pull learn most</text></g><g class="g-xtitle"/><g class="g-ytitle"><text class="ytitle" transform="rotate(-90,29.200000000000003,290)" x="29.200000000000003" y="290" text-anchor="middle" style="font-family: Balto; font-size: 14px; fill: rgb(0, 0, 0); opacity: 1; font-weight: normal; white-space: pre;">role under common</text></g></g></svg>