<svg class="main-svg" xmlns="http://www.w3.org/2000/svg" xmlns:xlink="http://www.w3.org/1999/xlink" width="815" height="600" style="" viewBox="0 0 815 600"><rect x="0" y="0" width="815" height="600" style="fill: rgb(255, 255, 255); fill-opacity: 1;"/><defs id="defs-7250dd"><g class="clips"><clipPath id="clip7250ddxyplot" class="plotclip"><rect width="655" height="454"/></clipPath><clipPath class="axesclip" id="clip7250ddx"><rect x="80" y="0" width="655" height="600"/></clipPath><clipPath class="axesclip" id="clip7250ddy"><rect x="0" y="60" width="815" height="454"/></clipPath><clipPath class="axesclip" id="clip7250ddxy"><rect x="80" y="60" width="655" height="454"/></clipPath></g><g class="gradients"/><g class="patterns"/></defs><g class="bglayer"><rect class="bg" x="80" y="60" width="655" height="454" style="fill: rgb(51, 51, 51); fill-opacity: 1; stroke-width: 0;"/></g><g class="layer-below"><g class="imagelayer"/><g class="shapelayer"/></g><g class="cartesianlayer"><g class="subplot xy"><g class="layer-subplot"><g class="shapelayer"/><g class="imagelayer"/></g><g class="minor-gridlayer"><g class="x"/><g class="y"/></g><g class="gridlayer"><g class="x"><path class="xgrid crisp" transform="translate(177.2,0)" d="M0,60v454" style="stroke: rgb(116, 116, 116); stroke-opacity: 1; stroke-width: 1px;"/><path class="xgrid crisp" transform="translate(292.35,0)" d="M0,60v454" style="stroke: rgb(116, 116, 116); stroke-opacity: 1; stroke-width: 1px;"/><path class="xgrid crisp" transform="translate(407.5,0)" d="M0,60v454" style="stroke: rgb(116, 116, 116); stroke-opacity: 1; stroke-width: 1px;"/><path class="xgrid crisp" transform="translate(522.65,0)" d="M0,60v454" style="stroke: rgb(116, 116, 116); stroke-opacity: 1; stroke-width: 1px;"/><path class="xgrid crisp" transform="translate(637.8,0)" d="M0,60v454" style="stroke: rgb(116, 116, 116); stroke-opacity: 1; stroke-width: 1px;"/></g><g class="y"><path class="ygrid crisp" transform="translate(0,483.64)" d="M80,0h655" style="stroke: rgb(116, 116, 116); stroke-opacity: 1; stroke-width: 1px;"/><path class="ygrid crisp" transform="translate(0,404.67)" d="M80,0h655" style="stroke: rgb(116, 116, 116); stroke-opacity: 1; stroke-width: 1px;"/><path class="ygrid crisp" transform="translate(0,325.7)" d="M80,0h655" style="stroke: rgb(116, 116, 116); stroke-opacity: 1; stroke-width: 1px;"/><path class="ygrid crisp" transform="translate(0,246.73)" d="M80,0h655" style="stroke: rgb(116, 116, 116); stroke-opacity: 1; stroke-width: 1px;"/><path class="ygrid crisp" transform="translate(0,167.76)" d="M80,0h655" style="stroke: rgb(116, 116, 116); stroke-opacity: 1; stroke-width: 1px;"/><path class="ygrid crisp" transform="translate(0,88.78999999999999)" d="M80,0h655" style="stroke: rgb(116, 116, 116); stroke-opacity: 1; stroke-width: 1px;"/></g></g><g class="zerolinelayer"/><path class="xlines-below"/><path class="ylines-below"/><g class="overlines-below"/><g class="xaxislayer-below"/><g class="yaxislayer-below"/><g class="overaxes-below"/><g class="plot" transform="translate(80,60)" clip-path="url(#clip7250ddxyplot)"><g class="scatterlayer mlayer"><g class="trace scatter trace9306d6" style="stroke-miterlimit: 2; opacity: 1;"><g class="fills"/><g class="errorbars"/><g class="lines"><path class="js-line" d="M39.62,36.68L97.2,29.57L154.77,424.43L212.35,217.52L269.92,165.4L327.5,271.22L385.07,56.42L442.65,257.8L500.22,56.42L557.8,73.8L615.38,227.79" style="vector-effect: none; fill: none; stroke: rgb(234, 138, 194); stroke-opacity: 1; stroke-width: 2px; opacity: 1;"/></g><g class="points"><path class="point" transform="translate(39.62,36.68)" d="M5.5,0A5.5,5.5 0 1,1 0,-5.5A5.5,5.5 0 0,1 5.5,0Z" style="opacity: 1; stroke: rgb(234, 138, 194); stroke-opacity: 1; stroke-width: 1px; fill: none;"/><path class="point" transform="translate(97.2,29.57)" d="M5.5,0A5.5,5.5 0 1,1 0,-5.5A5.5,5.5 0 0,1 5.5,0Z" style="opacity: 1; stroke: rgb(234, 138, 194); stroke-opacity: 1; stroke-width: 1px; fill: none;"/><path class="point" transform="translate(154.77,424.43)" d="M5.5,0A5.5,5.5 0 1,1 0,-5.5A5.5,5.5 0 0,1 5.5,0Z" style="opacity: 1; stroke: rgb(234, 138, 194); stroke-opacity: 1; stroke-width: 1px; fill: none;"/><path class="point" transform="translate(212.35,217.52)" d="M5.5,0A5.5,5.5 0 1,1 0,-5.5A5.5,5.5 0 0,1 5.5,0Z" style="opacity: 1; stroke: rgb(234, 138, 194); stroke-opacity: 1; stroke-width: 1px; fill: none;"/><path class="point" transform="translate(269.92,165.4)" d="M5.5,0A5.5,5.5 0 1,1 0,-5.5A5.5,5.5 0 0,1 5.5,0Z" style="opacity: 1; stroke: rgb(234, 138, 194); stroke-opacity: 1; stroke-width: 1px; fill: none;"/><path class="point" transform="translate(327.5,271.22)" d="M5.5,0A5.5,5.5 0 1,1 0,-5.5A5.5,5.5 0 0,1 5.5,0Z" style="opacity: 1; stroke: rgb(234, 138, 194); stroke-opacity: 1; stroke-width: 1px; fill: none;"/><path class="point" transform="translate(385.07,56.42)" d="M5.5,0A5.5,5.5 0 1,1 0,-5.5A5.5,5.5 0 0,1 5.5,0Z" style="opacity: 1; stroke: rgb(234, 138, 194); stroke-opacity: 1; stroke-width: 1px; fill: none;"/><path class="point" transform="translate(442.65,257.8)" d="M5.5,0A5.5,5.5 0 1,1 0,-5.5A5.5,5.5 0 0,1 5.5,0Z" style="opacity: 1; stroke: rgb(234, 138, 194); stroke-opacity: 1; stroke-width: 1px; fill: none;"/><path class="point" transform="translate(500.22,56.42)" d="M5.5,0A5.5,5.5 0 1,1 0,-5.5A5.5,5.5 0 0,1 5.5,0Z" style="opacity: 1; stroke: rgb(234, 138, 194); stroke-opacity: 1; stroke-width: 1px; fill: none;"/><path class="point" transform="translate(557.8,73.8)" d="M5.5,0A5.5,5.5 0 1,1 0,-5.5A5.5,5.5 0 0,1 5.5,0Z" style="opacity: 1; stroke: rgb(234, 138, 194); stroke-opacity: 1; stroke-width: 1px; fill: none;"/><path class="point" transform="translate(615.38,227.79)" d="M5.5,0A5.5,5.5 0 1,1 0,-5.5A5.5,5.5 0 0,1 5.5,0Z" style="opacity: 1; stroke: rgb(234, 138, 194); stroke-opacity: 1; stroke-width: 1px; fill: none;"/></g><g class="text"/></g></g></g><g class="overplot"/><path class="xlines-above crisp" d="M0,0" style="fill: none;"/><path class="ylines-above crisp" d="M0,0" style="fill: none;"/><g class="overlines-above"/><g class="xaxislayer-above"><g class="xtick"><text text-anchor="start" x="3.5" y="525" transform="translate(177.2,0) rotate(90,3.5,515)" style="font-family: avenir; font-size: 20px; fill: rgb(0, 0, 0); fill-opacity: 1; white-space: pre; opacity: 1;">1914</text></g><g class="xtick"><text text-anchor="start" x="3.5" y="525" style="font-family: avenir; font-size: 20px; fill: rgb(0, 0, 0); fill-opacity: 1; white-space: pre; opacity: 1;" transform="translate(292.35,0) rotate(90,3.5,515)">1916</text></g><g class="xtick"><text text-anchor="start" x="3.5" y="525" style="font-family: avenir; font-size: 20px; fill: rgb(0, 0, 0); fill-opacity: 1; white-space: pre; opacity: 1;" transform="translate(407.5,0) rotate(90,3.5,515)">1918</text></g><g class="xtick"><text text-anchor="start" x="3.5" y="525" style="font-family: avenir; font-size: 20px; fill: rgb(0, 0, 0); fill-opacity: 1; white-space: pre; opacity: 1;" transform="translate(522.65,0) rotate(90,3.5,515)">1920</text></g><g class="xtick"><text text-anchor="start" x="3.5" y="525" style="font-family: avenir; font-size: 20px; fill: rgb(0, 0, 0); fill-opacity: 1; white-space: pre; opacity: 1;" transform="translate(637.8,0) rotate(90,3.5,515)">1922</text></g></g><g class="yaxislayer-above"><g class="ytick"><text text-anchor="end" x="79" y="7" transform="translate(0,483.64)" style="font-family: avenir; font-size: 20px; fill: rgb(0, 0, 0); fill-opacity: 1; white-space: pre; opacity: 1;">100</text></g><g class="ytick"><text text-anchor="end" x="79" y="7" style="font-family: avenir; font-size: 20px; fill: rgb(0, 0, 0); fill-opacity: 1; white-space: pre; opacity: 1;" transform="translate(0,404.67)">200</text></g><g class="ytick"><text text-anchor="end" x="79" y="7" style="font-family: avenir; font-size: 20px; fill: rgb(0, 0, 0); fill-opacity: 1; white-space: pre; opacity: 1;" transform="translate(0,325.7)">300</text></g><g class="ytick"><text text-anchor="end" x="79" y="7" style="font-family: avenir; font-size: 20px; fill: rgb(0, 0, 0); fill-opacity: 1; white-space: pre; opacity: 1;" transform="translate(0,246.73)">400</text></g><g class="ytick"><text text-anchor="end" x="79" y="7" style="font-family: avenir; font-size: 20px; fill: rgb(0, 0, 0); fill-opacity: 1; white-space: pre; opacity: 1;" transform="translate(0,167.76)">500</text></g><g class="ytick"><text text-anchor="end" x="79" y="7" style="font-family: avenir; font-size: 20px; fill: rgb(0, 0, 0); fill-opacity: 1; white-space: pre; opacity: 1;" transform="translate(0,88.78999999999999)">600</text></g></g><g class="overaxes-above"/></g></g><g class="polarlayer"/><g class="smithlayer"/><g class="ternarylayer"/><g class="geolayer"/><g class="funnelarealayer"/><g class="pielayer"/><g class="iciclelayer"/><g class="treemaplayer"/><g class="sunburstlayer"/><g class="glimages"/><defs id="topdefs-7250dd"><g class="clips"/><clipPath id="legend7250dd"><rect width="226" height="29" x="0" y="0"/></clipPath></defs><g class="layer-above"><g class="imagelayer"/><g class="shapelayer"/></g><g class="infolayer"><g class="legend" pointer-events="all" transform="translate(80,559.4000000000001)"><rect class="bg" shape-rendering="crispEdges" style="stroke: rgb(68, 68, 68); stroke-opacity: 1; fill: rgb(255, 255, 255); fill-opacity: 1; stroke-width: 0px;" width="226" height="29" x="0" y="0"/><g class="scrollbox" transform="" clip-path="url(#legend7250dd)"><text class="legendtitletext" text-anchor="start" x="2" y="18.2" style="font-family: avenir; font-size: 14px; fill: rgb(42, 63, 95); fill-opacity: 1; white-space: pre;">suffer board view</text><g class="groups" transform=""><g class="traces" transform="translate(109.375,14.5)" style="opacity: 1;"><text class="legendtext" text-anchor="start" x="40" y="4.680000000000001" style="font-family: avenir; font-size: 12px; fill: rgb(42, 63, 95); fill-opacity: 1; white-space: pre;">story more sea</text><g class="layers" style="opacity: 1;"><g class="legendfill"/><g class="legendlines"><path class="js-line" d="M5,0h30" style="fill: none; stroke: rgb(234, 138, 194); stroke-opacity: 1; stroke-width: 2px;"/></g><g class="legendsymbols"><g class="legendpoints"><path class="scatterpts" transform="translate(20,0)" d="M5.5,0A5.5,5.5 0 1,1 0,-5.5A5.5,5.5 0 0,1 5.5,0Z" style="opacity: 1; stroke: rgb(234, 138, 194); stroke-opacity: 1; stroke-width: 1px; fill: none;"/></g></g></g><rect class="legendtoggle" x="0" y="-9.5" width="113.15625" height="19" style="fill: rgb(0, 0, 0); fill-opacity: 0;"/></g></g></g><rect class="scrollbar" rx="20" ry="3" width="0" height="0" style="fill: rgb(128, 139, 164); fill-opacity: 1;" x="0" y="0"/></g><g class="g-gtitle"><text class="gtitle" x="407.5" y="30" text-anchor="start" dy="0em" style="font-family: avenir; font-size: 25px; fill: rgb(0, 0, 0); opacity: 1; font-weight: normal; white-space: pre;">choose audience front</text></g><g class="g-xtitle"/><g class="g-ytitle"><text class="ytitle" transform="rotate(-90,24.700000000000003,287)" x="24.700000000000003" y="287" text-anchor="middle" style="font-family: avenir; font-size: 14px; fill: rgb(0, 0, 0); opacity: 1; font-weight: normal; white-space: pre;">maybe television sign</text></g></g></svg>