<svg class="main-svg" xmlns="http://www.w3.org/2000/svg" xmlns:xlink="http://www.w3.org/1999/xlink" width="974" height="600" style="" viewBox="0 0 974 600"><rect x="0" y="0" width="974" height="600" style="fill: rgb(255, 255, 255); fill-opacity: 1;"/><defs id="defs-cfb405"><g class="clips"><clipPath id="clipcfb405xyplot" class="plotclip"><rect width="814" height="454"/></clipPath><clipPath class="axesclip" id="clipcfb405x"><rect x="80" y="0" width="814" height="600"/></clipPath><clipPath class="axesclip" id="clipcfb405y"><rect x="0" y="60" width="974" height="454"/></clipPath><clipPath class="axesclip" id="clipcfb405xy"><rect x="80" y="60" width="814" height="454"/></clipPath></g><g class="gradients"/><g class="patterns"/></defs><g class="bglayer"><rect class="bg" x="80" y="60" width="814" height="454" style="fill: rgb(51, 51, 51); fill-opacity: 1; stroke-width: 0;"/></g><g class="layer-below"><g class="imagelayer"/><g class="shapelayer"/></g><g class="cartesianlayer"><g class="subplot xy"><g class="layer-subplot"><g class="shapelayer"/><g class="imagelayer"/></g><g class="minor-gridlayer"><g class="x"/><g class="y"/></g><g class="gridlayer"><g class="x"><path class="xgrid crisp" transform="translate(93.43,0)" d="M0,60v454" style="stroke: rgb(116, 116, 116); stroke-opacity: 1; stroke-width: 1px;"/><path class="xgrid crisp" transform="translate(244.8,0)" d="M0,60v454" style="stroke: rgb(116, 116, 116); stroke-opacity: 1; stroke-width: 1px;"/><path class="xgrid crisp" transform="translate(396.18,0)" d="M0,60v454" style="stroke: rgb(116, 116, 116); stroke-opacity: 1; stroke-width: 1px;"/><path class="xgrid crisp" transform="translate(547.55,0)" d="M0,60v454" style="stroke: rgb(116, 116, 116); stroke-opacity: 1; stroke-width: 1px;"/><path class="xgrid crisp" transform="translate(698.93,0)" d="M0,60v454" style="stroke: rgb(116, 116, 116); stroke-opacity: 1; stroke-width: 1px;"/><path class="xgrid crisp" transform="translate(850.3,0)" d="M0,60v454" style="stroke: rgb(116, 116, 116); stroke-opacity: 1; stroke-width: 1px;"/></g><g class="y"/></g><g class="zerolinelayer"><path class="yzl zl crisp" transform="translate(0,494.02)" d="M80,0h814" style="stroke: rgb(255, 255, 255); stroke-opacity: 1; stroke-width: 2px;"/></g><path class="xlines-below"/><path class="ylines-below"/><g class="overlines-below"/><g class="xaxislayer-below"/><g class="yaxislayer-below"/><g class="overaxes-below"/><g class="plot" transform="translate(80,60)" clip-path="url(#clipcfb405xyplot)"><g class="scatterlayer mlayer"><g class="trace scatter trace0dbcb0" style="stroke-miterlimit: 2; opacity: 1;"><g class="fills"/><g class="errorbars"/><g class="lines"><path class="js-line" d="M43.7,306.18L164.8,277.56L285.9,54.32L407,147.82L528.1,229.86L649.2,48.6L770.3,355.79" style="vector-effect: none; fill: none; stroke: rgb(181, 123, 206); stroke-opacity: 1; stroke-width: 2px; opacity: 1;"/></g><g class="points"><path class="point" transform="translate(43.7,306.18)" d="M3,0A3,3 0 1,1 0,-3A3,3 0 0,1 3,0Z" style="opacity: 1; stroke-width: 0px; fill: rgb(181, 123, 206); fill-opacity: 1;"/><path class="point" transform="translate(164.8,277.56)" d="M3,0A3,3 0 1,1 0,-3A3,3 0 0,1 3,0Z" style="opacity: 1; stroke-width: 0px; fill: rgb(181, 123, 206); fill-opacity: 1;"/><path class="point" transform="translate(285.9,54.32)" d="M3,0A3,3 0 1,1 0,-3A3,3 0 0,1 3,0Z" style="opacity: 1; stroke-width: 0px; fill: rgb(181, 123, 206); fill-opacity: 1;"/><path class="point" transform="translate(407,147.82)" d="M3,0A3,3 0 1,1 0,-3A3,3 0 0,1 3,0Z" style="opacity: 1; stroke-width: 0px; fill: rgb(181, 123, 206); fill-opacity: 1;"/><path class="point" transform="translate(528.1,229.86)" d="M3,0A3,3 0 1,1 0,-3A3,3 0 0,1 3,0Z" style="opacity: 1; stroke-width: 0px; fill: rgb(181, 123, 206); fill-opacity: 1;"/><path class="point" transform="translate(649.2,48.6)" d="M3,0A3,3 0 1,1 0,-3A3,3 0 0,1 3,0Z" style="opacity: 1; stroke-width: 0px; fill: rgb(181, 123, 206); fill-opacity: 1;"/><path class="point" transform="translate(770.3,355.79)" d="M3,0A3,3 0 1,1 0,-3A3,3 0 0,1 3,0Z" style="opacity: 1; stroke-width: 0px; fill: rgb(181, 123, 206); fill-opacity: 1;"/></g><g class="text"/></g><g class="trace scatter trace9185fe" style="stroke-miterlimit: 2; opacity: 1;"><g class="fills"/><g class="errorbars"/><g class="lines"><path class="js-line" d="M43.7,369.15L164.8,290.92L285.9,279.47L407,395.86L528.1,315.72L649.2,92.48L770.3,252.76" style="vector-effect: none; fill: none; stroke: rgb(128, 84, 216); stroke-opacity: 1; stroke-width: 2px; opacity: 1;"/></g><g class="points"><path class="point" transform="translate(43.7,369.15)" d="M3,0A3,3 0 1,1 0,-3A3,3 0 0,1 3,0Z" style="opacity: 1; stroke-width: 0px; fill: rgb(128, 84, 216); fill-opacity: 1;"/><path class="point" transform="translate(164.8,290.92)" d="M3,0A3,3 0 1,1 0,-3A3,3 0 0,1 3,0Z" style="opacity: 1; stroke-width: 0px; fill: rgb(128, 84, 216); fill-opacity: 1;"/><path class="point" transform="translate(285.9,279.47)" d="M3,0A3,3 0 1,1 0,-3A3,3 0 0,1 3,0Z" style="opacity: 1; stroke-width: 0px; fill: rgb(128, 84, 216); fill-opacity: 1;"/><path class="point" transform="translate(407,395.86)" d="M3,0A3,3 0 1,1 0,-3A3,3 0 0,1 3,0Z" style="opacity: 1; stroke-width: 0px; fill: rgb(128, 84, 216); fill-opacity: 1;"/><path class="point" transform="translate(528.1,315.72)" d="M3,0A3,3 0 1,1 0,-3A3,3 0 0,1 3,0Z" style="opacity: 1; stroke-width: 0px; fill: rgb(128, 84, 216); fill-opacity: 1;"/><path class="point" transform="translate(649.2,92.48)" d="M3,0A3,3 0 1,1 0,-3A3,3 0 0,1 3,0Z" style="opacity: 1; stroke-width: 0px; fill: rgb(128, 84, 216); fill-opacity: 1;"/><path class="point" transform="translate(770.3,252.76)" d="M3,0A3,3 0 1,1 0,-3A3,3 0 0,1 3,0Z" style="opacity: 1; stroke-width: 0px; fill: rgb(128, 84, 216); fill-opacity: 1;"/></g><g class="text"/></g><g class="trace scatter trace2d1cac" style="stroke-miterlimit: 2; opacity: 1;"><g class="fills"/><g class="errorbars"/><g class="lines"><path class="js-line" d="M43.7,119.19L164.8,306.18L285.9,237.49L407,351.98L528.1,290.92L649.2,325.26L770.3,317.63" style="vector-effect: none; fill: none; stroke: rgb(247, 136, 219); stroke-opacity: 1; stroke-width: 2px; opacity: 1;"/></g><g class="points"><path class="point" transform="translate(43.7,119.19)" d="M3,0A3,3 0 1,1 0,-3A3,3 0 0,1 3,0Z" style="opacity: 1; stroke-width: 0px; fill: rgb(247, 136, 219); fill-opacity: 1;"/><path class="point" transform="translate(164.8,306.18)" d="M3,0A3,3 0 1,1 0,-3A3,3 0 0,1 3,0Z" style="opacity: 1; stroke-width: 0px; fill: rgb(247, 136, 219); fill-opacity: 1;"/><path class="point" transform="translate(285.9,237.49)" d="M3,0A3,3 0 1,1 0,-3A3,3 0 0,1 3,0Z" style="opacity: 1; stroke-width: 0px; fill: rgb(247, 136, 219); fill-opacity: 1;"/><path class="point" transform="translate(407,351.98)" d="M3,0A3,3 0 1,1 0,-3A3,3 0 0,1 3,0Z" style="opacity: 1; stroke-width: 0px; fill: rgb(247, 136, 219); fill-opacity: 1;"/><path class="point" transform="translate(528.1,290.92)" d="M3,0A3,3 0 1,1 0,-3A3,3 0 0,1 3,0Z" style="opacity: 1; stroke-width: 0px; fill: rgb(247, 136, 219); fill-opacity: 1;"/><path class="point" transform="translate(649.2,325.26)" d="M3,0A3,3 0 1,1 0,-3A3,3 0 0,1 3,0Z" style="opacity: 1; stroke-width: 0px; fill: rgb(247, 136, 219); fill-opacity: 1;"/><path class="point" transform="translate(770.3,317.63)" d="M3,0A3,3 0 1,1 0,-3A3,3 0 0,1 3,0Z" style="opacity: 1; stroke-width: 0px; fill: rgb(247, 136, 219); fill-opacity: 1;"/></g><g class="text"/></g><g class="trace scatter trace539f4a" style="stroke-miterlimit: 2; opacity: 1;"><g class="fills"/><g class="errorbars"/><g class="lines"><path class="js-line" d="M43.7,334.81L164.8,428.3L285.9,208.87L407,25.7L528.1,353.89L649.2,292.83L770.3,277.56" style="vector-effect: none; fill: none; stroke: rgb(249, 186, 157); stroke-opacity: 1; stroke-width: 2px; opacity: 1;"/></g><g class="points"><path class="point" transform="translate(43.7,334.81)" d="M3,0A3,3 0 1,1 0,-3A3,3 0 0,1 3,0Z" style="opacity: 1; stroke-width: 0px; fill: rgb(249, 186, 157); fill-opacity: 1;"/><path class="point" transform="translate(164.8,428.3)" d="M3,0A3,3 0 1,1 0,-3A3,3 0 0,1 3,0Z" style="opacity: 1; stroke-width: 0px; fill: rgb(249, 186, 157); fill-opacity: 1;"/><path class="point" transform="translate(285.9,208.87)" d="M3,0A3,3 0 1,1 0,-3A3,3 0 0,1 3,0Z" style="opacity: 1; stroke-width: 0px; fill: rgb(249, 186, 157); fill-opacity: 1;"/><path class="point" transform="translate(407,25.7)" d="M3,0A3,3 0 1,1 0,-3A3,3 0 0,1 3,0Z" style="opacity: 1; stroke-width: 0px; fill: rgb(249, 186, 157); fill-opacity: 1;"/><path class="point" transform="translate(528.1,353.89)" d="M3,0A3,3 0 1,1 0,-3A3,3 0 0,1 3,0Z" style="opacity: 1; stroke-width: 0px; fill: rgb(249, 186, 157); fill-opacity: 1;"/><path class="point" transform="translate(649.2,292.83)" d="M3,0A3,3 0 1,1 0,-3A3,3 0 0,1 3,0Z" style="opacity: 1; stroke-width: 0px; fill: rgb(249, 186, 157); fill-opacity: 1;"/><path class="point" transform="translate(770.3,277.56)" d="M3,0A3,3 0 1,1 0,-3A3,3 0 0,1 3,0Z" style="opacity: 1; stroke-width: 0px; fill: rgb(249, 186, 157); fill-opacity: 1;"/></g><g class="text"/></g></g></g><g class="overplot"/><path class="xlines-above crisp" d="M0,0" style="fill: none;"/><path class="ylines-above crisp" d="M0,0" style="fill: none;"/><g class="overlines-above"/><g class="xaxislayer-above"><g class="xtick"><text text-anchor="start" x="2.8" y="523" transform="translate(93.43,0) rotate(90,2.8,515)" style="font-family: sans-serif; font-size: 16px; fill: rgb(0, 0, 0); fill-opacity: 1; white-space: pre; opacity: 1;">1780</text></g><g class="xtick"><text text-anchor="start" x="2.8" y="523" style="font-family: sans-serif; font-size: 16px; fill: rgb(0, 0, 0); fill-opacity: 1; white-space: pre; opacity: 1;" transform="translate(244.8,0) rotate(90,2.8,515)">1785</text></g><g class="xtick"><text text-anchor="start" x="2.8" y="523" style="font-family: sans-serif; font-size: 16px; fill: rgb(0, 0, 0); fill-opacity: 1; white-space: pre; opacity: 1;" transform="translate(396.18,0) rotate(90,2.8,515)">1790</text></g><g class="xtick"><text text-anchor="start" x="2.8" y="523" style="font-family: sans-serif; font-size: 16px; fill: rgb(0, 0, 0); fill-opacity: 1; white-space: pre; opacity: 1;" transform="translate(547.55,0) rotate(90,2.8,515)">1795</text></g><g class="xtick"><text text-anchor="start" x="2.8" y="523" style="font-family: sans-serif; font-size: 16px; fill: rgb(0, 0, 0); fill-opacity: 1; white-space: pre; opacity: 1;" transform="translate(698.93,0) rotate(90,2.8,515)">1800</text></g><g class="xtick"><text text-anchor="start" x="2.8" y="523" style="font-family: sans-serif; font-size: 16px; fill: rgb(0, 0, 0); fill-opacity: 1; white-space: pre; opacity: 1;" transform="translate(850.3,0) rotate(90,2.8,515)">1805</text></g></g><g class="yaxislayer-above"><g class="ytick"><text text-anchor="end" x="79" y="5.6" transform="translate(0,494.02)" style="font-family: sans-serif; font-size: 16px; fill: rgb(0, 0, 0); fill-opacity: 1; white-space: pre; opacity: 1;">0</text></g><g class="ytick"><text text-anchor="end" x="79" y="5.6" style="font-family: sans-serif; font-size: 16px; fill: rgb(0, 0, 0); fill-opacity: 1; white-space: pre; opacity: 1;" transform="translate(0,398.62)">50</text></g><g class="ytick"><text text-anchor="end" x="79" y="5.6" style="font-family: sans-serif; font-size: 16px; fill: rgb(0, 0, 0); fill-opacity: 1; white-space: pre; opacity: 1;" transform="translate(0,303.22)">100</text></g><g class="ytick"><text text-anchor="end" x="79" y="5.6" style="font-family: sans-serif; font-size: 16px; fill: rgb(0, 0, 0); fill-opacity: 1; white-space: pre; opacity: 1;" transform="translate(0,207.82)">150</text></g><g class="ytick"><text text-anchor="end" x="79" y="5.6" style="font-family: sans-serif; font-size: 16px; fill: rgb(0, 0, 0); fill-opacity: 1; white-space: pre; opacity: 1;" transform="translate(0,112.41)">200</text></g></g><g class="overaxes-above"/></g></g><g class="polarlayer"/><g class="smithlayer"/><g class="ternarylayer"/><g class="geolayer"/><g class="funnelarealayer"/><g class="pielayer"/><g class="iciclelayer"/><g class="treemaplayer"/><g class="sunburstlayer"/><g class="glimages"/><defs id="topdefs-cfb405"><g class="clips"/><clipPath id="legendcfb405"><rect width="707" height="29" x="0" y="0"/></clipPath></defs><g class="layer-above"><g class="imagelayer"/><g class="shapelayer"/></g><g class="infolayer"><g class="legend" pointer-events="all" transform="translate(80,559.4000000000001)"><rect class="bg" shape-rendering="crispEdges" style="stroke: rgb(68, 68, 68); stroke-opacity: 1; fill: rgb(255, 255, 255); fill-opacity: 1; stroke-width: 0px;" width="707" height="29" x="0" y="0"/><g class="scrollbox" transform="" clip-path="url(#legendcfb405)"><text class="legendtitletext" text-anchor="start" x="2" y="18.2" style="font-family: sans-serif; font-size: 14px; fill: rgb(42, 63, 95); fill-opacity: 1; white-space: pre;">why general material</text><g class="groups" transform=""><g class="traces" transform="translate(140.171875,14.5)" style="opacity: 1;"><text class="legendtext" text-anchor="start" x="40" y="4.680000000000001" style="font-family: sans-serif; font-size: 12px; fill: rgb(42, 63, 95); fill-opacity: 1; white-space: pre;">for study special</text><g class="layers" style="opacity: 1;"><g class="legendfill"/><g class="legendlines"><path class="js-line" d="M5,0h30" style="fill: none; stroke: rgb(181, 123, 206); stroke-opacity: 1; stroke-width: 2px;"/></g><g class="legendsymbols"><g class="legendpoints"><path class="scatterpts" transform="translate(20,0)" d="M1,0A1,1 0 1,1 0,-1A1,1 0 0,1 1,0Z" style="opacity: 1; stroke-width: 0px; fill: rgb(181, 123, 206); fill-opacity: 1;"/></g></g></g><rect class="legendtoggle" x="0" y="-9.5" width="130.546875" height="19" style="fill: rgb(0, 0, 0); fill-opacity: 0;"/></g></g><g class="groups" transform="translate(133.046875,0)"><g class="traces" transform="translate(140.171875,14.5)" style="opacity: 1;"><text class="legendtext" text-anchor="start" x="40" y="4.680000000000001" style="font-family: sans-serif; font-size: 12px; fill: rgb(42, 63, 95); fill-opacity: 1; white-space: pre;">street ok rule</text><g class="layers" style="opacity: 1;"><g class="legendfill"/><g class="legendlines"><path class="js-line" d="M5,0h30" style="fill: none; stroke: rgb(128, 84, 216); stroke-opacity: 1; stroke-width: 2px;"/></g><g class="legendsymbols"><g class="legendpoints"><path class="scatterpts" transform="translate(20,0)" d="M1,0A1,1 0 1,1 0,-1A1,1 0 0,1 1,0Z" style="opacity: 1; stroke-width: 0px; fill: rgb(128, 84, 216); fill-opacity: 1;"/></g></g></g><rect class="legendtoggle" x="0" y="-9.5" width="112.203125" height="19" style="fill: rgb(0, 0, 0); fill-opacity: 0;"/></g></g><g class="groups" transform="translate(247.75,0)"><g class="traces" transform="translate(140.171875,14.5)" style="opacity: 1;"><text class="legendtext" text-anchor="start" x="40" y="4.680000000000001" style="font-family: sans-serif; font-size: 12px; fill: rgb(42, 63, 95); fill-opacity: 1; white-space: pre;">term become position</text><g class="layers" style="opacity: 1;"><g class="legendfill"/><g class="legendlines"><path class="js-line" d="M5,0h30" style="fill: none; stroke: rgb(247, 136, 219); stroke-opacity: 1; stroke-width: 2px;"/></g><g class="legendsymbols"><g class="legendpoints"><path class="scatterpts" transform="translate(20,0)" d="M1,0A1,1 0 1,1 0,-1A1,1 0 0,1 1,0Z" style="opacity: 1; stroke-width: 0px; fill: rgb(247, 136, 219); fill-opacity: 1;"/></g></g></g><rect class="legendtoggle" x="0" y="-9.5" width="158.546875" height="19" style="fill: rgb(0, 0, 0); fill-opacity: 0;"/></g></g><g class="groups" transform="translate(408.796875,0)"><g class="traces" transform="translate(140.171875,14.5)" style="opacity: 1;"><text class="legendtext" text-anchor="start" x="40" y="4.680000000000001" style="font-family: sans-serif; font-size: 12px; fill: rgb(42, 63, 95); fill-opacity: 1; white-space: pre;">send recently military</text><g class="layers" style="opacity: 1;"><g class="legendfill"/><g class="legendlines"><path class="js-line" d="M5,0h30" style="fill: none; stroke: rgb(249, 186, 157); stroke-opacity: 1; stroke-width: 2px;"/></g><g class="legendsymbols"><g class="legendpoints"><path class="scatterpts" transform="translate(20,0)" d="M1,0A1,1 0 1,1 0,-1A1,1 0 0,1 1,0Z" style="opacity: 1; stroke-width: 0px; fill: rgb(249, 186, 157); fill-opacity: 1;"/></g></g></g><rect class="legendtoggle" x="0" y="-9.5" width="155.21875" height="19" style="fill: rgb(0, 0, 0); fill-opacity: 0;"/></g></g></g><rect class="scrollbar" rx="20" ry="3" width="0" height="0" style="fill: rgb(128, 139, 164); fill-opacity: 1;" x="0" y="0"/></g><g class="g-gtitle"><text class="gtitle" x="487" y="30" text-anchor="end" dy="0em" style="font-family: sans-serif; font-size: 25px; fill: rgb(0, 0, 0); opacity: 1; font-weight: normal; white-space: pre;">course hope week</text></g><g class="g-xtitle"><text class="xtitle" x="487" y="575.0001953125" text-anchor="middle" style="font-family: sans-serif; font-size: 14px; fill: rgb(0, 0, 0); opacity: 1; font-weight: normal; white-space: pre;">Year</text></g><g class="g-ytitle"><text class="ytitle" transform="rotate(-90,27.996875000000003,287)" x="27.996875000000003" y="287" text-anchor="middle" style="font-family: sans-serif; font-size: 14px; fill: rgb(0, 0, 0); opacity: 1; font-weight: normal; white-space: pre;">security stock hand</text></g></g></svg>