<svg class="main-svg" xmlns="http://www.w3.org/2000/svg" xmlns:xlink="http://www.w3.org/1999/xlink" width="661" height="600" style="" viewBox="0 0 661 600"><rect x="0" y="0" width="661" height="600" style="fill: rgb(255, 255, 255); fill-opacity: 1;"/><defs id="defs-ba3b25"><g class="clips"><clipPath id="clipba3b25xyplot" class="plotclip"><rect width="501" height="436"/></clipPath><clipPath class="axesclip" id="clipba3b25x"><rect x="80" y="0" width="501" height="600"/></clipPath><clipPath class="axesclip" id="clipba3b25y"><rect x="0" y="60" width="661" height="436"/></clipPath><clipPath class="axesclip" id="clipba3b25xy"><rect x="80" y="60" width="501" height="436"/></clipPath></g><g class="gradients"/><g class="patterns"/></defs><g class="bglayer"><rect class="bg" x="80" y="60" width="501" height="436" style="fill: rgb(255, 255, 255); fill-opacity: 1; stroke-width: 0;"/></g><g class="layer-below"><g class="imagelayer"/><g class="shapelayer"/></g><g class="cartesianlayer"><g class="subplot xy"><g class="layer-subplot"><g class="shapelayer"/><g class="imagelayer"/></g><g class="minor-gridlayer"><g class="x"/><g class="y"/></g><g class="gridlayer"><g class="x"><path class="xgrid crisp" transform="translate(108.05,0)" d="M0,60v436" style="stroke: rgb(208, 208, 208); stroke-opacity: 1; stroke-width: 1px;"/><path class="xgrid crisp" transform="translate(157.48000000000002,0)" d="M0,60v436" style="stroke: rgb(208, 208, 208); stroke-opacity: 1; stroke-width: 1px;"/><path class="xgrid crisp" transform="translate(206.92000000000002,0)" d="M0,60v436" style="stroke: rgb(208, 208, 208); stroke-opacity: 1; stroke-width: 1px;"/><path class="xgrid crisp" transform="translate(256.35,0)" d="M0,60v436" style="stroke: rgb(208, 208, 208); stroke-opacity: 1; stroke-width: 1px;"/><path class="xgrid crisp" transform="translate(305.78,0)" d="M0,60v436" style="stroke: rgb(208, 208, 208); stroke-opacity: 1; stroke-width: 1px;"/><path class="xgrid crisp" transform="translate(355.22,0)" d="M0,60v436" style="stroke: rgb(208, 208, 208); stroke-opacity: 1; stroke-width: 1px;"/><path class="xgrid crisp" transform="translate(404.65,0)" d="M0,60v436" style="stroke: rgb(208, 208, 208); stroke-opacity: 1; stroke-width: 1px;"/><path class="xgrid crisp" transform="translate(454.08,0)" d="M0,60v436" style="stroke: rgb(208, 208, 208); stroke-opacity: 1; stroke-width: 1px;"/><path class="xgrid crisp" transform="translate(503.52,0)" d="M0,60v436" style="stroke: rgb(208, 208, 208); stroke-opacity: 1; stroke-width: 1px;"/><path class="xgrid crisp" transform="translate(552.95,0)" d="M0,60v436" style="stroke: rgb(208, 208, 208); stroke-opacity: 1; stroke-width: 1px;"/></g><g class="y"/></g><g class="zerolinelayer"><path class="yzl zl crisp" transform="translate(0,477.36)" d="M80,0h501" style="stroke: rgb(255, 255, 255); stroke-opacity: 1; stroke-width: 2px;"/></g><path class="xlines-below"/><path class="ylines-below"/><g class="overlines-below"/><g class="xaxislayer-below"/><g class="yaxislayer-below"/><g class="overaxes-below"/><g class="plot" transform="translate(80,60)" clip-path="url(#clipba3b25xyplot)"><g class="scatterlayer mlayer"><g class="trace scatter trace80eb73" style="stroke-miterlimit: 2; opacity: 1;"><g class="fills"/><g class="errorbars"/><g class="lines"><path class="js-line" d="M28.05,375.99L77.48,405.92L126.92,133.06L176.35,219.32L225.78,238.68L275.22,48.56L324.65,133.94L374.08,325.82L423.52,144.5L472.95,397.12" style="vector-effect: none; fill: none; stroke: rgb(0, 206, 113); stroke-opacity: 1; stroke-width: 2px; opacity: 1;"/></g><g class="points"><path class="point" transform="translate(28.05,375.99)" d="M3,0A3,3 0 1,1 0,-3A3,3 0 0,1 3,0Z" style="opacity: 1; stroke-width: 0px; fill: rgb(0, 206, 113); fill-opacity: 1;"/><path class="point" transform="translate(77.48,405.92)" d="M3,0A3,3 0 1,1 0,-3A3,3 0 0,1 3,0Z" style="opacity: 1; stroke-width: 0px; fill: rgb(0, 206, 113); fill-opacity: 1;"/><path class="point" transform="translate(126.92,133.06)" d="M3,0A3,3 0 1,1 0,-3A3,3 0 0,1 3,0Z" style="opacity: 1; stroke-width: 0px; fill: rgb(0, 206, 113); fill-opacity: 1;"/><path class="point" transform="translate(176.35,219.32)" d="M3,0A3,3 0 1,1 0,-3A3,3 0 0,1 3,0Z" style="opacity: 1; stroke-width: 0px; fill: rgb(0, 206, 113); fill-opacity: 1;"/><path class="point" transform="translate(225.78,238.68)" d="M3,0A3,3 0 1,1 0,-3A3,3 0 0,1 3,0Z" style="opacity: 1; stroke-width: 0px; fill: rgb(0, 206, 113); fill-opacity: 1;"/><path class="point" transform="translate(275.22,48.56)" d="M3,0A3,3 0 1,1 0,-3A3,3 0 0,1 3,0Z" style="opacity: 1; stroke-width: 0px; fill: rgb(0, 206, 113); fill-opacity: 1;"/><path class="point" transform="translate(324.65,133.94)" d="M3,0A3,3 0 1,1 0,-3A3,3 0 0,1 3,0Z" style="opacity: 1; stroke-width: 0px; fill: rgb(0, 206, 113); fill-opacity: 1;"/><path class="point" transform="translate(374.08,325.82)" d="M3,0A3,3 0 1,1 0,-3A3,3 0 0,1 3,0Z" style="opacity: 1; stroke-width: 0px; fill: rgb(0, 206, 113); fill-opacity: 1;"/><path class="point" transform="translate(423.52,144.5)" d="M3,0A3,3 0 1,1 0,-3A3,3 0 0,1 3,0Z" style="opacity: 1; stroke-width: 0px; fill: rgb(0, 206, 113); fill-opacity: 1;"/><path class="point" transform="translate(472.95,397.12)" d="M3,0A3,3 0 1,1 0,-3A3,3 0 0,1 3,0Z" style="opacity: 1; stroke-width: 0px; fill: rgb(0, 206, 113); fill-opacity: 1;"/></g><g class="text"/></g><g class="trace scatter trace321b8b" style="stroke-miterlimit: 2; opacity: 1;"><g class="fills"/><g class="errorbars"/><g class="lines"><path class="js-line" d="M28.05,147.15L77.48,24.8L126.92,195.56L176.35,134.82L225.78,256.29L275.22,320.54L324.65,30.96L374.08,338.14L423.52,285.33L472.95,231.64" style="vector-effect: none; fill: none; stroke: rgb(73, 95, 204); stroke-opacity: 1; stroke-width: 2px; opacity: 1;"/></g><g class="points"><path class="point" transform="translate(28.05,147.15)" d="M3,0A3,3 0 1,1 0,-3A3,3 0 0,1 3,0Z" style="opacity: 1; stroke-width: 0px; fill: rgb(73, 95, 204); fill-opacity: 1;"/><path class="point" transform="translate(77.48,24.8)" d="M3,0A3,3 0 1,1 0,-3A3,3 0 0,1 3,0Z" style="opacity: 1; stroke-width: 0px; fill: rgb(73, 95, 204); fill-opacity: 1;"/><path class="point" transform="translate(126.92,195.56)" d="M3,0A3,3 0 1,1 0,-3A3,3 0 0,1 3,0Z" style="opacity: 1; stroke-width: 0px; fill: rgb(73, 95, 204); fill-opacity: 1;"/><path class="point" transform="translate(176.35,134.82)" d="M3,0A3,3 0 1,1 0,-3A3,3 0 0,1 3,0Z" style="opacity: 1; stroke-width: 0px; fill: rgb(73, 95, 204); fill-opacity: 1;"/><path class="point" transform="translate(225.78,256.29)" d="M3,0A3,3 0 1,1 0,-3A3,3 0 0,1 3,0Z" style="opacity: 1; stroke-width: 0px; fill: rgb(73, 95, 204); fill-opacity: 1;"/><path class="point" transform="translate(275.22,320.54)" d="M3,0A3,3 0 1,1 0,-3A3,3 0 0,1 3,0Z" style="opacity: 1; stroke-width: 0px; fill: rgb(73, 95, 204); fill-opacity: 1;"/><path class="point" transform="translate(324.65,30.96)" d="M3,0A3,3 0 1,1 0,-3A3,3 0 0,1 3,0Z" style="opacity: 1; stroke-width: 0px; fill: rgb(73, 95, 204); fill-opacity: 1;"/><path class="point" transform="translate(374.08,338.14)" d="M3,0A3,3 0 1,1 0,-3A3,3 0 0,1 3,0Z" style="opacity: 1; stroke-width: 0px; fill: rgb(73, 95, 204); fill-opacity: 1;"/><path class="point" transform="translate(423.52,285.33)" d="M3,0A3,3 0 1,1 0,-3A3,3 0 0,1 3,0Z" style="opacity: 1; stroke-width: 0px; fill: rgb(73, 95, 204); fill-opacity: 1;"/><path class="point" transform="translate(472.95,231.64)" d="M3,0A3,3 0 1,1 0,-3A3,3 0 0,1 3,0Z" style="opacity: 1; stroke-width: 0px; fill: rgb(73, 95, 204); fill-opacity: 1;"/></g><g class="text"/></g><g class="trace scatter traceda890f" style="stroke-miterlimit: 2; opacity: 1;"><g class="fills"/><g class="errorbars"/><g class="lines"><path class="js-line" d="M28.05,358.39L77.48,126.9L126.92,132.18L176.35,270.37L225.78,310.86L275.22,180.59L324.65,129.54L374.08,58.25L423.52,274.77L472.95,177.95" style="vector-effect: none; fill: none; stroke: rgb(23, 205, 237); stroke-opacity: 1; stroke-width: 2px; opacity: 1;"/></g><g class="points"><path class="point" transform="translate(28.05,358.39)" d="M3,0A3,3 0 1,1 0,-3A3,3 0 0,1 3,0Z" style="opacity: 1; stroke-width: 0px; fill: rgb(23, 205, 237); fill-opacity: 1;"/><path class="point" transform="translate(77.48,126.9)" d="M3,0A3,3 0 1,1 0,-3A3,3 0 0,1 3,0Z" style="opacity: 1; stroke-width: 0px; fill: rgb(23, 205, 237); fill-opacity: 1;"/><path class="point" transform="translate(126.92,132.18)" d="M3,0A3,3 0 1,1 0,-3A3,3 0 0,1 3,0Z" style="opacity: 1; stroke-width: 0px; fill: rgb(23, 205, 237); fill-opacity: 1;"/><path class="point" transform="translate(176.35,270.37)" d="M3,0A3,3 0 1,1 0,-3A3,3 0 0,1 3,0Z" style="opacity: 1; stroke-width: 0px; fill: rgb(23, 205, 237); fill-opacity: 1;"/><path class="point" transform="translate(225.78,310.86)" d="M3,0A3,3 0 1,1 0,-3A3,3 0 0,1 3,0Z" style="opacity: 1; stroke-width: 0px; fill: rgb(23, 205, 237); fill-opacity: 1;"/><path class="point" transform="translate(275.22,180.59)" d="M3,0A3,3 0 1,1 0,-3A3,3 0 0,1 3,0Z" style="opacity: 1; stroke-width: 0px; fill: rgb(23, 205, 237); fill-opacity: 1;"/><path class="point" transform="translate(324.65,129.54)" d="M3,0A3,3 0 1,1 0,-3A3,3 0 0,1 3,0Z" style="opacity: 1; stroke-width: 0px; fill: rgb(23, 205, 237); fill-opacity: 1;"/><path class="point" transform="translate(374.08,58.25)" d="M3,0A3,3 0 1,1 0,-3A3,3 0 0,1 3,0Z" style="opacity: 1; stroke-width: 0px; fill: rgb(23, 205, 237); fill-opacity: 1;"/><path class="point" transform="translate(423.52,274.77)" d="M3,0A3,3 0 1,1 0,-3A3,3 0 0,1 3,0Z" style="opacity: 1; stroke-width: 0px; fill: rgb(23, 205, 237); fill-opacity: 1;"/><path class="point" transform="translate(472.95,177.95)" d="M3,0A3,3 0 1,1 0,-3A3,3 0 0,1 3,0Z" style="opacity: 1; stroke-width: 0px; fill: rgb(23, 205, 237); fill-opacity: 1;"/></g><g class="text"/></g><g class="trace scatter trace01c438" style="stroke-miterlimit: 2; opacity: 1;"><g class="fills"/><g class="errorbars"/><g class="lines"><path class="js-line" d="M28.05,411.2L77.48,199.08L126.92,177.95L176.35,200.84L225.78,273.01L275.22,259.81L324.65,124.26L374.08,196.44L423.52,310.86L472.95,228.12" style="vector-effect: none; fill: none; stroke: rgb(163, 255, 192); stroke-opacity: 1; stroke-width: 2px; opacity: 1;"/></g><g class="points"><path class="point" transform="translate(28.05,411.2)" d="M3,0A3,3 0 1,1 0,-3A3,3 0 0,1 3,0Z" style="opacity: 1; stroke-width: 0px; fill: rgb(163, 255, 192); fill-opacity: 1;"/><path class="point" transform="translate(77.48,199.08)" d="M3,0A3,3 0 1,1 0,-3A3,3 0 0,1 3,0Z" style="opacity: 1; stroke-width: 0px; fill: rgb(163, 255, 192); fill-opacity: 1;"/><path class="point" transform="translate(126.92,177.95)" d="M3,0A3,3 0 1,1 0,-3A3,3 0 0,1 3,0Z" style="opacity: 1; stroke-width: 0px; fill: rgb(163, 255, 192); fill-opacity: 1;"/><path class="point" transform="translate(176.35,200.84)" d="M3,0A3,3 0 1,1 0,-3A3,3 0 0,1 3,0Z" style="opacity: 1; stroke-width: 0px; fill: rgb(163, 255, 192); fill-opacity: 1;"/><path class="point" transform="translate(225.78,273.01)" d="M3,0A3,3 0 1,1 0,-3A3,3 0 0,1 3,0Z" style="opacity: 1; stroke-width: 0px; fill: rgb(163, 255, 192); fill-opacity: 1;"/><path class="point" transform="translate(275.22,259.81)" d="M3,0A3,3 0 1,1 0,-3A3,3 0 0,1 3,0Z" style="opacity: 1; stroke-width: 0px; fill: rgb(163, 255, 192); fill-opacity: 1;"/><path class="point" transform="translate(324.65,124.26)" d="M3,0A3,3 0 1,1 0,-3A3,3 0 0,1 3,0Z" style="opacity: 1; stroke-width: 0px; fill: rgb(163, 255, 192); fill-opacity: 1;"/><path class="point" transform="translate(374.08,196.44)" d="M3,0A3,3 0 1,1 0,-3A3,3 0 0,1 3,0Z" style="opacity: 1; stroke-width: 0px; fill: rgb(163, 255, 192); fill-opacity: 1;"/><path class="point" transform="translate(423.52,310.86)" d="M3,0A3,3 0 1,1 0,-3A3,3 0 0,1 3,0Z" style="opacity: 1; stroke-width: 0px; fill: rgb(163, 255, 192); fill-opacity: 1;"/><path class="point" transform="translate(472.95,228.12)" d="M3,0A3,3 0 1,1 0,-3A3,3 0 0,1 3,0Z" style="opacity: 1; stroke-width: 0px; fill: rgb(163, 255, 192); fill-opacity: 1;"/></g><g class="text"/></g></g></g><g class="overplot"/><path class="xlines-above crisp" d="M0,0" style="fill: none;"/><path class="ylines-above crisp" d="M79.5,60V496" style="fill: none; stroke-width: 1px; stroke: rgb(255, 255, 255); stroke-opacity: 1;"/><g class="overlines-above"/><g class="xaxislayer-above"><g class="xtick"><text text-anchor="start" x="2.8" y="505" transform="translate(108.05,0) rotate(90,2.8,497)" style="font-family: avenir; font-size: 16px; fill: rgb(0, 0, 0); fill-opacity: 1; white-space: pre; opacity: 1;">Jan</text></g><g class="xtick"><text text-anchor="start" x="2.8" y="505" transform="translate(157.48000000000002,0) rotate(90,2.8,497)" style="font-family: avenir; font-size: 16px; fill: rgb(0, 0, 0); fill-opacity: 1; white-space: pre; opacity: 1;">Feb</text></g><g class="xtick"><text text-anchor="start" x="2.8" y="505" transform="translate(206.92000000000002,0) rotate(90,2.8,497)" style="font-family: avenir; font-size: 16px; fill: rgb(0, 0, 0); fill-opacity: 1; white-space: pre; opacity: 1;">Mar</text></g><g class="xtick"><text text-anchor="start" x="2.8" y="505" transform="translate(256.35,0) rotate(90,2.8,497)" style="font-family: avenir; font-size: 16px; fill: rgb(0, 0, 0); fill-opacity: 1; white-space: pre; opacity: 1;">Apr</text></g><g class="xtick"><text text-anchor="start" x="2.8" y="505" transform="translate(305.78,0) rotate(90,2.8,497)" style="font-family: avenir; font-size: 16px; fill: rgb(0, 0, 0); fill-opacity: 1; white-space: pre; opacity: 1;">May</text></g><g class="xtick"><text text-anchor="start" x="2.8" y="505" transform="translate(355.22,0) rotate(90,2.8,497)" style="font-family: avenir; font-size: 16px; fill: rgb(0, 0, 0); fill-opacity: 1; white-space: pre; opacity: 1;">June</text></g><g class="xtick"><text text-anchor="start" x="2.8" y="505" transform="translate(404.65,0) rotate(90,2.8,497)" style="font-family: avenir; font-size: 16px; fill: rgb(0, 0, 0); fill-opacity: 1; white-space: pre; opacity: 1;">July</text></g><g class="xtick"><text text-anchor="start" x="2.8" y="505" transform="translate(454.08,0) rotate(90,2.8,497)" style="font-family: avenir; font-size: 16px; fill: rgb(0, 0, 0); fill-opacity: 1; white-space: pre; opacity: 1;">Aug</text></g><g class="xtick"><text text-anchor="start" x="2.8" y="505" transform="translate(503.52,0) rotate(90,2.8,497)" style="font-family: avenir; font-size: 16px; fill: rgb(0, 0, 0); fill-opacity: 1; white-space: pre; opacity: 1;">Sep</text></g><g class="xtick"><text text-anchor="start" x="2.8" y="505" transform="translate(552.95,0) rotate(90,2.8,497)" style="font-family: avenir; font-size: 16px; fill: rgb(0, 0, 0); fill-opacity: 1; white-space: pre; opacity: 1;">Oct</text></g></g><g class="yaxislayer-above"><g class="ytick"><text text-anchor="end" x="75.8" y="5.6" transform="translate(0,477.36)" style="font-family: avenir; font-size: 16px; fill: rgb(0, 0, 0); fill-opacity: 1; white-space: pre; opacity: 1;">0</text></g><g class="ytick"><text text-anchor="end" x="75.8" y="5.6" style="font-family: avenir; font-size: 16px; fill: rgb(0, 0, 0); fill-opacity: 1; white-space: pre; opacity: 1;" transform="translate(0,433.35)">50</text></g><g class="ytick"><text text-anchor="end" x="75.8" y="5.6" style="font-family: avenir; font-size: 16px; fill: rgb(0, 0, 0); fill-opacity: 1; white-space: pre; opacity: 1;" transform="translate(0,389.34)">100</text></g><g class="ytick"><text text-anchor="end" x="75.8" y="5.6" style="font-family: avenir; font-size: 16px; fill: rgb(0, 0, 0); fill-opacity: 1; white-space: pre; opacity: 1;" transform="translate(0,345.33)">150</text></g><g class="ytick"><text text-anchor="end" x="75.8" y="5.6" style="font-family: avenir; font-size: 16px; fill: rgb(0, 0, 0); fill-opacity: 1; white-space: pre; opacity: 1;" transform="translate(0,301.32)">200</text></g><g class="ytick"><text text-anchor="end" x="75.8" y="5.6" style="font-family: avenir; font-size: 16px; fill: rgb(0, 0, 0); fill-opacity: 1; white-space: pre; opacity: 1;" transform="translate(0,257.32)">250</text></g><g class="ytick"><text text-anchor="end" x="75.8" y="5.6" style="font-family: avenir; font-size: 16px; fill: rgb(0, 0, 0); fill-opacity: 1; white-space: pre; opacity: 1;" transform="translate(0,213.31)">300</text></g><g class="ytick"><text text-anchor="end" x="75.8" y="5.6" style="font-family: avenir; font-size: 16px; fill: rgb(0, 0, 0); fill-opacity: 1; white-space: pre; opacity: 1;" transform="translate(0,169.3)">350</text></g><g class="ytick"><text text-anchor="end" x="75.8" y="5.6" style="font-family: avenir; font-size: 16px; fill: rgb(0, 0, 0); fill-opacity: 1; white-space: pre; opacity: 1;" transform="translate(0,125.29)">400</text></g><g class="ytick"><text text-anchor="end" x="75.8" y="5.6" style="font-family: avenir; font-size: 16px; fill: rgb(0, 0, 0); fill-opacity: 1; white-space: pre; opacity: 1;" transform="translate(0,81.28)">450</text></g></g><g class="overaxes-above"/></g></g><g class="polarlayer"/><g class="smithlayer"/><g class="ternarylayer"/><g class="geolayer"/><g class="funnelarealayer"/><g class="pielayer"/><g class="iciclelayer"/><g class="treemaplayer"/><g class="sunburstlayer"/><g class="glimages"/><defs id="topdefs-ba3b25"><g class="clips"/><clipPath id="legendba3b25"><rect width="385" height="48" x="0" y="0"/></clipPath></defs><g class="layer-above"><g class="imagelayer"/><g class="shapelayer"/></g><g class="infolayer"><g class="legend" pointer-events="all" transform="translate(80,539.6)"><rect class="bg" shape-rendering="crispEdges" style="stroke: rgb(68, 68, 68); stroke-opacity: 1; fill: rgb(255, 255, 255); fill-opacity: 1; stroke-width: 0px;" width="385" height="48" x="0" y="0"/><g class="scrollbox" transform="" clip-path="url(#legendba3b25)"><g class="groups" transform=""><g class="traces" transform="translate(0,14.5)" style="opacity: 1;"><text class="legendtext" text-anchor="start" x="40" y="4.680000000000001" style="font-family: avenir; font-size: 12px; fill: rgb(42, 63, 95); fill-opacity: 1; white-space: pre;">rich TV defense</text><g class="layers" style="opacity: 1;"><g class="legendfill"/><g class="legendlines"><path class="js-line" d="M5,0h30" style="fill: none; stroke: rgb(0, 206, 113); stroke-opacity: 1; stroke-width: 2px;"/></g><g class="legendsymbols"><g class="legendpoints"><path class="scatterpts" transform="translate(20,0)" d="M1,0A1,1 0 1,1 0,-1A1,1 0 0,1 1,0Z" style="opacity: 1; stroke-width: 0px; fill: rgb(0, 206, 113); fill-opacity: 1;"/></g></g></g><rect class="legendtoggle" x="0" y="-9.5" width="121.484375" height="19" style="fill: rgb(0, 0, 0); fill-opacity: 0;"/></g></g><g class="groups" transform="translate(123.984375,0)"><g class="traces" transform="translate(0,14.5)" style="opacity: 1;"><text class="legendtext" text-anchor="start" x="40" y="4.680000000000001" style="font-family: avenir; font-size: 12px; fill: rgb(42, 63, 95); fill-opacity: 1; white-space: pre;">everything key any</text><g class="layers" style="opacity: 1;"><g class="legendfill"/><g class="legendlines"><path class="js-line" d="M5,0h30" style="fill: none; stroke: rgb(73, 95, 204); stroke-opacity: 1; stroke-width: 2px;"/></g><g class="legendsymbols"><g class="legendpoints"><path class="scatterpts" transform="translate(20,0)" d="M1,0A1,1 0 1,1 0,-1A1,1 0 0,1 1,0Z" style="opacity: 1; stroke-width: 0px; fill: rgb(73, 95, 204); fill-opacity: 1;"/></g></g></g><rect class="legendtoggle" x="0" y="-9.5" width="135.46875" height="19" style="fill: rgb(0, 0, 0); fill-opacity: 0;"/></g></g><g class="groups" transform="translate(261.953125,0)"><g class="traces" transform="translate(0,14.5)" style="opacity: 1;"><text class="legendtext" text-anchor="start" x="40" y="4.680000000000001" style="font-family: avenir; font-size: 12px; fill: rgb(42, 63, 95); fill-opacity: 1; white-space: pre;">lead senior look</text><g class="layers" style="opacity: 1;"><g class="legendfill"/><g class="legendlines"><path class="js-line" d="M5,0h30" style="fill: none; stroke: rgb(23, 205, 237); stroke-opacity: 1; stroke-width: 2px;"/></g><g class="legendsymbols"><g class="legendpoints"><path class="scatterpts" transform="translate(20,0)" d="M1,0A1,1 0 1,1 0,-1A1,1 0 0,1 1,0Z" style="opacity: 1; stroke-width: 0px; fill: rgb(23, 205, 237); fill-opacity: 1;"/></g></g></g><rect class="legendtoggle" x="0" y="-9.5" width="120.15625" height="19" style="fill: rgb(0, 0, 0); fill-opacity: 0;"/></g></g><g class="groups" transform="translate(0,19)"><g class="traces" transform="translate(0,14.5)" style="opacity: 1;"><text class="legendtext" text-anchor="start" x="40" y="4.680000000000001" style="font-family: avenir; font-size: 12px; fill: rgb(42, 63, 95); fill-opacity: 1; white-space: pre;">red possible around</text><g class="layers" style="opacity: 1;"><g class="legendfill"/><g class="legendlines"><path class="js-line" d="M5,0h30" style="fill: none; stroke: rgb(163, 255, 192); stroke-opacity: 1; stroke-width: 2px;"/></g><g class="legendsymbols"><g class="legendpoints"><path class="scatterpts" transform="translate(20,0)" d="M1,0A1,1 0 1,1 0,-1A1,1 0 0,1 1,0Z" style="opacity: 1; stroke-width: 0px; fill: rgb(163, 255, 192); fill-opacity: 1;"/></g></g></g><rect class="legendtoggle" x="0" y="-9.5" width="138.484375" height="19" style="fill: rgb(0, 0, 0); fill-opacity: 0;"/></g></g></g><rect class="scrollbar" rx="20" ry="3" width="0" height="0" style="fill: rgb(128, 139, 164); fill-opacity: 1;" x="0" y="0"/></g><g class="g-gtitle"><text class="gtitle" x="330.5" y="30" text-anchor="middle" dy="0em" style="font-family: avenir; font-size: 25px; fill: rgb(0, 0, 0); opacity: 1; font-weight: normal; white-space: pre;">key food fight</text></g><g class="g-xtitle"><text class="xtitle" x="330.5" y="551.6408203125" text-anchor="middle" style="font-family: avenir; font-size: 14px; fill: rgb(0, 0, 0); opacity: 1; font-weight: normal; white-space: pre;">Month</text></g><g class="g-ytitle"/></g></svg>