<svg class="main-svg" xmlns="http://www.w3.org/2000/svg" xmlns:xlink="http://www.w3.org/1999/xlink" width="430" height="600" style="" viewBox="0 0 430 600"><rect x="0" y="0" width="430" height="600" style="fill: rgb(255, 255, 255); fill-opacity: 1;"/><defs id="defs-3a5aa5"><g class="clips"><clipPath id="clip3a5aa5xyplot" class="plotclip"><rect width="270" height="419"/></clipPath><clipPath class="axesclip" id="clip3a5aa5x"><rect x="80" y="0" width="270" height="600"/></clipPath><clipPath class="axesclip" id="clip3a5aa5y"><rect x="0" y="60" width="430" height="419"/></clipPath><clipPath class="axesclip" id="clip3a5aa5xy"><rect x="80" y="60" width="270" height="419"/></clipPath></g><g class="gradients"/><g class="patterns"/></defs><g class="bglayer"><rect class="bg" x="80" y="60" width="270" height="419" style="fill: rgb(255, 255, 255); fill-opacity: 1; stroke-width: 0;"/></g><g class="layer-below"><g class="imagelayer"/><g class="shapelayer"/></g><g class="cartesianlayer"><g class="subplot xy"><g class="layer-subplot"><g class="shapelayer"/><g class="imagelayer"/></g><g class="minor-gridlayer"><g class="x"/><g class="y"/></g><g class="gridlayer"><g class="x"><path class="xgrid crisp" transform="translate(96.5,0)" d="M0,60v419" style="stroke: rgb(208, 208, 208); stroke-opacity: 1; stroke-width: 1px;"/><path class="xgrid crisp" transform="translate(126.13,0)" d="M0,60v419" style="stroke: rgb(208, 208, 208); stroke-opacity: 1; stroke-width: 1px;"/><path class="xgrid crisp" transform="translate(155.75,0)" d="M0,60v419" style="stroke: rgb(208, 208, 208); stroke-opacity: 1; stroke-width: 1px;"/><path class="xgrid crisp" transform="translate(185.38,0)" d="M0,60v419" style="stroke: rgb(208, 208, 208); stroke-opacity: 1; stroke-width: 1px;"/><path class="xgrid crisp" transform="translate(215,0)" d="M0,60v419" style="stroke: rgb(208, 208, 208); stroke-opacity: 1; stroke-width: 1px;"/><path class="xgrid crisp" transform="translate(244.63,0)" d="M0,60v419" style="stroke: rgb(208, 208, 208); stroke-opacity: 1; stroke-width: 1px;"/><path class="xgrid crisp" transform="translate(274.25,0)" d="M0,60v419" style="stroke: rgb(208, 208, 208); stroke-opacity: 1; stroke-width: 1px;"/><path class="xgrid crisp" transform="translate(303.88,0)" d="M0,60v419" style="stroke: rgb(208, 208, 208); stroke-opacity: 1; stroke-width: 1px;"/><path class="xgrid crisp" transform="translate(333.5,0)" d="M0,60v419" style="stroke: rgb(208, 208, 208); stroke-opacity: 1; stroke-width: 1px;"/></g><g class="y"><path class="ygrid crisp" transform="translate(0,412.31)" d="M80,0h270" style="stroke: rgb(208, 208, 208); stroke-opacity: 1; stroke-width: 1px;"/><path class="ygrid crisp" transform="translate(0,360.19)" d="M80,0h270" style="stroke: rgb(208, 208, 208); stroke-opacity: 1; stroke-width: 1px;"/><path class="ygrid crisp" transform="translate(0,308.07)" d="M80,0h270" style="stroke: rgb(208, 208, 208); stroke-opacity: 1; stroke-width: 1px;"/><path class="ygrid crisp" transform="translate(0,255.95)" d="M80,0h270" style="stroke: rgb(208, 208, 208); stroke-opacity: 1; stroke-width: 1px;"/><path class="ygrid crisp" transform="translate(0,203.83)" d="M80,0h270" style="stroke: rgb(208, 208, 208); stroke-opacity: 1; stroke-width: 1px;"/><path class="ygrid crisp" transform="translate(0,151.70999999999998)" d="M80,0h270" style="stroke: rgb(208, 208, 208); stroke-opacity: 1; stroke-width: 1px;"/><path class="ygrid crisp" transform="translate(0,99.59)" d="M80,0h270" style="stroke: rgb(208, 208, 208); stroke-opacity: 1; stroke-width: 1px;"/></g></g><g class="zerolinelayer"><path class="yzl zl crisp" transform="translate(0,464.43)" d="M80,0h270" style="stroke: rgb(255, 255, 255); stroke-opacity: 1; stroke-width: 2px;"/></g><path class="xlines-below"/><path class="ylines-below"/><g class="overlines-below"/><g class="xaxislayer-below"/><g class="yaxislayer-below"/><g class="overaxes-below"/><g class="plot" transform="translate(80,60)" clip-path="url(#clip3a5aa5xyplot)"><g class="scatterlayer mlayer"><g class="trace scatter trace27b8dc" style="stroke-miterlimit: 2; opacity: 1;"><g class="fills"/><g class="errorbars"/><g class="lines"><path class="js-line" d="M16.5,340.84L46.13,156.34L75.75,193.86L105.38,392.97L135,253.28L164.63,372.12L194.25,390.88L223.88,298.11L253.5,395.05" style="vector-effect: none; fill: none; stroke: rgb(176, 226, 129); stroke-opacity: 1; stroke-width: 2px; opacity: 1;"/></g><g class="points"><path class="point" transform="translate(16.5,340.84)" d="M2,0A2,2 0 1,1 0,-2A2,2 0 0,1 2,0Z" style="opacity: 1; stroke-width: 0px; fill: rgb(176, 226, 129); fill-opacity: 1;"/><path class="point" transform="translate(46.13,156.34)" d="M2,0A2,2 0 1,1 0,-2A2,2 0 0,1 2,0Z" style="opacity: 1; stroke-width: 0px; fill: rgb(176, 226, 129); fill-opacity: 1;"/><path class="point" transform="translate(75.75,193.86)" d="M2,0A2,2 0 1,1 0,-2A2,2 0 0,1 2,0Z" style="opacity: 1; stroke-width: 0px; fill: rgb(176, 226, 129); fill-opacity: 1;"/><path class="point" transform="translate(105.38,392.97)" d="M2,0A2,2 0 1,1 0,-2A2,2 0 0,1 2,0Z" style="opacity: 1; stroke-width: 0px; fill: rgb(176, 226, 129); fill-opacity: 1;"/><path class="point" transform="translate(135,253.28)" d="M2,0A2,2 0 1,1 0,-2A2,2 0 0,1 2,0Z" style="opacity: 1; stroke-width: 0px; fill: rgb(176, 226, 129); fill-opacity: 1;"/><path class="point" transform="translate(164.63,372.12)" d="M2,0A2,2 0 1,1 0,-2A2,2 0 0,1 2,0Z" style="opacity: 1; stroke-width: 0px; fill: rgb(176, 226, 129); fill-opacity: 1;"/><path class="point" transform="translate(194.25,390.88)" d="M2,0A2,2 0 1,1 0,-2A2,2 0 0,1 2,0Z" style="opacity: 1; stroke-width: 0px; fill: rgb(176, 226, 129); fill-opacity: 1;"/><path class="point" transform="translate(223.88,298.11)" d="M2,0A2,2 0 1,1 0,-2A2,2 0 0,1 2,0Z" style="opacity: 1; stroke-width: 0px; fill: rgb(176, 226, 129); fill-opacity: 1;"/><path class="point" transform="translate(253.5,395.05)" d="M2,0A2,2 0 1,1 0,-2A2,2 0 0,1 2,0Z" style="opacity: 1; stroke-width: 0px; fill: rgb(176, 226, 129); fill-opacity: 1;"/></g><g class="text"/></g><g class="trace scatter tracebcf96d" style="stroke-miterlimit: 2; opacity: 1;"><g class="fills"/><g class="errorbars"/><g class="lines"><path class="js-line" d="M16.5,72.94L46.13,235.56L75.75,324.17L105.38,290.81L135,35.42L164.63,263.71L194.25,306.44L223.88,160.51L253.5,296.02" style="vector-effect: none; fill: none; stroke: rgb(22, 153, 107); stroke-opacity: 1; stroke-width: 2px; opacity: 1;"/></g><g class="points"><path class="point" transform="translate(16.5,72.94)" d="M2,0A2,2 0 1,1 0,-2A2,2 0 0,1 2,0Z" style="opacity: 1; stroke-width: 0px; fill: rgb(22, 153, 107); fill-opacity: 1;"/><path class="point" transform="translate(46.13,235.56)" d="M2,0A2,2 0 1,1 0,-2A2,2 0 0,1 2,0Z" style="opacity: 1; stroke-width: 0px; fill: rgb(22, 153, 107); fill-opacity: 1;"/><path class="point" transform="translate(75.75,324.17)" d="M2,0A2,2 0 1,1 0,-2A2,2 0 0,1 2,0Z" style="opacity: 1; stroke-width: 0px; fill: rgb(22, 153, 107); fill-opacity: 1;"/><path class="point" transform="translate(105.38,290.81)" d="M2,0A2,2 0 1,1 0,-2A2,2 0 0,1 2,0Z" style="opacity: 1; stroke-width: 0px; fill: rgb(22, 153, 107); fill-opacity: 1;"/><path class="point" transform="translate(135,35.42)" d="M2,0A2,2 0 1,1 0,-2A2,2 0 0,1 2,0Z" style="opacity: 1; stroke-width: 0px; fill: rgb(22, 153, 107); fill-opacity: 1;"/><path class="point" transform="translate(164.63,263.71)" d="M2,0A2,2 0 1,1 0,-2A2,2 0 0,1 2,0Z" style="opacity: 1; stroke-width: 0px; fill: rgb(22, 153, 107); fill-opacity: 1;"/><path class="point" transform="translate(194.25,306.44)" d="M2,0A2,2 0 1,1 0,-2A2,2 0 0,1 2,0Z" style="opacity: 1; stroke-width: 0px; fill: rgb(22, 153, 107); fill-opacity: 1;"/><path class="point" transform="translate(223.88,160.51)" d="M2,0A2,2 0 1,1 0,-2A2,2 0 0,1 2,0Z" style="opacity: 1; stroke-width: 0px; fill: rgb(22, 153, 107); fill-opacity: 1;"/><path class="point" transform="translate(253.5,296.02)" d="M2,0A2,2 0 1,1 0,-2A2,2 0 0,1 2,0Z" style="opacity: 1; stroke-width: 0px; fill: rgb(22, 153, 107); fill-opacity: 1;"/></g><g class="text"/></g><g class="trace scatter trace41c1cb" style="stroke-miterlimit: 2; opacity: 1;"><g class="fills"/><g class="errorbars"/><g class="lines"><path class="js-line" d="M16.5,168.85L46.13,102.13L75.75,179.27L105.38,210.54L135,165.72L164.63,102.13L194.25,227.22L223.88,88.58L253.5,126.11" style="vector-effect: none; fill: none; stroke: rgb(204, 63, 110); stroke-opacity: 1; stroke-width: 2px; opacity: 1;"/></g><g class="points"><path class="point" transform="translate(16.5,168.85)" d="M2,0A2,2 0 1,1 0,-2A2,2 0 0,1 2,0Z" style="opacity: 1; stroke-width: 0px; fill: rgb(204, 63, 110); fill-opacity: 1;"/><path class="point" transform="translate(46.13,102.13)" d="M2,0A2,2 0 1,1 0,-2A2,2 0 0,1 2,0Z" style="opacity: 1; stroke-width: 0px; fill: rgb(204, 63, 110); fill-opacity: 1;"/><path class="point" transform="translate(75.75,179.27)" d="M2,0A2,2 0 1,1 0,-2A2,2 0 0,1 2,0Z" style="opacity: 1; stroke-width: 0px; fill: rgb(204, 63, 110); fill-opacity: 1;"/><path class="point" transform="translate(105.38,210.54)" d="M2,0A2,2 0 1,1 0,-2A2,2 0 0,1 2,0Z" style="opacity: 1; stroke-width: 0px; fill: rgb(204, 63, 110); fill-opacity: 1;"/><path class="point" transform="translate(135,165.72)" d="M2,0A2,2 0 1,1 0,-2A2,2 0 0,1 2,0Z" style="opacity: 1; stroke-width: 0px; fill: rgb(204, 63, 110); fill-opacity: 1;"/><path class="point" transform="translate(164.63,102.13)" d="M2,0A2,2 0 1,1 0,-2A2,2 0 0,1 2,0Z" style="opacity: 1; stroke-width: 0px; fill: rgb(204, 63, 110); fill-opacity: 1;"/><path class="point" transform="translate(194.25,227.22)" d="M2,0A2,2 0 1,1 0,-2A2,2 0 0,1 2,0Z" style="opacity: 1; stroke-width: 0px; fill: rgb(204, 63, 110); fill-opacity: 1;"/><path class="point" transform="translate(223.88,88.58)" d="M2,0A2,2 0 1,1 0,-2A2,2 0 0,1 2,0Z" style="opacity: 1; stroke-width: 0px; fill: rgb(204, 63, 110); fill-opacity: 1;"/><path class="point" transform="translate(253.5,126.11)" d="M2,0A2,2 0 1,1 0,-2A2,2 0 0,1 2,0Z" style="opacity: 1; stroke-width: 0px; fill: rgb(204, 63, 110); fill-opacity: 1;"/></g><g class="text"/></g><g class="trace scatter tracec93f11" style="stroke-miterlimit: 2; opacity: 1;"><g class="fills"/><g class="errorbars"/><g class="lines"><path class="js-line" d="M16.5,109.43L46.13,23.95L75.75,291.85L105.38,104.22L135,57.31L164.63,150.08L194.25,252.24L223.88,305.4L253.5,178.23" style="vector-effect: none; fill: none; stroke: rgb(196, 244, 144); stroke-opacity: 1; stroke-width: 2px; opacity: 1;"/></g><g class="points"><path class="point" transform="translate(16.5,109.43)" d="M2,0A2,2 0 1,1 0,-2A2,2 0 0,1 2,0Z" style="opacity: 1; stroke-width: 0px; fill: rgb(196, 244, 144); fill-opacity: 1;"/><path class="point" transform="translate(46.13,23.95)" d="M2,0A2,2 0 1,1 0,-2A2,2 0 0,1 2,0Z" style="opacity: 1; stroke-width: 0px; fill: rgb(196, 244, 144); fill-opacity: 1;"/><path class="point" transform="translate(75.75,291.85)" d="M2,0A2,2 0 1,1 0,-2A2,2 0 0,1 2,0Z" style="opacity: 1; stroke-width: 0px; fill: rgb(196, 244, 144); fill-opacity: 1;"/><path class="point" transform="translate(105.38,104.22)" d="M2,0A2,2 0 1,1 0,-2A2,2 0 0,1 2,0Z" style="opacity: 1; stroke-width: 0px; fill: rgb(196, 244, 144); fill-opacity: 1;"/><path class="point" transform="translate(135,57.31)" d="M2,0A2,2 0 1,1 0,-2A2,2 0 0,1 2,0Z" style="opacity: 1; stroke-width: 0px; fill: rgb(196, 244, 144); fill-opacity: 1;"/><path class="point" transform="translate(164.63,150.08)" d="M2,0A2,2 0 1,1 0,-2A2,2 0 0,1 2,0Z" style="opacity: 1; stroke-width: 0px; fill: rgb(196, 244, 144); fill-opacity: 1;"/><path class="point" transform="translate(194.25,252.24)" d="M2,0A2,2 0 1,1 0,-2A2,2 0 0,1 2,0Z" style="opacity: 1; stroke-width: 0px; fill: rgb(196, 244, 144); fill-opacity: 1;"/><path class="point" transform="translate(223.88,305.4)" d="M2,0A2,2 0 1,1 0,-2A2,2 0 0,1 2,0Z" style="opacity: 1; stroke-width: 0px; fill: rgb(196, 244, 144); fill-opacity: 1;"/><path class="point" transform="translate(253.5,178.23)" d="M2,0A2,2 0 1,1 0,-2A2,2 0 0,1 2,0Z" style="opacity: 1; stroke-width: 0px; fill: rgb(196, 244, 144); fill-opacity: 1;"/></g><g class="text"/></g></g></g><g class="overplot"/><path class="xlines-above crisp" d="M0,0" style="fill: none;"/><path class="ylines-above crisp" d="M0,0" style="fill: none;"/><g class="overlines-above"/><g class="xaxislayer-above"><g class="xtick"><text text-anchor="start" x="1.75" y="485" transform="translate(96.5,0) rotate(90,1.75,480)" style="font-family: Balto; font-size: 10px; fill: rgb(0, 0, 0); fill-opacity: 1; white-space: pre; opacity: 1;">Jan</text></g><g class="xtick"><text text-anchor="start" x="1.75" y="485" transform="translate(126.13,0) rotate(90,1.75,480)" style="font-family: Balto; font-size: 10px; fill: rgb(0, 0, 0); fill-opacity: 1; white-space: pre; opacity: 1;">Feb</text></g><g class="xtick"><text text-anchor="start" x="1.75" y="485" transform="translate(155.75,0) rotate(90,1.75,480)" style="font-family: Balto; font-size: 10px; fill: rgb(0, 0, 0); fill-opacity: 1; white-space: pre; opacity: 1;">Mar</text></g><g class="xtick"><text text-anchor="start" x="1.75" y="485" transform="translate(185.38,0) rotate(90,1.75,480)" style="font-family: Balto; font-size: 10px; fill: rgb(0, 0, 0); fill-opacity: 1; white-space: pre; opacity: 1;">Apr</text></g><g class="xtick"><text text-anchor="start" x="1.75" y="485" transform="translate(215,0) rotate(90,1.75,480)" style="font-family: Balto; font-size: 10px; fill: rgb(0, 0, 0); fill-opacity: 1; white-space: pre; opacity: 1;">May</text></g><g class="xtick"><text text-anchor="start" x="1.75" y="485" transform="translate(244.63,0) rotate(90,1.75,480)" style="font-family: Balto; font-size: 10px; fill: rgb(0, 0, 0); fill-opacity: 1; white-space: pre; opacity: 1;">June</text></g><g class="xtick"><text text-anchor="start" x="1.75" y="485" transform="translate(274.25,0) rotate(90,1.75,480)" style="font-family: Balto; font-size: 10px; fill: rgb(0, 0, 0); fill-opacity: 1; white-space: pre; opacity: 1;">July</text></g><g class="xtick"><text text-anchor="start" x="1.75" y="485" transform="translate(303.88,0) rotate(90,1.75,480)" style="font-family: Balto; font-size: 10px; fill: rgb(0, 0, 0); fill-opacity: 1; white-space: pre; opacity: 1;">Aug</text></g><g class="xtick"><text text-anchor="start" x="1.75" y="485" transform="translate(333.5,0) rotate(90,1.75,480)" style="font-family: Balto; font-size: 10px; fill: rgb(0, 0, 0); fill-opacity: 1; white-space: pre; opacity: 1;">Sep</text></g></g><g class="yaxislayer-above"><g class="ytick"><text text-anchor="end" x="79" y="3.5" transform="translate(0,464.43)" style="font-family: Balto; font-size: 10px; fill: rgb(0, 0, 0); fill-opacity: 1; white-space: pre; opacity: 1;">0</text></g><g class="ytick"><text text-anchor="end" x="79" y="3.5" style="font-family: Balto; font-size: 10px; fill: rgb(0, 0, 0); fill-opacity: 1; white-space: pre; opacity: 1;" transform="translate(0,412.31)">50</text></g><g class="ytick"><text text-anchor="end" x="79" y="3.5" style="font-family: Balto; font-size: 10px; fill: rgb(0, 0, 0); fill-opacity: 1; white-space: pre; opacity: 1;" transform="translate(0,360.19)">100</text></g><g class="ytick"><text text-anchor="end" x="79" y="3.5" style="font-family: Balto; font-size: 10px; fill: rgb(0, 0, 0); fill-opacity: 1; white-space: pre; opacity: 1;" transform="translate(0,308.07)">150</text></g><g class="ytick"><text text-anchor="end" x="79" y="3.5" style="font-family: Balto; font-size: 10px; fill: rgb(0, 0, 0); fill-opacity: 1; white-space: pre; opacity: 1;" transform="translate(0,255.95)">200</text></g><g class="ytick"><text text-anchor="end" x="79" y="3.5" style="font-family: Balto; font-size: 10px; fill: rgb(0, 0, 0); fill-opacity: 1; white-space: pre; opacity: 1;" transform="translate(0,203.83)">250</text></g><g class="ytick"><text text-anchor="end" x="79" y="3.5" style="font-family: Balto; font-size: 10px; fill: rgb(0, 0, 0); fill-opacity: 1; white-space: pre; opacity: 1;" transform="translate(0,151.70999999999998)">300</text></g><g class="ytick"><text text-anchor="end" x="79" y="3.5" style="font-family: Balto; font-size: 10px; fill: rgb(0, 0, 0); fill-opacity: 1; white-space: pre; opacity: 1;" transform="translate(0,99.59)">350</text></g></g><g class="overaxes-above"/></g></g><g class="polarlayer"/><g class="smithlayer"/><g class="ternarylayer"/><g class="geolayer"/><g class="funnelarealayer"/><g class="pielayer"/><g class="iciclelayer"/><g class="treemaplayer"/><g class="sunburstlayer"/><g class="glimages"/><defs id="topdefs-3a5aa5"><g class="clips"/><clipPath id="legend3a5aa5"><rect width="237" height="67" x="0" y="0"/></clipPath></defs><g class="layer-above"><g class="imagelayer"/><g class="shapelayer"/></g><g class="infolayer"><g class="legend" pointer-events="all" transform="translate(80,520.9000000000001)"><rect class="bg" shape-rendering="crispEdges" style="stroke: rgb(68, 68, 68); stroke-opacity: 1; fill: rgb(255, 255, 255); fill-opacity: 1; stroke-width: 0px;" width="237" height="67" x="0" y="0"/><g class="scrollbox" transform="" clip-path="url(#legend3a5aa5)"><g class="groups" transform=""><g class="traces" transform="translate(0,14.5)" style="opacity: 1;"><text class="legendtext" text-anchor="start" x="40" y="4.680000000000001" style="font-family: Balto; font-size: 12px; fill: rgb(42, 63, 95); fill-opacity: 1; white-space: pre;">thank city past</text><g class="layers" style="opacity: 1;"><g class="legendfill"/><g class="legendlines"><path class="js-line" d="M5,0h30" style="fill: none; stroke: rgb(176, 226, 129); stroke-opacity: 1; stroke-width: 2px;"/></g><g class="legendsymbols"><g class="legendpoints"><path class="scatterpts" transform="translate(20,0)" d="M2,0A2,2 0 1,1 0,-2A2,2 0 0,1 2,0Z" style="opacity: 1; stroke-width: 0px; fill: rgb(176, 226, 129); fill-opacity: 1;"/></g></g></g><rect class="legendtoggle" x="0" y="-9.5" width="114.15625" height="19" style="fill: rgb(0, 0, 0); fill-opacity: 0;"/></g></g><g class="groups" transform="translate(116.65625,0)"><g class="traces" transform="translate(0,14.5)" style="opacity: 1;"><text class="legendtext" text-anchor="start" x="40" y="4.680000000000001" style="font-family: Balto; font-size: 12px; fill: rgb(42, 63, 95); fill-opacity: 1; white-space: pre;">same take bank</text><g class="layers" style="opacity: 1;"><g class="legendfill"/><g class="legendlines"><path class="js-line" d="M5,0h30" style="fill: none; stroke: rgb(22, 153, 107); stroke-opacity: 1; stroke-width: 2px;"/></g><g class="legendsymbols"><g class="legendpoints"><path class="scatterpts" transform="translate(20,0)" d="M2,0A2,2 0 1,1 0,-2A2,2 0 0,1 2,0Z" style="opacity: 1; stroke-width: 0px; fill: rgb(22, 153, 107); fill-opacity: 1;"/></g></g></g><rect class="legendtoggle" x="0" y="-9.5" width="117.46875" height="19" style="fill: rgb(0, 0, 0); fill-opacity: 0;"/></g></g><g class="groups" transform="translate(0,19)"><g class="traces" transform="translate(0,14.5)" style="opacity: 1;"><text class="legendtext" text-anchor="start" x="40" y="4.680000000000001" style="font-family: Balto; font-size: 12px; fill: rgb(42, 63, 95); fill-opacity: 1; white-space: pre;">couple piece technology</text><g class="layers" style="opacity: 1;"><g class="legendfill"/><g class="legendlines"><path class="js-line" d="M5,0h30" style="fill: none; stroke: rgb(204, 63, 110); stroke-opacity: 1; stroke-width: 2px;"/></g><g class="legendsymbols"><g class="legendpoints"><path class="scatterpts" transform="translate(20,0)" d="M2,0A2,2 0 1,1 0,-2A2,2 0 0,1 2,0Z" style="opacity: 1; stroke-width: 0px; fill: rgb(204, 63, 110); fill-opacity: 1;"/></g></g></g><rect class="legendtoggle" x="0" y="-9.5" width="160.125" height="19" style="fill: rgb(0, 0, 0); fill-opacity: 0;"/></g></g><g class="groups" transform="translate(0,38)"><g class="traces" transform="translate(0,14.5)" style="opacity: 1;"><text class="legendtext" text-anchor="start" x="40" y="4.680000000000001" style="font-family: Balto; font-size: 12px; fill: rgb(42, 63, 95); fill-opacity: 1; white-space: pre;">suffer training reality</text><g class="layers" style="opacity: 1;"><g class="legendfill"/><g class="legendlines"><path class="js-line" d="M5,0h30" style="fill: none; stroke: rgb(196, 244, 144); stroke-opacity: 1; stroke-width: 2px;"/></g><g class="legendsymbols"><g class="legendpoints"><path class="scatterpts" transform="translate(20,0)" d="M2,0A2,2 0 1,1 0,-2A2,2 0 0,1 2,0Z" style="opacity: 1; stroke-width: 0px; fill: rgb(196, 244, 144); fill-opacity: 1;"/></g></g></g><rect class="legendtoggle" x="0" y="-9.5" width="145.25" height="19" style="fill: rgb(0, 0, 0); fill-opacity: 0;"/></g></g></g><rect class="scrollbar" rx="20" ry="3" width="0" height="0" style="fill: rgb(128, 139, 164); fill-opacity: 1;" x="0" y="0"/></g><g class="g-gtitle"><text class="gtitle" x="215" y="30" text-anchor="end" dy="0em" style="font-family: Balto; font-size: 25px; fill: rgb(0, 0, 0); opacity: 1; font-weight: normal; white-space: pre;">area bar safe</text></g><g class="g-xtitle"><text class="xtitle" x="215" y="523.64375" text-anchor="middle" style="font-family: Balto; font-size: 14px; fill: rgb(0, 0, 0); opacity: 1; font-weight: normal; white-space: pre;">Month</text></g><g class="g-ytitle"/></g></svg>