<svg class="main-svg" xmlns="http://www.w3.org/2000/svg" xmlns:xlink="http://www.w3.org/1999/xlink" width="461" height="600" style="" viewBox="0 0 461 600"><rect x="0" y="0" width="461" height="600" style="fill: rgb(255, 255, 255); fill-opacity: 1;"/><defs id="defs-50365e"><g class="clips"><clipPath id="clip50365exyplot" class="plotclip"><rect width="193" height="460"/></clipPath><clipPath class="axesclip" id="clip50365ex"><rect x="80" y="0" width="193" height="600"/></clipPath><clipPath class="axesclip" id="clip50365ey"><rect x="0" y="60" width="461" height="460"/></clipPath><clipPath class="axesclip" id="clip50365exy"><rect x="80" y="60" width="193" height="460"/></clipPath></g><g class="gradients"/><g class="patterns"/></defs><g class="bglayer"><rect class="bg" x="80" y="60" width="193" height="460" style="fill: rgb(255, 255, 255); fill-opacity: 1; stroke-width: 0;"/></g><g class="layer-below"><g class="imagelayer"/><g class="shapelayer"/></g><g class="cartesianlayer"><g class="subplot xy"><g class="layer-subplot"><g class="shapelayer"/><g class="imagelayer"/></g><g class="minor-gridlayer"><g class="x"/><g class="y"/></g><g class="gridlayer"><g class="x"/><g class="y"/></g><g class="zerolinelayer"><path class="yzl zl crisp" transform="translate(0,496.19)" d="M80,0h193" style="stroke: rgb(255, 255, 255); stroke-opacity: 1; stroke-width: 2px;"/></g><path class="xlines-below"/><path class="ylines-below"/><g class="overlines-below"/><g class="xaxislayer-below"/><g class="yaxislayer-below"/><g class="overaxes-below"/><g class="plot" transform="translate(80,60)" clip-path="url(#clip50365exyplot)"><g class="scatterlayer mlayer"><g class="trace scatter tracefa3fd6" style="stroke-miterlimit: 2; opacity: 1;"><g class="fills"/><g class="errorbars"/><g class="lines"><path class="js-line" d="M12.77,426.94L29.52,26.13L46.26,79.26L63.01,391.14L79.76,266.39L96.5,210.94L113.24,344.93L129.99,291.8L146.73,254.83L163.48,39.99L180.23,155.5" style="vector-effect: none; fill: none; stroke: rgb(237, 193, 61); stroke-opacity: 1; stroke-width: 2px; opacity: 1;"/></g><g class="points"><path class="point" transform="translate(12.77,426.94)" d="M2.5,0A2.5,2.5 0 1,1 0,-2.5A2.5,2.5 0 0,1 2.5,0Z" style="opacity: 1; stroke: rgb(237, 193, 61); stroke-opacity: 1; stroke-width: 1px; fill: none;"/><path class="point" transform="translate(29.52,26.13)" d="M2.5,0A2.5,2.5 0 1,1 0,-2.5A2.5,2.5 0 0,1 2.5,0Z" style="opacity: 1; stroke: rgb(237, 193, 61); stroke-opacity: 1; stroke-width: 1px; fill: none;"/><path class="point" transform="translate(46.26,79.26)" d="M2.5,0A2.5,2.5 0 1,1 0,-2.5A2.5,2.5 0 0,1 2.5,0Z" style="opacity: 1; stroke: rgb(237, 193, 61); stroke-opacity: 1; stroke-width: 1px; fill: none;"/><path class="point" transform="translate(63.01,391.14)" d="M2.5,0A2.5,2.5 0 1,1 0,-2.5A2.5,2.5 0 0,1 2.5,0Z" style="opacity: 1; stroke: rgb(237, 193, 61); stroke-opacity: 1; stroke-width: 1px; fill: none;"/><path class="point" transform="translate(79.76,266.39)" d="M2.5,0A2.5,2.5 0 1,1 0,-2.5A2.5,2.5 0 0,1 2.5,0Z" style="opacity: 1; stroke: rgb(237, 193, 61); stroke-opacity: 1; stroke-width: 1px; fill: none;"/><path class="point" transform="translate(96.5,210.94)" d="M2.5,0A2.5,2.5 0 1,1 0,-2.5A2.5,2.5 0 0,1 2.5,0Z" style="opacity: 1; stroke: rgb(237, 193, 61); stroke-opacity: 1; stroke-width: 1px; fill: none;"/><path class="point" transform="translate(113.24,344.93)" d="M2.5,0A2.5,2.5 0 1,1 0,-2.5A2.5,2.5 0 0,1 2.5,0Z" style="opacity: 1; stroke: rgb(237, 193, 61); stroke-opacity: 1; stroke-width: 1px; fill: none;"/><path class="point" transform="translate(129.99,291.8)" d="M2.5,0A2.5,2.5 0 1,1 0,-2.5A2.5,2.5 0 0,1 2.5,0Z" style="opacity: 1; stroke: rgb(237, 193, 61); stroke-opacity: 1; stroke-width: 1px; fill: none;"/><path class="point" transform="translate(146.73,254.83)" d="M2.5,0A2.5,2.5 0 1,1 0,-2.5A2.5,2.5 0 0,1 2.5,0Z" style="opacity: 1; stroke: rgb(237, 193, 61); stroke-opacity: 1; stroke-width: 1px; fill: none;"/><path class="point" transform="translate(163.48,39.99)" d="M2.5,0A2.5,2.5 0 1,1 0,-2.5A2.5,2.5 0 0,1 2.5,0Z" style="opacity: 1; stroke: rgb(237, 193, 61); stroke-opacity: 1; stroke-width: 1px; fill: none;"/><path class="point" transform="translate(180.23,155.5)" d="M2.5,0A2.5,2.5 0 1,1 0,-2.5A2.5,2.5 0 0,1 2.5,0Z" style="opacity: 1; stroke: rgb(237, 193, 61); stroke-opacity: 1; stroke-width: 1px; fill: none;"/></g><g class="text"/></g><g class="trace scatter trace82adc6" style="stroke-miterlimit: 2; opacity: 1;"><g class="fills"/><g class="errorbars"/><g class="lines"><path class="js-line" d="M12.77,433.88L29.52,305.66L46.26,389.98L63.01,246.75L79.76,123.15L96.5,341.47L113.24,38.83L129.99,52.69L146.73,57.31L163.48,269.85L180.23,281.4" style="vector-effect: none; fill: none; stroke: rgb(108, 221, 79); stroke-opacity: 1; stroke-width: 2px; opacity: 1;"/></g><g class="points"><path class="point" transform="translate(12.77,433.88)" d="M2.5,0A2.5,2.5 0 1,1 0,-2.5A2.5,2.5 0 0,1 2.5,0Z" style="opacity: 1; stroke: rgb(108, 221, 79); stroke-opacity: 1; stroke-width: 1px; fill: none;"/><path class="point" transform="translate(29.52,305.66)" d="M2.5,0A2.5,2.5 0 1,1 0,-2.5A2.5,2.5 0 0,1 2.5,0Z" style="opacity: 1; stroke: rgb(108, 221, 79); stroke-opacity: 1; stroke-width: 1px; fill: none;"/><path class="point" transform="translate(46.26,389.98)" d="M2.5,0A2.5,2.5 0 1,1 0,-2.5A2.5,2.5 0 0,1 2.5,0Z" style="opacity: 1; stroke: rgb(108, 221, 79); stroke-opacity: 1; stroke-width: 1px; fill: none;"/><path class="point" transform="translate(63.01,246.75)" d="M2.5,0A2.5,2.5 0 1,1 0,-2.5A2.5,2.5 0 0,1 2.5,0Z" style="opacity: 1; stroke: rgb(108, 221, 79); stroke-opacity: 1; stroke-width: 1px; fill: none;"/><path class="point" transform="translate(79.76,123.15)" d="M2.5,0A2.5,2.5 0 1,1 0,-2.5A2.5,2.5 0 0,1 2.5,0Z" style="opacity: 1; stroke: rgb(108, 221, 79); stroke-opacity: 1; stroke-width: 1px; fill: none;"/><path class="point" transform="translate(96.5,341.47)" d="M2.5,0A2.5,2.5 0 1,1 0,-2.5A2.5,2.5 0 0,1 2.5,0Z" style="opacity: 1; stroke: rgb(108, 221, 79); stroke-opacity: 1; stroke-width: 1px; fill: none;"/><path class="point" transform="translate(113.24,38.83)" d="M2.5,0A2.5,2.5 0 1,1 0,-2.5A2.5,2.5 0 0,1 2.5,0Z" style="opacity: 1; stroke: rgb(108, 221, 79); stroke-opacity: 1; stroke-width: 1px; fill: none;"/><path class="point" transform="translate(129.99,52.69)" d="M2.5,0A2.5,2.5 0 1,1 0,-2.5A2.5,2.5 0 0,1 2.5,0Z" style="opacity: 1; stroke: rgb(108, 221, 79); stroke-opacity: 1; stroke-width: 1px; fill: none;"/><path class="point" transform="translate(146.73,57.31)" d="M2.5,0A2.5,2.5 0 1,1 0,-2.5A2.5,2.5 0 0,1 2.5,0Z" style="opacity: 1; stroke: rgb(108, 221, 79); stroke-opacity: 1; stroke-width: 1px; fill: none;"/><path class="point" transform="translate(163.48,269.85)" d="M2.5,0A2.5,2.5 0 1,1 0,-2.5A2.5,2.5 0 0,1 2.5,0Z" style="opacity: 1; stroke: rgb(108, 221, 79); stroke-opacity: 1; stroke-width: 1px; fill: none;"/><path class="point" transform="translate(180.23,281.4)" d="M2.5,0A2.5,2.5 0 1,1 0,-2.5A2.5,2.5 0 0,1 2.5,0Z" style="opacity: 1; stroke: rgb(108, 221, 79); stroke-opacity: 1; stroke-width: 1px; fill: none;"/></g><g class="text"/></g><g class="trace scatter tracecdb851" style="stroke-miterlimit: 2; opacity: 1;"><g class="fills"/><g class="errorbars"/><g class="lines"><path class="js-line" d="M12.77,82.72L29.52,205.17L46.26,142.79L63.01,264.08L79.76,371.5L96.5,350.71L113.24,320.68L129.99,88.5L146.73,411.93L163.48,156.65L180.23,373.81" style="vector-effect: none; fill: none; stroke: rgb(47, 87, 153); stroke-opacity: 1; stroke-width: 2px; opacity: 1;"/></g><g class="points"><path class="point" transform="translate(12.77,82.72)" d="M2.5,0A2.5,2.5 0 1,1 0,-2.5A2.5,2.5 0 0,1 2.5,0Z" style="opacity: 1; stroke: rgb(47, 87, 153); stroke-opacity: 1; stroke-width: 1px; fill: none;"/><path class="point" transform="translate(29.52,205.17)" d="M2.5,0A2.5,2.5 0 1,1 0,-2.5A2.5,2.5 0 0,1 2.5,0Z" style="opacity: 1; stroke: rgb(47, 87, 153); stroke-opacity: 1; stroke-width: 1px; fill: none;"/><path class="point" transform="translate(46.26,142.79)" d="M2.5,0A2.5,2.5 0 1,1 0,-2.5A2.5,2.5 0 0,1 2.5,0Z" style="opacity: 1; stroke: rgb(47, 87, 153); stroke-opacity: 1; stroke-width: 1px; fill: none;"/><path class="point" transform="translate(63.01,264.08)" d="M2.5,0A2.5,2.5 0 1,1 0,-2.5A2.5,2.5 0 0,1 2.5,0Z" style="opacity: 1; stroke: rgb(47, 87, 153); stroke-opacity: 1; stroke-width: 1px; fill: none;"/><path class="point" transform="translate(79.76,371.5)" d="M2.5,0A2.5,2.5 0 1,1 0,-2.5A2.5,2.5 0 0,1 2.5,0Z" style="opacity: 1; stroke: rgb(47, 87, 153); stroke-opacity: 1; stroke-width: 1px; fill: none;"/><path class="point" transform="translate(96.5,350.71)" d="M2.5,0A2.5,2.5 0 1,1 0,-2.5A2.5,2.5 0 0,1 2.5,0Z" style="opacity: 1; stroke: rgb(47, 87, 153); stroke-opacity: 1; stroke-width: 1px; fill: none;"/><path class="point" transform="translate(113.24,320.68)" d="M2.5,0A2.5,2.5 0 1,1 0,-2.5A2.5,2.5 0 0,1 2.5,0Z" style="opacity: 1; stroke: rgb(47, 87, 153); stroke-opacity: 1; stroke-width: 1px; fill: none;"/><path class="point" transform="translate(129.99,88.5)" d="M2.5,0A2.5,2.5 0 1,1 0,-2.5A2.5,2.5 0 0,1 2.5,0Z" style="opacity: 1; stroke: rgb(47, 87, 153); stroke-opacity: 1; stroke-width: 1px; fill: none;"/><path class="point" transform="translate(146.73,411.93)" d="M2.5,0A2.5,2.5 0 1,1 0,-2.5A2.5,2.5 0 0,1 2.5,0Z" style="opacity: 1; stroke: rgb(47, 87, 153); stroke-opacity: 1; stroke-width: 1px; fill: none;"/><path class="point" transform="translate(163.48,156.65)" d="M2.5,0A2.5,2.5 0 1,1 0,-2.5A2.5,2.5 0 0,1 2.5,0Z" style="opacity: 1; stroke: rgb(47, 87, 153); stroke-opacity: 1; stroke-width: 1px; fill: none;"/><path class="point" transform="translate(180.23,373.81)" d="M2.5,0A2.5,2.5 0 1,1 0,-2.5A2.5,2.5 0 0,1 2.5,0Z" style="opacity: 1; stroke: rgb(47, 87, 153); stroke-opacity: 1; stroke-width: 1px; fill: none;"/></g><g class="text"/></g><g class="trace scatter tracee4fb84" style="stroke-miterlimit: 2; opacity: 1;"><g class="fills"/><g class="errorbars"/><g class="lines"><path class="js-line" d="M12.77,113.91L29.52,376.12L46.26,362.26L63.01,269.85L79.76,184.37L96.5,67.71L113.24,338L129.99,249.06L146.73,283.71L163.48,130.08L180.23,406.15" style="vector-effect: none; fill: none; stroke: rgb(232, 204, 139); stroke-opacity: 1; stroke-width: 2px; opacity: 1;"/></g><g class="points"><path class="point" transform="translate(12.77,113.91)" d="M2.5,0A2.5,2.5 0 1,1 0,-2.5A2.5,2.5 0 0,1 2.5,0Z" style="opacity: 1; stroke: rgb(232, 204, 139); stroke-opacity: 1; stroke-width: 1px; fill: none;"/><path class="point" transform="translate(29.52,376.12)" d="M2.5,0A2.5,2.5 0 1,1 0,-2.5A2.5,2.5 0 0,1 2.5,0Z" style="opacity: 1; stroke: rgb(232, 204, 139); stroke-opacity: 1; stroke-width: 1px; fill: none;"/><path class="point" transform="translate(46.26,362.26)" d="M2.5,0A2.5,2.5 0 1,1 0,-2.5A2.5,2.5 0 0,1 2.5,0Z" style="opacity: 1; stroke: rgb(232, 204, 139); stroke-opacity: 1; stroke-width: 1px; fill: none;"/><path class="point" transform="translate(63.01,269.85)" d="M2.5,0A2.5,2.5 0 1,1 0,-2.5A2.5,2.5 0 0,1 2.5,0Z" style="opacity: 1; stroke: rgb(232, 204, 139); stroke-opacity: 1; stroke-width: 1px; fill: none;"/><path class="point" transform="translate(79.76,184.37)" d="M2.5,0A2.5,2.5 0 1,1 0,-2.5A2.5,2.5 0 0,1 2.5,0Z" style="opacity: 1; stroke: rgb(232, 204, 139); stroke-opacity: 1; stroke-width: 1px; fill: none;"/><path class="point" transform="translate(96.5,67.71)" d="M2.5,0A2.5,2.5 0 1,1 0,-2.5A2.5,2.5 0 0,1 2.5,0Z" style="opacity: 1; stroke: rgb(232, 204, 139); stroke-opacity: 1; stroke-width: 1px; fill: none;"/><path class="point" transform="translate(113.24,338)" d="M2.5,0A2.5,2.5 0 1,1 0,-2.5A2.5,2.5 0 0,1 2.5,0Z" style="opacity: 1; stroke: rgb(232, 204, 139); stroke-opacity: 1; stroke-width: 1px; fill: none;"/><path class="point" transform="translate(129.99,249.06)" d="M2.5,0A2.5,2.5 0 1,1 0,-2.5A2.5,2.5 0 0,1 2.5,0Z" style="opacity: 1; stroke: rgb(232, 204, 139); stroke-opacity: 1; stroke-width: 1px; fill: none;"/><path class="point" transform="translate(146.73,283.71)" d="M2.5,0A2.5,2.5 0 1,1 0,-2.5A2.5,2.5 0 0,1 2.5,0Z" style="opacity: 1; stroke: rgb(232, 204, 139); stroke-opacity: 1; stroke-width: 1px; fill: none;"/><path class="point" transform="translate(163.48,130.08)" d="M2.5,0A2.5,2.5 0 1,1 0,-2.5A2.5,2.5 0 0,1 2.5,0Z" style="opacity: 1; stroke: rgb(232, 204, 139); stroke-opacity: 1; stroke-width: 1px; fill: none;"/><path class="point" transform="translate(180.23,406.15)" d="M2.5,0A2.5,2.5 0 1,1 0,-2.5A2.5,2.5 0 0,1 2.5,0Z" style="opacity: 1; stroke: rgb(232, 204, 139); stroke-opacity: 1; stroke-width: 1px; fill: none;"/></g><g class="text"/></g></g></g><g class="overplot"/><path class="xlines-above crisp" d="M0,0" style="fill: none;"/><path class="ylines-above crisp" d="M79.5,60V520" style="fill: none; stroke-width: 1px; stroke: rgb(255, 255, 255); stroke-opacity: 1;"/><g class="overlines-above"/><g class="xaxislayer-above"><g class="xtick"><text text-anchor="start" x="1.9249999999999998" y="526.5" transform="translate(92.77,0) rotate(90,1.9249999999999998,521)" style="font-family: avenir; font-size: 11px; fill: rgb(0, 0, 0); fill-opacity: 1; white-space: pre; opacity: 1;">Jan</text></g><g class="xtick"><text text-anchor="start" x="1.9249999999999998" y="526.5" transform="translate(109.52,0) rotate(90,1.9249999999999998,521)" style="font-family: avenir; font-size: 11px; fill: rgb(0, 0, 0); fill-opacity: 1; white-space: pre; opacity: 1;">Feb</text></g><g class="xtick"><text text-anchor="start" x="1.9249999999999998" y="526.5" transform="translate(126.25999999999999,0) rotate(90,1.9249999999999998,521)" style="font-family: avenir; font-size: 11px; fill: rgb(0, 0, 0); fill-opacity: 1; white-space: pre; opacity: 1;">Mar</text></g><g class="xtick"><text text-anchor="start" x="1.9249999999999998" y="526.5" transform="translate(143.01,0) rotate(90,1.9249999999999998,521)" style="font-family: avenir; font-size: 11px; fill: rgb(0, 0, 0); fill-opacity: 1; white-space: pre; opacity: 1;">Apr</text></g><g class="xtick"><text text-anchor="start" x="1.9249999999999998" y="526.5" transform="translate(159.76,0) rotate(90,1.9249999999999998,521)" style="font-family: avenir; font-size: 11px; fill: rgb(0, 0, 0); fill-opacity: 1; white-space: pre; opacity: 1;">May</text></g><g class="xtick"><text text-anchor="start" x="1.9249999999999998" y="526.5" transform="translate(176.5,0) rotate(90,1.9249999999999998,521)" style="font-family: avenir; font-size: 11px; fill: rgb(0, 0, 0); fill-opacity: 1; white-space: pre; opacity: 1;">June</text></g><g class="xtick"><text text-anchor="start" x="1.9249999999999998" y="526.5" transform="translate(193.24,0) rotate(90,1.9249999999999998,521)" style="font-family: avenir; font-size: 11px; fill: rgb(0, 0, 0); fill-opacity: 1; white-space: pre; opacity: 1;">July</text></g><g class="xtick"><text text-anchor="start" x="1.9249999999999998" y="526.5" transform="translate(209.99,0) rotate(90,1.9249999999999998,521)" style="font-family: avenir; font-size: 11px; fill: rgb(0, 0, 0); fill-opacity: 1; white-space: pre; opacity: 1;">Aug</text></g><g class="xtick"><text text-anchor="start" x="1.9249999999999998" y="526.5" transform="translate(226.73,0) rotate(90,1.9249999999999998,521)" style="font-family: avenir; font-size: 11px; fill: rgb(0, 0, 0); fill-opacity: 1; white-space: pre; opacity: 1;">Sep</text></g><g class="xtick"><text text-anchor="start" x="1.9249999999999998" y="526.5" transform="translate(243.48,0) rotate(90,1.9249999999999998,521)" style="font-family: avenir; font-size: 11px; fill: rgb(0, 0, 0); fill-opacity: 1; white-space: pre; opacity: 1;">Oct</text></g><g class="xtick"><text text-anchor="start" x="1.9249999999999998" y="526.5" transform="translate(260.23,0) rotate(90,1.9249999999999998,521)" style="font-family: avenir; font-size: 11px; fill: rgb(0, 0, 0); fill-opacity: 1; white-space: pre; opacity: 1;">Nov</text></g></g><g class="yaxislayer-above"><g class="ytick"><text text-anchor="end" x="76.8" y="3.8499999999999996" transform="translate(0,496.19)" style="font-family: avenir; font-size: 11px; fill: rgb(0, 0, 0); fill-opacity: 1; white-space: pre; opacity: 1;">0</text></g><g class="ytick"><text text-anchor="end" x="76.8" y="3.8499999999999996" style="font-family: avenir; font-size: 11px; fill: rgb(0, 0, 0); fill-opacity: 1; white-space: pre; opacity: 1;" transform="translate(0,438.43)">50</text></g><g class="ytick"><text text-anchor="end" x="76.8" y="3.8499999999999996" style="font-family: avenir; font-size: 11px; fill: rgb(0, 0, 0); fill-opacity: 1; white-space: pre; opacity: 1;" transform="translate(0,380.68)">100</text></g><g class="ytick"><text text-anchor="end" x="76.8" y="3.8499999999999996" style="font-family: avenir; font-size: 11px; fill: rgb(0, 0, 0); fill-opacity: 1; white-space: pre; opacity: 1;" transform="translate(0,322.92)">150</text></g><g class="ytick"><text text-anchor="end" x="76.8" y="3.8499999999999996" style="font-family: avenir; font-size: 11px; fill: rgb(0, 0, 0); fill-opacity: 1; white-space: pre; opacity: 1;" transform="translate(0,265.16999999999996)">200</text></g><g class="ytick"><text text-anchor="end" x="76.8" y="3.8499999999999996" style="font-family: avenir; font-size: 11px; fill: rgb(0, 0, 0); fill-opacity: 1; white-space: pre; opacity: 1;" transform="translate(0,207.41)">250</text></g><g class="ytick"><text text-anchor="end" x="76.8" y="3.8499999999999996" style="font-family: avenir; font-size: 11px; fill: rgb(0, 0, 0); fill-opacity: 1; white-space: pre; opacity: 1;" transform="translate(0,149.66)">300</text></g><g class="ytick"><text text-anchor="end" x="76.8" y="3.8499999999999996" style="font-family: avenir; font-size: 11px; fill: rgb(0, 0, 0); fill-opacity: 1; white-space: pre; opacity: 1;" transform="translate(0,91.9)">350</text></g></g><g class="overaxes-above"/></g></g><g class="polarlayer"/><g class="smithlayer"/><g class="ternarylayer"/><g class="geolayer"/><g class="funnelarealayer"/><g class="pielayer"/><g class="iciclelayer"/><g class="treemaplayer"/><g class="sunburstlayer"/><g class="glimages"/><defs id="topdefs-50365e"><g class="clips"/><clipPath id="legend50365e"><rect width="172" height="86" x="0" y="0"/></clipPath></defs><g class="layer-above"><g class="imagelayer"/><g class="shapelayer"/></g><g class="infolayer"><g class="legend" pointer-events="all" transform="translate(276.86,60)"><rect class="bg" shape-rendering="crispEdges" style="stroke: rgb(68, 68, 68); stroke-opacity: 1; fill: rgb(255, 255, 255); fill-opacity: 1; stroke-width: 0px;" width="172" height="86" x="0" y="0"/><g class="scrollbox" transform="" clip-path="url(#legend50365e)"><g class="groups" transform=""><g class="traces" transform="translate(0,14.5)" style="opacity: 1;"><text class="legendtext" text-anchor="start" x="40" y="4.680000000000001" style="font-family: avenir; font-size: 12px; fill: rgb(42, 63, 95); fill-opacity: 1; white-space: pre;">quality size indicate</text><g class="layers" style="opacity: 1;"><g class="legendfill"/><g class="legendlines"><path class="js-line" d="M5,0h30" style="fill: none; stroke: rgb(237, 193, 61); stroke-opacity: 1; stroke-width: 2px;"/></g><g class="legendsymbols"><g class="legendpoints"><path class="scatterpts" transform="translate(20,0)" d="M2.5,0A2.5,2.5 0 1,1 0,-2.5A2.5,2.5 0 0,1 2.5,0Z" style="opacity: 1; stroke: rgb(237, 193, 61); stroke-opacity: 1; stroke-width: 1px; fill: none;"/></g></g></g><rect class="legendtoggle" x="0" y="-9.5" width="166.296875" height="19" style="fill: rgb(0, 0, 0); fill-opacity: 0;"/></g></g><g class="groups" transform=""><g class="traces" transform="translate(0,33.5)" style="opacity: 1;"><text class="legendtext" text-anchor="start" x="40" y="4.680000000000001" style="font-family: avenir; font-size: 12px; fill: rgb(42, 63, 95); fill-opacity: 1; white-space: pre;">keep understand financial</text><g class="layers" style="opacity: 1;"><g class="legendfill"/><g class="legendlines"><path class="js-line" d="M5,0h30" style="fill: none; stroke: rgb(108, 221, 79); stroke-opacity: 1; stroke-width: 2px;"/></g><g class="legendsymbols"><g class="legendpoints"><path class="scatterpts" transform="translate(20,0)" d="M2.5,0A2.5,2.5 0 1,1 0,-2.5A2.5,2.5 0 0,1 2.5,0Z" style="opacity: 1; stroke: rgb(108, 221, 79); stroke-opacity: 1; stroke-width: 1px; fill: none;"/></g></g></g><rect class="legendtoggle" x="0" y="-9.5" width="166.296875" height="19" style="fill: rgb(0, 0, 0); fill-opacity: 0;"/></g></g><g class="groups" transform=""><g class="traces" transform="translate(0,52.5)" style="opacity: 1;"><text class="legendtext" text-anchor="start" x="40" y="4.680000000000001" style="font-family: avenir; font-size: 12px; fill: rgb(42, 63, 95); fill-opacity: 1; white-space: pre;">model professor letter</text><g class="layers" style="opacity: 1;"><g class="legendfill"/><g class="legendlines"><path class="js-line" d="M5,0h30" style="fill: none; stroke: rgb(47, 87, 153); stroke-opacity: 1; stroke-width: 2px;"/></g><g class="legendsymbols"><g class="legendpoints"><path class="scatterpts" transform="translate(20,0)" d="M2.5,0A2.5,2.5 0 1,1 0,-2.5A2.5,2.5 0 0,1 2.5,0Z" style="opacity: 1; stroke: rgb(47, 87, 153); stroke-opacity: 1; stroke-width: 1px; fill: none;"/></g></g></g><rect class="legendtoggle" x="0" y="-9.5" width="166.296875" height="19" style="fill: rgb(0, 0, 0); fill-opacity: 0;"/></g></g><g class="groups" transform=""><g class="traces" transform="translate(0,71.5)" style="opacity: 1;"><text class="legendtext" text-anchor="start" x="40" y="4.680000000000001" style="font-family: avenir; font-size: 12px; fill: rgb(42, 63, 95); fill-opacity: 1; white-space: pre;">particularly strong decade</text><g class="layers" style="opacity: 1;"><g class="legendfill"/><g class="legendlines"><path class="js-line" d="M5,0h30" style="fill: none; stroke: rgb(232, 204, 139); stroke-opacity: 1; stroke-width: 2px;"/></g><g class="legendsymbols"><g class="legendpoints"><path class="scatterpts" transform="translate(20,0)" d="M2.5,0A2.5,2.5 0 1,1 0,-2.5A2.5,2.5 0 0,1 2.5,0Z" style="opacity: 1; stroke: rgb(232, 204, 139); stroke-opacity: 1; stroke-width: 1px; fill: none;"/></g></g></g><rect class="legendtoggle" x="0" y="-9.5" width="166.296875" height="19" style="fill: rgb(0, 0, 0); fill-opacity: 0;"/></g></g></g><rect class="scrollbar" rx="20" ry="3" width="0" height="0" style="fill: rgb(128, 139, 164); fill-opacity: 1;" x="0" y="0"/></g><g class="g-gtitle"><text class="gtitle" x="230.5" y="30" text-anchor="end" dy="0em" style="font-family: avenir; font-size: 25px; fill: rgb(0, 0, 0); opacity: 1; font-weight: normal; white-space: pre;">range city beautiful</text></g><g class="g-xtitle"/><g class="g-ytitle"/></g></svg>