<svg class="main-svg" xmlns="http://www.w3.org/2000/svg" xmlns:xlink="http://www.w3.org/1999/xlink" width="385" height="600" style="" viewBox="0 0 385 600"><rect x="0" y="0" width="385" height="600" style="fill: rgb(255, 255, 255); fill-opacity: 1;"/><defs id="defs-a88999"><g class="clips"><clipPath id="clipa88999xyplot" class="plotclip"><rect width="132" height="460"/></clipPath><clipPath class="axesclip" id="clipa88999x"><rect x="80" y="0" width="132" height="600"/></clipPath><clipPath class="axesclip" id="clipa88999y"><rect x="0" y="60" width="385" height="460"/></clipPath><clipPath class="axesclip" id="clipa88999xy"><rect x="80" y="60" width="132" height="460"/></clipPath></g><g class="gradients"/><g class="patterns"/></defs><g class="bglayer"><rect class="bg" x="80" y="60" width="132" height="460" style="fill: rgb(51, 51, 51); fill-opacity: 1; stroke-width: 0;"/></g><g class="layer-below"><g class="imagelayer"/><g class="shapelayer"/></g><g class="cartesianlayer"><g class="subplot xy"><g class="layer-subplot"><g class="shapelayer"/><g class="imagelayer"/></g><g class="minor-gridlayer"><g class="x"/><g class="y"/></g><g class="gridlayer"><g class="x"><path class="xgrid crisp" transform="translate(94.1,0)" d="M0,60v460" style="stroke: rgb(116, 116, 116); stroke-opacity: 1; stroke-width: 1px;"/><path class="xgrid crisp" transform="translate(111.4,0)" d="M0,60v460" style="stroke: rgb(116, 116, 116); stroke-opacity: 1; stroke-width: 1px;"/><path class="xgrid crisp" transform="translate(128.7,0)" d="M0,60v460" style="stroke: rgb(116, 116, 116); stroke-opacity: 1; stroke-width: 1px;"/><path class="xgrid crisp" transform="translate(146,0)" d="M0,60v460" style="stroke: rgb(116, 116, 116); stroke-opacity: 1; stroke-width: 1px;"/><path class="xgrid crisp" transform="translate(163.3,0)" d="M0,60v460" style="stroke: rgb(116, 116, 116); stroke-opacity: 1; stroke-width: 1px;"/><path class="xgrid crisp" transform="translate(180.6,0)" d="M0,60v460" style="stroke: rgb(116, 116, 116); stroke-opacity: 1; stroke-width: 1px;"/><path class="xgrid crisp" transform="translate(197.9,0)" d="M0,60v460" style="stroke: rgb(116, 116, 116); stroke-opacity: 1; stroke-width: 1px;"/></g><g class="y"/></g><g class="zerolinelayer"><path class="yzl zl crisp" transform="translate(0,493.03)" d="M80,0h132" style="stroke: rgb(255, 255, 255); stroke-opacity: 1; stroke-width: 2px;"/></g><path class="xlines-below"/><path class="ylines-below"/><g class="overlines-below"/><g class="xaxislayer-below"/><g class="yaxislayer-below"/><g class="overaxes-below"/><g class="plot" transform="translate(80,60)" clip-path="url(#clipa88999xyplot)"><g class="scatterlayer mlayer"><g class="trace scatter traceae465b" style="stroke-miterlimit: 2; opacity: 1;"><g class="fills"/><g class="errorbars"/><g class="lines"><path class="js-line" d="M14.1,256.48L31.4,34.03L48.7,256.48L66,79.93L83.3,168.21L100.6,337.69L117.9,256.48" style="vector-effect: none; fill: none; stroke: rgb(153, 219, 48); stroke-opacity: 1; stroke-width: 2px; opacity: 1;"/></g><g class="points"><path class="point" transform="translate(14.1,256.48)" d="M6,0A6,6 0 1,1 0,-6A6,6 0 0,1 6,0Z" style="opacity: 1; stroke: rgb(153, 219, 48); stroke-opacity: 1; stroke-width: 1px; fill: none;"/><path class="point" transform="translate(31.4,34.03)" d="M6,0A6,6 0 1,1 0,-6A6,6 0 0,1 6,0Z" style="opacity: 1; stroke: rgb(153, 219, 48); stroke-opacity: 1; stroke-width: 1px; fill: none;"/><path class="point" transform="translate(48.7,256.48)" d="M6,0A6,6 0 1,1 0,-6A6,6 0 0,1 6,0Z" style="opacity: 1; stroke: rgb(153, 219, 48); stroke-opacity: 1; stroke-width: 1px; fill: none;"/><path class="point" transform="translate(66,79.93)" d="M6,0A6,6 0 1,1 0,-6A6,6 0 0,1 6,0Z" style="opacity: 1; stroke: rgb(153, 219, 48); stroke-opacity: 1; stroke-width: 1px; fill: none;"/><path class="point" transform="translate(83.3,168.21)" d="M6,0A6,6 0 1,1 0,-6A6,6 0 0,1 6,0Z" style="opacity: 1; stroke: rgb(153, 219, 48); stroke-opacity: 1; stroke-width: 1px; fill: none;"/><path class="point" transform="translate(100.6,337.69)" d="M6,0A6,6 0 1,1 0,-6A6,6 0 0,1 6,0Z" style="opacity: 1; stroke: rgb(153, 219, 48); stroke-opacity: 1; stroke-width: 1px; fill: none;"/><path class="point" transform="translate(117.9,256.48)" d="M6,0A6,6 0 1,1 0,-6A6,6 0 0,1 6,0Z" style="opacity: 1; stroke: rgb(153, 219, 48); stroke-opacity: 1; stroke-width: 1px; fill: none;"/></g><g class="text"/></g><g class="trace scatter trace335dbb" style="stroke-miterlimit: 2; opacity: 1;"><g class="fills"/><g class="errorbars"/><g class="lines"><path class="js-line" d="M14.1,277.67L31.4,394.19L48.7,143.49L66,207.05L83.3,411.85L100.6,30.5L117.9,302.38" style="vector-effect: none; fill: none; stroke: rgb(171, 206, 30); stroke-opacity: 1; stroke-width: 2px; opacity: 1;"/></g><g class="points"><path class="point" transform="translate(14.1,277.67)" d="M6,0A6,6 0 1,1 0,-6A6,6 0 0,1 6,0Z" style="opacity: 1; stroke: rgb(171, 206, 30); stroke-opacity: 1; stroke-width: 1px; fill: none;"/><path class="point" transform="translate(31.4,394.19)" d="M6,0A6,6 0 1,1 0,-6A6,6 0 0,1 6,0Z" style="opacity: 1; stroke: rgb(171, 206, 30); stroke-opacity: 1; stroke-width: 1px; fill: none;"/><path class="point" transform="translate(48.7,143.49)" d="M6,0A6,6 0 1,1 0,-6A6,6 0 0,1 6,0Z" style="opacity: 1; stroke: rgb(171, 206, 30); stroke-opacity: 1; stroke-width: 1px; fill: none;"/><path class="point" transform="translate(66,207.05)" d="M6,0A6,6 0 1,1 0,-6A6,6 0 0,1 6,0Z" style="opacity: 1; stroke: rgb(171, 206, 30); stroke-opacity: 1; stroke-width: 1px; fill: none;"/><path class="point" transform="translate(83.3,411.85)" d="M6,0A6,6 0 1,1 0,-6A6,6 0 0,1 6,0Z" style="opacity: 1; stroke: rgb(171, 206, 30); stroke-opacity: 1; stroke-width: 1px; fill: none;"/><path class="point" transform="translate(100.6,30.5)" d="M6,0A6,6 0 1,1 0,-6A6,6 0 0,1 6,0Z" style="opacity: 1; stroke: rgb(171, 206, 30); stroke-opacity: 1; stroke-width: 1px; fill: none;"/><path class="point" transform="translate(117.9,302.38)" d="M6,0A6,6 0 1,1 0,-6A6,6 0 0,1 6,0Z" style="opacity: 1; stroke: rgb(171, 206, 30); stroke-opacity: 1; stroke-width: 1px; fill: none;"/></g><g class="text"/></g><g class="trace scatter trace136788" style="stroke-miterlimit: 2; opacity: 1;"><g class="fills"/><g class="errorbars"/><g class="lines"><path class="js-line" d="M14.1,312.98L31.4,189.39L48.7,139.96L66,97.59L83.3,358.88L100.6,341.23L117.9,139.96" style="vector-effect: none; fill: none; stroke: rgb(252, 93, 210); stroke-opacity: 1; stroke-width: 2px; opacity: 1;"/></g><g class="points"><path class="point" transform="translate(14.1,312.98)" d="M6,0A6,6 0 1,1 0,-6A6,6 0 0,1 6,0Z" style="opacity: 1; stroke: rgb(252, 93, 210); stroke-opacity: 1; stroke-width: 1px; fill: none;"/><path class="point" transform="translate(31.4,189.39)" d="M6,0A6,6 0 1,1 0,-6A6,6 0 0,1 6,0Z" style="opacity: 1; stroke: rgb(252, 93, 210); stroke-opacity: 1; stroke-width: 1px; fill: none;"/><path class="point" transform="translate(48.7,139.96)" d="M6,0A6,6 0 1,1 0,-6A6,6 0 0,1 6,0Z" style="opacity: 1; stroke: rgb(252, 93, 210); stroke-opacity: 1; stroke-width: 1px; fill: none;"/><path class="point" transform="translate(66,97.59)" d="M6,0A6,6 0 1,1 0,-6A6,6 0 0,1 6,0Z" style="opacity: 1; stroke: rgb(252, 93, 210); stroke-opacity: 1; stroke-width: 1px; fill: none;"/><path class="point" transform="translate(83.3,358.88)" d="M6,0A6,6 0 1,1 0,-6A6,6 0 0,1 6,0Z" style="opacity: 1; stroke: rgb(252, 93, 210); stroke-opacity: 1; stroke-width: 1px; fill: none;"/><path class="point" transform="translate(100.6,341.23)" d="M6,0A6,6 0 1,1 0,-6A6,6 0 0,1 6,0Z" style="opacity: 1; stroke: rgb(252, 93, 210); stroke-opacity: 1; stroke-width: 1px; fill: none;"/><path class="point" transform="translate(117.9,139.96)" d="M6,0A6,6 0 1,1 0,-6A6,6 0 0,1 6,0Z" style="opacity: 1; stroke: rgb(252, 93, 210); stroke-opacity: 1; stroke-width: 1px; fill: none;"/></g><g class="text"/></g><g class="trace scatter trace0d0fe0" style="stroke-miterlimit: 2; opacity: 1;"><g class="fills"/><g class="errorbars"/><g class="lines"><path class="js-line" d="M14.1,429.5L31.4,228.23L48.7,418.91L66,161.15L83.3,351.82L100.6,408.31L117.9,327.1" style="vector-effect: none; fill: none; stroke: rgb(216, 56, 133); stroke-opacity: 1; stroke-width: 2px; opacity: 1;"/></g><g class="points"><path class="point" transform="translate(14.1,429.5)" d="M6,0A6,6 0 1,1 0,-6A6,6 0 0,1 6,0Z" style="opacity: 1; stroke: rgb(216, 56, 133); stroke-opacity: 1; stroke-width: 1px; fill: none;"/><path class="point" transform="translate(31.4,228.23)" d="M6,0A6,6 0 1,1 0,-6A6,6 0 0,1 6,0Z" style="opacity: 1; stroke: rgb(216, 56, 133); stroke-opacity: 1; stroke-width: 1px; fill: none;"/><path class="point" transform="translate(48.7,418.91)" d="M6,0A6,6 0 1,1 0,-6A6,6 0 0,1 6,0Z" style="opacity: 1; stroke: rgb(216, 56, 133); stroke-opacity: 1; stroke-width: 1px; fill: none;"/><path class="point" transform="translate(66,161.15)" d="M6,0A6,6 0 1,1 0,-6A6,6 0 0,1 6,0Z" style="opacity: 1; stroke: rgb(216, 56, 133); stroke-opacity: 1; stroke-width: 1px; fill: none;"/><path class="point" transform="translate(83.3,351.82)" d="M6,0A6,6 0 1,1 0,-6A6,6 0 0,1 6,0Z" style="opacity: 1; stroke: rgb(216, 56, 133); stroke-opacity: 1; stroke-width: 1px; fill: none;"/><path class="point" transform="translate(100.6,408.31)" d="M6,0A6,6 0 1,1 0,-6A6,6 0 0,1 6,0Z" style="opacity: 1; stroke: rgb(216, 56, 133); stroke-opacity: 1; stroke-width: 1px; fill: none;"/><path class="point" transform="translate(117.9,327.1)" d="M6,0A6,6 0 1,1 0,-6A6,6 0 0,1 6,0Z" style="opacity: 1; stroke: rgb(216, 56, 133); stroke-opacity: 1; stroke-width: 1px; fill: none;"/></g><g class="text"/></g></g></g><g class="overplot"/><path class="xlines-above crisp" d="M0,0" style="fill: none;"/><path class="ylines-above crisp" d="M0,0" style="fill: none;"/><g class="overlines-above"/><g class="xaxislayer-above"><g class="xtick"><text text-anchor="start" x="0" y="532" transform="translate(94.1,0) rotate(45,0,526.5)" style="font-family: Balto; font-size: 11px; fill: rgb(0, 0, 0); fill-opacity: 1; white-space: pre; opacity: 1;">Jan</text></g><g class="xtick"><text text-anchor="start" x="0" y="532" transform="translate(111.4,0) rotate(45,0,526.5)" style="font-family: Balto; font-size: 11px; fill: rgb(0, 0, 0); fill-opacity: 1; white-space: pre; opacity: 1;">Feb</text></g><g class="xtick"><text text-anchor="start" x="0" y="532" transform="translate(128.7,0) rotate(45,0,526.5)" style="font-family: Balto; font-size: 11px; fill: rgb(0, 0, 0); fill-opacity: 1; white-space: pre; opacity: 1;">Mar</text></g><g class="xtick"><text text-anchor="start" x="0" y="532" transform="translate(146,0) rotate(45,0,526.5)" style="font-family: Balto; font-size: 11px; fill: rgb(0, 0, 0); fill-opacity: 1; white-space: pre; opacity: 1;">Apr</text></g><g class="xtick"><text text-anchor="start" x="0" y="532" transform="translate(163.3,0) rotate(45,0,526.5)" style="font-family: Balto; font-size: 11px; fill: rgb(0, 0, 0); fill-opacity: 1; white-space: pre; opacity: 1;">May</text></g><g class="xtick"><text text-anchor="start" x="0" y="532" transform="translate(180.6,0) rotate(45,0,526.5)" style="font-family: Balto; font-size: 11px; fill: rgb(0, 0, 0); fill-opacity: 1; white-space: pre; opacity: 1;">June</text></g><g class="xtick"><text text-anchor="start" x="0" y="532" transform="translate(197.9,0) rotate(45,0,526.5)" style="font-family: Balto; font-size: 11px; fill: rgb(0, 0, 0); fill-opacity: 1; white-space: pre; opacity: 1;">July</text></g></g><g class="yaxislayer-above"><g class="ytick"><text text-anchor="end" x="79" y="3.8499999999999996" transform="translate(0,493.03)" style="font-family: Balto; font-size: 11px; fill: rgb(0, 0, 0); fill-opacity: 1; white-space: pre; opacity: 1;">0</text></g><g class="ytick"><text text-anchor="end" x="79" y="3.8499999999999996" style="font-family: Balto; font-size: 11px; fill: rgb(0, 0, 0); fill-opacity: 1; white-space: pre; opacity: 1;" transform="translate(0,422.41)">20</text></g><g class="ytick"><text text-anchor="end" x="79" y="3.8499999999999996" style="font-family: Balto; font-size: 11px; fill: rgb(0, 0, 0); fill-opacity: 1; white-space: pre; opacity: 1;" transform="translate(0,351.79)">40</text></g><g class="ytick"><text text-anchor="end" x="79" y="3.8499999999999996" style="font-family: Balto; font-size: 11px; fill: rgb(0, 0, 0); fill-opacity: 1; white-space: pre; opacity: 1;" transform="translate(0,281.16999999999996)">60</text></g><g class="ytick"><text text-anchor="end" x="79" y="3.8499999999999996" style="font-family: Balto; font-size: 11px; fill: rgb(0, 0, 0); fill-opacity: 1; white-space: pre; opacity: 1;" transform="translate(0,210.55)">80</text></g><g class="ytick"><text text-anchor="end" x="79" y="3.8499999999999996" style="font-family: Balto; font-size: 11px; fill: rgb(0, 0, 0); fill-opacity: 1; white-space: pre; opacity: 1;" transform="translate(0,139.93)">100</text></g><g class="ytick"><text text-anchor="end" x="79" y="3.8499999999999996" style="font-family: Balto; font-size: 11px; fill: rgb(0, 0, 0); fill-opacity: 1; white-space: pre; opacity: 1;" transform="translate(0,69.31)">120</text></g></g><g class="overaxes-above"/></g></g><g class="polarlayer"/><g class="smithlayer"/><g class="ternarylayer"/><g class="geolayer"/><g class="funnelarealayer"/><g class="pielayer"/><g class="iciclelayer"/><g class="treemaplayer"/><g class="sunburstlayer"/><g class="glimages"/><defs id="topdefs-a88999"><g class="clips"/><clipPath id="legenda88999"><rect width="158" height="105" x="0" y="0"/></clipPath></defs><g class="layer-above"><g class="imagelayer"/><g class="shapelayer"/></g><g class="infolayer"><g class="legend" pointer-events="all" transform="translate(214.64000000000001,60)"><rect class="bg" shape-rendering="crispEdges" style="stroke: rgb(68, 68, 68); stroke-opacity: 1; fill: rgb(255, 255, 255); fill-opacity: 1; stroke-width: 0px;" width="158" height="105" x="0" y="0"/><g class="scrollbox" transform="" clip-path="url(#legenda88999)"><text class="legendtitletext" text-anchor="start" x="2" y="18.2" style="font-family: Balto; font-size: 14px; fill: rgb(42, 63, 95); fill-opacity: 1; white-space: pre;">along chance memory</text><g class="groups" transform=""><g class="traces" transform="translate(0,32.7)" style="opacity: 1;"><text class="legendtext" text-anchor="start" x="40" y="4.680000000000001" style="font-family: Balto; font-size: 12px; fill: rgb(42, 63, 95); fill-opacity: 1; white-space: pre;">prevent interview year</text><g class="layers" style="opacity: 1;"><g class="legendfill"/><g class="legendlines"><path class="js-line" d="M5,0h30" style="fill: none; stroke: rgb(153, 219, 48); stroke-opacity: 1; stroke-width: 2px;"/></g><g class="legendsymbols"><g class="legendpoints"><path class="scatterpts" transform="translate(20,0)" d="M6,0A6,6 0 1,1 0,-6A6,6 0 0,1 6,0Z" style="opacity: 1; stroke: rgb(153, 219, 48); stroke-opacity: 1; stroke-width: 1px; fill: none;"/></g></g></g><rect class="legendtoggle" x="0" y="-9.5" width="152.640625" height="19" style="fill: rgb(0, 0, 0); fill-opacity: 0;"/></g></g><g class="groups" transform=""><g class="traces" transform="translate(0,51.7)" style="opacity: 1;"><text class="legendtext" text-anchor="start" x="40" y="4.680000000000001" style="font-family: Balto; font-size: 12px; fill: rgb(42, 63, 95); fill-opacity: 1; white-space: pre;">image painting like</text><g class="layers" style="opacity: 1;"><g class="legendfill"/><g class="legendlines"><path class="js-line" d="M5,0h30" style="fill: none; stroke: rgb(171, 206, 30); stroke-opacity: 1; stroke-width: 2px;"/></g><g class="legendsymbols"><g class="legendpoints"><path class="scatterpts" transform="translate(20,0)" d="M6,0A6,6 0 1,1 0,-6A6,6 0 0,1 6,0Z" style="opacity: 1; stroke: rgb(171, 206, 30); stroke-opacity: 1; stroke-width: 1px; fill: none;"/></g></g></g><rect class="legendtoggle" x="0" y="-9.5" width="152.640625" height="19" style="fill: rgb(0, 0, 0); fill-opacity: 0;"/></g></g><g class="groups" transform=""><g class="traces" transform="translate(0,70.7)" style="opacity: 1;"><text class="legendtext" text-anchor="start" x="40" y="4.680000000000001" style="font-family: Balto; font-size: 12px; fill: rgb(42, 63, 95); fill-opacity: 1; white-space: pre;">ago public action</text><g class="layers" style="opacity: 1;"><g class="legendfill"/><g class="legendlines"><path class="js-line" d="M5,0h30" style="fill: none; stroke: rgb(252, 93, 210); stroke-opacity: 1; stroke-width: 2px;"/></g><g class="legendsymbols"><g class="legendpoints"><path class="scatterpts" transform="translate(20,0)" d="M6,0A6,6 0 1,1 0,-6A6,6 0 0,1 6,0Z" style="opacity: 1; stroke: rgb(252, 93, 210); stroke-opacity: 1; stroke-width: 1px; fill: none;"/></g></g></g><rect class="legendtoggle" x="0" y="-9.5" width="152.640625" height="19" style="fill: rgb(0, 0, 0); fill-opacity: 0;"/></g></g><g class="groups" transform=""><g class="traces" transform="translate(0,89.7)" style="opacity: 1;"><text class="legendtext" text-anchor="start" x="40" y="4.680000000000001" style="font-family: Balto; font-size: 12px; fill: rgb(42, 63, 95); fill-opacity: 1; white-space: pre;">religious across church</text><g class="layers" style="opacity: 1;"><g class="legendfill"/><g class="legendlines"><path class="js-line" d="M5,0h30" style="fill: none; stroke: rgb(216, 56, 133); stroke-opacity: 1; stroke-width: 2px;"/></g><g class="legendsymbols"><g class="legendpoints"><path class="scatterpts" transform="translate(20,0)" d="M6,0A6,6 0 1,1 0,-6A6,6 0 0,1 6,0Z" style="opacity: 1; stroke: rgb(216, 56, 133); stroke-opacity: 1; stroke-width: 1px; fill: none;"/></g></g></g><rect class="legendtoggle" x="0" y="-9.5" width="152.640625" height="19" style="fill: rgb(0, 0, 0); fill-opacity: 0;"/></g></g></g><rect class="scrollbar" rx="20" ry="3" width="0" height="0" style="fill: rgb(128, 139, 164); fill-opacity: 1;" x="0" y="0"/></g><g class="g-gtitle"><text class="gtitle" x="192.5" y="30" text-anchor="middle" dy="0em" style="font-family: Balto; font-size: 25px; fill: rgb(0, 0, 0); opacity: 1; font-weight: normal; white-space: pre;">high have first</text></g><g class="g-xtitle"/><g class="g-ytitle"><text class="ytitle" transform="rotate(-90,38.2,290)" x="38.2" y="290" text-anchor="middle" style="font-family: Balto; font-size: 14px; fill: rgb(0, 0, 0); opacity: 1; font-weight: normal; white-space: pre;">now or with</text></g></g></svg>