<svg class="main-svg" xmlns="http://www.w3.org/2000/svg" xmlns:xlink="http://www.w3.org/1999/xlink" width="801" height="600" style="" viewBox="0 0 801 600"><rect x="0" y="0" width="801" height="600" style="fill: rgb(255, 255, 255); fill-opacity: 1;"/><defs id="defs-2a2ec5"><g class="clips"><clipPath id="clip2a2ec5xyplot" class="plotclip"><rect width="550" height="458"/></clipPath><clipPath class="axesclip" id="clip2a2ec5x"><rect x="80" y="0" width="550" height="600"/></clipPath><clipPath class="axesclip" id="clip2a2ec5y"><rect x="0" y="60" width="801" height="458"/></clipPath><clipPath class="axesclip" id="clip2a2ec5xy"><rect x="80" y="60" width="550" height="458"/></clipPath></g><g class="gradients"/><g class="patterns"/></defs><g class="bglayer"><rect class="bg" x="80" y="60" width="550" height="458" style="fill: rgb(255, 255, 255); fill-opacity: 1; stroke-width: 0;"/></g><g class="layer-below"><g class="imagelayer"/><g class="shapelayer"/></g><g class="cartesianlayer"><g class="subplot xy"><g class="layer-subplot"><g class="shapelayer"/><g class="imagelayer"/></g><g class="minor-gridlayer"><g class="x"/><g class="y"/></g><g class="gridlayer"><g class="x"/><g class="y"><path class="ygrid crisp" transform="translate(0,405.55)" d="M80,0h550" style="stroke: rgb(208, 208, 208); stroke-opacity: 1; stroke-width: 1px;"/><path class="ygrid crisp" transform="translate(0,315.9)" d="M80,0h550" style="stroke: rgb(208, 208, 208); stroke-opacity: 1; stroke-width: 1px;"/><path class="ygrid crisp" transform="translate(0,226.24)" d="M80,0h550" style="stroke: rgb(208, 208, 208); stroke-opacity: 1; stroke-width: 1px;"/><path class="ygrid crisp" transform="translate(0,136.59)" d="M80,0h550" style="stroke: rgb(208, 208, 208); stroke-opacity: 1; stroke-width: 1px;"/></g></g><g class="zerolinelayer"><path class="yzl zl crisp" transform="translate(0,495.21)" d="M80,0h550" style="stroke: rgb(255, 255, 255); stroke-opacity: 1; stroke-width: 2px;"/></g><path class="xlines-below"/><path class="ylines-below"/><g class="overlines-below"/><g class="xaxislayer-below"/><g class="yaxislayer-below"/><g class="overaxes-below"/><g class="plot" transform="translate(80,60)" clip-path="url(#clip2a2ec5xyplot)"><g class="scatterlayer mlayer"><g class="trace scatter traceff8efb" style="stroke-miterlimit: 2; opacity: 1;"><g class="fills"/><g class="errorbars"/><g class="lines"><path class="js-line" d="M31.88,116.93L112.92,27.27L193.96,318.66L275,157.28L356.04,36.24L437.08,206.59L518.13,58.65" style="vector-effect: none; fill: none; stroke: rgb(12, 75, 247); stroke-opacity: 1; stroke-width: 2px; opacity: 1;"/></g><g class="points"><path class="point" transform="translate(31.88,116.93)" d="M3.5,0A3.5,3.5 0 1,1 0,-3.5A3.5,3.5 0 0,1 3.5,0Z" style="opacity: 1; stroke: rgb(12, 75, 247); stroke-opacity: 1; stroke-width: 1px; fill: none;"/><path class="point" transform="translate(112.92,27.27)" d="M3.5,0A3.5,3.5 0 1,1 0,-3.5A3.5,3.5 0 0,1 3.5,0Z" style="opacity: 1; stroke: rgb(12, 75, 247); stroke-opacity: 1; stroke-width: 1px; fill: none;"/><path class="point" transform="translate(193.96,318.66)" d="M3.5,0A3.5,3.5 0 1,1 0,-3.5A3.5,3.5 0 0,1 3.5,0Z" style="opacity: 1; stroke: rgb(12, 75, 247); stroke-opacity: 1; stroke-width: 1px; fill: none;"/><path class="point" transform="translate(275,157.28)" d="M3.5,0A3.5,3.5 0 1,1 0,-3.5A3.5,3.5 0 0,1 3.5,0Z" style="opacity: 1; stroke: rgb(12, 75, 247); stroke-opacity: 1; stroke-width: 1px; fill: none;"/><path class="point" transform="translate(356.04,36.24)" d="M3.5,0A3.5,3.5 0 1,1 0,-3.5A3.5,3.5 0 0,1 3.5,0Z" style="opacity: 1; stroke: rgb(12, 75, 247); stroke-opacity: 1; stroke-width: 1px; fill: none;"/><path class="point" transform="translate(437.08,206.59)" d="M3.5,0A3.5,3.5 0 1,1 0,-3.5A3.5,3.5 0 0,1 3.5,0Z" style="opacity: 1; stroke: rgb(12, 75, 247); stroke-opacity: 1; stroke-width: 1px; fill: none;"/><path class="point" transform="translate(518.13,58.65)" d="M3.5,0A3.5,3.5 0 1,1 0,-3.5A3.5,3.5 0 0,1 3.5,0Z" style="opacity: 1; stroke: rgb(12, 75, 247); stroke-opacity: 1; stroke-width: 1px; fill: none;"/></g><g class="text"/></g><g class="trace scatter trace365756" style="stroke-miterlimit: 2; opacity: 1;"><g class="fills"/><g class="errorbars"/><g class="lines"><path class="js-line" d="M31.88,27.27L112.92,282.79L193.96,206.59L275,408.31L356.04,359L437.08,139.34L518.13,54.17" style="vector-effect: none; fill: none; stroke: rgb(35, 239, 229); stroke-opacity: 1; stroke-width: 2px; opacity: 1;"/></g><g class="points"><path class="point" transform="translate(31.88,27.27)" d="M3.5,0A3.5,3.5 0 1,1 0,-3.5A3.5,3.5 0 0,1 3.5,0Z" style="opacity: 1; stroke: rgb(35, 239, 229); stroke-opacity: 1; stroke-width: 1px; fill: none;"/><path class="point" transform="translate(112.92,282.79)" d="M3.5,0A3.5,3.5 0 1,1 0,-3.5A3.5,3.5 0 0,1 3.5,0Z" style="opacity: 1; stroke: rgb(35, 239, 229); stroke-opacity: 1; stroke-width: 1px; fill: none;"/><path class="point" transform="translate(193.96,206.59)" d="M3.5,0A3.5,3.5 0 1,1 0,-3.5A3.5,3.5 0 0,1 3.5,0Z" style="opacity: 1; stroke: rgb(35, 239, 229); stroke-opacity: 1; stroke-width: 1px; fill: none;"/><path class="point" transform="translate(275,408.31)" d="M3.5,0A3.5,3.5 0 1,1 0,-3.5A3.5,3.5 0 0,1 3.5,0Z" style="opacity: 1; stroke: rgb(35, 239, 229); stroke-opacity: 1; stroke-width: 1px; fill: none;"/><path class="point" transform="translate(356.04,359)" d="M3.5,0A3.5,3.5 0 1,1 0,-3.5A3.5,3.5 0 0,1 3.5,0Z" style="opacity: 1; stroke: rgb(35, 239, 229); stroke-opacity: 1; stroke-width: 1px; fill: none;"/><path class="point" transform="translate(437.08,139.34)" d="M3.5,0A3.5,3.5 0 1,1 0,-3.5A3.5,3.5 0 0,1 3.5,0Z" style="opacity: 1; stroke: rgb(35, 239, 229); stroke-opacity: 1; stroke-width: 1px; fill: none;"/><path class="point" transform="translate(518.13,54.17)" d="M3.5,0A3.5,3.5 0 1,1 0,-3.5A3.5,3.5 0 0,1 3.5,0Z" style="opacity: 1; stroke: rgb(35, 239, 229); stroke-opacity: 1; stroke-width: 1px; fill: none;"/></g><g class="text"/></g><g class="trace scatter trace2eafd4" style="stroke-miterlimit: 2; opacity: 1;"><g class="fills"/><g class="errorbars"/><g class="lines"><path class="js-line" d="M31.88,430.73L112.92,40.72L193.96,179.69L275,121.41L356.04,354.52L437.08,94.52L518.13,350.04" style="vector-effect: none; fill: none; stroke: rgb(229, 187, 144); stroke-opacity: 1; stroke-width: 2px; opacity: 1;"/></g><g class="points"><path class="point" transform="translate(31.88,430.73)" d="M3.5,0A3.5,3.5 0 1,1 0,-3.5A3.5,3.5 0 0,1 3.5,0Z" style="opacity: 1; stroke: rgb(229, 187, 144); stroke-opacity: 1; stroke-width: 1px; fill: none;"/><path class="point" transform="translate(112.92,40.72)" d="M3.5,0A3.5,3.5 0 1,1 0,-3.5A3.5,3.5 0 0,1 3.5,0Z" style="opacity: 1; stroke: rgb(229, 187, 144); stroke-opacity: 1; stroke-width: 1px; fill: none;"/><path class="point" transform="translate(193.96,179.69)" d="M3.5,0A3.5,3.5 0 1,1 0,-3.5A3.5,3.5 0 0,1 3.5,0Z" style="opacity: 1; stroke: rgb(229, 187, 144); stroke-opacity: 1; stroke-width: 1px; fill: none;"/><path class="point" transform="translate(275,121.41)" d="M3.5,0A3.5,3.5 0 1,1 0,-3.5A3.5,3.5 0 0,1 3.5,0Z" style="opacity: 1; stroke: rgb(229, 187, 144); stroke-opacity: 1; stroke-width: 1px; fill: none;"/><path class="point" transform="translate(356.04,354.52)" d="M3.5,0A3.5,3.5 0 1,1 0,-3.5A3.5,3.5 0 0,1 3.5,0Z" style="opacity: 1; stroke: rgb(229, 187, 144); stroke-opacity: 1; stroke-width: 1px; fill: none;"/><path class="point" transform="translate(437.08,94.52)" d="M3.5,0A3.5,3.5 0 1,1 0,-3.5A3.5,3.5 0 0,1 3.5,0Z" style="opacity: 1; stroke: rgb(229, 187, 144); stroke-opacity: 1; stroke-width: 1px; fill: none;"/><path class="point" transform="translate(518.13,350.04)" d="M3.5,0A3.5,3.5 0 1,1 0,-3.5A3.5,3.5 0 0,1 3.5,0Z" style="opacity: 1; stroke: rgb(229, 187, 144); stroke-opacity: 1; stroke-width: 1px; fill: none;"/></g><g class="text"/></g><g class="trace scatter tracea355ec" style="stroke-miterlimit: 2; opacity: 1;"><g class="fills"/><g class="errorbars"/><g class="lines"><path class="js-line" d="M31.88,161.76L112.92,72.1L193.96,76.59L275,49.69L356.04,359L437.08,130.38L518.13,318.66" style="vector-effect: none; fill: none; stroke: rgb(174, 249, 117); stroke-opacity: 1; stroke-width: 2px; opacity: 1;"/></g><g class="points"><path class="point" transform="translate(31.88,161.76)" d="M3.5,0A3.5,3.5 0 1,1 0,-3.5A3.5,3.5 0 0,1 3.5,0Z" style="opacity: 1; stroke: rgb(174, 249, 117); stroke-opacity: 1; stroke-width: 1px; fill: none;"/><path class="point" transform="translate(112.92,72.1)" d="M3.5,0A3.5,3.5 0 1,1 0,-3.5A3.5,3.5 0 0,1 3.5,0Z" style="opacity: 1; stroke: rgb(174, 249, 117); stroke-opacity: 1; stroke-width: 1px; fill: none;"/><path class="point" transform="translate(193.96,76.59)" d="M3.5,0A3.5,3.5 0 1,1 0,-3.5A3.5,3.5 0 0,1 3.5,0Z" style="opacity: 1; stroke: rgb(174, 249, 117); stroke-opacity: 1; stroke-width: 1px; fill: none;"/><path class="point" transform="translate(275,49.69)" d="M3.5,0A3.5,3.5 0 1,1 0,-3.5A3.5,3.5 0 0,1 3.5,0Z" style="opacity: 1; stroke: rgb(174, 249, 117); stroke-opacity: 1; stroke-width: 1px; fill: none;"/><path class="point" transform="translate(356.04,359)" d="M3.5,0A3.5,3.5 0 1,1 0,-3.5A3.5,3.5 0 0,1 3.5,0Z" style="opacity: 1; stroke: rgb(174, 249, 117); stroke-opacity: 1; stroke-width: 1px; fill: none;"/><path class="point" transform="translate(437.08,130.38)" d="M3.5,0A3.5,3.5 0 1,1 0,-3.5A3.5,3.5 0 0,1 3.5,0Z" style="opacity: 1; stroke: rgb(174, 249, 117); stroke-opacity: 1; stroke-width: 1px; fill: none;"/><path class="point" transform="translate(518.13,318.66)" d="M3.5,0A3.5,3.5 0 1,1 0,-3.5A3.5,3.5 0 0,1 3.5,0Z" style="opacity: 1; stroke: rgb(174, 249, 117); stroke-opacity: 1; stroke-width: 1px; fill: none;"/></g><g class="text"/></g></g></g><g class="overplot"/><path class="xlines-above crisp" d="M0,0" style="fill: none;"/><path class="ylines-above crisp" d="M0,0" style="fill: none;"/><g class="overlines-above"/><g class="xaxislayer-above"><g class="xtick"><text text-anchor="start" x="0" y="538" transform="translate(111.88,0) rotate(45,0,528.5)" style="font-family: serif; font-size: 19px; fill: rgb(0, 0, 0); fill-opacity: 1; white-space: pre; opacity: 1;">Jan</text></g><g class="xtick"><text text-anchor="start" x="0" y="538" transform="translate(192.92000000000002,0) rotate(45,0,528.5)" style="font-family: serif; font-size: 19px; fill: rgb(0, 0, 0); fill-opacity: 1; white-space: pre; opacity: 1;">Feb</text></g><g class="xtick"><text text-anchor="start" x="0" y="538" transform="translate(273.96000000000004,0) rotate(45,0,528.5)" style="font-family: serif; font-size: 19px; fill: rgb(0, 0, 0); fill-opacity: 1; white-space: pre; opacity: 1;">Mar</text></g><g class="xtick"><text text-anchor="start" x="0" y="538" transform="translate(355,0) rotate(45,0,528.5)" style="font-family: serif; font-size: 19px; fill: rgb(0, 0, 0); fill-opacity: 1; white-space: pre; opacity: 1;">Apr</text></g><g class="xtick"><text text-anchor="start" x="0" y="538" transform="translate(436.04,0) rotate(45,0,528.5)" style="font-family: serif; font-size: 19px; fill: rgb(0, 0, 0); fill-opacity: 1; white-space: pre; opacity: 1;">May</text></g><g class="xtick"><text text-anchor="start" x="0" y="538" transform="translate(517.0799999999999,0) rotate(45,0,528.5)" style="font-family: serif; font-size: 19px; fill: rgb(0, 0, 0); fill-opacity: 1; white-space: pre; opacity: 1;">June</text></g><g class="xtick"><text text-anchor="start" x="0" y="538" transform="translate(598.13,0) rotate(45,0,528.5)" style="font-family: serif; font-size: 19px; fill: rgb(0, 0, 0); fill-opacity: 1; white-space: pre; opacity: 1;">July</text></g></g><g class="yaxislayer-above"><g class="ytick"><text text-anchor="end" x="79" y="6.6499999999999995" transform="translate(0,495.21)" style="font-family: serif; font-size: 19px; fill: rgb(0, 0, 0); fill-opacity: 1; white-space: pre; opacity: 1;">0</text></g><g class="ytick"><text text-anchor="end" x="79" y="6.6499999999999995" style="font-family: serif; font-size: 19px; fill: rgb(0, 0, 0); fill-opacity: 1; white-space: pre; opacity: 1;" transform="translate(0,405.55)">20</text></g><g class="ytick"><text text-anchor="end" x="79" y="6.6499999999999995" style="font-family: serif; font-size: 19px; fill: rgb(0, 0, 0); fill-opacity: 1; white-space: pre; opacity: 1;" transform="translate(0,315.9)">40</text></g><g class="ytick"><text text-anchor="end" x="79" y="6.6499999999999995" style="font-family: serif; font-size: 19px; fill: rgb(0, 0, 0); fill-opacity: 1; white-space: pre; opacity: 1;" transform="translate(0,226.24)">60</text></g><g class="ytick"><text text-anchor="end" x="79" y="6.6499999999999995" style="font-family: serif; font-size: 19px; fill: rgb(0, 0, 0); fill-opacity: 1; white-space: pre; opacity: 1;" transform="translate(0,136.59)">80</text></g></g><g class="overaxes-above"/></g></g><g class="polarlayer"/><g class="smithlayer"/><g class="ternarylayer"/><g class="geolayer"/><g class="funnelarealayer"/><g class="pielayer"/><g class="iciclelayer"/><g class="treemaplayer"/><g class="sunburstlayer"/><g class="glimages"/><defs id="topdefs-2a2ec5"><g class="clips"/><clipPath id="legend2a2ec5"><rect width="148" height="86" x="0" y="0"/></clipPath></defs><g class="layer-above"><g class="imagelayer"/><g class="shapelayer"/></g><g class="infolayer"><g class="legend" pointer-events="all" transform="translate(641,60)"><rect class="bg" shape-rendering="crispEdges" style="stroke: rgb(68, 68, 68); stroke-opacity: 1; fill: rgb(255, 255, 255); fill-opacity: 1; stroke-width: 0px;" width="148" height="86" x="0" y="0"/><g class="scrollbox" transform="" clip-path="url(#legend2a2ec5)"><g class="groups" transform=""><g class="traces" transform="translate(0,14.5)" style="opacity: 1;"><text class="legendtext" text-anchor="start" x="40" y="4.680000000000001" style="font-family: serif; font-size: 12px; fill: rgb(42, 63, 95); fill-opacity: 1; white-space: pre;">interesting care leave</text><g class="layers" style="opacity: 1;"><g class="legendfill"/><g class="legendlines"><path class="js-line" d="M5,0h30" style="fill: none; stroke: rgb(12, 75, 247); stroke-opacity: 1; stroke-width: 2px;"/></g><g class="legendsymbols"><g class="legendpoints"><path class="scatterpts" transform="translate(20,0)" d="M3.5,0A3.5,3.5 0 1,1 0,-3.5A3.5,3.5 0 0,1 3.5,0Z" style="opacity: 1; stroke: rgb(12, 75, 247); stroke-opacity: 1; stroke-width: 1px; fill: none;"/></g></g></g><rect class="legendtoggle" x="0" y="-9.5" width="142.625" height="19" style="fill: rgb(0, 0, 0); fill-opacity: 0;"/></g></g><g class="groups" transform=""><g class="traces" transform="translate(0,33.5)" style="opacity: 1;"><text class="legendtext" text-anchor="start" x="40" y="4.680000000000001" style="font-family: serif; font-size: 12px; fill: rgb(42, 63, 95); fill-opacity: 1; white-space: pre;">remain stock final</text><g class="layers" style="opacity: 1;"><g class="legendfill"/><g class="legendlines"><path class="js-line" d="M5,0h30" style="fill: none; stroke: rgb(35, 239, 229); stroke-opacity: 1; stroke-width: 2px;"/></g><g class="legendsymbols"><g class="legendpoints"><path class="scatterpts" transform="translate(20,0)" d="M3.5,0A3.5,3.5 0 1,1 0,-3.5A3.5,3.5 0 0,1 3.5,0Z" style="opacity: 1; stroke: rgb(35, 239, 229); stroke-opacity: 1; stroke-width: 1px; fill: none;"/></g></g></g><rect class="legendtoggle" x="0" y="-9.5" width="142.625" height="19" style="fill: rgb(0, 0, 0); fill-opacity: 0;"/></g></g><g class="groups" transform=""><g class="traces" transform="translate(0,52.5)" style="opacity: 1;"><text class="legendtext" text-anchor="start" x="40" y="4.680000000000001" style="font-family: serif; font-size: 12px; fill: rgb(42, 63, 95); fill-opacity: 1; white-space: pre;">seem simply enter</text><g class="layers" style="opacity: 1;"><g class="legendfill"/><g class="legendlines"><path class="js-line" d="M5,0h30" style="fill: none; stroke: rgb(229, 187, 144); stroke-opacity: 1; stroke-width: 2px;"/></g><g class="legendsymbols"><g class="legendpoints"><path class="scatterpts" transform="translate(20,0)" d="M3.5,0A3.5,3.5 0 1,1 0,-3.5A3.5,3.5 0 0,1 3.5,0Z" style="opacity: 1; stroke: rgb(229, 187, 144); stroke-opacity: 1; stroke-width: 1px; fill: none;"/></g></g></g><rect class="legendtoggle" x="0" y="-9.5" width="142.625" height="19" style="fill: rgb(0, 0, 0); fill-opacity: 0;"/></g></g><g class="groups" transform=""><g class="traces" transform="translate(0,71.5)" style="opacity: 1;"><text class="legendtext" text-anchor="start" x="40" y="4.680000000000001" style="font-family: serif; font-size: 12px; fill: rgb(42, 63, 95); fill-opacity: 1; white-space: pre;">safe head Mrs</text><g class="layers" style="opacity: 1;"><g class="legendfill"/><g class="legendlines"><path class="js-line" d="M5,0h30" style="fill: none; stroke: rgb(174, 249, 117); stroke-opacity: 1; stroke-width: 2px;"/></g><g class="legendsymbols"><g class="legendpoints"><path class="scatterpts" transform="translate(20,0)" d="M3.5,0A3.5,3.5 0 1,1 0,-3.5A3.5,3.5 0 0,1 3.5,0Z" style="opacity: 1; stroke: rgb(174, 249, 117); stroke-opacity: 1; stroke-width: 1px; fill: none;"/></g></g></g><rect class="legendtoggle" x="0" y="-9.5" width="142.625" height="19" style="fill: rgb(0, 0, 0); fill-opacity: 0;"/></g></g></g><rect class="scrollbar" rx="20" ry="3" width="0" height="0" style="fill: rgb(128, 139, 164); fill-opacity: 1;" x="0" y="0"/></g><g class="g-gtitle"><text class="gtitle" x="400.5" y="30" text-anchor="start" dy="0em" style="font-family: serif; font-size: 25px; fill: rgb(0, 0, 0); opacity: 1; font-weight: normal; white-space: pre;">of marriage statement</text></g><g class="g-xtitle"><text class="xtitle" x="355" y="587.38203125" text-anchor="middle" style="font-family: serif; font-size: 14px; fill: rgb(0, 0, 0); opacity: 1; font-weight: normal; white-space: pre;">Month</text></g><g class="g-ytitle"/></g></svg>