<svg class="main-svg" xmlns="http://www.w3.org/2000/svg" xmlns:xlink="http://www.w3.org/1999/xlink" width="904" height="600" style="" viewBox="0 0 904 600"><rect x="0" y="0" width="904" height="600" style="fill: rgb(255, 255, 255); fill-opacity: 1;"/><defs id="defs-092e5c"><g class="clips"><clipPath id="clip092e5cxyplot" class="plotclip"><rect width="631" height="460"/></clipPath><clipPath class="axesclip" id="clip092e5cx"><rect x="80" y="0" width="631" height="600"/></clipPath><clipPath class="axesclip" id="clip092e5cy"><rect x="0" y="60" width="904" height="460"/></clipPath><clipPath class="axesclip" id="clip092e5cxy"><rect x="80" y="60" width="631" height="460"/></clipPath></g><g class="gradients"/><g class="patterns"/></defs><g class="bglayer"><rect class="bg" x="80" y="60" width="631" height="460" style="fill: rgb(51, 51, 51); fill-opacity: 1; stroke-width: 0;"/></g><g class="layer-below"><g class="imagelayer"/><g class="shapelayer"/></g><g class="cartesianlayer"><g class="subplot xy"><g class="layer-subplot"><g class="shapelayer"/><g class="imagelayer"/></g><g class="minor-gridlayer"><g class="x"/><g class="y"/></g><g class="gridlayer"><g class="x"><path class="xgrid crisp" transform="translate(114.67,0)" d="M0,60v460" style="stroke: rgb(116, 116, 116); stroke-opacity: 1; stroke-width: 1px;"/><path class="xgrid crisp" transform="translate(184.88,0)" d="M0,60v460" style="stroke: rgb(116, 116, 116); stroke-opacity: 1; stroke-width: 1px;"/><path class="xgrid crisp" transform="translate(255.09,0)" d="M0,60v460" style="stroke: rgb(116, 116, 116); stroke-opacity: 1; stroke-width: 1px;"/><path class="xgrid crisp" transform="translate(325.28999999999996,0)" d="M0,60v460" style="stroke: rgb(116, 116, 116); stroke-opacity: 1; stroke-width: 1px;"/><path class="xgrid crisp" transform="translate(395.5,0)" d="M0,60v460" style="stroke: rgb(116, 116, 116); stroke-opacity: 1; stroke-width: 1px;"/><path class="xgrid crisp" transform="translate(465.71,0)" d="M0,60v460" style="stroke: rgb(116, 116, 116); stroke-opacity: 1; stroke-width: 1px;"/><path class="xgrid crisp" transform="translate(535.9100000000001,0)" d="M0,60v460" style="stroke: rgb(116, 116, 116); stroke-opacity: 1; stroke-width: 1px;"/><path class="xgrid crisp" transform="translate(606.12,0)" d="M0,60v460" style="stroke: rgb(116, 116, 116); stroke-opacity: 1; stroke-width: 1px;"/><path class="xgrid crisp" transform="translate(676.32,0)" d="M0,60v460" style="stroke: rgb(116, 116, 116); stroke-opacity: 1; stroke-width: 1px;"/></g><g class="y"><path class="ygrid crisp" transform="translate(0,468.19)" d="M80,0h631" style="stroke: rgb(116, 116, 116); stroke-opacity: 1; stroke-width: 1px;"/><path class="ygrid crisp" transform="translate(0,403.98)" d="M80,0h631" style="stroke: rgb(116, 116, 116); stroke-opacity: 1; stroke-width: 1px;"/><path class="ygrid crisp" transform="translate(0,339.76)" d="M80,0h631" style="stroke: rgb(116, 116, 116); stroke-opacity: 1; stroke-width: 1px;"/><path class="ygrid crisp" transform="translate(0,275.55)" d="M80,0h631" style="stroke: rgb(116, 116, 116); stroke-opacity: 1; stroke-width: 1px;"/><path class="ygrid crisp" transform="translate(0,211.34)" d="M80,0h631" style="stroke: rgb(116, 116, 116); stroke-opacity: 1; stroke-width: 1px;"/><path class="ygrid crisp" transform="translate(0,147.13)" d="M80,0h631" style="stroke: rgb(116, 116, 116); stroke-opacity: 1; stroke-width: 1px;"/><path class="ygrid crisp" transform="translate(0,82.91)" d="M80,0h631" style="stroke: rgb(116, 116, 116); stroke-opacity: 1; stroke-width: 1px;"/></g></g><g class="zerolinelayer"/><path class="xlines-below"/><path class="ylines-below"/><g class="overlines-below"/><g class="xaxislayer-below"/><g class="yaxislayer-below"/><g class="overaxes-below"/><g class="plot" transform="translate(80,60)" clip-path="url(#clip092e5cxyplot)"><g class="scatterlayer mlayer"><g class="trace scatter traced310da" style="stroke-miterlimit: 2; opacity: 1;"><g class="fills"/><g class="errorbars"/><g class="lines"><path class="js-line" d="M34.67,96.76L104.88,360.03L175.09,366.45L245.29,356.82L315.5,241.24L385.71,414.61L455.91,433.87L526.12,26.13L596.32,74.28" style="vector-effect: none; fill: none; stroke: rgb(165, 18, 47); stroke-opacity: 1; stroke-width: 2px; opacity: 1;"/></g><g class="points"><path class="point" transform="translate(34.67,96.76)" d="M2.5,0A2.5,2.5 0 1,1 0,-2.5A2.5,2.5 0 0,1 2.5,0Z" style="opacity: 1; stroke-width: 0px; fill: rgb(165, 18, 47); fill-opacity: 1;"/><path class="point" transform="translate(104.88,360.03)" d="M2.5,0A2.5,2.5 0 1,1 0,-2.5A2.5,2.5 0 0,1 2.5,0Z" style="opacity: 1; stroke-width: 0px; fill: rgb(165, 18, 47); fill-opacity: 1;"/><path class="point" transform="translate(175.09,366.45)" d="M2.5,0A2.5,2.5 0 1,1 0,-2.5A2.5,2.5 0 0,1 2.5,0Z" style="opacity: 1; stroke-width: 0px; fill: rgb(165, 18, 47); fill-opacity: 1;"/><path class="point" transform="translate(245.29,356.82)" d="M2.5,0A2.5,2.5 0 1,1 0,-2.5A2.5,2.5 0 0,1 2.5,0Z" style="opacity: 1; stroke-width: 0px; fill: rgb(165, 18, 47); fill-opacity: 1;"/><path class="point" transform="translate(315.5,241.24)" d="M2.5,0A2.5,2.5 0 1,1 0,-2.5A2.5,2.5 0 0,1 2.5,0Z" style="opacity: 1; stroke-width: 0px; fill: rgb(165, 18, 47); fill-opacity: 1;"/><path class="point" transform="translate(385.71,414.61)" d="M2.5,0A2.5,2.5 0 1,1 0,-2.5A2.5,2.5 0 0,1 2.5,0Z" style="opacity: 1; stroke-width: 0px; fill: rgb(165, 18, 47); fill-opacity: 1;"/><path class="point" transform="translate(455.91,433.87)" d="M2.5,0A2.5,2.5 0 1,1 0,-2.5A2.5,2.5 0 0,1 2.5,0Z" style="opacity: 1; stroke-width: 0px; fill: rgb(165, 18, 47); fill-opacity: 1;"/><path class="point" transform="translate(526.12,26.13)" d="M2.5,0A2.5,2.5 0 1,1 0,-2.5A2.5,2.5 0 0,1 2.5,0Z" style="opacity: 1; stroke-width: 0px; fill: rgb(165, 18, 47); fill-opacity: 1;"/><path class="point" transform="translate(596.32,74.28)" d="M2.5,0A2.5,2.5 0 1,1 0,-2.5A2.5,2.5 0 0,1 2.5,0Z" style="opacity: 1; stroke-width: 0px; fill: rgb(165, 18, 47); fill-opacity: 1;"/></g><g class="text"/></g></g></g><g class="overplot"/><path class="xlines-above crisp" d="M0,0" style="fill: none;"/><path class="ylines-above crisp" d="M79.5,60V520" style="fill: none; stroke-width: 1px; stroke: rgb(255, 255, 255); stroke-opacity: 1;"/><g class="overlines-above"/><g class="xaxislayer-above"><g class="xtick"><text text-anchor="middle" x="0" y="536" transform="translate(114.67,0)" style="font-family: monospace; font-size: 15px; fill: rgb(0, 0, 0); fill-opacity: 1; white-space: pre; opacity: 1;">Jan</text></g><g class="xtick"><text text-anchor="middle" x="0" y="536" transform="translate(184.88,0)" style="font-family: monospace; font-size: 15px; fill: rgb(0, 0, 0); fill-opacity: 1; white-space: pre; opacity: 1;">Feb</text></g><g class="xtick"><text text-anchor="middle" x="0" y="536" transform="translate(255.09,0)" style="font-family: monospace; font-size: 15px; fill: rgb(0, 0, 0); fill-opacity: 1; white-space: pre; opacity: 1;">Mar</text></g><g class="xtick"><text text-anchor="middle" x="0" y="536" transform="translate(325.28999999999996,0)" style="font-family: monospace; font-size: 15px; fill: rgb(0, 0, 0); fill-opacity: 1; white-space: pre; opacity: 1;">Apr</text></g><g class="xtick"><text text-anchor="middle" x="0" y="536" transform="translate(395.5,0)" style="font-family: monospace; font-size: 15px; fill: rgb(0, 0, 0); fill-opacity: 1; white-space: pre; opacity: 1;">May</text></g><g class="xtick"><text text-anchor="middle" x="0" y="536" transform="translate(465.71,0)" style="font-family: monospace; font-size: 15px; fill: rgb(0, 0, 0); fill-opacity: 1; white-space: pre; opacity: 1;">June</text></g><g class="xtick"><text text-anchor="middle" x="0" y="536" transform="translate(535.9100000000001,0)" style="font-family: monospace; font-size: 15px; fill: rgb(0, 0, 0); fill-opacity: 1; white-space: pre; opacity: 1;">July</text></g><g class="xtick"><text text-anchor="middle" x="0" y="536" transform="translate(606.12,0)" style="font-family: monospace; font-size: 15px; fill: rgb(0, 0, 0); fill-opacity: 1; white-space: pre; opacity: 1;">Aug</text></g><g class="xtick"><text text-anchor="middle" x="0" y="536" transform="translate(676.32,0)" style="font-family: monospace; font-size: 15px; fill: rgb(0, 0, 0); fill-opacity: 1; white-space: pre; opacity: 1;">Sep</text></g></g><g class="yaxislayer-above"><g class="ytick"><text text-anchor="end" x="76" y="5.25" transform="translate(0,468.19)" style="font-family: monospace; font-size: 15px; fill: rgb(0, 0, 0); fill-opacity: 1; white-space: pre; opacity: 1;">40</text></g><g class="ytick"><text text-anchor="end" x="76" y="5.25" style="font-family: monospace; font-size: 15px; fill: rgb(0, 0, 0); fill-opacity: 1; white-space: pre; opacity: 1;" transform="translate(0,403.98)">60</text></g><g class="ytick"><text text-anchor="end" x="76" y="5.25" style="font-family: monospace; font-size: 15px; fill: rgb(0, 0, 0); fill-opacity: 1; white-space: pre; opacity: 1;" transform="translate(0,339.76)">80</text></g><g class="ytick"><text text-anchor="end" x="76" y="5.25" style="font-family: monospace; font-size: 15px; fill: rgb(0, 0, 0); fill-opacity: 1; white-space: pre; opacity: 1;" transform="translate(0,275.55)">100</text></g><g class="ytick"><text text-anchor="end" x="76" y="5.25" style="font-family: monospace; font-size: 15px; fill: rgb(0, 0, 0); fill-opacity: 1; white-space: pre; opacity: 1;" transform="translate(0,211.34)">120</text></g><g class="ytick"><text text-anchor="end" x="76" y="5.25" style="font-family: monospace; font-size: 15px; fill: rgb(0, 0, 0); fill-opacity: 1; white-space: pre; opacity: 1;" transform="translate(0,147.13)">140</text></g><g class="ytick"><text text-anchor="end" x="76" y="5.25" style="font-family: monospace; font-size: 15px; fill: rgb(0, 0, 0); fill-opacity: 1; white-space: pre; opacity: 1;" transform="translate(0,82.91)">160</text></g></g><g class="overaxes-above"/></g></g><g class="polarlayer"/><g class="smithlayer"/><g class="ternarylayer"/><g class="geolayer"/><g class="funnelarealayer"/><g class="pielayer"/><g class="iciclelayer"/><g class="treemaplayer"/><g class="sunburstlayer"/><g class="glimages"/><defs id="topdefs-092e5c"><g class="clips"/><clipPath id="legend092e5c"><rect width="168" height="29" x="0" y="0"/></clipPath></defs><g class="layer-above"><g class="imagelayer"/><g class="shapelayer"/></g><g class="infolayer"><g class="legend" pointer-events="all" transform="translate(723.62,60)"><rect class="bg" shape-rendering="crispEdges" style="stroke: rgb(68, 68, 68); stroke-opacity: 1; fill: rgb(255, 255, 255); fill-opacity: 1; stroke-width: 0px;" width="168" height="29" x="0" y="0"/><g class="scrollbox" transform="" clip-path="url(#legend092e5c)"><g class="groups" transform=""><g class="traces" transform="translate(0,14.5)" style="opacity: 1;"><text class="legendtext" text-anchor="start" x="40" y="4.680000000000001" style="font-family: monospace; font-size: 12px; fill: rgb(42, 63, 95); fill-opacity: 1; white-space: pre;">care set employee</text><g class="layers" style="opacity: 1;"><g class="legendfill"/><g class="legendlines"><path class="js-line" d="M5,0h30" style="fill: none; stroke: rgb(165, 18, 47); stroke-opacity: 1; stroke-width: 2px;"/></g><g class="legendsymbols"><g class="legendpoints"><path class="scatterpts" transform="translate(20,0)" d="M2.5,0A2.5,2.5 0 1,1 0,-2.5A2.5,2.5 0 0,1 2.5,0Z" style="opacity: 1; stroke-width: 0px; fill: rgb(165, 18, 47); fill-opacity: 1;"/></g></g></g><rect class="legendtoggle" x="0" y="-9.5" width="162.421875" height="19" style="fill: rgb(0, 0, 0); fill-opacity: 0;"/></g></g></g><rect class="scrollbar" rx="20" ry="3" width="0" height="0" style="fill: rgb(128, 139, 164); fill-opacity: 1;" x="0" y="0"/></g><g class="g-gtitle"><text class="gtitle" x="452" y="30" text-anchor="end" dy="0em" style="font-family: monospace; font-size: 25px; fill: rgb(0, 0, 0); opacity: 1; font-weight: normal; white-space: pre;">picture response better</text></g><g class="g-xtitle"><text class="xtitle" x="395.5" y="565.3" text-anchor="middle" style="font-family: monospace; font-size: 14px; fill: rgb(0, 0, 0); opacity: 1; font-weight: normal; white-space: pre;">Month</text></g><g class="g-ytitle"/></g></svg>