<svg class="main-svg" xmlns="http://www.w3.org/2000/svg" xmlns:xlink="http://www.w3.org/1999/xlink" width="719" height="600" style="" viewBox="0 0 719 600"><rect x="0" y="0" width="719" height="600" style="fill: rgb(255, 255, 255); fill-opacity: 1;"/><defs id="defs-d09628"><g class="clips"><clipPath id="clipd09628xyplot" class="plotclip"><rect width="559" height="454"/></clipPath><clipPath class="axesclip" id="clipd09628x"><rect x="80" y="0" width="559" height="600"/></clipPath><clipPath class="axesclip" id="clipd09628y"><rect x="0" y="60" width="719" height="454"/></clipPath><clipPath class="axesclip" id="clipd09628xy"><rect x="80" y="60" width="559" height="454"/></clipPath></g><g class="gradients"/><g class="patterns"/></defs><g class="bglayer"><rect class="bg" x="80" y="60" width="559" height="454" style="fill: rgb(51, 51, 51); fill-opacity: 1; stroke-width: 0;"/></g><g class="layer-below"><g class="imagelayer"/><g class="shapelayer"/></g><g class="cartesianlayer"><g class="subplot xy"><g class="layer-subplot"><g class="shapelayer"/><g class="imagelayer"/></g><g class="minor-gridlayer"><g class="x"/><g class="y"/></g><g class="gridlayer"><g class="x"/><g class="y"><path class="ygrid crisp" transform="translate(0,420.41)" d="M80,0h559" style="stroke: rgb(116, 116, 116); stroke-opacity: 1; stroke-width: 1px;"/><path class="ygrid crisp" transform="translate(0,314.53)" d="M80,0h559" style="stroke: rgb(116, 116, 116); stroke-opacity: 1; stroke-width: 1px;"/><path class="ygrid crisp" transform="translate(0,208.65)" d="M80,0h559" style="stroke: rgb(116, 116, 116); stroke-opacity: 1; stroke-width: 1px;"/><path class="ygrid crisp" transform="translate(0,102.77000000000001)" d="M80,0h559" style="stroke: rgb(116, 116, 116); stroke-opacity: 1; stroke-width: 1px;"/></g></g><g class="zerolinelayer"/><path class="xlines-below"/><path class="ylines-below"/><g class="overlines-below"/><g class="xaxislayer-below"/><g class="yaxislayer-below"/><g class="overaxes-below"/><g class="plot" transform="translate(80,60)" clip-path="url(#clipd09628xyplot)"><g class="scatterlayer mlayer"><g class="trace scatter tracea4a875" style="stroke-miterlimit: 2; opacity: 1;"><g class="fills"/><g class="errorbars"/><g class="lines"><path class="js-line" d="M31.07,366.76L155.29,250.29L279.5,428.18L403.71,63.94L527.93,25.82" style="vector-effect: none; fill: none; stroke: rgb(73, 252, 219); stroke-opacity: 1; stroke-width: 2px; opacity: 1;"/></g><g class="points"><path class="point" transform="translate(31.07,366.76)" d="M2.5,0A2.5,2.5 0 1,1 0,-2.5A2.5,2.5 0 0,1 2.5,0Z" style="opacity: 1; stroke: rgb(73, 252, 219); stroke-opacity: 1; stroke-width: 1px; fill: none;"/><path class="point" transform="translate(155.29,250.29)" d="M2.5,0A2.5,2.5 0 1,1 0,-2.5A2.5,2.5 0 0,1 2.5,0Z" style="opacity: 1; stroke: rgb(73, 252, 219); stroke-opacity: 1; stroke-width: 1px; fill: none;"/><path class="point" transform="translate(279.5,428.18)" d="M2.5,0A2.5,2.5 0 1,1 0,-2.5A2.5,2.5 0 0,1 2.5,0Z" style="opacity: 1; stroke: rgb(73, 252, 219); stroke-opacity: 1; stroke-width: 1px; fill: none;"/><path class="point" transform="translate(403.71,63.94)" d="M2.5,0A2.5,2.5 0 1,1 0,-2.5A2.5,2.5 0 0,1 2.5,0Z" style="opacity: 1; stroke: rgb(73, 252, 219); stroke-opacity: 1; stroke-width: 1px; fill: none;"/><path class="point" transform="translate(527.93,25.82)" d="M2.5,0A2.5,2.5 0 1,1 0,-2.5A2.5,2.5 0 0,1 2.5,0Z" style="opacity: 1; stroke: rgb(73, 252, 219); stroke-opacity: 1; stroke-width: 1px; fill: none;"/></g><g class="text"/></g><g class="trace scatter trace8d0d40" style="stroke-miterlimit: 2; opacity: 1;"><g class="fills"/><g class="errorbars"/><g class="lines"><path class="js-line" d="M31.07,239.71L155.29,131.71L279.5,87.24L403.71,309.59L527.93,400.65" style="vector-effect: none; fill: none; stroke: rgb(226, 140, 216); stroke-opacity: 1; stroke-width: 2px; opacity: 1;"/></g><g class="points"><path class="point" transform="translate(31.07,239.71)" d="M2.5,0A2.5,2.5 0 1,1 0,-2.5A2.5,2.5 0 0,1 2.5,0Z" style="opacity: 1; stroke: rgb(226, 140, 216); stroke-opacity: 1; stroke-width: 1px; fill: none;"/><path class="point" transform="translate(155.29,131.71)" d="M2.5,0A2.5,2.5 0 1,1 0,-2.5A2.5,2.5 0 0,1 2.5,0Z" style="opacity: 1; stroke: rgb(226, 140, 216); stroke-opacity: 1; stroke-width: 1px; fill: none;"/><path class="point" transform="translate(279.5,87.24)" d="M2.5,0A2.5,2.5 0 1,1 0,-2.5A2.5,2.5 0 0,1 2.5,0Z" style="opacity: 1; stroke: rgb(226, 140, 216); stroke-opacity: 1; stroke-width: 1px; fill: none;"/><path class="point" transform="translate(403.71,309.59)" d="M2.5,0A2.5,2.5 0 1,1 0,-2.5A2.5,2.5 0 0,1 2.5,0Z" style="opacity: 1; stroke: rgb(226, 140, 216); stroke-opacity: 1; stroke-width: 1px; fill: none;"/><path class="point" transform="translate(527.93,400.65)" d="M2.5,0A2.5,2.5 0 1,1 0,-2.5A2.5,2.5 0 0,1 2.5,0Z" style="opacity: 1; stroke: rgb(226, 140, 216); stroke-opacity: 1; stroke-width: 1px; fill: none;"/></g><g class="text"/></g></g></g><g class="overplot"/><path class="xlines-above crisp" d="M0,0" style="fill: none;"/><path class="ylines-above crisp" d="M0,0" style="fill: none;"/><g class="overlines-above"/><g class="xaxislayer-above"><g class="xtick"><text text-anchor="start" x="2.9749999999999996" y="523.5" transform="translate(111.07,0) rotate(90,2.9749999999999996,515)" style="font-family: serif; font-size: 17px; fill: rgb(0, 0, 0); fill-opacity: 1; white-space: pre; opacity: 1;">1912</text></g><g class="xtick"><text text-anchor="start" x="2.9749999999999996" y="523.5" style="font-family: serif; font-size: 17px; fill: rgb(0, 0, 0); fill-opacity: 1; white-space: pre; opacity: 1;" transform="translate(235.29,0) rotate(90,2.9749999999999996,515)">1914</text></g><g class="xtick"><text text-anchor="start" x="2.9749999999999996" y="523.5" style="font-family: serif; font-size: 17px; fill: rgb(0, 0, 0); fill-opacity: 1; white-space: pre; opacity: 1;" transform="translate(359.5,0) rotate(90,2.9749999999999996,515)">1916</text></g><g class="xtick"><text text-anchor="start" x="2.9749999999999996" y="523.5" style="font-family: serif; font-size: 17px; fill: rgb(0, 0, 0); fill-opacity: 1; white-space: pre; opacity: 1;" transform="translate(483.71,0) rotate(90,2.9749999999999996,515)">1918</text></g><g class="xtick"><text text-anchor="start" x="2.9749999999999996" y="523.5" style="font-family: serif; font-size: 17px; fill: rgb(0, 0, 0); fill-opacity: 1; white-space: pre; opacity: 1;" transform="translate(607.93,0) rotate(90,2.9749999999999996,515)">1920</text></g></g><g class="yaxislayer-above"><g class="ytick"><text text-anchor="end" x="79" y="5.949999999999999" transform="translate(0,420.41)" style="font-family: serif; font-size: 17px; fill: rgb(0, 0, 0); fill-opacity: 1; white-space: pre; opacity: 1;">100</text></g><g class="ytick"><text text-anchor="end" x="79" y="5.949999999999999" style="font-family: serif; font-size: 17px; fill: rgb(0, 0, 0); fill-opacity: 1; white-space: pre; opacity: 1;" transform="translate(0,314.53)">150</text></g><g class="ytick"><text text-anchor="end" x="79" y="5.949999999999999" style="font-family: serif; font-size: 17px; fill: rgb(0, 0, 0); fill-opacity: 1; white-space: pre; opacity: 1;" transform="translate(0,208.65)">200</text></g><g class="ytick"><text text-anchor="end" x="79" y="5.949999999999999" style="font-family: serif; font-size: 17px; fill: rgb(0, 0, 0); fill-opacity: 1; white-space: pre; opacity: 1;" transform="translate(0,102.77000000000001)">250</text></g></g><g class="overaxes-above"/></g></g><g class="polarlayer"/><g class="smithlayer"/><g class="ternarylayer"/><g class="geolayer"/><g class="funnelarealayer"/><g class="pielayer"/><g class="iciclelayer"/><g class="treemaplayer"/><g class="sunburstlayer"/><g class="glimages"/><defs id="topdefs-d09628"><g class="clips"/><clipPath id="legendd09628"><rect width="366" height="29" x="0" y="0"/></clipPath></defs><g class="layer-above"><g class="imagelayer"/><g class="shapelayer"/></g><g class="infolayer"><g class="legend" pointer-events="all" transform="translate(80,559.4000000000001)"><rect class="bg" shape-rendering="crispEdges" style="stroke: rgb(68, 68, 68); stroke-opacity: 1; fill: rgb(255, 255, 255); fill-opacity: 1; stroke-width: 0px;" width="366" height="29" x="0" y="0"/><g class="scrollbox" transform="" clip-path="url(#legendd09628)"><text class="legendtitletext" text-anchor="start" x="2" y="18.2" style="font-family: serif; font-size: 14px; fill: rgb(42, 63, 95); fill-opacity: 1; white-space: pre;">allow weight pressure</text><g class="groups" transform=""><g class="traces" transform="translate(133.65625,14.5)" style="opacity: 1;"><text class="legendtext" text-anchor="start" x="40" y="4.680000000000001" style="font-family: serif; font-size: 12px; fill: rgb(42, 63, 95); fill-opacity: 1; white-space: pre;">do turn oil</text><g class="layers" style="opacity: 1;"><g class="legendfill"/><g class="legendlines"><path class="js-line" d="M5,0h30" style="fill: none; stroke: rgb(73, 252, 219); stroke-opacity: 1; stroke-width: 2px;"/></g><g class="legendsymbols"><g class="legendpoints"><path class="scatterpts" transform="translate(20,0)" d="M2.5,0A2.5,2.5 0 1,1 0,-2.5A2.5,2.5 0 0,1 2.5,0Z" style="opacity: 1; stroke: rgb(73, 252, 219); stroke-opacity: 1; stroke-width: 1px; fill: none;"/></g></g></g><rect class="legendtoggle" x="0" y="-9.5" width="93.171875" height="19" style="fill: rgb(0, 0, 0); fill-opacity: 0;"/></g></g><g class="groups" transform="translate(95.671875,0)"><g class="traces" transform="translate(133.65625,14.5)" style="opacity: 1;"><text class="legendtext" text-anchor="start" x="40" y="4.680000000000001" style="font-family: serif; font-size: 12px; fill: rgb(42, 63, 95); fill-opacity: 1; white-space: pre;">so general national</text><g class="layers" style="opacity: 1;"><g class="legendfill"/><g class="legendlines"><path class="js-line" d="M5,0h30" style="fill: none; stroke: rgb(226, 140, 216); stroke-opacity: 1; stroke-width: 2px;"/></g><g class="legendsymbols"><g class="legendpoints"><path class="scatterpts" transform="translate(20,0)" d="M2.5,0A2.5,2.5 0 1,1 0,-2.5A2.5,2.5 0 0,1 2.5,0Z" style="opacity: 1; stroke: rgb(226, 140, 216); stroke-opacity: 1; stroke-width: 1px; fill: none;"/></g></g></g><rect class="legendtoggle" x="0" y="-9.5" width="133.8125" height="19" style="fill: rgb(0, 0, 0); fill-opacity: 0;"/></g></g></g><rect class="scrollbar" rx="20" ry="3" width="0" height="0" style="fill: rgb(128, 139, 164); fill-opacity: 1;" x="0" y="0"/></g><g class="g-gtitle"><text class="gtitle" x="359.5" y="30" text-anchor="start" dy="0em" style="font-family: serif; font-size: 25px; fill: rgb(0, 0, 0); opacity: 1; font-weight: normal; white-space: pre;">enough author up</text></g><g class="g-xtitle"><text class="xtitle" x="359.5" y="573.809765625" text-anchor="middle" style="font-family: serif; font-size: 14px; fill: rgb(0, 0, 0); opacity: 1; font-weight: normal; white-space: pre;">Year</text></g><g class="g-ytitle"><text class="ytitle" transform="rotate(-90,29.200000000000003,287)" x="29.200000000000003" y="287" text-anchor="middle" style="font-family: serif; font-size: 14px; fill: rgb(0, 0, 0); opacity: 1; font-weight: normal; white-space: pre;">century behavior live</text></g></g></svg>