<svg class="main-svg" xmlns="http://www.w3.org/2000/svg" xmlns:xlink="http://www.w3.org/1999/xlink" width="453" height="600" style="" viewBox="0 0 453 600"><rect x="0" y="0" width="453" height="600" style="fill: rgb(255, 255, 255); fill-opacity: 1;"/><defs id="defs-ce3b87"><g class="clips"><clipPath id="clipce3b87xyplot" class="plotclip"><rect width="293" height="419"/></clipPath><clipPath class="axesclip" id="clipce3b87x"><rect x="80" y="0" width="293" height="600"/></clipPath><clipPath class="axesclip" id="clipce3b87y"><rect x="0" y="60" width="453" height="419"/></clipPath><clipPath class="axesclip" id="clipce3b87xy"><rect x="80" y="60" width="293" height="419"/></clipPath></g><g class="gradients"/><g class="patterns"/></defs><g class="bglayer"><rect class="bg" x="80" y="60" width="293" height="419" style="fill: rgb(255, 255, 255); fill-opacity: 1; stroke-width: 0;"/></g><g class="layer-below"><g class="imagelayer"/><g class="shapelayer"/></g><g class="cartesianlayer"><g class="subplot xy"><g class="layer-subplot"><g class="shapelayer"/><g class="imagelayer"/></g><g class="minor-gridlayer"><g class="x"/><g class="y"/></g><g class="gridlayer"><g class="x"/><g class="y"><path class="ygrid crisp" transform="translate(0,403.83)" d="M80,0h293" style="stroke: rgb(208, 208, 208); stroke-opacity: 1; stroke-width: 1px;"/><path class="ygrid crisp" transform="translate(0,351.56)" d="M80,0h293" style="stroke: rgb(208, 208, 208); stroke-opacity: 1; stroke-width: 1px;"/><path class="ygrid crisp" transform="translate(0,299.28999999999996)" d="M80,0h293" style="stroke: rgb(208, 208, 208); stroke-opacity: 1; stroke-width: 1px;"/><path class="ygrid crisp" transform="translate(0,247.02)" d="M80,0h293" style="stroke: rgb(208, 208, 208); stroke-opacity: 1; stroke-width: 1px;"/><path class="ygrid crisp" transform="translate(0,194.76)" d="M80,0h293" style="stroke: rgb(208, 208, 208); stroke-opacity: 1; stroke-width: 1px;"/><path class="ygrid crisp" transform="translate(0,142.49)" d="M80,0h293" style="stroke: rgb(208, 208, 208); stroke-opacity: 1; stroke-width: 1px;"/><path class="ygrid crisp" transform="translate(0,90.22)" d="M80,0h293" style="stroke: rgb(208, 208, 208); stroke-opacity: 1; stroke-width: 1px;"/></g></g><g class="zerolinelayer"><path class="yzl zl crisp" transform="translate(0,456.1)" d="M80,0h293" style="stroke: rgb(255, 255, 255); stroke-opacity: 1; stroke-width: 2px;"/></g><path class="xlines-below"/><path class="ylines-below"/><g class="overlines-below"/><g class="xaxislayer-below"/><g class="yaxislayer-below"/><g class="overaxes-below"/><g class="plot" transform="translate(80,60)" clip-path="url(#clipce3b87xyplot)"><g class="scatterlayer mlayer"><g class="trace scatter trace625b23" style="stroke-miterlimit: 2; opacity: 1;"><g class="fills"/><g class="errorbars"/><g class="lines"><path class="js-line" d="M17.65,83.54L43.42,106.53L69.19,246.61L94.96,272.74L120.73,208.98L146.5,395.05L172.27,34.4L198.04,228.84L223.81,59.49L249.58,342.78L275.35,88.76" style="vector-effect: none; fill: none; stroke: rgb(216, 186, 95); stroke-opacity: 1; stroke-width: 2px; opacity: 1;"/></g><g class="points"><path class="point" transform="translate(17.65,83.54)" d="M0.5,0A0.5,0.5 0 1,1 0,-0.5A0.5,0.5 0 0,1 0.5,0Z" style="opacity: 1; stroke: rgb(216, 186, 95); stroke-opacity: 1; stroke-width: 1px; fill: none;"/><path class="point" transform="translate(43.42,106.53)" d="M0.5,0A0.5,0.5 0 1,1 0,-0.5A0.5,0.5 0 0,1 0.5,0Z" style="opacity: 1; stroke: rgb(216, 186, 95); stroke-opacity: 1; stroke-width: 1px; fill: none;"/><path class="point" transform="translate(69.19,246.61)" d="M0.5,0A0.5,0.5 0 1,1 0,-0.5A0.5,0.5 0 0,1 0.5,0Z" style="opacity: 1; stroke: rgb(216, 186, 95); stroke-opacity: 1; stroke-width: 1px; fill: none;"/><path class="point" transform="translate(94.96,272.74)" d="M0.5,0A0.5,0.5 0 1,1 0,-0.5A0.5,0.5 0 0,1 0.5,0Z" style="opacity: 1; stroke: rgb(216, 186, 95); stroke-opacity: 1; stroke-width: 1px; fill: none;"/><path class="point" transform="translate(120.73,208.98)" d="M0.5,0A0.5,0.5 0 1,1 0,-0.5A0.5,0.5 0 0,1 0.5,0Z" style="opacity: 1; stroke: rgb(216, 186, 95); stroke-opacity: 1; stroke-width: 1px; fill: none;"/><path class="point" transform="translate(146.5,395.05)" d="M0.5,0A0.5,0.5 0 1,1 0,-0.5A0.5,0.5 0 0,1 0.5,0Z" style="opacity: 1; stroke: rgb(216, 186, 95); stroke-opacity: 1; stroke-width: 1px; fill: none;"/><path class="point" transform="translate(172.27,34.4)" d="M0.5,0A0.5,0.5 0 1,1 0,-0.5A0.5,0.5 0 0,1 0.5,0Z" style="opacity: 1; stroke: rgb(216, 186, 95); stroke-opacity: 1; stroke-width: 1px; fill: none;"/><path class="point" transform="translate(198.04,228.84)" d="M0.5,0A0.5,0.5 0 1,1 0,-0.5A0.5,0.5 0 0,1 0.5,0Z" style="opacity: 1; stroke: rgb(216, 186, 95); stroke-opacity: 1; stroke-width: 1px; fill: none;"/><path class="point" transform="translate(223.81,59.49)" d="M0.5,0A0.5,0.5 0 1,1 0,-0.5A0.5,0.5 0 0,1 0.5,0Z" style="opacity: 1; stroke: rgb(216, 186, 95); stroke-opacity: 1; stroke-width: 1px; fill: none;"/><path class="point" transform="translate(249.58,342.78)" d="M0.5,0A0.5,0.5 0 1,1 0,-0.5A0.5,0.5 0 0,1 0.5,0Z" style="opacity: 1; stroke: rgb(216, 186, 95); stroke-opacity: 1; stroke-width: 1px; fill: none;"/><path class="point" transform="translate(275.35,88.76)" d="M0.5,0A0.5,0.5 0 1,1 0,-0.5A0.5,0.5 0 0,1 0.5,0Z" style="opacity: 1; stroke: rgb(216, 186, 95); stroke-opacity: 1; stroke-width: 1px; fill: none;"/></g><g class="text"/></g><g class="trace scatter trace3b5e40" style="stroke-miterlimit: 2; opacity: 1;"><g class="fills"/><g class="errorbars"/><g class="lines"><path class="js-line" d="M17.65,116.99L43.42,73.08L69.19,38.58L94.96,155.66L120.73,331.28L146.5,98.17L172.27,23.95L198.04,270.65L223.81,205.84L249.58,229.88L275.35,67.85" style="vector-effect: none; fill: none; stroke: rgb(136, 232, 144); stroke-opacity: 1; stroke-width: 2px; opacity: 1;"/></g><g class="points"><path class="point" transform="translate(17.65,116.99)" d="M0.5,0A0.5,0.5 0 1,1 0,-0.5A0.5,0.5 0 0,1 0.5,0Z" style="opacity: 1; stroke: rgb(136, 232, 144); stroke-opacity: 1; stroke-width: 1px; fill: none;"/><path class="point" transform="translate(43.42,73.08)" d="M0.5,0A0.5,0.5 0 1,1 0,-0.5A0.5,0.5 0 0,1 0.5,0Z" style="opacity: 1; stroke: rgb(136, 232, 144); stroke-opacity: 1; stroke-width: 1px; fill: none;"/><path class="point" transform="translate(69.19,38.58)" d="M0.5,0A0.5,0.5 0 1,1 0,-0.5A0.5,0.5 0 0,1 0.5,0Z" style="opacity: 1; stroke: rgb(136, 232, 144); stroke-opacity: 1; stroke-width: 1px; fill: none;"/><path class="point" transform="translate(94.96,155.66)" d="M0.5,0A0.5,0.5 0 1,1 0,-0.5A0.5,0.5 0 0,1 0.5,0Z" style="opacity: 1; stroke: rgb(136, 232, 144); stroke-opacity: 1; stroke-width: 1px; fill: none;"/><path class="point" transform="translate(120.73,331.28)" d="M0.5,0A0.5,0.5 0 1,1 0,-0.5A0.5,0.5 0 0,1 0.5,0Z" style="opacity: 1; stroke: rgb(136, 232, 144); stroke-opacity: 1; stroke-width: 1px; fill: none;"/><path class="point" transform="translate(146.5,98.17)" d="M0.5,0A0.5,0.5 0 1,1 0,-0.5A0.5,0.5 0 0,1 0.5,0Z" style="opacity: 1; stroke: rgb(136, 232, 144); stroke-opacity: 1; stroke-width: 1px; fill: none;"/><path class="point" transform="translate(172.27,23.95)" d="M0.5,0A0.5,0.5 0 1,1 0,-0.5A0.5,0.5 0 0,1 0.5,0Z" style="opacity: 1; stroke: rgb(136, 232, 144); stroke-opacity: 1; stroke-width: 1px; fill: none;"/><path class="point" transform="translate(198.04,270.65)" d="M0.5,0A0.5,0.5 0 1,1 0,-0.5A0.5,0.5 0 0,1 0.5,0Z" style="opacity: 1; stroke: rgb(136, 232, 144); stroke-opacity: 1; stroke-width: 1px; fill: none;"/><path class="point" transform="translate(223.81,205.84)" d="M0.5,0A0.5,0.5 0 1,1 0,-0.5A0.5,0.5 0 0,1 0.5,0Z" style="opacity: 1; stroke: rgb(136, 232, 144); stroke-opacity: 1; stroke-width: 1px; fill: none;"/><path class="point" transform="translate(249.58,229.88)" d="M0.5,0A0.5,0.5 0 1,1 0,-0.5A0.5,0.5 0 0,1 0.5,0Z" style="opacity: 1; stroke: rgb(136, 232, 144); stroke-opacity: 1; stroke-width: 1px; fill: none;"/><path class="point" transform="translate(275.35,67.85)" d="M0.5,0A0.5,0.5 0 1,1 0,-0.5A0.5,0.5 0 0,1 0.5,0Z" style="opacity: 1; stroke: rgb(136, 232, 144); stroke-opacity: 1; stroke-width: 1px; fill: none;"/></g><g class="text"/></g><g class="trace scatter trace7d44c2" style="stroke-miterlimit: 2; opacity: 1;"><g class="fills"/><g class="errorbars"/><g class="lines"><path class="js-line" d="M17.65,190.16L43.42,187.02L69.19,64.72L94.96,49.04L120.73,323.97L146.5,29.18L172.27,334.42L198.04,273.79L223.81,189.12L249.58,218.39L275.35,208.98" style="vector-effect: none; fill: none; stroke: rgb(247, 201, 178); stroke-opacity: 1; stroke-width: 2px; opacity: 1;"/></g><g class="points"><path class="point" transform="translate(17.65,190.16)" d="M0.5,0A0.5,0.5 0 1,1 0,-0.5A0.5,0.5 0 0,1 0.5,0Z" style="opacity: 1; stroke: rgb(247, 201, 178); stroke-opacity: 1; stroke-width: 1px; fill: none;"/><path class="point" transform="translate(43.42,187.02)" d="M0.5,0A0.5,0.5 0 1,1 0,-0.5A0.5,0.5 0 0,1 0.5,0Z" style="opacity: 1; stroke: rgb(247, 201, 178); stroke-opacity: 1; stroke-width: 1px; fill: none;"/><path class="point" transform="translate(69.19,64.72)" d="M0.5,0A0.5,0.5 0 1,1 0,-0.5A0.5,0.5 0 0,1 0.5,0Z" style="opacity: 1; stroke: rgb(247, 201, 178); stroke-opacity: 1; stroke-width: 1px; fill: none;"/><path class="point" transform="translate(94.96,49.04)" d="M0.5,0A0.5,0.5 0 1,1 0,-0.5A0.5,0.5 0 0,1 0.5,0Z" style="opacity: 1; stroke: rgb(247, 201, 178); stroke-opacity: 1; stroke-width: 1px; fill: none;"/><path class="point" transform="translate(120.73,323.97)" d="M0.5,0A0.5,0.5 0 1,1 0,-0.5A0.5,0.5 0 0,1 0.5,0Z" style="opacity: 1; stroke: rgb(247, 201, 178); stroke-opacity: 1; stroke-width: 1px; fill: none;"/><path class="point" transform="translate(146.5,29.18)" d="M0.5,0A0.5,0.5 0 1,1 0,-0.5A0.5,0.5 0 0,1 0.5,0Z" style="opacity: 1; stroke: rgb(247, 201, 178); stroke-opacity: 1; stroke-width: 1px; fill: none;"/><path class="point" transform="translate(172.27,334.42)" d="M0.5,0A0.5,0.5 0 1,1 0,-0.5A0.5,0.5 0 0,1 0.5,0Z" style="opacity: 1; stroke: rgb(247, 201, 178); stroke-opacity: 1; stroke-width: 1px; fill: none;"/><path class="point" transform="translate(198.04,273.79)" d="M0.5,0A0.5,0.5 0 1,1 0,-0.5A0.5,0.5 0 0,1 0.5,0Z" style="opacity: 1; stroke: rgb(247, 201, 178); stroke-opacity: 1; stroke-width: 1px; fill: none;"/><path class="point" transform="translate(223.81,189.12)" d="M0.5,0A0.5,0.5 0 1,1 0,-0.5A0.5,0.5 0 0,1 0.5,0Z" style="opacity: 1; stroke: rgb(247, 201, 178); stroke-opacity: 1; stroke-width: 1px; fill: none;"/><path class="point" transform="translate(249.58,218.39)" d="M0.5,0A0.5,0.5 0 1,1 0,-0.5A0.5,0.5 0 0,1 0.5,0Z" style="opacity: 1; stroke: rgb(247, 201, 178); stroke-opacity: 1; stroke-width: 1px; fill: none;"/><path class="point" transform="translate(275.35,208.98)" d="M0.5,0A0.5,0.5 0 1,1 0,-0.5A0.5,0.5 0 0,1 0.5,0Z" style="opacity: 1; stroke: rgb(247, 201, 178); stroke-opacity: 1; stroke-width: 1px; fill: none;"/></g><g class="text"/></g></g></g><g class="overplot"/><path class="xlines-above crisp" d="M0,0" style="fill: none;"/><path class="ylines-above crisp" d="M79.5,60V479" style="fill: none; stroke-width: 1px; stroke: rgb(255, 255, 255); stroke-opacity: 1;"/><g class="overlines-above"/><g class="xaxislayer-above"><g class="xtick"><text text-anchor="start" x="3.5" y="490" transform="translate(97.65,0) rotate(90,3.5,480)" style="font-family: monospace; font-size: 20px; fill: rgb(0, 0, 0); fill-opacity: 1; white-space: pre; opacity: 1;">1980</text></g><g class="xtick"><text text-anchor="start" x="3.5" y="490" style="font-family: monospace; font-size: 20px; fill: rgb(0, 0, 0); fill-opacity: 1; white-space: pre; opacity: 1;" transform="translate(183.55,0) rotate(90,3.5,480)">1990</text></g><g class="xtick"><text text-anchor="start" x="3.5" y="490" style="font-family: monospace; font-size: 20px; fill: rgb(0, 0, 0); fill-opacity: 1; white-space: pre; opacity: 1;" transform="translate(269.45,0) rotate(90,3.5,480)">2000</text></g><g class="xtick"><text text-anchor="start" x="3.5" y="490" style="font-family: monospace; font-size: 20px; fill: rgb(0, 0, 0); fill-opacity: 1; white-space: pre; opacity: 1;" transform="translate(355.35,0) rotate(90,3.5,480)">2010</text></g></g><g class="yaxislayer-above"><g class="ytick"><text text-anchor="end" x="75" y="7" transform="translate(0,456.1)" style="font-family: monospace; font-size: 20px; fill: rgb(0, 0, 0); fill-opacity: 1; white-space: pre; opacity: 1;">0</text></g><g class="ytick"><text text-anchor="end" x="75" y="7" style="font-family: monospace; font-size: 20px; fill: rgb(0, 0, 0); fill-opacity: 1; white-space: pre; opacity: 1;" transform="translate(0,403.83)">50</text></g><g class="ytick"><text text-anchor="end" x="75" y="7" style="font-family: monospace; font-size: 20px; fill: rgb(0, 0, 0); fill-opacity: 1; white-space: pre; opacity: 1;" transform="translate(0,351.56)">100</text></g><g class="ytick"><text text-anchor="end" x="75" y="7" style="font-family: monospace; font-size: 20px; fill: rgb(0, 0, 0); fill-opacity: 1; white-space: pre; opacity: 1;" transform="translate(0,299.28999999999996)">150</text></g><g class="ytick"><text text-anchor="end" x="75" y="7" style="font-family: monospace; font-size: 20px; fill: rgb(0, 0, 0); fill-opacity: 1; white-space: pre; opacity: 1;" transform="translate(0,247.02)">200</text></g><g class="ytick"><text text-anchor="end" x="75" y="7" style="font-family: monospace; font-size: 20px; fill: rgb(0, 0, 0); fill-opacity: 1; white-space: pre; opacity: 1;" transform="translate(0,194.76)">250</text></g><g class="ytick"><text text-anchor="end" x="75" y="7" style="font-family: monospace; font-size: 20px; fill: rgb(0, 0, 0); fill-opacity: 1; white-space: pre; opacity: 1;" transform="translate(0,142.49)">300</text></g><g class="ytick"><text text-anchor="end" x="75" y="7" style="font-family: monospace; font-size: 20px; fill: rgb(0, 0, 0); fill-opacity: 1; white-space: pre; opacity: 1;" transform="translate(0,90.22)">350</text></g></g><g class="overaxes-above"/></g></g><g class="polarlayer"/><g class="smithlayer"/><g class="ternarylayer"/><g class="geolayer"/><g class="funnelarealayer"/><g class="pielayer"/><g class="iciclelayer"/><g class="treemaplayer"/><g class="sunburstlayer"/><g class="glimages"/><defs id="topdefs-ce3b87"><g class="clips"/><clipPath id="legendce3b87"><rect width="431" height="67" x="0" y="0"/></clipPath></defs><g class="layer-above"><g class="imagelayer"/><g class="shapelayer"/></g><g class="infolayer"><g class="legend" pointer-events="all" transform="translate(22,520.9000000000001)"><rect class="bg" shape-rendering="crispEdges" style="stroke: rgb(68, 68, 68); stroke-opacity: 1; fill: rgb(255, 255, 255); fill-opacity: 1; stroke-width: 0px;" width="431" height="67" x="0" y="0"/><g class="scrollbox" transform="" clip-path="url(#legendce3b87)"><text class="legendtitletext" text-anchor="start" x="2" y="18.2" style="font-family: monospace; font-size: 14px; fill: rgb(42, 63, 95); fill-opacity: 1; white-space: pre;">property language around</text><g class="groups" transform=""><g class="traces" transform="translate(212.234375,14.5)" style="opacity: 1;"><text class="legendtext" text-anchor="start" x="40" y="4.680000000000001" style="font-family: monospace; font-size: 12px; fill: rgb(42, 63, 95); fill-opacity: 1; white-space: pre;">government live yourself</text><g class="layers" style="opacity: 1;"><g class="legendfill"/><g class="legendlines"><path class="js-line" d="M5,0h30" style="fill: none; stroke: rgb(216, 186, 95); stroke-opacity: 1; stroke-width: 2px;"/></g><g class="legendsymbols"><g class="legendpoints"><path class="scatterpts" transform="translate(20,0)" d="M1,0A1,1 0 1,1 0,-1A1,1 0 0,1 1,0Z" style="opacity: 1; stroke: rgb(216, 186, 95); stroke-opacity: 1; stroke-width: 1px; fill: none;"/></g></g></g><rect class="legendtoggle" x="0" y="-9.5" width="215.328125" height="19" style="fill: rgb(0, 0, 0); fill-opacity: 0;"/></g></g><g class="groups" transform="translate(0,19)"><g class="traces" transform="translate(212.234375,14.5)" style="opacity: 1;"><text class="legendtext" text-anchor="start" x="40" y="4.680000000000001" style="font-family: monospace; font-size: 12px; fill: rgb(42, 63, 95); fill-opacity: 1; white-space: pre;">phone note I</text><g class="layers" style="opacity: 1;"><g class="legendfill"/><g class="legendlines"><path class="js-line" d="M5,0h30" style="fill: none; stroke: rgb(136, 232, 144); stroke-opacity: 1; stroke-width: 2px;"/></g><g class="legendsymbols"><g class="legendpoints"><path class="scatterpts" transform="translate(20,0)" d="M1,0A1,1 0 1,1 0,-1A1,1 0 0,1 1,0Z" style="opacity: 1; stroke: rgb(136, 232, 144); stroke-opacity: 1; stroke-width: 1px; fill: none;"/></g></g></g><rect class="legendtoggle" x="0" y="-9.5" width="128.921875" height="19" style="fill: rgb(0, 0, 0); fill-opacity: 0;"/></g></g><g class="groups" transform="translate(0,38)"><g class="traces" transform="translate(212.234375,14.5)" style="opacity: 1;"><text class="legendtext" text-anchor="start" x="40" y="4.680000000000001" style="font-family: monospace; font-size: 12px; fill: rgb(42, 63, 95); fill-opacity: 1; white-space: pre;">before color south</text><g class="layers" style="opacity: 1;"><g class="legendfill"/><g class="legendlines"><path class="js-line" d="M5,0h30" style="fill: none; stroke: rgb(247, 201, 178); stroke-opacity: 1; stroke-width: 2px;"/></g><g class="legendsymbols"><g class="legendpoints"><path class="scatterpts" transform="translate(20,0)" d="M1,0A1,1 0 1,1 0,-1A1,1 0 0,1 1,0Z" style="opacity: 1; stroke: rgb(247, 201, 178); stroke-opacity: 1; stroke-width: 1px; fill: none;"/></g></g></g><rect class="legendtoggle" x="0" y="-9.5" width="172.921875" height="19" style="fill: rgb(0, 0, 0); fill-opacity: 0;"/></g></g></g><rect class="scrollbar" rx="20" ry="3" width="0" height="0" style="fill: rgb(128, 139, 164); fill-opacity: 1;" x="0" y="0"/></g><g class="g-gtitle"><text class="gtitle" x="226.5" y="30" text-anchor="start" dy="0em" style="font-family: monospace; font-size: 25px; fill: rgb(0, 0, 0); opacity: 1; font-weight: normal; white-space: pre;">place local measure</text></g><g class="g-xtitle"/><g class="g-ytitle"><text class="ytitle" transform="rotate(-90,14.684375000000003,269.5)" x="14.684375000000003" y="269.5" text-anchor="middle" style="font-family: monospace; font-size: 14px; fill: rgb(0, 0, 0); opacity: 1; font-weight: normal; white-space: pre;">population finally network</text></g></g></svg>