<svg class="main-svg" xmlns="http://www.w3.org/2000/svg" xmlns:xlink="http://www.w3.org/1999/xlink" width="946" height="600" style="" viewBox="0 0 946 600"><rect x="0" y="0" width="946" height="600" style="fill: rgb(255, 255, 255); fill-opacity: 1;"/><defs id="defs-4b48bf"><g class="clips"><clipPath id="clip4b48bfxyplot" class="plotclip"><rect width="786" height="454"/></clipPath><clipPath class="axesclip" id="clip4b48bfx"><rect x="80" y="0" width="786" height="600"/></clipPath><clipPath class="axesclip" id="clip4b48bfy"><rect x="0" y="60" width="946" height="454"/></clipPath><clipPath class="axesclip" id="clip4b48bfxy"><rect x="80" y="60" width="786" height="454"/></clipPath></g><g class="gradients"/><g class="patterns"/></defs><g class="bglayer"><rect class="bg" x="80" y="60" width="786" height="454" style="fill: rgb(255, 255, 255); fill-opacity: 1; stroke-width: 0;"/></g><g class="layer-below"><g class="imagelayer"/><g class="shapelayer"/></g><g class="cartesianlayer"><g class="subplot xy"><g class="layer-subplot"><g class="shapelayer"/><g class="imagelayer"/></g><g class="minor-gridlayer"><g class="x"/><g class="y"/></g><g class="gridlayer"><g class="x"><path class="xgrid crisp" transform="translate(122.3,0)" d="M0,60v454" style="stroke: rgb(208, 208, 208); stroke-opacity: 1; stroke-width: 1px;"/><path class="xgrid crisp" transform="translate(186.06,0)" d="M0,60v454" style="stroke: rgb(208, 208, 208); stroke-opacity: 1; stroke-width: 1px;"/><path class="xgrid crisp" transform="translate(249.83,0)" d="M0,60v454" style="stroke: rgb(208, 208, 208); stroke-opacity: 1; stroke-width: 1px;"/><path class="xgrid crisp" transform="translate(313.59000000000003,0)" d="M0,60v454" style="stroke: rgb(208, 208, 208); stroke-opacity: 1; stroke-width: 1px;"/><path class="xgrid crisp" transform="translate(377.35,0)" d="M0,60v454" style="stroke: rgb(208, 208, 208); stroke-opacity: 1; stroke-width: 1px;"/><path class="xgrid crisp" transform="translate(441.12,0)" d="M0,60v454" style="stroke: rgb(208, 208, 208); stroke-opacity: 1; stroke-width: 1px;"/><path class="xgrid crisp" transform="translate(504.88,0)" d="M0,60v454" style="stroke: rgb(208, 208, 208); stroke-opacity: 1; stroke-width: 1px;"/><path class="xgrid crisp" transform="translate(568.65,0)" d="M0,60v454" style="stroke: rgb(208, 208, 208); stroke-opacity: 1; stroke-width: 1px;"/><path class="xgrid crisp" transform="translate(632.41,0)" d="M0,60v454" style="stroke: rgb(208, 208, 208); stroke-opacity: 1; stroke-width: 1px;"/><path class="xgrid crisp" transform="translate(696.17,0)" d="M0,60v454" style="stroke: rgb(208, 208, 208); stroke-opacity: 1; stroke-width: 1px;"/><path class="xgrid crisp" transform="translate(759.94,0)" d="M0,60v454" style="stroke: rgb(208, 208, 208); stroke-opacity: 1; stroke-width: 1px;"/><path class="xgrid crisp" transform="translate(823.7,0)" d="M0,60v454" style="stroke: rgb(208, 208, 208); stroke-opacity: 1; stroke-width: 1px;"/></g><g class="y"/></g><g class="zerolinelayer"><path class="yzl zl crisp" transform="translate(0,500.88)" d="M80,0h786" style="stroke: rgb(255, 255, 255); stroke-opacity: 1; stroke-width: 2px;"/></g><path class="xlines-below"/><path class="ylines-below"/><g class="overlines-below"/><g class="xaxislayer-below"/><g class="yaxislayer-below"/><g class="overaxes-below"/><g class="plot" transform="translate(80,60)" clip-path="url(#clip4b48bfxyplot)"><g class="scatterlayer mlayer"><g class="trace scatter trace65b6fe" style="stroke-miterlimit: 2; opacity: 1;"><g class="fills"/><g class="errorbars"/><g class="lines"><path class="js-line" d="M42.3,355.61L106.06,143.12L169.83,428.3L233.59,323.46L297.35,201.84L361.12,50.86L424.88,155.71L488.65,214.42L552.41,95.6L616.17,296.9L679.94,25.7L743.7,266.14" style="vector-effect: none; fill: none; stroke: rgb(57, 91, 214); stroke-opacity: 1; stroke-width: 2px; opacity: 1;"/></g><g class="points"><path class="point" transform="translate(42.3,355.61)" d="M3,0A3,3 0 1,1 0,-3A3,3 0 0,1 3,0Z" style="opacity: 1; stroke-width: 0px; fill: rgb(57, 91, 214); fill-opacity: 1;"/><path class="point" transform="translate(106.06,143.12)" d="M3,0A3,3 0 1,1 0,-3A3,3 0 0,1 3,0Z" style="opacity: 1; stroke-width: 0px; fill: rgb(57, 91, 214); fill-opacity: 1;"/><path class="point" transform="translate(169.83,428.3)" d="M3,0A3,3 0 1,1 0,-3A3,3 0 0,1 3,0Z" style="opacity: 1; stroke-width: 0px; fill: rgb(57, 91, 214); fill-opacity: 1;"/><path class="point" transform="translate(233.59,323.46)" d="M3,0A3,3 0 1,1 0,-3A3,3 0 0,1 3,0Z" style="opacity: 1; stroke-width: 0px; fill: rgb(57, 91, 214); fill-opacity: 1;"/><path class="point" transform="translate(297.35,201.84)" d="M3,0A3,3 0 1,1 0,-3A3,3 0 0,1 3,0Z" style="opacity: 1; stroke-width: 0px; fill: rgb(57, 91, 214); fill-opacity: 1;"/><path class="point" transform="translate(361.12,50.86)" d="M3,0A3,3 0 1,1 0,-3A3,3 0 0,1 3,0Z" style="opacity: 1; stroke-width: 0px; fill: rgb(57, 91, 214); fill-opacity: 1;"/><path class="point" transform="translate(424.88,155.71)" d="M3,0A3,3 0 1,1 0,-3A3,3 0 0,1 3,0Z" style="opacity: 1; stroke-width: 0px; fill: rgb(57, 91, 214); fill-opacity: 1;"/><path class="point" transform="translate(488.65,214.42)" d="M3,0A3,3 0 1,1 0,-3A3,3 0 0,1 3,0Z" style="opacity: 1; stroke-width: 0px; fill: rgb(57, 91, 214); fill-opacity: 1;"/><path class="point" transform="translate(552.41,95.6)" d="M3,0A3,3 0 1,1 0,-3A3,3 0 0,1 3,0Z" style="opacity: 1; stroke-width: 0px; fill: rgb(57, 91, 214); fill-opacity: 1;"/><path class="point" transform="translate(616.17,296.9)" d="M3,0A3,3 0 1,1 0,-3A3,3 0 0,1 3,0Z" style="opacity: 1; stroke-width: 0px; fill: rgb(57, 91, 214); fill-opacity: 1;"/><path class="point" transform="translate(679.94,25.7)" d="M3,0A3,3 0 1,1 0,-3A3,3 0 0,1 3,0Z" style="opacity: 1; stroke-width: 0px; fill: rgb(57, 91, 214); fill-opacity: 1;"/><path class="point" transform="translate(743.7,266.14)" d="M3,0A3,3 0 1,1 0,-3A3,3 0 0,1 3,0Z" style="opacity: 1; stroke-width: 0px; fill: rgb(57, 91, 214); fill-opacity: 1;"/></g><g class="text"/></g></g></g><g class="overplot"/><path class="xlines-above crisp" d="M0,0" style="fill: none;"/><path class="ylines-above crisp" d="M79.5,60V514" style="fill: none; stroke-width: 1px; stroke: rgb(255, 255, 255); stroke-opacity: 1;"/><g class="overlines-above"/><g class="xaxislayer-above"><g class="xtick"><text text-anchor="start" x="1.75" y="520" transform="translate(122.3,0) rotate(90,1.75,515)" style="font-family: sans-serif; font-size: 10px; fill: rgb(0, 0, 0); fill-opacity: 1; white-space: pre; opacity: 1;">Jan</text></g><g class="xtick"><text text-anchor="start" x="1.75" y="520" transform="translate(186.06,0) rotate(90,1.75,515)" style="font-family: sans-serif; font-size: 10px; fill: rgb(0, 0, 0); fill-opacity: 1; white-space: pre; opacity: 1;">Feb</text></g><g class="xtick"><text text-anchor="start" x="1.75" y="520" transform="translate(249.83,0) rotate(90,1.75,515)" style="font-family: sans-serif; font-size: 10px; fill: rgb(0, 0, 0); fill-opacity: 1; white-space: pre; opacity: 1;">Mar</text></g><g class="xtick"><text text-anchor="start" x="1.75" y="520" transform="translate(313.59000000000003,0) rotate(90,1.75,515)" style="font-family: sans-serif; font-size: 10px; fill: rgb(0, 0, 0); fill-opacity: 1; white-space: pre; opacity: 1;">Apr</text></g><g class="xtick"><text text-anchor="start" x="1.75" y="520" transform="translate(377.35,0) rotate(90,1.75,515)" style="font-family: sans-serif; font-size: 10px; fill: rgb(0, 0, 0); fill-opacity: 1; white-space: pre; opacity: 1;">May</text></g><g class="xtick"><text text-anchor="start" x="1.75" y="520" transform="translate(441.12,0) rotate(90,1.75,515)" style="font-family: sans-serif; font-size: 10px; fill: rgb(0, 0, 0); fill-opacity: 1; white-space: pre; opacity: 1;">June</text></g><g class="xtick"><text text-anchor="start" x="1.75" y="520" transform="translate(504.88,0) rotate(90,1.75,515)" style="font-family: sans-serif; font-size: 10px; fill: rgb(0, 0, 0); fill-opacity: 1; white-space: pre; opacity: 1;">July</text></g><g class="xtick"><text text-anchor="start" x="1.75" y="520" transform="translate(568.65,0) rotate(90,1.75,515)" style="font-family: sans-serif; font-size: 10px; fill: rgb(0, 0, 0); fill-opacity: 1; white-space: pre; opacity: 1;">Aug</text></g><g class="xtick"><text text-anchor="start" x="1.75" y="520" transform="translate(632.41,0) rotate(90,1.75,515)" style="font-family: sans-serif; font-size: 10px; fill: rgb(0, 0, 0); fill-opacity: 1; white-space: pre; opacity: 1;">Sep</text></g><g class="xtick"><text text-anchor="start" x="1.75" y="520" transform="translate(696.17,0) rotate(90,1.75,515)" style="font-family: sans-serif; font-size: 10px; fill: rgb(0, 0, 0); fill-opacity: 1; white-space: pre; opacity: 1;">Oct</text></g><g class="xtick"><text text-anchor="start" x="1.75" y="520" transform="translate(759.94,0) rotate(90,1.75,515)" style="font-family: sans-serif; font-size: 10px; fill: rgb(0, 0, 0); fill-opacity: 1; white-space: pre; opacity: 1;">Nov</text></g><g class="xtick"><text text-anchor="start" x="1.75" y="520" transform="translate(823.7,0) rotate(90,1.75,515)" style="font-family: sans-serif; font-size: 10px; fill: rgb(0, 0, 0); fill-opacity: 1; white-space: pre; opacity: 1;">Dec</text></g></g><g class="yaxislayer-above"><g class="ytick"><text text-anchor="end" x="77" y="3.5" transform="translate(0,500.88)" style="font-family: sans-serif; font-size: 10px; fill: rgb(0, 0, 0); fill-opacity: 1; white-space: pre; opacity: 1;">0</text></g><g class="ytick"><text text-anchor="end" x="77" y="3.5" style="font-family: sans-serif; font-size: 10px; fill: rgb(0, 0, 0); fill-opacity: 1; white-space: pre; opacity: 1;" transform="translate(0,430.99)">50</text></g><g class="ytick"><text text-anchor="end" x="77" y="3.5" style="font-family: sans-serif; font-size: 10px; fill: rgb(0, 0, 0); fill-opacity: 1; white-space: pre; opacity: 1;" transform="translate(0,361.09)">100</text></g><g class="ytick"><text text-anchor="end" x="77" y="3.5" style="font-family: sans-serif; font-size: 10px; fill: rgb(0, 0, 0); fill-opacity: 1; white-space: pre; opacity: 1;" transform="translate(0,291.19)">150</text></g><g class="ytick"><text text-anchor="end" x="77" y="3.5" style="font-family: sans-serif; font-size: 10px; fill: rgb(0, 0, 0); fill-opacity: 1; white-space: pre; opacity: 1;" transform="translate(0,221.3)">200</text></g><g class="ytick"><text text-anchor="end" x="77" y="3.5" style="font-family: sans-serif; font-size: 10px; fill: rgb(0, 0, 0); fill-opacity: 1; white-space: pre; opacity: 1;" transform="translate(0,151.4)">250</text></g><g class="ytick"><text text-anchor="end" x="77" y="3.5" style="font-family: sans-serif; font-size: 10px; fill: rgb(0, 0, 0); fill-opacity: 1; white-space: pre; opacity: 1;" transform="translate(0,81.51)">300</text></g></g><g class="overaxes-above"/></g></g><g class="polarlayer"/><g class="smithlayer"/><g class="ternarylayer"/><g class="geolayer"/><g class="funnelarealayer"/><g class="pielayer"/><g class="iciclelayer"/><g class="treemaplayer"/><g class="sunburstlayer"/><g class="glimages"/><defs id="topdefs-4b48bf"><g class="clips"/><clipPath id="legend4b48bf"><rect width="237" height="29" x="0" y="0"/></clipPath></defs><g class="layer-above"><g class="imagelayer"/><g class="shapelayer"/></g><g class="infolayer"><g class="legend" pointer-events="all" transform="translate(80,559.4000000000001)"><rect class="bg" shape-rendering="crispEdges" style="stroke: rgb(68, 68, 68); stroke-opacity: 1; fill: rgb(255, 255, 255); fill-opacity: 1; stroke-width: 0px;" width="237" height="29" x="0" y="0"/><g class="scrollbox" transform="" clip-path="url(#legend4b48bf)"><text class="legendtitletext" text-anchor="start" x="2" y="18.2" style="font-family: sans-serif; font-size: 14px; fill: rgb(42, 63, 95); fill-opacity: 1; white-space: pre;">pick about fly</text><g class="groups" transform=""><g class="traces" transform="translate(91.71875,14.5)" style="opacity: 1;"><text class="legendtext" text-anchor="start" x="40" y="4.680000000000001" style="font-family: sans-serif; font-size: 12px; fill: rgb(42, 63, 95); fill-opacity: 1; white-space: pre;">many wait painting</text><g class="layers" style="opacity: 1;"><g class="legendfill"/><g class="legendlines"><path class="js-line" d="M5,0h30" style="fill: none; stroke: rgb(57, 91, 214); stroke-opacity: 1; stroke-width: 2px;"/></g><g class="legendsymbols"><g class="legendpoints"><path class="scatterpts" transform="translate(20,0)" d="M1,0A1,1 0 1,1 0,-1A1,1 0 0,1 1,0Z" style="opacity: 1; stroke-width: 0px; fill: rgb(57, 91, 214); fill-opacity: 1;"/></g></g></g><rect class="legendtoggle" x="0" y="-9.5" width="142.21875" height="19" style="fill: rgb(0, 0, 0); fill-opacity: 0;"/></g></g></g><rect class="scrollbar" rx="20" ry="3" width="0" height="0" style="fill: rgb(128, 139, 164); fill-opacity: 1;" x="0" y="0"/></g><g class="g-gtitle"><text class="gtitle" x="473" y="30" text-anchor="middle" dy="0em" style="font-family: sans-serif; font-size: 25px; fill: rgb(0, 0, 0); opacity: 1; font-weight: normal; white-space: pre;">again side stock</text></g><g class="g-xtitle"><text class="xtitle" x="473" y="561.425" text-anchor="middle" style="font-family: sans-serif; font-size: 14px; fill: rgb(0, 0, 0); opacity: 1; font-weight: normal; white-space: pre;">Month</text></g><g class="g-ytitle"/></g></svg>