<svg class="main-svg" xmlns="http://www.w3.org/2000/svg" xmlns:xlink="http://www.w3.org/1999/xlink" width="375" height="600" style="" viewBox="0 0 375 600"><rect x="0" y="0" width="375" height="600" style="fill: rgb(255, 255, 255); fill-opacity: 1;"/><defs id="defs-9b66ee"><g class="clips"><clipPath id="clip9b66eexyplot" class="plotclip"><rect width="215" height="402"/></clipPath><clipPath class="axesclip" id="clip9b66eex"><rect x="80" y="0" width="215" height="600"/></clipPath><clipPath class="axesclip" id="clip9b66eey"><rect x="0" y="60" width="375" height="402"/></clipPath><clipPath class="axesclip" id="clip9b66eexy"><rect x="80" y="60" width="215" height="402"/></clipPath></g><g class="gradients"/><g class="patterns"/></defs><g class="bglayer"><rect class="bg" x="80" y="60" width="215" height="402" style="fill: rgb(51, 51, 51); fill-opacity: 1; stroke-width: 0;"/></g><g class="layer-below"><g class="imagelayer"/><g class="shapelayer"/></g><g class="cartesianlayer"><g class="subplot xy"><g class="layer-subplot"><g class="shapelayer"/><g class="imagelayer"/></g><g class="minor-gridlayer"><g class="x"/><g class="y"/></g><g class="gridlayer"><g class="x"><path class="xgrid crisp" transform="translate(100.13,0)" d="M0,60v402" style="stroke: rgb(116, 116, 116); stroke-opacity: 1; stroke-width: 1px;"/><path class="xgrid crisp" transform="translate(117.6,0)" d="M0,60v402" style="stroke: rgb(116, 116, 116); stroke-opacity: 1; stroke-width: 1px;"/><path class="xgrid crisp" transform="translate(135.07999999999998,0)" d="M0,60v402" style="stroke: rgb(116, 116, 116); stroke-opacity: 1; stroke-width: 1px;"/><path class="xgrid crisp" transform="translate(152.55,0)" d="M0,60v402" style="stroke: rgb(116, 116, 116); stroke-opacity: 1; stroke-width: 1px;"/><path class="xgrid crisp" transform="translate(170.03,0)" d="M0,60v402" style="stroke: rgb(116, 116, 116); stroke-opacity: 1; stroke-width: 1px;"/><path class="xgrid crisp" transform="translate(187.5,0)" d="M0,60v402" style="stroke: rgb(116, 116, 116); stroke-opacity: 1; stroke-width: 1px;"/><path class="xgrid crisp" transform="translate(204.98000000000002,0)" d="M0,60v402" style="stroke: rgb(116, 116, 116); stroke-opacity: 1; stroke-width: 1px;"/><path class="xgrid crisp" transform="translate(222.45,0)" d="M0,60v402" style="stroke: rgb(116, 116, 116); stroke-opacity: 1; stroke-width: 1px;"/><path class="xgrid crisp" transform="translate(239.93,0)" d="M0,60v402" style="stroke: rgb(116, 116, 116); stroke-opacity: 1; stroke-width: 1px;"/><path class="xgrid crisp" transform="translate(257.4,0)" d="M0,60v402" style="stroke: rgb(116, 116, 116); stroke-opacity: 1; stroke-width: 1px;"/><path class="xgrid crisp" transform="translate(274.88,0)" d="M0,60v402" style="stroke: rgb(116, 116, 116); stroke-opacity: 1; stroke-width: 1px;"/></g><g class="y"/></g><g class="zerolinelayer"><path class="yzl zl crisp" transform="translate(0,451.58)" d="M80,0h215" style="stroke: rgb(255, 255, 255); stroke-opacity: 1; stroke-width: 2px;"/></g><path class="xlines-below"/><path class="ylines-below"/><g class="overlines-below"/><g class="xaxislayer-below"/><g class="yaxislayer-below"/><g class="overaxes-below"/><g class="plot" transform="translate(80,60)" clip-path="url(#clip9b66eexyplot)"><g class="scatterlayer mlayer"><g class="trace scatter trace8dbba1" style="stroke-miterlimit: 2; opacity: 1;"><g class="fills"/><g class="errorbars"/><g class="lines"><path class="js-line" d="M20.13,353.47L37.6,29.48L55.08,315.35L72.55,67.59L90.03,334.41L107.5,353.47L124.98,29.48L142.45,334.41L159.93,296.29L177.4,67.59L194.88,124.77" style="vector-effect: none; fill: none; stroke: rgb(160, 244, 132); stroke-opacity: 1; stroke-width: 2px; opacity: 1;"/></g><g class="points"><path class="point" transform="translate(20.13,353.47)" d="M7.5,0A7.5,7.5 0 1,1 0,-7.5A7.5,7.5 0 0,1 7.5,0Z" style="opacity: 1; stroke-width: 0px; fill: rgb(160, 244, 132); fill-opacity: 1;"/><path class="point" transform="translate(37.6,29.48)" d="M7.5,0A7.5,7.5 0 1,1 0,-7.5A7.5,7.5 0 0,1 7.5,0Z" style="opacity: 1; stroke-width: 0px; fill: rgb(160, 244, 132); fill-opacity: 1;"/><path class="point" transform="translate(55.08,315.35)" d="M7.5,0A7.5,7.5 0 1,1 0,-7.5A7.5,7.5 0 0,1 7.5,0Z" style="opacity: 1; stroke-width: 0px; fill: rgb(160, 244, 132); fill-opacity: 1;"/><path class="point" transform="translate(72.55,67.59)" d="M7.5,0A7.5,7.5 0 1,1 0,-7.5A7.5,7.5 0 0,1 7.5,0Z" style="opacity: 1; stroke-width: 0px; fill: rgb(160, 244, 132); fill-opacity: 1;"/><path class="point" transform="translate(90.03,334.41)" d="M7.5,0A7.5,7.5 0 1,1 0,-7.5A7.5,7.5 0 0,1 7.5,0Z" style="opacity: 1; stroke-width: 0px; fill: rgb(160, 244, 132); fill-opacity: 1;"/><path class="point" transform="translate(107.5,353.47)" d="M7.5,0A7.5,7.5 0 1,1 0,-7.5A7.5,7.5 0 0,1 7.5,0Z" style="opacity: 1; stroke-width: 0px; fill: rgb(160, 244, 132); fill-opacity: 1;"/><path class="point" transform="translate(124.98,29.48)" d="M7.5,0A7.5,7.5 0 1,1 0,-7.5A7.5,7.5 0 0,1 7.5,0Z" style="opacity: 1; stroke-width: 0px; fill: rgb(160, 244, 132); fill-opacity: 1;"/><path class="point" transform="translate(142.45,334.41)" d="M7.5,0A7.5,7.5 0 1,1 0,-7.5A7.5,7.5 0 0,1 7.5,0Z" style="opacity: 1; stroke-width: 0px; fill: rgb(160, 244, 132); fill-opacity: 1;"/><path class="point" transform="translate(159.93,296.29)" d="M7.5,0A7.5,7.5 0 1,1 0,-7.5A7.5,7.5 0 0,1 7.5,0Z" style="opacity: 1; stroke-width: 0px; fill: rgb(160, 244, 132); fill-opacity: 1;"/><path class="point" transform="translate(177.4,67.59)" d="M7.5,0A7.5,7.5 0 1,1 0,-7.5A7.5,7.5 0 0,1 7.5,0Z" style="opacity: 1; stroke-width: 0px; fill: rgb(160, 244, 132); fill-opacity: 1;"/><path class="point" transform="translate(194.88,124.77)" d="M7.5,0A7.5,7.5 0 1,1 0,-7.5A7.5,7.5 0 0,1 7.5,0Z" style="opacity: 1; stroke-width: 0px; fill: rgb(160, 244, 132); fill-opacity: 1;"/></g><g class="text"/></g><g class="trace scatter trace12db48" style="stroke-miterlimit: 2; opacity: 1;"><g class="fills"/><g class="errorbars"/><g class="lines"><path class="js-line" d="M20.13,258.18L37.6,124.77L55.08,353.47L72.55,277.23L90.03,143.83L107.5,372.53L124.98,67.59L142.45,220.06L159.93,334.41L177.4,105.71L194.88,181.94" style="vector-effect: none; fill: none; stroke: rgb(20, 60, 170); stroke-opacity: 1; stroke-width: 2px; opacity: 1;"/></g><g class="points"><path class="point" transform="translate(20.13,258.18)" d="M7.5,0A7.5,7.5 0 1,1 0,-7.5A7.5,7.5 0 0,1 7.5,0Z" style="opacity: 1; stroke-width: 0px; fill: rgb(20, 60, 170); fill-opacity: 1;"/><path class="point" transform="translate(37.6,124.77)" d="M7.5,0A7.5,7.5 0 1,1 0,-7.5A7.5,7.5 0 0,1 7.5,0Z" style="opacity: 1; stroke-width: 0px; fill: rgb(20, 60, 170); fill-opacity: 1;"/><path class="point" transform="translate(55.08,353.47)" d="M7.5,0A7.5,7.5 0 1,1 0,-7.5A7.5,7.5 0 0,1 7.5,0Z" style="opacity: 1; stroke-width: 0px; fill: rgb(20, 60, 170); fill-opacity: 1;"/><path class="point" transform="translate(72.55,277.23)" d="M7.5,0A7.5,7.5 0 1,1 0,-7.5A7.5,7.5 0 0,1 7.5,0Z" style="opacity: 1; stroke-width: 0px; fill: rgb(20, 60, 170); fill-opacity: 1;"/><path class="point" transform="translate(90.03,143.83)" d="M7.5,0A7.5,7.5 0 1,1 0,-7.5A7.5,7.5 0 0,1 7.5,0Z" style="opacity: 1; stroke-width: 0px; fill: rgb(20, 60, 170); fill-opacity: 1;"/><path class="point" transform="translate(107.5,372.53)" d="M7.5,0A7.5,7.5 0 1,1 0,-7.5A7.5,7.5 0 0,1 7.5,0Z" style="opacity: 1; stroke-width: 0px; fill: rgb(20, 60, 170); fill-opacity: 1;"/><path class="point" transform="translate(124.98,67.59)" d="M7.5,0A7.5,7.5 0 1,1 0,-7.5A7.5,7.5 0 0,1 7.5,0Z" style="opacity: 1; stroke-width: 0px; fill: rgb(20, 60, 170); fill-opacity: 1;"/><path class="point" transform="translate(142.45,220.06)" d="M7.5,0A7.5,7.5 0 1,1 0,-7.5A7.5,7.5 0 0,1 7.5,0Z" style="opacity: 1; stroke-width: 0px; fill: rgb(20, 60, 170); fill-opacity: 1;"/><path class="point" transform="translate(159.93,334.41)" d="M7.5,0A7.5,7.5 0 1,1 0,-7.5A7.5,7.5 0 0,1 7.5,0Z" style="opacity: 1; stroke-width: 0px; fill: rgb(20, 60, 170); fill-opacity: 1;"/><path class="point" transform="translate(177.4,105.71)" d="M7.5,0A7.5,7.5 0 1,1 0,-7.5A7.5,7.5 0 0,1 7.5,0Z" style="opacity: 1; stroke-width: 0px; fill: rgb(20, 60, 170); fill-opacity: 1;"/><path class="point" transform="translate(194.88,181.94)" d="M7.5,0A7.5,7.5 0 1,1 0,-7.5A7.5,7.5 0 0,1 7.5,0Z" style="opacity: 1; stroke-width: 0px; fill: rgb(20, 60, 170); fill-opacity: 1;"/></g><g class="text"/></g><g class="trace scatter trace0fcc6b" style="stroke-miterlimit: 2; opacity: 1;"><g class="fills"/><g class="errorbars"/><g class="lines"><path class="js-line" d="M20.13,124.77L37.6,67.59L55.08,372.53L72.55,105.71L90.03,315.35L107.5,353.47L124.98,67.59L142.45,162.88L159.93,201L177.4,372.53L194.88,162.88" style="vector-effect: none; fill: none; stroke: rgb(252, 230, 141); stroke-opacity: 1; stroke-width: 2px; opacity: 1;"/></g><g class="points"><path class="point" transform="translate(20.13,124.77)" d="M7.5,0A7.5,7.5 0 1,1 0,-7.5A7.5,7.5 0 0,1 7.5,0Z" style="opacity: 1; stroke-width: 0px; fill: rgb(252, 230, 141); fill-opacity: 1;"/><path class="point" transform="translate(37.6,67.59)" d="M7.5,0A7.5,7.5 0 1,1 0,-7.5A7.5,7.5 0 0,1 7.5,0Z" style="opacity: 1; stroke-width: 0px; fill: rgb(252, 230, 141); fill-opacity: 1;"/><path class="point" transform="translate(55.08,372.53)" d="M7.5,0A7.5,7.5 0 1,1 0,-7.5A7.5,7.5 0 0,1 7.5,0Z" style="opacity: 1; stroke-width: 0px; fill: rgb(252, 230, 141); fill-opacity: 1;"/><path class="point" transform="translate(72.55,105.71)" d="M7.5,0A7.5,7.5 0 1,1 0,-7.5A7.5,7.5 0 0,1 7.5,0Z" style="opacity: 1; stroke-width: 0px; fill: rgb(252, 230, 141); fill-opacity: 1;"/><path class="point" transform="translate(90.03,315.35)" d="M7.5,0A7.5,7.5 0 1,1 0,-7.5A7.5,7.5 0 0,1 7.5,0Z" style="opacity: 1; stroke-width: 0px; fill: rgb(252, 230, 141); fill-opacity: 1;"/><path class="point" transform="translate(107.5,353.47)" d="M7.5,0A7.5,7.5 0 1,1 0,-7.5A7.5,7.5 0 0,1 7.5,0Z" style="opacity: 1; stroke-width: 0px; fill: rgb(252, 230, 141); fill-opacity: 1;"/><path class="point" transform="translate(124.98,67.59)" d="M7.5,0A7.5,7.5 0 1,1 0,-7.5A7.5,7.5 0 0,1 7.5,0Z" style="opacity: 1; stroke-width: 0px; fill: rgb(252, 230, 141); fill-opacity: 1;"/><path class="point" transform="translate(142.45,162.88)" d="M7.5,0A7.5,7.5 0 1,1 0,-7.5A7.5,7.5 0 0,1 7.5,0Z" style="opacity: 1; stroke-width: 0px; fill: rgb(252, 230, 141); fill-opacity: 1;"/><path class="point" transform="translate(159.93,201)" d="M7.5,0A7.5,7.5 0 1,1 0,-7.5A7.5,7.5 0 0,1 7.5,0Z" style="opacity: 1; stroke-width: 0px; fill: rgb(252, 230, 141); fill-opacity: 1;"/><path class="point" transform="translate(177.4,372.53)" d="M7.5,0A7.5,7.5 0 1,1 0,-7.5A7.5,7.5 0 0,1 7.5,0Z" style="opacity: 1; stroke-width: 0px; fill: rgb(252, 230, 141); fill-opacity: 1;"/><path class="point" transform="translate(194.88,162.88)" d="M7.5,0A7.5,7.5 0 1,1 0,-7.5A7.5,7.5 0 0,1 7.5,0Z" style="opacity: 1; stroke-width: 0px; fill: rgb(252, 230, 141); fill-opacity: 1;"/></g><g class="text"/></g><g class="trace scatter tracef67459" style="stroke-miterlimit: 2; opacity: 1;"><g class="fills"/><g class="errorbars"/><g class="lines"><path class="js-line" d="M20.13,162.88L37.6,124.77L55.08,239.12L72.55,277.23L90.03,162.88L107.5,277.23L124.98,334.41L159.93,143.83L177.4,67.59L194.88,239.12" style="vector-effect: none; fill: none; stroke: rgb(220, 150, 255); stroke-opacity: 1; stroke-width: 2px; opacity: 1;"/></g><g class="points"><path class="point" transform="translate(20.13,162.88)" d="M7.5,0A7.5,7.5 0 1,1 0,-7.5A7.5,7.5 0 0,1 7.5,0Z" style="opacity: 1; stroke-width: 0px; fill: rgb(220, 150, 255); fill-opacity: 1;"/><path class="point" transform="translate(37.6,124.77)" d="M7.5,0A7.5,7.5 0 1,1 0,-7.5A7.5,7.5 0 0,1 7.5,0Z" style="opacity: 1; stroke-width: 0px; fill: rgb(220, 150, 255); fill-opacity: 1;"/><path class="point" transform="translate(55.08,239.12)" d="M7.5,0A7.5,7.5 0 1,1 0,-7.5A7.5,7.5 0 0,1 7.5,0Z" style="opacity: 1; stroke-width: 0px; fill: rgb(220, 150, 255); fill-opacity: 1;"/><path class="point" transform="translate(72.55,277.23)" d="M7.5,0A7.5,7.5 0 1,1 0,-7.5A7.5,7.5 0 0,1 7.5,0Z" style="opacity: 1; stroke-width: 0px; fill: rgb(220, 150, 255); fill-opacity: 1;"/><path class="point" transform="translate(90.03,162.88)" d="M7.5,0A7.5,7.5 0 1,1 0,-7.5A7.5,7.5 0 0,1 7.5,0Z" style="opacity: 1; stroke-width: 0px; fill: rgb(220, 150, 255); fill-opacity: 1;"/><path class="point" transform="translate(107.5,277.23)" d="M7.5,0A7.5,7.5 0 1,1 0,-7.5A7.5,7.5 0 0,1 7.5,0Z" style="opacity: 1; stroke-width: 0px; fill: rgb(220, 150, 255); fill-opacity: 1;"/><path class="point" transform="translate(124.98,334.41)" d="M7.5,0A7.5,7.5 0 1,1 0,-7.5A7.5,7.5 0 0,1 7.5,0Z" style="opacity: 1; stroke-width: 0px; fill: rgb(220, 150, 255); fill-opacity: 1;"/><path class="point" transform="translate(142.45,239.12)" d="M7.5,0A7.5,7.5 0 1,1 0,-7.5A7.5,7.5 0 0,1 7.5,0Z" style="opacity: 1; stroke-width: 0px; fill: rgb(220, 150, 255); fill-opacity: 1;"/><path class="point" transform="translate(159.93,143.83)" d="M7.5,0A7.5,7.5 0 1,1 0,-7.5A7.5,7.5 0 0,1 7.5,0Z" style="opacity: 1; stroke-width: 0px; fill: rgb(220, 150, 255); fill-opacity: 1;"/><path class="point" transform="translate(177.4,67.59)" d="M7.5,0A7.5,7.5 0 1,1 0,-7.5A7.5,7.5 0 0,1 7.5,0Z" style="opacity: 1; stroke-width: 0px; fill: rgb(220, 150, 255); fill-opacity: 1;"/><path class="point" transform="translate(194.88,239.12)" d="M7.5,0A7.5,7.5 0 1,1 0,-7.5A7.5,7.5 0 0,1 7.5,0Z" style="opacity: 1; stroke-width: 0px; fill: rgb(220, 150, 255); fill-opacity: 1;"/></g><g class="text"/></g></g></g><g class="overplot"/><path class="xlines-above crisp" d="M0,0" style="fill: none;"/><path class="ylines-above crisp" d="M79.5,60V462" style="fill: none; stroke-width: 1px; stroke: rgb(255, 255, 255); stroke-opacity: 1;"/><g class="overlines-above"/><g class="xaxislayer-above"><g class="xtick"><text text-anchor="start" x="1.75" y="468" transform="translate(100.13,0) rotate(90,1.75,463)" style="font-family: avenir; font-size: 10px; fill: rgb(0, 0, 0); fill-opacity: 1; white-space: pre; opacity: 1;">Jan</text></g><g class="xtick"><text text-anchor="start" x="1.75" y="468" transform="translate(117.6,0) rotate(90,1.75,463)" style="font-family: avenir; font-size: 10px; fill: rgb(0, 0, 0); fill-opacity: 1; white-space: pre; opacity: 1;">Feb</text></g><g class="xtick"><text text-anchor="start" x="1.75" y="468" transform="translate(135.07999999999998,0) rotate(90,1.75,463)" style="font-family: avenir; font-size: 10px; fill: rgb(0, 0, 0); fill-opacity: 1; white-space: pre; opacity: 1;">Mar</text></g><g class="xtick"><text text-anchor="start" x="1.75" y="468" transform="translate(152.55,0) rotate(90,1.75,463)" style="font-family: avenir; font-size: 10px; fill: rgb(0, 0, 0); fill-opacity: 1; white-space: pre; opacity: 1;">Apr</text></g><g class="xtick"><text text-anchor="start" x="1.75" y="468" transform="translate(170.03,0) rotate(90,1.75,463)" style="font-family: avenir; font-size: 10px; fill: rgb(0, 0, 0); fill-opacity: 1; white-space: pre; opacity: 1;">May</text></g><g class="xtick"><text text-anchor="start" x="1.75" y="468" transform="translate(187.5,0) rotate(90,1.75,463)" style="font-family: avenir; font-size: 10px; fill: rgb(0, 0, 0); fill-opacity: 1; white-space: pre; opacity: 1;">June</text></g><g class="xtick"><text text-anchor="start" x="1.75" y="468" transform="translate(204.98000000000002,0) rotate(90,1.75,463)" style="font-family: avenir; font-size: 10px; fill: rgb(0, 0, 0); fill-opacity: 1; white-space: pre; opacity: 1;">July</text></g><g class="xtick"><text text-anchor="start" x="1.75" y="468" transform="translate(222.45,0) rotate(90,1.75,463)" style="font-family: avenir; font-size: 10px; fill: rgb(0, 0, 0); fill-opacity: 1; white-space: pre; opacity: 1;">Aug</text></g><g class="xtick"><text text-anchor="start" x="1.75" y="468" transform="translate(239.93,0) rotate(90,1.75,463)" style="font-family: avenir; font-size: 10px; fill: rgb(0, 0, 0); fill-opacity: 1; white-space: pre; opacity: 1;">Sep</text></g><g class="xtick"><text text-anchor="start" x="1.75" y="468" transform="translate(257.4,0) rotate(90,1.75,463)" style="font-family: avenir; font-size: 10px; fill: rgb(0, 0, 0); fill-opacity: 1; white-space: pre; opacity: 1;">Oct</text></g><g class="xtick"><text text-anchor="start" x="1.75" y="468" transform="translate(274.88,0) rotate(90,1.75,463)" style="font-family: avenir; font-size: 10px; fill: rgb(0, 0, 0); fill-opacity: 1; white-space: pre; opacity: 1;">Nov</text></g></g><g class="yaxislayer-above"><g class="ytick"><text text-anchor="end" x="77" y="3.5" transform="translate(0,451.58)" style="font-family: avenir; font-size: 10px; fill: rgb(0, 0, 0); fill-opacity: 1; white-space: pre; opacity: 1;">0</text></g><g class="ytick"><text text-anchor="end" x="77" y="3.5" style="font-family: avenir; font-size: 10px; fill: rgb(0, 0, 0); fill-opacity: 1; white-space: pre; opacity: 1;" transform="translate(0,356.29)">5</text></g><g class="ytick"><text text-anchor="end" x="77" y="3.5" style="font-family: avenir; font-size: 10px; fill: rgb(0, 0, 0); fill-opacity: 1; white-space: pre; opacity: 1;" transform="translate(0,261)">10</text></g><g class="ytick"><text text-anchor="end" x="77" y="3.5" style="font-family: avenir; font-size: 10px; fill: rgb(0, 0, 0); fill-opacity: 1; white-space: pre; opacity: 1;" transform="translate(0,165.70999999999998)">15</text></g><g class="ytick"><text text-anchor="end" x="77" y="3.5" style="font-family: avenir; font-size: 10px; fill: rgb(0, 0, 0); fill-opacity: 1; white-space: pre; opacity: 1;" transform="translate(0,70.42)">20</text></g></g><g class="overaxes-above"/></g></g><g class="polarlayer"/><g class="smithlayer"/><g class="ternarylayer"/><g class="geolayer"/><g class="funnelarealayer"/><g class="pielayer"/><g class="iciclelayer"/><g class="treemaplayer"/><g class="sunburstlayer"/><g class="glimages"/><defs id="topdefs-9b66ee"><g class="clips"/><clipPath id="legend9b66ee"><rect width="277" height="86" x="0" y="0"/></clipPath></defs><g class="layer-above"><g class="imagelayer"/><g class="shapelayer"/></g><g class="infolayer"><g class="legend" pointer-events="all" transform="translate(80,502.20000000000005)"><rect class="bg" shape-rendering="crispEdges" style="stroke: rgb(68, 68, 68); stroke-opacity: 1; fill: rgb(255, 255, 255); fill-opacity: 1; stroke-width: 0px;" width="277" height="86" x="0" y="0"/><g class="scrollbox" transform="" clip-path="url(#legend9b66ee)"><text class="legendtitletext" text-anchor="start" x="2" y="18.2" style="font-family: avenir; font-size: 14px; fill: rgb(42, 63, 95); fill-opacity: 1; white-space: pre;">color involve trial</text><g class="groups" transform=""><g class="traces" transform="translate(110.421875,14.5)" style="opacity: 1;"><text class="legendtext" text-anchor="start" x="40" y="4.680000000000001" style="font-family: avenir; font-size: 12px; fill: rgb(42, 63, 95); fill-opacity: 1; white-space: pre;">position sound operation</text><g class="layers" style="opacity: 1;"><g class="legendfill"/><g class="legendlines"><path class="js-line" d="M5,0h30" style="fill: none; stroke: rgb(160, 244, 132); stroke-opacity: 1; stroke-width: 2px;"/></g><g class="legendsymbols"><g class="legendpoints"><path class="scatterpts" transform="translate(20,0)" d="M7.5,0A7.5,7.5 0 1,1 0,-7.5A7.5,7.5 0 0,1 7.5,0Z" style="opacity: 1; stroke-width: 0px; fill: rgb(160, 244, 132); fill-opacity: 1;"/></g></g></g><rect class="legendtoggle" x="0" y="-9.5" width="163.171875" height="19" style="fill: rgb(0, 0, 0); fill-opacity: 0;"/></g></g><g class="groups" transform="translate(0,19)"><g class="traces" transform="translate(110.421875,14.5)" style="opacity: 1;"><text class="legendtext" text-anchor="start" x="40" y="4.680000000000001" style="font-family: avenir; font-size: 12px; fill: rgb(42, 63, 95); fill-opacity: 1; white-space: pre;">somebody great indicate</text><g class="layers" style="opacity: 1;"><g class="legendfill"/><g class="legendlines"><path class="js-line" d="M5,0h30" style="fill: none; stroke: rgb(20, 60, 170); stroke-opacity: 1; stroke-width: 2px;"/></g><g class="legendsymbols"><g class="legendpoints"><path class="scatterpts" transform="translate(20,0)" d="M7.5,0A7.5,7.5 0 1,1 0,-7.5A7.5,7.5 0 0,1 7.5,0Z" style="opacity: 1; stroke-width: 0px; fill: rgb(20, 60, 170); fill-opacity: 1;"/></g></g></g><rect class="legendtoggle" x="0" y="-9.5" width="160.46875" height="19" style="fill: rgb(0, 0, 0); fill-opacity: 0;"/></g></g><g class="groups" transform="translate(0,38)"><g class="traces" transform="translate(110.421875,14.5)" style="opacity: 1;"><text class="legendtext" text-anchor="start" x="40" y="4.680000000000001" style="font-family: avenir; font-size: 12px; fill: rgb(42, 63, 95); fill-opacity: 1; white-space: pre;">toward alone health</text><g class="layers" style="opacity: 1;"><g class="legendfill"/><g class="legendlines"><path class="js-line" d="M5,0h30" style="fill: none; stroke: rgb(252, 230, 141); stroke-opacity: 1; stroke-width: 2px;"/></g><g class="legendsymbols"><g class="legendpoints"><path class="scatterpts" transform="translate(20,0)" d="M7.5,0A7.5,7.5 0 1,1 0,-7.5A7.5,7.5 0 0,1 7.5,0Z" style="opacity: 1; stroke-width: 0px; fill: rgb(252, 230, 141); fill-opacity: 1;"/></g></g></g><rect class="legendtoggle" x="0" y="-9.5" width="139.140625" height="19" style="fill: rgb(0, 0, 0); fill-opacity: 0;"/></g></g><g class="groups" transform="translate(0,57)"><g class="traces" transform="translate(110.421875,14.5)" style="opacity: 1;"><text class="legendtext" text-anchor="start" x="40" y="4.680000000000001" style="font-family: avenir; font-size: 12px; fill: rgb(42, 63, 95); fill-opacity: 1; white-space: pre;">goal if morning</text><g class="layers" style="opacity: 1;"><g class="legendfill"/><g class="legendlines"><path class="js-line" d="M5,0h30" style="fill: none; stroke: rgb(220, 150, 255); stroke-opacity: 1; stroke-width: 2px;"/></g><g class="legendsymbols"><g class="legendpoints"><path class="scatterpts" transform="translate(20,0)" d="M7.5,0A7.5,7.5 0 1,1 0,-7.5A7.5,7.5 0 0,1 7.5,0Z" style="opacity: 1; stroke-width: 0px; fill: rgb(220, 150, 255); fill-opacity: 1;"/></g></g></g><rect class="legendtoggle" x="0" y="-9.5" width="118.15625" height="19" style="fill: rgb(0, 0, 0); fill-opacity: 0;"/></g></g></g><rect class="scrollbar" rx="20" ry="3" width="0" height="0" style="fill: rgb(128, 139, 164); fill-opacity: 1;" x="0" y="0"/></g><g class="g-gtitle"><text class="gtitle" x="187.5" y="30" text-anchor="start" dy="0em" style="font-family: avenir; font-size: 25px; fill: rgb(0, 0, 0); opacity: 1; font-weight: normal; white-space: pre;">act detail guess</text></g><g class="g-xtitle"/><g class="g-ytitle"/></g></svg>