<svg class="main-svg" xmlns="http://www.w3.org/2000/svg" xmlns:xlink="http://www.w3.org/1999/xlink" width="719" height="600" style="" viewBox="0 0 719 600"><rect x="0" y="0" width="719" height="600" style="fill: rgb(255, 255, 255); fill-opacity: 1;"/><defs id="defs-7c6f66"><g class="clips"><clipPath id="clip7c6f66xyplot" class="plotclip"><rect width="473" height="460"/></clipPath><clipPath class="axesclip" id="clip7c6f66x"><rect x="80" y="0" width="473" height="600"/></clipPath><clipPath class="axesclip" id="clip7c6f66y"><rect x="0" y="60" width="719" height="460"/></clipPath><clipPath class="axesclip" id="clip7c6f66xy"><rect x="80" y="60" width="473" height="460"/></clipPath></g><g class="gradients"/><g class="patterns"/></defs><g class="bglayer"><rect class="bg" x="80" y="60" width="473" height="460" style="fill: rgb(255, 255, 255); fill-opacity: 1; stroke-width: 0;"/></g><g class="layer-below"><g class="imagelayer"/><g class="shapelayer"/></g><g class="cartesianlayer"><g class="subplot xy"><g class="layer-subplot"><g class="shapelayer"/><g class="imagelayer"/></g><g class="minor-gridlayer"><g class="x"/><g class="y"/></g><g class="gridlayer"><g class="x"><path class="xgrid crisp" transform="translate(106.77,0)" d="M0,60v460" style="stroke: rgb(208, 208, 208); stroke-opacity: 1; stroke-width: 1px;"/><path class="xgrid crisp" transform="translate(153.38,0)" d="M0,60v460" style="stroke: rgb(208, 208, 208); stroke-opacity: 1; stroke-width: 1px;"/><path class="xgrid crisp" transform="translate(199.99,0)" d="M0,60v460" style="stroke: rgb(208, 208, 208); stroke-opacity: 1; stroke-width: 1px;"/><path class="xgrid crisp" transform="translate(246.59,0)" d="M0,60v460" style="stroke: rgb(208, 208, 208); stroke-opacity: 1; stroke-width: 1px;"/><path class="xgrid crisp" transform="translate(293.2,0)" d="M0,60v460" style="stroke: rgb(208, 208, 208); stroke-opacity: 1; stroke-width: 1px;"/><path class="xgrid crisp" transform="translate(339.8,0)" d="M0,60v460" style="stroke: rgb(208, 208, 208); stroke-opacity: 1; stroke-width: 1px;"/><path class="xgrid crisp" transform="translate(386.41,0)" d="M0,60v460" style="stroke: rgb(208, 208, 208); stroke-opacity: 1; stroke-width: 1px;"/><path class="xgrid crisp" transform="translate(433.01,0)" d="M0,60v460" style="stroke: rgb(208, 208, 208); stroke-opacity: 1; stroke-width: 1px;"/><path class="xgrid crisp" transform="translate(479.62,0)" d="M0,60v460" style="stroke: rgb(208, 208, 208); stroke-opacity: 1; stroke-width: 1px;"/><path class="xgrid crisp" transform="translate(526.22,0)" d="M0,60v460" style="stroke: rgb(208, 208, 208); stroke-opacity: 1; stroke-width: 1px;"/></g><g class="y"><path class="ygrid crisp" transform="translate(0,463.94)" d="M80,0h473" style="stroke: rgb(208, 208, 208); stroke-opacity: 1; stroke-width: 1px;"/><path class="ygrid crisp" transform="translate(0,416.41)" d="M80,0h473" style="stroke: rgb(208, 208, 208); stroke-opacity: 1; stroke-width: 1px;"/><path class="ygrid crisp" transform="translate(0,368.89)" d="M80,0h473" style="stroke: rgb(208, 208, 208); stroke-opacity: 1; stroke-width: 1px;"/><path class="ygrid crisp" transform="translate(0,321.37)" d="M80,0h473" style="stroke: rgb(208, 208, 208); stroke-opacity: 1; stroke-width: 1px;"/><path class="ygrid crisp" transform="translate(0,273.84000000000003)" d="M80,0h473" style="stroke: rgb(208, 208, 208); stroke-opacity: 1; stroke-width: 1px;"/><path class="ygrid crisp" transform="translate(0,226.32)" d="M80,0h473" style="stroke: rgb(208, 208, 208); stroke-opacity: 1; stroke-width: 1px;"/><path class="ygrid crisp" transform="translate(0,178.8)" d="M80,0h473" style="stroke: rgb(208, 208, 208); stroke-opacity: 1; stroke-width: 1px;"/><path class="ygrid crisp" transform="translate(0,131.26999999999998)" d="M80,0h473" style="stroke: rgb(208, 208, 208); stroke-opacity: 1; stroke-width: 1px;"/><path class="ygrid crisp" transform="translate(0,83.75)" d="M80,0h473" style="stroke: rgb(208, 208, 208); stroke-opacity: 1; stroke-width: 1px;"/></g></g><g class="zerolinelayer"><path class="yzl zl crisp" transform="translate(0,511.46)" d="M80,0h473" style="stroke: rgb(255, 255, 255); stroke-opacity: 1; stroke-width: 2px;"/></g><path class="xlines-below"/><path class="ylines-below"/><g class="overlines-below"/><g class="xaxislayer-below"/><g class="yaxislayer-below"/><g class="overaxes-below"/><g class="plot" transform="translate(80,60)" clip-path="url(#clip7c6f66xyplot)"><g class="scatterlayer mlayer"><g class="trace scatter trace57a832" style="stroke-miterlimit: 2; opacity: 1;"><g class="fills"/><g class="errorbars"/><g class="lines"><path class="js-line" d="M26.77,418.19L73.38,100.26L119.99,377.8L166.59,37.06L213.2,433.88L259.8,26.12L306.41,193.41L353.01,38.48L399.62,243.31L446.22,323.62" style="vector-effect: none; fill: none; stroke: rgb(54, 36, 214); stroke-opacity: 1; stroke-width: 2px; opacity: 1;"/></g><g class="points"><path class="point" transform="translate(26.77,418.19)" d="M2.5,0A2.5,2.5 0 1,1 0,-2.5A2.5,2.5 0 0,1 2.5,0Z" style="opacity: 1; stroke: rgb(54, 36, 214); stroke-opacity: 1; stroke-width: 1px; fill: none;"/><path class="point" transform="translate(73.38,100.26)" d="M2.5,0A2.5,2.5 0 1,1 0,-2.5A2.5,2.5 0 0,1 2.5,0Z" style="opacity: 1; stroke: rgb(54, 36, 214); stroke-opacity: 1; stroke-width: 1px; fill: none;"/><path class="point" transform="translate(119.99,377.8)" d="M2.5,0A2.5,2.5 0 1,1 0,-2.5A2.5,2.5 0 0,1 2.5,0Z" style="opacity: 1; stroke: rgb(54, 36, 214); stroke-opacity: 1; stroke-width: 1px; fill: none;"/><path class="point" transform="translate(166.59,37.06)" d="M2.5,0A2.5,2.5 0 1,1 0,-2.5A2.5,2.5 0 0,1 2.5,0Z" style="opacity: 1; stroke: rgb(54, 36, 214); stroke-opacity: 1; stroke-width: 1px; fill: none;"/><path class="point" transform="translate(213.2,433.88)" d="M2.5,0A2.5,2.5 0 1,1 0,-2.5A2.5,2.5 0 0,1 2.5,0Z" style="opacity: 1; stroke: rgb(54, 36, 214); stroke-opacity: 1; stroke-width: 1px; fill: none;"/><path class="point" transform="translate(259.8,26.12)" d="M2.5,0A2.5,2.5 0 1,1 0,-2.5A2.5,2.5 0 0,1 2.5,0Z" style="opacity: 1; stroke: rgb(54, 36, 214); stroke-opacity: 1; stroke-width: 1px; fill: none;"/><path class="point" transform="translate(306.41,193.41)" d="M2.5,0A2.5,2.5 0 1,1 0,-2.5A2.5,2.5 0 0,1 2.5,0Z" style="opacity: 1; stroke: rgb(54, 36, 214); stroke-opacity: 1; stroke-width: 1px; fill: none;"/><path class="point" transform="translate(353.01,38.48)" d="M2.5,0A2.5,2.5 0 1,1 0,-2.5A2.5,2.5 0 0,1 2.5,0Z" style="opacity: 1; stroke: rgb(54, 36, 214); stroke-opacity: 1; stroke-width: 1px; fill: none;"/><path class="point" transform="translate(399.62,243.31)" d="M2.5,0A2.5,2.5 0 1,1 0,-2.5A2.5,2.5 0 0,1 2.5,0Z" style="opacity: 1; stroke: rgb(54, 36, 214); stroke-opacity: 1; stroke-width: 1px; fill: none;"/><path class="point" transform="translate(446.22,323.62)" d="M2.5,0A2.5,2.5 0 1,1 0,-2.5A2.5,2.5 0 0,1 2.5,0Z" style="opacity: 1; stroke: rgb(54, 36, 214); stroke-opacity: 1; stroke-width: 1px; fill: none;"/></g><g class="text"/></g><g class="trace scatter traceb2052e" style="stroke-miterlimit: 2; opacity: 1;"><g class="fills"/><g class="errorbars"/><g class="lines"><path class="js-line" d="M26.77,313.64L73.38,350.71L119.99,244.73L166.59,130.2L213.2,412.49L259.8,120.7L306.41,328.37L353.01,302.71L399.62,46.56L446.22,415.34" style="vector-effect: none; fill: none; stroke: rgb(247, 165, 206); stroke-opacity: 1; stroke-width: 2px; opacity: 1;"/></g><g class="points"><path class="point" transform="translate(26.77,313.64)" d="M2.5,0A2.5,2.5 0 1,1 0,-2.5A2.5,2.5 0 0,1 2.5,0Z" style="opacity: 1; stroke: rgb(247, 165, 206); stroke-opacity: 1; stroke-width: 1px; fill: none;"/><path class="point" transform="translate(73.38,350.71)" d="M2.5,0A2.5,2.5 0 1,1 0,-2.5A2.5,2.5 0 0,1 2.5,0Z" style="opacity: 1; stroke: rgb(247, 165, 206); stroke-opacity: 1; stroke-width: 1px; fill: none;"/><path class="point" transform="translate(119.99,244.73)" d="M2.5,0A2.5,2.5 0 1,1 0,-2.5A2.5,2.5 0 0,1 2.5,0Z" style="opacity: 1; stroke: rgb(247, 165, 206); stroke-opacity: 1; stroke-width: 1px; fill: none;"/><path class="point" transform="translate(166.59,130.2)" d="M2.5,0A2.5,2.5 0 1,1 0,-2.5A2.5,2.5 0 0,1 2.5,0Z" style="opacity: 1; stroke: rgb(247, 165, 206); stroke-opacity: 1; stroke-width: 1px; fill: none;"/><path class="point" transform="translate(213.2,412.49)" d="M2.5,0A2.5,2.5 0 1,1 0,-2.5A2.5,2.5 0 0,1 2.5,0Z" style="opacity: 1; stroke: rgb(247, 165, 206); stroke-opacity: 1; stroke-width: 1px; fill: none;"/><path class="point" transform="translate(259.8,120.7)" d="M2.5,0A2.5,2.5 0 1,1 0,-2.5A2.5,2.5 0 0,1 2.5,0Z" style="opacity: 1; stroke: rgb(247, 165, 206); stroke-opacity: 1; stroke-width: 1px; fill: none;"/><path class="point" transform="translate(306.41,328.37)" d="M2.5,0A2.5,2.5 0 1,1 0,-2.5A2.5,2.5 0 0,1 2.5,0Z" style="opacity: 1; stroke: rgb(247, 165, 206); stroke-opacity: 1; stroke-width: 1px; fill: none;"/><path class="point" transform="translate(353.01,302.71)" d="M2.5,0A2.5,2.5 0 1,1 0,-2.5A2.5,2.5 0 0,1 2.5,0Z" style="opacity: 1; stroke: rgb(247, 165, 206); stroke-opacity: 1; stroke-width: 1px; fill: none;"/><path class="point" transform="translate(399.62,46.56)" d="M2.5,0A2.5,2.5 0 1,1 0,-2.5A2.5,2.5 0 0,1 2.5,0Z" style="opacity: 1; stroke: rgb(247, 165, 206); stroke-opacity: 1; stroke-width: 1px; fill: none;"/><path class="point" transform="translate(446.22,415.34)" d="M2.5,0A2.5,2.5 0 1,1 0,-2.5A2.5,2.5 0 0,1 2.5,0Z" style="opacity: 1; stroke: rgb(247, 165, 206); stroke-opacity: 1; stroke-width: 1px; fill: none;"/></g><g class="text"/></g><g class="trace scatter trace17a59c" style="stroke-miterlimit: 2; opacity: 1;"><g class="fills"/><g class="errorbars"/><g class="lines"><path class="js-line" d="M26.77,28.98L73.38,376.85L119.99,263.27L166.59,342.16L213.2,259.94L259.8,330.27L306.41,128.78L353.01,189.61L399.62,277.05L446.22,138.28" style="vector-effect: none; fill: none; stroke: rgb(124, 242, 106); stroke-opacity: 1; stroke-width: 2px; opacity: 1;"/></g><g class="points"><path class="point" transform="translate(26.77,28.98)" d="M2.5,0A2.5,2.5 0 1,1 0,-2.5A2.5,2.5 0 0,1 2.5,0Z" style="opacity: 1; stroke: rgb(124, 242, 106); stroke-opacity: 1; stroke-width: 1px; fill: none;"/><path class="point" transform="translate(73.38,376.85)" d="M2.5,0A2.5,2.5 0 1,1 0,-2.5A2.5,2.5 0 0,1 2.5,0Z" style="opacity: 1; stroke: rgb(124, 242, 106); stroke-opacity: 1; stroke-width: 1px; fill: none;"/><path class="point" transform="translate(119.99,263.27)" d="M2.5,0A2.5,2.5 0 1,1 0,-2.5A2.5,2.5 0 0,1 2.5,0Z" style="opacity: 1; stroke: rgb(124, 242, 106); stroke-opacity: 1; stroke-width: 1px; fill: none;"/><path class="point" transform="translate(166.59,342.16)" d="M2.5,0A2.5,2.5 0 1,1 0,-2.5A2.5,2.5 0 0,1 2.5,0Z" style="opacity: 1; stroke: rgb(124, 242, 106); stroke-opacity: 1; stroke-width: 1px; fill: none;"/><path class="point" transform="translate(213.2,259.94)" d="M2.5,0A2.5,2.5 0 1,1 0,-2.5A2.5,2.5 0 0,1 2.5,0Z" style="opacity: 1; stroke: rgb(124, 242, 106); stroke-opacity: 1; stroke-width: 1px; fill: none;"/><path class="point" transform="translate(259.8,330.27)" d="M2.5,0A2.5,2.5 0 1,1 0,-2.5A2.5,2.5 0 0,1 2.5,0Z" style="opacity: 1; stroke: rgb(124, 242, 106); stroke-opacity: 1; stroke-width: 1px; fill: none;"/><path class="point" transform="translate(306.41,128.78)" d="M2.5,0A2.5,2.5 0 1,1 0,-2.5A2.5,2.5 0 0,1 2.5,0Z" style="opacity: 1; stroke: rgb(124, 242, 106); stroke-opacity: 1; stroke-width: 1px; fill: none;"/><path class="point" transform="translate(353.01,189.61)" d="M2.5,0A2.5,2.5 0 1,1 0,-2.5A2.5,2.5 0 0,1 2.5,0Z" style="opacity: 1; stroke: rgb(124, 242, 106); stroke-opacity: 1; stroke-width: 1px; fill: none;"/><path class="point" transform="translate(399.62,277.05)" d="M2.5,0A2.5,2.5 0 1,1 0,-2.5A2.5,2.5 0 0,1 2.5,0Z" style="opacity: 1; stroke: rgb(124, 242, 106); stroke-opacity: 1; stroke-width: 1px; fill: none;"/><path class="point" transform="translate(446.22,138.28)" d="M2.5,0A2.5,2.5 0 1,1 0,-2.5A2.5,2.5 0 0,1 2.5,0Z" style="opacity: 1; stroke: rgb(124, 242, 106); stroke-opacity: 1; stroke-width: 1px; fill: none;"/></g><g class="text"/></g><g class="trace scatter traceb51b50" style="stroke-miterlimit: 2; opacity: 1;"><g class="fills"/><g class="errorbars"/><g class="lines"><path class="js-line" d="M26.77,225.72L73.38,129.25L119.99,408.69L166.59,397.28L213.2,398.23L259.8,337.4L306.41,255.66L353.01,391.58L399.62,39.43L446.22,34.2" style="vector-effect: none; fill: none; stroke: rgb(177, 150, 232); stroke-opacity: 1; stroke-width: 2px; opacity: 1;"/></g><g class="points"><path class="point" transform="translate(26.77,225.72)" d="M2.5,0A2.5,2.5 0 1,1 0,-2.5A2.5,2.5 0 0,1 2.5,0Z" style="opacity: 1; stroke: rgb(177, 150, 232); stroke-opacity: 1; stroke-width: 1px; fill: none;"/><path class="point" transform="translate(73.38,129.25)" d="M2.5,0A2.5,2.5 0 1,1 0,-2.5A2.5,2.5 0 0,1 2.5,0Z" style="opacity: 1; stroke: rgb(177, 150, 232); stroke-opacity: 1; stroke-width: 1px; fill: none;"/><path class="point" transform="translate(119.99,408.69)" d="M2.5,0A2.5,2.5 0 1,1 0,-2.5A2.5,2.5 0 0,1 2.5,0Z" style="opacity: 1; stroke: rgb(177, 150, 232); stroke-opacity: 1; stroke-width: 1px; fill: none;"/><path class="point" transform="translate(166.59,397.28)" d="M2.5,0A2.5,2.5 0 1,1 0,-2.5A2.5,2.5 0 0,1 2.5,0Z" style="opacity: 1; stroke: rgb(177, 150, 232); stroke-opacity: 1; stroke-width: 1px; fill: none;"/><path class="point" transform="translate(213.2,398.23)" d="M2.5,0A2.5,2.5 0 1,1 0,-2.5A2.5,2.5 0 0,1 2.5,0Z" style="opacity: 1; stroke: rgb(177, 150, 232); stroke-opacity: 1; stroke-width: 1px; fill: none;"/><path class="point" transform="translate(259.8,337.4)" d="M2.5,0A2.5,2.5 0 1,1 0,-2.5A2.5,2.5 0 0,1 2.5,0Z" style="opacity: 1; stroke: rgb(177, 150, 232); stroke-opacity: 1; stroke-width: 1px; fill: none;"/><path class="point" transform="translate(306.41,255.66)" d="M2.5,0A2.5,2.5 0 1,1 0,-2.5A2.5,2.5 0 0,1 2.5,0Z" style="opacity: 1; stroke: rgb(177, 150, 232); stroke-opacity: 1; stroke-width: 1px; fill: none;"/><path class="point" transform="translate(353.01,391.58)" d="M2.5,0A2.5,2.5 0 1,1 0,-2.5A2.5,2.5 0 0,1 2.5,0Z" style="opacity: 1; stroke: rgb(177, 150, 232); stroke-opacity: 1; stroke-width: 1px; fill: none;"/><path class="point" transform="translate(399.62,39.43)" d="M2.5,0A2.5,2.5 0 1,1 0,-2.5A2.5,2.5 0 0,1 2.5,0Z" style="opacity: 1; stroke: rgb(177, 150, 232); stroke-opacity: 1; stroke-width: 1px; fill: none;"/><path class="point" transform="translate(446.22,34.2)" d="M2.5,0A2.5,2.5 0 1,1 0,-2.5A2.5,2.5 0 0,1 2.5,0Z" style="opacity: 1; stroke: rgb(177, 150, 232); stroke-opacity: 1; stroke-width: 1px; fill: none;"/></g><g class="text"/></g></g></g><g class="overplot"/><path class="xlines-above crisp" d="M0,0" style="fill: none;"/><path class="ylines-above crisp" d="M79.5,60V520" style="fill: none; stroke-width: 1px; stroke: rgb(255, 255, 255); stroke-opacity: 1;"/><g class="overlines-above"/><g class="xaxislayer-above"><g class="xtick"><text text-anchor="start" x="2.8" y="529" transform="translate(106.77,0) rotate(90,2.8,521)" style="font-family: sans-serif; font-size: 16px; fill: rgb(0, 0, 0); fill-opacity: 1; white-space: pre; opacity: 1;">Jan</text></g><g class="xtick"><text text-anchor="start" x="2.8" y="529" transform="translate(153.38,0) rotate(90,2.8,521)" style="font-family: sans-serif; font-size: 16px; fill: rgb(0, 0, 0); fill-opacity: 1; white-space: pre; opacity: 1;">Feb</text></g><g class="xtick"><text text-anchor="start" x="2.8" y="529" transform="translate(199.99,0) rotate(90,2.8,521)" style="font-family: sans-serif; font-size: 16px; fill: rgb(0, 0, 0); fill-opacity: 1; white-space: pre; opacity: 1;">Mar</text></g><g class="xtick"><text text-anchor="start" x="2.8" y="529" transform="translate(246.59,0) rotate(90,2.8,521)" style="font-family: sans-serif; font-size: 16px; fill: rgb(0, 0, 0); fill-opacity: 1; white-space: pre; opacity: 1;">Apr</text></g><g class="xtick"><text text-anchor="start" x="2.8" y="529" transform="translate(293.2,0) rotate(90,2.8,521)" style="font-family: sans-serif; font-size: 16px; fill: rgb(0, 0, 0); fill-opacity: 1; white-space: pre; opacity: 1;">May</text></g><g class="xtick"><text text-anchor="start" x="2.8" y="529" transform="translate(339.8,0) rotate(90,2.8,521)" style="font-family: sans-serif; font-size: 16px; fill: rgb(0, 0, 0); fill-opacity: 1; white-space: pre; opacity: 1;">June</text></g><g class="xtick"><text text-anchor="start" x="2.8" y="529" transform="translate(386.41,0) rotate(90,2.8,521)" style="font-family: sans-serif; font-size: 16px; fill: rgb(0, 0, 0); fill-opacity: 1; white-space: pre; opacity: 1;">July</text></g><g class="xtick"><text text-anchor="start" x="2.8" y="529" transform="translate(433.01,0) rotate(90,2.8,521)" style="font-family: sans-serif; font-size: 16px; fill: rgb(0, 0, 0); fill-opacity: 1; white-space: pre; opacity: 1;">Aug</text></g><g class="xtick"><text text-anchor="start" x="2.8" y="529" transform="translate(479.62,0) rotate(90,2.8,521)" style="font-family: sans-serif; font-size: 16px; fill: rgb(0, 0, 0); fill-opacity: 1; white-space: pre; opacity: 1;">Sep</text></g><g class="xtick"><text text-anchor="start" x="2.8" y="529" transform="translate(526.22,0) rotate(90,2.8,521)" style="font-family: sans-serif; font-size: 16px; fill: rgb(0, 0, 0); fill-opacity: 1; white-space: pre; opacity: 1;">Oct</text></g></g><g class="yaxislayer-above"><g class="ytick"><text text-anchor="end" x="75.8" y="5.6" transform="translate(0,511.46)" style="font-family: sans-serif; font-size: 16px; fill: rgb(0, 0, 0); fill-opacity: 1; white-space: pre; opacity: 1;">0</text></g><g class="ytick"><text text-anchor="end" x="75.8" y="5.6" style="font-family: sans-serif; font-size: 16px; fill: rgb(0, 0, 0); fill-opacity: 1; white-space: pre; opacity: 1;" transform="translate(0,463.94)">100</text></g><g class="ytick"><text text-anchor="end" x="75.8" y="5.6" style="font-family: sans-serif; font-size: 16px; fill: rgb(0, 0, 0); fill-opacity: 1; white-space: pre; opacity: 1;" transform="translate(0,416.41)">200</text></g><g class="ytick"><text text-anchor="end" x="75.8" y="5.6" style="font-family: sans-serif; font-size: 16px; fill: rgb(0, 0, 0); fill-opacity: 1; white-space: pre; opacity: 1;" transform="translate(0,368.89)">300</text></g><g class="ytick"><text text-anchor="end" x="75.8" y="5.6" style="font-family: sans-serif; font-size: 16px; fill: rgb(0, 0, 0); fill-opacity: 1; white-space: pre; opacity: 1;" transform="translate(0,321.37)">400</text></g><g class="ytick"><text text-anchor="end" x="75.8" y="5.6" style="font-family: sans-serif; font-size: 16px; fill: rgb(0, 0, 0); fill-opacity: 1; white-space: pre; opacity: 1;" transform="translate(0,273.84000000000003)">500</text></g><g class="ytick"><text text-anchor="end" x="75.8" y="5.6" style="font-family: sans-serif; font-size: 16px; fill: rgb(0, 0, 0); fill-opacity: 1; white-space: pre; opacity: 1;" transform="translate(0,226.32)">600</text></g><g class="ytick"><text text-anchor="end" x="75.8" y="5.6" style="font-family: sans-serif; font-size: 16px; fill: rgb(0, 0, 0); fill-opacity: 1; white-space: pre; opacity: 1;" transform="translate(0,178.8)">700</text></g><g class="ytick"><text text-anchor="end" x="75.8" y="5.6" style="font-family: sans-serif; font-size: 16px; fill: rgb(0, 0, 0); fill-opacity: 1; white-space: pre; opacity: 1;" transform="translate(0,131.26999999999998)">800</text></g><g class="ytick"><text text-anchor="end" x="75.8" y="5.6" style="font-family: sans-serif; font-size: 16px; fill: rgb(0, 0, 0); fill-opacity: 1; white-space: pre; opacity: 1;" transform="translate(0,83.75)">900</text></g></g><g class="overaxes-above"/></g></g><g class="polarlayer"/><g class="smithlayer"/><g class="ternarylayer"/><g class="geolayer"/><g class="funnelarealayer"/><g class="pielayer"/><g class="iciclelayer"/><g class="treemaplayer"/><g class="sunburstlayer"/><g class="glimages"/><defs id="topdefs-7c6f66"><g class="clips"/><clipPath id="legend7c6f66"><rect width="145" height="86" x="0" y="0"/></clipPath></defs><g class="layer-above"><g class="imagelayer"/><g class="shapelayer"/></g><g class="infolayer"><g class="legend" pointer-events="all" transform="translate(562.46,60)"><rect class="bg" shape-rendering="crispEdges" style="stroke: rgb(68, 68, 68); stroke-opacity: 1; fill: rgb(255, 255, 255); fill-opacity: 1; stroke-width: 0px;" width="145" height="86" x="0" y="0"/><g class="scrollbox" transform="" clip-path="url(#legend7c6f66)"><g class="groups" transform=""><g class="traces" transform="translate(0,14.5)" style="opacity: 1;"><text class="legendtext" text-anchor="start" x="40" y="4.680000000000001" style="font-family: sans-serif; font-size: 12px; fill: rgb(42, 63, 95); fill-opacity: 1; white-space: pre;">serve mission lose</text><g class="layers" style="opacity: 1;"><g class="legendfill"/><g class="legendlines"><path class="js-line" d="M5,0h30" style="fill: none; stroke: rgb(54, 36, 214); stroke-opacity: 1; stroke-width: 2px;"/></g><g class="legendsymbols"><g class="legendpoints"><path class="scatterpts" transform="translate(20,0)" d="M2.5,0A2.5,2.5 0 1,1 0,-2.5A2.5,2.5 0 0,1 2.5,0Z" style="opacity: 1; stroke: rgb(54, 36, 214); stroke-opacity: 1; stroke-width: 1px; fill: none;"/></g></g></g><rect class="legendtoggle" x="0" y="-9.5" width="139.03125" height="19" style="fill: rgb(0, 0, 0); fill-opacity: 0;"/></g></g><g class="groups" transform=""><g class="traces" transform="translate(0,33.5)" style="opacity: 1;"><text class="legendtext" text-anchor="start" x="40" y="4.680000000000001" style="font-family: sans-serif; font-size: 12px; fill: rgb(42, 63, 95); fill-opacity: 1; white-space: pre;">onto loss all</text><g class="layers" style="opacity: 1;"><g class="legendfill"/><g class="legendlines"><path class="js-line" d="M5,0h30" style="fill: none; stroke: rgb(247, 165, 206); stroke-opacity: 1; stroke-width: 2px;"/></g><g class="legendsymbols"><g class="legendpoints"><path class="scatterpts" transform="translate(20,0)" d="M2.5,0A2.5,2.5 0 1,1 0,-2.5A2.5,2.5 0 0,1 2.5,0Z" style="opacity: 1; stroke: rgb(247, 165, 206); stroke-opacity: 1; stroke-width: 1px; fill: none;"/></g></g></g><rect class="legendtoggle" x="0" y="-9.5" width="139.03125" height="19" style="fill: rgb(0, 0, 0); fill-opacity: 0;"/></g></g><g class="groups" transform=""><g class="traces" transform="translate(0,52.5)" style="opacity: 1;"><text class="legendtext" text-anchor="start" x="40" y="4.680000000000001" style="font-family: sans-serif; font-size: 12px; fill: rgb(42, 63, 95); fill-opacity: 1; white-space: pre;">father light thus</text><g class="layers" style="opacity: 1;"><g class="legendfill"/><g class="legendlines"><path class="js-line" d="M5,0h30" style="fill: none; stroke: rgb(124, 242, 106); stroke-opacity: 1; stroke-width: 2px;"/></g><g class="legendsymbols"><g class="legendpoints"><path class="scatterpts" transform="translate(20,0)" d="M2.5,0A2.5,2.5 0 1,1 0,-2.5A2.5,2.5 0 0,1 2.5,0Z" style="opacity: 1; stroke: rgb(124, 242, 106); stroke-opacity: 1; stroke-width: 1px; fill: none;"/></g></g></g><rect class="legendtoggle" x="0" y="-9.5" width="139.03125" height="19" style="fill: rgb(0, 0, 0); fill-opacity: 0;"/></g></g><g class="groups" transform=""><g class="traces" transform="translate(0,71.5)" style="opacity: 1;"><text class="legendtext" text-anchor="start" x="40" y="4.680000000000001" style="font-family: sans-serif; font-size: 12px; fill: rgb(42, 63, 95); fill-opacity: 1; white-space: pre;">age in low</text><g class="layers" style="opacity: 1;"><g class="legendfill"/><g class="legendlines"><path class="js-line" d="M5,0h30" style="fill: none; stroke: rgb(177, 150, 232); stroke-opacity: 1; stroke-width: 2px;"/></g><g class="legendsymbols"><g class="legendpoints"><path class="scatterpts" transform="translate(20,0)" d="M2.5,0A2.5,2.5 0 1,1 0,-2.5A2.5,2.5 0 0,1 2.5,0Z" style="opacity: 1; stroke: rgb(177, 150, 232); stroke-opacity: 1; stroke-width: 1px; fill: none;"/></g></g></g><rect class="legendtoggle" x="0" y="-9.5" width="139.03125" height="19" style="fill: rgb(0, 0, 0); fill-opacity: 0;"/></g></g></g><rect class="scrollbar" rx="20" ry="3" width="0" height="0" style="fill: rgb(128, 139, 164); fill-opacity: 1;" x="0" y="0"/></g><g class="g-gtitle"><text class="gtitle" x="359.5" y="30" text-anchor="start" dy="0em" style="font-family: sans-serif; font-size: 25px; fill: rgb(0, 0, 0); opacity: 1; font-weight: normal; white-space: pre;">believe sell sign</text></g><g class="g-xtitle"/><g class="g-ytitle"><text class="ytitle" transform="rotate(-90,24.793750000000003,290)" x="24.793750000000003" y="290" text-anchor="middle" style="font-family: sans-serif; font-size: 14px; fill: rgb(0, 0, 0); opacity: 1; font-weight: normal; white-space: pre;">far apply again</text></g></g></svg>