<svg class="main-svg" xmlns="http://www.w3.org/2000/svg" xmlns:xlink="http://www.w3.org/1999/xlink" width="522" height="600" style="" viewBox="0 0 522 600"><rect x="0" y="0" width="522" height="600" style="fill: rgb(255, 255, 255); fill-opacity: 1;"/><defs id="defs-951bee"><g class="clips"><clipPath id="clip951beexyplot" class="plotclip"><rect width="268" height="460"/></clipPath><clipPath class="axesclip" id="clip951beex"><rect x="80" y="0" width="268" height="600"/></clipPath><clipPath class="axesclip" id="clip951beey"><rect x="0" y="60" width="522" height="460"/></clipPath><clipPath class="axesclip" id="clip951beexy"><rect x="80" y="60" width="268" height="460"/></clipPath></g><g class="gradients"/><g class="patterns"/></defs><g class="bglayer"><rect class="bg" x="80" y="60" width="268" height="460" style="fill: rgb(255, 255, 255); fill-opacity: 1; stroke-width: 0;"/></g><g class="layer-below"><g class="imagelayer"/><g class="shapelayer"/></g><g class="cartesianlayer"><g class="subplot xy"><g class="layer-subplot"><g class="shapelayer"/><g class="imagelayer"/></g><g class="minor-gridlayer"><g class="x"/><g class="y"/></g><g class="gridlayer"><g class="x"/><g class="y"/></g><g class="zerolinelayer"/><path class="xlines-below"/><path class="ylines-below"/><g class="overlines-below"/><g class="xaxislayer-below"/><g class="yaxislayer-below"/><g class="overaxes-below"/><g class="plot" transform="translate(80,60)" clip-path="url(#clip951beexyplot)"><g class="scatterlayer mlayer"><g class="trace scatter tracee236e4" style="stroke-miterlimit: 2; opacity: 1;"><g class="fills"/><g class="errorbars"/><g class="lines"><path class="js-line" d="M17.15,109.67L46.36,188.27L75.58,273.88L104.79,54.21L134,239.96L163.21,410.64L192.43,37.52L221.64,377.79L250.85,433.25" style="vector-effect: none; fill: none; stroke: rgb(164, 219, 105); stroke-opacity: 1; stroke-width: 2px; opacity: 1;"/></g><g class="points"><path class="point" transform="translate(17.15,109.67)" d="M3,0A3,3 0 1,1 0,-3A3,3 0 0,1 3,0Z" style="opacity: 1; stroke: rgb(164, 219, 105); stroke-opacity: 1; stroke-width: 1px; fill: none;"/><path class="point" transform="translate(46.36,188.27)" d="M3,0A3,3 0 1,1 0,-3A3,3 0 0,1 3,0Z" style="opacity: 1; stroke: rgb(164, 219, 105); stroke-opacity: 1; stroke-width: 1px; fill: none;"/><path class="point" transform="translate(75.58,273.88)" d="M3,0A3,3 0 1,1 0,-3A3,3 0 0,1 3,0Z" style="opacity: 1; stroke: rgb(164, 219, 105); stroke-opacity: 1; stroke-width: 1px; fill: none;"/><path class="point" transform="translate(104.79,54.21)" d="M3,0A3,3 0 1,1 0,-3A3,3 0 0,1 3,0Z" style="opacity: 1; stroke: rgb(164, 219, 105); stroke-opacity: 1; stroke-width: 1px; fill: none;"/><path class="point" transform="translate(134,239.96)" d="M3,0A3,3 0 1,1 0,-3A3,3 0 0,1 3,0Z" style="opacity: 1; stroke: rgb(164, 219, 105); stroke-opacity: 1; stroke-width: 1px; fill: none;"/><path class="point" transform="translate(163.21,410.64)" d="M3,0A3,3 0 1,1 0,-3A3,3 0 0,1 3,0Z" style="opacity: 1; stroke: rgb(164, 219, 105); stroke-opacity: 1; stroke-width: 1px; fill: none;"/><path class="point" transform="translate(192.43,37.52)" d="M3,0A3,3 0 1,1 0,-3A3,3 0 0,1 3,0Z" style="opacity: 1; stroke: rgb(164, 219, 105); stroke-opacity: 1; stroke-width: 1px; fill: none;"/><path class="point" transform="translate(221.64,377.79)" d="M3,0A3,3 0 1,1 0,-3A3,3 0 0,1 3,0Z" style="opacity: 1; stroke: rgb(164, 219, 105); stroke-opacity: 1; stroke-width: 1px; fill: none;"/><path class="point" transform="translate(250.85,433.25)" d="M3,0A3,3 0 1,1 0,-3A3,3 0 0,1 3,0Z" style="opacity: 1; stroke: rgb(164, 219, 105); stroke-opacity: 1; stroke-width: 1px; fill: none;"/></g><g class="text"/></g><g class="trace scatter trace41679c" style="stroke-miterlimit: 2; opacity: 1;"><g class="fills"/><g class="errorbars"/><g class="lines"><path class="js-line" d="M17.15,297.57L46.36,356.8L75.58,258.27L104.79,418.71L134,26.75L163.21,91.9L192.43,168.35L221.64,122.59L250.85,257.19" style="vector-effect: none; fill: none; stroke: rgb(219, 146, 83); stroke-opacity: 1; stroke-width: 2px; opacity: 1;"/></g><g class="points"><path class="point" transform="translate(17.15,297.57)" d="M3,0A3,3 0 1,1 0,-3A3,3 0 0,1 3,0Z" style="opacity: 1; stroke: rgb(219, 146, 83); stroke-opacity: 1; stroke-width: 1px; fill: none;"/><path class="point" transform="translate(46.36,356.8)" d="M3,0A3,3 0 1,1 0,-3A3,3 0 0,1 3,0Z" style="opacity: 1; stroke: rgb(219, 146, 83); stroke-opacity: 1; stroke-width: 1px; fill: none;"/><path class="point" transform="translate(75.58,258.27)" d="M3,0A3,3 0 1,1 0,-3A3,3 0 0,1 3,0Z" style="opacity: 1; stroke: rgb(219, 146, 83); stroke-opacity: 1; stroke-width: 1px; fill: none;"/><path class="point" transform="translate(104.79,418.71)" d="M3,0A3,3 0 1,1 0,-3A3,3 0 0,1 3,0Z" style="opacity: 1; stroke: rgb(219, 146, 83); stroke-opacity: 1; stroke-width: 1px; fill: none;"/><path class="point" transform="translate(134,26.75)" d="M3,0A3,3 0 1,1 0,-3A3,3 0 0,1 3,0Z" style="opacity: 1; stroke: rgb(219, 146, 83); stroke-opacity: 1; stroke-width: 1px; fill: none;"/><path class="point" transform="translate(163.21,91.9)" d="M3,0A3,3 0 1,1 0,-3A3,3 0 0,1 3,0Z" style="opacity: 1; stroke: rgb(219, 146, 83); stroke-opacity: 1; stroke-width: 1px; fill: none;"/><path class="point" transform="translate(192.43,168.35)" d="M3,0A3,3 0 1,1 0,-3A3,3 0 0,1 3,0Z" style="opacity: 1; stroke: rgb(219, 146, 83); stroke-opacity: 1; stroke-width: 1px; fill: none;"/><path class="point" transform="translate(221.64,122.59)" d="M3,0A3,3 0 1,1 0,-3A3,3 0 0,1 3,0Z" style="opacity: 1; stroke: rgb(219, 146, 83); stroke-opacity: 1; stroke-width: 1px; fill: none;"/><path class="point" transform="translate(250.85,257.19)" d="M3,0A3,3 0 1,1 0,-3A3,3 0 0,1 3,0Z" style="opacity: 1; stroke: rgb(219, 146, 83); stroke-opacity: 1; stroke-width: 1px; fill: none;"/></g><g class="text"/></g></g></g><g class="overplot"/><path class="xlines-above crisp" d="M0,0" style="fill: none;"/><path class="ylines-above crisp" d="M0,0" style="fill: none;"/><g class="overlines-above"/><g class="xaxislayer-above"><g class="xtick"><text text-anchor="start" x="3.15" y="530" transform="translate(140.97,0) rotate(90,3.15,521)" style="font-family: serif; font-size: 18px; fill: rgb(0, 0, 0); fill-opacity: 1; white-space: pre; opacity: 1;">1975</text></g><g class="xtick"><text text-anchor="start" x="3.15" y="530" style="font-family: serif; font-size: 18px; fill: rgb(0, 0, 0); fill-opacity: 1; white-space: pre; opacity: 1;" transform="translate(214,0) rotate(90,3.15,521)">1980</text></g><g class="xtick"><text text-anchor="start" x="3.15" y="530" style="font-family: serif; font-size: 18px; fill: rgb(0, 0, 0); fill-opacity: 1; white-space: pre; opacity: 1;" transform="translate(287.03,0) rotate(90,3.15,521)">1985</text></g></g><g class="yaxislayer-above"><g class="ytick"><text text-anchor="end" x="79" y="6.3" transform="translate(0,507.79)" style="font-family: serif; font-size: 18px; fill: rgb(0, 0, 0); fill-opacity: 1; white-space: pre; opacity: 1;">100</text></g><g class="ytick"><text text-anchor="end" x="79" y="6.3" style="font-family: serif; font-size: 18px; fill: rgb(0, 0, 0); fill-opacity: 1; white-space: pre; opacity: 1;" transform="translate(0,453.95)">200</text></g><g class="ytick"><text text-anchor="end" x="79" y="6.3" style="font-family: serif; font-size: 18px; fill: rgb(0, 0, 0); fill-opacity: 1; white-space: pre; opacity: 1;" transform="translate(0,400.1)">300</text></g><g class="ytick"><text text-anchor="end" x="79" y="6.3" style="font-family: serif; font-size: 18px; fill: rgb(0, 0, 0); fill-opacity: 1; white-space: pre; opacity: 1;" transform="translate(0,346.26)">400</text></g><g class="ytick"><text text-anchor="end" x="79" y="6.3" style="font-family: serif; font-size: 18px; fill: rgb(0, 0, 0); fill-opacity: 1; white-space: pre; opacity: 1;" transform="translate(0,292.41999999999996)">500</text></g><g class="ytick"><text text-anchor="end" x="79" y="6.3" style="font-family: serif; font-size: 18px; fill: rgb(0, 0, 0); fill-opacity: 1; white-space: pre; opacity: 1;" transform="translate(0,238.58)">600</text></g><g class="ytick"><text text-anchor="end" x="79" y="6.3" style="font-family: serif; font-size: 18px; fill: rgb(0, 0, 0); fill-opacity: 1; white-space: pre; opacity: 1;" transform="translate(0,184.74)">700</text></g><g class="ytick"><text text-anchor="end" x="79" y="6.3" style="font-family: serif; font-size: 18px; fill: rgb(0, 0, 0); fill-opacity: 1; white-space: pre; opacity: 1;" transform="translate(0,130.9)">800</text></g><g class="ytick"><text text-anchor="end" x="79" y="6.3" style="font-family: serif; font-size: 18px; fill: rgb(0, 0, 0); fill-opacity: 1; white-space: pre; opacity: 1;" transform="translate(0,77.06)">900</text></g></g><g class="overaxes-above"/></g></g><g class="polarlayer"/><g class="smithlayer"/><g class="ternarylayer"/><g class="geolayer"/><g class="funnelarealayer"/><g class="pielayer"/><g class="iciclelayer"/><g class="treemaplayer"/><g class="sunburstlayer"/><g class="glimages"/><defs id="topdefs-951bee"><g class="clips"/><clipPath id="legend951bee"><rect width="157" height="67" x="0" y="0"/></clipPath></defs><g class="layer-above"><g class="imagelayer"/><g class="shapelayer"/></g><g class="infolayer"><g class="legend" pointer-events="all" transform="translate(353.36,60)"><rect class="bg" shape-rendering="crispEdges" style="stroke: rgb(68, 68, 68); stroke-opacity: 1; fill: rgb(255, 255, 255); fill-opacity: 1; stroke-width: 0px;" width="157" height="67" x="0" y="0"/><g class="scrollbox" transform="" clip-path="url(#legend951bee)"><text class="legendtitletext" text-anchor="start" x="2" y="18.2" style="font-family: serif; font-size: 14px; fill: rgb(42, 63, 95); fill-opacity: 1; white-space: pre;">account high they</text><g class="groups" transform=""><g class="traces" transform="translate(0,32.7)" style="opacity: 1;"><text class="legendtext" text-anchor="start" x="40" y="4.680000000000001" style="font-family: serif; font-size: 12px; fill: rgb(42, 63, 95); fill-opacity: 1; white-space: pre;">remain coach evidence</text><g class="layers" style="opacity: 1;"><g class="legendfill"/><g class="legendlines"><path class="js-line" d="M5,0h30" style="fill: none; stroke: rgb(164, 219, 105); stroke-opacity: 1; stroke-width: 2px;"/></g><g class="legendsymbols"><g class="legendpoints"><path class="scatterpts" transform="translate(20,0)" d="M3,0A3,3 0 1,1 0,-3A3,3 0 0,1 3,0Z" style="opacity: 1; stroke: rgb(164, 219, 105); stroke-opacity: 1; stroke-width: 1px; fill: none;"/></g></g></g><rect class="legendtoggle" x="0" y="-9.5" width="151.609375" height="19" style="fill: rgb(0, 0, 0); fill-opacity: 0;"/></g></g><g class="groups" transform=""><g class="traces" transform="translate(0,51.7)" style="opacity: 1;"><text class="legendtext" text-anchor="start" x="40" y="4.680000000000001" style="font-family: serif; font-size: 12px; fill: rgb(42, 63, 95); fill-opacity: 1; white-space: pre;">dream prove reveal</text><g class="layers" style="opacity: 1;"><g class="legendfill"/><g class="legendlines"><path class="js-line" d="M5,0h30" style="fill: none; stroke: rgb(219, 146, 83); stroke-opacity: 1; stroke-width: 2px;"/></g><g class="legendsymbols"><g class="legendpoints"><path class="scatterpts" transform="translate(20,0)" d="M3,0A3,3 0 1,1 0,-3A3,3 0 0,1 3,0Z" style="opacity: 1; stroke: rgb(219, 146, 83); stroke-opacity: 1; stroke-width: 1px; fill: none;"/></g></g></g><rect class="legendtoggle" x="0" y="-9.5" width="151.609375" height="19" style="fill: rgb(0, 0, 0); fill-opacity: 0;"/></g></g></g><rect class="scrollbar" rx="20" ry="3" width="0" height="0" style="fill: rgb(128, 139, 164); fill-opacity: 1;" x="0" y="0"/></g><g class="g-gtitle"><text class="gtitle" x="261" y="30" text-anchor="middle" dy="0em" style="font-family: serif; font-size: 25px; fill: rgb(0, 0, 0); opacity: 1; font-weight: normal; white-space: pre;">process role wear</text></g><g class="g-xtitle"/><g class="g-ytitle"/></g></svg>