<svg class="main-svg" xmlns="http://www.w3.org/2000/svg" xmlns:xlink="http://www.w3.org/1999/xlink" width="449" height="600" style="" viewBox="0 0 449 600"><rect x="0" y="0" width="449" height="600" style="fill: rgb(255, 255, 255); fill-opacity: 1;"/><defs id="defs-856a34"><g class="clips"><clipPath id="clip856a34xyplot" class="plotclip"><rect width="289" height="436"/></clipPath><clipPath class="axesclip" id="clip856a34x"><rect x="80" y="0" width="289" height="600"/></clipPath><clipPath class="axesclip" id="clip856a34y"><rect x="0" y="60" width="449" height="436"/></clipPath><clipPath class="axesclip" id="clip856a34xy"><rect x="80" y="60" width="289" height="436"/></clipPath></g><g class="gradients"/><g class="patterns"/></defs><g class="bglayer"><rect class="bg" x="80" y="60" width="289" height="436" style="fill: rgb(255, 255, 255); fill-opacity: 1; stroke-width: 0;"/></g><g class="layer-below"><g class="imagelayer"/><g class="shapelayer"/></g><g class="cartesianlayer"><g class="subplot xy"><g class="layer-subplot"><g class="shapelayer"/><g class="imagelayer"/></g><g class="minor-gridlayer"><g class="x"/><g class="y"/></g><g class="gridlayer"><g class="x"/><g class="y"><path class="ygrid crisp" transform="translate(0,433.8)" d="M80,0h289" style="stroke: rgb(208, 208, 208); stroke-opacity: 1; stroke-width: 1px;"/><path class="ygrid crisp" transform="translate(0,348.43)" d="M80,0h289" style="stroke: rgb(208, 208, 208); stroke-opacity: 1; stroke-width: 1px;"/><path class="ygrid crisp" transform="translate(0,263.06)" d="M80,0h289" style="stroke: rgb(208, 208, 208); stroke-opacity: 1; stroke-width: 1px;"/><path class="ygrid crisp" transform="translate(0,177.69)" d="M80,0h289" style="stroke: rgb(208, 208, 208); stroke-opacity: 1; stroke-width: 1px;"/><path class="ygrid crisp" transform="translate(0,92.32)" d="M80,0h289" style="stroke: rgb(208, 208, 208); stroke-opacity: 1; stroke-width: 1px;"/></g></g><g class="zerolinelayer"/><path class="xlines-below"/><path class="ylines-below"/><g class="overlines-below"/><g class="xaxislayer-below"/><g class="yaxislayer-below"/><g class="overaxes-below"/><g class="plot" transform="translate(80,60)" clip-path="url(#clip856a34xyplot)"><g class="scatterlayer mlayer"><g class="trace scatter trace8886f7" style="stroke-miterlimit: 2; opacity: 1;"><g class="fills"/><g class="errorbars"/><g class="lines"><path class="js-line" d="M20.7,194.52L45.46,326.85L70.22,361L94.98,117.69L119.74,245.75L144.5,309.77L169.26,194.52L194.02,117.69L218.78,275.63L243.54,250.01L268.3,407.95" style="vector-effect: none; fill: none; stroke: rgb(160, 75, 76); stroke-opacity: 1; stroke-width: 2px; opacity: 1;"/></g><g class="points"><path class="point" transform="translate(20.7,194.52)" d="M5,0A5,5 0 1,1 0,-5A5,5 0 0,1 5,0Z" style="opacity: 1; stroke: rgb(160, 75, 76); stroke-opacity: 1; stroke-width: 1px; fill: none;"/><path class="point" transform="translate(45.46,326.85)" d="M5,0A5,5 0 1,1 0,-5A5,5 0 0,1 5,0Z" style="opacity: 1; stroke: rgb(160, 75, 76); stroke-opacity: 1; stroke-width: 1px; fill: none;"/><path class="point" transform="translate(70.22,361)" d="M5,0A5,5 0 1,1 0,-5A5,5 0 0,1 5,0Z" style="opacity: 1; stroke: rgb(160, 75, 76); stroke-opacity: 1; stroke-width: 1px; fill: none;"/><path class="point" transform="translate(94.98,117.69)" d="M5,0A5,5 0 1,1 0,-5A5,5 0 0,1 5,0Z" style="opacity: 1; stroke: rgb(160, 75, 76); stroke-opacity: 1; stroke-width: 1px; fill: none;"/><path class="point" transform="translate(119.74,245.75)" d="M5,0A5,5 0 1,1 0,-5A5,5 0 0,1 5,0Z" style="opacity: 1; stroke: rgb(160, 75, 76); stroke-opacity: 1; stroke-width: 1px; fill: none;"/><path class="point" transform="translate(144.5,309.77)" d="M5,0A5,5 0 1,1 0,-5A5,5 0 0,1 5,0Z" style="opacity: 1; stroke: rgb(160, 75, 76); stroke-opacity: 1; stroke-width: 1px; fill: none;"/><path class="point" transform="translate(169.26,194.52)" d="M5,0A5,5 0 1,1 0,-5A5,5 0 0,1 5,0Z" style="opacity: 1; stroke: rgb(160, 75, 76); stroke-opacity: 1; stroke-width: 1px; fill: none;"/><path class="point" transform="translate(194.02,117.69)" d="M5,0A5,5 0 1,1 0,-5A5,5 0 0,1 5,0Z" style="opacity: 1; stroke: rgb(160, 75, 76); stroke-opacity: 1; stroke-width: 1px; fill: none;"/><path class="point" transform="translate(218.78,275.63)" d="M5,0A5,5 0 1,1 0,-5A5,5 0 0,1 5,0Z" style="opacity: 1; stroke: rgb(160, 75, 76); stroke-opacity: 1; stroke-width: 1px; fill: none;"/><path class="point" transform="translate(243.54,250.01)" d="M5,0A5,5 0 1,1 0,-5A5,5 0 0,1 5,0Z" style="opacity: 1; stroke: rgb(160, 75, 76); stroke-opacity: 1; stroke-width: 1px; fill: none;"/><path class="point" transform="translate(268.3,407.95)" d="M5,0A5,5 0 1,1 0,-5A5,5 0 0,1 5,0Z" style="opacity: 1; stroke: rgb(160, 75, 76); stroke-opacity: 1; stroke-width: 1px; fill: none;"/></g><g class="text"/></g><g class="trace scatter trace17deeb" style="stroke-miterlimit: 2; opacity: 1;"><g class="fills"/><g class="errorbars"/><g class="lines"><path class="js-line" d="M20.7,168.91L45.46,262.82L70.22,390.88L94.98,318.31L119.74,284.16L144.5,185.99L169.26,279.89L194.02,309.77L218.78,109.15L243.54,348.19L268.3,28.05" style="vector-effect: none; fill: none; stroke: rgb(122, 224, 232); stroke-opacity: 1; stroke-width: 2px; opacity: 1;"/></g><g class="points"><path class="point" transform="translate(20.7,168.91)" d="M5,0A5,5 0 1,1 0,-5A5,5 0 0,1 5,0Z" style="opacity: 1; stroke: rgb(122, 224, 232); stroke-opacity: 1; stroke-width: 1px; fill: none;"/><path class="point" transform="translate(45.46,262.82)" d="M5,0A5,5 0 1,1 0,-5A5,5 0 0,1 5,0Z" style="opacity: 1; stroke: rgb(122, 224, 232); stroke-opacity: 1; stroke-width: 1px; fill: none;"/><path class="point" transform="translate(70.22,390.88)" d="M5,0A5,5 0 1,1 0,-5A5,5 0 0,1 5,0Z" style="opacity: 1; stroke: rgb(122, 224, 232); stroke-opacity: 1; stroke-width: 1px; fill: none;"/><path class="point" transform="translate(94.98,318.31)" d="M5,0A5,5 0 1,1 0,-5A5,5 0 0,1 5,0Z" style="opacity: 1; stroke: rgb(122, 224, 232); stroke-opacity: 1; stroke-width: 1px; fill: none;"/><path class="point" transform="translate(119.74,284.16)" d="M5,0A5,5 0 1,1 0,-5A5,5 0 0,1 5,0Z" style="opacity: 1; stroke: rgb(122, 224, 232); stroke-opacity: 1; stroke-width: 1px; fill: none;"/><path class="point" transform="translate(144.5,185.99)" d="M5,0A5,5 0 1,1 0,-5A5,5 0 0,1 5,0Z" style="opacity: 1; stroke: rgb(122, 224, 232); stroke-opacity: 1; stroke-width: 1px; fill: none;"/><path class="point" transform="translate(169.26,279.89)" d="M5,0A5,5 0 1,1 0,-5A5,5 0 0,1 5,0Z" style="opacity: 1; stroke: rgb(122, 224, 232); stroke-opacity: 1; stroke-width: 1px; fill: none;"/><path class="point" transform="translate(194.02,309.77)" d="M5,0A5,5 0 1,1 0,-5A5,5 0 0,1 5,0Z" style="opacity: 1; stroke: rgb(122, 224, 232); stroke-opacity: 1; stroke-width: 1px; fill: none;"/><path class="point" transform="translate(218.78,109.15)" d="M5,0A5,5 0 1,1 0,-5A5,5 0 0,1 5,0Z" style="opacity: 1; stroke: rgb(122, 224, 232); stroke-opacity: 1; stroke-width: 1px; fill: none;"/><path class="point" transform="translate(243.54,348.19)" d="M5,0A5,5 0 1,1 0,-5A5,5 0 0,1 5,0Z" style="opacity: 1; stroke: rgb(122, 224, 232); stroke-opacity: 1; stroke-width: 1px; fill: none;"/><path class="point" transform="translate(268.3,28.05)" d="M5,0A5,5 0 1,1 0,-5A5,5 0 0,1 5,0Z" style="opacity: 1; stroke: rgb(122, 224, 232); stroke-opacity: 1; stroke-width: 1px; fill: none;"/></g><g class="text"/></g><g class="trace scatter trace8ba0d8" style="stroke-miterlimit: 2; opacity: 1;"><g class="fills"/><g class="errorbars"/><g class="lines"><path class="js-line" d="M20.7,92.08L45.46,228.67L70.22,284.16L94.98,390.88L119.74,66.47L144.5,160.37L169.26,168.91L194.02,292.7L218.78,126.23L243.54,339.65L268.3,109.15" style="vector-effect: none; fill: none; stroke: rgb(242, 200, 111); stroke-opacity: 1; stroke-width: 2px; opacity: 1;"/></g><g class="points"><path class="point" transform="translate(20.7,92.08)" d="M5,0A5,5 0 1,1 0,-5A5,5 0 0,1 5,0Z" style="opacity: 1; stroke: rgb(242, 200, 111); stroke-opacity: 1; stroke-width: 1px; fill: none;"/><path class="point" transform="translate(45.46,228.67)" d="M5,0A5,5 0 1,1 0,-5A5,5 0 0,1 5,0Z" style="opacity: 1; stroke: rgb(242, 200, 111); stroke-opacity: 1; stroke-width: 1px; fill: none;"/><path class="point" transform="translate(70.22,284.16)" d="M5,0A5,5 0 1,1 0,-5A5,5 0 0,1 5,0Z" style="opacity: 1; stroke: rgb(242, 200, 111); stroke-opacity: 1; stroke-width: 1px; fill: none;"/><path class="point" transform="translate(94.98,390.88)" d="M5,0A5,5 0 1,1 0,-5A5,5 0 0,1 5,0Z" style="opacity: 1; stroke: rgb(242, 200, 111); stroke-opacity: 1; stroke-width: 1px; fill: none;"/><path class="point" transform="translate(119.74,66.47)" d="M5,0A5,5 0 1,1 0,-5A5,5 0 0,1 5,0Z" style="opacity: 1; stroke: rgb(242, 200, 111); stroke-opacity: 1; stroke-width: 1px; fill: none;"/><path class="point" transform="translate(144.5,160.37)" d="M5,0A5,5 0 1,1 0,-5A5,5 0 0,1 5,0Z" style="opacity: 1; stroke: rgb(242, 200, 111); stroke-opacity: 1; stroke-width: 1px; fill: none;"/><path class="point" transform="translate(169.26,168.91)" d="M5,0A5,5 0 1,1 0,-5A5,5 0 0,1 5,0Z" style="opacity: 1; stroke: rgb(242, 200, 111); stroke-opacity: 1; stroke-width: 1px; fill: none;"/><path class="point" transform="translate(194.02,292.7)" d="M5,0A5,5 0 1,1 0,-5A5,5 0 0,1 5,0Z" style="opacity: 1; stroke: rgb(242, 200, 111); stroke-opacity: 1; stroke-width: 1px; fill: none;"/><path class="point" transform="translate(218.78,126.23)" d="M5,0A5,5 0 1,1 0,-5A5,5 0 0,1 5,0Z" style="opacity: 1; stroke: rgb(242, 200, 111); stroke-opacity: 1; stroke-width: 1px; fill: none;"/><path class="point" transform="translate(243.54,339.65)" d="M5,0A5,5 0 1,1 0,-5A5,5 0 0,1 5,0Z" style="opacity: 1; stroke: rgb(242, 200, 111); stroke-opacity: 1; stroke-width: 1px; fill: none;"/><path class="point" transform="translate(268.3,109.15)" d="M5,0A5,5 0 1,1 0,-5A5,5 0 0,1 5,0Z" style="opacity: 1; stroke: rgb(242, 200, 111); stroke-opacity: 1; stroke-width: 1px; fill: none;"/></g><g class="text"/></g></g></g><g class="overplot"/><path class="xlines-above crisp" d="M0,0" style="fill: none;"/><path class="ylines-above crisp" d="M79.5,60V496" style="fill: none; stroke-width: 1px; stroke: rgb(255, 255, 255); stroke-opacity: 1;"/><g class="overlines-above"/><g class="xaxislayer-above"><g class="xtick"><text text-anchor="start" x="0" y="513" transform="translate(100.7,0) rotate(45,0,505)" style="font-family: avenir; font-size: 16px; fill: rgb(0, 0, 0); fill-opacity: 1; white-space: pre; opacity: 1;">Jan</text></g><g class="xtick"><text text-anchor="start" x="0" y="513" transform="translate(125.46000000000001,0) rotate(45,0,505)" style="font-family: avenir; font-size: 16px; fill: rgb(0, 0, 0); fill-opacity: 1; white-space: pre; opacity: 1;">Feb</text></g><g class="xtick"><text text-anchor="start" x="0" y="513" transform="translate(150.22,0) rotate(45,0,505)" style="font-family: avenir; font-size: 16px; fill: rgb(0, 0, 0); fill-opacity: 1; white-space: pre; opacity: 1;">Mar</text></g><g class="xtick"><text text-anchor="start" x="0" y="513" transform="translate(174.98000000000002,0) rotate(45,0,505)" style="font-family: avenir; font-size: 16px; fill: rgb(0, 0, 0); fill-opacity: 1; white-space: pre; opacity: 1;">Apr</text></g><g class="xtick"><text text-anchor="start" x="0" y="513" transform="translate(199.74,0) rotate(45,0,505)" style="font-family: avenir; font-size: 16px; fill: rgb(0, 0, 0); fill-opacity: 1; white-space: pre; opacity: 1;">May</text></g><g class="xtick"><text text-anchor="start" x="0" y="513" transform="translate(224.5,0) rotate(45,0,505)" style="font-family: avenir; font-size: 16px; fill: rgb(0, 0, 0); fill-opacity: 1; white-space: pre; opacity: 1;">June</text></g><g class="xtick"><text text-anchor="start" x="0" y="513" transform="translate(249.26,0) rotate(45,0,505)" style="font-family: avenir; font-size: 16px; fill: rgb(0, 0, 0); fill-opacity: 1; white-space: pre; opacity: 1;">July</text></g><g class="xtick"><text text-anchor="start" x="0" y="513" transform="translate(274.02,0) rotate(45,0,505)" style="font-family: avenir; font-size: 16px; fill: rgb(0, 0, 0); fill-opacity: 1; white-space: pre; opacity: 1;">Aug</text></g><g class="xtick"><text text-anchor="start" x="0" y="513" transform="translate(298.78,0) rotate(45,0,505)" style="font-family: avenir; font-size: 16px; fill: rgb(0, 0, 0); fill-opacity: 1; white-space: pre; opacity: 1;">Sep</text></g><g class="xtick"><text text-anchor="start" x="0" y="513" transform="translate(323.53999999999996,0) rotate(45,0,505)" style="font-family: avenir; font-size: 16px; fill: rgb(0, 0, 0); fill-opacity: 1; white-space: pre; opacity: 1;">Oct</text></g><g class="xtick"><text text-anchor="start" x="0" y="513" transform="translate(348.3,0) rotate(45,0,505)" style="font-family: avenir; font-size: 16px; fill: rgb(0, 0, 0); fill-opacity: 1; white-space: pre; opacity: 1;">Nov</text></g></g><g class="yaxislayer-above"><g class="ytick"><text text-anchor="end" x="75.8" y="5.6" transform="translate(0,433.8)" style="font-family: avenir; font-size: 16px; fill: rgb(0, 0, 0); fill-opacity: 1; white-space: pre; opacity: 1;">20</text></g><g class="ytick"><text text-anchor="end" x="75.8" y="5.6" style="font-family: avenir; font-size: 16px; fill: rgb(0, 0, 0); fill-opacity: 1; white-space: pre; opacity: 1;" transform="translate(0,348.43)">40</text></g><g class="ytick"><text text-anchor="end" x="75.8" y="5.6" style="font-family: avenir; font-size: 16px; fill: rgb(0, 0, 0); fill-opacity: 1; white-space: pre; opacity: 1;" transform="translate(0,263.06)">60</text></g><g class="ytick"><text text-anchor="end" x="75.8" y="5.6" style="font-family: avenir; font-size: 16px; fill: rgb(0, 0, 0); fill-opacity: 1; white-space: pre; opacity: 1;" transform="translate(0,177.69)">80</text></g><g class="ytick"><text text-anchor="end" x="75.8" y="5.6" style="font-family: avenir; font-size: 16px; fill: rgb(0, 0, 0); fill-opacity: 1; white-space: pre; opacity: 1;" transform="translate(0,92.32)">100</text></g></g><g class="overaxes-above"/></g></g><g class="polarlayer"/><g class="smithlayer"/><g class="ternarylayer"/><g class="geolayer"/><g class="funnelarealayer"/><g class="pielayer"/><g class="iciclelayer"/><g class="treemaplayer"/><g class="sunburstlayer"/><g class="glimages"/><defs id="topdefs-856a34"><g class="clips"/><clipPath id="legend856a34"><rect width="406" height="48" x="0" y="0"/></clipPath></defs><g class="layer-above"><g class="imagelayer"/><g class="shapelayer"/></g><g class="infolayer"><g class="legend" pointer-events="all" transform="translate(43,539.6)"><rect class="bg" shape-rendering="crispEdges" style="stroke: rgb(68, 68, 68); stroke-opacity: 1; fill: rgb(255, 255, 255); fill-opacity: 1; stroke-width: 0px;" width="406" height="48" x="0" y="0"/><g class="scrollbox" transform="" clip-path="url(#legend856a34)"><text class="legendtitletext" text-anchor="start" x="2" y="18.2" style="font-family: avenir; font-size: 14px; fill: rgb(42, 63, 95); fill-opacity: 1; white-space: pre;">down natural exactly</text><g class="groups" transform=""><g class="traces" transform="translate(127.40625,14.5)" style="opacity: 1;"><text class="legendtext" text-anchor="start" x="40" y="4.680000000000001" style="font-family: avenir; font-size: 12px; fill: rgb(42, 63, 95); fill-opacity: 1; white-space: pre;">move base ready</text><g class="layers" style="opacity: 1;"><g class="legendfill"/><g class="legendlines"><path class="js-line" d="M5,0h30" style="fill: none; stroke: rgb(160, 75, 76); stroke-opacity: 1; stroke-width: 2px;"/></g><g class="legendsymbols"><g class="legendpoints"><path class="scatterpts" transform="translate(20,0)" d="M5,0A5,5 0 1,1 0,-5A5,5 0 0,1 5,0Z" style="opacity: 1; stroke: rgb(160, 75, 76); stroke-opacity: 1; stroke-width: 1px; fill: none;"/></g></g></g><rect class="legendtoggle" x="0" y="-9.5" width="125.140625" height="19" style="fill: rgb(0, 0, 0); fill-opacity: 0;"/></g></g><g class="groups" transform="translate(127.640625,0)"><g class="traces" transform="translate(127.40625,14.5)" style="opacity: 1;"><text class="legendtext" text-anchor="start" x="40" y="4.680000000000001" style="font-family: avenir; font-size: 12px; fill: rgb(42, 63, 95); fill-opacity: 1; white-space: pre;">box although become</text><g class="layers" style="opacity: 1;"><g class="legendfill"/><g class="legendlines"><path class="js-line" d="M5,0h30" style="fill: none; stroke: rgb(122, 224, 232); stroke-opacity: 1; stroke-width: 2px;"/></g><g class="legendsymbols"><g class="legendpoints"><path class="scatterpts" transform="translate(20,0)" d="M5,0A5,5 0 1,1 0,-5A5,5 0 0,1 5,0Z" style="opacity: 1; stroke: rgb(122, 224, 232); stroke-opacity: 1; stroke-width: 1px; fill: none;"/></g></g></g><rect class="legendtoggle" x="0" y="-9.5" width="147.484375" height="19" style="fill: rgb(0, 0, 0); fill-opacity: 0;"/></g></g><g class="groups" transform="translate(0,19)"><g class="traces" transform="translate(127.40625,14.5)" style="opacity: 1;"><text class="legendtext" text-anchor="start" x="40" y="4.680000000000001" style="font-family: avenir; font-size: 12px; fill: rgb(42, 63, 95); fill-opacity: 1; white-space: pre;">manage arrive use</text><g class="layers" style="opacity: 1;"><g class="legendfill"/><g class="legendlines"><path class="js-line" d="M5,0h30" style="fill: none; stroke: rgb(242, 200, 111); stroke-opacity: 1; stroke-width: 2px;"/></g><g class="legendsymbols"><g class="legendpoints"><path class="scatterpts" transform="translate(20,0)" d="M5,0A5,5 0 1,1 0,-5A5,5 0 0,1 5,0Z" style="opacity: 1; stroke: rgb(242, 200, 111); stroke-opacity: 1; stroke-width: 1px; fill: none;"/></g></g></g><rect class="legendtoggle" x="0" y="-9.5" width="131.46875" height="19" style="fill: rgb(0, 0, 0); fill-opacity: 0;"/></g></g></g><rect class="scrollbar" rx="20" ry="3" width="0" height="0" style="fill: rgb(128, 139, 164); fill-opacity: 1;" x="0" y="0"/></g><g class="g-gtitle"><text class="gtitle" x="224.5" y="30" text-anchor="start" dy="0em" style="font-family: avenir; font-size: 25px; fill: rgb(0, 0, 0); opacity: 1; font-weight: normal; white-space: pre;">owner laugh I</text></g><g class="g-xtitle"/><g class="g-ytitle"><text class="ytitle" transform="rotate(-90,27.496875000000003,278)" x="27.496875000000003" y="278" text-anchor="middle" style="font-family: avenir; font-size: 14px; fill: rgb(0, 0, 0); opacity: 1; font-weight: normal; white-space: pre;">southern may modern</text></g></g></svg>