<svg class="main-svg" xmlns="http://www.w3.org/2000/svg" xmlns:xlink="http://www.w3.org/1999/xlink" width="400" height="600" style="" viewBox="0 0 400 600"><rect x="0" y="0" width="400" height="600" style="fill: rgb(255, 255, 255); fill-opacity: 1;"/><defs id="defs-eccab1"><g class="clips"><clipPath id="clipeccab1xyplot" class="plotclip"><rect width="240" height="436"/></clipPath><clipPath class="axesclip" id="clipeccab1x"><rect x="80" y="0" width="240" height="600"/></clipPath><clipPath class="axesclip" id="clipeccab1y"><rect x="0" y="60" width="400" height="436"/></clipPath><clipPath class="axesclip" id="clipeccab1xy"><rect x="80" y="60" width="240" height="436"/></clipPath></g><g class="gradients"/><g class="patterns"/></defs><g class="bglayer"><rect class="bg" x="80" y="60" width="240" height="436" style="fill: rgb(51, 51, 51); fill-opacity: 1; stroke-width: 0;"/></g><g class="layer-below"><g class="imagelayer"/><g class="shapelayer"/></g><g class="cartesianlayer"><g class="subplot xy"><g class="layer-subplot"><g class="shapelayer"/><g class="imagelayer"/></g><g class="minor-gridlayer"><g class="x"/><g class="y"/></g><g class="gridlayer"><g class="x"/><g class="y"/></g><g class="zerolinelayer"><path class="yzl zl crisp" transform="translate(0,488.29)" d="M80,0h240" style="stroke: rgb(255, 255, 255); stroke-opacity: 1; stroke-width: 2px;"/></g><path class="xlines-below"/><path class="ylines-below"/><g class="overlines-below"/><g class="xaxislayer-below"/><g class="yaxislayer-below"/><g class="overaxes-below"/><g class="plot" transform="translate(80,60)" clip-path="url(#clipeccab1xyplot)"><g class="scatterlayer mlayer"><g class="trace scatter trace11862c" style="stroke-miterlimit: 2; opacity: 1;"><g class="fills"/><g class="errorbars"/><g class="lines"><path class="js-line" d="M17,119.86L35.73,332.24L54.45,183.1L73.18,372.21L91.91,248.72L110.64,391.3L129.36,310.77L148.09,409.2L166.82,390.11L185.55,320.91L204.27,289.29L223,297.05" style="vector-effect: none; fill: none; stroke: rgb(252, 211, 30); stroke-opacity: 1; stroke-width: 2px; opacity: 1;"/></g><g class="points"><path class="point" transform="translate(17,119.86)" d="M4,0A4,4 0 1,1 0,-4A4,4 0 0,1 4,0Z" style="opacity: 1; stroke: rgb(252, 211, 30); stroke-opacity: 1; stroke-width: 1px; fill: none;"/><path class="point" transform="translate(35.73,332.24)" d="M4,0A4,4 0 1,1 0,-4A4,4 0 0,1 4,0Z" style="opacity: 1; stroke: rgb(252, 211, 30); stroke-opacity: 1; stroke-width: 1px; fill: none;"/><path class="point" transform="translate(54.45,183.1)" d="M4,0A4,4 0 1,1 0,-4A4,4 0 0,1 4,0Z" style="opacity: 1; stroke: rgb(252, 211, 30); stroke-opacity: 1; stroke-width: 1px; fill: none;"/><path class="point" transform="translate(73.18,372.21)" d="M4,0A4,4 0 1,1 0,-4A4,4 0 0,1 4,0Z" style="opacity: 1; stroke: rgb(252, 211, 30); stroke-opacity: 1; stroke-width: 1px; fill: none;"/><path class="point" transform="translate(91.91,248.72)" d="M4,0A4,4 0 1,1 0,-4A4,4 0 0,1 4,0Z" style="opacity: 1; stroke: rgb(252, 211, 30); stroke-opacity: 1; stroke-width: 1px; fill: none;"/><path class="point" transform="translate(110.64,391.3)" d="M4,0A4,4 0 1,1 0,-4A4,4 0 0,1 4,0Z" style="opacity: 1; stroke: rgb(252, 211, 30); stroke-opacity: 1; stroke-width: 1px; fill: none;"/><path class="point" transform="translate(129.36,310.77)" d="M4,0A4,4 0 1,1 0,-4A4,4 0 0,1 4,0Z" style="opacity: 1; stroke: rgb(252, 211, 30); stroke-opacity: 1; stroke-width: 1px; fill: none;"/><path class="point" transform="translate(148.09,409.2)" d="M4,0A4,4 0 1,1 0,-4A4,4 0 0,1 4,0Z" style="opacity: 1; stroke: rgb(252, 211, 30); stroke-opacity: 1; stroke-width: 1px; fill: none;"/><path class="point" transform="translate(166.82,390.11)" d="M4,0A4,4 0 1,1 0,-4A4,4 0 0,1 4,0Z" style="opacity: 1; stroke: rgb(252, 211, 30); stroke-opacity: 1; stroke-width: 1px; fill: none;"/><path class="point" transform="translate(185.55,320.91)" d="M4,0A4,4 0 1,1 0,-4A4,4 0 0,1 4,0Z" style="opacity: 1; stroke: rgb(252, 211, 30); stroke-opacity: 1; stroke-width: 1px; fill: none;"/><path class="point" transform="translate(204.27,289.29)" d="M4,0A4,4 0 1,1 0,-4A4,4 0 0,1 4,0Z" style="opacity: 1; stroke: rgb(252, 211, 30); stroke-opacity: 1; stroke-width: 1px; fill: none;"/><path class="point" transform="translate(223,297.05)" d="M4,0A4,4 0 1,1 0,-4A4,4 0 0,1 4,0Z" style="opacity: 1; stroke: rgb(252, 211, 30); stroke-opacity: 1; stroke-width: 1px; fill: none;"/></g><g class="text"/></g><g class="trace scatter trace643c56" style="stroke-miterlimit: 2; opacity: 1;"><g class="fills"/><g class="errorbars"/><g class="lines"><path class="js-line" d="M17,26.8L35.73,147.31L54.45,81.68L73.18,404.43L91.91,57.82L110.64,235L129.36,128.22L148.09,172.36L166.82,135.97L185.55,294.06L204.27,219.49L223,243.35" style="vector-effect: none; fill: none; stroke: rgb(168, 255, 140); stroke-opacity: 1; stroke-width: 2px; opacity: 1;"/></g><g class="points"><path class="point" transform="translate(17,26.8)" d="M4,0A4,4 0 1,1 0,-4A4,4 0 0,1 4,0Z" style="opacity: 1; stroke: rgb(168, 255, 140); stroke-opacity: 1; stroke-width: 1px; fill: none;"/><path class="point" transform="translate(35.73,147.31)" d="M4,0A4,4 0 1,1 0,-4A4,4 0 0,1 4,0Z" style="opacity: 1; stroke: rgb(168, 255, 140); stroke-opacity: 1; stroke-width: 1px; fill: none;"/><path class="point" transform="translate(54.45,81.68)" d="M4,0A4,4 0 1,1 0,-4A4,4 0 0,1 4,0Z" style="opacity: 1; stroke: rgb(168, 255, 140); stroke-opacity: 1; stroke-width: 1px; fill: none;"/><path class="point" transform="translate(73.18,404.43)" d="M4,0A4,4 0 1,1 0,-4A4,4 0 0,1 4,0Z" style="opacity: 1; stroke: rgb(168, 255, 140); stroke-opacity: 1; stroke-width: 1px; fill: none;"/><path class="point" transform="translate(91.91,57.82)" d="M4,0A4,4 0 1,1 0,-4A4,4 0 0,1 4,0Z" style="opacity: 1; stroke: rgb(168, 255, 140); stroke-opacity: 1; stroke-width: 1px; fill: none;"/><path class="point" transform="translate(110.64,235)" d="M4,0A4,4 0 1,1 0,-4A4,4 0 0,1 4,0Z" style="opacity: 1; stroke: rgb(168, 255, 140); stroke-opacity: 1; stroke-width: 1px; fill: none;"/><path class="point" transform="translate(129.36,128.22)" d="M4,0A4,4 0 1,1 0,-4A4,4 0 0,1 4,0Z" style="opacity: 1; stroke: rgb(168, 255, 140); stroke-opacity: 1; stroke-width: 1px; fill: none;"/><path class="point" transform="translate(148.09,172.36)" d="M4,0A4,4 0 1,1 0,-4A4,4 0 0,1 4,0Z" style="opacity: 1; stroke: rgb(168, 255, 140); stroke-opacity: 1; stroke-width: 1px; fill: none;"/><path class="point" transform="translate(166.82,135.97)" d="M4,0A4,4 0 1,1 0,-4A4,4 0 0,1 4,0Z" style="opacity: 1; stroke: rgb(168, 255, 140); stroke-opacity: 1; stroke-width: 1px; fill: none;"/><path class="point" transform="translate(185.55,294.06)" d="M4,0A4,4 0 1,1 0,-4A4,4 0 0,1 4,0Z" style="opacity: 1; stroke: rgb(168, 255, 140); stroke-opacity: 1; stroke-width: 1px; fill: none;"/><path class="point" transform="translate(204.27,219.49)" d="M4,0A4,4 0 1,1 0,-4A4,4 0 0,1 4,0Z" style="opacity: 1; stroke: rgb(168, 255, 140); stroke-opacity: 1; stroke-width: 1px; fill: none;"/><path class="point" transform="translate(223,243.35)" d="M4,0A4,4 0 1,1 0,-4A4,4 0 0,1 4,0Z" style="opacity: 1; stroke: rgb(168, 255, 140); stroke-opacity: 1; stroke-width: 1px; fill: none;"/></g><g class="text"/></g></g></g><g class="overplot"/><path class="xlines-above crisp" d="M0,0" style="fill: none;"/><path class="ylines-above crisp" d="M79.5,60V496" style="fill: none; stroke-width: 1px; stroke: rgb(255, 255, 255); stroke-opacity: 1;"/><g class="overlines-above"/><g class="xaxislayer-above"><g class="xtick"><text text-anchor="start" x="0" y="513" transform="translate(97,0) rotate(45,0,505)" style="font-family: avenir; font-size: 16px; fill: rgb(0, 0, 0); fill-opacity: 1; white-space: pre; opacity: 1;">1760</text></g><g class="xtick"><text text-anchor="start" x="0" y="513" style="font-family: avenir; font-size: 16px; fill: rgb(0, 0, 0); fill-opacity: 1; white-space: pre; opacity: 1;" transform="translate(190.64,0) rotate(45,0,505)">1770</text></g><g class="xtick"><text text-anchor="start" x="0" y="513" style="font-family: avenir; font-size: 16px; fill: rgb(0, 0, 0); fill-opacity: 1; white-space: pre; opacity: 1;" transform="translate(284.27,0) rotate(45,0,505)">1780</text></g></g><g class="yaxislayer-above"><g class="ytick"><text text-anchor="end" x="75.8" y="5.6" transform="translate(0,488.29)" style="font-family: avenir; font-size: 16px; fill: rgb(0, 0, 0); fill-opacity: 1; white-space: pre; opacity: 1;">0</text></g><g class="ytick"><text text-anchor="end" x="75.8" y="5.6" style="font-family: avenir; font-size: 16px; fill: rgb(0, 0, 0); fill-opacity: 1; white-space: pre; opacity: 1;" transform="translate(0,428.63)">100</text></g><g class="ytick"><text text-anchor="end" x="75.8" y="5.6" style="font-family: avenir; font-size: 16px; fill: rgb(0, 0, 0); fill-opacity: 1; white-space: pre; opacity: 1;" transform="translate(0,368.98)">200</text></g><g class="ytick"><text text-anchor="end" x="75.8" y="5.6" style="font-family: avenir; font-size: 16px; fill: rgb(0, 0, 0); fill-opacity: 1; white-space: pre; opacity: 1;" transform="translate(0,309.32)">300</text></g><g class="ytick"><text text-anchor="end" x="75.8" y="5.6" style="font-family: avenir; font-size: 16px; fill: rgb(0, 0, 0); fill-opacity: 1; white-space: pre; opacity: 1;" transform="translate(0,249.66)">400</text></g><g class="ytick"><text text-anchor="end" x="75.8" y="5.6" style="font-family: avenir; font-size: 16px; fill: rgb(0, 0, 0); fill-opacity: 1; white-space: pre; opacity: 1;" transform="translate(0,190.01)">500</text></g><g class="ytick"><text text-anchor="end" x="75.8" y="5.6" style="font-family: avenir; font-size: 16px; fill: rgb(0, 0, 0); fill-opacity: 1; white-space: pre; opacity: 1;" transform="translate(0,130.35)">600</text></g><g class="ytick"><text text-anchor="end" x="75.8" y="5.6" style="font-family: avenir; font-size: 16px; fill: rgb(0, 0, 0); fill-opacity: 1; white-space: pre; opacity: 1;" transform="translate(0,70.69)">700</text></g></g><g class="overaxes-above"/></g></g><g class="polarlayer"/><g class="smithlayer"/><g class="ternarylayer"/><g class="geolayer"/><g class="funnelarealayer"/><g class="pielayer"/><g class="iciclelayer"/><g class="treemaplayer"/><g class="sunburstlayer"/><g class="glimages"/><defs id="topdefs-eccab1"><g class="clips"/><clipPath id="legendeccab1"><rect width="278" height="48" x="0" y="0"/></clipPath></defs><g class="layer-above"><g class="imagelayer"/><g class="shapelayer"/></g><g class="infolayer"><g class="legend" pointer-events="all" transform="translate(80,539.6)"><rect class="bg" shape-rendering="crispEdges" style="stroke: rgb(68, 68, 68); stroke-opacity: 1; fill: rgb(255, 255, 255); fill-opacity: 1; stroke-width: 0px;" width="278" height="48" x="0" y="0"/><g class="scrollbox" transform="" clip-path="url(#legendeccab1)"><text class="legendtitletext" text-anchor="start" x="2" y="18.2" style="font-family: avenir; font-size: 14px; fill: rgb(42, 63, 95); fill-opacity: 1; white-space: pre;">board scene music</text><g class="groups" transform=""><g class="traces" transform="translate(115.203125,14.5)" style="opacity: 1;"><text class="legendtext" text-anchor="start" x="40" y="4.680000000000001" style="font-family: avenir; font-size: 12px; fill: rgb(42, 63, 95); fill-opacity: 1; white-space: pre;">business anyone agency</text><g class="layers" style="opacity: 1;"><g class="legendfill"/><g class="legendlines"><path class="js-line" d="M5,0h30" style="fill: none; stroke: rgb(252, 211, 30); stroke-opacity: 1; stroke-width: 2px;"/></g><g class="legendsymbols"><g class="legendpoints"><path class="scatterpts" transform="translate(20,0)" d="M4,0A4,4 0 1,1 0,-4A4,4 0 0,1 4,0Z" style="opacity: 1; stroke: rgb(252, 211, 30); stroke-opacity: 1; stroke-width: 1px; fill: none;"/></g></g></g><rect class="legendtoggle" x="0" y="-9.5" width="159.8125" height="19" style="fill: rgb(0, 0, 0); fill-opacity: 0;"/></g></g><g class="groups" transform="translate(0,19)"><g class="traces" transform="translate(115.203125,14.5)" style="opacity: 1;"><text class="legendtext" text-anchor="start" x="40" y="4.680000000000001" style="font-family: avenir; font-size: 12px; fill: rgb(42, 63, 95); fill-opacity: 1; white-space: pre;">outside every anyone</text><g class="layers" style="opacity: 1;"><g class="legendfill"/><g class="legendlines"><path class="js-line" d="M5,0h30" style="fill: none; stroke: rgb(168, 255, 140); stroke-opacity: 1; stroke-width: 2px;"/></g><g class="legendsymbols"><g class="legendpoints"><path class="scatterpts" transform="translate(20,0)" d="M4,0A4,4 0 1,1 0,-4A4,4 0 0,1 4,0Z" style="opacity: 1; stroke: rgb(168, 255, 140); stroke-opacity: 1; stroke-width: 1px; fill: none;"/></g></g></g><rect class="legendtoggle" x="0" y="-9.5" width="145.140625" height="19" style="fill: rgb(0, 0, 0); fill-opacity: 0;"/></g></g></g><rect class="scrollbar" rx="20" ry="3" width="0" height="0" style="fill: rgb(128, 139, 164); fill-opacity: 1;" x="0" y="0"/></g><g class="g-gtitle"><text class="gtitle" x="200" y="30" text-anchor="middle" dy="0em" style="font-family: avenir; font-size: 25px; fill: rgb(0, 0, 0); opacity: 1; font-weight: normal; white-space: pre;">table her character</text></g><g class="g-xtitle"><text class="xtitle" x="200" y="559.7052734375" text-anchor="middle" style="font-family: avenir; font-size: 14px; fill: rgb(0, 0, 0); opacity: 1; font-weight: normal; white-space: pre;">Year</text></g><g class="g-ytitle"/></g></svg>