<svg class="main-svg" xmlns="http://www.w3.org/2000/svg" xmlns:xlink="http://www.w3.org/1999/xlink" width="601" height="600" style="" viewBox="0 0 601 600"><rect x="0" y="0" width="601" height="600" style="fill: rgb(255, 255, 255); fill-opacity: 1;"/><defs id="defs-85dce7"><g class="clips"><clipPath id="clip85dce7xyplot" class="plotclip"><rect width="441" height="436"/></clipPath><clipPath class="axesclip" id="clip85dce7x"><rect x="80" y="0" width="441" height="600"/></clipPath><clipPath class="axesclip" id="clip85dce7y"><rect x="0" y="60" width="601" height="436"/></clipPath><clipPath class="axesclip" id="clip85dce7xy"><rect x="80" y="60" width="441" height="436"/></clipPath></g><g class="gradients"/><g class="patterns"/></defs><g class="bglayer"><rect class="bg" x="80" y="60" width="441" height="436" style="fill: rgb(255, 255, 255); fill-opacity: 1; stroke-width: 0;"/></g><g class="layer-below"><g class="imagelayer"/><g class="shapelayer"/></g><g class="cartesianlayer"><g class="subplot xy"><g class="layer-subplot"><g class="shapelayer"/><g class="imagelayer"/></g><g class="minor-gridlayer"><g class="x"/><g class="y"/></g><g class="gridlayer"><g class="x"/><g class="y"/></g><g class="zerolinelayer"><path class="yzl zl crisp" transform="translate(0,486.5)" d="M80,0h441" style="stroke: rgb(255, 255, 255); stroke-opacity: 1; stroke-width: 2px;"/></g><path class="xlines-below"/><path class="ylines-below"/><g class="overlines-below"/><g class="xaxislayer-below"/><g class="yaxislayer-below"/><g class="overaxes-below"/><g class="plot" transform="translate(80,60)" clip-path="url(#clip85dce7xyplot)"><g class="scatterlayer mlayer"><g class="trace scatter tracee58dc8" style="stroke-miterlimit: 2; opacity: 1;"><g class="fills"/><g class="errorbars"/><g class="lines"><path class="js-line" d="M25.05,304.08L60.59,369.12L96.12,265.82L131.66,181.66L167.2,307.9L202.73,338.51L238.27,89.84L273.8,101.31L309.34,181.66L344.88,101.31L380.41,43.93L415.95,28.63" style="vector-effect: none; fill: none; stroke: rgb(103, 229, 193); stroke-opacity: 1; stroke-width: 2px; opacity: 1;"/></g><g class="points"><path class="point" transform="translate(25.05,304.08)" d="M1,0A1,1 0 1,1 0,-1A1,1 0 0,1 1,0Z" style="opacity: 1; stroke: rgb(103, 229, 193); stroke-opacity: 1; stroke-width: 1px; fill: none;"/><path class="point" transform="translate(60.59,369.12)" d="M1,0A1,1 0 1,1 0,-1A1,1 0 0,1 1,0Z" style="opacity: 1; stroke: rgb(103, 229, 193); stroke-opacity: 1; stroke-width: 1px; fill: none;"/><path class="point" transform="translate(96.12,265.82)" d="M1,0A1,1 0 1,1 0,-1A1,1 0 0,1 1,0Z" style="opacity: 1; stroke: rgb(103, 229, 193); stroke-opacity: 1; stroke-width: 1px; fill: none;"/><path class="point" transform="translate(131.66,181.66)" d="M1,0A1,1 0 1,1 0,-1A1,1 0 0,1 1,0Z" style="opacity: 1; stroke: rgb(103, 229, 193); stroke-opacity: 1; stroke-width: 1px; fill: none;"/><path class="point" transform="translate(167.2,307.9)" d="M1,0A1,1 0 1,1 0,-1A1,1 0 0,1 1,0Z" style="opacity: 1; stroke: rgb(103, 229, 193); stroke-opacity: 1; stroke-width: 1px; fill: none;"/><path class="point" transform="translate(202.73,338.51)" d="M1,0A1,1 0 1,1 0,-1A1,1 0 0,1 1,0Z" style="opacity: 1; stroke: rgb(103, 229, 193); stroke-opacity: 1; stroke-width: 1px; fill: none;"/><path class="point" transform="translate(238.27,89.84)" d="M1,0A1,1 0 1,1 0,-1A1,1 0 0,1 1,0Z" style="opacity: 1; stroke: rgb(103, 229, 193); stroke-opacity: 1; stroke-width: 1px; fill: none;"/><path class="point" transform="translate(273.8,101.31)" d="M1,0A1,1 0 1,1 0,-1A1,1 0 0,1 1,0Z" style="opacity: 1; stroke: rgb(103, 229, 193); stroke-opacity: 1; stroke-width: 1px; fill: none;"/><path class="point" transform="translate(309.34,181.66)" d="M1,0A1,1 0 1,1 0,-1A1,1 0 0,1 1,0Z" style="opacity: 1; stroke: rgb(103, 229, 193); stroke-opacity: 1; stroke-width: 1px; fill: none;"/><path class="point" transform="translate(344.88,101.31)" d="M1,0A1,1 0 1,1 0,-1A1,1 0 0,1 1,0Z" style="opacity: 1; stroke: rgb(103, 229, 193); stroke-opacity: 1; stroke-width: 1px; fill: none;"/><path class="point" transform="translate(380.41,43.93)" d="M1,0A1,1 0 1,1 0,-1A1,1 0 0,1 1,0Z" style="opacity: 1; stroke: rgb(103, 229, 193); stroke-opacity: 1; stroke-width: 1px; fill: none;"/><path class="point" transform="translate(415.95,28.63)" d="M1,0A1,1 0 1,1 0,-1A1,1 0 0,1 1,0Z" style="opacity: 1; stroke: rgb(103, 229, 193); stroke-opacity: 1; stroke-width: 1px; fill: none;"/></g><g class="text"/></g><g class="trace scatter traceced7a3" style="stroke-miterlimit: 2; opacity: 1;"><g class="fills"/><g class="errorbars"/><g class="lines"><path class="js-line" d="M25.05,24.8L60.59,170.18L96.12,288.78L131.66,70.71L167.2,105.14L202.73,265.82L238.27,82.19L273.8,193.13L309.34,300.25L344.88,353.81L380.41,212.26L415.95,319.38" style="vector-effect: none; fill: none; stroke: rgb(82, 234, 127); stroke-opacity: 1; stroke-width: 2px; opacity: 1;"/></g><g class="points"><path class="point" transform="translate(25.05,24.8)" d="M1,0A1,1 0 1,1 0,-1A1,1 0 0,1 1,0Z" style="opacity: 1; stroke: rgb(82, 234, 127); stroke-opacity: 1; stroke-width: 1px; fill: none;"/><path class="point" transform="translate(60.59,170.18)" d="M1,0A1,1 0 1,1 0,-1A1,1 0 0,1 1,0Z" style="opacity: 1; stroke: rgb(82, 234, 127); stroke-opacity: 1; stroke-width: 1px; fill: none;"/><path class="point" transform="translate(96.12,288.78)" d="M1,0A1,1 0 1,1 0,-1A1,1 0 0,1 1,0Z" style="opacity: 1; stroke: rgb(82, 234, 127); stroke-opacity: 1; stroke-width: 1px; fill: none;"/><path class="point" transform="translate(131.66,70.71)" d="M1,0A1,1 0 1,1 0,-1A1,1 0 0,1 1,0Z" style="opacity: 1; stroke: rgb(82, 234, 127); stroke-opacity: 1; stroke-width: 1px; fill: none;"/><path class="point" transform="translate(167.2,105.14)" d="M1,0A1,1 0 1,1 0,-1A1,1 0 0,1 1,0Z" style="opacity: 1; stroke: rgb(82, 234, 127); stroke-opacity: 1; stroke-width: 1px; fill: none;"/><path class="point" transform="translate(202.73,265.82)" d="M1,0A1,1 0 1,1 0,-1A1,1 0 0,1 1,0Z" style="opacity: 1; stroke: rgb(82, 234, 127); stroke-opacity: 1; stroke-width: 1px; fill: none;"/><path class="point" transform="translate(238.27,82.19)" d="M1,0A1,1 0 1,1 0,-1A1,1 0 0,1 1,0Z" style="opacity: 1; stroke: rgb(82, 234, 127); stroke-opacity: 1; stroke-width: 1px; fill: none;"/><path class="point" transform="translate(273.8,193.13)" d="M1,0A1,1 0 1,1 0,-1A1,1 0 0,1 1,0Z" style="opacity: 1; stroke: rgb(82, 234, 127); stroke-opacity: 1; stroke-width: 1px; fill: none;"/><path class="point" transform="translate(309.34,300.25)" d="M1,0A1,1 0 1,1 0,-1A1,1 0 0,1 1,0Z" style="opacity: 1; stroke: rgb(82, 234, 127); stroke-opacity: 1; stroke-width: 1px; fill: none;"/><path class="point" transform="translate(344.88,353.81)" d="M1,0A1,1 0 1,1 0,-1A1,1 0 0,1 1,0Z" style="opacity: 1; stroke: rgb(82, 234, 127); stroke-opacity: 1; stroke-width: 1px; fill: none;"/><path class="point" transform="translate(380.41,212.26)" d="M1,0A1,1 0 1,1 0,-1A1,1 0 0,1 1,0Z" style="opacity: 1; stroke: rgb(82, 234, 127); stroke-opacity: 1; stroke-width: 1px; fill: none;"/><path class="point" transform="translate(415.95,319.38)" d="M1,0A1,1 0 1,1 0,-1A1,1 0 0,1 1,0Z" style="opacity: 1; stroke: rgb(82, 234, 127); stroke-opacity: 1; stroke-width: 1px; fill: none;"/></g><g class="text"/></g><g class="trace scatter trace18b07e" style="stroke-miterlimit: 2; opacity: 1;"><g class="fills"/><g class="errorbars"/><g class="lines"><path class="js-line" d="M25.05,304.08L60.59,74.53L96.12,281.12L131.66,411.2L167.2,384.42L202.73,204.61L238.27,392.07L273.8,47.75L309.34,349.99L344.88,208.44L380.41,204.61L415.95,277.3" style="vector-effect: none; fill: none; stroke: rgb(119, 234, 177); stroke-opacity: 1; stroke-width: 2px; opacity: 1;"/></g><g class="points"><path class="point" transform="translate(25.05,304.08)" d="M1,0A1,1 0 1,1 0,-1A1,1 0 0,1 1,0Z" style="opacity: 1; stroke: rgb(119, 234, 177); stroke-opacity: 1; stroke-width: 1px; fill: none;"/><path class="point" transform="translate(60.59,74.53)" d="M1,0A1,1 0 1,1 0,-1A1,1 0 0,1 1,0Z" style="opacity: 1; stroke: rgb(119, 234, 177); stroke-opacity: 1; stroke-width: 1px; fill: none;"/><path class="point" transform="translate(96.12,281.12)" d="M1,0A1,1 0 1,1 0,-1A1,1 0 0,1 1,0Z" style="opacity: 1; stroke: rgb(119, 234, 177); stroke-opacity: 1; stroke-width: 1px; fill: none;"/><path class="point" transform="translate(131.66,411.2)" d="M1,0A1,1 0 1,1 0,-1A1,1 0 0,1 1,0Z" style="opacity: 1; stroke: rgb(119, 234, 177); stroke-opacity: 1; stroke-width: 1px; fill: none;"/><path class="point" transform="translate(167.2,384.42)" d="M1,0A1,1 0 1,1 0,-1A1,1 0 0,1 1,0Z" style="opacity: 1; stroke: rgb(119, 234, 177); stroke-opacity: 1; stroke-width: 1px; fill: none;"/><path class="point" transform="translate(202.73,204.61)" d="M1,0A1,1 0 1,1 0,-1A1,1 0 0,1 1,0Z" style="opacity: 1; stroke: rgb(119, 234, 177); stroke-opacity: 1; stroke-width: 1px; fill: none;"/><path class="point" transform="translate(238.27,392.07)" d="M1,0A1,1 0 1,1 0,-1A1,1 0 0,1 1,0Z" style="opacity: 1; stroke: rgb(119, 234, 177); stroke-opacity: 1; stroke-width: 1px; fill: none;"/><path class="point" transform="translate(273.8,47.75)" d="M1,0A1,1 0 1,1 0,-1A1,1 0 0,1 1,0Z" style="opacity: 1; stroke: rgb(119, 234, 177); stroke-opacity: 1; stroke-width: 1px; fill: none;"/><path class="point" transform="translate(309.34,349.99)" d="M1,0A1,1 0 1,1 0,-1A1,1 0 0,1 1,0Z" style="opacity: 1; stroke: rgb(119, 234, 177); stroke-opacity: 1; stroke-width: 1px; fill: none;"/><path class="point" transform="translate(344.88,208.44)" d="M1,0A1,1 0 1,1 0,-1A1,1 0 0,1 1,0Z" style="opacity: 1; stroke: rgb(119, 234, 177); stroke-opacity: 1; stroke-width: 1px; fill: none;"/><path class="point" transform="translate(380.41,204.61)" d="M1,0A1,1 0 1,1 0,-1A1,1 0 0,1 1,0Z" style="opacity: 1; stroke: rgb(119, 234, 177); stroke-opacity: 1; stroke-width: 1px; fill: none;"/><path class="point" transform="translate(415.95,277.3)" d="M1,0A1,1 0 1,1 0,-1A1,1 0 0,1 1,0Z" style="opacity: 1; stroke: rgb(119, 234, 177); stroke-opacity: 1; stroke-width: 1px; fill: none;"/></g><g class="text"/></g><g class="trace scatter tracebe1dfc" style="stroke-miterlimit: 2; opacity: 1;"><g class="fills"/><g class="errorbars"/><g class="lines"><path class="js-line" d="M25.05,154.88L60.59,330.86L96.12,151.05L131.66,97.49L167.2,307.9L202.73,304.08L238.27,395.9L273.8,219.91L309.34,269.65L344.88,334.69L380.41,296.43L415.95,342.34" style="vector-effect: none; fill: none; stroke: rgb(183, 141, 56); stroke-opacity: 1; stroke-width: 2px; opacity: 1;"/></g><g class="points"><path class="point" transform="translate(25.05,154.88)" d="M1,0A1,1 0 1,1 0,-1A1,1 0 0,1 1,0Z" style="opacity: 1; stroke: rgb(183, 141, 56); stroke-opacity: 1; stroke-width: 1px; fill: none;"/><path class="point" transform="translate(60.59,330.86)" d="M1,0A1,1 0 1,1 0,-1A1,1 0 0,1 1,0Z" style="opacity: 1; stroke: rgb(183, 141, 56); stroke-opacity: 1; stroke-width: 1px; fill: none;"/><path class="point" transform="translate(96.12,151.05)" d="M1,0A1,1 0 1,1 0,-1A1,1 0 0,1 1,0Z" style="opacity: 1; stroke: rgb(183, 141, 56); stroke-opacity: 1; stroke-width: 1px; fill: none;"/><path class="point" transform="translate(131.66,97.49)" d="M1,0A1,1 0 1,1 0,-1A1,1 0 0,1 1,0Z" style="opacity: 1; stroke: rgb(183, 141, 56); stroke-opacity: 1; stroke-width: 1px; fill: none;"/><path class="point" transform="translate(167.2,307.9)" d="M1,0A1,1 0 1,1 0,-1A1,1 0 0,1 1,0Z" style="opacity: 1; stroke: rgb(183, 141, 56); stroke-opacity: 1; stroke-width: 1px; fill: none;"/><path class="point" transform="translate(202.73,304.08)" d="M1,0A1,1 0 1,1 0,-1A1,1 0 0,1 1,0Z" style="opacity: 1; stroke: rgb(183, 141, 56); stroke-opacity: 1; stroke-width: 1px; fill: none;"/><path class="point" transform="translate(238.27,395.9)" d="M1,0A1,1 0 1,1 0,-1A1,1 0 0,1 1,0Z" style="opacity: 1; stroke: rgb(183, 141, 56); stroke-opacity: 1; stroke-width: 1px; fill: none;"/><path class="point" transform="translate(273.8,219.91)" d="M1,0A1,1 0 1,1 0,-1A1,1 0 0,1 1,0Z" style="opacity: 1; stroke: rgb(183, 141, 56); stroke-opacity: 1; stroke-width: 1px; fill: none;"/><path class="point" transform="translate(309.34,269.65)" d="M1,0A1,1 0 1,1 0,-1A1,1 0 0,1 1,0Z" style="opacity: 1; stroke: rgb(183, 141, 56); stroke-opacity: 1; stroke-width: 1px; fill: none;"/><path class="point" transform="translate(344.88,334.69)" d="M1,0A1,1 0 1,1 0,-1A1,1 0 0,1 1,0Z" style="opacity: 1; stroke: rgb(183, 141, 56); stroke-opacity: 1; stroke-width: 1px; fill: none;"/><path class="point" transform="translate(380.41,296.43)" d="M1,0A1,1 0 1,1 0,-1A1,1 0 0,1 1,0Z" style="opacity: 1; stroke: rgb(183, 141, 56); stroke-opacity: 1; stroke-width: 1px; fill: none;"/><path class="point" transform="translate(415.95,342.34)" d="M1,0A1,1 0 1,1 0,-1A1,1 0 0,1 1,0Z" style="opacity: 1; stroke: rgb(183, 141, 56); stroke-opacity: 1; stroke-width: 1px; fill: none;"/></g><g class="text"/></g></g></g><g class="overplot"/><path class="xlines-above crisp" d="M0,0" style="fill: none;"/><path class="ylines-above crisp" d="M79.5,60V496" style="fill: none; stroke-width: 1px; stroke: rgb(255, 255, 255); stroke-opacity: 1;"/><g class="overlines-above"/><g class="xaxislayer-above"><g class="xtick"><text text-anchor="start" x="0" y="513" transform="translate(105.05,0) rotate(45,0,505)" style="font-family: Balto; font-size: 16px; fill: rgb(0, 0, 0); fill-opacity: 1; white-space: pre; opacity: 1;">Jan</text></g><g class="xtick"><text text-anchor="start" x="0" y="513" transform="translate(140.59,0) rotate(45,0,505)" style="font-family: Balto; font-size: 16px; fill: rgb(0, 0, 0); fill-opacity: 1; white-space: pre; opacity: 1;">Feb</text></g><g class="xtick"><text text-anchor="start" x="0" y="513" transform="translate(176.12,0) rotate(45,0,505)" style="font-family: Balto; font-size: 16px; fill: rgb(0, 0, 0); fill-opacity: 1; white-space: pre; opacity: 1;">Mar</text></g><g class="xtick"><text text-anchor="start" x="0" y="513" transform="translate(211.66,0) rotate(45,0,505)" style="font-family: Balto; font-size: 16px; fill: rgb(0, 0, 0); fill-opacity: 1; white-space: pre; opacity: 1;">Apr</text></g><g class="xtick"><text text-anchor="start" x="0" y="513" transform="translate(247.2,0) rotate(45,0,505)" style="font-family: Balto; font-size: 16px; fill: rgb(0, 0, 0); fill-opacity: 1; white-space: pre; opacity: 1;">May</text></g><g class="xtick"><text text-anchor="start" x="0" y="513" transform="translate(282.73,0) rotate(45,0,505)" style="font-family: Balto; font-size: 16px; fill: rgb(0, 0, 0); fill-opacity: 1; white-space: pre; opacity: 1;">June</text></g><g class="xtick"><text text-anchor="start" x="0" y="513" transform="translate(318.27,0) rotate(45,0,505)" style="font-family: Balto; font-size: 16px; fill: rgb(0, 0, 0); fill-opacity: 1; white-space: pre; opacity: 1;">July</text></g><g class="xtick"><text text-anchor="start" x="0" y="513" transform="translate(353.8,0) rotate(45,0,505)" style="font-family: Balto; font-size: 16px; fill: rgb(0, 0, 0); fill-opacity: 1; white-space: pre; opacity: 1;">Aug</text></g><g class="xtick"><text text-anchor="start" x="0" y="513" transform="translate(389.34,0) rotate(45,0,505)" style="font-family: Balto; font-size: 16px; fill: rgb(0, 0, 0); fill-opacity: 1; white-space: pre; opacity: 1;">Sep</text></g><g class="xtick"><text text-anchor="start" x="0" y="513" transform="translate(424.88,0) rotate(45,0,505)" style="font-family: Balto; font-size: 16px; fill: rgb(0, 0, 0); fill-opacity: 1; white-space: pre; opacity: 1;">Oct</text></g><g class="xtick"><text text-anchor="start" x="0" y="513" transform="translate(460.41,0) rotate(45,0,505)" style="font-family: Balto; font-size: 16px; fill: rgb(0, 0, 0); fill-opacity: 1; white-space: pre; opacity: 1;">Nov</text></g><g class="xtick"><text text-anchor="start" x="0" y="513" transform="translate(495.95,0) rotate(45,0,505)" style="font-family: Balto; font-size: 16px; fill: rgb(0, 0, 0); fill-opacity: 1; white-space: pre; opacity: 1;">Dec</text></g></g><g class="yaxislayer-above"><g class="ytick"><text text-anchor="end" x="75.8" y="5.6" transform="translate(0,486.5)" style="font-family: Balto; font-size: 16px; fill: rgb(0, 0, 0); fill-opacity: 1; white-space: pre; opacity: 1;">0</text></g><g class="ytick"><text text-anchor="end" x="75.8" y="5.6" style="font-family: Balto; font-size: 16px; fill: rgb(0, 0, 0); fill-opacity: 1; white-space: pre; opacity: 1;" transform="translate(0,409.99)">20</text></g><g class="ytick"><text text-anchor="end" x="75.8" y="5.6" style="font-family: Balto; font-size: 16px; fill: rgb(0, 0, 0); fill-opacity: 1; white-space: pre; opacity: 1;" transform="translate(0,333.47)">40</text></g><g class="ytick"><text text-anchor="end" x="75.8" y="5.6" style="font-family: Balto; font-size: 16px; fill: rgb(0, 0, 0); fill-opacity: 1; white-space: pre; opacity: 1;" transform="translate(0,256.96000000000004)">60</text></g><g class="ytick"><text text-anchor="end" x="75.8" y="5.6" style="font-family: Balto; font-size: 16px; fill: rgb(0, 0, 0); fill-opacity: 1; white-space: pre; opacity: 1;" transform="translate(0,180.44)">80</text></g><g class="ytick"><text text-anchor="end" x="75.8" y="5.6" style="font-family: Balto; font-size: 16px; fill: rgb(0, 0, 0); fill-opacity: 1; white-space: pre; opacity: 1;" transform="translate(0,103.93)">100</text></g></g><g class="overaxes-above"/></g></g><g class="polarlayer"/><g class="smithlayer"/><g class="ternarylayer"/><g class="geolayer"/><g class="funnelarealayer"/><g class="pielayer"/><g class="iciclelayer"/><g class="treemaplayer"/><g class="sunburstlayer"/><g class="glimages"/><defs id="topdefs-85dce7"><g class="clips"/><clipPath id="legend85dce7"><rect width="402" height="48" x="0" y="0"/></clipPath></defs><g class="layer-above"><g class="imagelayer"/><g class="shapelayer"/></g><g class="infolayer"><g class="legend" pointer-events="all" transform="translate(80,539.6)"><rect class="bg" shape-rendering="crispEdges" style="stroke: rgb(68, 68, 68); stroke-opacity: 1; fill: rgb(255, 255, 255); fill-opacity: 1; stroke-width: 0px;" width="402" height="48" x="0" y="0"/><g class="scrollbox" transform="" clip-path="url(#legend85dce7)"><g class="groups" transform=""><g class="traces" transform="translate(0,14.5)" style="opacity: 1;"><text class="legendtext" text-anchor="start" x="40" y="4.680000000000001" style="font-family: Balto; font-size: 12px; fill: rgb(42, 63, 95); fill-opacity: 1; white-space: pre;">other line house</text><g class="layers" style="opacity: 1;"><g class="legendfill"/><g class="legendlines"><path class="js-line" d="M5,0h30" style="fill: none; stroke: rgb(103, 229, 193); stroke-opacity: 1; stroke-width: 2px;"/></g><g class="legendsymbols"><g class="legendpoints"><path class="scatterpts" transform="translate(20,0)" d="M1,0A1,1 0 1,1 0,-1A1,1 0 0,1 1,0Z" style="opacity: 1; stroke: rgb(103, 229, 193); stroke-opacity: 1; stroke-width: 1px; fill: none;"/></g></g></g><rect class="legendtoggle" x="0" y="-9.5" width="119.828125" height="19" style="fill: rgb(0, 0, 0); fill-opacity: 0;"/></g></g><g class="groups" transform="translate(122.328125,0)"><g class="traces" transform="translate(0,14.5)" style="opacity: 1;"><text class="legendtext" text-anchor="start" x="40" y="4.680000000000001" style="font-family: Balto; font-size: 12px; fill: rgb(42, 63, 95); fill-opacity: 1; white-space: pre;">recognize force attention</text><g class="layers" style="opacity: 1;"><g class="legendfill"/><g class="legendlines"><path class="js-line" d="M5,0h30" style="fill: none; stroke: rgb(82, 234, 127); stroke-opacity: 1; stroke-width: 2px;"/></g><g class="legendsymbols"><g class="legendpoints"><path class="scatterpts" transform="translate(20,0)" d="M1,0A1,1 0 1,1 0,-1A1,1 0 0,1 1,0Z" style="opacity: 1; stroke: rgb(82, 234, 127); stroke-opacity: 1; stroke-width: 1px; fill: none;"/></g></g></g><rect class="legendtoggle" x="0" y="-9.5" width="163.78125" height="19" style="fill: rgb(0, 0, 0); fill-opacity: 0;"/></g></g><g class="groups" transform="translate(288.609375,0)"><g class="traces" transform="translate(0,14.5)" style="opacity: 1;"><text class="legendtext" text-anchor="start" x="40" y="4.680000000000001" style="font-family: Balto; font-size: 12px; fill: rgb(42, 63, 95); fill-opacity: 1; white-space: pre;">six one happy</text><g class="layers" style="opacity: 1;"><g class="legendfill"/><g class="legendlines"><path class="js-line" d="M5,0h30" style="fill: none; stroke: rgb(119, 234, 177); stroke-opacity: 1; stroke-width: 2px;"/></g><g class="legendsymbols"><g class="legendpoints"><path class="scatterpts" transform="translate(20,0)" d="M1,0A1,1 0 1,1 0,-1A1,1 0 0,1 1,0Z" style="opacity: 1; stroke: rgb(119, 234, 177); stroke-opacity: 1; stroke-width: 1px; fill: none;"/></g></g></g><rect class="legendtoggle" x="0" y="-9.5" width="110.15625" height="19" style="fill: rgb(0, 0, 0); fill-opacity: 0;"/></g></g><g class="groups" transform="translate(0,19)"><g class="traces" transform="translate(0,14.5)" style="opacity: 1;"><text class="legendtext" text-anchor="start" x="40" y="4.680000000000001" style="font-family: Balto; font-size: 12px; fill: rgb(42, 63, 95); fill-opacity: 1; white-space: pre;">ahead thus strong</text><g class="layers" style="opacity: 1;"><g class="legendfill"/><g class="legendlines"><path class="js-line" d="M5,0h30" style="fill: none; stroke: rgb(183, 141, 56); stroke-opacity: 1; stroke-width: 2px;"/></g><g class="legendsymbols"><g class="legendpoints"><path class="scatterpts" transform="translate(20,0)" d="M1,0A1,1 0 1,1 0,-1A1,1 0 0,1 1,0Z" style="opacity: 1; stroke: rgb(183, 141, 56); stroke-opacity: 1; stroke-width: 1px; fill: none;"/></g></g></g><rect class="legendtoggle" x="0" y="-9.5" width="127.484375" height="19" style="fill: rgb(0, 0, 0); fill-opacity: 0;"/></g></g></g><rect class="scrollbar" rx="20" ry="3" width="0" height="0" style="fill: rgb(128, 139, 164); fill-opacity: 1;" x="0" y="0"/></g><g class="g-gtitle"><text class="gtitle" x="300.5" y="30" text-anchor="middle" dy="0em" style="font-family: Balto; font-size: 25px; fill: rgb(0, 0, 0); opacity: 1; font-weight: normal; white-space: pre;">in there actually</text></g><g class="g-xtitle"/><g class="g-ytitle"><text class="ytitle" transform="rotate(-90,27.496875000000003,278)" x="27.496875000000003" y="278" text-anchor="middle" style="font-family: Balto; font-size: 14px; fill: rgb(0, 0, 0); opacity: 1; font-weight: normal; white-space: pre;">Republican cup offer</text></g></g></svg>