<svg class="main-svg" xmlns="http://www.w3.org/2000/svg" xmlns:xlink="http://www.w3.org/1999/xlink" width="598" height="600" style="" viewBox="0 0 598 600"><rect x="0" y="0" width="598" height="600" style="fill: rgb(255, 255, 255); fill-opacity: 1;"/><defs id="defs-a047e3"><g class="clips"><clipPath id="clipa047e3xyplot" class="plotclip"><rect width="341" height="460"/></clipPath><clipPath class="axesclip" id="clipa047e3x"><rect x="80" y="0" width="341" height="600"/></clipPath><clipPath class="axesclip" id="clipa047e3y"><rect x="0" y="60" width="598" height="460"/></clipPath><clipPath class="axesclip" id="clipa047e3xy"><rect x="80" y="60" width="341" height="460"/></clipPath></g><g class="gradients"/><g class="patterns"/></defs><g class="bglayer"><rect class="bg" x="80" y="60" width="341" height="460" style="fill: rgb(255, 255, 255); fill-opacity: 1; stroke-width: 0;"/></g><g class="layer-below"><g class="imagelayer"/><g class="shapelayer"/></g><g class="cartesianlayer"><g class="subplot xy"><g class="layer-subplot"><g class="shapelayer"/><g class="imagelayer"/></g><g class="minor-gridlayer"><g class="x"/><g class="y"/></g><g class="gridlayer"><g class="x"/><g class="y"><path class="ygrid crisp" transform="translate(0,438.45)" d="M80,0h341" style="stroke: rgb(208, 208, 208); stroke-opacity: 1; stroke-width: 1px;"/><path class="ygrid crisp" transform="translate(0,378.71)" d="M80,0h341" style="stroke: rgb(208, 208, 208); stroke-opacity: 1; stroke-width: 1px;"/><path class="ygrid crisp" transform="translate(0,318.97)" d="M80,0h341" style="stroke: rgb(208, 208, 208); stroke-opacity: 1; stroke-width: 1px;"/><path class="ygrid crisp" transform="translate(0,259.24)" d="M80,0h341" style="stroke: rgb(208, 208, 208); stroke-opacity: 1; stroke-width: 1px;"/><path class="ygrid crisp" transform="translate(0,199.5)" d="M80,0h341" style="stroke: rgb(208, 208, 208); stroke-opacity: 1; stroke-width: 1px;"/><path class="ygrid crisp" transform="translate(0,139.76)" d="M80,0h341" style="stroke: rgb(208, 208, 208); stroke-opacity: 1; stroke-width: 1px;"/><path class="ygrid crisp" transform="translate(0,80.03)" d="M80,0h341" style="stroke: rgb(208, 208, 208); stroke-opacity: 1; stroke-width: 1px;"/></g></g><g class="zerolinelayer"><path class="yzl zl crisp" transform="translate(0,498.18)" d="M80,0h341" style="stroke: rgb(255, 255, 255); stroke-opacity: 1; stroke-width: 2px;"/></g><path class="xlines-below"/><path class="ylines-below"/><g class="overlines-below"/><g class="xaxislayer-below"/><g class="yaxislayer-below"/><g class="overaxes-below"/><g class="plot" transform="translate(80,60)" clip-path="url(#clipa047e3xyplot)"><g class="scatterlayer mlayer"><g class="trace scatter trace4e4e69" style="stroke-miterlimit: 2; opacity: 1;"><g class="fills"/><g class="errorbars"/><g class="lines"><path class="js-line" d="M20.05,82.75L80.23,183.7L140.41,286.45L200.59,408.31L260.77,256.58L320.95,290.63" style="vector-effect: none; fill: none; stroke: rgb(133, 215, 219); stroke-opacity: 1; stroke-width: 2px; opacity: 1;"/></g><g class="points"><path class="point" transform="translate(20.05,82.75)" d="M1,0A1,1 0 1,1 0,-1A1,1 0 0,1 1,0Z" style="opacity: 1; stroke-width: 0px; fill: rgb(133, 215, 219); fill-opacity: 1;"/><path class="point" transform="translate(80.23,183.7)" d="M1,0A1,1 0 1,1 0,-1A1,1 0 0,1 1,0Z" style="opacity: 1; stroke-width: 0px; fill: rgb(133, 215, 219); fill-opacity: 1;"/><path class="point" transform="translate(140.41,286.45)" d="M1,0A1,1 0 1,1 0,-1A1,1 0 0,1 1,0Z" style="opacity: 1; stroke-width: 0px; fill: rgb(133, 215, 219); fill-opacity: 1;"/><path class="point" transform="translate(200.59,408.31)" d="M1,0A1,1 0 1,1 0,-1A1,1 0 0,1 1,0Z" style="opacity: 1; stroke-width: 0px; fill: rgb(133, 215, 219); fill-opacity: 1;"/><path class="point" transform="translate(260.77,256.58)" d="M1,0A1,1 0 1,1 0,-1A1,1 0 0,1 1,0Z" style="opacity: 1; stroke-width: 0px; fill: rgb(133, 215, 219); fill-opacity: 1;"/><path class="point" transform="translate(320.95,290.63)" d="M1,0A1,1 0 1,1 0,-1A1,1 0 0,1 1,0Z" style="opacity: 1; stroke-width: 0px; fill: rgb(133, 215, 219); fill-opacity: 1;"/></g><g class="text"/></g><g class="trace scatter tracecf764a" style="stroke-miterlimit: 2; opacity: 1;"><g class="fills"/><g class="errorbars"/><g class="lines"><path class="js-line" d="M20.05,275.7L80.23,434L140.41,384.42L260.77,187.29L320.95,374.86" style="vector-effect: none; fill: none; stroke: rgb(161, 252, 237); stroke-opacity: 1; stroke-width: 2px; opacity: 1;"/></g><g class="points"><path class="point" transform="translate(20.05,275.7)" d="M1,0A1,1 0 1,1 0,-1A1,1 0 0,1 1,0Z" style="opacity: 1; stroke-width: 0px; fill: rgb(161, 252, 237); fill-opacity: 1;"/><path class="point" transform="translate(80.23,434)" d="M1,0A1,1 0 1,1 0,-1A1,1 0 0,1 1,0Z" style="opacity: 1; stroke-width: 0px; fill: rgb(161, 252, 237); fill-opacity: 1;"/><path class="point" transform="translate(140.41,384.42)" d="M1,0A1,1 0 1,1 0,-1A1,1 0 0,1 1,0Z" style="opacity: 1; stroke-width: 0px; fill: rgb(161, 252, 237); fill-opacity: 1;"/><path class="point" transform="translate(200.59,285.85)" d="M1,0A1,1 0 1,1 0,-1A1,1 0 0,1 1,0Z" style="opacity: 1; stroke-width: 0px; fill: rgb(161, 252, 237); fill-opacity: 1;"/><path class="point" transform="translate(260.77,187.29)" d="M1,0A1,1 0 1,1 0,-1A1,1 0 0,1 1,0Z" style="opacity: 1; stroke-width: 0px; fill: rgb(161, 252, 237); fill-opacity: 1;"/><path class="point" transform="translate(320.95,374.86)" d="M1,0A1,1 0 1,1 0,-1A1,1 0 0,1 1,0Z" style="opacity: 1; stroke-width: 0px; fill: rgb(161, 252, 237); fill-opacity: 1;"/></g><g class="text"/></g><g class="trace scatter trace0148fb" style="stroke-miterlimit: 2; opacity: 1;"><g class="fills"/><g class="errorbars"/><g class="lines"><path class="js-line" d="M20.05,421.46L80.23,312.73L140.41,408.91L200.59,57.06L260.77,144.28L320.95,316.92" style="vector-effect: none; fill: none; stroke: rgb(242, 116, 94); stroke-opacity: 1; stroke-width: 2px; opacity: 1;"/></g><g class="points"><path class="point" transform="translate(20.05,421.46)" d="M1,0A1,1 0 1,1 0,-1A1,1 0 0,1 1,0Z" style="opacity: 1; stroke-width: 0px; fill: rgb(242, 116, 94); fill-opacity: 1;"/><path class="point" transform="translate(80.23,312.73)" d="M1,0A1,1 0 1,1 0,-1A1,1 0 0,1 1,0Z" style="opacity: 1; stroke-width: 0px; fill: rgb(242, 116, 94); fill-opacity: 1;"/><path class="point" transform="translate(140.41,408.91)" d="M1,0A1,1 0 1,1 0,-1A1,1 0 0,1 1,0Z" style="opacity: 1; stroke-width: 0px; fill: rgb(242, 116, 94); fill-opacity: 1;"/><path class="point" transform="translate(200.59,57.06)" d="M1,0A1,1 0 1,1 0,-1A1,1 0 0,1 1,0Z" style="opacity: 1; stroke-width: 0px; fill: rgb(242, 116, 94); fill-opacity: 1;"/><path class="point" transform="translate(260.77,144.28)" d="M1,0A1,1 0 1,1 0,-1A1,1 0 0,1 1,0Z" style="opacity: 1; stroke-width: 0px; fill: rgb(242, 116, 94); fill-opacity: 1;"/><path class="point" transform="translate(320.95,316.92)" d="M1,0A1,1 0 1,1 0,-1A1,1 0 0,1 1,0Z" style="opacity: 1; stroke-width: 0px; fill: rgb(242, 116, 94); fill-opacity: 1;"/></g><g class="text"/></g><g class="trace scatter trace930594" style="stroke-miterlimit: 2; opacity: 1;"><g class="fills"/><g class="errorbars"/><g class="lines"><path class="js-line" d="M20.05,26L80.23,97.09L140.41,299.59L200.59,97.09L260.77,186.09L320.95,101.27" style="vector-effect: none; fill: none; stroke: rgb(211, 8, 204); stroke-opacity: 1; stroke-width: 2px; opacity: 1;"/></g><g class="points"><path class="point" transform="translate(20.05,26)" d="M1,0A1,1 0 1,1 0,-1A1,1 0 0,1 1,0Z" style="opacity: 1; stroke-width: 0px; fill: rgb(211, 8, 204); fill-opacity: 1;"/><path class="point" transform="translate(80.23,97.09)" d="M1,0A1,1 0 1,1 0,-1A1,1 0 0,1 1,0Z" style="opacity: 1; stroke-width: 0px; fill: rgb(211, 8, 204); fill-opacity: 1;"/><path class="point" transform="translate(140.41,299.59)" d="M1,0A1,1 0 1,1 0,-1A1,1 0 0,1 1,0Z" style="opacity: 1; stroke-width: 0px; fill: rgb(211, 8, 204); fill-opacity: 1;"/><path class="point" transform="translate(200.59,97.09)" d="M1,0A1,1 0 1,1 0,-1A1,1 0 0,1 1,0Z" style="opacity: 1; stroke-width: 0px; fill: rgb(211, 8, 204); fill-opacity: 1;"/><path class="point" transform="translate(260.77,186.09)" d="M1,0A1,1 0 1,1 0,-1A1,1 0 0,1 1,0Z" style="opacity: 1; stroke-width: 0px; fill: rgb(211, 8, 204); fill-opacity: 1;"/><path class="point" transform="translate(320.95,101.27)" d="M1,0A1,1 0 1,1 0,-1A1,1 0 0,1 1,0Z" style="opacity: 1; stroke-width: 0px; fill: rgb(211, 8, 204); fill-opacity: 1;"/></g><g class="text"/></g></g></g><g class="overplot"/><path class="xlines-above crisp" d="M0,0" style="fill: none;"/><path class="ylines-above crisp" d="M0,0" style="fill: none;"/><g class="overlines-above"/><g class="xaxislayer-above"><g class="xtick"><text text-anchor="start" x="2.9749999999999996" y="529.5" transform="translate(100.05,0) rotate(90,2.9749999999999996,521)" style="font-family: serif; font-size: 17px; fill: rgb(0, 0, 0); fill-opacity: 1; white-space: pre; opacity: 1;">Jan</text></g><g class="xtick"><text text-anchor="start" x="2.9749999999999996" y="529.5" transform="translate(160.23000000000002,0) rotate(90,2.9749999999999996,521)" style="font-family: serif; font-size: 17px; fill: rgb(0, 0, 0); fill-opacity: 1; white-space: pre; opacity: 1;">Feb</text></g><g class="xtick"><text text-anchor="start" x="2.9749999999999996" y="529.5" transform="translate(220.41,0) rotate(90,2.9749999999999996,521)" style="font-family: serif; font-size: 17px; fill: rgb(0, 0, 0); fill-opacity: 1; white-space: pre; opacity: 1;">Mar</text></g><g class="xtick"><text text-anchor="start" x="2.9749999999999996" y="529.5" transform="translate(280.59000000000003,0) rotate(90,2.9749999999999996,521)" style="font-family: serif; font-size: 17px; fill: rgb(0, 0, 0); fill-opacity: 1; white-space: pre; opacity: 1;">Apr</text></g><g class="xtick"><text text-anchor="start" x="2.9749999999999996" y="529.5" transform="translate(340.77,0) rotate(90,2.9749999999999996,521)" style="font-family: serif; font-size: 17px; fill: rgb(0, 0, 0); fill-opacity: 1; white-space: pre; opacity: 1;">May</text></g><g class="xtick"><text text-anchor="start" x="2.9749999999999996" y="529.5" transform="translate(400.95,0) rotate(90,2.9749999999999996,521)" style="font-family: serif; font-size: 17px; fill: rgb(0, 0, 0); fill-opacity: 1; white-space: pre; opacity: 1;">June</text></g></g><g class="yaxislayer-above"><g class="ytick"><text text-anchor="end" x="79" y="5.949999999999999" transform="translate(0,498.18)" style="font-family: serif; font-size: 17px; fill: rgb(0, 0, 0); fill-opacity: 1; white-space: pre; opacity: 1;">0</text></g><g class="ytick"><text text-anchor="end" x="79" y="5.949999999999999" style="font-family: serif; font-size: 17px; fill: rgb(0, 0, 0); fill-opacity: 1; white-space: pre; opacity: 1;" transform="translate(0,438.45)">100</text></g><g class="ytick"><text text-anchor="end" x="79" y="5.949999999999999" style="font-family: serif; font-size: 17px; fill: rgb(0, 0, 0); fill-opacity: 1; white-space: pre; opacity: 1;" transform="translate(0,378.71)">200</text></g><g class="ytick"><text text-anchor="end" x="79" y="5.949999999999999" style="font-family: serif; font-size: 17px; fill: rgb(0, 0, 0); fill-opacity: 1; white-space: pre; opacity: 1;" transform="translate(0,318.97)">300</text></g><g class="ytick"><text text-anchor="end" x="79" y="5.949999999999999" style="font-family: serif; font-size: 17px; fill: rgb(0, 0, 0); fill-opacity: 1; white-space: pre; opacity: 1;" transform="translate(0,259.24)">400</text></g><g class="ytick"><text text-anchor="end" x="79" y="5.949999999999999" style="font-family: serif; font-size: 17px; fill: rgb(0, 0, 0); fill-opacity: 1; white-space: pre; opacity: 1;" transform="translate(0,199.5)">500</text></g><g class="ytick"><text text-anchor="end" x="79" y="5.949999999999999" style="font-family: serif; font-size: 17px; fill: rgb(0, 0, 0); fill-opacity: 1; white-space: pre; opacity: 1;" transform="translate(0,139.76)">600</text></g><g class="ytick"><text text-anchor="end" x="79" y="5.949999999999999" style="font-family: serif; font-size: 17px; fill: rgb(0, 0, 0); fill-opacity: 1; white-space: pre; opacity: 1;" transform="translate(0,80.03)">700</text></g></g><g class="overaxes-above"/></g></g><g class="polarlayer"/><g class="smithlayer"/><g class="ternarylayer"/><g class="geolayer"/><g class="funnelarealayer"/><g class="pielayer"/><g class="iciclelayer"/><g class="treemaplayer"/><g class="sunburstlayer"/><g class="glimages"/><defs id="topdefs-a047e3"><g class="clips"/><clipPath id="legenda047e3"><rect width="158" height="86" x="0" y="0"/></clipPath></defs><g class="layer-above"><g class="imagelayer"/><g class="shapelayer"/></g><g class="infolayer"><g class="legend" pointer-events="all" transform="translate(427.82,60)"><rect class="bg" shape-rendering="crispEdges" style="stroke: rgb(68, 68, 68); stroke-opacity: 1; fill: rgb(255, 255, 255); fill-opacity: 1; stroke-width: 0px;" width="158" height="86" x="0" y="0"/><g class="scrollbox" transform="" clip-path="url(#legenda047e3)"><g class="groups" transform=""><g class="traces" transform="translate(0,14.5)" style="opacity: 1;"><text class="legendtext" text-anchor="start" x="40" y="4.680000000000001" style="font-family: serif; font-size: 12px; fill: rgb(42, 63, 95); fill-opacity: 1; white-space: pre;">fight pick parent</text><g class="layers" style="opacity: 1;"><g class="legendfill"/><g class="legendlines"><path class="js-line" d="M5,0h30" style="fill: none; stroke: rgb(133, 215, 219); stroke-opacity: 1; stroke-width: 2px;"/></g><g class="legendsymbols"><g class="legendpoints"><path class="scatterpts" transform="translate(20,0)" d="M1,0A1,1 0 1,1 0,-1A1,1 0 0,1 1,0Z" style="opacity: 1; stroke-width: 0px; fill: rgb(133, 215, 219); fill-opacity: 1;"/></g></g></g><rect class="legendtoggle" x="0" y="-9.5" width="152.40625" height="19" style="fill: rgb(0, 0, 0); fill-opacity: 0;"/></g></g><g class="groups" transform=""><g class="traces" transform="translate(0,33.5)" style="opacity: 1;"><text class="legendtext" text-anchor="start" x="40" y="4.680000000000001" style="font-family: serif; font-size: 12px; fill: rgb(42, 63, 95); fill-opacity: 1; white-space: pre;">common dog material</text><g class="layers" style="opacity: 1;"><g class="legendfill"/><g class="legendlines"><path class="js-line" d="M5,0h30" style="fill: none; stroke: rgb(161, 252, 237); stroke-opacity: 1; stroke-width: 2px;"/></g><g class="legendsymbols"><g class="legendpoints"><path class="scatterpts" transform="translate(20,0)" d="M1,0A1,1 0 1,1 0,-1A1,1 0 0,1 1,0Z" style="opacity: 1; stroke-width: 0px; fill: rgb(161, 252, 237); fill-opacity: 1;"/></g></g></g><rect class="legendtoggle" x="0" y="-9.5" width="152.40625" height="19" style="fill: rgb(0, 0, 0); fill-opacity: 0;"/></g></g><g class="groups" transform=""><g class="traces" transform="translate(0,52.5)" style="opacity: 1;"><text class="legendtext" text-anchor="start" x="40" y="4.680000000000001" style="font-family: serif; font-size: 12px; fill: rgb(42, 63, 95); fill-opacity: 1; white-space: pre;">friend organization call</text><g class="layers" style="opacity: 1;"><g class="legendfill"/><g class="legendlines"><path class="js-line" d="M5,0h30" style="fill: none; stroke: rgb(242, 116, 94); stroke-opacity: 1; stroke-width: 2px;"/></g><g class="legendsymbols"><g class="legendpoints"><path class="scatterpts" transform="translate(20,0)" d="M1,0A1,1 0 1,1 0,-1A1,1 0 0,1 1,0Z" style="opacity: 1; stroke-width: 0px; fill: rgb(242, 116, 94); fill-opacity: 1;"/></g></g></g><rect class="legendtoggle" x="0" y="-9.5" width="152.40625" height="19" style="fill: rgb(0, 0, 0); fill-opacity: 0;"/></g></g><g class="groups" transform=""><g class="traces" transform="translate(0,71.5)" style="opacity: 1;"><text class="legendtext" text-anchor="start" x="40" y="4.680000000000001" style="font-family: serif; font-size: 12px; fill: rgb(42, 63, 95); fill-opacity: 1; white-space: pre;">couple population step</text><g class="layers" style="opacity: 1;"><g class="legendfill"/><g class="legendlines"><path class="js-line" d="M5,0h30" style="fill: none; stroke: rgb(211, 8, 204); stroke-opacity: 1; stroke-width: 2px;"/></g><g class="legendsymbols"><g class="legendpoints"><path class="scatterpts" transform="translate(20,0)" d="M1,0A1,1 0 1,1 0,-1A1,1 0 0,1 1,0Z" style="opacity: 1; stroke-width: 0px; fill: rgb(211, 8, 204); fill-opacity: 1;"/></g></g></g><rect class="legendtoggle" x="0" y="-9.5" width="152.40625" height="19" style="fill: rgb(0, 0, 0); fill-opacity: 0;"/></g></g></g><rect class="scrollbar" rx="20" ry="3" width="0" height="0" style="fill: rgb(128, 139, 164); fill-opacity: 1;" x="0" y="0"/></g><g class="g-gtitle"><text class="gtitle" x="299" y="30" text-anchor="start" dy="0em" style="font-family: serif; font-size: 25px; fill: rgb(0, 0, 0); opacity: 1; font-weight: normal; white-space: pre;">nor citizen prevent</text></g><g class="g-xtitle"><text class="xtitle" x="250.5" y="576.966015625" text-anchor="middle" style="font-family: serif; font-size: 14px; fill: rgb(0, 0, 0); opacity: 1; font-weight: normal; white-space: pre;">Month</text></g><g class="g-ytitle"/></g></svg>