<svg class="main-svg" xmlns="http://www.w3.org/2000/svg" xmlns:xlink="http://www.w3.org/1999/xlink" width="465" height="600" style="" viewBox="0 0 465 600"><rect x="0" y="0" width="465" height="600" style="fill: rgb(255, 255, 255); fill-opacity: 1;"/><defs id="defs-ddfbc3"><g class="clips"><clipPath id="clipddfbc3xyplot" class="plotclip"><rect width="305" height="454"/></clipPath><clipPath class="axesclip" id="clipddfbc3x"><rect x="80" y="0" width="305" height="600"/></clipPath><clipPath class="axesclip" id="clipddfbc3y"><rect x="0" y="60" width="465" height="454"/></clipPath><clipPath class="axesclip" id="clipddfbc3xy"><rect x="80" y="60" width="305" height="454"/></clipPath></g><g class="gradients"/><g class="patterns"/></defs><g class="bglayer"><rect class="bg" x="80" y="60" width="305" height="454" style="fill: rgb(51, 51, 51); fill-opacity: 1; stroke-width: 0;"/></g><g class="layer-below"><g class="imagelayer"/><g class="shapelayer"/></g><g class="cartesianlayer"><g class="subplot xy"><g class="layer-subplot"><g class="shapelayer"/><g class="imagelayer"/></g><g class="minor-gridlayer"><g class="x"/><g class="y"/></g><g class="gridlayer"><g class="x"/><g class="y"/></g><g class="zerolinelayer"><path class="yzl zl crisp" transform="translate(0,499.08)" d="M80,0h305" style="stroke: rgb(255, 255, 255); stroke-opacity: 1; stroke-width: 2px;"/></g><path class="xlines-below"/><path class="ylines-below"/><g class="overlines-below"/><g class="xaxislayer-below"/><g class="yaxislayer-below"/><g class="overaxes-below"/><g class="plot" transform="translate(80,60)" clip-path="url(#clipddfbc3xyplot)"><g class="scatterlayer mlayer"><g class="trace scatter trace879126" style="stroke-miterlimit: 2; opacity: 1;"><g class="fills"/><g class="errorbars"/><g class="lines"><path class="js-line" d="M24,271.99L47.36,31.45L70.73,398.68L94.09,314.22L117.45,372.97L140.82,114.08L164.18,284.84L187.55,422.55L210.91,117.75L234.27,125.09L257.64,97.55L281,121.42" style="vector-effect: none; fill: none; stroke: rgb(181, 210, 255); stroke-opacity: 1; stroke-width: 2px; opacity: 1;"/></g><g class="points"><path class="point" transform="translate(24,271.99)" d="M7,0A7,7 0 1,1 0,-7A7,7 0 0,1 7,0Z" style="opacity: 1; stroke: rgb(181, 210, 255); stroke-opacity: 1; stroke-width: 1px; fill: none;"/><path class="point" transform="translate(47.36,31.45)" d="M7,0A7,7 0 1,1 0,-7A7,7 0 0,1 7,0Z" style="opacity: 1; stroke: rgb(181, 210, 255); stroke-opacity: 1; stroke-width: 1px; fill: none;"/><path class="point" transform="translate(70.73,398.68)" d="M7,0A7,7 0 1,1 0,-7A7,7 0 0,1 7,0Z" style="opacity: 1; stroke: rgb(181, 210, 255); stroke-opacity: 1; stroke-width: 1px; fill: none;"/><path class="point" transform="translate(94.09,314.22)" d="M7,0A7,7 0 1,1 0,-7A7,7 0 0,1 7,0Z" style="opacity: 1; stroke: rgb(181, 210, 255); stroke-opacity: 1; stroke-width: 1px; fill: none;"/><path class="point" transform="translate(117.45,372.97)" d="M7,0A7,7 0 1,1 0,-7A7,7 0 0,1 7,0Z" style="opacity: 1; stroke: rgb(181, 210, 255); stroke-opacity: 1; stroke-width: 1px; fill: none;"/><path class="point" transform="translate(140.82,114.08)" d="M7,0A7,7 0 1,1 0,-7A7,7 0 0,1 7,0Z" style="opacity: 1; stroke: rgb(181, 210, 255); stroke-opacity: 1; stroke-width: 1px; fill: none;"/><path class="point" transform="translate(164.18,284.84)" d="M7,0A7,7 0 1,1 0,-7A7,7 0 0,1 7,0Z" style="opacity: 1; stroke: rgb(181, 210, 255); stroke-opacity: 1; stroke-width: 1px; fill: none;"/><path class="point" transform="translate(187.55,422.55)" d="M7,0A7,7 0 1,1 0,-7A7,7 0 0,1 7,0Z" style="opacity: 1; stroke: rgb(181, 210, 255); stroke-opacity: 1; stroke-width: 1px; fill: none;"/><path class="point" transform="translate(210.91,117.75)" d="M7,0A7,7 0 1,1 0,-7A7,7 0 0,1 7,0Z" style="opacity: 1; stroke: rgb(181, 210, 255); stroke-opacity: 1; stroke-width: 1px; fill: none;"/><path class="point" transform="translate(234.27,125.09)" d="M7,0A7,7 0 1,1 0,-7A7,7 0 0,1 7,0Z" style="opacity: 1; stroke: rgb(181, 210, 255); stroke-opacity: 1; stroke-width: 1px; fill: none;"/><path class="point" transform="translate(257.64,97.55)" d="M7,0A7,7 0 1,1 0,-7A7,7 0 0,1 7,0Z" style="opacity: 1; stroke: rgb(181, 210, 255); stroke-opacity: 1; stroke-width: 1px; fill: none;"/><path class="point" transform="translate(281,121.42)" d="M7,0A7,7 0 1,1 0,-7A7,7 0 0,1 7,0Z" style="opacity: 1; stroke: rgb(181, 210, 255); stroke-opacity: 1; stroke-width: 1px; fill: none;"/></g><g class="text"/></g></g></g><g class="overplot"/><path class="xlines-above crisp" d="M0,0" style="fill: none;"/><path class="ylines-above crisp" d="M79.5,60V514" style="fill: none; stroke-width: 1px; stroke: rgb(255, 255, 255); stroke-opacity: 1;"/><g class="overlines-above"/><g class="xaxislayer-above"><g class="xtick"><text text-anchor="start" x="3.5" y="525" transform="translate(104,0) rotate(90,3.5,515)" style="font-family: monospace; font-size: 20px; fill: rgb(0, 0, 0); fill-opacity: 1; white-space: pre; opacity: 1;">Jan</text></g><g class="xtick"><text text-anchor="start" x="3.5" y="525" transform="translate(150.73000000000002,0) rotate(90,3.5,515)" style="font-family: monospace; font-size: 20px; fill: rgb(0, 0, 0); fill-opacity: 1; white-space: pre; opacity: 1;">Mar</text></g><g class="xtick"><text text-anchor="start" x="3.5" y="525" transform="translate(197.45,0) rotate(90,3.5,515)" style="font-family: monospace; font-size: 20px; fill: rgb(0, 0, 0); fill-opacity: 1; white-space: pre; opacity: 1;">May</text></g><g class="xtick"><text text-anchor="start" x="3.5" y="525" transform="translate(244.18,0) rotate(90,3.5,515)" style="font-family: monospace; font-size: 20px; fill: rgb(0, 0, 0); fill-opacity: 1; white-space: pre; opacity: 1;">July</text></g><g class="xtick"><text text-anchor="start" x="3.5" y="525" transform="translate(290.90999999999997,0) rotate(90,3.5,515)" style="font-family: monospace; font-size: 20px; fill: rgb(0, 0, 0); fill-opacity: 1; white-space: pre; opacity: 1;">Sep</text></g><g class="xtick"><text text-anchor="start" x="3.5" y="525" transform="translate(337.64,0) rotate(90,3.5,515)" style="font-family: monospace; font-size: 20px; fill: rgb(0, 0, 0); fill-opacity: 1; white-space: pre; opacity: 1;">Nov</text></g></g><g class="yaxislayer-above"><g class="ytick"><text text-anchor="end" x="75" y="7" transform="translate(0,499.08)" style="font-family: monospace; font-size: 20px; fill: rgb(0, 0, 0); fill-opacity: 1; white-space: pre; opacity: 1;">0</text></g><g class="ytick"><text text-anchor="end" x="75" y="7" style="font-family: monospace; font-size: 20px; fill: rgb(0, 0, 0); fill-opacity: 1; white-space: pre; opacity: 1;" transform="translate(0,407.27)">50</text></g><g class="ytick"><text text-anchor="end" x="75" y="7" style="font-family: monospace; font-size: 20px; fill: rgb(0, 0, 0); fill-opacity: 1; white-space: pre; opacity: 1;" transform="translate(0,315.46000000000004)">100</text></g><g class="ytick"><text text-anchor="end" x="75" y="7" style="font-family: monospace; font-size: 20px; fill: rgb(0, 0, 0); fill-opacity: 1; white-space: pre; opacity: 1;" transform="translate(0,223.65)">150</text></g><g class="ytick"><text text-anchor="end" x="75" y="7" style="font-family: monospace; font-size: 20px; fill: rgb(0, 0, 0); fill-opacity: 1; white-space: pre; opacity: 1;" transform="translate(0,131.85)">200</text></g></g><g class="overaxes-above"/></g></g><g class="polarlayer"/><g class="smithlayer"/><g class="ternarylayer"/><g class="geolayer"/><g class="funnelarealayer"/><g class="pielayer"/><g class="iciclelayer"/><g class="treemaplayer"/><g class="sunburstlayer"/><g class="glimages"/><defs id="topdefs-ddfbc3"><g class="clips"/><clipPath id="legendddfbc3"><rect width="155" height="29" x="0" y="0"/></clipPath></defs><g class="layer-above"><g class="imagelayer"/><g class="shapelayer"/></g><g class="infolayer"><g class="legend" pointer-events="all" transform="translate(80,559.4000000000001)"><rect class="bg" shape-rendering="crispEdges" style="stroke: rgb(68, 68, 68); stroke-opacity: 1; fill: rgb(255, 255, 255); fill-opacity: 1; stroke-width: 0px;" width="155" height="29" x="0" y="0"/><g class="scrollbox" transform="" clip-path="url(#legendddfbc3)"><g class="groups" transform=""><g class="traces" transform="translate(0,14.5)" style="opacity: 1;"><text class="legendtext" text-anchor="start" x="40" y="4.680000000000001" style="font-family: monospace; font-size: 12px; fill: rgb(42, 63, 95); fill-opacity: 1; white-space: pre;">write sea cause</text><g class="layers" style="opacity: 1;"><g class="legendfill"/><g class="legendlines"><path class="js-line" d="M5,0h30" style="fill: none; stroke: rgb(181, 210, 255); stroke-opacity: 1; stroke-width: 2px;"/></g><g class="legendsymbols"><g class="legendpoints"><path class="scatterpts" transform="translate(20,0)" d="M7,0A7,7 0 1,1 0,-7A7,7 0 0,1 7,0Z" style="opacity: 1; stroke: rgb(181, 210, 255); stroke-opacity: 1; stroke-width: 1px; fill: none;"/></g></g></g><rect class="legendtoggle" x="0" y="-9.5" width="151.53125" height="19" style="fill: rgb(0, 0, 0); fill-opacity: 0;"/></g></g></g><rect class="scrollbar" rx="20" ry="3" width="0" height="0" style="fill: rgb(128, 139, 164); fill-opacity: 1;" x="0" y="0"/></g><g class="g-gtitle"><text class="gtitle" x="232.5" y="30" text-anchor="end" dy="0em" style="font-family: monospace; font-size: 25px; fill: rgb(0, 0, 0); opacity: 1; font-weight: normal; white-space: pre;">will you deal</text></g><g class="g-xtitle"/><g class="g-ytitle"><text class="ytitle" transform="rotate(-90,14.684375000000003,287)" x="14.684375000000003" y="287" text-anchor="middle" style="font-family: monospace; font-size: 14px; fill: rgb(0, 0, 0); opacity: 1; font-weight: normal; white-space: pre;">until anyone like</text></g></g></svg>