<svg class="main-svg" xmlns="http://www.w3.org/2000/svg" xmlns:xlink="http://www.w3.org/1999/xlink" width="465" height="600" style="" viewBox="0 0 465 600"><rect x="0" y="0" width="465" height="600" style="fill: rgb(255, 255, 255); fill-opacity: 1;"/><defs id="defs-27e870"><g class="clips"><clipPath id="clip27e870xyplot" class="plotclip"><rect width="305" height="436"/></clipPath><clipPath class="axesclip" id="clip27e870x"><rect x="80" y="0" width="305" height="600"/></clipPath><clipPath class="axesclip" id="clip27e870y"><rect x="0" y="60" width="465" height="436"/></clipPath><clipPath class="axesclip" id="clip27e870xy"><rect x="80" y="60" width="305" height="436"/></clipPath></g><g class="gradients"/><g class="patterns"/></defs><g class="bglayer"><rect class="bg" x="80" y="60" width="305" height="436" style="fill: rgb(255, 255, 255); fill-opacity: 1; stroke-width: 0;"/></g><g class="layer-below"><g class="imagelayer"/><g class="shapelayer"/></g><g class="cartesianlayer"><g class="subplot xy"><g class="layer-subplot"><g class="shapelayer"/><g class="imagelayer"/></g><g class="minor-gridlayer"><g class="x"/><g class="y"/></g><g class="gridlayer"><g class="x"><path class="xgrid crisp" transform="translate(148.44,0)" d="M0,60v436" style="stroke: rgb(208, 208, 208); stroke-opacity: 1; stroke-width: 1px;"/><path class="xgrid crisp" transform="translate(247.33,0)" d="M0,60v436" style="stroke: rgb(208, 208, 208); stroke-opacity: 1; stroke-width: 1px;"/><path class="xgrid crisp" transform="translate(346.22,0)" d="M0,60v436" style="stroke: rgb(208, 208, 208); stroke-opacity: 1; stroke-width: 1px;"/></g><g class="y"/></g><g class="zerolinelayer"><path class="yzl zl crisp" transform="translate(0,493.28)" d="M80,0h305" style="stroke: rgb(255, 255, 255); stroke-opacity: 1; stroke-width: 2px;"/></g><path class="xlines-below"/><path class="ylines-below"/><g class="overlines-below"/><g class="xaxislayer-below"/><g class="yaxislayer-below"/><g class="overaxes-below"/><g class="plot" transform="translate(80,60)" clip-path="url(#clip27e870xyplot)"><g class="scatterlayer mlayer"><g class="trace scatter trace2ec883" style="stroke-miterlimit: 2; opacity: 1;"><g class="fills"/><g class="errorbars"/><g class="lines"><path class="js-line" d="M19,356.63L48.67,284.87L78.33,200.06L108,356.63L137.67,208.21L167.33,400.66L197,226.15L226.67,237.57L256.33,159.29L286,405.56" style="vector-effect: none; fill: none; stroke: rgb(219, 147, 39); stroke-opacity: 1; stroke-width: 2px; opacity: 1;"/></g><g class="points"><path class="point" transform="translate(19,356.63)" d="M3,0A3,3 0 1,1 0,-3A3,3 0 0,1 3,0Z" style="opacity: 1; stroke: rgb(219, 147, 39); stroke-opacity: 1; stroke-width: 1px; fill: none;"/><path class="point" transform="translate(48.67,284.87)" d="M3,0A3,3 0 1,1 0,-3A3,3 0 0,1 3,0Z" style="opacity: 1; stroke: rgb(219, 147, 39); stroke-opacity: 1; stroke-width: 1px; fill: none;"/><path class="point" transform="translate(78.33,200.06)" d="M3,0A3,3 0 1,1 0,-3A3,3 0 0,1 3,0Z" style="opacity: 1; stroke: rgb(219, 147, 39); stroke-opacity: 1; stroke-width: 1px; fill: none;"/><path class="point" transform="translate(108,356.63)" d="M3,0A3,3 0 1,1 0,-3A3,3 0 0,1 3,0Z" style="opacity: 1; stroke: rgb(219, 147, 39); stroke-opacity: 1; stroke-width: 1px; fill: none;"/><path class="point" transform="translate(137.67,208.21)" d="M3,0A3,3 0 1,1 0,-3A3,3 0 0,1 3,0Z" style="opacity: 1; stroke: rgb(219, 147, 39); stroke-opacity: 1; stroke-width: 1px; fill: none;"/><path class="point" transform="translate(167.33,400.66)" d="M3,0A3,3 0 1,1 0,-3A3,3 0 0,1 3,0Z" style="opacity: 1; stroke: rgb(219, 147, 39); stroke-opacity: 1; stroke-width: 1px; fill: none;"/><path class="point" transform="translate(197,226.15)" d="M3,0A3,3 0 1,1 0,-3A3,3 0 0,1 3,0Z" style="opacity: 1; stroke: rgb(219, 147, 39); stroke-opacity: 1; stroke-width: 1px; fill: none;"/><path class="point" transform="translate(226.67,237.57)" d="M3,0A3,3 0 1,1 0,-3A3,3 0 0,1 3,0Z" style="opacity: 1; stroke: rgb(219, 147, 39); stroke-opacity: 1; stroke-width: 1px; fill: none;"/><path class="point" transform="translate(256.33,159.29)" d="M3,0A3,3 0 1,1 0,-3A3,3 0 0,1 3,0Z" style="opacity: 1; stroke: rgb(219, 147, 39); stroke-opacity: 1; stroke-width: 1px; fill: none;"/><path class="point" transform="translate(286,405.56)" d="M3,0A3,3 0 1,1 0,-3A3,3 0 0,1 3,0Z" style="opacity: 1; stroke: rgb(219, 147, 39); stroke-opacity: 1; stroke-width: 1px; fill: none;"/></g><g class="text"/></g><g class="trace scatter trace2259d4" style="stroke-miterlimit: 2; opacity: 1;"><g class="fills"/><g class="errorbars"/><g class="lines"><path class="js-line" d="M19,54.91L48.67,25.55L78.33,258.77L108,244.09L137.67,356.63L167.33,180.49L197,255.51L226.67,289.76L256.33,397.4L286,69.59" style="vector-effect: none; fill: none; stroke: rgb(186, 122, 249); stroke-opacity: 1; stroke-width: 2px; opacity: 1;"/></g><g class="points"><path class="point" transform="translate(19,54.91)" d="M3,0A3,3 0 1,1 0,-3A3,3 0 0,1 3,0Z" style="opacity: 1; stroke: rgb(186, 122, 249); stroke-opacity: 1; stroke-width: 1px; fill: none;"/><path class="point" transform="translate(48.67,25.55)" d="M3,0A3,3 0 1,1 0,-3A3,3 0 0,1 3,0Z" style="opacity: 1; stroke: rgb(186, 122, 249); stroke-opacity: 1; stroke-width: 1px; fill: none;"/><path class="point" transform="translate(78.33,258.77)" d="M3,0A3,3 0 1,1 0,-3A3,3 0 0,1 3,0Z" style="opacity: 1; stroke: rgb(186, 122, 249); stroke-opacity: 1; stroke-width: 1px; fill: none;"/><path class="point" transform="translate(108,244.09)" d="M3,0A3,3 0 1,1 0,-3A3,3 0 0,1 3,0Z" style="opacity: 1; stroke: rgb(186, 122, 249); stroke-opacity: 1; stroke-width: 1px; fill: none;"/><path class="point" transform="translate(137.67,356.63)" d="M3,0A3,3 0 1,1 0,-3A3,3 0 0,1 3,0Z" style="opacity: 1; stroke: rgb(186, 122, 249); stroke-opacity: 1; stroke-width: 1px; fill: none;"/><path class="point" transform="translate(167.33,180.49)" d="M3,0A3,3 0 1,1 0,-3A3,3 0 0,1 3,0Z" style="opacity: 1; stroke: rgb(186, 122, 249); stroke-opacity: 1; stroke-width: 1px; fill: none;"/><path class="point" transform="translate(197,255.51)" d="M3,0A3,3 0 1,1 0,-3A3,3 0 0,1 3,0Z" style="opacity: 1; stroke: rgb(186, 122, 249); stroke-opacity: 1; stroke-width: 1px; fill: none;"/><path class="point" transform="translate(226.67,289.76)" d="M3,0A3,3 0 1,1 0,-3A3,3 0 0,1 3,0Z" style="opacity: 1; stroke: rgb(186, 122, 249); stroke-opacity: 1; stroke-width: 1px; fill: none;"/><path class="point" transform="translate(256.33,397.4)" d="M3,0A3,3 0 1,1 0,-3A3,3 0 0,1 3,0Z" style="opacity: 1; stroke: rgb(186, 122, 249); stroke-opacity: 1; stroke-width: 1px; fill: none;"/><path class="point" transform="translate(286,69.59)" d="M3,0A3,3 0 1,1 0,-3A3,3 0 0,1 3,0Z" style="opacity: 1; stroke: rgb(186, 122, 249); stroke-opacity: 1; stroke-width: 1px; fill: none;"/></g><g class="text"/></g><g class="trace scatter trace82dba6" style="stroke-miterlimit: 2; opacity: 1;"><g class="fills"/><g class="errorbars"/><g class="lines"><path class="js-line" d="M19,410.45L48.67,271.82L78.33,293.02L108,385.99L137.67,237.57L167.33,366.41L197,59.8L226.67,32.07L256.33,356.63L286,82.63" style="vector-effect: none; fill: none; stroke: rgb(249, 101, 32); stroke-opacity: 1; stroke-width: 2px; opacity: 1;"/></g><g class="points"><path class="point" transform="translate(19,410.45)" d="M3,0A3,3 0 1,1 0,-3A3,3 0 0,1 3,0Z" style="opacity: 1; stroke: rgb(249, 101, 32); stroke-opacity: 1; stroke-width: 1px; fill: none;"/><path class="point" transform="translate(48.67,271.82)" d="M3,0A3,3 0 1,1 0,-3A3,3 0 0,1 3,0Z" style="opacity: 1; stroke: rgb(249, 101, 32); stroke-opacity: 1; stroke-width: 1px; fill: none;"/><path class="point" transform="translate(78.33,293.02)" d="M3,0A3,3 0 1,1 0,-3A3,3 0 0,1 3,0Z" style="opacity: 1; stroke: rgb(249, 101, 32); stroke-opacity: 1; stroke-width: 1px; fill: none;"/><path class="point" transform="translate(108,385.99)" d="M3,0A3,3 0 1,1 0,-3A3,3 0 0,1 3,0Z" style="opacity: 1; stroke: rgb(249, 101, 32); stroke-opacity: 1; stroke-width: 1px; fill: none;"/><path class="point" transform="translate(137.67,237.57)" d="M3,0A3,3 0 1,1 0,-3A3,3 0 0,1 3,0Z" style="opacity: 1; stroke: rgb(249, 101, 32); stroke-opacity: 1; stroke-width: 1px; fill: none;"/><path class="point" transform="translate(167.33,366.41)" d="M3,0A3,3 0 1,1 0,-3A3,3 0 0,1 3,0Z" style="opacity: 1; stroke: rgb(249, 101, 32); stroke-opacity: 1; stroke-width: 1px; fill: none;"/><path class="point" transform="translate(197,59.8)" d="M3,0A3,3 0 1,1 0,-3A3,3 0 0,1 3,0Z" style="opacity: 1; stroke: rgb(249, 101, 32); stroke-opacity: 1; stroke-width: 1px; fill: none;"/><path class="point" transform="translate(226.67,32.07)" d="M3,0A3,3 0 1,1 0,-3A3,3 0 0,1 3,0Z" style="opacity: 1; stroke: rgb(249, 101, 32); stroke-opacity: 1; stroke-width: 1px; fill: none;"/><path class="point" transform="translate(256.33,356.63)" d="M3,0A3,3 0 1,1 0,-3A3,3 0 0,1 3,0Z" style="opacity: 1; stroke: rgb(249, 101, 32); stroke-opacity: 1; stroke-width: 1px; fill: none;"/><path class="point" transform="translate(286,82.63)" d="M3,0A3,3 0 1,1 0,-3A3,3 0 0,1 3,0Z" style="opacity: 1; stroke: rgb(249, 101, 32); stroke-opacity: 1; stroke-width: 1px; fill: none;"/></g><g class="text"/></g></g></g><g class="overplot"/><path class="xlines-above crisp" d="M0,0" style="fill: none;"/><path class="ylines-above crisp" d="M0,0" style="fill: none;"/><g class="overlines-above"/><g class="xaxislayer-above"><g class="xtick"><text text-anchor="start" x="0" y="514" transform="translate(148.44,0) rotate(45,0,505.5)" style="font-family: sans-serif; font-size: 17px; fill: rgb(0, 0, 0); fill-opacity: 1; white-space: pre; opacity: 1;">1760</text></g><g class="xtick"><text text-anchor="start" x="0" y="514" style="font-family: sans-serif; font-size: 17px; fill: rgb(0, 0, 0); fill-opacity: 1; white-space: pre; opacity: 1;" transform="translate(247.33,0) rotate(45,0,505.5)">1770</text></g><g class="xtick"><text text-anchor="start" x="0" y="514" style="font-family: sans-serif; font-size: 17px; fill: rgb(0, 0, 0); fill-opacity: 1; white-space: pre; opacity: 1;" transform="translate(346.22,0) rotate(45,0,505.5)">1780</text></g></g><g class="yaxislayer-above"><g class="ytick"><text text-anchor="end" x="79" y="5.949999999999999" transform="translate(0,493.28)" style="font-family: sans-serif; font-size: 17px; fill: rgb(0, 0, 0); fill-opacity: 1; white-space: pre; opacity: 1;">0</text></g><g class="ytick"><text text-anchor="end" x="79" y="5.949999999999999" style="font-family: sans-serif; font-size: 17px; fill: rgb(0, 0, 0); fill-opacity: 1; white-space: pre; opacity: 1;" transform="translate(0,411.74)">50</text></g><g class="ytick"><text text-anchor="end" x="79" y="5.949999999999999" style="font-family: sans-serif; font-size: 17px; fill: rgb(0, 0, 0); fill-opacity: 1; white-space: pre; opacity: 1;" transform="translate(0,330.19)">100</text></g><g class="ytick"><text text-anchor="end" x="79" y="5.949999999999999" style="font-family: sans-serif; font-size: 17px; fill: rgb(0, 0, 0); fill-opacity: 1; white-space: pre; opacity: 1;" transform="translate(0,248.64)">150</text></g><g class="ytick"><text text-anchor="end" x="79" y="5.949999999999999" style="font-family: sans-serif; font-size: 17px; fill: rgb(0, 0, 0); fill-opacity: 1; white-space: pre; opacity: 1;" transform="translate(0,167.1)">200</text></g><g class="ytick"><text text-anchor="end" x="79" y="5.949999999999999" style="font-family: sans-serif; font-size: 17px; fill: rgb(0, 0, 0); fill-opacity: 1; white-space: pre; opacity: 1;" transform="translate(0,85.55)">250</text></g></g><g class="overaxes-above"/></g></g><g class="polarlayer"/><g class="smithlayer"/><g class="ternarylayer"/><g class="geolayer"/><g class="funnelarealayer"/><g class="pielayer"/><g class="iciclelayer"/><g class="treemaplayer"/><g class="sunburstlayer"/><g class="glimages"/><defs id="topdefs-27e870"><g class="clips"/><clipPath id="legend27e870"><rect width="427" height="48" x="0" y="0"/></clipPath></defs><g class="layer-above"><g class="imagelayer"/><g class="shapelayer"/></g><g class="infolayer"><g class="legend" pointer-events="all" transform="translate(38,539.6)"><rect class="bg" shape-rendering="crispEdges" style="stroke: rgb(68, 68, 68); stroke-opacity: 1; fill: rgb(255, 255, 255); fill-opacity: 1; stroke-width: 0px;" width="427" height="48" x="0" y="0"/><g class="scrollbox" transform="" clip-path="url(#legend27e870)"><text class="legendtitletext" text-anchor="start" x="2" y="18.2" style="font-family: sans-serif; font-size: 14px; fill: rgb(42, 63, 95); fill-opacity: 1; white-space: pre;">situation before glass</text><g class="groups" transform=""><g class="traces" transform="translate(142.3125,14.5)" style="opacity: 1;"><text class="legendtext" text-anchor="start" x="40" y="4.680000000000001" style="font-family: sans-serif; font-size: 12px; fill: rgb(42, 63, 95); fill-opacity: 1; white-space: pre;">then top his</text><g class="layers" style="opacity: 1;"><g class="legendfill"/><g class="legendlines"><path class="js-line" d="M5,0h30" style="fill: none; stroke: rgb(219, 147, 39); stroke-opacity: 1; stroke-width: 2px;"/></g><g class="legendsymbols"><g class="legendpoints"><path class="scatterpts" transform="translate(20,0)" d="M3,0A3,3 0 1,1 0,-3A3,3 0 0,1 3,0Z" style="opacity: 1; stroke: rgb(219, 147, 39); stroke-opacity: 1; stroke-width: 1px; fill: none;"/></g></g></g><rect class="legendtoggle" x="0" y="-9.5" width="105.546875" height="19" style="fill: rgb(0, 0, 0); fill-opacity: 0;"/></g></g><g class="groups" transform="translate(108.046875,0)"><g class="traces" transform="translate(142.3125,14.5)" style="opacity: 1;"><text class="legendtext" text-anchor="start" x="40" y="4.680000000000001" style="font-family: sans-serif; font-size: 12px; fill: rgb(42, 63, 95); fill-opacity: 1; white-space: pre;">agent cultural remember</text><g class="layers" style="opacity: 1;"><g class="legendfill"/><g class="legendlines"><path class="js-line" d="M5,0h30" style="fill: none; stroke: rgb(186, 122, 249); stroke-opacity: 1; stroke-width: 2px;"/></g><g class="legendsymbols"><g class="legendpoints"><path class="scatterpts" transform="translate(20,0)" d="M3,0A3,3 0 1,1 0,-3A3,3 0 0,1 3,0Z" style="opacity: 1; stroke: rgb(186, 122, 249); stroke-opacity: 1; stroke-width: 1px; fill: none;"/></g></g></g><rect class="legendtoggle" x="0" y="-9.5" width="173.578125" height="19" style="fill: rgb(0, 0, 0); fill-opacity: 0;"/></g></g><g class="groups" transform="translate(0,19)"><g class="traces" transform="translate(142.3125,14.5)" style="opacity: 1;"><text class="legendtext" text-anchor="start" x="40" y="4.680000000000001" style="font-family: sans-serif; font-size: 12px; fill: rgb(42, 63, 95); fill-opacity: 1; white-space: pre;">special meet expect</text><g class="layers" style="opacity: 1;"><g class="legendfill"/><g class="legendlines"><path class="js-line" d="M5,0h30" style="fill: none; stroke: rgb(249, 101, 32); stroke-opacity: 1; stroke-width: 2px;"/></g><g class="legendsymbols"><g class="legendpoints"><path class="scatterpts" transform="translate(20,0)" d="M3,0A3,3 0 1,1 0,-3A3,3 0 0,1 3,0Z" style="opacity: 1; stroke: rgb(249, 101, 32); stroke-opacity: 1; stroke-width: 1px; fill: none;"/></g></g></g><rect class="legendtoggle" x="0" y="-9.5" width="149.234375" height="19" style="fill: rgb(0, 0, 0); fill-opacity: 0;"/></g></g></g><rect class="scrollbar" rx="20" ry="3" width="0" height="0" style="fill: rgb(128, 139, 164); fill-opacity: 1;" x="0" y="0"/></g><g class="g-gtitle"><text class="gtitle" x="232.5" y="30" text-anchor="start" dy="0em" style="font-family: sans-serif; font-size: 25px; fill: rgb(0, 0, 0); opacity: 1; font-weight: normal; white-space: pre;">allow activity rock</text></g><g class="g-xtitle"/><g class="g-ytitle"><text class="ytitle" transform="rotate(-90,26.325000000000003,278)" x="26.325000000000003" y="278" text-anchor="middle" style="font-family: sans-serif; font-size: 14px; fill: rgb(0, 0, 0); opacity: 1; font-weight: normal; white-space: pre;">bank nearly marriage</text></g></g></svg>