<svg class="main-svg" xmlns="http://www.w3.org/2000/svg" xmlns:xlink="http://www.w3.org/1999/xlink" width="654" height="600" style="" viewBox="0 0 654 600"><rect x="0" y="0" width="654" height="600" style="fill: rgb(255, 255, 255); fill-opacity: 1;"/><defs id="defs-0c098a"><g class="clips"><clipPath id="clip0c098axyplot" class="plotclip"><rect width="419" height="460"/></clipPath><clipPath class="axesclip" id="clip0c098ax"><rect x="80" y="0" width="419" height="600"/></clipPath><clipPath class="axesclip" id="clip0c098ay"><rect x="0" y="60" width="654" height="460"/></clipPath><clipPath class="axesclip" id="clip0c098axy"><rect x="80" y="60" width="419" height="460"/></clipPath></g><g class="gradients"/><g class="patterns"/></defs><g class="bglayer"><rect class="bg" x="80" y="60" width="419" height="460" style="fill: rgb(255, 255, 255); fill-opacity: 1; stroke-width: 0;"/></g><g class="layer-below"><g class="imagelayer"/><g class="shapelayer"/></g><g class="cartesianlayer"><g class="subplot xy"><g class="layer-subplot"><g class="shapelayer"/><g class="imagelayer"/></g><g class="minor-gridlayer"><g class="x"/><g class="y"/></g><g class="gridlayer"><g class="x"><path class="xgrid crisp" transform="translate(103.95,0)" d="M0,60v460" style="stroke: rgb(208, 208, 208); stroke-opacity: 1; stroke-width: 1px;"/><path class="xgrid crisp" transform="translate(141.06,0)" d="M0,60v460" style="stroke: rgb(208, 208, 208); stroke-opacity: 1; stroke-width: 1px;"/><path class="xgrid crisp" transform="translate(178.17000000000002,0)" d="M0,60v460" style="stroke: rgb(208, 208, 208); stroke-opacity: 1; stroke-width: 1px;"/><path class="xgrid crisp" transform="translate(215.28,0)" d="M0,60v460" style="stroke: rgb(208, 208, 208); stroke-opacity: 1; stroke-width: 1px;"/><path class="xgrid crisp" transform="translate(252.39,0)" d="M0,60v460" style="stroke: rgb(208, 208, 208); stroke-opacity: 1; stroke-width: 1px;"/><path class="xgrid crisp" transform="translate(289.5,0)" d="M0,60v460" style="stroke: rgb(208, 208, 208); stroke-opacity: 1; stroke-width: 1px;"/><path class="xgrid crisp" transform="translate(326.61,0)" d="M0,60v460" style="stroke: rgb(208, 208, 208); stroke-opacity: 1; stroke-width: 1px;"/><path class="xgrid crisp" transform="translate(363.72,0)" d="M0,60v460" style="stroke: rgb(208, 208, 208); stroke-opacity: 1; stroke-width: 1px;"/><path class="xgrid crisp" transform="translate(400.83,0)" d="M0,60v460" style="stroke: rgb(208, 208, 208); stroke-opacity: 1; stroke-width: 1px;"/><path class="xgrid crisp" transform="translate(437.94,0)" d="M0,60v460" style="stroke: rgb(208, 208, 208); stroke-opacity: 1; stroke-width: 1px;"/><path class="xgrid crisp" transform="translate(475.05,0)" d="M0,60v460" style="stroke: rgb(208, 208, 208); stroke-opacity: 1; stroke-width: 1px;"/></g><g class="y"><path class="ygrid crisp" transform="translate(0,451.15)" d="M80,0h419" style="stroke: rgb(208, 208, 208); stroke-opacity: 1; stroke-width: 1px;"/><path class="ygrid crisp" transform="translate(0,404.58)" d="M80,0h419" style="stroke: rgb(208, 208, 208); stroke-opacity: 1; stroke-width: 1px;"/><path class="ygrid crisp" transform="translate(0,358)" d="M80,0h419" style="stroke: rgb(208, 208, 208); stroke-opacity: 1; stroke-width: 1px;"/><path class="ygrid crisp" transform="translate(0,311.41999999999996)" d="M80,0h419" style="stroke: rgb(208, 208, 208); stroke-opacity: 1; stroke-width: 1px;"/><path class="ygrid crisp" transform="translate(0,264.85)" d="M80,0h419" style="stroke: rgb(208, 208, 208); stroke-opacity: 1; stroke-width: 1px;"/><path class="ygrid crisp" transform="translate(0,218.27)" d="M80,0h419" style="stroke: rgb(208, 208, 208); stroke-opacity: 1; stroke-width: 1px;"/><path class="ygrid crisp" transform="translate(0,171.7)" d="M80,0h419" style="stroke: rgb(208, 208, 208); stroke-opacity: 1; stroke-width: 1px;"/><path class="ygrid crisp" transform="translate(0,125.12)" d="M80,0h419" style="stroke: rgb(208, 208, 208); stroke-opacity: 1; stroke-width: 1px;"/><path class="ygrid crisp" transform="translate(0,78.55)" d="M80,0h419" style="stroke: rgb(208, 208, 208); stroke-opacity: 1; stroke-width: 1px;"/></g></g><g class="zerolinelayer"><path class="yzl zl crisp" transform="translate(0,497.73)" d="M80,0h419" style="stroke: rgb(255, 255, 255); stroke-opacity: 1; stroke-width: 2px;"/></g><path class="xlines-below"/><path class="ylines-below"/><g class="overlines-below"/><g class="xaxislayer-below"/><g class="yaxislayer-below"/><g class="overaxes-below"/><g class="plot" transform="translate(80,60)" clip-path="url(#clip0c098axyplot)"><g class="scatterlayer mlayer"><g class="trace scatter trace303d0e" style="stroke-miterlimit: 2; opacity: 1;"><g class="fills"/><g class="errorbars"/><g class="lines"><path class="js-line" d="M23.95,288.68L61.06,362.74L98.17,273.78L135.28,406.05L172.39,314.3L209.5,137.32L246.61,92.14L283.72,134.52L320.83,379.51L357.94,277.51L395.05,166.66" style="vector-effect: none; fill: none; stroke: rgb(234, 126, 214); stroke-opacity: 1; stroke-width: 2px; opacity: 1;"/></g><g class="points"><path class="point" transform="translate(23.95,288.68)" d="M3,0A3,3 0 1,1 0,-3A3,3 0 0,1 3,0Z" style="opacity: 1; stroke-width: 0px; fill: rgb(234, 126, 214); fill-opacity: 1;"/><path class="point" transform="translate(61.06,362.74)" d="M3,0A3,3 0 1,1 0,-3A3,3 0 0,1 3,0Z" style="opacity: 1; stroke-width: 0px; fill: rgb(234, 126, 214); fill-opacity: 1;"/><path class="point" transform="translate(98.17,273.78)" d="M3,0A3,3 0 1,1 0,-3A3,3 0 0,1 3,0Z" style="opacity: 1; stroke-width: 0px; fill: rgb(234, 126, 214); fill-opacity: 1;"/><path class="point" transform="translate(135.28,406.05)" d="M3,0A3,3 0 1,1 0,-3A3,3 0 0,1 3,0Z" style="opacity: 1; stroke-width: 0px; fill: rgb(234, 126, 214); fill-opacity: 1;"/><path class="point" transform="translate(172.39,314.3)" d="M3,0A3,3 0 1,1 0,-3A3,3 0 0,1 3,0Z" style="opacity: 1; stroke-width: 0px; fill: rgb(234, 126, 214); fill-opacity: 1;"/><path class="point" transform="translate(209.5,137.32)" d="M3,0A3,3 0 1,1 0,-3A3,3 0 0,1 3,0Z" style="opacity: 1; stroke-width: 0px; fill: rgb(234, 126, 214); fill-opacity: 1;"/><path class="point" transform="translate(246.61,92.14)" d="M3,0A3,3 0 1,1 0,-3A3,3 0 0,1 3,0Z" style="opacity: 1; stroke-width: 0px; fill: rgb(234, 126, 214); fill-opacity: 1;"/><path class="point" transform="translate(283.72,134.52)" d="M3,0A3,3 0 1,1 0,-3A3,3 0 0,1 3,0Z" style="opacity: 1; stroke-width: 0px; fill: rgb(234, 126, 214); fill-opacity: 1;"/><path class="point" transform="translate(320.83,379.51)" d="M3,0A3,3 0 1,1 0,-3A3,3 0 0,1 3,0Z" style="opacity: 1; stroke-width: 0px; fill: rgb(234, 126, 214); fill-opacity: 1;"/><path class="point" transform="translate(357.94,277.51)" d="M3,0A3,3 0 1,1 0,-3A3,3 0 0,1 3,0Z" style="opacity: 1; stroke-width: 0px; fill: rgb(234, 126, 214); fill-opacity: 1;"/><path class="point" transform="translate(395.05,166.66)" d="M3,0A3,3 0 1,1 0,-3A3,3 0 0,1 3,0Z" style="opacity: 1; stroke-width: 0px; fill: rgb(234, 126, 214); fill-opacity: 1;"/></g><g class="text"/></g><g class="trace scatter trace6554d7" style="stroke-miterlimit: 2; opacity: 1;"><g class="fills"/><g class="errorbars"/><g class="lines"><path class="js-line" d="M23.95,33.92L61.06,277.51L98.17,60.47L135.28,112.63L172.39,333.4L209.5,370.19L246.61,26L283.72,434L320.83,65.59L357.94,138.25L395.05,358.08" style="vector-effect: none; fill: none; stroke: rgb(12, 75, 153); stroke-opacity: 1; stroke-width: 2px; opacity: 1;"/></g><g class="points"><path class="point" transform="translate(23.95,33.92)" d="M3,0A3,3 0 1,1 0,-3A3,3 0 0,1 3,0Z" style="opacity: 1; stroke-width: 0px; fill: rgb(12, 75, 153); fill-opacity: 1;"/><path class="point" transform="translate(61.06,277.51)" d="M3,0A3,3 0 1,1 0,-3A3,3 0 0,1 3,0Z" style="opacity: 1; stroke-width: 0px; fill: rgb(12, 75, 153); fill-opacity: 1;"/><path class="point" transform="translate(98.17,60.47)" d="M3,0A3,3 0 1,1 0,-3A3,3 0 0,1 3,0Z" style="opacity: 1; stroke-width: 0px; fill: rgb(12, 75, 153); fill-opacity: 1;"/><path class="point" transform="translate(135.28,112.63)" d="M3,0A3,3 0 1,1 0,-3A3,3 0 0,1 3,0Z" style="opacity: 1; stroke-width: 0px; fill: rgb(12, 75, 153); fill-opacity: 1;"/><path class="point" transform="translate(172.39,333.4)" d="M3,0A3,3 0 1,1 0,-3A3,3 0 0,1 3,0Z" style="opacity: 1; stroke-width: 0px; fill: rgb(12, 75, 153); fill-opacity: 1;"/><path class="point" transform="translate(209.5,370.19)" d="M3,0A3,3 0 1,1 0,-3A3,3 0 0,1 3,0Z" style="opacity: 1; stroke-width: 0px; fill: rgb(12, 75, 153); fill-opacity: 1;"/><path class="point" transform="translate(246.61,26)" d="M3,0A3,3 0 1,1 0,-3A3,3 0 0,1 3,0Z" style="opacity: 1; stroke-width: 0px; fill: rgb(12, 75, 153); fill-opacity: 1;"/><path class="point" transform="translate(283.72,434)" d="M3,0A3,3 0 1,1 0,-3A3,3 0 0,1 3,0Z" style="opacity: 1; stroke-width: 0px; fill: rgb(12, 75, 153); fill-opacity: 1;"/><path class="point" transform="translate(320.83,65.59)" d="M3,0A3,3 0 1,1 0,-3A3,3 0 0,1 3,0Z" style="opacity: 1; stroke-width: 0px; fill: rgb(12, 75, 153); fill-opacity: 1;"/><path class="point" transform="translate(357.94,138.25)" d="M3,0A3,3 0 1,1 0,-3A3,3 0 0,1 3,0Z" style="opacity: 1; stroke-width: 0px; fill: rgb(12, 75, 153); fill-opacity: 1;"/><path class="point" transform="translate(395.05,358.08)" d="M3,0A3,3 0 1,1 0,-3A3,3 0 0,1 3,0Z" style="opacity: 1; stroke-width: 0px; fill: rgb(12, 75, 153); fill-opacity: 1;"/></g><g class="text"/></g><g class="trace scatter trace029f2c" style="stroke-miterlimit: 2; opacity: 1;"><g class="fills"/><g class="errorbars"/><g class="lines"><path class="js-line" d="M23.95,110.77L61.06,346.9L98.17,324.08L135.28,245.37L172.39,325.95L209.5,122.88L246.61,34.38L283.72,311.97L320.83,430.27L357.94,233.26L395.05,317.56" style="vector-effect: none; fill: none; stroke: rgb(239, 105, 226); stroke-opacity: 1; stroke-width: 2px; opacity: 1;"/></g><g class="points"><path class="point" transform="translate(23.95,110.77)" d="M3,0A3,3 0 1,1 0,-3A3,3 0 0,1 3,0Z" style="opacity: 1; stroke-width: 0px; fill: rgb(239, 105, 226); fill-opacity: 1;"/><path class="point" transform="translate(61.06,346.9)" d="M3,0A3,3 0 1,1 0,-3A3,3 0 0,1 3,0Z" style="opacity: 1; stroke-width: 0px; fill: rgb(239, 105, 226); fill-opacity: 1;"/><path class="point" transform="translate(98.17,324.08)" d="M3,0A3,3 0 1,1 0,-3A3,3 0 0,1 3,0Z" style="opacity: 1; stroke-width: 0px; fill: rgb(239, 105, 226); fill-opacity: 1;"/><path class="point" transform="translate(135.28,245.37)" d="M3,0A3,3 0 1,1 0,-3A3,3 0 0,1 3,0Z" style="opacity: 1; stroke-width: 0px; fill: rgb(239, 105, 226); fill-opacity: 1;"/><path class="point" transform="translate(172.39,325.95)" d="M3,0A3,3 0 1,1 0,-3A3,3 0 0,1 3,0Z" style="opacity: 1; stroke-width: 0px; fill: rgb(239, 105, 226); fill-opacity: 1;"/><path class="point" transform="translate(209.5,122.88)" d="M3,0A3,3 0 1,1 0,-3A3,3 0 0,1 3,0Z" style="opacity: 1; stroke-width: 0px; fill: rgb(239, 105, 226); fill-opacity: 1;"/><path class="point" transform="translate(246.61,34.38)" d="M3,0A3,3 0 1,1 0,-3A3,3 0 0,1 3,0Z" style="opacity: 1; stroke-width: 0px; fill: rgb(239, 105, 226); fill-opacity: 1;"/><path class="point" transform="translate(283.72,311.97)" d="M3,0A3,3 0 1,1 0,-3A3,3 0 0,1 3,0Z" style="opacity: 1; stroke-width: 0px; fill: rgb(239, 105, 226); fill-opacity: 1;"/><path class="point" transform="translate(320.83,430.27)" d="M3,0A3,3 0 1,1 0,-3A3,3 0 0,1 3,0Z" style="opacity: 1; stroke-width: 0px; fill: rgb(239, 105, 226); fill-opacity: 1;"/><path class="point" transform="translate(357.94,233.26)" d="M3,0A3,3 0 1,1 0,-3A3,3 0 0,1 3,0Z" style="opacity: 1; stroke-width: 0px; fill: rgb(239, 105, 226); fill-opacity: 1;"/><path class="point" transform="translate(395.05,317.56)" d="M3,0A3,3 0 1,1 0,-3A3,3 0 0,1 3,0Z" style="opacity: 1; stroke-width: 0px; fill: rgb(239, 105, 226); fill-opacity: 1;"/></g><g class="text"/></g></g></g><g class="overplot"/><path class="xlines-above crisp" d="M0,0" style="fill: none;"/><path class="ylines-above crisp" d="M79.5,60V520" style="fill: none; stroke-width: 1px; stroke: rgb(255, 255, 255); stroke-opacity: 1;"/><g class="overlines-above"/><g class="xaxislayer-above"><g class="xtick"><text text-anchor="start" x="1.9249999999999998" y="526.5" transform="translate(103.95,0) rotate(90,1.9249999999999998,521)" style="font-family: serif; font-size: 11px; fill: rgb(0, 0, 0); fill-opacity: 1; white-space: pre; opacity: 1;">Jan</text></g><g class="xtick"><text text-anchor="start" x="1.9249999999999998" y="526.5" transform="translate(141.06,0) rotate(90,1.9249999999999998,521)" style="font-family: serif; font-size: 11px; fill: rgb(0, 0, 0); fill-opacity: 1; white-space: pre; opacity: 1;">Feb</text></g><g class="xtick"><text text-anchor="start" x="1.9249999999999998" y="526.5" transform="translate(178.17000000000002,0) rotate(90,1.9249999999999998,521)" style="font-family: serif; font-size: 11px; fill: rgb(0, 0, 0); fill-opacity: 1; white-space: pre; opacity: 1;">Mar</text></g><g class="xtick"><text text-anchor="start" x="1.9249999999999998" y="526.5" transform="translate(215.28,0) rotate(90,1.9249999999999998,521)" style="font-family: serif; font-size: 11px; fill: rgb(0, 0, 0); fill-opacity: 1; white-space: pre; opacity: 1;">Apr</text></g><g class="xtick"><text text-anchor="start" x="1.9249999999999998" y="526.5" transform="translate(252.39,0) rotate(90,1.9249999999999998,521)" style="font-family: serif; font-size: 11px; fill: rgb(0, 0, 0); fill-opacity: 1; white-space: pre; opacity: 1;">May</text></g><g class="xtick"><text text-anchor="start" x="1.9249999999999998" y="526.5" transform="translate(289.5,0) rotate(90,1.9249999999999998,521)" style="font-family: serif; font-size: 11px; fill: rgb(0, 0, 0); fill-opacity: 1; white-space: pre; opacity: 1;">June</text></g><g class="xtick"><text text-anchor="start" x="1.9249999999999998" y="526.5" transform="translate(326.61,0) rotate(90,1.9249999999999998,521)" style="font-family: serif; font-size: 11px; fill: rgb(0, 0, 0); fill-opacity: 1; white-space: pre; opacity: 1;">July</text></g><g class="xtick"><text text-anchor="start" x="1.9249999999999998" y="526.5" transform="translate(363.72,0) rotate(90,1.9249999999999998,521)" style="font-family: serif; font-size: 11px; fill: rgb(0, 0, 0); fill-opacity: 1; white-space: pre; opacity: 1;">Aug</text></g><g class="xtick"><text text-anchor="start" x="1.9249999999999998" y="526.5" transform="translate(400.83,0) rotate(90,1.9249999999999998,521)" style="font-family: serif; font-size: 11px; fill: rgb(0, 0, 0); fill-opacity: 1; white-space: pre; opacity: 1;">Sep</text></g><g class="xtick"><text text-anchor="start" x="1.9249999999999998" y="526.5" transform="translate(437.94,0) rotate(90,1.9249999999999998,521)" style="font-family: serif; font-size: 11px; fill: rgb(0, 0, 0); fill-opacity: 1; white-space: pre; opacity: 1;">Oct</text></g><g class="xtick"><text text-anchor="start" x="1.9249999999999998" y="526.5" transform="translate(475.05,0) rotate(90,1.9249999999999998,521)" style="font-family: serif; font-size: 11px; fill: rgb(0, 0, 0); fill-opacity: 1; white-space: pre; opacity: 1;">Nov</text></g></g><g class="yaxislayer-above"><g class="ytick"><text text-anchor="end" x="76.8" y="3.8499999999999996" transform="translate(0,497.73)" style="font-family: serif; font-size: 11px; fill: rgb(0, 0, 0); fill-opacity: 1; white-space: pre; opacity: 1;">0</text></g><g class="ytick"><text text-anchor="end" x="76.8" y="3.8499999999999996" style="font-family: serif; font-size: 11px; fill: rgb(0, 0, 0); fill-opacity: 1; white-space: pre; opacity: 1;" transform="translate(0,451.15)">100</text></g><g class="ytick"><text text-anchor="end" x="76.8" y="3.8499999999999996" style="font-family: serif; font-size: 11px; fill: rgb(0, 0, 0); fill-opacity: 1; white-space: pre; opacity: 1;" transform="translate(0,404.58)">200</text></g><g class="ytick"><text text-anchor="end" x="76.8" y="3.8499999999999996" style="font-family: serif; font-size: 11px; fill: rgb(0, 0, 0); fill-opacity: 1; white-space: pre; opacity: 1;" transform="translate(0,358)">300</text></g><g class="ytick"><text text-anchor="end" x="76.8" y="3.8499999999999996" style="font-family: serif; font-size: 11px; fill: rgb(0, 0, 0); fill-opacity: 1; white-space: pre; opacity: 1;" transform="translate(0,311.41999999999996)">400</text></g><g class="ytick"><text text-anchor="end" x="76.8" y="3.8499999999999996" style="font-family: serif; font-size: 11px; fill: rgb(0, 0, 0); fill-opacity: 1; white-space: pre; opacity: 1;" transform="translate(0,264.85)">500</text></g><g class="ytick"><text text-anchor="end" x="76.8" y="3.8499999999999996" style="font-family: serif; font-size: 11px; fill: rgb(0, 0, 0); fill-opacity: 1; white-space: pre; opacity: 1;" transform="translate(0,218.27)">600</text></g><g class="ytick"><text text-anchor="end" x="76.8" y="3.8499999999999996" style="font-family: serif; font-size: 11px; fill: rgb(0, 0, 0); fill-opacity: 1; white-space: pre; opacity: 1;" transform="translate(0,171.7)">700</text></g><g class="ytick"><text text-anchor="end" x="76.8" y="3.8499999999999996" style="font-family: serif; font-size: 11px; fill: rgb(0, 0, 0); fill-opacity: 1; white-space: pre; opacity: 1;" transform="translate(0,125.12)">800</text></g><g class="ytick"><text text-anchor="end" x="76.8" y="3.8499999999999996" style="font-family: serif; font-size: 11px; fill: rgb(0, 0, 0); fill-opacity: 1; white-space: pre; opacity: 1;" transform="translate(0,78.55)">900</text></g></g><g class="overaxes-above"/></g></g><g class="polarlayer"/><g class="smithlayer"/><g class="ternarylayer"/><g class="geolayer"/><g class="funnelarealayer"/><g class="pielayer"/><g class="iciclelayer"/><g class="treemaplayer"/><g class="sunburstlayer"/><g class="glimages"/><defs id="topdefs-0c098a"><g class="clips"/><clipPath id="legend0c098a"><rect width="135" height="86" x="0" y="0"/></clipPath></defs><g class="layer-above"><g class="imagelayer"/><g class="shapelayer"/></g><g class="infolayer"><g class="legend" pointer-events="all" transform="translate(507.38,60)"><rect class="bg" shape-rendering="crispEdges" style="stroke: rgb(68, 68, 68); stroke-opacity: 1; fill: rgb(255, 255, 255); fill-opacity: 1; stroke-width: 0px;" width="135" height="86" x="0" y="0"/><g class="scrollbox" transform="" clip-path="url(#legend0c098a)"><text class="legendtitletext" text-anchor="start" x="2" y="18.2" style="font-family: serif; font-size: 14px; fill: rgb(42, 63, 95); fill-opacity: 1; white-space: pre;">gas set pull</text><g class="groups" transform=""><g class="traces" transform="translate(0,32.7)" style="opacity: 1;"><text class="legendtext" text-anchor="start" x="40" y="4.680000000000001" style="font-family: serif; font-size: 12px; fill: rgb(42, 63, 95); fill-opacity: 1; white-space: pre;">nature always few</text><g class="layers" style="opacity: 1;"><g class="legendfill"/><g class="legendlines"><path class="js-line" d="M5,0h30" style="fill: none; stroke: rgb(234, 126, 214); stroke-opacity: 1; stroke-width: 2px;"/></g><g class="legendsymbols"><g class="legendpoints"><path class="scatterpts" transform="translate(20,0)" d="M1,0A1,1 0 1,1 0,-1A1,1 0 0,1 1,0Z" style="opacity: 1; stroke-width: 0px; fill: rgb(234, 126, 214); fill-opacity: 1;"/></g></g></g><rect class="legendtoggle" x="0" y="-9.5" width="129.640625" height="19" style="fill: rgb(0, 0, 0); fill-opacity: 0;"/></g></g><g class="groups" transform=""><g class="traces" transform="translate(0,51.7)" style="opacity: 1;"><text class="legendtext" text-anchor="start" x="40" y="4.680000000000001" style="font-family: serif; font-size: 12px; fill: rgb(42, 63, 95); fill-opacity: 1; white-space: pre;">model carry long</text><g class="layers" style="opacity: 1;"><g class="legendfill"/><g class="legendlines"><path class="js-line" d="M5,0h30" style="fill: none; stroke: rgb(12, 75, 153); stroke-opacity: 1; stroke-width: 2px;"/></g><g class="legendsymbols"><g class="legendpoints"><path class="scatterpts" transform="translate(20,0)" d="M1,0A1,1 0 1,1 0,-1A1,1 0 0,1 1,0Z" style="opacity: 1; stroke-width: 0px; fill: rgb(12, 75, 153); fill-opacity: 1;"/></g></g></g><rect class="legendtoggle" x="0" y="-9.5" width="129.640625" height="19" style="fill: rgb(0, 0, 0); fill-opacity: 0;"/></g></g><g class="groups" transform=""><g class="traces" transform="translate(0,70.7)" style="opacity: 1;"><text class="legendtext" text-anchor="start" x="40" y="4.680000000000001" style="font-family: serif; font-size: 12px; fill: rgb(42, 63, 95); fill-opacity: 1; white-space: pre;">system now every</text><g class="layers" style="opacity: 1;"><g class="legendfill"/><g class="legendlines"><path class="js-line" d="M5,0h30" style="fill: none; stroke: rgb(239, 105, 226); stroke-opacity: 1; stroke-width: 2px;"/></g><g class="legendsymbols"><g class="legendpoints"><path class="scatterpts" transform="translate(20,0)" d="M1,0A1,1 0 1,1 0,-1A1,1 0 0,1 1,0Z" style="opacity: 1; stroke-width: 0px; fill: rgb(239, 105, 226); fill-opacity: 1;"/></g></g></g><rect class="legendtoggle" x="0" y="-9.5" width="129.640625" height="19" style="fill: rgb(0, 0, 0); fill-opacity: 0;"/></g></g></g><rect class="scrollbar" rx="20" ry="3" width="0" height="0" style="fill: rgb(128, 139, 164); fill-opacity: 1;" x="0" y="0"/></g><g class="g-gtitle"><text class="gtitle" x="327" y="30" text-anchor="end" dy="0em" style="font-family: serif; font-size: 25px; fill: rgb(0, 0, 0); opacity: 1; font-weight: normal; white-space: pre;">establish behind father</text></g><g class="g-xtitle"/><g class="g-ytitle"><text class="ytitle" transform="rotate(-90,34.996875,290)" x="34.996875" y="290" text-anchor="middle" style="font-family: serif; font-size: 14px; fill: rgb(0, 0, 0); opacity: 1; font-weight: normal; white-space: pre;">lawyer son mother</text></g></g></svg>