<svg class="main-svg" xmlns="http://www.w3.org/2000/svg" xmlns:xlink="http://www.w3.org/1999/xlink" width="885" height="600" style="" viewBox="0 0 885 600"><rect x="0" y="0" width="885" height="600" style="fill: rgb(255, 255, 255); fill-opacity: 1;"/><defs id="defs-f162d2"><g class="clips"><clipPath id="clipf162d2xyplot" class="plotclip"><rect width="647" height="460"/></clipPath><clipPath class="axesclip" id="clipf162d2x"><rect x="80" y="0" width="647" height="600"/></clipPath><clipPath class="axesclip" id="clipf162d2y"><rect x="0" y="60" width="885" height="460"/></clipPath><clipPath class="axesclip" id="clipf162d2xy"><rect x="80" y="60" width="647" height="460"/></clipPath></g><g class="gradients"/><g class="patterns"/></defs><g class="bglayer"><rect class="bg" x="80" y="60" width="647" height="460" style="fill: rgb(255, 255, 255); fill-opacity: 1; stroke-width: 0;"/></g><g class="layer-below"><g class="imagelayer"/><g class="shapelayer"/></g><g class="cartesianlayer"><g class="subplot xy"><g class="layer-subplot"><g class="shapelayer"/><g class="imagelayer"/></g><g class="minor-gridlayer"><g class="x"/><g class="y"/></g><g class="gridlayer"><g class="x"><path class="xgrid crisp" transform="translate(115.35,0)" d="M0,60v460" style="stroke: rgb(208, 208, 208); stroke-opacity: 1; stroke-width: 1px;"/><path class="xgrid crisp" transform="translate(167.74,0)" d="M0,60v460" style="stroke: rgb(208, 208, 208); stroke-opacity: 1; stroke-width: 1px;"/><path class="xgrid crisp" transform="translate(220.13,0)" d="M0,60v460" style="stroke: rgb(208, 208, 208); stroke-opacity: 1; stroke-width: 1px;"/><path class="xgrid crisp" transform="translate(272.52,0)" d="M0,60v460" style="stroke: rgb(208, 208, 208); stroke-opacity: 1; stroke-width: 1px;"/><path class="xgrid crisp" transform="translate(324.90999999999997,0)" d="M0,60v460" style="stroke: rgb(208, 208, 208); stroke-opacity: 1; stroke-width: 1px;"/><path class="xgrid crisp" transform="translate(377.3,0)" d="M0,60v460" style="stroke: rgb(208, 208, 208); stroke-opacity: 1; stroke-width: 1px;"/><path class="xgrid crisp" transform="translate(429.7,0)" d="M0,60v460" style="stroke: rgb(208, 208, 208); stroke-opacity: 1; stroke-width: 1px;"/><path class="xgrid crisp" transform="translate(482.09,0)" d="M0,60v460" style="stroke: rgb(208, 208, 208); stroke-opacity: 1; stroke-width: 1px;"/><path class="xgrid crisp" transform="translate(534.48,0)" d="M0,60v460" style="stroke: rgb(208, 208, 208); stroke-opacity: 1; stroke-width: 1px;"/><path class="xgrid crisp" transform="translate(586.87,0)" d="M0,60v460" style="stroke: rgb(208, 208, 208); stroke-opacity: 1; stroke-width: 1px;"/><path class="xgrid crisp" transform="translate(639.26,0)" d="M0,60v460" style="stroke: rgb(208, 208, 208); stroke-opacity: 1; stroke-width: 1px;"/><path class="xgrid crisp" transform="translate(691.65,0)" d="M0,60v460" style="stroke: rgb(208, 208, 208); stroke-opacity: 1; stroke-width: 1px;"/></g><g class="y"/></g><g class="zerolinelayer"><path class="yzl zl crisp" transform="translate(0,504.71)" d="M80,0h647" style="stroke: rgb(255, 255, 255); stroke-opacity: 1; stroke-width: 2px;"/></g><path class="xlines-below"/><path class="ylines-below"/><g class="overlines-below"/><g class="xaxislayer-below"/><g class="yaxislayer-below"/><g class="overaxes-below"/><g class="plot" transform="translate(80,60)" clip-path="url(#clipf162d2xyplot)"><g class="scatterlayer mlayer"><g class="trace scatter traced928cf" style="stroke-miterlimit: 2; opacity: 1;"><g class="fills"/><g class="errorbars"/><g class="lines"><path class="js-line" d="M35.35,419.01L87.74,415.8L140.13,367.61L192.52,307.64L244.91,278.72L297.3,143.8L349.7,240.17L402.09,194.13L454.48,426.5L506.87,171.64L559.26,211.26L611.65,187.7" style="vector-effect: none; fill: none; stroke: rgb(209, 2, 112); stroke-opacity: 1; stroke-width: 2px; opacity: 1;"/></g><g class="points"><path class="point" transform="translate(35.35,419.01)" d="M2,0A2,2 0 1,1 0,-2A2,2 0 0,1 2,0Z" style="opacity: 1; stroke: rgb(209, 2, 112); stroke-opacity: 1; stroke-width: 1px; fill: none;"/><path class="point" transform="translate(87.74,415.8)" d="M2,0A2,2 0 1,1 0,-2A2,2 0 0,1 2,0Z" style="opacity: 1; stroke: rgb(209, 2, 112); stroke-opacity: 1; stroke-width: 1px; fill: none;"/><path class="point" transform="translate(140.13,367.61)" d="M2,0A2,2 0 1,1 0,-2A2,2 0 0,1 2,0Z" style="opacity: 1; stroke: rgb(209, 2, 112); stroke-opacity: 1; stroke-width: 1px; fill: none;"/><path class="point" transform="translate(192.52,307.64)" d="M2,0A2,2 0 1,1 0,-2A2,2 0 0,1 2,0Z" style="opacity: 1; stroke: rgb(209, 2, 112); stroke-opacity: 1; stroke-width: 1px; fill: none;"/><path class="point" transform="translate(244.91,278.72)" d="M2,0A2,2 0 1,1 0,-2A2,2 0 0,1 2,0Z" style="opacity: 1; stroke: rgb(209, 2, 112); stroke-opacity: 1; stroke-width: 1px; fill: none;"/><path class="point" transform="translate(297.3,143.8)" d="M2,0A2,2 0 1,1 0,-2A2,2 0 0,1 2,0Z" style="opacity: 1; stroke: rgb(209, 2, 112); stroke-opacity: 1; stroke-width: 1px; fill: none;"/><path class="point" transform="translate(349.7,240.17)" d="M2,0A2,2 0 1,1 0,-2A2,2 0 0,1 2,0Z" style="opacity: 1; stroke: rgb(209, 2, 112); stroke-opacity: 1; stroke-width: 1px; fill: none;"/><path class="point" transform="translate(402.09,194.13)" d="M2,0A2,2 0 1,1 0,-2A2,2 0 0,1 2,0Z" style="opacity: 1; stroke: rgb(209, 2, 112); stroke-opacity: 1; stroke-width: 1px; fill: none;"/><path class="point" transform="translate(454.48,426.5)" d="M2,0A2,2 0 1,1 0,-2A2,2 0 0,1 2,0Z" style="opacity: 1; stroke: rgb(209, 2, 112); stroke-opacity: 1; stroke-width: 1px; fill: none;"/><path class="point" transform="translate(506.87,171.64)" d="M2,0A2,2 0 1,1 0,-2A2,2 0 0,1 2,0Z" style="opacity: 1; stroke: rgb(209, 2, 112); stroke-opacity: 1; stroke-width: 1px; fill: none;"/><path class="point" transform="translate(559.26,211.26)" d="M2,0A2,2 0 1,1 0,-2A2,2 0 0,1 2,0Z" style="opacity: 1; stroke: rgb(209, 2, 112); stroke-opacity: 1; stroke-width: 1px; fill: none;"/><path class="point" transform="translate(611.65,187.7)" d="M2,0A2,2 0 1,1 0,-2A2,2 0 0,1 2,0Z" style="opacity: 1; stroke: rgb(209, 2, 112); stroke-opacity: 1; stroke-width: 1px; fill: none;"/></g><g class="text"/></g><g class="trace scatter tracebf67fb" style="stroke-miterlimit: 2; opacity: 1;"><g class="fills"/><g class="errorbars"/><g class="lines"><path class="js-line" d="M35.35,200.55L87.74,64.55L140.13,35.64L192.52,136.3L244.91,212.33L297.3,336.55L349.7,94.54L402.09,193.06L454.48,335.48L506.87,397.59L559.26,331.2L611.65,196.27" style="vector-effect: none; fill: none; stroke: rgb(203, 224, 96); stroke-opacity: 1; stroke-width: 2px; opacity: 1;"/></g><g class="points"><path class="point" transform="translate(35.35,200.55)" d="M2,0A2,2 0 1,1 0,-2A2,2 0 0,1 2,0Z" style="opacity: 1; stroke: rgb(203, 224, 96); stroke-opacity: 1; stroke-width: 1px; fill: none;"/><path class="point" transform="translate(87.74,64.55)" d="M2,0A2,2 0 1,1 0,-2A2,2 0 0,1 2,0Z" style="opacity: 1; stroke: rgb(203, 224, 96); stroke-opacity: 1; stroke-width: 1px; fill: none;"/><path class="point" transform="translate(140.13,35.64)" d="M2,0A2,2 0 1,1 0,-2A2,2 0 0,1 2,0Z" style="opacity: 1; stroke: rgb(203, 224, 96); stroke-opacity: 1; stroke-width: 1px; fill: none;"/><path class="point" transform="translate(192.52,136.3)" d="M2,0A2,2 0 1,1 0,-2A2,2 0 0,1 2,0Z" style="opacity: 1; stroke: rgb(203, 224, 96); stroke-opacity: 1; stroke-width: 1px; fill: none;"/><path class="point" transform="translate(244.91,212.33)" d="M2,0A2,2 0 1,1 0,-2A2,2 0 0,1 2,0Z" style="opacity: 1; stroke: rgb(203, 224, 96); stroke-opacity: 1; stroke-width: 1px; fill: none;"/><path class="point" transform="translate(297.3,336.55)" d="M2,0A2,2 0 1,1 0,-2A2,2 0 0,1 2,0Z" style="opacity: 1; stroke: rgb(203, 224, 96); stroke-opacity: 1; stroke-width: 1px; fill: none;"/><path class="point" transform="translate(349.7,94.54)" d="M2,0A2,2 0 1,1 0,-2A2,2 0 0,1 2,0Z" style="opacity: 1; stroke: rgb(203, 224, 96); stroke-opacity: 1; stroke-width: 1px; fill: none;"/><path class="point" transform="translate(402.09,193.06)" d="M2,0A2,2 0 1,1 0,-2A2,2 0 0,1 2,0Z" style="opacity: 1; stroke: rgb(203, 224, 96); stroke-opacity: 1; stroke-width: 1px; fill: none;"/><path class="point" transform="translate(454.48,335.48)" d="M2,0A2,2 0 1,1 0,-2A2,2 0 0,1 2,0Z" style="opacity: 1; stroke: rgb(203, 224, 96); stroke-opacity: 1; stroke-width: 1px; fill: none;"/><path class="point" transform="translate(506.87,397.59)" d="M2,0A2,2 0 1,1 0,-2A2,2 0 0,1 2,0Z" style="opacity: 1; stroke: rgb(203, 224, 96); stroke-opacity: 1; stroke-width: 1px; fill: none;"/><path class="point" transform="translate(559.26,331.2)" d="M2,0A2,2 0 1,1 0,-2A2,2 0 0,1 2,0Z" style="opacity: 1; stroke: rgb(203, 224, 96); stroke-opacity: 1; stroke-width: 1px; fill: none;"/><path class="point" transform="translate(611.65,196.27)" d="M2,0A2,2 0 1,1 0,-2A2,2 0 0,1 2,0Z" style="opacity: 1; stroke: rgb(203, 224, 96); stroke-opacity: 1; stroke-width: 1px; fill: none;"/></g><g class="text"/></g><g class="trace scatter trace025ac8" style="stroke-miterlimit: 2; opacity: 1;"><g class="fills"/><g class="errorbars"/><g class="lines"><path class="js-line" d="M35.35,322.63L87.74,187.7L140.13,117.02L192.52,221.97L244.91,75.26L297.3,48.49L349.7,261.59L402.09,72.05L454.48,383.67L506.87,119.17L559.26,421.15L611.65,434" style="vector-effect: none; fill: none; stroke: rgb(159, 134, 216); stroke-opacity: 1; stroke-width: 2px; opacity: 1;"/></g><g class="points"><path class="point" transform="translate(35.35,322.63)" d="M2,0A2,2 0 1,1 0,-2A2,2 0 0,1 2,0Z" style="opacity: 1; stroke: rgb(159, 134, 216); stroke-opacity: 1; stroke-width: 1px; fill: none;"/><path class="point" transform="translate(87.74,187.7)" d="M2,0A2,2 0 1,1 0,-2A2,2 0 0,1 2,0Z" style="opacity: 1; stroke: rgb(159, 134, 216); stroke-opacity: 1; stroke-width: 1px; fill: none;"/><path class="point" transform="translate(140.13,117.02)" d="M2,0A2,2 0 1,1 0,-2A2,2 0 0,1 2,0Z" style="opacity: 1; stroke: rgb(159, 134, 216); stroke-opacity: 1; stroke-width: 1px; fill: none;"/><path class="point" transform="translate(192.52,221.97)" d="M2,0A2,2 0 1,1 0,-2A2,2 0 0,1 2,0Z" style="opacity: 1; stroke: rgb(159, 134, 216); stroke-opacity: 1; stroke-width: 1px; fill: none;"/><path class="point" transform="translate(244.91,75.26)" d="M2,0A2,2 0 1,1 0,-2A2,2 0 0,1 2,0Z" style="opacity: 1; stroke: rgb(159, 134, 216); stroke-opacity: 1; stroke-width: 1px; fill: none;"/><path class="point" transform="translate(297.3,48.49)" d="M2,0A2,2 0 1,1 0,-2A2,2 0 0,1 2,0Z" style="opacity: 1; stroke: rgb(159, 134, 216); stroke-opacity: 1; stroke-width: 1px; fill: none;"/><path class="point" transform="translate(349.7,261.59)" d="M2,0A2,2 0 1,1 0,-2A2,2 0 0,1 2,0Z" style="opacity: 1; stroke: rgb(159, 134, 216); stroke-opacity: 1; stroke-width: 1px; fill: none;"/><path class="point" transform="translate(402.09,72.05)" d="M2,0A2,2 0 1,1 0,-2A2,2 0 0,1 2,0Z" style="opacity: 1; stroke: rgb(159, 134, 216); stroke-opacity: 1; stroke-width: 1px; fill: none;"/><path class="point" transform="translate(454.48,383.67)" d="M2,0A2,2 0 1,1 0,-2A2,2 0 0,1 2,0Z" style="opacity: 1; stroke: rgb(159, 134, 216); stroke-opacity: 1; stroke-width: 1px; fill: none;"/><path class="point" transform="translate(506.87,119.17)" d="M2,0A2,2 0 1,1 0,-2A2,2 0 0,1 2,0Z" style="opacity: 1; stroke: rgb(159, 134, 216); stroke-opacity: 1; stroke-width: 1px; fill: none;"/><path class="point" transform="translate(559.26,421.15)" d="M2,0A2,2 0 1,1 0,-2A2,2 0 0,1 2,0Z" style="opacity: 1; stroke: rgb(159, 134, 216); stroke-opacity: 1; stroke-width: 1px; fill: none;"/><path class="point" transform="translate(611.65,434)" d="M2,0A2,2 0 1,1 0,-2A2,2 0 0,1 2,0Z" style="opacity: 1; stroke: rgb(159, 134, 216); stroke-opacity: 1; stroke-width: 1px; fill: none;"/></g><g class="text"/></g><g class="trace scatter trace49694f" style="stroke-miterlimit: 2; opacity: 1;"><g class="fills"/><g class="errorbars"/><g class="lines"><path class="js-line" d="M35.35,401.87L87.74,325.84L140.13,206.98L192.52,100.96L244.91,393.31L297.3,144.87L349.7,57.06L402.09,261.59L454.48,274.44L506.87,26L559.26,96.68L611.65,125.59" style="vector-effect: none; fill: none; stroke: rgb(112, 229, 130); stroke-opacity: 1; stroke-width: 2px; opacity: 1;"/></g><g class="points"><path class="point" transform="translate(35.35,401.87)" d="M2,0A2,2 0 1,1 0,-2A2,2 0 0,1 2,0Z" style="opacity: 1; stroke: rgb(112, 229, 130); stroke-opacity: 1; stroke-width: 1px; fill: none;"/><path class="point" transform="translate(87.74,325.84)" d="M2,0A2,2 0 1,1 0,-2A2,2 0 0,1 2,0Z" style="opacity: 1; stroke: rgb(112, 229, 130); stroke-opacity: 1; stroke-width: 1px; fill: none;"/><path class="point" transform="translate(140.13,206.98)" d="M2,0A2,2 0 1,1 0,-2A2,2 0 0,1 2,0Z" style="opacity: 1; stroke: rgb(112, 229, 130); stroke-opacity: 1; stroke-width: 1px; fill: none;"/><path class="point" transform="translate(192.52,100.96)" d="M2,0A2,2 0 1,1 0,-2A2,2 0 0,1 2,0Z" style="opacity: 1; stroke: rgb(112, 229, 130); stroke-opacity: 1; stroke-width: 1px; fill: none;"/><path class="point" transform="translate(244.91,393.31)" d="M2,0A2,2 0 1,1 0,-2A2,2 0 0,1 2,0Z" style="opacity: 1; stroke: rgb(112, 229, 130); stroke-opacity: 1; stroke-width: 1px; fill: none;"/><path class="point" transform="translate(297.3,144.87)" d="M2,0A2,2 0 1,1 0,-2A2,2 0 0,1 2,0Z" style="opacity: 1; stroke: rgb(112, 229, 130); stroke-opacity: 1; stroke-width: 1px; fill: none;"/><path class="point" transform="translate(349.7,57.06)" d="M2,0A2,2 0 1,1 0,-2A2,2 0 0,1 2,0Z" style="opacity: 1; stroke: rgb(112, 229, 130); stroke-opacity: 1; stroke-width: 1px; fill: none;"/><path class="point" transform="translate(402.09,261.59)" d="M2,0A2,2 0 1,1 0,-2A2,2 0 0,1 2,0Z" style="opacity: 1; stroke: rgb(112, 229, 130); stroke-opacity: 1; stroke-width: 1px; fill: none;"/><path class="point" transform="translate(454.48,274.44)" d="M2,0A2,2 0 1,1 0,-2A2,2 0 0,1 2,0Z" style="opacity: 1; stroke: rgb(112, 229, 130); stroke-opacity: 1; stroke-width: 1px; fill: none;"/><path class="point" transform="translate(506.87,26)" d="M2,0A2,2 0 1,1 0,-2A2,2 0 0,1 2,0Z" style="opacity: 1; stroke: rgb(112, 229, 130); stroke-opacity: 1; stroke-width: 1px; fill: none;"/><path class="point" transform="translate(559.26,96.68)" d="M2,0A2,2 0 1,1 0,-2A2,2 0 0,1 2,0Z" style="opacity: 1; stroke: rgb(112, 229, 130); stroke-opacity: 1; stroke-width: 1px; fill: none;"/><path class="point" transform="translate(611.65,125.59)" d="M2,0A2,2 0 1,1 0,-2A2,2 0 0,1 2,0Z" style="opacity: 1; stroke: rgb(112, 229, 130); stroke-opacity: 1; stroke-width: 1px; fill: none;"/></g><g class="text"/></g></g></g><g class="overplot"/><path class="xlines-above crisp" d="M0,0" style="fill: none;"/><path class="ylines-above crisp" d="M79.5,60V520" style="fill: none; stroke-width: 1px; stroke: rgb(255, 255, 255); stroke-opacity: 1;"/><g class="overlines-above"/><g class="xaxislayer-above"><g class="xtick"><text text-anchor="start" x="0" y="540" transform="translate(115.35,0) rotate(45,0,530.5)" style="font-family: Balto; font-size: 19px; fill: rgb(0, 0, 0); fill-opacity: 1; white-space: pre; opacity: 1;">Jan</text></g><g class="xtick"><text text-anchor="start" x="0" y="540" transform="translate(167.74,0) rotate(45,0,530.5)" style="font-family: Balto; font-size: 19px; fill: rgb(0, 0, 0); fill-opacity: 1; white-space: pre; opacity: 1;">Feb</text></g><g class="xtick"><text text-anchor="start" x="0" y="540" transform="translate(220.13,0) rotate(45,0,530.5)" style="font-family: Balto; font-size: 19px; fill: rgb(0, 0, 0); fill-opacity: 1; white-space: pre; opacity: 1;">Mar</text></g><g class="xtick"><text text-anchor="start" x="0" y="540" transform="translate(272.52,0) rotate(45,0,530.5)" style="font-family: Balto; font-size: 19px; fill: rgb(0, 0, 0); fill-opacity: 1; white-space: pre; opacity: 1;">Apr</text></g><g class="xtick"><text text-anchor="start" x="0" y="540" transform="translate(324.90999999999997,0) rotate(45,0,530.5)" style="font-family: Balto; font-size: 19px; fill: rgb(0, 0, 0); fill-opacity: 1; white-space: pre; opacity: 1;">May</text></g><g class="xtick"><text text-anchor="start" x="0" y="540" transform="translate(377.3,0) rotate(45,0,530.5)" style="font-family: Balto; font-size: 19px; fill: rgb(0, 0, 0); fill-opacity: 1; white-space: pre; opacity: 1;">June</text></g><g class="xtick"><text text-anchor="start" x="0" y="540" transform="translate(429.7,0) rotate(45,0,530.5)" style="font-family: Balto; font-size: 19px; fill: rgb(0, 0, 0); fill-opacity: 1; white-space: pre; opacity: 1;">July</text></g><g class="xtick"><text text-anchor="start" x="0" y="540" transform="translate(482.09,0) rotate(45,0,530.5)" style="font-family: Balto; font-size: 19px; fill: rgb(0, 0, 0); fill-opacity: 1; white-space: pre; opacity: 1;">Aug</text></g><g class="xtick"><text text-anchor="start" x="0" y="540" transform="translate(534.48,0) rotate(45,0,530.5)" style="font-family: Balto; font-size: 19px; fill: rgb(0, 0, 0); fill-opacity: 1; white-space: pre; opacity: 1;">Sep</text></g><g class="xtick"><text text-anchor="start" x="0" y="540" transform="translate(586.87,0) rotate(45,0,530.5)" style="font-family: Balto; font-size: 19px; fill: rgb(0, 0, 0); fill-opacity: 1; white-space: pre; opacity: 1;">Oct</text></g><g class="xtick"><text text-anchor="start" x="0" y="540" transform="translate(639.26,0) rotate(45,0,530.5)" style="font-family: Balto; font-size: 19px; fill: rgb(0, 0, 0); fill-opacity: 1; white-space: pre; opacity: 1;">Nov</text></g><g class="xtick"><text text-anchor="start" x="0" y="540" transform="translate(691.65,0) rotate(45,0,530.5)" style="font-family: Balto; font-size: 19px; fill: rgb(0, 0, 0); fill-opacity: 1; white-space: pre; opacity: 1;">Dec</text></g></g><g class="yaxislayer-above"><g class="ytick"><text text-anchor="end" x="75.2" y="6.6499999999999995" transform="translate(0,504.71)" style="font-family: Balto; font-size: 19px; fill: rgb(0, 0, 0); fill-opacity: 1; white-space: pre; opacity: 1;">0</text></g><g class="ytick"><text text-anchor="end" x="75.2" y="6.6499999999999995" style="font-family: Balto; font-size: 19px; fill: rgb(0, 0, 0); fill-opacity: 1; white-space: pre; opacity: 1;" transform="translate(0,451.17)">50</text></g><g class="ytick"><text text-anchor="end" x="75.2" y="6.6499999999999995" style="font-family: Balto; font-size: 19px; fill: rgb(0, 0, 0); fill-opacity: 1; white-space: pre; opacity: 1;" transform="translate(0,397.62)">100</text></g><g class="ytick"><text text-anchor="end" x="75.2" y="6.6499999999999995" style="font-family: Balto; font-size: 19px; fill: rgb(0, 0, 0); fill-opacity: 1; white-space: pre; opacity: 1;" transform="translate(0,344.08)">150</text></g><g class="ytick"><text text-anchor="end" x="75.2" y="6.6499999999999995" style="font-family: Balto; font-size: 19px; fill: rgb(0, 0, 0); fill-opacity: 1; white-space: pre; opacity: 1;" transform="translate(0,290.53999999999996)">200</text></g><g class="ytick"><text text-anchor="end" x="75.2" y="6.6499999999999995" style="font-family: Balto; font-size: 19px; fill: rgb(0, 0, 0); fill-opacity: 1; white-space: pre; opacity: 1;" transform="translate(0,236.99)">250</text></g><g class="ytick"><text text-anchor="end" x="75.2" y="6.6499999999999995" style="font-family: Balto; font-size: 19px; fill: rgb(0, 0, 0); fill-opacity: 1; white-space: pre; opacity: 1;" transform="translate(0,183.45)">300</text></g><g class="ytick"><text text-anchor="end" x="75.2" y="6.6499999999999995" style="font-family: Balto; font-size: 19px; fill: rgb(0, 0, 0); fill-opacity: 1; white-space: pre; opacity: 1;" transform="translate(0,129.91)">350</text></g><g class="ytick"><text text-anchor="end" x="75.2" y="6.6499999999999995" style="font-family: Balto; font-size: 19px; fill: rgb(0, 0, 0); fill-opacity: 1; white-space: pre; opacity: 1;" transform="translate(0,76.36)">400</text></g></g><g class="overaxes-above"/></g></g><g class="polarlayer"/><g class="smithlayer"/><g class="ternarylayer"/><g class="geolayer"/><g class="funnelarealayer"/><g class="pielayer"/><g class="iciclelayer"/><g class="treemaplayer"/><g class="sunburstlayer"/><g class="glimages"/><defs id="topdefs-f162d2"><g class="clips"/><clipPath id="legendf162d2"><rect width="133" height="105" x="0" y="0"/></clipPath></defs><g class="layer-above"><g class="imagelayer"/><g class="shapelayer"/></g><g class="infolayer"><g class="legend" pointer-events="all" transform="translate(739.94,60)"><rect class="bg" shape-rendering="crispEdges" style="stroke: rgb(68, 68, 68); stroke-opacity: 1; fill: rgb(255, 255, 255); fill-opacity: 1; stroke-width: 0px;" width="133" height="105" x="0" y="0"/><g class="scrollbox" transform="" clip-path="url(#legendf162d2)"><text class="legendtitletext" text-anchor="start" x="2" y="18.2" style="font-family: Balto; font-size: 14px; fill: rgb(42, 63, 95); fill-opacity: 1; white-space: pre;">lawyer data dinner</text><g class="groups" transform=""><g class="traces" transform="translate(0,32.7)" style="opacity: 1;"><text class="legendtext" text-anchor="start" x="40" y="4.680000000000001" style="font-family: Balto; font-size: 12px; fill: rgb(42, 63, 95); fill-opacity: 1; white-space: pre;">seven group truth</text><g class="layers" style="opacity: 1;"><g class="legendfill"/><g class="legendlines"><path class="js-line" d="M5,0h30" style="fill: none; stroke: rgb(209, 2, 112); stroke-opacity: 1; stroke-width: 2px;"/></g><g class="legendsymbols"><g class="legendpoints"><path class="scatterpts" transform="translate(20,0)" d="M2,0A2,2 0 1,1 0,-2A2,2 0 0,1 2,0Z" style="opacity: 1; stroke: rgb(209, 2, 112); stroke-opacity: 1; stroke-width: 1px; fill: none;"/></g></g></g><rect class="legendtoggle" x="0" y="-9.5" width="127.984375" height="19" style="fill: rgb(0, 0, 0); fill-opacity: 0;"/></g></g><g class="groups" transform=""><g class="traces" transform="translate(0,51.7)" style="opacity: 1;"><text class="legendtext" text-anchor="start" x="40" y="4.680000000000001" style="font-family: Balto; font-size: 12px; fill: rgb(42, 63, 95); fill-opacity: 1; white-space: pre;">much least bill</text><g class="layers" style="opacity: 1;"><g class="legendfill"/><g class="legendlines"><path class="js-line" d="M5,0h30" style="fill: none; stroke: rgb(203, 224, 96); stroke-opacity: 1; stroke-width: 2px;"/></g><g class="legendsymbols"><g class="legendpoints"><path class="scatterpts" transform="translate(20,0)" d="M2,0A2,2 0 1,1 0,-2A2,2 0 0,1 2,0Z" style="opacity: 1; stroke: rgb(203, 224, 96); stroke-opacity: 1; stroke-width: 1px; fill: none;"/></g></g></g><rect class="legendtoggle" x="0" y="-9.5" width="127.984375" height="19" style="fill: rgb(0, 0, 0); fill-opacity: 0;"/></g></g><g class="groups" transform=""><g class="traces" transform="translate(0,70.7)" style="opacity: 1;"><text class="legendtext" text-anchor="start" x="40" y="4.680000000000001" style="font-family: Balto; font-size: 12px; fill: rgb(42, 63, 95); fill-opacity: 1; white-space: pre;">use politics face</text><g class="layers" style="opacity: 1;"><g class="legendfill"/><g class="legendlines"><path class="js-line" d="M5,0h30" style="fill: none; stroke: rgb(159, 134, 216); stroke-opacity: 1; stroke-width: 2px;"/></g><g class="legendsymbols"><g class="legendpoints"><path class="scatterpts" transform="translate(20,0)" d="M2,0A2,2 0 1,1 0,-2A2,2 0 0,1 2,0Z" style="opacity: 1; stroke: rgb(159, 134, 216); stroke-opacity: 1; stroke-width: 1px; fill: none;"/></g></g></g><rect class="legendtoggle" x="0" y="-9.5" width="127.984375" height="19" style="fill: rgb(0, 0, 0); fill-opacity: 0;"/></g></g><g class="groups" transform=""><g class="traces" transform="translate(0,89.7)" style="opacity: 1;"><text class="legendtext" text-anchor="start" x="40" y="4.680000000000001" style="font-family: Balto; font-size: 12px; fill: rgb(42, 63, 95); fill-opacity: 1; white-space: pre;">today have dinner</text><g class="layers" style="opacity: 1;"><g class="legendfill"/><g class="legendlines"><path class="js-line" d="M5,0h30" style="fill: none; stroke: rgb(112, 229, 130); stroke-opacity: 1; stroke-width: 2px;"/></g><g class="legendsymbols"><g class="legendpoints"><path class="scatterpts" transform="translate(20,0)" d="M2,0A2,2 0 1,1 0,-2A2,2 0 0,1 2,0Z" style="opacity: 1; stroke: rgb(112, 229, 130); stroke-opacity: 1; stroke-width: 1px; fill: none;"/></g></g></g><rect class="legendtoggle" x="0" y="-9.5" width="127.984375" height="19" style="fill: rgb(0, 0, 0); fill-opacity: 0;"/></g></g></g><rect class="scrollbar" rx="20" ry="3" width="0" height="0" style="fill: rgb(128, 139, 164); fill-opacity: 1;" x="0" y="0"/></g><g class="g-gtitle"><text class="gtitle" x="442.5" y="30" text-anchor="end" dy="0em" style="font-family: Balto; font-size: 25px; fill: rgb(0, 0, 0); opacity: 1; font-weight: normal; white-space: pre;">mission difficult success</text></g><g class="g-xtitle"/><g class="g-ytitle"><text class="ytitle" transform="rotate(-90,22.387500000000003,290)" x="22.387500000000003" y="290" text-anchor="middle" style="font-family: Balto; font-size: 14px; fill: rgb(0, 0, 0); opacity: 1; font-weight: normal; white-space: pre;">law within happen</text></g></g></svg>