<svg class="main-svg" xmlns="http://www.w3.org/2000/svg" xmlns:xlink="http://www.w3.org/1999/xlink" width="479" height="600" style="" viewBox="0 0 479 600"><rect x="0" y="0" width="479" height="600" style="fill: rgb(255, 255, 255); fill-opacity: 1;"/><defs id="defs-8634fd"><g class="clips"><clipPath id="clip8634fdxyplot" class="plotclip"><rect width="201" height="460"/></clipPath><clipPath class="axesclip" id="clip8634fdx"><rect x="80" y="0" width="201" height="600"/></clipPath><clipPath class="axesclip" id="clip8634fdy"><rect x="0" y="60" width="479" height="460"/></clipPath><clipPath class="axesclip" id="clip8634fdxy"><rect x="80" y="60" width="201" height="460"/></clipPath></g><g class="gradients"/><g class="patterns"/></defs><g class="bglayer"><rect class="bg" x="80" y="60" width="201" height="460" style="fill: rgb(255, 255, 255); fill-opacity: 1; stroke-width: 0;"/></g><g class="layer-below"><g class="imagelayer"/><g class="shapelayer"/></g><g class="cartesianlayer"><g class="subplot xy"><g class="layer-subplot"><g class="shapelayer"/><g class="imagelayer"/></g><g class="minor-gridlayer"><g class="x"/><g class="y"/></g><g class="gridlayer"><g class="x"><path class="xgrid crisp" transform="translate(110.53999999999999,0)" d="M0,60v460" style="stroke: rgb(208, 208, 208); stroke-opacity: 1; stroke-width: 1px;"/><path class="xgrid crisp" transform="translate(197.99,0)" d="M0,60v460" style="stroke: rgb(208, 208, 208); stroke-opacity: 1; stroke-width: 1px;"/></g><g class="y"/></g><g class="zerolinelayer"/><path class="xlines-below"/><path class="ylines-below"/><g class="overlines-below"/><g class="xaxislayer-below"/><g class="yaxislayer-below"/><g class="overaxes-below"/><g class="plot" transform="translate(80,60)" clip-path="url(#clip8634fdxyplot)"><g class="scatterlayer mlayer"><g class="trace scatter trace87aec8" style="stroke-miterlimit: 2; opacity: 1;"><g class="fills"/><g class="errorbars"/><g class="lines"><path class="js-line" d="M13.05,434L48.03,366.59L83.01,47.29L117.99,153.72L152.97,26L187.95,210.49" style="vector-effect: none; fill: none; stroke: rgb(145, 151, 234); stroke-opacity: 1; stroke-width: 2px; opacity: 1;"/></g><g class="points"><path class="point" transform="translate(13.05,434)" d="M1.5,0A1.5,1.5 0 1,1 0,-1.5A1.5,1.5 0 0,1 1.5,0Z" style="opacity: 1; stroke: rgb(145, 151, 234); stroke-opacity: 1; stroke-width: 1px; fill: none;"/><path class="point" transform="translate(48.03,366.59)" d="M1.5,0A1.5,1.5 0 1,1 0,-1.5A1.5,1.5 0 0,1 1.5,0Z" style="opacity: 1; stroke: rgb(145, 151, 234); stroke-opacity: 1; stroke-width: 1px; fill: none;"/><path class="point" transform="translate(83.01,47.29)" d="M1.5,0A1.5,1.5 0 1,1 0,-1.5A1.5,1.5 0 0,1 1.5,0Z" style="opacity: 1; stroke: rgb(145, 151, 234); stroke-opacity: 1; stroke-width: 1px; fill: none;"/><path class="point" transform="translate(117.99,153.72)" d="M1.5,0A1.5,1.5 0 1,1 0,-1.5A1.5,1.5 0 0,1 1.5,0Z" style="opacity: 1; stroke: rgb(145, 151, 234); stroke-opacity: 1; stroke-width: 1px; fill: none;"/><path class="point" transform="translate(152.97,26)" d="M1.5,0A1.5,1.5 0 1,1 0,-1.5A1.5,1.5 0 0,1 1.5,0Z" style="opacity: 1; stroke: rgb(145, 151, 234); stroke-opacity: 1; stroke-width: 1px; fill: none;"/><path class="point" transform="translate(187.95,210.49)" d="M1.5,0A1.5,1.5 0 1,1 0,-1.5A1.5,1.5 0 0,1 1.5,0Z" style="opacity: 1; stroke: rgb(145, 151, 234); stroke-opacity: 1; stroke-width: 1px; fill: none;"/></g><g class="text"/></g><g class="trace scatter trace4bb7c2" style="stroke-miterlimit: 2; opacity: 1;"><g class="fills"/><g class="errorbars"/><g class="lines"><path class="js-line" d="M13.05,167.91L48.03,182.1L83.01,214.03L117.99,167.91L152.97,288.54L187.95,57.93" style="vector-effect: none; fill: none; stroke: rgb(203, 252, 25); stroke-opacity: 1; stroke-width: 2px; opacity: 1;"/></g><g class="points"><path class="point" transform="translate(13.05,167.91)" d="M1.5,0A1.5,1.5 0 1,1 0,-1.5A1.5,1.5 0 0,1 1.5,0Z" style="opacity: 1; stroke: rgb(203, 252, 25); stroke-opacity: 1; stroke-width: 1px; fill: none;"/><path class="point" transform="translate(48.03,182.1)" d="M1.5,0A1.5,1.5 0 1,1 0,-1.5A1.5,1.5 0 0,1 1.5,0Z" style="opacity: 1; stroke: rgb(203, 252, 25); stroke-opacity: 1; stroke-width: 1px; fill: none;"/><path class="point" transform="translate(83.01,214.03)" d="M1.5,0A1.5,1.5 0 1,1 0,-1.5A1.5,1.5 0 0,1 1.5,0Z" style="opacity: 1; stroke: rgb(203, 252, 25); stroke-opacity: 1; stroke-width: 1px; fill: none;"/><path class="point" transform="translate(117.99,167.91)" d="M1.5,0A1.5,1.5 0 1,1 0,-1.5A1.5,1.5 0 0,1 1.5,0Z" style="opacity: 1; stroke: rgb(203, 252, 25); stroke-opacity: 1; stroke-width: 1px; fill: none;"/><path class="point" transform="translate(152.97,288.54)" d="M1.5,0A1.5,1.5 0 1,1 0,-1.5A1.5,1.5 0 0,1 1.5,0Z" style="opacity: 1; stroke: rgb(203, 252, 25); stroke-opacity: 1; stroke-width: 1px; fill: none;"/><path class="point" transform="translate(187.95,57.93)" d="M1.5,0A1.5,1.5 0 1,1 0,-1.5A1.5,1.5 0 0,1 1.5,0Z" style="opacity: 1; stroke: rgb(203, 252, 25); stroke-opacity: 1; stroke-width: 1px; fill: none;"/></g><g class="text"/></g></g></g><g class="overplot"/><path class="xlines-above crisp" d="M0,0" style="fill: none;"/><path class="ylines-above crisp" d="M79.5,60V520" style="fill: none; stroke-width: 1px; stroke: rgb(255, 255, 255); stroke-opacity: 1;"/><g class="overlines-above"/><g class="xaxislayer-above"><g class="xtick"><text text-anchor="start" x="2.625" y="528.5" transform="translate(110.53999999999999,0) rotate(90,2.625,521)" style="font-family: monospace; font-size: 15px; fill: rgb(0, 0, 0); fill-opacity: 1; white-space: pre; opacity: 1;">1960</text></g><g class="xtick"><text text-anchor="start" x="2.625" y="528.5" style="font-family: monospace; font-size: 15px; fill: rgb(0, 0, 0); fill-opacity: 1; white-space: pre; opacity: 1;" transform="translate(197.99,0) rotate(90,2.625,521)">1965</text></g></g><g class="yaxislayer-above"><g class="ytick"><text text-anchor="end" x="76" y="5.25" transform="translate(0,462.07)" style="font-family: monospace; font-size: 15px; fill: rgb(0, 0, 0); fill-opacity: 1; white-space: pre; opacity: 1;">20</text></g><g class="ytick"><text text-anchor="end" x="76" y="5.25" style="font-family: monospace; font-size: 15px; fill: rgb(0, 0, 0); fill-opacity: 1; white-space: pre; opacity: 1;" transform="translate(0,391.11)">40</text></g><g class="ytick"><text text-anchor="end" x="76" y="5.25" style="font-family: monospace; font-size: 15px; fill: rgb(0, 0, 0); fill-opacity: 1; white-space: pre; opacity: 1;" transform="translate(0,320.16)">60</text></g><g class="ytick"><text text-anchor="end" x="76" y="5.25" style="font-family: monospace; font-size: 15px; fill: rgb(0, 0, 0); fill-opacity: 1; white-space: pre; opacity: 1;" transform="translate(0,249.2)">80</text></g><g class="ytick"><text text-anchor="end" x="76" y="5.25" style="font-family: monospace; font-size: 15px; fill: rgb(0, 0, 0); fill-opacity: 1; white-space: pre; opacity: 1;" transform="translate(0,178.24)">100</text></g><g class="ytick"><text text-anchor="end" x="76" y="5.25" style="font-family: monospace; font-size: 15px; fill: rgb(0, 0, 0); fill-opacity: 1; white-space: pre; opacity: 1;" transform="translate(0,107.28999999999999)">120</text></g></g><g class="overaxes-above"/></g></g><g class="polarlayer"/><g class="smithlayer"/><g class="ternarylayer"/><g class="geolayer"/><g class="funnelarealayer"/><g class="pielayer"/><g class="iciclelayer"/><g class="treemaplayer"/><g class="sunburstlayer"/><g class="glimages"/><defs id="topdefs-8634fd"><g class="clips"/><clipPath id="legend8634fd"><rect width="182" height="67" x="0" y="0"/></clipPath></defs><g class="layer-above"><g class="imagelayer"/><g class="shapelayer"/></g><g class="infolayer"><g class="legend" pointer-events="all" transform="translate(285.02,60)"><rect class="bg" shape-rendering="crispEdges" style="stroke: rgb(68, 68, 68); stroke-opacity: 1; fill: rgb(255, 255, 255); fill-opacity: 1; stroke-width: 0px;" width="182" height="67" x="0" y="0"/><g class="scrollbox" transform="" clip-path="url(#legend8634fd)"><text class="legendtitletext" text-anchor="start" x="2" y="18.2" style="font-family: monospace; font-size: 14px; fill: rgb(42, 63, 95); fill-opacity: 1; white-space: pre;">draw light far</text><g class="groups" transform=""><g class="traces" transform="translate(0,32.7)" style="opacity: 1;"><text class="legendtext" text-anchor="start" x="40" y="4.680000000000001" style="font-family: monospace; font-size: 12px; fill: rgb(42, 63, 95); fill-opacity: 1; white-space: pre;">score indicate list</text><g class="layers" style="opacity: 1;"><g class="legendfill"/><g class="legendlines"><path class="js-line" d="M5,0h30" style="fill: none; stroke: rgb(145, 151, 234); stroke-opacity: 1; stroke-width: 2px;"/></g><g class="legendsymbols"><g class="legendpoints"><path class="scatterpts" transform="translate(20,0)" d="M1.5,0A1.5,1.5 0 1,1 0,-1.5A1.5,1.5 0 0,1 1.5,0Z" style="opacity: 1; stroke: rgb(145, 151, 234); stroke-opacity: 1; stroke-width: 1px; fill: none;"/></g></g></g><rect class="legendtoggle" x="0" y="-9.5" width="176.828125" height="19" style="fill: rgb(0, 0, 0); fill-opacity: 0;"/></g></g><g class="groups" transform=""><g class="traces" transform="translate(0,51.7)" style="opacity: 1;"><text class="legendtext" text-anchor="start" x="40" y="4.680000000000001" style="font-family: monospace; font-size: 12px; fill: rgb(42, 63, 95); fill-opacity: 1; white-space: pre;">raise avoid know</text><g class="layers" style="opacity: 1;"><g class="legendfill"/><g class="legendlines"><path class="js-line" d="M5,0h30" style="fill: none; stroke: rgb(203, 252, 25); stroke-opacity: 1; stroke-width: 2px;"/></g><g class="legendsymbols"><g class="legendpoints"><path class="scatterpts" transform="translate(20,0)" d="M1.5,0A1.5,1.5 0 1,1 0,-1.5A1.5,1.5 0 0,1 1.5,0Z" style="opacity: 1; stroke: rgb(203, 252, 25); stroke-opacity: 1; stroke-width: 1px; fill: none;"/></g></g></g><rect class="legendtoggle" x="0" y="-9.5" width="176.828125" height="19" style="fill: rgb(0, 0, 0); fill-opacity: 0;"/></g></g></g><rect class="scrollbar" rx="20" ry="3" width="0" height="0" style="fill: rgb(128, 139, 164); fill-opacity: 1;" x="0" y="0"/></g><g class="g-gtitle"><text class="gtitle" x="239.5" y="30" text-anchor="start" dy="0em" style="font-family: monospace; font-size: 25px; fill: rgb(0, 0, 0); opacity: 1; font-weight: normal; white-space: pre;">everyone baby movement</text></g><g class="g-xtitle"/><g class="g-ytitle"/></g></svg>