<svg class="main-svg" xmlns="http://www.w3.org/2000/svg" xmlns:xlink="http://www.w3.org/1999/xlink" width="844" height="600" style="" viewBox="0 0 844 600"><rect x="0" y="0" width="844" height="600" style="fill: rgb(255, 255, 255); fill-opacity: 1;"/><defs id="defs-4c5c0d"><g class="clips"><clipPath id="clip4c5c0dxyplot" class="plotclip"><rect width="684" height="454"/></clipPath><clipPath class="axesclip" id="clip4c5c0dx"><rect x="80" y="0" width="684" height="600"/></clipPath><clipPath class="axesclip" id="clip4c5c0dy"><rect x="0" y="60" width="844" height="454"/></clipPath><clipPath class="axesclip" id="clip4c5c0dxy"><rect x="80" y="60" width="684" height="454"/></clipPath></g><g class="gradients"/><g class="patterns"/></defs><g class="bglayer"><rect class="bg" x="80" y="60" width="684" height="454" style="fill: rgb(51, 51, 51); fill-opacity: 1; stroke-width: 0;"/></g><g class="layer-below"><g class="imagelayer"/><g class="shapelayer"/></g><g class="cartesianlayer"><g class="subplot xy"><g class="layer-subplot"><g class="shapelayer"/><g class="imagelayer"/></g><g class="minor-gridlayer"><g class="x"/><g class="y"/></g><g class="gridlayer"><g class="x"><path class="xgrid crisp" transform="translate(174.76999999999998,0)" d="M0,60v454" style="stroke: rgb(116, 116, 116); stroke-opacity: 1; stroke-width: 1px;"/><path class="xgrid crisp" transform="translate(284.65,0)" d="M0,60v454" style="stroke: rgb(116, 116, 116); stroke-opacity: 1; stroke-width: 1px;"/><path class="xgrid crisp" transform="translate(394.53,0)" d="M0,60v454" style="stroke: rgb(116, 116, 116); stroke-opacity: 1; stroke-width: 1px;"/><path class="xgrid crisp" transform="translate(504.41,0)" d="M0,60v454" style="stroke: rgb(116, 116, 116); stroke-opacity: 1; stroke-width: 1px;"/><path class="xgrid crisp" transform="translate(614.29,0)" d="M0,60v454" style="stroke: rgb(116, 116, 116); stroke-opacity: 1; stroke-width: 1px;"/><path class="xgrid crisp" transform="translate(724.18,0)" d="M0,60v454" style="stroke: rgb(116, 116, 116); stroke-opacity: 1; stroke-width: 1px;"/></g><g class="y"><path class="ygrid crisp" transform="translate(0,421.28)" d="M80,0h684" style="stroke: rgb(116, 116, 116); stroke-opacity: 1; stroke-width: 1px;"/><path class="ygrid crisp" transform="translate(0,342.75)" d="M80,0h684" style="stroke: rgb(116, 116, 116); stroke-opacity: 1; stroke-width: 1px;"/><path class="ygrid crisp" transform="translate(0,264.23)" d="M80,0h684" style="stroke: rgb(116, 116, 116); stroke-opacity: 1; stroke-width: 1px;"/><path class="ygrid crisp" transform="translate(0,185.7)" d="M80,0h684" style="stroke: rgb(116, 116, 116); stroke-opacity: 1; stroke-width: 1px;"/><path class="ygrid crisp" transform="translate(0,107.17)" d="M80,0h684" style="stroke: rgb(116, 116, 116); stroke-opacity: 1; stroke-width: 1px;"/></g></g><g class="zerolinelayer"><path class="yzl zl crisp" transform="translate(0,499.81)" d="M80,0h684" style="stroke: rgb(255, 255, 255); stroke-opacity: 1; stroke-width: 2px;"/></g><path class="xlines-below"/><path class="ylines-below"/><g class="overlines-below"/><g class="xaxislayer-below"/><g class="yaxislayer-below"/><g class="overaxes-below"/><g class="plot" transform="translate(80,60)" clip-path="url(#clip4c5c0dxyplot)"><g class="scatterlayer mlayer"><g class="trace scatter trace6150a5" style="stroke-miterlimit: 2; opacity: 1;"><g class="fills"/><g class="errorbars"/><g class="lines"><path class="js-line" d="M39.83,165.75L94.77,395.05L149.71,344.79L204.65,63.66L259.59,28.33L314.53,130.41L369.47,278.83L424.41,354.21L479.35,425.68L534.29,245.85L589.23,84.86L644.18,152.4" style="vector-effect: none; fill: none; stroke: rgb(174, 252, 195); stroke-opacity: 1; stroke-width: 2px; opacity: 1;"/></g><g class="points"><path class="point" transform="translate(39.83,165.75)" d="M4.5,0A4.5,4.5 0 1,1 0,-4.5A4.5,4.5 0 0,1 4.5,0Z" style="opacity: 1; stroke-width: 0px; fill: rgb(174, 252, 195); fill-opacity: 1;"/><path class="point" transform="translate(94.77,395.05)" d="M4.5,0A4.5,4.5 0 1,1 0,-4.5A4.5,4.5 0 0,1 4.5,0Z" style="opacity: 1; stroke-width: 0px; fill: rgb(174, 252, 195); fill-opacity: 1;"/><path class="point" transform="translate(149.71,344.79)" d="M4.5,0A4.5,4.5 0 1,1 0,-4.5A4.5,4.5 0 0,1 4.5,0Z" style="opacity: 1; stroke-width: 0px; fill: rgb(174, 252, 195); fill-opacity: 1;"/><path class="point" transform="translate(204.65,63.66)" d="M4.5,0A4.5,4.5 0 1,1 0,-4.5A4.5,4.5 0 0,1 4.5,0Z" style="opacity: 1; stroke-width: 0px; fill: rgb(174, 252, 195); fill-opacity: 1;"/><path class="point" transform="translate(259.59,28.33)" d="M4.5,0A4.5,4.5 0 1,1 0,-4.5A4.5,4.5 0 0,1 4.5,0Z" style="opacity: 1; stroke-width: 0px; fill: rgb(174, 252, 195); fill-opacity: 1;"/><path class="point" transform="translate(314.53,130.41)" d="M4.5,0A4.5,4.5 0 1,1 0,-4.5A4.5,4.5 0 0,1 4.5,0Z" style="opacity: 1; stroke-width: 0px; fill: rgb(174, 252, 195); fill-opacity: 1;"/><path class="point" transform="translate(369.47,278.83)" d="M4.5,0A4.5,4.5 0 1,1 0,-4.5A4.5,4.5 0 0,1 4.5,0Z" style="opacity: 1; stroke-width: 0px; fill: rgb(174, 252, 195); fill-opacity: 1;"/><path class="point" transform="translate(424.41,354.21)" d="M4.5,0A4.5,4.5 0 1,1 0,-4.5A4.5,4.5 0 0,1 4.5,0Z" style="opacity: 1; stroke-width: 0px; fill: rgb(174, 252, 195); fill-opacity: 1;"/><path class="point" transform="translate(479.35,425.68)" d="M4.5,0A4.5,4.5 0 1,1 0,-4.5A4.5,4.5 0 0,1 4.5,0Z" style="opacity: 1; stroke-width: 0px; fill: rgb(174, 252, 195); fill-opacity: 1;"/><path class="point" transform="translate(534.29,245.85)" d="M4.5,0A4.5,4.5 0 1,1 0,-4.5A4.5,4.5 0 0,1 4.5,0Z" style="opacity: 1; stroke-width: 0px; fill: rgb(174, 252, 195); fill-opacity: 1;"/><path class="point" transform="translate(589.23,84.86)" d="M4.5,0A4.5,4.5 0 1,1 0,-4.5A4.5,4.5 0 0,1 4.5,0Z" style="opacity: 1; stroke-width: 0px; fill: rgb(174, 252, 195); fill-opacity: 1;"/><path class="point" transform="translate(644.18,152.4)" d="M4.5,0A4.5,4.5 0 1,1 0,-4.5A4.5,4.5 0 0,1 4.5,0Z" style="opacity: 1; stroke-width: 0px; fill: rgb(174, 252, 195); fill-opacity: 1;"/></g><g class="text"/></g></g></g><g class="overplot"/><path class="xlines-above crisp" d="M0,0" style="fill: none;"/><path class="ylines-above crisp" d="M0,0" style="fill: none;"/><g class="overlines-above"/><g class="xaxislayer-above"><g class="xtick"><text text-anchor="start" x="0" y="532" transform="translate(174.76999999999998,0) rotate(45,0,523.5)" style="font-family: monospace; font-size: 17px; fill: rgb(0, 0, 0); fill-opacity: 1; white-space: pre; opacity: 1;">1978</text></g><g class="xtick"><text text-anchor="start" x="0" y="532" style="font-family: monospace; font-size: 17px; fill: rgb(0, 0, 0); fill-opacity: 1; white-space: pre; opacity: 1;" transform="translate(284.65,0) rotate(45,0,523.5)">1980</text></g><g class="xtick"><text text-anchor="start" x="0" y="532" style="font-family: monospace; font-size: 17px; fill: rgb(0, 0, 0); fill-opacity: 1; white-space: pre; opacity: 1;" transform="translate(394.53,0) rotate(45,0,523.5)">1982</text></g><g class="xtick"><text text-anchor="start" x="0" y="532" style="font-family: monospace; font-size: 17px; fill: rgb(0, 0, 0); fill-opacity: 1; white-space: pre; opacity: 1;" transform="translate(504.41,0) rotate(45,0,523.5)">1984</text></g><g class="xtick"><text text-anchor="start" x="0" y="532" style="font-family: monospace; font-size: 17px; fill: rgb(0, 0, 0); fill-opacity: 1; white-space: pre; opacity: 1;" transform="translate(614.29,0) rotate(45,0,523.5)">1986</text></g><g class="xtick"><text text-anchor="start" x="0" y="532" style="font-family: monospace; font-size: 17px; fill: rgb(0, 0, 0); fill-opacity: 1; white-space: pre; opacity: 1;" transform="translate(724.18,0) rotate(45,0,523.5)">1988</text></g></g><g class="yaxislayer-above"><g class="ytick"><text text-anchor="end" x="79" y="5.949999999999999" transform="translate(0,499.81)" style="font-family: monospace; font-size: 17px; fill: rgb(0, 0, 0); fill-opacity: 1; white-space: pre; opacity: 1;">0</text></g><g class="ytick"><text text-anchor="end" x="79" y="5.949999999999999" style="font-family: monospace; font-size: 17px; fill: rgb(0, 0, 0); fill-opacity: 1; white-space: pre; opacity: 1;" transform="translate(0,421.28)">100</text></g><g class="ytick"><text text-anchor="end" x="79" y="5.949999999999999" style="font-family: monospace; font-size: 17px; fill: rgb(0, 0, 0); fill-opacity: 1; white-space: pre; opacity: 1;" transform="translate(0,342.75)">200</text></g><g class="ytick"><text text-anchor="end" x="79" y="5.949999999999999" style="font-family: monospace; font-size: 17px; fill: rgb(0, 0, 0); fill-opacity: 1; white-space: pre; opacity: 1;" transform="translate(0,264.23)">300</text></g><g class="ytick"><text text-anchor="end" x="79" y="5.949999999999999" style="font-family: monospace; font-size: 17px; fill: rgb(0, 0, 0); fill-opacity: 1; white-space: pre; opacity: 1;" transform="translate(0,185.7)">400</text></g><g class="ytick"><text text-anchor="end" x="79" y="5.949999999999999" style="font-family: monospace; font-size: 17px; fill: rgb(0, 0, 0); fill-opacity: 1; white-space: pre; opacity: 1;" transform="translate(0,107.17)">500</text></g></g><g class="overaxes-above"/></g></g><g class="polarlayer"/><g class="smithlayer"/><g class="ternarylayer"/><g class="geolayer"/><g class="funnelarealayer"/><g class="pielayer"/><g class="iciclelayer"/><g class="treemaplayer"/><g class="sunburstlayer"/><g class="glimages"/><defs id="topdefs-4c5c0d"><g class="clips"/><clipPath id="legend4c5c0d"><rect width="324" height="29" x="0" y="0"/></clipPath></defs><g class="layer-above"><g class="imagelayer"/><g class="shapelayer"/></g><g class="infolayer"><g class="legend" pointer-events="all" transform="translate(80,559.4000000000001)"><rect class="bg" shape-rendering="crispEdges" style="stroke: rgb(68, 68, 68); stroke-opacity: 1; fill: rgb(255, 255, 255); fill-opacity: 1; stroke-width: 0px;" width="324" height="29" x="0" y="0"/><g class="scrollbox" transform="" clip-path="url(#legend4c5c0d)"><text class="legendtitletext" text-anchor="start" x="2" y="18.2" style="font-family: monospace; font-size: 14px; fill: rgb(42, 63, 95); fill-opacity: 1; white-space: pre;">institution boy ball</text><g class="groups" transform=""><g class="traces" transform="translate(178.03125,14.5)" style="opacity: 1;"><text class="legendtext" text-anchor="start" x="40" y="4.680000000000001" style="font-family: monospace; font-size: 12px; fill: rgb(42, 63, 95); fill-opacity: 1; white-space: pre;">our they whose</text><g class="layers" style="opacity: 1;"><g class="legendfill"/><g class="legendlines"><path class="js-line" d="M5,0h30" style="fill: none; stroke: rgb(174, 252, 195); stroke-opacity: 1; stroke-width: 2px;"/></g><g class="legendsymbols"><g class="legendpoints"><path class="scatterpts" transform="translate(20,0)" d="M4.5,0A4.5,4.5 0 1,1 0,-4.5A4.5,4.5 0 0,1 4.5,0Z" style="opacity: 1; stroke-width: 0px; fill: rgb(174, 252, 195); fill-opacity: 1;"/></g></g></g><rect class="legendtoggle" x="0" y="-9.5" width="143.328125" height="19" style="fill: rgb(0, 0, 0); fill-opacity: 0;"/></g></g></g><rect class="scrollbar" rx="20" ry="3" width="0" height="0" style="fill: rgb(128, 139, 164); fill-opacity: 1;" x="0" y="0"/></g><g class="g-gtitle"><text class="gtitle" x="422" y="30" text-anchor="end" dy="0em" style="font-family: monospace; font-size: 25px; fill: rgb(0, 0, 0); opacity: 1; font-weight: normal; white-space: pre;">onto off best</text></g><g class="g-xtitle"><text class="xtitle" x="422" y="586.204296875" text-anchor="middle" style="font-family: monospace; font-size: 14px; fill: rgb(0, 0, 0); opacity: 1; font-weight: normal; white-space: pre;">Year</text></g><g class="g-ytitle"><text class="ytitle" transform="rotate(-90,24.090625000000003,287)" x="24.090625000000003" y="287" text-anchor="middle" style="font-family: monospace; font-size: 14px; fill: rgb(0, 0, 0); opacity: 1; font-weight: normal; white-space: pre;">personal me leg</text></g></g></svg>