<svg class="main-svg" xmlns="http://www.w3.org/2000/svg" xmlns:xlink="http://www.w3.org/1999/xlink" width="653" height="600" style="" viewBox="0 0 653 600"><rect x="0" y="0" width="653" height="600" style="fill: rgb(255, 255, 255); fill-opacity: 1;"/><defs id="defs-35aa57"><g class="clips"><clipPath id="clip35aa57xyplot" class="plotclip"><rect width="404" height="454"/></clipPath><clipPath class="axesclip" id="clip35aa57x"><rect x="80" y="0" width="404" height="600"/></clipPath><clipPath class="axesclip" id="clip35aa57y"><rect x="0" y="60" width="653" height="454"/></clipPath><clipPath class="axesclip" id="clip35aa57xy"><rect x="80" y="60" width="404" height="454"/></clipPath></g><g class="gradients"/><g class="patterns"/></defs><g class="bglayer"><rect class="bg" x="80" y="60" width="404" height="454" style="fill: rgb(51, 51, 51); fill-opacity: 1; stroke-width: 0;"/></g><g class="layer-below"><g class="imagelayer"/><g class="shapelayer"/></g><g class="cartesianlayer"><g class="subplot xy"><g class="layer-subplot"><g class="shapelayer"/><g class="imagelayer"/></g><g class="minor-gridlayer"><g class="x"/><g class="y"/></g><g class="gridlayer"><g class="x"/><g class="y"/></g><g class="zerolinelayer"/><path class="xlines-below"/><path class="ylines-below"/><g class="overlines-below"/><g class="xaxislayer-below"/><g class="yaxislayer-below"/><g class="overaxes-below"/><g class="plot" transform="translate(80,60)" clip-path="url(#clip35aa57xyplot)"><g class="scatterlayer mlayer"><g class="trace scatter trace0c55fa" style="stroke-miterlimit: 2; opacity: 1;"><g class="fills"/><g class="errorbars"/><g class="lines"><path class="js-line" d="M23.95,294.75L63.52,313.1L103.08,410.28L142.65,335.24L182.22,26.45L221.78,383.28L261.35,200.82L300.92,259.66L340.48,111.74L380.05,248.86" style="vector-effect: none; fill: none; stroke: rgb(199, 145, 226); stroke-opacity: 1; stroke-width: 2px; opacity: 1;"/></g><g class="points"><path class="point" transform="translate(23.95,294.75)" d="M3,0A3,3 0 1,1 0,-3A3,3 0 0,1 3,0Z" style="opacity: 1; stroke: rgb(199, 145, 226); stroke-opacity: 1; stroke-width: 1px; fill: none;"/><path class="point" transform="translate(63.52,313.1)" d="M3,0A3,3 0 1,1 0,-3A3,3 0 0,1 3,0Z" style="opacity: 1; stroke: rgb(199, 145, 226); stroke-opacity: 1; stroke-width: 1px; fill: none;"/><path class="point" transform="translate(103.08,410.28)" d="M3,0A3,3 0 1,1 0,-3A3,3 0 0,1 3,0Z" style="opacity: 1; stroke: rgb(199, 145, 226); stroke-opacity: 1; stroke-width: 1px; fill: none;"/><path class="point" transform="translate(142.65,335.24)" d="M3,0A3,3 0 1,1 0,-3A3,3 0 0,1 3,0Z" style="opacity: 1; stroke: rgb(199, 145, 226); stroke-opacity: 1; stroke-width: 1px; fill: none;"/><path class="point" transform="translate(182.22,26.45)" d="M3,0A3,3 0 1,1 0,-3A3,3 0 0,1 3,0Z" style="opacity: 1; stroke: rgb(199, 145, 226); stroke-opacity: 1; stroke-width: 1px; fill: none;"/><path class="point" transform="translate(221.78,383.28)" d="M3,0A3,3 0 1,1 0,-3A3,3 0 0,1 3,0Z" style="opacity: 1; stroke: rgb(199, 145, 226); stroke-opacity: 1; stroke-width: 1px; fill: none;"/><path class="point" transform="translate(261.35,200.82)" d="M3,0A3,3 0 1,1 0,-3A3,3 0 0,1 3,0Z" style="opacity: 1; stroke: rgb(199, 145, 226); stroke-opacity: 1; stroke-width: 1px; fill: none;"/><path class="point" transform="translate(300.92,259.66)" d="M3,0A3,3 0 1,1 0,-3A3,3 0 0,1 3,0Z" style="opacity: 1; stroke: rgb(199, 145, 226); stroke-opacity: 1; stroke-width: 1px; fill: none;"/><path class="point" transform="translate(340.48,111.74)" d="M3,0A3,3 0 1,1 0,-3A3,3 0 0,1 3,0Z" style="opacity: 1; stroke: rgb(199, 145, 226); stroke-opacity: 1; stroke-width: 1px; fill: none;"/><path class="point" transform="translate(380.05,248.86)" d="M3,0A3,3 0 1,1 0,-3A3,3 0 0,1 3,0Z" style="opacity: 1; stroke: rgb(199, 145, 226); stroke-opacity: 1; stroke-width: 1px; fill: none;"/></g><g class="text"/></g><g class="trace scatter trace818196" style="stroke-miterlimit: 2; opacity: 1;"><g class="fills"/><g class="errorbars"/><g class="lines"><path class="js-line" d="M23.95,404.34L63.52,337.4L103.08,31.85L142.65,336.32L182.22,158.71L221.78,259.12L261.35,423.23L300.92,427.55L340.48,76.12L380.05,105.27" style="vector-effect: none; fill: none; stroke: rgb(10, 152, 170); stroke-opacity: 1; stroke-width: 2px; opacity: 1;"/></g><g class="points"><path class="point" transform="translate(23.95,404.34)" d="M3,0A3,3 0 1,1 0,-3A3,3 0 0,1 3,0Z" style="opacity: 1; stroke: rgb(10, 152, 170); stroke-opacity: 1; stroke-width: 1px; fill: none;"/><path class="point" transform="translate(63.52,337.4)" d="M3,0A3,3 0 1,1 0,-3A3,3 0 0,1 3,0Z" style="opacity: 1; stroke: rgb(10, 152, 170); stroke-opacity: 1; stroke-width: 1px; fill: none;"/><path class="point" transform="translate(103.08,31.85)" d="M3,0A3,3 0 1,1 0,-3A3,3 0 0,1 3,0Z" style="opacity: 1; stroke: rgb(10, 152, 170); stroke-opacity: 1; stroke-width: 1px; fill: none;"/><path class="point" transform="translate(142.65,336.32)" d="M3,0A3,3 0 1,1 0,-3A3,3 0 0,1 3,0Z" style="opacity: 1; stroke: rgb(10, 152, 170); stroke-opacity: 1; stroke-width: 1px; fill: none;"/><path class="point" transform="translate(182.22,158.71)" d="M3,0A3,3 0 1,1 0,-3A3,3 0 0,1 3,0Z" style="opacity: 1; stroke: rgb(10, 152, 170); stroke-opacity: 1; stroke-width: 1px; fill: none;"/><path class="point" transform="translate(221.78,259.12)" d="M3,0A3,3 0 1,1 0,-3A3,3 0 0,1 3,0Z" style="opacity: 1; stroke: rgb(10, 152, 170); stroke-opacity: 1; stroke-width: 1px; fill: none;"/><path class="point" transform="translate(261.35,423.23)" d="M3,0A3,3 0 1,1 0,-3A3,3 0 0,1 3,0Z" style="opacity: 1; stroke: rgb(10, 152, 170); stroke-opacity: 1; stroke-width: 1px; fill: none;"/><path class="point" transform="translate(300.92,427.55)" d="M3,0A3,3 0 1,1 0,-3A3,3 0 0,1 3,0Z" style="opacity: 1; stroke: rgb(10, 152, 170); stroke-opacity: 1; stroke-width: 1px; fill: none;"/><path class="point" transform="translate(340.48,76.12)" d="M3,0A3,3 0 1,1 0,-3A3,3 0 0,1 3,0Z" style="opacity: 1; stroke: rgb(10, 152, 170); stroke-opacity: 1; stroke-width: 1px; fill: none;"/><path class="point" transform="translate(380.05,105.27)" d="M3,0A3,3 0 1,1 0,-3A3,3 0 0,1 3,0Z" style="opacity: 1; stroke: rgb(10, 152, 170); stroke-opacity: 1; stroke-width: 1px; fill: none;"/></g><g class="text"/></g></g></g><g class="overplot"/><path class="xlines-above crisp" d="M0,0" style="fill: none;"/><path class="ylines-above crisp" d="M0,0" style="fill: none;"/><g class="overlines-above"/><g class="xaxislayer-above"><g class="xtick"><text text-anchor="start" x="0" y="534" transform="translate(103.95,0) rotate(45,0,524.5)" style="font-family: sans-serif; font-size: 19px; fill: rgb(0, 0, 0); fill-opacity: 1; white-space: pre; opacity: 1;">Jan</text></g><g class="xtick"><text text-anchor="start" x="0" y="534" transform="translate(143.52,0) rotate(45,0,524.5)" style="font-family: sans-serif; font-size: 19px; fill: rgb(0, 0, 0); fill-opacity: 1; white-space: pre; opacity: 1;">Feb</text></g><g class="xtick"><text text-anchor="start" x="0" y="534" transform="translate(183.07999999999998,0) rotate(45,0,524.5)" style="font-family: sans-serif; font-size: 19px; fill: rgb(0, 0, 0); fill-opacity: 1; white-space: pre; opacity: 1;">Mar</text></g><g class="xtick"><text text-anchor="start" x="0" y="534" transform="translate(222.65,0) rotate(45,0,524.5)" style="font-family: sans-serif; font-size: 19px; fill: rgb(0, 0, 0); fill-opacity: 1; white-space: pre; opacity: 1;">Apr</text></g><g class="xtick"><text text-anchor="start" x="0" y="534" transform="translate(262.22,0) rotate(45,0,524.5)" style="font-family: sans-serif; font-size: 19px; fill: rgb(0, 0, 0); fill-opacity: 1; white-space: pre; opacity: 1;">May</text></g><g class="xtick"><text text-anchor="start" x="0" y="534" transform="translate(301.78,0) rotate(45,0,524.5)" style="font-family: sans-serif; font-size: 19px; fill: rgb(0, 0, 0); fill-opacity: 1; white-space: pre; opacity: 1;">June</text></g><g class="xtick"><text text-anchor="start" x="0" y="534" transform="translate(341.35,0) rotate(45,0,524.5)" style="font-family: sans-serif; font-size: 19px; fill: rgb(0, 0, 0); fill-opacity: 1; white-space: pre; opacity: 1;">July</text></g><g class="xtick"><text text-anchor="start" x="0" y="534" transform="translate(380.92,0) rotate(45,0,524.5)" style="font-family: sans-serif; font-size: 19px; fill: rgb(0, 0, 0); fill-opacity: 1; white-space: pre; opacity: 1;">Aug</text></g><g class="xtick"><text text-anchor="start" x="0" y="534" transform="translate(420.48,0) rotate(45,0,524.5)" style="font-family: sans-serif; font-size: 19px; fill: rgb(0, 0, 0); fill-opacity: 1; white-space: pre; opacity: 1;">Sep</text></g><g class="xtick"><text text-anchor="start" x="0" y="534" transform="translate(460.05,0) rotate(45,0,524.5)" style="font-family: sans-serif; font-size: 19px; fill: rgb(0, 0, 0); fill-opacity: 1; white-space: pre; opacity: 1;">Oct</text></g></g><g class="yaxislayer-above"><g class="ytick"><text text-anchor="end" x="79" y="6.6499999999999995" transform="translate(0,487.55)" style="font-family: sans-serif; font-size: 19px; fill: rgb(0, 0, 0); fill-opacity: 1; white-space: pre; opacity: 1;">100</text></g><g class="ytick"><text text-anchor="end" x="79" y="6.6499999999999995" style="font-family: sans-serif; font-size: 19px; fill: rgb(0, 0, 0); fill-opacity: 1; white-space: pre; opacity: 1;" transform="translate(0,433.57)">200</text></g><g class="ytick"><text text-anchor="end" x="79" y="6.6499999999999995" style="font-family: sans-serif; font-size: 19px; fill: rgb(0, 0, 0); fill-opacity: 1; white-space: pre; opacity: 1;" transform="translate(0,379.58)">300</text></g><g class="ytick"><text text-anchor="end" x="79" y="6.6499999999999995" style="font-family: sans-serif; font-size: 19px; fill: rgb(0, 0, 0); fill-opacity: 1; white-space: pre; opacity: 1;" transform="translate(0,325.6)">400</text></g><g class="ytick"><text text-anchor="end" x="79" y="6.6499999999999995" style="font-family: sans-serif; font-size: 19px; fill: rgb(0, 0, 0); fill-opacity: 1; white-space: pre; opacity: 1;" transform="translate(0,271.61)">500</text></g><g class="ytick"><text text-anchor="end" x="79" y="6.6499999999999995" style="font-family: sans-serif; font-size: 19px; fill: rgb(0, 0, 0); fill-opacity: 1; white-space: pre; opacity: 1;" transform="translate(0,217.63)">600</text></g><g class="ytick"><text text-anchor="end" x="79" y="6.6499999999999995" style="font-family: sans-serif; font-size: 19px; fill: rgb(0, 0, 0); fill-opacity: 1; white-space: pre; opacity: 1;" transform="translate(0,163.65)">700</text></g><g class="ytick"><text text-anchor="end" x="79" y="6.6499999999999995" style="font-family: sans-serif; font-size: 19px; fill: rgb(0, 0, 0); fill-opacity: 1; white-space: pre; opacity: 1;" transform="translate(0,109.66)">800</text></g></g><g class="overaxes-above"/></g></g><g class="polarlayer"/><g class="smithlayer"/><g class="ternarylayer"/><g class="geolayer"/><g class="funnelarealayer"/><g class="pielayer"/><g class="iciclelayer"/><g class="treemaplayer"/><g class="sunburstlayer"/><g class="glimages"/><defs id="topdefs-35aa57"><g class="clips"/><clipPath id="legend35aa57"><rect width="149" height="67" x="0" y="0"/></clipPath></defs><g class="layer-above"><g class="imagelayer"/><g class="shapelayer"/></g><g class="infolayer"><g class="legend" pointer-events="all" transform="translate(492.08,60)"><rect class="bg" shape-rendering="crispEdges" style="stroke: rgb(68, 68, 68); stroke-opacity: 1; fill: rgb(255, 255, 255); fill-opacity: 1; stroke-width: 0px;" width="149" height="67" x="0" y="0"/><g class="scrollbox" transform="" clip-path="url(#legend35aa57)"><text class="legendtitletext" text-anchor="start" x="2" y="18.2" style="font-family: sans-serif; font-size: 14px; fill: rgb(42, 63, 95); fill-opacity: 1; white-space: pre;">past those organization</text><g class="groups" transform=""><g class="traces" transform="translate(0,32.7)" style="opacity: 1;"><text class="legendtext" text-anchor="start" x="40" y="4.680000000000001" style="font-family: sans-serif; font-size: 12px; fill: rgb(42, 63, 95); fill-opacity: 1; white-space: pre;">career land protect</text><g class="layers" style="opacity: 1;"><g class="legendfill"/><g class="legendlines"><path class="js-line" d="M5,0h30" style="fill: none; stroke: rgb(199, 145, 226); stroke-opacity: 1; stroke-width: 2px;"/></g><g class="legendsymbols"><g class="legendpoints"><path class="scatterpts" transform="translate(20,0)" d="M3,0A3,3 0 1,1 0,-3A3,3 0 0,1 3,0Z" style="opacity: 1; stroke: rgb(199, 145, 226); stroke-opacity: 1; stroke-width: 1px; fill: none;"/></g></g></g><rect class="legendtoggle" x="0" y="-9.5" width="140.734375" height="19" style="fill: rgb(0, 0, 0); fill-opacity: 0;"/></g></g><g class="groups" transform=""><g class="traces" transform="translate(0,51.7)" style="opacity: 1;"><text class="legendtext" text-anchor="start" x="40" y="4.680000000000001" style="font-family: sans-serif; font-size: 12px; fill: rgb(42, 63, 95); fill-opacity: 1; white-space: pre;">position he budget</text><g class="layers" style="opacity: 1;"><g class="legendfill"/><g class="legendlines"><path class="js-line" d="M5,0h30" style="fill: none; stroke: rgb(10, 152, 170); stroke-opacity: 1; stroke-width: 2px;"/></g><g class="legendsymbols"><g class="legendpoints"><path class="scatterpts" transform="translate(20,0)" d="M3,0A3,3 0 1,1 0,-3A3,3 0 0,1 3,0Z" style="opacity: 1; stroke: rgb(10, 152, 170); stroke-opacity: 1; stroke-width: 1px; fill: none;"/></g></g></g><rect class="legendtoggle" x="0" y="-9.5" width="140.734375" height="19" style="fill: rgb(0, 0, 0); fill-opacity: 0;"/></g></g></g><rect class="scrollbar" rx="20" ry="3" width="0" height="0" style="fill: rgb(128, 139, 164); fill-opacity: 1;" x="0" y="0"/></g><g class="g-gtitle"><text class="gtitle" x="326.5" y="30" text-anchor="middle" dy="0em" style="font-family: sans-serif; font-size: 25px; fill: rgb(0, 0, 0); opacity: 1; font-weight: normal; white-space: pre;">dark election energy</text></g><g class="g-xtitle"><text class="xtitle" x="282" y="587.790234375" text-anchor="middle" style="font-family: sans-serif; font-size: 14px; fill: rgb(0, 0, 0); opacity: 1; font-weight: normal; white-space: pre;">Month</text></g><g class="g-ytitle"/></g></svg>