<svg class="main-svg" xmlns="http://www.w3.org/2000/svg" xmlns:xlink="http://www.w3.org/1999/xlink" width="650" height="600" style="" viewBox="0 0 650 600"><rect x="0" y="0" width="650" height="600" style="fill: rgb(255, 255, 255); fill-opacity: 1;"/><defs id="defs-e7988d"><g class="clips"><clipPath id="clipe7988dxyplot" class="plotclip"><rect width="490" height="436"/></clipPath><clipPath class="axesclip" id="clipe7988dx"><rect x="80" y="0" width="490" height="600"/></clipPath><clipPath class="axesclip" id="clipe7988dy"><rect x="0" y="60" width="650" height="436"/></clipPath><clipPath class="axesclip" id="clipe7988dxy"><rect x="80" y="60" width="490" height="436"/></clipPath></g><g class="gradients"/><g class="patterns"/></defs><g class="bglayer"><rect class="bg" x="80" y="60" width="490" height="436" style="fill: rgb(51, 51, 51); fill-opacity: 1; stroke-width: 0;"/></g><g class="layer-below"><g class="imagelayer"/><g class="shapelayer"/></g><g class="cartesianlayer"><g class="subplot xy"><g class="layer-subplot"><g class="shapelayer"/><g class="imagelayer"/></g><g class="minor-gridlayer"><g class="x"/><g class="y"/></g><g class="gridlayer"><g class="x"/><g class="y"><path class="ygrid crisp" transform="translate(0,416.41)" d="M80,0h490" style="stroke: rgb(116, 116, 116); stroke-opacity: 1; stroke-width: 1px;"/><path class="ygrid crisp" transform="translate(0,358.74)" d="M80,0h490" style="stroke: rgb(116, 116, 116); stroke-opacity: 1; stroke-width: 1px;"/><path class="ygrid crisp" transform="translate(0,301.07)" d="M80,0h490" style="stroke: rgb(116, 116, 116); stroke-opacity: 1; stroke-width: 1px;"/><path class="ygrid crisp" transform="translate(0,243.4)" d="M80,0h490" style="stroke: rgb(116, 116, 116); stroke-opacity: 1; stroke-width: 1px;"/><path class="ygrid crisp" transform="translate(0,185.73000000000002)" d="M80,0h490" style="stroke: rgb(116, 116, 116); stroke-opacity: 1; stroke-width: 1px;"/><path class="ygrid crisp" transform="translate(0,128.05)" d="M80,0h490" style="stroke: rgb(116, 116, 116); stroke-opacity: 1; stroke-width: 1px;"/><path class="ygrid crisp" transform="translate(0,70.38)" d="M80,0h490" style="stroke: rgb(116, 116, 116); stroke-opacity: 1; stroke-width: 1px;"/></g></g><g class="zerolinelayer"><path class="yzl zl crisp" transform="translate(0,474.08)" d="M80,0h490" style="stroke: rgb(255, 255, 255); stroke-opacity: 1; stroke-width: 2px;"/></g><path class="xlines-below"/><path class="ylines-below"/><g class="overlines-below"/><g class="xaxislayer-below"/><g class="yaxislayer-below"/><g class="overaxes-below"/><g class="plot" transform="translate(80,60)" clip-path="url(#clipe7988dxyplot)"><g class="scatterlayer mlayer"><g class="trace scatter trace3960de" style="stroke-miterlimit: 2; opacity: 1;"><g class="fills"/><g class="errorbars"/><g class="lines"><path class="js-line" d="M27.5,353.53L67.05,304.51L106.59,318.93L146.14,411.2L185.68,163.21L225.23,44.99L264.77,137.26L304.32,65.17L343.86,356.41L383.41,70.94L422.95,27.68L462.5,241.07" style="vector-effect: none; fill: none; stroke: rgb(247, 155, 244); stroke-opacity: 1; stroke-width: 2px; opacity: 1;"/></g><g class="points"><path class="point" transform="translate(27.5,353.53)" d="M1.5,0A1.5,1.5 0 1,1 0,-1.5A1.5,1.5 0 0,1 1.5,0Z" style="opacity: 1; stroke: rgb(247, 155, 244); stroke-opacity: 1; stroke-width: 1px; fill: none;"/><path class="point" transform="translate(67.05,304.51)" d="M1.5,0A1.5,1.5 0 1,1 0,-1.5A1.5,1.5 0 0,1 1.5,0Z" style="opacity: 1; stroke: rgb(247, 155, 244); stroke-opacity: 1; stroke-width: 1px; fill: none;"/><path class="point" transform="translate(106.59,318.93)" d="M1.5,0A1.5,1.5 0 1,1 0,-1.5A1.5,1.5 0 0,1 1.5,0Z" style="opacity: 1; stroke: rgb(247, 155, 244); stroke-opacity: 1; stroke-width: 1px; fill: none;"/><path class="point" transform="translate(146.14,411.2)" d="M1.5,0A1.5,1.5 0 1,1 0,-1.5A1.5,1.5 0 0,1 1.5,0Z" style="opacity: 1; stroke: rgb(247, 155, 244); stroke-opacity: 1; stroke-width: 1px; fill: none;"/><path class="point" transform="translate(185.68,163.21)" d="M1.5,0A1.5,1.5 0 1,1 0,-1.5A1.5,1.5 0 0,1 1.5,0Z" style="opacity: 1; stroke: rgb(247, 155, 244); stroke-opacity: 1; stroke-width: 1px; fill: none;"/><path class="point" transform="translate(225.23,44.99)" d="M1.5,0A1.5,1.5 0 1,1 0,-1.5A1.5,1.5 0 0,1 1.5,0Z" style="opacity: 1; stroke: rgb(247, 155, 244); stroke-opacity: 1; stroke-width: 1px; fill: none;"/><path class="point" transform="translate(264.77,137.26)" d="M1.5,0A1.5,1.5 0 1,1 0,-1.5A1.5,1.5 0 0,1 1.5,0Z" style="opacity: 1; stroke: rgb(247, 155, 244); stroke-opacity: 1; stroke-width: 1px; fill: none;"/><path class="point" transform="translate(304.32,65.17)" d="M1.5,0A1.5,1.5 0 1,1 0,-1.5A1.5,1.5 0 0,1 1.5,0Z" style="opacity: 1; stroke: rgb(247, 155, 244); stroke-opacity: 1; stroke-width: 1px; fill: none;"/><path class="point" transform="translate(343.86,356.41)" d="M1.5,0A1.5,1.5 0 1,1 0,-1.5A1.5,1.5 0 0,1 1.5,0Z" style="opacity: 1; stroke: rgb(247, 155, 244); stroke-opacity: 1; stroke-width: 1px; fill: none;"/><path class="point" transform="translate(383.41,70.94)" d="M1.5,0A1.5,1.5 0 1,1 0,-1.5A1.5,1.5 0 0,1 1.5,0Z" style="opacity: 1; stroke: rgb(247, 155, 244); stroke-opacity: 1; stroke-width: 1px; fill: none;"/><path class="point" transform="translate(422.95,27.68)" d="M1.5,0A1.5,1.5 0 1,1 0,-1.5A1.5,1.5 0 0,1 1.5,0Z" style="opacity: 1; stroke: rgb(247, 155, 244); stroke-opacity: 1; stroke-width: 1px; fill: none;"/><path class="point" transform="translate(462.5,241.07)" d="M1.5,0A1.5,1.5 0 1,1 0,-1.5A1.5,1.5 0 0,1 1.5,0Z" style="opacity: 1; stroke: rgb(247, 155, 244); stroke-opacity: 1; stroke-width: 1px; fill: none;"/></g><g class="text"/></g><g class="trace scatter trace380991" style="stroke-miterlimit: 2; opacity: 1;"><g class="fills"/><g class="errorbars"/><g class="lines"><path class="js-line" d="M27.5,180.51L67.05,295.86L106.59,295.86L146.14,339.11L185.68,287.21L225.23,232.42L264.77,220.88L304.32,359.3L343.86,238.19L383.41,405.43L422.95,212.23L462.5,344.88" style="vector-effect: none; fill: none; stroke: rgb(178, 241, 244); stroke-opacity: 1; stroke-width: 2px; opacity: 1;"/></g><g class="points"><path class="point" transform="translate(27.5,180.51)" d="M1.5,0A1.5,1.5 0 1,1 0,-1.5A1.5,1.5 0 0,1 1.5,0Z" style="opacity: 1; stroke: rgb(178, 241, 244); stroke-opacity: 1; stroke-width: 1px; fill: none;"/><path class="point" transform="translate(67.05,295.86)" d="M1.5,0A1.5,1.5 0 1,1 0,-1.5A1.5,1.5 0 0,1 1.5,0Z" style="opacity: 1; stroke: rgb(178, 241, 244); stroke-opacity: 1; stroke-width: 1px; fill: none;"/><path class="point" transform="translate(106.59,295.86)" d="M1.5,0A1.5,1.5 0 1,1 0,-1.5A1.5,1.5 0 0,1 1.5,0Z" style="opacity: 1; stroke: rgb(178, 241, 244); stroke-opacity: 1; stroke-width: 1px; fill: none;"/><path class="point" transform="translate(146.14,339.11)" d="M1.5,0A1.5,1.5 0 1,1 0,-1.5A1.5,1.5 0 0,1 1.5,0Z" style="opacity: 1; stroke: rgb(178, 241, 244); stroke-opacity: 1; stroke-width: 1px; fill: none;"/><path class="point" transform="translate(185.68,287.21)" d="M1.5,0A1.5,1.5 0 1,1 0,-1.5A1.5,1.5 0 0,1 1.5,0Z" style="opacity: 1; stroke: rgb(178, 241, 244); stroke-opacity: 1; stroke-width: 1px; fill: none;"/><path class="point" transform="translate(225.23,232.42)" d="M1.5,0A1.5,1.5 0 1,1 0,-1.5A1.5,1.5 0 0,1 1.5,0Z" style="opacity: 1; stroke: rgb(178, 241, 244); stroke-opacity: 1; stroke-width: 1px; fill: none;"/><path class="point" transform="translate(264.77,220.88)" d="M1.5,0A1.5,1.5 0 1,1 0,-1.5A1.5,1.5 0 0,1 1.5,0Z" style="opacity: 1; stroke: rgb(178, 241, 244); stroke-opacity: 1; stroke-width: 1px; fill: none;"/><path class="point" transform="translate(304.32,359.3)" d="M1.5,0A1.5,1.5 0 1,1 0,-1.5A1.5,1.5 0 0,1 1.5,0Z" style="opacity: 1; stroke: rgb(178, 241, 244); stroke-opacity: 1; stroke-width: 1px; fill: none;"/><path class="point" transform="translate(343.86,238.19)" d="M1.5,0A1.5,1.5 0 1,1 0,-1.5A1.5,1.5 0 0,1 1.5,0Z" style="opacity: 1; stroke: rgb(178, 241, 244); stroke-opacity: 1; stroke-width: 1px; fill: none;"/><path class="point" transform="translate(383.41,405.43)" d="M1.5,0A1.5,1.5 0 1,1 0,-1.5A1.5,1.5 0 0,1 1.5,0Z" style="opacity: 1; stroke: rgb(178, 241, 244); stroke-opacity: 1; stroke-width: 1px; fill: none;"/><path class="point" transform="translate(422.95,212.23)" d="M1.5,0A1.5,1.5 0 1,1 0,-1.5A1.5,1.5 0 0,1 1.5,0Z" style="opacity: 1; stroke: rgb(178, 241, 244); stroke-opacity: 1; stroke-width: 1px; fill: none;"/><path class="point" transform="translate(462.5,344.88)" d="M1.5,0A1.5,1.5 0 1,1 0,-1.5A1.5,1.5 0 0,1 1.5,0Z" style="opacity: 1; stroke: rgb(178, 241, 244); stroke-opacity: 1; stroke-width: 1px; fill: none;"/></g><g class="text"/></g><g class="trace scatter tracefd2ff6" style="stroke-miterlimit: 2; opacity: 1;"><g class="fills"/><g class="errorbars"/><g class="lines"><path class="js-line" d="M27.5,189.16L67.05,197.81L106.59,385.25L146.14,292.97L185.68,269.9L225.23,399.67L264.77,47.87L304.32,359.3L343.86,85.36L383.41,108.42L422.95,24.8L462.5,44.99" style="vector-effect: none; fill: none; stroke: rgb(229, 166, 114); stroke-opacity: 1; stroke-width: 2px; opacity: 1;"/></g><g class="points"><path class="point" transform="translate(27.5,189.16)" d="M1.5,0A1.5,1.5 0 1,1 0,-1.5A1.5,1.5 0 0,1 1.5,0Z" style="opacity: 1; stroke: rgb(229, 166, 114); stroke-opacity: 1; stroke-width: 1px; fill: none;"/><path class="point" transform="translate(67.05,197.81)" d="M1.5,0A1.5,1.5 0 1,1 0,-1.5A1.5,1.5 0 0,1 1.5,0Z" style="opacity: 1; stroke: rgb(229, 166, 114); stroke-opacity: 1; stroke-width: 1px; fill: none;"/><path class="point" transform="translate(106.59,385.25)" d="M1.5,0A1.5,1.5 0 1,1 0,-1.5A1.5,1.5 0 0,1 1.5,0Z" style="opacity: 1; stroke: rgb(229, 166, 114); stroke-opacity: 1; stroke-width: 1px; fill: none;"/><path class="point" transform="translate(146.14,292.97)" d="M1.5,0A1.5,1.5 0 1,1 0,-1.5A1.5,1.5 0 0,1 1.5,0Z" style="opacity: 1; stroke: rgb(229, 166, 114); stroke-opacity: 1; stroke-width: 1px; fill: none;"/><path class="point" transform="translate(185.68,269.9)" d="M1.5,0A1.5,1.5 0 1,1 0,-1.5A1.5,1.5 0 0,1 1.5,0Z" style="opacity: 1; stroke: rgb(229, 166, 114); stroke-opacity: 1; stroke-width: 1px; fill: none;"/><path class="point" transform="translate(225.23,399.67)" d="M1.5,0A1.5,1.5 0 1,1 0,-1.5A1.5,1.5 0 0,1 1.5,0Z" style="opacity: 1; stroke: rgb(229, 166, 114); stroke-opacity: 1; stroke-width: 1px; fill: none;"/><path class="point" transform="translate(264.77,47.87)" d="M1.5,0A1.5,1.5 0 1,1 0,-1.5A1.5,1.5 0 0,1 1.5,0Z" style="opacity: 1; stroke: rgb(229, 166, 114); stroke-opacity: 1; stroke-width: 1px; fill: none;"/><path class="point" transform="translate(304.32,359.3)" d="M1.5,0A1.5,1.5 0 1,1 0,-1.5A1.5,1.5 0 0,1 1.5,0Z" style="opacity: 1; stroke: rgb(229, 166, 114); stroke-opacity: 1; stroke-width: 1px; fill: none;"/><path class="point" transform="translate(343.86,85.36)" d="M1.5,0A1.5,1.5 0 1,1 0,-1.5A1.5,1.5 0 0,1 1.5,0Z" style="opacity: 1; stroke: rgb(229, 166, 114); stroke-opacity: 1; stroke-width: 1px; fill: none;"/><path class="point" transform="translate(383.41,108.42)" d="M1.5,0A1.5,1.5 0 1,1 0,-1.5A1.5,1.5 0 0,1 1.5,0Z" style="opacity: 1; stroke: rgb(229, 166, 114); stroke-opacity: 1; stroke-width: 1px; fill: none;"/><path class="point" transform="translate(422.95,24.8)" d="M1.5,0A1.5,1.5 0 1,1 0,-1.5A1.5,1.5 0 0,1 1.5,0Z" style="opacity: 1; stroke: rgb(229, 166, 114); stroke-opacity: 1; stroke-width: 1px; fill: none;"/><path class="point" transform="translate(462.5,44.99)" d="M1.5,0A1.5,1.5 0 1,1 0,-1.5A1.5,1.5 0 0,1 1.5,0Z" style="opacity: 1; stroke: rgb(229, 166, 114); stroke-opacity: 1; stroke-width: 1px; fill: none;"/></g><g class="text"/></g><g class="trace scatter trace608c72" style="stroke-miterlimit: 2; opacity: 1;"><g class="fills"/><g class="errorbars"/><g class="lines"><path class="js-line" d="M27.5,370.83L67.05,151.68L106.59,301.62L146.14,365.06L185.68,281.44L225.23,85.36L264.77,336.23L304.32,307.39L343.86,122.84L383.41,62.29L422.95,362.18L462.5,255.49" style="vector-effect: none; fill: none; stroke: rgb(57, 211, 180); stroke-opacity: 1; stroke-width: 2px; opacity: 1;"/></g><g class="points"><path class="point" transform="translate(27.5,370.83)" d="M1.5,0A1.5,1.5 0 1,1 0,-1.5A1.5,1.5 0 0,1 1.5,0Z" style="opacity: 1; stroke: rgb(57, 211, 180); stroke-opacity: 1; stroke-width: 1px; fill: none;"/><path class="point" transform="translate(67.05,151.68)" d="M1.5,0A1.5,1.5 0 1,1 0,-1.5A1.5,1.5 0 0,1 1.5,0Z" style="opacity: 1; stroke: rgb(57, 211, 180); stroke-opacity: 1; stroke-width: 1px; fill: none;"/><path class="point" transform="translate(106.59,301.62)" d="M1.5,0A1.5,1.5 0 1,1 0,-1.5A1.5,1.5 0 0,1 1.5,0Z" style="opacity: 1; stroke: rgb(57, 211, 180); stroke-opacity: 1; stroke-width: 1px; fill: none;"/><path class="point" transform="translate(146.14,365.06)" d="M1.5,0A1.5,1.5 0 1,1 0,-1.5A1.5,1.5 0 0,1 1.5,0Z" style="opacity: 1; stroke: rgb(57, 211, 180); stroke-opacity: 1; stroke-width: 1px; fill: none;"/><path class="point" transform="translate(185.68,281.44)" d="M1.5,0A1.5,1.5 0 1,1 0,-1.5A1.5,1.5 0 0,1 1.5,0Z" style="opacity: 1; stroke: rgb(57, 211, 180); stroke-opacity: 1; stroke-width: 1px; fill: none;"/><path class="point" transform="translate(225.23,85.36)" d="M1.5,0A1.5,1.5 0 1,1 0,-1.5A1.5,1.5 0 0,1 1.5,0Z" style="opacity: 1; stroke: rgb(57, 211, 180); stroke-opacity: 1; stroke-width: 1px; fill: none;"/><path class="point" transform="translate(264.77,336.23)" d="M1.5,0A1.5,1.5 0 1,1 0,-1.5A1.5,1.5 0 0,1 1.5,0Z" style="opacity: 1; stroke: rgb(57, 211, 180); stroke-opacity: 1; stroke-width: 1px; fill: none;"/><path class="point" transform="translate(304.32,307.39)" d="M1.5,0A1.5,1.5 0 1,1 0,-1.5A1.5,1.5 0 0,1 1.5,0Z" style="opacity: 1; stroke: rgb(57, 211, 180); stroke-opacity: 1; stroke-width: 1px; fill: none;"/><path class="point" transform="translate(343.86,122.84)" d="M1.5,0A1.5,1.5 0 1,1 0,-1.5A1.5,1.5 0 0,1 1.5,0Z" style="opacity: 1; stroke: rgb(57, 211, 180); stroke-opacity: 1; stroke-width: 1px; fill: none;"/><path class="point" transform="translate(383.41,62.29)" d="M1.5,0A1.5,1.5 0 1,1 0,-1.5A1.5,1.5 0 0,1 1.5,0Z" style="opacity: 1; stroke: rgb(57, 211, 180); stroke-opacity: 1; stroke-width: 1px; fill: none;"/><path class="point" transform="translate(422.95,362.18)" d="M1.5,0A1.5,1.5 0 1,1 0,-1.5A1.5,1.5 0 0,1 1.5,0Z" style="opacity: 1; stroke: rgb(57, 211, 180); stroke-opacity: 1; stroke-width: 1px; fill: none;"/><path class="point" transform="translate(462.5,255.49)" d="M1.5,0A1.5,1.5 0 1,1 0,-1.5A1.5,1.5 0 0,1 1.5,0Z" style="opacity: 1; stroke: rgb(57, 211, 180); stroke-opacity: 1; stroke-width: 1px; fill: none;"/></g><g class="text"/></g></g></g><g class="overplot"/><path class="xlines-above crisp" d="M0,0" style="fill: none;"/><path class="ylines-above crisp" d="M0,0" style="fill: none;"/><g class="overlines-above"/><g class="xaxislayer-above"><g class="xtick"><text text-anchor="start" x="2.9749999999999996" y="505.5" transform="translate(117.39,0) rotate(90,2.9749999999999996,497)" style="font-family: avenir; font-size: 17px; fill: rgb(0, 0, 0); fill-opacity: 1; white-space: pre; opacity: 1;">1920</text></g><g class="xtick"><text text-anchor="start" x="2.9749999999999996" y="505.5" style="font-family: avenir; font-size: 17px; fill: rgb(0, 0, 0); fill-opacity: 1; white-space: pre; opacity: 1;" transform="translate(216.25,0) rotate(90,2.9749999999999996,497)">1930</text></g><g class="xtick"><text text-anchor="start" x="2.9749999999999996" y="505.5" style="font-family: avenir; font-size: 17px; fill: rgb(0, 0, 0); fill-opacity: 1; white-space: pre; opacity: 1;" transform="translate(315.11,0) rotate(90,2.9749999999999996,497)">1940</text></g><g class="xtick"><text text-anchor="start" x="2.9749999999999996" y="505.5" style="font-family: avenir; font-size: 17px; fill: rgb(0, 0, 0); fill-opacity: 1; white-space: pre; opacity: 1;" transform="translate(413.98,0) rotate(90,2.9749999999999996,497)">1950</text></g><g class="xtick"><text text-anchor="start" x="2.9749999999999996" y="505.5" style="font-family: avenir; font-size: 17px; fill: rgb(0, 0, 0); fill-opacity: 1; white-space: pre; opacity: 1;" transform="translate(512.8399999999999,0) rotate(90,2.9749999999999996,497)">1960</text></g></g><g class="yaxislayer-above"><g class="ytick"><text text-anchor="end" x="79" y="5.949999999999999" transform="translate(0,474.08)" style="font-family: avenir; font-size: 17px; fill: rgb(0, 0, 0); fill-opacity: 1; white-space: pre; opacity: 1;">0</text></g><g class="ytick"><text text-anchor="end" x="79" y="5.949999999999999" style="font-family: avenir; font-size: 17px; fill: rgb(0, 0, 0); fill-opacity: 1; white-space: pre; opacity: 1;" transform="translate(0,416.41)">20</text></g><g class="ytick"><text text-anchor="end" x="79" y="5.949999999999999" style="font-family: avenir; font-size: 17px; fill: rgb(0, 0, 0); fill-opacity: 1; white-space: pre; opacity: 1;" transform="translate(0,358.74)">40</text></g><g class="ytick"><text text-anchor="end" x="79" y="5.949999999999999" style="font-family: avenir; font-size: 17px; fill: rgb(0, 0, 0); fill-opacity: 1; white-space: pre; opacity: 1;" transform="translate(0,301.07)">60</text></g><g class="ytick"><text text-anchor="end" x="79" y="5.949999999999999" style="font-family: avenir; font-size: 17px; fill: rgb(0, 0, 0); fill-opacity: 1; white-space: pre; opacity: 1;" transform="translate(0,243.4)">80</text></g><g class="ytick"><text text-anchor="end" x="79" y="5.949999999999999" style="font-family: avenir; font-size: 17px; fill: rgb(0, 0, 0); fill-opacity: 1; white-space: pre; opacity: 1;" transform="translate(0,185.73000000000002)">100</text></g><g class="ytick"><text text-anchor="end" x="79" y="5.949999999999999" style="font-family: avenir; font-size: 17px; fill: rgb(0, 0, 0); fill-opacity: 1; white-space: pre; opacity: 1;" transform="translate(0,128.05)">120</text></g><g class="ytick"><text text-anchor="end" x="79" y="5.949999999999999" style="font-family: avenir; font-size: 17px; fill: rgb(0, 0, 0); fill-opacity: 1; white-space: pre; opacity: 1;" transform="translate(0,70.38)">140</text></g></g><g class="overaxes-above"/></g></g><g class="polarlayer"/><g class="smithlayer"/><g class="ternarylayer"/><g class="geolayer"/><g class="funnelarealayer"/><g class="pielayer"/><g class="iciclelayer"/><g class="treemaplayer"/><g class="sunburstlayer"/><g class="glimages"/><defs id="topdefs-e7988d"><g class="clips"/><clipPath id="legende7988d"><rect width="503" height="48" x="0" y="0"/></clipPath></defs><g class="layer-above"><g class="imagelayer"/><g class="shapelayer"/></g><g class="infolayer"><g class="legend" pointer-events="all" transform="translate(80,539.6)"><rect class="bg" shape-rendering="crispEdges" style="stroke: rgb(68, 68, 68); stroke-opacity: 1; fill: rgb(255, 255, 255); fill-opacity: 1; stroke-width: 0px;" width="503" height="48" x="0" y="0"/><g class="scrollbox" transform="" clip-path="url(#legende7988d)"><text class="legendtitletext" text-anchor="start" x="2" y="18.2" style="font-family: avenir; font-size: 14px; fill: rgb(42, 63, 95); fill-opacity: 1; white-space: pre;">fire learn three</text><g class="groups" transform=""><g class="traces" transform="translate(93.1875,14.5)" style="opacity: 1;"><text class="legendtext" text-anchor="start" x="40" y="4.680000000000001" style="font-family: avenir; font-size: 12px; fill: rgb(42, 63, 95); fill-opacity: 1; white-space: pre;">area always more</text><g class="layers" style="opacity: 1;"><g class="legendfill"/><g class="legendlines"><path class="js-line" d="M5,0h30" style="fill: none; stroke: rgb(247, 155, 244); stroke-opacity: 1; stroke-width: 2px;"/></g><g class="legendsymbols"><g class="legendpoints"><path class="scatterpts" transform="translate(20,0)" d="M1.5,0A1.5,1.5 0 1,1 0,-1.5A1.5,1.5 0 0,1 1.5,0Z" style="opacity: 1; stroke: rgb(247, 155, 244); stroke-opacity: 1; stroke-width: 1px; fill: none;"/></g></g></g><rect class="legendtoggle" x="0" y="-9.5" width="127.140625" height="19" style="fill: rgb(0, 0, 0); fill-opacity: 0;"/></g></g><g class="groups" transform="translate(129.640625,0)"><g class="traces" transform="translate(93.1875,14.5)" style="opacity: 1;"><text class="legendtext" text-anchor="start" x="40" y="4.680000000000001" style="font-family: avenir; font-size: 12px; fill: rgb(42, 63, 95); fill-opacity: 1; white-space: pre;">clear them be</text><g class="layers" style="opacity: 1;"><g class="legendfill"/><g class="legendlines"><path class="js-line" d="M5,0h30" style="fill: none; stroke: rgb(178, 241, 244); stroke-opacity: 1; stroke-width: 2px;"/></g><g class="legendsymbols"><g class="legendpoints"><path class="scatterpts" transform="translate(20,0)" d="M1.5,0A1.5,1.5 0 1,1 0,-1.5A1.5,1.5 0 0,1 1.5,0Z" style="opacity: 1; stroke: rgb(178, 241, 244); stroke-opacity: 1; stroke-width: 1px; fill: none;"/></g></g></g><rect class="legendtoggle" x="0" y="-9.5" width="107.8125" height="19" style="fill: rgb(0, 0, 0); fill-opacity: 0;"/></g></g><g class="groups" transform="translate(239.953125,0)"><g class="traces" transform="translate(93.1875,14.5)" style="opacity: 1;"><text class="legendtext" text-anchor="start" x="40" y="4.680000000000001" style="font-family: avenir; font-size: 12px; fill: rgb(42, 63, 95); fill-opacity: 1; white-space: pre;">material program perhaps</text><g class="layers" style="opacity: 1;"><g class="legendfill"/><g class="legendlines"><path class="js-line" d="M5,0h30" style="fill: none; stroke: rgb(229, 166, 114); stroke-opacity: 1; stroke-width: 2px;"/></g><g class="legendsymbols"><g class="legendpoints"><path class="scatterpts" transform="translate(20,0)" d="M1.5,0A1.5,1.5 0 1,1 0,-1.5A1.5,1.5 0 0,1 1.5,0Z" style="opacity: 1; stroke: rgb(229, 166, 114); stroke-opacity: 1; stroke-width: 1px; fill: none;"/></g></g></g><rect class="legendtoggle" x="0" y="-9.5" width="167.125" height="19" style="fill: rgb(0, 0, 0); fill-opacity: 0;"/></g></g><g class="groups" transform="translate(0,19)"><g class="traces" transform="translate(93.1875,14.5)" style="opacity: 1;"><text class="legendtext" text-anchor="start" x="40" y="4.680000000000001" style="font-family: avenir; font-size: 12px; fill: rgb(42, 63, 95); fill-opacity: 1; white-space: pre;">beautiful how car</text><g class="layers" style="opacity: 1;"><g class="legendfill"/><g class="legendlines"><path class="js-line" d="M5,0h30" style="fill: none; stroke: rgb(57, 211, 180); stroke-opacity: 1; stroke-width: 2px;"/></g><g class="legendsymbols"><g class="legendpoints"><path class="scatterpts" transform="translate(20,0)" d="M1.5,0A1.5,1.5 0 1,1 0,-1.5A1.5,1.5 0 0,1 1.5,0Z" style="opacity: 1; stroke: rgb(57, 211, 180); stroke-opacity: 1; stroke-width: 1px; fill: none;"/></g></g></g><rect class="legendtoggle" x="0" y="-9.5" width="128.46875" height="19" style="fill: rgb(0, 0, 0); fill-opacity: 0;"/></g></g></g><rect class="scrollbar" rx="20" ry="3" width="0" height="0" style="fill: rgb(128, 139, 164); fill-opacity: 1;" x="0" y="0"/></g><g class="g-gtitle"><text class="gtitle" x="325" y="30" text-anchor="middle" dy="0em" style="font-family: avenir; font-size: 25px; fill: rgb(0, 0, 0); opacity: 1; font-weight: normal; white-space: pre;">crime necessary star</text></g><g class="g-xtitle"/><g class="g-ytitle"/></g></svg>