<svg class="main-svg" xmlns="http://www.w3.org/2000/svg" xmlns:xlink="http://www.w3.org/1999/xlink" width="943" height="600" style="" viewBox="0 0 943 600"><rect x="0" y="0" width="943" height="600" style="fill: rgb(255, 255, 255); fill-opacity: 1;"/><defs id="defs-4571c7"><g class="clips"><clipPath id="clip4571c7xyplot" class="plotclip"><rect width="703" height="460"/></clipPath><clipPath class="axesclip" id="clip4571c7x"><rect x="80" y="0" width="703" height="600"/></clipPath><clipPath class="axesclip" id="clip4571c7y"><rect x="0" y="60" width="943" height="460"/></clipPath><clipPath class="axesclip" id="clip4571c7xy"><rect x="80" y="60" width="703" height="460"/></clipPath></g><g class="gradients"/><g class="patterns"/></defs><g class="bglayer"><rect class="bg" x="80" y="60" width="703" height="460" style="fill: rgb(255, 255, 255); fill-opacity: 1; stroke-width: 0;"/></g><g class="layer-below"><g class="imagelayer"/><g class="shapelayer"/></g><g class="cartesianlayer"><g class="subplot xy"><g class="layer-subplot"><g class="shapelayer"/><g class="imagelayer"/></g><g class="minor-gridlayer"><g class="x"/><g class="y"/></g><g class="gridlayer"><g class="x"><path class="xgrid crisp" transform="translate(119.52000000000001,0)" d="M0,60v460" style="stroke: rgb(208, 208, 208); stroke-opacity: 1; stroke-width: 1px;"/><path class="xgrid crisp" transform="translate(208.66,0)" d="M0,60v460" style="stroke: rgb(208, 208, 208); stroke-opacity: 1; stroke-width: 1px;"/><path class="xgrid crisp" transform="translate(297.8,0)" d="M0,60v460" style="stroke: rgb(208, 208, 208); stroke-opacity: 1; stroke-width: 1px;"/><path class="xgrid crisp" transform="translate(386.93,0)" d="M0,60v460" style="stroke: rgb(208, 208, 208); stroke-opacity: 1; stroke-width: 1px;"/><path class="xgrid crisp" transform="translate(476.07,0)" d="M0,60v460" style="stroke: rgb(208, 208, 208); stroke-opacity: 1; stroke-width: 1px;"/><path class="xgrid crisp" transform="translate(565.2,0)" d="M0,60v460" style="stroke: rgb(208, 208, 208); stroke-opacity: 1; stroke-width: 1px;"/><path class="xgrid crisp" transform="translate(654.34,0)" d="M0,60v460" style="stroke: rgb(208, 208, 208); stroke-opacity: 1; stroke-width: 1px;"/><path class="xgrid crisp" transform="translate(743.47,0)" d="M0,60v460" style="stroke: rgb(208, 208, 208); stroke-opacity: 1; stroke-width: 1px;"/></g><g class="y"/></g><g class="zerolinelayer"/><path class="xlines-below"/><path class="ylines-below"/><g class="overlines-below"/><g class="xaxislayer-below"/><g class="yaxislayer-below"/><g class="overaxes-below"/><g class="plot" transform="translate(80,60)" clip-path="url(#clip4571c7xyplot)"><g class="scatterlayer mlayer"><g class="trace scatter trace136b6f" style="stroke-miterlimit: 2; opacity: 1;"><g class="fills"/><g class="errorbars"/><g class="lines"><path class="js-line" d="M39.52,199.18L128.66,311L217.8,391.72L306.93,27.38L396.07,432.63L485.2,181.73L574.34,37.74L663.47,263" style="vector-effect: none; fill: none; stroke: rgb(255, 170, 153); stroke-opacity: 1; stroke-width: 2px; opacity: 1;"/></g><g class="points"><path class="point" transform="translate(39.52,199.18)" d="M3.5,0A3.5,3.5 0 1,1 0,-3.5A3.5,3.5 0 0,1 3.5,0Z" style="opacity: 1; stroke: rgb(255, 170, 153); stroke-opacity: 1; stroke-width: 1px; fill: none;"/><path class="point" transform="translate(128.66,311)" d="M3.5,0A3.5,3.5 0 1,1 0,-3.5A3.5,3.5 0 0,1 3.5,0Z" style="opacity: 1; stroke: rgb(255, 170, 153); stroke-opacity: 1; stroke-width: 1px; fill: none;"/><path class="point" transform="translate(217.8,391.72)" d="M3.5,0A3.5,3.5 0 1,1 0,-3.5A3.5,3.5 0 0,1 3.5,0Z" style="opacity: 1; stroke: rgb(255, 170, 153); stroke-opacity: 1; stroke-width: 1px; fill: none;"/><path class="point" transform="translate(306.93,27.38)" d="M3.5,0A3.5,3.5 0 1,1 0,-3.5A3.5,3.5 0 0,1 3.5,0Z" style="opacity: 1; stroke: rgb(255, 170, 153); stroke-opacity: 1; stroke-width: 1px; fill: none;"/><path class="point" transform="translate(396.07,432.63)" d="M3.5,0A3.5,3.5 0 1,1 0,-3.5A3.5,3.5 0 0,1 3.5,0Z" style="opacity: 1; stroke: rgb(255, 170, 153); stroke-opacity: 1; stroke-width: 1px; fill: none;"/><path class="point" transform="translate(485.2,181.73)" d="M3.5,0A3.5,3.5 0 1,1 0,-3.5A3.5,3.5 0 0,1 3.5,0Z" style="opacity: 1; stroke: rgb(255, 170, 153); stroke-opacity: 1; stroke-width: 1px; fill: none;"/><path class="point" transform="translate(574.34,37.74)" d="M3.5,0A3.5,3.5 0 1,1 0,-3.5A3.5,3.5 0 0,1 3.5,0Z" style="opacity: 1; stroke: rgb(255, 170, 153); stroke-opacity: 1; stroke-width: 1px; fill: none;"/><path class="point" transform="translate(663.47,263)" d="M3.5,0A3.5,3.5 0 1,1 0,-3.5A3.5,3.5 0 0,1 3.5,0Z" style="opacity: 1; stroke: rgb(255, 170, 153); stroke-opacity: 1; stroke-width: 1px; fill: none;"/></g><g class="text"/></g></g></g><g class="overplot"/><path class="xlines-above crisp" d="M0,0" style="fill: none;"/><path class="ylines-above crisp" d="M79.5,60V520" style="fill: none; stroke-width: 1px; stroke: rgb(255, 255, 255); stroke-opacity: 1;"/><g class="overlines-above"/><g class="xaxislayer-above"><g class="xtick"><text text-anchor="start" x="0" y="533" transform="translate(119.52000000000001,0) rotate(45,0,527)" style="font-family: avenir; font-size: 12px; fill: rgb(0, 0, 0); fill-opacity: 1; white-space: pre; opacity: 1;">1976</text></g><g class="xtick"><text text-anchor="start" x="0" y="533" style="font-family: avenir; font-size: 12px; fill: rgb(0, 0, 0); fill-opacity: 1; white-space: pre; opacity: 1;" transform="translate(208.66,0) rotate(45,0,527)">1977</text></g><g class="xtick"><text text-anchor="start" x="0" y="533" style="font-family: avenir; font-size: 12px; fill: rgb(0, 0, 0); fill-opacity: 1; white-space: pre; opacity: 1;" transform="translate(297.8,0) rotate(45,0,527)">1978</text></g><g class="xtick"><text text-anchor="start" x="0" y="533" style="font-family: avenir; font-size: 12px; fill: rgb(0, 0, 0); fill-opacity: 1; white-space: pre; opacity: 1;" transform="translate(386.93,0) rotate(45,0,527)">1979</text></g><g class="xtick"><text text-anchor="start" x="0" y="533" style="font-family: avenir; font-size: 12px; fill: rgb(0, 0, 0); fill-opacity: 1; white-space: pre; opacity: 1;" transform="translate(476.07,0) rotate(45,0,527)">1980</text></g><g class="xtick"><text text-anchor="start" x="0" y="533" style="font-family: avenir; font-size: 12px; fill: rgb(0, 0, 0); fill-opacity: 1; white-space: pre; opacity: 1;" transform="translate(565.2,0) rotate(45,0,527)">1981</text></g><g class="xtick"><text text-anchor="start" x="0" y="533" style="font-family: avenir; font-size: 12px; fill: rgb(0, 0, 0); fill-opacity: 1; white-space: pre; opacity: 1;" transform="translate(654.34,0) rotate(45,0,527)">1982</text></g><g class="xtick"><text text-anchor="start" x="0" y="533" style="font-family: avenir; font-size: 12px; fill: rgb(0, 0, 0); fill-opacity: 1; white-space: pre; opacity: 1;" transform="translate(743.47,0) rotate(45,0,527)">1983</text></g></g><g class="yaxislayer-above"><g class="ytick"><text text-anchor="end" x="76.6" y="4.199999999999999" transform="translate(0,504.08)" style="font-family: avenir; font-size: 12px; fill: rgb(0, 0, 0); fill-opacity: 1; white-space: pre; opacity: 1;">100</text></g><g class="ytick"><text text-anchor="end" x="76.6" y="4.199999999999999" style="font-family: avenir; font-size: 12px; fill: rgb(0, 0, 0); fill-opacity: 1; white-space: pre; opacity: 1;" transform="translate(0,449.54)">200</text></g><g class="ytick"><text text-anchor="end" x="76.6" y="4.199999999999999" style="font-family: avenir; font-size: 12px; fill: rgb(0, 0, 0); fill-opacity: 1; white-space: pre; opacity: 1;" transform="translate(0,394.99)">300</text></g><g class="ytick"><text text-anchor="end" x="76.6" y="4.199999999999999" style="font-family: avenir; font-size: 12px; fill: rgb(0, 0, 0); fill-opacity: 1; white-space: pre; opacity: 1;" transform="translate(0,340.45)">400</text></g><g class="ytick"><text text-anchor="end" x="76.6" y="4.199999999999999" style="font-family: avenir; font-size: 12px; fill: rgb(0, 0, 0); fill-opacity: 1; white-space: pre; opacity: 1;" transform="translate(0,285.90999999999997)">500</text></g><g class="ytick"><text text-anchor="end" x="76.6" y="4.199999999999999" style="font-family: avenir; font-size: 12px; fill: rgb(0, 0, 0); fill-opacity: 1; white-space: pre; opacity: 1;" transform="translate(0,231.37)">600</text></g><g class="ytick"><text text-anchor="end" x="76.6" y="4.199999999999999" style="font-family: avenir; font-size: 12px; fill: rgb(0, 0, 0); fill-opacity: 1; white-space: pre; opacity: 1;" transform="translate(0,176.82)">700</text></g><g class="ytick"><text text-anchor="end" x="76.6" y="4.199999999999999" style="font-family: avenir; font-size: 12px; fill: rgb(0, 0, 0); fill-opacity: 1; white-space: pre; opacity: 1;" transform="translate(0,122.28)">800</text></g><g class="ytick"><text text-anchor="end" x="76.6" y="4.199999999999999" style="font-family: avenir; font-size: 12px; fill: rgb(0, 0, 0); fill-opacity: 1; white-space: pre; opacity: 1;" transform="translate(0,67.74)">900</text></g></g><g class="overaxes-above"/></g></g><g class="polarlayer"/><g class="smithlayer"/><g class="ternarylayer"/><g class="geolayer"/><g class="funnelarealayer"/><g class="pielayer"/><g class="iciclelayer"/><g class="treemaplayer"/><g class="sunburstlayer"/><g class="glimages"/><defs id="topdefs-4571c7"><g class="clips"/><clipPath id="legend4571c7"><rect width="134" height="48" x="0" y="0"/></clipPath></defs><g class="layer-above"><g class="imagelayer"/><g class="shapelayer"/></g><g class="infolayer"><g class="legend" pointer-events="all" transform="translate(797.0600000000001,60)"><rect class="bg" shape-rendering="crispEdges" style="stroke: rgb(68, 68, 68); stroke-opacity: 1; fill: rgb(255, 255, 255); fill-opacity: 1; stroke-width: 0px;" width="134" height="48" x="0" y="0"/><g class="scrollbox" transform="" clip-path="url(#legend4571c7)"><text class="legendtitletext" text-anchor="start" x="2" y="18.2" style="font-family: avenir; font-size: 14px; fill: rgb(42, 63, 95); fill-opacity: 1; white-space: pre;">most send young</text><g class="groups" transform=""><g class="traces" transform="translate(0,32.7)" style="opacity: 1;"><text class="legendtext" text-anchor="start" x="40" y="4.680000000000001" style="font-family: avenir; font-size: 12px; fill: rgb(42, 63, 95); fill-opacity: 1; white-space: pre;">stop meeting even</text><g class="layers" style="opacity: 1;"><g class="legendfill"/><g class="legendlines"><path class="js-line" d="M5,0h30" style="fill: none; stroke: rgb(255, 170, 153); stroke-opacity: 1; stroke-width: 2px;"/></g><g class="legendsymbols"><g class="legendpoints"><path class="scatterpts" transform="translate(20,0)" d="M3.5,0A3.5,3.5 0 1,1 0,-3.5A3.5,3.5 0 0,1 3.5,0Z" style="opacity: 1; stroke: rgb(255, 170, 153); stroke-opacity: 1; stroke-width: 1px; fill: none;"/></g></g></g><rect class="legendtoggle" x="0" y="-9.5" width="128.3125" height="19" style="fill: rgb(0, 0, 0); fill-opacity: 0;"/></g></g></g><rect class="scrollbar" rx="20" ry="3" width="0" height="0" style="fill: rgb(128, 139, 164); fill-opacity: 1;" x="0" y="0"/></g><g class="g-gtitle"><text class="gtitle" x="471.5" y="30" text-anchor="middle" dy="0em" style="font-family: avenir; font-size: 25px; fill: rgb(0, 0, 0); opacity: 1; font-weight: normal; white-space: pre;">order parent would</text></g><g class="g-xtitle"><text class="xtitle" x="431.5" y="574.6349609375" text-anchor="middle" style="font-family: avenir; font-size: 14px; fill: rgb(0, 0, 0); opacity: 1; font-weight: normal; white-space: pre;">Year</text></g><g class="g-ytitle"/></g></svg>