<svg class="main-svg" xmlns="http://www.w3.org/2000/svg" xmlns:xlink="http://www.w3.org/1999/xlink" width="762" height="600" style="" viewBox="0 0 762 600"><rect x="0" y="0" width="762" height="600" style="fill: rgb(255, 255, 255); fill-opacity: 1;"/><defs id="defs-74992b"><g class="clips"><clipPath id="clip74992bxyplot" class="plotclip"><rect width="495" height="460"/></clipPath><clipPath class="axesclip" id="clip74992bx"><rect x="80" y="0" width="495" height="600"/></clipPath><clipPath class="axesclip" id="clip74992by"><rect x="0" y="60" width="762" height="460"/></clipPath><clipPath class="axesclip" id="clip74992bxy"><rect x="80" y="60" width="495" height="460"/></clipPath></g><g class="gradients"/><g class="patterns"/></defs><g class="bglayer"><rect class="bg" x="80" y="60" width="495" height="460" style="fill: rgb(255, 255, 255); fill-opacity: 1; stroke-width: 0;"/></g><g class="layer-below"><g class="imagelayer"/><g class="shapelayer"/></g><g class="cartesianlayer"><g class="subplot xy"><g class="layer-subplot"><g class="shapelayer"/><g class="imagelayer"/></g><g class="minor-gridlayer"><g class="x"/><g class="y"/></g><g class="gridlayer"><g class="x"/><g class="y"/></g><g class="zerolinelayer"><path class="yzl zl crisp" transform="translate(0,499.67)" d="M80,0h495" style="stroke: rgb(255, 255, 255); stroke-opacity: 1; stroke-width: 2px;"/></g><path class="xlines-below"/><path class="ylines-below"/><g class="overlines-below"/><g class="xaxislayer-below"/><g class="yaxislayer-below"/><g class="overaxes-below"/><g class="plot" transform="translate(80,60)" clip-path="url(#clip74992bxyplot)"><g class="scatterlayer mlayer"><g class="trace scatter trace82cebe" style="stroke-miterlimit: 2; opacity: 1;"><g class="fills"/><g class="errorbars"/><g class="lines"><path class="js-line" d="M31,283.53L70.36,179.81L109.73,98.4L149.09,381.68L188.45,321.45L227.82,98.4L267.18,290.22L306.55,59.36L345.91,311.42L385.27,41.52L424.64,136.32L464,241.15" style="vector-effect: none; fill: none; stroke: rgb(249, 177, 178); stroke-opacity: 1; stroke-width: 2px; opacity: 1;"/></g><g class="points"><path class="point" transform="translate(31,283.53)" d="M5,0A5,5 0 1,1 0,-5A5,5 0 0,1 5,0Z" style="opacity: 1; stroke: rgb(249, 177, 178); stroke-opacity: 1; stroke-width: 1px; fill: none;"/><path class="point" transform="translate(70.36,179.81)" d="M5,0A5,5 0 1,1 0,-5A5,5 0 0,1 5,0Z" style="opacity: 1; stroke: rgb(249, 177, 178); stroke-opacity: 1; stroke-width: 1px; fill: none;"/><path class="point" transform="translate(109.73,98.4)" d="M5,0A5,5 0 1,1 0,-5A5,5 0 0,1 5,0Z" style="opacity: 1; stroke: rgb(249, 177, 178); stroke-opacity: 1; stroke-width: 1px; fill: none;"/><path class="point" transform="translate(149.09,381.68)" d="M5,0A5,5 0 1,1 0,-5A5,5 0 0,1 5,0Z" style="opacity: 1; stroke: rgb(249, 177, 178); stroke-opacity: 1; stroke-width: 1px; fill: none;"/><path class="point" transform="translate(188.45,321.45)" d="M5,0A5,5 0 1,1 0,-5A5,5 0 0,1 5,0Z" style="opacity: 1; stroke: rgb(249, 177, 178); stroke-opacity: 1; stroke-width: 1px; fill: none;"/><path class="point" transform="translate(227.82,98.4)" d="M5,0A5,5 0 1,1 0,-5A5,5 0 0,1 5,0Z" style="opacity: 1; stroke: rgb(249, 177, 178); stroke-opacity: 1; stroke-width: 1px; fill: none;"/><path class="point" transform="translate(267.18,290.22)" d="M5,0A5,5 0 1,1 0,-5A5,5 0 0,1 5,0Z" style="opacity: 1; stroke: rgb(249, 177, 178); stroke-opacity: 1; stroke-width: 1px; fill: none;"/><path class="point" transform="translate(306.55,59.36)" d="M5,0A5,5 0 1,1 0,-5A5,5 0 0,1 5,0Z" style="opacity: 1; stroke: rgb(249, 177, 178); stroke-opacity: 1; stroke-width: 1px; fill: none;"/><path class="point" transform="translate(345.91,311.42)" d="M5,0A5,5 0 1,1 0,-5A5,5 0 0,1 5,0Z" style="opacity: 1; stroke: rgb(249, 177, 178); stroke-opacity: 1; stroke-width: 1px; fill: none;"/><path class="point" transform="translate(385.27,41.52)" d="M5,0A5,5 0 1,1 0,-5A5,5 0 0,1 5,0Z" style="opacity: 1; stroke: rgb(249, 177, 178); stroke-opacity: 1; stroke-width: 1px; fill: none;"/><path class="point" transform="translate(424.64,136.32)" d="M5,0A5,5 0 1,1 0,-5A5,5 0 0,1 5,0Z" style="opacity: 1; stroke: rgb(249, 177, 178); stroke-opacity: 1; stroke-width: 1px; fill: none;"/><path class="point" transform="translate(464,241.15)" d="M5,0A5,5 0 1,1 0,-5A5,5 0 0,1 5,0Z" style="opacity: 1; stroke: rgb(249, 177, 178); stroke-opacity: 1; stroke-width: 1px; fill: none;"/></g><g class="text"/></g><g class="trace scatter traceaa61e2" style="stroke-miterlimit: 2; opacity: 1;"><g class="fills"/><g class="errorbars"/><g class="lines"><path class="js-line" d="M31,347.1L70.36,143.01L109.73,189.85L149.09,402.87L188.45,29.25L227.82,430.75L267.18,361.6L306.55,266.8L345.91,328.14L385.27,72.75L424.64,233.35L464,186.5" style="vector-effect: none; fill: none; stroke: rgb(28, 181, 170); stroke-opacity: 1; stroke-width: 2px; opacity: 1;"/></g><g class="points"><path class="point" transform="translate(31,347.1)" d="M5,0A5,5 0 1,1 0,-5A5,5 0 0,1 5,0Z" style="opacity: 1; stroke: rgb(28, 181, 170); stroke-opacity: 1; stroke-width: 1px; fill: none;"/><path class="point" transform="translate(70.36,143.01)" d="M5,0A5,5 0 1,1 0,-5A5,5 0 0,1 5,0Z" style="opacity: 1; stroke: rgb(28, 181, 170); stroke-opacity: 1; stroke-width: 1px; fill: none;"/><path class="point" transform="translate(109.73,189.85)" d="M5,0A5,5 0 1,1 0,-5A5,5 0 0,1 5,0Z" style="opacity: 1; stroke: rgb(28, 181, 170); stroke-opacity: 1; stroke-width: 1px; fill: none;"/><path class="point" transform="translate(149.09,402.87)" d="M5,0A5,5 0 1,1 0,-5A5,5 0 0,1 5,0Z" style="opacity: 1; stroke: rgb(28, 181, 170); stroke-opacity: 1; stroke-width: 1px; fill: none;"/><path class="point" transform="translate(188.45,29.25)" d="M5,0A5,5 0 1,1 0,-5A5,5 0 0,1 5,0Z" style="opacity: 1; stroke: rgb(28, 181, 170); stroke-opacity: 1; stroke-width: 1px; fill: none;"/><path class="point" transform="translate(227.82,430.75)" d="M5,0A5,5 0 1,1 0,-5A5,5 0 0,1 5,0Z" style="opacity: 1; stroke: rgb(28, 181, 170); stroke-opacity: 1; stroke-width: 1px; fill: none;"/><path class="point" transform="translate(267.18,361.6)" d="M5,0A5,5 0 1,1 0,-5A5,5 0 0,1 5,0Z" style="opacity: 1; stroke: rgb(28, 181, 170); stroke-opacity: 1; stroke-width: 1px; fill: none;"/><path class="point" transform="translate(306.55,266.8)" d="M5,0A5,5 0 1,1 0,-5A5,5 0 0,1 5,0Z" style="opacity: 1; stroke: rgb(28, 181, 170); stroke-opacity: 1; stroke-width: 1px; fill: none;"/><path class="point" transform="translate(345.91,328.14)" d="M5,0A5,5 0 1,1 0,-5A5,5 0 0,1 5,0Z" style="opacity: 1; stroke: rgb(28, 181, 170); stroke-opacity: 1; stroke-width: 1px; fill: none;"/><path class="point" transform="translate(385.27,72.75)" d="M5,0A5,5 0 1,1 0,-5A5,5 0 0,1 5,0Z" style="opacity: 1; stroke: rgb(28, 181, 170); stroke-opacity: 1; stroke-width: 1px; fill: none;"/><path class="point" transform="translate(424.64,233.35)" d="M5,0A5,5 0 1,1 0,-5A5,5 0 0,1 5,0Z" style="opacity: 1; stroke: rgb(28, 181, 170); stroke-opacity: 1; stroke-width: 1px; fill: none;"/><path class="point" transform="translate(464,186.5)" d="M5,0A5,5 0 1,1 0,-5A5,5 0 0,1 5,0Z" style="opacity: 1; stroke: rgb(28, 181, 170); stroke-opacity: 1; stroke-width: 1px; fill: none;"/></g><g class="text"/></g><g class="trace scatter tracede98f2" style="stroke-miterlimit: 2; opacity: 1;"><g class="fills"/><g class="errorbars"/><g class="lines"><path class="js-line" d="M31,364.95L70.36,105.09L109.73,138.55L149.09,306.95L188.45,234.46L227.82,379.45L267.18,405.1L306.55,144.12L345.91,144.12L385.27,312.53L424.64,212.16L464,263.46" style="vector-effect: none; fill: none; stroke: rgb(16, 28, 242); stroke-opacity: 1; stroke-width: 2px; opacity: 1;"/></g><g class="points"><path class="point" transform="translate(31,364.95)" d="M5,0A5,5 0 1,1 0,-5A5,5 0 0,1 5,0Z" style="opacity: 1; stroke: rgb(16, 28, 242); stroke-opacity: 1; stroke-width: 1px; fill: none;"/><path class="point" transform="translate(70.36,105.09)" d="M5,0A5,5 0 1,1 0,-5A5,5 0 0,1 5,0Z" style="opacity: 1; stroke: rgb(16, 28, 242); stroke-opacity: 1; stroke-width: 1px; fill: none;"/><path class="point" transform="translate(109.73,138.55)" d="M5,0A5,5 0 1,1 0,-5A5,5 0 0,1 5,0Z" style="opacity: 1; stroke: rgb(16, 28, 242); stroke-opacity: 1; stroke-width: 1px; fill: none;"/><path class="point" transform="translate(149.09,306.95)" d="M5,0A5,5 0 1,1 0,-5A5,5 0 0,1 5,0Z" style="opacity: 1; stroke: rgb(16, 28, 242); stroke-opacity: 1; stroke-width: 1px; fill: none;"/><path class="point" transform="translate(188.45,234.46)" d="M5,0A5,5 0 1,1 0,-5A5,5 0 0,1 5,0Z" style="opacity: 1; stroke: rgb(16, 28, 242); stroke-opacity: 1; stroke-width: 1px; fill: none;"/><path class="point" transform="translate(227.82,379.45)" d="M5,0A5,5 0 1,1 0,-5A5,5 0 0,1 5,0Z" style="opacity: 1; stroke: rgb(16, 28, 242); stroke-opacity: 1; stroke-width: 1px; fill: none;"/><path class="point" transform="translate(267.18,405.1)" d="M5,0A5,5 0 1,1 0,-5A5,5 0 0,1 5,0Z" style="opacity: 1; stroke: rgb(16, 28, 242); stroke-opacity: 1; stroke-width: 1px; fill: none;"/><path class="point" transform="translate(306.55,144.12)" d="M5,0A5,5 0 1,1 0,-5A5,5 0 0,1 5,0Z" style="opacity: 1; stroke: rgb(16, 28, 242); stroke-opacity: 1; stroke-width: 1px; fill: none;"/><path class="point" transform="translate(345.91,144.12)" d="M5,0A5,5 0 1,1 0,-5A5,5 0 0,1 5,0Z" style="opacity: 1; stroke: rgb(16, 28, 242); stroke-opacity: 1; stroke-width: 1px; fill: none;"/><path class="point" transform="translate(385.27,312.53)" d="M5,0A5,5 0 1,1 0,-5A5,5 0 0,1 5,0Z" style="opacity: 1; stroke: rgb(16, 28, 242); stroke-opacity: 1; stroke-width: 1px; fill: none;"/><path class="point" transform="translate(424.64,212.16)" d="M5,0A5,5 0 1,1 0,-5A5,5 0 0,1 5,0Z" style="opacity: 1; stroke: rgb(16, 28, 242); stroke-opacity: 1; stroke-width: 1px; fill: none;"/><path class="point" transform="translate(464,263.46)" d="M5,0A5,5 0 1,1 0,-5A5,5 0 0,1 5,0Z" style="opacity: 1; stroke: rgb(16, 28, 242); stroke-opacity: 1; stroke-width: 1px; fill: none;"/></g><g class="text"/></g><g class="trace scatter tracebd32e8" style="stroke-miterlimit: 2; opacity: 1;"><g class="fills"/><g class="errorbars"/><g class="lines"><path class="js-line" d="M31,193.2L70.36,363.83L109.73,79.44L149.09,212.16L188.45,166.43L227.82,236.69L267.18,348.22L306.55,154.16L345.91,161.97L385.27,77.21L424.64,212.16L464,180.93" style="vector-effect: none; fill: none; stroke: rgb(184, 184, 242); stroke-opacity: 1; stroke-width: 2px; opacity: 1;"/></g><g class="points"><path class="point" transform="translate(31,193.2)" d="M5,0A5,5 0 1,1 0,-5A5,5 0 0,1 5,0Z" style="opacity: 1; stroke: rgb(184, 184, 242); stroke-opacity: 1; stroke-width: 1px; fill: none;"/><path class="point" transform="translate(70.36,363.83)" d="M5,0A5,5 0 1,1 0,-5A5,5 0 0,1 5,0Z" style="opacity: 1; stroke: rgb(184, 184, 242); stroke-opacity: 1; stroke-width: 1px; fill: none;"/><path class="point" transform="translate(109.73,79.44)" d="M5,0A5,5 0 1,1 0,-5A5,5 0 0,1 5,0Z" style="opacity: 1; stroke: rgb(184, 184, 242); stroke-opacity: 1; stroke-width: 1px; fill: none;"/><path class="point" transform="translate(149.09,212.16)" d="M5,0A5,5 0 1,1 0,-5A5,5 0 0,1 5,0Z" style="opacity: 1; stroke: rgb(184, 184, 242); stroke-opacity: 1; stroke-width: 1px; fill: none;"/><path class="point" transform="translate(188.45,166.43)" d="M5,0A5,5 0 1,1 0,-5A5,5 0 0,1 5,0Z" style="opacity: 1; stroke: rgb(184, 184, 242); stroke-opacity: 1; stroke-width: 1px; fill: none;"/><path class="point" transform="translate(227.82,236.69)" d="M5,0A5,5 0 1,1 0,-5A5,5 0 0,1 5,0Z" style="opacity: 1; stroke: rgb(184, 184, 242); stroke-opacity: 1; stroke-width: 1px; fill: none;"/><path class="point" transform="translate(267.18,348.22)" d="M5,0A5,5 0 1,1 0,-5A5,5 0 0,1 5,0Z" style="opacity: 1; stroke: rgb(184, 184, 242); stroke-opacity: 1; stroke-width: 1px; fill: none;"/><path class="point" transform="translate(306.55,154.16)" d="M5,0A5,5 0 1,1 0,-5A5,5 0 0,1 5,0Z" style="opacity: 1; stroke: rgb(184, 184, 242); stroke-opacity: 1; stroke-width: 1px; fill: none;"/><path class="point" transform="translate(345.91,161.97)" d="M5,0A5,5 0 1,1 0,-5A5,5 0 0,1 5,0Z" style="opacity: 1; stroke: rgb(184, 184, 242); stroke-opacity: 1; stroke-width: 1px; fill: none;"/><path class="point" transform="translate(385.27,77.21)" d="M5,0A5,5 0 1,1 0,-5A5,5 0 0,1 5,0Z" style="opacity: 1; stroke: rgb(184, 184, 242); stroke-opacity: 1; stroke-width: 1px; fill: none;"/><path class="point" transform="translate(424.64,212.16)" d="M5,0A5,5 0 1,1 0,-5A5,5 0 0,1 5,0Z" style="opacity: 1; stroke: rgb(184, 184, 242); stroke-opacity: 1; stroke-width: 1px; fill: none;"/><path class="point" transform="translate(464,180.93)" d="M5,0A5,5 0 1,1 0,-5A5,5 0 0,1 5,0Z" style="opacity: 1; stroke: rgb(184, 184, 242); stroke-opacity: 1; stroke-width: 1px; fill: none;"/></g><g class="text"/></g></g></g><g class="overplot"/><path class="xlines-above crisp" d="M0,0" style="fill: none;"/><path class="ylines-above crisp" d="M79.5,60V520" style="fill: none; stroke-width: 1px; stroke: rgb(255, 255, 255); stroke-opacity: 1;"/><g class="overlines-above"/><g class="xaxislayer-above"><g class="xtick"><text text-anchor="start" x="2.0999999999999996" y="527" transform="translate(111,0) rotate(90,2.0999999999999996,521)" style="font-family: avenir; font-size: 12px; fill: rgb(0, 0, 0); fill-opacity: 1; white-space: pre; opacity: 1;">Jan</text></g><g class="xtick"><text text-anchor="start" x="2.0999999999999996" y="527" transform="translate(150.36,0) rotate(90,2.0999999999999996,521)" style="font-family: avenir; font-size: 12px; fill: rgb(0, 0, 0); fill-opacity: 1; white-space: pre; opacity: 1;">Feb</text></g><g class="xtick"><text text-anchor="start" x="2.0999999999999996" y="527" transform="translate(189.73000000000002,0) rotate(90,2.0999999999999996,521)" style="font-family: avenir; font-size: 12px; fill: rgb(0, 0, 0); fill-opacity: 1; white-space: pre; opacity: 1;">Mar</text></g><g class="xtick"><text text-anchor="start" x="2.0999999999999996" y="527" transform="translate(229.09,0) rotate(90,2.0999999999999996,521)" style="font-family: avenir; font-size: 12px; fill: rgb(0, 0, 0); fill-opacity: 1; white-space: pre; opacity: 1;">Apr</text></g><g class="xtick"><text text-anchor="start" x="2.0999999999999996" y="527" transform="translate(268.45,0) rotate(90,2.0999999999999996,521)" style="font-family: avenir; font-size: 12px; fill: rgb(0, 0, 0); fill-opacity: 1; white-space: pre; opacity: 1;">May</text></g><g class="xtick"><text text-anchor="start" x="2.0999999999999996" y="527" transform="translate(307.82,0) rotate(90,2.0999999999999996,521)" style="font-family: avenir; font-size: 12px; fill: rgb(0, 0, 0); fill-opacity: 1; white-space: pre; opacity: 1;">June</text></g><g class="xtick"><text text-anchor="start" x="2.0999999999999996" y="527" transform="translate(347.18,0) rotate(90,2.0999999999999996,521)" style="font-family: avenir; font-size: 12px; fill: rgb(0, 0, 0); fill-opacity: 1; white-space: pre; opacity: 1;">July</text></g><g class="xtick"><text text-anchor="start" x="2.0999999999999996" y="527" transform="translate(386.55,0) rotate(90,2.0999999999999996,521)" style="font-family: avenir; font-size: 12px; fill: rgb(0, 0, 0); fill-opacity: 1; white-space: pre; opacity: 1;">Aug</text></g><g class="xtick"><text text-anchor="start" x="2.0999999999999996" y="527" transform="translate(425.91,0) rotate(90,2.0999999999999996,521)" style="font-family: avenir; font-size: 12px; fill: rgb(0, 0, 0); fill-opacity: 1; white-space: pre; opacity: 1;">Sep</text></g><g class="xtick"><text text-anchor="start" x="2.0999999999999996" y="527" transform="translate(465.27,0) rotate(90,2.0999999999999996,521)" style="font-family: avenir; font-size: 12px; fill: rgb(0, 0, 0); fill-opacity: 1; white-space: pre; opacity: 1;">Oct</text></g><g class="xtick"><text text-anchor="start" x="2.0999999999999996" y="527" transform="translate(504.64,0) rotate(90,2.0999999999999996,521)" style="font-family: avenir; font-size: 12px; fill: rgb(0, 0, 0); fill-opacity: 1; white-space: pre; opacity: 1;">Nov</text></g><g class="xtick"><text text-anchor="start" x="2.0999999999999996" y="527" transform="translate(544,0) rotate(90,2.0999999999999996,521)" style="font-family: avenir; font-size: 12px; fill: rgb(0, 0, 0); fill-opacity: 1; white-space: pre; opacity: 1;">Dec</text></g></g><g class="yaxislayer-above"><g class="ytick"><text text-anchor="end" x="76.6" y="4.199999999999999" transform="translate(0,499.67)" style="font-family: avenir; font-size: 12px; fill: rgb(0, 0, 0); fill-opacity: 1; white-space: pre; opacity: 1;">0</text></g><g class="ytick"><text text-anchor="end" x="76.6" y="4.199999999999999" style="font-family: avenir; font-size: 12px; fill: rgb(0, 0, 0); fill-opacity: 1; white-space: pre; opacity: 1;" transform="translate(0,443.91)">50</text></g><g class="ytick"><text text-anchor="end" x="76.6" y="4.199999999999999" style="font-family: avenir; font-size: 12px; fill: rgb(0, 0, 0); fill-opacity: 1; white-space: pre; opacity: 1;" transform="translate(0,388.14)">100</text></g><g class="ytick"><text text-anchor="end" x="76.6" y="4.199999999999999" style="font-family: avenir; font-size: 12px; fill: rgb(0, 0, 0); fill-opacity: 1; white-space: pre; opacity: 1;" transform="translate(0,332.38)">150</text></g><g class="ytick"><text text-anchor="end" x="76.6" y="4.199999999999999" style="font-family: avenir; font-size: 12px; fill: rgb(0, 0, 0); fill-opacity: 1; white-space: pre; opacity: 1;" transform="translate(0,276.62)">200</text></g><g class="ytick"><text text-anchor="end" x="76.6" y="4.199999999999999" style="font-family: avenir; font-size: 12px; fill: rgb(0, 0, 0); fill-opacity: 1; white-space: pre; opacity: 1;" transform="translate(0,220.85)">250</text></g><g class="ytick"><text text-anchor="end" x="76.6" y="4.199999999999999" style="font-family: avenir; font-size: 12px; fill: rgb(0, 0, 0); fill-opacity: 1; white-space: pre; opacity: 1;" transform="translate(0,165.09)">300</text></g><g class="ytick"><text text-anchor="end" x="76.6" y="4.199999999999999" style="font-family: avenir; font-size: 12px; fill: rgb(0, 0, 0); fill-opacity: 1; white-space: pre; opacity: 1;" transform="translate(0,109.32)">350</text></g></g><g class="overaxes-above"/></g></g><g class="polarlayer"/><g class="smithlayer"/><g class="ternarylayer"/><g class="geolayer"/><g class="funnelarealayer"/><g class="pielayer"/><g class="iciclelayer"/><g class="treemaplayer"/><g class="sunburstlayer"/><g class="glimages"/><defs id="topdefs-74992b"><g class="clips"/><clipPath id="legend74992b"><rect width="165" height="105" x="0" y="0"/></clipPath></defs><g class="layer-above"><g class="imagelayer"/><g class="shapelayer"/></g><g class="infolayer"><g class="legend" pointer-events="all" transform="translate(584.9000000000001,60)"><rect class="bg" shape-rendering="crispEdges" style="stroke: rgb(68, 68, 68); stroke-opacity: 1; fill: rgb(255, 255, 255); fill-opacity: 1; stroke-width: 0px;" width="165" height="105" x="0" y="0"/><g class="scrollbox" transform="" clip-path="url(#legend74992b)"><text class="legendtitletext" text-anchor="start" x="2" y="18.2" style="font-family: avenir; font-size: 14px; fill: rgb(42, 63, 95); fill-opacity: 1; white-space: pre;">situation response care</text><g class="groups" transform=""><g class="traces" transform="translate(0,32.7)" style="opacity: 1;"><text class="legendtext" text-anchor="start" x="40" y="4.680000000000001" style="font-family: avenir; font-size: 12px; fill: rgb(42, 63, 95); fill-opacity: 1; white-space: pre;">full use available</text><g class="layers" style="opacity: 1;"><g class="legendfill"/><g class="legendlines"><path class="js-line" d="M5,0h30" style="fill: none; stroke: rgb(249, 177, 178); stroke-opacity: 1; stroke-width: 2px;"/></g><g class="legendsymbols"><g class="legendpoints"><path class="scatterpts" transform="translate(20,0)" d="M5,0A5,5 0 1,1 0,-5A5,5 0 0,1 5,0Z" style="opacity: 1; stroke: rgb(249, 177, 178); stroke-opacity: 1; stroke-width: 1px; fill: none;"/></g></g></g><rect class="legendtoggle" x="0" y="-9.5" width="159.640625" height="19" style="fill: rgb(0, 0, 0); fill-opacity: 0;"/></g></g><g class="groups" transform=""><g class="traces" transform="translate(0,51.7)" style="opacity: 1;"><text class="legendtext" text-anchor="start" x="40" y="4.680000000000001" style="font-family: avenir; font-size: 12px; fill: rgb(42, 63, 95); fill-opacity: 1; white-space: pre;">condition result standard</text><g class="layers" style="opacity: 1;"><g class="legendfill"/><g class="legendlines"><path class="js-line" d="M5,0h30" style="fill: none; stroke: rgb(28, 181, 170); stroke-opacity: 1; stroke-width: 2px;"/></g><g class="legendsymbols"><g class="legendpoints"><path class="scatterpts" transform="translate(20,0)" d="M5,0A5,5 0 1,1 0,-5A5,5 0 0,1 5,0Z" style="opacity: 1; stroke: rgb(28, 181, 170); stroke-opacity: 1; stroke-width: 1px; fill: none;"/></g></g></g><rect class="legendtoggle" x="0" y="-9.5" width="159.640625" height="19" style="fill: rgb(0, 0, 0); fill-opacity: 0;"/></g></g><g class="groups" transform=""><g class="traces" transform="translate(0,70.7)" style="opacity: 1;"><text class="legendtext" text-anchor="start" x="40" y="4.680000000000001" style="font-family: avenir; font-size: 12px; fill: rgb(42, 63, 95); fill-opacity: 1; white-space: pre;">begin institution go</text><g class="layers" style="opacity: 1;"><g class="legendfill"/><g class="legendlines"><path class="js-line" d="M5,0h30" style="fill: none; stroke: rgb(16, 28, 242); stroke-opacity: 1; stroke-width: 2px;"/></g><g class="legendsymbols"><g class="legendpoints"><path class="scatterpts" transform="translate(20,0)" d="M5,0A5,5 0 1,1 0,-5A5,5 0 0,1 5,0Z" style="opacity: 1; stroke: rgb(16, 28, 242); stroke-opacity: 1; stroke-width: 1px; fill: none;"/></g></g></g><rect class="legendtoggle" x="0" y="-9.5" width="159.640625" height="19" style="fill: rgb(0, 0, 0); fill-opacity: 0;"/></g></g><g class="groups" transform=""><g class="traces" transform="translate(0,89.7)" style="opacity: 1;"><text class="legendtext" text-anchor="start" x="40" y="4.680000000000001" style="font-family: avenir; font-size: 12px; fill: rgb(42, 63, 95); fill-opacity: 1; white-space: pre;">free me I</text><g class="layers" style="opacity: 1;"><g class="legendfill"/><g class="legendlines"><path class="js-line" d="M5,0h30" style="fill: none; stroke: rgb(184, 184, 242); stroke-opacity: 1; stroke-width: 2px;"/></g><g class="legendsymbols"><g class="legendpoints"><path class="scatterpts" transform="translate(20,0)" d="M5,0A5,5 0 1,1 0,-5A5,5 0 0,1 5,0Z" style="opacity: 1; stroke: rgb(184, 184, 242); stroke-opacity: 1; stroke-width: 1px; fill: none;"/></g></g></g><rect class="legendtoggle" x="0" y="-9.5" width="159.640625" height="19" style="fill: rgb(0, 0, 0); fill-opacity: 0;"/></g></g></g><rect class="scrollbar" rx="20" ry="3" width="0" height="0" style="fill: rgb(128, 139, 164); fill-opacity: 1;" x="0" y="0"/></g><g class="g-gtitle"><text class="gtitle" x="381" y="30" text-anchor="start" dy="0em" style="font-family: avenir; font-size: 25px; fill: rgb(0, 0, 0); opacity: 1; font-weight: normal; white-space: pre;">technology party moment</text></g><g class="g-xtitle"/><g class="g-ytitle"><text class="ytitle" transform="rotate(-90,33.29375,290)" x="33.29375" y="290" text-anchor="middle" style="font-family: avenir; font-size: 14px; fill: rgb(0, 0, 0); opacity: 1; font-weight: normal; white-space: pre;">drop mention degree</text></g></g></svg>