<svg xmlns="http://www.w3.org/2000/svg" width="400" height="400"><g transform="translate(200, 200)"><text x="-78" y="-170" text-anchor="center" style="font-family: sans-serif; font-size: 25px; font-weight: bold; fill: rgb(0, 0, 0);">Hybrid welcome Porsche</text><path d="M-5.584640283954927,-69.77687147543108A70,70,0,0,1,1.1148618736697033e-13,-70L4.9372454405372574e-14,-31A31,31,0,0,0,-2.4731978400371823,-30.90118593911948Z" fill="#e81dea" stroke="white" style="stroke-width: 2px;"/><path d="M-42.329481097360485,-55.75136796553249A70,70,0,0,1,-5.584640283954927,-69.77687147543108L-2.4731978400371823,-30.90118593911948A31,31,0,0,0,-18.7459130574025,-24.68989152759296Z" fill="#55d1eb" stroke="white" style="stroke-width: 2px;"/><path d="M29.85181014510756,63.315633385921785A70,70,0,0,1,-24.36195649685693,65.62389104316546L-10.788866448608069,29.0620088905447A31,31,0,0,0,13.220087349976204,28.039780499479647Z" fill="#ccab5b" stroke="white" style="stroke-width: 2px;"/><path d="M55.206488327967186,-43.03770029281331A70,70,0,0,1,68.03825166498447,16.455889838359923L30.131225737350267,7.287608356987966A31,31,0,0,0,24.448587688099753,-19.059552986817327Z" fill="#bfbcaa" stroke="white" style="stroke-width: 2px;"/><path d="M-65.92952542448992,-23.522280444326334A70,70,0,0,1,-42.329481097360485,-55.75136796553249L-18.7459130574025,-24.68989152759296A31,31,0,0,0,-29.197361259416965,-10.417009911058804Z" fill="#c16c4f" stroke="white" style="stroke-width: 2px;"/><path d="M4.2862637970157365e-15,-70A70,70,0,0,1,55.206488327967186,-43.03770029281331L24.448587688099753,-19.059552986817327A31,31,0,0,0,1.8982025386783976e-15,-31Z" fill="#b0b14f" stroke="white" style="stroke-width: 2px;"/><path d="M-24.36195649685693,65.62389104316546A70,70,0,0,1,-63.557786291788965,29.33270873423188L-28.14701964350654,12.99019958230269A31,31,0,0,0,-10.788866448608069,29.0620088905447Z" fill="#bf3aca" stroke="white" style="stroke-width: 2px;"/><path d="M-63.557786291788965,29.33270873423188A70,70,0,0,1,-65.92952542448992,-23.522280444326334L-29.197361259416965,-10.417009911058804A31,31,0,0,0,-28.14701964350654,12.99019958230269Z" fill="#bdda0b" stroke="white" style="stroke-width: 2px;"/><path d="M68.03825166498447,16.455889838359923A70,70,0,0,1,29.85181014510756,63.315633385921785L13.220087349976204,28.039780499479647A31,31,0,0,0,30.131225737350267,7.287608356987966Z" fill="#b976ed" stroke="white" style="stroke-width: 2px;"/><text transform="translate(-2.822493450292881, -70.64363758133533)" fill="#e81dea" style="text-anchor: middle; font-size: 12px;">61</text><text transform="translate(-25.211984153157402, -66.05184217764815)" fill="#55d1eb" style="text-anchor: middle; font-size: 12px;">435</text><text transform="translate(3.007466711200331, 70.6360045867617)" fill="#ccab5b" style="text-anchor: middle; font-size: 12px;">608</text><text transform="translate(69.11078270067392, -14.906029467978051)" fill="#bfbcaa" style="text-anchor: middle; font-size: 12px;">687</text><text transform="translate(-57.04203927744019, -41.76955536118346)" fill="#c16c4f" style="text-anchor: middle; font-size: 12px;">442</text><text transform="translate(31.026576794669754, -63.52827348830173)" fill="#b0b14f" style="text-anchor: middle; font-size: 12px;">694</text><text transform="translate(-48.03325514739367, 51.87770619394596)" fill="#bf3aca" style="text-anchor: middle; font-size: 12px;">598</text><text transform="translate(-70.6289284101837, 3.169301441823449)" fill="#bdda0b" style="text-anchor: middle; font-size: 12px;">592</text><text transform="translate(54.80657714142093, 44.66239024102356)" fill="#b976ed" style="text-anchor: middle; font-size: 12px;">682</text><g class="legendOrdinal" transform="translate(130, 41.66666666666666)"><g class="legendCells"><g class="cell" transform="translate(0, 0)"><path class="swatch" d="M-5,-5h10v10h-10Z" style="fill: rgb(232, 29, 234);"/><text class="label" transform="translate( 15, 5)" style="font-family: sans-serif;"><tspan x="0" dy="0em">weakly</tspan></text></g><g class="cell" transform="translate(0, 25.33333396911621)"><path class="swatch" d="M-5,-5h10v10h-10Z" style="fill: rgb(85, 209, 235);"/><text class="label" transform="translate( 15, 5)" style="font-family: sans-serif;"><tspan x="0" dy="0em">Bronze</tspan></text></g><g class="cell" transform="translate(0, 50.66666793823242)"><path class="swatch" d="M-5,-5h10v10h-10Z" style="fill: rgb(204, 171, 91);"/><text class="label" transform="translate( 15, 5)" style="font-family: sans-serif;"><tspan x="0" dy="0em">Coupe</tspan></text></g><g class="cell" transform="translate(0, 76.00000190734863)"><path class="swatch" d="M-5,-5h10v10h-10Z" style="fill: rgb(191, 188, 170);"/><text class="label" transform="translate( 15, 5)" style="font-family: sans-serif;"><tspan x="0" dy="0em">Intelligent</tspan></text></g><g class="cell" transform="translate(0, 101.33333587646484)"><path class="swatch" d="M-5,-5h10v10h-10Z" style="fill: rgb(193, 108, 79);"/><text class="label" transform="translate( 15, 5)" style="font-family: sans-serif;"><tspan x="0" dy="0em">candela</tspan></text></g><g class="cell" transform="translate(0, 126.66666984558105)"><path class="swatch" d="M-5,-5h10v10h-10Z" style="fill: rgb(176, 177, 79);"/><text class="label" transform="translate( 15, 5)" style="font-family: sans-serif;"><tspan x="0" dy="0em">hacking</tspan></text></g><g class="cell" transform="translate(0, 152.00000381469727)"><path class="swatch" d="M-5,-5h10v10h-10Z" style="fill: rgb(191, 58, 202);"/><text class="label" transform="translate( 15, 5)" style="font-family: sans-serif;"><tspan x="0" dy="0em">questionably</tspan></text></g><g class="cell" transform="translate(0, 177.33333778381348)"><path class="swatch" d="M-5,-5h10v10h-10Z" style="fill: rgb(189, 218, 11);"/><text class="label" transform="translate( 15, 5)" style="font-family: sans-serif;"><tspan x="0" dy="0em">Unbranded</tspan></text></g><g class="cell" transform="translate(0, 202.6666717529297)"><path class="swatch" d="M-5,-5h10v10h-10Z" style="fill: rgb(185, 118, 237);"/><text class="label" transform="translate( 15, 5)" style="font-family: sans-serif;"><tspan x="0" dy="0em">Androgyne</tspan></text></g></g></g></g></svg>