<svg xmlns="http://www.w3.org/2000/svg" width="400" height="400"><g transform="translate(200, 200)"><text x="30" y="-170" text-anchor="center" style="font-family: serif; font-size: 25px; font-weight: bold; fill: rgb(0, 0, 0);">Oregon technologies</text><path d="M-61.91941591450699,32.64944000754527A70,70,0,0,1,-68.74192889574012,-13.211631681704187L0,0Z" fill="#ad8e9a" stroke="white" style="stroke-width: 0;"/><path d="M30.12971775917843,63.18385955093474A70,70,0,0,1,-24.193552202796038,65.68616316858964L0,0Z" fill="#f0bdbb" stroke="white" style="stroke-width: 0;"/><path d="M-37.41260782894609,-59.16330598806562A70,70,0,0,1,-23.18288474211943,-66.04963175547314L0,0Z" fill="#fc17e7" stroke="white" style="stroke-width: 0;"/><path d="M56.9919841684947,-40.64374171429163A70,70,0,0,1,67.66665000852537,17.9227363040283L0,0Z" fill="#0c5ea6" stroke="white" style="stroke-width: 0;"/><path d="M-68.74192889574012,-13.211631681704187A70,70,0,0,1,-56.67850035055173,-41.07977115336096L0,0Z" fill="#816455" stroke="white" style="stroke-width: 0;"/><path d="M-24.193552202796038,65.68616316858964A70,70,0,0,1,-61.91941591450699,32.64944000754527L0,0Z" fill="#0ebfa8" stroke="white" style="stroke-width: 0;"/><path d="M-56.67850035055173,-41.07977115336096A70,70,0,0,1,-37.41260782894609,-59.16330598806562L0,0Z" fill="#7e1c9d" stroke="white" style="stroke-width: 0;"/><path d="M4.2862637970157365e-15,-70A70,70,0,0,1,56.9919841684947,-40.64374171429163L0,0Z" fill="#eb0e4f" stroke="white" style="stroke-width: 0;"/><path d="M67.66665000852537,17.9227363040283A70,70,0,0,1,30.12971775917843,63.18385955093474L0,0Z" fill="#c1a512" stroke="white" style="stroke-width: 0;"/><path d="M-9.369719707268322,-69.3700825472136A70,70,0,0,1,-1.2858791391047208e-14,-70L0,0Z" fill="#cdd490" stroke="white" style="stroke-width: 0;"/><path d="M-23.18288474211943,-66.04963175547314A70,70,0,0,1,-9.369719707268322,-69.3700825472136L0,0Z" fill="#04a83c" stroke="white" style="stroke-width: 0;"/><text transform="translate(-86.54755043315777, 12.875228697775134)" fill="#ad8e9a" style="text-anchor: middle; font-size: 11px;">176</text><text transform="translate(4.026260716170054, 87.40731791243469)" fill="#f0bdbb" style="text-anchor: middle; font-size: 11px;">208</text><text transform="translate(-38.11595795698284, -78.76181656755713)" fill="#fc17e7" style="text-anchor: middle; font-size: 11px;">59</text><text transform="translate(86.08182749196052, -15.689772963441788)" fill="#0c5ea6" style="text-anchor: middle; font-size: 11px;">229</text><text transform="translate(-80.29953025123297, -34.759681261935114)" fill="#816455" style="text-anchor: middle; font-size: 11px;">114</text><text transform="translate(-57.64542871075325, 65.82746044587674)" fill="#0ebfa8" style="text-anchor: middle; font-size: 11px;">191</text><text transform="translate(-59.88318991014119, -63.798538903222266)" fill="#7e1c9d" style="text-anchor: middle; font-size: 11px;">99</text><text transform="translate(40.06769740077007, -77.78707877919265)" fill="#eb0e4f" style="text-anchor: middle; font-size: 11px;">248</text><text transform="translate(67.35139552344931, 55.85731394404759)" fill="#c1a512" style="text-anchor: middle; font-size: 11px;">226</text><text transform="translate(-5.869293884212721, -87.3029288701172)" fill="#cdd490" style="text-anchor: middle; font-size: 11px;">35</text><text transform="translate(-20.45094597730553, -85.07648798953404)" fill="#04a83c" style="text-anchor: middle; font-size: 11px;">53</text><g class="legendOrdinal" transform="translate(-56, 130)"><g class="legendCells"><g class="cell" transform="translate(0,0)"><path class="swatch" d="M-5,-5h10v10h-10Z" style="fill: rgb(173, 142, 154);"/><text class="label" transform="translate(0,&#10;          23)" style="text-anchor: middle; font-family: serif;"><tspan x="0" dy="0em">restart</tspan></text></g><g class="cell" transform="translate(50,0)"><path class="swatch" d="M-5,-5h10v10h-10Z" style="fill: rgb(240, 189, 187);"/><text class="label" transform="translate(0,&#10;          23)" style="text-anchor: middle; font-family: serif;"><tspan x="0" dy="0em">implement</tspan></text></g><g class="cell" transform="translate(100,0)"><path class="swatch" d="M-5,-5h10v10h-10Z" style="fill: rgb(252, 23, 231);"/><text class="label" transform="translate(0,&#10;          23)" style="text-anchor: middle; font-family: serif;"><tspan x="0" dy="0em">East</tspan></text></g><g class="cell" transform="translate(150,0)"><path class="swatch" d="M-5,-5h10v10h-10Z" style="fill: rgb(12, 94, 166);"/><text class="label" transform="translate(0,&#10;          23)" style="text-anchor: middle; font-family: serif;"><tspan x="0" dy="0em">down</tspan></text></g><g class="cell" transform="translate(200,0)"><path class="swatch" d="M-5,-5h10v10h-10Z" style="fill: rgb(129, 100, 85);"/><text class="label" transform="translate(0,&#10;          23)" style="text-anchor: middle; font-family: serif;"><tspan x="0" dy="0em">Cotton</tspan></text></g><g class="cell" transform="translate(250,0)"><path class="swatch" d="M-5,-5h10v10h-10Z" style="fill: rgb(14, 191, 168);"/><text class="label" transform="translate(0,&#10;          23)" style="text-anchor: middle; font-family: serif;"><tspan x="0" dy="0em">lavender</tspan></text></g><g class="cell" transform="translate(300,0)"><path class="swatch" d="M-5,-5h10v10h-10Z" style="fill: rgb(126, 28, 157);"/><text class="label" transform="translate(0,&#10;          23)" style="text-anchor: middle; font-family: serif;"><tspan x="0" dy="0em">Forward</tspan></text></g><g class="cell" transform="translate(350,0)"><path class="swatch" d="M-5,-5h10v10h-10Z" style="fill: rgb(235, 14, 79);"/><text class="label" transform="translate(0,&#10;          23)" style="text-anchor: middle; font-family: serif;"><tspan x="0" dy="0em">Southeast</tspan></text></g><g class="cell" transform="translate(400,0)"><path class="swatch" d="M-5,-5h10v10h-10Z" style="fill: rgb(193, 165, 18);"/><text class="label" transform="translate(0,&#10;          23)" style="text-anchor: middle; font-family: serif;"><tspan x="0" dy="0em">Consultant</tspan></text></g><g class="cell" transform="translate(450,0)"><path class="swatch" d="M-5,-5h10v10h-10Z" style="fill: rgb(205, 212, 144);"/><text class="label" transform="translate(0,&#10;          23)" style="text-anchor: middle; font-family: serif;"><tspan x="0" dy="0em">purple</tspan></text></g><g class="cell" transform="translate(500,0)"><path class="swatch" d="M-5,-5h10v10h-10Z" style="fill: rgb(4, 168, 60);"/><text class="label" transform="translate(0,&#10;          23)" style="text-anchor: middle; font-family: serif;"><tspan x="0" dy="0em">insistent</tspan></text></g></g></g></g></svg>