<svg xmlns="http://www.w3.org/2000/svg" width="400" height="400"><g transform="translate(200, 200)"><text x="-61" y="-170" text-anchor="center" style="font-family: sans-serif; font-size: 25px; font-weight: bold; fill: rgb(0, 0, 0);">invoice</text><path d="M-53.171181684961596,45.528292722490754A70,70,0,0,1,-69.91555327950363,3.437355032708908L0,0Z" fill="#afe60a" stroke="black" style="stroke-width: 0;"/><path d="M1.341864322765988,69.9871373906612A70,70,0,0,1,-53.171181684961596,45.528292722490754L0,0Z" fill="#9a5972" stroke="black" style="stroke-width: 0;"/><path d="M63.12489407716288,-30.253061791279357A70,70,0,0,1,54.9812707293847,43.32504897841554L0,0Z" fill="#ecb6f1" stroke="black" style="stroke-width: 0;"/><path d="M-59.05617060259807,-37.58149429914718A70,70,0,0,1,-26.807210890406246,-64.66354030114098L0,0Z" fill="#b5d85f" stroke="black" style="stroke-width: 0;"/><path d="M-26.807210890406246,-64.66354030114098A70,70,0,0,1,-10.527731541776683,-69.20380674922644L0,0Z" fill="#664d9b" stroke="black" style="stroke-width: 0;"/><path d="M-69.91555327950363,3.437355032708908A70,70,0,0,1,-59.05617060259807,-37.58149429914718L0,0Z" fill="#d8be9a" stroke="black" style="stroke-width: 0;"/><path d="M54.9812707293847,43.32504897841554A70,70,0,0,1,1.341864322765988,69.9871373906612L0,0Z" fill="#554f41" stroke="black" style="stroke-width: 0;"/><path d="M-10.527731541776683,-69.20380674922644A70,70,0,0,1,4.9313697987961557e-14,-70L0,0Z" fill="#89e28c" stroke="black" style="stroke-width: 0;"/><path d="M4.2862637970157365e-15,-70A70,70,0,0,1,63.12489407716288,-30.253061791279357L0,0Z" fill="#c8cb9a" stroke="black" style="stroke-width: 0;"/><text transform="translate(-81.30284665944205, 32.34342475792028)" fill="#afe60a" style="text-anchor: middle; font-size: 8px;">275</text><text transform="translate(-35.8191705215068, 79.83255616069937)" fill="#9a5972" style="text-anchor: middle; font-size: 8px;">368</text><text transform="translate(86.96893426532058, 9.62571933698194)" fill="#ecb6f1" style="text-anchor: middle; font-size: 8px;">465</text><text transform="translate(-56.27068195154485, -67.00642023499006)" fill="#b5d85f" style="text-anchor: middle; font-size: 8px;">255</text><text transform="translate(-23.506248719040975, -84.28348753557)" fill="#664d9b" style="text-anchor: middle; font-size: 8px;">101</text><text transform="translate(-84.5859667218029, -22.393397101334397)" fill="#d8be9a" style="text-anchor: middle; font-size: 8px;">257</text><text transform="translate(38.946891426645465, 78.35425737125641)" fill="#554f41" style="text-anchor: middle; font-size: 8px;">369</text><text transform="translate(-6.598622462429421, -87.25083484757222)" fill="#89e28c" style="text-anchor: middle; font-size: 8px;">63</text><text transform="translate(46.6225340719422, -74.04450902471154)" fill="#c8cb9a" style="text-anchor: middle; font-size: 8px;">469</text><g class="legendOrdinal" transform="translate(-111, 130)"><g class="legendCells" transform="translate(28.807292938232422,15.333333969116211)"><g class="cell" transform="translate(0,0)"><path class="swatch" d="M-5,-5h10v10h-10Z" style="fill: rgb(175, 230, 10);"/><text class="label" transform="translate(0,&#10;          23)" style="text-anchor: middle; font-family: sans-serif;"><tspan x="0" dy="0em">bluetooth</tspan></text></g><g class="cell" transform="translate(50,0)"><path class="swatch" d="M-5,-5h10v10h-10Z" style="fill: rgb(154, 89, 114);"/><text class="label" transform="translate(0,&#10;          23)" style="text-anchor: middle; font-family: sans-serif;"><tspan x="0" dy="0em">New</tspan></text></g><g class="cell" transform="translate(100,0)"><path class="swatch" d="M-5,-5h10v10h-10Z" style="fill: rgb(236, 182, 241);"/><text class="label" transform="translate(0,&#10;          23)" style="text-anchor: middle; font-family: sans-serif;"><tspan x="0" dy="0em">Associate</tspan></text></g><g class="cell" transform="translate(150,0)"><path class="swatch" d="M-5,-5h10v10h-10Z" style="fill: rgb(181, 216, 95);"/><text class="label" transform="translate(0,&#10;          23)" style="text-anchor: middle; font-family: sans-serif;"><tspan x="0" dy="0em">synthesizing</tspan></text></g><g class="cell" transform="translate(200,0)"><path class="swatch" d="M-5,-5h10v10h-10Z" style="fill: rgb(102, 77, 155);"/><text class="label" transform="translate(0,&#10;          23)" style="text-anchor: middle; font-family: sans-serif;"><tspan x="0" dy="0em">Florida</tspan></text></g><g class="cell" transform="translate(250,0)"><path class="swatch" d="M-5,-5h10v10h-10Z" style="fill: rgb(216, 190, 154);"/><text class="label" transform="translate(0,&#10;          23)" style="text-anchor: middle; font-family: sans-serif;"><tspan x="0" dy="0em">sympathetically</tspan></text></g><g class="cell" transform="translate(300,0)"><path class="swatch" d="M-5,-5h10v10h-10Z" style="fill: rgb(85, 79, 65);"/><text class="label" transform="translate(0,&#10;          23)" style="text-anchor: middle; font-family: sans-serif;"><tspan x="0" dy="0em">circular</tspan></text></g><g class="cell" transform="translate(350,0)"><path class="swatch" d="M-5,-5h10v10h-10Z" style="fill: rgb(137, 226, 140);"/><text class="label" transform="translate(0,&#10;          23)" style="text-anchor: middle; font-family: sans-serif;"><tspan x="0" dy="0em">how</tspan></text></g><g class="cell" transform="translate(400,0)"><path class="swatch" d="M-5,-5h10v10h-10Z" style="fill: rgb(200, 203, 154);"/><text class="label" transform="translate(0,&#10;          23)" style="text-anchor: middle; font-family: sans-serif;"><tspan x="0" dy="0em">Tanzania</tspan></text></g></g><text class="legendTitle" style="font-family: sans-serif;">Infrastructure</text></g></g></svg>