<svg xmlns="http://www.w3.org/2000/svg" width="400" height="400"><g transform="translate(200, 200)"><text x="18" y="-170" text-anchor="center" style="font-family: monospace; font-size: 25px; font-weight: bold; fill: rgb(0, 0, 0);">South</text><path d="M69.39111549140807,9.212659271788251A70,70,0,0,1,-13.498753168953803,68.68612423833258L0,0Z" fill="#d8a65c" stroke="white" style="stroke-width: 0;"/><path d="M-68.98555362122755,11.874063818791686A70,70,0,0,1,-46.90276804463906,-51.962778502989856L0,0Z" fill="#cc4a64" stroke="white" style="stroke-width: 0;"/><path d="M-4.158368620868784,-69.8763763400262A70,70,0,0,1,-1.2858791391047208e-14,-70L0,0Z" fill="#7fd9f7" stroke="white" style="stroke-width: 0;"/><path d="M-13.498753168953803,68.68612423833258A70,70,0,0,1,-68.98555362122755,11.874063818791686L0,0Z" fill="#5bdea8" stroke="white" style="stroke-width: 0;"/><path d="M-46.90276804463906,-51.962778502989856A70,70,0,0,1,-4.158368620868784,-69.8763763400262L0,0Z" fill="#f9d252" stroke="white" style="stroke-width: 0;"/><path d="M4.2862637970157365e-15,-70A70,70,0,0,1,69.39111549140807,9.212659271788251L0,0Z" fill="#ebfe8d" stroke="white" style="stroke-width: 0;"/><text transform="translate(51.0095318953634, 71.09344312815284)" fill="#d8a65c" style="text-anchor: middle; font-size: 7px;">467</text><text transform="translate(-82.69211895675167, -28.605304795482112)" fill="#cc4a64" style="text-anchor: middle; font-size: 7px;">288</text><text transform="translate(-2.6001286323597577, -87.46135907413732)" fill="#7fd9f7" style="text-anchor: middle; font-size: 7px;">17</text><text transform="translate(-62.597645834110914, 61.137425003243436)" fill="#5bdea8" style="text-anchor: middle; font-size: 7px;">345</text><text transform="translate(-33.82016240028336, -80.69973119669271)" fill="#f9d252" style="text-anchor: middle; font-size: 7px;">193</text><text transform="translate(65.8174923855803, -57.65680962448478)" fill="#ebfe8d" style="text-anchor: middle; font-size: 7px;">487</text><g class="legendOrdinal" transform="translate(130, 64.66666666666666)"><g class="legendCells" transform="translate(5,15.333333969116211)"><g class="cell" transform="translate(0, 0)"><path class="swatch" d="M-5,-5h10v10h-10Z" style="fill: rgb(216, 166, 92);"/><text class="label" transform="translate( 15, 5)" style="font-family: monospace;"><tspan x="0" dy="0em">Senior</tspan></text></g><g class="cell" transform="translate(0, 25.33333396911621)"><path class="swatch" d="M-5,-5h10v10h-10Z" style="fill: rgb(204, 74, 100);"/><text class="label" transform="translate( 15, 5)" style="font-family: monospace;"><tspan x="0" dy="0em">integrate</tspan></text></g><g class="cell" transform="translate(0, 50.66666793823242)"><path class="swatch" d="M-5,-5h10v10h-10Z" style="fill: rgb(127, 217, 247);"/><text class="label" transform="translate( 15, 5)" style="font-family: monospace;"><tspan x="0" dy="0em">Maine</tspan></text></g><g class="cell" transform="translate(0, 76.00000190734863)"><path class="swatch" d="M-5,-5h10v10h-10Z" style="fill: rgb(91, 222, 168);"/><text class="label" transform="translate( 15, 5)" style="font-family: monospace;"><tspan x="0" dy="0em">abaft</tspan></text></g><g class="cell" transform="translate(0, 101.33333587646484)"><path class="swatch" d="M-5,-5h10v10h-10Z" style="fill: rgb(249, 210, 82);"/><text class="label" transform="translate( 15, 5)" style="font-family: monospace;"><tspan x="0" dy="0em">Developer</tspan></text></g><g class="cell" transform="translate(0, 126.66666984558105)"><path class="swatch" d="M-5,-5h10v10h-10Z" style="fill: rgb(235, 254, 141);"/><text class="label" transform="translate( 15, 5)" style="font-family: monospace;"><tspan x="0" dy="0em">Northwest</tspan></text></g></g><text class="legendTitle" style="font-family: monospace;">Platinum</text></g></g></svg>