<svg xmlns="http://www.w3.org/2000/svg" width="400" height="400"><g transform="translate(200, 200)"><text x="28" y="-170" text-anchor="center" style="font-family: sans-serif; font-size: 25px; font-weight: bold; fill: rgb(0, 0, 0);">South</text><path d="M4.2862637970157365e-15,-70A70,70,0,0,1,5.750357944435682,69.76341006223008L3.2037708547570225,38.868185606099615A39,39,0,0,0,2.388061258337339e-15,-39Z" fill="#daedab" stroke="black" style="stroke-width: 0;"/><path d="M-37.91527327465457,-58.84243411440646A70,70,0,0,1,-1.8419778183908397,-69.97576092988598L-1.0262447845320393,-38.986495375222184A39,39,0,0,0,-21.124223681593257,-32.78364186374074Z" fill="#a14f9b" stroke="black" style="stroke-width: 0;"/><path d="M-1.8419778183908397,-69.97576092988598A70,70,0,0,1,-1.2858791391047208e-14,-70L-7.164183775012016e-15,-39A39,39,0,0,0,-1.0262447845320393,-38.986495375222184Z" fill="#4d2ede" stroke="black" style="stroke-width: 0;"/><path d="M5.750357944435682,69.76341006223008A70,70,0,0,1,-37.91527327465457,-58.84243411440646L-21.124223681593257,-32.78364186374074A39,39,0,0,0,3.2037708547570225,38.868185606099615Z" fill="#edc1ef" stroke="black" style="stroke-width: 0;"/><text transform="translate(76.2355019811816, -3.136596511707455)" fill="#daedab" style="text-anchor: middle; font-size: 14px;">465</text><text transform="translate(-22.501240831226728, -72.90668118255785)" fill="#a14f9b" style="text-anchor: middle; font-size: 14px;">83</text><text transform="translate(-1.0039648261202592, -76.29339456747165)" fill="#4d2ede" style="text-anchor: middle; font-size: 14px;">4</text><text transform="translate(-72.24908786064533, 24.53078276991483)" fill="#edc1ef" style="text-anchor: middle; font-size: 14px;">403</text><g class="legendOrdinal" transform="translate(-190, -140)"><g class="legendCells" transform="translate(31.276042938232422,15.333333969116211)"><g class="cell" transform="translate(0,0)"><path class="swatch" d="M-5,-5h10v10h-10Z" style="fill: rgb(218, 237, 171);"/><text class="label" transform="translate(0,&#10;          23)" style="text-anchor: middle; font-family: sans-serif;"><tspan x="0" dy="0em">Awesome</tspan></text></g><g class="cell" transform="translate(50,0)"><path class="swatch" d="M-5,-5h10v10h-10Z" style="fill: rgb(161, 79, 155);"/><text class="label" transform="translate(0,&#10;          23)" style="text-anchor: middle; font-family: sans-serif;"><tspan x="0" dy="0em">Brockton</tspan></text></g><g class="cell" transform="translate(100,0)"><path class="swatch" d="M-5,-5h10v10h-10Z" style="fill: rgb(77, 46, 222);"/><text class="label" transform="translate(0,&#10;          23)" style="text-anchor: middle; font-family: sans-serif;"><tspan x="0" dy="0em">Plutonium</tspan></text></g><g class="cell" transform="translate(150,0)"><path class="swatch" d="M-5,-5h10v10h-10Z" style="fill: rgb(237, 193, 239);"/><text class="label" transform="translate(0,&#10;          23)" style="text-anchor: middle; font-family: sans-serif;"><tspan x="0" dy="0em">Lead</tspan></text></g></g><text class="legendTitle" style="font-family: sans-serif;">Fantastic</text></g></g></svg>