<svg xmlns="http://www.w3.org/2000/svg" width="400" height="400"><g transform="translate(200, 200)"><text x="-1" y="-170" text-anchor="center" style="font-family: Balto; font-size: 25px; font-weight: bold; fill: rgb(0, 0, 0);">auxiliary gold Granite</text><path d="M-61.11277491589497,-34.1354470027735A70,70,0,0,1,-27.942134185055753,-64.18128338685928L-14.769413783529469,-33.9243926473399A37,37,0,0,0,-32.30246674125877,-18.04302198718028Z" fill="#b4bb8e" stroke="black" style="stroke-width: 0;"/><path d="M4.2862637970157365e-15,-70A70,70,0,0,1,66.86912896327824,-20.700714762840036L35.34511102344707,-10.941806374644019A37,37,0,0,0,2.2655965784226034e-15,-37Z" fill="#a0087a" stroke="black" style="stroke-width: 0;"/><path d="M-21.605399050324536,66.58233047795966A70,70,0,0,1,-67.25750610545904,19.401749211711298L-35.550396084314066,10.255210297618829A37,37,0,0,0,-11.419996640885826,35.19351753835011Z" fill="#6cdffd" stroke="black" style="stroke-width: 0;"/><path d="M43.47751113456421,54.860787686141045A70,70,0,0,1,-21.605399050324536,66.58233047795966L-11.419996640885826,35.19351753835011A37,37,0,0,0,22.980970171126796,28.99784491981741Z" fill="#d7c2ee" stroke="black" style="stroke-width: 0;"/><path d="M66.86912896327824,-20.700714762840036A70,70,0,0,1,43.47751113456421,54.860787686141045L22.980970171126796,28.99784491981741A37,37,0,0,0,35.34511102344707,-10.941806374644019Z" fill="#b2d40e" stroke="black" style="stroke-width: 0;"/><path d="M-27.942134185055753,-64.18128338685928A70,70,0,0,1,4.9313697987961557e-14,-70L2.6065811793636823e-14,-37A37,37,0,0,0,-14.769413783529469,-33.9243926473399Z" fill="#adadab" stroke="black" style="stroke-width: 0;"/><path d="M-67.25750610545904,19.401749211711298A70,70,0,0,1,-61.11277491589497,-34.1354470027735L-32.30246674125877,-18.04302198718028A37,37,0,0,0,-35.550396084314066,10.255210297618829Z" fill="#560c1a" stroke="black" style="stroke-width: 0;"/><text transform="translate(-50.282968011894035, -55.512459213358945)" fill="#b4bb8e" style="text-anchor: middle; font-size: 10px;">84</text><text transform="translate(44.44655564136388, -60.286928032693325)" fill="#a0087a" style="text-anchor: middle; font-size: 10px;">164</text><text transform="translate(-53.827017513108636, 52.08322364872873)" fill="#6cdffd" style="text-anchor: middle; font-size: 10px;">126</text><text transform="translate(13.276020983952597, 73.71402354256381)" fill="#d7c2ee" style="text-anchor: middle; font-size: 10px;">127</text><text transform="translate(71.54996799070771, 22.149764796238852)" fill="#b2d40e" style="text-anchor: middle; font-size: 10px;">155</text><text transform="translate(-15.269731587800377, -73.32697523583343)" fill="#adadab" style="text-anchor: middle; font-size: 10px;">53</text><text transform="translate(-74.41148126134206, -8.540577058544653)" fill="#560c1a" style="text-anchor: middle; font-size: 10px;">102</text><g class="legendOrdinal" transform="translate(-171, 130)"><g class="legendCells" transform="translate(24.125,15.333333969116211)"><g class="cell" transform="translate(0,0)"><path class="swatch" d="M-5,-5h10v10h-10Z" style="fill: rgb(180, 187, 142);"/><text class="label" transform="translate(0,&#10;          23)" style="text-anchor: middle; font-family: Balto;"><tspan x="0" dy="0em">Product</tspan></text></g><g class="cell" transform="translate(50,0)"><path class="swatch" d="M-5,-5h10v10h-10Z" style="fill: rgb(160, 8, 122);"/><text class="label" transform="translate(0,&#10;          23)" style="text-anchor: middle; font-family: Balto;"><tspan x="0" dy="0em">Architect</tspan></text></g><g class="cell" transform="translate(100,0)"><path class="swatch" d="M-5,-5h10v10h-10Z" style="fill: rgb(108, 223, 253);"/><text class="label" transform="translate(0,&#10;          23)" style="text-anchor: middle; font-family: Balto;"><tspan x="0" dy="0em">Uganda</tspan></text></g><g class="cell" transform="translate(150,0)"><path class="swatch" d="M-5,-5h10v10h-10Z" style="fill: rgb(215, 194, 238);"/><text class="label" transform="translate(0,&#10;          23)" style="text-anchor: middle; font-family: Balto;"><tspan x="0" dy="0em">Karson</tspan></text></g><g class="cell" transform="translate(200,0)"><path class="swatch" d="M-5,-5h10v10h-10Z" style="fill: rgb(178, 212, 14);"/><text class="label" transform="translate(0,&#10;          23)" style="text-anchor: middle; font-family: Balto;"><tspan x="0" dy="0em">Orchestrator</tspan></text></g><g class="cell" transform="translate(250,0)"><path class="swatch" d="M-5,-5h10v10h-10Z" style="fill: rgb(173, 173, 171);"/><text class="label" transform="translate(0,&#10;          23)" style="text-anchor: middle; font-family: Balto;"><tspan x="0" dy="0em">how</tspan></text></g><g class="cell" transform="translate(300,0)"><path class="swatch" d="M-5,-5h10v10h-10Z" style="fill: rgb(86, 12, 26);"/><text class="label" transform="translate(0,&#10;          23)" style="text-anchor: middle; font-family: Balto;"><tspan x="0" dy="0em">Southaven</tspan></text></g></g><text class="legendTitle" style="font-family: Balto;">Kids</text></g></g></svg>