<svg xmlns="http://www.w3.org/2000/svg" width="400" height="400"><g transform="translate(200, 200)"><text x="38" y="-170" text-anchor="center" style="font-family: serif; font-size: 25px; font-weight: bold; fill: rgb(0, 0, 0);">solid Hryvnia</text><path d="M68.90613051699025,-12.326604446298493A70,70,0,0,1,43.717088378311146,54.670066615314575L0,0Z" fill="#252a1c" stroke="white" style="stroke-width: 0;"/><path d="M-63.28447777128551,29.917801944923532A70,70,0,0,1,-69.45519873698727,-8.716385053770985L0,0Z" fill="#a90adc" stroke="white" style="stroke-width: 0;"/><path d="M-26.456100804362432,-64.80798353775107A70,70,0,0,1,-8.845788555317242,-69.43883657460441L0,0Z" fill="#6f6d8a" stroke="white" style="stroke-width: 0;"/><path d="M-69.45519873698727,-8.716385053770985A70,70,0,0,1,-53.929275061425045,-44.62771886786461L0,0Z" fill="#acdecd" stroke="white" style="stroke-width: 0;"/><path d="M-25.243984361623696,65.28967187503777A70,70,0,0,1,-63.28447777128551,29.917801944923532L0,0Z" fill="#af9c36" stroke="white" style="stroke-width: 0;"/><path d="M4.2862637970157365e-15,-70A70,70,0,0,1,68.90613051699025,-12.326604446298493L0,0Z" fill="#7665d1" stroke="white" style="stroke-width: 0;"/><path d="M43.717088378311146,54.670066615314575A70,70,0,0,1,-25.243984361623696,65.28967187503777L0,0Z" fill="#ae38a3" stroke="white" style="stroke-width: 0;"/><path d="M-8.845788555317242,-69.43883657460441A70,70,0,0,1,-1.2858791391047208e-14,-70L0,0Z" fill="#f2c93a" stroke="white" style="stroke-width: 0;"/><path d="M-53.929275061425045,-44.62771886786461A70,70,0,0,1,-26.456100804362432,-64.80798353775107L0,0Z" fill="#f6b4cf" stroke="white" style="stroke-width: 0;"/><text transform="translate(81.90253203044952, 30.793266260680937)" fill="#252a1c" style="text-anchor: middle; font-size: 8px;">144</text><text transform="translate(-86.40480248464519, 13.80072851662013)" fill="#a90adc" style="text-anchor: middle; font-size: 8px;">76</text><text transform="translate(-22.252705174490814, -84.62308853036026)" fill="#6f6d8a" style="text-anchor: middle; font-size: 8px;">35</text><text transform="translate(-80.31518057495994, -34.72350456407844)" fill="#acdecd" style="text-anchor: middle; font-size: 8px;">76</text><text transform="translate(-59.58337707957956, 64.07863275533143)" fill="#af9c36" style="text-anchor: middle; font-size: 8px;">102</text><text transform="translate(56.1606073626617, -67.09870476139572)" fill="#7665d1" style="text-anchor: middle; font-size: 8px;">187</text><text transform="translate(13.317510616367764, 86.48059846568438)" fill="#ae38a3" style="text-anchor: middle; font-size: 8px;">140</text><text transform="translate(-5.539731476012322, -87.32446034859693)" fill="#f2c93a" style="text-anchor: middle; font-size: 8px;">17</text><text transform="translate(-51.79983913174297, -70.51968991654422)" fill="#f6b4cf" style="text-anchor: middle; font-size: 8px;">66</text><g class="legendOrdinal" transform="translate(-154, 130)"><g class="legendCells"><g class="cell" transform="translate(0,0)"><path class="swatch" d="M-5,-5h10v10h-10Z" style="fill: rgb(37, 42, 28);"/><text class="label" transform="translate(0,&#10;          23)" style="text-anchor: middle; font-family: serif;"><tspan x="0" dy="0em">stable</tspan></text></g><g class="cell" transform="translate(50,0)"><path class="swatch" d="M-5,-5h10v10h-10Z" style="fill: rgb(169, 10, 220);"/><text class="label" transform="translate(0,&#10;          23)" style="text-anchor: middle; font-family: serif;"><tspan x="0" dy="0em">Demigender</tspan></text></g><g class="cell" transform="translate(100,0)"><path class="swatch" d="M-5,-5h10v10h-10Z" style="fill: rgb(111, 109, 138);"/><text class="label" transform="translate(0,&#10;          23)" style="text-anchor: middle; font-family: serif;"><tspan x="0" dy="0em">Representative</tspan></text></g><g class="cell" transform="translate(150,0)"><path class="swatch" d="M-5,-5h10v10h-10Z" style="fill: rgb(172, 222, 205);"/><text class="label" transform="translate(0,&#10;          23)" style="text-anchor: middle; font-family: serif;"><tspan x="0" dy="0em">Rustic</tspan></text></g><g class="cell" transform="translate(200,0)"><path class="swatch" d="M-5,-5h10v10h-10Z" style="fill: rgb(175, 156, 54);"/><text class="label" transform="translate(0,&#10;          23)" style="text-anchor: middle; font-family: serif;"><tspan x="0" dy="0em">Electric</tspan></text></g><g class="cell" transform="translate(250,0)"><path class="swatch" d="M-5,-5h10v10h-10Z" style="fill: rgb(118, 101, 209);"/><text class="label" transform="translate(0,&#10;          23)" style="text-anchor: middle; font-family: serif;"><tspan x="0" dy="0em">Manganese</tspan></text></g><g class="cell" transform="translate(300,0)"><path class="swatch" d="M-5,-5h10v10h-10Z" style="fill: rgb(174, 56, 163);"/><text class="label" transform="translate(0,&#10;          23)" style="text-anchor: middle; font-family: serif;"><tspan x="0" dy="0em">Buckinghamshire</tspan></text></g><g class="cell" transform="translate(350,0)"><path class="swatch" d="M-5,-5h10v10h-10Z" style="fill: rgb(242, 201, 58);"/><text class="label" transform="translate(0,&#10;          23)" style="text-anchor: middle; font-family: serif;"><tspan x="0" dy="0em">digital</tspan></text></g><g class="cell" transform="translate(400,0)"><path class="swatch" d="M-5,-5h10v10h-10Z" style="fill: rgb(246, 180, 207);"/><text class="label" transform="translate(0,&#10;          23)" style="text-anchor: middle; font-family: serif;"><tspan x="0" dy="0em">invoice</tspan></text></g></g></g></g></svg>