<svg xmlns="http://www.w3.org/2000/svg" width="400" height="400"><g transform="translate(200, 200)"><text x="-20" y="-170" text-anchor="center" style="font-family: monospace; font-size: 25px; font-weight: bold; fill: rgb(0, 0, 0);">indexing</text><path d="M65.94239844289925,23.486168005826745A70,70,0,0,1,-41.671620499366604,56.24478682470731L0,0Z" fill="#15bb50" stroke="white" style="stroke-width: 0;"/><path d="M-68.78446737555848,-12.988342768064463A70,70,0,0,1,-35.31380044140485,-60.4395193427664L0,0Z" fill="#dab1b3" stroke="white" style="stroke-width: 0;"/><path d="M-41.671620499366604,56.24478682470731A70,70,0,0,1,-68.78446737555848,-12.988342768064463L0,0Z" fill="#ceffb2" stroke="white" style="stroke-width: 0;"/><path d="M-35.31380044140485,-60.4395193427664A70,70,0,0,1,-7.503128077005597e-14,-70L0,0Z" fill="#c21d81" stroke="white" style="stroke-width: 0;"/><path d="M4.2862637970157365e-15,-70A70,70,0,0,1,65.94239844289925,23.486168005826745L0,0Z" fill="#cad3ee" stroke="white" style="stroke-width: 0;"/><text transform="translate(25.481287319884572, 83.70755041524922)" fill="#15bb50" style="text-anchor: middle; font-size: 7px;">120</text><text transform="translate(-71.50192174213682, -50.435356518828556)" fill="#dab1b3" style="text-anchor: middle; font-size: 7px;">55</text><text transform="translate(-81.4751054335452, 31.90700854973235)" fill="#ceffb2" style="text-anchor: middle; font-size: 7px;">72</text><text transform="translate(-22.86566828112536, -84.45952411692559)" fill="#c21d81" style="text-anchor: middle; font-size: 7px;">34</text><text transform="translate(71.50192174213677, -50.43535651882863)" fill="#cad3ee" style="text-anchor: middle; font-size: 7px;">123</text><g class="legendOrdinal" transform="translate(-181, 130)"><g class="legendCells"><g class="cell" transform="translate(0,0)"><path class="swatch" d="M-5,-5h10v10h-10Z" style="fill: rgb(21, 187, 80);"/><text class="label" transform="translate(0,&#10;          23)" style="text-anchor: middle; font-family: monospace;"><tspan x="0" dy="0em">whereas</tspan></text></g><g class="cell" transform="translate(50,0)"><path class="swatch" d="M-5,-5h10v10h-10Z" style="fill: rgb(218, 177, 179);"/><text class="label" transform="translate(0,&#10;          23)" style="text-anchor: middle; font-family: monospace;"><tspan x="0" dy="0em">synthesize</tspan></text></g><g class="cell" transform="translate(100,0)"><path class="swatch" d="M-5,-5h10v10h-10Z" style="fill: rgb(206, 255, 178);"/><text class="label" transform="translate(0,&#10;          23)" style="text-anchor: middle; font-family: monospace;"><tspan x="0" dy="0em">Maserati</tspan></text></g><g class="cell" transform="translate(150,0)"><path class="swatch" d="M-5,-5h10v10h-10Z" style="fill: rgb(194, 29, 129);"/><text class="label" transform="translate(0,&#10;          23)" style="text-anchor: middle; font-family: monospace;"><tspan x="0" dy="0em">Computer</tspan></text></g><g class="cell" transform="translate(200,0)"><path class="swatch" d="M-5,-5h10v10h-10Z" style="fill: rgb(202, 211, 238);"/><text class="label" transform="translate(0,&#10;          23)" style="text-anchor: middle; font-family: monospace;"><tspan x="0" dy="0em">Networked</tspan></text></g></g></g></g></svg>