<svg xmlns="http://www.w3.org/2000/svg" width="400" height="400"><g transform="translate(200, 200)"><text x="-5" y="-170" text-anchor="center" style="font-family: sans-serif; font-size: 25px; font-weight: bold; fill: rgb(0, 0, 0);">turquoise reserved Account</text><path d="M-61.28254781930078,-33.82971079946019A70,70,0,0,1,-46.6018083788209,-52.23285800933794L0,0Z" fill="#ef1972" stroke="black" style="stroke-width: 2px;"/><path d="M14.147917749460085,68.5553529883299A70,70,0,0,1,-42.73125179322285,55.44402691168986L0,0Z" fill="#a4edae" stroke="black" style="stroke-width: 2px;"/><path d="M-27.71187129611697,-64.28104066727178A70,70,0,0,1,-11.9221064928915,-68.9772671013585L0,0Z" fill="#dd2eaf" stroke="black" style="stroke-width: 2px;"/><path d="M-5.064249358558087,-69.8165695120746A70,70,0,0,1,-1.2858791391047208e-14,-70L0,0Z" fill="#fdbce7" stroke="black" style="stroke-width: 2px;"/><path d="M-11.9221064928915,-68.9772671013585A70,70,0,0,1,-5.064249358558087,-69.8165695120746L0,0Z" fill="#04b9b3" stroke="black" style="stroke-width: 2px;"/><path d="M63.42395339629327,29.62097458870689A70,70,0,0,1,14.147917749460085,68.5553529883299L0,0Z" fill="#eeebde" stroke="black" style="stroke-width: 2px;"/><path d="M60.29275492344829,-35.563797656338686A70,70,0,0,1,63.42395339629327,29.62097458870689L0,0Z" fill="#d3c7c3" stroke="black" style="stroke-width: 2px;"/><path d="M-68.93431891545312,12.167977468034794A70,70,0,0,1,-61.28254781930078,-33.82971079946019L0,0Z" fill="#a41012" stroke="black" style="stroke-width: 2px;"/><path d="M-42.73125179322285,55.44402691168986A70,70,0,0,1,-68.93431891545312,12.167977468034794L0,0Z" fill="#db8aec" stroke="black" style="stroke-width: 2px;"/><path d="M-46.6018083788209,-52.23285800933794A70,70,0,0,1,-27.71187129611697,-64.28104066727178L0,0Z" fill="#0dab0d" stroke="black" style="stroke-width: 2px;"/><path d="M4.2862637970157365e-15,-70A70,70,0,0,1,60.29275492344829,-35.563797656338686L0,0Z" fill="#ccefec" stroke="black" style="stroke-width: 2px;"/><text transform="translate(-68.40170336509706, -54.56607899376011)" fill="#ef1972" style="text-anchor: middle; font-size: 7px;">308</text><text transform="translate(-19.654375472474598, 85.26403418081384)" fill="#a4edae" style="text-anchor: middle; font-size: 7px;">784</text><text transform="translate(-24.944522335980835, -83.86906942031581)" fill="#dd2eaf" style="text-anchor: middle; font-size: 7px;">215</text><text transform="translate(-3.167231410620453, -87.44265918412808)" fill="#fdbce7" style="text-anchor: middle; font-size: 7px;">66</text><text transform="translate(-10.629423962239343, -86.8519737612852)" fill="#04b9b3" style="text-anchor: middle; font-size: 7px;">90</text><text transform="translate(54.24654732107092, 68.65538656028974)" fill="#eeebde" style="text-anchor: middle; font-size: 7px;">848</text><text transform="translate(87.39922422181107, -4.198286010456536)" fill="#d3c7c3" style="text-anchor: middle; font-size: 7px;">884</text><text transform="translate(-86.31387966893867, -14.358418314562922)" fill="#a41012" style="text-anchor: middle; font-size: 7px;">619</text><text transform="translate(-74.8488480443879, 45.31997293057586)" fill="#db8aec" style="text-anchor: middle; font-size: 7px;">674</text><text transform="translate(-47.05250430116361, -73.77202612771984)" fill="#0dab0d" style="text-anchor: middle; font-size: 7px;">293</text><text transform="translate(43.39619586633116, -75.98039342048067)" fill="#ccefec" style="text-anchor: middle; font-size: 7px;">946</text><g class="legendOrdinal" transform="translate(-105, 130)"><g class="legendCells"><g class="cell" transform="translate(0,0)"><path class="swatch" d="M-5,-5h10v10h-10Z" style="fill: rgb(239, 25, 114);"/><text class="label" transform="translate(0,&#10;          23)" style="text-anchor: middle; font-family: sans-serif;"><tspan x="0" dy="0em">Southeast</tspan></text></g><g class="cell" transform="translate(50,0)"><path class="swatch" d="M-5,-5h10v10h-10Z" style="fill: rgb(164, 237, 174);"/><text class="label" transform="translate(0,&#10;          23)" style="text-anchor: middle; font-family: sans-serif;"><tspan x="0" dy="0em">shallows</tspan></text></g><g class="cell" transform="translate(100,0)"><path class="swatch" d="M-5,-5h10v10h-10Z" style="fill: rgb(221, 46, 175);"/><text class="label" transform="translate(0,&#10;          23)" style="text-anchor: middle; font-family: sans-serif;"><tspan x="0" dy="0em">Folk</tspan></text></g><g class="cell" transform="translate(150,0)"><path class="swatch" d="M-5,-5h10v10h-10Z" style="fill: rgb(253, 188, 231);"/><text class="label" transform="translate(0,&#10;          23)" style="text-anchor: middle; font-family: sans-serif;"><tspan x="0" dy="0em">Lead</tspan></text></g><g class="cell" transform="translate(200,0)"><path class="swatch" d="M-5,-5h10v10h-10Z" style="fill: rgb(4, 185, 179);"/><text class="label" transform="translate(0,&#10;          23)" style="text-anchor: middle; font-family: sans-serif;"><tspan x="0" dy="0em">Human</tspan></text></g><g class="cell" transform="translate(250,0)"><path class="swatch" d="M-5,-5h10v10h-10Z" style="fill: rgb(238, 235, 222);"/><text class="label" transform="translate(0,&#10;          23)" style="text-anchor: middle; font-family: sans-serif;"><tspan x="0" dy="0em">South</tspan></text></g><g class="cell" transform="translate(300,0)"><path class="swatch" d="M-5,-5h10v10h-10Z" style="fill: rgb(211, 199, 195);"/><text class="label" transform="translate(0,&#10;          23)" style="text-anchor: middle; font-family: sans-serif;"><tspan x="0" dy="0em">whenever</tspan></text></g><g class="cell" transform="translate(350,0)"><path class="swatch" d="M-5,-5h10v10h-10Z" style="fill: rgb(164, 16, 18);"/><text class="label" transform="translate(0,&#10;          23)" style="text-anchor: middle; font-family: sans-serif;"><tspan x="0" dy="0em">North</tspan></text></g><g class="cell" transform="translate(400,0)"><path class="swatch" d="M-5,-5h10v10h-10Z" style="fill: rgb(219, 138, 236);"/><text class="label" transform="translate(0,&#10;          23)" style="text-anchor: middle; font-family: sans-serif;"><tspan x="0" dy="0em">indigo</tspan></text></g><g class="cell" transform="translate(450,0)"><path class="swatch" d="M-5,-5h10v10h-10Z" style="fill: rgb(13, 171, 13);"/><text class="label" transform="translate(0,&#10;          23)" style="text-anchor: middle; font-family: sans-serif;"><tspan x="0" dy="0em">Money</tspan></text></g><g class="cell" transform="translate(500,0)"><path class="swatch" d="M-5,-5h10v10h-10Z" style="fill: rgb(204, 239, 236);"/><text class="label" transform="translate(0,&#10;          23)" style="text-anchor: middle; font-family: sans-serif;"><tspan x="0" dy="0em">Bedfordshire</tspan></text></g></g></g></g></svg>