<svg xmlns="http://www.w3.org/2000/svg" width="400" height="400"><g transform="translate(200, 200)"><text x="-91" y="-170" text-anchor="center" style="font-family: sans-serif; font-size: 25px; font-weight: bold; fill: rgb(0, 0, 0);">spice Road Administrator</text><path d="M-10.873817693733406,-69.15027179095864A70,70,0,0,1,-1.3720377014906475e-13,-70L0,0Z" fill="#a11fc3" stroke="black" style="stroke-width: 2px;"/><path d="M-65.46297442692753,-24.79110685668213A70,70,0,0,1,-39.16350098362548,-58.01913641812989L0,0Z" fill="#5c1ef6" stroke="black" style="stroke-width: 2px;"/><path d="M-67.58124334931674,18.24213658978662A70,70,0,0,1,-65.46297442692753,-24.79110685668213L0,0Z" fill="#ddbcdd" stroke="black" style="stroke-width: 2px;"/><path d="M8.477831333343634,69.48472044905539A70,70,0,0,1,-40.33787005507509,57.20888252203391L0,0Z" fill="#61afbf" stroke="black" style="stroke-width: 2px;"/><path d="M-40.33787005507509,57.20888252203391A70,70,0,0,1,-67.58124334931674,18.24213658978662L0,0Z" fill="#cda93a" stroke="black" style="stroke-width: 2px;"/><path d="M-39.16350098362548,-58.01913641812989A70,70,0,0,1,-10.873817693733406,-69.15027179095864L0,0Z" fill="#c1c5d5" stroke="black" style="stroke-width: 2px;"/><path d="M53.15280407813988,45.54974663629729A70,70,0,0,1,8.477831333343634,69.48472044905539L0,0Z" fill="#ebf8ab" stroke="black" style="stroke-width: 2px;"/><path d="M64.49510855124522,-27.209942538768725A70,70,0,0,1,53.15280407813988,45.54974663629729L0,0Z" fill="#ebf8ab" stroke="black" style="stroke-width: 2px;"/><path d="M4.2862637970157365e-15,-70A70,70,0,0,1,64.49510855124522,-27.209942538768725L0,0Z" fill="#bdf1ce" stroke="black" style="stroke-width: 2px;"/><text transform="translate(-6.816854951658425, -87.2340557842409)" fill="#a11fc3" style="text-anchor: middle; font-size: 12px;">88</text><text transform="translate(-68.61008861611201, -54.30382804268275)" fill="#5c1ef6" style="text-anchor: middle; font-size: 12px;">347</text><text transform="translate(-87.39418585230602, -4.3018925152302785)" fill="#ddbcdd" style="text-anchor: middle; font-size: 12px;">353</text><text transform="translate(-21.33950144538958, 84.85797356796952)" fill="#61afbf" style="text-anchor: middle; font-size: 12px;">415</text><text transform="translate(-71.71161409635138, 50.13675701215603)" fill="#cda93a" style="text-anchor: middle; font-size: 12px;">391</text><text transform="translate(-32.03779161925787, -81.423767464795)" fill="#c1c5d5" style="text-anchor: middle; font-size: 12px;">247</text><text transform="translate(41.321993012199236, 77.12809406111211)" fill="#ebf8ab" style="text-anchor: middle; font-size: 12px;">418</text><text transform="translate(86.45583164908102, 13.47735782213124)" fill="#ebf8ab" style="text-anchor: middle; font-size: 12px;">625</text><text transform="translate(48.3743864809786, -72.91206163995717)" fill="#bdf1ce" style="text-anchor: middle; font-size: 12px;">661</text><g class="legendOrdinal" transform="translate(-60, -140)"><g class="legendCells" transform="translate(15.958333969116211,15.333333969116211)"><g class="cell" transform="translate(0,0)"><path class="swatch" d="M-5,-5h10v10h-10Z" style="fill: rgb(161, 31, 195);"/><text class="label" transform="translate(0,&#10;          23)" style="text-anchor: middle; font-family: sans-serif;"><tspan x="0" dy="0em">Steel</tspan></text></g><g class="cell" transform="translate(50,0)"><path class="swatch" d="M-5,-5h10v10h-10Z" style="fill: rgb(92, 30, 246);"/><text class="label" transform="translate(0,&#10;          23)" style="text-anchor: middle; font-family: sans-serif;"><tspan x="0" dy="0em">male</tspan></text></g><g class="cell" transform="translate(100,0)"><path class="swatch" d="M-5,-5h10v10h-10Z" style="fill: rgb(221, 188, 221);"/><text class="label" transform="translate(0,&#10;          23)" style="text-anchor: middle; font-family: sans-serif;"><tspan x="0" dy="0em">newton</tspan></text></g><g class="cell" transform="translate(150,0)"><path class="swatch" d="M-5,-5h10v10h-10Z" style="fill: rgb(97, 175, 191);"/><text class="label" transform="translate(0,&#10;          23)" style="text-anchor: middle; font-family: sans-serif;"><tspan x="0" dy="0em">XSS</tspan></text></g><g class="cell" transform="translate(200,0)"><path class="swatch" d="M-5,-5h10v10h-10Z" style="fill: rgb(205, 169, 58);"/><text class="label" transform="translate(0,&#10;          23)" style="text-anchor: middle; font-family: sans-serif;"><tspan x="0" dy="0em">VGA</tspan></text></g><g class="cell" transform="translate(250,0)"><path class="swatch" d="M-5,-5h10v10h-10Z" style="fill: rgb(193, 197, 213);"/><text class="label" transform="translate(0,&#10;          23)" style="text-anchor: middle; font-family: sans-serif;"><tspan x="0" dy="0em">questioning</tspan></text></g><g class="cell" transform="translate(300,0)"><path class="swatch" d="M-5,-5h10v10h-10Z" style="fill: rgb(235, 248, 171);"/><text class="label" transform="translate(0,&#10;          23)" style="text-anchor: middle; font-family: sans-serif;"><tspan x="0" dy="0em">Account</tspan></text></g><g class="cell" transform="translate(350,0)"><path class="swatch" d="M-5,-5h10v10h-10Z" style="fill: rgb(189, 241, 206);"/><text class="label" transform="translate(0,&#10;          23)" style="text-anchor: middle; font-family: sans-serif;"><tspan x="0" dy="0em">Rubber</tspan></text></g></g><text class="legendTitle" style="font-family: sans-serif;">Bronze</text></g></g></svg>