<svg xmlns="http://www.w3.org/2000/svg" width="400" height="400"><g transform="translate(200, 200)"><text x="35" y="-170" text-anchor="center" style="font-family: serif; font-size: 25px; font-weight: bold; fill: rgb(0, 0, 0);">Baby churn multimedia</text><path d="M4.2862637970157365e-15,-70A70,70,0,0,1,64.79218221554885,-26.49477540473055L32.396091107774424,-13.247387702365275A35,35,0,0,0,2.1431318985078682e-15,-35Z" fill="#2a4095" stroke="white" style="stroke-width: 2px;"/><path d="M26.74964542399778,64.68737488637481A70,70,0,0,1,-16.274176553035336,68.08194457799098L-8.137088276517668,34.04097228899549A35,35,0,0,0,13.37482271199889,32.343687443187406Z" fill="#6a758f" stroke="white" style="stroke-width: 2px;"/><path d="M-69.4793495015511,8.521736492130566A70,70,0,0,1,-64.32354061995223,-27.613078823509642L-32.16177030997611,-13.806539411754821A35,35,0,0,0,-34.73967475077555,4.260868246065283Z" fill="#8dffa8" stroke="white" style="stroke-width: 2px;"/><path d="M-16.381367226207374,-68.05623268885914A70,70,0,0,1,-1.2858791391047208e-14,-70L-6.429395695523604e-15,-35A35,35,0,0,0,-8.190683613103687,-34.02811634442957Z" fill="#c4ef90" stroke="white" style="stroke-width: 2px;"/><path d="M-64.32354061995223,-27.613078823509642A70,70,0,0,1,-44.62817219841089,-53.928899916732824L-22.314086099205444,-26.964449958366412A35,35,0,0,0,-32.16177030997611,-13.806539411754821Z" fill="#c2e9eb" stroke="white" style="stroke-width: 2px;"/><path d="M64.79218221554885,-26.49477540473055A70,70,0,0,1,60.23229343206836,35.666101944468444L30.11614671603418,17.833050972234222A35,35,0,0,0,32.396091107774424,-13.247387702365275Z" fill="#decdfe" stroke="white" style="stroke-width: 2px;"/><path d="M-44.62817219841089,-53.928899916732824A70,70,0,0,1,-16.381367226207374,-68.05623268885914L-8.190683613103687,-34.02811634442957A35,35,0,0,0,-22.314086099205444,-26.964449958366412Z" fill="#e5ba3b" stroke="white" style="stroke-width: 2px;"/><path d="M-52.678723556262014,46.09720256678192A70,70,0,0,1,-69.4793495015511,8.521736492130566L-34.73967475077555,4.260868246065283A35,35,0,0,0,-26.339361778131007,23.04860128339096Z" fill="#688f5b" stroke="white" style="stroke-width: 2px;"/><path d="M60.23229343206836,35.666101944468444A70,70,0,0,1,26.74964542399778,64.68737488637481L13.37482271199889,32.343687443187406A35,35,0,0,0,30.11614671603418,17.833050972234222Z" fill="#daa8a6" stroke="white" style="stroke-width: 2px;"/><path d="M-16.274176553035336,68.08194457799098A70,70,0,0,1,-52.678723556262014,46.09720256678192L-26.339361778131007,23.04860128339096A35,35,0,0,0,-8.137088276517668,34.04097228899549Z" fill="#755ed4" stroke="white" style="stroke-width: 2px;"/><text transform="translate(40.97264763314619, -61.020424006475395)" fill="#2a4095" style="text-anchor: middle; font-size: 11px;">751</text><text transform="translate(5.7811666855004615, 73.27228747455929)" fill="#6a758f" style="text-anchor: middle; font-size: 11px;">398</text><text transform="translate(-72.7630649037437, -10.382022241046357)" fill="#8dffa8" style="text-anchor: middle; font-size: 11px;">335</text><text transform="translate(-8.660549700720397, -72.98797763249337)" fill="#c4ef90" style="text-anchor: middle; font-size: 11px;">150</text><text transform="translate(-58.84451010473879, -44.04059071508118)" fill="#c2e9eb" style="text-anchor: middle; font-size: 11px;">301</text><text transform="translate(73.30303768879845, 5.377235869347128)" fill="#decdfe" style="text-anchor: middle; font-size: 11px;">586</text><text transform="translate(-32.87751640119899, -65.73673946347576)" fill="#e5ba3b" style="text-anchor: middle; font-size: 11px;">289</text><text transform="translate(-67.09843102949132, 30.000842544511876)" fill="#688f5b" style="text-anchor: middle; font-size: 11px;">379</text><text transform="translate(48.14021550971646, 55.540702648400604)" fill="#daa8a6" style="text-anchor: middle; font-size: 11px;">409</text><text transform="translate(-37.995753132907275, 62.917189573781556)" fill="#755ed4" style="text-anchor: middle; font-size: 11px;">392</text><g class="legendOrdinal" transform="translate(-150, -19.333333333333343)"><g class="legendCells" transform="translate(5,15.333333969116211)"><g class="cell" transform="translate(0, 0)"><path class="swatch" d="M-5,-5h10v10h-10Z" style="fill: rgb(42, 64, 149);"/><text class="label" transform="translate( 15, 5)" style="font-family: serif;"><tspan x="0" dy="0em">copy</tspan></text></g><g class="cell" transform="translate(0, 25.33333396911621)"><path class="swatch" d="M-5,-5h10v10h-10Z" style="fill: rgb(106, 117, 143);"/><text class="label" transform="translate( 15, 5)" style="font-family: serif;"><tspan x="0" dy="0em">Universal</tspan></text></g><g class="cell" transform="translate(0, 50.66666793823242)"><path class="swatch" d="M-5,-5h10v10h-10Z" style="fill: rgb(141, 255, 168);"/><text class="label" transform="translate( 15, 5)" style="font-family: serif;"><tspan x="0" dy="0em">grey</tspan></text></g><g class="cell" transform="translate(0, 76.00000190734863)"><path class="swatch" d="M-5,-5h10v10h-10Z" style="fill: rgb(196, 239, 144);"/><text class="label" transform="translate( 15, 5)" style="font-family: serif;"><tspan x="0" dy="0em">Distributed</tspan></text></g><g class="cell" transform="translate(0, 101.33333587646484)"><path class="swatch" d="M-5,-5h10v10h-10Z" style="fill: rgb(194, 233, 235);"/><text class="label" transform="translate( 15, 5)" style="font-family: serif;"><tspan x="0" dy="0em">green</tspan></text></g><g class="cell" transform="translate(0, 126.66666984558105)"><path class="swatch" d="M-5,-5h10v10h-10Z" style="fill: rgb(222, 205, 254);"/><text class="label" transform="translate( 15, 5)" style="font-family: serif;"><tspan x="0" dy="0em">Altoona</tspan></text></g><g class="cell" transform="translate(0, 152.00000381469727)"><path class="swatch" d="M-5,-5h10v10h-10Z" style="fill: rgb(229, 186, 59);"/><text class="label" transform="translate( 15, 5)" style="font-family: serif;"><tspan x="0" dy="0em">Cab</tspan></text></g><g class="cell" transform="translate(0, 177.33333778381348)"><path class="swatch" d="M-5,-5h10v10h-10Z" style="fill: rgb(104, 143, 91);"/><text class="label" transform="translate( 15, 5)" style="font-family: serif;"><tspan x="0" dy="0em">Southeast</tspan></text></g><g class="cell" transform="translate(0, 202.6666717529297)"><path class="swatch" d="M-5,-5h10v10h-10Z" style="fill: rgb(218, 168, 166);"/><text class="label" transform="translate( 15, 5)" style="font-family: serif;"><tspan x="0" dy="0em">unless</tspan></text></g><g class="cell" transform="translate(0, 228.0000057220459)"><path class="swatch" d="M-5,-5h10v10h-10Z" style="fill: rgb(117, 94, 212);"/><text class="label" transform="translate( 15, 5)" style="font-family: serif;"><tspan x="0" dy="0em">degree</tspan></text></g></g><text class="legendTitle" style="font-family: serif;">Central</text></g></g></svg>