<svg xmlns="http://www.w3.org/2000/svg" width="400" height="400"><g transform="translate(200, 200)"><text x="26" y="-170" text-anchor="center" style="font-family: serif; font-size: 25px; font-weight: bold; fill: rgb(0, 0, 0);">Nitrogen Rustic Rial</text><path d="M-68.73136121435132,-13.266498619543956A70,70,0,0,1,-30.69867426412813,-62.90939038351077L0,0Z" fill="#02adf3" stroke="black" style="stroke-width: 2px;"/><path d="M-30.69867426412813,-62.90939038351077A70,70,0,0,1,-1.2858791391047208e-14,-70L0,0Z" fill="#eeeb97" stroke="black" style="stroke-width: 2px;"/><path d="M4.2862637970157365e-15,-70A70,70,0,1,1,-2.5417704339193525,69.953837657853L0,0Z" fill="#be0afd" stroke="black" style="stroke-width: 2px;"/><path d="M-2.5417704339193525,69.953837657853A70,70,0,0,1,-68.73136121435132,-13.266498619543956L0,0Z" fill="#3f1fa2" stroke="black" style="stroke-width: 2px;"/><text transform="translate(-69.45870135921092, -53.214084653331675)" fill="#02adf3" style="text-anchor: middle; font-size: 8px;">51</text><text transform="translate(-19.69181843816754, -85.25539447212853)" fill="#eeeb97" style="text-anchor: middle; font-size: 8px;">25</text><text transform="translate(87.48557307873016, 1.5888684924070047)" fill="#be0afd" style="text-anchor: middle; font-size: 8px;">175</text><text transform="translate(-68.48096127150833, 54.466576387085084)" fill="#3f1fa2" style="text-anchor: middle; font-size: 8px;">95</text><g class="legendOrdinal" transform="translate(130, -97.33333333333334)"><g class="legendCells"><g class="cell" transform="translate(0, 0)"><path class="swatch" d="M-5,-5h10v10h-10Z" style="fill: rgb(2, 173, 243);"/><text class="label" transform="translate( 15, 5)" style="font-family: serif;"><tspan x="0" dy="0em">workforce</tspan></text></g><g class="cell" transform="translate(0, 25.33333396911621)"><path class="swatch" d="M-5,-5h10v10h-10Z" style="fill: rgb(238, 235, 151);"/><text class="label" transform="translate( 15, 5)" style="font-family: serif;"><tspan x="0" dy="0em">Litas</tspan></text></g><g class="cell" transform="translate(0, 50.66666793823242)"><path class="swatch" d="M-5,-5h10v10h-10Z" style="fill: rgb(190, 10, 253);"/><text class="label" transform="translate( 15, 5)" style="font-family: serif;"><tspan x="0" dy="0em">CLI</tspan></text></g><g class="cell" transform="translate(0, 76.00000190734863)"><path class="swatch" d="M-5,-5h10v10h-10Z" style="fill: rgb(63, 31, 162);"/><text class="label" transform="translate( 15, 5)" style="font-family: serif;"><tspan x="0" dy="0em">Global</tspan></text></g></g></g></g></svg>