<svg xmlns="http://www.w3.org/2000/svg" width="400" height="400"><g transform="translate(200, 200)"><text x="-26" y="-170" text-anchor="center" style="font-family: serif; font-size: 25px; font-weight: bold; fill: rgb(0, 0, 0);">Bicycle</text><path d="M-7.603946211407981,-69.58577442275119A70,70,0,0,1,4.9313697987961557e-14,-70L2.3247886194324733e-14,-33A33,33,0,0,0,-3.5847174996637627,-32.80472222786842Z" fill="#54a27c" stroke="white" style="stroke-width: 2px;"/><path d="M-17.810507474711457,-67.69627628971365A70,70,0,0,1,-7.603946211407981,-69.58577442275119L-3.5847174996637627,-32.80472222786842A33,33,0,0,0,-8.396382095221117,-31.91395882229358Z" fill="#38f95b" stroke="white" style="stroke-width: 2px;"/><path d="M-40.58260947423252,57.03553110353171A70,70,0,0,1,-67.99451647691342,16.635676393544983L-32.054557767687754,7.84253315695692A33,33,0,0,0,-19.131801609281045,26.888178948807806Z" fill="#dde877" stroke="white" style="stroke-width: 2px;"/><path d="M64.38637248170781,-27.466252723055987A70,70,0,0,1,57.92482313395322,39.30286077247098L27.30741662029223,18.528491507022032A33,33,0,0,0,30.35357559851939,-12.948376283726395Z" fill="#aa8b8b" stroke="white" style="stroke-width: 2px;"/><path d="M-67.99451647691342,16.635676393544983A70,70,0,0,1,-67.74012688581566,-17.64299321242276L-31.934631246170234,-8.317411085856442A33,33,0,0,0,-32.054557767687754,7.84253315695692Z" fill="#cb5e9c" stroke="white" style="stroke-width: 2px;"/><path d="M7.259586591470532,69.6225423445664A70,70,0,0,1,-40.58260947423252,57.03553110353171L-19.131801609281045,26.888178948807806A33,33,0,0,0,3.422376535978965,32.82205567672416Z" fill="#dc10e4" stroke="white" style="stroke-width: 2px;"/><path d="M4.2862637970157365e-15,-70A70,70,0,0,1,64.38637248170781,-27.466252723055987L30.35357559851939,-12.948376283726395A33,33,0,0,0,2.0206672185931327e-15,-33Z" fill="#dc10e4" stroke="white" style="stroke-width: 2px;"/><path d="M-53.98005077473508,-44.56628903506576A70,70,0,0,1,-32.6249377733291,-61.93232948377126L-15.380327807426578,-29.196669613777882A33,33,0,0,0,-25.44773822237511,-21.00982197367386Z" fill="#9fdfaf" stroke="white" style="stroke-width: 2px;"/><path d="M57.92482313395322,39.30286077247098A70,70,0,0,1,7.259586591470532,69.6225423445664L3.422376535978965,32.82205567672416A33,33,0,0,0,27.30741662029223,18.528491507022032Z" fill="#dcfb22" stroke="white" style="stroke-width: 2px;"/><path d="M-67.74012688581566,-17.64299321242276A70,70,0,0,1,-53.98005077473508,-44.56628903506576L-25.44773822237511,-21.00982197367386A33,33,0,0,0,-31.934631246170234,-8.317411085856442Z" fill="#d2239a" stroke="white" style="stroke-width: 2px;"/><path d="M-32.6249377733291,-61.93232948377126A70,70,0,0,1,-17.810507474711457,-67.69627628971365L-8.396382095221117,-31.91395882229358A33,33,0,0,0,-15.380327807426578,-29.196669613777882Z" fill="#3a3fdd" stroke="white" style="stroke-width: 2px;"/><text transform="translate(-3.921838474697021, -71.99325789946157)" fill="#54a27c" style="text-anchor: middle; font-size: 7px;">11</text><text transform="translate(-13.124567203470065, -70.89538585635597)" fill="#38f95b" style="text-anchor: middle; font-size: 7px;">15</text><text transform="translate(-59.662567827971806, 40.48194659564511)" fill="#dde877" style="text-anchor: middle; font-size: 7px;">72</text><text transform="translate(71.76473368599412, 6.944998126590102)" fill="#aa8b8b" style="text-anchor: middle; font-size: 7px;">101</text><text transform="translate(-72.09801464538911, -0.5350553179405507)" fill="#cb5e9c" style="text-anchor: middle; font-size: 7px;">50</text><text transform="translate(-18.344822698952814, 69.72716457840505)" fill="#dc10e4" style="text-anchor: middle; font-size: 7px;">73</text><text transform="translate(39.74093402291706, -60.15869149994997)" fill="#dc10e4" style="text-anchor: middle; font-size: 7px;">118</text><text transform="translate(-45.489409233015564, -55.938570303782676)" fill="#9fdfaf" style="text-anchor: middle; font-size: 7px;">40</text><text transform="translate(37.02377359523199, 61.86800618065045)" fill="#dcfb22" style="text-anchor: middle; font-size: 7px;">88</text><text transform="translate(-64.20103588939718, -32.812146999675825)" fill="#d2239a" style="text-anchor: middle; font-size: 7px;">44</text><text transform="translate(-26.143325701108473, -67.19327735187323)" fill="#3a3fdd" style="text-anchor: middle; font-size: 7px;">23</text><g class="legendOrdinal" transform="translate(-150, -136.33333333333334)"><g class="legendCells"><g class="cell" transform="translate(0, 0)"><path class="swatch" d="M-5,-5h10v10h-10Z" style="fill: rgb(84, 162, 124);"/><text class="label" transform="translate( 15, 5)" style="font-family: serif;"><tspan x="0" dy="0em">weber</tspan></text></g><g class="cell" transform="translate(0, 25.33333396911621)"><path class="swatch" d="M-5,-5h10v10h-10Z" style="fill: rgb(56, 249, 91);"/><text class="label" transform="translate( 15, 5)" style="font-family: serif;"><tspan x="0" dy="0em">West</tspan></text></g><g class="cell" transform="translate(0, 50.66666793823242)"><path class="swatch" d="M-5,-5h10v10h-10Z" style="fill: rgb(221, 232, 119);"/><text class="label" transform="translate( 15, 5)" style="font-family: serif;"><tspan x="0" dy="0em">Global</tspan></text></g><g class="cell" transform="translate(0, 76.00000190734863)"><path class="swatch" d="M-5,-5h10v10h-10Z" style="fill: rgb(170, 139, 139);"/><text class="label" transform="translate( 15, 5)" style="font-family: serif;"><tspan x="0" dy="0em">core</tspan></text></g><g class="cell" transform="translate(0, 101.33333587646484)"><path class="swatch" d="M-5,-5h10v10h-10Z" style="fill: rgb(203, 94, 156);"/><text class="label" transform="translate( 15, 5)" style="font-family: serif;"><tspan x="0" dy="0em">payment</tspan></text></g><g class="cell" transform="translate(0, 126.66666984558105)"><path class="swatch" d="M-5,-5h10v10h-10Z" style="fill: rgb(220, 16, 228);"/><text class="label" transform="translate( 15, 5)" style="font-family: serif;"><tspan x="0" dy="0em">female</tspan></text></g><g class="cell" transform="translate(0, 152.00000381469727)"><path class="swatch" d="M-5,-5h10v10h-10Z" style="fill: rgb(159, 223, 175);"/><text class="label" transform="translate( 15, 5)" style="font-family: serif;"><tspan x="0" dy="0em">Shoes</tspan></text></g><g class="cell" transform="translate(0, 177.33333778381348)"><path class="swatch" d="M-5,-5h10v10h-10Z" style="fill: rgb(220, 251, 34);"/><text class="label" transform="translate( 15, 5)" style="font-family: serif;"><tspan x="0" dy="0em">invoice</tspan></text></g><g class="cell" transform="translate(0, 202.6666717529297)"><path class="swatch" d="M-5,-5h10v10h-10Z" style="fill: rgb(210, 35, 154);"/><text class="label" transform="translate( 15, 5)" style="font-family: serif;"><tspan x="0" dy="0em">violet</tspan></text></g><g class="cell" transform="translate(0, 228.0000057220459)"><path class="swatch" d="M-5,-5h10v10h-10Z" style="fill: rgb(58, 63, 221);"/><text class="label" transform="translate( 15, 5)" style="font-family: serif;"><tspan x="0" dy="0em">Gasoline</tspan></text></g></g></g></g></svg>