<svg xmlns="http://www.w3.org/2000/svg" width="400" height="400"><g transform="translate(200, 200)"><text x="-37" y="-170" text-anchor="center" style="font-family: Balto; font-size: 25px; font-weight: bold; fill: rgb(0, 0, 0);">TCP Van</text><path d="M-50.39324316305972,48.585193665444365A70,70,0,0,1,-69.68450601648934,6.638495404672784L0,0Z" fill="#b089a2" stroke="white" style="stroke-width: 2px;"/><path d="M55.715840436422575,42.376233014074046A70,70,0,0,1,1.022807721868037,69.99252720372431L0,0Z" fill="#dfd8b9" stroke="white" style="stroke-width: 2px;"/><path d="M-6.129205708147413,-69.73114682397826A70,70,0,0,1,-7.503128077005597e-14,-70L0,0Z" fill="#a9bcad" stroke="white" style="stroke-width: 2px;"/><path d="M-58.66047284169767,-38.19618994073165A70,70,0,0,1,-41.968044089998074,-56.02395269221887L0,0Z" fill="#fa2533" stroke="white" style="stroke-width: 2px;"/><path d="M64.42423284984116,-27.377330434310917A70,70,0,0,1,55.715840436422575,42.376233014074046L0,0Z" fill="#acf005" stroke="white" style="stroke-width: 2px;"/><path d="M-69.68450601648934,6.638495404672784A70,70,0,0,1,-58.66047284169767,-38.19618994073165L0,0Z" fill="#cfa4a9" stroke="white" style="stroke-width: 2px;"/><path d="M-41.968044089998074,-56.02395269221887A70,70,0,0,1,-29.71196892130709,-63.38137662452025L0,0Z" fill="#1b87da" stroke="white" style="stroke-width: 2px;"/><path d="M1.022807721868037,69.99252720372431A70,70,0,0,1,-50.39324316305972,48.585193665444365L0,0Z" fill="#e10b8d" stroke="white" style="stroke-width: 2px;"/><path d="M-16.21682542399605,-68.09562815018036A70,70,0,0,1,-6.129205708147413,-69.73114682397826L0,0Z" fill="#da5edb" stroke="white" style="stroke-width: 2px;"/><path d="M-29.71196892130709,-63.38137662452025A70,70,0,0,1,-16.21682542399605,-68.09562815018036L0,0Z" fill="#0ef1ce" stroke="white" style="stroke-width: 2px;"/><path d="M4.2862637970157365e-15,-70A70,70,0,0,1,64.42423284984116,-27.377330434310917L0,0Z" fill="#fac478" stroke="white" style="stroke-width: 2px;"/><text transform="translate(-79.49594954060284, 36.56014232245176)" fill="#b089a2" style="text-anchor: middle; font-size: 14px;">23</text><text transform="translate(39.4391040660294, 78.1076633274156)" fill="#dfd8b9" style="text-anchor: middle; font-size: 14px;">31</text><text transform="translate(-3.8344371247536904, -87.41594300776211)" fill="#a9bcad" style="text-anchor: middle; font-size: 14px;">3</text><text transform="translate(-63.872209896853946, -59.80460519802997)" fill="#fa2533" style="text-anchor: middle; font-size: 14px;">12</text><text transform="translate(86.82596822941434, 10.839798938390476)" fill="#acf005" style="text-anchor: middle; font-size: 14px;">36</text><text transform="translate(-84.96916400260002, -20.892371064559953)" fill="#cfa4a9" style="text-anchor: middle; font-size: 14px;">23</text><text transform="translate(-45.035385185830535, -75.02042442671113)" fill="#1b87da" style="text-anchor: middle; font-size: 14px;">7</text><text transform="translate(-33.632398261804674, 80.77816404919932)" fill="#e10b8d" style="text-anchor: middle; font-size: 14px;">28</text><text transform="translate(-14.003627162540743, -86.37215075643626)" fill="#da5edb" style="text-anchor: middle; font-size: 14px;">5</text><text transform="translate(-28.856313741674363, -82.60486158357784)" fill="#0ef1ce" style="text-anchor: middle; font-size: 14px;">7</text><text transform="translate(48.27967731741403, -72.97480906536433)" fill="#fac478" style="text-anchor: middle; font-size: 14px;">40</text><g class="legendOrdinal" transform="translate(-150, -113.33333333333334)"><g class="legendCells"><g class="cell" transform="translate(0, 0)"><path class="swatch" d="M-5,-5h10v10h-10Z" style="fill: rgb(176, 137, 162);"/><text class="label" transform="translate( 15, 5)" style="font-family: Balto;"><tspan x="0" dy="0em">Garden</tspan></text></g><g class="cell" transform="translate(0, 25.33333396911621)"><path class="swatch" d="M-5,-5h10v10h-10Z" style="fill: rgb(223, 216, 185);"/><text class="label" transform="translate( 15, 5)" style="font-family: Balto;"><tspan x="0" dy="0em">API</tspan></text></g><g class="cell" transform="translate(0, 50.66666793823242)"><path class="swatch" d="M-5,-5h10v10h-10Z" style="fill: rgb(169, 188, 173);"/><text class="label" transform="translate( 15, 5)" style="font-family: Balto;"><tspan x="0" dy="0em">Southeast</tspan></text></g><g class="cell" transform="translate(0, 76.00000190734863)"><path class="swatch" d="M-5,-5h10v10h-10Z" style="fill: rgb(250, 37, 51);"/><text class="label" transform="translate( 15, 5)" style="font-family: Balto;"><tspan x="0" dy="0em">Franc</tspan></text></g><g class="cell" transform="translate(0, 101.33333587646484)"><path class="swatch" d="M-5,-5h10v10h-10Z" style="fill: rgb(172, 240, 5);"/><text class="label" transform="translate( 15, 5)" style="font-family: Balto;"><tspan x="0" dy="0em">nesciunt</tspan></text></g><g class="cell" transform="translate(0, 126.66666984558105)"><path class="swatch" d="M-5,-5h10v10h-10Z" style="fill: rgb(207, 164, 169);"/><text class="label" transform="translate( 15, 5)" style="font-family: Balto;"><tspan x="0" dy="0em">Sedan</tspan></text></g><g class="cell" transform="translate(0, 152.00000381469727)"><path class="swatch" d="M-5,-5h10v10h-10Z" style="fill: rgb(27, 135, 218);"/><text class="label" transform="translate( 15, 5)" style="font-family: Balto;"><tspan x="0" dy="0em">EXE</tspan></text></g><g class="cell" transform="translate(0, 177.33333778381348)"><path class="swatch" d="M-5,-5h10v10h-10Z" style="fill: rgb(225, 11, 141);"/><text class="label" transform="translate( 15, 5)" style="font-family: Balto;"><tspan x="0" dy="0em">deposit</tspan></text></g><g class="cell" transform="translate(0, 202.6666717529297)"><path class="swatch" d="M-5,-5h10v10h-10Z" style="fill: rgb(218, 94, 219);"/><text class="label" transform="translate( 15, 5)" style="font-family: Balto;"><tspan x="0" dy="0em">Mountain</tspan></text></g><g class="cell" transform="translate(0, 228.0000057220459)"><path class="swatch" d="M-5,-5h10v10h-10Z" style="fill: rgb(14, 241, 206);"/><text class="label" transform="translate( 15, 5)" style="font-family: Balto;"><tspan x="0" dy="0em">tumbler</tspan></text></g><g class="cell" transform="translate(0, 253.3333396911621)"><path class="swatch" d="M-5,-5h10v10h-10Z" style="fill: rgb(250, 196, 120);"/><text class="label" transform="translate( 15, 5)" style="font-family: Balto;"><tspan x="0" dy="0em">our</tspan></text></g></g></g></g></svg>