<svg xmlns="http://www.w3.org/2000/svg" width="400" height="400"><g transform="translate(200, 200)"><text x="46" y="-170" text-anchor="center" style="font-family: Balto; font-size: 25px; font-weight: bold; fill: rgb(0, 0, 0);">Coordinator North</text><path d="M62.26652752291651,31.982488180844847A70,70,0,0,1,11.108987604978367,69.11288153732586L0,0Z" fill="#cedb59" stroke="black" style="stroke-width: 2px;"/><path d="M-55.897137947099054,-42.13680065362081A70,70,0,0,1,-34.73128251301829,-60.77613030623873L0,0Z" fill="#034cf3" stroke="black" style="stroke-width: 2px;"/><path d="M-68.18535604182193,-15.835315640996173A70,70,0,0,1,-55.897137947099054,-42.13680065362081L0,0Z" fill="#eb5f91" stroke="black" style="stroke-width: 2px;"/><path d="M11.108987604978367,69.11288153732586A70,70,0,0,1,-42.4734751376017,55.64174610609852L0,0Z" fill="#dbb86c" stroke="black" style="stroke-width: 2px;"/><path d="M-34.73128251301829,-60.77613030623873A70,70,0,0,1,-16.90355095050971,-67.92841795054204L0,0Z" fill="#7dadad" stroke="black" style="stroke-width: 2px;"/><path d="M-42.4734751376017,55.64174610609852A70,70,0,0,1,-66.75948055510699,21.05164497164752L0,0Z" fill="#7ba4bc" stroke="black" style="stroke-width: 2px;"/><path d="M-16.90355095050971,-67.92841795054204A70,70,0,0,1,-6.245890712650316,-69.72079208676297L0,0Z" fill="#fe5d0d" stroke="black" style="stroke-width: 2px;"/><path d="M4.2862637970157365e-15,-70A70,70,0,0,1,61.79662973867394,-32.88124926065371L0,0Z" fill="#fc3e57" stroke="black" style="stroke-width: 2px;"/><path d="M-6.245890712650316,-69.72079208676297A70,70,0,0,1,-7.503128077005597e-14,-70L0,0Z" fill="#a56960" stroke="black" style="stroke-width: 2px;"/><path d="M61.79662973867394,-32.88124926065371A70,70,0,0,1,62.26652752291651,31.982488180844847L0,0Z" fill="#51ae1b" stroke="black" style="stroke-width: 2px;"/><path d="M-66.75948055510699,21.05164497164752A70,70,0,0,1,-68.18535604182193,-15.835315640996173L0,0Z" fill="#7a420f" stroke="black" style="stroke-width: 2px;"/><text transform="translate(51.39701600611068, 70.81381747701224)" fill="#cedb59" style="text-anchor: middle; font-size: 7px;">388</text><text transform="translate(-57.828326229029685, -65.66684616721682)" fill="#034cf3" style="text-anchor: middle; font-size: 7px;">168</text><text transform="translate(-79.27462508874396, -37.03760004426701)" fill="#eb5f91" style="text-anchor: middle; font-size: 7px;">173</text><text transform="translate(-21.334414759287643, 84.85925257082275)" fill="#dbb86c" style="text-anchor: middle; font-size: 7px;">336</text><text transform="translate(-32.579897256069806, -81.20837576742892)" fill="#7dadad" style="text-anchor: middle; font-size: 7px;">114</text><text transform="translate(-71.61178353700117, 50.279244809858554)" fill="#7ba4bc" style="text-anchor: middle; font-size: 7px;">254</text><text transform="translate(-14.511703982801908, -86.28824049379804)" fill="#fe5d0d" style="text-anchor: middle; font-size: 7px;">64</text><text transform="translate(45.05476313396842, -75.00878827805445)" fill="#fc3e57" style="text-anchor: middle; font-size: 7px;">448</text><text transform="translate(-3.9075801661835046, -87.41270398085652)" fill="#a56960" style="text-anchor: middle; font-size: 7px;">37</text><text transform="translate(87.49770404263158, -0.6338669166732424)" fill="#51ae1b" style="text-anchor: middle; font-size: 7px;">399</text><text transform="translate(-87.43470060612236, 3.379812112787576)" fill="#7a420f" style="text-anchor: middle; font-size: 7px;">221</text><g class="legendOrdinal" transform="translate(-183, 130)"><g class="legendCells" transform="translate(22.453125,15.333333969116211)"><g class="cell" transform="translate(0,0)"><path class="swatch" d="M-5,-5h10v10h-10Z" style="fill: rgb(206, 219, 89);"/><text class="label" transform="translate(0,&#10;          23)" style="text-anchor: middle; font-family: Balto;"><tspan x="0" dy="0em">Austria</tspan></text></g><g class="cell" transform="translate(50,0)"><path class="swatch" d="M-5,-5h10v10h-10Z" style="fill: rgb(3, 76, 243);"/><text class="label" transform="translate(0,&#10;          23)" style="text-anchor: middle; font-family: Balto;"><tspan x="0" dy="0em">up</tspan></text></g><g class="cell" transform="translate(100,0)"><path class="swatch" d="M-5,-5h10v10h-10Z" style="fill: rgb(235, 95, 145);"/><text class="label" transform="translate(0,&#10;          23)" style="text-anchor: middle; font-family: Balto;"><tspan x="0" dy="0em">Program</tspan></text></g><g class="cell" transform="translate(150,0)"><path class="swatch" d="M-5,-5h10v10h-10Z" style="fill: rgb(219, 184, 108);"/><text class="label" transform="translate(0,&#10;          23)" style="text-anchor: middle; font-family: Balto;"><tspan x="0" dy="0em">totam</tspan></text></g><g class="cell" transform="translate(200,0)"><path class="swatch" d="M-5,-5h10v10h-10Z" style="fill: rgb(125, 173, 173);"/><text class="label" transform="translate(0,&#10;          23)" style="text-anchor: middle; font-family: Balto;"><tspan x="0" dy="0em">Chrysler</tspan></text></g><g class="cell" transform="translate(250,0)"><path class="swatch" d="M-5,-5h10v10h-10Z" style="fill: rgb(123, 164, 188);"/><text class="label" transform="translate(0,&#10;          23)" style="text-anchor: middle; font-family: Balto;"><tspan x="0" dy="0em">terribly</tspan></text></g><g class="cell" transform="translate(300,0)"><path class="swatch" d="M-5,-5h10v10h-10Z" style="fill: rgb(254, 93, 13);"/><text class="label" transform="translate(0,&#10;          23)" style="text-anchor: middle; font-family: Balto;"><tspan x="0" dy="0em">male</tspan></text></g><g class="cell" transform="translate(350,0)"><path class="swatch" d="M-5,-5h10v10h-10Z" style="fill: rgb(252, 62, 87);"/><text class="label" transform="translate(0,&#10;          23)" style="text-anchor: middle; font-family: Balto;"><tspan x="0" dy="0em">Electronics</tspan></text></g><g class="cell" transform="translate(400,0)"><path class="swatch" d="M-5,-5h10v10h-10Z" style="fill: rgb(165, 105, 96);"/><text class="label" transform="translate(0,&#10;          23)" style="text-anchor: middle; font-family: Balto;"><tspan x="0" dy="0em">bandwidth</tspan></text></g><g class="cell" transform="translate(450,0)"><path class="swatch" d="M-5,-5h10v10h-10Z" style="fill: rgb(81, 174, 27);"/><text class="label" transform="translate(0,&#10;          23)" style="text-anchor: middle; font-family: Balto;"><tspan x="0" dy="0em">Harbors</tspan></text></g><g class="cell" transform="translate(500,0)"><path class="swatch" d="M-5,-5h10v10h-10Z" style="fill: rgb(122, 66, 15);"/><text class="label" transform="translate(0,&#10;          23)" style="text-anchor: middle; font-family: Balto;"><tspan x="0" dy="0em">protocol</tspan></text></g></g><text class="legendTitle" style="font-family: Balto;">amidst</text></g></g></svg>