<svg xmlns="http://www.w3.org/2000/svg" width="400" height="400"><g transform="translate(200, 200)"><text x="-74" y="-170" text-anchor="center" style="font-family: sans-serif; font-size: 25px; font-weight: bold; fill: rgb(0, 0, 0);">Lead Bicycle</text><path d="M-24.077736040944203,-65.72870474262076A70,70,0,0,1,-11.23179490624302,-69.09302991752564L0,0Z" fill="#c2178f" stroke="black" style="stroke-width: 2px;"/><path d="M-69.5483854846607,-7.938644498718746A70,70,0,0,1,-61.586942786792235,-33.272338032912266L0,0Z" fill="#cbaa6b" stroke="black" style="stroke-width: 2px;"/><path d="M-6.7577927443087225,69.67303809383489A70,70,0,0,1,-58.350880868301346,38.66748895252062L0,0Z" fill="#0a607c" stroke="black" style="stroke-width: 2px;"/><path d="M63.99317907655333,-28.370284307284912A70,70,0,0,1,53.96921532457702,44.57941001459576L0,0Z" fill="#eeef78" stroke="black" style="stroke-width: 2px;"/><path d="M4.2862637970157365e-15,-70A70,70,0,0,1,63.99317907655333,-28.370284307284912L0,0Z" fill="#77a50a" stroke="black" style="stroke-width: 2px;"/><path d="M53.96921532457702,44.57941001459576A70,70,0,0,1,-6.7577927443087225,69.67303809383489L0,0Z" fill="#4ca002" stroke="black" style="stroke-width: 2px;"/><path d="M-36.362053839917955,-59.81472260692101A70,70,0,0,1,-24.077736040944203,-65.72870474262076L0,0Z" fill="#fc3bd3" stroke="black" style="stroke-width: 2px;"/><path d="M-61.586942786792235,-33.272338032912266A70,70,0,0,1,-47.963289813702346,-50.98551588683591L0,0Z" fill="#8a2445" stroke="black" style="stroke-width: 2px;"/><path d="M-47.963289813702346,-50.98551588683591A70,70,0,0,1,-36.362053839917955,-59.81472260692101L0,0Z" fill="#e04b83" stroke="black" style="stroke-width: 2px;"/><path d="M-58.350880868301346,38.66748895252062A70,70,0,0,1,-69.5483854846607,-7.938644498718746L0,0Z" fill="#abccad" stroke="black" style="stroke-width: 2px;"/><path d="M-11.23179490624302,-69.09302991752564A70,70,0,0,1,-1.2858791391047208e-14,-70L0,0Z" fill="#dfc8b1" stroke="black" style="stroke-width: 2px;"/><text transform="translate(-22.168404279028827, -84.64521162901973)" fill="#c2178f" style="text-anchor: middle; font-size: 11px;">112</text><text transform="translate(-83.47499239327365, -26.233102083873078)" fill="#cbaa6b" style="text-anchor: middle; font-size: 11px;">225</text><text transform="translate(-45.07148600222068, 74.9987409864434)" fill="#0a607c" style="text-anchor: middle; font-size: 11px;">524</text><text transform="translate(86.68545958869338, 11.911385137632298)" fill="#eeef78" style="text-anchor: middle; font-size: 11px;">653</text><text transform="translate(47.71399246495054, -73.3459264244078)" fill="#77a50a" style="text-anchor: middle; font-size: 11px;">680</text><text transform="translate(33.416223325513094, 80.86783055492113)" fill="#4ca002" style="text-anchor: middle; font-size: 11px;">576</text><text transform="translate(-37.95527479782196, -78.8393754098916)" fill="#fc3bd3" style="text-anchor: middle; font-size: 11px;">115</text><text transform="translate(-69.3581345842766, -53.345095060271234)" fill="#8a2445" style="text-anchor: middle; font-size: 11px;">189</text><text transform="translate(-52.99144415613523, -69.62870705569077)" fill="#e04b83" style="text-anchor: middle; font-size: 11px;">123</text><text transform="translate(-85.07890181899869, 20.44090177250458)" fill="#abccad" style="text-anchor: middle; font-size: 11px;">412</text><text transform="translate(-7.042721518370337, -87.21611131903717)" fill="#dfc8b1" style="text-anchor: middle; font-size: 11px;">95</text><g class="legendOrdinal" transform="translate(-150, -74.33333333333334)"><g class="legendCells" transform="translate(5,15.333333969116211)"><g class="cell" transform="translate(0, 0)"><path class="swatch" d="M-5,-5h10v10h-10Z" style="fill: rgb(194, 23, 143);"/><text class="label" transform="translate( 15, 5)" style="font-family: sans-serif;"><tspan x="0" dy="0em">Automotive</tspan></text></g><g class="cell" transform="translate(0, 25.33333396911621)"><path class="swatch" d="M-5,-5h10v10h-10Z" style="fill: rgb(203, 170, 107);"/><text class="label" transform="translate( 15, 5)" style="font-family: sans-serif;"><tspan x="0" dy="0em">protocol</tspan></text></g><g class="cell" transform="translate(0, 50.66666793823242)"><path class="swatch" d="M-5,-5h10v10h-10Z" style="fill: rgb(10, 96, 124);"/><text class="label" transform="translate( 15, 5)" style="font-family: sans-serif;"><tspan x="0" dy="0em">Northwest</tspan></text></g><g class="cell" transform="translate(0, 76.00000190734863)"><path class="swatch" d="M-5,-5h10v10h-10Z" style="fill: rgb(238, 239, 120);"/><text class="label" transform="translate( 15, 5)" style="font-family: sans-serif;"><tspan x="0" dy="0em">an</tspan></text></g><g class="cell" transform="translate(0, 101.33333587646484)"><path class="swatch" d="M-5,-5h10v10h-10Z" style="fill: rgb(119, 165, 10);"/><text class="label" transform="translate( 15, 5)" style="font-family: sans-serif;"><tspan x="0" dy="0em">Genderflux</tspan></text></g><g class="cell" transform="translate(0, 126.66666984558105)"><path class="swatch" d="M-5,-5h10v10h-10Z" style="fill: rgb(76, 160, 2);"/><text class="label" transform="translate( 15, 5)" style="font-family: sans-serif;"><tspan x="0" dy="0em">orange</tspan></text></g><g class="cell" transform="translate(0, 152.00000381469727)"><path class="swatch" d="M-5,-5h10v10h-10Z" style="fill: rgb(252, 59, 211);"/><text class="label" transform="translate( 15, 5)" style="font-family: sans-serif;"><tspan x="0" dy="0em">bluetooth</tspan></text></g><g class="cell" transform="translate(0, 177.33333778381348)"><path class="swatch" d="M-5,-5h10v10h-10Z" style="fill: rgb(138, 36, 69);"/><text class="label" transform="translate( 15, 5)" style="font-family: sans-serif;"><tspan x="0" dy="0em">Latin</tspan></text></g><g class="cell" transform="translate(0, 202.6666717529297)"><path class="swatch" d="M-5,-5h10v10h-10Z" style="fill: rgb(224, 75, 131);"/><text class="label" transform="translate( 15, 5)" style="font-family: sans-serif;"><tspan x="0" dy="0em">garden</tspan></text></g><g class="cell" transform="translate(0, 228.0000057220459)"><path class="swatch" d="M-5,-5h10v10h-10Z" style="fill: rgb(171, 204, 173);"/><text class="label" transform="translate( 15, 5)" style="font-family: sans-serif;"><tspan x="0" dy="0em">tenetur</tspan></text></g><g class="cell" transform="translate(0, 253.3333396911621)"><path class="swatch" d="M-5,-5h10v10h-10Z" style="fill: rgb(223, 200, 177);"/><text class="label" transform="translate( 15, 5)" style="font-family: sans-serif;"><tspan x="0" dy="0em">synthesize</tspan></text></g></g><text class="legendTitle" style="font-family: sans-serif;">Lead</text></g></g></svg>