<svg xmlns="http://www.w3.org/2000/svg" width="400" height="400"><g transform="translate(200, 200)"><text x="15" y="-170" text-anchor="center" style="font-family: serif; font-size: 25px; font-weight: bold; fill: rgb(0, 0, 0);">Direct</text><path d="M-68.96105531367803,-12.015525374441118A70,70,0,0,1,-44.55860730090598,-53.98639194652341L-33.100679709244446,-40.10417687456025A52,52,0,0,0,-51.228212518732256,-8.92581884958483Z" fill="#91dc71" stroke="white" style="stroke-width: 2px;"/><path d="M-57.858985026983724,39.39971892853137A70,70,0,0,1,-68.96105531367803,-12.015525374441118L-51.228212518732256,-8.92581884958483A52,52,0,0,0,-42.98096030575934,29.268362632623305Z" fill="#64bc0b" stroke="white" style="stroke-width: 2px;"/><path d="M-0.2555618793931657,-69.99953348505832A70,70,0,0,1,-7.503128077005597e-14,-70L-5.5737522857755866e-14,-52A52,52,0,0,0,-0.1898459675492088,-51.999653446043325Z" fill="#cbeecf" stroke="white" style="stroke-width: 2px;"/><path d="M4.2862637970157365e-15,-70A70,70,0,0,1,64.89542111820732,-26.24089018860698L48.20802711638259,-19.493232711536614A52,52,0,0,0,3.184081677783118e-15,-52Z" fill="#fef0aa" stroke="white" style="stroke-width: 2px;"/><path d="M-44.55860730090598,-53.98639194652341A70,70,0,0,1,-1.2777412702417712,-69.98833743736395L-0.9491792293224587,-51.991336382041794A52,52,0,0,0,-33.100679709244446,-40.10417687456025Z" fill="#f64d0d" stroke="white" style="stroke-width: 2px;"/><path d="M54.830486175551904,43.51571883529688A70,70,0,0,1,-4.4693007540868654,69.85717823366127L-3.320051988750243,51.89390383071981A52,52,0,0,0,40.73121830183855,32.3259625633634Z" fill="#de7f69" stroke="white" style="stroke-width: 2px;"/><path d="M-1.2777412702417712,-69.98833743736395A70,70,0,0,1,-0.2555618793931657,-69.99953348505832L-0.1898459675492088,-51.999653446043325A52,52,0,0,0,-0.9491792293224587,-51.991336382041794Z" fill="#df9a27" stroke="white" style="stroke-width: 2px;"/><path d="M64.89542111820732,-26.24089018860698A70,70,0,0,1,54.830486175551904,43.51571883529688L40.73121830183855,32.3259625633634A52,52,0,0,0,48.20802711638259,-19.493232711536614Z" fill="#cc68de" stroke="white" style="stroke-width: 2px;"/><path d="M-4.4693007540868654,69.85717823366127A70,70,0,0,1,-57.858985026983724,39.39971892853137L-42.98096030575934,29.268362632623305A52,52,0,0,0,-3.320051988750243,51.89390383071981Z" fill="#a4f0a8" stroke="white" style="stroke-width: 2px;"/><text transform="translate(-73.82831648340606, -42.92481432954641)" fill="#91dc71" style="text-anchor: middle; font-size: 12px;">194</text><text transform="translate(-83.4761096187986, 18.02495833310904)" fill="#64bc0b" style="text-anchor: middle; font-size: 12px;">211</text><text transform="translate(-0.15589300616733356, -85.39985771282424)" fill="#cbeecf" style="text-anchor: middle; font-size: 12px;">1</text><text transform="translate(47.74502137935124, -70.80658820678548)" fill="#fef0aa" style="text-anchor: middle; font-size: 12px;">325</text><text transform="translate(-29.615064075008288, -80.10061160711042)" fill="#f64d0d" style="text-anchor: middle; font-size: 12px;">184</text><text transform="translate(34.6688361906804, 78.04634390657752)" fill="#de7f69" style="text-anchor: middle; font-size: 12px;">264</text><text transform="translate(-0.9353398554809367, -85.39487771145731)" fill="#df9a27" style="text-anchor: middle; font-size: 12px;">4</text><text transform="translate(84.5246899611815, 12.195769224044211)" fill="#cc68de" style="text-anchor: middle; font-size: 12px;">289</text><text transform="translate(-42.31690967562851, 74.17842783117405)" fill="#a4f0a8" style="text-anchor: middle; font-size: 12px;">249</text><g class="legendOrdinal" transform="translate(-150, -41.33333333333334)"><g class="legendCells" transform="translate(5,15.333333969116211)"><g class="cell" transform="translate(0, 0)"><path class="swatch" d="M-5,-5h10v10h-10Z" style="fill: rgb(145, 220, 113);"/><text class="label" transform="translate( 15, 5)" style="font-family: serif;"><tspan x="0" dy="0em">payment</tspan></text></g><g class="cell" transform="translate(0, 25.33333396911621)"><path class="swatch" d="M-5,-5h10v10h-10Z" style="fill: rgb(100, 188, 11);"/><text class="label" transform="translate( 15, 5)" style="font-family: serif;"><tspan x="0" dy="0em">yellow</tspan></text></g><g class="cell" transform="translate(0, 50.66666793823242)"><path class="swatch" d="M-5,-5h10v10h-10Z" style="fill: rgb(203, 238, 207);"/><text class="label" transform="translate( 15, 5)" style="font-family: serif;"><tspan x="0" dy="0em">gold</tspan></text></g><g class="cell" transform="translate(0, 76.00000190734863)"><path class="swatch" d="M-5,-5h10v10h-10Z" style="fill: rgb(254, 240, 170);"/><text class="label" transform="translate( 15, 5)" style="font-family: serif;"><tspan x="0" dy="0em">harness</tspan></text></g><g class="cell" transform="translate(0, 101.33333587646484)"><path class="swatch" d="M-5,-5h10v10h-10Z" style="fill: rgb(246, 77, 13);"/><text class="label" transform="translate( 15, 5)" style="font-family: serif;"><tspan x="0" dy="0em">Southwest</tspan></text></g><g class="cell" transform="translate(0, 126.66666984558105)"><path class="swatch" d="M-5,-5h10v10h-10Z" style="fill: rgb(222, 127, 105);"/><text class="label" transform="translate( 15, 5)" style="font-family: serif;"><tspan x="0" dy="0em">lest</tspan></text></g><g class="cell" transform="translate(0, 152.00000381469727)"><path class="swatch" d="M-5,-5h10v10h-10Z" style="fill: rgb(223, 154, 39);"/><text class="label" transform="translate( 15, 5)" style="font-family: serif;"><tspan x="0" dy="0em">revolutionize</tspan></text></g><g class="cell" transform="translate(0, 177.33333778381348)"><path class="swatch" d="M-5,-5h10v10h-10Z" style="fill: rgb(204, 104, 222);"/><text class="label" transform="translate( 15, 5)" style="font-family: serif;"><tspan x="0" dy="0em">Nissan</tspan></text></g><g class="cell" transform="translate(0, 202.6666717529297)"><path class="swatch" d="M-5,-5h10v10h-10Z" style="fill: rgb(164, 240, 168);"/><text class="label" transform="translate( 15, 5)" style="font-family: serif;"><tspan x="0" dy="0em">Lakeville</tspan></text></g></g><text class="legendTitle" style="font-family: serif;">Electronics</text></g></g></svg>