<svg xmlns="http://www.w3.org/2000/svg" width="400" height="400"><g transform="translate(200, 200)"><text x="3" y="-170" text-anchor="center" style="font-family: avenir; font-size: 25px; font-weight: bold; fill: rgb(0, 0, 0);">Coordinator female</text><path d="M48.19942619402939,50.76234150003636A70,70,0,0,1,-69.98957168285945,-1.208244863377234L0,0Z" fill="#3b2b8c" stroke="white" style="stroke-width: 2px;"/><path d="M-69.98957168285945,-1.208244863377234A70,70,0,0,1,-38.76424228323728,-58.28664958810447L0,0Z" fill="#49cb2e" stroke="white" style="stroke-width: 2px;"/><path d="M4.2862637970157365e-15,-70A70,70,0,0,1,48.19942619402939,50.76234150003636L0,0Z" fill="#4267fd" stroke="white" style="stroke-width: 2px;"/><path d="M-38.76424228323728,-58.28664958810447A70,70,0,0,1,4.9313697987961557e-14,-70L0,0Z" fill="#984a55" stroke="white" style="stroke-width: 2px;"/><text transform="translate(-35.22113338974719, 80.09820074596954)" fill="#3b2b8c" style="text-anchor: middle; font-size: 8px;">68</text><text transform="translate(-76.76398574245117, -41.99452932148132)" fill="#49cb2e" style="text-anchor: middle; font-size: 8px;">28</text><text transform="translate(81.26617101096394, -32.4354659164434)" fill="#4267fd" style="text-anchor: middle; font-size: 8px;">69</text><text transform="translate(-25.309560459449617, -83.75963317344139)" fill="#984a55" style="text-anchor: middle; font-size: 8px;">17</text><g class="legendOrdinal" transform="translate(-41, 130)"><g class="legendCells" transform="translate(22.95833396911621,15.333333969116211)"><g class="cell" transform="translate(0,0)"><path class="swatch" d="M-5,-5h10v10h-10Z" style="fill: rgb(59, 43, 140);"/><text class="label" transform="translate(0,&#10;          23)" style="text-anchor: middle; font-family: avenir;"><tspan x="0" dy="0em">Granite</tspan></text></g><g class="cell" transform="translate(50,0)"><path class="swatch" d="M-5,-5h10v10h-10Z" style="fill: rgb(73, 203, 46);"/><text class="label" transform="translate(0,&#10;          23)" style="text-anchor: middle; font-family: avenir;"><tspan x="0" dy="0em">Palladium</tspan></text></g><g class="cell" transform="translate(100,0)"><path class="swatch" d="M-5,-5h10v10h-10Z" style="fill: rgb(66, 103, 253);"/><text class="label" transform="translate(0,&#10;          23)" style="text-anchor: middle; font-family: avenir;"><tspan x="0" dy="0em">Berkshire</tspan></text></g><g class="cell" transform="translate(150,0)"><path class="swatch" d="M-5,-5h10v10h-10Z" style="fill: rgb(152, 74, 85);"/><text class="label" transform="translate(0,&#10;          23)" style="text-anchor: middle; font-family: avenir;"><tspan x="0" dy="0em">chives</tspan></text></g></g><text class="legendTitle" style="font-family: avenir;">aha</text></g></g></svg>