<svg xmlns="http://www.w3.org/2000/svg" width="400" height="400"><g transform="translate(200, 200)"><text x="-18" y="-170" text-anchor="center" style="font-family: serif; font-size: 25px; font-weight: bold; fill: rgb(0, 0, 0);">woman vel</text><path d="M1.1346844916934686,69.99080290369807A70,70,0,0,1,-53.889606340932595,44.6756122332903L-32.33376380455955,26.805367339974183A42,42,0,0,0,0.6808106950160812,41.994481742218845Z" fill="#9a9241" stroke="white" style="stroke-width: 0;"/><path d="M-9.951827805258588,-69.28896826576711A70,70,0,0,1,-4.5357567789857045,-69.8528947892776L-2.721454067391423,-41.911736873566554A42,42,0,0,0,-5.971096683155153,-41.573380959460266Z" fill="#fcedea" stroke="white" style="stroke-width: 0;"/><path d="M-59.093224461538185,-37.52320379096467A70,70,0,0,1,-40.813781988693904,-56.87033672996287L-24.488269193216343,-34.12220203797773A42,42,0,0,0,-35.45593467692291,-22.5139222745788Z" fill="#5e7e5b" stroke="white" style="stroke-width: 0;"/><path d="M-40.813781988693904,-56.87033672996287A70,70,0,0,1,-22.7289628443278,-66.20720691904444L-13.637377706596679,-39.724324151426664A42,42,0,0,0,-24.488269193216343,-34.12220203797773Z" fill="#becfcf" stroke="white" style="stroke-width: 0;"/><path d="M59.69370319502529,36.560385649829065A70,70,0,0,1,1.1346844916934686,69.99080290369807L0.6808106950160812,41.994481742218845A42,42,0,0,0,35.81622191701518,21.936231389897436Z" fill="#89b714" stroke="white" style="stroke-width: 0;"/><path d="M4.2862637970157365e-15,-70A70,70,0,0,1,62.457796703287585,-31.60733508176226L37.47467802197255,-18.964401049057354A42,42,0,0,0,2.5717582782094417e-15,-42Z" fill="#edb72c" stroke="white" style="stroke-width: 0;"/><path d="M-69.65804732427004,-6.910603661747273A70,70,0,0,1,-59.093224461538185,-37.52320379096467L-35.45593467692291,-22.5139222745788A42,42,0,0,0,-41.794828394562025,-4.146362197048364Z" fill="#e7c10f" stroke="white" style="stroke-width: 0;"/><path d="M62.457796703287585,-31.60733508176226A70,70,0,0,1,59.69370319502529,36.560385649829065L35.81622191701518,21.936231389897436A42,42,0,0,0,37.47467802197255,-18.964401049057354Z" fill="#eee8bf" stroke="white" style="stroke-width: 0;"/><path d="M-4.5357567789857045,-69.8528947892776A70,70,0,0,1,-1.2858791391047208e-14,-70L-7.715274834628325e-15,-42A42,42,0,0,0,-2.721454067391423,-41.911736873566554Z" fill="#6f7c0a" stroke="white" style="stroke-width: 0;"/><path d="M-22.7289628443278,-66.20720691904444A70,70,0,0,1,-9.951827805258588,-69.28896826576711L-5.971096683155153,-41.573380959460266A42,42,0,0,0,-13.637377706596679,-39.724324151426664Z" fill="#9eeea2" stroke="white" style="stroke-width: 0;"/><path d="M-53.889606340932595,44.6756122332903A70,70,0,0,1,-69.65804732427004,-6.910603661747273L-41.794828394562025,-4.146362197048364A42,42,0,0,0,-32.33376380455955,26.805367339974183Z" fill="#da06fc" stroke="white" style="stroke-width: 0;"/><text transform="translate(-32.768091039123824, 71.22367731065064)" fill="#9a9241" style="text-anchor: middle; font-size: 12px;">138</text><text transform="translate(-8.119191246529136, -77.97845044306973)" fill="#fcedea" style="text-anchor: middle; font-size: 12px;">12</text><text transform="translate(-56.987316654820305, -53.84241581210152)" fill="#5e7e5b" style="text-anchor: middle; font-size: 12px;">59</text><text transform="translate(-35.96603025979004, -69.6635103002416)" fill="#becfcf" style="text-anchor: middle; font-size: 12px;">45</text><text transform="translate(38.86934765763631, 68.08622336912072)" fill="#89b714" style="text-anchor: middle; font-size: 12px;">155</text><text transform="translate(41.05595645664963, -66.79048165292484)" fill="#edb72c" style="text-anchor: middle; font-size: 12px;">170</text><text transform="translate(-74.110708209104, -25.576609015759782)" fill="#e7c10f" style="text-anchor: middle; font-size: 12px;">72</text><text transform="translate(78.33562772706641, 3.176386092159431)" fill="#eee8bf" style="text-anchor: middle; font-size: 12px;">157</text><text transform="translate(-2.5413593157120173, -78.35879971533792)" fill="#6f7c0a" style="text-anchor: middle; font-size: 12px;">10</text><text transform="translate(-18.382432516906096, -76.21447483753589)" fill="#9eeea2" style="text-anchor: middle; font-size: 12px;">29</text><text transform="translate(-74.97553134427868, 22.917890383782815)" fill="#da06fc" style="text-anchor: middle; font-size: 12px;">122</text><g class="legendOrdinal" transform="translate(-150, -109.33333333333334)"><g class="legendCells" transform="translate(5,15.333333969116211)"><g class="cell" transform="translate(0, 0)"><path class="swatch" d="M-5,-5h10v10h-10Z" style="fill: rgb(154, 146, 65);"/><text class="label" transform="translate( 15, 5)" style="font-family: serif;"><tspan x="0" dy="0em">Sierra</tspan></text></g><g class="cell" transform="translate(0, 25.33333396911621)"><path class="swatch" d="M-5,-5h10v10h-10Z" style="fill: rgb(252, 237, 234);"/><text class="label" transform="translate( 15, 5)" style="font-family: serif;"><tspan x="0" dy="0em">Franc</tspan></text></g><g class="cell" transform="translate(0, 50.66666793823242)"><path class="swatch" d="M-5,-5h10v10h-10Z" style="fill: rgb(94, 126, 91);"/><text class="label" transform="translate( 15, 5)" style="font-family: serif;"><tspan x="0" dy="0em">brr</tspan></text></g><g class="cell" transform="translate(0, 76.00000190734863)"><path class="swatch" d="M-5,-5h10v10h-10Z" style="fill: rgb(190, 207, 207);"/><text class="label" transform="translate( 15, 5)" style="font-family: serif;"><tspan x="0" dy="0em">application</tspan></text></g><g class="cell" transform="translate(0, 101.33333587646484)"><path class="swatch" d="M-5,-5h10v10h-10Z" style="fill: rgb(137, 183, 20);"/><text class="label" transform="translate( 15, 5)" style="font-family: serif;"><tspan x="0" dy="0em">Latin</tspan></text></g><g class="cell" transform="translate(0, 126.66666984558105)"><path class="swatch" d="M-5,-5h10v10h-10Z" style="fill: rgb(237, 183, 44);"/><text class="label" transform="translate( 15, 5)" style="font-family: serif;"><tspan x="0" dy="0em">synthesizing</tspan></text></g><g class="cell" transform="translate(0, 152.00000381469727)"><path class="swatch" d="M-5,-5h10v10h-10Z" style="fill: rgb(231, 193, 15);"/><text class="label" transform="translate( 15, 5)" style="font-family: serif;"><tspan x="0" dy="0em">port</tspan></text></g><g class="cell" transform="translate(0, 177.33333778381348)"><path class="swatch" d="M-5,-5h10v10h-10Z" style="fill: rgb(238, 232, 191);"/><text class="label" transform="translate( 15, 5)" style="font-family: serif;"><tspan x="0" dy="0em">colossal</tspan></text></g><g class="cell" transform="translate(0, 202.6666717529297)"><path class="swatch" d="M-5,-5h10v10h-10Z" style="fill: rgb(111, 124, 10);"/><text class="label" transform="translate( 15, 5)" style="font-family: serif;"><tspan x="0" dy="0em">payment</tspan></text></g><g class="cell" transform="translate(0, 228.0000057220459)"><path class="swatch" d="M-5,-5h10v10h-10Z" style="fill: rgb(158, 238, 162);"/><text class="label" transform="translate( 15, 5)" style="font-family: serif;"><tspan x="0" dy="0em">Steel</tspan></text></g><g class="cell" transform="translate(0, 253.3333396911621)"><path class="swatch" d="M-5,-5h10v10h-10Z" style="fill: rgb(218, 6, 252);"/><text class="label" transform="translate( 15, 5)" style="font-family: serif;"><tspan x="0" dy="0em">Lead</tspan></text></g></g><text class="legendTitle" style="font-family: serif;">communities</text></g></g></svg>