<svg xmlns="http://www.w3.org/2000/svg" width="400" height="400"><g transform="translate(200, 200)"><text x="-38" y="-170" text-anchor="center" style="font-family: serif; font-size: 25px; font-weight: bold; fill: rgb(0, 0, 0);">morph hub</text><path d="M-53.70398429696903,44.898575374179785A70,70,0,0,1,-68.45458006768995,-14.627729412189282L0,0Z" fill="#b8b9ed" stroke="white" style="stroke-width: 2px;"/><path d="M6.790689699825371,69.66983948166298A70,70,0,0,1,-53.70398429696903,44.898575374179785L0,0Z" fill="#a7ebce" stroke="white" style="stroke-width: 2px;"/><path d="M-42.237617392804694,-55.82099673939048A70,70,0,0,1,-26.525802228401428,-64.77948607498931L0,0Z" fill="#f77af6" stroke="white" style="stroke-width: 2px;"/><path d="M4.2862637970157365e-15,-70A70,70,0,0,1,69.91741114957135,3.3993555480113766L0,0Z" fill="#b01a58" stroke="white" style="stroke-width: 2px;"/><path d="M-68.45458006768995,-14.627729412189282A70,70,0,0,1,-42.237617392804694,-55.82099673939048L0,0Z" fill="#4edffd" stroke="white" style="stroke-width: 2px;"/><path d="M-9.0431696176784,-69.41340708584977A70,70,0,0,1,4.9313697987961557e-14,-70L0,0Z" fill="#86a3be" stroke="white" style="stroke-width: 2px;"/><path d="M69.91741114957135,3.3993555480113766A70,70,0,0,1,6.790689699825371,69.66983948166298L0,0Z" fill="#ec0d84" stroke="white" style="stroke-width: 2px;"/><path d="M-26.525802228401428,-64.77948607498931A70,70,0,0,1,-9.0431696176784,-69.41340708584977L0,0Z" fill="#7af672" stroke="white" style="stroke-width: 2px;"/><text transform="translate(-84.93125852977143, 21.04593368204717)" fill="#b8b9ed" style="text-anchor: middle; font-size: 11px;">14</text><text transform="translate(-33.15725278550184, 80.97435759373661)" fill="#a7ebce" style="text-anchor: middle; font-size: 11px;">15</text><text transform="translate(-43.34032479787386, -76.01227694533824)" fill="#f77af6" style="text-anchor: middle; font-size: 11px;">4</text><text transform="translate(63.356351351161884, -60.35083051183412)" fill="#b01a58" style="text-anchor: middle; font-size: 11px;">25</text><text transform="translate(-73.81789208640038, -46.98051519428611)" fill="#4edffd" style="text-anchor: middle; font-size: 11px;">11</text><text transform="translate(-5.663859107763067, -87.31649729579978)" fill="#86a3be" style="text-anchor: middle; font-size: 11px;">2</text><text transform="translate(63.35635135116189, 60.3508305118341)" fill="#ec0d84" style="text-anchor: middle; font-size: 11px;">22</text><text transform="translate(-22.41847192922503, -84.5793244023535)" fill="#7af672" style="text-anchor: middle; font-size: 11px;">4</text><g class="legendOrdinal" transform="translate(-124, 130)"><g class="legendCells" transform="translate(23.625,15.333333969116211)"><g class="cell" transform="translate(0,0)"><path class="swatch" d="M-5,-5h10v10h-10Z" style="fill: rgb(184, 185, 237);"/><text class="label" transform="translate(0,&#10;          23)" style="text-anchor: middle; font-family: serif;"><tspan x="0" dy="0em">Analyst</tspan></text></g><g class="cell" transform="translate(50,0)"><path class="swatch" d="M-5,-5h10v10h-10Z" style="fill: rgb(167, 235, 206);"/><text class="label" transform="translate(0,&#10;          23)" style="text-anchor: middle; font-family: serif;"><tspan x="0" dy="0em">steradian</tspan></text></g><g class="cell" transform="translate(100,0)"><path class="swatch" d="M-5,-5h10v10h-10Z" style="fill: rgb(247, 122, 246);"/><text class="label" transform="translate(0,&#10;          23)" style="text-anchor: middle; font-family: serif;"><tspan x="0" dy="0em">Buckinghamshire</tspan></text></g><g class="cell" transform="translate(150,0)"><path class="swatch" d="M-5,-5h10v10h-10Z" style="fill: rgb(176, 26, 88);"/><text class="label" transform="translate(0,&#10;          23)" style="text-anchor: middle; font-family: serif;"><tspan x="0" dy="0em">lime</tspan></text></g><g class="cell" transform="translate(200,0)"><path class="swatch" d="M-5,-5h10v10h-10Z" style="fill: rgb(78, 223, 253);"/><text class="label" transform="translate(0,&#10;          23)" style="text-anchor: middle; font-family: serif;"><tspan x="0" dy="0em">quantifying</tspan></text></g><g class="cell" transform="translate(250,0)"><path class="swatch" d="M-5,-5h10v10h-10Z" style="fill: rgb(134, 163, 190);"/><text class="label" transform="translate(0,&#10;          23)" style="text-anchor: middle; font-family: serif;"><tspan x="0" dy="0em">override</tspan></text></g><g class="cell" transform="translate(300,0)"><path class="swatch" d="M-5,-5h10v10h-10Z" style="fill: rgb(236, 13, 132);"/><text class="label" transform="translate(0,&#10;          23)" style="text-anchor: middle; font-family: serif;"><tspan x="0" dy="0em">Senior</tspan></text></g><g class="cell" transform="translate(350,0)"><path class="swatch" d="M-5,-5h10v10h-10Z" style="fill: rgb(122, 246, 114);"/><text class="label" transform="translate(0,&#10;          23)" style="text-anchor: middle; font-family: serif;"><tspan x="0" dy="0em">Hop</tspan></text></g></g><text class="legendTitle" style="font-family: serif;">Connecticut</text></g></g></svg>