<svg xmlns="http://www.w3.org/2000/svg" width="400" height="400"><g transform="translate(200, 200)"><text x="-63" y="-170" text-anchor="center" style="font-family: sans-serif; font-size: 25px; font-weight: bold; fill: rgb(0, 0, 0);">grandfather Sedan</text><path d="M-0.9320828996888185,-69.99379416396934A70,70,0,0,1,-1.2858791391047208e-14,-70L-6.429395695523604e-15,-35A35,35,0,0,0,-0.46604144984440926,-34.99689708198467Z" fill="#4b4335" stroke="white" style="stroke-width: 2px;"/><path d="M-69.61374386403723,7.343477734167817A70,70,0,0,1,-57.29286717575143,-40.21849538187256L-28.646433587875716,-20.10924769093628A35,35,0,0,0,-34.806871932018616,3.6717388670839086Z" fill="#d56fde" stroke="white" style="stroke-width: 2px;"/><path d="M68.69285674256524,-13.464450696014616A70,70,0,0,1,41.596105577393516,56.300657196824375L20.798052788696758,28.150328598412187A35,35,0,0,0,34.34642837128262,-6.732225348007308Z" fill="#1c1f8f" stroke="white" style="stroke-width: 2px;"/><path d="M-57.29286717575143,-40.21849538187256A70,70,0,0,1,-26.73400863464654,-64.69383882814996L-13.36700431732327,-32.34691941407498A35,35,0,0,0,-28.646433587875716,-20.10924769093628Z" fill="#7af5fe" stroke="white" style="stroke-width: 2px;"/><path d="M41.596105577393516,56.300657196824375A70,70,0,0,1,-29.959886856446914,63.26456495976954L-14.979943428223457,31.63228247988477A35,35,0,0,0,20.798052788696758,28.150328598412187Z" fill="#d5fafb" stroke="white" style="stroke-width: 2px;"/><path d="M-29.959886856446914,63.26456495976954A70,70,0,0,1,-69.61374386403723,7.343477734167817L-34.806871932018616,3.6717388670839086A35,35,0,0,0,-14.979943428223457,31.63228247988477Z" fill="#c5db50" stroke="white" style="stroke-width: 2px;"/><path d="M4.2862637970157365e-15,-70A70,70,0,0,1,68.69285674256524,-13.464450696014616L34.34642837128262,-6.732225348007308A35,35,0,0,0,2.1431318985078682e-15,-35Z" fill="#60bbf3" stroke="white" style="stroke-width: 2px;"/><path d="M-26.73400863464654,-64.69383882814996A70,70,0,0,1,-0.9320828996888185,-69.99379416396934L-0.46604144984440926,-34.99689708198467A35,35,0,0,0,-13.36700431732327,-32.34691941407498Z" fill="#ba2e7b" stroke="white" style="stroke-width: 2px;"/><text transform="translate(-0.4893543683602668, -73.49837094998887)" fill="#4b4335" style="text-anchor: middle; font-size: 8px;">7</text><text transform="translate(-71.15140670878442, -18.43169344800274)" fill="#d56fde" style="text-anchor: middle; font-size: 8px;">377</text><text transform="translate(68.51365758286136, 26.610688165066748)" fill="#1c1f8f" style="text-anchor: middle; font-size: 8px;">593</text><text transform="translate(-45.947423813894005, -57.367972291744856)" fill="#7af5fe" style="text-anchor: middle; font-size: 8px;">298</text><text transform="translate(7.1194645372984295, 73.15437939523613)" fill="#d5fafb" style="text-anchor: middle; font-size: 8px;">567</text><text transform="translate(-59.95600202297587, 42.515030535340244)" fill="#c5db50" style="text-anchor: middle; font-size: 8px;">538</text><text transform="translate(46.70723186796168, -56.751074802442844)" fill="#60bbf3" style="text-anchor: middle; font-size: 8px;">724</text><text transform="translate(-14.788814332554374, -71.99681222552312)" fill="#ba2e7b" style="text-anchor: middle; font-size: 8px;">199</text><g class="legendOrdinal" transform="translate(-186, 130)"><g class="legendCells"><g class="cell" transform="translate(0,0)"><path class="swatch" d="M-5,-5h10v10h-10Z" style="fill: rgb(75, 67, 53);"/><text class="label" transform="translate(0,&#10;          23)" style="text-anchor: middle; font-family: sans-serif;"><tspan x="0" dy="0em">mesh</tspan></text></g><g class="cell" transform="translate(50,0)"><path class="swatch" d="M-5,-5h10v10h-10Z" style="fill: rgb(213, 111, 222);"/><text class="label" transform="translate(0,&#10;          23)" style="text-anchor: middle; font-family: sans-serif;"><tspan x="0" dy="0em">teal</tspan></text></g><g class="cell" transform="translate(100,0)"><path class="swatch" d="M-5,-5h10v10h-10Z" style="fill: rgb(28, 31, 143);"/><text class="label" transform="translate(0,&#10;          23)" style="text-anchor: middle; font-family: sans-serif;"><tspan x="0" dy="0em">Keyboard</tspan></text></g><g class="cell" transform="translate(150,0)"><path class="swatch" d="M-5,-5h10v10h-10Z" style="fill: rgb(122, 245, 254);"/><text class="label" transform="translate(0,&#10;          23)" style="text-anchor: middle; font-family: sans-serif;"><tspan x="0" dy="0em">Money</tspan></text></g><g class="cell" transform="translate(200,0)"><path class="swatch" d="M-5,-5h10v10h-10Z" style="fill: rgb(213, 250, 251);"/><text class="label" transform="translate(0,&#10;          23)" style="text-anchor: middle; font-family: sans-serif;"><tspan x="0" dy="0em">channels</tspan></text></g><g class="cell" transform="translate(250,0)"><path class="swatch" d="M-5,-5h10v10h-10Z" style="fill: rgb(197, 219, 80);"/><text class="label" transform="translate(0,&#10;          23)" style="text-anchor: middle; font-family: sans-serif;"><tspan x="0" dy="0em">Lafayette</tspan></text></g><g class="cell" transform="translate(300,0)"><path class="swatch" d="M-5,-5h10v10h-10Z" style="fill: rgb(96, 187, 243);"/><text class="label" transform="translate(0,&#10;          23)" style="text-anchor: middle; font-family: sans-serif;"><tspan x="0" dy="0em">Rubber</tspan></text></g><g class="cell" transform="translate(350,0)"><path class="swatch" d="M-5,-5h10v10h-10Z" style="fill: rgb(186, 46, 123);"/><text class="label" transform="translate(0,&#10;          23)" style="text-anchor: middle; font-family: sans-serif;"><tspan x="0" dy="0em">Hybrid</tspan></text></g></g></g></g></svg>