<svg xmlns="http://www.w3.org/2000/svg" width="400" height="400"><g transform="translate(200, 200)"><text x="-72" y="-170" text-anchor="center" style="font-family: sans-serif; font-size: 25px; font-weight: bold; fill: rgb(0, 0, 0);">adapter Synchronised instead</text><path d="M68.6538170792848,-13.662115518619432A70,70,0,0,1,36.395448392506296,59.79440890508418L0,0Z" fill="#a93604" stroke="black" style="stroke-width: 2px;"/><path d="M-68.63530982493701,13.754789901518125A70,70,0,0,1,-61.28766699553858,-33.82043574887779L0,0Z" fill="#83c06a" stroke="black" style="stroke-width: 2px;"/><path d="M-61.28766699553858,-33.82043574887779A70,70,0,0,1,-40.42299135198586,-57.14876875451716L0,0Z" fill="#231c8a" stroke="black" style="stroke-width: 2px;"/><path d="M-20.305796492030694,-66.99010844015879A70,70,0,0,1,4.9313697987961557e-14,-70L0,0Z" fill="#ba8cdf" stroke="black" style="stroke-width: 2px;"/><path d="M36.395448392506296,59.79440890508418A70,70,0,0,1,-28.53486262627632,63.91996256960371L0,0Z" fill="#8a9ec7" stroke="black" style="stroke-width: 2px;"/><path d="M-40.42299135198586,-57.14876875451716A70,70,0,0,1,-20.305796492030694,-66.99010844015879L0,0Z" fill="#e1a6aa" stroke="black" style="stroke-width: 2px;"/><path d="M4.2862637970157365e-15,-70A70,70,0,0,1,68.6538170792848,-13.662115518619432L0,0Z" fill="#9ef02d" stroke="black" style="stroke-width: 2px;"/><path d="M-28.53486262627632,63.91996256960371A70,70,0,0,1,-68.63530982493701,13.754789901518125L0,0Z" fill="#1ffb85" stroke="black" style="stroke-width: 2px;"/><text transform="translate(80.1151738236043, 35.18250876804651)" fill="#a93604" style="text-anchor: middle; font-size: 9px;">452</text><text transform="translate(-86.47475697778606, -13.355388636533188)" fill="#83c06a" style="text-anchor: middle; font-size: 9px;">260</text><text transform="translate(-65.21978809160905, -58.332060149506205)" fill="#231c8a" style="text-anchor: middle; font-size: 9px;">167</text><text transform="translate(-12.82978739803647, -86.55429830644567)" fill="#ba8cdf" style="text-anchor: middle; font-size: 9px;">109</text><text transform="translate(5.548402135802809, 87.32390986287443)" fill="#8a9ec7" style="text-anchor: middle; font-size: 9px;">358</text><text transform="translate(-38.45064632813694, -78.59896816720007)" fill="#e1a6aa" style="text-anchor: middle; font-size: 9px;">119</text><text transform="translate(55.50655868972153, -67.64075651871806)" fill="#9ef02d" style="text-anchor: middle; font-size: 9px;">509</text><text transform="translate(-68.3470777168173, 54.63448514968669)" fill="#1ffb85" style="text-anchor: middle; font-size: 9px;">353</text><g class="legendOrdinal" transform="translate(130, -96.33333333333334)"><g class="legendCells"><g class="cell" transform="translate(0, 0)"><path class="swatch" d="M-5,-5h10v10h-10Z" style="fill: rgb(169, 54, 4);"/><text class="label" transform="translate( 15, 5)" style="font-family: sans-serif;"><tspan x="0" dy="0em">Maserati</tspan></text></g><g class="cell" transform="translate(0, 25.33333396911621)"><path class="swatch" d="M-5,-5h10v10h-10Z" style="fill: rgb(131, 192, 106);"/><text class="label" transform="translate( 15, 5)" style="font-family: sans-serif;"><tspan x="0" dy="0em">seize</tspan></text></g><g class="cell" transform="translate(0, 50.66666793823242)"><path class="swatch" d="M-5,-5h10v10h-10Z" style="fill: rgb(35, 28, 138);"/><text class="label" transform="translate( 15, 5)" style="font-family: sans-serif;"><tspan x="0" dy="0em">Xenogender</tspan></text></g><g class="cell" transform="translate(0, 76.00000190734863)"><path class="swatch" d="M-5,-5h10v10h-10Z" style="fill: rgb(186, 140, 223);"/><text class="label" transform="translate( 15, 5)" style="font-family: sans-serif;"><tspan x="0" dy="0em">scale</tspan></text></g><g class="cell" transform="translate(0, 101.33333587646484)"><path class="swatch" d="M-5,-5h10v10h-10Z" style="fill: rgb(138, 158, 199);"/><text class="label" transform="translate( 15, 5)" style="font-family: sans-serif;"><tspan x="0" dy="0em">West</tspan></text></g><g class="cell" transform="translate(0, 126.66666984558105)"><path class="swatch" d="M-5,-5h10v10h-10Z" style="fill: rgb(225, 166, 170);"/><text class="label" transform="translate( 15, 5)" style="font-family: sans-serif;"><tspan x="0" dy="0em">bypass</tspan></text></g><g class="cell" transform="translate(0, 152.00000381469727)"><path class="swatch" d="M-5,-5h10v10h-10Z" style="fill: rgb(158, 240, 45);"/><text class="label" transform="translate( 15, 5)" style="font-family: sans-serif;"><tspan x="0" dy="0em">Ivy</tspan></text></g><g class="cell" transform="translate(0, 177.33333778381348)"><path class="swatch" d="M-5,-5h10v10h-10Z" style="fill: rgb(31, 251, 133);"/><text class="label" transform="translate( 15, 5)" style="font-family: sans-serif;"><tspan x="0" dy="0em">Dodge</tspan></text></g></g></g></g></svg>