<svg xmlns="http://www.w3.org/2000/svg" width="400" height="400"><g transform="translate(200, 200)"><text x="-28" y="-170" text-anchor="center" style="font-family: monospace; font-size: 25px; font-weight: bold; fill: rgb(0, 0, 0);">overtake Touring West</text><path d="M-16.4552681762744,-68.0384020186166A70,70,0,0,1,4.9313697987961557e-14,-70L0,0Z" fill="#6d20bf" stroke="black" style="stroke-width: 2px;"/><path d="M69.13535709724172,10.968245029942906A70,70,0,0,1,40.61735280349768,57.01079416422998L0,0Z" fill="#3151ba" stroke="black" style="stroke-width: 2px;"/><path d="M40.61735280349768,57.01079416422998A70,70,0,0,1,-9.718277266354189,69.32211109721243L0,0Z" fill="#dbd1af" stroke="black" style="stroke-width: 2px;"/><path d="M-45.04121948266482,-53.584405824030696A70,70,0,0,1,-16.4552681762744,-68.0384020186166L0,0Z" fill="#bcbbce" stroke="black" style="stroke-width: 2px;"/><path d="M-64.75759848536173,-26.579191831368313A70,70,0,0,1,-45.04121948266482,-53.584405824030696L0,0Z" fill="#a4da3d" stroke="black" style="stroke-width: 2px;"/><path d="M4.2862637970157365e-15,-70A70,70,0,0,1,53.351343858934555,-45.31703993472794L0,0Z" fill="#cbc24c" stroke="black" style="stroke-width: 2px;"/><path d="M53.351343858934555,-45.31703993472794A70,70,0,0,1,69.13535709724172,10.968245029942906L0,0Z" fill="#00abaa" stroke="black" style="stroke-width: 2px;"/><path d="M-52.76249123301409,46.001299099983164A70,70,0,0,1,-69.60894652541968,7.388813410911328L0,0Z" fill="#ee02b6" stroke="black" style="stroke-width: 2px;"/><path d="M-9.718277266354189,69.32211109721243A70,70,0,0,1,-52.76249123301409,46.001299099983164L0,0Z" fill="#ee02b6" stroke="black" style="stroke-width: 2px;"/><path d="M-69.60894652541968,7.388813410911328A70,70,0,0,1,-64.75759848536173,-26.579191831368313L0,0Z" fill="#d76ea8" stroke="black" style="stroke-width: 2px;"/><text transform="translate(-10.357359200438317, -86.88483820778569)" fill="#6d20bf" style="text-anchor: middle; font-size: 8px;">92</text><text transform="translate(74.38700969564906, 46.074101060567784)" fill="#3151ba" style="text-anchor: middle; font-size: 8px;">308</text><text transform="translate(20.78838123577875, 84.99466574789223)" fill="#dbd1af" style="text-anchor: middle; font-size: 8px;">294</text><text transform="translate(-39.482670250986224, -78.08565008919301)" fill="#bcbbce" style="text-anchor: middle; font-size: 8px;">179</text><text transform="translate(-70.66940531547368, -51.59539855798481)" fill="#a4da3d" style="text-anchor: middle; font-size: 8px;">187</text><text transform="translate(36.74029638652315, -79.41284922120873)" fill="#cbc24c" style="text-anchor: middle; font-size: 8px;">336</text><text transform="translate(84.24996572394045, -23.626114270333577)" fill="#00abaa" style="text-anchor: middle; font-size: 8px;">334</text><text transform="translate(-80.1991973886229, 34.99055212797737)" fill="#ee02b6" style="text-anchor: middle; font-size: 8px;">237</text><text transform="translate(-41.68195570553509, 76.93415735914583)" fill="#ee02b6" style="text-anchor: middle; font-size: 8px;">277</text><text transform="translate(-86.62101767152552, -12.37130945168145)" fill="#d76ea8" style="text-anchor: middle; font-size: 8px;">192</text><g class="legendOrdinal" transform="translate(-150, -94.33333333333334)"><g class="legendCells"><g class="cell" transform="translate(0, 0)"><path class="swatch" d="M-5,-5h10v10h-10Z" style="fill: rgb(109, 32, 191);"/><text class="label" transform="translate( 15, 5)" style="font-family: monospace;"><tspan x="0" dy="0em">Practical</tspan></text></g><g class="cell" transform="translate(0, 25.33333396911621)"><path class="swatch" d="M-5,-5h10v10h-10Z" style="fill: rgb(49, 81, 186);"/><text class="label" transform="translate( 15, 5)" style="font-family: monospace;"><tspan x="0" dy="0em">program</tspan></text></g><g class="cell" transform="translate(0, 50.66666793823242)"><path class="swatch" d="M-5,-5h10v10h-10Z" style="fill: rgb(219, 209, 175);"/><text class="label" transform="translate( 15, 5)" style="font-family: monospace;"><tspan x="0" dy="0em">Sierra</tspan></text></g><g class="cell" transform="translate(0, 76.00000190734863)"><path class="swatch" d="M-5,-5h10v10h-10Z" style="fill: rgb(188, 187, 206);"/><text class="label" transform="translate( 15, 5)" style="font-family: monospace;"><tspan x="0" dy="0em">Home</tspan></text></g><g class="cell" transform="translate(0, 101.33333587646484)"><path class="swatch" d="M-5,-5h10v10h-10Z" style="fill: rgb(164, 218, 61);"/><text class="label" transform="translate( 15, 5)" style="font-family: monospace;"><tspan x="0" dy="0em">toolset</tspan></text></g><g class="cell" transform="translate(0, 126.66666984558105)"><path class="swatch" d="M-5,-5h10v10h-10Z" style="fill: rgb(203, 194, 76);"/><text class="label" transform="translate( 15, 5)" style="font-family: monospace;"><tspan x="0" dy="0em">drive</tspan></text></g><g class="cell" transform="translate(0, 152.00000381469727)"><path class="swatch" d="M-5,-5h10v10h-10Z" style="fill: rgb(0, 171, 170);"/><text class="label" transform="translate( 15, 5)" style="font-family: monospace;"><tspan x="0" dy="0em">experiences</tspan></text></g><g class="cell" transform="translate(0, 177.33333778381348)"><path class="swatch" d="M-5,-5h10v10h-10Z" style="fill: rgb(238, 2, 182);"/><text class="label" transform="translate( 15, 5)" style="font-family: monospace;"><tspan x="0" dy="0em">Indiana</tspan></text></g><g class="cell" transform="translate(0, 202.6666717529297)"><path class="swatch" d="M-5,-5h10v10h-10Z" style="fill: rgb(215, 110, 168);"/><text class="label" transform="translate( 15, 5)" style="font-family: monospace;"><tspan x="0" dy="0em">Assistant</tspan></text></g></g></g></g></svg>