<svg xmlns="http://www.w3.org/2000/svg" width="400" height="400"><g transform="translate(200, 200)"><text x="23" y="-170" text-anchor="center" style="font-family: sans-serif; font-size: 25px; font-weight: bold; fill: rgb(0, 0, 0);">Gottlieb</text><path d="M-60.282729653331565,-35.5807884334136A70,70,0,0,1,-1.2858791391047208e-14,-70L-5.878304635907295e-15,-32A32,32,0,0,0,-27.55781927009443,-16.26550328384622Z" fill="#cafa0b" stroke="white" style="stroke-width: 2px;"/><path d="M4.2862637970157365e-15,-70A70,70,0,1,1,-36.445796725363664,59.76373399523721L-16.66093564588053,27.32056411210844A32,32,0,1,0,1.959434878635765e-15,-32Z" fill="#ab1ec3" stroke="white" style="stroke-width: 2px;"/><path d="M-36.445796725363664,59.76373399523721A70,70,0,0,1,-60.282729653331565,-35.5807884334136L-27.55781927009443,-16.26550328384622A32,32,0,0,0,-16.66093564588053,27.32056411210844Z" fill="#20e830" stroke="white" style="stroke-width: 2px;"/><text transform="translate(-35.40255880562417, -62.00499036379509)" fill="#cafa0b" style="text-anchor: middle; font-size: 14px;">18</text><text transform="translate(68.74021101002357, 19.306563399461652)" fill="#ab1ec3" style="text-anchor: middle; font-size: 14px;">64</text><text transform="translate(-69.26803735806311, 17.317592227615595)" fill="#20e830" style="text-anchor: middle; font-size: 14px;">27</text><g class="legendOrdinal" transform="translate(-150, -135.33333333333334)"><g class="legendCells"><g class="cell" transform="translate(0, 0)"><path class="swatch" d="M-5,-5h10v10h-10Z" style="fill: rgb(202, 250, 11);"/><text class="label" transform="translate( 15, 5)" style="font-family: sans-serif;"><tspan x="0" dy="0em">South</tspan></text></g><g class="cell" transform="translate(0, 25.33333396911621)"><path class="swatch" d="M-5,-5h10v10h-10Z" style="fill: rgb(171, 30, 195);"/><text class="label" transform="translate( 15, 5)" style="font-family: sans-serif;"><tspan x="0" dy="0em">Southeast</tspan></text></g><g class="cell" transform="translate(0, 50.66666793823242)"><path class="swatch" d="M-5,-5h10v10h-10Z" style="fill: rgb(32, 232, 48);"/><text class="label" transform="translate( 15, 5)" style="font-family: sans-serif;"><tspan x="0" dy="0em">intently</tspan></text></g></g></g></g></svg>