<svg xmlns="http://www.w3.org/2000/svg" width="400" height="400"><g transform="translate(200, 200)"><text x="-1" y="-170" text-anchor="center" style="font-family: serif; font-size: 25px; font-weight: bold; fill: rgb(0, 0, 0);">Borders</text><path d="M69.250877207346,10.213520745222318A70,70,0,0,1,4.19072010334658,69.87444357571233L0,0Z" fill="#e4dfa0" stroke="white" style="stroke-width: 0;"/><path d="M-33.100450750179796,-61.67949545947115A70,70,0,0,1,-1.1647316610810599,-69.99030933034712L0,0Z" fill="#acf77f" stroke="white" style="stroke-width: 0;"/><path d="M-56.328431239159904,41.55848690863558A70,70,0,0,1,-66.74460128710797,-21.09877245303586L0,0Z" fill="#b28607" stroke="white" style="stroke-width: 0;"/><path d="M-66.74460128710797,-21.09877245303586A70,70,0,0,1,-33.100450750179796,-61.67949545947115L0,0Z" fill="#ad0af8" stroke="white" style="stroke-width: 0;"/><path d="M-1.1647316610810599,-69.99030933034712A70,70,0,0,1,-7.503128077005597e-14,-70L0,0Z" fill="#9c61ea" stroke="white" style="stroke-width: 0;"/><path d="M4.2862637970157365e-15,-70A70,70,0,0,1,69.250877207346,10.213520745222318L0,0Z" fill="#4c7c64" stroke="white" style="stroke-width: 0;"/><path d="M4.19072010334658,69.87444357571233A70,70,0,0,1,-56.328431239159904,41.55848690863558L0,0Z" fill="#8afdab" stroke="white" style="stroke-width: 0;"/><text transform="translate(59.13799384349001, 64.48990373823904)" fill="#e4dfa0" style="text-anchor: middle; font-size: 7px;">410</text><text transform="translate(-22.036655833886016, -84.67960675191435)" fill="#acf77f" style="text-anchor: middle; font-size: 7px;">143</text><text transform="translate(-86.31542691889122, 14.349114112360716)" fill="#b28607" style="text-anchor: middle; font-size: 7px;">283</text><text transform="translate(-67.3604735501168, -55.84636606892175)" fill="#ad0af8" style="text-anchor: middle; font-size: 7px;">232</text><text transform="translate(-0.7279824837466273, -87.49697161332705)" fill="#9c61ea" style="text-anchor: middle; font-size: 7px;">5</text><text transform="translate(66.23199314345256, -57.18018086929818)" fill="#4c7c64" style="text-anchor: middle; font-size: 7px;">516</text><text transform="translate(-37.08169994066563, 79.25400639406463)" fill="#8afdab" style="text-anchor: middle; font-size: 7px;">299</text><g class="legendOrdinal" transform="translate(-13, -140)"><g class="legendCells" transform="translate(31.276042938232422,15.333333969116211)"><g class="cell" transform="translate(0,0)"><path class="swatch" d="M-5,-5h10v10h-10Z" style="fill: rgb(228, 223, 160);"/><text class="label" transform="translate(0,&#10;          23)" style="text-anchor: middle; font-family: serif;"><tspan x="0" dy="0em">Awesome</tspan></text></g><g class="cell" transform="translate(50,0)"><path class="swatch" d="M-5,-5h10v10h-10Z" style="fill: rgb(172, 247, 127);"/><text class="label" transform="translate(0,&#10;          23)" style="text-anchor: middle; font-family: serif;"><tspan x="0" dy="0em">blue</tspan></text></g><g class="cell" transform="translate(100,0)"><path class="swatch" d="M-5,-5h10v10h-10Z" style="fill: rgb(178, 134, 7);"/><text class="label" transform="translate(0,&#10;          23)" style="text-anchor: middle; font-family: serif;"><tspan x="0" dy="0em">Concrete</tspan></text></g><g class="cell" transform="translate(150,0)"><path class="swatch" d="M-5,-5h10v10h-10Z" style="fill: rgb(173, 10, 248);"/><text class="label" transform="translate(0,&#10;          23)" style="text-anchor: middle; font-family: serif;"><tspan x="0" dy="0em">Interactions</tspan></text></g><g class="cell" transform="translate(200,0)"><path class="swatch" d="M-5,-5h10v10h-10Z" style="fill: rgb(156, 97, 234);"/><text class="label" transform="translate(0,&#10;          23)" style="text-anchor: middle; font-family: serif;"><tspan x="0" dy="0em">tragic</tspan></text></g><g class="cell" transform="translate(250,0)"><path class="swatch" d="M-5,-5h10v10h-10Z" style="fill: rgb(76, 124, 100);"/><text class="label" transform="translate(0,&#10;          23)" style="text-anchor: middle; font-family: serif;"><tspan x="0" dy="0em">South</tspan></text></g><g class="cell" transform="translate(300,0)"><path class="swatch" d="M-5,-5h10v10h-10Z" style="fill: rgb(138, 253, 171);"/><text class="label" transform="translate(0,&#10;          23)" style="text-anchor: middle; font-family: serif;"><tspan x="0" dy="0em">mmm</tspan></text></g></g><text class="legendTitle" style="font-family: serif;">Concrete</text></g></g></svg>