<svg xmlns="http://www.w3.org/2000/svg" width="400" height="400"><g transform="translate(200, 200)"><text x="4" y="-170" text-anchor="center" style="font-family: serif; font-size: 25px; font-weight: bold; fill: rgb(0, 0, 0);">magnetic virtual application</text><path d="M-43.79091360118634,-54.610950238696944A70,70,0,0,1,-5.251908497232879,-69.8027037953165L0,0Z" fill="#05c8da" stroke="black" style="stroke-width: 0;"/><path d="M4.2862637970157365e-15,-70A70,70,0,0,1,63.936297843019815,-28.498242369112162L0,0Z" fill="#bed80a" stroke="black" style="stroke-width: 0;"/><path d="M-5.251908497232879,-69.8027037953165A70,70,0,0,1,-7.503128077005597e-14,-70L0,0Z" fill="#8b90f8" stroke="black" style="stroke-width: 0;"/><path d="M-6.125146272977389,69.73150351981973A70,70,0,0,1,-56.47629584802589,41.35732108449789L0,0Z" fill="#96cdbc" stroke="black" style="stroke-width: 0;"/><path d="M-56.47629584802589,41.35732108449789A70,70,0,0,1,-69.0030936870466,-11.771705977328434L0,0Z" fill="#1be73f" stroke="black" style="stroke-width: 0;"/><path d="M-69.0030936870466,-11.771705977328434A70,70,0,0,1,-43.79091360118634,-54.610950238696944L0,0Z" fill="#c81e09" stroke="black" style="stroke-width: 0;"/><path d="M56.4762958480259,41.35732108449788A70,70,0,0,1,-6.125146272977389,69.73150351981973L0,0Z" fill="#4c321e" stroke="black" style="stroke-width: 0;"/><path d="M63.936297843019815,-28.498242369112162A70,70,0,0,1,56.4762958480259,41.35732108449788L0,0Z" fill="#cf7fb3" stroke="black" style="stroke-width: 0;"/><text transform="translate(-32.088669726331254, -81.40373010614707)" fill="#05c8da" style="text-anchor: middle; font-size: 9px;">24</text><text transform="translate(47.640606318970995, -73.39361436501693)" fill="#bed80a" style="text-anchor: middle; font-size: 9px;">46</text><text transform="translate(-3.2847581636444314, -87.43832319873462)" fill="#8b90f8" style="text-anchor: middle; font-size: 9px;">3</text><text transform="translate(-42.95725884755907, 76.22941631879263)" fill="#96cdbc" style="text-anchor: middle; font-size: 9px;">34</text><text transform="translate(-85.16475465474336, 20.080203300698138)" fill="#1be73f" style="text-anchor: middle; font-size: 9px;">32</text><text transform="translate(-75.40953015302286, -44.38077018372187)" fill="#c81e09" style="text-anchor: middle; font-size: 9px;">29</text><text transform="translate(36.122256018201114, 79.69587580393062)" fill="#4c321e" style="text-anchor: middle; font-size: 9px;">41</text><text transform="translate(87.00528105565049, 9.29145136279932)" fill="#cf7fb3" style="text-anchor: middle; font-size: 9px;">42</text><g class="legendOrdinal" transform="translate(-42, -140)"><g class="legendCells" transform="translate(15.177083969116211,15.333333969116211)"><g class="cell" transform="translate(0,0)"><path class="swatch" d="M-5,-5h10v10h-10Z" style="fill: rgb(5, 200, 218);"/><text class="label" transform="translate(0,&#10;          23)" style="text-anchor: middle; font-family: serif;"><tspan x="0" dy="0em">grow</tspan></text></g><g class="cell" transform="translate(50,0)"><path class="swatch" d="M-5,-5h10v10h-10Z" style="fill: rgb(190, 216, 10);"/><text class="label" transform="translate(0,&#10;          23)" style="text-anchor: middle; font-family: serif;"><tspan x="0" dy="0em">Southwest</tspan></text></g><g class="cell" transform="translate(100,0)"><path class="swatch" d="M-5,-5h10v10h-10Z" style="fill: rgb(139, 144, 248);"/><text class="label" transform="translate(0,&#10;          23)" style="text-anchor: middle; font-family: serif;"><tspan x="0" dy="0em">pink</tspan></text></g><g class="cell" transform="translate(150,0)"><path class="swatch" d="M-5,-5h10v10h-10Z" style="fill: rgb(150, 205, 188);"/><text class="label" transform="translate(0,&#10;          23)" style="text-anchor: middle; font-family: serif;"><tspan x="0" dy="0em">ADP</tspan></text></g><g class="cell" transform="translate(200,0)"><path class="swatch" d="M-5,-5h10v10h-10Z" style="fill: rgb(27, 231, 63);"/><text class="label" transform="translate(0,&#10;          23)" style="text-anchor: middle; font-family: serif;"><tspan x="0" dy="0em">polymerize</tspan></text></g><g class="cell" transform="translate(250,0)"><path class="swatch" d="M-5,-5h10v10h-10Z" style="fill: rgb(200, 30, 9);"/><text class="label" transform="translate(0,&#10;          23)" style="text-anchor: middle; font-family: serif;"><tspan x="0" dy="0em">online</tspan></text></g><g class="cell" transform="translate(300,0)"><path class="swatch" d="M-5,-5h10v10h-10Z" style="fill: rgb(76, 50, 30);"/><text class="label" transform="translate(0,&#10;          23)" style="text-anchor: middle; font-family: serif;"><tspan x="0" dy="0em">finally</tspan></text></g><g class="cell" transform="translate(350,0)"><path class="swatch" d="M-5,-5h10v10h-10Z" style="fill: rgb(207, 127, 179);"/><text class="label" transform="translate(0,&#10;          23)" style="text-anchor: middle; font-family: serif;"><tspan x="0" dy="0em">North</tspan></text></g></g><text class="legendTitle" style="font-family: serif;">navigate</text></g></g></svg>