<svg xmlns="http://www.w3.org/2000/svg" width="400" height="400"><g transform="translate(200, 200)"><text x="-16" y="-170" text-anchor="center" style="font-family: sans-serif; font-size: 25px; font-weight: bold; fill: rgb(0, 0, 0);">iterate Rustic</text><path d="M4.2862637970157365e-15,-70A70,70,0,1,1,-32.652336508081085,61.91788853443757L0,0Z" fill="#85e9fd" stroke="white" style="stroke-width: 0;"/><path d="M-32.652336508081085,61.91788853443757A70,70,0,0,1,-27.816759956426438,-64.23572110225392L0,0Z" fill="#87a07e" stroke="white" style="stroke-width: 0;"/><path d="M-27.816759956426438,-64.23572110225392A70,70,0,0,1,-12.44871742660722,-68.88417404914199L0,0Z" fill="#1fcfa3" stroke="white" style="stroke-width: 0;"/><path d="M-12.44871742660722,-68.88417404914199A70,70,0,0,1,-7.503128077005597e-14,-70L0,0Z" fill="#b318a9" stroke="white" style="stroke-width: 0;"/><text transform="translate(84.93679726259435, 21.0235694108528)" fill="#85e9fd" style="text-anchor: middle; font-size: 12px;">142</text><text transform="translate(-87.43579084194587, -3.351489197878012)" fill="#87a07e" style="text-anchor: middle; font-size: 12px;">88</text><text transform="translate(-25.33306867764307, -83.75252611935846)" fill="#1fcfa3" style="text-anchor: middle; font-size: 12px;">9</text><text transform="translate(-7.811640780754615, -87.15060681551478)" fill="#b318a9" style="text-anchor: middle; font-size: 12px;">7</text><g class="legendOrdinal" transform="translate(130, -28.333333333333343)"><g class="legendCells" transform="translate(5,15.333333969116211)"><g class="cell" transform="translate(0, 0)"><path class="swatch" d="M-5,-5h10v10h-10Z" style="fill: rgb(133, 233, 253);"/><text class="label" transform="translate( 15, 5)" style="font-family: sans-serif;"><tspan x="0" dy="0em">navigate</tspan></text></g><g class="cell" transform="translate(0, 25.33333396911621)"><path class="swatch" d="M-5,-5h10v10h-10Z" style="fill: rgb(135, 160, 126);"/><text class="label" transform="translate( 15, 5)" style="font-family: sans-serif;"><tspan x="0" dy="0em">Bahraini</tspan></text></g><g class="cell" transform="translate(0, 50.66666793823242)"><path class="swatch" d="M-5,-5h10v10h-10Z" style="fill: rgb(31, 207, 163);"/><text class="label" transform="translate( 15, 5)" style="font-family: sans-serif;"><tspan x="0" dy="0em">mover</tspan></text></g><g class="cell" transform="translate(0, 76.00000190734863)"><path class="swatch" d="M-5,-5h10v10h-10Z" style="fill: rgb(179, 24, 169);"/><text class="label" transform="translate( 15, 5)" style="font-family: sans-serif;"><tspan x="0" dy="0em">lighthearted</tspan></text></g></g><text class="legendTitle" style="font-family: sans-serif;">Bicycle</text></g></g></svg>