<svg xmlns="http://www.w3.org/2000/svg" width="400" height="400"><g transform="translate(200, 200)"><text x="-73" y="-170" text-anchor="center" style="font-family: sans-serif; font-size: 25px; font-weight: bold; fill: rgb(0, 0, 0);">Administrator Eugene Mouse</text><path d="M-14.109864126910205,-68.56319518750664A70,70,0,0,1,-1.3720377014906475e-13,-70L-9.996274682289004e-14,-51A51,51,0,0,0,-10.280043863891722,-49.953185065183405Z" fill="#6fccdb" stroke="black" style="stroke-width: 2px;"/><path d="M-65.25816255330439,25.32532764183913A70,70,0,0,1,-53.843977208099936,-44.73059488106115L-39.22918339447281,-32.58943341334455A51,51,0,0,0,-47.54523271740748,18.451310139054222Z" fill="#f5c44f" stroke="black" style="stroke-width: 2px;"/><path d="M-5.796297561648878,69.75960818824043A70,70,0,0,1,-65.25816255330439,25.32532764183913L-47.54523271740748,18.451310139054222A51,51,0,0,0,-4.223016794915611,50.82485739428947Z" fill="#029be9" stroke="black" style="stroke-width: 2px;"/><path d="M4.2862637970157365e-15,-70A70,70,0,0,1,69.61931645855607,7.290457862399535L50.72264484837657,5.311619299748233A51,51,0,0,0,3.1228493378257506e-15,-51Z" fill="#745ccb" stroke="black" style="stroke-width: 2px;"/><path d="M-53.843977208099936,-44.73059488106115A70,70,0,0,1,-14.109864126910205,-68.56319518750664L-10.280043863891722,-49.953185065183405A51,51,0,0,0,-39.22918339447281,-32.58943341334455Z" fill="#6aacfa" stroke="black" style="stroke-width: 2px;"/><path d="M69.61931645855607,7.290457862399535A70,70,0,0,1,-5.796297561648878,69.75960818824043L-4.223016794915611,50.82485739428947A51,51,0,0,0,50.72264484837657,5.311619299748233Z" fill="#63cd5e" stroke="black" style="stroke-width: 2px;"/><text transform="translate(-8.580612298024308, -84.26424563592197)" fill="#6fccdb" style="text-anchor: middle; font-size: 14px;">71</text><text transform="translate(-83.59767312621672, -13.620537723681217)" fill="#f5c44f" style="text-anchor: middle; font-size: 14px;">372</text><text transform="translate(-50.70153252560055, 67.84868900395549)" fill="#029be9" style="text-anchor: middle; font-size: 14px;">391</text><text transform="translate(62.9335647923417, -56.68735681373871)" fill="#745ccb" style="text-anchor: middle; font-size: 14px;">586</text><text transform="translate(-43.56721482388139, -72.63599515728939)" fill="#6aacfa" style="text-anchor: middle; font-size: 14px;">236</text><text transform="translate(54.030844184506925, 65.228505093322)" fill="#63cd5e" style="text-anchor: middle; font-size: 14px;">542</text><g class="legendOrdinal" transform="translate(-96, 130)"><g class="legendCells"><g class="cell" transform="translate(0,0)"><path class="swatch" d="M-5,-5h10v10h-10Z" style="fill: rgb(111, 204, 219);"/><text class="label" transform="translate(0,&#10;          23)" style="text-anchor: middle; font-family: sans-serif;"><tspan x="0" dy="0em">salmon</tspan></text></g><g class="cell" transform="translate(50,0)"><path class="swatch" d="M-5,-5h10v10h-10Z" style="fill: rgb(245, 196, 79);"/><text class="label" transform="translate(0,&#10;          23)" style="text-anchor: middle; font-family: sans-serif;"><tspan x="0" dy="0em">bluetooth</tspan></text></g><g class="cell" transform="translate(100,0)"><path class="swatch" d="M-5,-5h10v10h-10Z" style="fill: rgb(2, 155, 233);"/><text class="label" transform="translate(0,&#10;          23)" style="text-anchor: middle; font-family: sans-serif;"><tspan x="0" dy="0em">Sheqel</tspan></text></g><g class="cell" transform="translate(150,0)"><path class="swatch" d="M-5,-5h10v10h-10Z" style="fill: rgb(116, 92, 203);"/><text class="label" transform="translate(0,&#10;          23)" style="text-anchor: middle; font-family: sans-serif;"><tspan x="0" dy="0em">drive</tspan></text></g><g class="cell" transform="translate(200,0)"><path class="swatch" d="M-5,-5h10v10h-10Z" style="fill: rgb(106, 172, 250);"/><text class="label" transform="translate(0,&#10;          23)" style="text-anchor: middle; font-family: sans-serif;"><tspan x="0" dy="0em">South</tspan></text></g><g class="cell" transform="translate(250,0)"><path class="swatch" d="M-5,-5h10v10h-10Z" style="fill: rgb(99, 205, 94);"/><text class="label" transform="translate(0,&#10;          23)" style="text-anchor: middle; font-family: sans-serif;"><tspan x="0" dy="0em">BMX</tspan></text></g></g></g></g></svg>