<svg xmlns="http://www.w3.org/2000/svg" width="400" height="400"><g transform="translate(200, 200)"><text x="31" y="-170" text-anchor="center" style="font-family: Balto; font-size: 25px; font-weight: bold; fill: rgb(0, 0, 0);">Atascocita Borders</text><path d="M-59.52296850028882,36.83770108073554A70,70,0,0,1,-66.62340674037752,-21.478400180325803L-37.11875518392462,-11.966537243324376A39,39,0,0,0,-33.1627967358752,20.523862030695515Z" fill="#cb0650" stroke="black" style="stroke-width: 0;"/><path d="M-66.62340674037752,-21.478400180325803A70,70,0,0,1,-46.44747451755545,-52.37014522551028L-25.877878659780894,-29.177652339927157A39,39,0,0,0,-37.11875518392462,-11.966537243324376Z" fill="#feada8" stroke="black" style="stroke-width: 0;"/><path d="M68.88758178210617,12.429846186242038A70,70,0,0,1,-8.311089389623104,69.5048616512377L-4.630464088504301,38.72413720568958A39,39,0,0,0,38.38022413574486,6.925200018049136Z" fill="#aeaba5" stroke="black" style="stroke-width: 0;"/><path d="M-46.44747451755545,-52.37014522551028A70,70,0,0,1,-13.367029520178155,-68.71188049971188L-7.447345018384972,-38.28233342126805A39,39,0,0,0,-25.877878659780894,-29.177652339927157Z" fill="#8116ea" stroke="black" style="stroke-width: 0;"/><path d="M-13.367029520178155,-68.71188049971188A70,70,0,0,1,-1.2858791391047208e-14,-70L-7.164183775012016e-15,-39A39,39,0,0,0,-7.447345018384972,-38.28233342126805Z" fill="#baaaf9" stroke="black" style="stroke-width: 0;"/><path d="M4.2862637970157365e-15,-70A70,70,0,0,1,68.88758178210617,12.429846186242038L38.38022413574486,6.925200018049136A39,39,0,0,0,2.388061258337339e-15,-39Z" fill="#c2a0db" stroke="black" style="stroke-width: 0;"/><path d="M-8.311089389623104,69.5048616512377A70,70,0,0,1,-59.52296850028882,36.83770108073554L-33.1627967358752,20.523862030695515A39,39,0,0,0,-4.630464088504301,38.72413720568958Z" fill="#3d19fa" stroke="black" style="stroke-width: 0;"/><text transform="translate(-75.74063975652817, 9.222011129456789)" fill="#cb0650" style="text-anchor: middle; font-size: 8px;">302</text><text transform="translate(-63.88210031703749, -41.72250302994725)" fill="#feada8" style="text-anchor: middle; font-size: 8px;">186</text><text transform="translate(45.35981279204776, 61.35289221764838)" fill="#aeaba5" style="text-anchor: middle; font-size: 8px;">527</text><text transform="translate(-33.793635504050286, -68.40818810215185)" fill="#8116ea" style="text-anchor: middle; font-size: 8px;">186</text><text transform="translate(-7.318778398081992, -75.94817629647052)" fill="#baaaf9" style="text-anchor: middle; font-size: 8px;">67</text><text transform="translate(58.54674635610074, -48.928197300885756)" fill="#c2a0db" style="text-anchor: middle; font-size: 8px;">610</text><text transform="translate(-41.03311764375641, 64.32708027288076)" fill="#3d19fa" style="text-anchor: middle; font-size: 8px;">313</text><g class="legendOrdinal" transform="translate(-133, -140)"><g class="legendCells" transform="translate(16.48958396911621,15.333333969116211)"><g class="cell" transform="translate(0,0)"><path class="swatch" d="M-5,-5h10v10h-10Z" style="fill: rgb(203, 6, 80);"/><text class="label" transform="translate(0,&#10;          23)" style="text-anchor: middle; font-family: Balto;"><tspan x="0" dy="0em">West</tspan></text></g><g class="cell" transform="translate(50,0)"><path class="swatch" d="M-5,-5h10v10h-10Z" style="fill: rgb(254, 173, 168);"/><text class="label" transform="translate(0,&#10;          23)" style="text-anchor: middle; font-family: Balto;"><tspan x="0" dy="0em">voluptatibus</tspan></text></g><g class="cell" transform="translate(100,0)"><path class="swatch" d="M-5,-5h10v10h-10Z" style="fill: rgb(174, 171, 165);"/><text class="label" transform="translate(0,&#10;          23)" style="text-anchor: middle; font-family: Balto;"><tspan x="0" dy="0em">bluetooth</tspan></text></g><g class="cell" transform="translate(150,0)"><path class="swatch" d="M-5,-5h10v10h-10Z" style="fill: rgb(129, 22, 234);"/><text class="label" transform="translate(0,&#10;          23)" style="text-anchor: middle; font-family: Balto;"><tspan x="0" dy="0em">platforms</tspan></text></g><g class="cell" transform="translate(200,0)"><path class="swatch" d="M-5,-5h10v10h-10Z" style="fill: rgb(186, 170, 249);"/><text class="label" transform="translate(0,&#10;          23)" style="text-anchor: middle; font-family: Balto;"><tspan x="0" dy="0em">gray</tspan></text></g><g class="cell" transform="translate(250,0)"><path class="swatch" d="M-5,-5h10v10h-10Z" style="fill: rgb(194, 160, 219);"/><text class="label" transform="translate(0,&#10;          23)" style="text-anchor: middle; font-family: Balto;"><tspan x="0" dy="0em">fortress</tspan></text></g><g class="cell" transform="translate(300,0)"><path class="swatch" d="M-5,-5h10v10h-10Z" style="fill: rgb(61, 25, 250);"/><text class="label" transform="translate(0,&#10;          23)" style="text-anchor: middle; font-family: Balto;"><tspan x="0" dy="0em">synthesize</tspan></text></g></g><text class="legendTitle" style="font-family: Balto;">Connecticut</text></g></g></svg>