<svg xmlns="http://www.w3.org/2000/svg" width="400" height="400"><g transform="translate(200, 200)"><text x="-50" y="-170" text-anchor="center" style="font-family: Balto; font-size: 25px; font-weight: bold; fill: rgb(0, 0, 0);">Rupee</text><path d="M69.9369276343277,-2.970884223730388A70,70,0,0,1,29.508442643938615,63.47638783618193L11.803377057575446,25.39055513447277A28,28,0,0,0,27.97477105373108,-1.1883536894921551Z" fill="#73ded0" stroke="white" style="stroke-width: 0;"/><path d="M-42.21929175106191,55.83485832379908A70,70,0,0,1,-69.74782419797685,5.936414713285664L-27.899129679190743,2.374565885314266A28,28,0,0,0,-16.887716700424765,22.333943329519634Z" fill="#c6b0f5" stroke="white" style="stroke-width: 0;"/><path d="M-61.82182645342265,-32.83385103765459A70,70,0,0,1,-48.435720828428245,-50.53692657681671L-19.374288331371297,-20.214770630726683A28,28,0,0,0,-24.72873058136906,-13.133540415061837Z" fill="#cfa5ed" stroke="white" style="stroke-width: 0;"/><path d="M-30.180473929772496,-63.159631042100955A70,70,0,0,1,-14.747548899700886,-68.42886672633803L-5.8990195598803545,-27.371546690535208A28,28,0,0,0,-12.072189571909,-25.263852416840383Z" fill="#0112fb" stroke="white" style="stroke-width: 0;"/><path d="M-48.435720828428245,-50.53692657681671A70,70,0,0,1,-30.180473929772496,-63.159631042100955L-12.072189571909,-25.263852416840383A28,28,0,0,0,-19.374288331371297,-20.214770630726683Z" fill="#f9b46c" stroke="white" style="stroke-width: 0;"/><path d="M-69.74782419797685,5.936414713285664A70,70,0,0,1,-61.82182645342265,-32.83385103765459L-24.72873058136906,-13.133540415061837A28,28,0,0,0,-27.899129679190743,2.374565885314266Z" fill="#aeae0a" stroke="white" style="stroke-width: 0;"/><path d="M-6.6763342049389225,-69.68089093563573A70,70,0,0,1,-7.503128077005597e-14,-70L-3.001251230802239e-14,-28A28,28,0,0,0,-2.670533681975569,-27.872356374254295Z" fill="#22bacb" stroke="white" style="stroke-width: 0;"/><path d="M4.2862637970157365e-15,-70A70,70,0,0,1,69.9369276343277,-2.970884223730388L27.97477105373108,-1.1883536894921551A28,28,0,0,0,1.7145055188062944e-15,-28Z" fill="#4c8afd" stroke="white" style="stroke-width: 0;"/><path d="M29.508442643938615,63.47638783618193A70,70,0,0,1,-42.21929175106191,55.83485832379908L-16.887716700424765,22.333943329519634A28,28,0,0,0,11.803377057575446,25.39055513447277Z" fill="#cefc4c" stroke="white" style="stroke-width: 0;"/><path d="M-14.747548899700886,-68.42886672633803A70,70,0,0,1,-6.6763342049389225,-69.68089093563573L-2.670533681975569,-27.872356374254295A28,28,0,0,0,-5.8990195598803545,-27.371546690535208Z" fill="#4e13be" stroke="white" style="stroke-width: 0;"/><text transform="translate(58.604945647273816, 35.65698172420208)" fill="#73ded0" style="text-anchor: middle; font-size: 9px;">111</text><text transform="translate(-60.06546581739102, 33.13758917211434)" fill="#c6b0f5" style="text-anchor: middle; font-size: 9px;">79</text><text transform="translate(-54.718161157323095, -41.37490591604067)" fill="#cfa5ed" style="text-anchor: middle; font-size: 9px;">30</text><text transform="translate(-22.165620415923815, -64.92029937991029)" fill="#0112fb" style="text-anchor: middle; font-size: 9px;">22</text><text transform="translate(-39.01532113133466, -56.42485903410686)" fill="#f9b46c" style="text-anchor: middle; font-size: 9px;">30</text><text transform="translate(-67.20990199063716, -13.740053653786992)" fill="#aeae0a" style="text-anchor: middle; font-size: 9px;">54</text><text transform="translate(-3.2751384840248496, -68.52177367749947)" fill="#22bacb" style="text-anchor: middle; font-size: 9px;">9</text><text transform="translate(47.467006411859664, -49.52618804528037)" fill="#4c8afd" style="text-anchor: middle; font-size: 9px;">144</text><text transform="translate(-7.2671916075519505, 68.2139862941547)" fill="#cefc4c" style="text-anchor: middle; font-size: 9px;">102</text><text transform="translate(-10.515613852251143, -67.78924594144962)" fill="#4e13be" style="text-anchor: middle; font-size: 9px;">11</text><g class="legendOrdinal" transform="translate(-150, 73.66666666666666)"><g class="legendCells"><g class="cell" transform="translate(0, 0)"><path class="swatch" d="M-5,-5h10v10h-10Z" style="fill: rgb(115, 222, 208);"/><text class="label" transform="translate( 15, 5)" style="font-family: Balto;"><tspan x="0" dy="0em">generation</tspan></text></g><g class="cell" transform="translate(0, 25.33333396911621)"><path class="swatch" d="M-5,-5h10v10h-10Z" style="fill: rgb(198, 176, 245);"/><text class="label" transform="translate( 15, 5)" style="font-family: Balto;"><tspan x="0" dy="0em">Northeast</tspan></text></g><g class="cell" transform="translate(0, 50.66666793823242)"><path class="swatch" d="M-5,-5h10v10h-10Z" style="fill: rgb(207, 165, 237);"/><text class="label" transform="translate( 15, 5)" style="font-family: Balto;"><tspan x="0" dy="0em">Rap</tspan></text></g><g class="cell" transform="translate(0, 76.00000190734863)"><path class="swatch" d="M-5,-5h10v10h-10Z" style="fill: rgb(1, 18, 251);"/><text class="label" transform="translate( 15, 5)" style="font-family: Balto;"><tspan x="0" dy="0em">Idaho</tspan></text></g><g class="cell" transform="translate(0, 101.33333587646484)"><path class="swatch" d="M-5,-5h10v10h-10Z" style="fill: rgb(249, 180, 108);"/><text class="label" transform="translate( 15, 5)" style="font-family: Balto;"><tspan x="0" dy="0em">repurpose</tspan></text></g><g class="cell" transform="translate(0, 126.66666984558105)"><path class="swatch" d="M-5,-5h10v10h-10Z" style="fill: rgb(174, 174, 10);"/><text class="label" transform="translate( 15, 5)" style="font-family: Balto;"><tspan x="0" dy="0em">Cerium</tspan></text></g><g class="cell" transform="translate(0, 152.00000381469727)"><path class="swatch" d="M-5,-5h10v10h-10Z" style="fill: rgb(34, 186, 203);"/><text class="label" transform="translate( 15, 5)" style="font-family: Balto;"><tspan x="0" dy="0em">male</tspan></text></g><g class="cell" transform="translate(0, 177.33333778381348)"><path class="swatch" d="M-5,-5h10v10h-10Z" style="fill: rgb(76, 138, 253);"/><text class="label" transform="translate( 15, 5)" style="font-family: Balto;"><tspan x="0" dy="0em">HDD</tspan></text></g><g class="cell" transform="translate(0, 202.6666717529297)"><path class="swatch" d="M-5,-5h10v10h-10Z" style="fill: rgb(206, 252, 76);"/><text class="label" transform="translate( 15, 5)" style="font-family: Balto;"><tspan x="0" dy="0em">Recycled</tspan></text></g><g class="cell" transform="translate(0, 228.0000057220459)"><path class="swatch" d="M-5,-5h10v10h-10Z" style="fill: rgb(78, 19, 190);"/><text class="label" transform="translate( 15, 5)" style="font-family: Balto;"><tspan x="0" dy="0em">now</tspan></text></g></g></g></g></svg>