<svg xmlns="http://www.w3.org/2000/svg" width="400" height="400"><g transform="translate(200, 200)"><text x="18" y="-170" text-anchor="center" style="font-family: sans-serif; font-size: 25px; font-weight: bold; fill: rgb(0, 0, 0);">Northwest</text><path d="M-46.334018451274396,-52.47055111352428A70,70,0,0,1,-1.2858791391047208e-14,-70L-7.898971854500428e-15,-43A43,43,0,0,0,-28.462325620068555,-32.23190996973634Z" fill="#56c3cd" stroke="white" style="stroke-width: 0;"/><path d="M50.90371861304125,48.05009293814444A70,70,0,0,1,-51.40465119655799,47.51380678666159L-31.577142877885624,29.187052740377837A43,43,0,0,0,31.269427148011054,29.51648566200301Z" fill="#ae7fff" stroke="white" style="stroke-width: 0;"/><path d="M-51.40465119655799,47.51380678666159A70,70,0,0,1,-46.334018451274396,-52.47055111352428L-28.462325620068555,-32.23190996973634A43,43,0,0,0,-31.577142877885624,29.187052740377837Z" fill="#bd3cc7" stroke="white" style="stroke-width: 0;"/><path d="M4.2862637970157365e-15,-70A70,70,0,0,1,50.90371861304125,48.05009293814444L31.269427148011054,29.51648566200301A43,43,0,0,0,2.6329906181668092e-15,-43Z" fill="#e69efc" stroke="white" style="stroke-width: 0;"/><text transform="translate(-27.989593868256257, -73.98238057193124)" fill="#56c3cd" style="text-anchor: middle; font-size: 13px;">207</text><text transform="translate(-0.4146254297748218, 79.09891330323687)" fill="#ae7fff" style="text-anchor: middle; font-size: 13px;">469</text><text transform="translate(-78.99847571723028, -4.006349255142147)" fill="#bd3cc7" style="text-anchor: middle; font-size: 13px;">456</text><text transform="translate(72.63494839638204, -31.32050879942594)" fill="#e69efc" style="text-anchor: middle; font-size: 13px;">666</text><g class="legendOrdinal" transform="translate(-41, -140)"><g class="legendCells"><g class="cell" transform="translate(0,0)"><path class="swatch" d="M-5,-5h10v10h-10Z" style="fill: rgb(86, 195, 205);"/><text class="label" transform="translate(0,&#10;          23)" style="text-anchor: middle; font-family: sans-serif;"><tspan x="0" dy="0em">innovate</tspan></text></g><g class="cell" transform="translate(50,0)"><path class="swatch" d="M-5,-5h10v10h-10Z" style="fill: rgb(174, 127, 255);"/><text class="label" transform="translate(0,&#10;          23)" style="text-anchor: middle; font-family: sans-serif;"><tspan x="0" dy="0em">Toyota</tspan></text></g><g class="cell" transform="translate(100,0)"><path class="swatch" d="M-5,-5h10v10h-10Z" style="fill: rgb(189, 60, 199);"/><text class="label" transform="translate(0,&#10;          23)" style="text-anchor: middle; font-family: sans-serif;"><tspan x="0" dy="0em">Palau</tspan></text></g><g class="cell" transform="translate(150,0)"><path class="swatch" d="M-5,-5h10v10h-10Z" style="fill: rgb(230, 158, 252);"/><text class="label" transform="translate(0,&#10;          23)" style="text-anchor: middle; font-family: sans-serif;"><tspan x="0" dy="0em">asymmetric</tspan></text></g></g></g></g></svg>