<svg xmlns="http://www.w3.org/2000/svg" width="400" height="400"><g transform="translate(200, 200)"><text x="3" y="-170" text-anchor="center" style="font-family: serif; font-size: 25px; font-weight: bold; fill: rgb(0, 0, 0);">Refined Metal muff</text><path d="M21.53045144855327,66.60660372982164A70,70,0,0,1,-66.87273194619608,-20.689072527597894L-45.85558762024874,-14.186792590352841A48,48,0,0,0,14.763738136150813,45.67309970044913Z" fill="#a7a91b" stroke="black" style="stroke-width: 2px;"/><path d="M-66.87273194619608,-20.689072527597894A70,70,0,0,1,-1.2858791391047208e-14,-70L-8.817456953860943e-15,-48A48,48,0,0,0,-45.85558762024874,-14.186792590352841Z" fill="#ec7ecd" stroke="black" style="stroke-width: 2px;"/><path d="M4.2862637970157365e-15,-70A70,70,0,0,1,21.53045144855327,66.60660372982164L14.763738136150813,45.67309970044913A48,48,0,0,0,2.9391523179536475e-15,-48Z" fill="#bccba0" stroke="black" style="stroke-width: 2px;"/><text transform="translate(-58.037702001801854, 58.77401761280272)" fill="#a7a91b" style="text-anchor: middle; font-size: 14px;">433</text><text transform="translate(-49.02161502276363, -66.48038252416991)" fill="#ec7ecd" style="text-anchor: middle; font-size: 14px;">252</text><text transform="translate(81.59280744139846, -12.859773475099471)" fill="#bccba0" style="text-anchor: middle; font-size: 14px;">561</text><g class="legendOrdinal" transform="translate(-178, 130)"><g class="legendCells"><g class="cell" transform="translate(0,0)"><path class="swatch" d="M-5,-5h10v10h-10Z" style="fill: rgb(167, 169, 27);"/><text class="label" transform="translate(0,&#10;          23)" style="text-anchor: middle; font-family: serif;"><tspan x="0" dy="0em">male</tspan></text></g><g class="cell" transform="translate(50,0)"><path class="swatch" d="M-5,-5h10v10h-10Z" style="fill: rgb(236, 126, 205);"/><text class="label" transform="translate(0,&#10;          23)" style="text-anchor: middle; font-family: serif;"><tspan x="0" dy="0em">Pasco</tspan></text></g><g class="cell" transform="translate(100,0)"><path class="swatch" d="M-5,-5h10v10h-10Z" style="fill: rgb(188, 203, 160);"/><text class="label" transform="translate(0,&#10;          23)" style="text-anchor: middle; font-family: serif;"><tspan x="0" dy="0em">Marino</tspan></text></g></g></g></g></svg>