<svg xmlns="http://www.w3.org/2000/svg" width="400" height="400"><g transform="translate(200, 200)"><text x="2" y="-170" text-anchor="center" style="font-family: sans-serif; font-size: 25px; font-weight: bold; fill: rgb(0, 0, 0);">Loan Fantastic Slovenia</text><path d="M-20.992914397500137,-66.77797200499002A70,70,0,0,1,-0.20305741212711934,-69.99970548286171L0,0Z" fill="#6c8fd6" stroke="white" style="stroke-width: 0;"/><path d="M-7.498718079109249,69.59719266730548A70,70,0,0,1,-69.8085774045233,5.1732505020227135L0,0Z" fill="#fad656" stroke="white" style="stroke-width: 0;"/><path d="M4.2862637970157365e-15,-70A70,70,0,0,1,69.22031807698096,10.418616286320546L0,0Z" fill="#aae23b" stroke="white" style="stroke-width: 0;"/><path d="M-69.8085774045233,5.1732505020227135A70,70,0,0,1,-51.63798410703417,-47.26011634943028L0,0Z" fill="#371c65" stroke="white" style="stroke-width: 0;"/><path d="M-0.20305741212711934,-69.99970548286171A70,70,0,0,1,-7.503128077005597e-14,-70L0,0Z" fill="#ef6b7f" stroke="white" style="stroke-width: 0;"/><path d="M69.22031807698096,10.418616286320546A70,70,0,0,1,-7.498718079109249,69.59719266730548L0,0Z" fill="#db8c6b" stroke="white" style="stroke-width: 0;"/><path d="M-51.63798410703417,-47.26011634943028A70,70,0,0,1,-20.992914397500137,-66.77797200499002L0,0Z" fill="#2aefcf" stroke="white" style="stroke-width: 0;"/><text transform="translate(-13.399638339874535, -86.46791134496405)" fill="#6c8fd6" style="text-anchor: middle; font-size: 9px;">104</text><text transform="translate(-62.895195126214524, 60.83127838567427)" fill="#fad656" style="text-anchor: middle; font-size: 9px;">479</text><text transform="translate(66.31661238451612, -57.08201925161586)" fill="#aae23b" style="text-anchor: middle; font-size: 9px;">593</text><text transform="translate(-82.6762446571517, -28.65115302026772)" fill="#371c65" style="text-anchor: middle; font-size: 9px;">281</text><text transform="translate(-0.12691101607048952, -87.49990796334588)" fill="#ef6b7f" style="text-anchor: middle; font-size: 9px;">1</text><text transform="translate(53.44265256144807, 69.28299132684982)" fill="#db8c6b" style="text-anchor: middle; font-size: 9px;">527</text><text transform="translate(-47.004795745052164, -73.80243340816024)" fill="#2aefcf" style="text-anchor: middle; font-size: 9px;">181</text><g class="legendOrdinal" transform="translate(130, -115.33333333333334)"><g class="legendCells"><g class="cell" transform="translate(0, 0)"><path class="swatch" d="M-5,-5h10v10h-10Z" style="fill: rgb(108, 143, 214);"/><text class="label" transform="translate( 15, 5)" style="font-family: sans-serif;"><tspan x="0" dy="0em">sidestream</tspan></text></g><g class="cell" transform="translate(0, 25.33333396911621)"><path class="swatch" d="M-5,-5h10v10h-10Z" style="fill: rgb(250, 214, 86);"/><text class="label" transform="translate( 15, 5)" style="font-family: sans-serif;"><tspan x="0" dy="0em">Montenegro</tspan></text></g><g class="cell" transform="translate(0, 50.66666793823242)"><path class="swatch" d="M-5,-5h10v10h-10Z" style="fill: rgb(170, 226, 59);"/><text class="label" transform="translate( 15, 5)" style="font-family: sans-serif;"><tspan x="0" dy="0em">aboard</tspan></text></g><g class="cell" transform="translate(0, 76.00000190734863)"><path class="swatch" d="M-5,-5h10v10h-10Z" style="fill: rgb(55, 28, 101);"/><text class="label" transform="translate( 15, 5)" style="font-family: sans-serif;"><tspan x="0" dy="0em">Computers</tspan></text></g><g class="cell" transform="translate(0, 101.33333587646484)"><path class="swatch" d="M-5,-5h10v10h-10Z" style="fill: rgb(239, 107, 127);"/><text class="label" transform="translate( 15, 5)" style="font-family: sans-serif;"><tspan x="0" dy="0em">optimizing</tspan></text></g><g class="cell" transform="translate(0, 126.66666984558105)"><path class="swatch" d="M-5,-5h10v10h-10Z" style="fill: rgb(219, 140, 107);"/><text class="label" transform="translate( 15, 5)" style="font-family: sans-serif;"><tspan x="0" dy="0em">transmit</tspan></text></g><g class="cell" transform="translate(0, 152.00000381469727)"><path class="swatch" d="M-5,-5h10v10h-10Z" style="fill: rgb(42, 239, 207);"/><text class="label" transform="translate( 15, 5)" style="font-family: sans-serif;"><tspan x="0" dy="0em">phooey</tspan></text></g></g></g></g></svg>