<svg xmlns="http://www.w3.org/2000/svg" width="400" height="400"><g transform="translate(200, 200)"><text x="-2" y="-170" text-anchor="center" style="font-family: avenir; font-size: 25px; font-weight: bold; fill: rgb(0, 0, 0);">Seamless among</text><path d="M67.12149826549984,19.867170674117222A70,70,0,0,1,-31.36720287537517,62.57873907146944L0,0Z" fill="#5de282" stroke="white" style="stroke-width: 2px;"/><path d="M4.2862637970157365e-15,-70A70,70,0,0,1,67.12149826549984,19.867170674117222L0,0Z" fill="#365e1f" stroke="white" style="stroke-width: 2px;"/><path d="M-31.36720287537517,62.57873907146944A70,70,0,0,1,-67.0833874189537,-19.995477798706503L0,0Z" fill="#9876fc" stroke="white" style="stroke-width: 2px;"/><path d="M-67.0833874189537,-19.995477798706503A70,70,0,0,1,-1.2858791391047208e-14,-70L0,0Z" fill="#116fe8" stroke="white" style="stroke-width: 2px;"/><text transform="translate(34.813384828330946, 80.27626197572067)" fill="#5de282" style="text-anchor: middle; font-size: 11px;">457</text><text transform="translate(70.10428586214103, -52.36066370625199)" fill="#365e1f" style="text-anchor: middle; font-size: 11px;">486</text><text transform="translate(-80.30950875028906, 34.73662050757453)" fill="#9876fc" style="text-anchor: middle; font-size: 11px;">365</text><text transform="translate(-52.29361632057242, -70.1543134248833)" fill="#116fe8" style="text-anchor: middle; font-size: 11px;">335</text><g class="legendOrdinal" transform="translate(-196, -140)"><g class="legendCells" transform="translate(27.63020896911621,15.333333969116211)"><g class="cell" transform="translate(0,0)"><path class="swatch" d="M-5,-5h10v10h-10Z" style="fill: rgb(93, 226, 130);"/><text class="label" transform="translate(0,&#10;          23)" style="text-anchor: middle; font-family: avenir;"><tspan x="0" dy="0em">cohesive</tspan></text></g><g class="cell" transform="translate(50,0)"><path class="swatch" d="M-5,-5h10v10h-10Z" style="fill: rgb(54, 94, 31);"/><text class="label" transform="translate(0,&#10;          23)" style="text-anchor: middle; font-family: avenir;"><tspan x="0" dy="0em">chrysalis</tspan></text></g><g class="cell" transform="translate(100,0)"><path class="swatch" d="M-5,-5h10v10h-10Z" style="fill: rgb(152, 118, 252);"/><text class="label" transform="translate(0,&#10;          23)" style="text-anchor: middle; font-family: avenir;"><tspan x="0" dy="0em">functionalities</tspan></text></g><g class="cell" transform="translate(150,0)"><path class="swatch" d="M-5,-5h10v10h-10Z" style="fill: rgb(17, 111, 232);"/><text class="label" transform="translate(0,&#10;          23)" style="text-anchor: middle; font-family: avenir;"><tspan x="0" dy="0em">National</tspan></text></g></g><text class="legendTitle" style="font-family: avenir;">Lamborghini</text></g></g></svg>