<svg xmlns="http://www.w3.org/2000/svg" width="400" height="400"><g transform="translate(200, 200)"><text x="-43" y="-170" text-anchor="center" style="font-family: sans-serif; font-size: 25px; font-weight: bold; fill: rgb(0, 0, 0);">female perceive</text><path d="M-64.36694407860155,-27.511752215774646A70,70,0,0,1,-46.05571081577989,-52.71500262025276L0,0Z" fill="#dcafd1" stroke="black" style="stroke-width: 0;"/><path d="M4.2862637970157365e-15,-70A70,70,0,0,1,69.92951465789203,3.140538124536045L0,0Z" fill="#7e057c" stroke="black" style="stroke-width: 0;"/><path d="M69.92951465789203,3.140538124536045A70,70,0,0,1,30.37186173822907,63.06782075316934L0,0Z" fill="#febea8" stroke="black" style="stroke-width: 0;"/><path d="M30.37186173822907,63.06782075316934A70,70,0,0,1,-41.144967660473114,56.63118960624632L0,0Z" fill="#7a385b" stroke="black" style="stroke-width: 0;"/><path d="M-68.24495385272765,15.576465376942016A70,70,0,0,1,-64.36694407860155,-27.511752215774646L0,0Z" fill="#ebcc94" stroke="black" style="stroke-width: 0;"/><path d="M-18.62257918966727,-67.47740024870973A70,70,0,0,1,-1.2858791391047208e-14,-70L0,0Z" fill="#a210d1" stroke="black" style="stroke-width: 0;"/><path d="M-41.144967660473114,56.63118960624632A70,70,0,0,1,-68.24495385272765,15.576465376942016L0,0Z" fill="#27c9da" stroke="black" style="stroke-width: 0;"/><path d="M-46.05571081577989,-52.71500262025276A70,70,0,0,1,-18.62257918966727,-67.47740024870973L0,0Z" fill="#b18f9f" stroke="black" style="stroke-width: 0;"/><text transform="translate(-70.78898700780792, -51.431209575591396)" fill="#dcafd1" style="text-anchor: middle; font-size: 11px;">5</text><text transform="translate(63.24455058489676, -60.467981786350656)" fill="#7e057c" style="text-anchor: middle; font-size: 11px;">18</text><text transform="translate(73.02515970061398, 48.203485877058974)" fill="#febea8" style="text-anchor: middle; font-size: 11px;">12</text><text transform="translate(-7.843439529050426, 87.1477507245834)" fill="#7a385b" style="text-anchor: middle; font-size: 11px;">12</text><text transform="translate(-87.1477507245834, -7.8434395290504195)" fill="#ebcc94" style="text-anchor: middle; font-size: 11px;">7</text><text transform="translate(-11.74541075904487, -86.7081041546943)" fill="#a210d1" style="text-anchor: middle; font-size: 11px;">3</text><text transform="translate(-73.02515970061398, 48.20348587705898)" fill="#27c9da" style="text-anchor: middle; font-size: 11px;">8</text><text transform="translate(-41.4635079663874, -77.05210903746456)" fill="#b18f9f" style="text-anchor: middle; font-size: 11px;">5</text><g class="legendOrdinal" transform="translate(-194, -140)"><g class="legendCells"><g class="cell" transform="translate(0,0)"><path class="swatch" d="M-5,-5h10v10h-10Z" style="fill: rgb(220, 175, 209);"/><text class="label" transform="translate(0,&#10;          23)" style="text-anchor: middle; font-family: sans-serif;"><tspan x="0" dy="0em">Gloves</tspan></text></g><g class="cell" transform="translate(50,0)"><path class="swatch" d="M-5,-5h10v10h-10Z" style="fill: rgb(126, 5, 124);"/><text class="label" transform="translate(0,&#10;          23)" style="text-anchor: middle; font-family: sans-serif;"><tspan x="0" dy="0em">Bicycle</tspan></text></g><g class="cell" transform="translate(100,0)"><path class="swatch" d="M-5,-5h10v10h-10Z" style="fill: rgb(254, 190, 168);"/><text class="label" transform="translate(0,&#10;          23)" style="text-anchor: middle; font-family: sans-serif;"><tspan x="0" dy="0em">Toyota</tspan></text></g><g class="cell" transform="translate(150,0)"><path class="swatch" d="M-5,-5h10v10h-10Z" style="fill: rgb(122, 56, 91);"/><text class="label" transform="translate(0,&#10;          23)" style="text-anchor: middle; font-family: sans-serif;"><tspan x="0" dy="0em">Bike</tspan></text></g><g class="cell" transform="translate(200,0)"><path class="swatch" d="M-5,-5h10v10h-10Z" style="fill: rgb(235, 204, 148);"/><text class="label" transform="translate(0,&#10;          23)" style="text-anchor: middle; font-family: sans-serif;"><tspan x="0" dy="0em">plum</tspan></text></g><g class="cell" transform="translate(250,0)"><path class="swatch" d="M-5,-5h10v10h-10Z" style="fill: rgb(162, 16, 209);"/><text class="label" transform="translate(0,&#10;          23)" style="text-anchor: middle; font-family: sans-serif;"><tspan x="0" dy="0em">West</tspan></text></g><g class="cell" transform="translate(300,0)"><path class="swatch" d="M-5,-5h10v10h-10Z" style="fill: rgb(39, 201, 218);"/><text class="label" transform="translate(0,&#10;          23)" style="text-anchor: middle; font-family: sans-serif;"><tspan x="0" dy="0em">mole</tspan></text></g><g class="cell" transform="translate(350,0)"><path class="swatch" d="M-5,-5h10v10h-10Z" style="fill: rgb(177, 143, 159);"/><text class="label" transform="translate(0,&#10;          23)" style="text-anchor: middle; font-family: sans-serif;"><tspan x="0" dy="0em">Personal</tspan></text></g></g></g></g></svg>