<svg xmlns="http://www.w3.org/2000/svg" width="400" height="400"><g transform="translate(200, 200)"><text x="-31" y="-170" text-anchor="center" style="font-family: serif; font-size: 25px; font-weight: bold; fill: rgb(0, 0, 0);">Fresh Group natus</text><path d="M-2.127847833785962,69.96765155124368A70,70,0,0,1,-53.57241166561636,-45.05548477521613L-32.90876716602148,-27.676940647632765A43,43,0,0,0,-1.3071065264685195,42.98012881004969Z" fill="#6424b4" stroke="black" style="stroke-width: 2px;"/><path d="M4.2862637970157365e-15,-70A70,70,0,1,1,-2.127847833785962,69.96765155124368L-1.3071065264685195,42.98012881004969A43,43,0,1,0,2.6329906181668092e-15,-43Z" fill="#26da11" stroke="black" style="stroke-width: 2px;"/><path d="M-53.57241166561636,-45.05548477521613A70,70,0,0,1,-7.503128077005597e-14,-70L-4.609064390160581e-14,-43A43,43,0,0,0,-32.90876716602148,-27.676940647632765Z" fill="#854cde" stroke="black" style="stroke-width: 2px;"/><text transform="translate(-72.20700176546164, 32.29487414501902)" fill="#6424b4" style="text-anchor: middle; font-size: 13px;">442</text><text transform="translate(79.09086103528274, 1.2023729444698104)" fill="#26da11" style="text-anchor: middle; font-size: 13px;">626</text><text transform="translate(-33.38873765461085, -71.70775549291423)" fill="#854cde" style="text-anchor: middle; font-size: 13px;">172</text><g class="legendOrdinal" transform="translate(130, -99.33333333333334)"><g class="legendCells"><g class="cell" transform="translate(0, 0)"><path class="swatch" d="M-5,-5h10v10h-10Z" style="fill: rgb(100, 36, 180);"/><text class="label" transform="translate( 15, 5)" style="font-family: serif;"><tspan x="0" dy="0em">channels</tspan></text></g><g class="cell" transform="translate(0, 25.33333396911621)"><path class="swatch" d="M-5,-5h10v10h-10Z" style="fill: rgb(38, 218, 17);"/><text class="label" transform="translate( 15, 5)" style="font-family: serif;"><tspan x="0" dy="0em">microchip</tspan></text></g><g class="cell" transform="translate(0, 50.66666793823242)"><path class="swatch" d="M-5,-5h10v10h-10Z" style="fill: rgb(133, 76, 222);"/><text class="label" transform="translate( 15, 5)" style="font-family: serif;"><tspan x="0" dy="0em">FTM</tspan></text></g></g></g></g></svg>