<svg xmlns="http://www.w3.org/2000/svg" width="400" height="400"><g transform="translate(200, 200)"><text x="-72" y="-170" text-anchor="center" style="font-family: Balto; font-size: 25px; font-weight: bold; fill: rgb(0, 0, 0);">boohoo South Nickel</text><path d="M67.62111945308388,18.09376146387926A70,70,0,0,1,-4.973828157669392,69.82306949324109L-2.202695326967874,30.921645061292484A31,31,0,0,0,29.94649575779429,8.012951505432243Z" fill="#60ac77" stroke="white" style="stroke-width: 2px;"/><path d="M-4.973828157669392,69.82306949324109A70,70,0,0,1,-62.91273039178943,30.691828792856494L-27.861352030649606,13.59209560826502A31,31,0,0,0,-2.202695326967874,30.921645061292484Z" fill="#1818f1" stroke="white" style="stroke-width: 2px;"/><path d="M-62.91273039178943,30.691828792856494A70,70,0,0,1,-67.84285877455739,-17.24373837934978L-30.04469460016113,-7.636512710854903A31,31,0,0,0,-27.861352030649606,13.59209560826502Z" fill="#af0fe0" stroke="white" style="stroke-width: 2px;"/><path d="M-13.96133487510329,-68.59359393197899A70,70,0,0,1,-7.503128077005597e-14,-70L-3.322813862673907e-14,-31A31,31,0,0,0,-6.182876873260028,-30.377163027019268Z" fill="#e89de3" stroke="white" style="stroke-width: 2px;"/><path d="M-67.84285877455739,-17.24373837934978A70,70,0,0,1,-52.7452665015089,-46.02104802897043L-23.3586180220968,-20.380749841401187A31,31,0,0,0,-30.04469460016113,-7.636512710854903Z" fill="#965e78" stroke="white" style="stroke-width: 2px;"/><path d="M-52.7452665015089,-46.02104802897043A70,70,0,0,1,-31.60962693979238,-62.456636834904515L-13.998549073336626,-27.659367741172A31,31,0,0,0,-23.3586180220968,-20.380749841401187Z" fill="#cbdf3e" stroke="white" style="stroke-width: 2px;"/><path d="M4.2862637970157365e-15,-70A70,70,0,0,1,67.62111945308388,18.09376146387926L29.94649575779429,8.012951505432243A31,31,0,0,0,1.8982025386783976e-15,-31Z" fill="#d54c9f" stroke="white" style="stroke-width: 2px;"/><path d="M-31.60962693979238,-62.456636834904515A70,70,0,0,1,-13.96133487510329,-68.59359393197899L-6.182876873260028,-30.377163027019268A31,31,0,0,0,-13.998549073336626,-27.659367741172Z" fill="#e1a01f" stroke="white" style="stroke-width: 2px;"/><text transform="translate(41.02827246121775, 57.57752042983512)" fill="#60ac77" style="text-anchor: middle; font-size: 12px;">165</text><text transform="translate(-39.57034745529912, 58.58905701807209)" fill="#1818f1" style="text-anchor: middle; font-size: 12px;">125</text><text transform="translate(-70.32901079319366, 7.233273176843873)" fill="#af0fe0" style="text-anchor: middle; font-size: 12px;">84</text><text transform="translate(-7.086156860357325, -70.34398610364933)" fill="#e89de3" style="text-anchor: middle; font-size: 12px;">24</text><text transform="translate(-62.60702648541649, -32.84585566938935)" fill="#965e78" style="text-anchor: middle; font-size: 12px;">56</text><text transform="translate(-43.40026712789782, -55.81135021863485)" fill="#cbdf3e" style="text-anchor: middle; font-size: 12px;">46</text><text transform="translate(56.08257851084963, -43.049208907648776)" fill="#d54c9f" style="text-anchor: middle; font-size: 12px;">219</text><text transform="translate(-23.221077368897244, -66.77777748493648)" fill="#e1a01f" style="text-anchor: middle; font-size: 12px;">32</text><g class="legendOrdinal" transform="translate(130, -86.33333333333334)"><g class="legendCells"><g class="cell" transform="translate(0, 0)"><path class="swatch" d="M-5,-5h10v10h-10Z" style="fill: rgb(96, 172, 119);"/><text class="label" transform="translate( 15, 5)" style="font-family: Balto;"><tspan x="0" dy="0em">Automotive</tspan></text></g><g class="cell" transform="translate(0, 25.33333396911621)"><path class="swatch" d="M-5,-5h10v10h-10Z" style="fill: rgb(24, 24, 241);"/><text class="label" transform="translate( 15, 5)" style="font-family: Balto;"><tspan x="0" dy="0em">Bicycle</tspan></text></g><g class="cell" transform="translate(0, 50.66666793823242)"><path class="swatch" d="M-5,-5h10v10h-10Z" style="fill: rgb(175, 15, 224);"/><text class="label" transform="translate( 15, 5)" style="font-family: Balto;"><tspan x="0" dy="0em">Oriental</tspan></text></g><g class="cell" transform="translate(0, 76.00000190734863)"><path class="swatch" d="M-5,-5h10v10h-10Z" style="fill: rgb(232, 157, 227);"/><text class="label" transform="translate( 15, 5)" style="font-family: Balto;"><tspan x="0" dy="0em">clatter</tspan></text></g><g class="cell" transform="translate(0, 101.33333587646484)"><path class="swatch" d="M-5,-5h10v10h-10Z" style="fill: rgb(150, 94, 120);"/><text class="label" transform="translate( 15, 5)" style="font-family: Balto;"><tspan x="0" dy="0em">orange</tspan></text></g><g class="cell" transform="translate(0, 126.66666984558105)"><path class="swatch" d="M-5,-5h10v10h-10Z" style="fill: rgb(203, 223, 62);"/><text class="label" transform="translate( 15, 5)" style="font-family: Balto;"><tspan x="0" dy="0em">Tasty</tspan></text></g><g class="cell" transform="translate(0, 152.00000381469727)"><path class="swatch" d="M-5,-5h10v10h-10Z" style="fill: rgb(213, 76, 159);"/><text class="label" transform="translate( 15, 5)" style="font-family: Balto;"><tspan x="0" dy="0em">toward</tspan></text></g><g class="cell" transform="translate(0, 177.33333778381348)"><path class="swatch" d="M-5,-5h10v10h-10Z" style="fill: rgb(225, 160, 31);"/><text class="label" transform="translate( 15, 5)" style="font-family: Balto;"><tspan x="0" dy="0em">California</tspan></text></g></g></g></g></svg>