<svg xmlns="http://www.w3.org/2000/svg" width="400" height="400"><g transform="translate(200, 200)"><text x="-11" y="-170" text-anchor="center" style="font-family: monospace; font-size: 25px; font-weight: bold; fill: rgb(0, 0, 0);">female</text><path d="M4.2862637970157365e-15,-70A70,70,0,0,1,67.45009225058547,-18.72124609601375L46.25149182897289,-12.83742589440943A48,48,0,0,0,2.9391523179536475e-15,-48Z" fill="#e1f78f" stroke="white" style="stroke-width: 0;"/><path d="M-18.429885855810394,-67.53028437184165A70,70,0,0,1,4.9313697987961557e-14,-70L3.381510719174507e-14,-48A48,48,0,0,0,-12.637636015412841,-46.306480712119985Z" fill="#1f42cd" stroke="white" style="stroke-width: 0;"/><path d="M67.45009225058547,-18.72124609601375A70,70,0,0,1,37.983418965658515,58.79846837868528L26.045773005022983,40.31894974538419A48,48,0,0,0,46.25149182897289,-12.83742589440943Z" fill="#7efa7a" stroke="white" style="stroke-width: 0;"/><path d="M37.983418965658515,58.79846837868528A70,70,0,0,1,-40.97714368596744,56.75274174292884L-28.098612813234816,38.91616576657978A48,48,0,0,0,26.045773005022983,40.31894974538419Z" fill="#5aabc9" stroke="white" style="stroke-width: 0;"/><path d="M-40.97714368596744,56.75274174292884A70,70,0,0,1,-69.16299133873878,-10.792619194502535L-47.42605120370659,-7.4006531619445965A48,48,0,0,0,-28.098612813234816,38.91616576657978Z" fill="#6db5fc" stroke="white" style="stroke-width: 0;"/><path d="M-69.16299133873878,-10.792619194502535A70,70,0,0,1,-42.84411499240146,-55.356858748649024L-29.378821709075286,-37.95898885621647A48,48,0,0,0,-47.42605120370659,-7.4006531619445965Z" fill="#c2769a" stroke="white" style="stroke-width: 0;"/><path d="M-42.84411499240146,-55.356858748649024A70,70,0,0,1,-18.429885855810394,-67.53028437184165L-12.637636015412841,-46.306480712119985A48,48,0,0,0,-29.378821709075286,-37.95898885621647Z" fill="#e748db" stroke="white" style="stroke-width: 0;"/><text transform="translate(49.99018696461202, -65.75516106925093)" fill="#e1f78f" style="text-anchor: middle; font-size: 14px;">527</text><text transform="translate(-10.970830480080776, -81.86819210522076)" fill="#1f42cd" style="text-anchor: middle; font-size: 14px;">108</text><text transform="translate(77.21008669319936, 29.348978054246434)" fill="#7efa7a" style="text-anchor: middle; font-size: 14px;">514</text><text transform="translate(-2.1393000671737687, 82.57229193393259)" fill="#5aabc9" style="text-anchor: middle; font-size: 14px;">486</text><text transform="translate(-76.22933599906158, 31.809563548438913)" fill="#6db5fc" style="text-anchor: middle; font-size: 14px;">446</text><text transform="translate(-71.12269110628681, -42.00384279800733)" fill="#c2769a" style="text-anchor: middle; font-size: 14px;">307</text><text transform="translate(-36.8582188063525, -73.92044173584897)" fill="#e748db" style="text-anchor: middle; font-size: 14px;">159</text><g class="legendOrdinal" transform="translate(-150, 33.66666666666666)"><g class="legendCells" transform="translate(5,15.333333969116211)"><g class="cell" transform="translate(0, 0)"><path class="swatch" d="M-5,-5h10v10h-10Z" style="fill: rgb(225, 247, 143);"/><text class="label" transform="translate( 15, 5)" style="font-family: monospace;"><tspan x="0" dy="0em">who</tspan></text></g><g class="cell" transform="translate(0, 25.33333396911621)"><path class="swatch" d="M-5,-5h10v10h-10Z" style="fill: rgb(31, 66, 205);"/><text class="label" transform="translate( 15, 5)" style="font-family: monospace;"><tspan x="0" dy="0em">black</tspan></text></g><g class="cell" transform="translate(0, 50.66666793823242)"><path class="swatch" d="M-5,-5h10v10h-10Z" style="fill: rgb(126, 250, 122);"/><text class="label" transform="translate( 15, 5)" style="font-family: monospace;"><tspan x="0" dy="0em">accusantium</tspan></text></g><g class="cell" transform="translate(0, 76.00000190734863)"><path class="swatch" d="M-5,-5h10v10h-10Z" style="fill: rgb(90, 171, 201);"/><text class="label" transform="translate( 15, 5)" style="font-family: monospace;"><tspan x="0" dy="0em">capacitor</tspan></text></g><g class="cell" transform="translate(0, 101.33333587646484)"><path class="swatch" d="M-5,-5h10v10h-10Z" style="fill: rgb(109, 181, 252);"/><text class="label" transform="translate( 15, 5)" style="font-family: monospace;"><tspan x="0" dy="0em">siemens</tspan></text></g><g class="cell" transform="translate(0, 126.66666984558105)"><path class="swatch" d="M-5,-5h10v10h-10Z" style="fill: rgb(194, 118, 154);"/><text class="label" transform="translate( 15, 5)" style="font-family: monospace;"><tspan x="0" dy="0em">Hybrid</tspan></text></g><g class="cell" transform="translate(0, 152.00000381469727)"><path class="swatch" d="M-5,-5h10v10h-10Z" style="fill: rgb(231, 72, 219);"/><text class="label" transform="translate( 15, 5)" style="font-family: monospace;"><tspan x="0" dy="0em">Luxurious</tspan></text></g></g><text class="legendTitle" style="font-family: monospace;">weber</text></g></g></svg>