<svg xmlns="http://www.w3.org/2000/svg" width="400" height="400"><g transform="translate(200, 200)"><text x="36" y="-170" text-anchor="center" style="font-family: sans-serif; font-size: 25px; font-weight: bold; fill: rgb(0, 0, 0);">Cab</text><path d="M-65.27186328246576,25.289995326909363A70,70,0,0,1,-1.2858791391047208e-14,-70L-1.0103336092965664e-14,-55A55,55,0,0,0,-51.2850354362231,19.870710614000213Z" fill="#82dcd0" stroke="white" style="stroke-width: 0;"/><path d="M55.3720292805139,42.82450669135502A70,70,0,0,1,-65.27186328246576,25.289995326909363L-51.2850354362231,19.870710614000213A55,55,0,0,0,43.5065944346895,33.64782668606466Z" fill="#1d8298" stroke="white" style="stroke-width: 0;"/><path d="M4.2862637970157365e-15,-70A70,70,0,0,1,55.3720292805139,42.82450669135502L43.5065944346895,33.64782668606466A55,55,0,0,0,3.3677786976552213e-15,-55Z" fill="#28914e" stroke="white" style="stroke-width: 0;"/><text transform="translate(-72.18844519339889, -49.44773382633064)" fill="#82dcd0" style="text-anchor: middle; font-size: 11px;">605</text><text transform="translate(-12.585113385589908, 86.59021261708419)" fill="#1d8298" style="text-anchor: middle; font-size: 11px;">659</text><text transform="translate(78.54992176751978, -38.55074305790385)" fill="#28914e" style="text-anchor: middle; font-size: 11px;">695</text><g class="legendOrdinal" transform="translate(-108, 130)"><g class="legendCells"><g class="cell" transform="translate(0,0)"><path class="swatch" d="M-5,-5h10v10h-10Z" style="fill: rgb(130, 220, 208);"/><text class="label" transform="translate(0,&#10;          23)" style="text-anchor: middle; font-family: sans-serif;"><tspan x="0" dy="0em">Hatchback</tspan></text></g><g class="cell" transform="translate(50,0)"><path class="swatch" d="M-5,-5h10v10h-10Z" style="fill: rgb(29, 130, 152);"/><text class="label" transform="translate(0,&#10;          23)" style="text-anchor: middle; font-family: sans-serif;"><tspan x="0" dy="0em">Loan</tspan></text></g><g class="cell" transform="translate(100,0)"><path class="swatch" d="M-5,-5h10v10h-10Z" style="fill: rgb(40, 145, 78);"/><text class="label" transform="translate(0,&#10;          23)" style="text-anchor: middle; font-family: sans-serif;"><tspan x="0" dy="0em">Wagon</tspan></text></g></g></g></g></svg>