<svg xmlns="http://www.w3.org/2000/svg" width="400" height="400"><g transform="translate(200, 200)"><text x="27" y="-170" text-anchor="center" style="font-family: sans-serif; font-size: 25px; font-weight: bold; fill: rgb(0, 0, 0);">Agent</text><path d="M-66.90666976218803,20.579055890237374A70,70,0,0,1,-69.01332759077502,-11.711559027233351L-37.464377834992156,-6.357703471926676A38,38,0,0,0,-36.32076358518779,11.171487483271719Z" fill="#0288a8" stroke="white" style="stroke-width: 2px;"/><path d="M-46.612766703990665,52.2230789996084A70,70,0,0,1,-66.90666976218803,20.579055890237374L-36.32076358518779,11.171487483271719A38,38,0,0,0,-25.30407335359493,28.34967145693027Z" fill="#0bfcea" stroke="white" style="stroke-width: 2px;"/><path d="M-7.641668258885173,-69.58164202015605A70,70,0,0,1,4.9313697987961557e-14,-70L2.6770293193464843e-14,-38A38,38,0,0,0,-4.148334197680523,-37.77289138237043Z" fill="#0bea48" stroke="white" style="stroke-width: 2px;"/><path d="M-69.01332759077502,-11.711559027233351A70,70,0,0,1,-58.80181462055399,-37.97823847060317L-31.92098507972931,-20.616758026898868A38,38,0,0,0,-37.464377834992156,-6.357703471926676Z" fill="#59cd9e" stroke="white" style="stroke-width: 2px;"/><path d="M4.2862637970157365e-15,-70A70,70,0,0,1,63.943601276282415,-28.48185134115782L34.712240692839025,-15.461576442342817A38,38,0,0,0,2.326828918379971e-15,-38Z" fill="#3ae8dc" stroke="white" style="stroke-width: 2px;"/><path d="M60.621778264910695,35.000000000000014A70,70,0,0,1,8.64819251241023,69.46372266347588L4.694733078165553,37.70887801731548A38,38,0,0,0,32.90896534380866,19.000000000000007Z" fill="#0e2cd1" stroke="white" style="stroke-width: 2px;"/><path d="M63.943601276282415,-28.48185134115782A70,70,0,0,1,60.621778264910695,35.000000000000014L32.90896534380866,19.000000000000007A38,38,0,0,0,34.712240692839025,-15.461576442342817Z" fill="#c9ef75" stroke="white" style="stroke-width: 2px;"/><path d="M-40.35762276236868,-57.19494982050725A70,70,0,0,1,-19.121367382741184,-67.33775545274911L-10.380170864916643,-36.554781531492374A38,38,0,0,0,-21.90842378528585,-31.04868704541822Z" fill="#cd2da5" stroke="white" style="stroke-width: 2px;"/><path d="M8.64819251241023,69.46372266347588A70,70,0,0,1,-46.612766703990665,52.2230789996084L-25.30407335359493,28.34967145693027A38,38,0,0,0,4.694733078165553,37.70887801731548Z" fill="#54cf30" stroke="white" style="stroke-width: 2px;"/><path d="M-19.121367382741184,-67.33775545274911A70,70,0,0,1,-7.641668258885173,-69.58164202015605L-4.148334197680523,-37.77289138237043A38,38,0,0,0,-10.380170864916643,-36.554781531492374Z" fill="#6a2b4a" stroke="white" style="stroke-width: 2px;"/><path d="M-58.80181462055399,-37.97823847060317A70,70,0,0,1,-40.35762276236868,-57.19494982050725L-21.90842378528585,-31.04868704541822A38,38,0,0,0,-31.92098507972931,-20.616758026898868Z" fill="#bfbcb4" stroke="white" style="stroke-width: 2px;"/><text transform="translate(-75.43962247996119, 4.92172328366129)" fill="#0288a8" style="text-anchor: middle; font-size: 10px;">145</text><text transform="translate(-63.63758905198041, 40.81197446401316)" fill="#0bfcea" style="text-anchor: middle; font-size: 10px;">169</text><text transform="translate(-4.13268026456793, -75.4869588328398)" fill="#0bea48" style="text-anchor: middle; font-size: 10px;">34</text><text transform="translate(-70.46254931815939, -27.393231711244937)" fill="#59cd9e" style="text-anchor: middle; font-size: 10px;">126</text><text transform="translate(41.169611375972124, -63.406806410285526)" fill="#3ae8dc" style="text-anchor: middle; font-size: 10px;">358</text><text transform="translate(41.7796608690366, 63.00650710576084)" fill="#0e2cd1" style="text-anchor: middle; font-size: 10px;">287</text><text transform="translate(75.49671081213532, 3.950526110381926)" fill="#c9ef75" style="text-anchor: middle; font-size: 10px;">293</text><text transform="translate(-32.58230758440138, -68.21842296971883)" fill="#cd2da5" style="text-anchor: middle; font-size: 10px;">105</text><text transform="translate(-22.515789954447612, 72.16924000380769)" fill="#54cf30" style="text-anchor: middle; font-size: 10px;">265</text><text transform="translate(-14.502746368663209, -74.19589171757575)" fill="#6a2b4a" style="text-anchor: middle; font-size: 10px;">52</text><text transform="translate(-54.542341777892865, -52.3497177965987)" fill="#bfbcb4" style="text-anchor: middle; font-size: 10px;">119</text><g class="legendOrdinal" transform="translate(130, -49.33333333333334)"><g class="legendCells" transform="translate(5,15.333333969116211)"><g class="cell" transform="translate(0, 0)"><path class="swatch" d="M-5,-5h10v10h-10Z" style="fill: rgb(2, 136, 168);"/><text class="label" transform="translate( 15, 5)" style="font-family: sans-serif;"><tspan x="0" dy="0em">Steel</tspan></text></g><g class="cell" transform="translate(0, 25.33333396911621)"><path class="swatch" d="M-5,-5h10v10h-10Z" style="fill: rgb(11, 252, 234);"/><text class="label" transform="translate( 15, 5)" style="font-family: sans-serif;"><tspan x="0" dy="0em">ohm</tspan></text></g><g class="cell" transform="translate(0, 50.66666793823242)"><path class="swatch" d="M-5,-5h10v10h-10Z" style="fill: rgb(11, 234, 72);"/><text class="label" transform="translate( 15, 5)" style="font-family: sans-serif;"><tspan x="0" dy="0em">cultivate</tspan></text></g><g class="cell" transform="translate(0, 76.00000190734863)"><path class="swatch" d="M-5,-5h10v10h-10Z" style="fill: rgb(89, 205, 158);"/><text class="label" transform="translate( 15, 5)" style="font-family: sans-serif;"><tspan x="0" dy="0em">intermediate</tspan></text></g><g class="cell" transform="translate(0, 101.33333587646484)"><path class="swatch" d="M-5,-5h10v10h-10Z" style="fill: rgb(58, 232, 220);"/><text class="label" transform="translate( 15, 5)" style="font-family: sans-serif;"><tspan x="0" dy="0em">withdrawal</tspan></text></g><g class="cell" transform="translate(0, 126.66666984558105)"><path class="swatch" d="M-5,-5h10v10h-10Z" style="fill: rgb(14, 44, 209);"/><text class="label" transform="translate( 15, 5)" style="font-family: sans-serif;"><tspan x="0" dy="0em">embellish</tspan></text></g><g class="cell" transform="translate(0, 152.00000381469727)"><path class="swatch" d="M-5,-5h10v10h-10Z" style="fill: rgb(201, 239, 117);"/><text class="label" transform="translate( 15, 5)" style="font-family: sans-serif;"><tspan x="0" dy="0em">Northwest</tspan></text></g><g class="cell" transform="translate(0, 177.33333778381348)"><path class="swatch" d="M-5,-5h10v10h-10Z" style="fill: rgb(205, 45, 165);"/><text class="label" transform="translate( 15, 5)" style="font-family: sans-serif;"><tspan x="0" dy="0em">Quality</tspan></text></g><g class="cell" transform="translate(0, 202.6666717529297)"><path class="swatch" d="M-5,-5h10v10h-10Z" style="fill: rgb(84, 207, 48);"/><text class="label" transform="translate( 15, 5)" style="font-family: sans-serif;"><tspan x="0" dy="0em">Road</tspan></text></g><g class="cell" transform="translate(0, 228.0000057220459)"><path class="swatch" d="M-5,-5h10v10h-10Z" style="fill: rgb(106, 43, 74);"/><text class="label" transform="translate( 15, 5)" style="font-family: sans-serif;"><tspan x="0" dy="0em">Guyana</tspan></text></g><g class="cell" transform="translate(0, 253.3333396911621)"><path class="swatch" d="M-5,-5h10v10h-10Z" style="fill: rgb(191, 188, 180);"/><text class="label" transform="translate( 15, 5)" style="font-family: sans-serif;"><tspan x="0" dy="0em">West</tspan></text></g></g><text class="legendTitle" style="font-family: sans-serif;">exuding</text></g></g></svg>