<svg xmlns="http://www.w3.org/2000/svg" width="400" height="400"><g transform="translate(200, 200)"><text x="-31" y="-170" text-anchor="center" style="font-family: sans-serif; font-size: 25px; font-weight: bold; fill: rgb(0, 0, 0);">Won</text><path d="M-67.62965374145365,-18.061836418567307A70,70,0,0,1,-56.91348592104904,-40.753590275146955L0,0Z" fill="#0877d6" stroke="black" style="stroke-width: 2px;"/><path d="M-39.90842664650408,-57.50928170826517A70,70,0,0,1,-20.645409475792583,-66.88622479686572L0,0Z" fill="#a22798" stroke="black" style="stroke-width: 2px;"/><path d="M-49.52184186350454,49.47309550094929A70,70,0,0,1,-68.19641530181929,15.787619832697647L0,0Z" fill="#cc4a03" stroke="black" style="stroke-width: 2px;"/><path d="M-20.645409475792583,-66.88622479686572A70,70,0,0,1,-7.503128077005597e-14,-70L0,0Z" fill="#0fcf9d" stroke="black" style="stroke-width: 2px;"/><path d="M-6.608171190953382,69.68738819550532A70,70,0,0,1,-49.52184186350454,49.47309550094929L0,0Z" fill="#ffba94" stroke="black" style="stroke-width: 2px;"/><path d="M-68.19641530181929,15.787619832697647A70,70,0,0,1,-67.62965374145365,-18.061836418567307L0,0Z" fill="#fe57f6" stroke="black" style="stroke-width: 2px;"/><path d="M68.60577927646753,-13.9013326652022A70,70,0,0,1,41.36773514755955,56.468668204247265L0,0Z" fill="#aad9da" stroke="black" style="stroke-width: 2px;"/><path d="M-56.91348592104904,-40.753590275146955A70,70,0,0,1,-39.90842664650408,-57.50928170826517L0,0Z" fill="#cdaf54" stroke="black" style="stroke-width: 2px;"/><path d="M41.36773514755955,56.468668204247265A70,70,0,0,1,-6.608171190953382,69.68738819550532L0,0Z" fill="#a0682a" stroke="black" style="stroke-width: 2px;"/><path d="M4.2862637970157365e-15,-70A70,70,0,0,1,68.60577927646753,-13.9013326652022L0,0Z" fill="#bd8e29" stroke="black" style="stroke-width: 2px;"/><text transform="translate(-79.12092537415741, -37.364811894843186)" fill="#0877d6" style="text-anchor: middle; font-size: 9px;">183</text><text transform="translate(-38.29722437525666, -78.67383685286518)" fill="#a22798" style="text-anchor: middle; font-size: 9px;">156</text><text transform="translate(-76.52690330918172, 42.42502881445283)" fill="#cc4a03" style="text-anchor: middle; font-size: 9px;">283</text><text transform="translate(-13.049313446362131, -86.52147374252586)" fill="#0fcf9d" style="text-anchor: middle; font-size: 9px;">152</text><text transform="translate(-37.28687349998947, 79.15768481073573)" fill="#ffba94" style="text-anchor: middle; font-size: 9px;">351</text><text transform="translate(-87.4877373555821, -1.4648591743525299)" fill="#fe57f6" style="text-anchor: middle; font-size: 9px;">248</text><text transform="translate(81.60047223634515, 31.585011173109695)" fill="#aad9da" style="text-anchor: middle; font-size: 9px;">578</text><text transform="translate(-61.41316261549963, -62.32714863975568)" fill="#cdaf54" style="text-anchor: middle; font-size: 9px;">174</text><text transform="translate(23.242621852333674, 84.35656779071456)" fill="#a0682a" style="text-anchor: middle; font-size: 9px;">369</text><text transform="translate(55.38858970827615, -67.73739093091972)" fill="#bd8e29" style="text-anchor: middle; font-size: 9px;">696</text><g class="legendOrdinal" transform="translate(-150, -91.33333333333334)"><g class="legendCells" transform="translate(5,15.333333969116211)"><g class="cell" transform="translate(0, 0)"><path class="swatch" d="M-5,-5h10v10h-10Z" style="fill: rgb(8, 119, 214);"/><text class="label" transform="translate( 15, 5)" style="font-family: sans-serif;"><tspan x="0" dy="0em">Grant</tspan></text></g><g class="cell" transform="translate(0, 25.33333396911621)"><path class="swatch" d="M-5,-5h10v10h-10Z" style="fill: rgb(162, 39, 152);"/><text class="label" transform="translate( 15, 5)" style="font-family: sans-serif;"><tspan x="0" dy="0em">Cambridgeshire</tspan></text></g><g class="cell" transform="translate(0, 50.66666793823242)"><path class="swatch" d="M-5,-5h10v10h-10Z" style="fill: rgb(204, 74, 3);"/><text class="label" transform="translate( 15, 5)" style="font-family: sans-serif;"><tspan x="0" dy="0em">Vista</tspan></text></g><g class="cell" transform="translate(0, 76.00000190734863)"><path class="swatch" d="M-5,-5h10v10h-10Z" style="fill: rgb(15, 207, 157);"/><text class="label" transform="translate( 15, 5)" style="font-family: sans-serif;"><tspan x="0" dy="0em">Electric</tspan></text></g><g class="cell" transform="translate(0, 101.33333587646484)"><path class="swatch" d="M-5,-5h10v10h-10Z" style="fill: rgb(255, 186, 148);"/><text class="label" transform="translate( 15, 5)" style="font-family: sans-serif;"><tspan x="0" dy="0em">Jaguar</tspan></text></g><g class="cell" transform="translate(0, 126.66666984558105)"><path class="swatch" d="M-5,-5h10v10h-10Z" style="fill: rgb(254, 87, 246);"/><text class="label" transform="translate( 15, 5)" style="font-family: sans-serif;"><tspan x="0" dy="0em">Rock</tspan></text></g><g class="cell" transform="translate(0, 152.00000381469727)"><path class="swatch" d="M-5,-5h10v10h-10Z" style="fill: rgb(170, 217, 218);"/><text class="label" transform="translate( 15, 5)" style="font-family: sans-serif;"><tspan x="0" dy="0em">South</tspan></text></g><g class="cell" transform="translate(0, 177.33333778381348)"><path class="swatch" d="M-5,-5h10v10h-10Z" style="fill: rgb(205, 175, 84);"/><text class="label" transform="translate( 15, 5)" style="font-family: sans-serif;"><tspan x="0" dy="0em">Creative</tspan></text></g><g class="cell" transform="translate(0, 202.6666717529297)"><path class="swatch" d="M-5,-5h10v10h-10Z" style="fill: rgb(160, 104, 42);"/><text class="label" transform="translate( 15, 5)" style="font-family: sans-serif;"><tspan x="0" dy="0em">Diesel</tspan></text></g><g class="cell" transform="translate(0, 228.0000057220459)"><path class="swatch" d="M-5,-5h10v10h-10Z" style="fill: rgb(189, 142, 41);"/><text class="label" transform="translate( 15, 5)" style="font-family: sans-serif;"><tspan x="0" dy="0em">among</tspan></text></g></g><text class="legendTitle" style="font-family: sans-serif;">SUV</text></g></g></svg>