<svg xmlns="http://www.w3.org/2000/svg" width="400" height="400"><g transform="translate(200, 200)"><text x="22" y="-170" text-anchor="center" style="font-family: avenir; font-size: 25px; font-weight: bold; fill: rgb(0, 0, 0);">Security equally</text><path d="M-65.7784834550136,-23.941410032796774A70,70,0,0,1,-1.2858791391047208e-14,-70L-8.082668874372531e-15,-44A44,44,0,0,0,-41.346475314579976,-15.0488863063294Z" fill="#e2c37e" stroke="white" style="stroke-width: 0;"/><path d="M12.155372436685145,68.93654271085457A70,70,0,0,1,-65.7784834550136,-23.941410032796774L-41.346475314579976,-15.0488863063294A44,44,0,0,0,7.6405198173449484,43.331541132537154Z" fill="#b9f9df" stroke="white" style="stroke-width: 0;"/><path d="M4.2862637970157365e-15,-70A70,70,0,0,1,12.155372436685145,68.93654271085457L7.6405198173449484,43.331541132537154A44,44,0,0,0,2.6942229581241772e-15,-44Z" fill="#92bc7a" stroke="white" style="stroke-width: 0;"/><text transform="translate(-45.771399620813504, -65.36833313426152)" fill="#e2c37e" style="text-anchor: middle; font-size: 8px;">7</text><text transform="translate(-61.13034656089443, 51.29445125298585)" fill="#b9f9df" style="text-anchor: middle; font-size: 8px;">12</text><text transform="translate(79.49633690772129, -6.9550282712631315)" fill="#92bc7a" style="text-anchor: middle; font-size: 8px;">17</text><g class="legendOrdinal" transform="translate(-150, -28.333333333333343)"><g class="legendCells"><g class="cell" transform="translate(0, 0)"><path class="swatch" d="M-5,-5h10v10h-10Z" style="fill: rgb(226, 195, 126);"/><text class="label" transform="translate( 15, 5)" style="font-family: avenir;"><tspan x="0" dy="0em">Gasoline</tspan></text></g><g class="cell" transform="translate(0, 25.33333396911621)"><path class="swatch" d="M-5,-5h10v10h-10Z" style="fill: rgb(185, 249, 223);"/><text class="label" transform="translate( 15, 5)" style="font-family: avenir;"><tspan x="0" dy="0em">supposing</tspan></text></g><g class="cell" transform="translate(0, 50.66666793823242)"><path class="swatch" d="M-5,-5h10v10h-10Z" style="fill: rgb(146, 188, 122);"/><text class="label" transform="translate( 15, 5)" style="font-family: avenir;"><tspan x="0" dy="0em">Northeast</tspan></text></g></g></g></g></svg>