<svg xmlns="http://www.w3.org/2000/svg" width="400" height="400"><g transform="translate(200, 200)"><text x="-8" y="-170" text-anchor="center" style="font-family: sans-serif; font-size: 25px; font-weight: bold; fill: rgb(0, 0, 0);">bypassing Fountain Central</text><path d="M-62.30256865948373,31.912222398797546A70,70,0,0,1,-69.79365083336674,-5.370875473336452L-47.85850342859433,-3.682886038859281A48,48,0,0,0,-42.72176136650313,21.88266678774689Z" fill="#db70a4" stroke="black" style="stroke-width: 0;"/><path d="M-12.524266913454042,-68.87047798789087A70,70,0,0,1,-5.146652626672975,-69.8105433780626L-3.529133229718612,-47.87008688781436A48,48,0,0,0,-8.588068740654201,-47.22547062026802Z" fill="#9ffb4d" stroke="black" style="stroke-width: 0;"/><path d="M65.21860869233896,25.427014772394514A70,70,0,0,1,24.069423824358765,65.7317490773172L16.504747765274583,45.073199367303225A48,48,0,0,0,44.72133167474672,17.435667272499096Z" fill="#5fbb43" stroke="black" style="stroke-width: 0;"/><path d="M-38.80276507402641,-58.261011170506784A70,70,0,0,1,-12.524266913454042,-68.87047798789087L-8.588068740654201,-47.22547062026802A48,48,0,0,0,-26.607610336475254,-39.950407659776076Z" fill="#e7fdb3" stroke="black" style="stroke-width: 0;"/><path d="M24.069423824358765,65.7317490773172A70,70,0,0,1,-25.750471738831703,65.09157553191987L-17.657466335198883,44.634223221887915A48,48,0,0,0,16.504747765274583,45.073199367303225Z" fill="#56c48a" stroke="black" style="stroke-width: 0;"/><path d="M-25.750471738831703,65.09157553191987A70,70,0,0,1,-62.30256865948373,31.912222398797546L-42.72176136650313,21.88266678774689A48,48,0,0,0,-17.657466335198883,44.634223221887915Z" fill="#da15ed" stroke="black" style="stroke-width: 0;"/><path d="M4.2862637970157365e-15,-70A70,70,0,0,1,60.560360231743765,-35.10616425360976L41.527104158910014,-24.07279834533241A48,48,0,0,0,2.9391523179536475e-15,-48Z" fill="#cb6abd" stroke="black" style="stroke-width: 0;"/><path d="M60.560360231743765,-35.10616425360976A70,70,0,0,1,65.21860869233896,25.427014772394514L44.72133167474672,17.435667272499096A48,48,0,0,0,41.527104158910014,-24.07279834533241Z" fill="#bafa92" stroke="black" style="stroke-width: 0;"/><path d="M-60.02030295100661,-36.02170503556692A70,70,0,0,1,-38.80276507402641,-58.261011170506784L-26.607610336475254,-39.950407659776076A48,48,0,0,0,-41.15677916640453,-24.70059773867446Z" fill="#67ad48" stroke="black" style="stroke-width: 0;"/><path d="M-69.79365083336674,-5.370875473336452A70,70,0,0,1,-60.02030295100661,-36.02170503556692L-41.15677916640453,-24.70059773867446A48,48,0,0,0,-47.85850342859433,-3.682886038859281Z" fill="#e5cdb2" stroke="black" style="stroke-width: 0;"/><path d="M-5.146652626672975,-69.8105433780626A70,70,0,0,1,4.9313697987961557e-14,-70L3.381510719174507e-14,-48A48,48,0,0,0,-3.529133229718612,-47.87008688781436Z" fill="#cdcf2a" stroke="black" style="stroke-width: 0;"/><text transform="translate(-80.98153659824496, 16.27116253336285)" fill="#db70a4" style="text-anchor: middle; font-size: 7px;">471</text><text transform="translate(-10.440585059630271, -81.93750169252553)" fill="#9ffb4d" style="text-anchor: middle; font-size: 7px;">91</text><text transform="translate(57.79839581729127, 59.00936739999614)" fill="#5fbb43" style="text-anchor: middle; font-size: 7px;">726</text><text transform="translate(-30.92312083344517, -76.59321509063416)" fill="#e7fdb3" style="text-anchor: middle; font-size: 7px;">349</text><text transform="translate(-1.061302302151048, 82.59318154317248)" fill="#56c48a" style="text-anchor: middle; font-size: 7px;">623</text><text transform="translate(-55.517110832123294, 61.16052979539776)" fill="#da15ed" style="text-anchor: middle; font-size: 7px;">617</text><text transform="translate(41.23731551961867, -71.5698526527435)" fill="#cb6abd" style="text-anchor: middle; font-size: 7px;">895</text><text transform="translate(82.35650798337275, -6.337633058536986)" fill="#bafa92" style="text-anchor: middle; font-size: 7px;">768</text><text transform="translate(-59.76378348518435, -57.01798122992435)" fill="#67ad48" style="text-anchor: middle; font-size: 7px;">379</text><text transform="translate(-78.6962160728808, -25.093138022384853)" fill="#e5cdb2" style="text-anchor: middle; font-size: 7px;">397</text><text transform="translate(-3.0385817437576033, -82.54409137537648)" fill="#cdcf2a" style="text-anchor: middle; font-size: 7px;">63</text><g class="legendOrdinal" transform="translate(-197, 130)"><g class="legendCells"><g class="cell" transform="translate(0,0)"><path class="swatch" d="M-5,-5h10v10h-10Z" style="fill: rgb(219, 112, 164);"/><text class="label" transform="translate(0,&#10;          23)" style="text-anchor: middle; font-family: sans-serif;"><tspan x="0" dy="0em">calculate</tspan></text></g><g class="cell" transform="translate(50,0)"><path class="swatch" d="M-5,-5h10v10h-10Z" style="fill: rgb(159, 251, 77);"/><text class="label" transform="translate(0,&#10;          23)" style="text-anchor: middle; font-family: sans-serif;"><tspan x="0" dy="0em">Forge</tspan></text></g><g class="cell" transform="translate(100,0)"><path class="swatch" d="M-5,-5h10v10h-10Z" style="fill: rgb(95, 187, 67);"/><text class="label" transform="translate(0,&#10;          23)" style="text-anchor: middle; font-family: sans-serif;"><tspan x="0" dy="0em">Louisiana</tspan></text></g><g class="cell" transform="translate(150,0)"><path class="swatch" d="M-5,-5h10v10h-10Z" style="fill: rgb(231, 253, 179);"/><text class="label" transform="translate(0,&#10;          23)" style="text-anchor: middle; font-family: sans-serif;"><tspan x="0" dy="0em">coherent</tspan></text></g><g class="cell" transform="translate(200,0)"><path class="swatch" d="M-5,-5h10v10h-10Z" style="fill: rgb(86, 196, 138);"/><text class="label" transform="translate(0,&#10;          23)" style="text-anchor: middle; font-family: sans-serif;"><tspan x="0" dy="0em">Games</tspan></text></g><g class="cell" transform="translate(250,0)"><path class="swatch" d="M-5,-5h10v10h-10Z" style="fill: rgb(218, 21, 237);"/><text class="label" transform="translate(0,&#10;          23)" style="text-anchor: middle; font-family: sans-serif;"><tspan x="0" dy="0em">timbale</tspan></text></g><g class="cell" transform="translate(300,0)"><path class="swatch" d="M-5,-5h10v10h-10Z" style="fill: rgb(203, 106, 189);"/><text class="label" transform="translate(0,&#10;          23)" style="text-anchor: middle; font-family: sans-serif;"><tspan x="0" dy="0em">cloves</tspan></text></g><g class="cell" transform="translate(350,0)"><path class="swatch" d="M-5,-5h10v10h-10Z" style="fill: rgb(186, 250, 146);"/><text class="label" transform="translate(0,&#10;          23)" style="text-anchor: middle; font-family: sans-serif;"><tspan x="0" dy="0em">Gasoline</tspan></text></g><g class="cell" transform="translate(400,0)"><path class="swatch" d="M-5,-5h10v10h-10Z" style="fill: rgb(103, 173, 72);"/><text class="label" transform="translate(0,&#10;          23)" style="text-anchor: middle; font-family: sans-serif;"><tspan x="0" dy="0em">24/365</tspan></text></g><g class="cell" transform="translate(450,0)"><path class="swatch" d="M-5,-5h10v10h-10Z" style="fill: rgb(229, 205, 178);"/><text class="label" transform="translate(0,&#10;          23)" style="text-anchor: middle; font-family: sans-serif;"><tspan x="0" dy="0em">digital</tspan></text></g><g class="cell" transform="translate(500,0)"><path class="swatch" d="M-5,-5h10v10h-10Z" style="fill: rgb(205, 207, 42);"/><text class="label" transform="translate(0,&#10;          23)" style="text-anchor: middle; font-family: sans-serif;"><tspan x="0" dy="0em">lime</tspan></text></g></g></g></g></svg>