<svg xmlns="http://www.w3.org/2000/svg" width="400" height="400"><g transform="translate(200, 200)"><text x="-55" y="-170" text-anchor="center" style="font-family: monospace; font-size: 25px; font-weight: bold; fill: rgb(0, 0, 0);">Northeast parachute</text><path d="M-15.883876282973462,-68.17406012720083A70,70,0,0,1,-1.2858791391047208e-14,-70L0,0Z" fill="#00cd28" stroke="white" style="stroke-width: 2px;"/><path d="M4.2862637970157365e-15,-70A70,70,0,0,1,67.11032720987633,-19.904873317439947L0,0Z" fill="#d073fa" stroke="white" style="stroke-width: 2px;"/><path d="M-42.853968804038345,55.34923086857223A70,70,0,0,1,-69.53613294352282,-8.045260422181533L0,0Z" fill="#ca2fac" stroke="white" style="stroke-width: 2px;"/><path d="M38.68149603601323,58.34159634785367A70,70,0,0,1,-42.853968804038345,55.34923086857223L0,0Z" fill="#1f223c" stroke="white" style="stroke-width: 2px;"/><path d="M67.11032720987633,-19.904873317439947A70,70,0,0,1,38.68149603601323,58.34159634785367L0,0Z" fill="#ededdb" stroke="white" style="stroke-width: 2px;"/><path d="M-69.53613294352282,-8.045260422181533A70,70,0,0,1,-57.446815221585425,-39.99829272477791L0,0Z" fill="#ea22ef" stroke="white" style="stroke-width: 2px;"/><path d="M-37.04013329753788,-59.39720974339304A70,70,0,0,1,-15.883876282973462,-68.17406012720083L0,0Z" fill="#52c03c" stroke="white" style="stroke-width: 2px;"/><path d="M-57.446815221585425,-39.99829272477791A70,70,0,0,1,-37.04013329753788,-59.39720974339304L0,0Z" fill="#5c86ef" stroke="white" style="stroke-width: 2px;"/><text transform="translate(-9.992801748944304, -86.92752103451642)" fill="#00cd28" style="text-anchor: middle; font-size: 11px;">78</text><text transform="translate(52.340970954430176, -70.11899000661303)" fill="#d073fa" style="text-anchor: middle; font-size: 11px;">437</text><text transform="translate(-80.64775961908899, 33.943907677544125)" fill="#ca2fac" style="text-anchor: middle; font-size: 11px;">350</text><text transform="translate(-3.20910448966504, 87.44113247422183)" fill="#1f223c" style="text-anchor: middle; font-size: 11px;">424</text><text transform="translate(82.24016820220075, 29.879838253808018)" fill="#ededdb" style="text-anchor: middle; font-size: 11px;">434</text><text transform="translate(-81.83841119001988, -30.963275890855428)" fill="#ea22ef" style="text-anchor: middle; font-size: 11px;">168</text><text transform="translate(-33.52927762569161, -80.82102165834885)" fill="#52c03c" style="text-anchor: middle; font-size: 11px;">112</text><text transform="translate(-60.28610634258483, -63.41794211459841)" fill="#5c86ef" style="text-anchor: middle; font-size: 11px;">138</text><g class="legendOrdinal" transform="translate(-10, -140)"><g class="legendCells"><g class="cell" transform="translate(0,0)"><path class="swatch" d="M-5,-5h10v10h-10Z" style="fill: rgb(0, 205, 40);"/><text class="label" transform="translate(0,&#10;          23)" style="text-anchor: middle; font-family: monospace;"><tspan x="0" dy="0em">Versatile</tspan></text></g><g class="cell" transform="translate(50,0)"><path class="swatch" d="M-5,-5h10v10h-10Z" style="fill: rgb(208, 115, 250);"/><text class="label" transform="translate(0,&#10;          23)" style="text-anchor: middle; font-family: monospace;"><tspan x="0" dy="0em">candelabra</tspan></text></g><g class="cell" transform="translate(100,0)"><path class="swatch" d="M-5,-5h10v10h-10Z" style="fill: rgb(202, 47, 172);"/><text class="label" transform="translate(0,&#10;          23)" style="text-anchor: middle; font-family: monospace;"><tspan x="0" dy="0em">Extensions</tspan></text></g><g class="cell" transform="translate(150,0)"><path class="swatch" d="M-5,-5h10v10h-10Z" style="fill: rgb(31, 34, 60);"/><text class="label" transform="translate(0,&#10;          23)" style="text-anchor: middle; font-family: monospace;"><tspan x="0" dy="0em">calculate</tspan></text></g><g class="cell" transform="translate(200,0)"><path class="swatch" d="M-5,-5h10v10h-10Z" style="fill: rgb(237, 237, 219);"/><text class="label" transform="translate(0,&#10;          23)" style="text-anchor: middle; font-family: monospace;"><tspan x="0" dy="0em">Architect</tspan></text></g><g class="cell" transform="translate(250,0)"><path class="swatch" d="M-5,-5h10v10h-10Z" style="fill: rgb(234, 34, 239);"/><text class="label" transform="translate(0,&#10;          23)" style="text-anchor: middle; font-family: monospace;"><tspan x="0" dy="0em">Movies</tspan></text></g><g class="cell" transform="translate(300,0)"><path class="swatch" d="M-5,-5h10v10h-10Z" style="fill: rgb(82, 192, 60);"/><text class="label" transform="translate(0,&#10;          23)" style="text-anchor: middle; font-family: monospace;"><tspan x="0" dy="0em">syndicate</tspan></text></g><g class="cell" transform="translate(350,0)"><path class="swatch" d="M-5,-5h10v10h-10Z" style="fill: rgb(92, 134, 239);"/><text class="label" transform="translate(0,&#10;          23)" style="text-anchor: middle; font-family: monospace;"><tspan x="0" dy="0em">synthesize</tspan></text></g></g></g></g></svg>