<svg xmlns="http://www.w3.org/2000/svg" width="400" height="400"><g transform="translate(200, 200)"><text x="-42" y="-170" text-anchor="center" style="font-family: monospace; font-size: 25px; font-weight: bold; fill: rgb(0, 0, 0);">Xenogender</text><path d="M-65.63026005905776,24.344793377238766A70,70,0,0,1,-23.82599123828788,-65.8203778590873L0,0Z" fill="#ebacbc" stroke="white" style="stroke-width: 2px;"/><path d="M45.65014629806308,53.066601011987174A70,70,0,0,1,-65.63026005905776,24.344793377238766L0,0Z" fill="#feb2ed" stroke="white" style="stroke-width: 2px;"/><path d="M4.2862637970157365e-15,-70A70,70,0,0,1,45.65014629806308,53.066601011987174L0,0Z" fill="#81609a" stroke="white" style="stroke-width: 2px;"/><path d="M-23.82599123828788,-65.8203778590873A70,70,0,0,1,-1.2858791391047208e-14,-70L0,0Z" fill="#cdb0a4" stroke="white" style="stroke-width: 2px;"/><text transform="translate(-79.38282195772962, -36.80512977870614)" fill="#ebacbc" style="text-anchor: middle; font-size: 8px;">50</text><text transform="translate(-21.86738420740199, 84.72347672236937)" fill="#feb2ed" style="text-anchor: middle; font-size: 8px;">61</text><text transform="translate(82.0378250738222, -30.430991721548462)" fill="#81609a" style="text-anchor: middle; font-size: 8px;">77</text><text transform="translate(-15.118633728983706, -86.18397132975966)" fill="#cdb0a4" style="text-anchor: middle; font-size: 8px;">11</text><g class="legendOrdinal" transform="translate(-150, -116.33333333333334)"><g class="legendCells"><g class="cell" transform="translate(0, 0)"><path class="swatch" d="M-5,-5h10v10h-10Z" style="fill: rgb(235, 172, 188);"/><text class="label" transform="translate( 15, 5)" style="font-family: monospace;"><tspan x="0" dy="0em">transmitter</tspan></text></g><g class="cell" transform="translate(0, 25.33333396911621)"><path class="swatch" d="M-5,-5h10v10h-10Z" style="fill: rgb(254, 178, 237);"/><text class="label" transform="translate( 15, 5)" style="font-family: monospace;"><tspan x="0" dy="0em">silver</tspan></text></g><g class="cell" transform="translate(0, 50.66666793823242)"><path class="swatch" d="M-5,-5h10v10h-10Z" style="fill: rgb(129, 96, 154);"/><text class="label" transform="translate( 15, 5)" style="font-family: monospace;"><tspan x="0" dy="0em">Northeast</tspan></text></g><g class="cell" transform="translate(0, 76.00000190734863)"><path class="swatch" d="M-5,-5h10v10h-10Z" style="fill: rgb(205, 176, 164);"/><text class="label" transform="translate( 15, 5)" style="font-family: monospace;"><tspan x="0" dy="0em">lumen</tspan></text></g></g></g></g></svg>