<svg xmlns="http://www.w3.org/2000/svg" width="400" height="400"><g transform="translate(200, 200)"><text x="29" y="-170" text-anchor="center" style="font-family: Balto; font-size: 25px; font-weight: bold; fill: rgb(0, 0, 0);">Internal</text><path d="M-48.69777854224404,-50.28445450684094A70,70,0,0,1,-26.26869034155616,-64.88417301422153L-13.13434517077808,-32.442086507110766A35,35,0,0,0,-24.34888927112202,-25.14222725342047Z" fill="#9caaf0" stroke="white" style="stroke-width: 0;"/><path d="M-26.26869034155616,-64.88417301422153A70,70,0,0,1,-8.951401317915398,-69.42530096762724L-4.475700658957699,-34.71265048381362A35,35,0,0,0,-13.13434517077808,-32.442086507110766Z" fill="#db9adf" stroke="white" style="stroke-width: 0;"/><path d="M4.2862637970157365e-15,-70A70,70,0,0,1,69.10272483901151,-11.171992652336547L34.55136241950576,-5.5859963261682735A35,35,0,0,0,2.1431318985078682e-15,-35Z" fill="#1bfcc8" stroke="white" style="stroke-width: 0;"/><path d="M-8.951401317915398,-69.42530096762724A70,70,0,0,1,4.9313697987961557e-14,-70L2.4656848993980778e-14,-35A35,35,0,0,0,-4.475700658957699,-34.71265048381362Z" fill="#ca4634" stroke="white" style="stroke-width: 0;"/><path d="M30.37186173822907,63.06782075316934A70,70,0,0,1,-45.375987671545175,53.30121708583942L-22.687993835772588,26.65060854291971A35,35,0,0,0,15.185930869114536,31.53391037658467Z" fill="#515cae" stroke="white" style="stroke-width: 0;"/><path d="M-69.1027248390115,-11.171992652336554A70,70,0,0,1,-48.69777854224404,-50.28445450684094L-24.34888927112202,-25.14222725342047A35,35,0,0,0,-34.55136241950575,-5.585996326168277Z" fill="#d7caba" stroke="white" style="stroke-width: 0;"/><path d="M-45.375987671545175,53.30121708583942A70,70,0,0,1,-69.1027248390115,-11.171992652336554L-34.55136241950575,-5.585996326168277A35,35,0,0,0,-22.687993835772588,26.65060854291971Z" fill="#c5080d" stroke="white" style="stroke-width: 0;"/><path d="M69.10272483901151,-11.171992652336547A70,70,0,0,1,30.37186173822907,63.06782075316934L15.185930869114536,31.53391037658467A35,35,0,0,0,34.55136241950576,-5.5859963261682735Z" fill="#66bfbe" stroke="white" style="stroke-width: 0;"/><text transform="translate(-40.0968152389753, -61.5994757095503)" fill="#9caaf0" style="text-anchor: middle; font-size: 8px;">3</text><text transform="translate(-18.643611917348732, -71.09617243336868)" fill="#db9adf" style="text-anchor: middle; font-size: 8px;">2</text><text transform="translate(47.64478705512244, -55.96627794013138)" fill="#1bfcc8" style="text-anchor: middle; font-size: 8px;">11</text><text transform="translate(-4.709161168582394, -73.34898636714972)" fill="#ca4634" style="text-anchor: middle; font-size: 8px;">1</text><text transform="translate(-9.398971383811181, 72.89656601600858)" fill="#515cae" style="text-anchor: middle; font-size: 8px;">9</text><text transform="translate(-65.16504901841549, -33.99656433270143)" fill="#d7caba" style="text-anchor: middle; font-size: 8px;">5</text><text transform="translate(-68.9774290206574, 25.384331499966084)" fill="#c5080d" style="text-anchor: middle; font-size: 8px;">8</text><text transform="translate(65.1650490184155, 33.99656433270138)" fill="#66bfbe" style="text-anchor: middle; font-size: 8px;">10</text><g class="legendOrdinal" transform="translate(-58, -140)"><g class="legendCells" transform="translate(17.50520896911621,15.333333969116211)"><g class="cell" transform="translate(0,0)"><path class="swatch" d="M-5,-5h10v10h-10Z" style="fill: rgb(156, 170, 240);"/><text class="label" transform="translate(0,&#10;          23)" style="text-anchor: middle; font-family: Balto;"><tspan x="0" dy="0em">alarm</tspan></text></g><g class="cell" transform="translate(50,0)"><path class="swatch" d="M-5,-5h10v10h-10Z" style="fill: rgb(219, 154, 223);"/><text class="label" transform="translate(0,&#10;          23)" style="text-anchor: middle; font-family: Balto;"><tspan x="0" dy="0em">artificial</tspan></text></g><g class="cell" transform="translate(100,0)"><path class="swatch" d="M-5,-5h10v10h-10Z" style="fill: rgb(27, 252, 200);"/><text class="label" transform="translate(0,&#10;          23)" style="text-anchor: middle; font-family: Balto;"><tspan x="0" dy="0em">Practical</tspan></text></g><g class="cell" transform="translate(150,0)"><path class="swatch" d="M-5,-5h10v10h-10Z" style="fill: rgb(202, 70, 52);"/><text class="label" transform="translate(0,&#10;          23)" style="text-anchor: middle; font-family: Balto;"><tspan x="0" dy="0em">meter</tspan></text></g><g class="cell" transform="translate(200,0)"><path class="swatch" d="M-5,-5h10v10h-10Z" style="fill: rgb(81, 92, 174);"/><text class="label" transform="translate(0,&#10;          23)" style="text-anchor: middle; font-family: Balto;"><tspan x="0" dy="0em">officia</tspan></text></g><g class="cell" transform="translate(250,0)"><path class="swatch" d="M-5,-5h10v10h-10Z" style="fill: rgb(215, 202, 186);"/><text class="label" transform="translate(0,&#10;          23)" style="text-anchor: middle; font-family: Balto;"><tspan x="0" dy="0em">Canadian</tspan></text></g><g class="cell" transform="translate(300,0)"><path class="swatch" d="M-5,-5h10v10h-10Z" style="fill: rgb(197, 8, 13);"/><text class="label" transform="translate(0,&#10;          23)" style="text-anchor: middle; font-family: Balto;"><tspan x="0" dy="0em">Lakes</tspan></text></g><g class="cell" transform="translate(350,0)"><path class="swatch" d="M-5,-5h10v10h-10Z" style="fill: rgb(102, 191, 190);"/><text class="label" transform="translate(0,&#10;          23)" style="text-anchor: middle; font-family: Balto;"><tspan x="0" dy="0em">Grocery</tspan></text></g></g><text class="legendTitle" style="font-family: Balto;">magenta</text></g></g></svg>