<svg xmlns="http://www.w3.org/2000/svg" width="400" height="400"><g transform="translate(200, 200)"><text x="-38" y="-170" text-anchor="center" style="font-family: avenir; font-size: 25px; font-weight: bold; fill: rgb(0, 0, 0);">Egyptian descriptive phooey</text><path d="M-24.671158369623345,-65.50827386445901A70,70,0,0,1,-5.59685989010506,-69.77589239393885L0,0Z" fill="#fe52f7" stroke="black" style="stroke-width: 0;"/><path d="M20.69658999806295,66.87040572968046A70,70,0,0,1,-46.17614282944931,-52.60954127717041L0,0Z" fill="#fb06d4" stroke="black" style="stroke-width: 0;"/><path d="M4.2862637970157365e-15,-70A70,70,0,0,1,20.69658999806295,66.87040572968046L0,0Z" fill="#dfaecc" stroke="black" style="stroke-width: 0;"/><path d="M-46.17614282944931,-52.60954127717041A70,70,0,0,1,-24.671158369623345,-65.50827386445901L0,0Z" fill="#dcb10b" stroke="black" style="stroke-width: 0;"/><path d="M-5.59685989010506,-69.77589239393885A70,70,0,0,1,-1.2858791391047208e-14,-70L0,0Z" fill="#cb503f" stroke="black" style="stroke-width: 0;"/><text transform="translate(-19.10462044576451, -85.38889551705934)" fill="#fe52f7" style="text-anchor: middle; font-size: 10px;">7</text><text transform="translate(-76.35409224167178, 42.73526176297832)" fill="#fb06d4" style="text-anchor: middle; font-size: 10px;">68</text><text transform="translate(86.5164742308764, -13.082418991077297)" fill="#dfaecc" style="text-anchor: middle; font-size: 10px;">71</text><text transform="translate(-45.00745333045586, -75.0371850798445)" fill="#dcb10b" style="text-anchor: middle; font-size: 10px;">9</text><text transform="translate(-3.5008405714155333, -87.42993832374316)" fill="#cb503f" style="text-anchor: middle; font-size: 10px;">2</text><g class="legendOrdinal" transform="translate(130, 55.66666666666666)"><g class="legendCells" transform="translate(5,15.333333969116211)"><g class="cell" transform="translate(0, 0)"><path class="swatch" d="M-5,-5h10v10h-10Z" style="fill: rgb(254, 82, 247);"/><text class="label" transform="translate( 15, 5)" style="font-family: avenir;"><tspan x="0" dy="0em">Account</tspan></text></g><g class="cell" transform="translate(0, 25.33333396911621)"><path class="swatch" d="M-5,-5h10v10h-10Z" style="fill: rgb(251, 6, 212);"/><text class="label" transform="translate( 15, 5)" style="font-family: avenir;"><tspan x="0" dy="0em">female</tspan></text></g><g class="cell" transform="translate(0, 50.66666793823242)"><path class="swatch" d="M-5,-5h10v10h-10Z" style="fill: rgb(223, 174, 204);"/><text class="label" transform="translate( 15, 5)" style="font-family: avenir;"><tspan x="0" dy="0em">West</tspan></text></g><g class="cell" transform="translate(0, 76.00000190734863)"><path class="swatch" d="M-5,-5h10v10h-10Z" style="fill: rgb(220, 177, 11);"/><text class="label" transform="translate( 15, 5)" style="font-family: avenir;"><tspan x="0" dy="0em">Manager</tspan></text></g><g class="cell" transform="translate(0, 101.33333587646484)"><path class="swatch" d="M-5,-5h10v10h-10Z" style="fill: rgb(203, 80, 63);"/><text class="label" transform="translate( 15, 5)" style="font-family: avenir;"><tspan x="0" dy="0em">Intranet</tspan></text></g></g><text class="legendTitle" style="font-family: avenir;">Corporate</text></g></g></svg>