<svg xmlns="http://www.w3.org/2000/svg" width="400" height="400"><g transform="translate(200, 200)"><text x="-25" y="-170" text-anchor="center" style="font-family: serif; font-size: 25px; font-weight: bold; fill: rgb(0, 0, 0);">West</text><path d="M-53.190990093683894,45.50514886091047A70,70,0,0,1,-66.83777992453574,-20.80171086135293L0,0Z" fill="#9bafe7" stroke="black" style="stroke-width: 0;"/><path d="M28.81417131768378,63.79454154765257A70,70,0,0,1,-53.190990093683894,45.50514886091047L0,0Z" fill="#5eff1b" stroke="black" style="stroke-width: 0;"/><path d="M-38.663455832625935,-58.35355330293592A70,70,0,0,1,-1.2858791391047208e-14,-70L0,0Z" fill="#a8ecae" stroke="black" style="stroke-width: 0;"/><path d="M68.56293692352045,-14.111119035050192A70,70,0,0,1,28.81417131768378,63.79454154765257L0,0Z" fill="#a2da06" stroke="black" style="stroke-width: 0;"/><path d="M-66.83777992453574,-20.80171086135293A70,70,0,0,1,-38.663455832625935,-58.35355330293592L0,0Z" fill="#eac4b8" stroke="black" style="stroke-width: 0;"/><path d="M4.2862637970157365e-15,-70A70,70,0,0,1,68.56293692352045,-14.111119035050192L0,0Z" fill="#cdecaf" stroke="black" style="stroke-width: 0;"/><text transform="translate(-85.70367115440057, 17.638898793812714)" fill="#9bafe7" style="text-anchor: middle; font-size: 10px;">276</text><text transform="translate(-19.0469319470827, 85.40178208564035)" fill="#5eff1b" style="text-anchor: middle; font-size: 10px;">352</text><text transform="translate(-25.237176025571692, -83.78147137795033)" fill="#a8ecae" style="text-anchor: middle; font-size: 10px;">160</text><text transform="translate(77.94126685024618, 39.76693251658614)" fill="#a2da06" style="text-anchor: middle; font-size: 10px;">369</text><text transform="translate(-69.9906567900921, -52.5124553043517)" fill="#eac4b8" style="text-anchor: middle; font-size: 10px;">187</text><text transform="translate(55.28492722045216, -67.82202313577285)" fill="#cdecaf" style="text-anchor: middle; font-size: 10px;">374</text><g class="legendOrdinal" transform="translate(-104, 130)"><g class="legendCells"><g class="cell" transform="translate(0,0)"><path class="swatch" d="M-5,-5h10v10h-10Z" style="fill: rgb(155, 175, 231);"/><text class="label" transform="translate(0,&#10;          23)" style="text-anchor: middle; font-family: serif;"><tspan x="0" dy="0em">Mali</tspan></text></g><g class="cell" transform="translate(50,0)"><path class="swatch" d="M-5,-5h10v10h-10Z" style="fill: rgb(94, 255, 27);"/><text class="label" transform="translate(0,&#10;          23)" style="text-anchor: middle; font-family: serif;"><tspan x="0" dy="0em">Representative</tspan></text></g><g class="cell" transform="translate(100,0)"><path class="swatch" d="M-5,-5h10v10h-10Z" style="fill: rgb(168, 236, 174);"/><text class="label" transform="translate(0,&#10;          23)" style="text-anchor: middle; font-family: serif;"><tspan x="0" dy="0em">Personal</tspan></text></g><g class="cell" transform="translate(150,0)"><path class="swatch" d="M-5,-5h10v10h-10Z" style="fill: rgb(162, 218, 6);"/><text class="label" transform="translate(0,&#10;          23)" style="text-anchor: middle; font-family: serif;"><tspan x="0" dy="0em">Bicycle</tspan></text></g><g class="cell" transform="translate(200,0)"><path class="swatch" d="M-5,-5h10v10h-10Z" style="fill: rgb(234, 196, 184);"/><text class="label" transform="translate(0,&#10;          23)" style="text-anchor: middle; font-family: serif;"><tspan x="0" dy="0em">New</tspan></text></g><g class="cell" transform="translate(250,0)"><path class="swatch" d="M-5,-5h10v10h-10Z" style="fill: rgb(205, 236, 175);"/><text class="label" transform="translate(0,&#10;          23)" style="text-anchor: middle; font-family: serif;"><tspan x="0" dy="0em">mobile</tspan></text></g></g></g></g></svg>