<svg xmlns="http://www.w3.org/2000/svg" width="400" height="400"><g transform="translate(200, 200)"><text x="9" y="-170" text-anchor="center" style="font-family: Balto; font-size: 25px; font-weight: bold; fill: rgb(0, 0, 0);">Illinois Fermium</text><path d="M4.2862637970157365e-15,-70A70,70,0,1,1,-30.371861738229065,63.06782075316934L0,0Z" fill="#f75e01" stroke="white" style="stroke-width: 0;"/><path d="M-30.371861738229065,63.06782075316934A70,70,0,0,1,-54.72820377276209,-43.64428613011134L0,0Z" fill="#6a9dfc" stroke="white" style="stroke-width: 0;"/><path d="M-54.72820377276209,-43.64428613011134A70,70,0,0,1,-1.2858791391047208e-14,-70L0,0Z" fill="#afafbb" stroke="white" style="stroke-width: 0;"/><text transform="translate(85.30619231590956, 19.47058172117751)" fill="#f75e01" style="text-anchor: middle; font-size: 14px;">8</text><text transform="translate(-85.30619231590956, 19.47058172117752)" fill="#6a9dfc" style="text-anchor: middle; font-size: 14px;">4</text><text transform="translate(-37.96482717278635, -78.83477594146166)" fill="#afafbb" style="text-anchor: middle; font-size: 14px;">2</text><g class="legendOrdinal" transform="translate(-150, -100.33333333333334)"><g class="legendCells"><g class="cell" transform="translate(0, 0)"><path class="swatch" d="M-5,-5h10v10h-10Z" style="fill: rgb(247, 94, 1);"/><text class="label" transform="translate( 15, 5)" style="font-family: Balto;"><tspan x="0" dy="0em">loud</tspan></text></g><g class="cell" transform="translate(0, 25.33333396911621)"><path class="swatch" d="M-5,-5h10v10h-10Z" style="fill: rgb(106, 157, 252);"/><text class="label" transform="translate( 15, 5)" style="font-family: Balto;"><tspan x="0" dy="0em">Oriental</tspan></text></g><g class="cell" transform="translate(0, 50.66666793823242)"><path class="swatch" d="M-5,-5h10v10h-10Z" style="fill: rgb(175, 175, 187);"/><text class="label" transform="translate( 15, 5)" style="font-family: Balto;"><tspan x="0" dy="0em">Laguna</tspan></text></g></g></g></g></svg>