<svg xmlns="http://www.w3.org/2000/svg" width="400" height="400"><g transform="translate(200, 200)"><text x="-35" y="-170" text-anchor="center" style="font-family: Balto; font-size: 25px; font-weight: bold; fill: rgb(0, 0, 0);">Human</text><path d="M-51.86300840074239,47.01306583945068A70,70,0,0,1,-65.29832848572357,-25.221583950468744L-29.850664450616488,-11.529866948785712A32,32,0,0,0,-23.708803840339378,21.49168724089174Z" fill="#df534a" stroke="white" style="stroke-width: 0;"/><path d="M-13.746689657239608,-68.63693264903046A70,70,0,0,1,-5.4384290732356,-69.78841944918503L-2.486139004907703,-31.90327746248458A32,32,0,0,0,-6.284200986166678,-31.376883496699634Z" fill="#6c1e86" stroke="white" style="stroke-width: 0;"/><path d="M22.180551159975973,66.39294503363809A70,70,0,0,1,-51.86300840074239,47.01306583945068L-23.708803840339378,21.49168724089174A32,32,0,0,0,10.139680530274731,30.351060586805982Z" fill="#cfefda" stroke="white" style="stroke-width: 0;"/><path d="M-36.83323331496295,-59.52573328876767A70,70,0,0,1,-13.746689657239608,-68.63693264903046L-6.284200986166678,-31.376883496699634A32,32,0,0,0,-16.838049515411637,-27.211763789150933Z" fill="#4bdd15" stroke="white" style="stroke-width: 0;"/><path d="M69.47692440934264,-8.541485504201711A70,70,0,0,1,22.180551159975973,66.39294503363809L10.139680530274731,30.351060586805982A32,32,0,0,0,31.76087972998521,-3.904679087635068Z" fill="#e9a7bf" stroke="white" style="stroke-width: 0;"/><path d="M4.2862637970157365e-15,-70A70,70,0,0,1,69.47692440934264,-8.541485504201711L31.76087972998521,-3.904679087635068A32,32,0,0,0,1.959434878635765e-15,-32Z" fill="#de7eba" stroke="white" style="stroke-width: 0;"/><path d="M-65.29832848572357,-25.221583950468744A70,70,0,0,1,-36.83323331496295,-59.52573328876767L-16.838049515411637,-27.211763789150933A32,32,0,0,0,-29.850664450616488,-11.529866948785712Z" fill="#e9a7bf" stroke="white" style="stroke-width: 0;"/><path d="M-5.4384290732356,-69.78841944918503A70,70,0,0,1,4.9313697987961557e-14,-70L2.254340479449671e-14,-32A32,32,0,0,0,-2.486139004907703,-31.90327746248458Z" fill="#37fd8d" stroke="white" style="stroke-width: 0;"/><text transform="translate(-70.19612930985696, 13.056164441130482)" fill="#df534a" style="text-anchor: middle; font-size: 10px;">341</text><text transform="translate(-9.802018268404206, -70.72397357237409)" fill="#6c1e86" style="text-anchor: middle; font-size: 10px;">37</text><text transform="translate(-18.0789639916302, 69.07322969855498)" fill="#cfefda" style="text-anchor: middle; font-size: 10px;">357</text><text transform="translate(-26.210936654130254, -66.41495915615073)" fill="#4bdd15" style="text-anchor: middle; font-size: 10px;">110</text><text transform="translate(60.379049927860954, 38.10945197465942)" fill="#e9a7bf" style="text-anchor: middle; font-size: 10px;">423</text><text transform="translate(47.30697989567712, -53.479058080242964)" fill="#de7eba" style="text-anchor: middle; font-size: 10px;">447</text><text transform="translate(-54.94674433715275, -45.59402687576051)" fill="#e9a7bf" style="text-anchor: middle; font-size: 10px;">200</text><text transform="translate(-2.7756970615282555, -71.34602655945615)" fill="#37fd8d" style="text-anchor: middle; font-size: 10px;">24</text><g class="legendOrdinal" transform="translate(-198, 130)"><g class="legendCells" transform="translate(9.734375,15.333333969116211)"><g class="cell" transform="translate(0,0)"><path class="swatch" d="M-5,-5h10v10h-10Z" style="fill: rgb(223, 83, 74);"/><text class="label" transform="translate(0,&#10;          23)" style="text-anchor: middle; font-family: Balto;"><tspan x="0" dy="0em">tan</tspan></text></g><g class="cell" transform="translate(50,0)"><path class="swatch" d="M-5,-5h10v10h-10Z" style="fill: rgb(108, 30, 134);"/><text class="label" transform="translate(0,&#10;          23)" style="text-anchor: middle; font-family: Balto;"><tspan x="0" dy="0em">Directives</tspan></text></g><g class="cell" transform="translate(100,0)"><path class="swatch" d="M-5,-5h10v10h-10Z" style="fill: rgb(207, 239, 218);"/><text class="label" transform="translate(0,&#10;          23)" style="text-anchor: middle; font-family: Balto;"><tspan x="0" dy="0em">sensor</tspan></text></g><g class="cell" transform="translate(150,0)"><path class="swatch" d="M-5,-5h10v10h-10Z" style="fill: rgb(75, 221, 21);"/><text class="label" transform="translate(0,&#10;          23)" style="text-anchor: middle; font-family: Balto;"><tspan x="0" dy="0em">Hermaphrodite</tspan></text></g><g class="cell" transform="translate(200,0)"><path class="swatch" d="M-5,-5h10v10h-10Z" style="fill: rgb(233, 167, 191);"/><text class="label" transform="translate(0,&#10;          23)" style="text-anchor: middle; font-family: Balto;"><tspan x="0" dy="0em">East</tspan></text></g><g class="cell" transform="translate(250,0)"><path class="swatch" d="M-5,-5h10v10h-10Z" style="fill: rgb(222, 126, 186);"/><text class="label" transform="translate(0,&#10;          23)" style="text-anchor: middle; font-family: Balto;"><tspan x="0" dy="0em">female</tspan></text></g><g class="cell" transform="translate(300,0)"><path class="swatch" d="M-5,-5h10v10h-10Z" style="fill: rgb(55, 253, 141);"/><text class="label" transform="translate(0,&#10;          23)" style="text-anchor: middle; font-family: Balto;"><tspan x="0" dy="0em">Programmable</tspan></text></g></g><text class="legendTitle" style="font-family: Balto;">Hybrid</text></g></g></svg>