<svg xmlns="http://www.w3.org/2000/svg" width="400" height="400"><g transform="translate(200, 200)"><text x="-81" y="-170" text-anchor="center" style="font-family: serif; font-size: 25px; font-weight: bold; fill: rgb(0, 0, 0);">Wooden Intranet West</text><path d="M-4.166071583700615,69.87591750781868A70,70,0,0,1,-68.30395122342419,15.315686313975274L-32.20043414818569,7.220252119445486A33,33,0,0,0,-1.9640051751731469,32.94150396797167Z" fill="#1ee16e" stroke="black" style="stroke-width: 2px;"/><path d="M-56.65618122429336,-41.11054766212714A70,70,0,0,1,-9.161433312658906,-69.39789722792545L-4.318961418824912,-32.716151550307714A33,33,0,0,0,-26.709342577166872,-19.380686755002795Z" fill="#779fca" stroke="black" style="stroke-width: 2px;"/><path d="M4.2862637970157365e-15,-70A70,70,0,0,1,67.700279829137,17.795283393544093L31.915846205164588,8.389205028385073A33,33,0,0,0,2.0206672185931327e-15,-33Z" fill="#0dafcb" stroke="black" style="stroke-width: 2px;"/><path d="M-9.161433312658906,-69.39789722792545A70,70,0,0,1,-1.2858791391047208e-14,-70L-6.062001655779398e-15,-33A33,33,0,0,0,-4.318961418824912,-32.716151550307714Z" fill="#8c2943" stroke="black" style="stroke-width: 2px;"/><path d="M-68.30395122342419,15.315686313975274A70,70,0,0,1,-56.65618122429336,-41.11054766212714L-26.709342577166872,-19.380686755002795A33,33,0,0,0,-32.20043414818569,7.220252119445486Z" fill="#ac2bb8" stroke="black" style="stroke-width: 2px;"/><path d="M67.700279829137,17.795283393544093A70,70,0,0,1,-4.166071583700615,69.87591750781868L-1.9640051751731469,32.94150396797167A33,33,0,0,0,31.915846205164588,8.389205028385073Z" fill="#b72fce" stroke="black" style="stroke-width: 2px;"/><text transform="translate(-46.716839218681386, 54.91763772610646)" fill="#1ee16e" style="text-anchor: middle; font-size: 8px;">531</text><text transform="translate(-36.89403542510617, -61.94546109321497)" fill="#779fca" style="text-anchor: middle; font-size: 8px;">334</text><text transform="translate(57.09615193099602, -44.02771212171508)" fill="#0dafcb" style="text-anchor: middle; font-size: 8px;">752</text><text transform="translate(-4.72831672810589, -71.94479147873537)" fill="#8c2943" style="text-anchor: middle; font-size: 8px;">54</text><text transform="translate(-70.61127904967707, -14.575914069746538)" fill="#ac2bb8" style="text-anchor: middle; font-size: 8px;">349</text><text transform="translate(42.308395858289735, 58.38158647979902)" fill="#b72fce" style="text-anchor: middle; font-size: 8px;">565</text><g class="legendOrdinal" transform="translate(130, -110.33333333333334)"><g class="legendCells" transform="translate(5,15.333333969116211)"><g class="cell" transform="translate(0, 0)"><path class="swatch" d="M-5,-5h10v10h-10Z" style="fill: rgb(30, 225, 110);"/><text class="label" transform="translate( 15, 5)" style="font-family: serif;"><tspan x="0" dy="0em">Herzegovina</tspan></text></g><g class="cell" transform="translate(0, 25.33333396911621)"><path class="swatch" d="M-5,-5h10v10h-10Z" style="fill: rgb(119, 159, 202);"/><text class="label" transform="translate( 15, 5)" style="font-family: serif;"><tspan x="0" dy="0em">jealous</tspan></text></g><g class="cell" transform="translate(0, 50.66666793823242)"><path class="swatch" d="M-5,-5h10v10h-10Z" style="fill: rgb(13, 175, 203);"/><text class="label" transform="translate( 15, 5)" style="font-family: serif;"><tspan x="0" dy="0em">strategic</tspan></text></g><g class="cell" transform="translate(0, 76.00000190734863)"><path class="swatch" d="M-5,-5h10v10h-10Z" style="fill: rgb(140, 41, 67);"/><text class="label" transform="translate( 15, 5)" style="font-family: serif;"><tspan x="0" dy="0em">Executive</tspan></text></g><g class="cell" transform="translate(0, 101.33333587646484)"><path class="swatch" d="M-5,-5h10v10h-10Z" style="fill: rgb(172, 43, 184);"/><text class="label" transform="translate( 15, 5)" style="font-family: serif;"><tspan x="0" dy="0em">Pop</tspan></text></g><g class="cell" transform="translate(0, 126.66666984558105)"><path class="swatch" d="M-5,-5h10v10h-10Z" style="fill: rgb(183, 47, 206);"/><text class="label" transform="translate( 15, 5)" style="font-family: serif;"><tspan x="0" dy="0em">Technician</tspan></text></g></g><text class="legendTitle" style="font-family: serif;">upon</text></g></g></svg>