<svg xmlns="http://www.w3.org/2000/svg" width="400" height="400"><g transform="translate(200, 200)"><text x="-78" y="-170" text-anchor="center" style="font-family: avenir; font-size: 25px; font-weight: bold; fill: rgb(0, 0, 0);">coulomb Auto</text><path d="M-37.20448669307222,59.29440251748062A70,70,0,0,1,-69.59612285922935,7.508640553592469L0,0Z" fill="#38fdbf" stroke="black" style="stroke-width: 2px;"/><path d="M-37.81470293311529,-58.90711537734845A70,70,0,0,1,-15.123153059650333,-68.34683783127343L0,0Z" fill="#6bac74" stroke="black" style="stroke-width: 2px;"/><path d="M38.09074522906538,58.72899733431886A70,70,0,0,1,-37.20448669307222,59.29440251748062L0,0Z" fill="#7db39c" stroke="black" style="stroke-width: 2px;"/><path d="M-15.123153059650333,-68.34683783127343A70,70,0,0,1,-1.2858791391047208e-14,-70L0,0Z" fill="#dc941a" stroke="black" style="stroke-width: 2px;"/><path d="M-69.59612285922935,7.508640553592469A70,70,0,0,1,-57.91151588171457,-39.322465948639596L0,0Z" fill="#faf12e" stroke="black" style="stroke-width: 2px;"/><path d="M-57.91151588171457,-39.322465948639596A70,70,0,0,1,-37.81470293311529,-58.90711537734845L0,0Z" fill="#f5ba99" stroke="black" style="stroke-width: 2px;"/><path d="M4.2862637970157365e-15,-70A70,70,0,0,1,67.46665150242096,-18.661482659501637L0,0Z" fill="#2a94bc" stroke="black" style="stroke-width: 2px;"/><path d="M67.46665150242096,-18.661482659501637A70,70,0,0,1,38.09074522906538,58.72899733431886L0,0Z" fill="#c6034f" stroke="black" style="stroke-width: 2px;"/><text transform="translate(-74.18340696092051, 46.4012082996817)" fill="#38fdbf" style="text-anchor: middle; font-size: 13px;">481</text><text transform="translate(-33.60806356180299, -80.78829162462719)" fill="#6bac74" style="text-anchor: middle; font-size: 13px;">188</text><text transform="translate(0.6570344162429574, 87.49753314108845)" fill="#7db39c" style="text-anchor: middle; font-size: 13px;">605</text><text transform="translate(-9.508275663980049, -86.98185266995503)" fill="#dc941a" style="text-anchor: middle; font-size: 13px;">116</text><text transform="translate(-84.89734258925061, -21.182332763022416)" fill="#faf12e" style="text-anchor: middle; font-size: 13px;">375</text><text transform="translate(-61.06818506618143, -62.66519586439202)" fill="#f5ba99" style="text-anchor: middle; font-size: 13px;">215</text><text transform="translate(52.98655647481259, -69.63242659093173)" fill="#2a94bc" style="text-anchor: middle; font-size: 13px;">693</text><text transform="translate(81.80495667669479, 31.051554922806808)" fill="#c6034f" style="text-anchor: middle; font-size: 13px;">674</text><g class="legendOrdinal" transform="translate(-150, 46.66666666666666)"><g class="legendCells"><g class="cell" transform="translate(0, 0)"><path class="swatch" d="M-5,-5h10v10h-10Z" style="fill: rgb(56, 253, 191);"/><text class="label" transform="translate( 15, 5)" style="font-family: avenir;"><tspan x="0" dy="0em">Electric</tspan></text></g><g class="cell" transform="translate(0, 25.33333396911621)"><path class="swatch" d="M-5,-5h10v10h-10Z" style="fill: rgb(107, 172, 116);"/><text class="label" transform="translate( 15, 5)" style="font-family: avenir;"><tspan x="0" dy="0em">Cuban</tspan></text></g><g class="cell" transform="translate(0, 50.66666793823242)"><path class="swatch" d="M-5,-5h10v10h-10Z" style="fill: rgb(125, 179, 156);"/><text class="label" transform="translate( 15, 5)" style="font-family: avenir;"><tspan x="0" dy="0em">Bugatti</tspan></text></g><g class="cell" transform="translate(0, 76.00000190734863)"><path class="swatch" d="M-5,-5h10v10h-10Z" style="fill: rgb(220, 148, 26);"/><text class="label" transform="translate( 15, 5)" style="font-family: avenir;"><tspan x="0" dy="0em">redundant</tspan></text></g><g class="cell" transform="translate(0, 101.33333587646484)"><path class="swatch" d="M-5,-5h10v10h-10Z" style="fill: rgb(250, 241, 46);"/><text class="label" transform="translate( 15, 5)" style="font-family: avenir;"><tspan x="0" dy="0em">Berkshire</tspan></text></g><g class="cell" transform="translate(0, 126.66666984558105)"><path class="swatch" d="M-5,-5h10v10h-10Z" style="fill: rgb(245, 186, 153);"/><text class="label" transform="translate( 15, 5)" style="font-family: avenir;"><tspan x="0" dy="0em">PCI</tspan></text></g><g class="cell" transform="translate(0, 152.00000381469727)"><path class="swatch" d="M-5,-5h10v10h-10Z" style="fill: rgb(42, 148, 188);"/><text class="label" transform="translate( 15, 5)" style="font-family: avenir;"><tspan x="0" dy="0em">transmit</tspan></text></g><g class="cell" transform="translate(0, 177.33333778381348)"><path class="swatch" d="M-5,-5h10v10h-10Z" style="fill: rgb(198, 3, 79);"/><text class="label" transform="translate( 15, 5)" style="font-family: avenir;"><tspan x="0" dy="0em">sort</tspan></text></g></g></g></g></svg>