<svg xmlns="http://www.w3.org/2000/svg" width="400" height="400"><g transform="translate(200, 200)"><text x="-10" y="-170" text-anchor="center" style="font-family: Balto; font-size: 25px; font-weight: bold; fill: rgb(0, 0, 0);">Electric</text><path d="M4.2862637970157365e-15,-70A70,70,0,0,1,42.71447539135156,55.45695260327258L0,0Z" fill="#e77d50" stroke="black" style="stroke-width: 2px;"/><path d="M-21.689439882201107,-66.55500129664475A70,70,0,0,1,-1.2858791391047208e-14,-70L0,0Z" fill="#0d926b" stroke="black" style="stroke-width: 2px;"/><path d="M42.71447539135156,55.45695260327258A70,70,0,0,1,-69.27156280948998,10.07226816218096L0,0Z" fill="#3fdd5a" stroke="black" style="stroke-width: 2px;"/><path d="M-69.27156280948998,10.07226816218096A70,70,0,0,1,-21.689439882201107,-66.55500129664475L0,0Z" fill="#a2c547" stroke="black" style="stroke-width: 2px;"/><text transform="translate(82.83071347930954, -28.201469899785906)" fill="#e77d50" style="text-anchor: middle; font-size: 10px;">426</text><text transform="translate(-13.725828448211807, -86.41673236943328)" fill="#0d926b" style="text-anchor: middle; font-size: 10px;">54</text><text transform="translate(-32.864830140098725, 81.09348272125486)" fill="#3fdd5a" style="text-anchor: middle; font-size: 10px;">357</text><text transform="translate(-74.33465932070662, -46.15851409734163)" fill="#a2c547" style="text-anchor: middle; font-size: 10px;">240</text><g class="legendOrdinal" transform="translate(130, -74.33333333333334)"><g class="legendCells" transform="translate(5,15.333333969116211)"><g class="cell" transform="translate(0, 0)"><path class="swatch" d="M-5,-5h10v10h-10Z" style="fill: rgb(231, 125, 80);"/><text class="label" transform="translate( 15, 5)" style="font-family: Balto;"><tspan x="0" dy="0em">learn</tspan></text></g><g class="cell" transform="translate(0, 25.33333396911621)"><path class="swatch" d="M-5,-5h10v10h-10Z" style="fill: rgb(13, 146, 107);"/><text class="label" transform="translate( 15, 5)" style="font-family: Balto;"><tspan x="0" dy="0em">odio</tspan></text></g><g class="cell" transform="translate(0, 50.66666793823242)"><path class="swatch" d="M-5,-5h10v10h-10Z" style="fill: rgb(63, 221, 90);"/><text class="label" transform="translate( 15, 5)" style="font-family: Balto;"><tspan x="0" dy="0em">Kids</tspan></text></g><g class="cell" transform="translate(0, 76.00000190734863)"><path class="swatch" d="M-5,-5h10v10h-10Z" style="fill: rgb(162, 197, 71);"/><text class="label" transform="translate( 15, 5)" style="font-family: Balto;"><tspan x="0" dy="0em">West</tspan></text></g></g><text class="legendTitle" style="font-family: Balto;">though</text></g></g></svg>