<svg xmlns="http://www.w3.org/2000/svg" width="400" height="400"><g transform="translate(200, 200)"><text x="-27" y="-170" text-anchor="center" style="font-family: monospace; font-size: 25px; font-weight: bold; fill: rgb(0, 0, 0);">Riel Antimony</text><path d="M4.2862637970157365e-15,-70A70,70,0,1,1,-2.6799980892488647e-14,70L-1.4931417925815103e-14,39A39,39,0,1,0,2.388061258337339e-15,-39Z" fill="#73bfdc" stroke="black" style="stroke-width: 2px;"/><path d="M-2.6799980892488647e-14,70A70,70,0,0,1,-60.196110573888,-35.72713635006659L-33.537833034023315,-19.905118823608525A39,39,0,0,0,-1.4931417925815103e-14,39Z" fill="#a5b4ee" stroke="black" style="stroke-width: 2px;"/><path d="M-60.196110573888,-35.72713635006659A70,70,0,0,1,-34.63452363968169,-60.831322295773994L-19.296377456394083,-33.891736707645514A39,39,0,0,0,-33.537833034023315,-19.905118823608525Z" fill="#5beee6" stroke="black" style="stroke-width: 2px;"/><path d="M-34.63452363968169,-60.831322295773994A70,70,0,0,1,-1.2858791391047208e-14,-70L-7.164183775012016e-15,-39A39,39,0,0,0,-19.296377456394083,-33.891736707645514Z" fill="#ff1161" stroke="black" style="stroke-width: 2px;"/><text transform="translate(76.3, 1.6942003355779888e-14)" fill="#73bfdc" style="text-anchor: middle; font-size: 13px;">261</text><text transform="translate(-66.30614130239366, 37.75163076725303)" fill="#a5b4ee" style="text-anchor: middle; font-size: 13px;">175</text><text transform="translate(-53.462998138196, -54.437099758117625)" fill="#5beee6" style="text-anchor: middle; font-size: 13px;">43</text><text transform="translate(-19.526026459924804, -73.75923190141229)" fill="#ff1161" style="text-anchor: middle; font-size: 13px;">43</text><g class="legendOrdinal" transform="translate(-138, -140)"><g class="legendCells" transform="translate(22.572917938232422,15.333333969116211)"><g class="cell" transform="translate(0,0)"><path class="swatch" d="M-5,-5h10v10h-10Z" style="fill: rgb(115, 191, 220);"/><text class="label" transform="translate(0,&#10;          23)" style="text-anchor: middle; font-family: monospace;"><tspan x="0" dy="0em">Legacy</tspan></text></g><g class="cell" transform="translate(50,0)"><path class="swatch" d="M-5,-5h10v10h-10Z" style="fill: rgb(165, 180, 238);"/><text class="label" transform="translate(0,&#10;          23)" style="text-anchor: middle; font-family: monospace;"><tspan x="0" dy="0em">Syrian</tspan></text></g><g class="cell" transform="translate(100,0)"><path class="swatch" d="M-5,-5h10v10h-10Z" style="fill: rgb(91, 238, 230);"/><text class="label" transform="translate(0,&#10;          23)" style="text-anchor: middle; font-family: monospace;"><tspan x="0" dy="0em">Tricycle</tspan></text></g><g class="cell" transform="translate(150,0)"><path class="swatch" d="M-5,-5h10v10h-10Z" style="fill: rgb(255, 17, 97);"/><text class="label" transform="translate(0,&#10;          23)" style="text-anchor: middle; font-family: monospace;"><tspan x="0" dy="0em">UDP</tspan></text></g></g><text class="legendTitle" style="font-family: monospace;">Niobium</text></g></g></svg>