<svg xmlns="http://www.w3.org/2000/svg" width="400" height="400"><g transform="translate(200, 200)"><text x="46" y="-170" text-anchor="center" style="font-family: serif; font-size: 25px; font-weight: bold; fill: rgb(0, 0, 0);">gold</text><path d="M-44.755784595909006,-53.823041025239306A70,70,0,0,1,-19.66006422971629,-67.18245213211132L0,0Z" fill="#bb88e7" stroke="white" style="stroke-width: 2px;"/><path d="M-19.66006422971629,-67.18245213211132A70,70,0,0,1,-1.2858791391047208e-14,-70L0,0Z" fill="#2f4aec" stroke="white" style="stroke-width: 2px;"/><path d="M-42.227233031298276,55.82885267064362A70,70,0,0,1,-67.31875091058089,19.188167599829974L0,0Z" fill="#792efd" stroke="white" style="stroke-width: 2px;"/><path d="M-67.31875091058089,19.188167599829974A70,70,0,0,1,-66.5391767756865,-21.737938127015248L0,0Z" fill="#f4406b" stroke="white" style="stroke-width: 2px;"/><path d="M-66.5391767756865,-21.737938127015248A70,70,0,0,1,-44.755784595909006,-53.823041025239306L0,0Z" fill="#c0b4ed" stroke="white" style="stroke-width: 2px;"/><path d="M4.2862637970157365e-15,-70A70,70,0,0,1,69.70896084825327,-6.37658038894616L0,0Z" fill="#723fee" stroke="white" style="stroke-width: 2px;"/><path d="M69.70896084825327,-6.37658038894616A70,70,0,0,1,17.08730326406247,67.88242826506695L0,0Z" fill="#acb7db" stroke="white" style="stroke-width: 2px;"/><path d="M17.08730326406247,67.88242826506695A70,70,0,0,1,-42.227233031298276,55.82885267064362L0,0Z" fill="#57e776" stroke="white" style="stroke-width: 2px;"/><text transform="translate(-41.11661885080003, -77.23777349379017)" fill="#bb88e7" style="text-anchor: middle; font-size: 10px;">102</text><text transform="translate(-12.413083783861401, -86.61504113590686)" fill="#2f4aec" style="text-anchor: middle; font-size: 10px;">71</text><text transform="translate(-72.1945678364988, 49.438794229847204)" fill="#792efd" style="text-anchor: middle; font-size: 10px;">161</text><text transform="translate(-87.48413011089788, -1.666426937939916)" fill="#f4406b" style="text-anchor: middle; font-size: 10px;">148</text><text transform="translate(-72.39222122051555, -49.14891969067008)" fill="#c0b4ed" style="text-anchor: middle; font-size: 10px;">140</text><text transform="translate(58.98648794410044, -64.62850949867631)" fill="#723fee" style="text-anchor: middle; font-size: 10px;">369</text><text transform="translate(71.39237920566298, 50.59029740330472)" fill="#acb7db" style="text-anchor: middle; font-size: 10px;">353</text><text transform="translate(-17.425116047318298, 85.74739255940958)" fill="#57e776" style="text-anchor: middle; font-size: 10px;">223</text><g class="legendOrdinal" transform="translate(-128, 130)"><g class="legendCells"><g class="cell" transform="translate(0,0)"><path class="swatch" d="M-5,-5h10v10h-10Z" style="fill: rgb(187, 136, 231);"/><text class="label" transform="translate(0,&#10;          23)" style="text-anchor: middle; font-family: serif;"><tspan x="0" dy="0em">ubiquitous</tspan></text></g><g class="cell" transform="translate(50,0)"><path class="swatch" d="M-5,-5h10v10h-10Z" style="fill: rgb(47, 74, 236);"/><text class="label" transform="translate(0,&#10;          23)" style="text-anchor: middle; font-family: serif;"><tspan x="0" dy="0em">East</tspan></text></g><g class="cell" transform="translate(100,0)"><path class="swatch" d="M-5,-5h10v10h-10Z" style="fill: rgb(121, 46, 253);"/><text class="label" transform="translate(0,&#10;          23)" style="text-anchor: middle; font-family: serif;"><tspan x="0" dy="0em">microchip</tspan></text></g><g class="cell" transform="translate(150,0)"><path class="swatch" d="M-5,-5h10v10h-10Z" style="fill: rgb(244, 64, 107);"/><text class="label" transform="translate(0,&#10;          23)" style="text-anchor: middle; font-family: serif;"><tspan x="0" dy="0em">initiative</tspan></text></g><g class="cell" transform="translate(200,0)"><path class="swatch" d="M-5,-5h10v10h-10Z" style="fill: rgb(192, 180, 237);"/><text class="label" transform="translate(0,&#10;          23)" style="text-anchor: middle; font-family: serif;"><tspan x="0" dy="0em">Outdoors</tspan></text></g><g class="cell" transform="translate(250,0)"><path class="swatch" d="M-5,-5h10v10h-10Z" style="fill: rgb(114, 63, 238);"/><text class="label" transform="translate(0,&#10;          23)" style="text-anchor: middle; font-family: serif;"><tspan x="0" dy="0em">Adventure</tspan></text></g><g class="cell" transform="translate(300,0)"><path class="swatch" d="M-5,-5h10v10h-10Z" style="fill: rgb(172, 183, 219);"/><text class="label" transform="translate(0,&#10;          23)" style="text-anchor: middle; font-family: serif;"><tspan x="0" dy="0em">female</tspan></text></g><g class="cell" transform="translate(350,0)"><path class="swatch" d="M-5,-5h10v10h-10Z" style="fill: rgb(87, 231, 118);"/><text class="label" transform="translate(0,&#10;          23)" style="text-anchor: middle; font-family: serif;"><tspan x="0" dy="0em">pish</tspan></text></g></g></g></g></svg>