<svg xmlns="http://www.w3.org/2000/svg" width="400" height="400"><g transform="translate(200, 200)"><text x="46" y="-170" text-anchor="center" style="font-family: avenir; font-size: 25px; font-weight: bold; fill: rgb(0, 0, 0);">tinted EXE eyeballs</text><path d="M64.3319884120486,27.59339172613696A70,70,0,0,1,-30.771315430918573,62.873890818454306L0,0Z" fill="#fd86e4" stroke="white" style="stroke-width: 2px;"/><path d="M-30.071468558864776,-63.21160319682778A70,70,0,0,1,-1.2858791391047208e-14,-70L0,0Z" fill="#faa9ed" stroke="white" style="stroke-width: 2px;"/><path d="M-30.771315430918573,62.873890818454306A70,70,0,0,1,-65.76370570160203,-23.98197265433094L0,0Z" fill="#efadb5" stroke="white" style="stroke-width: 2px;"/><path d="M-65.76370570160203,-23.98197265433094A70,70,0,0,1,-30.071468558864776,-63.21160319682778L0,0Z" fill="#fb0b3c" stroke="white" style="stroke-width: 2px;"/><path d="M4.2862637970157365e-15,-70A70,70,0,0,1,64.3319884120486,27.59339172613696L0,0Z" fill="#5ec256" stroke="white" style="stroke-width: 2px;"/><text transform="translate(30.433279912461266, 82.03697625930505)" fill="#fd86e4" style="text-anchor: middle; font-size: 13px;">73</text><text transform="translate(-19.267601048741938, -85.35226739710268)" fill="#faa9ed" style="text-anchor: middle; font-size: 13px;">20</text><text transform="translate(-81.16089182109226, 32.69800664879986)" fill="#efadb5" style="text-anchor: middle; font-size: 13px;">66</text><text transform="translate(-64.72098933244035, -58.885002673262576)" fill="#fb0b3c" style="text-anchor: middle; font-size: 13px;">35</text><text transform="translate(73.05572263706051, -48.157153050994246)" fill="#5ec256" style="text-anchor: middle; font-size: 13px;">89</text><g class="legendOrdinal" transform="translate(-150, -155.33333333333334)"><g class="legendCells" transform="translate(5,15.333333969116211)"><g class="cell" transform="translate(0, 0)"><path class="swatch" d="M-5,-5h10v10h-10Z" style="fill: rgb(253, 134, 228);"/><text class="label" transform="translate( 15, 5)" style="font-family: avenir;"><tspan x="0" dy="0em">Checking</tspan></text></g><g class="cell" transform="translate(0, 25.33333396911621)"><path class="swatch" d="M-5,-5h10v10h-10Z" style="fill: rgb(250, 169, 237);"/><text class="label" transform="translate( 15, 5)" style="font-family: avenir;"><tspan x="0" dy="0em">Music</tspan></text></g><g class="cell" transform="translate(0, 50.66666793823242)"><path class="swatch" d="M-5,-5h10v10h-10Z" style="fill: rgb(239, 173, 181);"/><text class="label" transform="translate( 15, 5)" style="font-family: avenir;"><tspan x="0" dy="0em">maiores</tspan></text></g><g class="cell" transform="translate(0, 76.00000190734863)"><path class="swatch" d="M-5,-5h10v10h-10Z" style="fill: rgb(251, 11, 60);"/><text class="label" transform="translate( 15, 5)" style="font-family: avenir;"><tspan x="0" dy="0em">Recycled</tspan></text></g><g class="cell" transform="translate(0, 101.33333587646484)"><path class="swatch" d="M-5,-5h10v10h-10Z" style="fill: rgb(94, 194, 86);"/><text class="label" transform="translate( 15, 5)" style="font-family: avenir;"><tspan x="0" dy="0em">since</tspan></text></g></g><text class="legendTitle" style="font-family: avenir;">primary</text></g></g></svg>