<svg xmlns="http://www.w3.org/2000/svg" width="400" height="400"><g transform="translate(200, 200)"><text x="-31" y="-170" text-anchor="center" style="font-family: serif; font-size: 25px; font-weight: bold; fill: rgb(0, 0, 0);">Division Generic</text><path d="M-20.289146865293702,-66.99515295510969A70,70,0,0,1,-5.312559240392446,-69.79811397392712L-2.8839607304987562,-37.890404728703295A38,38,0,0,0,-11.014108298302295,-36.36879731848811Z" fill="#de5e27" stroke="black" style="stroke-width: 0;"/><path d="M-46.6944875532031,52.15002235995456A70,70,0,0,1,-69.97898303476201,-1.7152065241512813L-37.98859079029938,-0.9311121131106955A38,38,0,0,0,-25.348436100310256,28.310012138261047Z" fill="#aec89c" stroke="black" style="stroke-width: 0;"/><path d="M-53.38961833501666,-45.27194113400985A70,70,0,0,1,-20.289146865293702,-66.99515295510969L-11.014108298302295,-36.36879731848811A38,38,0,0,0,-28.98293566758047,-24.576196615605348Z" fill="#cd618c" stroke="black" style="stroke-width: 0;"/><path d="M61.67880803949075,-33.10173165904847A70,70,0,0,1,61.268602730529416,33.85496004204647L33.26009862514454,18.378406879968086A38,38,0,0,0,33.48278150715212,-17.969511472054883Z" fill="#4e6af1" stroke="black" style="stroke-width: 0;"/><path d="M61.268602730529416,33.85496004204647A70,70,0,0,1,11.102869111538434,69.11386472692759L6.027271803406578,37.518955137474975A38,38,0,0,0,33.26009862514454,18.378406879968086Z" fill="#be97ed" stroke="black" style="stroke-width: 0;"/><path d="M11.102869111538434,69.11386472692759A70,70,0,0,1,-46.6944875532031,52.15002235995456L-25.348436100310256,28.310012138261047A38,38,0,0,0,6.027271803406578,37.518955137474975Z" fill="#d144f3" stroke="black" style="stroke-width: 0;"/><path d="M4.2862637970157365e-15,-70A70,70,0,0,1,61.67880803949075,-33.10173165904847L33.48278150715212,-17.969511472054883A38,38,0,0,0,2.326828918379971e-15,-38Z" fill="#8dc7fd" stroke="black" style="stroke-width: 0;"/><path d="M-69.97898303476201,-1.7152065241512813A70,70,0,0,1,-53.38961833501666,-45.27194113400985L-28.98293566758047,-24.576196615605348A38,38,0,0,0,-37.98859079029938,-0.9311121131106955Z" fill="#bfc381" stroke="black" style="stroke-width: 0;"/><path d="M-5.312559240392446,-69.79811397392712A70,70,0,0,1,4.9313697987961557e-14,-70L2.6770293193464843e-14,-38A38,38,0,0,0,-2.8839607304987562,-37.890404728703295Z" fill="#f9ad2d" stroke="black" style="stroke-width: 0;"/><text transform="translate(-13.907531436316246, -74.309760929153)" fill="#de5e27" style="text-anchor: middle; font-size: 11px;">89</text><text transform="translate(-69.39401652095391, 29.997174385091242)" fill="#aec89c" style="text-anchor: middle; font-size: 11px;">353</text><text transform="translate(-41.479798235341164, -63.204322149322884)" fill="#cd618c" style="text-anchor: middle; font-size: 11px;">234</text><text transform="translate(75.59858128828847, 0.4631492178980227)" fill="#4e6af1" style="text-anchor: middle; font-size: 11px;">407</text><text transform="translate(43.47191275250769, 61.85105335916566)" fill="#be97ed" style="text-anchor: middle; font-size: 11px;">370</text><text transform="translate(-21.290901325094655, 72.5400408103351)" fill="#d144f3" style="text-anchor: middle; font-size: 11px;">363</text><text transform="translate(38.81153059016104, -64.87699972447086)" fill="#8dc7fd" style="text-anchor: middle; font-size: 11px;">440</text><text transform="translate(-70.64925670025626, -26.9080383473284)" fill="#bfc381" style="text-anchor: middle; font-size: 11px;">277</text><text transform="translate(-2.870852683158601, -75.54547110761571)" fill="#f9ad2d" style="text-anchor: middle; font-size: 11px;">31</text><g class="legendOrdinal" transform="translate(-103, -140)"><g class="legendCells" transform="translate(10.895833969116211,15.333333969116211)"><g class="cell" transform="translate(0,0)"><path class="swatch" d="M-5,-5h10v10h-10Z" style="fill: rgb(222, 94, 39);"/><text class="label" transform="translate(0,&#10;          23)" style="text-anchor: middle; font-family: serif;"><tspan x="0" dy="0em">CLI</tspan></text></g><g class="cell" transform="translate(50,0)"><path class="swatch" d="M-5,-5h10v10h-10Z" style="fill: rgb(174, 200, 156);"/><text class="label" transform="translate(0,&#10;          23)" style="text-anchor: middle; font-family: serif;"><tspan x="0" dy="0em">transmitting</tspan></text></g><g class="cell" transform="translate(100,0)"><path class="swatch" d="M-5,-5h10v10h-10Z" style="fill: rgb(205, 97, 140);"/><text class="label" transform="translate(0,&#10;          23)" style="text-anchor: middle; font-family: serif;"><tspan x="0" dy="0em">Cotton</tspan></text></g><g class="cell" transform="translate(150,0)"><path class="swatch" d="M-5,-5h10v10h-10Z" style="fill: rgb(78, 106, 241);"/><text class="label" transform="translate(0,&#10;          23)" style="text-anchor: middle; font-family: serif;"><tspan x="0" dy="0em">quantifying</tspan></text></g><g class="cell" transform="translate(200,0)"><path class="swatch" d="M-5,-5h10v10h-10Z" style="fill: rgb(190, 151, 237);"/><text class="label" transform="translate(0,&#10;          23)" style="text-anchor: middle; font-family: serif;"><tspan x="0" dy="0em">vex</tspan></text></g><g class="cell" transform="translate(250,0)"><path class="swatch" d="M-5,-5h10v10h-10Z" style="fill: rgb(209, 68, 243);"/><text class="label" transform="translate(0,&#10;          23)" style="text-anchor: middle; font-family: serif;"><tspan x="0" dy="0em">into</tspan></text></g><g class="cell" transform="translate(300,0)"><path class="swatch" d="M-5,-5h10v10h-10Z" style="fill: rgb(141, 199, 253);"/><text class="label" transform="translate(0,&#10;          23)" style="text-anchor: middle; font-family: serif;"><tspan x="0" dy="0em">period</tspan></text></g><g class="cell" transform="translate(350,0)"><path class="swatch" d="M-5,-5h10v10h-10Z" style="fill: rgb(191, 195, 129);"/><text class="label" transform="translate(0,&#10;          23)" style="text-anchor: middle; font-family: serif;"><tspan x="0" dy="0em">adventurously</tspan></text></g><g class="cell" transform="translate(400,0)"><path class="swatch" d="M-5,-5h10v10h-10Z" style="fill: rgb(249, 173, 45);"/><text class="label" transform="translate(0,&#10;          23)" style="text-anchor: middle; font-family: serif;"><tspan x="0" dy="0em">Gasoline</tspan></text></g></g><text class="legendTitle" style="font-family: serif;">Salad</text></g></g></svg>