<svg xmlns="http://www.w3.org/2000/svg" width="400" height="400"><g transform="translate(200, 200)"><text x="44" y="-170" text-anchor="center" style="font-family: monospace; font-size: 25px; font-weight: bold; fill: rgb(0, 0, 0);">New substitution Southeast</text><path d="M69.86819166000147,-4.293692369197101A70,70,0,0,1,17.937948947543166,67.66261883459238L12.556564263280215,47.36383318421466A49,49,0,0,0,48.90773416200103,-3.005584658437971Z" fill="#6ddaaf" stroke="black" style="stroke-width: 0;"/><path d="M-24.306554075478523,-65.64443182003969A70,70,0,0,1,-15.775859036441059,-68.19913688355844L-11.043101325508742,-47.739395818490905A49,49,0,0,0,-17.014587852834964,-45.95110227402778Z" fill="#adfb32" stroke="black" style="stroke-width: 0;"/><path d="M-45.58828376536739,-53.11975511359535A70,70,0,0,1,-24.306554075478523,-65.64443182003969L-17.014587852834964,-45.95110227402778A49,49,0,0,0,-31.91179863575718,-37.18382857951675Z" fill="#bfe0be" stroke="black" style="stroke-width: 0;"/><path d="M17.937948947543166,67.66261883459238A70,70,0,0,1,-62.53575885407044,31.45280376286907L-43.77503119784931,22.01696263400835A49,49,0,0,0,12.556564263280215,47.36383318421466Z" fill="#bfdfcf" stroke="black" style="stroke-width: 0;"/><path d="M-15.775859036441059,-68.19913688355844A70,70,0,0,1,-6.989854977632108,-69.65013946426576L-4.892898484342475,-48.755097624986035A49,49,0,0,0,-11.043101325508742,-47.739395818490905Z" fill="#a263cf" stroke="black" style="stroke-width: 0;"/><path d="M4.2862637970157365e-15,-70A70,70,0,0,1,69.86819166000147,-4.293692369197101L48.90773416200103,-3.005584658437971A49,49,0,0,0,3.0003846579110155e-15,-49Z" fill="#7028ba" stroke="black" style="stroke-width: 0;"/><path d="M-6.989854977632108,-69.65013946426576A70,70,0,0,1,-1.2858791391047208e-14,-70L-9.001153973733046e-15,-49A49,49,0,0,0,-4.892898484342475,-48.755097624986035Z" fill="#1fa0de" stroke="black" style="stroke-width: 0;"/><path d="M-62.53575885407044,31.45280376286907A70,70,0,0,1,-45.58828376536739,-53.11975511359535L-31.91179863575718,-37.18382857951675A49,49,0,0,0,-43.77503119784931,22.01696263400835Z" fill="#09fded" stroke="black" style="stroke-width: 0;"/><text transform="translate(67.546597801703, 48.747790979848205)" fill="#6ddaaf" style="text-anchor: middle; font-size: 11px;">151</text><text transform="translate(-23.897427878057716, -79.79851465292464)" fill="#adfb32" style="text-anchor: middle; font-size: 11px;">14</text><text transform="translate(-42.24984303663585, -71.7902553511243)" fill="#bfe0be" style="text-anchor: middle; font-size: 11px;">39</text><text transform="translate(-34.18074514845089, 75.96424593910382)" fill="#bfdfcf" style="text-anchor: middle; font-size: 11px;">150</text><text transform="translate(-13.57308521382445, -82.186746849953)" fill="#a263cf" style="text-anchor: middle; font-size: 11px;">14</text><text transform="translate(57.06693068896643, -60.681590468120554)" fill="#7028ba" style="text-anchor: middle; font-size: 11px;">166</text><text transform="translate(-4.164170104938523, -83.19585138296942)" fill="#1fa0de" style="text-anchor: middle; font-size: 11px;">11</text><text transform="translate(-81.67624254295664, -16.367082943032923)" fill="#09fded" style="text-anchor: middle; font-size: 11px;">146</text><g class="legendOrdinal" transform="translate(-7, 130)"><g class="legendCells" transform="translate(22.182292938232422,15.333333969116211)"><g class="cell" transform="translate(0,0)"><path class="swatch" d="M-5,-5h10v10h-10Z" style="fill: rgb(109, 218, 175);"/><text class="label" transform="translate(0,&#10;          23)" style="text-anchor: middle; font-family: monospace;"><tspan x="0" dy="0em">Bronze</tspan></text></g><g class="cell" transform="translate(50,0)"><path class="swatch" d="M-5,-5h10v10h-10Z" style="fill: rgb(173, 251, 50);"/><text class="label" transform="translate(0,&#10;          23)" style="text-anchor: middle; font-family: monospace;"><tspan x="0" dy="0em">bust</tspan></text></g><g class="cell" transform="translate(100,0)"><path class="swatch" d="M-5,-5h10v10h-10Z" style="fill: rgb(191, 224, 190);"/><text class="label" transform="translate(0,&#10;          23)" style="text-anchor: middle; font-family: monospace;"><tspan x="0" dy="0em">Northeast</tspan></text></g><g class="cell" transform="translate(150,0)"><path class="swatch" d="M-5,-5h10v10h-10Z" style="fill: rgb(191, 223, 207);"/><text class="label" transform="translate(0,&#10;          23)" style="text-anchor: middle; font-family: monospace;"><tspan x="0" dy="0em">Ladarius</tspan></text></g><g class="cell" transform="translate(200,0)"><path class="swatch" d="M-5,-5h10v10h-10Z" style="fill: rgb(162, 99, 207);"/><text class="label" transform="translate(0,&#10;          23)" style="text-anchor: middle; font-family: monospace;"><tspan x="0" dy="0em">Sahara</tspan></text></g><g class="cell" transform="translate(250,0)"><path class="swatch" d="M-5,-5h10v10h-10Z" style="fill: rgb(112, 40, 186);"/><text class="label" transform="translate(0,&#10;          23)" style="text-anchor: middle; font-family: monospace;"><tspan x="0" dy="0em">hacking</tspan></text></g><g class="cell" transform="translate(300,0)"><path class="swatch" d="M-5,-5h10v10h-10Z" style="fill: rgb(31, 160, 222);"/><text class="label" transform="translate(0,&#10;          23)" style="text-anchor: middle; font-family: monospace;"><tspan x="0" dy="0em">Music</tspan></text></g><g class="cell" transform="translate(350,0)"><path class="swatch" d="M-5,-5h10v10h-10Z" style="fill: rgb(9, 253, 237);"/><text class="label" transform="translate(0,&#10;          23)" style="text-anchor: middle; font-family: monospace;"><tspan x="0" dy="0em">CSS</tspan></text></g></g><text class="legendTitle" style="font-family: monospace;">Shirt</text></g></g></svg>