<svg xmlns="http://www.w3.org/2000/svg" width="400" height="400"><g transform="translate(200, 200)"><text x="-81" y="-170" text-anchor="center" style="font-family: avenir; font-size: 25px; font-weight: bold; fill: rgb(0, 0, 0);">Berkshire encoding</text><path d="M-40.985914078758945,-56.74640823108181A70,70,0,0,1,-5.42446944703518,-69.78950588174544L0,0Z" fill="#2a55fc" stroke="black" style="stroke-width: 2px;"/><path d="M4.2862637970157365e-15,-70A70,70,0,0,1,63.02658737168888,-30.457335475692343L0,0Z" fill="#e0853a" stroke="black" style="stroke-width: 2px;"/><path d="M-7.322737262959898,69.61592862971561A70,70,0,0,1,-58.81524245868561,37.95744004178925L0,0Z" fill="#1c5e3f" stroke="black" style="stroke-width: 2px;"/><path d="M-58.81524245868561,37.95744004178925A70,70,0,0,1,-67.55085169652345,-18.354357386579764L0,0Z" fill="#ebf951" stroke="black" style="stroke-width: 2px;"/><path d="M-67.55085169652345,-18.354357386579764A70,70,0,0,1,-40.985914078758945,-56.74640823108181L0,0Z" fill="#972e2c" stroke="black" style="stroke-width: 2px;"/><path d="M54.918052356921635,43.405155515473204A70,70,0,0,1,-7.322737262959898,69.61592862971561L0,0Z" fill="#2a8c87" stroke="black" style="stroke-width: 2px;"/><path d="M-5.42446944703518,-69.78950588174544A70,70,0,0,1,-1.2858791391047208e-14,-70L0,0Z" fill="#e03bf1" stroke="black" style="stroke-width: 2px;"/><path d="M63.02658737168888,-30.457335475692343A70,70,0,0,1,54.918052356921635,43.405155515473204L0,0Z" fill="#b24f4b" stroke="black" style="stroke-width: 2px;"/><text transform="translate(-30.130225787249664, -82.14876440951109)" fill="#2a55fc" style="text-anchor: middle; font-size: 8px;">332</text><text transform="translate(46.502574833799, -74.1199064612667)" fill="#e0853a" style="text-anchor: middle; font-size: 8px;">679</text><text transform="translate(-45.827854952889396, 74.53896773109305)" fill="#1c5e3f" style="text-anchor: middle; font-size: 8px;">541</text><text transform="translate(-86.46578143995576, 13.413375413288065)" fill="#ebf951" style="text-anchor: middle; font-size: 8px;">508</text><text transform="translate(-71.95424732568058, -49.78791310945647)" fill="#972e2c" style="text-anchor: middle; font-size: 8px;">412</text><text transform="translate(33.95952695707579, 80.64118382595609)" fill="#2a8c87" style="text-anchor: middle; font-size: 8px;">610</text><text transform="translate(-3.3928449849714397, -87.43419584412013)" fill="#e03bf1" style="text-anchor: middle; font-size: 8px;">47</text><text transform="translate(86.97747017936003, 9.548281583538381)" fill="#b24f4b" style="text-anchor: middle; font-size: 8px;">678</text><g class="legendOrdinal" transform="translate(-150, 28.666666666666657)"><g class="legendCells"><g class="cell" transform="translate(0, 0)"><path class="swatch" d="M-5,-5h10v10h-10Z" style="fill: rgb(42, 85, 252);"/><text class="label" transform="translate( 15, 5)" style="font-family: avenir;"><tspan x="0" dy="0em">Handcrafted</tspan></text></g><g class="cell" transform="translate(0, 25.33333396911621)"><path class="swatch" d="M-5,-5h10v10h-10Z" style="fill: rgb(224, 133, 58);"/><text class="label" transform="translate( 15, 5)" style="font-family: avenir;"><tspan x="0" dy="0em">Androgyne</tspan></text></g><g class="cell" transform="translate(0, 50.66666793823242)"><path class="swatch" d="M-5,-5h10v10h-10Z" style="fill: rgb(28, 94, 63);"/><text class="label" transform="translate( 15, 5)" style="font-family: avenir;"><tspan x="0" dy="0em">red</tspan></text></g><g class="cell" transform="translate(0, 76.00000190734863)"><path class="swatch" d="M-5,-5h10v10h-10Z" style="fill: rgb(235, 249, 81);"/><text class="label" transform="translate( 15, 5)" style="font-family: avenir;"><tspan x="0" dy="0em">finally</tspan></text></g><g class="cell" transform="translate(0, 101.33333587646484)"><path class="swatch" d="M-5,-5h10v10h-10Z" style="fill: rgb(151, 46, 44);"/><text class="label" transform="translate( 15, 5)" style="font-family: avenir;"><tspan x="0" dy="0em">Reggae</tspan></text></g><g class="cell" transform="translate(0, 126.66666984558105)"><path class="swatch" d="M-5,-5h10v10h-10Z" style="fill: rgb(42, 140, 135);"/><text class="label" transform="translate( 15, 5)" style="font-family: avenir;"><tspan x="0" dy="0em">Mountain</tspan></text></g><g class="cell" transform="translate(0, 152.00000381469727)"><path class="swatch" d="M-5,-5h10v10h-10Z" style="fill: rgb(224, 59, 241);"/><text class="label" transform="translate( 15, 5)" style="font-family: avenir;"><tspan x="0" dy="0em">Vermont</tspan></text></g><g class="cell" transform="translate(0, 177.33333778381348)"><path class="swatch" d="M-5,-5h10v10h-10Z" style="fill: rgb(178, 79, 75);"/><text class="label" transform="translate( 15, 5)" style="font-family: avenir;"><tspan x="0" dy="0em">tesla</tspan></text></g></g></g></g></svg>