<svg xmlns="http://www.w3.org/2000/svg" width="400" height="400"><g transform="translate(200, 200)"><text x="-42" y="-170" text-anchor="center" style="font-family: monospace; font-size: 25px; font-weight: bold; fill: rgb(0, 0, 0);">aha International Fundamental</text><path d="M-4.829380108302824,-69.83320906108733A70,70,0,0,1,-7.503128077005597e-14,-70L0,0Z" fill="#6ad86a" stroke="white" style="stroke-width: 2px;"/><path d="M4.2862637970157365e-15,-70A70,70,0,0,1,56.20202570072178,41.72927398284577L0,0Z" fill="#9a5b20" stroke="white" style="stroke-width: 2px;"/><path d="M56.20202570072178,41.72927398284577A70,70,0,0,1,-61.41118859396093,33.59562345718507L0,0Z" fill="#1cafa4" stroke="white" style="stroke-width: 2px;"/><path d="M-61.41118859396093,33.59562345718507A70,70,0,0,1,-4.829380108302824,-69.83320906108733L0,0Z" fill="#752813" stroke="white" style="stroke-width: 2px;"/><text transform="translate(-3.0201621598495967, -87.44786229821867)" fill="#6ad86a" style="text-anchor: middle; font-size: 13px;">1</text><text transform="translate(78.16773420623677, -39.31991008462661)" fill="#9a5b20" style="text-anchor: middle; font-size: 13px;">32</text><text transform="translate(-6.036725135378431, 87.29151132635917)" fill="#1cafa4" style="text-anchor: middle; font-size: 13px;">29</text><text transform="translate(-76.7639857424512, -41.99452932148125)" fill="#752813" style="text-anchor: middle; font-size: 13px;">29</text><g class="legendOrdinal" transform="translate(-161, -140)"><g class="legendCells"><g class="cell" transform="translate(0,0)"><path class="swatch" d="M-5,-5h10v10h-10Z" style="fill: rgb(106, 216, 106);"/><text class="label" transform="translate(0,&#10;          23)" style="text-anchor: middle; font-family: monospace;"><tspan x="0" dy="0em">communities</tspan></text></g><g class="cell" transform="translate(50,0)"><path class="swatch" d="M-5,-5h10v10h-10Z" style="fill: rgb(154, 91, 32);"/><text class="label" transform="translate(0,&#10;          23)" style="text-anchor: middle; font-family: monospace;"><tspan x="0" dy="0em">Hybrid</tspan></text></g><g class="cell" transform="translate(100,0)"><path class="swatch" d="M-5,-5h10v10h-10Z" style="fill: rgb(28, 175, 164);"/><text class="label" transform="translate(0,&#10;          23)" style="text-anchor: middle; font-family: monospace;"><tspan x="0" dy="0em">Ferrari</tspan></text></g><g class="cell" transform="translate(150,0)"><path class="swatch" d="M-5,-5h10v10h-10Z" style="fill: rgb(117, 40, 19);"/><text class="label" transform="translate(0,&#10;          23)" style="text-anchor: middle; font-family: monospace;"><tspan x="0" dy="0em">Steel</tspan></text></g></g></g></g></svg>