<svg xmlns="http://www.w3.org/2000/svg" width="400" height="400"><g transform="translate(200, 200)"><text x="-84" y="-170" text-anchor="center" style="font-family: Balto; font-size: 25px; font-weight: bold; fill: rgb(0, 0, 0);">Northwest Honda Grocery</text><path d="M-39.80410562343364,57.58153502224943A70,70,0,0,1,-69.99310443379575,-0.9825129616255094L-46.995370119834284,-0.6596872742342705A47,47,0,0,0,-26.72561377573402,38.66188780065319Z" fill="#cbe249" stroke="white" style="stroke-width: 0;"/><path d="M-11.734870549588814,-69.00936757560088A70,70,0,0,1,-1.2858791391047208e-14,-70L-8.633759933988839e-15,-47A47,47,0,0,0,-7.879127369009633,-46.334861086474874Z" fill="#4facb4" stroke="white" style="stroke-width: 0;"/><path d="M-46.94083447155881,-51.92839357339794A70,70,0,0,1,-28.77588069957759,-63.81182249367023L-19.320948469716384,-42.845080817178584A47,47,0,0,0,-31.51741743090377,-34.866207113567185Z" fill="#aafae3" stroke="white" style="stroke-width: 0;"/><path d="M63.921511564595825,28.531392522925373A70,70,0,0,1,-39.80410562343364,57.58153502224943L-26.72561377573402,38.66188780065319A47,47,0,0,0,42.91872919337148,19.15679212253561Z" fill="#baeeec" stroke="white" style="stroke-width: 0;"/><path d="M-69.99310443379575,-0.9825129616255094A70,70,0,0,1,-46.94083447155881,-51.92839357339794L-31.51741743090377,-34.866207113567185A47,47,0,0,0,-46.995370119834284,-0.6596872742342705Z" fill="#dcf76b" stroke="white" style="stroke-width: 0;"/><path d="M-28.77588069957759,-63.81182249367023A70,70,0,0,1,-11.734870549588814,-69.00936757560088L-7.879127369009633,-46.334861086474874A47,47,0,0,0,-19.320948469716384,-42.845080817178584Z" fill="#7c5d6b" stroke="white" style="stroke-width: 0;"/><path d="M4.2862637970157365e-15,-70A70,70,0,0,1,63.921511564595825,28.531392522925373L42.91872919337148,19.15679212253561A47,47,0,0,0,2.87791997799628e-15,-47Z" fill="#65a9be" stroke="white" style="stroke-width: 0;"/><text transform="translate(-72.7970743394204, 37.52593726505574)" fill="#cbe249" style="text-anchor: middle; font-size: 9px;">192</text><text transform="translate(-6.889316758692357, -81.6097256128116)" fill="#4facb4" style="text-anchor: middle; font-size: 9px;">33</text><text transform="translate(-44.836488514364056, -68.53684627775996)" fill="#aafae3" style="text-anchor: middle; font-size: 9px;">61</text><text transform="translate(22.087604841156374, 78.86537714600067)" fill="#baeeec" style="text-anchor: middle; font-size: 9px;">344</text><text transform="translate(-74.61681035571705, -33.76302137455941)" fill="#dcf76b" style="text-anchor: middle; font-size: 9px;">161</text><text transform="translate(-23.893046091255382, -78.33729857788782)" fill="#7c5d6b" style="text-anchor: middle; font-size: 9px;">50</text><text transform="translate(68.70798216264352, -44.573794847845974)" fill="#65a9be" style="text-anchor: middle; font-size: 9px;">390</text><g class="legendOrdinal" transform="translate(-24, 130)"><g class="legendCells" transform="translate(21.78645896911621,15.333333969116211)"><g class="cell" transform="translate(0,0)"><path class="swatch" d="M-5,-5h10v10h-10Z" style="fill: rgb(203, 226, 73);"/><text class="label" transform="translate(0,&#10;          23)" style="text-anchor: middle; font-family: Balto;"><tspan x="0" dy="0em">French</tspan></text></g><g class="cell" transform="translate(50,0)"><path class="swatch" d="M-5,-5h10v10h-10Z" style="fill: rgb(79, 172, 180);"/><text class="label" transform="translate(0,&#10;          23)" style="text-anchor: middle; font-family: Balto;"><tspan x="0" dy="0em">Dynamic</tspan></text></g><g class="cell" transform="translate(100,0)"><path class="swatch" d="M-5,-5h10v10h-10Z" style="fill: rgb(170, 250, 227);"/><text class="label" transform="translate(0,&#10;          23)" style="text-anchor: middle; font-family: Balto;"><tspan x="0" dy="0em">invoice</tspan></text></g><g class="cell" transform="translate(150,0)"><path class="swatch" d="M-5,-5h10v10h-10Z" style="fill: rgb(186, 238, 236);"/><text class="label" transform="translate(0,&#10;          23)" style="text-anchor: middle; font-family: Balto;"><tspan x="0" dy="0em">Northeast</tspan></text></g><g class="cell" transform="translate(200,0)"><path class="swatch" d="M-5,-5h10v10h-10Z" style="fill: rgb(220, 247, 107);"/><text class="label" transform="translate(0,&#10;          23)" style="text-anchor: middle; font-family: Balto;"><tspan x="0" dy="0em">Dinar</tspan></text></g><g class="cell" transform="translate(250,0)"><path class="swatch" d="M-5,-5h10v10h-10Z" style="fill: rgb(124, 93, 107);"/><text class="label" transform="translate(0,&#10;          23)" style="text-anchor: middle; font-family: Balto;"><tspan x="0" dy="0em">female</tspan></text></g><g class="cell" transform="translate(300,0)"><path class="swatch" d="M-5,-5h10v10h-10Z" style="fill: rgb(101, 169, 190);"/><text class="label" transform="translate(0,&#10;          23)" style="text-anchor: middle; font-family: Balto;"><tspan x="0" dy="0em">hour</tspan></text></g></g><text class="legendTitle" style="font-family: Balto;">Tunnel</text></g></g></svg>