<svg xmlns="http://www.w3.org/2000/svg" width="400" height="400"><g transform="translate(200, 200)"><text x="-70" y="-170" text-anchor="center" style="font-family: avenir; font-size: 25px; font-weight: bold; fill: rgb(0, 0, 0);">Rubber primary Wagon</text><path d="M-29.018433945659776,-63.70188765916894A70,70,0,0,1,-15.537746381890832,-68.25377965630943L0,0Z" fill="#0ba7ee" stroke="black" style="stroke-width: 0;"/><path d="M60.66385331407595,-34.92702250533641A70,70,0,0,1,63.56499568259649,29.31708245838064L0,0Z" fill="#5377a1" stroke="black" style="stroke-width: 0;"/><path d="M-6.7621660426874595,-69.67261377622577A70,70,0,0,1,4.9313697987961557e-14,-70L0,0Z" fill="#688a8c" stroke="black" style="stroke-width: 0;"/><path d="M-30.25471318126689,63.12410261001162A70,70,0,0,1,-62.51095875414755,31.50206399011443L0,0Z" fill="#b6eed2" stroke="black" style="stroke-width: 0;"/><path d="M63.56499568259649,29.31708245838064A70,70,0,0,1,18.917512201199138,67.39530942222524L0,0Z" fill="#f704ac" stroke="black" style="stroke-width: 0;"/><path d="M-69.73080708346161,-6.133069662824629A70,70,0,0,1,-56.947374943527926,-40.70622172397296L0,0Z" fill="#6a9f29" stroke="black" style="stroke-width: 0;"/><path d="M-62.51095875414755,31.50206399011443A70,70,0,0,1,-69.73080708346161,-6.133069662824629L0,0Z" fill="#5736d0" stroke="black" style="stroke-width: 0;"/><path d="M4.2862637970157365e-15,-70A70,70,0,0,1,60.66385331407595,-34.92702250533641L0,0Z" fill="#cbe3cb" stroke="black" style="stroke-width: 0;"/><path d="M18.917512201199138,67.39530942222524A70,70,0,0,1,-30.25471318126689,63.12410261001162L0,0Z" fill="#fdeefa" stroke="black" style="stroke-width: 0;"/><path d="M-56.947374943527926,-40.70622172397296A70,70,0,0,1,-29.018433945659776,-63.70188765916894L0,0Z" fill="#d20f75" stroke="black" style="stroke-width: 0;"/><path d="M-15.537746381890832,-68.25377965630943A70,70,0,0,1,-6.7621660426874595,-69.67261377622577L0,0Z" fill="#dca637" stroke="black" style="stroke-width: 0;"/><text transform="translate(-27.992555693816556, -82.90154899474786)" fill="#0ba7ee" style="text-anchor: middle; font-size: 8px;">141</text><text transform="translate(87.41091881887868, -3.9473119004456363)" fill="#5377a1" style="text-anchor: middle; font-size: 8px;">661</text><text transform="translate(-4.231304067619471, -87.39763192379613)" fill="#688a8c" style="text-anchor: middle; font-size: 8px;">67</text><text transform="translate(-61.25453814854762, 62.48305015128602)" fill="#b6eed2" style="text-anchor: middle; font-size: 8px;">455</text><text transform="translate(56.779849926019324, 66.57551083077563)" fill="#f704ac" style="text-anchor: middle; font-size: 8px;">599</text><text transform="translate(-82.06957948591354, -30.345248771518094)" fill="#6a9f29" style="text-anchor: middle; font-size: 8px;">369</text><text transform="translate(-85.93304060457942, 16.48522163793089)" fill="#5736d0" style="text-anchor: middle; font-size: 8px;">384</text><text transform="translate(43.79558718340712, -75.75088476883016)" fill="#cbe3cb" style="text-anchor: middle; font-size: 8px;">726</text><text transform="translate(-7.571929392477676, 87.17176082468069)" fill="#fdeefa" style="text-anchor: middle; font-size: 8px;">499</text><text transform="translate(-55.617699485020495, -67.54940047101789)" fill="#d20f75" style="text-anchor: middle; font-size: 8px;">362</text><text transform="translate(-13.965627229297446, -86.37830315589851)" fill="#dca637" style="text-anchor: middle; font-size: 8px;">88</text><g class="legendOrdinal" transform="translate(-185, -140)"><g class="legendCells" transform="translate(13.625,15.333333969116211)"><g class="cell" transform="translate(0,0)"><path class="swatch" d="M-5,-5h10v10h-10Z" style="fill: rgb(11, 167, 238);"/><text class="label" transform="translate(0,&#10;          23)" style="text-anchor: middle; font-family: avenir;"><tspan x="0" dy="0em">onto</tspan></text></g><g class="cell" transform="translate(50,0)"><path class="swatch" d="M-5,-5h10v10h-10Z" style="fill: rgb(83, 119, 161);"/><text class="label" transform="translate(0,&#10;          23)" style="text-anchor: middle; font-family: avenir;"><tspan x="0" dy="0em">gee</tspan></text></g><g class="cell" transform="translate(100,0)"><path class="swatch" d="M-5,-5h10v10h-10Z" style="fill: rgb(104, 138, 140);"/><text class="label" transform="translate(0,&#10;          23)" style="text-anchor: middle; font-family: avenir;"><tspan x="0" dy="0em">Concrete</tspan></text></g><g class="cell" transform="translate(150,0)"><path class="swatch" d="M-5,-5h10v10h-10Z" style="fill: rgb(182, 238, 210);"/><text class="label" transform="translate(0,&#10;          23)" style="text-anchor: middle; font-family: avenir;"><tspan x="0" dy="0em">Folk</tspan></text></g><g class="cell" transform="translate(200,0)"><path class="swatch" d="M-5,-5h10v10h-10Z" style="fill: rgb(247, 4, 172);"/><text class="label" transform="translate(0,&#10;          23)" style="text-anchor: middle; font-family: avenir;"><tspan x="0" dy="0em">Ball</tspan></text></g><g class="cell" transform="translate(250,0)"><path class="swatch" d="M-5,-5h10v10h-10Z" style="fill: rgb(106, 159, 41);"/><text class="label" transform="translate(0,&#10;          23)" style="text-anchor: middle; font-family: avenir;"><tspan x="0" dy="0em">Electric</tspan></text></g><g class="cell" transform="translate(300,0)"><path class="swatch" d="M-5,-5h10v10h-10Z" style="fill: rgb(87, 54, 208);"/><text class="label" transform="translate(0,&#10;          23)" style="text-anchor: middle; font-family: avenir;"><tspan x="0" dy="0em">dither</tspan></text></g><g class="cell" transform="translate(350,0)"><path class="swatch" d="M-5,-5h10v10h-10Z" style="fill: rgb(203, 227, 203);"/><text class="label" transform="translate(0,&#10;          23)" style="text-anchor: middle; font-family: avenir;"><tspan x="0" dy="0em">invoice</tspan></text></g><g class="cell" transform="translate(400,0)"><path class="swatch" d="M-5,-5h10v10h-10Z" style="fill: rgb(253, 238, 250);"/><text class="label" transform="translate(0,&#10;          23)" style="text-anchor: middle; font-family: avenir;"><tspan x="0" dy="0em">male</tspan></text></g><g class="cell" transform="translate(450,0)"><path class="swatch" d="M-5,-5h10v10h-10Z" style="fill: rgb(210, 15, 117);"/><text class="label" transform="translate(0,&#10;          23)" style="text-anchor: middle; font-family: avenir;"><tspan x="0" dy="0em">Murfreesboro</tspan></text></g><g class="cell" transform="translate(500,0)"><path class="swatch" d="M-5,-5h10v10h-10Z" style="fill: rgb(220, 166, 55);"/><text class="label" transform="translate(0,&#10;          23)" style="text-anchor: middle; font-family: avenir;"><tspan x="0" dy="0em">Northwest</tspan></text></g></g><text class="legendTitle" style="font-family: avenir;">though</text></g></g></svg>