<svg xmlns="http://www.w3.org/2000/svg" width="400" height="400"><g transform="translate(200, 200)"><text x="-86" y="-170" text-anchor="center" style="font-family: sans-serif; font-size: 25px; font-weight: bold; fill: rgb(0, 0, 0);">solid Cliffs Account</text><path d="M-54.269707682446914,-44.21310697136951A70,70,0,0,1,-34.25924934677599,-61.043458570066534L0,0Z" fill="#6afd5e" stroke="black" style="stroke-width: 0;"/><path d="M-34.25924934677599,-61.043458570066534A70,70,0,0,1,-15.932394259241455,-68.16273771767159L0,0Z" fill="#bedcd7" stroke="black" style="stroke-width: 0;"/><path d="M4.2862637970157365e-15,-70A70,70,0,0,1,63.53556752439264,-29.38080426661842L0,0Z" fill="#488bb5" stroke="black" style="stroke-width: 0;"/><path d="M63.53556752439264,-29.38080426661842A70,70,0,0,1,55.6272613969672,42.49244391034109L0,0Z" fill="#eabe28" stroke="black" style="stroke-width: 0;"/><path d="M-68.55521117339939,-14.148604912521147A70,70,0,0,1,-54.269707682446914,-44.21310697136951L0,0Z" fill="#591f3c" stroke="black" style="stroke-width: 0;"/><path d="M-3.6513568536930987,-69.90470365524045A70,70,0,0,1,-1.2858791391047208e-14,-70L0,0Z" fill="#ecdc3c" stroke="black" style="stroke-width: 0;"/><path d="M55.6272613969672,42.49244391034109A70,70,0,0,1,-11.635390644497319,69.02621012738527L0,0Z" fill="#135b8e" stroke="black" style="stroke-width: 0;"/><path d="M-15.932394259241455,-68.16273771767159A70,70,0,0,1,-3.6513568536930987,-69.90470365524045L0,0Z" fill="#a3329d" stroke="black" style="stroke-width: 0;"/><path d="M-65.76459012430708,23.979547238884468A70,70,0,0,1,-68.55521117339939,-14.148604912521147L0,0Z" fill="#fa08ed" stroke="black" style="stroke-width: 0;"/><path d="M-11.635390644497319,69.02621012738527A70,70,0,0,1,-65.76459012430708,23.979547238884468L0,0Z" fill="#defd35" stroke="black" style="stroke-width: 0;"/><text transform="translate(-56.32161055470345, -66.96361836493244)" fill="#6afd5e" style="text-anchor: middle; font-size: 8px;">36</text><text transform="translate(-31.683772114634763, -81.56217618840176)" fill="#bedcd7" style="text-anchor: middle; font-size: 8px;">27</text><text transform="translate(47.131329990456514, -73.72169106396498)" fill="#488bb5" style="text-anchor: middle; font-size: 8px;">109</text><text transform="translate(86.97508533349527, 9.569980733064016)" fill="#eabe28" style="text-anchor: middle; font-size: 8px;">104</text><text transform="translate(-79.03182452339544, -37.55290551346502)" fill="#591f3c" style="text-anchor: middle; font-size: 8px;">46</text><text transform="translate(-2.282875128875334, -87.47021482279533)" fill="#ecdc3c" style="text-anchor: middle; font-size: 8px;">5</text><text transform="translate(32.1089785070579, 81.3957216273269)" fill="#135b8e" style="text-anchor: middle; font-size: 8px;">104</text><text transform="translate(-12.288170012585649, -86.63285103089814)" fill="#a3329d" style="text-anchor: middle; font-size: 8px;">17</text><text transform="translate(-87.26657482056078, 6.387090032829372)" fill="#fa08ed" style="text-anchor: middle; font-size: 8px;">53</text><text transform="translate(-55.971389386403, 67.25662473062155)" fill="#defd35" style="text-anchor: middle; font-size: 8px;">101</text><g class="legendOrdinal" transform="translate(-77, 130)"><g class="legendCells" transform="translate(22.588542938232422,15.333333969116211)"><g class="cell" transform="translate(0,0)"><path class="swatch" d="M-5,-5h10v10h-10Z" style="fill: rgb(106, 253, 94);"/><text class="label" transform="translate(0,&#10;          23)" style="text-anchor: middle; font-family: sans-serif;"><tspan x="0" dy="0em">Wagon</tspan></text></g><g class="cell" transform="translate(50,0)"><path class="swatch" d="M-5,-5h10v10h-10Z" style="fill: rgb(190, 220, 215);"/><text class="label" transform="translate(0,&#10;          23)" style="text-anchor: middle; font-family: sans-serif;"><tspan x="0" dy="0em">bray</tspan></text></g><g class="cell" transform="translate(100,0)"><path class="swatch" d="M-5,-5h10v10h-10Z" style="fill: rgb(72, 139, 181);"/><text class="label" transform="translate(0,&#10;          23)" style="text-anchor: middle; font-family: sans-serif;"><tspan x="0" dy="0em">Soul</tspan></text></g><g class="cell" transform="translate(150,0)"><path class="swatch" d="M-5,-5h10v10h-10Z" style="fill: rgb(234, 190, 40);"/><text class="label" transform="translate(0,&#10;          23)" style="text-anchor: middle; font-family: sans-serif;"><tspan x="0" dy="0em">wasp</tspan></text></g><g class="cell" transform="translate(200,0)"><path class="swatch" d="M-5,-5h10v10h-10Z" style="fill: rgb(89, 31, 60);"/><text class="label" transform="translate(0,&#10;          23)" style="text-anchor: middle; font-family: sans-serif;"><tspan x="0" dy="0em">ick</tspan></text></g><g class="cell" transform="translate(250,0)"><path class="swatch" d="M-5,-5h10v10h-10Z" style="fill: rgb(236, 220, 60);"/><text class="label" transform="translate(0,&#10;          23)" style="text-anchor: middle; font-family: sans-serif;"><tspan x="0" dy="0em">Non</tspan></text></g><g class="cell" transform="translate(300,0)"><path class="swatch" d="M-5,-5h10v10h-10Z" style="fill: rgb(19, 91, 142);"/><text class="label" transform="translate(0,&#10;          23)" style="text-anchor: middle; font-family: sans-serif;"><tspan x="0" dy="0em">Palatine</tspan></text></g><g class="cell" transform="translate(350,0)"><path class="swatch" d="M-5,-5h10v10h-10Z" style="fill: rgb(163, 50, 157);"/><text class="label" transform="translate(0,&#10;          23)" style="text-anchor: middle; font-family: sans-serif;"><tspan x="0" dy="0em">Music</tspan></text></g><g class="cell" transform="translate(400,0)"><path class="swatch" d="M-5,-5h10v10h-10Z" style="fill: rgb(250, 8, 237);"/><text class="label" transform="translate(0,&#10;          23)" style="text-anchor: middle; font-family: sans-serif;"><tspan x="0" dy="0em">Barbados</tspan></text></g><g class="cell" transform="translate(450,0)"><path class="swatch" d="M-5,-5h10v10h-10Z" style="fill: rgb(222, 253, 53);"/><text class="label" transform="translate(0,&#10;          23)" style="text-anchor: middle; font-family: sans-serif;"><tspan x="0" dy="0em">Skyway</tspan></text></g></g><text class="legendTitle" style="font-family: sans-serif;">Tennessine</text></g></g></svg>