<svg xmlns="http://www.w3.org/2000/svg" width="400" height="400"><g transform="translate(200, 200)"><text x="-80" y="-170" text-anchor="center" style="font-family: monospace; font-size: 25px; font-weight: bold; fill: rgb(0, 0, 0);">Steel Electric</text><path d="M58.51219191868297,38.422954036242594A70,70,0,0,1,10.643905380733726,69.18603383809472L0,0Z" fill="#ed18db" stroke="black" style="stroke-width: 2px;"/><path d="M4.2862637970157365e-15,-70A70,70,0,0,1,63.95752509483475,-28.450570886075095L0,0Z" fill="#afe605" stroke="black" style="stroke-width: 2px;"/><path d="M-38.710608481653026,58.3222838285691A70,70,0,0,1,-67.35546810293968,19.058880256559554L0,0Z" fill="#a18fd1" stroke="black" style="stroke-width: 2px;"/><path d="M-4.821822551476531,-69.83373130001054A70,70,0,0,1,-1.2858791391047208e-14,-70L0,0Z" fill="#3bbe52" stroke="black" style="stroke-width: 2px;"/><path d="M63.95752509483475,-28.450570886075095A70,70,0,0,1,58.51219191868297,38.422954036242594L0,0Z" fill="#9fe362" stroke="black" style="stroke-width: 2px;"/><path d="M-63.53027937696699,-29.39223710921852A70,70,0,0,1,-44.78943331594018,-53.795043110280595L0,0Z" fill="#f4f83d" stroke="black" style="stroke-width: 2px;"/><path d="M-29.079050910132047,-63.67423967481629A70,70,0,0,1,-15.384377236409124,-68.28851248231913L0,0Z" fill="#5fddf0" stroke="black" style="stroke-width: 2px;"/><path d="M10.643905380733726,69.18603383809472A70,70,0,0,1,-38.710608481653026,58.3222838285691L0,0Z" fill="#fcf6ae" stroke="black" style="stroke-width: 2px;"/><path d="M-67.35546810293968,19.058880256559554A70,70,0,0,1,-63.53027937696699,-29.39223710921852L0,0Z" fill="#aee6b3" stroke="black" style="stroke-width: 2px;"/><path d="M-44.78943331594018,-53.795043110280595A70,70,0,0,1,-29.079050910132047,-63.67423967481629L0,0Z" fill="#479cca" stroke="black" style="stroke-width: 2px;"/><path d="M-15.384377236409124,-68.28851248231913A70,70,0,0,1,-4.821822551476531,-69.83373130001054L0,0Z" fill="#810ca4" stroke="black" style="stroke-width: 2px;"/><text transform="translate(47.306071527364765, 73.60968412272837)" fill="#ed18db" style="text-anchor: middle; font-size: 13px;">170</text><text transform="translate(47.66795993817827, -73.37585158164933)" fill="#afe605" style="text-anchor: middle; font-size: 13px;">234</text><text transform="translate(-70.68754824851135, 51.570539289543795)" fill="#a18fd1" style="text-anchor: middle; font-size: 13px;">144</text><text transform="translate(-3.015430239729258, -87.44802559503174)" fill="#3bbe52" style="text-anchor: middle; font-size: 13px;">14</text><text transform="translate(87.21135408651949, 7.101388483650229)" fill="#9fe362" style="text-anchor: middle; font-size: 13px;">203</text><text transform="translate(-69.39655379873267, -53.295105974747834)" fill="#f4f83d" style="text-anchor: middle; font-size: 13px;">90</text><text transform="translate(-27.938883886898232, -82.91965247849521)" fill="#5fddf0" style="text-anchor: middle; font-size: 13px;">42</text><text transform="translate(-18.809913518464608, 85.45429862463259)" fill="#fcf6ae" style="text-anchor: middle; font-size: 13px;">150</text><text transform="translate(-87.22857380935997, -6.886647310922751)" fill="#aee6b3" style="text-anchor: middle; font-size: 13px;">144</text><text transform="translate(-46.57886242127689, -74.07198914258858)" fill="#479cca" style="text-anchor: middle; font-size: 13px;">54</text><text transform="translate(-12.665748149883932, -86.5784547321313)" fill="#810ca4" style="text-anchor: middle; font-size: 13px;">31</text><g class="legendOrdinal" transform="translate(-54, -140)"><g class="legendCells"><g class="cell" transform="translate(0,0)"><path class="swatch" d="M-5,-5h10v10h-10Z" style="fill: rgb(237, 24, 219);"/><text class="label" transform="translate(0,&#10;          23)" style="text-anchor: middle; font-family: monospace;"><tspan x="0" dy="0em">architecture</tspan></text></g><g class="cell" transform="translate(50,0)"><path class="swatch" d="M-5,-5h10v10h-10Z" style="fill: rgb(175, 230, 5);"/><text class="label" transform="translate(0,&#10;          23)" style="text-anchor: middle; font-family: monospace;"><tspan x="0" dy="0em">relationships</tspan></text></g><g class="cell" transform="translate(100,0)"><path class="swatch" d="M-5,-5h10v10h-10Z" style="fill: rgb(161, 143, 209);"/><text class="label" transform="translate(0,&#10;          23)" style="text-anchor: middle; font-family: monospace;"><tspan x="0" dy="0em">Gasoline</tspan></text></g><g class="cell" transform="translate(150,0)"><path class="swatch" d="M-5,-5h10v10h-10Z" style="fill: rgb(59, 190, 82);"/><text class="label" transform="translate(0,&#10;          23)" style="text-anchor: middle; font-family: monospace;"><tspan x="0" dy="0em">between</tspan></text></g><g class="cell" transform="translate(200,0)"><path class="swatch" d="M-5,-5h10v10h-10Z" style="fill: rgb(159, 227, 98);"/><text class="label" transform="translate(0,&#10;          23)" style="text-anchor: middle; font-family: monospace;"><tspan x="0" dy="0em">Rue</tspan></text></g><g class="cell" transform="translate(250,0)"><path class="swatch" d="M-5,-5h10v10h-10Z" style="fill: rgb(244, 248, 61);"/><text class="label" transform="translate(0,&#10;          23)" style="text-anchor: middle; font-family: monospace;"><tspan x="0" dy="0em">Fantastic</tspan></text></g><g class="cell" transform="translate(300,0)"><path class="swatch" d="M-5,-5h10v10h-10Z" style="fill: rgb(95, 221, 240);"/><text class="label" transform="translate(0,&#10;          23)" style="text-anchor: middle; font-family: monospace;"><tspan x="0" dy="0em">Dynamic</tspan></text></g><g class="cell" transform="translate(350,0)"><path class="swatch" d="M-5,-5h10v10h-10Z" style="fill: rgb(252, 246, 174);"/><text class="label" transform="translate(0,&#10;          23)" style="text-anchor: middle; font-family: monospace;"><tspan x="0" dy="0em">application</tspan></text></g><g class="cell" transform="translate(400,0)"><path class="swatch" d="M-5,-5h10v10h-10Z" style="fill: rgb(174, 230, 179);"/><text class="label" transform="translate(0,&#10;          23)" style="text-anchor: middle; font-family: monospace;"><tspan x="0" dy="0em">West</tspan></text></g><g class="cell" transform="translate(450,0)"><path class="swatch" d="M-5,-5h10v10h-10Z" style="fill: rgb(71, 156, 202);"/><text class="label" transform="translate(0,&#10;          23)" style="text-anchor: middle; font-family: monospace;"><tspan x="0" dy="0em">Infrastructure</tspan></text></g><g class="cell" transform="translate(500,0)"><path class="swatch" d="M-5,-5h10v10h-10Z" style="fill: rgb(129, 12, 164);"/><text class="label" transform="translate(0,&#10;          23)" style="text-anchor: middle; font-family: monospace;"><tspan x="0" dy="0em">olive</tspan></text></g></g></g></g></svg>