<svg xmlns="http://www.w3.org/2000/svg" width="400" height="400"><g transform="translate(200, 200)"><text x="-15" y="-170" text-anchor="center" style="font-family: sans-serif; font-size: 25px; font-weight: bold; fill: rgb(0, 0, 0);">blue Bradenton</text><path d="M-54.72820377276209,-43.64428613011134A70,70,0,0,1,-30.37186173822908,-63.06782075316933L0,0Z" fill="#9efd4d" stroke="white" style="stroke-width: 2px;"/><path d="M-30.37186173822908,-63.06782075316933A70,70,0,0,1,-9.396328607235896,-69.36648332375543L0,0Z" fill="#efa7bd" stroke="white" style="stroke-width: 2px;"/><path d="M-68.24495385272765,15.576465376942016A70,70,0,0,1,-54.72820377276209,-43.64428613011134L0,0Z" fill="#8ffcb5" stroke="white" style="stroke-width: 2px;"/><path d="M68.24495385272765,15.576465376942007A70,70,0,0,1,-6.27475162324034,69.71820057966673L0,0Z" fill="#cf2ff5" stroke="white" style="stroke-width: 2px;"/><path d="M-6.27475162324034,69.71820057966673A70,70,0,0,1,-68.24495385272765,15.576465376942016L0,0Z" fill="#7b6fbb" stroke="white" style="stroke-width: 2px;"/><path d="M-9.396328607235896,-69.36648332375543A70,70,0,0,1,-1.2858791391047208e-14,-70L0,0Z" fill="#efa7bd" stroke="white" style="stroke-width: 2px;"/><path d="M4.2862637970157365e-15,-70A70,70,0,0,1,68.24495385272765,15.576465376942007L0,0Z" fill="#979d44" stroke="white" style="stroke-width: 2px;"/><text transform="translate(-54.5553576626392, -68.4102547159526)" fill="#9efd4d" style="text-anchor: middle; font-size: 7px;">10</text><text transform="translate(-25.164941150301527, -83.80319645993141)" fill="#efa7bd" style="text-anchor: middle; font-size: 7px;">7</text><text transform="translate(-85.30619231590956, -19.4705817211775)" fill="#8ffcb5" style="text-anchor: middle; font-size: 7px;">20</text><text transform="translate(51.4312095755914, 70.7889870078079)" fill="#cf2ff5" style="text-anchor: middle; font-size: 7px;">32</text><text transform="translate(-57.569638519724855, 65.89375327531596)" fill="#7b6fbb" style="text-anchor: middle; font-size: 7px;">28</text><text transform="translate(-5.8860379910534855, -87.3018015665649)" fill="#efa7bd" style="text-anchor: middle; font-size: 7px;">3</text><text transform="translate(68.4102547159526, -54.55535766263918)" fill="#979d44" style="text-anchor: middle; font-size: 7px;">40</text><g class="legendOrdinal" transform="translate(-108, 130)"><g class="legendCells" transform="translate(14.9375,15.333333969116211)"><g class="cell" transform="translate(0,0)"><path class="swatch" d="M-5,-5h10v10h-10Z" style="fill: rgb(158, 253, 77);"/><text class="label" transform="translate(0,&#10;          23)" style="text-anchor: middle; font-family: sans-serif;"><tspan x="0" dy="0em">Web</tspan></text></g><g class="cell" transform="translate(50,0)"><path class="swatch" d="M-5,-5h10v10h-10Z" style="fill: rgb(239, 167, 189);"/><text class="label" transform="translate(0,&#10;          23)" style="text-anchor: middle; font-family: sans-serif;"><tspan x="0" dy="0em">Southwest</tspan></text></g><g class="cell" transform="translate(100,0)"><path class="swatch" d="M-5,-5h10v10h-10Z" style="fill: rgb(143, 252, 181);"/><text class="label" transform="translate(0,&#10;          23)" style="text-anchor: middle; font-family: sans-serif;"><tspan x="0" dy="0em">Convertible</tspan></text></g><g class="cell" transform="translate(150,0)"><path class="swatch" d="M-5,-5h10v10h-10Z" style="fill: rgb(207, 47, 245);"/><text class="label" transform="translate(0,&#10;          23)" style="text-anchor: middle; font-family: sans-serif;"><tspan x="0" dy="0em">Marketing</tspan></text></g><g class="cell" transform="translate(200,0)"><path class="swatch" d="M-5,-5h10v10h-10Z" style="fill: rgb(123, 111, 187);"/><text class="label" transform="translate(0,&#10;          23)" style="text-anchor: middle; font-family: sans-serif;"><tspan x="0" dy="0em">proactive</tspan></text></g><g class="cell" transform="translate(250,0)"><path class="swatch" d="M-5,-5h10v10h-10Z" style="fill: rgb(151, 157, 68);"/><text class="label" transform="translate(0,&#10;          23)" style="text-anchor: middle; font-family: sans-serif;"><tspan x="0" dy="0em">RSS</tspan></text></g></g><text class="legendTitle" style="font-family: sans-serif;">Bugatti</text></g></g></svg>