<svg xmlns="http://www.w3.org/2000/svg" width="400" height="400"><g transform="translate(200, 200)"><text x="-51" y="-170" text-anchor="center" style="font-family: Balto; font-size: 25px; font-weight: bold; fill: rgb(0, 0, 0);">Outdoors Fundamental</text><path d="M-61.03281969008383,34.27819891239497A70,70,0,0,1,-69.8226566579251,-4.9796201892824286L-47.87839313686292,-3.4145967012222367A48,48,0,0,0,-41.851076358914625,23.505050682785125Z" fill="#66b27c" stroke="black" style="stroke-width: 0;"/><path d="M-29.001754782844195,-63.70948296380825A70,70,0,0,1,-14.533505546016015,-68.4746465236873L-9.965832374410981,-46.954043330528435A48,48,0,0,0,-19.886917565378877,-43.68650260375423Z" fill="#2e1cfe" stroke="black" style="stroke-width: 0;"/><path d="M-58.26768712748317,-38.792739485807544A70,70,0,0,1,-42.59270367445554,-55.550531893943386L-29.206425376769516,-38.09179329870403A48,48,0,0,0,-39.9549854588456,-26.600735647410886Z" fill="#be65bf" stroke="black" style="stroke-width: 0;"/><path d="M-42.59270367445554,-55.550531893943386A70,70,0,0,1,-29.001754782844195,-63.70948296380825L-19.886917565378877,-43.68650260375423A48,48,0,0,0,-29.206425376769516,-38.09179329870403Z" fill="#b307ed" stroke="black" style="stroke-width: 0;"/><path d="M67.00275404385935,20.264030954824605A70,70,0,0,1,30.411947343527792,63.04850084478213L20.85390674984763,43.233257722136315A48,48,0,0,0,45.94474563007498,13.895335511879729Z" fill="#fcf5eb" stroke="black" style="stroke-width: 0;"/><path d="M4.2862637970157365e-15,-70A70,70,0,0,1,57.56800652492097,-39.8236691522348L39.47520447423152,-27.30765884724672A48,48,0,0,0,2.9391523179536475e-15,-48Z" fill="#3a43e2" stroke="black" style="stroke-width: 0;"/><path d="M-14.533505546016015,-68.4746465236873A70,70,0,0,1,-7.503128077005597e-14,-70L-5.1450021099466954e-14,-48A48,48,0,0,0,-9.965832374410981,-46.954043330528435Z" fill="#2b3ace" stroke="black" style="stroke-width: 0;"/><path d="M30.411947343527792,63.04850084478213A70,70,0,0,1,-23.518123366371295,65.93100843551645L-16.126713165511745,45.209834355782704A48,48,0,0,0,20.85390674984763,43.233257722136315Z" fill="#a3da7f" stroke="black" style="stroke-width: 0;"/><path d="M-23.518123366371295,65.93100843551645A70,70,0,0,1,-61.03281969008383,34.27819891239497L-41.851076358914625,23.505050682785125A48,48,0,0,0,-16.126713165511745,45.209834355782704Z" fill="#31593e" stroke="black" style="stroke-width: 0;"/><path d="M-69.8226566579251,-4.9796201892824286A70,70,0,0,1,-58.26768712748317,-38.792739485807544L-39.9549854588456,-26.600735647410886A48,48,0,0,0,-47.87839313686292,-3.4145967012222367Z" fill="#774475" stroke="black" style="stroke-width: 0;"/><path d="M57.56800652492097,-39.8236691522348A70,70,0,0,1,67.00275404385935,20.264030954824605L45.94474563007498,13.895335511879729A48,48,0,0,0,39.47520447423152,-27.30765884724672Z" fill="#2d8825" stroke="black" style="stroke-width: 0;"/><text transform="translate(-80.60430501476233, 18.04732703441588)" fill="#66b27c" style="text-anchor: middle; font-size: 13px;">131</text><text transform="translate(-25.83920930862954, -78.45441518681298)" fill="#2e1cfe" style="text-anchor: middle; font-size: 13px;">49</text><text transform="translate(-60.32340170958177, -56.425589994119036)" fill="#be65bf" style="text-anchor: middle; font-size: 13px;">74</text><text transform="translate(-42.51413648531262, -70.81884070576282)" fill="#b307ed" style="text-anchor: middle; font-size: 13px;">51</text><text transform="translate(62.77371235020411, 53.68632076957621)" fill="#fcf5eb" style="text-anchor: middle; font-size: 13px;">186</text><text transform="translate(38.348576343001184, -73.15836720748358)" fill="#3a43e2" style="text-anchor: middle; font-size: 13px;">217</text><text transform="translate(-8.621866173551078, -82.14878832755463)" fill="#2b3ace" style="text-anchor: middle; font-size: 13px;">47</text><text transform="translate(4.408593507158163, 82.48226659887955)" fill="#a3da7f" style="text-anchor: middle; font-size: 13px;">178</text><text transform="translate(-53.26612774026645, 63.13065527584533)" fill="#31593e" style="text-anchor: middle; font-size: 13px;">161</text><text transform="translate(-78.16211513626217, -26.710367976231577)" fill="#774475" style="text-anchor: middle; font-size: 13px;">116</text><text transform="translate(81.60023382881758, -12.812565671335783)" fill="#2d8825" style="text-anchor: middle; font-size: 13px;">202</text><g class="legendOrdinal" transform="translate(-111, -140)"><g class="legendCells" transform="translate(15.953125,15.333333969116211)"><g class="cell" transform="translate(0,0)"><path class="swatch" d="M-5,-5h10v10h-10Z" style="fill: rgb(102, 178, 124);"/><text class="label" transform="translate(0,&#10;          23)" style="text-anchor: middle; font-family: Balto;"><tspan x="0" dy="0em">Rock</tspan></text></g><g class="cell" transform="translate(50,0)"><path class="swatch" d="M-5,-5h10v10h-10Z" style="fill: rgb(46, 28, 254);"/><text class="label" transform="translate(0,&#10;          23)" style="text-anchor: middle; font-family: Balto;"><tspan x="0" dy="0em">navigate</tspan></text></g><g class="cell" transform="translate(100,0)"><path class="swatch" d="M-5,-5h10v10h-10Z" style="fill: rgb(190, 101, 191);"/><text class="label" transform="translate(0,&#10;          23)" style="text-anchor: middle; font-family: Balto;"><tspan x="0" dy="0em">South</tspan></text></g><g class="cell" transform="translate(150,0)"><path class="swatch" d="M-5,-5h10v10h-10Z" style="fill: rgb(179, 7, 237);"/><text class="label" transform="translate(0,&#10;          23)" style="text-anchor: middle; font-family: Balto;"><tspan x="0" dy="0em">Metal</tspan></text></g><g class="cell" transform="translate(200,0)"><path class="swatch" d="M-5,-5h10v10h-10Z" style="fill: rgb(252, 245, 235);"/><text class="label" transform="translate(0,&#10;          23)" style="text-anchor: middle; font-family: Balto;"><tspan x="0" dy="0em">accusantium</tspan></text></g><g class="cell" transform="translate(250,0)"><path class="swatch" d="M-5,-5h10v10h-10Z" style="fill: rgb(58, 67, 226);"/><text class="label" transform="translate(0,&#10;          23)" style="text-anchor: middle; font-family: Balto;"><tspan x="0" dy="0em">Country</tspan></text></g><g class="cell" transform="translate(300,0)"><path class="swatch" d="M-5,-5h10v10h-10Z" style="fill: rgb(43, 58, 206);"/><text class="label" transform="translate(0,&#10;          23)" style="text-anchor: middle; font-family: Balto;"><tspan x="0" dy="0em">API</tspan></text></g><g class="cell" transform="translate(350,0)"><path class="swatch" d="M-5,-5h10v10h-10Z" style="fill: rgb(163, 218, 127);"/><text class="label" transform="translate(0,&#10;          23)" style="text-anchor: middle; font-family: Balto;"><tspan x="0" dy="0em">Pines</tspan></text></g><g class="cell" transform="translate(400,0)"><path class="swatch" d="M-5,-5h10v10h-10Z" style="fill: rgb(49, 89, 62);"/><text class="label" transform="translate(0,&#10;          23)" style="text-anchor: middle; font-family: Balto;"><tspan x="0" dy="0em">sievert</tspan></text></g><g class="cell" transform="translate(450,0)"><path class="swatch" d="M-5,-5h10v10h-10Z" style="fill: rgb(119, 68, 117);"/><text class="label" transform="translate(0,&#10;          23)" style="text-anchor: middle; font-family: Balto;"><tspan x="0" dy="0em">Auto</tspan></text></g><g class="cell" transform="translate(500,0)"><path class="swatch" d="M-5,-5h10v10h-10Z" style="fill: rgb(45, 136, 37);"/><text class="label" transform="translate(0,&#10;          23)" style="text-anchor: middle; font-family: Balto;"><tspan x="0" dy="0em">Folding</tspan></text></g></g><text class="legendTitle" style="font-family: Balto;">FTP</text></g></g></svg>