<svg xmlns="http://www.w3.org/2000/svg" width="400" height="400"><g transform="translate(200, 200)"><text x="48" y="-170" text-anchor="center" style="font-family: Balto; font-size: 25px; font-weight: bold; fill: rgb(0, 0, 0);">Polestar auxiliary</text><path d="M4.2862637970157365e-15,-70A70,70,0,0,1,68.74916789962562,13.173910319608487L0,0Z" fill="#1f2a9f" stroke="white" style="stroke-width: 2px;"/><path d="M68.74916789962562,13.173910319608487A70,70,0,0,1,-5.238022216587235,69.80374720069503L0,0Z" fill="#76fdec" stroke="white" style="stroke-width: 2px;"/><path d="M-50.56687606905717,-48.40445273543141A70,70,0,0,1,-15.880563844046158,-68.17483180760459L0,0Z" fill="#ecc5d2" stroke="white" style="stroke-width: 2px;"/><path d="M-5.238022216587235,69.80374720069503A70,70,0,0,1,-69.43702311022587,8.860012505067864L0,0Z" fill="#185f9c" stroke="white" style="stroke-width: 2px;"/><path d="M-15.880563844046158,-68.17483180760459A70,70,0,0,1,-7.503128077005597e-14,-70L0,0Z" fill="#2cbafb" stroke="white" style="stroke-width: 2px;"/><path d="M-69.43702311022587,8.860012505067864A70,70,0,0,1,-50.56687606905717,-48.40445273543141L0,0Z" fill="#a22566" stroke="white" style="stroke-width: 2px;"/><text transform="translate(67.44311099440468, -55.74654051505269)" fill="#1f2a9f" style="text-anchor: middle; font-size: 9px;">423</text><text transform="translate(53.182336893753536, 69.48301261833213)" fill="#76fdec" style="text-anchor: middle; font-size: 9px;">350</text><text transform="translate(-43.32891175206597, -76.01878324717964)" fill="#ecc5d2" style="text-anchor: middle; font-size: 9px;">139</text><text transform="translate(-60.24202875566747, 63.45981383049696)" fill="#185f9c" style="text-anchor: middle; font-size: 9px;">329</text><text transform="translate(-9.990689942222506, -86.92776377244714)" fill="#2cbafb" style="text-anchor: middle; font-size: 9px;">55</text><text transform="translate(-83.10421450069832, -27.385023867470387)" fill="#a22566" style="text-anchor: middle; font-size: 9px;">214</text><g class="legendOrdinal" transform="translate(-50, 130)"><g class="legendCells"><g class="cell" transform="translate(0,0)"><path class="swatch" d="M-5,-5h10v10h-10Z" style="fill: rgb(31, 42, 159);"/><text class="label" transform="translate(0,&#10;          23)" style="text-anchor: middle; font-family: Balto;"><tspan x="0" dy="0em">Functionality</tspan></text></g><g class="cell" transform="translate(50,0)"><path class="swatch" d="M-5,-5h10v10h-10Z" style="fill: rgb(118, 253, 236);"/><text class="label" transform="translate(0,&#10;          23)" style="text-anchor: middle; font-family: Balto;"><tspan x="0" dy="0em">Zinc</tspan></text></g><g class="cell" transform="translate(100,0)"><path class="swatch" d="M-5,-5h10v10h-10Z" style="fill: rgb(236, 197, 210);"/><text class="label" transform="translate(0,&#10;          23)" style="text-anchor: middle; font-family: Balto;"><tspan x="0" dy="0em">Pickup</tspan></text></g><g class="cell" transform="translate(150,0)"><path class="swatch" d="M-5,-5h10v10h-10Z" style="fill: rgb(24, 95, 156);"/><text class="label" transform="translate(0,&#10;          23)" style="text-anchor: middle; font-family: Balto;"><tspan x="0" dy="0em">Hybrid</tspan></text></g><g class="cell" transform="translate(200,0)"><path class="swatch" d="M-5,-5h10v10h-10Z" style="fill: rgb(44, 186, 251);"/><text class="label" transform="translate(0,&#10;          23)" style="text-anchor: middle; font-family: Balto;"><tspan x="0" dy="0em">Regional</tspan></text></g><g class="cell" transform="translate(250,0)"><path class="swatch" d="M-5,-5h10v10h-10Z" style="fill: rgb(162, 37, 102);"/><text class="label" transform="translate(0,&#10;          23)" style="text-anchor: middle; font-family: Balto;"><tspan x="0" dy="0em">barring</tspan></text></g></g></g></g></svg>