<svg xmlns="http://www.w3.org/2000/svg" width="400" height="400"><g transform="translate(200, 200)"><text x="-58" y="-170" text-anchor="center" style="font-family: serif; font-size: 25px; font-weight: bold; fill: rgb(0, 0, 0);">Developer ipsam</text><path d="M-63.389860957410896,29.693863470422876A70,70,0,0,1,-66.89679719379947,-20.61112624801623L-43.96075244163965,-13.544454391553524A46,46,0,0,0,-41.65619434344144,19.513110280563605Z" fill="#ac224a" stroke="black" style="stroke-width: 0;"/><path d="M69.50718330947156,-8.291650522273523A70,70,0,0,1,43.398441966514824,54.92335782596549L28.518976149424027,36.092492285634464A46,46,0,0,0,45.67614903193845,-5.448798914636886Z" fill="#9fca8e" stroke="black" style="stroke-width: 0;"/><path d="M43.398441966514824,54.92335782596549A70,70,0,0,1,-23.42200339246297,65.96521626647981L-15.391602229332808,43.34857068940102A46,46,0,0,0,28.518976149424027,36.092492285634464Z" fill="#23f4cb" stroke="black" style="stroke-width: 0;"/><path d="M-51.12448467775116,-47.815134282300065A70,70,0,0,1,-26.809903402005126,-64.66242401561477L-17.617936521317652,-42.49245006740399A46,46,0,0,0,-33.59608993109362,-31.42137395694004Z" fill="#6b542b" stroke="black" style="stroke-width: 0;"/><path d="M-23.42200339246297,65.96521626647981A70,70,0,0,1,-63.389860957410896,29.693863470422876L-41.65619434344144,19.513110280563605A46,46,0,0,0,-15.391602229332808,43.34857068940102Z" fill="#eed92a" stroke="black" style="stroke-width: 0;"/><path d="M-8.386500832372807,-69.49580277821539A70,70,0,0,1,-1.2858791391047208e-14,-70L-8.450062914116736e-15,-46A46,46,0,0,0,-5.511129118416416,-45.668670397112976Z" fill="#2afdb6" stroke="black" style="stroke-width: 0;"/><path d="M4.2862637970157365e-15,-70A70,70,0,0,1,69.50718330947156,-8.291650522273523L45.67614903193845,-5.448798914636886A46,46,0,0,0,2.8166876380389124e-15,-46Z" fill="#edac07" stroke="black" style="stroke-width: 0;"/><path d="M-66.89679719379947,-20.61112624801623A70,70,0,0,1,-51.12448467775116,-47.815134282300065L-33.59608993109362,-31.42137395694004A46,46,0,0,0,-43.96075244163965,-13.544454391553524Z" fill="#6eb2e9" stroke="black" style="stroke-width: 0;"/><path d="M-26.809903402005126,-64.66242401561477A70,70,0,0,1,-8.386500832372807,-69.49580277821539L-5.511129118416416,-45.668670397112976A46,46,0,0,0,-17.617936521317652,-42.49245006740399Z" fill="#ac224a" stroke="black" style="stroke-width: 0;"/><text transform="translate(-81.00340151578865, 5.6470295618075514)" fill="#ac224a" style="text-anchor: middle; font-size: 14px;">135</text><text transform="translate(75.05078418516386, 30.99709330230748)" fill="#9fca8e" style="text-anchor: middle; font-size: 14px;">187</text><text transform="translate(13.238501409320174, 80.11355740719186)" fill="#23f4cb" style="text-anchor: middle; font-size: 14px;">185</text><text transform="translate(-46.246044648445974, -66.74386379566245)" fill="#6b542b" style="text-anchor: middle; font-size: 14px;">78</text><text transform="translate(-54.5690645120232, 60.13033509205357)" fill="#eed92a" style="text-anchor: middle; font-size: 14px;">145</text><text transform="translate(-4.872953145390171, -81.05365092112034)" fill="#2afdb6" style="text-anchor: middle; font-size: 14px;">22</text><text transform="translate(53.90933524912922, -60.722512900875515)" fill="#edac07" style="text-anchor: middle; font-size: 14px;">266</text><text transform="translate(-70.2472693969631, -40.727891453775165)" fill="#6eb2e9" style="text-anchor: middle; font-size: 14px;">83</text><text transform="translate(-20.605502394331328, -78.54204779019454)" fill="#ac224a" style="text-anchor: middle; font-size: 14px;">50</text><g class="legendOrdinal" transform="translate(-150, -181.33333333333334)"><g class="legendCells" transform="translate(5,15.333333969116211)"><g class="cell" transform="translate(0, 0)"><path class="swatch" d="M-5,-5h10v10h-10Z" style="fill: rgb(172, 34, 74);"/><text class="label" transform="translate( 15, 5)" style="font-family: serif;"><tspan x="0" dy="0em">female</tspan></text></g><g class="cell" transform="translate(0, 25.33333396911621)"><path class="swatch" d="M-5,-5h10v10h-10Z" style="fill: rgb(159, 202, 142);"/><text class="label" transform="translate( 15, 5)" style="font-family: serif;"><tspan x="0" dy="0em">Supervisor</tspan></text></g><g class="cell" transform="translate(0, 50.66666793823242)"><path class="swatch" d="M-5,-5h10v10h-10Z" style="fill: rgb(35, 244, 203);"/><text class="label" transform="translate( 15, 5)" style="font-family: serif;"><tspan x="0" dy="0em">Southwest</tspan></text></g><g class="cell" transform="translate(0, 76.00000190734863)"><path class="swatch" d="M-5,-5h10v10h-10Z" style="fill: rgb(107, 84, 43);"/><text class="label" transform="translate( 15, 5)" style="font-family: serif;"><tspan x="0" dy="0em">UTF8</tspan></text></g><g class="cell" transform="translate(0, 101.33333587646484)"><path class="swatch" d="M-5,-5h10v10h-10Z" style="fill: rgb(238, 217, 42);"/><text class="label" transform="translate( 15, 5)" style="font-family: serif;"><tspan x="0" dy="0em">Appleton</tspan></text></g><g class="cell" transform="translate(0, 126.66666984558105)"><path class="swatch" d="M-5,-5h10v10h-10Z" style="fill: rgb(42, 253, 182);"/><text class="label" transform="translate( 15, 5)" style="font-family: serif;"><tspan x="0" dy="0em">male</tspan></text></g><g class="cell" transform="translate(0, 152.00000381469727)"><path class="swatch" d="M-5,-5h10v10h-10Z" style="fill: rgb(237, 172, 7);"/><text class="label" transform="translate( 15, 5)" style="font-family: serif;"><tspan x="0" dy="0em">International</tspan></text></g><g class="cell" transform="translate(0, 177.33333778381348)"><path class="swatch" d="M-5,-5h10v10h-10Z" style="fill: rgb(110, 178, 233);"/><text class="label" transform="translate( 15, 5)" style="font-family: serif;"><tspan x="0" dy="0em">hack</tspan></text></g></g><text class="legendTitle" style="font-family: serif;">turquoise</text></g></g></svg>