<svg xmlns="http://www.w3.org/2000/svg" width="400" height="400"><g transform="translate(200, 200)"><text x="32" y="-170" text-anchor="center" style="font-family: monospace; font-size: 25px; font-weight: bold; fill: rgb(0, 0, 0);">more impala</text><path d="M4.2862637970157365e-15,-70A70,70,0,1,1,-67.99193895034279,16.64620790969701L0,0Z" fill="#a093b9" stroke="black" style="stroke-width: 0;"/><path d="M-67.99193895034279,16.64620790969701A70,70,0,0,1,-41.602318240128724,-56.29606662145281L0,0Z" fill="#5efddf" stroke="black" style="stroke-width: 0;"/><path d="M-41.602318240128724,-56.29606662145281A70,70,0,0,1,-1.2858791391047208e-14,-70L0,0Z" fill="#3b12bd" stroke="black" style="stroke-width: 0;"/><text transform="translate(68.8365055407489, 54.01652992314894)" fill="#a093b9" style="text-anchor: middle; font-size: 13px;">773</text><text transform="translate(-82.2806663550057, -29.76813639071533)" fill="#5efddf" style="text-anchor: middle; font-size: 13px;">203</text><text transform="translate(-27.375789607594886, -83.10725686340933)" fill="#3b12bd" style="text-anchor: middle; font-size: 13px;">110</text><g class="legendOrdinal" transform="translate(-150, -153.33333333333334)"><g class="legendCells"><g class="cell" transform="translate(0, 0)"><path class="swatch" d="M-5,-5h10v10h-10Z" style="fill: rgb(160, 147, 185);"/><text class="label" transform="translate( 15, 5)" style="font-family: monospace;"><tspan x="0" dy="0em">Islands</tspan></text></g><g class="cell" transform="translate(0, 25.33333396911621)"><path class="swatch" d="M-5,-5h10v10h-10Z" style="fill: rgb(94, 253, 223);"/><text class="label" transform="translate( 15, 5)" style="font-family: monospace;"><tspan x="0" dy="0em">Hybrid</tspan></text></g><g class="cell" transform="translate(0, 50.66666793823242)"><path class="swatch" d="M-5,-5h10v10h-10Z" style="fill: rgb(59, 18, 189);"/><text class="label" transform="translate( 15, 5)" style="font-family: monospace;"><tspan x="0" dy="0em">Bicycle</tspan></text></g></g></g></g></svg>