<svg xmlns="http://www.w3.org/2000/svg" width="400" height="400"><g transform="translate(200, 200)"><text x="44" y="-170" text-anchor="center" style="font-family: avenir; font-size: 25px; font-weight: bold; fill: rgb(0, 0, 0);">IP</text><path d="M53.197694713169305,-45.49731065903168A70,70,0,0,1,69.61791890022546,7.303791344338322L43.75983473728457,4.590954559298374A44,44,0,0,0,33.43855096256356,-28.59830955710563Z" fill="#fdc2ce" stroke="black" style="stroke-width: 0;"/><path d="M-16.372634328517506,-68.05833413436336A70,70,0,0,1,-5.172012935531385,-69.8086691048805L-3.250979559476871,-43.87973486592488A44,44,0,0,0,-10.291370149353861,-42.7795243130284Z" fill="#daca5e" stroke="black" style="stroke-width: 0;"/><path d="M4.2862637970157365e-15,-70A70,70,0,0,1,53.197694713169305,-45.49731065903168L33.43855096256356,-28.59830955710563A44,44,0,0,0,2.6942229581241772e-15,-44Z" fill="#8aa01d" stroke="black" style="stroke-width: 0;"/><path d="M-69.70569934044107,6.412135327645019A70,70,0,0,1,-61.242407337279744,-33.902323571323315L-38.49522746914727,-21.31003195911751A44,44,0,0,0,-43.81501101399153,4.030485063091154Z" fill="#22d6f7" stroke="black" style="stroke-width: 0;"/><path d="M69.61791890022546,7.303791344338322A70,70,0,0,1,42.91214604095369,55.30413838185948L26.97334894002803,34.762601268597386A44,44,0,0,0,43.75983473728457,4.590954559298374Z" fill="#3cb5fd" stroke="black" style="stroke-width: 0;"/><path d="M-37.118734899811535,-59.34812144826079A70,70,0,0,1,-16.372634328517506,-68.05833413436336L-10.291370149353861,-42.7795243130284A44,44,0,0,0,-23.331776222738682,-37.304533481763926Z" fill="#8cec84" stroke="black" style="stroke-width: 0;"/><path d="M-5.172012935531385,-69.8086691048805A70,70,0,0,1,-1.2858791391047208e-14,-70L-8.082668874372531e-15,-44A44,44,0,0,0,-3.250979559476871,-43.87973486592488Z" fill="#0d7fcf" stroke="black" style="stroke-width: 0;"/><path d="M-9.724590770618002,69.32122571293739A70,70,0,0,1,-53.8393461718116,44.73616885465088L-33.84187473656729,28.119877565780552A44,44,0,0,0,-6.112599912959887,43.5733418767035Z" fill="#619daa" stroke="black" style="stroke-width: 0;"/><path d="M-61.242407337279744,-33.902323571323315A70,70,0,0,1,-37.118734899811535,-59.34812144826079L-23.331776222738682,-37.304533481763926A44,44,0,0,0,-38.49522746914727,-21.31003195911751Z" fill="#1ffebb" stroke="black" style="stroke-width: 0;"/><path d="M42.91214604095369,55.30413838185948A70,70,0,0,1,-9.724590770618002,69.32122571293739L-6.112599912959887,43.5733418767035A44,44,0,0,0,26.97334894002803,34.762601268597386Z" fill="#04f68b" stroke="black" style="stroke-width: 0;"/><path d="M-53.8393461718116,44.73616885465088A70,70,0,0,1,-69.70569934044107,6.412135327645019L-43.81501101399153,4.030485063091154A44,44,0,0,0,-33.84187473656729,28.119877565780552Z" fill="#c547cb" stroke="black" style="stroke-width: 0;"/><text transform="translate(76.20034787236611, -23.69698259547801)" fill="#fdc2ce" style="text-anchor: middle; font-size: 14px;">571</text><text transform="translate(-12.32090960029331, -78.8431048768464)" fill="#daca5e" style="text-anchor: middle; font-size: 14px;">114</text><text transform="translate(33.384567203474184, -72.4811056250987)" fill="#8aa01d" style="text-anchor: middle; font-size: 14px;">607</text><text transform="translate(-78.09761815436458, -16.395183396810857)" fill="#22d6f7" style="text-anchor: middle; font-size: 14px;">420</text><text transform="translate(69.73373764052884, 38.79749778892822)" fill="#3cb5fd" style="text-anchor: middle; font-size: 14px;">567</text><text transform="translate(-30.89165674292723, -73.57815942028694)" fill="#8cec84" style="text-anchor: middle; font-size: 14px;">227</text><text transform="translate(-2.9500639137831923, -79.7454520515408)" fill="#0d7fcf" style="text-anchor: middle; font-size: 14px;">52</text><text transform="translate(-38.84707489248742, 69.70613152583833)" fill="#619daa" style="text-anchor: middle; font-size: 14px;">519</text><text transform="translate(-57.91155940341339, -54.90256175685175)" fill="#1ffebb" style="text-anchor: middle; font-size: 14px;">356</text><text transform="translate(20.53497731715581, 77.11261055484957)" fill="#04f68b" style="text-anchor: middle; font-size: 14px;">562</text><text transform="translate(-73.73101436539136, 30.525031050769673)" fill="#c547cb" style="text-anchor: middle; font-size: 14px;">423</text><g class="legendOrdinal" transform="translate(-150, 60.66666666666666)"><g class="legendCells" transform="translate(5,15.333333969116211)"><g class="cell" transform="translate(0, 0)"><path class="swatch" d="M-5,-5h10v10h-10Z" style="fill: rgb(253, 194, 206);"/><text class="label" transform="translate( 15, 5)" style="font-family: avenir;"><tspan x="0" dy="0em">black</tspan></text></g><g class="cell" transform="translate(0, 25.33333396911621)"><path class="swatch" d="M-5,-5h10v10h-10Z" style="fill: rgb(218, 202, 94);"/><text class="label" transform="translate( 15, 5)" style="font-family: avenir;"><tspan x="0" dy="0em">connect</tspan></text></g><g class="cell" transform="translate(0, 50.66666793823242)"><path class="swatch" d="M-5,-5h10v10h-10Z" style="fill: rgb(138, 160, 29);"/><text class="label" transform="translate( 15, 5)" style="font-family: avenir;"><tspan x="0" dy="0em">Movies</tspan></text></g><g class="cell" transform="translate(0, 76.00000190734863)"><path class="swatch" d="M-5,-5h10v10h-10Z" style="fill: rgb(34, 214, 247);"/><text class="label" transform="translate( 15, 5)" style="font-family: avenir;"><tspan x="0" dy="0em">Jaden</tspan></text></g><g class="cell" transform="translate(0, 101.33333587646484)"><path class="swatch" d="M-5,-5h10v10h-10Z" style="fill: rgb(60, 181, 253);"/><text class="label" transform="translate( 15, 5)" style="font-family: avenir;"><tspan x="0" dy="0em">pink</tspan></text></g><g class="cell" transform="translate(0, 126.66666984558105)"><path class="swatch" d="M-5,-5h10v10h-10Z" style="fill: rgb(140, 236, 132);"/><text class="label" transform="translate( 15, 5)" style="font-family: avenir;"><tspan x="0" dy="0em">Volvo</tspan></text></g><g class="cell" transform="translate(0, 152.00000381469727)"><path class="swatch" d="M-5,-5h10v10h-10Z" style="fill: rgb(13, 127, 207);"/><text class="label" transform="translate( 15, 5)" style="font-family: avenir;"><tspan x="0" dy="0em">relationships</tspan></text></g><g class="cell" transform="translate(0, 177.33333778381348)"><path class="swatch" d="M-5,-5h10v10h-10Z" style="fill: rgb(97, 157, 170);"/><text class="label" transform="translate( 15, 5)" style="font-family: avenir;"><tspan x="0" dy="0em">bus</tspan></text></g><g class="cell" transform="translate(0, 202.6666717529297)"><path class="swatch" d="M-5,-5h10v10h-10Z" style="fill: rgb(31, 254, 187);"/><text class="label" transform="translate( 15, 5)" style="font-family: avenir;"><tspan x="0" dy="0em">back</tspan></text></g><g class="cell" transform="translate(0, 228.0000057220459)"><path class="swatch" d="M-5,-5h10v10h-10Z" style="fill: rgb(4, 246, 139);"/><text class="label" transform="translate( 15, 5)" style="font-family: avenir;"><tspan x="0" dy="0em">Nigeria</tspan></text></g><g class="cell" transform="translate(0, 253.3333396911621)"><path class="swatch" d="M-5,-5h10v10h-10Z" style="fill: rgb(197, 71, 203);"/><text class="label" transform="translate( 15, 5)" style="font-family: avenir;"><tspan x="0" dy="0em">withdrawal</tspan></text></g></g><text class="legendTitle" style="font-family: avenir;">Personal</text></g></g></svg>