<svg xmlns="http://www.w3.org/2000/svg" width="400" height="400"><g transform="translate(200, 200)"><text x="-57" y="-170" text-anchor="center" style="font-family: sans-serif; font-size: 25px; font-weight: bold; fill: rgb(0, 0, 0);">North</text><path d="M-67.37014303933285,19.006941544073612A70,70,0,0,1,-62.10313080772719,-32.29862448895194L0,0Z" fill="#abe0dc" stroke="white" style="stroke-width: 2px;"/><path d="M-62.10313080772719,-32.29862448895194A70,70,0,0,1,-35.8032457222472,-60.15087360755775L0,0Z" fill="#6dff9d" stroke="white" style="stroke-width: 2px;"/><path d="M-35.365887929301536,60.40905537228739A70,70,0,0,1,-67.37014303933285,19.006941544073612L0,0Z" fill="#aacaa7" stroke="white" style="stroke-width: 2px;"/><path d="M29.79535924769504,63.34221789060431A70,70,0,0,1,-35.365887929301536,60.40905537228739L0,0Z" fill="#aa6c3e" stroke="white" style="stroke-width: 2px;"/><path d="M4.2862637970157365e-15,-70A70,70,0,0,1,69.84070831280268,-4.719688799700219L0,0Z" fill="#921ff2" stroke="white" style="stroke-width: 2px;"/><path d="M-35.8032457222472,-60.15087360755775A70,70,0,0,1,-1.3720377014906475e-13,-70L0,0Z" fill="#f4fe9e" stroke="white" style="stroke-width: 2px;"/><path d="M69.84070831280268,-4.719688799700219A70,70,0,0,1,29.79535924769504,63.34221789060431L0,0Z" fill="#7c111c" stroke="white" style="stroke-width: 2px;"/><text transform="translate(-87.04253124067097, -8.935757114918555)" fill="#abe0dc" style="text-anchor: middle; font-size: 11px;">260</text><text transform="translate(-63.61937090212407, -60.0735020289143)" fill="#6dff9d" style="text-anchor: middle; font-size: 11px;">191</text><text transform="translate(-69.2279609803517, 53.513917988714894)" fill="#aacaa7" style="text-anchor: middle; font-size: 11px;">264</text><text transform="translate(-3.9347327652794926, 87.4114859618908)" fill="#aa6c3e" style="text-anchor: middle; font-size: 11px;">334</text><text transform="translate(59.74961940269071, -63.92364962385678)" fill="#921ff2" style="text-anchor: middle; font-size: 11px;">518</text><text transform="translate(-23.208276532019582, -84.36602337679136)" fill="#f4fe9e" style="text-anchor: middle; font-size: 11px;">185</text><text transform="translate(75.41491765673283, 44.371614742177314)" fill="#7c111c" style="text-anchor: middle; font-size: 11px;">413</text><g class="legendOrdinal" transform="translate(-41, -140)"><g class="legendCells"><g class="cell" transform="translate(0,0)"><path class="swatch" d="M-5,-5h10v10h-10Z" style="fill: rgb(171, 224, 220);"/><text class="label" transform="translate(0,&#10;          23)" style="text-anchor: middle; font-family: sans-serif;"><tspan x="0" dy="0em">male</tspan></text></g><g class="cell" transform="translate(50,0)"><path class="swatch" d="M-5,-5h10v10h-10Z" style="fill: rgb(109, 255, 157);"/><text class="label" transform="translate(0,&#10;          23)" style="text-anchor: middle; font-family: sans-serif;"><tspan x="0" dy="0em">East</tspan></text></g><g class="cell" transform="translate(100,0)"><path class="swatch" d="M-5,-5h10v10h-10Z" style="fill: rgb(170, 202, 167);"/><text class="label" transform="translate(0,&#10;          23)" style="text-anchor: middle; font-family: sans-serif;"><tspan x="0" dy="0em">Wooden</tspan></text></g><g class="cell" transform="translate(150,0)"><path class="swatch" d="M-5,-5h10v10h-10Z" style="fill: rgb(170, 108, 62);"/><text class="label" transform="translate(0,&#10;          23)" style="text-anchor: middle; font-family: sans-serif;"><tspan x="0" dy="0em">female</tspan></text></g><g class="cell" transform="translate(200,0)"><path class="swatch" d="M-5,-5h10v10h-10Z" style="fill: rgb(146, 31, 242);"/><text class="label" transform="translate(0,&#10;          23)" style="text-anchor: middle; font-family: sans-serif;"><tspan x="0" dy="0em">Southwest</tspan></text></g><g class="cell" transform="translate(250,0)"><path class="swatch" d="M-5,-5h10v10h-10Z" style="fill: rgb(244, 254, 158);"/><text class="label" transform="translate(0,&#10;          23)" style="text-anchor: middle; font-family: sans-serif;"><tspan x="0" dy="0em">feed</tspan></text></g><g class="cell" transform="translate(300,0)"><path class="swatch" d="M-5,-5h10v10h-10Z" style="fill: rgb(124, 17, 28);"/><text class="label" transform="translate(0,&#10;          23)" style="text-anchor: middle; font-family: sans-serif;"><tspan x="0" dy="0em">Pizza</tspan></text></g></g></g></g></svg>