<svg xmlns="http://www.w3.org/2000/svg" width="400" height="400"><g transform="translate(200, 200)"><text x="-9" y="-170" text-anchor="center" style="font-family: serif; font-size: 25px; font-weight: bold; fill: rgb(0, 0, 0);">Senior</text><path d="M-55.362650977055864,-42.83663008212359A70,70,0,0,1,-32.15556534996041,-62.177323977672316L0,0Z" fill="#9c64a4" stroke="white" style="stroke-width: 2px;"/><path d="M-32.15556534996041,-62.177323977672316A70,70,0,0,1,-14.691677144539367,-68.44088414595927L0,0Z" fill="#eb4c4b" stroke="white" style="stroke-width: 2px;"/><path d="M-14.691677144539367,-68.44088414595927A70,70,0,0,1,-1.2858791391047208e-14,-70L0,0Z" fill="#ec0b4f" stroke="white" style="stroke-width: 2px;"/><path d="M50.091927252088475,48.89579556742559A70,70,0,0,1,-19.204258875371185,67.31416226209554L0,0Z" fill="#596cca" stroke="white" style="stroke-width: 2px;"/><path d="M4.2862637970157365e-15,-70A70,70,0,0,1,64.67156727579007,-26.787840265556284L0,0Z" fill="#cd61f5" stroke="white" style="stroke-width: 2px;"/><path d="M-19.204258875371185,67.31416226209554A70,70,0,0,1,-68.16337723715334,15.929657988341322L0,0Z" fill="#4b9dad" stroke="white" style="stroke-width: 2px;"/><path d="M-68.35087551804905,-15.104893773746403A70,70,0,0,1,-55.362650977055864,-42.83663008212359L0,0Z" fill="#f14e8f" stroke="white" style="stroke-width: 2px;"/><path d="M-68.16337723715334,15.929657988341322A70,70,0,0,1,-68.35087551804905,-15.104893773746403L0,0Z" fill="#b6bca0" stroke="white" style="stroke-width: 2px;"/><path d="M64.67156727579007,-26.787840265556284A70,70,0,0,1,50.091927252088475,48.89579556742559L0,0Z" fill="#f7bdb5" stroke="white" style="stroke-width: 2px;"/><text transform="translate(-56.0186235404677, -67.21728807852455)" fill="#9c64a4" style="text-anchor: middle; font-size: 8px;">72</text><text transform="translate(-29.540070212712088, -82.36282081029061)" fill="#eb4c4b" style="text-anchor: middle; font-size: 8px;">44</text><text transform="translate(-9.233858796183334, -87.0114121924943)" fill="#ec0b4f" style="text-anchor: middle; font-size: 8px;">35</text><text transform="translate(22.476413761233516, 84.5639451801643)" fill="#596cca" style="text-anchor: middle; font-size: 8px;">178</text><text transform="translate(48.6123953892152, -72.7535910764727)" fill="#cd61f5" style="text-anchor: middle; font-size: 8px;">195</text><text transform="translate(-63.34883310682274, 60.358722186639426)" fill="#4b9dad" style="text-anchor: middle; font-size: 8px;">176</text><text transform="translate(-79.23976135688108, -37.11213036332646)" fill="#f14e8f" style="text-anchor: middle; font-size: 8px;">73</text><text transform="translate(-87.49840312914507, 0.5286301633612307)" fill="#b6bca0" style="text-anchor: middle; font-size: 8px;">74</text><text transform="translate(85.92027647665103, 16.5516189593601)" fill="#f7bdb5" style="text-anchor: middle; font-size: 8px;">193</text><g class="legendOrdinal" transform="translate(-150, -162.33333333333334)"><g class="legendCells"><g class="cell" transform="translate(0, 0)"><path class="swatch" d="M-5,-5h10v10h-10Z" style="fill: rgb(156, 100, 164);"/><text class="label" transform="translate( 15, 5)" style="font-family: serif;"><tspan x="0" dy="0em">Coupe</tspan></text></g><g class="cell" transform="translate(0, 25.33333396911621)"><path class="swatch" d="M-5,-5h10v10h-10Z" style="fill: rgb(235, 76, 75);"/><text class="label" transform="translate( 15, 5)" style="font-family: serif;"><tspan x="0" dy="0em">Towels</tspan></text></g><g class="cell" transform="translate(0, 50.66666793823242)"><path class="swatch" d="M-5,-5h10v10h-10Z" style="fill: rgb(236, 11, 79);"/><text class="label" transform="translate( 15, 5)" style="font-family: serif;"><tspan x="0" dy="0em">female</tspan></text></g><g class="cell" transform="translate(0, 76.00000190734863)"><path class="swatch" d="M-5,-5h10v10h-10Z" style="fill: rgb(89, 108, 202);"/><text class="label" transform="translate( 15, 5)" style="font-family: serif;"><tspan x="0" dy="0em">kissingly</tspan></text></g><g class="cell" transform="translate(0, 101.33333587646484)"><path class="swatch" d="M-5,-5h10v10h-10Z" style="fill: rgb(205, 97, 245);"/><text class="label" transform="translate( 15, 5)" style="font-family: serif;"><tspan x="0" dy="0em">clunk</tspan></text></g><g class="cell" transform="translate(0, 126.66666984558105)"><path class="swatch" d="M-5,-5h10v10h-10Z" style="fill: rgb(75, 157, 173);"/><text class="label" transform="translate( 15, 5)" style="font-family: serif;"><tspan x="0" dy="0em">open</tspan></text></g><g class="cell" transform="translate(0, 152.00000381469727)"><path class="swatch" d="M-5,-5h10v10h-10Z" style="fill: rgb(241, 78, 143);"/><text class="label" transform="translate( 15, 5)" style="font-family: serif;"><tspan x="0" dy="0em">boo</tspan></text></g><g class="cell" transform="translate(0, 177.33333778381348)"><path class="swatch" d="M-5,-5h10v10h-10Z" style="fill: rgb(182, 188, 160);"/><text class="label" transform="translate( 15, 5)" style="font-family: serif;"><tspan x="0" dy="0em">Kentucky</tspan></text></g><g class="cell" transform="translate(0, 202.6666717529297)"><path class="swatch" d="M-5,-5h10v10h-10Z" style="fill: rgb(247, 189, 181);"/><text class="label" transform="translate( 15, 5)" style="font-family: serif;"><tspan x="0" dy="0em">Chips</tspan></text></g></g></g></g></svg>