<svg xmlns="http://www.w3.org/2000/svg" width="400" height="400"><g transform="translate(200, 200)"><text x="6" y="-170" text-anchor="center" style="font-family: sans-serif; font-size: 25px; font-weight: bold; fill: rgb(0, 0, 0);">Alexandria Paradigm</text><path d="M-26.07226554118681,64.96335097229701A70,70,0,0,1,-65.65171473137944,24.28687614390898L-48.76984522902473,18.041679421189528A52,52,0,0,0,-19.36796868773877,48.25848929370635Z" fill="#25e8bf" stroke="white" style="stroke-width: 2px;"/><path d="M-52.02998599774504,-46.828202582145465A70,70,0,0,1,-27.77062952304451,-64.25567784946175L-20.629610502833064,-47.73278925960015A52,52,0,0,0,-38.65084674118203,-34.78666477530806Z" fill="#44d0a7" stroke="white" style="stroke-width: 2px;"/><path d="M-1.6190164909973366,-69.9812745354204A70,70,0,0,1,-7.503128077005597e-14,-70L-5.5737522857755866e-14,-52A52,52,0,0,0,-1.2026979647408786,-51.98608965488372Z" fill="#ac7b1a" stroke="white" style="stroke-width: 2px;"/><path d="M54.60342864405898,-43.80029201173389A70,70,0,0,1,68.4886398661901,14.467418887946701L50.877275329169784,10.74722545961755A52,52,0,0,0,40.56254699272952,-32.537359780145174Z" fill="#de26ac" stroke="white" style="stroke-width: 2px;"/><path d="M-65.65171473137944,24.28687614390898A70,70,0,0,1,-68.26827278443596,-15.473943615957797L-50.71357406843814,-11.494929543282934A52,52,0,0,0,-48.76984522902473,18.041679421189528Z" fill="#b5bd0f" stroke="white" style="stroke-width: 2px;"/><path d="M4.2862637970157365e-15,-70A70,70,0,0,1,54.60342864405898,-43.80029201173389L40.56254699272952,-32.537359780145174A52,52,0,0,0,3.184081677783118e-15,-52Z" fill="#ef4e1a" stroke="white" style="stroke-width: 2px;"/><path d="M68.4886398661901,14.467418887946701A70,70,0,0,1,32.6158109460606,61.93713648798137L24.228888131359305,46.01044424821473A52,52,0,0,0,50.877275329169784,10.74722545961755Z" fill="#cda79d" stroke="white" style="stroke-width: 2px;"/><path d="M32.6158109460606,61.93713648798137A70,70,0,0,1,-26.07226554118681,64.96335097229701L-19.36796868773877,48.25848929370635A52,52,0,0,0,24.228888131359305,46.01044424821473Z" fill="#ad23e9" stroke="white" style="stroke-width: 2px;"/><path d="M-68.26827278443596,-15.473943615957797A70,70,0,0,1,-52.02998599774504,-46.828202582145465L-38.65084674118203,-34.78666477530806A52,52,0,0,0,-50.71357406843814,-11.494929543282934Z" fill="#8a61ca" stroke="white" style="stroke-width: 2px;"/><path d="M-27.77062952304451,-64.25567784946175A70,70,0,0,1,-1.6190164909973366,-69.9812745354204L-1.2026979647408786,-51.98608965488372A52,52,0,0,0,-20.629610502833064,-47.73278925960015Z" fill="#de88f0" stroke="white" style="stroke-width: 2px;"/><text transform="translate(-61.206635706405294, 59.55592116241164)" fill="#25e8bf" style="text-anchor: middle; font-size: 7px;">794</text><text transform="translate(-49.82566903215423, -69.35822017250894)" fill="#44d0a7" style="text-anchor: middle; font-size: 7px;">409</text><text transform="translate(-0.9876661135273215, -85.39428854231522)" fill="#ac7b1a" style="text-anchor: middle; font-size: 7px;">22</text><text transform="translate(83.07381131748576, -19.796511641871955)" fill="#de26ac" style="text-anchor: middle; font-size: 7px;">841</text><text transform="translate(-85.21568096677728, 5.607826438864716)" fill="#b5bd0f" style="text-anchor: middle; font-size: 7px;">549</text><text transform="translate(36.94384370826532, -76.99553501378676)" fill="#ef4e1a" style="text-anchor: middle; font-size: 7px;">851</text><text transform="translate(68.13316094142252, 51.48817709076732)" fill="#cda79d" style="text-anchor: middle; font-size: 7px;">835</text><text transform="translate(4.397755669471349, 85.28669148859997)" fill="#ad23e9" style="text-anchor: middle; font-size: 7px;">824</text><text transform="translate(-75.83347827445247, -39.27395540047047)" fill="#8a61ca" style="text-anchor: middle; font-size: 7px;">485</text><text transform="translate(-18.264725797685955, -83.42397611919097)" fill="#de88f0" style="text-anchor: middle; font-size: 7px;">366</text><g class="legendOrdinal" transform="translate(-171, 130)"><g class="legendCells"><g class="cell" transform="translate(0,0)"><path class="swatch" d="M-5,-5h10v10h-10Z" style="fill: rgb(37, 232, 191);"/><text class="label" transform="translate(0,&#10;          23)" style="text-anchor: middle; font-family: sans-serif;"><tspan x="0" dy="0em">Southwest</tspan></text></g><g class="cell" transform="translate(50,0)"><path class="swatch" d="M-5,-5h10v10h-10Z" style="fill: rgb(68, 208, 167);"/><text class="label" transform="translate(0,&#10;          23)" style="text-anchor: middle; font-family: sans-serif;"><tspan x="0" dy="0em">Northeast</tspan></text></g><g class="cell" transform="translate(100,0)"><path class="swatch" d="M-5,-5h10v10h-10Z" style="fill: rgb(172, 123, 26);"/><text class="label" transform="translate(0,&#10;          23)" style="text-anchor: middle; font-family: sans-serif;"><tspan x="0" dy="0em">asynchronous</tspan></text></g><g class="cell" transform="translate(150,0)"><path class="swatch" d="M-5,-5h10v10h-10Z" style="fill: rgb(222, 38, 172);"/><text class="label" transform="translate(0,&#10;          23)" style="text-anchor: middle; font-family: sans-serif;"><tspan x="0" dy="0em">Road</tspan></text></g><g class="cell" transform="translate(200,0)"><path class="swatch" d="M-5,-5h10v10h-10Z" style="fill: rgb(181, 189, 15);"/><text class="label" transform="translate(0,&#10;          23)" style="text-anchor: middle; font-family: sans-serif;"><tspan x="0" dy="0em">henry</tspan></text></g><g class="cell" transform="translate(250,0)"><path class="swatch" d="M-5,-5h10v10h-10Z" style="fill: rgb(239, 78, 26);"/><text class="label" transform="translate(0,&#10;          23)" style="text-anchor: middle; font-family: sans-serif;"><tspan x="0" dy="0em">male</tspan></text></g><g class="cell" transform="translate(300,0)"><path class="swatch" d="M-5,-5h10v10h-10Z" style="fill: rgb(205, 167, 157);"/><text class="label" transform="translate(0,&#10;          23)" style="text-anchor: middle; font-family: sans-serif;"><tspan x="0" dy="0em">CLI</tspan></text></g><g class="cell" transform="translate(350,0)"><path class="swatch" d="M-5,-5h10v10h-10Z" style="fill: rgb(173, 35, 233);"/><text class="label" transform="translate(0,&#10;          23)" style="text-anchor: middle; font-family: sans-serif;"><tspan x="0" dy="0em">Iodine</tspan></text></g><g class="cell" transform="translate(400,0)"><path class="swatch" d="M-5,-5h10v10h-10Z" style="fill: rgb(138, 97, 202);"/><text class="label" transform="translate(0,&#10;          23)" style="text-anchor: middle; font-family: sans-serif;"><tspan x="0" dy="0em">Jones</tspan></text></g><g class="cell" transform="translate(450,0)"><path class="swatch" d="M-5,-5h10v10h-10Z" style="fill: rgb(222, 136, 240);"/><text class="label" transform="translate(0,&#10;          23)" style="text-anchor: middle; font-family: sans-serif;"><tspan x="0" dy="0em">East</tspan></text></g></g></g></g></svg>