<svg xmlns="http://www.w3.org/2000/svg" width="400" height="400"><g transform="translate(200, 200)"><text x="17" y="-170" text-anchor="center" style="font-family: Balto; font-size: 25px; font-weight: bold; fill: rgb(0, 0, 0);">ubiquitous river</text><path d="M-2.5271689260955355,69.95436667727739A70,70,0,0,1,-69.65881947006686,6.902816094655432L-48.7611736290468,4.831971266258803A49,49,0,0,0,-1.7690182482668748,48.96805667409417Z" fill="#4ec8ce" stroke="white" style="stroke-width: 2px;"/><path d="M-23.334941319050298,-65.99606437990434A70,70,0,0,1,-11.39809863394812,-69.06578999425685L-7.978669043763683,-48.3460529959798A49,49,0,0,0,-16.33445892333521,-46.197245065933046Z" fill="#fa1e46" stroke="white" style="stroke-width: 2px;"/><path d="M-69.65881947006686,6.902816094655432A70,70,0,0,1,-40.07927023680454,-57.390348468058576L-28.05548916576318,-40.173243927641A49,49,0,0,0,-48.7611736290468,4.831971266258803Z" fill="#640787" stroke="white" style="stroke-width: 2px;"/><path d="M4.2862637970157365e-15,-70A70,70,0,0,1,69.74113482378235,6.014491956184964L48.81879437664764,4.210144369329475A49,49,0,0,0,3.0003846579110155e-15,-49Z" fill="#da785b" stroke="white" style="stroke-width: 2px;"/><path d="M69.74113482378235,6.014491956184964A70,70,0,0,1,-2.5271689260955355,69.95436667727739L-1.7690182482668748,48.96805667409417A49,49,0,0,0,48.81879437664764,4.210144369329475Z" fill="#45e155" stroke="white" style="stroke-width: 2px;"/><path d="M-4.4576608889435905,-69.85792195162394A70,70,0,0,1,-1.2858791391047208e-14,-70L-9.001153973733046e-15,-49A49,49,0,0,0,-3.1203626222605134,-48.90054536613676Z" fill="#c99a58" stroke="white" style="stroke-width: 2px;"/><path d="M-11.39809863394812,-69.06578999425685A70,70,0,0,1,-4.4576608889435905,-69.85792195162394L-3.1203626222605134,-48.90054536613676A49,49,0,0,0,-7.978669043763683,-48.3460529959798Z" fill="#51002c" stroke="white" style="stroke-width: 2px;"/><path d="M-40.07927023680454,-57.390348468058576A70,70,0,0,1,-23.334941319050298,-65.99606437990434L-16.33445892333521,-46.197245065933046A49,49,0,0,0,-28.05548916576318,-40.173243927641Z" fill="#9b7f0e" stroke="white" style="stroke-width: 2px;"/><text transform="translate(-57.02793307442892, 60.71824148687488)" fill="#4ec8ce" style="text-anchor: middle; font-size: 8px;">676</text><text transform="translate(-20.746714732802616, -80.67505083850713)" fill="#fa1e46" style="text-anchor: middle; font-size: 8px;">83</text><text transform="translate(-75.67515714256633, -34.816096729069024)" fill="#640787" style="text-anchor: middle; font-size: 8px;">499</text><text transform="translate(61.38032479606452, -56.31470259114955)" fill="#da785b" style="text-anchor: middle; font-size: 8px;">780</text><text transform="translate(55.19735434465581, 62.3870344971654)" fill="#45e155" style="text-anchor: middle; font-size: 8px;">716</text><text transform="translate(-2.653655092638538, -83.25772105125934)" fill="#c99a58" style="text-anchor: middle; font-size: 8px;">30</text><text transform="translate(-9.44594279184976, -82.76269790656356)" fill="#51002c" style="text-anchor: middle; font-size: 8px;">47</text><text transform="translate(-38.077306477361354, -74.08784469418107)" fill="#9b7f0e" style="text-anchor: middle; font-size: 8px;">127</text><g class="legendOrdinal" transform="translate(-150, -53.33333333333334)"><g class="legendCells" transform="translate(5,15.333333969116211)"><g class="cell" transform="translate(0, 0)"><path class="swatch" d="M-5,-5h10v10h-10Z" style="fill: rgb(78, 200, 206);"/><text class="label" transform="translate( 15, 5)" style="font-family: Balto;"><tspan x="0" dy="0em">SQL</tspan></text></g><g class="cell" transform="translate(0, 25.33333396911621)"><path class="swatch" d="M-5,-5h10v10h-10Z" style="fill: rgb(250, 30, 70);"/><text class="label" transform="translate( 15, 5)" style="font-family: Balto;"><tspan x="0" dy="0em">Toys</tspan></text></g><g class="cell" transform="translate(0, 50.66666793823242)"><path class="swatch" d="M-5,-5h10v10h-10Z" style="fill: rgb(100, 7, 135);"/><text class="label" transform="translate( 15, 5)" style="font-family: Balto;"><tspan x="0" dy="0em">Home</tspan></text></g><g class="cell" transform="translate(0, 76.00000190734863)"><path class="swatch" d="M-5,-5h10v10h-10Z" style="fill: rgb(218, 120, 91);"/><text class="label" transform="translate( 15, 5)" style="font-family: Balto;"><tspan x="0" dy="0em">payment</tspan></text></g><g class="cell" transform="translate(0, 101.33333587646484)"><path class="swatch" d="M-5,-5h10v10h-10Z" style="fill: rgb(69, 225, 85);"/><text class="label" transform="translate( 15, 5)" style="font-family: Balto;"><tspan x="0" dy="0em">Bedfordshire</tspan></text></g><g class="cell" transform="translate(0, 126.66666984558105)"><path class="swatch" d="M-5,-5h10v10h-10Z" style="fill: rgb(201, 154, 88);"/><text class="label" transform="translate( 15, 5)" style="font-family: Balto;"><tspan x="0" dy="0em">per</tspan></text></g><g class="cell" transform="translate(0, 152.00000381469727)"><path class="swatch" d="M-5,-5h10v10h-10Z" style="fill: rgb(81, 0, 44);"/><text class="label" transform="translate( 15, 5)" style="font-family: Balto;"><tspan x="0" dy="0em">South</tspan></text></g><g class="cell" transform="translate(0, 177.33333778381348)"><path class="swatch" d="M-5,-5h10v10h-10Z" style="fill: rgb(155, 127, 14);"/><text class="label" transform="translate( 15, 5)" style="font-family: Balto;"><tspan x="0" dy="0em">Southwest</tspan></text></g></g><text class="legendTitle" style="font-family: Balto;">Kentucky</text></g></g></svg>