<svg xmlns="http://www.w3.org/2000/svg" width="400" height="400"><g transform="translate(200, 200)"><text x="-26" y="-170" text-anchor="center" style="font-family: sans-serif; font-size: 25px; font-weight: bold; fill: rgb(0, 0, 0);">interface disafforest Ergonomic</text><path d="M4.2862637970157365e-15,-70A70,70,0,0,1,17.66561950167963,67.73422980754913L7.570979786434126,29.028955631806767A30,30,0,0,0,1.83697019872103e-15,-30Z" fill="#ba73fd" stroke="black" style="stroke-width: 2px;"/><path d="M-18.267725997151366,-67.57433082830343A70,70,0,0,1,-7.503128077005597e-14,-70L-3.2156263187166845e-14,-30A30,30,0,0,0,-7.829025427350586,-28.96042749784433Z" fill="#aadfe0" stroke="black" style="stroke-width: 2px;"/><path d="M17.66561950167963,67.73422980754913A70,70,0,0,1,-65.57492828532524,-24.493443620170115L-28.103540693710816,-10.49719012293005A30,30,0,0,0,7.570979786434126,29.028955631806767Z" fill="#af5e15" stroke="black" style="stroke-width: 2px;"/><path d="M-65.57492828532524,-24.493443620170115A70,70,0,0,1,-18.267725997151366,-67.57433082830343L-7.829025427350586,-28.96042749784433A30,30,0,0,0,-28.103540693710816,-10.49719012293005Z" fill="#2adbfe" stroke="black" style="stroke-width: 2px;"/><text transform="translate(69.43124687965944, -8.905164610257385)" fill="#ba73fd" style="text-anchor: middle; font-size: 13px;">973</text><text transform="translate(-9.214033916226942, -69.39093297391683)" fill="#aadfe0" style="text-anchor: middle; font-size: 13px;">89</text><text transform="translate(-51.96452062228788, 46.90083790824869)" fill="#af5e15" style="text-anchor: middle; font-size: 13px;">736</text><text transform="translate(-47.131607016339906, -51.755305235862515)" fill="#2adbfe" style="text-anchor: middle; font-size: 13px;">320</text><g class="legendOrdinal" transform="translate(-150, 28.666666666666657)"><g class="legendCells"><g class="cell" transform="translate(0, 0)"><path class="swatch" d="M-5,-5h10v10h-10Z" style="fill: rgb(186, 115, 253);"/><text class="label" transform="translate( 15, 5)" style="font-family: sans-serif;"><tspan x="0" dy="0em">Handcrafted</tspan></text></g><g class="cell" transform="translate(0, 25.33333396911621)"><path class="swatch" d="M-5,-5h10v10h-10Z" style="fill: rgb(170, 223, 224);"/><text class="label" transform="translate( 15, 5)" style="font-family: sans-serif;"><tspan x="0" dy="0em">ivory</tspan></text></g><g class="cell" transform="translate(0, 50.66666793823242)"><path class="swatch" d="M-5,-5h10v10h-10Z" style="fill: rgb(175, 94, 21);"/><text class="label" transform="translate( 15, 5)" style="font-family: sans-serif;"><tspan x="0" dy="0em">Northeast</tspan></text></g><g class="cell" transform="translate(0, 76.00000190734863)"><path class="swatch" d="M-5,-5h10v10h-10Z" style="fill: rgb(42, 219, 254);"/><text class="label" transform="translate( 15, 5)" style="font-family: sans-serif;"><tspan x="0" dy="0em">Technician</tspan></text></g></g></g></g></svg>