<svg xmlns="http://www.w3.org/2000/svg" width="400" height="400"><g transform="translate(200, 200)"><text x="6" y="-170" text-anchor="center" style="font-family: monospace; font-size: 25px; font-weight: bold; fill: rgb(0, 0, 0);">Extended Virginia</text><path d="M66.05116483447395,23.178516432445594A70,70,0,0,1,27.07947977565877,64.5499943848153L0,0Z" fill="#bbbf2f" stroke="white" style="stroke-width: 2px;"/><path d="M-54.710880711235106,43.66599972290801A70,70,0,0,1,-69.31243606639022,9.787042788430458L0,0Z" fill="#51baf7" stroke="white" style="stroke-width: 2px;"/><path d="M-7.568331289675908,-69.58965700080518A70,70,0,0,1,-1.2858791391047208e-14,-70L0,0Z" fill="#c4d9eb" stroke="white" style="stroke-width: 2px;"/><path d="M-27.437662690205265,-64.39856105611769A70,70,0,0,1,-7.568331289675908,-69.58965700080518L0,0Z" fill="#a8da1d" stroke="white" style="stroke-width: 2px;"/><path d="M59.52422942502121,-36.835663579708175A70,70,0,0,1,66.05116483447395,23.178516432445594L0,0Z" fill="#baed8d" stroke="white" style="stroke-width: 2px;"/><path d="M27.07947977565877,64.5499943848153A70,70,0,0,1,-18.44579316373952,67.52594104905566L0,0Z" fill="#bbbf2f" stroke="white" style="stroke-width: 2px;"/><path d="M-18.44579316373952,67.52594104905566A70,70,0,0,1,-54.710880711235106,43.66599972290801L0,0Z" fill="#cfa1b8" stroke="white" style="stroke-width: 2px;"/><path d="M-46.85359033580513,-52.007125210345436A70,70,0,0,1,-27.437662690205265,-64.39856105611769L0,0Z" fill="#cf2f23" stroke="white" style="stroke-width: 2px;"/><path d="M-69.31243606639022,9.787042788430458A70,70,0,0,1,-64.8102062385861,-26.450655328591274L0,0Z" fill="#bbbbe8" stroke="white" style="stroke-width: 2px;"/><path d="M-64.8102062385861,-26.450655328591274A70,70,0,0,1,-46.85359033580513,-52.007125210345436L0,0Z" fill="#2c0ba7" stroke="white" style="stroke-width: 2px;"/><path d="M4.2862637970157365e-15,-70A70,70,0,0,1,59.52422942502121,-36.835663579708175L0,0Z" fill="#8704f5" stroke="white" style="stroke-width: 2px;"/><text transform="translate(63.69150549677873, 59.997017655495206)" fill="#bbbf2f" style="text-anchor: middle; font-size: 13px;">301</text><text transform="translate(-80.35460187188298, 34.632180959494605)" fill="#51baf7" style="text-anchor: middle; font-size: 13px;">192</text><text transform="translate(-4.737154501224071, -87.37167371197333)" fill="#c4d9eb" style="text-anchor: middle; font-size: 13px;">39</text><text transform="translate(-22.11799934819087, -84.65839654064698)" fill="#a8da1d" style="text-anchor: middle; font-size: 13px;">106</text><text transform="translate(86.98707125100647, -9.460414112094908)" fill="#baed8d" style="text-anchor: middle; font-size: 13px;">321</text><text transform="translate(5.70761563139948, 87.31364798131048)" fill="#bbbf2f" style="text-anchor: middle; font-size: 13px;">239</text><text transform="translate(-48.09331640698228, 73.09776273579027)" fill="#cfa1b8" style="text-anchor: middle; font-size: 13px;">227</text><text transform="translate(-47.07348792087696, -73.75863837519678)" fill="#cf2f23" style="text-anchor: middle; font-size: 13px;">119</text><text transform="translate(-86.83239500182823, -10.788196246197696)" fill="#bbbbe8" style="text-anchor: middle; font-size: 13px;">190</text><text transform="translate(-71.59438868719926, -50.30401085903822)" fill="#2c0ba7" style="text-anchor: middle; font-size: 13px;">162</text><text transform="translate(42.58725922132943, -76.43674085160414)" fill="#8704f5" style="text-anchor: middle; font-size: 13px;">366</text><g class="legendOrdinal" transform="translate(130, -144.33333333333334)"><g class="legendCells"><g class="cell" transform="translate(0, 0)"><path class="swatch" d="M-5,-5h10v10h-10Z" style="fill: rgb(187, 191, 47);"/><text class="label" transform="translate( 15, 5)" style="font-family: monospace;"><tspan x="0" dy="0em">withdrawal</tspan></text></g><g class="cell" transform="translate(0, 25.33333396911621)"><path class="swatch" d="M-5,-5h10v10h-10Z" style="fill: rgb(81, 186, 247);"/><text class="label" transform="translate( 15, 5)" style="font-family: monospace;"><tspan x="0" dy="0em">goggles</tspan></text></g><g class="cell" transform="translate(0, 50.66666793823242)"><path class="swatch" d="M-5,-5h10v10h-10Z" style="fill: rgb(196, 217, 235);"/><text class="label" transform="translate( 15, 5)" style="font-family: monospace;"><tspan x="0" dy="0em">Supervisor</tspan></text></g><g class="cell" transform="translate(0, 76.00000190734863)"><path class="swatch" d="M-5,-5h10v10h-10Z" style="fill: rgb(168, 218, 29);"/><text class="label" transform="translate( 15, 5)" style="font-family: monospace;"><tspan x="0" dy="0em">Classical</tspan></text></g><g class="cell" transform="translate(0, 101.33333587646484)"><path class="swatch" d="M-5,-5h10v10h-10Z" style="fill: rgb(186, 237, 141);"/><text class="label" transform="translate( 15, 5)" style="font-family: monospace;"><tspan x="0" dy="0em">disloyal</tspan></text></g><g class="cell" transform="translate(0, 126.66666984558105)"><path class="swatch" d="M-5,-5h10v10h-10Z" style="fill: rgb(207, 161, 184);"/><text class="label" transform="translate( 15, 5)" style="font-family: monospace;"><tspan x="0" dy="0em">yellow</tspan></text></g><g class="cell" transform="translate(0, 152.00000381469727)"><path class="swatch" d="M-5,-5h10v10h-10Z" style="fill: rgb(207, 47, 35);"/><text class="label" transform="translate( 15, 5)" style="font-family: monospace;"><tspan x="0" dy="0em">Strategist</tspan></text></g><g class="cell" transform="translate(0, 177.33333778381348)"><path class="swatch" d="M-5,-5h10v10h-10Z" style="fill: rgb(187, 187, 232);"/><text class="label" transform="translate( 15, 5)" style="font-family: monospace;"><tspan x="0" dy="0em">magenta</tspan></text></g><g class="cell" transform="translate(0, 202.6666717529297)"><path class="swatch" d="M-5,-5h10v10h-10Z" style="fill: rgb(44, 11, 167);"/><text class="label" transform="translate( 15, 5)" style="font-family: monospace;"><tspan x="0" dy="0em">overriding</tspan></text></g><g class="cell" transform="translate(0, 228.0000057220459)"><path class="swatch" d="M-5,-5h10v10h-10Z" style="fill: rgb(135, 4, 245);"/><text class="label" transform="translate( 15, 5)" style="font-family: monospace;"><tspan x="0" dy="0em">disintermediate</tspan></text></g></g></g></g></svg>