<svg xmlns="http://www.w3.org/2000/svg" width="400" height="400"><g transform="translate(200, 200)"><text x="9" y="-170" text-anchor="center" style="font-family: monospace; font-size: 25px; font-weight: bold; fill: rgb(0, 0, 0);">Small</text><path d="M66.86517803347043,-20.713473068326877A70,70,0,0,1,49.1535172140119,49.839058433038595L37.918427565094895,38.44727364834406A54,54,0,0,0,51.58170876867719,-15.97896493842359Z" fill="#ea5df7" stroke="black" style="stroke-width: 2px;"/><path d="M-61.997451053953874,32.501016335071654A70,70,0,0,1,-69.25866982749675,-10.160543968006472L-53.428116724068914,-7.838133918176421A54,54,0,0,0,-47.82660509876442,25.07221260134099Z" fill="#ce0bcf" stroke="black" style="stroke-width: 2px;"/><path d="M-16.102144062676647,68.12283726170547A70,70,0,0,1,-61.997451053953874,32.501016335071654L-47.82660509876442,25.07221260134099A54,54,0,0,0,-12.4216539912077,52.551903030458504Z" fill="#7d1848" stroke="black" style="stroke-width: 2px;"/><path d="M-29.413160673499505,-63.520594921607135A70,70,0,0,1,-3.475432010220395,-69.91367085443544L-2.6810475507414475,-53.93340323056448A54,54,0,0,0,-22.69015251955676,-49.00160179666836Z" fill="#4bd3fa" stroke="black" style="stroke-width: 2px;"/><path d="M49.1535172140119,49.839058433038595A70,70,0,0,1,-16.102144062676647,68.12283726170547L-12.4216539912077,52.551903030458504A54,54,0,0,0,37.918427565094895,38.44727364834406Z" fill="#c9e5c9" stroke="black" style="stroke-width: 2px;"/><path d="M4.2862637970157365e-15,-70A70,70,0,0,1,66.86517803347043,-20.713473068326877L51.58170876867719,-15.97896493842359A54,54,0,0,0,3.3065463576978537e-15,-54Z" fill="#49b3a4" stroke="black" style="stroke-width: 2px;"/><path d="M-51.79284735087013,-47.09034893998413A70,70,0,0,1,-29.413160673499505,-63.520594921607135L-22.69015251955676,-49.00160179666836A54,54,0,0,0,-39.95448224209982,-36.3268406108449Z" fill="#77d1c1" stroke="black" style="stroke-width: 2px;"/><path d="M-69.25866982749675,-10.160543968006472A70,70,0,0,1,-51.79284735087013,-47.09034893998413L-39.95448224209982,-36.3268406108449A54,54,0,0,0,-53.428116724068914,-7.838133918176421Z" fill="#d7f18e" stroke="black" style="stroke-width: 2px;"/><path d="M-3.475432010220395,-69.91367085443544A70,70,0,0,1,-1.2858791391047208e-14,-70L-9.91963907309356e-15,-54A54,54,0,0,0,-2.6810475507414475,-53.93340323056448Z" fill="#edd0aa" stroke="black" style="stroke-width: 2px;"/><text transform="translate(84.18768425749778, 21.13465919668113)" fill="#ea5df7" style="text-anchor: middle; font-size: 14px;">572</text><text transform="translate(-85.56938483939665, 14.56435299651974)" fill="#ce0bcf" style="text-anchor: middle; font-size: 14px;">329</text><text transform="translate(-53.22063851196774, 68.5696991124976)" fill="#7d1848" style="text-anchor: middle; font-size: 14px;">448</text><text transform="translate(-20.77259966016001, -84.27774975258131)" fill="#4bd3fa" style="text-anchor: middle; font-size: 14px;">201</text><text transform="translate(23.4183597364297, 83.58122054178898)" fill="#c9e5c9" style="text-anchor: middle; font-size: 14px;">529</text><text transform="translate(51.50149253521611, -69.87013859042415)" fill="#49b3a4" style="text-anchor: middle; font-size: 14px;">665</text><text transform="translate(-51.36792128206894, -69.96839760319774)" fill="#77d1c1" style="text-anchor: middle; font-size: 14px;">209</text><text transform="translate(-78.46682451711959, -37.11061101894659)" fill="#d7f18e" style="text-anchor: middle; font-size: 14px;">310</text><text transform="translate(-2.155432508268915, -86.77323383798887)" fill="#edd0aa" style="text-anchor: middle; font-size: 14px;">26</text><g class="legendOrdinal" transform="translate(130, -64.33333333333334)"><g class="legendCells"><g class="cell" transform="translate(0, 0)"><path class="swatch" d="M-5,-5h10v10h-10Z" style="fill: rgb(234, 93, 247);"/><text class="label" transform="translate( 15, 5)" style="font-family: monospace;"><tspan x="0" dy="0em">versus</tspan></text></g><g class="cell" transform="translate(0, 25.33333396911621)"><path class="swatch" d="M-5,-5h10v10h-10Z" style="fill: rgb(206, 11, 207);"/><text class="label" transform="translate( 15, 5)" style="font-family: monospace;"><tspan x="0" dy="0em">payment</tspan></text></g><g class="cell" transform="translate(0, 50.66666793823242)"><path class="swatch" d="M-5,-5h10v10h-10Z" style="fill: rgb(125, 24, 72);"/><text class="label" transform="translate( 15, 5)" style="font-family: monospace;"><tspan x="0" dy="0em">National</tspan></text></g><g class="cell" transform="translate(0, 76.00000190734863)"><path class="swatch" d="M-5,-5h10v10h-10Z" style="fill: rgb(75, 211, 250);"/><text class="label" transform="translate( 15, 5)" style="font-family: monospace;"><tspan x="0" dy="0em">Tellurium</tspan></text></g><g class="cell" transform="translate(0, 101.33333587646484)"><path class="swatch" d="M-5,-5h10v10h-10Z" style="fill: rgb(201, 229, 201);"/><text class="label" transform="translate( 15, 5)" style="font-family: monospace;"><tspan x="0" dy="0em">withdrawal</tspan></text></g><g class="cell" transform="translate(0, 126.66666984558105)"><path class="swatch" d="M-5,-5h10v10h-10Z" style="fill: rgb(73, 179, 164);"/><text class="label" transform="translate( 15, 5)" style="font-family: monospace;"><tspan x="0" dy="0em">Hawaii</tspan></text></g><g class="cell" transform="translate(0, 152.00000381469727)"><path class="swatch" d="M-5,-5h10v10h-10Z" style="fill: rgb(119, 209, 193);"/><text class="label" transform="translate( 15, 5)" style="font-family: monospace;"><tspan x="0" dy="0em">Dynamic</tspan></text></g><g class="cell" transform="translate(0, 177.33333778381348)"><path class="swatch" d="M-5,-5h10v10h-10Z" style="fill: rgb(215, 241, 142);"/><text class="label" transform="translate( 15, 5)" style="font-family: monospace;"><tspan x="0" dy="0em">Movies</tspan></text></g><g class="cell" transform="translate(0, 202.6666717529297)"><path class="swatch" d="M-5,-5h10v10h-10Z" style="fill: rgb(237, 208, 170);"/><text class="label" transform="translate( 15, 5)" style="font-family: monospace;"><tspan x="0" dy="0em">Orchestrator</tspan></text></g></g></g></g></svg>