<svg xmlns="http://www.w3.org/2000/svg" width="400" height="400"><g transform="translate(200, 200)"><text x="3" y="-170" text-anchor="center" style="font-family: sans-serif; font-size: 25px; font-weight: bold; fill: rgb(0, 0, 0);">API ASCII</text><path d="M69.9501147171986,2.642243563859112A70,70,0,0,1,10.652855541232002,69.184656310613L0,0Z" fill="#510314" stroke="white" style="stroke-width: 2px;"/><path d="M-44.65944734353888,-53.903003283394874A70,70,0,0,1,-16.08108384721525,-68.12781181205538L0,0Z" fill="#aa52f1" stroke="white" style="stroke-width: 2px;"/><path d="M4.2862637970157365e-15,-70A70,70,0,0,1,69.9501147171986,2.642243563859112L0,0Z" fill="#f81f7d" stroke="white" style="stroke-width: 2px;"/><path d="M-16.08108384721525,-68.12781181205538A70,70,0,0,1,-6.872668386680296,-69.661800358925L0,0Z" fill="#df0fbf" stroke="white" style="stroke-width: 2px;"/><path d="M-60.41586711680315,35.35425010553588A70,70,0,0,1,-66.58913398870182,-21.584421109557645L0,0Z" fill="#3d4076" stroke="white" style="stroke-width: 2px;"/><path d="M-6.872668386680296,-69.661800358925A70,70,0,0,1,4.9313697987961557e-14,-70L0,0Z" fill="#7da9e1" stroke="white" style="stroke-width: 2px;"/><path d="M10.652855541232002,69.184656310613A70,70,0,0,1,-60.41586711680315,35.35425010553588L0,0Z" fill="#ee574e" stroke="white" style="stroke-width: 2px;"/><path d="M-66.58913398870182,-21.584421109557645A70,70,0,0,1,-44.65944734353888,-53.903003283394874L0,0Z" fill="#2bf9f8" stroke="white" style="stroke-width: 2px;"/><text transform="translate(65.32590026599567, 58.213200860605376)" fill="#510314" style="text-anchor: middle; font-size: 13px;">393</text><text transform="translate(-38.989969197879226, -78.33283029450952)" fill="#aa52f1" style="text-anchor: middle; font-size: 13px;">131</text><text transform="translate(63.02874498908054, -60.69289336571008)" fill="#f81f7d" style="text-anchor: middle; font-size: 13px;">458</text><text transform="translate(-14.378095624249932, -86.3106040195521)" fill="#df0fbf" style="text-anchor: middle; font-size: 13px;">38</text><text transform="translate(-86.99021717975191, 9.431442891710407)" fill="#3d4076" style="text-anchor: middle; font-size: 13px;">240</text><text transform="translate(-4.300615406111977, -87.39424870738756)" fill="#7da9e1" style="text-anchor: middle; font-size: 13px;">28</text><text transform="translate(-37.608456210583, 79.00540501419293)" fill="#ee574e" style="text-anchor: middle; font-size: 13px;">340</text><text transform="translate(-72.40494199876842, -49.13017783557252)" fill="#2bf9f8" style="text-anchor: middle; font-size: 13px;">161</text><g class="legendOrdinal" transform="translate(-188, 130)"><g class="legendCells" transform="translate(18.67708396911621,15.333333969116211)"><g class="cell" transform="translate(0,0)"><path class="swatch" d="M-5,-5h10v10h-10Z" style="fill: rgb(81, 3, 20);"/><text class="label" transform="translate(0,&#10;          23)" style="text-anchor: middle; font-family: sans-serif;"><tspan x="0" dy="0em">minus</tspan></text></g><g class="cell" transform="translate(50,0)"><path class="swatch" d="M-5,-5h10v10h-10Z" style="fill: rgb(170, 82, 241);"/><text class="label" transform="translate(0,&#10;          23)" style="text-anchor: middle; font-family: sans-serif;"><tspan x="0" dy="0em">Minivan</tspan></text></g><g class="cell" transform="translate(100,0)"><path class="swatch" d="M-5,-5h10v10h-10Z" style="fill: rgb(248, 31, 125);"/><text class="label" transform="translate(0,&#10;          23)" style="text-anchor: middle; font-family: sans-serif;"><tspan x="0" dy="0em">teal</tspan></text></g><g class="cell" transform="translate(150,0)"><path class="swatch" d="M-5,-5h10v10h-10Z" style="fill: rgb(223, 15, 191);"/><text class="label" transform="translate(0,&#10;          23)" style="text-anchor: middle; font-family: sans-serif;"><tspan x="0" dy="0em">Northwest</tspan></text></g><g class="cell" transform="translate(200,0)"><path class="swatch" d="M-5,-5h10v10h-10Z" style="fill: rgb(61, 64, 118);"/><text class="label" transform="translate(0,&#10;          23)" style="text-anchor: middle; font-family: sans-serif;"><tspan x="0" dy="0em">Mobile</tspan></text></g><g class="cell" transform="translate(250,0)"><path class="swatch" d="M-5,-5h10v10h-10Z" style="fill: rgb(125, 169, 225);"/><text class="label" transform="translate(0,&#10;          23)" style="text-anchor: middle; font-family: sans-serif;"><tspan x="0" dy="0em">Chips</tspan></text></g><g class="cell" transform="translate(300,0)"><path class="swatch" d="M-5,-5h10v10h-10Z" style="fill: rgb(238, 87, 78);"/><text class="label" transform="translate(0,&#10;          23)" style="text-anchor: middle; font-family: sans-serif;"><tspan x="0" dy="0em">Ball</tspan></text></g><g class="cell" transform="translate(350,0)"><path class="swatch" d="M-5,-5h10v10h-10Z" style="fill: rgb(43, 249, 248);"/><text class="label" transform="translate(0,&#10;          23)" style="text-anchor: middle; font-family: sans-serif;"><tspan x="0" dy="0em">yippee</tspan></text></g></g><text class="legendTitle" style="font-family: sans-serif;">initial</text></g></g></svg>