<svg xmlns="http://www.w3.org/2000/svg" width="400" height="400"><g transform="translate(200, 200)"><text x="-61" y="-170" text-anchor="center" style="font-family: monospace; font-size: 25px; font-weight: bold; fill: rgb(0, 0, 0);">Games</text><path d="M4.2862637970157365e-15,-70A70,70,0,0,1,31.305101872031027,62.60982827625196L14.758119453957484,29.51606190166164A33,33,0,0,0,2.0206672185931327e-15,-33Z" fill="#1a7cab" stroke="white" style="stroke-width: 0;"/><path d="M31.305101872031027,62.60982827625196A70,70,0,0,1,-65.18139791187673,-25.522252374224184L-30.72837330131331,-12.031918976419973A33,33,0,0,0,14.758119453957484,29.51606190166164Z" fill="#2228a7" stroke="white" style="stroke-width: 0;"/><path d="M-29.07303313622866,-63.676987556414375A70,70,0,0,1,-1.2858791391047208e-14,-70L-6.062001655779398e-15,-33A33,33,0,0,0,-13.705858478507796,-30.01915127659535Z" fill="#a68cd9" stroke="white" style="stroke-width: 0;"/><path d="M-65.18139791187673,-25.522252374224184A70,70,0,0,1,-29.07303313622866,-63.676987556414375L-13.705858478507796,-30.01915127659535A33,33,0,0,0,-30.72837330131331,-12.031918976419973Z" fill="#ed4f2f" stroke="white" style="stroke-width: 0;"/><text transform="translate(70.17123227248933, -16.56526973400525)" fill="#1a7cab" style="text-anchor: middle; font-size: 9px;">644</text><text transform="translate(-48.62556549264187, 53.23499206838295)" fill="#2228a7" style="text-anchor: middle; font-size: 9px;">579</text><text transform="translate(-15.322628252000374, -70.45301316090746)" fill="#a68cd9" style="text-anchor: middle; font-size: 9px;">103</text><text transform="translate(-52.367375812133105, -49.55873233397739)" fill="#ed4f2f" style="text-anchor: middle; font-size: 9px;">185</text><g class="legendOrdinal" transform="translate(-173, 130)"><g class="legendCells"><g class="cell" transform="translate(0,0)"><path class="swatch" d="M-5,-5h10v10h-10Z" style="fill: rgb(26, 124, 171);"/><text class="label" transform="translate(0,&#10;          23)" style="text-anchor: middle; font-family: monospace;"><tspan x="0" dy="0em">chapter</tspan></text></g><g class="cell" transform="translate(50,0)"><path class="swatch" d="M-5,-5h10v10h-10Z" style="fill: rgb(34, 40, 167);"/><text class="label" transform="translate(0,&#10;          23)" style="text-anchor: middle; font-family: monospace;"><tspan x="0" dy="0em">Southwest</tspan></text></g><g class="cell" transform="translate(100,0)"><path class="swatch" d="M-5,-5h10v10h-10Z" style="fill: rgb(166, 140, 217);"/><text class="label" transform="translate(0,&#10;          23)" style="text-anchor: middle; font-family: monospace;"><tspan x="0" dy="0em">until</tspan></text></g><g class="cell" transform="translate(150,0)"><path class="swatch" d="M-5,-5h10v10h-10Z" style="fill: rgb(237, 79, 47);"/><text class="label" transform="translate(0,&#10;          23)" style="text-anchor: middle; font-family: monospace;"><tspan x="0" dy="0em">Investor</tspan></text></g></g></g></g></svg>