<svg xmlns="http://www.w3.org/2000/svg" width="400" height="400"><g transform="translate(200, 200)"><text x="-98" y="-170" text-anchor="center" style="font-family: serif; font-size: 25px; font-weight: bold; fill: rgb(0, 0, 0);">Table deliver</text><path d="M-38.53575478940625,58.437963712048976A70,70,0,0,1,-18.482047134459517,-67.51602723590612L-11.617286770231697,-42.43864569114099A44,44,0,0,0,-24.222474439055357,36.73243433328793Z" fill="#1569d1" stroke="white" style="stroke-width: 0;"/><path d="M4.2862637970157365e-15,-70A70,70,0,1,1,-38.53575478940625,58.437963712048976L-24.222474439055357,36.73243433328793A44,44,0,1,0,2.6942229581241772e-15,-44Z" fill="#4f113a" stroke="white" style="stroke-width: 0;"/><path d="M-18.482047134459517,-67.51602723590612A70,70,0,0,1,-1.2858791391047208e-14,-70L-8.082668874372531e-15,-44A44,44,0,0,0,-11.617286770231697,-42.43864569114099Z" fill="#b865d8" stroke="white" style="stroke-width: 0;"/><text transform="translate(-78.80739601792142, -12.54728388435136)" fill="#1569d1" style="text-anchor: middle; font-size: 8px;">283</text><text transform="translate(76.43382247020136, 22.93274476798929)" fill="#4f113a" style="text-anchor: middle; font-size: 8px;">460</text><text transform="translate(-10.629486589086756, -79.08889944140344)" fill="#b865d8" style="text-anchor: middle; font-size: 8px;">33</text><g class="legendOrdinal" transform="translate(130, 0.6666666666666572)"><g class="legendCells" transform="translate(5,15.333333969116211)"><g class="cell" transform="translate(0, 0)"><path class="swatch" d="M-5,-5h10v10h-10Z" style="fill: rgb(21, 105, 209);"/><text class="label" transform="translate( 15, 5)" style="font-family: serif;"><tspan x="0" dy="0em">Intelligent</tspan></text></g><g class="cell" transform="translate(0, 25.33333396911621)"><path class="swatch" d="M-5,-5h10v10h-10Z" style="fill: rgb(79, 17, 58);"/><text class="label" transform="translate( 15, 5)" style="font-family: serif;"><tspan x="0" dy="0em">calculating</tspan></text></g><g class="cell" transform="translate(0, 50.66666793823242)"><path class="swatch" d="M-5,-5h10v10h-10Z" style="fill: rgb(184, 101, 216);"/><text class="label" transform="translate( 15, 5)" style="font-family: serif;"><tspan x="0" dy="0em">Jazz</tspan></text></g></g><text class="legendTitle" style="font-family: serif;">International</text></g></g></svg>