<svg xmlns="http://www.w3.org/2000/svg" width="400" height="400"><g transform="translate(200, 200)"><text x="-36" y="-170" text-anchor="center" style="font-family: avenir; font-size: 25px; font-weight: bold; fill: rgb(0, 0, 0);">West turquoise</text><path d="M24.650865700117496,65.51591272534307A70,70,0,0,1,-69.20603119794738,-10.513098773850306L0,0Z" fill="#add95a" stroke="white" style="stroke-width: 0;"/><path d="M-29.05089741855016,-63.687089423028866A70,70,0,0,1,-1.2858791391047208e-14,-70L0,0Z" fill="#7d3afb" stroke="white" style="stroke-width: 0;"/><path d="M-69.20603119794738,-10.513098773850306A70,70,0,0,1,-29.05089741855016,-63.687089423028866L0,0Z" fill="#78ac4f" stroke="white" style="stroke-width: 0;"/><path d="M4.2862637970157365e-15,-70A70,70,0,0,1,24.650865700117496,65.51591272534307L0,0Z" fill="#fbd3af" stroke="white" style="stroke-width: 0;"/><text transform="translate(-55.076556669456586, 67.99134434202736)" fill="#add95a" style="text-anchor: middle; font-size: 8px;">214</text><text transform="translate(-18.580562348274274, -85.50446013408829)" fill="#7d3afb" style="text-anchor: middle; font-size: 8px;">44</text><text transform="translate(-69.82650738702102, -52.73053068318486)" fill="#78ac4f" style="text-anchor: middle; font-size: 8px;">102</text><text transform="translate(86.08731891032035, -15.659614389658532)" fill="#fbd3af" style="text-anchor: middle; font-size: 8px;">286</text><g class="legendOrdinal" transform="translate(-150, -83.33333333333334)"><g class="legendCells" transform="translate(5,15.333333969116211)"><g class="cell" transform="translate(0, 0)"><path class="swatch" d="M-5,-5h10v10h-10Z" style="fill: rgb(173, 217, 90);"/><text class="label" transform="translate( 15, 5)" style="font-family: avenir;"><tspan x="0" dy="0em">Gislason</tspan></text></g><g class="cell" transform="translate(0, 25.33333396911621)"><path class="swatch" d="M-5,-5h10v10h-10Z" style="fill: rgb(125, 58, 251);"/><text class="label" transform="translate( 15, 5)" style="font-family: avenir;"><tspan x="0" dy="0em">extensible</tspan></text></g><g class="cell" transform="translate(0, 50.66666793823242)"><path class="swatch" d="M-5,-5h10v10h-10Z" style="fill: rgb(120, 172, 79);"/><text class="label" transform="translate( 15, 5)" style="font-family: avenir;"><tspan x="0" dy="0em">neural</tspan></text></g><g class="cell" transform="translate(0, 76.00000190734863)"><path class="swatch" d="M-5,-5h10v10h-10Z" style="fill: rgb(251, 211, 175);"/><text class="label" transform="translate( 15, 5)" style="font-family: avenir;"><tspan x="0" dy="0em">Berkshire</tspan></text></g></g><text class="legendTitle" style="font-family: avenir;">innovate</text></g></g></svg>