<svg xmlns="http://www.w3.org/2000/svg" width="400" height="400"><g transform="translate(200, 200)"><text x="38" y="-170" text-anchor="center" style="font-family: serif; font-size: 25px; font-weight: bold; fill: rgb(0, 0, 0);">Recycled enfold Account</text><path d="M-69.01672299899487,-11.691533110760625A70,70,0,0,1,-48.280185257935635,-50.685537497982736L-22.070941832199146,-23.17053142764925A32,32,0,0,0,-31.550501942397656,-5.344700850633429Z" fill="#299dc2" stroke="black" style="stroke-width: 2px;"/><path d="M-3.3365628494820476,-69.92043584211598A70,70,0,0,1,-7.503128077005597e-14,-70L-3.43000140663113e-14,-32A32,32,0,0,0,-1.5252858740489361,-31.963627813538732Z" fill="#e219f3" stroke="black" style="stroke-width: 2px;"/><path d="M-26.178811282557827,-64.9204885982247A70,70,0,0,1,-7.304224834207339,-69.61787342034621L-3.3390742099233552,-31.825313563586842A32,32,0,0,0,-11.96745658631215,-29.67793764490272Z" fill="#0c7a46" stroke="black" style="stroke-width: 2px;"/><path d="M-7.304224834207339,-69.61787342034621A70,70,0,0,1,-3.3365628494820476,-69.92043584211598L-1.5252858740489361,-31.963627813538732A32,32,0,0,0,-3.3390742099233552,-31.825313563586842Z" fill="#cde296" stroke="black" style="stroke-width: 2px;"/><path d="M66.48613834322204,-21.89962118864025A70,70,0,0,1,46.38901182612858,52.42193798206342L21.206405406230207,23.964314506086133A32,32,0,0,0,30.393663242615787,-10.011255400521257Z" fill="#85df4c" stroke="black" style="stroke-width: 2px;"/><path d="M-15.406558282728732,68.28351163993312A70,70,0,0,1,-59.43355772170297,36.9817822250497L-27.169626387064213,16.90595758859415A32,32,0,0,0,-7.042998072104563,31.215319606826572Z" fill="#efcfe8" stroke="black" style="stroke-width: 2px;"/><path d="M4.2862637970157365e-15,-70A70,70,0,0,1,66.48613834322204,-21.89962118864025L30.393663242615787,-10.011255400521257A32,32,0,0,0,1.959434878635765e-15,-32Z" fill="#846e9e" stroke="black" style="stroke-width: 2px;"/><path d="M46.38901182612858,52.42193798206342A70,70,0,0,1,-15.406558282728732,68.28351163993312L-7.042998072104563,31.215319606826572A32,32,0,0,0,21.206405406230207,23.964314506086133Z" fill="#ad2e81" stroke="black" style="stroke-width: 2px;"/><path d="M-59.43355772170297,36.9817822250497A70,70,0,0,1,-69.01672299899487,-11.691533110760625L-31.550501942397656,-5.344700850633429A32,32,0,0,0,-27.169626387064213,16.90595758859415Z" fill="#8a0ada" stroke="black" style="stroke-width: 2px;"/><path d="M-48.280185257935635,-50.685537497982736A70,70,0,0,1,-26.178811282557827,-64.9204885982247L-11.96745658631215,-29.67793764490272A32,32,0,0,0,-22.070941832199146,-23.17053142764925Z" fill="#2ed6fd" stroke="black" style="stroke-width: 2px;"/><text transform="translate(-63.04040883870203, -33.524123455346285)" fill="#299dc2" style="text-anchor: middle; font-size: 13px;">350</text><text transform="translate(-1.7021307955585914, -71.37970825630217)" fill="#e219f3" style="text-anchor: middle; font-size: 13px;">26</text><text transform="translate(-17.24357538829282, -69.2865001845833)" fill="#0c7a46" style="text-anchor: middle; font-size: 13px;">152</text><text transform="translate(-5.428995072133037, -71.1933003344188)" fill="#cde296" style="text-anchor: middle; font-size: 13px;">31</text><text transform="translate(68.9245588091137, 18.637735725377834)" fill="#85df4c" style="text-anchor: middle; font-size: 13px;">635</text><text transform="translate(-41.37241597226138, 58.19177945911407)" fill="#efcfe8" style="text-anchor: middle; font-size: 13px;">432</text><text transform="translate(41.85125080612112, -57.84836044317199)" fill="#846e9e" style="text-anchor: middle; font-size: 13px;">683</text><text transform="translate(17.751384629870874, 69.15814011179295)" fill="#ad2e81" style="text-anchor: middle; font-size: 13px;">516</text><text transform="translate(-70.05507890085971, 13.792966330500464)" fill="#8a0ada" style="text-anchor: middle; font-size: 13px;">395</text><text transform="translate(-38.661821442440804, -60.02685701211436)" fill="#2ed6fd" style="text-anchor: middle; font-size: 13px;">206</text><g class="legendOrdinal" transform="translate(-150, -177.33333333333334)"><g class="legendCells" transform="translate(5,15.333333969116211)"><g class="cell" transform="translate(0, 0)"><path class="swatch" d="M-5,-5h10v10h-10Z" style="fill: rgb(41, 157, 194);"/><text class="label" transform="translate( 15, 5)" style="font-family: serif;"><tspan x="0" dy="0em">IP</tspan></text></g><g class="cell" transform="translate(0, 25.33333396911621)"><path class="swatch" d="M-5,-5h10v10h-10Z" style="fill: rgb(226, 25, 243);"/><text class="label" transform="translate( 15, 5)" style="font-family: serif;"><tspan x="0" dy="0em">Borders</tspan></text></g><g class="cell" transform="translate(0, 50.66666793823242)"><path class="swatch" d="M-5,-5h10v10h-10Z" style="fill: rgb(12, 122, 70);"/><text class="label" transform="translate( 15, 5)" style="font-family: serif;"><tspan x="0" dy="0em">absentmindedly</tspan></text></g><g class="cell" transform="translate(0, 76.00000190734863)"><path class="swatch" d="M-5,-5h10v10h-10Z" style="fill: rgb(205, 226, 150);"/><text class="label" transform="translate( 15, 5)" style="font-family: serif;"><tspan x="0" dy="0em">port</tspan></text></g><g class="cell" transform="translate(0, 101.33333587646484)"><path class="swatch" d="M-5,-5h10v10h-10Z" style="fill: rgb(133, 223, 76);"/><text class="label" transform="translate( 15, 5)" style="font-family: serif;"><tspan x="0" dy="0em">Buckinghamshire</tspan></text></g><g class="cell" transform="translate(0, 126.66666984558105)"><path class="swatch" d="M-5,-5h10v10h-10Z" style="fill: rgb(239, 207, 232);"/><text class="label" transform="translate( 15, 5)" style="font-family: serif;"><tspan x="0" dy="0em">Cicero</tspan></text></g><g class="cell" transform="translate(0, 152.00000381469727)"><path class="swatch" d="M-5,-5h10v10h-10Z" style="fill: rgb(132, 110, 158);"/><text class="label" transform="translate( 15, 5)" style="font-family: serif;"><tspan x="0" dy="0em">holistic</tspan></text></g><g class="cell" transform="translate(0, 177.33333778381348)"><path class="swatch" d="M-5,-5h10v10h-10Z" style="fill: rgb(173, 46, 129);"/><text class="label" transform="translate( 15, 5)" style="font-family: serif;"><tspan x="0" dy="0em">female</tspan></text></g><g class="cell" transform="translate(0, 202.6666717529297)"><path class="swatch" d="M-5,-5h10v10h-10Z" style="fill: rgb(138, 10, 218);"/><text class="label" transform="translate( 15, 5)" style="font-family: serif;"><tspan x="0" dy="0em">steradian</tspan></text></g><g class="cell" transform="translate(0, 228.0000057220459)"><path class="swatch" d="M-5,-5h10v10h-10Z" style="fill: rgb(46, 214, 253);"/><text class="label" transform="translate( 15, 5)" style="font-family: serif;"><tspan x="0" dy="0em">incremental</tspan></text></g></g><text class="legendTitle" style="font-family: serif;">Oriental</text></g></g></svg>