<svg xmlns="http://www.w3.org/2000/svg" width="400" height="400"><g transform="translate(200, 200)"><text x="-48" y="-170" text-anchor="center" style="font-family: sans-serif; font-size: 25px; font-weight: bold; fill: rgb(0, 0, 0);">applications</text><path d="M-2.1451420140931328,-69.96712346337651A70,70,0,0,1,-7.503128077005597e-14,-70L0,0Z" fill="#2fbdbe" stroke="black" style="stroke-width: 0;"/><path d="M-36.87170926509546,59.50190800193111A70,70,0,0,1,-65.04478744729887,25.868429135448316L0,0Z" fill="#6fa70a" stroke="black" style="stroke-width: 0;"/><path d="M-48.23019238429332,-50.7331109096816A70,70,0,0,1,-17.823577186808006,-67.69283637332607L0,0Z" fill="#3b9845" stroke="black" style="stroke-width: 0;"/><path d="M-65.04478744729887,25.868429135448316A70,70,0,0,1,-68.18304235979518,-15.84527483391736L0,0Z" fill="#258276" stroke="black" style="stroke-width: 0;"/><path d="M-17.823577186808006,-67.69283637332607A70,70,0,0,1,-2.1451420140931328,-69.96712346337651L0,0Z" fill="#ad1ad2" stroke="black" style="stroke-width: 0;"/><path d="M58.98771690262861,37.68884788124125A70,70,0,0,1,12.167110500853868,68.93447194299824L0,0Z" fill="#ebee38" stroke="black" style="stroke-width: 0;"/><path d="M12.167110500853868,68.93447194299824A70,70,0,0,1,-36.87170926509546,59.50190800193111L0,0Z" fill="#92ee9d" stroke="black" style="stroke-width: 0;"/><path d="M4.2862637970157365e-15,-70A70,70,0,0,1,65.12376772596741,-25.668947722379365L0,0Z" fill="#09bd2b" stroke="black" style="stroke-width: 0;"/><path d="M-68.18304235979518,-15.84527483391736A70,70,0,0,1,-48.23019238429332,-50.7331109096816L0,0Z" fill="#25b66b" stroke="black" style="stroke-width: 0;"/><path d="M65.12376772596741,-25.668947722379365A70,70,0,0,1,58.98771690262861,37.68884788124125L0,0Z" fill="#bfb7c1" stroke="black" style="stroke-width: 0;"/><text transform="translate(-1.3408712080572305, -87.48972547907213)" fill="#2fbdbe" style="text-anchor: middle; font-size: 11px;">5</text><text transform="translate(-67.07674942623333, 56.18682840675655)" fill="#6fa70a" style="text-anchor: middle; font-size: 11px;">104</text><text transform="translate(-42.62267571721257, -76.41699755097251)" fill="#3b9845" style="text-anchor: middle; font-size: 11px;">82</text><text transform="translate(-87.25341982452584, 6.564352894615075)" fill="#258276" style="text-anchor: middle; font-size: 11px;">99</text><text transform="translate(-12.561133761099068, -86.59369445078423)" fill="#ad1ad2" style="text-anchor: middle; font-size: 11px;">37</text><text transform="translate(48.570577215291294, 72.78151570950845)" fill="#ebee38" style="text-anchor: middle; font-size: 11px;">135</text><text transform="translate(-16.527562946631843, 85.92490711688387)" fill="#92ee9d" style="text-anchor: middle; font-size: 11px;">119</text><text transform="translate(49.23773371543799, -72.33184346169826)" fill="#09bd2b" style="text-anchor: middle; font-size: 11px;">195</text><text transform="translate(-75.9553794014115, -43.43996247682118)" fill="#25b66b" style="text-anchor: middle; font-size: 11px;">95</text><text transform="translate(87.09251295422246, 8.434701376966222)" fill="#bfb7c1" style="text-anchor: middle; font-size: 11px;">154</text><g class="legendOrdinal" transform="translate(-71, 130)"><g class="legendCells" transform="translate(11.682291984558105,15.333333969116211)"><g class="cell" transform="translate(0,0)"><path class="swatch" d="M-5,-5h10v10h-10Z" style="fill: rgb(47, 189, 190);"/><text class="label" transform="translate(0,&#10;          23)" style="text-anchor: middle; font-family: sans-serif;"><tspan x="0" dy="0em">qua</tspan></text></g><g class="cell" transform="translate(50,0)"><path class="swatch" d="M-5,-5h10v10h-10Z" style="fill: rgb(111, 167, 10);"/><text class="label" transform="translate(0,&#10;          23)" style="text-anchor: middle; font-family: sans-serif;"><tspan x="0" dy="0em">Steel</tspan></text></g><g class="cell" transform="translate(100,0)"><path class="swatch" d="M-5,-5h10v10h-10Z" style="fill: rgb(59, 152, 69);"/><text class="label" transform="translate(0,&#10;          23)" style="text-anchor: middle; font-family: sans-serif;"><tspan x="0" dy="0em">calculate</tspan></text></g><g class="cell" transform="translate(150,0)"><path class="swatch" d="M-5,-5h10v10h-10Z" style="fill: rgb(37, 130, 118);"/><text class="label" transform="translate(0,&#10;          23)" style="text-anchor: middle; font-family: sans-serif;"><tspan x="0" dy="0em">connecting</tspan></text></g><g class="cell" transform="translate(200,0)"><path class="swatch" d="M-5,-5h10v10h-10Z" style="fill: rgb(173, 26, 210);"/><text class="label" transform="translate(0,&#10;          23)" style="text-anchor: middle; font-family: sans-serif;"><tspan x="0" dy="0em">Sports</tspan></text></g><g class="cell" transform="translate(250,0)"><path class="swatch" d="M-5,-5h10v10h-10Z" style="fill: rgb(235, 238, 56);"/><text class="label" transform="translate(0,&#10;          23)" style="text-anchor: middle; font-family: sans-serif;"><tspan x="0" dy="0em">quae</tspan></text></g><g class="cell" transform="translate(300,0)"><path class="swatch" d="M-5,-5h10v10h-10Z" style="fill: rgb(146, 238, 157);"/><text class="label" transform="translate(0,&#10;          23)" style="text-anchor: middle; font-family: sans-serif;"><tspan x="0" dy="0em">illo</tspan></text></g><g class="cell" transform="translate(350,0)"><path class="swatch" d="M-5,-5h10v10h-10Z" style="fill: rgb(9, 189, 43);"/><text class="label" transform="translate(0,&#10;          23)" style="text-anchor: middle; font-family: sans-serif;"><tspan x="0" dy="0em">Corkery</tspan></text></g><g class="cell" transform="translate(400,0)"><path class="swatch" d="M-5,-5h10v10h-10Z" style="fill: rgb(37, 182, 107);"/><text class="label" transform="translate(0,&#10;          23)" style="text-anchor: middle; font-family: sans-serif;"><tspan x="0" dy="0em">Bedfordshire</tspan></text></g><g class="cell" transform="translate(450,0)"><path class="swatch" d="M-5,-5h10v10h-10Z" style="fill: rgb(191, 183, 193);"/><text class="label" transform="translate(0,&#10;          23)" style="text-anchor: middle; font-family: sans-serif;"><tspan x="0" dy="0em">East</tspan></text></g></g><text class="legendTitle" style="font-family: sans-serif;">iterate</text></g></g></svg>