<svg xmlns="http://www.w3.org/2000/svg" width="400" height="400"><g transform="translate(200, 200)"><text x="-37" y="-170" text-anchor="center" style="font-family: Balto; font-size: 25px; font-weight: bold; fill: rgb(0, 0, 0);">Diverse Intelligent</text><path d="M-68.81035695631302,-12.850477638779957A70,70,0,0,1,-42.67267428418342,-55.48912388419906L-29.870871998928394,-38.842386718939345A49,49,0,0,0,-48.167249869419116,-8.995334347145969Z" fill="#292ccc" stroke="white" style="stroke-width: 0;"/><path d="M-31.822432290830903,62.348478755263A70,70,0,0,1,-68.81035695631302,-12.850477638779957L-48.167249869419116,-8.995334347145969A49,49,0,0,0,-22.27570260358163,43.643935128684106Z" fill="#ab8eab" stroke="white" style="stroke-width: 0;"/><path d="M4.2862637970157365e-15,-70A70,70,0,0,1,61.07725301362022,34.19896437482018L42.75407710953415,23.939275062374122A49,49,0,0,0,3.0003846579110155e-15,-49Z" fill="#d4b368" stroke="white" style="stroke-width: 0;"/><path d="M-42.67267428418342,-55.48912388419906A70,70,0,0,1,-1.2858791391047208e-14,-70L-9.001153973733046e-15,-49A49,49,0,0,0,-29.870871998928394,-38.842386718939345Z" fill="#f51b27" stroke="white" style="stroke-width: 0;"/><path d="M61.07725301362022,34.19896437482018A70,70,0,0,1,-31.822432290830903,62.348478755263L-22.27570260358163,43.643935128684106A49,49,0,0,0,42.75407710953415,23.939275062374122Z" fill="#c67f78" stroke="white" style="stroke-width: 0;"/><text transform="translate(-71.01847919743899, -43.53464841345252)" fill="#292ccc" style="text-anchor: middle; font-size: 7px;">185</text><text transform="translate(-74.74735026297023, 36.765794274907805)" fill="#ab8eab" style="text-anchor: middle; font-size: 7px;">325</text><text transform="translate(71.8642148137124, -42.12391991741272)" fill="#d4b368" style="text-anchor: middle; font-size: 7px;">527</text><text transform="translate(-26.818087336077866, -78.86494906886392)" fill="#f51b27" style="text-anchor: middle; font-size: 7px;">166</text><text transform="translate(24.156118441420777, 79.72058668778128)" fill="#c67f78" style="text-anchor: middle; font-size: 7px;">388</text><g class="legendOrdinal" transform="translate(-170, 130)"><g class="legendCells" transform="translate(17.901042938232422,15.333333969116211)"><g class="cell" transform="translate(0,0)"><path class="swatch" d="M-5,-5h10v10h-10Z" style="fill: rgb(41, 44, 204);"/><text class="label" transform="translate(0,&#10;          23)" style="text-anchor: middle; font-family: Balto;"><tspan x="0" dy="0em">acidic</tspan></text></g><g class="cell" transform="translate(50,0)"><path class="swatch" d="M-5,-5h10v10h-10Z" style="fill: rgb(171, 142, 171);"/><text class="label" transform="translate(0,&#10;          23)" style="text-anchor: middle; font-family: Balto;"><tspan x="0" dy="0em">Coupe</tspan></text></g><g class="cell" transform="translate(100,0)"><path class="swatch" d="M-5,-5h10v10h-10Z" style="fill: rgb(212, 179, 104);"/><text class="label" transform="translate(0,&#10;          23)" style="text-anchor: middle; font-family: Balto;"><tspan x="0" dy="0em">Electronic</tspan></text></g><g class="cell" transform="translate(150,0)"><path class="swatch" d="M-5,-5h10v10h-10Z" style="fill: rgb(245, 27, 39);"/><text class="label" transform="translate(0,&#10;          23)" style="text-anchor: middle; font-family: Balto;"><tspan x="0" dy="0em">file</tspan></text></g><g class="cell" transform="translate(200,0)"><path class="swatch" d="M-5,-5h10v10h-10Z" style="fill: rgb(198, 127, 120);"/><text class="label" transform="translate(0,&#10;          23)" style="text-anchor: middle; font-family: Balto;"><tspan x="0" dy="0em">the</tspan></text></g></g><text class="legendTitle" style="font-family: Balto;">wireless</text></g></g></svg>