<svg xmlns="http://www.w3.org/2000/svg" width="400" height="400"><g transform="translate(200, 200)"><text x="13" y="-170" text-anchor="center" style="font-family: Balto; font-size: 25px; font-weight: bold; fill: rgb(0, 0, 0);">World Northeast Recumbent</text><path d="M52.96628199174401,-45.76650491321196A70,70,0,0,1,69.34820300113076,9.530306422878478L28.72996981475417,3.948269803763941A29,29,0,0,0,21.94317396800823,-18.96040917833067Z" fill="#5ceeb5" stroke="white" style="stroke-width: 2px;"/><path d="M4.2862637970157365e-15,-70A70,70,0,0,1,52.96628199174401,-45.76650491321196L21.94317396800823,-18.96040917833067A29,29,0,0,0,1.7757378587636622e-15,-29Z" fill="#bfdd21" stroke="white" style="stroke-width: 2px;"/><path d="M38.97185839022608,58.14803740120697A70,70,0,0,1,-15.94974562321963,68.15867967144453L-6.6077517581909895,28.23716729245559A29,29,0,0,0,16.14548419023652,24.08990120907146Z" fill="#f7a359" stroke="white" style="stroke-width: 2px;"/><path d="M-23.631485039312146,-65.89046148599026A70,70,0,0,1,-8.685672790401679,-69.45904612199966L-3.5983501560235527,-28.775890536257002A29,29,0,0,0,-9.790186659143604,-27.297476901338822Z" fill="#bbac7d" stroke="white" style="stroke-width: 2px;"/><path d="M-15.94974562321963,68.15867967144453A70,70,0,0,1,-59.69717216553706,36.55472111011418L-24.731685611436784,15.14409874561873A29,29,0,0,0,-6.6077517581909895,28.23716729245559Z" fill="#cdea1f" stroke="white" style="stroke-width: 2px;"/><path d="M69.34820300113076,9.530306422878478A70,70,0,0,1,38.97185839022608,58.14803740120697L16.14548419023652,24.08990120907146A29,29,0,0,0,28.72996981475417,3.948269803763941Z" fill="#bed704" stroke="white" style="stroke-width: 2px;"/><path d="M-4.036306614042359,-69.88353331735193A70,70,0,0,1,-1.2858791391047208e-14,-70L-5.327213576290986e-15,-29A29,29,0,0,0,-1.6721841686746917,-28.95174951718866Z" fill="#7cc9ec" stroke="white" style="stroke-width: 2px;"/><path d="M-8.685672790401679,-69.45904612199966A70,70,0,0,1,-4.036306614042359,-69.88353331735193L-1.6721841686746917,-28.95174951718866A29,29,0,0,0,-3.5983501560235527,-28.775890536257002Z" fill="#dbf630" stroke="white" style="stroke-width: 2px;"/><path d="M-59.69717216553706,36.55472111011418A70,70,0,0,1,-69.51618165868386,-8.21586803672408L-28.799560972883317,-3.403716758071405A29,29,0,0,0,-24.731685611436784,15.14409874561873Z" fill="#aefaf1" stroke="white" style="stroke-width: 2px;"/><path d="M-69.51618165868386,-8.21586803672408A70,70,0,0,1,-49.62002762332491,-49.374617554574264L-20.556868586806036,-20.455198701180766A29,29,0,0,0,-28.799560972883317,-3.403716758071405Z" fill="#5e7e4a" stroke="white" style="stroke-width: 2px;"/><path d="M-49.62002762332491,-49.374617554574264A70,70,0,0,1,-23.631485039312146,-65.89046148599026L-9.790186659143604,-27.297476901338822A29,29,0,0,0,-20.556868586806036,-20.455198701180766Z" fill="#f6dfdc" stroke="white" style="stroke-width: 2px;"/><text transform="translate(66.44546829620784, -19.68475915264497)" fill="#5ceeb5" style="text-anchor: middle; font-size: 8px;">471</text><text transform="translate(28.83216430845304, -63.017428551872584)" fill="#bfdd21" style="text-anchor: middle; font-size: 8px;">476</text><text transform="translate(12.426675392925196, 68.17673898536705)" fill="#f7a359" style="text-anchor: middle; font-size: 8px;">455</text><text transform="translate(-16.094226683144342, -67.40523620217917)" fill="#bbac7d" style="text-anchor: middle; font-size: 8px;">122</text><text transform="translate(-40.581748258817875, 56.174831626431526)" fill="#cdea1f" style="text-anchor: middle; font-size: 8px;">439</text><text transform="translate(58.771572141531145, 36.720461707511234)" fill="#bed704" style="text-anchor: middle; font-size: 8px;">468</text><text transform="translate(-1.9988033540641397, -69.27116849853033)" fill="#7cc9ec" style="text-anchor: middle; font-size: 8px;">32</text><text transform="translate(-6.300884327896563, -69.01296151221499)" fill="#dbf630" style="text-anchor: middle; font-size: 8px;">37</text><text transform="translate(-67.6911304742413, 14.84590364778243)" fill="#aefaf1" style="text-anchor: middle; font-size: 8px;">370</text><text transform="translate(-62.39254400844488, -30.160577782169028)" fill="#5e7e4a" style="text-anchor: middle; font-size: 8px;">369</text><text transform="translate(-37.16971186224599, -58.48848194369221)" fill="#f6dfdc" style="text-anchor: middle; font-size: 8px;">246</text><g class="legendOrdinal" transform="translate(-165, 130)"><g class="legendCells"><g class="cell" transform="translate(0,0)"><path class="swatch" d="M-5,-5h10v10h-10Z" style="fill: rgb(92, 238, 181);"/><text class="label" transform="translate(0,&#10;          23)" style="text-anchor: middle; font-family: Balto;"><tspan x="0" dy="0em">Handcrafted</tspan></text></g><g class="cell" transform="translate(50,0)"><path class="swatch" d="M-5,-5h10v10h-10Z" style="fill: rgb(191, 221, 33);"/><text class="label" transform="translate(0,&#10;          23)" style="text-anchor: middle; font-family: Balto;"><tspan x="0" dy="0em">female</tspan></text></g><g class="cell" transform="translate(100,0)"><path class="swatch" d="M-5,-5h10v10h-10Z" style="fill: rgb(247, 163, 89);"/><text class="label" transform="translate(0,&#10;          23)" style="text-anchor: middle; font-family: Balto;"><tspan x="0" dy="0em">next</tspan></text></g><g class="cell" transform="translate(150,0)"><path class="swatch" d="M-5,-5h10v10h-10Z" style="fill: rgb(187, 172, 125);"/><text class="label" transform="translate(0,&#10;          23)" style="text-anchor: middle; font-family: Balto;"><tspan x="0" dy="0em">Lead</tspan></text></g><g class="cell" transform="translate(200,0)"><path class="swatch" d="M-5,-5h10v10h-10Z" style="fill: rgb(205, 234, 31);"/><text class="label" transform="translate(0,&#10;          23)" style="text-anchor: middle; font-family: Balto;"><tspan x="0" dy="0em">blue</tspan></text></g><g class="cell" transform="translate(250,0)"><path class="swatch" d="M-5,-5h10v10h-10Z" style="fill: rgb(190, 215, 4);"/><text class="label" transform="translate(0,&#10;          23)" style="text-anchor: middle; font-family: Balto;"><tspan x="0" dy="0em">calm</tspan></text></g><g class="cell" transform="translate(300,0)"><path class="swatch" d="M-5,-5h10v10h-10Z" style="fill: rgb(124, 201, 236);"/><text class="label" transform="translate(0,&#10;          23)" style="text-anchor: middle; font-family: Balto;"><tspan x="0" dy="0em">Home</tspan></text></g><g class="cell" transform="translate(350,0)"><path class="swatch" d="M-5,-5h10v10h-10Z" style="fill: rgb(219, 246, 48);"/><text class="label" transform="translate(0,&#10;          23)" style="text-anchor: middle; font-family: Balto;"><tspan x="0" dy="0em">metrics</tspan></text></g><g class="cell" transform="translate(400,0)"><path class="swatch" d="M-5,-5h10v10h-10Z" style="fill: rgb(174, 250, 241);"/><text class="label" transform="translate(0,&#10;          23)" style="text-anchor: middle; font-family: Balto;"><tspan x="0" dy="0em">Northeast</tspan></text></g><g class="cell" transform="translate(450,0)"><path class="swatch" d="M-5,-5h10v10h-10Z" style="fill: rgb(94, 126, 74);"/><text class="label" transform="translate(0,&#10;          23)" style="text-anchor: middle; font-family: Balto;"><tspan x="0" dy="0em">Barium</tspan></text></g><g class="cell" transform="translate(500,0)"><path class="swatch" d="M-5,-5h10v10h-10Z" style="fill: rgb(246, 223, 220);"/><text class="label" transform="translate(0,&#10;          23)" style="text-anchor: middle; font-family: Balto;"><tspan x="0" dy="0em">Concrete</tspan></text></g></g></g></g></svg>