<svg xmlns="http://www.w3.org/2000/svg" width="400" height="400"><g transform="translate(200, 200)"><text x="40" y="-170" text-anchor="center" style="font-family: serif; font-size: 25px; font-weight: bold; fill: rgb(0, 0, 0);">Taka Steel seize</text><path d="M69.20944358499409,10.490610976274015A70,70,0,0,1,-16.01952707247004,68.14231249652744L0,0Z" fill="#1eea6a" stroke="black" style="stroke-width: 2px;"/><path d="M-41.224175513117096,-56.573557014418995A70,70,0,0,1,-16.4959136589189,-68.02855894811746L0,0Z" fill="#a9bbcd" stroke="black" style="stroke-width: 2px;"/><path d="M-16.4959136589189,-68.02855894811746A70,70,0,0,1,-1.2858791391047208e-14,-70L0,0Z" fill="#fbfdec" stroke="black" style="stroke-width: 2px;"/><path d="M-16.01952707247004,68.14231249652744A70,70,0,0,1,-68.97400911107319,-11.940940798178048L0,0Z" fill="#fc1780" stroke="black" style="stroke-width: 2px;"/><path d="M-68.97400911107319,-11.940940798178048A70,70,0,0,1,-41.224175513117096,-56.573557014418995L0,0Z" fill="#dd1c7f" stroke="black" style="stroke-width: 2px;"/><path d="M4.2862637970157365e-15,-70A70,70,0,0,1,69.20944358499409,10.490610976274015L0,0Z" fill="#8b5bce" stroke="black" style="stroke-width: 2px;"/><text transform="translate(49.02520838649964, 72.47605772018981)" fill="#1eea6a" style="text-anchor: middle; font-size: 13px;">118</text><text transform="translate(-36.778612178823735, -79.39511122354877)" fill="#a9bbcd" style="text-anchor: middle; font-size: 13px;">28</text><text transform="translate(-10.383312695128964, -86.88174041463013)" fill="#fbfdec" style="text-anchor: middle; font-size: 13px;">17</text><text transform="translate(-72.98659083621766, 48.26186442841333)" fill="#fc1780" style="text-anchor: middle; font-size: 13px;">108</text><text transform="translate(-74.30855836049172, -46.20052114841777)" fill="#dd1c7f" style="text-anchor: middle; font-size: 13px;">55</text><text transform="translate(66.34629068580236, -57.04752152578598)" fill="#8b5bce" style="text-anchor: middle; font-size: 13px;">123</text><g class="legendOrdinal" transform="translate(-178, -140)"><g class="legendCells"><g class="cell" transform="translate(0,0)"><path class="swatch" d="M-5,-5h10v10h-10Z" style="fill: rgb(30, 234, 106);"/><text class="label" transform="translate(0,&#10;          23)" style="text-anchor: middle; font-family: serif;"><tspan x="0" dy="0em">North</tspan></text></g><g class="cell" transform="translate(50,0)"><path class="swatch" d="M-5,-5h10v10h-10Z" style="fill: rgb(169, 187, 205);"/><text class="label" transform="translate(0,&#10;          23)" style="text-anchor: middle; font-family: serif;"><tspan x="0" dy="0em">Pickup</tspan></text></g><g class="cell" transform="translate(100,0)"><path class="swatch" d="M-5,-5h10v10h-10Z" style="fill: rgb(251, 253, 236);"/><text class="label" transform="translate(0,&#10;          23)" style="text-anchor: middle; font-family: serif;"><tspan x="0" dy="0em">Bicycle</tspan></text></g><g class="cell" transform="translate(150,0)"><path class="swatch" d="M-5,-5h10v10h-10Z" style="fill: rgb(252, 23, 128);"/><text class="label" transform="translate(0,&#10;          23)" style="text-anchor: middle; font-family: serif;"><tspan x="0" dy="0em">payment</tspan></text></g><g class="cell" transform="translate(200,0)"><path class="swatch" d="M-5,-5h10v10h-10Z" style="fill: rgb(221, 28, 127);"/><text class="label" transform="translate(0,&#10;          23)" style="text-anchor: middle; font-family: serif;"><tspan x="0" dy="0em">Data</tspan></text></g><g class="cell" transform="translate(250,0)"><path class="swatch" d="M-5,-5h10v10h-10Z" style="fill: rgb(139, 91, 206);"/><text class="label" transform="translate(0,&#10;          23)" style="text-anchor: middle; font-family: serif;"><tspan x="0" dy="0em">Pants</tspan></text></g></g></g></g></svg>