<svg xmlns="http://www.w3.org/2000/svg" width="400" height="400"><g transform="translate(200, 200)"><text x="-32" y="-170" text-anchor="center" style="font-family: serif; font-size: 25px; font-weight: bold; fill: rgb(0, 0, 0);">Buckinghamshire Handmade Account</text><path d="M25.24861884704628,65.28787978113992A70,70,0,0,1,-69.92951465789203,3.1405381245360533L0,0Z" fill="#9fbacc" stroke="black" style="stroke-width: 0;"/><path d="M-69.92951465789203,3.1405381245360533A70,70,0,0,1,-43.91665302616849,-54.50988522258257L0,0Z" fill="#cb3caf" stroke="black" style="stroke-width: 0;"/><path d="M4.2862637970157365e-15,-70A70,70,0,0,1,25.24861884704628,65.28787978113992L0,0Z" fill="#eeaebf" stroke="black" style="stroke-width: 0;"/><path d="M-43.91665302616849,-54.50988522258257A70,70,0,0,1,-5.579129859775721,-69.77731228707336L0,0Z" fill="#ad7c17" stroke="black" style="stroke-width: 0;"/><path d="M-5.579129859775721,-69.77731228707336A70,70,0,0,1,-7.503128077005597e-14,-70L0,0Z" fill="#bcf69a" stroke="black" style="stroke-width: 0;"/><text transform="translate(-47.83873677785503, 73.2646249120208)" fill="#9fbacc" style="text-anchor: middle; font-size: 7px;">95</text><text transform="translate(-79.75676207727142, -35.987621523928496)" fill="#cb3caf" style="text-anchor: middle; font-size: 7px;">47</text><text transform="translate(86.01485874853886, -16.052852533705973)" fill="#eeaebf" style="text-anchor: middle; font-size: 7px;">139</text><text transform="translate(-32.37311078381447, -81.29103085936896)" fill="#ad7c17" style="text-anchor: middle; font-size: 7px;">30</text><text transform="translate(-3.4897326975967564, -87.43038239479068)" fill="#bcf69a" style="text-anchor: middle; font-size: 7px;">4</text><g class="legendOrdinal" transform="translate(-1, 130)"><g class="legendCells" transform="translate(34.239585876464844,15.333333969116211)"><g class="cell" transform="translate(0,0)"><path class="swatch" d="M-5,-5h10v10h-10Z" style="fill: rgb(159, 186, 204);"/><text class="label" transform="translate(0,&#10;          23)" style="text-anchor: middle; font-family: serif;"><tspan x="0" dy="0em">laboriosam</tspan></text></g><g class="cell" transform="translate(50,0)"><path class="swatch" d="M-5,-5h10v10h-10Z" style="fill: rgb(203, 60, 175);"/><text class="label" transform="translate(0,&#10;          23)" style="text-anchor: middle; font-family: serif;"><tspan x="0" dy="0em">wicked</tspan></text></g><g class="cell" transform="translate(100,0)"><path class="swatch" d="M-5,-5h10v10h-10Z" style="fill: rgb(238, 174, 191);"/><text class="label" transform="translate(0,&#10;          23)" style="text-anchor: middle; font-family: serif;"><tspan x="0" dy="0em">microchip</tspan></text></g><g class="cell" transform="translate(150,0)"><path class="swatch" d="M-5,-5h10v10h-10Z" style="fill: rgb(173, 124, 23);"/><text class="label" transform="translate(0,&#10;          23)" style="text-anchor: middle; font-family: serif;"><tspan x="0" dy="0em">South</tspan></text></g><g class="cell" transform="translate(200,0)"><path class="swatch" d="M-5,-5h10v10h-10Z" style="fill: rgb(188, 246, 154);"/><text class="label" transform="translate(0,&#10;          23)" style="text-anchor: middle; font-family: serif;"><tspan x="0" dy="0em">nemo</tspan></text></g></g><text class="legendTitle" style="font-family: serif;">Mobility</text></g></g></svg>