<svg xmlns="http://www.w3.org/2000/svg" width="400" height="400"><g transform="translate(200, 200)"><text x="-1" y="-170" text-anchor="center" style="font-family: serif; font-size: 25px; font-weight: bold; fill: rgb(0, 0, 0);">Polestar</text><path d="M-44.63276250305028,53.92510093960241A70,70,0,0,1,-47.81917491095281,-51.12070530456032L0,0Z" fill="#82ddff" stroke="black" style="stroke-width: 2px;"/><path d="M60.04782215121119,35.97581208112626A70,70,0,0,1,-44.63276250305028,53.92510093960241L0,0Z" fill="#79dfde" stroke="black" style="stroke-width: 2px;"/><path d="M4.2862637970157365e-15,-70A70,70,0,0,1,60.04782215121119,35.97581208112626L0,0Z" fill="#d3dd49" stroke="black" style="stroke-width: 2px;"/><path d="M-47.81917491095281,-51.12070530456032A70,70,0,0,1,-8.469985481296092,-69.4856772719863L0,0Z" fill="#dcdeda" stroke="black" style="stroke-width: 2px;"/><path d="M-8.469985481296092,-69.4856772719863A70,70,0,0,1,-1.2858791391047208e-14,-70L0,0Z" fill="#db24b6" stroke="black" style="stroke-width: 2px;"/><text transform="translate(-87.4597723176939, 2.6529655363649107)" fill="#82ddff" style="text-anchor: middle; font-size: 14px;">70</text><text transform="translate(14.787571778161794, 86.24139215542449)" fill="#79dfde" style="text-anchor: middle; font-size: 14px;">71</text><text transform="translate(76.12852437284327, -43.13580620335509)" fill="#d3dd49" style="text-anchor: middle; font-size: 14px;">87</text><text transform="translate(-37.00581549012698, -79.28946726968644)" fill="#dcdeda" style="text-anchor: middle; font-size: 14px;">26</text><text transform="translate(-5.303491697763739, -87.33912625972252)" fill="#db24b6" style="text-anchor: middle; font-size: 14px;">5</text><g class="legendOrdinal" transform="translate(130, -156.33333333333334)"><g class="legendCells"><g class="cell" transform="translate(0, 0)"><path class="swatch" d="M-5,-5h10v10h-10Z" style="fill: rgb(130, 221, 255);"/><text class="label" transform="translate( 15, 5)" style="font-family: serif;"><tspan x="0" dy="0em">bicker</tspan></text></g><g class="cell" transform="translate(0, 25.33333396911621)"><path class="swatch" d="M-5,-5h10v10h-10Z" style="fill: rgb(121, 223, 222);"/><text class="label" transform="translate( 15, 5)" style="font-family: serif;"><tspan x="0" dy="0em">Fresh</tspan></text></g><g class="cell" transform="translate(0, 50.66666793823242)"><path class="swatch" d="M-5,-5h10v10h-10Z" style="fill: rgb(211, 221, 73);"/><text class="label" transform="translate( 15, 5)" style="font-family: serif;"><tspan x="0" dy="0em">Soap</tspan></text></g><g class="cell" transform="translate(0, 76.00000190734863)"><path class="swatch" d="M-5,-5h10v10h-10Z" style="fill: rgb(220, 222, 218);"/><text class="label" transform="translate( 15, 5)" style="font-family: serif;"><tspan x="0" dy="0em">dip</tspan></text></g><g class="cell" transform="translate(0, 101.33333587646484)"><path class="swatch" d="M-5,-5h10v10h-10Z" style="fill: rgb(219, 36, 182);"/><text class="label" transform="translate( 15, 5)" style="font-family: serif;"><tspan x="0" dy="0em">Passenger</tspan></text></g></g></g></g></svg>