<svg xmlns="http://www.w3.org/2000/svg" xmlns:xlink="http://www.w3.org/1999/xlink" version="1.1" class="marks" width="979" height="278" viewBox="0 0 979 278" style="background-color: rgb(255, 255, 255);"><g fill="none" stroke-miterlimit="10" transform="translate(17,46)"><g class="mark-group role-frame root" role="graphics-object" aria-roledescription="group mark container"><g transform="translate(0,0)"><path class="background" aria-hidden="true" d="M0.5,0.5h818v200h-818Z" fill="transparent" stroke="#ddd"></path><g><g class="mark-group role-axis" aria-hidden="true"><g transform="translate(0.5,200.5)"><path class="background" aria-hidden="true" d="M0,0h0v0h0Z" pointer-events="none"></path><g><g class="mark-rule role-axis-grid" pointer-events="none"><line transform="translate(68,-200)" x2="0" y2="200" stroke="#D0D0D0" stroke-width="1" stroke-dasharray="6, 3" opacity="1"></line><line transform="translate(204,-200)" x2="0" y2="200" stroke="#D0D0D0" stroke-width="1" stroke-dasharray="6, 3" opacity="1"></line><line transform="translate(341,-200)" x2="0" y2="200" stroke="#D0D0D0" stroke-width="1" stroke-dasharray="6, 3" opacity="1"></line><line transform="translate(477,-200)" x2="0" y2="200" stroke="#D0D0D0" stroke-width="1" stroke-dasharray="6, 3" opacity="1"></line><line transform="translate(614,-200)" x2="0" y2="200" stroke="#D0D0D0" stroke-width="1" stroke-dasharray="6, 3" opacity="1"></line><line transform="translate(750,-200)" x2="0" y2="200" stroke="#D0D0D0" stroke-width="1" stroke-dasharray="6, 3" opacity="1"></line></g></g><path class="foreground" aria-hidden="true" d="" pointer-events="none" display="none"></path></g></g><g class="mark-group role-axis" aria-hidden="true"><g transform="translate(0.5,0.5)"><path class="background" aria-hidden="true" d="M0,0h0v0h0Z" pointer-events="none"></path><g><g class="mark-rule role-axis-grid" pointer-events="none"><line transform="translate(0,200)" x2="818" y2="0" stroke="#D0D0D0" stroke-width="1" stroke-dasharray="6, 3" opacity="1"></line><line transform="translate(0,160)" x2="818" y2="0" stroke="#D0D0D0" stroke-width="1" stroke-dasharray="6, 3" opacity="1"></line><line transform="translate(0,120)" x2="818" y2="0" stroke="#D0D0D0" stroke-width="1" stroke-dasharray="6, 3" opacity="1"></line><line transform="translate(0,80)" x2="818" y2="0" stroke="#D0D0D0" stroke-width="1" stroke-dasharray="6, 3" opacity="1"></line><line transform="translate(0,40)" x2="818" y2="0" stroke="#D0D0D0" stroke-width="1" stroke-dasharray="6, 3" opacity="1"></line><line transform="translate(0,0)" x2="818" y2="0" stroke="#D0D0D0" stroke-width="1" stroke-dasharray="6, 3" opacity="1"></line></g></g><path class="foreground" aria-hidden="true" d="" pointer-events="none" display="none"></path></g></g><g class="mark-group role-axis" role="graphics-symbol" aria-roledescription="axis" aria-label="X-axis for a discrete scale with 6 values: 1909, 1911, 1913, 1915, 1917, 1919"><g transform="translate(0.5,200.5)"><path class="background" aria-hidden="true" d="M0,0h0v0h0Z" pointer-events="none"></path><g><g class="mark-rule role-axis-tick" pointer-events="none"><line transform="translate(68,0)" x2="0" y2="5" stroke="#888" stroke-width="1" opacity="1"></line><line transform="translate(204,0)" x2="0" y2="5" stroke="#888" stroke-width="1" opacity="1"></line><line transform="translate(341,0)" x2="0" y2="5" stroke="#888" stroke-width="1" opacity="1"></line><line transform="translate(477,0)" x2="0" y2="5" stroke="#888" stroke-width="1" opacity="1"></line><line transform="translate(614,0)" x2="0" y2="5" stroke="#888" stroke-width="1" opacity="1"></line><line transform="translate(750,0)" x2="0" y2="5" stroke="#888" stroke-width="1" opacity="1"></line></g><g class="mark-text role-axis-label" pointer-events="none"><text text-anchor="start" transform="translate(68.16666666666663,7) rotate(90) translate(0,3)" font-family="Balto" font-size="10px" font-weight="bold" fill="#000" opacity="1">1909</text><text text-anchor="start" transform="translate(204.49999999999997,7) rotate(90) translate(0,3)" font-family="Balto" font-size="10px" font-weight="bold" fill="#000" opacity="1">1911</text><text text-anchor="start" transform="translate(340.8333333333333,7) rotate(90) translate(0,3)" font-family="Balto" font-size="10px" font-weight="bold" fill="#000" opacity="1">1913</text><text text-anchor="start" transform="translate(477.16666666666663,7) rotate(90) translate(0,3)" font-family="Balto" font-size="10px" font-weight="bold" fill="#000" opacity="1">1915</text><text text-anchor="start" transform="translate(613.5,7) rotate(90) translate(0,3)" font-family="Balto" font-size="10px" font-weight="bold" fill="#000" opacity="1">1917</text><text text-anchor="start" transform="translate(749.8333333333334,7) rotate(90) translate(0,3)" font-family="Balto" font-size="10px" font-weight="bold" fill="#000" opacity="1">1919</text></g><g class="mark-rule role-axis-domain" pointer-events="none"><line transform="translate(0,0)" x2="818" y2="0" stroke="#888" stroke-width="1" opacity="1"></line></g></g><path class="foreground" aria-hidden="true" d="" pointer-events="none" display="none"></path></g></g><g class="mark-group role-axis" role="graphics-symbol" aria-roledescription="axis" aria-label="Y-axis for a linear scale with values from 0 to 1,000"><g transform="translate(0.5,0.5)"><path class="background" aria-hidden="true" d="M0,0h0v0h0Z" pointer-events="none"></path><g><g class="mark-text role-axis-label" pointer-events="none"><text text-anchor="middle" transform="translate(-2,200) rotate(90) translate(0,8)" font-family="Balto" font-size="10px" font-weight="bold" fill="#000" opacity="1">0</text><text text-anchor="middle" transform="translate(-2,160) rotate(90) translate(0,8)" font-family="Balto" font-size="10px" font-weight="bold" fill="#000" opacity="1">200</text><text text-anchor="middle" transform="translate(-2,120) rotate(90) translate(0,8)" font-family="Balto" font-size="10px" font-weight="bold" fill="#000" opacity="1">400</text><text text-anchor="middle" transform="translate(-2,80) rotate(90) translate(0,8)" font-family="Balto" font-size="10px" font-weight="bold" fill="#000" opacity="1">600</text><text text-anchor="middle" transform="translate(-2,39.99999999999999) rotate(90) translate(0,8)" font-family="Balto" font-size="10px" font-weight="bold" fill="#000" opacity="1">800</text><text text-anchor="middle" transform="translate(-2,0) rotate(90) translate(0,8)" font-family="Balto" font-size="10px" font-weight="bold" fill="#000" opacity="1">1,000</text></g></g><path class="foreground" aria-hidden="true" d="" pointer-events="none" display="none"></path></g></g><g class="mark-group role-scope layer_0_pathgroup" role="graphics-object" aria-roledescription="group mark container"><g transform="translate(0,0)"><path class="background" aria-hidden="true" d="M0,0h818v200h-818Z"></path><g><g class="mark-line role-mark layer_0_marks" role="graphics-object" aria-roledescription="line mark container"><path aria-label="Year: 1909; stun: 416; tomorrow: Accounts synergistic SQL" role="graphics-symbol" aria-roledescription="line mark" d="M68.16666666666663,116.80000000000001L204.49999999999997,39.79999999999999L340.8333333333333,75.8L477.16666666666663,146.2L613.5,167.2L749.8333333333334,193.79999999999998" stroke="#dce81a" stroke-width="2" stroke-dasharray="1,0"></path></g></g><path class="foreground" aria-hidden="true" d="" display="none"></path></g><g transform="translate(0,0)"><path class="background" aria-hidden="true" d="M0,0h818v200h-818Z"></path><g><g class="mark-line role-mark layer_0_marks" role="graphics-object" aria-roledescription="line mark container"><path aria-label="Year: 1909; stun: 682; tomorrow: candela" role="graphics-symbol" aria-roledescription="line mark" d="M68.16666666666663,63.59999999999999L204.49999999999997,114.99999999999999L340.8333333333333,73.2L477.16666666666663,89.6L613.5,14.999999999999991L749.8333333333334,33.60000000000001" stroke="#df3ce6" stroke-width="2" stroke-dasharray="1,0"></path></g></g><path class="foreground" aria-hidden="true" d="" display="none"></path></g></g><g class="mark-symbol role-mark layer_1_marks" role="graphics-object" aria-roledescription="symbol mark container"><path aria-label="Year: 1909; stun: 416; tomorrow: Accounts synergistic SQL" role="graphics-symbol" aria-roledescription="point" transform="translate(68.16666666666663,116.80000000000001)" d="M2.7386127875258306,0A2.7386127875258306,2.7386127875258306,0,1,1,-2.7386127875258306,0A2.7386127875258306,2.7386127875258306,0,1,1,2.7386127875258306,0" fill="#fff" stroke="#dce81a" stroke-width="4" opacity="1"></path><path aria-label="Year: 1911; stun: 801; tomorrow: Accounts synergistic SQL" role="graphics-symbol" aria-roledescription="point" transform="translate(204.49999999999997,39.79999999999999)" d="M2.7386127875258306,0A2.7386127875258306,2.7386127875258306,0,1,1,-2.7386127875258306,0A2.7386127875258306,2.7386127875258306,0,1,1,2.7386127875258306,0" fill="#fff" stroke="#dce81a" stroke-width="4" opacity="1"></path><path aria-label="Year: 1913; stun: 621; tomorrow: Accounts synergistic SQL" role="graphics-symbol" aria-roledescription="point" transform="translate(340.8333333333333,75.8)" d="M2.7386127875258306,0A2.7386127875258306,2.7386127875258306,0,1,1,-2.7386127875258306,0A2.7386127875258306,2.7386127875258306,0,1,1,2.7386127875258306,0" fill="#fff" stroke="#dce81a" stroke-width="4" opacity="1"></path><path aria-label="Year: 1915; stun: 269; tomorrow: Accounts synergistic SQL" role="graphics-symbol" aria-roledescription="point" transform="translate(477.16666666666663,146.2)" d="M2.7386127875258306,0A2.7386127875258306,2.7386127875258306,0,1,1,-2.7386127875258306,0A2.7386127875258306,2.7386127875258306,0,1,1,2.7386127875258306,0" fill="#fff" stroke="#dce81a" stroke-width="4" opacity="1"></path><path aria-label="Year: 1917; stun: 164; tomorrow: Accounts synergistic SQL" role="graphics-symbol" aria-roledescription="point" transform="translate(613.5,167.2)" d="M2.7386127875258306,0A2.7386127875258306,2.7386127875258306,0,1,1,-2.7386127875258306,0A2.7386127875258306,2.7386127875258306,0,1,1,2.7386127875258306,0" fill="#fff" stroke="#dce81a" stroke-width="4" opacity="1"></path><path aria-label="Year: 1919; stun: 31; tomorrow: Accounts synergistic SQL" role="graphics-symbol" aria-roledescription="point" transform="translate(749.8333333333334,193.79999999999998)" d="M2.7386127875258306,0A2.7386127875258306,2.7386127875258306,0,1,1,-2.7386127875258306,0A2.7386127875258306,2.7386127875258306,0,1,1,2.7386127875258306,0" fill="#fff" stroke="#dce81a" stroke-width="4" opacity="1"></path><path aria-label="Year: 1909; stun: 682; tomorrow: candela" role="graphics-symbol" aria-roledescription="point" transform="translate(68.16666666666663,63.59999999999999)" d="M2.7386127875258306,0A2.7386127875258306,2.7386127875258306,0,1,1,-2.7386127875258306,0A2.7386127875258306,2.7386127875258306,0,1,1,2.7386127875258306,0" fill="#fff" stroke="#df3ce6" stroke-width="4" opacity="1"></path><path aria-label="Year: 1911; stun: 425; tomorrow: candela" role="graphics-symbol" aria-roledescription="point" transform="translate(204.49999999999997,114.99999999999999)" d="M2.7386127875258306,0A2.7386127875258306,2.7386127875258306,0,1,1,-2.7386127875258306,0A2.7386127875258306,2.7386127875258306,0,1,1,2.7386127875258306,0" fill="#fff" stroke="#df3ce6" stroke-width="4" opacity="1"></path><path aria-label="Year: 1913; stun: 634; tomorrow: candela" role="graphics-symbol" aria-roledescription="point" transform="translate(340.8333333333333,73.2)" d="M2.7386127875258306,0A2.7386127875258306,2.7386127875258306,0,1,1,-2.7386127875258306,0A2.7386127875258306,2.7386127875258306,0,1,1,2.7386127875258306,0" fill="#fff" stroke="#df3ce6" stroke-width="4" opacity="1"></path><path aria-label="Year: 1915; stun: 552; tomorrow: candela" role="graphics-symbol" aria-roledescription="point" transform="translate(477.16666666666663,89.6)" d="M2.7386127875258306,0A2.7386127875258306,2.7386127875258306,0,1,1,-2.7386127875258306,0A2.7386127875258306,2.7386127875258306,0,1,1,2.7386127875258306,0" fill="#fff" stroke="#df3ce6" stroke-width="4" opacity="1"></path><path aria-label="Year: 1917; stun: 925; tomorrow: candela" role="graphics-symbol" aria-roledescription="point" transform="translate(613.5,14.999999999999991)" d="M2.7386127875258306,0A2.7386127875258306,2.7386127875258306,0,1,1,-2.7386127875258306,0A2.7386127875258306,2.7386127875258306,0,1,1,2.7386127875258306,0" fill="#fff" stroke="#df3ce6" stroke-width="4" opacity="1"></path><path aria-label="Year: 1919; stun: 832; tomorrow: candela" role="graphics-symbol" aria-roledescription="point" transform="translate(749.8333333333334,33.60000000000001)" d="M2.7386127875258306,0A2.7386127875258306,2.7386127875258306,0,1,1,-2.7386127875258306,0A2.7386127875258306,2.7386127875258306,0,1,1,2.7386127875258306,0" fill="#fff" stroke="#df3ce6" stroke-width="4" opacity="1"></path></g><g class="mark-group role-legend" role="graphics-symbol" aria-roledescription="legend" aria-label="Symbol legend titled 'tomorrow' for stroke color with 2 values: Accounts synergistic SQL, candela"><g transform="translate(836,0)"><path class="background" aria-hidden="true" d="M0,0h121v45h-121Z" pointer-events="none"></path><g><g class="mark-group role-legend-entry"><g transform="translate(0,16)"><path class="background" aria-hidden="true" d="M0,0h0v0h0Z" pointer-events="none"></path><g><g class="mark-group role-scope" role="graphics-object" aria-roledescription="group mark container"><g transform="translate(0,0)"><path class="background" aria-hidden="true" d="M0,0h120.8046875v12.5h-120.8046875Z" pointer-events="none" opacity="1"></path><g><g class="mark-symbol role-legend-symbol" pointer-events="none"><path transform="translate(6,6)" d="M5,0A5,5,0,1,1,-5,0A5,5,0,1,1,5,0" fill="#fff" stroke="#dce81a" stroke-width="1.5" opacity="1"></path></g><g class="mark-text role-legend-label" pointer-events="none"><text text-anchor="start" transform="translate(16,9)" font-family="Balto" font-size="10px" fill="#000" opacity="1">Accounts synergistic SQL</text></g></g><path class="foreground" aria-hidden="true" d="" pointer-events="none" display="none"></path></g><g transform="translate(0,16)"><path class="background" aria-hidden="true" d="M0,0h120.8046875v12.5h-120.8046875Z" pointer-events="none" opacity="1"></path><g><g class="mark-symbol role-legend-symbol" pointer-events="none"><path transform="translate(6,6)" d="M5,0A5,5,0,1,1,-5,0A5,5,0,1,1,5,0" fill="#fff" stroke="#df3ce6" stroke-width="1.5" opacity="1"></path></g><g class="mark-text role-legend-label" pointer-events="none"><text text-anchor="start" transform="translate(16,9)" font-family="Balto" font-size="10px" fill="#000" opacity="1">candela</text></g></g><path class="foreground" aria-hidden="true" d="" pointer-events="none" display="none"></path></g></g></g><path class="foreground" aria-hidden="true" d="" pointer-events="none" display="none"></path></g></g><g class="mark-text role-legend-title" pointer-events="none"><text text-anchor="start" transform="translate(0,9)" font-family="Balto" font-size="11px" font-weight="bold" fill="#000" opacity="1">tomorrow</text></g></g><path class="foreground" aria-hidden="true" d="" pointer-events="none" display="none"></path></g></g><g class="mark-group role-title"><g transform="translate(957,-40.25)"><path class="background" aria-hidden="true" d="M0,0h0v0h0Z" pointer-events="none"></path><g><g class="mark-text role-title-text" role="graphics-symbol" aria-roledescription="title" aria-label="Title text 'Savings SUV'" pointer-events="none"><text text-anchor="end" transform="translate(0,20)" font-family="Balto" font-size="25px" font-weight="bold" fill="#000" opacity="1">Savings SUV</text></g></g><path class="foreground" aria-hidden="true" d="" pointer-events="none" display="none"></path></g></g></g><path class="foreground" aria-hidden="true" d="" display="none"></path></g></g></g></svg>