<svg xmlns="http://www.w3.org/2000/svg" xmlns:xlink="http://www.w3.org/1999/xlink" version="1.1" class="marks" width="895" height="308" viewBox="0 0 895 308" style="background-color: rgb(255, 255, 255);"><g fill="none" stroke-miterlimit="10" transform="translate(25,78)"><g class="mark-group role-frame root" role="graphics-object" aria-roledescription="group mark container"><g transform="translate(0,0)"><path class="background" aria-hidden="true" d="M0.5,0.5h865v200h-865Z" fill="transparent" stroke="#ddd"></path><g><g class="mark-group role-axis" role="graphics-symbol" aria-roledescription="axis" aria-label="X-axis for a discrete scale with 11 values: Jan, Feb, Mar, Apr, May, ending with Nov"><g transform="translate(0.5,200.5)"><path class="background" aria-hidden="true" d="M0,0h0v0h0Z" pointer-events="none"></path><g><g class="mark-rule role-axis-tick" pointer-events="none"><line transform="translate(39,0)" x2="0" y2="5" stroke="#888" stroke-width="1" opacity="1"></line><line transform="translate(118,0)" x2="0" y2="5" stroke="#888" stroke-width="1" opacity="1"></line><line transform="translate(197,0)" x2="0" y2="5" stroke="#888" stroke-width="1" opacity="1"></line><line transform="translate(275,0)" x2="0" y2="5" stroke="#888" stroke-width="1" opacity="1"></line><line transform="translate(354,0)" x2="0" y2="5" stroke="#888" stroke-width="1" opacity="1"></line><line transform="translate(433,0)" x2="0" y2="5" stroke="#888" stroke-width="1" opacity="1"></line><line transform="translate(511,0)" x2="0" y2="5" stroke="#888" stroke-width="1" opacity="1"></line><line transform="translate(590,0)" x2="0" y2="5" stroke="#888" stroke-width="1" opacity="1"></line><line transform="translate(668,0)" x2="0" y2="5" stroke="#888" stroke-width="1" opacity="1"></line><line transform="translate(747,0)" x2="0" y2="5" stroke="#888" stroke-width="1" opacity="1"></line><line transform="translate(826,0)" x2="0" y2="5" stroke="#888" stroke-width="1" opacity="1"></line></g><g class="mark-text role-axis-label" pointer-events="none"><text text-anchor="middle" transform="translate(39.31818181818181,16)" font-family="sans-serif" font-size="11px" font-weight="bold" fill="#000" opacity="1">Jan</text><text text-anchor="middle" transform="translate(117.95454545454545,16)" font-family="sans-serif" font-size="11px" font-weight="bold" fill="#000" opacity="1">Feb</text><text text-anchor="middle" transform="translate(196.5909090909091,16)" font-family="sans-serif" font-size="11px" font-weight="bold" fill="#000" opacity="1">Mar</text><text text-anchor="middle" transform="translate(275.22727272727275,16)" font-family="sans-serif" font-size="11px" font-weight="bold" fill="#000" opacity="1">Apr</text><text text-anchor="middle" transform="translate(353.8636363636364,16)" font-family="sans-serif" font-size="11px" font-weight="bold" fill="#000" opacity="1">May</text><text text-anchor="middle" transform="translate(432.5,16)" font-family="sans-serif" font-size="11px" font-weight="bold" fill="#000" opacity="1">June</text><text text-anchor="middle" transform="translate(511.1363636363637,16)" font-family="sans-serif" font-size="11px" font-weight="bold" fill="#000" opacity="1">July</text><text text-anchor="middle" transform="translate(589.7727272727273,16)" font-family="sans-serif" font-size="11px" font-weight="bold" fill="#000" opacity="1">Aug</text><text text-anchor="middle" transform="translate(668.409090909091,16)" font-family="sans-serif" font-size="11px" font-weight="bold" fill="#000" opacity="1">Sep</text><text text-anchor="middle" transform="translate(747.0454545454545,16)" font-family="sans-serif" font-size="11px" font-weight="bold" fill="#000" opacity="1">Oct</text><text text-anchor="middle" transform="translate(825.6818181818182,16)" font-family="sans-serif" font-size="11px" font-weight="bold" fill="#000" opacity="1">Nov</text></g><g class="mark-rule role-axis-domain" pointer-events="none"><line transform="translate(0,0)" x2="865" y2="0" stroke="#888" stroke-width="1" opacity="1"></line></g></g><path class="foreground" aria-hidden="true" d="" pointer-events="none" display="none"></path></g></g><g class="mark-group role-axis" role="graphics-symbol" aria-roledescription="axis" aria-label="Y-axis for a linear scale with values from 0 to 20"><g transform="translate(0.5,0.5)"><path class="background" aria-hidden="true" d="M0,0h0v0h0Z" pointer-events="none"></path><g><g class="mark-rule role-axis-tick" pointer-events="none"><line transform="translate(0,200)" x2="-5" y2="0" stroke="#888" stroke-width="1" opacity="1"></line><line transform="translate(0,150)" x2="-5" y2="0" stroke="#888" stroke-width="1" opacity="1"></line><line transform="translate(0,100)" x2="-5" y2="0" stroke="#888" stroke-width="1" opacity="1"></line><line transform="translate(0,50)" x2="-5" y2="0" stroke="#888" stroke-width="1" opacity="1"></line><line transform="translate(0,0)" x2="-5" y2="0" stroke="#888" stroke-width="1" opacity="1"></line></g><g class="mark-text role-axis-label" pointer-events="none"><text text-anchor="end" transform="translate(-7,203)" font-family="sans-serif" font-size="11px" font-weight="bold" fill="#000" opacity="1">0</text><text text-anchor="end" transform="translate(-7,153)" font-family="sans-serif" font-size="11px" font-weight="bold" fill="#000" opacity="1">5</text><text text-anchor="end" transform="translate(-7,103)" font-family="sans-serif" font-size="11px" font-weight="bold" fill="#000" opacity="1">10</text><text text-anchor="end" transform="translate(-7,53)" font-family="sans-serif" font-size="11px" font-weight="bold" fill="#000" opacity="1">15</text><text text-anchor="end" transform="translate(-7,3)" font-family="sans-serif" font-size="11px" font-weight="bold" fill="#000" opacity="1">20</text></g></g><path class="foreground" aria-hidden="true" d="" pointer-events="none" display="none"></path></g></g><g class="mark-group role-scope layer_0_pathgroup" role="graphics-object" aria-roledescription="group mark container"><g transform="translate(0,0)"><path class="background" aria-hidden="true" d="M0,0h865v200h-865Z"></path><g><g class="mark-line role-mark layer_0_marks" role="graphics-object" aria-roledescription="line mark container"><path aria-label="Month: Jan; phooey contrary: 2; invoice Cab Honduras: protocol" role="graphics-symbol" aria-roledescription="line mark" d="M39.31818181818181,180C65.53030303030305,105.39464872628582,91.74242424242425,30.78929745257165,117.95454545454545,30.000000000000004C144.16666666666666,29.210702547428358,170.37878787878788,102.23745891599923,196.5909090909091,110.00000000000001C222.8030303030303,117.7625410840008,249.01515151515156,60.26086688343158,275.22727272727275,30.000000000000004C301.43939393939394,-0.26086688343157344,327.6515151515152,-3.2809264497255057,353.8636363636364,30.000000000000004C380.07575757575756,63.28092644972551,406.28787878787875,132.8628389154705,432.5,120C458.71212121212125,107.1371610845295,484.9242424242426,11.829570787843542,511.1363636363637,0C537.3484848484848,-11.829570787843542,563.5606060606061,59.81887793315534,589.7727272727273,60.00000000000001C615.9848484848484,60.18112206684467,642.1969696969696,-11.105082520464887,668.409090909091,10.000000000000009C694.6212121212124,31.105082520464904,720.8333333333334,144.60145214870425,747.0454545454545,180C773.2575757575756,215.39854785129575,799.469696969697,172.69927392564787,825.6818181818182,130" stroke="#fb0d87" stroke-width="2" stroke-dasharray="1,0"></path></g></g><path class="foreground" aria-hidden="true" d="" display="none"></path></g><g transform="translate(0,0)"><path class="background" aria-hidden="true" d="M0,0h865v200h-865Z"></path><g><g class="mark-line role-mark layer_0_marks" role="graphics-object" aria-roledescription="line mark container"><path aria-label="Month: Jan; phooey contrary: 15; invoice Cab Honduras: ah North ratione" role="graphics-symbol" aria-roledescription="line mark" d="M39.31818181818181,50C65.53030303030305,48.39816454748121,91.74242424242425,46.79632909496242,117.95454545454545,50C144.16666666666666,53.20367090503758,170.37878787878788,61.21284816763153,196.5909090909091,39.99999999999999C222.8030303030303,18.78715183236846,249.01515151515156,-31.64772176548855,275.22727272727275,0C301.43939393939394,31.64772176548855,327.6515151515152,145.37803889432269,353.8636363636364,190C380.07575757575756,234.62196110567731,406.28787878787875,210.13556618819777,432.5,180C458.71212121212125,149.86443381180223,484.9242424242426,114.07969635288623,511.1363636363637,130C537.3484848484848,145.92030364711377,563.5606060606061,213.5456484002573,589.7727272727273,190C615.9848484848484,166.4543515997427,642.1969696969696,51.73771004608457,668.409090909091,50C694.6212121212124,48.26228995391543,720.8333333333334,159.5035114154044,747.0454545454545,170C773.2575757575756,180.4964885845956,799.469696969697,90.2482442922978,825.6818181818182,0" stroke="#2deb4a" stroke-width="2" stroke-dasharray="1,0"></path></g></g><path class="foreground" aria-hidden="true" d="" display="none"></path></g></g><g class="mark-symbol role-mark layer_1_marks" role="graphics-object" aria-roledescription="symbol mark container"><path aria-label="Month: Jan; phooey contrary: 2; invoice Cab Honduras: protocol" role="graphics-symbol" aria-roledescription="point" transform="translate(39.31818181818181,180)" d="M2.7386127875258306,0A2.7386127875258306,2.7386127875258306,0,1,1,-2.7386127875258306,0A2.7386127875258306,2.7386127875258306,0,1,1,2.7386127875258306,0" fill="#fff" stroke="#fb0d87" stroke-width="3" opacity="1"></path><path aria-label="Month: Feb; phooey contrary: 17; invoice Cab Honduras: protocol" role="graphics-symbol" aria-roledescription="point" transform="translate(117.95454545454545,30.000000000000004)" d="M2.7386127875258306,0A2.7386127875258306,2.7386127875258306,0,1,1,-2.7386127875258306,0A2.7386127875258306,2.7386127875258306,0,1,1,2.7386127875258306,0" fill="#fff" stroke="#fb0d87" stroke-width="3" opacity="1"></path><path aria-label="Month: Mar; phooey contrary: 9; invoice Cab Honduras: protocol" role="graphics-symbol" aria-roledescription="point" transform="translate(196.5909090909091,110.00000000000001)" d="M2.7386127875258306,0A2.7386127875258306,2.7386127875258306,0,1,1,-2.7386127875258306,0A2.7386127875258306,2.7386127875258306,0,1,1,2.7386127875258306,0" fill="#fff" stroke="#fb0d87" stroke-width="3" opacity="1"></path><path aria-label="Month: Apr; phooey contrary: 17; invoice Cab Honduras: protocol" role="graphics-symbol" aria-roledescription="point" transform="translate(275.22727272727275,30.000000000000004)" d="M2.7386127875258306,0A2.7386127875258306,2.7386127875258306,0,1,1,-2.7386127875258306,0A2.7386127875258306,2.7386127875258306,0,1,1,2.7386127875258306,0" fill="#fff" stroke="#fb0d87" stroke-width="3" opacity="1"></path><path aria-label="Month: May; phooey contrary: 17; invoice Cab Honduras: protocol" role="graphics-symbol" aria-roledescription="point" transform="translate(353.8636363636364,30.000000000000004)" d="M2.7386127875258306,0A2.7386127875258306,2.7386127875258306,0,1,1,-2.7386127875258306,0A2.7386127875258306,2.7386127875258306,0,1,1,2.7386127875258306,0" fill="#fff" stroke="#fb0d87" stroke-width="3" opacity="1"></path><path aria-label="Month: June; phooey contrary: 8; invoice Cab Honduras: protocol" role="graphics-symbol" aria-roledescription="point" transform="translate(432.5,120)" d="M2.7386127875258306,0A2.7386127875258306,2.7386127875258306,0,1,1,-2.7386127875258306,0A2.7386127875258306,2.7386127875258306,0,1,1,2.7386127875258306,0" fill="#fff" stroke="#fb0d87" stroke-width="3" opacity="1"></path><path aria-label="Month: July; phooey contrary: 20; invoice Cab Honduras: protocol" role="graphics-symbol" aria-roledescription="point" transform="translate(511.1363636363637,0)" d="M2.7386127875258306,0A2.7386127875258306,2.7386127875258306,0,1,1,-2.7386127875258306,0A2.7386127875258306,2.7386127875258306,0,1,1,2.7386127875258306,0" fill="#fff" stroke="#fb0d87" stroke-width="3" opacity="1"></path><path aria-label="Month: Aug; phooey contrary: 14; invoice Cab Honduras: protocol" role="graphics-symbol" aria-roledescription="point" transform="translate(589.7727272727273,60.00000000000001)" d="M2.7386127875258306,0A2.7386127875258306,2.7386127875258306,0,1,1,-2.7386127875258306,0A2.7386127875258306,2.7386127875258306,0,1,1,2.7386127875258306,0" fill="#fff" stroke="#fb0d87" stroke-width="3" opacity="1"></path><path aria-label="Month: Sep; phooey contrary: 19; invoice Cab Honduras: protocol" role="graphics-symbol" aria-roledescription="point" transform="translate(668.409090909091,10.000000000000009)" d="M2.7386127875258306,0A2.7386127875258306,2.7386127875258306,0,1,1,-2.7386127875258306,0A2.7386127875258306,2.7386127875258306,0,1,1,2.7386127875258306,0" fill="#fff" stroke="#fb0d87" stroke-width="3" opacity="1"></path><path aria-label="Month: Oct; phooey contrary: 2; invoice Cab Honduras: protocol" role="graphics-symbol" aria-roledescription="point" transform="translate(747.0454545454545,180)" d="M2.7386127875258306,0A2.7386127875258306,2.7386127875258306,0,1,1,-2.7386127875258306,0A2.7386127875258306,2.7386127875258306,0,1,1,2.7386127875258306,0" fill="#fff" stroke="#fb0d87" stroke-width="3" opacity="1"></path><path aria-label="Month: Nov; phooey contrary: 7; invoice Cab Honduras: protocol" role="graphics-symbol" aria-roledescription="point" transform="translate(825.6818181818182,130)" d="M2.7386127875258306,0A2.7386127875258306,2.7386127875258306,0,1,1,-2.7386127875258306,0A2.7386127875258306,2.7386127875258306,0,1,1,2.7386127875258306,0" fill="#fff" stroke="#fb0d87" stroke-width="3" opacity="1"></path><path aria-label="Month: Jan; phooey contrary: 15; invoice Cab Honduras: ah North ratione" role="graphics-symbol" aria-roledescription="point" transform="translate(39.31818181818181,50)" d="M2.7386127875258306,0A2.7386127875258306,2.7386127875258306,0,1,1,-2.7386127875258306,0A2.7386127875258306,2.7386127875258306,0,1,1,2.7386127875258306,0" fill="#fff" stroke="#2deb4a" stroke-width="3" opacity="1"></path><path aria-label="Month: Feb; phooey contrary: 15; invoice Cab Honduras: ah North ratione" role="graphics-symbol" aria-roledescription="point" transform="translate(117.95454545454545,50)" d="M2.7386127875258306,0A2.7386127875258306,2.7386127875258306,0,1,1,-2.7386127875258306,0A2.7386127875258306,2.7386127875258306,0,1,1,2.7386127875258306,0" fill="#fff" stroke="#2deb4a" stroke-width="3" opacity="1"></path><path aria-label="Month: Mar; phooey contrary: 16; invoice Cab Honduras: ah North ratione" role="graphics-symbol" aria-roledescription="point" transform="translate(196.5909090909091,39.99999999999999)" d="M2.7386127875258306,0A2.7386127875258306,2.7386127875258306,0,1,1,-2.7386127875258306,0A2.7386127875258306,2.7386127875258306,0,1,1,2.7386127875258306,0" fill="#fff" stroke="#2deb4a" stroke-width="3" opacity="1"></path><path aria-label="Month: Apr; phooey contrary: 20; invoice Cab Honduras: ah North ratione" role="graphics-symbol" aria-roledescription="point" transform="translate(275.22727272727275,0)" d="M2.7386127875258306,0A2.7386127875258306,2.7386127875258306,0,1,1,-2.7386127875258306,0A2.7386127875258306,2.7386127875258306,0,1,1,2.7386127875258306,0" fill="#fff" stroke="#2deb4a" stroke-width="3" opacity="1"></path><path aria-label="Month: May; phooey contrary: 1; invoice Cab Honduras: ah North ratione" role="graphics-symbol" aria-roledescription="point" transform="translate(353.8636363636364,190)" d="M2.7386127875258306,0A2.7386127875258306,2.7386127875258306,0,1,1,-2.7386127875258306,0A2.7386127875258306,2.7386127875258306,0,1,1,2.7386127875258306,0" fill="#fff" stroke="#2deb4a" stroke-width="3" opacity="1"></path><path aria-label="Month: June; phooey contrary: 2; invoice Cab Honduras: ah North ratione" role="graphics-symbol" aria-roledescription="point" transform="translate(432.5,180)" d="M2.7386127875258306,0A2.7386127875258306,2.7386127875258306,0,1,1,-2.7386127875258306,0A2.7386127875258306,2.7386127875258306,0,1,1,2.7386127875258306,0" fill="#fff" stroke="#2deb4a" stroke-width="3" opacity="1"></path><path aria-label="Month: July; phooey contrary: 7; invoice Cab Honduras: ah North ratione" role="graphics-symbol" aria-roledescription="point" transform="translate(511.1363636363637,130)" d="M2.7386127875258306,0A2.7386127875258306,2.7386127875258306,0,1,1,-2.7386127875258306,0A2.7386127875258306,2.7386127875258306,0,1,1,2.7386127875258306,0" fill="#fff" stroke="#2deb4a" stroke-width="3" opacity="1"></path><path aria-label="Month: Aug; phooey contrary: 1; invoice Cab Honduras: ah North ratione" role="graphics-symbol" aria-roledescription="point" transform="translate(589.7727272727273,190)" d="M2.7386127875258306,0A2.7386127875258306,2.7386127875258306,0,1,1,-2.7386127875258306,0A2.7386127875258306,2.7386127875258306,0,1,1,2.7386127875258306,0" fill="#fff" stroke="#2deb4a" stroke-width="3" opacity="1"></path><path aria-label="Month: Sep; phooey contrary: 15; invoice Cab Honduras: ah North ratione" role="graphics-symbol" aria-roledescription="point" transform="translate(668.409090909091,50)" d="M2.7386127875258306,0A2.7386127875258306,2.7386127875258306,0,1,1,-2.7386127875258306,0A2.7386127875258306,2.7386127875258306,0,1,1,2.7386127875258306,0" fill="#fff" stroke="#2deb4a" stroke-width="3" opacity="1"></path><path aria-label="Month: Oct; phooey contrary: 3; invoice Cab Honduras: ah North ratione" role="graphics-symbol" aria-roledescription="point" transform="translate(747.0454545454545,170)" d="M2.7386127875258306,0A2.7386127875258306,2.7386127875258306,0,1,1,-2.7386127875258306,0A2.7386127875258306,2.7386127875258306,0,1,1,2.7386127875258306,0" fill="#fff" stroke="#2deb4a" stroke-width="3" opacity="1"></path><path aria-label="Month: Nov; phooey contrary: 20; invoice Cab Honduras: ah North ratione" role="graphics-symbol" aria-roledescription="point" transform="translate(825.6818181818182,0)" d="M2.7386127875258306,0A2.7386127875258306,2.7386127875258306,0,1,1,-2.7386127875258306,0A2.7386127875258306,2.7386127875258306,0,1,1,2.7386127875258306,0" fill="#fff" stroke="#2deb4a" stroke-width="3" opacity="1"></path></g><g class="mark-text role-mark layer_2_marks" role="graphics-object" aria-roledescription="text mark container"><text aria-label="Month: Jan; phooey contrary: 2" role="graphics-symbol" aria-roledescription="text mark" text-anchor="middle" transform="translate(39.31818181818181,211)" font-family="sans-serif" font-size="19px" fill="#000" opacity="1">2</text><text aria-label="Month: Feb; phooey contrary: 17" role="graphics-symbol" aria-roledescription="text mark" text-anchor="middle" transform="translate(117.95454545454545,61)" font-family="sans-serif" font-size="19px" fill="#000" opacity="1">17</text><text aria-label="Month: Mar; phooey contrary: 9" role="graphics-symbol" aria-roledescription="text mark" text-anchor="middle" transform="translate(196.5909090909091,141)" font-family="sans-serif" font-size="19px" fill="#000" opacity="1">9</text><text aria-label="Month: Apr; phooey contrary: 17" role="graphics-symbol" aria-roledescription="text mark" text-anchor="middle" transform="translate(275.22727272727275,61)" font-family="sans-serif" font-size="19px" fill="#000" opacity="1">17</text><text aria-label="Month: May; phooey contrary: 17" role="graphics-symbol" aria-roledescription="text mark" text-anchor="middle" transform="translate(353.8636363636364,61)" font-family="sans-serif" font-size="19px" fill="#000" opacity="1">17</text><text aria-label="Month: June; phooey contrary: 8" role="graphics-symbol" aria-roledescription="text mark" text-anchor="middle" transform="translate(432.5,151)" font-family="sans-serif" font-size="19px" fill="#000" opacity="1">8</text><text aria-label="Month: July; phooey contrary: 20" role="graphics-symbol" aria-roledescription="text mark" text-anchor="middle" transform="translate(511.1363636363637,31)" font-family="sans-serif" font-size="19px" fill="#000" opacity="1">20</text><text aria-label="Month: Aug; phooey contrary: 14" role="graphics-symbol" aria-roledescription="text mark" text-anchor="middle" transform="translate(589.7727272727273,91)" font-family="sans-serif" font-size="19px" fill="#000" opacity="1">14</text><text aria-label="Month: Sep; phooey contrary: 19" role="graphics-symbol" aria-roledescription="text mark" text-anchor="middle" transform="translate(668.409090909091,41.00000000000001)" font-family="sans-serif" font-size="19px" fill="#000" opacity="1">19</text><text aria-label="Month: Oct; phooey contrary: 2" role="graphics-symbol" aria-roledescription="text mark" text-anchor="middle" transform="translate(747.0454545454545,211)" font-family="sans-serif" font-size="19px" fill="#000" opacity="1">2</text><text aria-label="Month: Nov; phooey contrary: 7" role="graphics-symbol" aria-roledescription="text mark" text-anchor="middle" transform="translate(825.6818181818182,161)" font-family="sans-serif" font-size="19px" fill="#000" opacity="1">7</text><text aria-label="Month: Jan; phooey contrary: 15" role="graphics-symbol" aria-roledescription="text mark" text-anchor="middle" transform="translate(39.31818181818181,81)" font-family="sans-serif" font-size="19px" fill="#000" opacity="1">15</text><text aria-label="Month: Feb; phooey contrary: 15" role="graphics-symbol" aria-roledescription="text mark" text-anchor="middle" transform="translate(117.95454545454545,81)" font-family="sans-serif" font-size="19px" fill="#000" opacity="1">15</text><text aria-label="Month: Mar; phooey contrary: 16" role="graphics-symbol" aria-roledescription="text mark" text-anchor="middle" transform="translate(196.5909090909091,71)" font-family="sans-serif" font-size="19px" fill="#000" opacity="1">16</text><text aria-label="Month: Apr; phooey contrary: 20" role="graphics-symbol" aria-roledescription="text mark" text-anchor="middle" transform="translate(275.22727272727275,31)" font-family="sans-serif" font-size="19px" fill="#000" opacity="1">20</text><text aria-label="Month: May; phooey contrary: 1" role="graphics-symbol" aria-roledescription="text mark" text-anchor="middle" transform="translate(353.8636363636364,221)" font-family="sans-serif" font-size="19px" fill="#000" opacity="1">1</text><text aria-label="Month: June; phooey contrary: 2" role="graphics-symbol" aria-roledescription="text mark" text-anchor="middle" transform="translate(432.5,211)" font-family="sans-serif" font-size="19px" fill="#000" opacity="1">2</text><text aria-label="Month: July; phooey contrary: 7" role="graphics-symbol" aria-roledescription="text mark" text-anchor="middle" transform="translate(511.1363636363637,161)" font-family="sans-serif" font-size="19px" fill="#000" opacity="1">7</text><text aria-label="Month: Aug; phooey contrary: 1" role="graphics-symbol" aria-roledescription="text mark" text-anchor="middle" transform="translate(589.7727272727273,221)" font-family="sans-serif" font-size="19px" fill="#000" opacity="1">1</text><text aria-label="Month: Sep; phooey contrary: 15" role="graphics-symbol" aria-roledescription="text mark" text-anchor="middle" transform="translate(668.409090909091,81)" font-family="sans-serif" font-size="19px" fill="#000" opacity="1">15</text><text aria-label="Month: Oct; phooey contrary: 3" role="graphics-symbol" aria-roledescription="text mark" text-anchor="middle" transform="translate(747.0454545454545,201)" font-family="sans-serif" font-size="19px" fill="#000" opacity="1">3</text><text aria-label="Month: Nov; phooey contrary: 20" role="graphics-symbol" aria-roledescription="text mark" text-anchor="middle" transform="translate(825.6818181818182,31)" font-family="sans-serif" font-size="19px" fill="#000" opacity="1">20</text></g><g class="mark-group role-legend" role="graphics-symbol" aria-roledescription="legend" aria-label="Symbol legend for stroke color with 2 values: protocol, ah North ratione"><g transform="translate(0,-44)"><path class="background" aria-hidden="true" d="M0,0h151v13h-151Z" pointer-events="none"></path><g><g class="mark-group role-legend-entry"><g transform="translate(0,0)"><path class="background" aria-hidden="true" d="M0,0h0v0h0Z" pointer-events="none"></path><g><g class="mark-group role-scope" role="graphics-object" aria-roledescription="group mark container"><g transform="translate(0,0.25)"><path class="background" aria-hidden="true" d="M0,0h51.576171875v12.5h-51.576171875Z" pointer-events="none" opacity="1"></path><g><g class="mark-symbol role-legend-symbol" pointer-events="none"><path transform="translate(6,6)" d="M5,0A5,5,0,1,1,-5,0A5,5,0,1,1,5,0" fill="#fff" stroke="#fb0d87" stroke-width="1.5" opacity="1"></path></g><g class="mark-text role-legend-label" pointer-events="none"><text text-anchor="start" transform="translate(16,9)" font-family="sans-serif" font-size="10px" fill="#000" opacity="1">protocol</text></g></g><path class="foreground" aria-hidden="true" d="" pointer-events="none" display="none"></path></g><g transform="translate(63,0.25)"><path class="background" aria-hidden="true" d="M0,0h87.708984375v12.5h-87.708984375Z" pointer-events="none" opacity="1"></path><g><g class="mark-symbol role-legend-symbol" pointer-events="none"><path transform="translate(6,6)" d="M5,0A5,5,0,1,1,-5,0A5,5,0,1,1,5,0" fill="#fff" stroke="#2deb4a" stroke-width="1.5" opacity="1"></path></g><g class="mark-text role-legend-label" pointer-events="none"><text text-anchor="start" transform="translate(16,9)" font-family="sans-serif" font-size="10px" fill="#000" opacity="1">ah North ratione</text></g></g><path class="foreground" aria-hidden="true" d="" pointer-events="none" display="none"></path></g></g></g><path class="foreground" aria-hidden="true" d="" pointer-events="none" display="none"></path></g></g></g><path class="foreground" aria-hidden="true" d="" pointer-events="none" display="none"></path></g></g><g class="mark-group role-title"><g transform="translate(-19.2353515625,-73)"><path class="background" aria-hidden="true" d="M0,0h0v0h0Z" pointer-events="none"></path><g><g class="mark-text role-title-text" role="graphics-symbol" aria-roledescription="title" aria-label="Title text 'Wiza'" pointer-events="none"><text text-anchor="start" transform="translate(0,20)" font-family="sans-serif" font-size="25px" font-weight="bold" fill="#000" opacity="1">Wiza</text></g></g><path class="foreground" aria-hidden="true" d="" pointer-events="none" display="none"></path></g></g></g><path class="foreground" aria-hidden="true" d="" display="none"></path></g></g></g></svg>