<svg xmlns="http://www.w3.org/2000/svg" xmlns:xlink="http://www.w3.org/1999/xlink" version="1.1" class="marks" width="935" height="314" viewBox="0 0 935 314" style="background-color: rgb(255, 255, 255);"><g fill="none" stroke-miterlimit="10" transform="translate(39,83)"><g class="mark-group role-frame root" role="graphics-object" aria-roledescription="group mark container"><g transform="translate(0,0)"><path class="background" aria-hidden="true" d="M0.5,0.5h891v200h-891Z" fill="transparent" stroke="#ddd"></path><g><g class="mark-group role-axis" role="graphics-symbol" aria-roledescription="axis" aria-label="X-axis for a discrete scale with 5 values: 1786, 1788, 1790, 1792, 1794"><g transform="translate(0.5,200.5)"><path class="background" aria-hidden="true" d="M0,0h0v0h0Z" pointer-events="none"></path><g><g class="mark-rule role-axis-tick" pointer-events="none"><line transform="translate(89,0)" x2="0" y2="5" stroke="#888" stroke-width="1" opacity="1"></line><line transform="translate(267,0)" x2="0" y2="5" stroke="#888" stroke-width="1" opacity="1"></line><line transform="translate(446,0)" x2="0" y2="5" stroke="#888" stroke-width="1" opacity="1"></line><line transform="translate(624,0)" x2="0" y2="5" stroke="#888" stroke-width="1" opacity="1"></line><line transform="translate(802,0)" x2="0" y2="5" stroke="#888" stroke-width="1" opacity="1"></line></g><g class="mark-text role-axis-label" pointer-events="none"><text text-anchor="middle" transform="translate(89.10000000000002,22)" font-family="monospace" font-size="19px" font-weight="bold" fill="#000" opacity="1">1786</text><text text-anchor="middle" transform="translate(267.3,22)" font-family="monospace" font-size="19px" font-weight="bold" fill="#000" opacity="1">1788</text><text text-anchor="middle" transform="translate(445.5,22)" font-family="monospace" font-size="19px" font-weight="bold" fill="#000" opacity="1">1790</text><text text-anchor="middle" transform="translate(623.6999999999999,22)" font-family="monospace" font-size="19px" font-weight="bold" fill="#000" opacity="1">1792</text><text text-anchor="middle" transform="translate(801.9,22)" font-family="monospace" font-size="19px" font-weight="bold" fill="#000" opacity="1">1794</text></g><g class="mark-rule role-axis-domain" pointer-events="none"><line transform="translate(0,0)" x2="891" y2="0" stroke="#888" stroke-width="1" opacity="1"></line></g></g><path class="foreground" aria-hidden="true" d="" pointer-events="none" display="none"></path></g></g><g class="mark-group role-axis" role="graphics-symbol" aria-roledescription="axis" aria-label="Y-axis for a linear scale with values from 0 to 180"><g transform="translate(0.5,0.5)"><path class="background" aria-hidden="true" d="M0,0h0v0h0Z" pointer-events="none"></path><g><g class="mark-text role-axis-label" pointer-events="none"><text text-anchor="end" transform="translate(-2,206)" font-family="monospace" font-size="19px" font-weight="bold" fill="#000" opacity="1">0</text><text text-anchor="end" transform="translate(-2,150.44444444444443)" font-family="monospace" font-size="19px" font-weight="bold" fill="#000" opacity="1">50</text><text text-anchor="end" transform="translate(-2,94.88888888888889)" font-family="monospace" font-size="19px" font-weight="bold" fill="#000" opacity="1">100</text><text text-anchor="end" transform="translate(-2,39.33333333333333)" font-family="monospace" font-size="19px" font-weight="bold" fill="#000" opacity="1">150</text></g><g class="mark-rule role-axis-domain" pointer-events="none"><line transform="translate(0,200)" x2="0" y2="-200" stroke="#888" stroke-width="1" opacity="1"></line></g></g><path class="foreground" aria-hidden="true" d="" pointer-events="none" display="none"></path></g></g><g class="mark-group role-scope layer_0_pathgroup" role="graphics-object" aria-roledescription="group mark container"><g transform="translate(0,0)"><path class="background" aria-hidden="true" d="M0,0h891v200h-891Z"></path><g><g class="mark-line role-mark layer_0_marks" role="graphics-object" aria-roledescription="line mark container"><path aria-label="Year: 1786; Awesome Generic Audi: 131; female: Soul lux" role="graphics-symbol" aria-roledescription="line mark" d="M89.10000000000002,54.44444444444445L267.3,116.66666666666666L445.5,128.88888888888889L623.6999999999999,36.66666666666667L801.9,160" stroke="#f995ea" stroke-width="2" stroke-dasharray="1,0"></path></g></g><path class="foreground" aria-hidden="true" d="" display="none"></path></g><g transform="translate(0,0)"><path class="background" aria-hidden="true" d="M0,0h891v200h-891Z"></path><g><g class="mark-line role-mark layer_0_marks" role="graphics-object" aria-roledescription="line mark container"><path aria-label="Year: 1786; Awesome Generic Audi: 69; female: boohoo male" role="graphics-symbol" aria-roledescription="line mark" d="M89.10000000000002,123.33333333333334L267.3,131.11111111111111L445.5,35.555555555555564L623.6999999999999,17.777777777777782L801.9,0" stroke="#0bc42a" stroke-width="2" stroke-dasharray="1,0"></path></g></g><path class="foreground" aria-hidden="true" d="" display="none"></path></g></g><g class="mark-symbol role-mark layer_1_marks" role="graphics-object" aria-roledescription="symbol mark container"><path aria-label="Year: 1786; Awesome Generic Audi: 131; female: Soul lux" role="graphics-symbol" aria-roledescription="point" transform="translate(89.10000000000002,54.44444444444445)" d="M2.7386127875258306,0A2.7386127875258306,2.7386127875258306,0,1,1,-2.7386127875258306,0A2.7386127875258306,2.7386127875258306,0,1,1,2.7386127875258306,0" fill="#fff" stroke="#f995ea" stroke-width="3" opacity="1"></path><path aria-label="Year: 1788; Awesome Generic Audi: 75; female: Soul lux" role="graphics-symbol" aria-roledescription="point" transform="translate(267.3,116.66666666666666)" d="M2.7386127875258306,0A2.7386127875258306,2.7386127875258306,0,1,1,-2.7386127875258306,0A2.7386127875258306,2.7386127875258306,0,1,1,2.7386127875258306,0" fill="#fff" stroke="#f995ea" stroke-width="3" opacity="1"></path><path aria-label="Year: 1790; Awesome Generic Audi: 64; female: Soul lux" role="graphics-symbol" aria-roledescription="point" transform="translate(445.5,128.88888888888889)" d="M2.7386127875258306,0A2.7386127875258306,2.7386127875258306,0,1,1,-2.7386127875258306,0A2.7386127875258306,2.7386127875258306,0,1,1,2.7386127875258306,0" fill="#fff" stroke="#f995ea" stroke-width="3" opacity="1"></path><path aria-label="Year: 1792; Awesome Generic Audi: 147; female: Soul lux" role="graphics-symbol" aria-roledescription="point" transform="translate(623.6999999999999,36.66666666666667)" d="M2.7386127875258306,0A2.7386127875258306,2.7386127875258306,0,1,1,-2.7386127875258306,0A2.7386127875258306,2.7386127875258306,0,1,1,2.7386127875258306,0" fill="#fff" stroke="#f995ea" stroke-width="3" opacity="1"></path><path aria-label="Year: 1794; Awesome Generic Audi: 36; female: Soul lux" role="graphics-symbol" aria-roledescription="point" transform="translate(801.9,160)" d="M2.7386127875258306,0A2.7386127875258306,2.7386127875258306,0,1,1,-2.7386127875258306,0A2.7386127875258306,2.7386127875258306,0,1,1,2.7386127875258306,0" fill="#fff" stroke="#f995ea" stroke-width="3" opacity="1"></path><path aria-label="Year: 1786; Awesome Generic Audi: 69; female: boohoo male" role="graphics-symbol" aria-roledescription="point" transform="translate(89.10000000000002,123.33333333333334)" d="M2.7386127875258306,0A2.7386127875258306,2.7386127875258306,0,1,1,-2.7386127875258306,0A2.7386127875258306,2.7386127875258306,0,1,1,2.7386127875258306,0" fill="#fff" stroke="#0bc42a" stroke-width="3" opacity="1"></path><path aria-label="Year: 1788; Awesome Generic Audi: 62; female: boohoo male" role="graphics-symbol" aria-roledescription="point" transform="translate(267.3,131.11111111111111)" d="M2.7386127875258306,0A2.7386127875258306,2.7386127875258306,0,1,1,-2.7386127875258306,0A2.7386127875258306,2.7386127875258306,0,1,1,2.7386127875258306,0" fill="#fff" stroke="#0bc42a" stroke-width="3" opacity="1"></path><path aria-label="Year: 1790; Awesome Generic Audi: 148; female: boohoo male" role="graphics-symbol" aria-roledescription="point" transform="translate(445.5,35.555555555555564)" d="M2.7386127875258306,0A2.7386127875258306,2.7386127875258306,0,1,1,-2.7386127875258306,0A2.7386127875258306,2.7386127875258306,0,1,1,2.7386127875258306,0" fill="#fff" stroke="#0bc42a" stroke-width="3" opacity="1"></path><path aria-label="Year: 1792; Awesome Generic Audi: 164; female: boohoo male" role="graphics-symbol" aria-roledescription="point" transform="translate(623.6999999999999,17.777777777777782)" d="M2.7386127875258306,0A2.7386127875258306,2.7386127875258306,0,1,1,-2.7386127875258306,0A2.7386127875258306,2.7386127875258306,0,1,1,2.7386127875258306,0" fill="#fff" stroke="#0bc42a" stroke-width="3" opacity="1"></path><path aria-label="Year: 1794; Awesome Generic Audi: 180; female: boohoo male" role="graphics-symbol" aria-roledescription="point" transform="translate(801.9,0)" d="M2.7386127875258306,0A2.7386127875258306,2.7386127875258306,0,1,1,-2.7386127875258306,0A2.7386127875258306,2.7386127875258306,0,1,1,2.7386127875258306,0" fill="#fff" stroke="#0bc42a" stroke-width="3" opacity="1"></path></g><g class="mark-text role-mark layer_2_marks" role="graphics-object" aria-roledescription="text mark container"><text aria-label="Year: 1786; Awesome Generic Audi: 131" role="graphics-symbol" aria-roledescription="text mark" text-anchor="middle" transform="translate(89.10000000000002,84.44444444444446)" font-family="monospace" font-size="18px" fill="#000" opacity="1">131</text><text aria-label="Year: 1788; Awesome Generic Audi: 75" role="graphics-symbol" aria-roledescription="text mark" text-anchor="middle" transform="translate(267.3,146.66666666666666)" font-family="monospace" font-size="18px" fill="#000" opacity="1">75</text><text aria-label="Year: 1790; Awesome Generic Audi: 64" role="graphics-symbol" aria-roledescription="text mark" text-anchor="middle" transform="translate(445.5,158.88888888888889)" font-family="monospace" font-size="18px" fill="#000" opacity="1">64</text><text aria-label="Year: 1792; Awesome Generic Audi: 147" role="graphics-symbol" aria-roledescription="text mark" text-anchor="middle" transform="translate(623.6999999999999,66.66666666666667)" font-family="monospace" font-size="18px" fill="#000" opacity="1">147</text><text aria-label="Year: 1794; Awesome Generic Audi: 36" role="graphics-symbol" aria-roledescription="text mark" text-anchor="middle" transform="translate(801.9,190)" font-family="monospace" font-size="18px" fill="#000" opacity="1">36</text><text aria-label="Year: 1786; Awesome Generic Audi: 69" role="graphics-symbol" aria-roledescription="text mark" text-anchor="middle" transform="translate(89.10000000000002,153.33333333333334)" font-family="monospace" font-size="18px" fill="#000" opacity="1">69</text><text aria-label="Year: 1788; Awesome Generic Audi: 62" role="graphics-symbol" aria-roledescription="text mark" text-anchor="middle" transform="translate(267.3,161.11111111111111)" font-family="monospace" font-size="18px" fill="#000" opacity="1">62</text><text aria-label="Year: 1790; Awesome Generic Audi: 148" role="graphics-symbol" aria-roledescription="text mark" text-anchor="middle" transform="translate(445.5,65.55555555555557)" font-family="monospace" font-size="18px" fill="#000" opacity="1">148</text><text aria-label="Year: 1792; Awesome Generic Audi: 164" role="graphics-symbol" aria-roledescription="text mark" text-anchor="middle" transform="translate(623.6999999999999,47.777777777777786)" font-family="monospace" font-size="18px" fill="#000" opacity="1">164</text><text aria-label="Year: 1794; Awesome Generic Audi: 180" role="graphics-symbol" aria-roledescription="text mark" text-anchor="middle" transform="translate(801.9,30)" font-family="monospace" font-size="18px" fill="#000" opacity="1">180</text></g><g class="mark-group role-legend" role="graphics-symbol" aria-roledescription="legend" aria-label="Symbol legend titled 'female' for stroke color with 2 values: Soul lux, boohoo male"><g transform="translate(0,-49)"><path class="background" aria-hidden="true" d="M0,0h148v29h-148Z" pointer-events="none"></path><g><g class="mark-group role-legend-entry"><g transform="translate(0,16)"><path class="background" aria-hidden="true" d="M0,0h0v0h0Z" pointer-events="none"></path><g><g class="mark-group role-scope" role="graphics-object" aria-roledescription="group mark container"><g transform="translate(0,0.25)"><path class="background" aria-hidden="true" d="M0,0h59.984375v12.5h-59.984375Z" pointer-events="none" opacity="1"></path><g><g class="mark-symbol role-legend-symbol" pointer-events="none"><path transform="translate(6,6)" d="M5,0A5,5,0,1,1,-5,0A5,5,0,1,1,5,0" fill="#fff" stroke="#f995ea" stroke-width="1.5" opacity="1"></path></g><g class="mark-text role-legend-label" pointer-events="none"><text text-anchor="start" transform="translate(16,9)" font-family="monospace" font-size="10px" fill="#000" opacity="1">Soul lux</text></g></g><path class="foreground" aria-hidden="true" d="" pointer-events="none" display="none"></path></g><g transform="translate(71,0.25)"><path class="background" aria-hidden="true" d="M0,0h76.478515625v12.5h-76.478515625Z" pointer-events="none" opacity="1"></path><g><g class="mark-symbol role-legend-symbol" pointer-events="none"><path transform="translate(6,6)" d="M5,0A5,5,0,1,1,-5,0A5,5,0,1,1,5,0" fill="#fff" stroke="#0bc42a" stroke-width="1.5" opacity="1"></path></g><g class="mark-text role-legend-label" pointer-events="none"><text text-anchor="start" transform="translate(16,9)" font-family="monospace" font-size="10px" fill="#000" opacity="1">boohoo male</text></g></g><path class="foreground" aria-hidden="true" d="" pointer-events="none" display="none"></path></g></g></g><path class="foreground" aria-hidden="true" d="" pointer-events="none" display="none"></path></g></g><g class="mark-text role-legend-title" pointer-events="none"><text text-anchor="start" transform="translate(0,9)" font-family="monospace" font-size="11px" font-weight="bold" fill="#000" opacity="1">female</text></g></g><path class="foreground" aria-hidden="true" d="" pointer-events="none" display="none"></path></g></g><g class="mark-group role-title"><g transform="translate(-33.3388671875,-78)"><path class="background" aria-hidden="true" d="M0,0h0v0h0Z" pointer-events="none"></path><g><g class="mark-text role-title-text" role="graphics-symbol" aria-roledescription="title" aria-label="Title text 'female Solutions Southwest'" pointer-events="none"><text text-anchor="start" transform="translate(0,20)" font-family="monospace" font-size="25px" font-weight="bold" fill="#000" opacity="1">female Solutions Southwest</text></g></g><path class="foreground" aria-hidden="true" d="" pointer-events="none" display="none"></path></g></g></g><path class="foreground" aria-hidden="true" d="" display="none"></path></g></g></g></svg>