<svg xmlns="http://www.w3.org/2000/svg" xmlns:xlink="http://www.w3.org/1999/xlink" version="1.1" class="marks" width="920" height="290" viewBox="0 0 920 290" style="background-color: rgb(51, 51, 51);"><g fill="none" stroke-miterlimit="10" transform="translate(32,34)"><g class="mark-group role-frame root" role="graphics-object" aria-roledescription="group mark container"><g transform="translate(0,0)"><path class="background" aria-hidden="true" d="M0.5,0.5h883v200h-883Z" fill="transparent" stroke="#ddd"></path><g><g class="mark-group role-axis" aria-hidden="true"><g transform="translate(0.5,200.5)"><path class="background" aria-hidden="true" d="M0,0h0v0h0Z" pointer-events="none"></path><g><g class="mark-rule role-axis-grid" pointer-events="none"><line transform="translate(55,-200)" x2="0" y2="200" stroke="#747474" stroke-width="1" stroke-dasharray="1,0" opacity="1"></line><line transform="translate(166,-200)" x2="0" y2="200" stroke="#747474" stroke-width="1" stroke-dasharray="1,0" opacity="1"></line><line transform="translate(276,-200)" x2="0" y2="200" stroke="#747474" stroke-width="1" stroke-dasharray="1,0" opacity="1"></line><line transform="translate(386,-200)" x2="0" y2="200" stroke="#747474" stroke-width="1" stroke-dasharray="1,0" opacity="1"></line><line transform="translate(497,-200)" x2="0" y2="200" stroke="#747474" stroke-width="1" stroke-dasharray="1,0" opacity="1"></line><line transform="translate(607,-200)" x2="0" y2="200" stroke="#747474" stroke-width="1" stroke-dasharray="1,0" opacity="1"></line><line transform="translate(717,-200)" x2="0" y2="200" stroke="#747474" stroke-width="1" stroke-dasharray="1,0" opacity="1"></line><line transform="translate(828,-200)" x2="0" y2="200" stroke="#747474" stroke-width="1" stroke-dasharray="1,0" opacity="1"></line></g></g><path class="foreground" aria-hidden="true" d="" pointer-events="none" display="none"></path></g></g><g class="mark-group role-axis" role="graphics-symbol" aria-roledescription="axis" aria-label="X-axis for a discrete scale with 8 values: Jan, Feb, Mar, Apr, May, ending with Aug"><g transform="translate(0.5,200.5)"><path class="background" aria-hidden="true" d="M0,0h0v0h0Z" pointer-events="none"></path><g><g class="mark-rule role-axis-tick" pointer-events="none"><line transform="translate(55,0)" x2="0" y2="5" stroke="#888" stroke-width="1" opacity="1"></line><line transform="translate(166,0)" x2="0" y2="5" stroke="#888" stroke-width="1" opacity="1"></line><line transform="translate(276,0)" x2="0" y2="5" stroke="#888" stroke-width="1" opacity="1"></line><line transform="translate(386,0)" x2="0" y2="5" stroke="#888" stroke-width="1" opacity="1"></line><line transform="translate(497,0)" x2="0" y2="5" stroke="#888" stroke-width="1" opacity="1"></line><line transform="translate(607,0)" x2="0" y2="5" stroke="#888" stroke-width="1" opacity="1"></line><line transform="translate(717,0)" x2="0" y2="5" stroke="#888" stroke-width="1" opacity="1"></line><line transform="translate(828,0)" x2="0" y2="5" stroke="#888" stroke-width="1" opacity="1"></line></g><g class="mark-text role-axis-label" pointer-events="none"><text text-anchor="middle" transform="translate(55.1875,17)" font-family="avenir" font-size="13px" font-weight="bold" fill="#fff" opacity="1">Jan</text><text text-anchor="middle" transform="translate(165.5625,17)" font-family="avenir" font-size="13px" font-weight="bold" fill="#fff" opacity="1">Feb</text><text text-anchor="middle" transform="translate(275.9375,17)" font-family="avenir" font-size="13px" font-weight="bold" fill="#fff" opacity="1">Mar</text><text text-anchor="middle" transform="translate(386.3125,17)" font-family="avenir" font-size="13px" font-weight="bold" fill="#fff" opacity="1">Apr</text><text text-anchor="middle" transform="translate(496.6875,17)" font-family="avenir" font-size="13px" font-weight="bold" fill="#fff" opacity="1">May</text><text text-anchor="middle" transform="translate(607.0625,17)" font-family="avenir" font-size="13px" font-weight="bold" fill="#fff" opacity="1">June</text><text text-anchor="middle" transform="translate(717.4375,17)" font-family="avenir" font-size="13px" font-weight="bold" fill="#fff" opacity="1">July</text><text text-anchor="middle" transform="translate(827.8125,17)" font-family="avenir" font-size="13px" font-weight="bold" fill="#fff" opacity="1">Aug</text></g><g class="mark-rule role-axis-domain" pointer-events="none"><line transform="translate(0,0)" x2="883" y2="0" stroke="#888" stroke-width="1" opacity="1"></line></g></g><path class="foreground" aria-hidden="true" d="" pointer-events="none" display="none"></path></g></g><g class="mark-group role-axis" role="graphics-symbol" aria-roledescription="axis" aria-label="Y-axis for a linear scale with values from 0 to 240"><g transform="translate(0.5,0.5)"><path class="background" aria-hidden="true" d="M0,0h0v0h0Z" pointer-events="none"></path><g><g class="mark-rule role-axis-tick" pointer-events="none"><line transform="translate(0,200)" x2="-5" y2="0" stroke="#888" stroke-width="1" opacity="1"></line><line transform="translate(0,158)" x2="-5" y2="0" stroke="#888" stroke-width="1" opacity="1"></line><line transform="translate(0,117)" x2="-5" y2="0" stroke="#888" stroke-width="1" opacity="1"></line><line transform="translate(0,75)" x2="-5" y2="0" stroke="#888" stroke-width="1" opacity="1"></line><line transform="translate(0,33)" x2="-5" y2="0" stroke="#888" stroke-width="1" opacity="1"></line></g><g class="mark-text role-axis-label" pointer-events="none"><text text-anchor="end" transform="translate(-7,204)" font-family="avenir" font-size="13px" font-weight="bold" fill="#fff" opacity="1">0</text><text text-anchor="end" transform="translate(-7,162.33333333333331)" font-family="avenir" font-size="13px" font-weight="bold" fill="#fff" opacity="1">50</text><text text-anchor="end" transform="translate(-7,120.66666666666666)" font-family="avenir" font-size="13px" font-weight="bold" fill="#fff" opacity="1">100</text><text text-anchor="end" transform="translate(-7,79)" font-family="avenir" font-size="13px" font-weight="bold" fill="#fff" opacity="1">150</text><text text-anchor="end" transform="translate(-7,37.33333333333333)" font-family="avenir" font-size="13px" font-weight="bold" fill="#fff" opacity="1">200</text></g></g><path class="foreground" aria-hidden="true" d="" pointer-events="none" display="none"></path></g></g><g class="mark-group role-scope layer_0_pathgroup" role="graphics-object" aria-roledescription="group mark container"><g transform="translate(0,0)"><path class="background" aria-hidden="true" d="M0,0h883v200h-883Z"></path><g><g class="mark-line role-mark layer_0_marks" role="graphics-object" aria-roledescription="line mark container"><path aria-label="Month: Jan; Northeast grey: 79; female: copy" role="graphics-symbol" aria-roledescription="line mark" d="M55.1875,134.16666666666669C91.97916666666667,154.47956028856066,128.77083333333334,174.7924539104546,165.5625,166.66666666666669C202.35416666666666,158.54087942287876,239.14583333333331,121.9764113134089,275.9375,127.49999999999999C312.7291666666667,133.02358868659107,349.5208333333334,180.6352341692431,386.3125,176.66666666666666C423.1041666666666,172.69809916409022,459.89583333333326,117.14931867628533,496.6875,122.50000000000001C533.4791666666667,127.8506813237147,570.2708333333334,194.10082445894886,607.0625,184.16666666666669C643.8541666666666,174.2325088743845,680.6458333333334,88.11405015458605,717.4375,68.33333333333333C754.2291666666666,48.552616512080604,791.0208333333333,95.10964158937364,827.8125,141.66666666666666" stroke="#96769b" stroke-width="2" stroke-dasharray="8,8"></path></g></g><path class="foreground" aria-hidden="true" d="" display="none"></path></g><g transform="translate(0,0)"><path class="background" aria-hidden="true" d="M0,0h883v200h-883Z"></path><g><g class="mark-line role-mark layer_0_marks" role="graphics-object" aria-roledescription="line mark container"><path aria-label="Month: Jan; Northeast grey: 164; female: tesla pole" role="graphics-symbol" aria-roledescription="line mark" d="M55.1875,63.33333333333333C91.97916666666667,41.47095308981258,128.77083333333334,19.608572846291842,165.5625,12.5C202.35416666666666,5.391427153708158,239.14583333333331,13.036661704645212,275.9375,37.5C312.7291666666667,61.96333829535479,349.5208333333334,103.2447803351273,386.3125,135.83333333333334C423.1041666666666,168.42188633153938,459.89583333333326,192.31755028817895,496.6875,178.33333333333331C533.4791666666667,164.34911637848768,570.2708333333334,112.48501851215693,607.0625,80.83333333333333C643.8541666666666,49.18164815450972,680.6458333333334,37.74237566319324,717.4375,51.66666666666666C754.2291666666666,65.59095767014007,791.0208333333333,104.87881216840336,827.8125,144.16666666666666" stroke="#0f4fb8" stroke-width="2" stroke-dasharray="8,8"></path></g></g><path class="foreground" aria-hidden="true" d="" display="none"></path></g></g><g class="mark-symbol role-mark layer_1_marks" role="graphics-object" aria-roledescription="symbol mark container"><path aria-label="Month: Jan; Northeast grey: 79; female: copy" role="graphics-symbol" aria-roledescription="point" transform="translate(55.1875,134.16666666666669)" d="M0,0" fill="#96769b" stroke-width="3" opacity="1"></path><path aria-label="Month: Feb; Northeast grey: 40; female: copy" role="graphics-symbol" aria-roledescription="point" transform="translate(165.5625,166.66666666666669)" d="M0,0" fill="#96769b" stroke-width="3" opacity="1"></path><path aria-label="Month: Mar; Northeast grey: 87; female: copy" role="graphics-symbol" aria-roledescription="point" transform="translate(275.9375,127.49999999999999)" d="M0,0" fill="#96769b" stroke-width="3" opacity="1"></path><path aria-label="Month: Apr; Northeast grey: 28; female: copy" role="graphics-symbol" aria-roledescription="point" transform="translate(386.3125,176.66666666666666)" d="M0,0" fill="#96769b" stroke-width="3" opacity="1"></path><path aria-label="Month: May; Northeast grey: 93; female: copy" role="graphics-symbol" aria-roledescription="point" transform="translate(496.6875,122.50000000000001)" d="M0,0" fill="#96769b" stroke-width="3" opacity="1"></path><path aria-label="Month: June; Northeast grey: 19; female: copy" role="graphics-symbol" aria-roledescription="point" transform="translate(607.0625,184.16666666666669)" d="M0,0" fill="#96769b" stroke-width="3" opacity="1"></path><path aria-label="Month: July; Northeast grey: 158; female: copy" role="graphics-symbol" aria-roledescription="point" transform="translate(717.4375,68.33333333333333)" d="M0,0" fill="#96769b" stroke-width="3" opacity="1"></path><path aria-label="Month: Aug; Northeast grey: 70; female: copy" role="graphics-symbol" aria-roledescription="point" transform="translate(827.8125,141.66666666666666)" d="M0,0" fill="#96769b" stroke-width="3" opacity="1"></path><path aria-label="Month: Jan; Northeast grey: 164; female: tesla pole" role="graphics-symbol" aria-roledescription="point" transform="translate(55.1875,63.33333333333333)" d="M0,0" fill="#0f4fb8" stroke-width="3" opacity="1"></path><path aria-label="Month: Feb; Northeast grey: 225; female: tesla pole" role="graphics-symbol" aria-roledescription="point" transform="translate(165.5625,12.5)" d="M0,0" fill="#0f4fb8" stroke-width="3" opacity="1"></path><path aria-label="Month: Mar; Northeast grey: 195; female: tesla pole" role="graphics-symbol" aria-roledescription="point" transform="translate(275.9375,37.5)" d="M0,0" fill="#0f4fb8" stroke-width="3" opacity="1"></path><path aria-label="Month: Apr; Northeast grey: 77; female: tesla pole" role="graphics-symbol" aria-roledescription="point" transform="translate(386.3125,135.83333333333334)" d="M0,0" fill="#0f4fb8" stroke-width="3" opacity="1"></path><path aria-label="Month: May; Northeast grey: 26; female: tesla pole" role="graphics-symbol" aria-roledescription="point" transform="translate(496.6875,178.33333333333331)" d="M0,0" fill="#0f4fb8" stroke-width="3" opacity="1"></path><path aria-label="Month: June; Northeast grey: 143; female: tesla pole" role="graphics-symbol" aria-roledescription="point" transform="translate(607.0625,80.83333333333333)" d="M0,0" fill="#0f4fb8" stroke-width="3" opacity="1"></path><path aria-label="Month: July; Northeast grey: 178; female: tesla pole" role="graphics-symbol" aria-roledescription="point" transform="translate(717.4375,51.66666666666666)" d="M0,0" fill="#0f4fb8" stroke-width="3" opacity="1"></path><path aria-label="Month: Aug; Northeast grey: 67; female: tesla pole" role="graphics-symbol" aria-roledescription="point" transform="translate(827.8125,144.16666666666666)" d="M0,0" fill="#0f4fb8" stroke-width="3" opacity="1"></path></g><g class="mark-group role-legend" role="graphics-symbol" aria-roledescription="legend" aria-label="Symbol legend for fill color and stroke color with 2 values: copy, tesla pole"><g transform="translate(0,238)"><path class="background" aria-hidden="true" d="M0,0h102v13h-102Z" pointer-events="none"></path><g><g class="mark-group role-legend-entry"><g transform="translate(0,0)"><path class="background" aria-hidden="true" d="M0,0h0v0h0Z" pointer-events="none"></path><g><g class="mark-group role-scope" role="graphics-object" aria-roledescription="group mark container"><g transform="translate(0,0.25)"><path class="background" aria-hidden="true" d="M0,0h35.4384765625v12.5h-35.4384765625Z" pointer-events="none" opacity="1"></path><g><g class="mark-symbol role-legend-symbol" pointer-events="none"><path transform="translate(6,6)" d="M5,0A5,5,0,1,1,-5,0A5,5,0,1,1,5,0" fill="#96769b" stroke="#96769b" stroke-width="1.5" opacity="1"></path></g><g class="mark-text role-legend-label" pointer-events="none"><text text-anchor="start" transform="translate(16,9)" font-family="avenir" font-size="10px" fill="#fff" opacity="1">copy</text></g></g><path class="foreground" aria-hidden="true" d="" pointer-events="none" display="none"></path></g><g transform="translate(47,0.25)"><path class="background" aria-hidden="true" d="M0,0h54.0419921875v12.5h-54.0419921875Z" pointer-events="none" opacity="1"></path><g><g class="mark-symbol role-legend-symbol" pointer-events="none"><path transform="translate(6,6)" d="M5,0A5,5,0,1,1,-5,0A5,5,0,1,1,5,0" fill="#0f4fb8" stroke="#0f4fb8" stroke-width="1.5" opacity="1"></path></g><g class="mark-text role-legend-label" pointer-events="none"><text text-anchor="start" transform="translate(16,9)" font-family="avenir" font-size="10px" fill="#fff" opacity="1">tesla pole</text></g></g><path class="foreground" aria-hidden="true" d="" pointer-events="none" display="none"></path></g></g></g><path class="foreground" aria-hidden="true" d="" pointer-events="none" display="none"></path></g></g></g><path class="foreground" aria-hidden="true" d="" pointer-events="none" display="none"></path></g></g><g class="mark-group role-title"><g transform="translate(441.5,-29)"><path class="background" aria-hidden="true" d="M0,0h0v0h0Z" pointer-events="none"></path><g><g class="mark-text role-title-text" role="graphics-symbol" aria-roledescription="title" aria-label="Title text 'West truly Auto'" pointer-events="none"><text text-anchor="middle" transform="translate(0,20)" font-family="avenir" font-size="25px" font-weight="bold" fill="#fff" opacity="1">West truly Auto</text></g></g><path class="foreground" aria-hidden="true" d="" pointer-events="none" display="none"></path></g></g></g><path class="foreground" aria-hidden="true" d="" display="none"></path></g></g></g></svg>