<svg xmlns="http://www.w3.org/2000/svg" xmlns:xlink="http://www.w3.org/1999/xlink" version="1.1" class="marks" width="837" height="284" viewBox="0 0 837 284" style="background-color: rgb(255, 255, 255);"><g fill="none" stroke-miterlimit="10" transform="translate(127,39)"><g class="mark-group role-frame root" role="graphics-object" aria-roledescription="group mark container"><g transform="translate(0,0)"><path class="background" aria-hidden="true" d="M0.5,0.5h705v200h-705Z" fill="transparent" stroke="#ddd"></path><g><g class="mark-group role-axis" aria-hidden="true"><g transform="translate(0.5,200.5)"><path class="background" aria-hidden="true" d="M0,0h0v0h0Z" pointer-events="none"></path><g><g class="mark-rule role-axis-grid" pointer-events="none"><line transform="translate(71,-200)" x2="0" y2="200" stroke="#D0D0D0" stroke-width="1" stroke-dasharray="6, 3" opacity="1"></line><line transform="translate(212,-200)" x2="0" y2="200" stroke="#D0D0D0" stroke-width="1" stroke-dasharray="6, 3" opacity="1"></line><line transform="translate(353,-200)" x2="0" y2="200" stroke="#D0D0D0" stroke-width="1" stroke-dasharray="6, 3" opacity="1"></line><line transform="translate(494,-200)" x2="0" y2="200" stroke="#D0D0D0" stroke-width="1" stroke-dasharray="6, 3" opacity="1"></line><line transform="translate(635,-200)" x2="0" y2="200" stroke="#D0D0D0" stroke-width="1" stroke-dasharray="6, 3" opacity="1"></line></g></g><path class="foreground" aria-hidden="true" d="" pointer-events="none" display="none"></path></g></g><g class="mark-group role-axis" role="graphics-symbol" aria-roledescription="axis" aria-label="X-axis for a discrete scale with 5 values: Jan, Feb, Mar, Apr, May"><g transform="translate(0.5,200.5)"><path class="background" aria-hidden="true" d="M0,0h0v0h0Z" pointer-events="none"></path><g><g class="mark-rule role-axis-tick" pointer-events="none"><line transform="translate(71,0)" x2="0" y2="5" stroke="#888" stroke-width="1" opacity="1"></line><line transform="translate(212,0)" x2="0" y2="5" stroke="#888" stroke-width="1" opacity="1"></line><line transform="translate(353,0)" x2="0" y2="5" stroke="#888" stroke-width="1" opacity="1"></line><line transform="translate(494,0)" x2="0" y2="5" stroke="#888" stroke-width="1" opacity="1"></line><line transform="translate(635,0)" x2="0" y2="5" stroke="#888" stroke-width="1" opacity="1"></line></g><g class="mark-text role-axis-label" pointer-events="none"><text text-anchor="start" transform="translate(70.5,7) rotate(90) translate(0,5)" font-family="avenir" font-size="18px" font-weight="normal" fill="#000" opacity="1">Jan</text><text text-anchor="start" transform="translate(211.5,7) rotate(90) translate(0,5)" font-family="avenir" font-size="18px" font-weight="normal" fill="#000" opacity="1">Feb</text><text text-anchor="start" transform="translate(352.5,7) rotate(90) translate(0,5)" font-family="avenir" font-size="18px" font-weight="normal" fill="#000" opacity="1">Mar</text><text text-anchor="start" transform="translate(493.5,7) rotate(90) translate(0,5)" font-family="avenir" font-size="18px" font-weight="normal" fill="#000" opacity="1">Apr</text><text text-anchor="start" transform="translate(634.5,7) rotate(90) translate(0,5)" font-family="avenir" font-size="18px" font-weight="normal" fill="#000" opacity="1">May</text></g><g class="mark-rule role-axis-domain" pointer-events="none"><line transform="translate(0,0)" x2="705" y2="0" stroke="#888" stroke-width="1" opacity="1"></line></g></g><path class="foreground" aria-hidden="true" d="" pointer-events="none" display="none"></path></g></g><g class="mark-group role-axis" role="graphics-symbol" aria-roledescription="axis" aria-label="Y-axis for a linear scale with values from 0 to 45"><g transform="translate(0.5,0.5)"><path class="background" aria-hidden="true" d="M0,0h0v0h0Z" pointer-events="none"></path><g><g class="mark-rule role-axis-tick" pointer-events="none"><line transform="translate(0,200)" x2="-5" y2="0" stroke="#888" stroke-width="1" opacity="1"></line><line transform="translate(0,156)" x2="-5" y2="0" stroke="#888" stroke-width="1" opacity="1"></line><line transform="translate(0,111)" x2="-5" y2="0" stroke="#888" stroke-width="1" opacity="1"></line><line transform="translate(0,67)" x2="-5" y2="0" stroke="#888" stroke-width="1" opacity="1"></line><line transform="translate(0,22)" x2="-5" y2="0" stroke="#888" stroke-width="1" opacity="1"></line></g><g class="mark-text role-axis-label" pointer-events="none"><text text-anchor="middle" transform="translate(-7,200) rotate(90) translate(0,14)" font-family="avenir" font-size="18px" font-weight="normal" fill="#000" opacity="1">0</text><text text-anchor="middle" transform="translate(-7,155.55555555555557) rotate(90) translate(0,14)" font-family="avenir" font-size="18px" font-weight="normal" fill="#000" opacity="1">10</text><text text-anchor="middle" transform="translate(-7,111.11111111111111) rotate(90) translate(0,14)" font-family="avenir" font-size="18px" font-weight="normal" fill="#000" opacity="1">20</text><text text-anchor="middle" transform="translate(-7,66.66666666666667) rotate(90) translate(0,14)" font-family="avenir" font-size="18px" font-weight="normal" fill="#000" opacity="1">30</text><text text-anchor="middle" transform="translate(-7,22.222222222222232) rotate(90) translate(0,14)" font-family="avenir" font-size="18px" font-weight="normal" fill="#000" opacity="1">40</text></g></g><path class="foreground" aria-hidden="true" d="" pointer-events="none" display="none"></path></g></g><g class="mark-group role-scope layer_0_pathgroup" role="graphics-object" aria-roledescription="group mark container"><g transform="translate(0,0)"><path class="background" aria-hidden="true" d="M0,0h705v200h-705Z"></path><g><g class="mark-line role-mark layer_0_marks" role="graphics-object" aria-roledescription="line mark container"><path aria-label="Month: Jan; hardware Directives: 45; and: server pfft Faso" role="graphics-symbol" aria-roledescription="line mark" d="M70.5,0C117.5,61.87830687830687,164.5,123.75661375661375,211.5,155.55555555555557C258.5,187.3544973544974,305.5,189.07407407407408,352.5,177.77777777777777C399.5,166.48148148148147,446.5,142.16931216931215,493.5,128.88888888888889C540.5,115.60846560846561,587.5,113.35978835978835,634.5,111.11111111111111" stroke="#3c0b6f" stroke-width="2" stroke-dasharray="1,0"></path></g></g><path class="foreground" aria-hidden="true" d="" display="none"></path></g><g transform="translate(0,0)"><path class="background" aria-hidden="true" d="M0,0h705v200h-705Z"></path><g><g class="mark-line role-mark layer_0_marks" role="graphics-object" aria-roledescription="line mark container"><path aria-label="Month: Jan; hardware Directives: 13; and: database up" role="graphics-symbol" aria-roledescription="line mark" d="M70.5,142.22222222222223C117.5,162.9365079365079,164.5,183.65079365079364,211.5,195.55555555555554C258.5,207.46031746031744,305.5,210.55555555555554,352.5,191.11111111111111C399.5,171.66666666666669,446.5,129.6825396825397,493.5,97.77777777777779C540.5,65.87301587301589,587.5,44.04761904761906,634.5,22.222222222222232" stroke="#96be3f" stroke-width="2" stroke-dasharray="1,0"></path></g></g><path class="foreground" aria-hidden="true" d="" display="none"></path></g></g><g class="mark-symbol role-mark layer_1_marks" role="graphics-object" aria-roledescription="symbol mark container"><path aria-label="Month: Jan; hardware Directives: 45; and: server pfft Faso" role="graphics-symbol" aria-roledescription="point" transform="translate(70.5,0)" d="M2.7386127875258306,0A2.7386127875258306,2.7386127875258306,0,1,1,-2.7386127875258306,0A2.7386127875258306,2.7386127875258306,0,1,1,2.7386127875258306,0" fill="#fff" stroke="#3c0b6f" stroke-width="2" opacity="1"></path><path aria-label="Month: Feb; hardware Directives: 10; and: server pfft Faso" role="graphics-symbol" aria-roledescription="point" transform="translate(211.5,155.55555555555557)" d="M2.7386127875258306,0A2.7386127875258306,2.7386127875258306,0,1,1,-2.7386127875258306,0A2.7386127875258306,2.7386127875258306,0,1,1,2.7386127875258306,0" fill="#fff" stroke="#3c0b6f" stroke-width="2" opacity="1"></path><path aria-label="Month: Mar; hardware Directives: 5; and: server pfft Faso" role="graphics-symbol" aria-roledescription="point" transform="translate(352.5,177.77777777777777)" d="M2.7386127875258306,0A2.7386127875258306,2.7386127875258306,0,1,1,-2.7386127875258306,0A2.7386127875258306,2.7386127875258306,0,1,1,2.7386127875258306,0" fill="#fff" stroke="#3c0b6f" stroke-width="2" opacity="1"></path><path aria-label="Month: Apr; hardware Directives: 16; and: server pfft Faso" role="graphics-symbol" aria-roledescription="point" transform="translate(493.5,128.88888888888889)" d="M2.7386127875258306,0A2.7386127875258306,2.7386127875258306,0,1,1,-2.7386127875258306,0A2.7386127875258306,2.7386127875258306,0,1,1,2.7386127875258306,0" fill="#fff" stroke="#3c0b6f" stroke-width="2" opacity="1"></path><path aria-label="Month: May; hardware Directives: 20; and: server pfft Faso" role="graphics-symbol" aria-roledescription="point" transform="translate(634.5,111.11111111111111)" d="M2.7386127875258306,0A2.7386127875258306,2.7386127875258306,0,1,1,-2.7386127875258306,0A2.7386127875258306,2.7386127875258306,0,1,1,2.7386127875258306,0" fill="#fff" stroke="#3c0b6f" stroke-width="2" opacity="1"></path><path aria-label="Month: Jan; hardware Directives: 13; and: database up" role="graphics-symbol" aria-roledescription="point" transform="translate(70.5,142.22222222222223)" d="M2.7386127875258306,0A2.7386127875258306,2.7386127875258306,0,1,1,-2.7386127875258306,0A2.7386127875258306,2.7386127875258306,0,1,1,2.7386127875258306,0" fill="#fff" stroke="#96be3f" stroke-width="2" opacity="1"></path><path aria-label="Month: Feb; hardware Directives: 1; and: database up" role="graphics-symbol" aria-roledescription="point" transform="translate(211.5,195.55555555555554)" d="M2.7386127875258306,0A2.7386127875258306,2.7386127875258306,0,1,1,-2.7386127875258306,0A2.7386127875258306,2.7386127875258306,0,1,1,2.7386127875258306,0" fill="#fff" stroke="#96be3f" stroke-width="2" opacity="1"></path><path aria-label="Month: Mar; hardware Directives: 2; and: database up" role="graphics-symbol" aria-roledescription="point" transform="translate(352.5,191.11111111111111)" d="M2.7386127875258306,0A2.7386127875258306,2.7386127875258306,0,1,1,-2.7386127875258306,0A2.7386127875258306,2.7386127875258306,0,1,1,2.7386127875258306,0" fill="#fff" stroke="#96be3f" stroke-width="2" opacity="1"></path><path aria-label="Month: Apr; hardware Directives: 23; and: database up" role="graphics-symbol" aria-roledescription="point" transform="translate(493.5,97.77777777777779)" d="M2.7386127875258306,0A2.7386127875258306,2.7386127875258306,0,1,1,-2.7386127875258306,0A2.7386127875258306,2.7386127875258306,0,1,1,2.7386127875258306,0" fill="#fff" stroke="#96be3f" stroke-width="2" opacity="1"></path><path aria-label="Month: May; hardware Directives: 40; and: database up" role="graphics-symbol" aria-roledescription="point" transform="translate(634.5,22.222222222222232)" d="M2.7386127875258306,0A2.7386127875258306,2.7386127875258306,0,1,1,-2.7386127875258306,0A2.7386127875258306,2.7386127875258306,0,1,1,2.7386127875258306,0" fill="#fff" stroke="#96be3f" stroke-width="2" opacity="1"></path></g><g class="mark-group role-legend" role="graphics-symbol" aria-roledescription="legend" aria-label="Symbol legend for stroke color with 2 values: server pfft Faso, database up"><g transform="translate(-122,0)"><path class="background" aria-hidden="true" d="M0,0h79v29h-79Z" pointer-events="none"></path><g><g class="mark-group role-legend-entry"><g transform="translate(0,0)"><path class="background" aria-hidden="true" d="M0,0h0v0h0Z" pointer-events="none"></path><g><g class="mark-group role-scope" role="graphics-object" aria-roledescription="group mark container"><g transform="translate(0,0)"><path class="background" aria-hidden="true" d="M0,0h78.578125v12.5h-78.578125Z" pointer-events="none" opacity="1"></path><g><g class="mark-symbol role-legend-symbol" pointer-events="none"><path transform="translate(6,6)" d="M5,0A5,5,0,1,1,-5,0A5,5,0,1,1,5,0" fill="#fff" stroke="#3c0b6f" stroke-width="1.5" opacity="1"></path></g><g class="mark-text role-legend-label" pointer-events="none"><text text-anchor="start" transform="translate(16,9)" font-family="avenir" font-size="10px" fill="#000" opacity="1">server pfft Faso</text></g></g><path class="foreground" aria-hidden="true" d="" pointer-events="none" display="none"></path></g><g transform="translate(0,16)"><path class="background" aria-hidden="true" d="M0,0h78.578125v12.5h-78.578125Z" pointer-events="none" opacity="1"></path><g><g class="mark-symbol role-legend-symbol" pointer-events="none"><path transform="translate(6,6)" d="M5,0A5,5,0,1,1,-5,0A5,5,0,1,1,5,0" fill="#fff" stroke="#96be3f" stroke-width="1.5" opacity="1"></path></g><g class="mark-text role-legend-label" pointer-events="none"><text text-anchor="start" transform="translate(16,9)" font-family="avenir" font-size="10px" fill="#000" opacity="1">database up</text></g></g><path class="foreground" aria-hidden="true" d="" pointer-events="none" display="none"></path></g></g></g><path class="foreground" aria-hidden="true" d="" pointer-events="none" display="none"></path></g></g></g><path class="foreground" aria-hidden="true" d="" pointer-events="none" display="none"></path></g></g><g class="mark-group role-title"><g transform="translate(705,-33.73861278752583)"><path class="background" aria-hidden="true" d="M0,0h0v0h0Z" pointer-events="none"></path><g><g class="mark-text role-title-text" role="graphics-symbol" aria-roledescription="title" aria-label="Title text 'animi Country blow'" pointer-events="none"><text text-anchor="end" transform="translate(0,20)" font-family="avenir" font-size="25px" font-weight="bold" fill="#000" opacity="1">animi Country blow</text></g></g><path class="foreground" aria-hidden="true" d="" pointer-events="none" display="none"></path></g></g></g><path class="foreground" aria-hidden="true" d="" display="none"></path></g></g></g></svg>