<svg xmlns="http://www.w3.org/2000/svg" xmlns:xlink="http://www.w3.org/1999/xlink" version="1.1" class="marks" width="755" height="266" viewBox="0 0 755 266" style="background-color: rgb(51, 51, 51);"><g fill="none" stroke-miterlimit="10" transform="translate(36,35)"><g class="mark-group role-frame root" role="graphics-object" aria-roledescription="group mark container"><g transform="translate(0,0)"><path class="background" aria-hidden="true" d="M0.5,0.5h714v200h-714Z" fill="transparent" stroke="#ddd"></path><g><g class="mark-group role-axis" aria-hidden="true"><g transform="translate(0.5,0.5)"><path class="background" aria-hidden="true" d="M0,0h0v0h0Z" pointer-events="none"></path><g><g class="mark-rule role-axis-grid" pointer-events="none"><line transform="translate(0,200)" x2="714" y2="0" stroke="#747474" stroke-width="1" stroke-dasharray="1,0" opacity="1"></line><line transform="translate(0,156)" x2="714" y2="0" stroke="#747474" stroke-width="1" stroke-dasharray="1,0" opacity="1"></line><line transform="translate(0,111)" x2="714" y2="0" stroke="#747474" stroke-width="1" stroke-dasharray="1,0" opacity="1"></line><line transform="translate(0,67)" x2="714" y2="0" stroke="#747474" stroke-width="1" stroke-dasharray="1,0" opacity="1"></line><line transform="translate(0,22)" x2="714" y2="0" stroke="#747474" stroke-width="1" stroke-dasharray="1,0" opacity="1"></line></g></g><path class="foreground" aria-hidden="true" d="" pointer-events="none" display="none"></path></g></g><g class="mark-group role-axis" role="graphics-symbol" aria-roledescription="axis" aria-label="X-axis for a discrete scale with 9 values: 1740, 1741, 1742, 1743, 1744, ending with 1748"><g transform="translate(0.5,200.5)"><path class="background" aria-hidden="true" d="M0,0h0v0h0Z" pointer-events="none"></path><g><g class="mark-rule role-axis-tick" pointer-events="none"><line transform="translate(40,0)" x2="0" y2="5" stroke="#888" stroke-width="1" opacity="1"></line><line transform="translate(119,0)" x2="0" y2="5" stroke="#888" stroke-width="1" opacity="1"></line><line transform="translate(198,0)" x2="0" y2="5" stroke="#888" stroke-width="1" opacity="1"></line><line transform="translate(278,0)" x2="0" y2="5" stroke="#888" stroke-width="1" opacity="1"></line><line transform="translate(357,0)" x2="0" y2="5" stroke="#888" stroke-width="1" opacity="1"></line><line transform="translate(436,0)" x2="0" y2="5" stroke="#888" stroke-width="1" opacity="1"></line><line transform="translate(516,0)" x2="0" y2="5" stroke="#888" stroke-width="1" opacity="1"></line><line transform="translate(595,0)" x2="0" y2="5" stroke="#888" stroke-width="1" opacity="1"></line><line transform="translate(674,0)" x2="0" y2="5" stroke="#888" stroke-width="1" opacity="1"></line></g><g class="mark-text role-axis-label" pointer-events="none"><text text-anchor="middle" transform="translate(39.666666666666686,22)" font-family="serif" font-size="19px" font-weight="normal" fill="#fff" opacity="1">1740</text><text text-anchor="middle" transform="translate(119.00000000000001,22)" font-family="serif" font-size="19px" font-weight="normal" fill="#fff" opacity="1">1741</text><text text-anchor="middle" transform="translate(198.33333333333334,22)" font-family="serif" font-size="19px" font-weight="normal" fill="#fff" opacity="1">1742</text><text text-anchor="middle" transform="translate(277.6666666666667,22)" font-family="serif" font-size="19px" font-weight="normal" fill="#fff" opacity="1">1743</text><text text-anchor="middle" transform="translate(357,22)" font-family="serif" font-size="19px" font-weight="normal" fill="#fff" opacity="1">1744</text><text text-anchor="middle" transform="translate(436.3333333333333,22)" font-family="serif" font-size="19px" font-weight="normal" fill="#fff" opacity="1">1745</text><text text-anchor="middle" transform="translate(515.6666666666667,22)" font-family="serif" font-size="19px" font-weight="normal" fill="#fff" opacity="1">1746</text><text text-anchor="middle" transform="translate(595,22)" font-family="serif" font-size="19px" font-weight="normal" fill="#fff" opacity="1">1747</text><text text-anchor="middle" transform="translate(674.3333333333333,22)" font-family="serif" font-size="19px" font-weight="normal" fill="#fff" opacity="1">1748</text></g><g class="mark-rule role-axis-domain" pointer-events="none"><line transform="translate(0,0)" x2="714" y2="0" stroke="#888" stroke-width="1" opacity="1"></line></g></g><path class="foreground" aria-hidden="true" d="" pointer-events="none" display="none"></path></g></g><g class="mark-group role-axis" role="graphics-symbol" aria-roledescription="axis" aria-label="Y-axis for a linear scale with values from 0 to 450"><g transform="translate(0.5,0.5)"><path class="background" aria-hidden="true" d="M0,0h0v0h0Z" pointer-events="none"></path><g><g class="mark-text role-axis-label" pointer-events="none"><text text-anchor="end" transform="translate(-2,206)" font-family="serif" font-size="19px" font-weight="normal" fill="#fff" opacity="1">0</text><text text-anchor="end" transform="translate(-2,161.55555555555557)" font-family="serif" font-size="19px" font-weight="normal" fill="#fff" opacity="1">100</text><text text-anchor="end" transform="translate(-2,117.11111111111111)" font-family="serif" font-size="19px" font-weight="normal" fill="#fff" opacity="1">200</text><text text-anchor="end" transform="translate(-2,72.66666666666667)" font-family="serif" font-size="19px" font-weight="normal" fill="#fff" opacity="1">300</text><text text-anchor="end" transform="translate(-2,28.222222222222232)" font-family="serif" font-size="19px" font-weight="normal" fill="#fff" opacity="1">400</text></g></g><path class="foreground" aria-hidden="true" d="" pointer-events="none" display="none"></path></g></g><g class="mark-group role-scope layer_0_pathgroup" role="graphics-object" aria-roledescription="group mark container"><g transform="translate(0,0)"><path class="background" aria-hidden="true" d="M0,0h714v200h-714Z"></path><g><g class="mark-line role-mark layer_0_marks" role="graphics-object" aria-roledescription="line mark container"><path aria-label="Year: 1740; foreground Franc neural: 318; Hybrid: indeed" role="graphics-symbol" aria-roledescription="line mark" d="M39.666666666666686,58.666666666666664C66.11111111111114,38.216931216931215,92.55555555555557,17.767195767195773,119.00000000000001,50.66666666666666C145.44444444444446,83.56613756613754,171.8888888888889,169.81481481481478,198.33333333333334,195.55555555555554C224.77777777777777,221.2962962962963,251.22222222222223,186.52910052910053,277.6666666666667,145.33333333333334C304.11111111111114,104.13756613756615,330.55555555555566,56.51322751322753,357,35.111111111111114C383.44444444444434,13.708994708994702,409.8888888888888,18.529100529100518,436.3333333333333,12.444444444444436C462.7777777777778,6.359788359788355,489.2222222222223,-10.629629629629633,515.6666666666667,14.222222222222225C542.1111111111112,39.07407407407408,568.5555555555557,105.7671957671958,595,138.22222222222223C621.4444444444443,170.67724867724866,647.8888888888888,168.8941798941799,674.3333333333333,167.11111111111111" stroke="#cf42ce" stroke-width="2" stroke-dasharray="1,0"></path></g></g><path class="foreground" aria-hidden="true" d="" display="none"></path></g></g><g class="mark-symbol role-mark layer_1_marks" role="graphics-object" aria-roledescription="symbol mark container"><path aria-label="Year: 1740; foreground Franc neural: 318; Hybrid: indeed" role="graphics-symbol" aria-roledescription="point" transform="translate(39.666666666666686,58.666666666666664)" d="M2.7386127875258306,0A2.7386127875258306,2.7386127875258306,0,1,1,-2.7386127875258306,0A2.7386127875258306,2.7386127875258306,0,1,1,2.7386127875258306,0" fill="#333333" stroke="#cf42ce" stroke-width="2" opacity="1"></path><path aria-label="Year: 1741; foreground Franc neural: 336; Hybrid: indeed" role="graphics-symbol" aria-roledescription="point" transform="translate(119.00000000000001,50.66666666666666)" d="M2.7386127875258306,0A2.7386127875258306,2.7386127875258306,0,1,1,-2.7386127875258306,0A2.7386127875258306,2.7386127875258306,0,1,1,2.7386127875258306,0" fill="#333333" stroke="#cf42ce" stroke-width="2" opacity="1"></path><path aria-label="Year: 1742; foreground Franc neural: 10; Hybrid: indeed" role="graphics-symbol" aria-roledescription="point" transform="translate(198.33333333333334,195.55555555555554)" d="M2.7386127875258306,0A2.7386127875258306,2.7386127875258306,0,1,1,-2.7386127875258306,0A2.7386127875258306,2.7386127875258306,0,1,1,2.7386127875258306,0" fill="#333333" stroke="#cf42ce" stroke-width="2" opacity="1"></path><path aria-label="Year: 1743; foreground Franc neural: 123; Hybrid: indeed" role="graphics-symbol" aria-roledescription="point" transform="translate(277.6666666666667,145.33333333333334)" d="M2.7386127875258306,0A2.7386127875258306,2.7386127875258306,0,1,1,-2.7386127875258306,0A2.7386127875258306,2.7386127875258306,0,1,1,2.7386127875258306,0" fill="#333333" stroke="#cf42ce" stroke-width="2" opacity="1"></path><path aria-label="Year: 1744; foreground Franc neural: 371; Hybrid: indeed" role="graphics-symbol" aria-roledescription="point" transform="translate(357,35.111111111111114)" d="M2.7386127875258306,0A2.7386127875258306,2.7386127875258306,0,1,1,-2.7386127875258306,0A2.7386127875258306,2.7386127875258306,0,1,1,2.7386127875258306,0" fill="#333333" stroke="#cf42ce" stroke-width="2" opacity="1"></path><path aria-label="Year: 1745; foreground Franc neural: 422; Hybrid: indeed" role="graphics-symbol" aria-roledescription="point" transform="translate(436.3333333333333,12.444444444444436)" d="M2.7386127875258306,0A2.7386127875258306,2.7386127875258306,0,1,1,-2.7386127875258306,0A2.7386127875258306,2.7386127875258306,0,1,1,2.7386127875258306,0" fill="#333333" stroke="#cf42ce" stroke-width="2" opacity="1"></path><path aria-label="Year: 1746; foreground Franc neural: 418; Hybrid: indeed" role="graphics-symbol" aria-roledescription="point" transform="translate(515.6666666666667,14.222222222222225)" d="M2.7386127875258306,0A2.7386127875258306,2.7386127875258306,0,1,1,-2.7386127875258306,0A2.7386127875258306,2.7386127875258306,0,1,1,2.7386127875258306,0" fill="#333333" stroke="#cf42ce" stroke-width="2" opacity="1"></path><path aria-label="Year: 1747; foreground Franc neural: 139; Hybrid: indeed" role="graphics-symbol" aria-roledescription="point" transform="translate(595,138.22222222222223)" d="M2.7386127875258306,0A2.7386127875258306,2.7386127875258306,0,1,1,-2.7386127875258306,0A2.7386127875258306,2.7386127875258306,0,1,1,2.7386127875258306,0" fill="#333333" stroke="#cf42ce" stroke-width="2" opacity="1"></path><path aria-label="Year: 1748; foreground Franc neural: 74; Hybrid: indeed" role="graphics-symbol" aria-roledescription="point" transform="translate(674.3333333333333,167.11111111111111)" d="M2.7386127875258306,0A2.7386127875258306,2.7386127875258306,0,1,1,-2.7386127875258306,0A2.7386127875258306,2.7386127875258306,0,1,1,2.7386127875258306,0" fill="#333333" stroke="#cf42ce" stroke-width="2" opacity="1"></path></g><g class="mark-group role-title"><g transform="translate(714,-29.893127126392066)"><path class="background" aria-hidden="true" d="M0,0h0v0h0Z" pointer-events="none"></path><g><g class="mark-text role-title-text" role="graphics-symbol" aria-roledescription="title" aria-label="Title text 'Switchable chorus Diesel'" pointer-events="none"><text text-anchor="end" transform="translate(0,20)" font-family="serif" font-size="25px" font-weight="bold" fill="#fff" opacity="1">Switchable chorus Diesel</text></g></g><path class="foreground" aria-hidden="true" d="" pointer-events="none" display="none"></path></g></g></g><path class="foreground" aria-hidden="true" d="" display="none"></path></g></g></g></svg>