<svg xmlns="http://www.w3.org/2000/svg" xmlns:xlink="http://www.w3.org/1999/xlink" version="1.1" class="marks" width="849" height="281" viewBox="0 0 849 281" style="background-color: rgb(51, 51, 51);"><g fill="none" stroke-miterlimit="10" transform="translate(182,47)"><g class="mark-group role-frame root" role="graphics-object" aria-roledescription="group mark container"><g transform="translate(0,0)"><path class="background" aria-hidden="true" d="M0.5,0.5h662v200h-662Z" fill="transparent" stroke="#ddd"></path><g><g class="mark-group role-axis" role="graphics-symbol" aria-roledescription="axis" aria-label="X-axis for a discrete scale with 10 values: 1868, 1870, 1872, 1874, 1876, ending with 1886"><g transform="translate(0.5,200.5)"><path class="background" aria-hidden="true" d="M0,0h0v0h0Z" pointer-events="none"></path><g><g class="mark-rule role-axis-tick" pointer-events="none"><line transform="translate(33,0)" x2="0" y2="5" stroke="#888" stroke-width="1" opacity="1"></line><line transform="translate(99,0)" x2="0" y2="5" stroke="#888" stroke-width="1" opacity="1"></line><line transform="translate(165,0)" x2="0" y2="5" stroke="#888" stroke-width="1" opacity="1"></line><line transform="translate(232,0)" x2="0" y2="5" stroke="#888" stroke-width="1" opacity="1"></line><line transform="translate(298,0)" x2="0" y2="5" stroke="#888" stroke-width="1" opacity="1"></line><line transform="translate(364,0)" x2="0" y2="5" stroke="#888" stroke-width="1" opacity="1"></line><line transform="translate(430,0)" x2="0" y2="5" stroke="#888" stroke-width="1" opacity="1"></line><line transform="translate(497,0)" x2="0" y2="5" stroke="#888" stroke-width="1" opacity="1"></line><line transform="translate(563,0)" x2="0" y2="5" stroke="#888" stroke-width="1" opacity="1"></line><line transform="translate(629,0)" x2="0" y2="5" stroke="#888" stroke-width="1" opacity="1"></line></g><g class="mark-text role-axis-label" pointer-events="none"><text text-anchor="start" transform="translate(33.099999999999966,7) rotate(90) translate(0,3)" font-family="serif" font-size="11px" font-weight="bold" fill="#fff" opacity="1">1868</text><text text-anchor="start" transform="translate(99.29999999999997,7) rotate(90) translate(0,3)" font-family="serif" font-size="11px" font-weight="bold" fill="#fff" opacity="1">1870</text><text text-anchor="start" transform="translate(165.49999999999997,7) rotate(90) translate(0,3)" font-family="serif" font-size="11px" font-weight="bold" fill="#fff" opacity="1">1872</text><text text-anchor="start" transform="translate(231.7,7) rotate(90) translate(0,3)" font-family="serif" font-size="11px" font-weight="bold" fill="#fff" opacity="1">1874</text><text text-anchor="start" transform="translate(297.9,7) rotate(90) translate(0,3)" font-family="serif" font-size="11px" font-weight="bold" fill="#fff" opacity="1">1876</text><text text-anchor="start" transform="translate(364.09999999999997,7) rotate(90) translate(0,3)" font-family="serif" font-size="11px" font-weight="bold" fill="#fff" opacity="1">1878</text><text text-anchor="start" transform="translate(430.3,7) rotate(90) translate(0,3)" font-family="serif" font-size="11px" font-weight="bold" fill="#fff" opacity="1">1880</text><text text-anchor="start" transform="translate(496.5,7) rotate(90) translate(0,3)" font-family="serif" font-size="11px" font-weight="bold" fill="#fff" opacity="1">1882</text><text text-anchor="start" transform="translate(562.7,7) rotate(90) translate(0,3)" font-family="serif" font-size="11px" font-weight="bold" fill="#fff" opacity="1">1884</text><text text-anchor="start" transform="translate(628.9000000000001,7) rotate(90) translate(0,3)" font-family="serif" font-size="11px" font-weight="bold" fill="#fff" opacity="1">1886</text></g><g class="mark-rule role-axis-domain" pointer-events="none"><line transform="translate(0,0)" x2="662" y2="0" stroke="#888" stroke-width="1" opacity="1"></line></g></g><path class="foreground" aria-hidden="true" d="" pointer-events="none" display="none"></path></g></g><g class="mark-group role-axis" role="graphics-symbol" aria-roledescription="axis" aria-label="Y-axis for a linear scale with values from 0 to 600"><g transform="translate(0.5,0.5)"><path class="background" aria-hidden="true" d="M0,0h0v0h0Z" pointer-events="none"></path><g><g class="mark-rule role-axis-tick" pointer-events="none"><line transform="translate(0,200)" x2="-5" y2="0" stroke="#888" stroke-width="1" opacity="1"></line><line transform="translate(0,167)" x2="-5" y2="0" stroke="#888" stroke-width="1" opacity="1"></line><line transform="translate(0,133)" x2="-5" y2="0" stroke="#888" stroke-width="1" opacity="1"></line><line transform="translate(0,100)" x2="-5" y2="0" stroke="#888" stroke-width="1" opacity="1"></line><line transform="translate(0,67)" x2="-5" y2="0" stroke="#888" stroke-width="1" opacity="1"></line><line transform="translate(0,33)" x2="-5" y2="0" stroke="#888" stroke-width="1" opacity="1"></line><line transform="translate(0,0)" x2="-5" y2="0" stroke="#888" stroke-width="1" opacity="1"></line></g><g class="mark-text role-axis-label" pointer-events="none"><text text-anchor="middle" transform="translate(-7,200) rotate(90) translate(0,9)" font-family="serif" font-size="11px" font-weight="bold" fill="#fff" opacity="1">0</text><text text-anchor="middle" transform="translate(-7,166.66666666666669) rotate(90) translate(0,9)" font-family="serif" font-size="11px" font-weight="bold" fill="#fff" opacity="1">100</text><text text-anchor="middle" transform="translate(-7,133.33333333333334) rotate(90) translate(0,9)" font-family="serif" font-size="11px" font-weight="bold" fill="#fff" opacity="1">200</text><text text-anchor="middle" transform="translate(-7,100) rotate(90) translate(0,9)" font-family="serif" font-size="11px" font-weight="bold" fill="#fff" opacity="1">300</text><text text-anchor="middle" transform="translate(-7,66.66666666666667) rotate(90) translate(0,9)" font-family="serif" font-size="11px" font-weight="bold" fill="#fff" opacity="1">400</text><text text-anchor="middle" transform="translate(-7,33.33333333333333) rotate(90) translate(0,9)" font-family="serif" font-size="11px" font-weight="bold" fill="#fff" opacity="1">500</text><text text-anchor="middle" transform="translate(-7,0) rotate(90) translate(0,9)" font-family="serif" font-size="11px" font-weight="bold" fill="#fff" opacity="1">600</text></g></g><path class="foreground" aria-hidden="true" d="" pointer-events="none" display="none"></path></g></g><g class="mark-group role-scope layer_0_pathgroup" role="graphics-object" aria-roledescription="group mark container"><g transform="translate(0,0)"><path class="background" aria-hidden="true" d="M0,0h662v200h-662Z"></path><g><g class="mark-line role-mark layer_0_marks" role="graphics-object" aria-roledescription="line mark container"><path aria-label="Year: 1868; Accounts Sincere neural: 577; District: Assistant program Lithium" role="graphics-symbol" aria-roledescription="line mark" d="M33.099999999999966,7.666666666666666C55.16666666666662,-8.105685041312125,77.23333333333328,-23.878036749290914,99.29999999999997,7.000000000000006C121.36666666666666,37.87803674929093,143.4333333333333,115.40646195585157,165.49999999999997,121.66666666666669C187.56666666666663,127.9268713774818,209.63333333333333,62.91885559255149,231.7,63.33333333333333C253.76666666666665,63.74781107411517,275.83333333333337,129.5847823406092,297.9,126C319.9666666666666,122.41521765939079,342.03333333333325,49.40868171167838,364.09999999999997,18.333333333333336C386.1666666666667,-12.74201504501171,408.2333333333334,-1.8861758539894034,430.3,11.333333333333329C452.3666666666666,24.55284252065606,474.4333333333333,40.136021704279216,496.5,79.33333333333333C518.5666666666667,118.53064496238744,540.6333333333334,181.34208903687258,562.7,174.66666666666666C584.7666666666667,167.99124429646074,606.8333333333334,91.82895548156371,628.9000000000001,15.666666666666673" stroke="#2dcb33" stroke-width="2" stroke-dasharray="8,4"></path></g></g><path class="foreground" aria-hidden="true" d="" display="none"></path></g><g transform="translate(0,0)"><path class="background" aria-hidden="true" d="M0,0h662v200h-662Z"></path><g><g class="mark-line role-mark layer_0_marks" role="graphics-object" aria-roledescription="line mark container"><path aria-label="Year: 1868; Accounts Sincere neural: 152; District: wherever Northwest Electronic" role="graphics-symbol" aria-roledescription="line mark" d="M33.099999999999966,149.33333333333331C55.16666666666662,122.4617640207725,77.23333333333328,95.59019470821171,99.29999999999997,106.99999999999999C121.36666666666666,118.40980529178826,143.4333333333333,168.1009851879256,165.49999999999997,172.66666666666666C187.56666666666663,177.2323481454077,209.63333333333333,136.6725312067524,231.7,118.66666666666666C253.76666666666665,100.66080212658089,275.83333333333337,105.20888998506457,297.9,106.99999999999999C319.9666666666666,108.7911100149354,342.03333333333325,107.82524218632247,364.09999999999997,94C386.1666666666667,80.17475781367753,408.2333333333334,53.490141269645505,430.3,29.33333333333332C452.3666666666666,5.176525397021134,474.4333333333333,-16.452473931571234,496.5,6.666666666666665C518.5666666666667,29.785807264904566,540.6333333333334,97.65308778997273,562.7,107.33333333333333C584.7666666666667,117.01357887669393,606.8333333333334,68.50678943834696,628.9000000000001,19.999999999999996" stroke="#59aa4f" stroke-width="2" stroke-dasharray="8,4"></path></g></g><path class="foreground" aria-hidden="true" d="" display="none"></path></g></g><g class="mark-symbol role-mark layer_1_marks" role="graphics-object" aria-roledescription="symbol mark container"><path aria-label="Year: 1868; Accounts Sincere neural: 577; District: Assistant program Lithium" role="graphics-symbol" aria-roledescription="point" transform="translate(33.099999999999966,7.666666666666666)" d="M2.7386127875258306,0A2.7386127875258306,2.7386127875258306,0,1,1,-2.7386127875258306,0A2.7386127875258306,2.7386127875258306,0,1,1,2.7386127875258306,0" fill="#333333" stroke="#2dcb33" stroke-width="4" opacity="1"></path><path aria-label="Year: 1870; Accounts Sincere neural: 579; District: Assistant program Lithium" role="graphics-symbol" aria-roledescription="point" transform="translate(99.29999999999997,7.000000000000006)" d="M2.7386127875258306,0A2.7386127875258306,2.7386127875258306,0,1,1,-2.7386127875258306,0A2.7386127875258306,2.7386127875258306,0,1,1,2.7386127875258306,0" fill="#333333" stroke="#2dcb33" stroke-width="4" opacity="1"></path><path aria-label="Year: 1872; Accounts Sincere neural: 235; District: Assistant program Lithium" role="graphics-symbol" aria-roledescription="point" transform="translate(165.49999999999997,121.66666666666669)" d="M2.7386127875258306,0A2.7386127875258306,2.7386127875258306,0,1,1,-2.7386127875258306,0A2.7386127875258306,2.7386127875258306,0,1,1,2.7386127875258306,0" fill="#333333" stroke="#2dcb33" stroke-width="4" opacity="1"></path><path aria-label="Year: 1874; Accounts Sincere neural: 410; District: Assistant program Lithium" role="graphics-symbol" aria-roledescription="point" transform="translate(231.7,63.33333333333333)" d="M2.7386127875258306,0A2.7386127875258306,2.7386127875258306,0,1,1,-2.7386127875258306,0A2.7386127875258306,2.7386127875258306,0,1,1,2.7386127875258306,0" fill="#333333" stroke="#2dcb33" stroke-width="4" opacity="1"></path><path aria-label="Year: 1876; Accounts Sincere neural: 222; District: Assistant program Lithium" role="graphics-symbol" aria-roledescription="point" transform="translate(297.9,126)" d="M2.7386127875258306,0A2.7386127875258306,2.7386127875258306,0,1,1,-2.7386127875258306,0A2.7386127875258306,2.7386127875258306,0,1,1,2.7386127875258306,0" fill="#333333" stroke="#2dcb33" stroke-width="4" opacity="1"></path><path aria-label="Year: 1878; Accounts Sincere neural: 545; District: Assistant program Lithium" role="graphics-symbol" aria-roledescription="point" transform="translate(364.09999999999997,18.333333333333336)" d="M2.7386127875258306,0A2.7386127875258306,2.7386127875258306,0,1,1,-2.7386127875258306,0A2.7386127875258306,2.7386127875258306,0,1,1,2.7386127875258306,0" fill="#333333" stroke="#2dcb33" stroke-width="4" opacity="1"></path><path aria-label="Year: 1880; Accounts Sincere neural: 566; District: Assistant program Lithium" role="graphics-symbol" aria-roledescription="point" transform="translate(430.3,11.333333333333329)" d="M2.7386127875258306,0A2.7386127875258306,2.7386127875258306,0,1,1,-2.7386127875258306,0A2.7386127875258306,2.7386127875258306,0,1,1,2.7386127875258306,0" fill="#333333" stroke="#2dcb33" stroke-width="4" opacity="1"></path><path aria-label="Year: 1882; Accounts Sincere neural: 362; District: Assistant program Lithium" role="graphics-symbol" aria-roledescription="point" transform="translate(496.5,79.33333333333333)" d="M2.7386127875258306,0A2.7386127875258306,2.7386127875258306,0,1,1,-2.7386127875258306,0A2.7386127875258306,2.7386127875258306,0,1,1,2.7386127875258306,0" fill="#333333" stroke="#2dcb33" stroke-width="4" opacity="1"></path><path aria-label="Year: 1884; Accounts Sincere neural: 76; District: Assistant program Lithium" role="graphics-symbol" aria-roledescription="point" transform="translate(562.7,174.66666666666666)" d="M2.7386127875258306,0A2.7386127875258306,2.7386127875258306,0,1,1,-2.7386127875258306,0A2.7386127875258306,2.7386127875258306,0,1,1,2.7386127875258306,0" fill="#333333" stroke="#2dcb33" stroke-width="4" opacity="1"></path><path aria-label="Year: 1886; Accounts Sincere neural: 553; District: Assistant program Lithium" role="graphics-symbol" aria-roledescription="point" transform="translate(628.9000000000001,15.666666666666673)" d="M2.7386127875258306,0A2.7386127875258306,2.7386127875258306,0,1,1,-2.7386127875258306,0A2.7386127875258306,2.7386127875258306,0,1,1,2.7386127875258306,0" fill="#333333" stroke="#2dcb33" stroke-width="4" opacity="1"></path><path aria-label="Year: 1868; Accounts Sincere neural: 152; District: wherever Northwest Electronic" role="graphics-symbol" aria-roledescription="point" transform="translate(33.099999999999966,149.33333333333331)" d="M2.7386127875258306,0A2.7386127875258306,2.7386127875258306,0,1,1,-2.7386127875258306,0A2.7386127875258306,2.7386127875258306,0,1,1,2.7386127875258306,0" fill="#333333" stroke="#59aa4f" stroke-width="4" opacity="1"></path><path aria-label="Year: 1870; Accounts Sincere neural: 279; District: wherever Northwest Electronic" role="graphics-symbol" aria-roledescription="point" transform="translate(99.29999999999997,106.99999999999999)" d="M2.7386127875258306,0A2.7386127875258306,2.7386127875258306,0,1,1,-2.7386127875258306,0A2.7386127875258306,2.7386127875258306,0,1,1,2.7386127875258306,0" fill="#333333" stroke="#59aa4f" stroke-width="4" opacity="1"></path><path aria-label="Year: 1872; Accounts Sincere neural: 82; District: wherever Northwest Electronic" role="graphics-symbol" aria-roledescription="point" transform="translate(165.49999999999997,172.66666666666666)" d="M2.7386127875258306,0A2.7386127875258306,2.7386127875258306,0,1,1,-2.7386127875258306,0A2.7386127875258306,2.7386127875258306,0,1,1,2.7386127875258306,0" fill="#333333" stroke="#59aa4f" stroke-width="4" opacity="1"></path><path aria-label="Year: 1874; Accounts Sincere neural: 244; District: wherever Northwest Electronic" role="graphics-symbol" aria-roledescription="point" transform="translate(231.7,118.66666666666666)" d="M2.7386127875258306,0A2.7386127875258306,2.7386127875258306,0,1,1,-2.7386127875258306,0A2.7386127875258306,2.7386127875258306,0,1,1,2.7386127875258306,0" fill="#333333" stroke="#59aa4f" stroke-width="4" opacity="1"></path><path aria-label="Year: 1876; Accounts Sincere neural: 279; District: wherever Northwest Electronic" role="graphics-symbol" aria-roledescription="point" transform="translate(297.9,106.99999999999999)" d="M2.7386127875258306,0A2.7386127875258306,2.7386127875258306,0,1,1,-2.7386127875258306,0A2.7386127875258306,2.7386127875258306,0,1,1,2.7386127875258306,0" fill="#333333" stroke="#59aa4f" stroke-width="4" opacity="1"></path><path aria-label="Year: 1878; Accounts Sincere neural: 318; District: wherever Northwest Electronic" role="graphics-symbol" aria-roledescription="point" transform="translate(364.09999999999997,94)" d="M2.7386127875258306,0A2.7386127875258306,2.7386127875258306,0,1,1,-2.7386127875258306,0A2.7386127875258306,2.7386127875258306,0,1,1,2.7386127875258306,0" fill="#333333" stroke="#59aa4f" stroke-width="4" opacity="1"></path><path aria-label="Year: 1880; Accounts Sincere neural: 512; District: wherever Northwest Electronic" role="graphics-symbol" aria-roledescription="point" transform="translate(430.3,29.33333333333332)" d="M2.7386127875258306,0A2.7386127875258306,2.7386127875258306,0,1,1,-2.7386127875258306,0A2.7386127875258306,2.7386127875258306,0,1,1,2.7386127875258306,0" fill="#333333" stroke="#59aa4f" stroke-width="4" opacity="1"></path><path aria-label="Year: 1882; Accounts Sincere neural: 580; District: wherever Northwest Electronic" role="graphics-symbol" aria-roledescription="point" transform="translate(496.5,6.666666666666665)" d="M2.7386127875258306,0A2.7386127875258306,2.7386127875258306,0,1,1,-2.7386127875258306,0A2.7386127875258306,2.7386127875258306,0,1,1,2.7386127875258306,0" fill="#333333" stroke="#59aa4f" stroke-width="4" opacity="1"></path><path aria-label="Year: 1884; Accounts Sincere neural: 278; District: wherever Northwest Electronic" role="graphics-symbol" aria-roledescription="point" transform="translate(562.7,107.33333333333333)" d="M2.7386127875258306,0A2.7386127875258306,2.7386127875258306,0,1,1,-2.7386127875258306,0A2.7386127875258306,2.7386127875258306,0,1,1,2.7386127875258306,0" fill="#333333" stroke="#59aa4f" stroke-width="4" opacity="1"></path><path aria-label="Year: 1886; Accounts Sincere neural: 540; District: wherever Northwest Electronic" role="graphics-symbol" aria-roledescription="point" transform="translate(628.9000000000001,19.999999999999996)" d="M2.7386127875258306,0A2.7386127875258306,2.7386127875258306,0,1,1,-2.7386127875258306,0A2.7386127875258306,2.7386127875258306,0,1,1,2.7386127875258306,0" fill="#333333" stroke="#59aa4f" stroke-width="4" opacity="1"></path></g><g class="mark-group role-legend" role="graphics-symbol" aria-roledescription="legend" aria-label="Symbol legend titled 'District' for stroke color with 2 values: Assistant program Lithium, wherever Northwest Electronic"><g transform="translate(-177,0)"><path class="background" aria-hidden="true" d="M0,0h141v45h-141Z" pointer-events="none"></path><g><g class="mark-group role-legend-entry"><g transform="translate(0,16)"><path class="background" aria-hidden="true" d="M0,0h0v0h0Z" pointer-events="none"></path><g><g class="mark-group role-scope" role="graphics-object" aria-roledescription="group mark container"><g transform="translate(0,0)"><path class="background" aria-hidden="true" d="M0,0h140.9462890625v12.5h-140.9462890625Z" pointer-events="none" opacity="1"></path><g><g class="mark-symbol role-legend-symbol" pointer-events="none"><path transform="translate(6,6)" d="M5,0A5,5,0,1,1,-5,0A5,5,0,1,1,5,0" fill="#333333" stroke="#2dcb33" stroke-width="1.5" opacity="1"></path></g><g class="mark-text role-legend-label" pointer-events="none"><text text-anchor="start" transform="translate(16,9)" font-family="serif" font-size="10px" fill="#fff" opacity="1">Assistant program Lithium</text></g></g><path class="foreground" aria-hidden="true" d="" pointer-events="none" display="none"></path></g><g transform="translate(0,16)"><path class="background" aria-hidden="true" d="M0,0h140.9462890625v12.5h-140.9462890625Z" pointer-events="none" opacity="1"></path><g><g class="mark-symbol role-legend-symbol" pointer-events="none"><path transform="translate(6,6)" d="M5,0A5,5,0,1,1,-5,0A5,5,0,1,1,5,0" fill="#333333" stroke="#59aa4f" stroke-width="1.5" opacity="1"></path></g><g class="mark-text role-legend-label" pointer-events="none"><text text-anchor="start" transform="translate(16,9)" font-family="serif" font-size="10px" fill="#fff" opacity="1">wherever Northwest Electronic</text></g></g><path class="foreground" aria-hidden="true" d="" pointer-events="none" display="none"></path></g></g></g><path class="foreground" aria-hidden="true" d="" pointer-events="none" display="none"></path></g></g><g class="mark-text role-legend-title" pointer-events="none"><text text-anchor="start" transform="translate(0,9)" font-family="serif" font-size="11px" font-weight="bold" fill="#fff" opacity="1">District</text></g></g><path class="foreground" aria-hidden="true" d="" pointer-events="none" display="none"></path></g></g><g class="mark-group role-title"><g transform="translate(-177,-41.67534826721256)"><path class="background" aria-hidden="true" d="M0,0h0v0h0Z" pointer-events="none"></path><g><g class="mark-text role-title-text" role="graphics-symbol" aria-roledescription="title" aria-label="Title text 'Internal aut Wagon'" pointer-events="none"><text text-anchor="start" transform="translate(0,20)" font-family="serif" font-size="25px" font-weight="bold" fill="#fff" opacity="1">Internal aut Wagon</text></g></g><path class="foreground" aria-hidden="true" d="" pointer-events="none" display="none"></path></g></g></g><path class="foreground" aria-hidden="true" d="" display="none"></path></g></g></g></svg>