<svg xmlns="http://www.w3.org/2000/svg" xmlns:xlink="http://www.w3.org/1999/xlink" version="1.1" class="marks" width="1016" height="283" viewBox="0 0 1016 283" style="background-color: rgb(255, 255, 255);"><g fill="none" stroke-miterlimit="10" transform="translate(36,57)"><g class="mark-group role-frame root" role="graphics-object" aria-roledescription="group mark container"><g transform="translate(0,0)"><path class="background" aria-hidden="true" d="M0.5,0.5h975v200h-975Z" fill="transparent" stroke="#ddd"></path><g><g class="mark-group role-axis" aria-hidden="true"><g transform="translate(0.5,200.5)"><path class="background" aria-hidden="true" d="M0,0h0v0h0Z" pointer-events="none"></path><g><g class="mark-rule role-axis-grid" pointer-events="none"><line transform="translate(44,-200)" x2="0" y2="200" stroke="#D0D0D0" stroke-width="1" stroke-dasharray="1,0" opacity="1"></line><line transform="translate(133,-200)" x2="0" y2="200" stroke="#D0D0D0" stroke-width="1" stroke-dasharray="1,0" opacity="1"></line><line transform="translate(222,-200)" x2="0" y2="200" stroke="#D0D0D0" stroke-width="1" stroke-dasharray="1,0" opacity="1"></line><line transform="translate(310,-200)" x2="0" y2="200" stroke="#D0D0D0" stroke-width="1" stroke-dasharray="1,0" opacity="1"></line><line transform="translate(399,-200)" x2="0" y2="200" stroke="#D0D0D0" stroke-width="1" stroke-dasharray="1,0" opacity="1"></line><line transform="translate(488,-200)" x2="0" y2="200" stroke="#D0D0D0" stroke-width="1" stroke-dasharray="1,0" opacity="1"></line><line transform="translate(576,-200)" x2="0" y2="200" stroke="#D0D0D0" stroke-width="1" stroke-dasharray="1,0" opacity="1"></line><line transform="translate(665,-200)" x2="0" y2="200" stroke="#D0D0D0" stroke-width="1" stroke-dasharray="1,0" opacity="1"></line><line transform="translate(753,-200)" x2="0" y2="200" stroke="#D0D0D0" stroke-width="1" stroke-dasharray="1,0" opacity="1"></line><line transform="translate(842,-200)" x2="0" y2="200" stroke="#D0D0D0" stroke-width="1" stroke-dasharray="1,0" opacity="1"></line><line transform="translate(931,-200)" x2="0" y2="200" stroke="#D0D0D0" stroke-width="1" stroke-dasharray="1,0" opacity="1"></line></g></g><path class="foreground" aria-hidden="true" d="" pointer-events="none" display="none"></path></g></g><g class="mark-group role-axis" aria-hidden="true"><g transform="translate(0.5,0.5)"><path class="background" aria-hidden="true" d="M0,0h0v0h0Z" pointer-events="none"></path><g><g class="mark-rule role-axis-grid" pointer-events="none"><line transform="translate(0,200)" x2="975" y2="0" stroke="#D0D0D0" stroke-width="1" stroke-dasharray="1,0" opacity="1"></line><line transform="translate(0,171)" x2="975" y2="0" stroke="#D0D0D0" stroke-width="1" stroke-dasharray="1,0" opacity="1"></line><line transform="translate(0,143)" x2="975" y2="0" stroke="#D0D0D0" stroke-width="1" stroke-dasharray="1,0" opacity="1"></line><line transform="translate(0,114)" x2="975" y2="0" stroke="#D0D0D0" stroke-width="1" stroke-dasharray="1,0" opacity="1"></line><line transform="translate(0,86)" x2="975" y2="0" stroke="#D0D0D0" stroke-width="1" stroke-dasharray="1,0" opacity="1"></line><line transform="translate(0,57)" x2="975" y2="0" stroke="#D0D0D0" stroke-width="1" stroke-dasharray="1,0" opacity="1"></line><line transform="translate(0,29)" x2="975" y2="0" stroke="#D0D0D0" stroke-width="1" stroke-dasharray="1,0" opacity="1"></line><line transform="translate(0,0)" x2="975" y2="0" stroke="#D0D0D0" stroke-width="1" stroke-dasharray="1,0" opacity="1"></line></g></g><path class="foreground" aria-hidden="true" d="" pointer-events="none" display="none"></path></g></g><g class="mark-group role-axis" role="graphics-symbol" aria-roledescription="axis" aria-label="X-axis for a discrete scale with 11 values: 1897, 1898, 1899, 1900, 1901, ending with 1907"><g transform="translate(0.5,200.5)"><path class="background" aria-hidden="true" d="M0,0h0v0h0Z" pointer-events="none"></path><g><g class="mark-rule role-axis-tick" pointer-events="none"><line transform="translate(44,0)" x2="0" y2="5" stroke="#888" stroke-width="1" opacity="1"></line><line transform="translate(133,0)" x2="0" y2="5" stroke="#888" stroke-width="1" opacity="1"></line><line transform="translate(222,0)" x2="0" y2="5" stroke="#888" stroke-width="1" opacity="1"></line><line transform="translate(310,0)" x2="0" y2="5" stroke="#888" stroke-width="1" opacity="1"></line><line transform="translate(399,0)" x2="0" y2="5" stroke="#888" stroke-width="1" opacity="1"></line><line transform="translate(488,0)" x2="0" y2="5" stroke="#888" stroke-width="1" opacity="1"></line><line transform="translate(576,0)" x2="0" y2="5" stroke="#888" stroke-width="1" opacity="1"></line><line transform="translate(665,0)" x2="0" y2="5" stroke="#888" stroke-width="1" opacity="1"></line><line transform="translate(753,0)" x2="0" y2="5" stroke="#888" stroke-width="1" opacity="1"></line><line transform="translate(842,0)" x2="0" y2="5" stroke="#888" stroke-width="1" opacity="1"></line><line transform="translate(931,0)" x2="0" y2="5" stroke="#888" stroke-width="1" opacity="1"></line></g><g class="mark-text role-axis-label" pointer-events="none"><text text-anchor="middle" transform="translate(44.31818181818181,18)" font-family="sans-serif" font-size="14px" font-weight="bold" fill="#000" opacity="1">1897</text><text text-anchor="middle" transform="translate(132.95454545454544,18)" font-family="sans-serif" font-size="14px" font-weight="bold" fill="#000" opacity="1">1898</text><text text-anchor="middle" transform="translate(221.5909090909091,18)" font-family="sans-serif" font-size="14px" font-weight="bold" fill="#000" opacity="1">1899</text><text text-anchor="middle" transform="translate(310.22727272727275,18)" font-family="sans-serif" font-size="14px" font-weight="bold" fill="#000" opacity="1">1900</text><text text-anchor="middle" transform="translate(398.8636363636364,18)" font-family="sans-serif" font-size="14px" font-weight="bold" fill="#000" opacity="1">1901</text><text text-anchor="middle" transform="translate(487.5,18)" font-family="sans-serif" font-size="14px" font-weight="bold" fill="#000" opacity="1">1902</text><text text-anchor="middle" transform="translate(576.1363636363637,18)" font-family="sans-serif" font-size="14px" font-weight="bold" fill="#000" opacity="1">1903</text><text text-anchor="middle" transform="translate(664.7727272727273,18)" font-family="sans-serif" font-size="14px" font-weight="bold" fill="#000" opacity="1">1904</text><text text-anchor="middle" transform="translate(753.409090909091,18)" font-family="sans-serif" font-size="14px" font-weight="bold" fill="#000" opacity="1">1905</text><text text-anchor="middle" transform="translate(842.0454545454545,18)" font-family="sans-serif" font-size="14px" font-weight="bold" fill="#000" opacity="1">1906</text><text text-anchor="middle" transform="translate(930.6818181818182,18)" font-family="sans-serif" font-size="14px" font-weight="bold" fill="#000" opacity="1">1907</text></g><g class="mark-rule role-axis-domain" pointer-events="none"><line transform="translate(0,0)" x2="975" y2="0" stroke="#888" stroke-width="1" opacity="1"></line></g></g><path class="foreground" aria-hidden="true" d="" pointer-events="none" display="none"></path></g></g><g class="mark-group role-axis" role="graphics-symbol" aria-roledescription="axis" aria-label="Y-axis for a linear scale with values from 0 to 700"><g transform="translate(0.5,0.5)"><path class="background" aria-hidden="true" d="M0,0h0v0h0Z" pointer-events="none"></path><g><g class="mark-rule role-axis-tick" pointer-events="none"><line transform="translate(0,200)" x2="-5" y2="0" stroke="#888" stroke-width="1" opacity="1"></line><line transform="translate(0,171)" x2="-5" y2="0" stroke="#888" stroke-width="1" opacity="1"></line><line transform="translate(0,143)" x2="-5" y2="0" stroke="#888" stroke-width="1" opacity="1"></line><line transform="translate(0,114)" x2="-5" y2="0" stroke="#888" stroke-width="1" opacity="1"></line><line transform="translate(0,86)" x2="-5" y2="0" stroke="#888" stroke-width="1" opacity="1"></line><line transform="translate(0,57)" x2="-5" y2="0" stroke="#888" stroke-width="1" opacity="1"></line><line transform="translate(0,29)" x2="-5" y2="0" stroke="#888" stroke-width="1" opacity="1"></line><line transform="translate(0,0)" x2="-5" y2="0" stroke="#888" stroke-width="1" opacity="1"></line></g><g class="mark-text role-axis-label" pointer-events="none"><text text-anchor="end" transform="translate(-7,204)" font-family="sans-serif" font-size="14px" font-weight="bold" fill="#000" opacity="1">0</text><text text-anchor="end" transform="translate(-7,175.42857142857144)" font-family="sans-serif" font-size="14px" font-weight="bold" fill="#000" opacity="1">100</text><text text-anchor="end" transform="translate(-7,146.85714285714286)" font-family="sans-serif" font-size="14px" font-weight="bold" fill="#000" opacity="1">200</text><text text-anchor="end" transform="translate(-7,118.28571428571428)" font-family="sans-serif" font-size="14px" font-weight="bold" fill="#000" opacity="1">300</text><text text-anchor="end" transform="translate(-7,89.71428571428572)" font-family="sans-serif" font-size="14px" font-weight="bold" fill="#000" opacity="1">400</text><text text-anchor="end" transform="translate(-7,61.14285714285714)" font-family="sans-serif" font-size="14px" font-weight="bold" fill="#000" opacity="1">500</text><text text-anchor="end" transform="translate(-7,32.571428571428584)" font-family="sans-serif" font-size="14px" font-weight="bold" fill="#000" opacity="1">600</text><text text-anchor="end" transform="translate(-7,4)" font-family="sans-serif" font-size="14px" font-weight="bold" fill="#000" opacity="1">700</text></g><g class="mark-rule role-axis-domain" pointer-events="none"><line transform="translate(0,200)" x2="0" y2="-200" stroke="#888" stroke-width="1" opacity="1"></line></g></g><path class="foreground" aria-hidden="true" d="" pointer-events="none" display="none"></path></g></g><g class="mark-group role-scope layer_0_pathgroup" role="graphics-object" aria-roledescription="group mark container"><g transform="translate(0,0)"><path class="background" aria-hidden="true" d="M0,0h975v200h-975Z"></path><g><g class="mark-line role-mark layer_0_marks" role="graphics-object" aria-roledescription="line mark container"><path aria-label="Year: 1897; Communications slippers bypassing: 233; maroon Tactics: Product" role="graphics-symbol" aria-roledescription="line mark" d="M44.31818181818181,133.42857142857142C73.86363636363635,136.3000910110535,103.40909090909088,139.17161059353558,132.95454545454544,124.85714285714286C162.5,110.54267512075015,192.0454545454545,79.04222006548262,221.5909090909091,80.57142857142856C251.13636363636368,82.10063707737449,280.6818181818182,116.65950914453386,310.22727272727275,97.71428571428571C339.7727272727273,78.76906228403756,369.31818181818187,6.319743356381911,398.8636363636364,9.142857142857142C428.4090909090909,11.965970929332373,457.9545454545455,90.0615174299385,487.5,128.85714285714286C517.0454545454545,167.65276828434722,546.5909090909091,167.14847263814988,576.1363636363637,147.71428571428572C605.6818181818184,128.28009879042156,635.2272727272727,89.9160205888906,664.7727272727273,61.71428571428572C694.3181818181818,33.512550839680834,723.8636363636365,15.473159292001988,753.409090909091,27.428571428571423C782.9545454545455,39.38398356514086,812.5,81.33419938595861,842.0454545454545,107.71428571428572C871.590909090909,134.09437204261283,901.1363636363636,144.9043288784493,930.6818181818182,155.71428571428572" stroke="#a7ed78" stroke-width="2" stroke-dasharray="1,0"></path></g></g><path class="foreground" aria-hidden="true" d="" display="none"></path></g></g><g class="mark-symbol role-mark layer_1_marks" role="graphics-object" aria-roledescription="symbol mark container"><path aria-label="Year: 1897; Communications slippers bypassing: 233; maroon Tactics: Product" role="graphics-symbol" aria-roledescription="point" transform="translate(44.31818181818181,133.42857142857142)" d="M2.7386127875258306,0A2.7386127875258306,2.7386127875258306,0,1,1,-2.7386127875258306,0A2.7386127875258306,2.7386127875258306,0,1,1,2.7386127875258306,0" fill="#fff" stroke="#a7ed78" stroke-width="2" opacity="1"></path><path aria-label="Year: 1898; Communications slippers bypassing: 263; maroon Tactics: Product" role="graphics-symbol" aria-roledescription="point" transform="translate(132.95454545454544,124.85714285714286)" d="M2.7386127875258306,0A2.7386127875258306,2.7386127875258306,0,1,1,-2.7386127875258306,0A2.7386127875258306,2.7386127875258306,0,1,1,2.7386127875258306,0" fill="#fff" stroke="#a7ed78" stroke-width="2" opacity="1"></path><path aria-label="Year: 1899; Communications slippers bypassing: 418; maroon Tactics: Product" role="graphics-symbol" aria-roledescription="point" transform="translate(221.5909090909091,80.57142857142856)" d="M2.7386127875258306,0A2.7386127875258306,2.7386127875258306,0,1,1,-2.7386127875258306,0A2.7386127875258306,2.7386127875258306,0,1,1,2.7386127875258306,0" fill="#fff" stroke="#a7ed78" stroke-width="2" opacity="1"></path><path aria-label="Year: 1900; Communications slippers bypassing: 358; maroon Tactics: Product" role="graphics-symbol" aria-roledescription="point" transform="translate(310.22727272727275,97.71428571428571)" d="M2.7386127875258306,0A2.7386127875258306,2.7386127875258306,0,1,1,-2.7386127875258306,0A2.7386127875258306,2.7386127875258306,0,1,1,2.7386127875258306,0" fill="#fff" stroke="#a7ed78" stroke-width="2" opacity="1"></path><path aria-label="Year: 1901; Communications slippers bypassing: 668; maroon Tactics: Product" role="graphics-symbol" aria-roledescription="point" transform="translate(398.8636363636364,9.142857142857142)" d="M2.7386127875258306,0A2.7386127875258306,2.7386127875258306,0,1,1,-2.7386127875258306,0A2.7386127875258306,2.7386127875258306,0,1,1,2.7386127875258306,0" fill="#fff" stroke="#a7ed78" stroke-width="2" opacity="1"></path><path aria-label="Year: 1902; Communications slippers bypassing: 249; maroon Tactics: Product" role="graphics-symbol" aria-roledescription="point" transform="translate(487.5,128.85714285714286)" d="M2.7386127875258306,0A2.7386127875258306,2.7386127875258306,0,1,1,-2.7386127875258306,0A2.7386127875258306,2.7386127875258306,0,1,1,2.7386127875258306,0" fill="#fff" stroke="#a7ed78" stroke-width="2" opacity="1"></path><path aria-label="Year: 1903; Communications slippers bypassing: 183; maroon Tactics: Product" role="graphics-symbol" aria-roledescription="point" transform="translate(576.1363636363637,147.71428571428572)" d="M2.7386127875258306,0A2.7386127875258306,2.7386127875258306,0,1,1,-2.7386127875258306,0A2.7386127875258306,2.7386127875258306,0,1,1,2.7386127875258306,0" fill="#fff" stroke="#a7ed78" stroke-width="2" opacity="1"></path><path aria-label="Year: 1904; Communications slippers bypassing: 484; maroon Tactics: Product" role="graphics-symbol" aria-roledescription="point" transform="translate(664.7727272727273,61.71428571428572)" d="M2.7386127875258306,0A2.7386127875258306,2.7386127875258306,0,1,1,-2.7386127875258306,0A2.7386127875258306,2.7386127875258306,0,1,1,2.7386127875258306,0" fill="#fff" stroke="#a7ed78" stroke-width="2" opacity="1"></path><path aria-label="Year: 1905; Communications slippers bypassing: 604; maroon Tactics: Product" role="graphics-symbol" aria-roledescription="point" transform="translate(753.409090909091,27.428571428571423)" d="M2.7386127875258306,0A2.7386127875258306,2.7386127875258306,0,1,1,-2.7386127875258306,0A2.7386127875258306,2.7386127875258306,0,1,1,2.7386127875258306,0" fill="#fff" stroke="#a7ed78" stroke-width="2" opacity="1"></path><path aria-label="Year: 1906; Communications slippers bypassing: 323; maroon Tactics: Product" role="graphics-symbol" aria-roledescription="point" transform="translate(842.0454545454545,107.71428571428572)" d="M2.7386127875258306,0A2.7386127875258306,2.7386127875258306,0,1,1,-2.7386127875258306,0A2.7386127875258306,2.7386127875258306,0,1,1,2.7386127875258306,0" fill="#fff" stroke="#a7ed78" stroke-width="2" opacity="1"></path><path aria-label="Year: 1907; Communications slippers bypassing: 155; maroon Tactics: Product" role="graphics-symbol" aria-roledescription="point" transform="translate(930.6818181818182,155.71428571428572)" d="M2.7386127875258306,0A2.7386127875258306,2.7386127875258306,0,1,1,-2.7386127875258306,0A2.7386127875258306,2.7386127875258306,0,1,1,2.7386127875258306,0" fill="#fff" stroke="#a7ed78" stroke-width="2" opacity="1"></path></g><g class="mark-text role-mark layer_2_marks" role="graphics-object" aria-roledescription="text mark container"><text aria-label="Year: 1897; Communications slippers bypassing: 233" role="graphics-symbol" aria-roledescription="text mark" text-anchor="middle" transform="translate(44.31818181818181,112.42857142857142)" font-family="sans-serif" font-size="14px" fill="#000" opacity="1">233</text><text aria-label="Year: 1898; Communications slippers bypassing: 263" role="graphics-symbol" aria-roledescription="text mark" text-anchor="middle" transform="translate(132.95454545454544,103.85714285714286)" font-family="sans-serif" font-size="14px" fill="#000" opacity="1">263</text><text aria-label="Year: 1899; Communications slippers bypassing: 418" role="graphics-symbol" aria-roledescription="text mark" text-anchor="middle" transform="translate(221.5909090909091,59.571428571428555)" font-family="sans-serif" font-size="14px" fill="#000" opacity="1">418</text><text aria-label="Year: 1900; Communications slippers bypassing: 358" role="graphics-symbol" aria-roledescription="text mark" text-anchor="middle" transform="translate(310.22727272727275,76.71428571428571)" font-family="sans-serif" font-size="14px" fill="#000" opacity="1">358</text><text aria-label="Year: 1901; Communications slippers bypassing: 668" role="graphics-symbol" aria-roledescription="text mark" text-anchor="middle" transform="translate(398.8636363636364,-11.857142857142858)" font-family="sans-serif" font-size="14px" fill="#000" opacity="1">668</text><text aria-label="Year: 1902; Communications slippers bypassing: 249" role="graphics-symbol" aria-roledescription="text mark" text-anchor="middle" transform="translate(487.5,107.85714285714286)" font-family="sans-serif" font-size="14px" fill="#000" opacity="1">249</text><text aria-label="Year: 1903; Communications slippers bypassing: 183" role="graphics-symbol" aria-roledescription="text mark" text-anchor="middle" transform="translate(576.1363636363637,126.71428571428572)" font-family="sans-serif" font-size="14px" fill="#000" opacity="1">183</text><text aria-label="Year: 1904; Communications slippers bypassing: 484" role="graphics-symbol" aria-roledescription="text mark" text-anchor="middle" transform="translate(664.7727272727273,40.71428571428572)" font-family="sans-serif" font-size="14px" fill="#000" opacity="1">484</text><text aria-label="Year: 1905; Communications slippers bypassing: 604" role="graphics-symbol" aria-roledescription="text mark" text-anchor="middle" transform="translate(753.409090909091,6.4285714285714235)" font-family="sans-serif" font-size="14px" fill="#000" opacity="1">604</text><text aria-label="Year: 1906; Communications slippers bypassing: 323" role="graphics-symbol" aria-roledescription="text mark" text-anchor="middle" transform="translate(842.0454545454545,86.71428571428572)" font-family="sans-serif" font-size="14px" fill="#000" opacity="1">323</text><text aria-label="Year: 1907; Communications slippers bypassing: 155" role="graphics-symbol" aria-roledescription="text mark" text-anchor="middle" transform="translate(930.6818181818182,134.71428571428572)" font-family="sans-serif" font-size="14px" fill="#000" opacity="1">155</text></g><g class="mark-group role-title"><g transform="translate(487.5,-51.85714285714286)"><path class="background" aria-hidden="true" d="M0,0h0v0h0Z" pointer-events="none"></path><g><g class="mark-text role-title-text" role="graphics-symbol" aria-roledescription="title" aria-label="Title text 'Avon'" pointer-events="none"><text text-anchor="middle" transform="translate(0,20)" font-family="sans-serif" font-size="25px" font-weight="bold" fill="#000" opacity="1">Avon</text></g></g><path class="foreground" aria-hidden="true" d="" pointer-events="none" display="none"></path></g></g></g><path class="foreground" aria-hidden="true" d="" display="none"></path></g></g></g></svg>