<svg xmlns="http://www.w3.org/2000/svg" xmlns:xlink="http://www.w3.org/1999/xlink" version="1.1" class="marks" width="619" height="317" viewBox="0 0 619 317" style="background-color: rgb(255, 255, 255);"><g fill="none" stroke-miterlimit="10" transform="translate(39,42)"><g class="mark-group role-frame root" role="graphics-object" aria-roledescription="group mark container"><g transform="translate(0,0)"><path class="background" aria-hidden="true" d="M0.5,0.5h575v200h-575Z" fill="transparent" stroke="#ddd"></path><g><g class="mark-group role-axis" aria-hidden="true"><g transform="translate(0.5,200.5)"><path class="background" aria-hidden="true" d="M0,0h0v0h0Z" pointer-events="none"></path><g><g class="mark-rule role-axis-grid" pointer-events="none"><line transform="translate(58,-200)" x2="0" y2="200" stroke="#D0D0D0" stroke-width="1" stroke-dasharray="1,0" opacity="1"></line><line transform="translate(173,-200)" x2="0" y2="200" stroke="#D0D0D0" stroke-width="1" stroke-dasharray="1,0" opacity="1"></line><line transform="translate(288,-200)" x2="0" y2="200" stroke="#D0D0D0" stroke-width="1" stroke-dasharray="1,0" opacity="1"></line><line transform="translate(403,-200)" x2="0" y2="200" stroke="#D0D0D0" stroke-width="1" stroke-dasharray="1,0" opacity="1"></line><line transform="translate(518,-200)" x2="0" y2="200" stroke="#D0D0D0" stroke-width="1" stroke-dasharray="1,0" opacity="1"></line></g></g><path class="foreground" aria-hidden="true" d="" pointer-events="none" display="none"></path></g></g><g class="mark-group role-axis" role="graphics-symbol" aria-roledescription="axis" aria-label="X-axis for a discrete scale with 5 values: Jan, Feb, Mar, Apr, May"><g transform="translate(0.5,200.5)"><path class="background" aria-hidden="true" d="M0,0h0v0h0Z" pointer-events="none"></path><g><g class="mark-rule role-axis-tick" pointer-events="none"><line transform="translate(58,0)" x2="0" y2="5" stroke="#888" stroke-width="1" opacity="1"></line><line transform="translate(173,0)" x2="0" y2="5" stroke="#888" stroke-width="1" opacity="1"></line><line transform="translate(288,0)" x2="0" y2="5" stroke="#888" stroke-width="1" opacity="1"></line><line transform="translate(403,0)" x2="0" y2="5" stroke="#888" stroke-width="1" opacity="1"></line><line transform="translate(518,0)" x2="0" y2="5" stroke="#888" stroke-width="1" opacity="1"></line></g><g class="mark-text role-axis-label" pointer-events="none"><text text-anchor="middle" transform="translate(57.5,20)" font-family="sans-serif" font-size="16px" font-weight="bold" fill="#000" opacity="1">Jan</text><text text-anchor="middle" transform="translate(172.5,20)" font-family="sans-serif" font-size="16px" font-weight="bold" fill="#000" opacity="1">Feb</text><text text-anchor="middle" transform="translate(287.5,20)" font-family="sans-serif" font-size="16px" font-weight="bold" fill="#000" opacity="1">Mar</text><text text-anchor="middle" transform="translate(402.5,20)" font-family="sans-serif" font-size="16px" font-weight="bold" fill="#000" opacity="1">Apr</text><text text-anchor="middle" transform="translate(517.5,20)" font-family="sans-serif" font-size="16px" font-weight="bold" fill="#000" opacity="1">May</text></g><g class="mark-rule role-axis-domain" pointer-events="none"><line transform="translate(0,0)" x2="575" y2="0" stroke="#888" stroke-width="1" opacity="1"></line></g></g><path class="foreground" aria-hidden="true" d="" pointer-events="none" display="none"></path></g></g><g class="mark-group role-axis" role="graphics-symbol" aria-roledescription="axis" aria-label="Y-axis for a linear scale with values from 0 to 800"><g transform="translate(0.5,0.5)"><path class="background" aria-hidden="true" d="M0,0h0v0h0Z" pointer-events="none"></path><g><g class="mark-rule role-axis-tick" pointer-events="none"><line transform="translate(0,200)" x2="-5" y2="0" stroke="#888" stroke-width="1" opacity="1"></line><line transform="translate(0,150)" x2="-5" y2="0" stroke="#888" stroke-width="1" opacity="1"></line><line transform="translate(0,100)" x2="-5" y2="0" stroke="#888" stroke-width="1" opacity="1"></line><line transform="translate(0,50)" x2="-5" y2="0" stroke="#888" stroke-width="1" opacity="1"></line><line transform="translate(0,0)" x2="-5" y2="0" stroke="#888" stroke-width="1" opacity="1"></line></g><g class="mark-text role-axis-label" pointer-events="none"><text text-anchor="end" transform="translate(-7,205)" font-family="sans-serif" font-size="16px" font-weight="bold" fill="#000" opacity="1">0</text><text text-anchor="end" transform="translate(-7,155)" font-family="sans-serif" font-size="16px" font-weight="bold" fill="#000" opacity="1">200</text><text text-anchor="end" transform="translate(-7,105)" font-family="sans-serif" font-size="16px" font-weight="bold" fill="#000" opacity="1">400</text><text text-anchor="end" transform="translate(-7,55)" font-family="sans-serif" font-size="16px" font-weight="bold" fill="#000" opacity="1">600</text><text text-anchor="end" transform="translate(-7,5)" font-family="sans-serif" font-size="16px" font-weight="bold" fill="#000" opacity="1">800</text></g><g class="mark-rule role-axis-domain" pointer-events="none"><line transform="translate(0,200)" x2="0" y2="-200" stroke="#888" stroke-width="1" opacity="1"></line></g></g><path class="foreground" aria-hidden="true" d="" pointer-events="none" display="none"></path></g></g><g class="mark-group role-scope layer_0_pathgroup" role="graphics-object" aria-roledescription="group mark container"><g transform="translate(0,0)"><path class="background" aria-hidden="true" d="M0,0h575v200h-575Z"></path><g><g class="mark-line role-mark layer_0_marks" role="graphics-object" aria-roledescription="line mark container"><path aria-label="Month: Jan; male application: 477; green male Folk: seamless" role="graphics-symbol" aria-roledescription="line mark" d="M57.5,80.75000000000001C95.83333333333334,87.54166666666666,134.16666666666669,94.33333333333331,172.5,118.75C210.83333333333331,143.16666666666669,249.16666666666663,185.20833333333334,287.5,158.5C325.83333333333337,131.79166666666666,364.1666666666667,36.33333333333333,402.5,21.999999999999996C440.8333333333333,7.666666666666668,479.16666666666663,74.45833333333333,517.5,141.25" stroke="#f8379e" stroke-width="2" stroke-dasharray="8,4"></path></g></g><path class="foreground" aria-hidden="true" d="" display="none"></path></g><g transform="translate(0,0)"><path class="background" aria-hidden="true" d="M0,0h575v200h-575Z"></path><g><g class="mark-line role-mark layer_0_marks" role="graphics-object" aria-roledescription="line mark container"><path aria-label="Month: Jan; male application: 596; green male Folk: Mississippi" role="graphics-symbol" aria-roledescription="line mark" d="M57.5,51C95.83333333333334,72.8764880952381,134.16666666666669,94.75297619047619,172.5,99.25C210.83333333333331,103.74702380952381,249.16666666666663,90.86458333333333,287.5,70.5C325.83333333333337,50.13541666666667,364.1666666666667,22.288690476190478,402.5,19.75C440.8333333333333,17.211309523809522,479.16666666666663,39.98065476190476,517.5,62.74999999999999" stroke="#7ebae0" stroke-width="2" stroke-dasharray="8,4"></path></g></g><path class="foreground" aria-hidden="true" d="" display="none"></path></g></g><g class="mark-symbol role-mark layer_1_marks" role="graphics-object" aria-roledescription="symbol mark container"><path aria-label="Month: Jan; male application: 477; green male Folk: seamless" role="graphics-symbol" aria-roledescription="point" transform="translate(57.5,80.75000000000001)" d="M2.7386127875258306,0A2.7386127875258306,2.7386127875258306,0,1,1,-2.7386127875258306,0A2.7386127875258306,2.7386127875258306,0,1,1,2.7386127875258306,0" fill="#fff" stroke="#f8379e" stroke-width="2" opacity="1"></path><path aria-label="Month: Feb; male application: 325; green male Folk: seamless" role="graphics-symbol" aria-roledescription="point" transform="translate(172.5,118.75)" d="M2.7386127875258306,0A2.7386127875258306,2.7386127875258306,0,1,1,-2.7386127875258306,0A2.7386127875258306,2.7386127875258306,0,1,1,2.7386127875258306,0" fill="#fff" stroke="#f8379e" stroke-width="2" opacity="1"></path><path aria-label="Month: Mar; male application: 166; green male Folk: seamless" role="graphics-symbol" aria-roledescription="point" transform="translate(287.5,158.5)" d="M2.7386127875258306,0A2.7386127875258306,2.7386127875258306,0,1,1,-2.7386127875258306,0A2.7386127875258306,2.7386127875258306,0,1,1,2.7386127875258306,0" fill="#fff" stroke="#f8379e" stroke-width="2" opacity="1"></path><path aria-label="Month: Apr; male application: 712; green male Folk: seamless" role="graphics-symbol" aria-roledescription="point" transform="translate(402.5,21.999999999999996)" d="M2.7386127875258306,0A2.7386127875258306,2.7386127875258306,0,1,1,-2.7386127875258306,0A2.7386127875258306,2.7386127875258306,0,1,1,2.7386127875258306,0" fill="#fff" stroke="#f8379e" stroke-width="2" opacity="1"></path><path aria-label="Month: May; male application: 235; green male Folk: seamless" role="graphics-symbol" aria-roledescription="point" transform="translate(517.5,141.25)" d="M2.7386127875258306,0A2.7386127875258306,2.7386127875258306,0,1,1,-2.7386127875258306,0A2.7386127875258306,2.7386127875258306,0,1,1,2.7386127875258306,0" fill="#fff" stroke="#f8379e" stroke-width="2" opacity="1"></path><path aria-label="Month: Jan; male application: 596; green male Folk: Mississippi" role="graphics-symbol" aria-roledescription="point" transform="translate(57.5,51)" d="M2.7386127875258306,0A2.7386127875258306,2.7386127875258306,0,1,1,-2.7386127875258306,0A2.7386127875258306,2.7386127875258306,0,1,1,2.7386127875258306,0" fill="#fff" stroke="#7ebae0" stroke-width="2" opacity="1"></path><path aria-label="Month: Feb; male application: 403; green male Folk: Mississippi" role="graphics-symbol" aria-roledescription="point" transform="translate(172.5,99.25)" d="M2.7386127875258306,0A2.7386127875258306,2.7386127875258306,0,1,1,-2.7386127875258306,0A2.7386127875258306,2.7386127875258306,0,1,1,2.7386127875258306,0" fill="#fff" stroke="#7ebae0" stroke-width="2" opacity="1"></path><path aria-label="Month: Mar; male application: 518; green male Folk: Mississippi" role="graphics-symbol" aria-roledescription="point" transform="translate(287.5,70.5)" d="M2.7386127875258306,0A2.7386127875258306,2.7386127875258306,0,1,1,-2.7386127875258306,0A2.7386127875258306,2.7386127875258306,0,1,1,2.7386127875258306,0" fill="#fff" stroke="#7ebae0" stroke-width="2" opacity="1"></path><path aria-label="Month: Apr; male application: 721; green male Folk: Mississippi" role="graphics-symbol" aria-roledescription="point" transform="translate(402.5,19.75)" d="M2.7386127875258306,0A2.7386127875258306,2.7386127875258306,0,1,1,-2.7386127875258306,0A2.7386127875258306,2.7386127875258306,0,1,1,2.7386127875258306,0" fill="#fff" stroke="#7ebae0" stroke-width="2" opacity="1"></path><path aria-label="Month: May; male application: 549; green male Folk: Mississippi" role="graphics-symbol" aria-roledescription="point" transform="translate(517.5,62.74999999999999)" d="M2.7386127875258306,0A2.7386127875258306,2.7386127875258306,0,1,1,-2.7386127875258306,0A2.7386127875258306,2.7386127875258306,0,1,1,2.7386127875258306,0" fill="#fff" stroke="#7ebae0" stroke-width="2" opacity="1"></path></g><g class="mark-text role-mark layer_2_marks" role="graphics-object" aria-roledescription="text mark container"><text aria-label="Month: Jan; male application: 477" role="graphics-symbol" aria-roledescription="text mark" text-anchor="middle" transform="translate(57.5,103.75000000000001)" font-family="sans-serif" font-size="10px" fill="#000" opacity="1">477</text><text aria-label="Month: Feb; male application: 325" role="graphics-symbol" aria-roledescription="text mark" text-anchor="middle" transform="translate(172.5,141.75)" font-family="sans-serif" font-size="10px" fill="#000" opacity="1">325</text><text aria-label="Month: Mar; male application: 166" role="graphics-symbol" aria-roledescription="text mark" text-anchor="middle" transform="translate(287.5,181.5)" font-family="sans-serif" font-size="10px" fill="#000" opacity="1">166</text><text aria-label="Month: Apr; male application: 712" role="graphics-symbol" aria-roledescription="text mark" text-anchor="middle" transform="translate(402.5,45)" font-family="sans-serif" font-size="10px" fill="#000" opacity="1">712</text><text aria-label="Month: May; male application: 235" role="graphics-symbol" aria-roledescription="text mark" text-anchor="middle" transform="translate(517.5,164.25)" font-family="sans-serif" font-size="10px" fill="#000" opacity="1">235</text><text aria-label="Month: Jan; male application: 596" role="graphics-symbol" aria-roledescription="text mark" text-anchor="middle" transform="translate(57.5,74)" font-family="sans-serif" font-size="10px" fill="#000" opacity="1">596</text><text aria-label="Month: Feb; male application: 403" role="graphics-symbol" aria-roledescription="text mark" text-anchor="middle" transform="translate(172.5,122.25)" font-family="sans-serif" font-size="10px" fill="#000" opacity="1">403</text><text aria-label="Month: Mar; male application: 518" role="graphics-symbol" aria-roledescription="text mark" text-anchor="middle" transform="translate(287.5,93.5)" font-family="sans-serif" font-size="10px" fill="#000" opacity="1">518</text><text aria-label="Month: Apr; male application: 721" role="graphics-symbol" aria-roledescription="text mark" text-anchor="middle" transform="translate(402.5,42.75)" font-family="sans-serif" font-size="10px" fill="#000" opacity="1">721</text><text aria-label="Month: May; male application: 549" role="graphics-symbol" aria-roledescription="text mark" text-anchor="middle" transform="translate(517.5,85.75)" font-family="sans-serif" font-size="10px" fill="#000" opacity="1">549</text></g><g class="mark-group role-legend" role="graphics-symbol" aria-roledescription="legend" aria-label="Symbol legend titled 'green male Folk' for stroke color with 2 values: seamless, Mississippi"><g transform="translate(0,241)"><path class="background" aria-hidden="true" d="M0,0h135v29h-135Z" pointer-events="none"></path><g><g class="mark-group role-legend-entry"><g transform="translate(0,16)"><path class="background" aria-hidden="true" d="M0,0h0v0h0Z" pointer-events="none"></path><g><g class="mark-group role-scope" role="graphics-object" aria-roledescription="group mark container"><g transform="translate(0,0.25)"><path class="background" aria-hidden="true" d="M0,0h58.236328125v12.5h-58.236328125Z" pointer-events="none" opacity="1"></path><g><g class="mark-symbol role-legend-symbol" pointer-events="none"><path transform="translate(6,6)" d="M5,0A5,5,0,1,1,-5,0A5,5,0,1,1,5,0" fill="#fff" stroke="#f8379e" stroke-width="1.5" opacity="1"></path></g><g class="mark-text role-legend-label" pointer-events="none"><text text-anchor="start" transform="translate(16,9)" font-family="sans-serif" font-size="10px" fill="#000" opacity="1">seamless</text></g></g><path class="foreground" aria-hidden="true" d="" pointer-events="none" display="none"></path></g><g transform="translate(70,0.25)"><path class="background" aria-hidden="true" d="M0,0h64.33984375v12.5h-64.33984375Z" pointer-events="none" opacity="1"></path><g><g class="mark-symbol role-legend-symbol" pointer-events="none"><path transform="translate(6,6)" d="M5,0A5,5,0,1,1,-5,0A5,5,0,1,1,5,0" fill="#fff" stroke="#7ebae0" stroke-width="1.5" opacity="1"></path></g><g class="mark-text role-legend-label" pointer-events="none"><text text-anchor="start" transform="translate(16,9)" font-family="sans-serif" font-size="10px" fill="#000" opacity="1">Mississippi</text></g></g><path class="foreground" aria-hidden="true" d="" pointer-events="none" display="none"></path></g></g></g><path class="foreground" aria-hidden="true" d="" pointer-events="none" display="none"></path></g></g><g class="mark-text role-legend-title" pointer-events="none"><text text-anchor="start" transform="translate(0,9)" font-family="sans-serif" font-size="11px" font-weight="bold" fill="#000" opacity="1">green male Folk</text></g></g><path class="foreground" aria-hidden="true" d="" pointer-events="none" display="none"></path></g></g><g class="mark-group role-title"><g transform="translate(575,-37)"><path class="background" aria-hidden="true" d="M0,0h0v0h0Z" pointer-events="none"></path><g><g class="mark-text role-title-text" role="graphics-symbol" aria-roledescription="title" aria-label="Title text 'mitten pricing'" pointer-events="none"><text text-anchor="end" transform="translate(0,20)" font-family="sans-serif" font-size="25px" font-weight="bold" fill="#000" opacity="1">mitten pricing</text></g></g><path class="foreground" aria-hidden="true" d="" pointer-events="none" display="none"></path></g></g></g><path class="foreground" aria-hidden="true" d="" display="none"></path></g></g></g></svg>