<svg xmlns="http://www.w3.org/2000/svg" xmlns:xlink="http://www.w3.org/1999/xlink" version="1.1" class="marks" width="1023" height="257" viewBox="0 0 1023 257" style="background-color: rgb(255, 255, 255);"><g fill="none" stroke-miterlimit="10" transform="translate(23,34)"><g class="mark-group role-frame root" role="graphics-object" aria-roledescription="group mark container"><g transform="translate(0,0)"><path class="background" aria-hidden="true" d="M0.5,0.5h995v200h-995Z" fill="transparent" stroke="#ddd"></path><g><g class="mark-group role-axis" aria-hidden="true"><g transform="translate(0.5,200.5)"><path class="background" aria-hidden="true" d="M0,0h0v0h0Z" pointer-events="none"></path><g><g class="mark-rule role-axis-grid" pointer-events="none"><line transform="translate(50,-200)" x2="0" y2="200" stroke="#D0D0D0" stroke-width="1" stroke-dasharray="1,0" opacity="1"></line><line transform="translate(149,-200)" x2="0" y2="200" stroke="#D0D0D0" stroke-width="1" stroke-dasharray="1,0" opacity="1"></line><line transform="translate(249,-200)" x2="0" y2="200" stroke="#D0D0D0" stroke-width="1" stroke-dasharray="1,0" opacity="1"></line><line transform="translate(348,-200)" x2="0" y2="200" stroke="#D0D0D0" stroke-width="1" stroke-dasharray="1,0" opacity="1"></line><line transform="translate(448,-200)" x2="0" y2="200" stroke="#D0D0D0" stroke-width="1" stroke-dasharray="1,0" opacity="1"></line><line transform="translate(547,-200)" x2="0" y2="200" stroke="#D0D0D0" stroke-width="1" stroke-dasharray="1,0" opacity="1"></line><line transform="translate(647,-200)" x2="0" y2="200" stroke="#D0D0D0" stroke-width="1" stroke-dasharray="1,0" opacity="1"></line><line transform="translate(746,-200)" x2="0" y2="200" stroke="#D0D0D0" stroke-width="1" stroke-dasharray="1,0" opacity="1"></line><line transform="translate(846,-200)" x2="0" y2="200" stroke="#D0D0D0" stroke-width="1" stroke-dasharray="1,0" opacity="1"></line><line transform="translate(945,-200)" x2="0" y2="200" stroke="#D0D0D0" stroke-width="1" stroke-dasharray="1,0" opacity="1"></line></g></g><path class="foreground" aria-hidden="true" d="" pointer-events="none" display="none"></path></g></g><g class="mark-group role-axis" aria-hidden="true"><g transform="translate(0.5,0.5)"><path class="background" aria-hidden="true" d="M0,0h0v0h0Z" pointer-events="none"></path><g><g class="mark-rule role-axis-grid" pointer-events="none"><line transform="translate(0,200)" x2="995" y2="0" stroke="#D0D0D0" stroke-width="1" stroke-dasharray="1,0" opacity="1"></line><line transform="translate(0,144)" x2="995" y2="0" stroke="#D0D0D0" stroke-width="1" stroke-dasharray="1,0" opacity="1"></line><line transform="translate(0,89)" x2="995" y2="0" stroke="#D0D0D0" stroke-width="1" stroke-dasharray="1,0" opacity="1"></line><line transform="translate(0,33)" x2="995" y2="0" stroke="#D0D0D0" stroke-width="1" stroke-dasharray="1,0" opacity="1"></line></g></g><path class="foreground" aria-hidden="true" d="" pointer-events="none" display="none"></path></g></g><g class="mark-group role-axis" role="graphics-symbol" aria-roledescription="axis" aria-label="X-axis for a discrete scale with 10 values: Jan, Feb, Mar, Apr, May, ending with Oct"><g transform="translate(0.5,200.5)"><path class="background" aria-hidden="true" d="M0,0h0v0h0Z" pointer-events="none"></path><g><g class="mark-rule role-axis-tick" pointer-events="none"><line transform="translate(50,0)" x2="0" y2="5" stroke="#888" stroke-width="1" opacity="1"></line><line transform="translate(149,0)" x2="0" y2="5" stroke="#888" stroke-width="1" opacity="1"></line><line transform="translate(249,0)" x2="0" y2="5" stroke="#888" stroke-width="1" opacity="1"></line><line transform="translate(348,0)" x2="0" y2="5" stroke="#888" stroke-width="1" opacity="1"></line><line transform="translate(448,0)" x2="0" y2="5" stroke="#888" stroke-width="1" opacity="1"></line><line transform="translate(547,0)" x2="0" y2="5" stroke="#888" stroke-width="1" opacity="1"></line><line transform="translate(647,0)" x2="0" y2="5" stroke="#888" stroke-width="1" opacity="1"></line><line transform="translate(746,0)" x2="0" y2="5" stroke="#888" stroke-width="1" opacity="1"></line><line transform="translate(846,0)" x2="0" y2="5" stroke="#888" stroke-width="1" opacity="1"></line><line transform="translate(945,0)" x2="0" y2="5" stroke="#888" stroke-width="1" opacity="1"></line></g><g class="mark-text role-axis-label" pointer-events="none"><text text-anchor="middle" transform="translate(49.75,16)" font-family="avenir" font-size="11px" font-weight="bold" fill="#000" opacity="1">Jan</text><text text-anchor="middle" transform="translate(149.25,16)" font-family="avenir" font-size="11px" font-weight="bold" fill="#000" opacity="1">Feb</text><text text-anchor="middle" transform="translate(248.75,16)" font-family="avenir" font-size="11px" font-weight="bold" fill="#000" opacity="1">Mar</text><text text-anchor="middle" transform="translate(348.25,16)" font-family="avenir" font-size="11px" font-weight="bold" fill="#000" opacity="1">Apr</text><text text-anchor="middle" transform="translate(447.75,16)" font-family="avenir" font-size="11px" font-weight="bold" fill="#000" opacity="1">May</text><text text-anchor="middle" transform="translate(547.25,16)" font-family="avenir" font-size="11px" font-weight="bold" fill="#000" opacity="1">June</text><text text-anchor="middle" transform="translate(646.75,16)" font-family="avenir" font-size="11px" font-weight="bold" fill="#000" opacity="1">July</text><text text-anchor="middle" transform="translate(746.25,16)" font-family="avenir" font-size="11px" font-weight="bold" fill="#000" opacity="1">Aug</text><text text-anchor="middle" transform="translate(845.75,16)" font-family="avenir" font-size="11px" font-weight="bold" fill="#000" opacity="1">Sep</text><text text-anchor="middle" transform="translate(945.25,16)" font-family="avenir" font-size="11px" font-weight="bold" fill="#000" opacity="1">Oct</text></g><g class="mark-rule role-axis-domain" pointer-events="none"><line transform="translate(0,0)" x2="995" y2="0" stroke="#888" stroke-width="1" opacity="1"></line></g></g><path class="foreground" aria-hidden="true" d="" pointer-events="none" display="none"></path></g></g><g class="mark-group role-axis" role="graphics-symbol" aria-roledescription="axis" aria-label="Y-axis for a linear scale with values from 0 to 18"><g transform="translate(0.5,0.5)"><path class="background" aria-hidden="true" d="M0,0h0v0h0Z" pointer-events="none"></path><g><g class="mark-rule role-axis-tick" pointer-events="none"><line transform="translate(0,200)" x2="-5" y2="0" stroke="#888" stroke-width="1" opacity="1"></line><line transform="translate(0,144)" x2="-5" y2="0" stroke="#888" stroke-width="1" opacity="1"></line><line transform="translate(0,89)" x2="-5" y2="0" stroke="#888" stroke-width="1" opacity="1"></line><line transform="translate(0,33)" x2="-5" y2="0" stroke="#888" stroke-width="1" opacity="1"></line></g><g class="mark-text role-axis-label" pointer-events="none"><text text-anchor="end" transform="translate(-7,203)" font-family="avenir" font-size="11px" font-weight="bold" fill="#000" opacity="1">0</text><text text-anchor="end" transform="translate(-7,147.44444444444443)" font-family="avenir" font-size="11px" font-weight="bold" fill="#000" opacity="1">5</text><text text-anchor="end" transform="translate(-7,91.88888888888889)" font-family="avenir" font-size="11px" font-weight="bold" fill="#000" opacity="1">10</text><text text-anchor="end" transform="translate(-7,36.33333333333333)" font-family="avenir" font-size="11px" font-weight="bold" fill="#000" opacity="1">15</text></g></g><path class="foreground" aria-hidden="true" d="" pointer-events="none" display="none"></path></g></g><g class="mark-group role-scope layer_0_pathgroup" role="graphics-object" aria-roledescription="group mark container"><g transform="translate(0,0)"><path class="background" aria-hidden="true" d="M0,0h995v200h-995Z"></path><g><g class="mark-line role-mark layer_0_marks" role="graphics-object" aria-roledescription="line mark container"><path aria-label="Month: Jan; Hybrid to Games: 9; reboot groupware versus: weber Southeast" role="graphics-symbol" aria-roledescription="line mark" d="M49.75,100C82.91666666666666,121.89373489903765,116.08333333333331,143.7874697980753,149.25,155.55555555555557C182.41666666666669,167.32364131303584,215.58333333333337,168.9660779289587,248.75,166.66666666666669C281.91666666666663,164.36725540437467,315.0833333333333,158.12599626386773,348.25,144.44444444444443C381.4166666666667,130.76289262502112,414.58333333333326,109.64104812668137,447.75,77.77777777777777C480.91666666666674,45.914507428874174,514.0833333333335,3.309811229406744,547.25,11.111111111111116C580.4166666666665,18.912410992815488,613.5833333333333,77.11970695569167,646.75,88.88888888888889C679.9166666666667,100.6580708220861,713.0833333333334,65.98913872560438,746.25,44.44444444444444C779.4166666666666,22.899750163284505,812.5833333333333,14.479293697446371,845.75,11.111111111111116C878.9166666666667,7.742928524775861,912.0833333333334,9.427019817943489,945.25,11.111111111111116" stroke="#e0fc82" stroke-width="2" stroke-dasharray="1,0"></path></g></g><path class="foreground" aria-hidden="true" d="" display="none"></path></g></g><g class="mark-symbol role-mark layer_1_marks" role="graphics-object" aria-roledescription="symbol mark container"><path aria-label="Month: Jan; Hybrid to Games: 9; reboot groupware versus: weber Southeast" role="graphics-symbol" aria-roledescription="point" transform="translate(49.75,100)" d="M2.7386127875258306,0A2.7386127875258306,2.7386127875258306,0,1,1,-2.7386127875258306,0A2.7386127875258306,2.7386127875258306,0,1,1,2.7386127875258306,0" fill="#fff" stroke="#e0fc82" stroke-width="4" opacity="1"></path><path aria-label="Month: Feb; Hybrid to Games: 4; reboot groupware versus: weber Southeast" role="graphics-symbol" aria-roledescription="point" transform="translate(149.25,155.55555555555557)" d="M2.7386127875258306,0A2.7386127875258306,2.7386127875258306,0,1,1,-2.7386127875258306,0A2.7386127875258306,2.7386127875258306,0,1,1,2.7386127875258306,0" fill="#fff" stroke="#e0fc82" stroke-width="4" opacity="1"></path><path aria-label="Month: Mar; Hybrid to Games: 3; reboot groupware versus: weber Southeast" role="graphics-symbol" aria-roledescription="point" transform="translate(248.75,166.66666666666669)" d="M2.7386127875258306,0A2.7386127875258306,2.7386127875258306,0,1,1,-2.7386127875258306,0A2.7386127875258306,2.7386127875258306,0,1,1,2.7386127875258306,0" fill="#fff" stroke="#e0fc82" stroke-width="4" opacity="1"></path><path aria-label="Month: Apr; Hybrid to Games: 5; reboot groupware versus: weber Southeast" role="graphics-symbol" aria-roledescription="point" transform="translate(348.25,144.44444444444443)" d="M2.7386127875258306,0A2.7386127875258306,2.7386127875258306,0,1,1,-2.7386127875258306,0A2.7386127875258306,2.7386127875258306,0,1,1,2.7386127875258306,0" fill="#fff" stroke="#e0fc82" stroke-width="4" opacity="1"></path><path aria-label="Month: May; Hybrid to Games: 11; reboot groupware versus: weber Southeast" role="graphics-symbol" aria-roledescription="point" transform="translate(447.75,77.77777777777777)" d="M2.7386127875258306,0A2.7386127875258306,2.7386127875258306,0,1,1,-2.7386127875258306,0A2.7386127875258306,2.7386127875258306,0,1,1,2.7386127875258306,0" fill="#fff" stroke="#e0fc82" stroke-width="4" opacity="1"></path><path aria-label="Month: June; Hybrid to Games: 17; reboot groupware versus: weber Southeast" role="graphics-symbol" aria-roledescription="point" transform="translate(547.25,11.111111111111116)" d="M2.7386127875258306,0A2.7386127875258306,2.7386127875258306,0,1,1,-2.7386127875258306,0A2.7386127875258306,2.7386127875258306,0,1,1,2.7386127875258306,0" fill="#fff" stroke="#e0fc82" stroke-width="4" opacity="1"></path><path aria-label="Month: July; Hybrid to Games: 10; reboot groupware versus: weber Southeast" role="graphics-symbol" aria-roledescription="point" transform="translate(646.75,88.88888888888889)" d="M2.7386127875258306,0A2.7386127875258306,2.7386127875258306,0,1,1,-2.7386127875258306,0A2.7386127875258306,2.7386127875258306,0,1,1,2.7386127875258306,0" fill="#fff" stroke="#e0fc82" stroke-width="4" opacity="1"></path><path aria-label="Month: Aug; Hybrid to Games: 14; reboot groupware versus: weber Southeast" role="graphics-symbol" aria-roledescription="point" transform="translate(746.25,44.44444444444444)" d="M2.7386127875258306,0A2.7386127875258306,2.7386127875258306,0,1,1,-2.7386127875258306,0A2.7386127875258306,2.7386127875258306,0,1,1,2.7386127875258306,0" fill="#fff" stroke="#e0fc82" stroke-width="4" opacity="1"></path><path aria-label="Month: Sep; Hybrid to Games: 17; reboot groupware versus: weber Southeast" role="graphics-symbol" aria-roledescription="point" transform="translate(845.75,11.111111111111116)" d="M2.7386127875258306,0A2.7386127875258306,2.7386127875258306,0,1,1,-2.7386127875258306,0A2.7386127875258306,2.7386127875258306,0,1,1,2.7386127875258306,0" fill="#fff" stroke="#e0fc82" stroke-width="4" opacity="1"></path><path aria-label="Month: Oct; Hybrid to Games: 17; reboot groupware versus: weber Southeast" role="graphics-symbol" aria-roledescription="point" transform="translate(945.25,11.111111111111116)" d="M2.7386127875258306,0A2.7386127875258306,2.7386127875258306,0,1,1,-2.7386127875258306,0A2.7386127875258306,2.7386127875258306,0,1,1,2.7386127875258306,0" fill="#fff" stroke="#e0fc82" stroke-width="4" opacity="1"></path></g><g class="mark-text role-mark layer_2_marks" role="graphics-object" aria-roledescription="text mark container"><text aria-label="Month: Jan; Hybrid to Games: 9" role="graphics-symbol" aria-roledescription="text mark" text-anchor="middle" transform="translate(49.75,125)" font-family="avenir" font-size="15px" fill="#000" opacity="1">9</text><text aria-label="Month: Feb; Hybrid to Games: 4" role="graphics-symbol" aria-roledescription="text mark" text-anchor="middle" transform="translate(149.25,180.55555555555557)" font-family="avenir" font-size="15px" fill="#000" opacity="1">4</text><text aria-label="Month: Mar; Hybrid to Games: 3" role="graphics-symbol" aria-roledescription="text mark" text-anchor="middle" transform="translate(248.75,191.66666666666669)" font-family="avenir" font-size="15px" fill="#000" opacity="1">3</text><text aria-label="Month: Apr; Hybrid to Games: 5" role="graphics-symbol" aria-roledescription="text mark" text-anchor="middle" transform="translate(348.25,169.44444444444443)" font-family="avenir" font-size="15px" fill="#000" opacity="1">5</text><text aria-label="Month: May; Hybrid to Games: 11" role="graphics-symbol" aria-roledescription="text mark" text-anchor="middle" transform="translate(447.75,102.77777777777777)" font-family="avenir" font-size="15px" fill="#000" opacity="1">11</text><text aria-label="Month: June; Hybrid to Games: 17" role="graphics-symbol" aria-roledescription="text mark" text-anchor="middle" transform="translate(547.25,36.111111111111114)" font-family="avenir" font-size="15px" fill="#000" opacity="1">17</text><text aria-label="Month: July; Hybrid to Games: 10" role="graphics-symbol" aria-roledescription="text mark" text-anchor="middle" transform="translate(646.75,113.88888888888889)" font-family="avenir" font-size="15px" fill="#000" opacity="1">10</text><text aria-label="Month: Aug; Hybrid to Games: 14" role="graphics-symbol" aria-roledescription="text mark" text-anchor="middle" transform="translate(746.25,69.44444444444444)" font-family="avenir" font-size="15px" fill="#000" opacity="1">14</text><text aria-label="Month: Sep; Hybrid to Games: 17" role="graphics-symbol" aria-roledescription="text mark" text-anchor="middle" transform="translate(845.75,36.111111111111114)" font-family="avenir" font-size="15px" fill="#000" opacity="1">17</text><text aria-label="Month: Oct; Hybrid to Games: 17" role="graphics-symbol" aria-roledescription="text mark" text-anchor="middle" transform="translate(945.25,36.111111111111114)" font-family="avenir" font-size="15px" fill="#000" opacity="1">17</text></g><g class="mark-group role-title"><g transform="translate(995,-29)"><path class="background" aria-hidden="true" d="M0,0h0v0h0Z" pointer-events="none"></path><g><g class="mark-text role-title-text" role="graphics-symbol" aria-roledescription="title" aria-label="Title text 'Hermaphrodite'" pointer-events="none"><text text-anchor="end" transform="translate(0,20)" font-family="avenir" font-size="25px" font-weight="bold" fill="#000" opacity="1">Hermaphrodite</text></g></g><path class="foreground" aria-hidden="true" d="" pointer-events="none" display="none"></path></g></g></g><path class="foreground" aria-hidden="true" d="" display="none"></path></g></g></g></svg>