<svg xmlns="http://www.w3.org/2000/svg" xmlns:xlink="http://www.w3.org/1999/xlink" version="1.1" class="marks" width="1067" height="277" viewBox="0 0 1067 277" style="background-color: rgb(51, 51, 51);"><g fill="none" stroke-miterlimit="10" transform="translate(134,43)"><g class="mark-group role-frame root" role="graphics-object" aria-roledescription="group mark container"><g transform="translate(0,0)"><path class="background" aria-hidden="true" d="M0.5,0.5h928v200h-928Z" fill="transparent" stroke="#ddd"></path><g><g class="mark-group role-axis" aria-hidden="true"><g transform="translate(0.5,0.5)"><path class="background" aria-hidden="true" d="M0,0h0v0h0Z" pointer-events="none"></path><g><g class="mark-rule role-axis-grid" pointer-events="none"><line transform="translate(0,200)" x2="928" y2="0" stroke="#747474" stroke-width="1" stroke-dasharray="1,0" opacity="1"></line><line transform="translate(0,150)" x2="928" y2="0" stroke="#747474" stroke-width="1" stroke-dasharray="1,0" opacity="1"></line><line transform="translate(0,100)" x2="928" y2="0" stroke="#747474" stroke-width="1" stroke-dasharray="1,0" opacity="1"></line><line transform="translate(0,50)" x2="928" y2="0" stroke="#747474" stroke-width="1" stroke-dasharray="1,0" opacity="1"></line><line transform="translate(0,0)" x2="928" y2="0" stroke="#747474" stroke-width="1" stroke-dasharray="1,0" opacity="1"></line></g></g><path class="foreground" aria-hidden="true" d="" pointer-events="none" display="none"></path></g></g><g class="mark-group role-axis" role="graphics-symbol" aria-roledescription="axis" aria-label="X-axis for a discrete scale with 9 values: Jan, Feb, Mar, Apr, May, ending with Sep"><g transform="translate(0.5,200.5)"><path class="background" aria-hidden="true" d="M0,0h0v0h0Z" pointer-events="none"></path><g><g class="mark-rule role-axis-tick" pointer-events="none"><line transform="translate(52,0)" x2="0" y2="5" stroke="#888" stroke-width="1" opacity="1"></line><line transform="translate(155,0)" x2="0" y2="5" stroke="#888" stroke-width="1" opacity="1"></line><line transform="translate(258,0)" x2="0" y2="5" stroke="#888" stroke-width="1" opacity="1"></line><line transform="translate(361,0)" x2="0" y2="5" stroke="#888" stroke-width="1" opacity="1"></line><line transform="translate(464,0)" x2="0" y2="5" stroke="#888" stroke-width="1" opacity="1"></line><line transform="translate(567,0)" x2="0" y2="5" stroke="#888" stroke-width="1" opacity="1"></line><line transform="translate(670,0)" x2="0" y2="5" stroke="#888" stroke-width="1" opacity="1"></line><line transform="translate(773,0)" x2="0" y2="5" stroke="#888" stroke-width="1" opacity="1"></line><line transform="translate(876,0)" x2="0" y2="5" stroke="#888" stroke-width="1" opacity="1"></line></g><g class="mark-text role-axis-label" pointer-events="none"><text text-anchor="middle" transform="translate(51.55555555555554,21)" font-family="Balto" font-size="18px" font-weight="bold" fill="#fff" opacity="1">Jan</text><text text-anchor="middle" transform="translate(154.66666666666666,21)" font-family="Balto" font-size="18px" font-weight="bold" fill="#fff" opacity="1">Feb</text><text text-anchor="middle" transform="translate(257.77777777777777,21)" font-family="Balto" font-size="18px" font-weight="bold" fill="#fff" opacity="1">Mar</text><text text-anchor="middle" transform="translate(360.8888888888889,21)" font-family="Balto" font-size="18px" font-weight="bold" fill="#fff" opacity="1">Apr</text><text text-anchor="middle" transform="translate(464,21)" font-family="Balto" font-size="18px" font-weight="bold" fill="#fff" opacity="1">May</text><text text-anchor="middle" transform="translate(567.1111111111111,21)" font-family="Balto" font-size="18px" font-weight="bold" fill="#fff" opacity="1">June</text><text text-anchor="middle" transform="translate(670.2222222222223,21)" font-family="Balto" font-size="18px" font-weight="bold" fill="#fff" opacity="1">July</text><text text-anchor="middle" transform="translate(773.3333333333334,21)" font-family="Balto" font-size="18px" font-weight="bold" fill="#fff" opacity="1">Aug</text><text text-anchor="middle" transform="translate(876.4444444444445,21)" font-family="Balto" font-size="18px" font-weight="bold" fill="#fff" opacity="1">Sep</text></g><g class="mark-rule role-axis-domain" pointer-events="none"><line transform="translate(0,0)" x2="928" y2="0" stroke="#888" stroke-width="1" opacity="1"></line></g></g><path class="foreground" aria-hidden="true" d="" pointer-events="none" display="none"></path></g></g><g class="mark-group role-axis" role="graphics-symbol" aria-roledescription="axis" aria-label="Y-axis for a linear scale with values from 0 to 800"><g transform="translate(0.5,0.5)"><path class="background" aria-hidden="true" d="M0,0h0v0h0Z" pointer-events="none"></path><g><g class="mark-text role-axis-label" pointer-events="none"><text text-anchor="end" transform="translate(-2,205)" font-family="Balto" font-size="18px" font-weight="bold" fill="#fff" opacity="1">0</text><text text-anchor="end" transform="translate(-2,155)" font-family="Balto" font-size="18px" font-weight="bold" fill="#fff" opacity="1">200</text><text text-anchor="end" transform="translate(-2,105)" font-family="Balto" font-size="18px" font-weight="bold" fill="#fff" opacity="1">400</text><text text-anchor="end" transform="translate(-2,55)" font-family="Balto" font-size="18px" font-weight="bold" fill="#fff" opacity="1">600</text><text text-anchor="end" transform="translate(-2,5)" font-family="Balto" font-size="18px" font-weight="bold" fill="#fff" opacity="1">800</text></g><g class="mark-rule role-axis-domain" pointer-events="none"><line transform="translate(0,200)" x2="0" y2="-200" stroke="#888" stroke-width="1" opacity="1"></line></g></g><path class="foreground" aria-hidden="true" d="" pointer-events="none" display="none"></path></g></g><g class="mark-group role-scope layer_0_pathgroup" role="graphics-object" aria-roledescription="group mark container"><g transform="translate(0,0)"><path class="background" aria-hidden="true" d="M0,0h928v200h-928Z"></path><g><g class="mark-line role-mark layer_0_marks" role="graphics-object" aria-roledescription="line mark container"><path aria-label="Month: Jan; up: 5; salmon: whiteboard until" role="graphics-symbol" aria-roledescription="line mark" d="M51.55555555555554,198.75L154.66666666666666,121.75L257.77777777777777,199.75L360.8888888888889,139.75L464,124.25000000000001L567.1111111111111,120L670.2222222222223,15.999999999999993L773.3333333333334,84.5L876.4444444444445,70.24999999999999" stroke="#ae0bfe" stroke-width="2" stroke-dasharray="1,0"></path></g></g><path class="foreground" aria-hidden="true" d="" display="none"></path></g><g transform="translate(0,0)"><path class="background" aria-hidden="true" d="M0,0h928v200h-928Z"></path><g><g class="mark-line role-mark layer_0_marks" role="graphics-object" aria-roledescription="line mark container"><path aria-label="Month: Jan; up: 628; salmon: sievert Licensed" role="graphics-symbol" aria-roledescription="line mark" d="M51.55555555555554,42.99999999999999L154.66666666666666,31.499999999999993L257.77777777777777,146L360.8888888888889,159.25L464,138.5L567.1111111111111,25.249999999999993L670.2222222222223,147.75L773.3333333333334,67.5L876.4444444444445,62.5" stroke="#ebe6c4" stroke-width="2" stroke-dasharray="1,0"></path></g></g><path class="foreground" aria-hidden="true" d="" display="none"></path></g></g><g class="mark-symbol role-mark layer_1_marks" role="graphics-object" aria-roledescription="symbol mark container"><path aria-label="Month: Jan; up: 5; salmon: whiteboard until" role="graphics-symbol" aria-roledescription="point" transform="translate(51.55555555555554,198.75)" d="M2.7386127875258306,0A2.7386127875258306,2.7386127875258306,0,1,1,-2.7386127875258306,0A2.7386127875258306,2.7386127875258306,0,1,1,2.7386127875258306,0" fill="#333333" stroke="#ae0bfe" stroke-width="3" opacity="1"></path><path aria-label="Month: Feb; up: 313; salmon: whiteboard until" role="graphics-symbol" aria-roledescription="point" transform="translate(154.66666666666666,121.75)" d="M2.7386127875258306,0A2.7386127875258306,2.7386127875258306,0,1,1,-2.7386127875258306,0A2.7386127875258306,2.7386127875258306,0,1,1,2.7386127875258306,0" fill="#333333" stroke="#ae0bfe" stroke-width="3" opacity="1"></path><path aria-label="Month: Mar; up: 1; salmon: whiteboard until" role="graphics-symbol" aria-roledescription="point" transform="translate(257.77777777777777,199.75)" d="M2.7386127875258306,0A2.7386127875258306,2.7386127875258306,0,1,1,-2.7386127875258306,0A2.7386127875258306,2.7386127875258306,0,1,1,2.7386127875258306,0" fill="#333333" stroke="#ae0bfe" stroke-width="3" opacity="1"></path><path aria-label="Month: Apr; up: 241; salmon: whiteboard until" role="graphics-symbol" aria-roledescription="point" transform="translate(360.8888888888889,139.75)" d="M2.7386127875258306,0A2.7386127875258306,2.7386127875258306,0,1,1,-2.7386127875258306,0A2.7386127875258306,2.7386127875258306,0,1,1,2.7386127875258306,0" fill="#333333" stroke="#ae0bfe" stroke-width="3" opacity="1"></path><path aria-label="Month: May; up: 303; salmon: whiteboard until" role="graphics-symbol" aria-roledescription="point" transform="translate(464,124.25000000000001)" d="M2.7386127875258306,0A2.7386127875258306,2.7386127875258306,0,1,1,-2.7386127875258306,0A2.7386127875258306,2.7386127875258306,0,1,1,2.7386127875258306,0" fill="#333333" stroke="#ae0bfe" stroke-width="3" opacity="1"></path><path aria-label="Month: June; up: 320; salmon: whiteboard until" role="graphics-symbol" aria-roledescription="point" transform="translate(567.1111111111111,120)" d="M2.7386127875258306,0A2.7386127875258306,2.7386127875258306,0,1,1,-2.7386127875258306,0A2.7386127875258306,2.7386127875258306,0,1,1,2.7386127875258306,0" fill="#333333" stroke="#ae0bfe" stroke-width="3" opacity="1"></path><path aria-label="Month: July; up: 736; salmon: whiteboard until" role="graphics-symbol" aria-roledescription="point" transform="translate(670.2222222222223,15.999999999999993)" d="M2.7386127875258306,0A2.7386127875258306,2.7386127875258306,0,1,1,-2.7386127875258306,0A2.7386127875258306,2.7386127875258306,0,1,1,2.7386127875258306,0" fill="#333333" stroke="#ae0bfe" stroke-width="3" opacity="1"></path><path aria-label="Month: Aug; up: 462; salmon: whiteboard until" role="graphics-symbol" aria-roledescription="point" transform="translate(773.3333333333334,84.5)" d="M2.7386127875258306,0A2.7386127875258306,2.7386127875258306,0,1,1,-2.7386127875258306,0A2.7386127875258306,2.7386127875258306,0,1,1,2.7386127875258306,0" fill="#333333" stroke="#ae0bfe" stroke-width="3" opacity="1"></path><path aria-label="Month: Sep; up: 519; salmon: whiteboard until" role="graphics-symbol" aria-roledescription="point" transform="translate(876.4444444444445,70.24999999999999)" d="M2.7386127875258306,0A2.7386127875258306,2.7386127875258306,0,1,1,-2.7386127875258306,0A2.7386127875258306,2.7386127875258306,0,1,1,2.7386127875258306,0" fill="#333333" stroke="#ae0bfe" stroke-width="3" opacity="1"></path><path aria-label="Month: Jan; up: 628; salmon: sievert Licensed" role="graphics-symbol" aria-roledescription="point" transform="translate(51.55555555555554,42.99999999999999)" d="M2.7386127875258306,0A2.7386127875258306,2.7386127875258306,0,1,1,-2.7386127875258306,0A2.7386127875258306,2.7386127875258306,0,1,1,2.7386127875258306,0" fill="#333333" stroke="#ebe6c4" stroke-width="3" opacity="1"></path><path aria-label="Month: Feb; up: 674; salmon: sievert Licensed" role="graphics-symbol" aria-roledescription="point" transform="translate(154.66666666666666,31.499999999999993)" d="M2.7386127875258306,0A2.7386127875258306,2.7386127875258306,0,1,1,-2.7386127875258306,0A2.7386127875258306,2.7386127875258306,0,1,1,2.7386127875258306,0" fill="#333333" stroke="#ebe6c4" stroke-width="3" opacity="1"></path><path aria-label="Month: Mar; up: 216; salmon: sievert Licensed" role="graphics-symbol" aria-roledescription="point" transform="translate(257.77777777777777,146)" d="M2.7386127875258306,0A2.7386127875258306,2.7386127875258306,0,1,1,-2.7386127875258306,0A2.7386127875258306,2.7386127875258306,0,1,1,2.7386127875258306,0" fill="#333333" stroke="#ebe6c4" stroke-width="3" opacity="1"></path><path aria-label="Month: Apr; up: 163; salmon: sievert Licensed" role="graphics-symbol" aria-roledescription="point" transform="translate(360.8888888888889,159.25)" d="M2.7386127875258306,0A2.7386127875258306,2.7386127875258306,0,1,1,-2.7386127875258306,0A2.7386127875258306,2.7386127875258306,0,1,1,2.7386127875258306,0" fill="#333333" stroke="#ebe6c4" stroke-width="3" opacity="1"></path><path aria-label="Month: May; up: 246; salmon: sievert Licensed" role="graphics-symbol" aria-roledescription="point" transform="translate(464,138.5)" d="M2.7386127875258306,0A2.7386127875258306,2.7386127875258306,0,1,1,-2.7386127875258306,0A2.7386127875258306,2.7386127875258306,0,1,1,2.7386127875258306,0" fill="#333333" stroke="#ebe6c4" stroke-width="3" opacity="1"></path><path aria-label="Month: June; up: 699; salmon: sievert Licensed" role="graphics-symbol" aria-roledescription="point" transform="translate(567.1111111111111,25.249999999999993)" d="M2.7386127875258306,0A2.7386127875258306,2.7386127875258306,0,1,1,-2.7386127875258306,0A2.7386127875258306,2.7386127875258306,0,1,1,2.7386127875258306,0" fill="#333333" stroke="#ebe6c4" stroke-width="3" opacity="1"></path><path aria-label="Month: July; up: 209; salmon: sievert Licensed" role="graphics-symbol" aria-roledescription="point" transform="translate(670.2222222222223,147.75)" d="M2.7386127875258306,0A2.7386127875258306,2.7386127875258306,0,1,1,-2.7386127875258306,0A2.7386127875258306,2.7386127875258306,0,1,1,2.7386127875258306,0" fill="#333333" stroke="#ebe6c4" stroke-width="3" opacity="1"></path><path aria-label="Month: Aug; up: 530; salmon: sievert Licensed" role="graphics-symbol" aria-roledescription="point" transform="translate(773.3333333333334,67.5)" d="M2.7386127875258306,0A2.7386127875258306,2.7386127875258306,0,1,1,-2.7386127875258306,0A2.7386127875258306,2.7386127875258306,0,1,1,2.7386127875258306,0" fill="#333333" stroke="#ebe6c4" stroke-width="3" opacity="1"></path><path aria-label="Month: Sep; up: 550; salmon: sievert Licensed" role="graphics-symbol" aria-roledescription="point" transform="translate(876.4444444444445,62.5)" d="M2.7386127875258306,0A2.7386127875258306,2.7386127875258306,0,1,1,-2.7386127875258306,0A2.7386127875258306,2.7386127875258306,0,1,1,2.7386127875258306,0" fill="#333333" stroke="#ebe6c4" stroke-width="3" opacity="1"></path></g><g class="mark-text role-mark layer_2_marks" role="graphics-object" aria-roledescription="text mark container"><text aria-label="Month: Jan; up: 5" role="graphics-symbol" aria-roledescription="text mark" text-anchor="middle" transform="translate(51.55555555555554,223.75)" font-family="Balto" font-size="18px" fill="#fff" opacity="1">5</text><text aria-label="Month: Feb; up: 313" role="graphics-symbol" aria-roledescription="text mark" text-anchor="middle" transform="translate(154.66666666666666,146.75)" font-family="Balto" font-size="18px" fill="#fff" opacity="1">313</text><text aria-label="Month: Mar; up: 1" role="graphics-symbol" aria-roledescription="text mark" text-anchor="middle" transform="translate(257.77777777777777,224.75)" font-family="Balto" font-size="18px" fill="#fff" opacity="1">1</text><text aria-label="Month: Apr; up: 241" role="graphics-symbol" aria-roledescription="text mark" text-anchor="middle" transform="translate(360.8888888888889,164.75)" font-family="Balto" font-size="18px" fill="#fff" opacity="1">241</text><text aria-label="Month: May; up: 303" role="graphics-symbol" aria-roledescription="text mark" text-anchor="middle" transform="translate(464,149.25)" font-family="Balto" font-size="18px" fill="#fff" opacity="1">303</text><text aria-label="Month: June; up: 320" role="graphics-symbol" aria-roledescription="text mark" text-anchor="middle" transform="translate(567.1111111111111,145)" font-family="Balto" font-size="18px" fill="#fff" opacity="1">320</text><text aria-label="Month: July; up: 736" role="graphics-symbol" aria-roledescription="text mark" text-anchor="middle" transform="translate(670.2222222222223,40.99999999999999)" font-family="Balto" font-size="18px" fill="#fff" opacity="1">736</text><text aria-label="Month: Aug; up: 462" role="graphics-symbol" aria-roledescription="text mark" text-anchor="middle" transform="translate(773.3333333333334,109.5)" font-family="Balto" font-size="18px" fill="#fff" opacity="1">462</text><text aria-label="Month: Sep; up: 519" role="graphics-symbol" aria-roledescription="text mark" text-anchor="middle" transform="translate(876.4444444444445,95.24999999999999)" font-family="Balto" font-size="18px" fill="#fff" opacity="1">519</text><text aria-label="Month: Jan; up: 628" role="graphics-symbol" aria-roledescription="text mark" text-anchor="middle" transform="translate(51.55555555555554,68)" font-family="Balto" font-size="18px" fill="#fff" opacity="1">628</text><text aria-label="Month: Feb; up: 674" role="graphics-symbol" aria-roledescription="text mark" text-anchor="middle" transform="translate(154.66666666666666,56.49999999999999)" font-family="Balto" font-size="18px" fill="#fff" opacity="1">674</text><text aria-label="Month: Mar; up: 216" role="graphics-symbol" aria-roledescription="text mark" text-anchor="middle" transform="translate(257.77777777777777,171)" font-family="Balto" font-size="18px" fill="#fff" opacity="1">216</text><text aria-label="Month: Apr; up: 163" role="graphics-symbol" aria-roledescription="text mark" text-anchor="middle" transform="translate(360.8888888888889,184.25)" font-family="Balto" font-size="18px" fill="#fff" opacity="1">163</text><text aria-label="Month: May; up: 246" role="graphics-symbol" aria-roledescription="text mark" text-anchor="middle" transform="translate(464,163.5)" font-family="Balto" font-size="18px" fill="#fff" opacity="1">246</text><text aria-label="Month: June; up: 699" role="graphics-symbol" aria-roledescription="text mark" text-anchor="middle" transform="translate(567.1111111111111,50.24999999999999)" font-family="Balto" font-size="18px" fill="#fff" opacity="1">699</text><text aria-label="Month: July; up: 209" role="graphics-symbol" aria-roledescription="text mark" text-anchor="middle" transform="translate(670.2222222222223,172.75)" font-family="Balto" font-size="18px" fill="#fff" opacity="1">209</text><text aria-label="Month: Aug; up: 530" role="graphics-symbol" aria-roledescription="text mark" text-anchor="middle" transform="translate(773.3333333333334,92.5)" font-family="Balto" font-size="18px" fill="#fff" opacity="1">530</text><text aria-label="Month: Sep; up: 550" role="graphics-symbol" aria-roledescription="text mark" text-anchor="middle" transform="translate(876.4444444444445,87.5)" font-family="Balto" font-size="18px" fill="#fff" opacity="1">550</text></g><g class="mark-group role-legend" role="graphics-symbol" aria-roledescription="legend" aria-label="Symbol legend for stroke color with 2 values: whiteboard until, sievert Licensed"><g transform="translate(-129,0)"><path class="background" aria-hidden="true" d="M0,0h82v29h-82Z" pointer-events="none"></path><g><g class="mark-group role-legend-entry"><g transform="translate(0,0)"><path class="background" aria-hidden="true" d="M0,0h0v0h0Z" pointer-events="none"></path><g><g class="mark-group role-scope" role="graphics-object" aria-roledescription="group mark container"><g transform="translate(0,0)"><path class="background" aria-hidden="true" d="M0,0h81.8203125v12.5h-81.8203125Z" pointer-events="none" opacity="1"></path><g><g class="mark-symbol role-legend-symbol" pointer-events="none"><path transform="translate(6,6)" d="M5,0A5,5,0,1,1,-5,0A5,5,0,1,1,5,0" fill="#333333" stroke="#ae0bfe" stroke-width="1.5" opacity="1"></path></g><g class="mark-text role-legend-label" pointer-events="none"><text text-anchor="start" transform="translate(16,9)" font-family="Balto" font-size="10px" fill="#fff" opacity="1">whiteboard until</text></g></g><path class="foreground" aria-hidden="true" d="" pointer-events="none" display="none"></path></g><g transform="translate(0,16)"><path class="background" aria-hidden="true" d="M0,0h81.8203125v12.5h-81.8203125Z" pointer-events="none" opacity="1"></path><g><g class="mark-symbol role-legend-symbol" pointer-events="none"><path transform="translate(6,6)" d="M5,0A5,5,0,1,1,-5,0A5,5,0,1,1,5,0" fill="#333333" stroke="#ebe6c4" stroke-width="1.5" opacity="1"></path></g><g class="mark-text role-legend-label" pointer-events="none"><text text-anchor="start" transform="translate(16,9)" font-family="Balto" font-size="10px" fill="#fff" opacity="1">sievert Licensed</text></g></g><path class="foreground" aria-hidden="true" d="" pointer-events="none" display="none"></path></g></g></g><path class="foreground" aria-hidden="true" d="" pointer-events="none" display="none"></path></g></g></g><path class="foreground" aria-hidden="true" d="" pointer-events="none" display="none"></path></g></g><g class="mark-group role-title"><g transform="translate(928,-38)"><path class="background" aria-hidden="true" d="M0,0h0v0h0Z" pointer-events="none"></path><g><g class="mark-text role-title-text" role="graphics-symbol" aria-roledescription="title" aria-label="Title text 'Operations Representative reboot'" pointer-events="none"><text text-anchor="end" transform="translate(0,20)" font-family="Balto" font-size="25px" font-weight="bold" fill="#fff" opacity="1">Operations Representative reboot</text></g></g><path class="foreground" aria-hidden="true" d="" pointer-events="none" display="none"></path></g></g></g><path class="foreground" aria-hidden="true" d="" display="none"></path></g></g></g></svg>