<svg xmlns="http://www.w3.org/2000/svg" xmlns:xlink="http://www.w3.org/1999/xlink" version="1.1" class="marks" width="896" height="274" viewBox="0 0 896 274" style="background-color: rgb(51, 51, 51);"><g fill="none" stroke-miterlimit="10" transform="translate(41,43)"><g class="mark-group role-frame root" role="graphics-object" aria-roledescription="group mark container"><g transform="translate(0,0)"><path class="background" aria-hidden="true" d="M0.5,0.5h850v200h-850Z" fill="transparent" stroke="#ddd"></path><g><g class="mark-group role-axis" aria-hidden="true"><g transform="translate(0.5,200.5)"><path class="background" aria-hidden="true" d="M0,0h0v0h0Z" pointer-events="none"></path><g><g class="mark-rule role-axis-grid" pointer-events="none"><line transform="translate(85,-200)" x2="0" y2="200" stroke="#747474" stroke-width="1" stroke-dasharray="4, 2" opacity="1"></line><line transform="translate(255,-200)" x2="0" y2="200" stroke="#747474" stroke-width="1" stroke-dasharray="4, 2" opacity="1"></line><line transform="translate(425,-200)" x2="0" y2="200" stroke="#747474" stroke-width="1" stroke-dasharray="4, 2" opacity="1"></line><line transform="translate(595,-200)" x2="0" y2="200" stroke="#747474" stroke-width="1" stroke-dasharray="4, 2" opacity="1"></line><line transform="translate(765,-200)" x2="0" y2="200" stroke="#747474" stroke-width="1" stroke-dasharray="4, 2" opacity="1"></line></g></g><path class="foreground" aria-hidden="true" d="" pointer-events="none" display="none"></path></g></g><g class="mark-group role-axis" role="graphics-symbol" aria-roledescription="axis" aria-label="X-axis for a discrete scale with 5 values: 1700, 1701, 1702, 1703, 1704"><g transform="translate(0.5,200.5)"><path class="background" aria-hidden="true" d="M0,0h0v0h0Z" pointer-events="none"></path><g><g class="mark-rule role-axis-tick" pointer-events="none"><line transform="translate(85,0)" x2="0" y2="5" stroke="#888" stroke-width="1" opacity="1"></line><line transform="translate(255,0)" x2="0" y2="5" stroke="#888" stroke-width="1" opacity="1"></line><line transform="translate(425,0)" x2="0" y2="5" stroke="#888" stroke-width="1" opacity="1"></line><line transform="translate(595,0)" x2="0" y2="5" stroke="#888" stroke-width="1" opacity="1"></line><line transform="translate(765,0)" x2="0" y2="5" stroke="#888" stroke-width="1" opacity="1"></line></g><g class="mark-text role-axis-label" pointer-events="none"><text text-anchor="middle" transform="translate(85,22)" font-family="serif" font-size="19px" font-weight="bold" fill="#fff" opacity="1">1700</text><text text-anchor="middle" transform="translate(255,22)" font-family="serif" font-size="19px" font-weight="bold" fill="#fff" opacity="1">1701</text><text text-anchor="middle" transform="translate(425,22)" font-family="serif" font-size="19px" font-weight="bold" fill="#fff" opacity="1">1702</text><text text-anchor="middle" transform="translate(595,22)" font-family="serif" font-size="19px" font-weight="bold" fill="#fff" opacity="1">1703</text><text text-anchor="middle" transform="translate(765,22)" font-family="serif" font-size="19px" font-weight="bold" fill="#fff" opacity="1">1704</text></g><g class="mark-rule role-axis-domain" pointer-events="none"><line transform="translate(0,0)" x2="850" y2="0" stroke="#888" stroke-width="1" opacity="1"></line></g></g><path class="foreground" aria-hidden="true" d="" pointer-events="none" display="none"></path></g></g><g class="mark-group role-axis" role="graphics-symbol" aria-roledescription="axis" aria-label="Y-axis for a linear scale with values from 0 to 350"><g transform="translate(0.5,0.5)"><path class="background" aria-hidden="true" d="M0,0h0v0h0Z" pointer-events="none"></path><g><g class="mark-rule role-axis-tick" pointer-events="none"><line transform="translate(0,200)" x2="-5" y2="0" stroke="#888" stroke-width="1" opacity="1"></line><line transform="translate(0,171)" x2="-5" y2="0" stroke="#888" stroke-width="1" opacity="1"></line><line transform="translate(0,143)" x2="-5" y2="0" stroke="#888" stroke-width="1" opacity="1"></line><line transform="translate(0,114)" x2="-5" y2="0" stroke="#888" stroke-width="1" opacity="1"></line><line transform="translate(0,86)" x2="-5" y2="0" stroke="#888" stroke-width="1" opacity="1"></line><line transform="translate(0,57)" x2="-5" y2="0" stroke="#888" stroke-width="1" opacity="1"></line><line transform="translate(0,29)" x2="-5" y2="0" stroke="#888" stroke-width="1" opacity="1"></line><line transform="translate(0,0)" x2="-5" y2="0" stroke="#888" stroke-width="1" opacity="1"></line></g><g class="mark-text role-axis-label" pointer-events="none"><text text-anchor="end" transform="translate(-7,206)" font-family="serif" font-size="19px" font-weight="bold" fill="#fff" opacity="1">0</text><text text-anchor="end" transform="translate(-7,177.42857142857144)" font-family="serif" font-size="19px" font-weight="bold" fill="#fff" opacity="1">50</text><text text-anchor="end" transform="translate(-7,148.85714285714286)" font-family="serif" font-size="19px" font-weight="bold" fill="#fff" opacity="1">100</text><text text-anchor="end" transform="translate(-7,120.28571428571428)" font-family="serif" font-size="19px" font-weight="bold" fill="#fff" opacity="1">150</text><text text-anchor="end" transform="translate(-7,91.71428571428572)" font-family="serif" font-size="19px" font-weight="bold" fill="#fff" opacity="1">200</text><text text-anchor="end" transform="translate(-7,63.14285714285714)" font-family="serif" font-size="19px" font-weight="bold" fill="#fff" opacity="1">250</text><text text-anchor="end" transform="translate(-7,34.571428571428584)" font-family="serif" font-size="19px" font-weight="bold" fill="#fff" opacity="1">300</text><text text-anchor="end" transform="translate(-7,6)" font-family="serif" font-size="19px" font-weight="bold" fill="#fff" opacity="1">350</text></g><g class="mark-rule role-axis-domain" pointer-events="none"><line transform="translate(0,200)" x2="0" y2="-200" stroke="#888" stroke-width="1" opacity="1"></line></g></g><path class="foreground" aria-hidden="true" d="" pointer-events="none" display="none"></path></g></g><g class="mark-group role-scope layer_0_pathgroup" role="graphics-object" aria-roledescription="group mark container"><g transform="translate(0,0)"><path class="background" aria-hidden="true" d="M0,0h850v200h-850Z"></path><g><g class="mark-line role-mark layer_0_marks" role="graphics-object" aria-roledescription="line mark container"><path aria-label="Year: 1700; Neon Bicycle: 27; Hybrid deposit Wooden: El" role="graphics-symbol" aria-roledescription="line mark" d="M85,184.57142857142856L255,37.71428571428572L425,18.85714285714286L595,140L765,171.42857142857144" stroke="#d7efbb" stroke-width="2" stroke-dasharray="1,0"></path></g></g><path class="foreground" aria-hidden="true" d="" display="none"></path></g></g><g class="mark-symbol role-mark layer_1_marks" role="graphics-object" aria-roledescription="symbol mark container"><path aria-label="Year: 1700; Neon Bicycle: 27; Hybrid deposit Wooden: El" role="graphics-symbol" aria-roledescription="point" transform="translate(85,184.57142857142856)" d="M2.7386127875258306,0A2.7386127875258306,2.7386127875258306,0,1,1,-2.7386127875258306,0A2.7386127875258306,2.7386127875258306,0,1,1,2.7386127875258306,0" fill="#333333" stroke="#d7efbb" stroke-width="2" opacity="1"></path><path aria-label="Year: 1701; Neon Bicycle: 284; Hybrid deposit Wooden: El" role="graphics-symbol" aria-roledescription="point" transform="translate(255,37.71428571428572)" d="M2.7386127875258306,0A2.7386127875258306,2.7386127875258306,0,1,1,-2.7386127875258306,0A2.7386127875258306,2.7386127875258306,0,1,1,2.7386127875258306,0" fill="#333333" stroke="#d7efbb" stroke-width="2" opacity="1"></path><path aria-label="Year: 1702; Neon Bicycle: 317; Hybrid deposit Wooden: El" role="graphics-symbol" aria-roledescription="point" transform="translate(425,18.85714285714286)" d="M2.7386127875258306,0A2.7386127875258306,2.7386127875258306,0,1,1,-2.7386127875258306,0A2.7386127875258306,2.7386127875258306,0,1,1,2.7386127875258306,0" fill="#333333" stroke="#d7efbb" stroke-width="2" opacity="1"></path><path aria-label="Year: 1703; Neon Bicycle: 105; Hybrid deposit Wooden: El" role="graphics-symbol" aria-roledescription="point" transform="translate(595,140)" d="M2.7386127875258306,0A2.7386127875258306,2.7386127875258306,0,1,1,-2.7386127875258306,0A2.7386127875258306,2.7386127875258306,0,1,1,2.7386127875258306,0" fill="#333333" stroke="#d7efbb" stroke-width="2" opacity="1"></path><path aria-label="Year: 1704; Neon Bicycle: 50; Hybrid deposit Wooden: El" role="graphics-symbol" aria-roledescription="point" transform="translate(765,171.42857142857144)" d="M2.7386127875258306,0A2.7386127875258306,2.7386127875258306,0,1,1,-2.7386127875258306,0A2.7386127875258306,2.7386127875258306,0,1,1,2.7386127875258306,0" fill="#333333" stroke="#d7efbb" stroke-width="2" opacity="1"></path></g><g class="mark-group role-title"><g transform="translate(425,-38)"><path class="background" aria-hidden="true" d="M0,0h0v0h0Z" pointer-events="none"></path><g><g class="mark-text role-title-text" role="graphics-symbol" aria-roledescription="title" aria-label="Title text 'withdrawal'" pointer-events="none"><text text-anchor="middle" transform="translate(0,20)" font-family="serif" font-size="25px" font-weight="bold" fill="#fff" opacity="1">withdrawal</text></g></g><path class="foreground" aria-hidden="true" d="" pointer-events="none" display="none"></path></g></g></g><path class="foreground" aria-hidden="true" d="" display="none"></path></g></g></g></svg>