<svg xmlns="http://www.w3.org/2000/svg" xmlns:xlink="http://www.w3.org/1999/xlink" version="1.1" class="marks" width="474" height="351" viewBox="0 0 474 351" style="background-color: rgb(255, 255, 255);"><g fill="none" stroke-miterlimit="10" transform="translate(23,56)"><g class="mark-group role-frame root" role="graphics-object" aria-roledescription="group mark container"><g transform="translate(0,0)"><path class="background" aria-hidden="true" d="M0.5,0.5h446v200h-446Z" fill="transparent" stroke="#ddd"></path><g><g class="mark-group role-axis" role="graphics-symbol" aria-roledescription="axis" aria-label="X-axis for a discrete scale with 7 values: 1825, 1827, 1829, 1831, 1833, 1835, 1837"><g transform="translate(0.5,200.5)"><path class="background" aria-hidden="true" d="M0,0h0v0h0Z" pointer-events="none"></path><g><g class="mark-rule role-axis-tick" pointer-events="none"><line transform="translate(32,0)" x2="0" y2="5" stroke="#888" stroke-width="1" opacity="1"></line><line transform="translate(96,0)" x2="0" y2="5" stroke="#888" stroke-width="1" opacity="1"></line><line transform="translate(159,0)" x2="0" y2="5" stroke="#888" stroke-width="1" opacity="1"></line><line transform="translate(223,0)" x2="0" y2="5" stroke="#888" stroke-width="1" opacity="1"></line><line transform="translate(287,0)" x2="0" y2="5" stroke="#888" stroke-width="1" opacity="1"></line><line transform="translate(350,0)" x2="0" y2="5" stroke="#888" stroke-width="1" opacity="1"></line><line transform="translate(414,0)" x2="0" y2="5" stroke="#888" stroke-width="1" opacity="1"></line></g><g class="mark-text role-axis-label" pointer-events="none"><text text-anchor="start" transform="translate(31.85714285714286,7) rotate(90) translate(0,5)" font-family="sans-serif" font-size="16px" font-weight="bold" fill="#000" opacity="1">1825</text><text text-anchor="start" transform="translate(95.57142857142858,7) rotate(90) translate(0,5)" font-family="sans-serif" font-size="16px" font-weight="bold" fill="#000" opacity="1">1827</text><text text-anchor="start" transform="translate(159.28571428571428,7) rotate(90) translate(0,5)" font-family="sans-serif" font-size="16px" font-weight="bold" fill="#000" opacity="1">1829</text><text text-anchor="start" transform="translate(223,7) rotate(90) translate(0,5)" font-family="sans-serif" font-size="16px" font-weight="bold" fill="#000" opacity="1">1831</text><text text-anchor="start" transform="translate(286.7142857142857,7) rotate(90) translate(0,5)" font-family="sans-serif" font-size="16px" font-weight="bold" fill="#000" opacity="1">1833</text><text text-anchor="start" transform="translate(350.42857142857144,7) rotate(90) translate(0,5)" font-family="sans-serif" font-size="16px" font-weight="bold" fill="#000" opacity="1">1835</text><text text-anchor="start" transform="translate(414.1428571428571,7) rotate(90) translate(0,5)" font-family="sans-serif" font-size="16px" font-weight="bold" fill="#000" opacity="1">1837</text></g><g class="mark-rule role-axis-domain" pointer-events="none"><line transform="translate(0,0)" x2="446" y2="0" stroke="#888" stroke-width="1" opacity="1"></line></g></g><path class="foreground" aria-hidden="true" d="" pointer-events="none" display="none"></path></g></g><g class="mark-group role-axis" role="graphics-symbol" aria-roledescription="axis" aria-label="Y-axis for a linear scale with values from 0 to 600"><g transform="translate(0.5,0.5)"><path class="background" aria-hidden="true" d="M0,0h0v0h0Z" pointer-events="none"></path><g><g class="mark-text role-axis-label" pointer-events="none"><text text-anchor="middle" transform="translate(-2,200) rotate(90) translate(0,13)" font-family="sans-serif" font-size="16px" font-weight="bold" fill="#000" opacity="1">0</text><text text-anchor="middle" transform="translate(-2,166.66666666666669) rotate(90) translate(0,13)" font-family="sans-serif" font-size="16px" font-weight="bold" fill="#000" opacity="1">100</text><text text-anchor="middle" transform="translate(-2,133.33333333333334) rotate(90) translate(0,13)" font-family="sans-serif" font-size="16px" font-weight="bold" fill="#000" opacity="1">200</text><text text-anchor="middle" transform="translate(-2,100) rotate(90) translate(0,13)" font-family="sans-serif" font-size="16px" font-weight="bold" fill="#000" opacity="1">300</text><text text-anchor="middle" transform="translate(-2,66.66666666666667) rotate(90) translate(0,13)" font-family="sans-serif" font-size="16px" font-weight="bold" fill="#000" opacity="1">400</text><text text-anchor="middle" transform="translate(-2,33.33333333333333) rotate(90) translate(0,13)" font-family="sans-serif" font-size="16px" font-weight="bold" fill="#000" opacity="1">500</text><text text-anchor="middle" transform="translate(-2,0) rotate(90) translate(0,13)" font-family="sans-serif" font-size="16px" font-weight="bold" fill="#000" opacity="1">600</text></g></g><path class="foreground" aria-hidden="true" d="" pointer-events="none" display="none"></path></g></g><g class="mark-group role-scope layer_0_pathgroup" role="graphics-object" aria-roledescription="group mark container"><g transform="translate(0,0)"><path class="background" aria-hidden="true" d="M0,0h446v200h-446Z"></path><g><g class="mark-line role-mark layer_0_marks" role="graphics-object" aria-roledescription="line mark container"><path aria-label="Year: 1825; over: 428; Cyclocross huzzah Street: Shoes" role="graphics-symbol" aria-roledescription="line mark" d="M31.85714285714286,57.33333333333333C53.0952380952381,114.09031339031338,74.33333333333334,170.84729344729345,95.57142857142858,161.33333333333331C116.80952380952382,151.81937321937318,138.04761904761907,76.03447293447293,159.28571428571428,80C180.5238095238095,83.96552706552707,201.76190476190473,167.68148148148146,223,166C244.23809523809527,164.31851851851854,265.4761904761905,77.23960113960115,286.7142857142857,49.33333333333334C307.95238095238096,21.42706552706553,329.1904761904762,52.693447293447306,350.42857142857144,61.00000000000001C371.6666666666667,69.30655270655271,392.9047619047619,54.653276353276354,414.1428571428571,39.99999999999999" stroke="#c88d1f" stroke-width="2" stroke-dasharray="1,0"></path></g></g><path class="foreground" aria-hidden="true" d="" display="none"></path></g><g transform="translate(0,0)"><path class="background" aria-hidden="true" d="M0,0h446v200h-446Z"></path><g><g class="mark-line role-mark layer_0_marks" role="graphics-object" aria-roledescription="line mark container"><path aria-label="Year: 1825; over: 337; Cyclocross huzzah Street: Markets District" role="graphics-symbol" aria-roledescription="line mark" d="M31.85714285714286,87.66666666666667C53.0952380952381,113.21638176638179,74.33333333333334,138.7660968660969,95.57142857142858,164C116.80952380952382,189.2339031339031,138.04761904761907,214.1519943019943,159.28571428571428,173.66666666666669C180.5238095238095,133.18133903133906,201.76190476190473,27.292592592592584,223,37.999999999999986C244.23809523809527,48.70740740740739,265.4761904761905,176.01096866096867,286.7142857142857,175.33333333333334C307.95238095238096,174.655698005698,329.1904761904762,45.9968660968661,350.42857142857144,4.666666666666663C371.6666666666667,-36.66353276353277,392.9047619047619,9.334900284900275,414.1428571428571,55.33333333333332" stroke="#bcfccb" stroke-width="2" stroke-dasharray="1,0"></path></g></g><path class="foreground" aria-hidden="true" d="" display="none"></path></g></g><g class="mark-symbol role-mark layer_1_marks" role="graphics-object" aria-roledescription="symbol mark container"><path aria-label="Year: 1825; over: 428; Cyclocross huzzah Street: Shoes" role="graphics-symbol" aria-roledescription="point" transform="translate(31.85714285714286,57.33333333333333)" d="M2.7386127875258306,0A2.7386127875258306,2.7386127875258306,0,1,1,-2.7386127875258306,0A2.7386127875258306,2.7386127875258306,0,1,1,2.7386127875258306,0" fill="#fff" stroke="#c88d1f" stroke-width="4" opacity="1"></path><path aria-label="Year: 1827; over: 116; Cyclocross huzzah Street: Shoes" role="graphics-symbol" aria-roledescription="point" transform="translate(95.57142857142858,161.33333333333331)" d="M2.7386127875258306,0A2.7386127875258306,2.7386127875258306,0,1,1,-2.7386127875258306,0A2.7386127875258306,2.7386127875258306,0,1,1,2.7386127875258306,0" fill="#fff" stroke="#c88d1f" stroke-width="4" opacity="1"></path><path aria-label="Year: 1829; over: 360; Cyclocross huzzah Street: Shoes" role="graphics-symbol" aria-roledescription="point" transform="translate(159.28571428571428,80)" d="M2.7386127875258306,0A2.7386127875258306,2.7386127875258306,0,1,1,-2.7386127875258306,0A2.7386127875258306,2.7386127875258306,0,1,1,2.7386127875258306,0" fill="#fff" stroke="#c88d1f" stroke-width="4" opacity="1"></path><path aria-label="Year: 1831; over: 102; Cyclocross huzzah Street: Shoes" role="graphics-symbol" aria-roledescription="point" transform="translate(223,166)" d="M2.7386127875258306,0A2.7386127875258306,2.7386127875258306,0,1,1,-2.7386127875258306,0A2.7386127875258306,2.7386127875258306,0,1,1,2.7386127875258306,0" fill="#fff" stroke="#c88d1f" stroke-width="4" opacity="1"></path><path aria-label="Year: 1833; over: 452; Cyclocross huzzah Street: Shoes" role="graphics-symbol" aria-roledescription="point" transform="translate(286.7142857142857,49.33333333333334)" d="M2.7386127875258306,0A2.7386127875258306,2.7386127875258306,0,1,1,-2.7386127875258306,0A2.7386127875258306,2.7386127875258306,0,1,1,2.7386127875258306,0" fill="#fff" stroke="#c88d1f" stroke-width="4" opacity="1"></path><path aria-label="Year: 1835; over: 417; Cyclocross huzzah Street: Shoes" role="graphics-symbol" aria-roledescription="point" transform="translate(350.42857142857144,61.00000000000001)" d="M2.7386127875258306,0A2.7386127875258306,2.7386127875258306,0,1,1,-2.7386127875258306,0A2.7386127875258306,2.7386127875258306,0,1,1,2.7386127875258306,0" fill="#fff" stroke="#c88d1f" stroke-width="4" opacity="1"></path><path aria-label="Year: 1837; over: 480; Cyclocross huzzah Street: Shoes" role="graphics-symbol" aria-roledescription="point" transform="translate(414.1428571428571,39.99999999999999)" d="M2.7386127875258306,0A2.7386127875258306,2.7386127875258306,0,1,1,-2.7386127875258306,0A2.7386127875258306,2.7386127875258306,0,1,1,2.7386127875258306,0" fill="#fff" stroke="#c88d1f" stroke-width="4" opacity="1"></path><path aria-label="Year: 1825; over: 337; Cyclocross huzzah Street: Markets District" role="graphics-symbol" aria-roledescription="point" transform="translate(31.85714285714286,87.66666666666667)" d="M2.7386127875258306,0A2.7386127875258306,2.7386127875258306,0,1,1,-2.7386127875258306,0A2.7386127875258306,2.7386127875258306,0,1,1,2.7386127875258306,0" fill="#fff" stroke="#bcfccb" stroke-width="4" opacity="1"></path><path aria-label="Year: 1827; over: 108; Cyclocross huzzah Street: Markets District" role="graphics-symbol" aria-roledescription="point" transform="translate(95.57142857142858,164)" d="M2.7386127875258306,0A2.7386127875258306,2.7386127875258306,0,1,1,-2.7386127875258306,0A2.7386127875258306,2.7386127875258306,0,1,1,2.7386127875258306,0" fill="#fff" stroke="#bcfccb" stroke-width="4" opacity="1"></path><path aria-label="Year: 1829; over: 79; Cyclocross huzzah Street: Markets District" role="graphics-symbol" aria-roledescription="point" transform="translate(159.28571428571428,173.66666666666669)" d="M2.7386127875258306,0A2.7386127875258306,2.7386127875258306,0,1,1,-2.7386127875258306,0A2.7386127875258306,2.7386127875258306,0,1,1,2.7386127875258306,0" fill="#fff" stroke="#bcfccb" stroke-width="4" opacity="1"></path><path aria-label="Year: 1831; over: 486; Cyclocross huzzah Street: Markets District" role="graphics-symbol" aria-roledescription="point" transform="translate(223,37.999999999999986)" d="M2.7386127875258306,0A2.7386127875258306,2.7386127875258306,0,1,1,-2.7386127875258306,0A2.7386127875258306,2.7386127875258306,0,1,1,2.7386127875258306,0" fill="#fff" stroke="#bcfccb" stroke-width="4" opacity="1"></path><path aria-label="Year: 1833; over: 74; Cyclocross huzzah Street: Markets District" role="graphics-symbol" aria-roledescription="point" transform="translate(286.7142857142857,175.33333333333334)" d="M2.7386127875258306,0A2.7386127875258306,2.7386127875258306,0,1,1,-2.7386127875258306,0A2.7386127875258306,2.7386127875258306,0,1,1,2.7386127875258306,0" fill="#fff" stroke="#bcfccb" stroke-width="4" opacity="1"></path><path aria-label="Year: 1835; over: 586; Cyclocross huzzah Street: Markets District" role="graphics-symbol" aria-roledescription="point" transform="translate(350.42857142857144,4.666666666666663)" d="M2.7386127875258306,0A2.7386127875258306,2.7386127875258306,0,1,1,-2.7386127875258306,0A2.7386127875258306,2.7386127875258306,0,1,1,2.7386127875258306,0" fill="#fff" stroke="#bcfccb" stroke-width="4" opacity="1"></path><path aria-label="Year: 1837; over: 434; Cyclocross huzzah Street: Markets District" role="graphics-symbol" aria-roledescription="point" transform="translate(414.1428571428571,55.33333333333332)" d="M2.7386127875258306,0A2.7386127875258306,2.7386127875258306,0,1,1,-2.7386127875258306,0A2.7386127875258306,2.7386127875258306,0,1,1,2.7386127875258306,0" fill="#fff" stroke="#bcfccb" stroke-width="4" opacity="1"></path></g><g class="mark-text role-mark layer_2_marks" role="graphics-object" aria-roledescription="text mark container"><text aria-label="Year: 1825; over: 428" role="graphics-symbol" aria-roledescription="text mark" text-anchor="middle" transform="translate(31.85714285714286,41.33333333333333)" font-family="sans-serif" font-size="13px" fill="#000" opacity="1">428</text><text aria-label="Year: 1827; over: 116" role="graphics-symbol" aria-roledescription="text mark" text-anchor="middle" transform="translate(95.57142857142858,145.33333333333331)" font-family="sans-serif" font-size="13px" fill="#000" opacity="1">116</text><text aria-label="Year: 1829; over: 360" role="graphics-symbol" aria-roledescription="text mark" text-anchor="middle" transform="translate(159.28571428571428,64)" font-family="sans-serif" font-size="13px" fill="#000" opacity="1">360</text><text aria-label="Year: 1831; over: 102" role="graphics-symbol" aria-roledescription="text mark" text-anchor="middle" transform="translate(223,150)" font-family="sans-serif" font-size="13px" fill="#000" opacity="1">102</text><text aria-label="Year: 1833; over: 452" role="graphics-symbol" aria-roledescription="text mark" text-anchor="middle" transform="translate(286.7142857142857,33.33333333333334)" font-family="sans-serif" font-size="13px" fill="#000" opacity="1">452</text><text aria-label="Year: 1835; over: 417" role="graphics-symbol" aria-roledescription="text mark" text-anchor="middle" transform="translate(350.42857142857144,45.00000000000001)" font-family="sans-serif" font-size="13px" fill="#000" opacity="1">417</text><text aria-label="Year: 1837; over: 480" role="graphics-symbol" aria-roledescription="text mark" text-anchor="middle" transform="translate(414.1428571428571,23.999999999999993)" font-family="sans-serif" font-size="13px" fill="#000" opacity="1">480</text><text aria-label="Year: 1825; over: 337" role="graphics-symbol" aria-roledescription="text mark" text-anchor="middle" transform="translate(31.85714285714286,71.66666666666667)" font-family="sans-serif" font-size="13px" fill="#000" opacity="1">337</text><text aria-label="Year: 1827; over: 108" role="graphics-symbol" aria-roledescription="text mark" text-anchor="middle" transform="translate(95.57142857142858,148)" font-family="sans-serif" font-size="13px" fill="#000" opacity="1">108</text><text aria-label="Year: 1829; over: 79" role="graphics-symbol" aria-roledescription="text mark" text-anchor="middle" transform="translate(159.28571428571428,157.66666666666669)" font-family="sans-serif" font-size="13px" fill="#000" opacity="1">79</text><text aria-label="Year: 1831; over: 486" role="graphics-symbol" aria-roledescription="text mark" text-anchor="middle" transform="translate(223,21.999999999999986)" font-family="sans-serif" font-size="13px" fill="#000" opacity="1">486</text><text aria-label="Year: 1833; over: 74" role="graphics-symbol" aria-roledescription="text mark" text-anchor="middle" transform="translate(286.7142857142857,159.33333333333334)" font-family="sans-serif" font-size="13px" fill="#000" opacity="1">74</text><text aria-label="Year: 1835; over: 586" role="graphics-symbol" aria-roledescription="text mark" text-anchor="middle" transform="translate(350.42857142857144,-11.333333333333336)" font-family="sans-serif" font-size="13px" fill="#000" opacity="1">586</text><text aria-label="Year: 1837; over: 434" role="graphics-symbol" aria-roledescription="text mark" text-anchor="middle" transform="translate(414.1428571428571,39.33333333333332)" font-family="sans-serif" font-size="13px" fill="#000" opacity="1">434</text></g><g class="mark-group role-legend" role="graphics-symbol" aria-roledescription="legend" aria-label="Symbol legend titled 'Cyclocross huzzah Street' for stroke color with 2 values: Shoes, Markets District"><g transform="translate(0,261)"><path class="background" aria-hidden="true" d="M0,0h141v29h-141Z" pointer-events="none"></path><g><g class="mark-group role-legend-entry"><g transform="translate(0,16)"><path class="background" aria-hidden="true" d="M0,0h0v0h0Z" pointer-events="none"></path><g><g class="mark-group role-scope" role="graphics-object" aria-roledescription="group mark container"><g transform="translate(0,0.25)"><path class="background" aria-hidden="true" d="M0,0h44.3544921875v12.5h-44.3544921875Z" pointer-events="none" opacity="1"></path><g><g class="mark-symbol role-legend-symbol" pointer-events="none"><path transform="translate(6,6)" d="M5,0A5,5,0,1,1,-5,0A5,5,0,1,1,5,0" fill="#fff" stroke="#c88d1f" stroke-width="1.5" opacity="1"></path></g><g class="mark-text role-legend-label" pointer-events="none"><text text-anchor="start" transform="translate(16,9)" font-family="sans-serif" font-size="10px" fill="#000" opacity="1">Shoes</text></g></g><path class="foreground" aria-hidden="true" d="" pointer-events="none" display="none"></path></g><g transform="translate(56,0.25)"><path class="background" aria-hidden="true" d="M0,0h84.8916015625v12.5h-84.8916015625Z" pointer-events="none" opacity="1"></path><g><g class="mark-symbol role-legend-symbol" pointer-events="none"><path transform="translate(6,6)" d="M5,0A5,5,0,1,1,-5,0A5,5,0,1,1,5,0" fill="#fff" stroke="#bcfccb" stroke-width="1.5" opacity="1"></path></g><g class="mark-text role-legend-label" pointer-events="none"><text text-anchor="start" transform="translate(16,9)" font-family="sans-serif" font-size="10px" fill="#000" opacity="1">Markets District</text></g></g><path class="foreground" aria-hidden="true" d="" pointer-events="none" display="none"></path></g></g></g><path class="foreground" aria-hidden="true" d="" pointer-events="none" display="none"></path></g></g><g class="mark-text role-legend-title" pointer-events="none"><text text-anchor="start" transform="translate(0,9)" font-family="sans-serif" font-size="11px" font-weight="bold" fill="#000" opacity="1">Cyclocross huzzah Street</text></g></g><path class="foreground" aria-hidden="true" d="" pointer-events="none" display="none"></path></g></g><g class="mark-group role-title"><g transform="translate(-18,-50.333333333333336)"><path class="background" aria-hidden="true" d="M0,0h0v0h0Z" pointer-events="none"></path><g><g class="mark-text role-title-text" role="graphics-symbol" aria-roledescription="title" aria-label="Title text 'Mountain Bike'" pointer-events="none"><text text-anchor="start" transform="translate(0,20)" font-family="sans-serif" font-size="25px" font-weight="bold" fill="#000" opacity="1">Mountain Bike</text></g></g><path class="foreground" aria-hidden="true" d="" pointer-events="none" display="none"></path></g></g></g><path class="foreground" aria-hidden="true" d="" display="none"></path></g></g></g></svg>