<svg xmlns="http://www.w3.org/2000/svg" xmlns:xlink="http://www.w3.org/1999/xlink" version="1.1" class="marks" width="1016" height="256" viewBox="0 0 1016 256" style="background-color: rgb(51, 51, 51);"><g fill="none" stroke-miterlimit="10" transform="translate(27,34)"><g class="mark-group role-frame root" role="graphics-object" aria-roledescription="group mark container"><g transform="translate(0,0)"><path class="background" aria-hidden="true" d="M0.5,0.5h984v200h-984Z" fill="transparent" stroke="#ddd"></path><g><g class="mark-group role-axis" aria-hidden="true"><g transform="translate(0.5,0.5)"><path class="background" aria-hidden="true" d="M0,0h0v0h0Z" pointer-events="none"></path><g><g class="mark-rule role-axis-grid" pointer-events="none"><line transform="translate(0,200)" x2="984" y2="0" stroke="#747474" stroke-width="1" stroke-dasharray="4, 2" opacity="1"></line><line transform="translate(0,169)" x2="984" y2="0" stroke="#747474" stroke-width="1" stroke-dasharray="4, 2" opacity="1"></line><line transform="translate(0,138)" x2="984" y2="0" stroke="#747474" stroke-width="1" stroke-dasharray="4, 2" opacity="1"></line><line transform="translate(0,108)" x2="984" y2="0" stroke="#747474" stroke-width="1" stroke-dasharray="4, 2" opacity="1"></line><line transform="translate(0,77)" x2="984" y2="0" stroke="#747474" stroke-width="1" stroke-dasharray="4, 2" opacity="1"></line><line transform="translate(0,46)" x2="984" y2="0" stroke="#747474" stroke-width="1" stroke-dasharray="4, 2" opacity="1"></line><line transform="translate(0,15)" x2="984" y2="0" stroke="#747474" stroke-width="1" stroke-dasharray="4, 2" opacity="1"></line></g></g><path class="foreground" aria-hidden="true" d="" pointer-events="none" display="none"></path></g></g><g class="mark-group role-axis" role="graphics-symbol" aria-roledescription="axis" aria-label="X-axis for a discrete scale with 7 values: Jan, Feb, Mar, Apr, May, June, July"><g transform="translate(0.5,200.5)"><path class="background" aria-hidden="true" d="M0,0h0v0h0Z" pointer-events="none"></path><g><g class="mark-rule role-axis-tick" pointer-events="none"><line transform="translate(70,0)" x2="0" y2="5" stroke="#888" stroke-width="1" opacity="1"></line><line transform="translate(211,0)" x2="0" y2="5" stroke="#888" stroke-width="1" opacity="1"></line><line transform="translate(351,0)" x2="0" y2="5" stroke="#888" stroke-width="1" opacity="1"></line><line transform="translate(492,0)" x2="0" y2="5" stroke="#888" stroke-width="1" opacity="1"></line><line transform="translate(633,0)" x2="0" y2="5" stroke="#888" stroke-width="1" opacity="1"></line><line transform="translate(773,0)" x2="0" y2="5" stroke="#888" stroke-width="1" opacity="1"></line><line transform="translate(914,0)" x2="0" y2="5" stroke="#888" stroke-width="1" opacity="1"></line></g><g class="mark-text role-axis-label" pointer-events="none"><text text-anchor="middle" transform="translate(70.28571428571422,15)" font-family="avenir" font-size="10px" font-weight="bold" fill="#fff" opacity="1">Jan</text><text text-anchor="middle" transform="translate(210.8571428571428,15)" font-family="avenir" font-size="10px" font-weight="bold" fill="#fff" opacity="1">Feb</text><text text-anchor="middle" transform="translate(351.4285714285714,15)" font-family="avenir" font-size="10px" font-weight="bold" fill="#fff" opacity="1">Mar</text><text text-anchor="middle" transform="translate(492,15)" font-family="avenir" font-size="10px" font-weight="bold" fill="#fff" opacity="1">Apr</text><text text-anchor="middle" transform="translate(632.5714285714286,15)" font-family="avenir" font-size="10px" font-weight="bold" fill="#fff" opacity="1">May</text><text text-anchor="middle" transform="translate(773.1428571428571,15)" font-family="avenir" font-size="10px" font-weight="bold" fill="#fff" opacity="1">June</text><text text-anchor="middle" transform="translate(913.7142857142858,15)" font-family="avenir" font-size="10px" font-weight="bold" fill="#fff" opacity="1">July</text></g><g class="mark-rule role-axis-domain" pointer-events="none"><line transform="translate(0,0)" x2="984" y2="0" stroke="#888" stroke-width="1" opacity="1"></line></g></g><path class="foreground" aria-hidden="true" d="" pointer-events="none" display="none"></path></g></g><g class="mark-group role-axis" role="graphics-symbol" aria-roledescription="axis" aria-label="Y-axis for a linear scale with values from 0 to 650"><g transform="translate(0.5,0.5)"><path class="background" aria-hidden="true" d="M0,0h0v0h0Z" pointer-events="none"></path><g><g class="mark-rule role-axis-tick" pointer-events="none"><line transform="translate(0,200)" x2="-5" y2="0" stroke="#888" stroke-width="1" opacity="1"></line><line transform="translate(0,169)" x2="-5" y2="0" stroke="#888" stroke-width="1" opacity="1"></line><line transform="translate(0,138)" x2="-5" y2="0" stroke="#888" stroke-width="1" opacity="1"></line><line transform="translate(0,108)" x2="-5" y2="0" stroke="#888" stroke-width="1" opacity="1"></line><line transform="translate(0,77)" x2="-5" y2="0" stroke="#888" stroke-width="1" opacity="1"></line><line transform="translate(0,46)" x2="-5" y2="0" stroke="#888" stroke-width="1" opacity="1"></line><line transform="translate(0,15)" x2="-5" y2="0" stroke="#888" stroke-width="1" opacity="1"></line></g><g class="mark-text role-axis-label" pointer-events="none"><text text-anchor="end" transform="translate(-7,203)" font-family="avenir" font-size="10px" font-weight="bold" fill="#fff" opacity="1">0</text><text text-anchor="end" transform="translate(-7,172.23076923076923)" font-family="avenir" font-size="10px" font-weight="bold" fill="#fff" opacity="1">100</text><text text-anchor="end" transform="translate(-7,141.46153846153845)" font-family="avenir" font-size="10px" font-weight="bold" fill="#fff" opacity="1">200</text><text text-anchor="end" transform="translate(-7,110.6923076923077)" font-family="avenir" font-size="10px" font-weight="bold" fill="#fff" opacity="1">300</text><text text-anchor="end" transform="translate(-7,79.92307692307692)" font-family="avenir" font-size="10px" font-weight="bold" fill="#fff" opacity="1">400</text><text text-anchor="end" transform="translate(-7,49.153846153846146)" font-family="avenir" font-size="10px" font-weight="bold" fill="#fff" opacity="1">500</text><text text-anchor="end" transform="translate(-7,18.384615384615373)" font-family="avenir" font-size="10px" font-weight="bold" fill="#fff" opacity="1">600</text></g><g class="mark-rule role-axis-domain" pointer-events="none"><line transform="translate(0,200)" x2="0" y2="-200" stroke="#888" stroke-width="1" opacity="1"></line></g></g><path class="foreground" aria-hidden="true" d="" pointer-events="none" display="none"></path></g></g><g class="mark-group role-scope layer_0_pathgroup" role="graphics-object" aria-roledescription="group mark container"><g transform="translate(0,0)"><path class="background" aria-hidden="true" d="M0,0h984v200h-984Z"></path><g><g class="mark-line role-mark layer_0_marks" role="graphics-object" aria-roledescription="line mark container"><path aria-label="Month: Jan; Bellflower: 5; Iowa maroon: North Unbranded payment" role="graphics-symbol" aria-roledescription="line mark" d="M70.28571428571422,198.46153846153845L210.8571428571428,12.00000000000001L351.4285714285714,177.53846153846155L492,144L632.5714285714286,88.92307692307693L773.1428571428571,41.230769230769226L913.7142857142858,188.6153846153846" stroke="#473ecb" stroke-width="2" stroke-dasharray="1,0"></path></g></g><path class="foreground" aria-hidden="true" d="" display="none"></path></g></g><g class="mark-symbol role-mark layer_1_marks" role="graphics-object" aria-roledescription="symbol mark container"><path aria-label="Month: Jan; Bellflower: 5; Iowa maroon: North Unbranded payment" role="graphics-symbol" aria-roledescription="point" transform="translate(70.28571428571422,198.46153846153845)" d="M5.937171043518958,0A5.937171043518958,5.937171043518958,0,1,1,-5.937171043518958,0A5.937171043518958,5.937171043518958,0,1,1,5.937171043518958,0" fill="#473ecb" stroke-width="4" opacity="1"></path><path aria-label="Month: Feb; Bellflower: 611; Iowa maroon: North Unbranded payment" role="graphics-symbol" aria-roledescription="point" transform="translate(210.8571428571428,12.00000000000001)" d="M5.937171043518958,0A5.937171043518958,5.937171043518958,0,1,1,-5.937171043518958,0A5.937171043518958,5.937171043518958,0,1,1,5.937171043518958,0" fill="#473ecb" stroke-width="4" opacity="1"></path><path aria-label="Month: Mar; Bellflower: 73; Iowa maroon: North Unbranded payment" role="graphics-symbol" aria-roledescription="point" transform="translate(351.4285714285714,177.53846153846155)" d="M5.937171043518958,0A5.937171043518958,5.937171043518958,0,1,1,-5.937171043518958,0A5.937171043518958,5.937171043518958,0,1,1,5.937171043518958,0" fill="#473ecb" stroke-width="4" opacity="1"></path><path aria-label="Month: Apr; Bellflower: 182; Iowa maroon: North Unbranded payment" role="graphics-symbol" aria-roledescription="point" transform="translate(492,144)" d="M5.937171043518958,0A5.937171043518958,5.937171043518958,0,1,1,-5.937171043518958,0A5.937171043518958,5.937171043518958,0,1,1,5.937171043518958,0" fill="#473ecb" stroke-width="4" opacity="1"></path><path aria-label="Month: May; Bellflower: 361; Iowa maroon: North Unbranded payment" role="graphics-symbol" aria-roledescription="point" transform="translate(632.5714285714286,88.92307692307693)" d="M5.937171043518958,0A5.937171043518958,5.937171043518958,0,1,1,-5.937171043518958,0A5.937171043518958,5.937171043518958,0,1,1,5.937171043518958,0" fill="#473ecb" stroke-width="4" opacity="1"></path><path aria-label="Month: June; Bellflower: 516; Iowa maroon: North Unbranded payment" role="graphics-symbol" aria-roledescription="point" transform="translate(773.1428571428571,41.230769230769226)" d="M5.937171043518958,0A5.937171043518958,5.937171043518958,0,1,1,-5.937171043518958,0A5.937171043518958,5.937171043518958,0,1,1,5.937171043518958,0" fill="#473ecb" stroke-width="4" opacity="1"></path><path aria-label="Month: July; Bellflower: 37; Iowa maroon: North Unbranded payment" role="graphics-symbol" aria-roledescription="point" transform="translate(913.7142857142858,188.6153846153846)" d="M5.937171043518958,0A5.937171043518958,5.937171043518958,0,1,1,-5.937171043518958,0A5.937171043518958,5.937171043518958,0,1,1,5.937171043518958,0" fill="#473ecb" stroke-width="4" opacity="1"></path></g><g class="mark-group role-title"><g transform="translate(-22,-29)"><path class="background" aria-hidden="true" d="M0,0h0v0h0Z" pointer-events="none"></path><g><g class="mark-text role-title-text" role="graphics-symbol" aria-roledescription="title" aria-label="Title text 'violet Bicycle'" pointer-events="none"><text text-anchor="start" transform="translate(0,20)" font-family="avenir" font-size="25px" font-weight="bold" fill="#fff" opacity="1">violet Bicycle</text></g></g><path class="foreground" aria-hidden="true" d="" pointer-events="none" display="none"></path></g></g></g><path class="foreground" aria-hidden="true" d="" display="none"></path></g></g></g></svg>