<svg xmlns="http://www.w3.org/2000/svg" xmlns:xlink="http://www.w3.org/1999/xlink" version="1.1" class="marks" width="719" height="282" viewBox="0 0 719 282" style="background-color: rgb(255, 255, 255);"><g fill="none" stroke-miterlimit="10" transform="translate(19,45)"><g class="mark-group role-frame root" role="graphics-object" aria-roledescription="group mark container"><g transform="translate(0,0)"><path class="background" aria-hidden="true" d="M0.5,0.5h695v200h-695Z" fill="transparent" stroke="#ddd"></path><g><g class="mark-group role-axis" aria-hidden="true"><g transform="translate(0.5,0.5)"><path class="background" aria-hidden="true" d="M0,0h0v0h0Z" pointer-events="none"></path><g><g class="mark-rule role-axis-grid" pointer-events="none"><line transform="translate(0,200)" x2="695" y2="0" stroke="#D0D0D0" stroke-width="1" stroke-dasharray="1,0" opacity="1"></line><line transform="translate(0,155)" x2="695" y2="0" stroke="#D0D0D0" stroke-width="1" stroke-dasharray="1,0" opacity="1"></line><line transform="translate(0,109)" x2="695" y2="0" stroke="#D0D0D0" stroke-width="1" stroke-dasharray="1,0" opacity="1"></line><line transform="translate(0,64)" x2="695" y2="0" stroke="#D0D0D0" stroke-width="1" stroke-dasharray="1,0" opacity="1"></line><line transform="translate(0,18)" x2="695" y2="0" stroke="#D0D0D0" stroke-width="1" stroke-dasharray="1,0" opacity="1"></line></g></g><path class="foreground" aria-hidden="true" d="" pointer-events="none" display="none"></path></g></g><g class="mark-group role-axis" role="graphics-symbol" aria-roledescription="axis" aria-label="X-axis for a discrete scale with 11 values: Jan, Feb, Mar, Apr, May, ending with Nov"><g transform="translate(0.5,200.5)"><path class="background" aria-hidden="true" d="M0,0h0v0h0Z" pointer-events="none"></path><g><g class="mark-rule role-axis-tick" pointer-events="none"><line transform="translate(32,0)" x2="0" y2="5" stroke="#888" stroke-width="1" opacity="1"></line><line transform="translate(95,0)" x2="0" y2="5" stroke="#888" stroke-width="1" opacity="1"></line><line transform="translate(158,0)" x2="0" y2="5" stroke="#888" stroke-width="1" opacity="1"></line><line transform="translate(221,0)" x2="0" y2="5" stroke="#888" stroke-width="1" opacity="1"></line><line transform="translate(284,0)" x2="0" y2="5" stroke="#888" stroke-width="1" opacity="1"></line><line transform="translate(348,0)" x2="0" y2="5" stroke="#888" stroke-width="1" opacity="1"></line><line transform="translate(411,0)" x2="0" y2="5" stroke="#888" stroke-width="1" opacity="1"></line><line transform="translate(474,0)" x2="0" y2="5" stroke="#888" stroke-width="1" opacity="1"></line><line transform="translate(537,0)" x2="0" y2="5" stroke="#888" stroke-width="1" opacity="1"></line><line transform="translate(600,0)" x2="0" y2="5" stroke="#888" stroke-width="1" opacity="1"></line><line transform="translate(663,0)" x2="0" y2="5" stroke="#888" stroke-width="1" opacity="1"></line></g><g class="mark-text role-axis-label" pointer-events="none"><text text-anchor="start" transform="translate(31.590909090909122,7) rotate(90) translate(0,3)" font-family="monospace" font-size="11px" font-weight="bold" fill="#000" opacity="1">Jan</text><text text-anchor="start" transform="translate(94.77272727272731,7) rotate(90) translate(0,3)" font-family="monospace" font-size="11px" font-weight="bold" fill="#000" opacity="1">Feb</text><text text-anchor="start" transform="translate(157.9545454545455,7) rotate(90) translate(0,3)" font-family="monospace" font-size="11px" font-weight="bold" fill="#000" opacity="1">Mar</text><text text-anchor="start" transform="translate(221.13636363636365,7) rotate(90) translate(0,3)" font-family="monospace" font-size="11px" font-weight="bold" fill="#000" opacity="1">Apr</text><text text-anchor="start" transform="translate(284.31818181818187,7) rotate(90) translate(0,3)" font-family="monospace" font-size="11px" font-weight="bold" fill="#000" opacity="1">May</text><text text-anchor="start" transform="translate(347.5,7) rotate(90) translate(0,3)" font-family="monospace" font-size="11px" font-weight="bold" fill="#000" opacity="1">June</text><text text-anchor="start" transform="translate(410.6818181818182,7) rotate(90) translate(0,3)" font-family="monospace" font-size="11px" font-weight="bold" fill="#000" opacity="1">July</text><text text-anchor="start" transform="translate(473.8636363636364,7) rotate(90) translate(0,3)" font-family="monospace" font-size="11px" font-weight="bold" fill="#000" opacity="1">Aug</text><text text-anchor="start" transform="translate(537.0454545454545,7) rotate(90) translate(0,3)" font-family="monospace" font-size="11px" font-weight="bold" fill="#000" opacity="1">Sep</text><text text-anchor="start" transform="translate(600.2272727272727,7) rotate(90) translate(0,3)" font-family="monospace" font-size="11px" font-weight="bold" fill="#000" opacity="1">Oct</text><text text-anchor="start" transform="translate(663.4090909090909,7) rotate(90) translate(0,3)" font-family="monospace" font-size="11px" font-weight="bold" fill="#000" opacity="1">Nov</text></g><g class="mark-rule role-axis-domain" pointer-events="none"><line transform="translate(0,0)" x2="695" y2="0" stroke="#888" stroke-width="1" opacity="1"></line></g></g><path class="foreground" aria-hidden="true" d="" pointer-events="none" display="none"></path></g></g><g class="mark-group role-axis" role="graphics-symbol" aria-roledescription="axis" aria-label="Y-axis for a linear scale with values from 0 to 220"><g transform="translate(0.5,0.5)"><path class="background" aria-hidden="true" d="M0,0h0v0h0Z" pointer-events="none"></path><g><g class="mark-text role-axis-label" pointer-events="none"><text text-anchor="middle" transform="translate(-2,200) rotate(90) translate(0,9)" font-family="monospace" font-size="11px" font-weight="bold" fill="#000" opacity="1">0</text><text text-anchor="middle" transform="translate(-2,154.54545454545453) rotate(90) translate(0,9)" font-family="monospace" font-size="11px" font-weight="bold" fill="#000" opacity="1">50</text><text text-anchor="middle" transform="translate(-2,109.09090909090908) rotate(90) translate(0,9)" font-family="monospace" font-size="11px" font-weight="bold" fill="#000" opacity="1">100</text><text text-anchor="middle" transform="translate(-2,63.63636363636365) rotate(90) translate(0,9)" font-family="monospace" font-size="11px" font-weight="bold" fill="#000" opacity="1">150</text><text text-anchor="middle" transform="translate(-2,18.181818181818187) rotate(90) translate(0,9)" font-family="monospace" font-size="11px" font-weight="bold" fill="#000" opacity="1">200</text></g><g class="mark-rule role-axis-domain" pointer-events="none"><line transform="translate(0,200)" x2="0" y2="-200" stroke="#888" stroke-width="1" opacity="1"></line></g></g><path class="foreground" aria-hidden="true" d="" pointer-events="none" display="none"></path></g></g><g class="mark-group role-scope layer_0_pathgroup" role="graphics-object" aria-roledescription="group mark container"><g transform="translate(0,0)"><path class="background" aria-hidden="true" d="M0,0h695v200h-695Z"></path><g><g class="mark-line role-mark layer_0_marks" role="graphics-object" aria-roledescription="line mark container"><path aria-label="Month: Jan; becquerel extensible Aloha: 46; West: ew" role="graphics-symbol" aria-roledescription="line mark" d="M31.590909090909122,158.1818181818182C52.65151515151518,127.95605143400485,73.71212121212123,97.73028468619154,94.77272727272731,90.90909090909092C115.83333333333339,84.0878971319903,136.89393939393946,100.67127632560235,157.9545454545455,123.63636363636363C179.01515151515153,146.6014509471249,200.07575757575754,175.94824637503535,221.13636363636365,156.36363636363637C242.19696969696977,136.7790263522374,263.25757575757586,68.26301090152897,284.31818181818187,28.181818181818173C305.3787878787879,-11.899374537892621,326.4393939393939,-23.545744526605795,347.5,17.272727272727263C368.5606060606061,58.09119907206032,389.6212121212122,151.37451265943957,410.6818181818182,192.72727272727272C431.7424242424242,234.08003279510586,452.80303030303025,223.50223934339297,473.8636363636364,176.36363636363637C494.9242424242425,129.22503338387978,515.9848484848485,45.52562087607952,537.0454545454545,19.999999999999996C558.1060606060605,-5.525620876079527,579.1666666666666,27.12254987956168,600.2272727272727,43.636363636363626C621.2878787878789,60.15017739316557,642.3484848484849,60.52963415112824,663.4090909090909,60.909090909090914" stroke="#b4c061" stroke-width="2" stroke-dasharray="1,0"></path></g></g><path class="foreground" aria-hidden="true" d="" display="none"></path></g></g><g class="mark-symbol role-mark layer_1_marks" role="graphics-object" aria-roledescription="symbol mark container"><path aria-label="Month: Jan; becquerel extensible Aloha: 46; West: ew" role="graphics-symbol" aria-roledescription="point" transform="translate(31.590909090909122,158.1818181818182)" d="M2.345207879911715,0A2.345207879911715,2.345207879911715,0,1,1,-2.345207879911715,0A2.345207879911715,2.345207879911715,0,1,1,2.345207879911715,0" fill="#b4c061" stroke-width="3" opacity="1"></path><path aria-label="Month: Feb; becquerel extensible Aloha: 120; West: ew" role="graphics-symbol" aria-roledescription="point" transform="translate(94.77272727272731,90.90909090909092)" d="M2.345207879911715,0A2.345207879911715,2.345207879911715,0,1,1,-2.345207879911715,0A2.345207879911715,2.345207879911715,0,1,1,2.345207879911715,0" fill="#b4c061" stroke-width="3" opacity="1"></path><path aria-label="Month: Mar; becquerel extensible Aloha: 84; West: ew" role="graphics-symbol" aria-roledescription="point" transform="translate(157.9545454545455,123.63636363636363)" d="M2.345207879911715,0A2.345207879911715,2.345207879911715,0,1,1,-2.345207879911715,0A2.345207879911715,2.345207879911715,0,1,1,2.345207879911715,0" fill="#b4c061" stroke-width="3" opacity="1"></path><path aria-label="Month: Apr; becquerel extensible Aloha: 48; West: ew" role="graphics-symbol" aria-roledescription="point" transform="translate(221.13636363636365,156.36363636363637)" d="M2.345207879911715,0A2.345207879911715,2.345207879911715,0,1,1,-2.345207879911715,0A2.345207879911715,2.345207879911715,0,1,1,2.345207879911715,0" fill="#b4c061" stroke-width="3" opacity="1"></path><path aria-label="Month: May; becquerel extensible Aloha: 189; West: ew" role="graphics-symbol" aria-roledescription="point" transform="translate(284.31818181818187,28.181818181818173)" d="M2.345207879911715,0A2.345207879911715,2.345207879911715,0,1,1,-2.345207879911715,0A2.345207879911715,2.345207879911715,0,1,1,2.345207879911715,0" fill="#b4c061" stroke-width="3" opacity="1"></path><path aria-label="Month: June; becquerel extensible Aloha: 201; West: ew" role="graphics-symbol" aria-roledescription="point" transform="translate(347.5,17.272727272727263)" d="M2.345207879911715,0A2.345207879911715,2.345207879911715,0,1,1,-2.345207879911715,0A2.345207879911715,2.345207879911715,0,1,1,2.345207879911715,0" fill="#b4c061" stroke-width="3" opacity="1"></path><path aria-label="Month: July; becquerel extensible Aloha: 8; West: ew" role="graphics-symbol" aria-roledescription="point" transform="translate(410.6818181818182,192.72727272727272)" d="M2.345207879911715,0A2.345207879911715,2.345207879911715,0,1,1,-2.345207879911715,0A2.345207879911715,2.345207879911715,0,1,1,2.345207879911715,0" fill="#b4c061" stroke-width="3" opacity="1"></path><path aria-label="Month: Aug; becquerel extensible Aloha: 26; West: ew" role="graphics-symbol" aria-roledescription="point" transform="translate(473.8636363636364,176.36363636363637)" d="M2.345207879911715,0A2.345207879911715,2.345207879911715,0,1,1,-2.345207879911715,0A2.345207879911715,2.345207879911715,0,1,1,2.345207879911715,0" fill="#b4c061" stroke-width="3" opacity="1"></path><path aria-label="Month: Sep; becquerel extensible Aloha: 198; West: ew" role="graphics-symbol" aria-roledescription="point" transform="translate(537.0454545454545,19.999999999999996)" d="M2.345207879911715,0A2.345207879911715,2.345207879911715,0,1,1,-2.345207879911715,0A2.345207879911715,2.345207879911715,0,1,1,2.345207879911715,0" fill="#b4c061" stroke-width="3" opacity="1"></path><path aria-label="Month: Oct; becquerel extensible Aloha: 172; West: ew" role="graphics-symbol" aria-roledescription="point" transform="translate(600.2272727272727,43.636363636363626)" d="M2.345207879911715,0A2.345207879911715,2.345207879911715,0,1,1,-2.345207879911715,0A2.345207879911715,2.345207879911715,0,1,1,2.345207879911715,0" fill="#b4c061" stroke-width="3" opacity="1"></path><path aria-label="Month: Nov; becquerel extensible Aloha: 153; West: ew" role="graphics-symbol" aria-roledescription="point" transform="translate(663.4090909090909,60.909090909090914)" d="M2.345207879911715,0A2.345207879911715,2.345207879911715,0,1,1,-2.345207879911715,0A2.345207879911715,2.345207879911715,0,1,1,2.345207879911715,0" fill="#b4c061" stroke-width="3" opacity="1"></path></g><g class="mark-group role-title"><g transform="translate(347.5,-39.19176667679375)"><path class="background" aria-hidden="true" d="M0,0h0v0h0Z" pointer-events="none"></path><g><g class="mark-text role-title-text" role="graphics-symbol" aria-roledescription="title" aria-label="Title text 'Latin Sleek'" pointer-events="none"><text text-anchor="middle" transform="translate(0,20)" font-family="monospace" font-size="25px" font-weight="bold" fill="#000" opacity="1">Latin Sleek</text></g></g><path class="foreground" aria-hidden="true" d="" pointer-events="none" display="none"></path></g></g></g><path class="foreground" aria-hidden="true" d="" display="none"></path></g></g></g></svg>