<svg xmlns="http://www.w3.org/2000/svg" xmlns:xlink="http://www.w3.org/1999/xlink" version="1.1" class="marks" width="925" height="273" viewBox="0 0 925 273" style="background-color: rgb(51, 51, 51);"><g fill="none" stroke-miterlimit="10" transform="translate(18,34)"><g class="mark-group role-frame root" role="graphics-object" aria-roledescription="group mark container"><g transform="translate(0,0)"><path class="background" aria-hidden="true" d="M0.5,0.5h902v200h-902Z" fill="transparent" stroke="#ddd"></path><g><g class="mark-group role-axis" aria-hidden="true"><g transform="translate(0.5,200.5)"><path class="background" aria-hidden="true" d="M0,0h0v0h0Z" pointer-events="none"></path><g><g class="mark-rule role-axis-grid" pointer-events="none"><line transform="translate(64,-200)" x2="0" y2="200" stroke="#747474" stroke-width="1" stroke-dasharray="1,0" opacity="1"></line><line transform="translate(193,-200)" x2="0" y2="200" stroke="#747474" stroke-width="1" stroke-dasharray="1,0" opacity="1"></line><line transform="translate(322,-200)" x2="0" y2="200" stroke="#747474" stroke-width="1" stroke-dasharray="1,0" opacity="1"></line><line transform="translate(451,-200)" x2="0" y2="200" stroke="#747474" stroke-width="1" stroke-dasharray="1,0" opacity="1"></line><line transform="translate(580,-200)" x2="0" y2="200" stroke="#747474" stroke-width="1" stroke-dasharray="1,0" opacity="1"></line><line transform="translate(709,-200)" x2="0" y2="200" stroke="#747474" stroke-width="1" stroke-dasharray="1,0" opacity="1"></line><line transform="translate(838,-200)" x2="0" y2="200" stroke="#747474" stroke-width="1" stroke-dasharray="1,0" opacity="1"></line></g></g><path class="foreground" aria-hidden="true" d="" pointer-events="none" display="none"></path></g></g><g class="mark-group role-axis" aria-hidden="true"><g transform="translate(0.5,0.5)"><path class="background" aria-hidden="true" d="M0,0h0v0h0Z" pointer-events="none"></path><g><g class="mark-rule role-axis-grid" pointer-events="none"><line transform="translate(0,200)" x2="902" y2="0" stroke="#747474" stroke-width="1" stroke-dasharray="1,0" opacity="1"></line><line transform="translate(0,156)" x2="902" y2="0" stroke="#747474" stroke-width="1" stroke-dasharray="1,0" opacity="1"></line><line transform="translate(0,111)" x2="902" y2="0" stroke="#747474" stroke-width="1" stroke-dasharray="1,0" opacity="1"></line><line transform="translate(0,67)" x2="902" y2="0" stroke="#747474" stroke-width="1" stroke-dasharray="1,0" opacity="1"></line><line transform="translate(0,22)" x2="902" y2="0" stroke="#747474" stroke-width="1" stroke-dasharray="1,0" opacity="1"></line></g></g><path class="foreground" aria-hidden="true" d="" pointer-events="none" display="none"></path></g></g><g class="mark-group role-axis" role="graphics-symbol" aria-roledescription="axis" aria-label="X-axis for a discrete scale with 7 values: 1939, 1940, 1941, 1942, 1943, 1944, 1945"><g transform="translate(0.5,200.5)"><path class="background" aria-hidden="true" d="M0,0h0v0h0Z" pointer-events="none"></path><g><g class="mark-rule role-axis-tick" pointer-events="none"><line transform="translate(64,0)" x2="0" y2="5" stroke="#888" stroke-width="1" opacity="1"></line><line transform="translate(193,0)" x2="0" y2="5" stroke="#888" stroke-width="1" opacity="1"></line><line transform="translate(322,0)" x2="0" y2="5" stroke="#888" stroke-width="1" opacity="1"></line><line transform="translate(451,0)" x2="0" y2="5" stroke="#888" stroke-width="1" opacity="1"></line><line transform="translate(580,0)" x2="0" y2="5" stroke="#888" stroke-width="1" opacity="1"></line><line transform="translate(709,0)" x2="0" y2="5" stroke="#888" stroke-width="1" opacity="1"></line><line transform="translate(838,0)" x2="0" y2="5" stroke="#888" stroke-width="1" opacity="1"></line></g><g class="mark-text role-axis-label" pointer-events="none"><text text-anchor="start" transform="translate(64.42857142857144,7) rotate(90) translate(0,4)" font-family="sans-serif" font-size="12px" font-weight="bold" fill="#fff" opacity="1">1939</text><text text-anchor="start" transform="translate(193.2857142857143,7) rotate(90) translate(0,4)" font-family="sans-serif" font-size="12px" font-weight="bold" fill="#fff" opacity="1">1940</text><text text-anchor="start" transform="translate(322.14285714285717,7) rotate(90) translate(0,4)" font-family="sans-serif" font-size="12px" font-weight="bold" fill="#fff" opacity="1">1941</text><text text-anchor="start" transform="translate(451,7) rotate(90) translate(0,4)" font-family="sans-serif" font-size="12px" font-weight="bold" fill="#fff" opacity="1">1942</text><text text-anchor="start" transform="translate(579.8571428571429,7) rotate(90) translate(0,4)" font-family="sans-serif" font-size="12px" font-weight="bold" fill="#fff" opacity="1">1943</text><text text-anchor="start" transform="translate(708.7142857142858,7) rotate(90) translate(0,4)" font-family="sans-serif" font-size="12px" font-weight="bold" fill="#fff" opacity="1">1944</text><text text-anchor="start" transform="translate(837.5714285714286,7) rotate(90) translate(0,4)" font-family="sans-serif" font-size="12px" font-weight="bold" fill="#fff" opacity="1">1945</text></g><g class="mark-rule role-axis-domain" pointer-events="none"><line transform="translate(0,0)" x2="902" y2="0" stroke="#888" stroke-width="1" opacity="1"></line></g></g><path class="foreground" aria-hidden="true" d="" pointer-events="none" display="none"></path></g></g><g class="mark-group role-axis" role="graphics-symbol" aria-roledescription="axis" aria-label="Y-axis for a linear scale with values from 0 to 450"><g transform="translate(0.5,0.5)"><path class="background" aria-hidden="true" d="M0,0h0v0h0Z" pointer-events="none"></path><g><g class="mark-text role-axis-label" pointer-events="none"><text text-anchor="middle" transform="translate(-2,200) rotate(90) translate(0,9)" font-family="sans-serif" font-size="12px" font-weight="bold" fill="#fff" opacity="1">0</text><text text-anchor="middle" transform="translate(-2,155.55555555555557) rotate(90) translate(0,9)" font-family="sans-serif" font-size="12px" font-weight="bold" fill="#fff" opacity="1">100</text><text text-anchor="middle" transform="translate(-2,111.11111111111111) rotate(90) translate(0,9)" font-family="sans-serif" font-size="12px" font-weight="bold" fill="#fff" opacity="1">200</text><text text-anchor="middle" transform="translate(-2,66.66666666666667) rotate(90) translate(0,9)" font-family="sans-serif" font-size="12px" font-weight="bold" fill="#fff" opacity="1">300</text><text text-anchor="middle" transform="translate(-2,22.222222222222232) rotate(90) translate(0,9)" font-family="sans-serif" font-size="12px" font-weight="bold" fill="#fff" opacity="1">400</text></g></g><path class="foreground" aria-hidden="true" d="" pointer-events="none" display="none"></path></g></g><g class="mark-group role-scope layer_0_pathgroup" role="graphics-object" aria-roledescription="group mark container"><g transform="translate(0,0)"><path class="background" aria-hidden="true" d="M0,0h902v200h-902Z"></path><g><g class="mark-line role-mark layer_0_marks" role="graphics-object" aria-roledescription="line mark container"><path aria-label="Year: 1939; Technician alarm: 411; Security HDD digital: calculating" role="graphics-symbol" aria-roledescription="line mark" d="M64.42857142857144,17.333333333333336C107.3809523809524,69.04235517568851,150.33333333333334,120.75137701804368,193.2857142857143,102.22222222222221C236.23809523809527,83.69306742640075,279.1904761904763,-5.074264007597332,322.14285714285717,12.00000000000001C365.095238095238,29.074264007597353,408.0476190476191,151.99012345679012,451,162.66666666666666C493.9523809523809,173.3432098765432,536.9047619047618,71.7804368471035,579.8571428571429,31.555555555555557C622.809523809524,-8.669325735992393,665.7619047619049,12.443684710351384,708.7142857142858,34.66666666666667C751.6666666666666,56.88964862298196,794.6190476190476,80.22260208926876,837.5714285714286,103.55555555555556" stroke="#ddf9db" stroke-width="2" stroke-dasharray="8,8"></path></g></g><path class="foreground" aria-hidden="true" d="" display="none"></path></g></g><g class="mark-symbol role-mark layer_1_marks" role="graphics-object" aria-roledescription="symbol mark container"><path aria-label="Year: 1939; Technician alarm: 411; Security HDD digital: calculating" role="graphics-symbol" aria-roledescription="point" transform="translate(64.42857142857144,17.333333333333336)" d="M2.7386127875258306,0A2.7386127875258306,2.7386127875258306,0,1,1,-2.7386127875258306,0A2.7386127875258306,2.7386127875258306,0,1,1,2.7386127875258306,0" fill="#333333" stroke="#ddf9db" stroke-width="4" opacity="1"></path><path aria-label="Year: 1940; Technician alarm: 220; Security HDD digital: calculating" role="graphics-symbol" aria-roledescription="point" transform="translate(193.2857142857143,102.22222222222221)" d="M2.7386127875258306,0A2.7386127875258306,2.7386127875258306,0,1,1,-2.7386127875258306,0A2.7386127875258306,2.7386127875258306,0,1,1,2.7386127875258306,0" fill="#333333" stroke="#ddf9db" stroke-width="4" opacity="1"></path><path aria-label="Year: 1941; Technician alarm: 423; Security HDD digital: calculating" role="graphics-symbol" aria-roledescription="point" transform="translate(322.14285714285717,12.00000000000001)" d="M2.7386127875258306,0A2.7386127875258306,2.7386127875258306,0,1,1,-2.7386127875258306,0A2.7386127875258306,2.7386127875258306,0,1,1,2.7386127875258306,0" fill="#333333" stroke="#ddf9db" stroke-width="4" opacity="1"></path><path aria-label="Year: 1942; Technician alarm: 84; Security HDD digital: calculating" role="graphics-symbol" aria-roledescription="point" transform="translate(451,162.66666666666666)" d="M2.7386127875258306,0A2.7386127875258306,2.7386127875258306,0,1,1,-2.7386127875258306,0A2.7386127875258306,2.7386127875258306,0,1,1,2.7386127875258306,0" fill="#333333" stroke="#ddf9db" stroke-width="4" opacity="1"></path><path aria-label="Year: 1943; Technician alarm: 379; Security HDD digital: calculating" role="graphics-symbol" aria-roledescription="point" transform="translate(579.8571428571429,31.555555555555557)" d="M2.7386127875258306,0A2.7386127875258306,2.7386127875258306,0,1,1,-2.7386127875258306,0A2.7386127875258306,2.7386127875258306,0,1,1,2.7386127875258306,0" fill="#333333" stroke="#ddf9db" stroke-width="4" opacity="1"></path><path aria-label="Year: 1944; Technician alarm: 372; Security HDD digital: calculating" role="graphics-symbol" aria-roledescription="point" transform="translate(708.7142857142858,34.66666666666667)" d="M2.7386127875258306,0A2.7386127875258306,2.7386127875258306,0,1,1,-2.7386127875258306,0A2.7386127875258306,2.7386127875258306,0,1,1,2.7386127875258306,0" fill="#333333" stroke="#ddf9db" stroke-width="4" opacity="1"></path><path aria-label="Year: 1945; Technician alarm: 217; Security HDD digital: calculating" role="graphics-symbol" aria-roledescription="point" transform="translate(837.5714285714286,103.55555555555556)" d="M2.7386127875258306,0A2.7386127875258306,2.7386127875258306,0,1,1,-2.7386127875258306,0A2.7386127875258306,2.7386127875258306,0,1,1,2.7386127875258306,0" fill="#333333" stroke="#ddf9db" stroke-width="4" opacity="1"></path></g><g class="mark-text role-mark layer_2_marks" role="graphics-object" aria-roledescription="text mark container"><text aria-label="Year: 1939; Technician alarm: 411" role="graphics-symbol" aria-roledescription="text mark" text-anchor="middle" transform="translate(64.42857142857144,46.333333333333336)" font-family="sans-serif" font-size="14px" fill="#fff" opacity="1">411</text><text aria-label="Year: 1940; Technician alarm: 220" role="graphics-symbol" aria-roledescription="text mark" text-anchor="middle" transform="translate(193.2857142857143,131.22222222222223)" font-family="sans-serif" font-size="14px" fill="#fff" opacity="1">220</text><text aria-label="Year: 1941; Technician alarm: 423" role="graphics-symbol" aria-roledescription="text mark" text-anchor="middle" transform="translate(322.14285714285717,41.000000000000014)" font-family="sans-serif" font-size="14px" fill="#fff" opacity="1">423</text><text aria-label="Year: 1942; Technician alarm: 84" role="graphics-symbol" aria-roledescription="text mark" text-anchor="middle" transform="translate(451,191.66666666666666)" font-family="sans-serif" font-size="14px" fill="#fff" opacity="1">84</text><text aria-label="Year: 1943; Technician alarm: 379" role="graphics-symbol" aria-roledescription="text mark" text-anchor="middle" transform="translate(579.8571428571429,60.55555555555556)" font-family="sans-serif" font-size="14px" fill="#fff" opacity="1">379</text><text aria-label="Year: 1944; Technician alarm: 372" role="graphics-symbol" aria-roledescription="text mark" text-anchor="middle" transform="translate(708.7142857142858,63.66666666666667)" font-family="sans-serif" font-size="14px" fill="#fff" opacity="1">372</text><text aria-label="Year: 1945; Technician alarm: 217" role="graphics-symbol" aria-roledescription="text mark" text-anchor="middle" transform="translate(837.5714285714286,132.55555555555554)" font-family="sans-serif" font-size="14px" fill="#fff" opacity="1">217</text></g><g class="mark-group role-title"><g transform="translate(451,-29)"><path class="background" aria-hidden="true" d="M0,0h0v0h0Z" pointer-events="none"></path><g><g class="mark-text role-title-text" role="graphics-symbol" aria-roledescription="title" aria-label="Title text 'Identity'" pointer-events="none"><text text-anchor="middle" transform="translate(0,20)" font-family="sans-serif" font-size="25px" font-weight="bold" fill="#fff" opacity="1">Identity</text></g></g><path class="foreground" aria-hidden="true" d="" pointer-events="none" display="none"></path></g></g></g><path class="foreground" aria-hidden="true" d="" display="none"></path></g></g></g></svg>