<svg xmlns="http://www.w3.org/2000/svg" xmlns:xlink="http://www.w3.org/1999/xlink" version="1.1" class="marks" width="668" height="263" viewBox="0 0 668 263" style="background-color: rgb(51, 51, 51);"><g fill="none" stroke-miterlimit="10" transform="translate(22,41)"><g class="mark-group role-frame root" role="graphics-object" aria-roledescription="group mark container"><g transform="translate(0,0)"><path class="background" aria-hidden="true" d="M0.5,0.5h641v200h-641Z" fill="transparent" stroke="#ddd"></path><g><g class="mark-group role-axis" aria-hidden="true"><g transform="translate(0.5,0.5)"><path class="background" aria-hidden="true" d="M0,0h0v0h0Z" pointer-events="none"></path><g><g class="mark-rule role-axis-grid" pointer-events="none"><line transform="translate(0,200)" x2="641" y2="0" stroke="#747474" stroke-width="1" stroke-dasharray="1,0" opacity="1"></line><line transform="translate(0,138)" x2="641" y2="0" stroke="#747474" stroke-width="1" stroke-dasharray="1,0" opacity="1"></line><line transform="translate(0,75)" x2="641" y2="0" stroke="#747474" stroke-width="1" stroke-dasharray="1,0" opacity="1"></line><line transform="translate(0,13)" x2="641" y2="0" stroke="#747474" stroke-width="1" stroke-dasharray="1,0" opacity="1"></line></g></g><path class="foreground" aria-hidden="true" d="" pointer-events="none" display="none"></path></g></g><g class="mark-group role-axis" role="graphics-symbol" aria-roledescription="axis" aria-label="X-axis for a discrete scale with 6 values: 1906, 1907, 1908, 1909, 1910, 1911"><g transform="translate(0.5,200.5)"><path class="background" aria-hidden="true" d="M0,0h0v0h0Z" pointer-events="none"></path><g><g class="mark-rule role-axis-tick" pointer-events="none"><line transform="translate(53,0)" x2="0" y2="5" stroke="#888" stroke-width="1" opacity="1"></line><line transform="translate(160,0)" x2="0" y2="5" stroke="#888" stroke-width="1" opacity="1"></line><line transform="translate(267,0)" x2="0" y2="5" stroke="#888" stroke-width="1" opacity="1"></line><line transform="translate(374,0)" x2="0" y2="5" stroke="#888" stroke-width="1" opacity="1"></line><line transform="translate(481,0)" x2="0" y2="5" stroke="#888" stroke-width="1" opacity="1"></line><line transform="translate(588,0)" x2="0" y2="5" stroke="#888" stroke-width="1" opacity="1"></line></g><g class="mark-text role-axis-label" pointer-events="none"><text text-anchor="middle" transform="translate(53.416666666666686,15)" font-family="avenir" font-size="10px" font-weight="normal" fill="#fff" opacity="1">1906</text><text text-anchor="middle" transform="translate(160.25,15)" font-family="avenir" font-size="10px" font-weight="normal" fill="#fff" opacity="1">1907</text><text text-anchor="middle" transform="translate(267.08333333333337,15)" font-family="avenir" font-size="10px" font-weight="normal" fill="#fff" opacity="1">1908</text><text text-anchor="middle" transform="translate(373.9166666666667,15)" font-family="avenir" font-size="10px" font-weight="normal" fill="#fff" opacity="1">1909</text><text text-anchor="middle" transform="translate(480.75,15)" font-family="avenir" font-size="10px" font-weight="normal" fill="#fff" opacity="1">1910</text><text text-anchor="middle" transform="translate(587.5833333333333,15)" font-family="avenir" font-size="10px" font-weight="normal" fill="#fff" opacity="1">1911</text></g><g class="mark-rule role-axis-domain" pointer-events="none"><line transform="translate(0,0)" x2="641" y2="0" stroke="#888" stroke-width="1" opacity="1"></line></g></g><path class="foreground" aria-hidden="true" d="" pointer-events="none" display="none"></path></g></g><g class="mark-group role-axis" role="graphics-symbol" aria-roledescription="axis" aria-label="Y-axis for a linear scale with values from 0 to 16"><g transform="translate(0.5,0.5)"><path class="background" aria-hidden="true" d="M0,0h0v0h0Z" pointer-events="none"></path><g><g class="mark-rule role-axis-tick" pointer-events="none"><line transform="translate(0,200)" x2="-5" y2="0" stroke="#888" stroke-width="1" opacity="1"></line><line transform="translate(0,138)" x2="-5" y2="0" stroke="#888" stroke-width="1" opacity="1"></line><line transform="translate(0,75)" x2="-5" y2="0" stroke="#888" stroke-width="1" opacity="1"></line><line transform="translate(0,13)" x2="-5" y2="0" stroke="#888" stroke-width="1" opacity="1"></line></g><g class="mark-text role-axis-label" pointer-events="none"><text text-anchor="end" transform="translate(-7,203)" font-family="avenir" font-size="10px" font-weight="normal" fill="#fff" opacity="1">0</text><text text-anchor="end" transform="translate(-7,140.5)" font-family="avenir" font-size="10px" font-weight="normal" fill="#fff" opacity="1">5</text><text text-anchor="end" transform="translate(-7,78)" font-family="avenir" font-size="10px" font-weight="normal" fill="#fff" opacity="1">10</text><text text-anchor="end" transform="translate(-7,15.5)" font-family="avenir" font-size="10px" font-weight="normal" fill="#fff" opacity="1">15</text></g><g class="mark-rule role-axis-domain" pointer-events="none"><line transform="translate(0,200)" x2="0" y2="-200" stroke="#888" stroke-width="1" opacity="1"></line></g></g><path class="foreground" aria-hidden="true" d="" pointer-events="none" display="none"></path></g></g><g class="mark-group role-scope layer_0_pathgroup" role="graphics-object" aria-roledescription="group mark container"><g transform="translate(0,0)"><path class="background" aria-hidden="true" d="M0,0h641v200h-641Z"></path><g><g class="mark-line role-mark layer_0_marks" role="graphics-object" aria-roledescription="line mark container"><path aria-label="Year: 1906; Planner pink: 15; unto: Plastic gee" role="graphics-symbol" aria-roledescription="line mark" d="M53.416666666666686,12.5L160.25,162.5L267.08333333333337,75L373.9166666666667,0L480.75,150L587.5833333333333,87.5" stroke="#bcbe39" stroke-width="2" stroke-dasharray="8,4"></path></g></g><path class="foreground" aria-hidden="true" d="" display="none"></path></g></g><g class="mark-symbol role-mark layer_1_marks" role="graphics-object" aria-roledescription="symbol mark container"><path aria-label="Year: 1906; Planner pink: 15; unto: Plastic gee" role="graphics-symbol" aria-roledescription="point" transform="translate(53.416666666666686,12.5)" d="M2.7386127875258306,0A2.7386127875258306,2.7386127875258306,0,1,1,-2.7386127875258306,0A2.7386127875258306,2.7386127875258306,0,1,1,2.7386127875258306,0" fill="#333333" stroke="#bcbe39" stroke-width="4" opacity="1"></path><path aria-label="Year: 1907; Planner pink: 3; unto: Plastic gee" role="graphics-symbol" aria-roledescription="point" transform="translate(160.25,162.5)" d="M2.7386127875258306,0A2.7386127875258306,2.7386127875258306,0,1,1,-2.7386127875258306,0A2.7386127875258306,2.7386127875258306,0,1,1,2.7386127875258306,0" fill="#333333" stroke="#bcbe39" stroke-width="4" opacity="1"></path><path aria-label="Year: 1908; Planner pink: 10; unto: Plastic gee" role="graphics-symbol" aria-roledescription="point" transform="translate(267.08333333333337,75)" d="M2.7386127875258306,0A2.7386127875258306,2.7386127875258306,0,1,1,-2.7386127875258306,0A2.7386127875258306,2.7386127875258306,0,1,1,2.7386127875258306,0" fill="#333333" stroke="#bcbe39" stroke-width="4" opacity="1"></path><path aria-label="Year: 1909; Planner pink: 16; unto: Plastic gee" role="graphics-symbol" aria-roledescription="point" transform="translate(373.9166666666667,0)" d="M2.7386127875258306,0A2.7386127875258306,2.7386127875258306,0,1,1,-2.7386127875258306,0A2.7386127875258306,2.7386127875258306,0,1,1,2.7386127875258306,0" fill="#333333" stroke="#bcbe39" stroke-width="4" opacity="1"></path><path aria-label="Year: 1910; Planner pink: 4; unto: Plastic gee" role="graphics-symbol" aria-roledescription="point" transform="translate(480.75,150)" d="M2.7386127875258306,0A2.7386127875258306,2.7386127875258306,0,1,1,-2.7386127875258306,0A2.7386127875258306,2.7386127875258306,0,1,1,2.7386127875258306,0" fill="#333333" stroke="#bcbe39" stroke-width="4" opacity="1"></path><path aria-label="Year: 1911; Planner pink: 9; unto: Plastic gee" role="graphics-symbol" aria-roledescription="point" transform="translate(587.5833333333333,87.5)" d="M2.7386127875258306,0A2.7386127875258306,2.7386127875258306,0,1,1,-2.7386127875258306,0A2.7386127875258306,2.7386127875258306,0,1,1,2.7386127875258306,0" fill="#333333" stroke="#bcbe39" stroke-width="4" opacity="1"></path></g><g class="mark-group role-title"><g transform="translate(320.5,-35.73861278752583)"><path class="background" aria-hidden="true" d="M0,0h0v0h0Z" pointer-events="none"></path><g><g class="mark-text role-title-text" role="graphics-symbol" aria-roledescription="title" aria-label="Title text 'GB wherever deposit'" pointer-events="none"><text text-anchor="middle" transform="translate(0,20)" font-family="avenir" font-size="25px" font-weight="bold" fill="#fff" opacity="1">GB wherever deposit</text></g></g><path class="foreground" aria-hidden="true" d="" pointer-events="none" display="none"></path></g></g></g><path class="foreground" aria-hidden="true" d="" display="none"></path></g></g></g></svg>