<svg xmlns="http://www.w3.org/2000/svg" xmlns:xlink="http://www.w3.org/1999/xlink" version="1.1" class="marks" width="750" height="279" viewBox="0 0 750 279" style="background-color: rgb(51, 51, 51);"><g fill="none" stroke-miterlimit="10" transform="translate(23,43)"><g class="mark-group role-frame root" role="graphics-object" aria-roledescription="group mark container"><g transform="translate(0,0)"><path class="background" aria-hidden="true" d="M0.5,0.5h722v200h-722Z" fill="transparent" stroke="#ddd"></path><g><g class="mark-group role-axis" aria-hidden="true"><g transform="translate(0.5,200.5)"><path class="background" aria-hidden="true" d="M0,0h0v0h0Z" pointer-events="none"></path><g><g class="mark-rule role-axis-grid" pointer-events="none"><line transform="translate(52,-200)" x2="0" y2="200" stroke="#747474" stroke-width="1" stroke-dasharray="6, 3" opacity="1"></line><line transform="translate(155,-200)" x2="0" y2="200" stroke="#747474" stroke-width="1" stroke-dasharray="6, 3" opacity="1"></line><line transform="translate(258,-200)" x2="0" y2="200" stroke="#747474" stroke-width="1" stroke-dasharray="6, 3" opacity="1"></line><line transform="translate(361,-200)" x2="0" y2="200" stroke="#747474" stroke-width="1" stroke-dasharray="6, 3" opacity="1"></line><line transform="translate(464,-200)" x2="0" y2="200" stroke="#747474" stroke-width="1" stroke-dasharray="6, 3" opacity="1"></line><line transform="translate(567,-200)" x2="0" y2="200" stroke="#747474" stroke-width="1" stroke-dasharray="6, 3" opacity="1"></line><line transform="translate(670,-200)" x2="0" y2="200" stroke="#747474" stroke-width="1" stroke-dasharray="6, 3" opacity="1"></line></g></g><path class="foreground" aria-hidden="true" d="" pointer-events="none" display="none"></path></g></g><g class="mark-group role-axis" aria-hidden="true"><g transform="translate(0.5,0.5)"><path class="background" aria-hidden="true" d="M0,0h0v0h0Z" pointer-events="none"></path><g><g class="mark-rule role-axis-grid" pointer-events="none"><line transform="translate(0,200)" x2="722" y2="0" stroke="#747474" stroke-width="1" stroke-dasharray="6, 3" opacity="1"></line><line transform="translate(0,150)" x2="722" y2="0" stroke="#747474" stroke-width="1" stroke-dasharray="6, 3" opacity="1"></line><line transform="translate(0,100)" x2="722" y2="0" stroke="#747474" stroke-width="1" stroke-dasharray="6, 3" opacity="1"></line><line transform="translate(0,50)" x2="722" y2="0" stroke="#747474" stroke-width="1" stroke-dasharray="6, 3" opacity="1"></line><line transform="translate(0,0)" x2="722" y2="0" stroke="#747474" stroke-width="1" stroke-dasharray="6, 3" opacity="1"></line></g></g><path class="foreground" aria-hidden="true" d="" pointer-events="none" display="none"></path></g></g><g class="mark-group role-axis" role="graphics-symbol" aria-roledescription="axis" aria-label="X-axis for a discrete scale with 7 values: 1840, 1841, 1842, 1843, 1844, 1845, 1846"><g transform="translate(0.5,200.5)"><path class="background" aria-hidden="true" d="M0,0h0v0h0Z" pointer-events="none"></path><g><g class="mark-rule role-axis-tick" pointer-events="none"><line transform="translate(52,0)" x2="0" y2="5" stroke="#888" stroke-width="1" opacity="1"></line><line transform="translate(155,0)" x2="0" y2="5" stroke="#888" stroke-width="1" opacity="1"></line><line transform="translate(258,0)" x2="0" y2="5" stroke="#888" stroke-width="1" opacity="1"></line><line transform="translate(361,0)" x2="0" y2="5" stroke="#888" stroke-width="1" opacity="1"></line><line transform="translate(464,0)" x2="0" y2="5" stroke="#888" stroke-width="1" opacity="1"></line><line transform="translate(567,0)" x2="0" y2="5" stroke="#888" stroke-width="1" opacity="1"></line><line transform="translate(670,0)" x2="0" y2="5" stroke="#888" stroke-width="1" opacity="1"></line></g><g class="mark-text role-axis-label" pointer-events="none"><text text-anchor="start" transform="translate(51.571428571428555,7) rotate(90) translate(0,4)" font-family="avenir" font-size="12px" font-weight="bold" fill="#fff" opacity="1">1840</text><text text-anchor="start" transform="translate(154.7142857142857,7) rotate(90) translate(0,4)" font-family="avenir" font-size="12px" font-weight="bold" fill="#fff" opacity="1">1841</text><text text-anchor="start" transform="translate(257.85714285714283,7) rotate(90) translate(0,4)" font-family="avenir" font-size="12px" font-weight="bold" fill="#fff" opacity="1">1842</text><text text-anchor="start" transform="translate(361,7) rotate(90) translate(0,4)" font-family="avenir" font-size="12px" font-weight="bold" fill="#fff" opacity="1">1843</text><text text-anchor="start" transform="translate(464.1428571428571,7) rotate(90) translate(0,4)" font-family="avenir" font-size="12px" font-weight="bold" fill="#fff" opacity="1">1844</text><text text-anchor="start" transform="translate(567.2857142857142,7) rotate(90) translate(0,4)" font-family="avenir" font-size="12px" font-weight="bold" fill="#fff" opacity="1">1845</text><text text-anchor="start" transform="translate(670.4285714285714,7) rotate(90) translate(0,4)" font-family="avenir" font-size="12px" font-weight="bold" fill="#fff" opacity="1">1846</text></g><g class="mark-rule role-axis-domain" pointer-events="none"><line transform="translate(0,0)" x2="722" y2="0" stroke="#888" stroke-width="1" opacity="1"></line></g></g><path class="foreground" aria-hidden="true" d="" pointer-events="none" display="none"></path></g></g><g class="mark-group role-axis" role="graphics-symbol" aria-roledescription="axis" aria-label="Y-axis for a linear scale with values from 0 to 400"><g transform="translate(0.5,0.5)"><path class="background" aria-hidden="true" d="M0,0h0v0h0Z" pointer-events="none"></path><g><g class="mark-rule role-axis-tick" pointer-events="none"><line transform="translate(0,200)" x2="-5" y2="0" stroke="#888" stroke-width="1" opacity="1"></line><line transform="translate(0,150)" x2="-5" y2="0" stroke="#888" stroke-width="1" opacity="1"></line><line transform="translate(0,100)" x2="-5" y2="0" stroke="#888" stroke-width="1" opacity="1"></line><line transform="translate(0,50)" x2="-5" y2="0" stroke="#888" stroke-width="1" opacity="1"></line><line transform="translate(0,0)" x2="-5" y2="0" stroke="#888" stroke-width="1" opacity="1"></line></g><g class="mark-text role-axis-label" pointer-events="none"><text text-anchor="middle" transform="translate(-7,200) rotate(90) translate(0,9)" font-family="avenir" font-size="12px" font-weight="bold" fill="#fff" opacity="1">0</text><text text-anchor="middle" transform="translate(-7,150) rotate(90) translate(0,9)" font-family="avenir" font-size="12px" font-weight="bold" fill="#fff" opacity="1">100</text><text text-anchor="middle" transform="translate(-7,100) rotate(90) translate(0,9)" font-family="avenir" font-size="12px" font-weight="bold" fill="#fff" opacity="1">200</text><text text-anchor="middle" transform="translate(-7,50) rotate(90) translate(0,9)" font-family="avenir" font-size="12px" font-weight="bold" fill="#fff" opacity="1">300</text><text text-anchor="middle" transform="translate(-7,0) rotate(90) translate(0,9)" font-family="avenir" font-size="12px" font-weight="bold" fill="#fff" opacity="1">400</text></g></g><path class="foreground" aria-hidden="true" d="" pointer-events="none" display="none"></path></g></g><g class="mark-group role-scope layer_0_pathgroup" role="graphics-object" aria-roledescription="group mark container"><g transform="translate(0,0)"><path class="background" aria-hidden="true" d="M0,0h722v200h-722Z"></path><g><g class="mark-line role-mark layer_0_marks" role="graphics-object" aria-roledescription="line mark container"><path aria-label="Year: 1840; PNG: 146; Tools Southwest: compress" role="graphics-symbol" aria-roledescription="line mark" d="M51.571428571428555,127L154.7142857142857,18.999999999999993L257.85714285714283,188L361,154L464.1428571428571,76.49999999999999L567.2857142857142,159L670.4285714285714,43.99999999999999" stroke="#abf81c" stroke-width="2" stroke-dasharray="1,0"></path></g></g><path class="foreground" aria-hidden="true" d="" display="none"></path></g></g><g class="mark-symbol role-mark layer_1_marks" role="graphics-object" aria-roledescription="symbol mark container"><path aria-label="Year: 1840; PNG: 146; Tools Southwest: compress" role="graphics-symbol" aria-roledescription="point" transform="translate(51.571428571428555,127)" d="M2.7386127875258306,0A2.7386127875258306,2.7386127875258306,0,1,1,-2.7386127875258306,0A2.7386127875258306,2.7386127875258306,0,1,1,2.7386127875258306,0" fill="#333333" stroke="#abf81c" stroke-width="3" opacity="1"></path><path aria-label="Year: 1841; PNG: 362; Tools Southwest: compress" role="graphics-symbol" aria-roledescription="point" transform="translate(154.7142857142857,18.999999999999993)" d="M2.7386127875258306,0A2.7386127875258306,2.7386127875258306,0,1,1,-2.7386127875258306,0A2.7386127875258306,2.7386127875258306,0,1,1,2.7386127875258306,0" fill="#333333" stroke="#abf81c" stroke-width="3" opacity="1"></path><path aria-label="Year: 1842; PNG: 24; Tools Southwest: compress" role="graphics-symbol" aria-roledescription="point" transform="translate(257.85714285714283,188)" d="M2.7386127875258306,0A2.7386127875258306,2.7386127875258306,0,1,1,-2.7386127875258306,0A2.7386127875258306,2.7386127875258306,0,1,1,2.7386127875258306,0" fill="#333333" stroke="#abf81c" stroke-width="3" opacity="1"></path><path aria-label="Year: 1843; PNG: 92; Tools Southwest: compress" role="graphics-symbol" aria-roledescription="point" transform="translate(361,154)" d="M2.7386127875258306,0A2.7386127875258306,2.7386127875258306,0,1,1,-2.7386127875258306,0A2.7386127875258306,2.7386127875258306,0,1,1,2.7386127875258306,0" fill="#333333" stroke="#abf81c" stroke-width="3" opacity="1"></path><path aria-label="Year: 1844; PNG: 247; Tools Southwest: compress" role="graphics-symbol" aria-roledescription="point" transform="translate(464.1428571428571,76.49999999999999)" d="M2.7386127875258306,0A2.7386127875258306,2.7386127875258306,0,1,1,-2.7386127875258306,0A2.7386127875258306,2.7386127875258306,0,1,1,2.7386127875258306,0" fill="#333333" stroke="#abf81c" stroke-width="3" opacity="1"></path><path aria-label="Year: 1845; PNG: 82; Tools Southwest: compress" role="graphics-symbol" aria-roledescription="point" transform="translate(567.2857142857142,159)" d="M2.7386127875258306,0A2.7386127875258306,2.7386127875258306,0,1,1,-2.7386127875258306,0A2.7386127875258306,2.7386127875258306,0,1,1,2.7386127875258306,0" fill="#333333" stroke="#abf81c" stroke-width="3" opacity="1"></path><path aria-label="Year: 1846; PNG: 312; Tools Southwest: compress" role="graphics-symbol" aria-roledescription="point" transform="translate(670.4285714285714,43.99999999999999)" d="M2.7386127875258306,0A2.7386127875258306,2.7386127875258306,0,1,1,-2.7386127875258306,0A2.7386127875258306,2.7386127875258306,0,1,1,2.7386127875258306,0" fill="#333333" stroke="#abf81c" stroke-width="3" opacity="1"></path></g><g class="mark-text role-mark layer_2_marks" role="graphics-object" aria-roledescription="text mark container"><text aria-label="Year: 1840; PNG: 146" role="graphics-symbol" aria-roledescription="text mark" text-anchor="middle" transform="translate(51.571428571428555,156)" font-family="avenir" font-size="13px" fill="#fff" opacity="1">146</text><text aria-label="Year: 1841; PNG: 362" role="graphics-symbol" aria-roledescription="text mark" text-anchor="middle" transform="translate(154.7142857142857,47.99999999999999)" font-family="avenir" font-size="13px" fill="#fff" opacity="1">362</text><text aria-label="Year: 1842; PNG: 24" role="graphics-symbol" aria-roledescription="text mark" text-anchor="middle" transform="translate(257.85714285714283,217)" font-family="avenir" font-size="13px" fill="#fff" opacity="1">24</text><text aria-label="Year: 1843; PNG: 92" role="graphics-symbol" aria-roledescription="text mark" text-anchor="middle" transform="translate(361,183)" font-family="avenir" font-size="13px" fill="#fff" opacity="1">92</text><text aria-label="Year: 1844; PNG: 247" role="graphics-symbol" aria-roledescription="text mark" text-anchor="middle" transform="translate(464.1428571428571,105.49999999999999)" font-family="avenir" font-size="13px" fill="#fff" opacity="1">247</text><text aria-label="Year: 1845; PNG: 82" role="graphics-symbol" aria-roledescription="text mark" text-anchor="middle" transform="translate(567.2857142857142,188)" font-family="avenir" font-size="13px" fill="#fff" opacity="1">82</text><text aria-label="Year: 1846; PNG: 312" role="graphics-symbol" aria-roledescription="text mark" text-anchor="middle" transform="translate(670.4285714285714,73)" font-family="avenir" font-size="13px" fill="#fff" opacity="1">312</text></g><g class="mark-group role-title"><g transform="translate(722,-38)"><path class="background" aria-hidden="true" d="M0,0h0v0h0Z" pointer-events="none"></path><g><g class="mark-text role-title-text" role="graphics-symbol" aria-roledescription="title" aria-label="Title text 'runny cool'" pointer-events="none"><text text-anchor="end" transform="translate(0,20)" font-family="avenir" font-size="25px" font-weight="bold" fill="#fff" opacity="1">runny cool</text></g></g><path class="foreground" aria-hidden="true" d="" pointer-events="none" display="none"></path></g></g></g><path class="foreground" aria-hidden="true" d="" display="none"></path></g></g></g></svg>