<svg xmlns="http://www.w3.org/2000/svg" xmlns:xlink="http://www.w3.org/1999/xlink" version="1.1" class="marks" width="670" height="346" viewBox="0 0 670 346" style="background-color: rgb(51, 51, 51);"><g fill="none" stroke-miterlimit="10" transform="translate(25,58)"><g class="mark-group role-frame root" role="graphics-object" aria-roledescription="group mark container"><g transform="translate(0,0)"><path class="background" aria-hidden="true" d="M0.5,0.5h640v200h-640Z" fill="transparent" stroke="#ddd"></path><g><g class="mark-group role-axis" aria-hidden="true"><g transform="translate(0.5,0.5)"><path class="background" aria-hidden="true" d="M0,0h0v0h0Z" pointer-events="none"></path><g><g class="mark-rule role-axis-grid" pointer-events="none"><line transform="translate(0,200)" x2="640" y2="0" stroke="#747474" stroke-width="1" stroke-dasharray="4, 2" opacity="1"></line><line transform="translate(0,160)" x2="640" y2="0" stroke="#747474" stroke-width="1" stroke-dasharray="4, 2" opacity="1"></line><line transform="translate(0,120)" x2="640" y2="0" stroke="#747474" stroke-width="1" stroke-dasharray="4, 2" opacity="1"></line><line transform="translate(0,80)" x2="640" y2="0" stroke="#747474" stroke-width="1" stroke-dasharray="4, 2" opacity="1"></line><line transform="translate(0,40)" x2="640" y2="0" stroke="#747474" stroke-width="1" stroke-dasharray="4, 2" opacity="1"></line><line transform="translate(0,0)" x2="640" y2="0" stroke="#747474" stroke-width="1" stroke-dasharray="4, 2" opacity="1"></line></g></g><path class="foreground" aria-hidden="true" d="" pointer-events="none" display="none"></path></g></g><g class="mark-group role-axis" role="graphics-symbol" aria-roledescription="axis" aria-label="X-axis for a discrete scale with 9 values: 1724, 1726, 1728, 1730, 1732, ending with 1740"><g transform="translate(0.5,200.5)"><path class="background" aria-hidden="true" d="M0,0h0v0h0Z" pointer-events="none"></path><g><g class="mark-rule role-axis-tick" pointer-events="none"><line transform="translate(36,0)" x2="0" y2="5" stroke="#888" stroke-width="1" opacity="1"></line><line transform="translate(107,0)" x2="0" y2="5" stroke="#888" stroke-width="1" opacity="1"></line><line transform="translate(178,0)" x2="0" y2="5" stroke="#888" stroke-width="1" opacity="1"></line><line transform="translate(249,0)" x2="0" y2="5" stroke="#888" stroke-width="1" opacity="1"></line><line transform="translate(320,0)" x2="0" y2="5" stroke="#888" stroke-width="1" opacity="1"></line><line transform="translate(391,0)" x2="0" y2="5" stroke="#888" stroke-width="1" opacity="1"></line><line transform="translate(462,0)" x2="0" y2="5" stroke="#888" stroke-width="1" opacity="1"></line><line transform="translate(533,0)" x2="0" y2="5" stroke="#888" stroke-width="1" opacity="1"></line><line transform="translate(604,0)" x2="0" y2="5" stroke="#888" stroke-width="1" opacity="1"></line></g><g class="mark-text role-axis-label" pointer-events="none"><text text-anchor="start" transform="translate(35.55555555555554,7) rotate(90) translate(0,4)" font-family="monospace" font-size="13px" font-weight="normal" fill="#fff" opacity="1">1724</text><text text-anchor="start" transform="translate(106.66666666666666,7) rotate(90) translate(0,4)" font-family="monospace" font-size="13px" font-weight="normal" fill="#fff" opacity="1">1726</text><text text-anchor="start" transform="translate(177.77777777777777,7) rotate(90) translate(0,4)" font-family="monospace" font-size="13px" font-weight="normal" fill="#fff" opacity="1">1728</text><text text-anchor="start" transform="translate(248.88888888888889,7) rotate(90) translate(0,4)" font-family="monospace" font-size="13px" font-weight="normal" fill="#fff" opacity="1">1730</text><text text-anchor="start" transform="translate(320,7) rotate(90) translate(0,4)" font-family="monospace" font-size="13px" font-weight="normal" fill="#fff" opacity="1">1732</text><text text-anchor="start" transform="translate(391.1111111111111,7) rotate(90) translate(0,4)" font-family="monospace" font-size="13px" font-weight="normal" fill="#fff" opacity="1">1734</text><text text-anchor="start" transform="translate(462.22222222222223,7) rotate(90) translate(0,4)" font-family="monospace" font-size="13px" font-weight="normal" fill="#fff" opacity="1">1736</text><text text-anchor="start" transform="translate(533.3333333333334,7) rotate(90) translate(0,4)" font-family="monospace" font-size="13px" font-weight="normal" fill="#fff" opacity="1">1738</text><text text-anchor="start" transform="translate(604.4444444444445,7) rotate(90) translate(0,4)" font-family="monospace" font-size="13px" font-weight="normal" fill="#fff" opacity="1">1740</text></g><g class="mark-rule role-axis-domain" pointer-events="none"><line transform="translate(0,0)" x2="640" y2="0" stroke="#888" stroke-width="1" opacity="1"></line></g></g><path class="foreground" aria-hidden="true" d="" pointer-events="none" display="none"></path></g></g><g class="mark-group role-axis" role="graphics-symbol" aria-roledescription="axis" aria-label="Y-axis for a linear scale with values from 0 to 50"><g transform="translate(0.5,0.5)"><path class="background" aria-hidden="true" d="M0,0h0v0h0Z" pointer-events="none"></path><g><g class="mark-rule role-axis-tick" pointer-events="none"><line transform="translate(0,200)" x2="-5" y2="0" stroke="#888" stroke-width="1" opacity="1"></line><line transform="translate(0,160)" x2="-5" y2="0" stroke="#888" stroke-width="1" opacity="1"></line><line transform="translate(0,120)" x2="-5" y2="0" stroke="#888" stroke-width="1" opacity="1"></line><line transform="translate(0,80)" x2="-5" y2="0" stroke="#888" stroke-width="1" opacity="1"></line><line transform="translate(0,40)" x2="-5" y2="0" stroke="#888" stroke-width="1" opacity="1"></line><line transform="translate(0,0)" x2="-5" y2="0" stroke="#888" stroke-width="1" opacity="1"></line></g><g class="mark-text role-axis-label" pointer-events="none"><text text-anchor="middle" transform="translate(-7,200) rotate(90) translate(0,10)" font-family="monospace" font-size="13px" font-weight="normal" fill="#fff" opacity="1">0</text><text text-anchor="middle" transform="translate(-7,160) rotate(90) translate(0,10)" font-family="monospace" font-size="13px" font-weight="normal" fill="#fff" opacity="1">10</text><text text-anchor="middle" transform="translate(-7,120) rotate(90) translate(0,10)" font-family="monospace" font-size="13px" font-weight="normal" fill="#fff" opacity="1">20</text><text text-anchor="middle" transform="translate(-7,80) rotate(90) translate(0,10)" font-family="monospace" font-size="13px" font-weight="normal" fill="#fff" opacity="1">30</text><text text-anchor="middle" transform="translate(-7,39.99999999999999) rotate(90) translate(0,10)" font-family="monospace" font-size="13px" font-weight="normal" fill="#fff" opacity="1">40</text><text text-anchor="middle" transform="translate(-7,0) rotate(90) translate(0,10)" font-family="monospace" font-size="13px" font-weight="normal" fill="#fff" opacity="1">50</text></g></g><path class="foreground" aria-hidden="true" d="" pointer-events="none" display="none"></path></g></g><g class="mark-group role-scope layer_0_pathgroup" role="graphics-object" aria-roledescription="group mark container"><g transform="translate(0,0)"><path class="background" aria-hidden="true" d="M0,0h640v200h-640Z"></path><g><g class="mark-line role-mark layer_0_marks" role="graphics-object" aria-roledescription="line mark container"><path aria-label="Year: 1724; TLS Iowa: 46; Investment hm: Dynamic" role="graphics-symbol" aria-roledescription="line mark" d="M35.55555555555554,15.999999999999993C59.25925925925925,85.6277614138439,82.96296296296296,155.2555228276878,106.66666666666666,168C130.37037037037035,180.7444771723122,154.07407407407408,136.60567010309276,177.77777777777777,140C201.48148148148147,143.39432989690724,225.18518518518516,194.32179675994107,248.88888888888889,176C272.5925925925926,157.67820324005893,296.29629629629625,70.10714285714286,320,76C343.70370370370375,81.89285714285714,367.4074074074075,181.24963181148746,391.1111111111111,192C414.81481481481467,202.75036818851254,438.5185185185184,124.89432989690722,462.22222222222223,100C485.92592592592604,75.10567010309278,509.6296296296297,103.17304860088365,533.3333333333334,104C557.0370370370371,104.82695139911635,580.7407407407408,78.41347569955818,604.4444444444445,52" stroke="#2aff9d" stroke-width="2" stroke-dasharray="1,0"></path></g></g><path class="foreground" aria-hidden="true" d="" display="none"></path></g><g transform="translate(0,0)"><path class="background" aria-hidden="true" d="M0,0h640v200h-640Z"></path><g><g class="mark-line role-mark layer_0_marks" role="graphics-object" aria-roledescription="line mark container"><path aria-label="Year: 1724; TLS Iowa: 5; Investment hm: layer Tricycle Niger" role="graphics-symbol" aria-roledescription="line mark" d="M35.55555555555554,180C59.25925925925925,165.2269268532155,82.96296296296296,150.453853706431,106.66666666666666,116.00000000000001C130.37037037037035,81.54614629356901,154.07407407407408,27.41151202749141,177.77777777777777,28.000000000000004C201.48148148148147,28.5884879725086,225.18518518518516,83.90009818360335,248.88888888888889,84.00000000000001C272.5925925925926,84.09990181639668,296.29629629629625,28.988095238095237,320,0C343.70370370370375,-28.988095238095237,367.4074074074075,-31.852479135984282,391.1111111111111,12.00000000000001C414.81481481481467,55.852479135984304,438.5185185185184,146.42182130584192,462.22222222222223,184C485.92592592592604,221.57817869415808,509.6296296296297,206.1651939126166,533.3333333333334,196C557.0370370370371,185.8348060873834,580.7407407407408,180.9174030436917,604.4444444444445,176" stroke="#68d8b5" stroke-width="2" stroke-dasharray="1,0"></path></g></g><path class="foreground" aria-hidden="true" d="" display="none"></path></g></g><g class="mark-symbol role-mark layer_1_marks" role="graphics-object" aria-roledescription="symbol mark container"><path aria-label="Year: 1724; TLS Iowa: 46; Investment hm: Dynamic" role="graphics-symbol" aria-roledescription="point" transform="translate(35.55555555555554,15.999999999999993)" d="M2,0A2,2,0,1,1,-2,0A2,2,0,1,1,2,0" fill="#2aff9d" stroke-width="2" opacity="1"></path><path aria-label="Year: 1726; TLS Iowa: 8; Investment hm: Dynamic" role="graphics-symbol" aria-roledescription="point" transform="translate(106.66666666666666,168)" d="M2,0A2,2,0,1,1,-2,0A2,2,0,1,1,2,0" fill="#2aff9d" stroke-width="2" opacity="1"></path><path aria-label="Year: 1728; TLS Iowa: 15; Investment hm: Dynamic" role="graphics-symbol" aria-roledescription="point" transform="translate(177.77777777777777,140)" d="M2,0A2,2,0,1,1,-2,0A2,2,0,1,1,2,0" fill="#2aff9d" stroke-width="2" opacity="1"></path><path aria-label="Year: 1730; TLS Iowa: 6; Investment hm: Dynamic" role="graphics-symbol" aria-roledescription="point" transform="translate(248.88888888888889,176)" d="M2,0A2,2,0,1,1,-2,0A2,2,0,1,1,2,0" fill="#2aff9d" stroke-width="2" opacity="1"></path><path aria-label="Year: 1732; TLS Iowa: 31; Investment hm: Dynamic" role="graphics-symbol" aria-roledescription="point" transform="translate(320,76)" d="M2,0A2,2,0,1,1,-2,0A2,2,0,1,1,2,0" fill="#2aff9d" stroke-width="2" opacity="1"></path><path aria-label="Year: 1734; TLS Iowa: 2; Investment hm: Dynamic" role="graphics-symbol" aria-roledescription="point" transform="translate(391.1111111111111,192)" d="M2,0A2,2,0,1,1,-2,0A2,2,0,1,1,2,0" fill="#2aff9d" stroke-width="2" opacity="1"></path><path aria-label="Year: 1736; TLS Iowa: 25; Investment hm: Dynamic" role="graphics-symbol" aria-roledescription="point" transform="translate(462.22222222222223,100)" d="M2,0A2,2,0,1,1,-2,0A2,2,0,1,1,2,0" fill="#2aff9d" stroke-width="2" opacity="1"></path><path aria-label="Year: 1738; TLS Iowa: 24; Investment hm: Dynamic" role="graphics-symbol" aria-roledescription="point" transform="translate(533.3333333333334,104)" d="M2,0A2,2,0,1,1,-2,0A2,2,0,1,1,2,0" fill="#2aff9d" stroke-width="2" opacity="1"></path><path aria-label="Year: 1740; TLS Iowa: 37; Investment hm: Dynamic" role="graphics-symbol" aria-roledescription="point" transform="translate(604.4444444444445,52)" d="M2,0A2,2,0,1,1,-2,0A2,2,0,1,1,2,0" fill="#2aff9d" stroke-width="2" opacity="1"></path><path aria-label="Year: 1724; TLS Iowa: 5; Investment hm: layer Tricycle Niger" role="graphics-symbol" aria-roledescription="point" transform="translate(35.55555555555554,180)" d="M2,0A2,2,0,1,1,-2,0A2,2,0,1,1,2,0" fill="#68d8b5" stroke-width="2" opacity="1"></path><path aria-label="Year: 1726; TLS Iowa: 21; Investment hm: layer Tricycle Niger" role="graphics-symbol" aria-roledescription="point" transform="translate(106.66666666666666,116.00000000000001)" d="M2,0A2,2,0,1,1,-2,0A2,2,0,1,1,2,0" fill="#68d8b5" stroke-width="2" opacity="1"></path><path aria-label="Year: 1728; TLS Iowa: 43; Investment hm: layer Tricycle Niger" role="graphics-symbol" aria-roledescription="point" transform="translate(177.77777777777777,28.000000000000004)" d="M2,0A2,2,0,1,1,-2,0A2,2,0,1,1,2,0" fill="#68d8b5" stroke-width="2" opacity="1"></path><path aria-label="Year: 1730; TLS Iowa: 29; Investment hm: layer Tricycle Niger" role="graphics-symbol" aria-roledescription="point" transform="translate(248.88888888888889,84.00000000000001)" d="M2,0A2,2,0,1,1,-2,0A2,2,0,1,1,2,0" fill="#68d8b5" stroke-width="2" opacity="1"></path><path aria-label="Year: 1732; TLS Iowa: 50; Investment hm: layer Tricycle Niger" role="graphics-symbol" aria-roledescription="point" transform="translate(320,0)" d="M2,0A2,2,0,1,1,-2,0A2,2,0,1,1,2,0" fill="#68d8b5" stroke-width="2" opacity="1"></path><path aria-label="Year: 1734; TLS Iowa: 47; Investment hm: layer Tricycle Niger" role="graphics-symbol" aria-roledescription="point" transform="translate(391.1111111111111,12.00000000000001)" d="M2,0A2,2,0,1,1,-2,0A2,2,0,1,1,2,0" fill="#68d8b5" stroke-width="2" opacity="1"></path><path aria-label="Year: 1736; TLS Iowa: 4; Investment hm: layer Tricycle Niger" role="graphics-symbol" aria-roledescription="point" transform="translate(462.22222222222223,184)" d="M2,0A2,2,0,1,1,-2,0A2,2,0,1,1,2,0" fill="#68d8b5" stroke-width="2" opacity="1"></path><path aria-label="Year: 1738; TLS Iowa: 1; Investment hm: layer Tricycle Niger" role="graphics-symbol" aria-roledescription="point" transform="translate(533.3333333333334,196)" d="M2,0A2,2,0,1,1,-2,0A2,2,0,1,1,2,0" fill="#68d8b5" stroke-width="2" opacity="1"></path><path aria-label="Year: 1740; TLS Iowa: 6; Investment hm: layer Tricycle Niger" role="graphics-symbol" aria-roledescription="point" transform="translate(604.4444444444445,176)" d="M2,0A2,2,0,1,1,-2,0A2,2,0,1,1,2,0" fill="#68d8b5" stroke-width="2" opacity="1"></path></g><g class="mark-group role-legend" role="graphics-symbol" aria-roledescription="legend" aria-label="Symbol legend titled 'Investment hm' for fill color and stroke color with 2 values: Dynamic, layer Tricycle Niger"><g transform="translate(0,254)"><path class="background" aria-hidden="true" d="M0,0h192v29h-192Z" pointer-events="none"></path><g><g class="mark-group role-legend-entry"><g transform="translate(0,16)"><path class="background" aria-hidden="true" d="M0,0h0v0h0Z" pointer-events="none"></path><g><g class="mark-group role-scope" role="graphics-object" aria-roledescription="group mark container"><g transform="translate(0,0.25)"><path class="background" aria-hidden="true" d="M0,0h54.486328125v12.5h-54.486328125Z" pointer-events="none" opacity="1"></path><g><g class="mark-symbol role-legend-symbol" pointer-events="none"><path transform="translate(6,6)" d="M5,0A5,5,0,1,1,-5,0A5,5,0,1,1,5,0" fill="#2aff9d" stroke="#2aff9d" stroke-width="1.5" opacity="1"></path></g><g class="mark-text role-legend-label" pointer-events="none"><text text-anchor="start" transform="translate(16,9)" font-family="monospace" font-size="10px" fill="#fff" opacity="1">Dynamic</text></g></g><path class="foreground" aria-hidden="true" d="" pointer-events="none" display="none"></path></g><g transform="translate(66,0.25)"><path class="background" aria-hidden="true" d="M0,0h125.9609375v12.5h-125.9609375Z" pointer-events="none" opacity="1"></path><g><g class="mark-symbol role-legend-symbol" pointer-events="none"><path transform="translate(6,6)" d="M5,0A5,5,0,1,1,-5,0A5,5,0,1,1,5,0" fill="#68d8b5" stroke="#68d8b5" stroke-width="1.5" opacity="1"></path></g><g class="mark-text role-legend-label" pointer-events="none"><text text-anchor="start" transform="translate(16,9)" font-family="monospace" font-size="10px" fill="#fff" opacity="1">layer Tricycle Niger</text></g></g><path class="foreground" aria-hidden="true" d="" pointer-events="none" display="none"></path></g></g></g><path class="foreground" aria-hidden="true" d="" pointer-events="none" display="none"></path></g></g><g class="mark-text role-legend-title" pointer-events="none"><text text-anchor="start" transform="translate(0,9)" font-family="monospace" font-size="11px" font-weight="bold" fill="#fff" opacity="1">Investment hm</text></g></g><path class="foreground" aria-hidden="true" d="" pointer-events="none" display="none"></path></g></g><g class="mark-group role-title"><g transform="translate(320,-52.42327592596568)"><path class="background" aria-hidden="true" d="M0,0h0v0h0Z" pointer-events="none"></path><g><g class="mark-text role-title-text" role="graphics-symbol" aria-roledescription="title" aria-label="Title text 'Bespoke West'" pointer-events="none"><text text-anchor="middle" transform="translate(0,20)" font-family="monospace" font-size="25px" font-weight="bold" fill="#fff" opacity="1">Bespoke West</text></g></g><path class="foreground" aria-hidden="true" d="" pointer-events="none" display="none"></path></g></g></g><path class="foreground" aria-hidden="true" d="" display="none"></path></g></g></g></svg>