<svg xmlns="http://www.w3.org/2000/svg" xmlns:xlink="http://www.w3.org/1999/xlink" version="1.1" class="marks" width="567" height="343" viewBox="0 0 567 343" style="background-color: rgb(51, 51, 51);"><g fill="none" stroke-miterlimit="10" transform="translate(30,113)"><g class="mark-group role-frame root" role="graphics-object" aria-roledescription="group mark container"><g transform="translate(0,0)"><path class="background" aria-hidden="true" d="M0.5,0.5h532v200h-532Z" fill="transparent" stroke="#ddd"></path><g><g class="mark-group role-axis" aria-hidden="true"><g transform="translate(0.5,200.5)"><path class="background" aria-hidden="true" d="M0,0h0v0h0Z" pointer-events="none"></path><g><g class="mark-rule role-axis-grid" pointer-events="none"><line transform="translate(24,-200)" x2="0" y2="200" stroke="#747474" stroke-width="1" stroke-dasharray="4, 2" opacity="1"></line><line transform="translate(73,-200)" x2="0" y2="200" stroke="#747474" stroke-width="1" stroke-dasharray="4, 2" opacity="1"></line><line transform="translate(121,-200)" x2="0" y2="200" stroke="#747474" stroke-width="1" stroke-dasharray="4, 2" opacity="1"></line><line transform="translate(169,-200)" x2="0" y2="200" stroke="#747474" stroke-width="1" stroke-dasharray="4, 2" opacity="1"></line><line transform="translate(218,-200)" x2="0" y2="200" stroke="#747474" stroke-width="1" stroke-dasharray="4, 2" opacity="1"></line><line transform="translate(266,-200)" x2="0" y2="200" stroke="#747474" stroke-width="1" stroke-dasharray="4, 2" opacity="1"></line><line transform="translate(314,-200)" x2="0" y2="200" stroke="#747474" stroke-width="1" stroke-dasharray="4, 2" opacity="1"></line><line transform="translate(363,-200)" x2="0" y2="200" stroke="#747474" stroke-width="1" stroke-dasharray="4, 2" opacity="1"></line><line transform="translate(411,-200)" x2="0" y2="200" stroke="#747474" stroke-width="1" stroke-dasharray="4, 2" opacity="1"></line><line transform="translate(459,-200)" x2="0" y2="200" stroke="#747474" stroke-width="1" stroke-dasharray="4, 2" opacity="1"></line><line transform="translate(508,-200)" x2="0" y2="200" stroke="#747474" stroke-width="1" stroke-dasharray="4, 2" opacity="1"></line></g></g><path class="foreground" aria-hidden="true" d="" pointer-events="none" display="none"></path></g></g><g class="mark-group role-axis" aria-hidden="true"><g transform="translate(0.5,0.5)"><path class="background" aria-hidden="true" d="M0,0h0v0h0Z" pointer-events="none"></path><g><g class="mark-rule role-axis-grid" pointer-events="none"><line transform="translate(0,200)" x2="532" y2="0" stroke="#747474" stroke-width="1" stroke-dasharray="4, 2" opacity="1"></line><line transform="translate(0,150)" x2="532" y2="0" stroke="#747474" stroke-width="1" stroke-dasharray="4, 2" opacity="1"></line><line transform="translate(0,100)" x2="532" y2="0" stroke="#747474" stroke-width="1" stroke-dasharray="4, 2" opacity="1"></line><line transform="translate(0,50)" x2="532" y2="0" stroke="#747474" stroke-width="1" stroke-dasharray="4, 2" opacity="1"></line><line transform="translate(0,0)" x2="532" y2="0" stroke="#747474" stroke-width="1" stroke-dasharray="4, 2" opacity="1"></line></g></g><path class="foreground" aria-hidden="true" d="" pointer-events="none" display="none"></path></g></g><g class="mark-group role-axis" role="graphics-symbol" aria-roledescription="axis" aria-label="X-axis for a discrete scale with 11 values: 1836, 1838, 1840, 1842, 1844, ending with 1856"><g transform="translate(0.5,200.5)"><path class="background" aria-hidden="true" d="M0,0h0v0h0Z" pointer-events="none"></path><g><g class="mark-rule role-axis-tick" pointer-events="none"><line transform="translate(24,0)" x2="0" y2="5" stroke="#888" stroke-width="1" opacity="1"></line><line transform="translate(73,0)" x2="0" y2="5" stroke="#888" stroke-width="1" opacity="1"></line><line transform="translate(121,0)" x2="0" y2="5" stroke="#888" stroke-width="1" opacity="1"></line><line transform="translate(169,0)" x2="0" y2="5" stroke="#888" stroke-width="1" opacity="1"></line><line transform="translate(218,0)" x2="0" y2="5" stroke="#888" stroke-width="1" opacity="1"></line><line transform="translate(266,0)" x2="0" y2="5" stroke="#888" stroke-width="1" opacity="1"></line><line transform="translate(314,0)" x2="0" y2="5" stroke="#888" stroke-width="1" opacity="1"></line><line transform="translate(363,0)" x2="0" y2="5" stroke="#888" stroke-width="1" opacity="1"></line><line transform="translate(411,0)" x2="0" y2="5" stroke="#888" stroke-width="1" opacity="1"></line><line transform="translate(459,0)" x2="0" y2="5" stroke="#888" stroke-width="1" opacity="1"></line><line transform="translate(508,0)" x2="0" y2="5" stroke="#888" stroke-width="1" opacity="1"></line></g><g class="mark-text role-axis-label" pointer-events="none"><text text-anchor="middle" transform="translate(24.18181818181816,21)" font-family="serif" font-size="18px" font-weight="bold" fill="#fff" opacity="1">1836</text><text text-anchor="middle" transform="translate(72.54545454545453,21)" font-family="serif" font-size="18px" font-weight="bold" fill="#fff" opacity="1">1838</text><text text-anchor="middle" transform="translate(120.90909090909089,21)" font-family="serif" font-size="18px" font-weight="bold" fill="#fff" opacity="1">1840</text><text text-anchor="middle" transform="translate(169.27272727272725,21)" font-family="serif" font-size="18px" font-weight="bold" fill="#fff" opacity="1">1842</text><text text-anchor="middle" transform="translate(217.63636363636363,21)" font-family="serif" font-size="18px" font-weight="bold" fill="#fff" opacity="1">1844</text><text text-anchor="middle" transform="translate(266,21)" font-family="serif" font-size="18px" font-weight="bold" fill="#fff" opacity="1">1846</text><text text-anchor="middle" transform="translate(314.3636363636364,21)" font-family="serif" font-size="18px" font-weight="bold" fill="#fff" opacity="1">1848</text><text text-anchor="middle" transform="translate(362.72727272727275,21)" font-family="serif" font-size="18px" font-weight="bold" fill="#fff" opacity="1">1850</text><text text-anchor="middle" transform="translate(411.0909090909091,21)" font-family="serif" font-size="18px" font-weight="bold" fill="#fff" opacity="1">1852</text><text text-anchor="middle" transform="translate(459.4545454545455,21)" font-family="serif" font-size="18px" font-weight="bold" fill="#fff" opacity="1">1854</text><text text-anchor="middle" transform="translate(507.81818181818187,21)" font-family="serif" font-size="18px" font-weight="bold" fill="#fff" opacity="1">1856</text></g><g class="mark-rule role-axis-domain" pointer-events="none"><line transform="translate(0,0)" x2="532" y2="0" stroke="#888" stroke-width="1" opacity="1"></line></g></g><path class="foreground" aria-hidden="true" d="" pointer-events="none" display="none"></path></g></g><g class="mark-group role-axis" role="graphics-symbol" aria-roledescription="axis" aria-label="Y-axis for a linear scale with values from 0 to 20"><g transform="translate(0.5,0.5)"><path class="background" aria-hidden="true" d="M0,0h0v0h0Z" pointer-events="none"></path><g><g class="mark-rule role-axis-tick" pointer-events="none"><line transform="translate(0,200)" x2="-5" y2="0" stroke="#888" stroke-width="1" opacity="1"></line><line transform="translate(0,150)" x2="-5" y2="0" stroke="#888" stroke-width="1" opacity="1"></line><line transform="translate(0,100)" x2="-5" y2="0" stroke="#888" stroke-width="1" opacity="1"></line><line transform="translate(0,50)" x2="-5" y2="0" stroke="#888" stroke-width="1" opacity="1"></line><line transform="translate(0,0)" x2="-5" y2="0" stroke="#888" stroke-width="1" opacity="1"></line></g><g class="mark-text role-axis-label" pointer-events="none"><text text-anchor="end" transform="translate(-7,205)" font-family="serif" font-size="18px" font-weight="bold" fill="#fff" opacity="1">0</text><text text-anchor="end" transform="translate(-7,155)" font-family="serif" font-size="18px" font-weight="bold" fill="#fff" opacity="1">5</text><text text-anchor="end" transform="translate(-7,105)" font-family="serif" font-size="18px" font-weight="bold" fill="#fff" opacity="1">10</text><text text-anchor="end" transform="translate(-7,55)" font-family="serif" font-size="18px" font-weight="bold" fill="#fff" opacity="1">15</text><text text-anchor="end" transform="translate(-7,5)" font-family="serif" font-size="18px" font-weight="bold" fill="#fff" opacity="1">20</text></g><g class="mark-rule role-axis-domain" pointer-events="none"><line transform="translate(0,200)" x2="0" y2="-200" stroke="#888" stroke-width="1" opacity="1"></line></g></g><path class="foreground" aria-hidden="true" d="" pointer-events="none" display="none"></path></g></g><g class="mark-group role-scope layer_0_pathgroup" role="graphics-object" aria-roledescription="group mark container"><g transform="translate(0,0)"><path class="background" aria-hidden="true" d="M0,0h532v200h-532Z"></path><g><g class="mark-line role-mark layer_0_marks" role="graphics-object" aria-roledescription="line mark container"><path aria-label="Year: 1836; District: 15; blockchains after West: Southeast Woman ipsum" role="graphics-symbol" aria-roledescription="line mark" d="M24.18181818181816,50C40.30303030303029,88.42162538440526,56.42424242424242,126.84325076881052,72.54545454545453,120C88.66666666666664,113.15674923118948,104.78787878787878,61.04862230916318,120.90909090909089,80C137.030303030303,98.95137769083682,153.15151515151513,188.96225999453682,169.27272727272725,180C185.39393939393938,171.03774000546318,201.5151515151515,63.10233771268956,217.63636363636363,10.000000000000009C233.75757575757575,-43.10233771268955,249.87878787878788,-41.37161084529505,266,10.000000000000009C282.1212121212121,61.37161084529507,298.2424242424242,162.3841056684907,314.3636363636364,170C330.48484848484856,177.6158943315093,346.60606060606074,91.83518817133239,362.72727272727275,70C378.84848484848476,48.16481182866762,394.969696969697,90.27514164617973,411.0909090909091,89.99999999999999C427.21212121212125,89.72485835382024,443.33333333333337,47.06424524394863,459.4545454545455,30.000000000000004C475.5757575757576,12.93575475605137,491.69696969696975,21.467877378025687,507.81818181818187,30.000000000000004" stroke="#ee7060" stroke-width="2" stroke-dasharray="1,0"></path></g></g><path class="foreground" aria-hidden="true" d="" display="none"></path></g><g transform="translate(0,0)"><path class="background" aria-hidden="true" d="M0,0h532v200h-532Z"></path><g><g class="mark-line role-mark layer_0_marks" role="graphics-object" aria-roledescription="line mark container"><path aria-label="Year: 1836; District: 18; blockchains after West: magenta Borders Direct" role="graphics-symbol" aria-roledescription="line mark" d="M24.18181818181816,19.999999999999996C40.30303030303029,76.78974243745981,56.42424242424242,133.57948487491961,72.54545454545453,150C88.66666666666664,166.42051512508039,104.78787878787878,142.47180293778143,120.90909090909089,110.00000000000001C137.030303030303,77.5281970622186,153.15151515151513,36.53330337395474,169.27272727272725,10.000000000000009C185.39393939393938,-16.53330337395472,201.5151515151515,-28.605016433600323,217.63636363636363,10.000000000000009C233.75757575757575,48.60501643360034,249.87878787878788,137.88676236044657,266,170C282.1212121212121,202.11323763955343,298.2424242424242,177.05796699181406,314.3636363636364,140C330.48484848484856,102.94203300818594,346.60606060606074,53.88136967229726,362.72727272727275,50C378.84848484848476,46.11863032770274,394.969696969697,87.41655431899687,411.0909090909091,120C427.21212121212125,152.58344568100313,443.33333333333337,176.45241305171518,459.4545454545455,180C475.5757575757576,183.54758694828482,491.69696969696975,166.7737934741424,507.81818181818187,150" stroke="#f606a3" stroke-width="2" stroke-dasharray="1,0"></path></g></g><path class="foreground" aria-hidden="true" d="" display="none"></path></g></g><g class="mark-symbol role-mark layer_1_marks" role="graphics-object" aria-roledescription="symbol mark container"><path aria-label="Year: 1836; District: 15; blockchains after West: Southeast Woman ipsum" role="graphics-symbol" aria-roledescription="point" transform="translate(24.18181818181816,50)" d="M2.7386127875258306,0A2.7386127875258306,2.7386127875258306,0,1,1,-2.7386127875258306,0A2.7386127875258306,2.7386127875258306,0,1,1,2.7386127875258306,0" fill="#333333" stroke="#ee7060" stroke-width="2" opacity="1"></path><path aria-label="Year: 1838; District: 8; blockchains after West: Southeast Woman ipsum" role="graphics-symbol" aria-roledescription="point" transform="translate(72.54545454545453,120)" d="M2.7386127875258306,0A2.7386127875258306,2.7386127875258306,0,1,1,-2.7386127875258306,0A2.7386127875258306,2.7386127875258306,0,1,1,2.7386127875258306,0" fill="#333333" stroke="#ee7060" stroke-width="2" opacity="1"></path><path aria-label="Year: 1840; District: 12; blockchains after West: Southeast Woman ipsum" role="graphics-symbol" aria-roledescription="point" transform="translate(120.90909090909089,80)" d="M2.7386127875258306,0A2.7386127875258306,2.7386127875258306,0,1,1,-2.7386127875258306,0A2.7386127875258306,2.7386127875258306,0,1,1,2.7386127875258306,0" fill="#333333" stroke="#ee7060" stroke-width="2" opacity="1"></path><path aria-label="Year: 1842; District: 2; blockchains after West: Southeast Woman ipsum" role="graphics-symbol" aria-roledescription="point" transform="translate(169.27272727272725,180)" d="M2.7386127875258306,0A2.7386127875258306,2.7386127875258306,0,1,1,-2.7386127875258306,0A2.7386127875258306,2.7386127875258306,0,1,1,2.7386127875258306,0" fill="#333333" stroke="#ee7060" stroke-width="2" opacity="1"></path><path aria-label="Year: 1844; District: 19; blockchains after West: Southeast Woman ipsum" role="graphics-symbol" aria-roledescription="point" transform="translate(217.63636363636363,10.000000000000009)" d="M2.7386127875258306,0A2.7386127875258306,2.7386127875258306,0,1,1,-2.7386127875258306,0A2.7386127875258306,2.7386127875258306,0,1,1,2.7386127875258306,0" fill="#333333" stroke="#ee7060" stroke-width="2" opacity="1"></path><path aria-label="Year: 1846; District: 19; blockchains after West: Southeast Woman ipsum" role="graphics-symbol" aria-roledescription="point" transform="translate(266,10.000000000000009)" d="M2.7386127875258306,0A2.7386127875258306,2.7386127875258306,0,1,1,-2.7386127875258306,0A2.7386127875258306,2.7386127875258306,0,1,1,2.7386127875258306,0" fill="#333333" stroke="#ee7060" stroke-width="2" opacity="1"></path><path aria-label="Year: 1848; District: 3; blockchains after West: Southeast Woman ipsum" role="graphics-symbol" aria-roledescription="point" transform="translate(314.3636363636364,170)" d="M2.7386127875258306,0A2.7386127875258306,2.7386127875258306,0,1,1,-2.7386127875258306,0A2.7386127875258306,2.7386127875258306,0,1,1,2.7386127875258306,0" fill="#333333" stroke="#ee7060" stroke-width="2" opacity="1"></path><path aria-label="Year: 1850; District: 13; blockchains after West: Southeast Woman ipsum" role="graphics-symbol" aria-roledescription="point" transform="translate(362.72727272727275,70)" d="M2.7386127875258306,0A2.7386127875258306,2.7386127875258306,0,1,1,-2.7386127875258306,0A2.7386127875258306,2.7386127875258306,0,1,1,2.7386127875258306,0" fill="#333333" stroke="#ee7060" stroke-width="2" opacity="1"></path><path aria-label="Year: 1852; District: 11; blockchains after West: Southeast Woman ipsum" role="graphics-symbol" aria-roledescription="point" transform="translate(411.0909090909091,89.99999999999999)" d="M2.7386127875258306,0A2.7386127875258306,2.7386127875258306,0,1,1,-2.7386127875258306,0A2.7386127875258306,2.7386127875258306,0,1,1,2.7386127875258306,0" fill="#333333" stroke="#ee7060" stroke-width="2" opacity="1"></path><path aria-label="Year: 1854; District: 17; blockchains after West: Southeast Woman ipsum" role="graphics-symbol" aria-roledescription="point" transform="translate(459.4545454545455,30.000000000000004)" d="M2.7386127875258306,0A2.7386127875258306,2.7386127875258306,0,1,1,-2.7386127875258306,0A2.7386127875258306,2.7386127875258306,0,1,1,2.7386127875258306,0" fill="#333333" stroke="#ee7060" stroke-width="2" opacity="1"></path><path aria-label="Year: 1856; District: 17; blockchains after West: Southeast Woman ipsum" role="graphics-symbol" aria-roledescription="point" transform="translate(507.81818181818187,30.000000000000004)" d="M2.7386127875258306,0A2.7386127875258306,2.7386127875258306,0,1,1,-2.7386127875258306,0A2.7386127875258306,2.7386127875258306,0,1,1,2.7386127875258306,0" fill="#333333" stroke="#ee7060" stroke-width="2" opacity="1"></path><path aria-label="Year: 1836; District: 18; blockchains after West: magenta Borders Direct" role="graphics-symbol" aria-roledescription="point" transform="translate(24.18181818181816,19.999999999999996)" d="M2.7386127875258306,0A2.7386127875258306,2.7386127875258306,0,1,1,-2.7386127875258306,0A2.7386127875258306,2.7386127875258306,0,1,1,2.7386127875258306,0" fill="#333333" stroke="#f606a3" stroke-width="2" opacity="1"></path><path aria-label="Year: 1838; District: 5; blockchains after West: magenta Borders Direct" role="graphics-symbol" aria-roledescription="point" transform="translate(72.54545454545453,150)" d="M2.7386127875258306,0A2.7386127875258306,2.7386127875258306,0,1,1,-2.7386127875258306,0A2.7386127875258306,2.7386127875258306,0,1,1,2.7386127875258306,0" fill="#333333" stroke="#f606a3" stroke-width="2" opacity="1"></path><path aria-label="Year: 1840; District: 9; blockchains after West: magenta Borders Direct" role="graphics-symbol" aria-roledescription="point" transform="translate(120.90909090909089,110.00000000000001)" d="M2.7386127875258306,0A2.7386127875258306,2.7386127875258306,0,1,1,-2.7386127875258306,0A2.7386127875258306,2.7386127875258306,0,1,1,2.7386127875258306,0" fill="#333333" stroke="#f606a3" stroke-width="2" opacity="1"></path><path aria-label="Year: 1842; District: 19; blockchains after West: magenta Borders Direct" role="graphics-symbol" aria-roledescription="point" transform="translate(169.27272727272725,10.000000000000009)" d="M2.7386127875258306,0A2.7386127875258306,2.7386127875258306,0,1,1,-2.7386127875258306,0A2.7386127875258306,2.7386127875258306,0,1,1,2.7386127875258306,0" fill="#333333" stroke="#f606a3" stroke-width="2" opacity="1"></path><path aria-label="Year: 1844; District: 19; blockchains after West: magenta Borders Direct" role="graphics-symbol" aria-roledescription="point" transform="translate(217.63636363636363,10.000000000000009)" d="M2.7386127875258306,0A2.7386127875258306,2.7386127875258306,0,1,1,-2.7386127875258306,0A2.7386127875258306,2.7386127875258306,0,1,1,2.7386127875258306,0" fill="#333333" stroke="#f606a3" stroke-width="2" opacity="1"></path><path aria-label="Year: 1846; District: 3; blockchains after West: magenta Borders Direct" role="graphics-symbol" aria-roledescription="point" transform="translate(266,170)" d="M2.7386127875258306,0A2.7386127875258306,2.7386127875258306,0,1,1,-2.7386127875258306,0A2.7386127875258306,2.7386127875258306,0,1,1,2.7386127875258306,0" fill="#333333" stroke="#f606a3" stroke-width="2" opacity="1"></path><path aria-label="Year: 1848; District: 6; blockchains after West: magenta Borders Direct" role="graphics-symbol" aria-roledescription="point" transform="translate(314.3636363636364,140)" d="M2.7386127875258306,0A2.7386127875258306,2.7386127875258306,0,1,1,-2.7386127875258306,0A2.7386127875258306,2.7386127875258306,0,1,1,2.7386127875258306,0" fill="#333333" stroke="#f606a3" stroke-width="2" opacity="1"></path><path aria-label="Year: 1850; District: 15; blockchains after West: magenta Borders Direct" role="graphics-symbol" aria-roledescription="point" transform="translate(362.72727272727275,50)" d="M2.7386127875258306,0A2.7386127875258306,2.7386127875258306,0,1,1,-2.7386127875258306,0A2.7386127875258306,2.7386127875258306,0,1,1,2.7386127875258306,0" fill="#333333" stroke="#f606a3" stroke-width="2" opacity="1"></path><path aria-label="Year: 1852; District: 8; blockchains after West: magenta Borders Direct" role="graphics-symbol" aria-roledescription="point" transform="translate(411.0909090909091,120)" d="M2.7386127875258306,0A2.7386127875258306,2.7386127875258306,0,1,1,-2.7386127875258306,0A2.7386127875258306,2.7386127875258306,0,1,1,2.7386127875258306,0" fill="#333333" stroke="#f606a3" stroke-width="2" opacity="1"></path><path aria-label="Year: 1854; District: 2; blockchains after West: magenta Borders Direct" role="graphics-symbol" aria-roledescription="point" transform="translate(459.4545454545455,180)" d="M2.7386127875258306,0A2.7386127875258306,2.7386127875258306,0,1,1,-2.7386127875258306,0A2.7386127875258306,2.7386127875258306,0,1,1,2.7386127875258306,0" fill="#333333" stroke="#f606a3" stroke-width="2" opacity="1"></path><path aria-label="Year: 1856; District: 5; blockchains after West: magenta Borders Direct" role="graphics-symbol" aria-roledescription="point" transform="translate(507.81818181818187,150)" d="M2.7386127875258306,0A2.7386127875258306,2.7386127875258306,0,1,1,-2.7386127875258306,0A2.7386127875258306,2.7386127875258306,0,1,1,2.7386127875258306,0" fill="#333333" stroke="#f606a3" stroke-width="2" opacity="1"></path></g><g class="mark-text role-mark layer_2_marks" role="graphics-object" aria-roledescription="text mark container"><text aria-label="Year: 1836; District: 15" role="graphics-symbol" aria-roledescription="text mark" text-anchor="middle" transform="translate(24.18181818181816,79)" font-family="serif" font-size="12px" fill="#fff" opacity="1">15</text><text aria-label="Year: 1838; District: 8" role="graphics-symbol" aria-roledescription="text mark" text-anchor="middle" transform="translate(72.54545454545453,149)" font-family="serif" font-size="12px" fill="#fff" opacity="1">8</text><text aria-label="Year: 1840; District: 12" role="graphics-symbol" aria-roledescription="text mark" text-anchor="middle" transform="translate(120.90909090909089,109)" font-family="serif" font-size="12px" fill="#fff" opacity="1">12</text><text aria-label="Year: 1842; District: 2" role="graphics-symbol" aria-roledescription="text mark" text-anchor="middle" transform="translate(169.27272727272725,209)" font-family="serif" font-size="12px" fill="#fff" opacity="1">2</text><text aria-label="Year: 1844; District: 19" role="graphics-symbol" aria-roledescription="text mark" text-anchor="middle" transform="translate(217.63636363636363,39.00000000000001)" font-family="serif" font-size="12px" fill="#fff" opacity="1">19</text><text aria-label="Year: 1846; District: 19" role="graphics-symbol" aria-roledescription="text mark" text-anchor="middle" transform="translate(266,39.00000000000001)" font-family="serif" font-size="12px" fill="#fff" opacity="1">19</text><text aria-label="Year: 1848; District: 3" role="graphics-symbol" aria-roledescription="text mark" text-anchor="middle" transform="translate(314.3636363636364,199)" font-family="serif" font-size="12px" fill="#fff" opacity="1">3</text><text aria-label="Year: 1850; District: 13" role="graphics-symbol" aria-roledescription="text mark" text-anchor="middle" transform="translate(362.72727272727275,99)" font-family="serif" font-size="12px" fill="#fff" opacity="1">13</text><text aria-label="Year: 1852; District: 11" role="graphics-symbol" aria-roledescription="text mark" text-anchor="middle" transform="translate(411.0909090909091,118.99999999999999)" font-family="serif" font-size="12px" fill="#fff" opacity="1">11</text><text aria-label="Year: 1854; District: 17" role="graphics-symbol" aria-roledescription="text mark" text-anchor="middle" transform="translate(459.4545454545455,59)" font-family="serif" font-size="12px" fill="#fff" opacity="1">17</text><text aria-label="Year: 1856; District: 17" role="graphics-symbol" aria-roledescription="text mark" text-anchor="middle" transform="translate(507.81818181818187,59)" font-family="serif" font-size="12px" fill="#fff" opacity="1">17</text><text aria-label="Year: 1836; District: 18" role="graphics-symbol" aria-roledescription="text mark" text-anchor="middle" transform="translate(24.18181818181816,49)" font-family="serif" font-size="12px" fill="#fff" opacity="1">18</text><text aria-label="Year: 1838; District: 5" role="graphics-symbol" aria-roledescription="text mark" text-anchor="middle" transform="translate(72.54545454545453,179)" font-family="serif" font-size="12px" fill="#fff" opacity="1">5</text><text aria-label="Year: 1840; District: 9" role="graphics-symbol" aria-roledescription="text mark" text-anchor="middle" transform="translate(120.90909090909089,139)" font-family="serif" font-size="12px" fill="#fff" opacity="1">9</text><text aria-label="Year: 1842; District: 19" role="graphics-symbol" aria-roledescription="text mark" text-anchor="middle" transform="translate(169.27272727272725,39.00000000000001)" font-family="serif" font-size="12px" fill="#fff" opacity="1">19</text><text aria-label="Year: 1844; District: 19" role="graphics-symbol" aria-roledescription="text mark" text-anchor="middle" transform="translate(217.63636363636363,39.00000000000001)" font-family="serif" font-size="12px" fill="#fff" opacity="1">19</text><text aria-label="Year: 1846; District: 3" role="graphics-symbol" aria-roledescription="text mark" text-anchor="middle" transform="translate(266,199)" font-family="serif" font-size="12px" fill="#fff" opacity="1">3</text><text aria-label="Year: 1848; District: 6" role="graphics-symbol" aria-roledescription="text mark" text-anchor="middle" transform="translate(314.3636363636364,169)" font-family="serif" font-size="12px" fill="#fff" opacity="1">6</text><text aria-label="Year: 1850; District: 15" role="graphics-symbol" aria-roledescription="text mark" text-anchor="middle" transform="translate(362.72727272727275,79)" font-family="serif" font-size="12px" fill="#fff" opacity="1">15</text><text aria-label="Year: 1852; District: 8" role="graphics-symbol" aria-roledescription="text mark" text-anchor="middle" transform="translate(411.0909090909091,149)" font-family="serif" font-size="12px" fill="#fff" opacity="1">8</text><text aria-label="Year: 1854; District: 2" role="graphics-symbol" aria-roledescription="text mark" text-anchor="middle" transform="translate(459.4545454545455,209)" font-family="serif" font-size="12px" fill="#fff" opacity="1">2</text><text aria-label="Year: 1856; District: 5" role="graphics-symbol" aria-roledescription="text mark" text-anchor="middle" transform="translate(507.81818181818187,179)" font-family="serif" font-size="12px" fill="#fff" opacity="1">5</text></g><g class="mark-group role-legend" role="graphics-symbol" aria-roledescription="legend" aria-label="Symbol legend titled 'blockchains after West' for stroke color with 2 values: Southeast Woman ipsum, magenta Borders Direct"><g transform="translate(0,-79)"><path class="background" aria-hidden="true" d="M0,0h239v29h-239Z" pointer-events="none"></path><g><g class="mark-group role-legend-entry"><g transform="translate(0,16)"><path class="background" aria-hidden="true" d="M0,0h0v0h0Z" pointer-events="none"></path><g><g class="mark-group role-scope" role="graphics-object" aria-roledescription="group mark container"><g transform="translate(0,0.25)"><path class="background" aria-hidden="true" d="M0,0h115.189453125v12.5h-115.189453125Z" pointer-events="none" opacity="1"></path><g><g class="mark-symbol role-legend-symbol" pointer-events="none"><path transform="translate(6,6)" d="M5,0A5,5,0,1,1,-5,0A5,5,0,1,1,5,0" fill="#333333" stroke="#ee7060" stroke-width="1.5" opacity="1"></path></g><g class="mark-text role-legend-label" pointer-events="none"><text text-anchor="start" transform="translate(16,9)" font-family="serif" font-size="10px" fill="#fff" opacity="1">Southeast Woman ipsum</text></g></g><path class="foreground" aria-hidden="true" d="" pointer-events="none" display="none"></path></g><g transform="translate(127,0.25)"><path class="background" aria-hidden="true" d="M0,0h111.517578125v12.5h-111.517578125Z" pointer-events="none" opacity="1"></path><g><g class="mark-symbol role-legend-symbol" pointer-events="none"><path transform="translate(6,6)" d="M5,0A5,5,0,1,1,-5,0A5,5,0,1,1,5,0" fill="#333333" stroke="#f606a3" stroke-width="1.5" opacity="1"></path></g><g class="mark-text role-legend-label" pointer-events="none"><text text-anchor="start" transform="translate(16,9)" font-family="serif" font-size="10px" fill="#fff" opacity="1">magenta Borders Direct</text></g></g><path class="foreground" aria-hidden="true" d="" pointer-events="none" display="none"></path></g></g></g><path class="foreground" aria-hidden="true" d="" pointer-events="none" display="none"></path></g></g><g class="mark-text role-legend-title" pointer-events="none"><text text-anchor="start" transform="translate(0,9)" font-family="serif" font-size="11px" font-weight="bold" fill="#fff" opacity="1">blockchains after West</text></g></g><path class="foreground" aria-hidden="true" d="" pointer-events="none" display="none"></path></g></g><g class="mark-group role-title"><g transform="translate(-25,-108)"><path class="background" aria-hidden="true" d="M0,0h0v0h0Z" pointer-events="none"></path><g><g class="mark-text role-title-text" role="graphics-symbol" aria-roledescription="title" aria-label="Title text 'male bandwidth whether'" pointer-events="none"><text text-anchor="start" transform="translate(0,20)" font-family="serif" font-size="25px" font-weight="bold" fill="#fff" opacity="1">male bandwidth whether</text></g></g><path class="foreground" aria-hidden="true" d="" pointer-events="none" display="none"></path></g></g></g><path class="foreground" aria-hidden="true" d="" display="none"></path></g></g></g></svg>