<svg xmlns="http://www.w3.org/2000/svg" xmlns:xlink="http://www.w3.org/1999/xlink" version="1.1" class="marks" width="574" height="331" viewBox="0 0 574 331" style="background-color: rgb(255, 255, 255);"><g fill="none" stroke-miterlimit="10" transform="translate(26,49)"><g class="mark-group role-frame root" role="graphics-object" aria-roledescription="group mark container"><g transform="translate(0,0)"><path class="background" aria-hidden="true" d="M0.5,0.5h543v200h-543Z" fill="transparent" stroke="#ddd"></path><g><g class="mark-group role-axis" aria-hidden="true"><g transform="translate(0.5,0.5)"><path class="background" aria-hidden="true" d="M0,0h0v0h0Z" pointer-events="none"></path><g><g class="mark-rule role-axis-grid" pointer-events="none"><line transform="translate(0,200)" x2="543" y2="0" stroke="#D0D0D0" stroke-width="1" stroke-dasharray="1,0" opacity="1"></line><line transform="translate(0,150)" x2="543" y2="0" stroke="#D0D0D0" stroke-width="1" stroke-dasharray="1,0" opacity="1"></line><line transform="translate(0,100)" x2="543" y2="0" stroke="#D0D0D0" stroke-width="1" stroke-dasharray="1,0" opacity="1"></line><line transform="translate(0,50)" x2="543" y2="0" stroke="#D0D0D0" stroke-width="1" stroke-dasharray="1,0" opacity="1"></line><line transform="translate(0,0)" x2="543" y2="0" stroke="#D0D0D0" stroke-width="1" stroke-dasharray="1,0" opacity="1"></line></g></g><path class="foreground" aria-hidden="true" d="" pointer-events="none" display="none"></path></g></g><g class="mark-group role-axis" role="graphics-symbol" aria-roledescription="axis" aria-label="X-axis for a discrete scale with 7 values: 1890, 1892, 1894, 1896, 1898, 1900, 1902"><g transform="translate(0.5,200.5)"><path class="background" aria-hidden="true" d="M0,0h0v0h0Z" pointer-events="none"></path><g><g class="mark-rule role-axis-tick" pointer-events="none"><line transform="translate(39,0)" x2="0" y2="5" stroke="#888" stroke-width="1" opacity="1"></line><line transform="translate(116,0)" x2="0" y2="5" stroke="#888" stroke-width="1" opacity="1"></line><line transform="translate(194,0)" x2="0" y2="5" stroke="#888" stroke-width="1" opacity="1"></line><line transform="translate(272,0)" x2="0" y2="5" stroke="#888" stroke-width="1" opacity="1"></line><line transform="translate(349,0)" x2="0" y2="5" stroke="#888" stroke-width="1" opacity="1"></line><line transform="translate(427,0)" x2="0" y2="5" stroke="#888" stroke-width="1" opacity="1"></line><line transform="translate(504,0)" x2="0" y2="5" stroke="#888" stroke-width="1" opacity="1"></line></g><g class="mark-text role-axis-label" pointer-events="none"><text text-anchor="start" transform="translate(38.78571428571428,7) rotate(90) translate(0,6)" font-family="serif" font-size="19px" font-weight="normal" fill="#000" opacity="1">1890</text><text text-anchor="start" transform="translate(116.35714285714285,7) rotate(90) translate(0,6)" font-family="serif" font-size="19px" font-weight="normal" fill="#000" opacity="1">1892</text><text text-anchor="start" transform="translate(193.92857142857142,7) rotate(90) translate(0,6)" font-family="serif" font-size="19px" font-weight="normal" fill="#000" opacity="1">1894</text><text text-anchor="start" transform="translate(271.5,7) rotate(90) translate(0,6)" font-family="serif" font-size="19px" font-weight="normal" fill="#000" opacity="1">1896</text><text text-anchor="start" transform="translate(349.07142857142856,7) rotate(90) translate(0,6)" font-family="serif" font-size="19px" font-weight="normal" fill="#000" opacity="1">1898</text><text text-anchor="start" transform="translate(426.6428571428571,7) rotate(90) translate(0,6)" font-family="serif" font-size="19px" font-weight="normal" fill="#000" opacity="1">1900</text><text text-anchor="start" transform="translate(504.2142857142857,7) rotate(90) translate(0,6)" font-family="serif" font-size="19px" font-weight="normal" fill="#000" opacity="1">1902</text></g><g class="mark-rule role-axis-domain" pointer-events="none"><line transform="translate(0,0)" x2="543" y2="0" stroke="#888" stroke-width="1" opacity="1"></line></g></g><path class="foreground" aria-hidden="true" d="" pointer-events="none" display="none"></path></g></g><g class="mark-group role-axis" role="graphics-symbol" aria-roledescription="axis" aria-label="Y-axis for a linear scale with values from 0 to 800"><g transform="translate(0.5,0.5)"><path class="background" aria-hidden="true" d="M0,0h0v0h0Z" pointer-events="none"></path><g><g class="mark-text role-axis-label" pointer-events="none"><text text-anchor="middle" transform="translate(-2,200) rotate(90) translate(0,15)" font-family="serif" font-size="19px" font-weight="normal" fill="#000" opacity="1">0</text><text text-anchor="middle" transform="translate(-2,150) rotate(90) translate(0,15)" font-family="serif" font-size="19px" font-weight="normal" fill="#000" opacity="1">200</text><text text-anchor="middle" transform="translate(-2,100) rotate(90) translate(0,15)" font-family="serif" font-size="19px" font-weight="normal" fill="#000" opacity="1">400</text><text text-anchor="middle" transform="translate(-2,50) rotate(90) translate(0,15)" font-family="serif" font-size="19px" font-weight="normal" fill="#000" opacity="1">600</text><text text-anchor="middle" transform="translate(-2,0) rotate(90) translate(0,15)" font-family="serif" font-size="19px" font-weight="normal" fill="#000" opacity="1">800</text></g><g class="mark-rule role-axis-domain" pointer-events="none"><line transform="translate(0,200)" x2="0" y2="-200" stroke="#888" stroke-width="1" opacity="1"></line></g></g><path class="foreground" aria-hidden="true" d="" pointer-events="none" display="none"></path></g></g><g class="mark-group role-scope layer_0_pathgroup" role="graphics-object" aria-roledescription="group mark container"><g transform="translate(0,0)"><path class="background" aria-hidden="true" d="M0,0h543v200h-543Z"></path><g><g class="mark-line role-mark layer_0_marks" role="graphics-object" aria-roledescription="line mark container"><path aria-label="Year: 1890; Northwest Northwest: 496; Paraguay: Wooden" role="graphics-symbol" aria-roledescription="line mark" d="M38.78571428571428,76L116.35714285714285,79.25L193.92857142857142,19.500000000000007L271.5,99L349.07142857142856,108.25L426.6428571428571,46L504.2142857142857,151.25" stroke="#a9a8ee" stroke-width="2" stroke-dasharray="8,8"></path></g></g><path class="foreground" aria-hidden="true" d="" display="none"></path></g><g transform="translate(0,0)"><path class="background" aria-hidden="true" d="M0,0h543v200h-543Z"></path><g><g class="mark-line role-mark layer_0_marks" role="graphics-object" aria-roledescription="line mark container"><path aria-label="Year: 1890; Northwest Northwest: 31; Paraguay: Greece" role="graphics-symbol" aria-roledescription="line mark" d="M38.78571428571428,192.25L116.35714285714285,20.75L193.92857142857142,193.75L271.5,105.75000000000001L349.07142857142856,169L426.6428571428571,31.25L504.2142857142857,15.749999999999996" stroke="#3cd7d5" stroke-width="2" stroke-dasharray="8,8"></path></g></g><path class="foreground" aria-hidden="true" d="" display="none"></path></g></g><g class="mark-symbol role-mark layer_1_marks" role="graphics-object" aria-roledescription="symbol mark container"><path aria-label="Year: 1890; Northwest Northwest: 496; Paraguay: Wooden" role="graphics-symbol" aria-roledescription="point" transform="translate(38.78571428571428,76)" d="M2.7386127875258306,0A2.7386127875258306,2.7386127875258306,0,1,1,-2.7386127875258306,0A2.7386127875258306,2.7386127875258306,0,1,1,2.7386127875258306,0" fill="#fff" stroke="#a9a8ee" stroke-width="4" opacity="1"></path><path aria-label="Year: 1892; Northwest Northwest: 483; Paraguay: Wooden" role="graphics-symbol" aria-roledescription="point" transform="translate(116.35714285714285,79.25)" d="M2.7386127875258306,0A2.7386127875258306,2.7386127875258306,0,1,1,-2.7386127875258306,0A2.7386127875258306,2.7386127875258306,0,1,1,2.7386127875258306,0" fill="#fff" stroke="#a9a8ee" stroke-width="4" opacity="1"></path><path aria-label="Year: 1894; Northwest Northwest: 722; Paraguay: Wooden" role="graphics-symbol" aria-roledescription="point" transform="translate(193.92857142857142,19.500000000000007)" d="M2.7386127875258306,0A2.7386127875258306,2.7386127875258306,0,1,1,-2.7386127875258306,0A2.7386127875258306,2.7386127875258306,0,1,1,2.7386127875258306,0" fill="#fff" stroke="#a9a8ee" stroke-width="4" opacity="1"></path><path aria-label="Year: 1896; Northwest Northwest: 404; Paraguay: Wooden" role="graphics-symbol" aria-roledescription="point" transform="translate(271.5,99)" d="M2.7386127875258306,0A2.7386127875258306,2.7386127875258306,0,1,1,-2.7386127875258306,0A2.7386127875258306,2.7386127875258306,0,1,1,2.7386127875258306,0" fill="#fff" stroke="#a9a8ee" stroke-width="4" opacity="1"></path><path aria-label="Year: 1898; Northwest Northwest: 367; Paraguay: Wooden" role="graphics-symbol" aria-roledescription="point" transform="translate(349.07142857142856,108.25)" d="M2.7386127875258306,0A2.7386127875258306,2.7386127875258306,0,1,1,-2.7386127875258306,0A2.7386127875258306,2.7386127875258306,0,1,1,2.7386127875258306,0" fill="#fff" stroke="#a9a8ee" stroke-width="4" opacity="1"></path><path aria-label="Year: 1900; Northwest Northwest: 616; Paraguay: Wooden" role="graphics-symbol" aria-roledescription="point" transform="translate(426.6428571428571,46)" d="M2.7386127875258306,0A2.7386127875258306,2.7386127875258306,0,1,1,-2.7386127875258306,0A2.7386127875258306,2.7386127875258306,0,1,1,2.7386127875258306,0" fill="#fff" stroke="#a9a8ee" stroke-width="4" opacity="1"></path><path aria-label="Year: 1902; Northwest Northwest: 195; Paraguay: Wooden" role="graphics-symbol" aria-roledescription="point" transform="translate(504.2142857142857,151.25)" d="M2.7386127875258306,0A2.7386127875258306,2.7386127875258306,0,1,1,-2.7386127875258306,0A2.7386127875258306,2.7386127875258306,0,1,1,2.7386127875258306,0" fill="#fff" stroke="#a9a8ee" stroke-width="4" opacity="1"></path><path aria-label="Year: 1890; Northwest Northwest: 31; Paraguay: Greece" role="graphics-symbol" aria-roledescription="point" transform="translate(38.78571428571428,192.25)" d="M2.7386127875258306,0A2.7386127875258306,2.7386127875258306,0,1,1,-2.7386127875258306,0A2.7386127875258306,2.7386127875258306,0,1,1,2.7386127875258306,0" fill="#fff" stroke="#3cd7d5" stroke-width="4" opacity="1"></path><path aria-label="Year: 1892; Northwest Northwest: 717; Paraguay: Greece" role="graphics-symbol" aria-roledescription="point" transform="translate(116.35714285714285,20.75)" d="M2.7386127875258306,0A2.7386127875258306,2.7386127875258306,0,1,1,-2.7386127875258306,0A2.7386127875258306,2.7386127875258306,0,1,1,2.7386127875258306,0" fill="#fff" stroke="#3cd7d5" stroke-width="4" opacity="1"></path><path aria-label="Year: 1894; Northwest Northwest: 25; Paraguay: Greece" role="graphics-symbol" aria-roledescription="point" transform="translate(193.92857142857142,193.75)" d="M2.7386127875258306,0A2.7386127875258306,2.7386127875258306,0,1,1,-2.7386127875258306,0A2.7386127875258306,2.7386127875258306,0,1,1,2.7386127875258306,0" fill="#fff" stroke="#3cd7d5" stroke-width="4" opacity="1"></path><path aria-label="Year: 1896; Northwest Northwest: 377; Paraguay: Greece" role="graphics-symbol" aria-roledescription="point" transform="translate(271.5,105.75000000000001)" d="M2.7386127875258306,0A2.7386127875258306,2.7386127875258306,0,1,1,-2.7386127875258306,0A2.7386127875258306,2.7386127875258306,0,1,1,2.7386127875258306,0" fill="#fff" stroke="#3cd7d5" stroke-width="4" opacity="1"></path><path aria-label="Year: 1898; Northwest Northwest: 124; Paraguay: Greece" role="graphics-symbol" aria-roledescription="point" transform="translate(349.07142857142856,169)" d="M2.7386127875258306,0A2.7386127875258306,2.7386127875258306,0,1,1,-2.7386127875258306,0A2.7386127875258306,2.7386127875258306,0,1,1,2.7386127875258306,0" fill="#fff" stroke="#3cd7d5" stroke-width="4" opacity="1"></path><path aria-label="Year: 1900; Northwest Northwest: 675; Paraguay: Greece" role="graphics-symbol" aria-roledescription="point" transform="translate(426.6428571428571,31.25)" d="M2.7386127875258306,0A2.7386127875258306,2.7386127875258306,0,1,1,-2.7386127875258306,0A2.7386127875258306,2.7386127875258306,0,1,1,2.7386127875258306,0" fill="#fff" stroke="#3cd7d5" stroke-width="4" opacity="1"></path><path aria-label="Year: 1902; Northwest Northwest: 737; Paraguay: Greece" role="graphics-symbol" aria-roledescription="point" transform="translate(504.2142857142857,15.749999999999996)" d="M2.7386127875258306,0A2.7386127875258306,2.7386127875258306,0,1,1,-2.7386127875258306,0A2.7386127875258306,2.7386127875258306,0,1,1,2.7386127875258306,0" fill="#fff" stroke="#3cd7d5" stroke-width="4" opacity="1"></path></g><g class="mark-text role-mark layer_2_marks" role="graphics-object" aria-roledescription="text mark container"><text aria-label="Year: 1890; Northwest Northwest: 496" role="graphics-symbol" aria-roledescription="text mark" text-anchor="middle" transform="translate(38.78571428571428,96)" font-family="serif" font-size="15px" fill="#000" opacity="1">496</text><text aria-label="Year: 1892; Northwest Northwest: 483" role="graphics-symbol" aria-roledescription="text mark" text-anchor="middle" transform="translate(116.35714285714285,99.25)" font-family="serif" font-size="15px" fill="#000" opacity="1">483</text><text aria-label="Year: 1894; Northwest Northwest: 722" role="graphics-symbol" aria-roledescription="text mark" text-anchor="middle" transform="translate(193.92857142857142,39.50000000000001)" font-family="serif" font-size="15px" fill="#000" opacity="1">722</text><text aria-label="Year: 1896; Northwest Northwest: 404" role="graphics-symbol" aria-roledescription="text mark" text-anchor="middle" transform="translate(271.5,119)" font-family="serif" font-size="15px" fill="#000" opacity="1">404</text><text aria-label="Year: 1898; Northwest Northwest: 367" role="graphics-symbol" aria-roledescription="text mark" text-anchor="middle" transform="translate(349.07142857142856,128.25)" font-family="serif" font-size="15px" fill="#000" opacity="1">367</text><text aria-label="Year: 1900; Northwest Northwest: 616" role="graphics-symbol" aria-roledescription="text mark" text-anchor="middle" transform="translate(426.6428571428571,66)" font-family="serif" font-size="15px" fill="#000" opacity="1">616</text><text aria-label="Year: 1902; Northwest Northwest: 195" role="graphics-symbol" aria-roledescription="text mark" text-anchor="middle" transform="translate(504.2142857142857,171.25)" font-family="serif" font-size="15px" fill="#000" opacity="1">195</text><text aria-label="Year: 1890; Northwest Northwest: 31" role="graphics-symbol" aria-roledescription="text mark" text-anchor="middle" transform="translate(38.78571428571428,212.25)" font-family="serif" font-size="15px" fill="#000" opacity="1">31</text><text aria-label="Year: 1892; Northwest Northwest: 717" role="graphics-symbol" aria-roledescription="text mark" text-anchor="middle" transform="translate(116.35714285714285,40.75)" font-family="serif" font-size="15px" fill="#000" opacity="1">717</text><text aria-label="Year: 1894; Northwest Northwest: 25" role="graphics-symbol" aria-roledescription="text mark" text-anchor="middle" transform="translate(193.92857142857142,213.75)" font-family="serif" font-size="15px" fill="#000" opacity="1">25</text><text aria-label="Year: 1896; Northwest Northwest: 377" role="graphics-symbol" aria-roledescription="text mark" text-anchor="middle" transform="translate(271.5,125.75000000000001)" font-family="serif" font-size="15px" fill="#000" opacity="1">377</text><text aria-label="Year: 1898; Northwest Northwest: 124" role="graphics-symbol" aria-roledescription="text mark" text-anchor="middle" transform="translate(349.07142857142856,189)" font-family="serif" font-size="15px" fill="#000" opacity="1">124</text><text aria-label="Year: 1900; Northwest Northwest: 675" role="graphics-symbol" aria-roledescription="text mark" text-anchor="middle" transform="translate(426.6428571428571,51.25)" font-family="serif" font-size="15px" fill="#000" opacity="1">675</text><text aria-label="Year: 1902; Northwest Northwest: 737" role="graphics-symbol" aria-roledescription="text mark" text-anchor="middle" transform="translate(504.2142857142857,35.75)" font-family="serif" font-size="15px" fill="#000" opacity="1">737</text></g><g class="mark-group role-legend" role="graphics-symbol" aria-roledescription="legend" aria-label="Symbol legend for stroke color with 2 values: Wooden, Greece"><g transform="translate(0,264)"><path class="background" aria-hidden="true" d="M0,0h106v13h-106Z" pointer-events="none"></path><g><g class="mark-group role-legend-entry"><g transform="translate(0,0)"><path class="background" aria-hidden="true" d="M0,0h0v0h0Z" pointer-events="none"></path><g><g class="mark-group role-scope" role="graphics-object" aria-roledescription="group mark container"><g transform="translate(0,0.25)"><path class="background" aria-hidden="true" d="M0,0h49.076171875v12.5h-49.076171875Z" pointer-events="none" opacity="1"></path><g><g class="mark-symbol role-legend-symbol" pointer-events="none"><path transform="translate(6,6)" d="M5,0A5,5,0,1,1,-5,0A5,5,0,1,1,5,0" fill="#fff" stroke="#a9a8ee" stroke-width="1.5" opacity="1"></path></g><g class="mark-text role-legend-label" pointer-events="none"><text text-anchor="start" transform="translate(16,9)" font-family="serif" font-size="10px" fill="#000" opacity="1">Wooden</text></g></g><path class="foreground" aria-hidden="true" d="" pointer-events="none" display="none"></path></g><g transform="translate(61,0.25)"><path class="background" aria-hidden="true" d="M0,0h44.3056640625v12.5h-44.3056640625Z" pointer-events="none" opacity="1"></path><g><g class="mark-symbol role-legend-symbol" pointer-events="none"><path transform="translate(6,6)" d="M5,0A5,5,0,1,1,-5,0A5,5,0,1,1,5,0" fill="#fff" stroke="#3cd7d5" stroke-width="1.5" opacity="1"></path></g><g class="mark-text role-legend-label" pointer-events="none"><text text-anchor="start" transform="translate(16,9)" font-family="serif" font-size="10px" fill="#000" opacity="1">Greece</text></g></g><path class="foreground" aria-hidden="true" d="" pointer-events="none" display="none"></path></g></g></g><path class="foreground" aria-hidden="true" d="" pointer-events="none" display="none"></path></g></g></g><path class="foreground" aria-hidden="true" d="" pointer-events="none" display="none"></path></g></g><g class="mark-group role-title"><g transform="translate(-21,-43.25)"><path class="background" aria-hidden="true" d="M0,0h0v0h0Z" pointer-events="none"></path><g><g class="mark-text role-title-text" role="graphics-symbol" aria-roledescription="title" aria-label="Title text 'Tasty integrated hack'" pointer-events="none"><text text-anchor="start" transform="translate(0,20)" font-family="serif" font-size="25px" font-weight="bold" fill="#000" opacity="1">Tasty integrated hack</text></g></g><path class="foreground" aria-hidden="true" d="" pointer-events="none" display="none"></path></g></g></g><path class="foreground" aria-hidden="true" d="" display="none"></path></g></g></g></svg>