<svg xmlns="http://www.w3.org/2000/svg" xmlns:xlink="http://www.w3.org/1999/xlink" version="1.1" class="marks" width="905" height="278" viewBox="0 0 905 278" style="background-color: rgb(255, 255, 255);"><g fill="none" stroke-miterlimit="10" transform="translate(188,43)"><g class="mark-group role-frame root" role="graphics-object" aria-roledescription="group mark container"><g transform="translate(0,0)"><path class="background" aria-hidden="true" d="M0.5,0.5h712v200h-712Z" fill="transparent" stroke="#ddd"></path><g><g class="mark-group role-axis" aria-hidden="true"><g transform="translate(0.5,200.5)"><path class="background" aria-hidden="true" d="M0,0h0v0h0Z" pointer-events="none"></path><g><g class="mark-rule role-axis-grid" pointer-events="none"><line transform="translate(59,-200)" x2="0" y2="200" stroke="#D0D0D0" stroke-width="1" stroke-dasharray="1,0" opacity="1"></line><line transform="translate(178,-200)" x2="0" y2="200" stroke="#D0D0D0" stroke-width="1" stroke-dasharray="1,0" opacity="1"></line><line transform="translate(297,-200)" x2="0" y2="200" stroke="#D0D0D0" stroke-width="1" stroke-dasharray="1,0" opacity="1"></line><line transform="translate(415,-200)" x2="0" y2="200" stroke="#D0D0D0" stroke-width="1" stroke-dasharray="1,0" opacity="1"></line><line transform="translate(534,-200)" x2="0" y2="200" stroke="#D0D0D0" stroke-width="1" stroke-dasharray="1,0" opacity="1"></line><line transform="translate(653,-200)" x2="0" y2="200" stroke="#D0D0D0" stroke-width="1" stroke-dasharray="1,0" opacity="1"></line></g></g><path class="foreground" aria-hidden="true" d="" pointer-events="none" display="none"></path></g></g><g class="mark-group role-axis" aria-hidden="true"><g transform="translate(0.5,0.5)"><path class="background" aria-hidden="true" d="M0,0h0v0h0Z" pointer-events="none"></path><g><g class="mark-rule role-axis-grid" pointer-events="none"><line transform="translate(0,200)" x2="712" y2="0" stroke="#D0D0D0" stroke-width="1" stroke-dasharray="1,0" opacity="1"></line><line transform="translate(0,160)" x2="712" y2="0" stroke="#D0D0D0" stroke-width="1" stroke-dasharray="1,0" opacity="1"></line><line transform="translate(0,120)" x2="712" y2="0" stroke="#D0D0D0" stroke-width="1" stroke-dasharray="1,0" opacity="1"></line><line transform="translate(0,80)" x2="712" y2="0" stroke="#D0D0D0" stroke-width="1" stroke-dasharray="1,0" opacity="1"></line><line transform="translate(0,40)" x2="712" y2="0" stroke="#D0D0D0" stroke-width="1" stroke-dasharray="1,0" opacity="1"></line><line transform="translate(0,0)" x2="712" y2="0" stroke="#D0D0D0" stroke-width="1" stroke-dasharray="1,0" opacity="1"></line></g></g><path class="foreground" aria-hidden="true" d="" pointer-events="none" display="none"></path></g></g><g class="mark-group role-axis" role="graphics-symbol" aria-roledescription="axis" aria-label="X-axis for a discrete scale with 6 values: Jan, Feb, Mar, Apr, May, June"><g transform="translate(0.5,200.5)"><path class="background" aria-hidden="true" d="M0,0h0v0h0Z" pointer-events="none"></path><g><g class="mark-rule role-axis-tick" pointer-events="none"><line transform="translate(59,0)" x2="0" y2="5" stroke="#888" stroke-width="1" opacity="1"></line><line transform="translate(178,0)" x2="0" y2="5" stroke="#888" stroke-width="1" opacity="1"></line><line transform="translate(297,0)" x2="0" y2="5" stroke="#888" stroke-width="1" opacity="1"></line><line transform="translate(415,0)" x2="0" y2="5" stroke="#888" stroke-width="1" opacity="1"></line><line transform="translate(534,0)" x2="0" y2="5" stroke="#888" stroke-width="1" opacity="1"></line><line transform="translate(653,0)" x2="0" y2="5" stroke="#888" stroke-width="1" opacity="1"></line></g><g class="mark-text role-axis-label" pointer-events="none"><text text-anchor="start" transform="translate(59.333333333333314,7) rotate(90) translate(0,3)" font-family="Balto" font-size="11px" font-weight="bold" fill="#000" opacity="1">Jan</text><text text-anchor="start" transform="translate(178,7) rotate(90) translate(0,3)" font-family="Balto" font-size="11px" font-weight="bold" fill="#000" opacity="1">Feb</text><text text-anchor="start" transform="translate(296.66666666666663,7) rotate(90) translate(0,3)" font-family="Balto" font-size="11px" font-weight="bold" fill="#000" opacity="1">Mar</text><text text-anchor="start" transform="translate(415.3333333333333,7) rotate(90) translate(0,3)" font-family="Balto" font-size="11px" font-weight="bold" fill="#000" opacity="1">Apr</text><text text-anchor="start" transform="translate(534,7) rotate(90) translate(0,3)" font-family="Balto" font-size="11px" font-weight="bold" fill="#000" opacity="1">May</text><text text-anchor="start" transform="translate(652.6666666666667,7) rotate(90) translate(0,3)" font-family="Balto" font-size="11px" font-weight="bold" fill="#000" opacity="1">June</text></g><g class="mark-rule role-axis-domain" pointer-events="none"><line transform="translate(0,0)" x2="712" y2="0" stroke="#888" stroke-width="1" opacity="1"></line></g></g><path class="foreground" aria-hidden="true" d="" pointer-events="none" display="none"></path></g></g><g class="mark-group role-axis" role="graphics-symbol" aria-roledescription="axis" aria-label="Y-axis for a linear scale with values from 0 to 500"><g transform="translate(0.5,0.5)"><path class="background" aria-hidden="true" d="M0,0h0v0h0Z" pointer-events="none"></path><g><g class="mark-text role-axis-label" pointer-events="none"><text text-anchor="middle" transform="translate(-2,200) rotate(90) translate(0,9)" font-family="Balto" font-size="11px" font-weight="bold" fill="#000" opacity="1">0</text><text text-anchor="middle" transform="translate(-2,160) rotate(90) translate(0,9)" font-family="Balto" font-size="11px" font-weight="bold" fill="#000" opacity="1">100</text><text text-anchor="middle" transform="translate(-2,120) rotate(90) translate(0,9)" font-family="Balto" font-size="11px" font-weight="bold" fill="#000" opacity="1">200</text><text text-anchor="middle" transform="translate(-2,80) rotate(90) translate(0,9)" font-family="Balto" font-size="11px" font-weight="bold" fill="#000" opacity="1">300</text><text text-anchor="middle" transform="translate(-2,39.99999999999999) rotate(90) translate(0,9)" font-family="Balto" font-size="11px" font-weight="bold" fill="#000" opacity="1">400</text><text text-anchor="middle" transform="translate(-2,0) rotate(90) translate(0,9)" font-family="Balto" font-size="11px" font-weight="bold" fill="#000" opacity="1">500</text></g><g class="mark-rule role-axis-domain" pointer-events="none"><line transform="translate(0,200)" x2="0" y2="-200" stroke="#888" stroke-width="1" opacity="1"></line></g></g><path class="foreground" aria-hidden="true" d="" pointer-events="none" display="none"></path></g></g><g class="mark-group role-scope layer_0_pathgroup" role="graphics-object" aria-roledescription="group mark container"><g transform="translate(0,0)"><path class="background" aria-hidden="true" d="M0,0h712v200h-712Z"></path><g><g class="mark-line role-mark layer_0_marks" role="graphics-object" aria-roledescription="line mark container"><path aria-label="Month: Jan; quantify Cadillac: 216; Electronics moratorium connect: est" role="graphics-symbol" aria-roledescription="line mark" d="M59.333333333333314,113.60000000000001C98.8888888888889,109.06794258373208,138.44444444444449,104.53588516746413,178,82.4C217.55555555555551,60.26411483253588,257.1111111111111,20.524401913875593,296.66666666666663,16.799999999999994C336.2222222222222,13.075598086124392,375.7777777777778,45.36650717703348,415.3333333333333,61.60000000000001C454.8888888888888,77.83349282296653,494.44444444444434,78.00956937799045,534,86.00000000000001C573.5555555555557,93.99043062200958,613.1111111111112,109.7952153110048,652.6666666666667,125.6" stroke="#1cced5" stroke-width="2" stroke-dasharray="1,0"></path></g></g><path class="foreground" aria-hidden="true" d="" display="none"></path></g><g transform="translate(0,0)"><path class="background" aria-hidden="true" d="M0,0h712v200h-712Z"></path><g><g class="mark-line role-mark layer_0_marks" role="graphics-object" aria-roledescription="line mark container"><path aria-label="Month: Jan; quantify Cadillac: 157; Electronics moratorium connect: invoice" role="graphics-symbol" aria-roledescription="line mark" d="M59.333333333333314,137.2C98.8888888888889,150.19968102073364,138.44444444444449,163.19936204146728,178,175.2C217.55555555555551,187.2006379585327,257.1111111111111,198.20223285486443,296.66666666666663,156.8C336.2222222222222,115.39776714513559,375.7777777777778,21.591706539074956,415.3333333333333,22.799999999999997C454.8888888888888,24.00829346092504,494.44444444444434,120.23094098883575,534,159.60000000000002C573.5555555555557,198.9690590111643,613.1111111111112,181.48452950558215,652.6666666666667,164" stroke="#b8d8e2" stroke-width="2" stroke-dasharray="1,0"></path></g></g><path class="foreground" aria-hidden="true" d="" display="none"></path></g></g><g class="mark-symbol role-mark layer_1_marks" role="graphics-object" aria-roledescription="symbol mark container"><path aria-label="Month: Jan; quantify Cadillac: 216; Electronics moratorium connect: est" role="graphics-symbol" aria-roledescription="point" transform="translate(59.333333333333314,113.60000000000001)" d="M2.7386127875258306,0A2.7386127875258306,2.7386127875258306,0,1,1,-2.7386127875258306,0A2.7386127875258306,2.7386127875258306,0,1,1,2.7386127875258306,0" fill="#fff" stroke="#1cced5" stroke-width="4" opacity="1"></path><path aria-label="Month: Feb; quantify Cadillac: 294; Electronics moratorium connect: est" role="graphics-symbol" aria-roledescription="point" transform="translate(178,82.4)" d="M2.7386127875258306,0A2.7386127875258306,2.7386127875258306,0,1,1,-2.7386127875258306,0A2.7386127875258306,2.7386127875258306,0,1,1,2.7386127875258306,0" fill="#fff" stroke="#1cced5" stroke-width="4" opacity="1"></path><path aria-label="Month: Mar; quantify Cadillac: 458; Electronics moratorium connect: est" role="graphics-symbol" aria-roledescription="point" transform="translate(296.66666666666663,16.799999999999994)" d="M2.7386127875258306,0A2.7386127875258306,2.7386127875258306,0,1,1,-2.7386127875258306,0A2.7386127875258306,2.7386127875258306,0,1,1,2.7386127875258306,0" fill="#fff" stroke="#1cced5" stroke-width="4" opacity="1"></path><path aria-label="Month: Apr; quantify Cadillac: 346; Electronics moratorium connect: est" role="graphics-symbol" aria-roledescription="point" transform="translate(415.3333333333333,61.60000000000001)" d="M2.7386127875258306,0A2.7386127875258306,2.7386127875258306,0,1,1,-2.7386127875258306,0A2.7386127875258306,2.7386127875258306,0,1,1,2.7386127875258306,0" fill="#fff" stroke="#1cced5" stroke-width="4" opacity="1"></path><path aria-label="Month: May; quantify Cadillac: 285; Electronics moratorium connect: est" role="graphics-symbol" aria-roledescription="point" transform="translate(534,86.00000000000001)" d="M2.7386127875258306,0A2.7386127875258306,2.7386127875258306,0,1,1,-2.7386127875258306,0A2.7386127875258306,2.7386127875258306,0,1,1,2.7386127875258306,0" fill="#fff" stroke="#1cced5" stroke-width="4" opacity="1"></path><path aria-label="Month: June; quantify Cadillac: 186; Electronics moratorium connect: est" role="graphics-symbol" aria-roledescription="point" transform="translate(652.6666666666667,125.6)" d="M2.7386127875258306,0A2.7386127875258306,2.7386127875258306,0,1,1,-2.7386127875258306,0A2.7386127875258306,2.7386127875258306,0,1,1,2.7386127875258306,0" fill="#fff" stroke="#1cced5" stroke-width="4" opacity="1"></path><path aria-label="Month: Jan; quantify Cadillac: 157; Electronics moratorium connect: invoice" role="graphics-symbol" aria-roledescription="point" transform="translate(59.333333333333314,137.2)" d="M2.7386127875258306,0A2.7386127875258306,2.7386127875258306,0,1,1,-2.7386127875258306,0A2.7386127875258306,2.7386127875258306,0,1,1,2.7386127875258306,0" fill="#fff" stroke="#b8d8e2" stroke-width="4" opacity="1"></path><path aria-label="Month: Feb; quantify Cadillac: 62; Electronics moratorium connect: invoice" role="graphics-symbol" aria-roledescription="point" transform="translate(178,175.2)" d="M2.7386127875258306,0A2.7386127875258306,2.7386127875258306,0,1,1,-2.7386127875258306,0A2.7386127875258306,2.7386127875258306,0,1,1,2.7386127875258306,0" fill="#fff" stroke="#b8d8e2" stroke-width="4" opacity="1"></path><path aria-label="Month: Mar; quantify Cadillac: 108; Electronics moratorium connect: invoice" role="graphics-symbol" aria-roledescription="point" transform="translate(296.66666666666663,156.8)" d="M2.7386127875258306,0A2.7386127875258306,2.7386127875258306,0,1,1,-2.7386127875258306,0A2.7386127875258306,2.7386127875258306,0,1,1,2.7386127875258306,0" fill="#fff" stroke="#b8d8e2" stroke-width="4" opacity="1"></path><path aria-label="Month: Apr; quantify Cadillac: 443; Electronics moratorium connect: invoice" role="graphics-symbol" aria-roledescription="point" transform="translate(415.3333333333333,22.799999999999997)" d="M2.7386127875258306,0A2.7386127875258306,2.7386127875258306,0,1,1,-2.7386127875258306,0A2.7386127875258306,2.7386127875258306,0,1,1,2.7386127875258306,0" fill="#fff" stroke="#b8d8e2" stroke-width="4" opacity="1"></path><path aria-label="Month: May; quantify Cadillac: 101; Electronics moratorium connect: invoice" role="graphics-symbol" aria-roledescription="point" transform="translate(534,159.60000000000002)" d="M2.7386127875258306,0A2.7386127875258306,2.7386127875258306,0,1,1,-2.7386127875258306,0A2.7386127875258306,2.7386127875258306,0,1,1,2.7386127875258306,0" fill="#fff" stroke="#b8d8e2" stroke-width="4" opacity="1"></path><path aria-label="Month: June; quantify Cadillac: 90; Electronics moratorium connect: invoice" role="graphics-symbol" aria-roledescription="point" transform="translate(652.6666666666667,164)" d="M2.7386127875258306,0A2.7386127875258306,2.7386127875258306,0,1,1,-2.7386127875258306,0A2.7386127875258306,2.7386127875258306,0,1,1,2.7386127875258306,0" fill="#fff" stroke="#b8d8e2" stroke-width="4" opacity="1"></path></g><g class="mark-text role-mark layer_2_marks" role="graphics-object" aria-roledescription="text mark container"><text aria-label="Month: Jan; quantify Cadillac: 216" role="graphics-symbol" aria-roledescription="text mark" text-anchor="middle" transform="translate(59.333333333333314,138.60000000000002)" font-family="Balto" font-size="17px" fill="#000" opacity="1">216</text><text aria-label="Month: Feb; quantify Cadillac: 294" role="graphics-symbol" aria-roledescription="text mark" text-anchor="middle" transform="translate(178,107.4)" font-family="Balto" font-size="17px" fill="#000" opacity="1">294</text><text aria-label="Month: Mar; quantify Cadillac: 458" role="graphics-symbol" aria-roledescription="text mark" text-anchor="middle" transform="translate(296.66666666666663,41.8)" font-family="Balto" font-size="17px" fill="#000" opacity="1">458</text><text aria-label="Month: Apr; quantify Cadillac: 346" role="graphics-symbol" aria-roledescription="text mark" text-anchor="middle" transform="translate(415.3333333333333,86.60000000000001)" font-family="Balto" font-size="17px" fill="#000" opacity="1">346</text><text aria-label="Month: May; quantify Cadillac: 285" role="graphics-symbol" aria-roledescription="text mark" text-anchor="middle" transform="translate(534,111.00000000000001)" font-family="Balto" font-size="17px" fill="#000" opacity="1">285</text><text aria-label="Month: June; quantify Cadillac: 186" role="graphics-symbol" aria-roledescription="text mark" text-anchor="middle" transform="translate(652.6666666666667,150.6)" font-family="Balto" font-size="17px" fill="#000" opacity="1">186</text><text aria-label="Month: Jan; quantify Cadillac: 157" role="graphics-symbol" aria-roledescription="text mark" text-anchor="middle" transform="translate(59.333333333333314,162.2)" font-family="Balto" font-size="17px" fill="#000" opacity="1">157</text><text aria-label="Month: Feb; quantify Cadillac: 62" role="graphics-symbol" aria-roledescription="text mark" text-anchor="middle" transform="translate(178,200.2)" font-family="Balto" font-size="17px" fill="#000" opacity="1">62</text><text aria-label="Month: Mar; quantify Cadillac: 108" role="graphics-symbol" aria-roledescription="text mark" text-anchor="middle" transform="translate(296.66666666666663,181.8)" font-family="Balto" font-size="17px" fill="#000" opacity="1">108</text><text aria-label="Month: Apr; quantify Cadillac: 443" role="graphics-symbol" aria-roledescription="text mark" text-anchor="middle" transform="translate(415.3333333333333,47.8)" font-family="Balto" font-size="17px" fill="#000" opacity="1">443</text><text aria-label="Month: May; quantify Cadillac: 101" role="graphics-symbol" aria-roledescription="text mark" text-anchor="middle" transform="translate(534,184.60000000000002)" font-family="Balto" font-size="17px" fill="#000" opacity="1">101</text><text aria-label="Month: June; quantify Cadillac: 90" role="graphics-symbol" aria-roledescription="text mark" text-anchor="middle" transform="translate(652.6666666666667,189)" font-family="Balto" font-size="17px" fill="#000" opacity="1">90</text></g><g class="mark-group role-legend" role="graphics-symbol" aria-roledescription="legend" aria-label="Symbol legend titled 'Electronics moratorium connect' for stroke color with 2 values: est, invoice"><g transform="translate(-183,0)"><path class="background" aria-hidden="true" d="M0,0h152v45h-152Z" pointer-events="none"></path><g><g class="mark-group role-legend-entry"><g transform="translate(0,16)"><path class="background" aria-hidden="true" d="M0,0h0v0h0Z" pointer-events="none"></path><g><g class="mark-group role-scope" role="graphics-object" aria-roledescription="group mark container"><g transform="translate(0,0)"><path class="background" aria-hidden="true" d="M0,0h45.43359375v12.5h-45.43359375Z" pointer-events="none" opacity="1"></path><g><g class="mark-symbol role-legend-symbol" pointer-events="none"><path transform="translate(6,6)" d="M5,0A5,5,0,1,1,-5,0A5,5,0,1,1,5,0" fill="#fff" stroke="#1cced5" stroke-width="1.5" opacity="1"></path></g><g class="mark-text role-legend-label" pointer-events="none"><text text-anchor="start" transform="translate(16,9)" font-family="Balto" font-size="10px" fill="#000" opacity="1">est</text></g></g><path class="foreground" aria-hidden="true" d="" pointer-events="none" display="none"></path></g><g transform="translate(0,16)"><path class="background" aria-hidden="true" d="M0,0h45.43359375v12.5h-45.43359375Z" pointer-events="none" opacity="1"></path><g><g class="mark-symbol role-legend-symbol" pointer-events="none"><path transform="translate(6,6)" d="M5,0A5,5,0,1,1,-5,0A5,5,0,1,1,5,0" fill="#fff" stroke="#b8d8e2" stroke-width="1.5" opacity="1"></path></g><g class="mark-text role-legend-label" pointer-events="none"><text text-anchor="start" transform="translate(16,9)" font-family="Balto" font-size="10px" fill="#000" opacity="1">invoice</text></g></g><path class="foreground" aria-hidden="true" d="" pointer-events="none" display="none"></path></g></g></g><path class="foreground" aria-hidden="true" d="" pointer-events="none" display="none"></path></g></g><g class="mark-text role-legend-title" pointer-events="none"><text text-anchor="start" transform="translate(0,9)" font-family="Balto" font-size="11px" font-weight="bold" fill="#000" opacity="1">Electronics moratorium connect</text></g></g><path class="foreground" aria-hidden="true" d="" pointer-events="none" display="none"></path></g></g><g class="mark-group role-title"><g transform="translate(356,-37.25)"><path class="background" aria-hidden="true" d="M0,0h0v0h0Z" pointer-events="none"></path><g><g class="mark-text role-title-text" role="graphics-symbol" aria-roledescription="title" aria-label="Title text 'East'" pointer-events="none"><text text-anchor="middle" transform="translate(0,20)" font-family="Balto" font-size="25px" font-weight="bold" fill="#000" opacity="1">East</text></g></g><path class="foreground" aria-hidden="true" d="" pointer-events="none" display="none"></path></g></g></g><path class="foreground" aria-hidden="true" d="" display="none"></path></g></g></g></svg>