<svg xmlns="http://www.w3.org/2000/svg" xmlns:xlink="http://www.w3.org/1999/xlink" version="1.1" class="marks" width="711" height="272" viewBox="0 0 711 272" style="background-color: rgb(255, 255, 255);"><g fill="none" stroke-miterlimit="10" transform="translate(31,44)"><g class="mark-group role-frame root" role="graphics-object" aria-roledescription="group mark container"><g transform="translate(0,0)"><path class="background" aria-hidden="true" d="M0.5,0.5h675v200h-675Z" fill="transparent" stroke="#ddd"></path><g><g class="mark-group role-axis" aria-hidden="true"><g transform="translate(0.5,200.5)"><path class="background" aria-hidden="true" d="M0,0h0v0h0Z" pointer-events="none"></path><g><g class="mark-rule role-axis-grid" pointer-events="none"><line transform="translate(31,-200)" x2="0" y2="200" stroke="#D0D0D0" stroke-width="1" stroke-dasharray="6, 3" opacity="1"></line><line transform="translate(92,-200)" x2="0" y2="200" stroke="#D0D0D0" stroke-width="1" stroke-dasharray="6, 3" opacity="1"></line><line transform="translate(153,-200)" x2="0" y2="200" stroke="#D0D0D0" stroke-width="1" stroke-dasharray="6, 3" opacity="1"></line><line transform="translate(215,-200)" x2="0" y2="200" stroke="#D0D0D0" stroke-width="1" stroke-dasharray="6, 3" opacity="1"></line><line transform="translate(276,-200)" x2="0" y2="200" stroke="#D0D0D0" stroke-width="1" stroke-dasharray="6, 3" opacity="1"></line><line transform="translate(338,-200)" x2="0" y2="200" stroke="#D0D0D0" stroke-width="1" stroke-dasharray="6, 3" opacity="1"></line><line transform="translate(399,-200)" x2="0" y2="200" stroke="#D0D0D0" stroke-width="1" stroke-dasharray="6, 3" opacity="1"></line><line transform="translate(460,-200)" x2="0" y2="200" stroke="#D0D0D0" stroke-width="1" stroke-dasharray="6, 3" opacity="1"></line><line transform="translate(522,-200)" x2="0" y2="200" stroke="#D0D0D0" stroke-width="1" stroke-dasharray="6, 3" opacity="1"></line><line transform="translate(583,-200)" x2="0" y2="200" stroke="#D0D0D0" stroke-width="1" stroke-dasharray="6, 3" opacity="1"></line><line transform="translate(644,-200)" x2="0" y2="200" stroke="#D0D0D0" stroke-width="1" stroke-dasharray="6, 3" opacity="1"></line></g></g><path class="foreground" aria-hidden="true" d="" pointer-events="none" display="none"></path></g></g><g class="mark-group role-axis" aria-hidden="true"><g transform="translate(0.5,0.5)"><path class="background" aria-hidden="true" d="M0,0h0v0h0Z" pointer-events="none"></path><g><g class="mark-rule role-axis-grid" pointer-events="none"><line transform="translate(0,200)" x2="675" y2="0" stroke="#D0D0D0" stroke-width="1" stroke-dasharray="6, 3" opacity="1"></line><line transform="translate(0,150)" x2="675" y2="0" stroke="#D0D0D0" stroke-width="1" stroke-dasharray="6, 3" opacity="1"></line><line transform="translate(0,100)" x2="675" y2="0" stroke="#D0D0D0" stroke-width="1" stroke-dasharray="6, 3" opacity="1"></line><line transform="translate(0,50)" x2="675" y2="0" stroke="#D0D0D0" stroke-width="1" stroke-dasharray="6, 3" opacity="1"></line><line transform="translate(0,0)" x2="675" y2="0" stroke="#D0D0D0" stroke-width="1" stroke-dasharray="6, 3" opacity="1"></line></g></g><path class="foreground" aria-hidden="true" d="" pointer-events="none" display="none"></path></g></g><g class="mark-group role-axis" role="graphics-symbol" aria-roledescription="axis" aria-label="X-axis for a discrete scale with 11 values: 1813, 1814, 1815, 1816, 1817, ending with 1823"><g transform="translate(0.5,200.5)"><path class="background" aria-hidden="true" d="M0,0h0v0h0Z" pointer-events="none"></path><g><g class="mark-rule role-axis-tick" pointer-events="none"><line transform="translate(31,0)" x2="0" y2="5" stroke="#888" stroke-width="1" opacity="1"></line><line transform="translate(92,0)" x2="0" y2="5" stroke="#888" stroke-width="1" opacity="1"></line><line transform="translate(153,0)" x2="0" y2="5" stroke="#888" stroke-width="1" opacity="1"></line><line transform="translate(215,0)" x2="0" y2="5" stroke="#888" stroke-width="1" opacity="1"></line><line transform="translate(276,0)" x2="0" y2="5" stroke="#888" stroke-width="1" opacity="1"></line><line transform="translate(338,0)" x2="0" y2="5" stroke="#888" stroke-width="1" opacity="1"></line><line transform="translate(399,0)" x2="0" y2="5" stroke="#888" stroke-width="1" opacity="1"></line><line transform="translate(460,0)" x2="0" y2="5" stroke="#888" stroke-width="1" opacity="1"></line><line transform="translate(522,0)" x2="0" y2="5" stroke="#888" stroke-width="1" opacity="1"></line><line transform="translate(583,0)" x2="0" y2="5" stroke="#888" stroke-width="1" opacity="1"></line><line transform="translate(644,0)" x2="0" y2="5" stroke="#888" stroke-width="1" opacity="1"></line></g><g class="mark-text role-axis-label" pointer-events="none"><text text-anchor="middle" transform="translate(30.681818181818187,20)" font-family="serif" font-size="16px" font-weight="bold" fill="#000" opacity="1">1813</text><text text-anchor="middle" transform="translate(92.04545454545456,20)" font-family="serif" font-size="16px" font-weight="bold" fill="#000" opacity="1">1814</text><text text-anchor="middle" transform="translate(153.40909090909093,20)" font-family="serif" font-size="16px" font-weight="bold" fill="#000" opacity="1">1815</text><text text-anchor="middle" transform="translate(214.77272727272728,20)" font-family="serif" font-size="16px" font-weight="bold" fill="#000" opacity="1">1816</text><text text-anchor="middle" transform="translate(276.1363636363636,20)" font-family="serif" font-size="16px" font-weight="bold" fill="#000" opacity="1">1817</text><text text-anchor="middle" transform="translate(337.5,20)" font-family="serif" font-size="16px" font-weight="bold" fill="#000" opacity="1">1818</text><text text-anchor="middle" transform="translate(398.8636363636364,20)" font-family="serif" font-size="16px" font-weight="bold" fill="#000" opacity="1">1819</text><text text-anchor="middle" transform="translate(460.22727272727275,20)" font-family="serif" font-size="16px" font-weight="bold" fill="#000" opacity="1">1820</text><text text-anchor="middle" transform="translate(521.5909090909091,20)" font-family="serif" font-size="16px" font-weight="bold" fill="#000" opacity="1">1821</text><text text-anchor="middle" transform="translate(582.9545454545455,20)" font-family="serif" font-size="16px" font-weight="bold" fill="#000" opacity="1">1822</text><text text-anchor="middle" transform="translate(644.3181818181818,20)" font-family="serif" font-size="16px" font-weight="bold" fill="#000" opacity="1">1823</text></g><g class="mark-rule role-axis-domain" pointer-events="none"><line transform="translate(0,0)" x2="675" y2="0" stroke="#888" stroke-width="1" opacity="1"></line></g></g><path class="foreground" aria-hidden="true" d="" pointer-events="none" display="none"></path></g></g><g class="mark-group role-axis" role="graphics-symbol" aria-roledescription="axis" aria-label="Y-axis for a linear scale with values from 0 to 800"><g transform="translate(0.5,0.5)"><path class="background" aria-hidden="true" d="M0,0h0v0h0Z" pointer-events="none"></path><g><g class="mark-text role-axis-label" pointer-events="none"><text text-anchor="end" transform="translate(-2,205)" font-family="serif" font-size="16px" font-weight="bold" fill="#000" opacity="1">0</text><text text-anchor="end" transform="translate(-2,155)" font-family="serif" font-size="16px" font-weight="bold" fill="#000" opacity="1">200</text><text text-anchor="end" transform="translate(-2,105)" font-family="serif" font-size="16px" font-weight="bold" fill="#000" opacity="1">400</text><text text-anchor="end" transform="translate(-2,55)" font-family="serif" font-size="16px" font-weight="bold" fill="#000" opacity="1">600</text><text text-anchor="end" transform="translate(-2,5)" font-family="serif" font-size="16px" font-weight="bold" fill="#000" opacity="1">800</text></g><g class="mark-rule role-axis-domain" pointer-events="none"><line transform="translate(0,200)" x2="0" y2="-200" stroke="#888" stroke-width="1" opacity="1"></line></g></g><path class="foreground" aria-hidden="true" d="" pointer-events="none" display="none"></path></g></g><g class="mark-group role-scope layer_0_pathgroup" role="graphics-object" aria-roledescription="group mark container"><g transform="translate(0,0)"><path class="background" aria-hidden="true" d="M0,0h675v200h-675Z"></path><g><g class="mark-line role-mark layer_0_marks" role="graphics-object" aria-roledescription="line mark container"><path aria-label="Year: 1813; Waterbury West Beauty: 665; Delores silver HTTP: meh Senior adventurously" role="graphics-symbol" aria-roledescription="line mark" d="M30.681818181818187,33.74999999999999C51.13636363636364,44.33405588305268,71.5909090909091,54.918111766105355,92.04545454545456,80C112.50000000000003,105.08188823389465,132.9545454545455,144.66160881863124,153.40909090909093,123.25C173.86363636363637,101.83839118136878,194.31818181818176,19.435452959369783,214.77272727272728,32.25C235.2272727272728,45.06454704063022,255.6818181818182,153.09657934388963,276.1363636363636,158.75C296.59090909090907,164.40342065611037,317.0454545454545,67.67822966507177,337.5,23.50000000000001C357.9545454545455,-20.678229665071747,378.4090909090909,-12.309498004176675,398.8636363636364,21.750000000000004C419.31818181818187,55.80949800417668,439.77272727272737,115.55976235163499,460.22727272727275,110.5C480.68181818181813,105.44023764836501,501.1363636363636,35.57044859763672,521.5909090909091,7.74999999999999C542.0454545454546,-20.07044859763674,562.5,-5.841556742181925,582.9545454545455,11.250000000000004C603.409090909091,28.341556742181933,623.8636363636364,48.295778371090975,644.3181818181818,68.25000000000001" stroke="#c0a60b" stroke-width="2" stroke-dasharray="1,0"></path></g></g><path class="foreground" aria-hidden="true" d="" display="none"></path></g></g><g class="mark-symbol role-mark layer_1_marks" role="graphics-object" aria-roledescription="symbol mark container"><path aria-label="Year: 1813; Waterbury West Beauty: 665; Delores silver HTTP: meh Senior adventurously" role="graphics-symbol" aria-roledescription="point" transform="translate(30.681818181818187,33.74999999999999)" d="M5.979130371550699,0A5.979130371550699,5.979130371550699,0,1,1,-5.979130371550699,0A5.979130371550699,5.979130371550699,0,1,1,5.979130371550699,0" fill="#c0a60b" stroke-width="2" opacity="1"></path><path aria-label="Year: 1814; Waterbury West Beauty: 480; Delores silver HTTP: meh Senior adventurously" role="graphics-symbol" aria-roledescription="point" transform="translate(92.04545454545456,80)" d="M5.979130371550699,0A5.979130371550699,5.979130371550699,0,1,1,-5.979130371550699,0A5.979130371550699,5.979130371550699,0,1,1,5.979130371550699,0" fill="#c0a60b" stroke-width="2" opacity="1"></path><path aria-label="Year: 1815; Waterbury West Beauty: 307; Delores silver HTTP: meh Senior adventurously" role="graphics-symbol" aria-roledescription="point" transform="translate(153.40909090909093,123.25)" d="M5.979130371550699,0A5.979130371550699,5.979130371550699,0,1,1,-5.979130371550699,0A5.979130371550699,5.979130371550699,0,1,1,5.979130371550699,0" fill="#c0a60b" stroke-width="2" opacity="1"></path><path aria-label="Year: 1816; Waterbury West Beauty: 671; Delores silver HTTP: meh Senior adventurously" role="graphics-symbol" aria-roledescription="point" transform="translate(214.77272727272728,32.25)" d="M5.979130371550699,0A5.979130371550699,5.979130371550699,0,1,1,-5.979130371550699,0A5.979130371550699,5.979130371550699,0,1,1,5.979130371550699,0" fill="#c0a60b" stroke-width="2" opacity="1"></path><path aria-label="Year: 1817; Waterbury West Beauty: 165; Delores silver HTTP: meh Senior adventurously" role="graphics-symbol" aria-roledescription="point" transform="translate(276.1363636363636,158.75)" d="M5.979130371550699,0A5.979130371550699,5.979130371550699,0,1,1,-5.979130371550699,0A5.979130371550699,5.979130371550699,0,1,1,5.979130371550699,0" fill="#c0a60b" stroke-width="2" opacity="1"></path><path aria-label="Year: 1818; Waterbury West Beauty: 706; Delores silver HTTP: meh Senior adventurously" role="graphics-symbol" aria-roledescription="point" transform="translate(337.5,23.50000000000001)" d="M5.979130371550699,0A5.979130371550699,5.979130371550699,0,1,1,-5.979130371550699,0A5.979130371550699,5.979130371550699,0,1,1,5.979130371550699,0" fill="#c0a60b" stroke-width="2" opacity="1"></path><path aria-label="Year: 1819; Waterbury West Beauty: 713; Delores silver HTTP: meh Senior adventurously" role="graphics-symbol" aria-roledescription="point" transform="translate(398.8636363636364,21.750000000000004)" d="M5.979130371550699,0A5.979130371550699,5.979130371550699,0,1,1,-5.979130371550699,0A5.979130371550699,5.979130371550699,0,1,1,5.979130371550699,0" fill="#c0a60b" stroke-width="2" opacity="1"></path><path aria-label="Year: 1820; Waterbury West Beauty: 358; Delores silver HTTP: meh Senior adventurously" role="graphics-symbol" aria-roledescription="point" transform="translate(460.22727272727275,110.5)" d="M5.979130371550699,0A5.979130371550699,5.979130371550699,0,1,1,-5.979130371550699,0A5.979130371550699,5.979130371550699,0,1,1,5.979130371550699,0" fill="#c0a60b" stroke-width="2" opacity="1"></path><path aria-label="Year: 1821; Waterbury West Beauty: 769; Delores silver HTTP: meh Senior adventurously" role="graphics-symbol" aria-roledescription="point" transform="translate(521.5909090909091,7.74999999999999)" d="M5.979130371550699,0A5.979130371550699,5.979130371550699,0,1,1,-5.979130371550699,0A5.979130371550699,5.979130371550699,0,1,1,5.979130371550699,0" fill="#c0a60b" stroke-width="2" opacity="1"></path><path aria-label="Year: 1822; Waterbury West Beauty: 755; Delores silver HTTP: meh Senior adventurously" role="graphics-symbol" aria-roledescription="point" transform="translate(582.9545454545455,11.250000000000004)" d="M5.979130371550699,0A5.979130371550699,5.979130371550699,0,1,1,-5.979130371550699,0A5.979130371550699,5.979130371550699,0,1,1,5.979130371550699,0" fill="#c0a60b" stroke-width="2" opacity="1"></path><path aria-label="Year: 1823; Waterbury West Beauty: 527; Delores silver HTTP: meh Senior adventurously" role="graphics-symbol" aria-roledescription="point" transform="translate(644.3181818181818,68.25000000000001)" d="M5.979130371550699,0A5.979130371550699,5.979130371550699,0,1,1,-5.979130371550699,0A5.979130371550699,5.979130371550699,0,1,1,5.979130371550699,0" fill="#c0a60b" stroke-width="2" opacity="1"></path></g><g class="mark-group role-title"><g transform="translate(675,-38.964606832900905)"><path class="background" aria-hidden="true" d="M0,0h0v0h0Z" pointer-events="none"></path><g><g class="mark-text role-title-text" role="graphics-symbol" aria-roledescription="title" aria-label="Title text 'Northeast International core'" pointer-events="none"><text text-anchor="end" transform="translate(0,20)" font-family="serif" font-size="25px" font-weight="bold" fill="#000" opacity="1">Northeast International core</text></g></g><path class="foreground" aria-hidden="true" d="" pointer-events="none" display="none"></path></g></g></g><path class="foreground" aria-hidden="true" d="" display="none"></path></g></g></g></svg>