<svg xmlns="http://www.w3.org/2000/svg" xmlns:xlink="http://www.w3.org/1999/xlink" version="1.1" class="marks" width="794" height="274" viewBox="0 0 794 274" style="background-color: rgb(51, 51, 51);"><g fill="none" stroke-miterlimit="10" transform="translate(17,42)"><g class="mark-group role-frame root" role="graphics-object" aria-roledescription="group mark container"><g transform="translate(0,0)"><path class="background" aria-hidden="true" d="M0.5,0.5h772v200h-772Z" fill="transparent" stroke="#ddd"></path><g><g class="mark-group role-axis" role="graphics-symbol" aria-roledescription="axis" aria-label="X-axis for a discrete scale with 8 values: 1930, 1931, 1932, 1933, 1934, ending with 1937"><g transform="translate(0.5,200.5)"><path class="background" aria-hidden="true" d="M0,0h0v0h0Z" pointer-events="none"></path><g><g class="mark-rule role-axis-tick" pointer-events="none"><line transform="translate(48,0)" x2="0" y2="5" stroke="#888" stroke-width="1" opacity="1"></line><line transform="translate(145,0)" x2="0" y2="5" stroke="#888" stroke-width="1" opacity="1"></line><line transform="translate(241,0)" x2="0" y2="5" stroke="#888" stroke-width="1" opacity="1"></line><line transform="translate(338,0)" x2="0" y2="5" stroke="#888" stroke-width="1" opacity="1"></line><line transform="translate(434,0)" x2="0" y2="5" stroke="#888" stroke-width="1" opacity="1"></line><line transform="translate(531,0)" x2="0" y2="5" stroke="#888" stroke-width="1" opacity="1"></line><line transform="translate(627,0)" x2="0" y2="5" stroke="#888" stroke-width="1" opacity="1"></line><line transform="translate(724,0)" x2="0" y2="5" stroke="#888" stroke-width="1" opacity="1"></line></g><g class="mark-text role-axis-label" pointer-events="none"><text text-anchor="start" transform="translate(48.25,7) rotate(90) translate(0,3)" font-family="avenir" font-size="10px" font-weight="bold" fill="#fff" opacity="1">1930</text><text text-anchor="start" transform="translate(144.75,7) rotate(90) translate(0,3)" font-family="avenir" font-size="10px" font-weight="bold" fill="#fff" opacity="1">1931</text><text text-anchor="start" transform="translate(241.25,7) rotate(90) translate(0,3)" font-family="avenir" font-size="10px" font-weight="bold" fill="#fff" opacity="1">1932</text><text text-anchor="start" transform="translate(337.75,7) rotate(90) translate(0,3)" font-family="avenir" font-size="10px" font-weight="bold" fill="#fff" opacity="1">1933</text><text text-anchor="start" transform="translate(434.25,7) rotate(90) translate(0,3)" font-family="avenir" font-size="10px" font-weight="bold" fill="#fff" opacity="1">1934</text><text text-anchor="start" transform="translate(530.75,7) rotate(90) translate(0,3)" font-family="avenir" font-size="10px" font-weight="bold" fill="#fff" opacity="1">1935</text><text text-anchor="start" transform="translate(627.25,7) rotate(90) translate(0,3)" font-family="avenir" font-size="10px" font-weight="bold" fill="#fff" opacity="1">1936</text><text text-anchor="start" transform="translate(723.75,7) rotate(90) translate(0,3)" font-family="avenir" font-size="10px" font-weight="bold" fill="#fff" opacity="1">1937</text></g><g class="mark-rule role-axis-domain" pointer-events="none"><line transform="translate(0,0)" x2="772" y2="0" stroke="#888" stroke-width="1" opacity="1"></line></g></g><path class="foreground" aria-hidden="true" d="" pointer-events="none" display="none"></path></g></g><g class="mark-group role-axis" role="graphics-symbol" aria-roledescription="axis" aria-label="Y-axis for a linear scale with values from 0 to 800"><g transform="translate(0.5,0.5)"><path class="background" aria-hidden="true" d="M0,0h0v0h0Z" pointer-events="none"></path><g><g class="mark-text role-axis-label" pointer-events="none"><text text-anchor="middle" transform="translate(-2,200) rotate(90) translate(0,8)" font-family="avenir" font-size="10px" font-weight="bold" fill="#fff" opacity="1">0</text><text text-anchor="middle" transform="translate(-2,150) rotate(90) translate(0,8)" font-family="avenir" font-size="10px" font-weight="bold" fill="#fff" opacity="1">200</text><text text-anchor="middle" transform="translate(-2,100) rotate(90) translate(0,8)" font-family="avenir" font-size="10px" font-weight="bold" fill="#fff" opacity="1">400</text><text text-anchor="middle" transform="translate(-2,50) rotate(90) translate(0,8)" font-family="avenir" font-size="10px" font-weight="bold" fill="#fff" opacity="1">600</text><text text-anchor="middle" transform="translate(-2,0) rotate(90) translate(0,8)" font-family="avenir" font-size="10px" font-weight="bold" fill="#fff" opacity="1">800</text></g><g class="mark-rule role-axis-domain" pointer-events="none"><line transform="translate(0,200)" x2="0" y2="-200" stroke="#888" stroke-width="1" opacity="1"></line></g></g><path class="foreground" aria-hidden="true" d="" pointer-events="none" display="none"></path></g></g><g class="mark-group role-scope layer_0_pathgroup" role="graphics-object" aria-roledescription="group mark container"><g transform="translate(0,0)"><path class="background" aria-hidden="true" d="M0,0h772v200h-772Z"></path><g><g class="mark-line role-mark layer_0_marks" role="graphics-object" aria-roledescription="line mark container"><path aria-label="Year: 1930; explicit or: 510; deposition: virtual so" role="graphics-symbol" aria-roledescription="line mark" d="M48.25,72.50000000000001C80.41666666666666,54.59134890644682,112.58333333333331,36.68269781289363,144.75,26C176.91666666666669,15.317302187106373,209.08333333333337,11.860557654872316,241.25,7.499999999999996C273.41666666666663,3.139442345127674,305.5833333333333,-2.124928432382914,337.75,2.0000000000000018C369.9166666666667,6.124928432382918,402.0833333333333,19.639156074659333,434.25,26C466.4166666666667,32.36084392534067,498.58333333333326,31.56830413374557,530.75,46C562.9166666666667,60.43169586625443,595.0833333333334,90.0876273903584,627.25,92C659.4166666666666,93.9123726096416,691.5833333333333,68.0811863048208,723.75,42.25000000000001" stroke="#ff661a" stroke-width="2" stroke-dasharray="1,0"></path></g></g><path class="foreground" aria-hidden="true" d="" display="none"></path></g></g><g class="mark-symbol role-mark layer_1_marks" role="graphics-object" aria-roledescription="symbol mark container"><path aria-label="Year: 1930; explicit or: 510; deposition: virtual so" role="graphics-symbol" aria-roledescription="point" transform="translate(48.25,72.50000000000001)" d="M0,0" fill="#ff661a" stroke-width="3" opacity="1"></path><path aria-label="Year: 1931; explicit or: 696; deposition: virtual so" role="graphics-symbol" aria-roledescription="point" transform="translate(144.75,26)" d="M0,0" fill="#ff661a" stroke-width="3" opacity="1"></path><path aria-label="Year: 1932; explicit or: 770; deposition: virtual so" role="graphics-symbol" aria-roledescription="point" transform="translate(241.25,7.499999999999996)" d="M0,0" fill="#ff661a" stroke-width="3" opacity="1"></path><path aria-label="Year: 1933; explicit or: 792; deposition: virtual so" role="graphics-symbol" aria-roledescription="point" transform="translate(337.75,2.0000000000000018)" d="M0,0" fill="#ff661a" stroke-width="3" opacity="1"></path><path aria-label="Year: 1934; explicit or: 696; deposition: virtual so" role="graphics-symbol" aria-roledescription="point" transform="translate(434.25,26)" d="M0,0" fill="#ff661a" stroke-width="3" opacity="1"></path><path aria-label="Year: 1935; explicit or: 616; deposition: virtual so" role="graphics-symbol" aria-roledescription="point" transform="translate(530.75,46)" d="M0,0" fill="#ff661a" stroke-width="3" opacity="1"></path><path aria-label="Year: 1936; explicit or: 432; deposition: virtual so" role="graphics-symbol" aria-roledescription="point" transform="translate(627.25,92)" d="M0,0" fill="#ff661a" stroke-width="3" opacity="1"></path><path aria-label="Year: 1937; explicit or: 631; deposition: virtual so" role="graphics-symbol" aria-roledescription="point" transform="translate(723.75,42.25000000000001)" d="M0,0" fill="#ff661a" stroke-width="3" opacity="1"></path></g><g class="mark-group role-title"><g transform="translate(-12,-36.5)"><path class="background" aria-hidden="true" d="M0,0h0v0h0Z" pointer-events="none"></path><g><g class="mark-text role-title-text" role="graphics-symbol" aria-roledescription="title" aria-label="Title text 'sensor'" pointer-events="none"><text text-anchor="start" transform="translate(0,20)" font-family="avenir" font-size="25px" font-weight="bold" fill="#fff" opacity="1">sensor</text></g></g><path class="foreground" aria-hidden="true" d="" pointer-events="none" display="none"></path></g></g></g><path class="foreground" aria-hidden="true" d="" display="none"></path></g></g></g></svg>