<svg xmlns="http://www.w3.org/2000/svg" xmlns:xlink="http://www.w3.org/1999/xlink" version="1.1" class="marks" width="912" height="303" viewBox="0 0 912 303" style="background-color: rgb(51, 51, 51);"><g fill="none" stroke-miterlimit="10" transform="translate(25,50)"><g class="mark-group role-frame root" role="graphics-object" aria-roledescription="group mark container"><g transform="translate(0,0)"><path class="background" aria-hidden="true" d="M0.5,0.5h882v200h-882Z" fill="transparent" stroke="#ddd"></path><g><g class="mark-group role-axis" role="graphics-symbol" aria-roledescription="axis" aria-label="X-axis for a discrete scale with 9 values: 1756, 1757, 1758, 1759, 1760, ending with 1764"><g transform="translate(0.5,200.5)"><path class="background" aria-hidden="true" d="M0,0h0v0h0Z" pointer-events="none"></path><g><g class="mark-rule role-axis-tick" pointer-events="none"><line transform="translate(49,0)" x2="0" y2="5" stroke="#888" stroke-width="1" opacity="1"></line><line transform="translate(147,0)" x2="0" y2="5" stroke="#888" stroke-width="1" opacity="1"></line><line transform="translate(245,0)" x2="0" y2="5" stroke="#888" stroke-width="1" opacity="1"></line><line transform="translate(343,0)" x2="0" y2="5" stroke="#888" stroke-width="1" opacity="1"></line><line transform="translate(441,0)" x2="0" y2="5" stroke="#888" stroke-width="1" opacity="1"></line><line transform="translate(539,0)" x2="0" y2="5" stroke="#888" stroke-width="1" opacity="1"></line><line transform="translate(637,0)" x2="0" y2="5" stroke="#888" stroke-width="1" opacity="1"></line><line transform="translate(735,0)" x2="0" y2="5" stroke="#888" stroke-width="1" opacity="1"></line><line transform="translate(833,0)" x2="0" y2="5" stroke="#888" stroke-width="1" opacity="1"></line></g><g class="mark-text role-axis-label" pointer-events="none"><text text-anchor="start" transform="translate(49,7) rotate(90) translate(0,5)" font-family="sans-serif" font-size="18px" font-weight="normal" fill="#fff" opacity="1">1756</text><text text-anchor="start" transform="translate(147,7) rotate(90) translate(0,5)" font-family="sans-serif" font-size="18px" font-weight="normal" fill="#fff" opacity="1">1757</text><text text-anchor="start" transform="translate(245,7) rotate(90) translate(0,5)" font-family="sans-serif" font-size="18px" font-weight="normal" fill="#fff" opacity="1">1758</text><text text-anchor="start" transform="translate(343,7) rotate(90) translate(0,5)" font-family="sans-serif" font-size="18px" font-weight="normal" fill="#fff" opacity="1">1759</text><text text-anchor="start" transform="translate(441,7) rotate(90) translate(0,5)" font-family="sans-serif" font-size="18px" font-weight="normal" fill="#fff" opacity="1">1760</text><text text-anchor="start" transform="translate(539,7) rotate(90) translate(0,5)" font-family="sans-serif" font-size="18px" font-weight="normal" fill="#fff" opacity="1">1761</text><text text-anchor="start" transform="translate(637,7) rotate(90) translate(0,5)" font-family="sans-serif" font-size="18px" font-weight="normal" fill="#fff" opacity="1">1762</text><text text-anchor="start" transform="translate(735,7) rotate(90) translate(0,5)" font-family="sans-serif" font-size="18px" font-weight="normal" fill="#fff" opacity="1">1763</text><text text-anchor="start" transform="translate(833,7) rotate(90) translate(0,5)" font-family="sans-serif" font-size="18px" font-weight="normal" fill="#fff" opacity="1">1764</text></g><g class="mark-rule role-axis-domain" pointer-events="none"><line transform="translate(0,0)" x2="882" y2="0" stroke="#888" stroke-width="1" opacity="1"></line></g></g><path class="foreground" aria-hidden="true" d="" pointer-events="none" display="none"></path></g></g><g class="mark-group role-axis" role="graphics-symbol" aria-roledescription="axis" aria-label="Y-axis for a linear scale with values from 0 to 600"><g transform="translate(0.5,0.5)"><path class="background" aria-hidden="true" d="M0,0h0v0h0Z" pointer-events="none"></path><g><g class="mark-text role-axis-label" pointer-events="none"><text text-anchor="middle" transform="translate(-2,200) rotate(90) translate(0,14)" font-family="sans-serif" font-size="18px" font-weight="normal" fill="#fff" opacity="1">0</text><text text-anchor="middle" transform="translate(-2,166.66666666666669) rotate(90) translate(0,14)" font-family="sans-serif" font-size="18px" font-weight="normal" fill="#fff" opacity="1">100</text><text text-anchor="middle" transform="translate(-2,133.33333333333334) rotate(90) translate(0,14)" font-family="sans-serif" font-size="18px" font-weight="normal" fill="#fff" opacity="1">200</text><text text-anchor="middle" transform="translate(-2,100) rotate(90) translate(0,14)" font-family="sans-serif" font-size="18px" font-weight="normal" fill="#fff" opacity="1">300</text><text text-anchor="middle" transform="translate(-2,66.66666666666667) rotate(90) translate(0,14)" font-family="sans-serif" font-size="18px" font-weight="normal" fill="#fff" opacity="1">400</text><text text-anchor="middle" transform="translate(-2,33.33333333333333) rotate(90) translate(0,14)" font-family="sans-serif" font-size="18px" font-weight="normal" fill="#fff" opacity="1">500</text><text text-anchor="middle" transform="translate(-2,0) rotate(90) translate(0,14)" font-family="sans-serif" font-size="18px" font-weight="normal" fill="#fff" opacity="1">600</text></g></g><path class="foreground" aria-hidden="true" d="" pointer-events="none" display="none"></path></g></g><g class="mark-group role-scope layer_0_pathgroup" role="graphics-object" aria-roledescription="group mark container"><g transform="translate(0,0)"><path class="background" aria-hidden="true" d="M0,0h882v200h-882Z"></path><g><g class="mark-line role-mark layer_0_marks" role="graphics-object" aria-roledescription="line mark container"><path aria-label="Year: 1756; similique wireless Wagon: 242; West: generating Coupe" role="graphics-symbol" aria-roledescription="line mark" d="M49,119.33333333333334C81.66666666666667,150.33792546228113,114.33333333333334,181.34251759122893,147,178.66666666666666C179.66666666666666,175.9908157421044,212.33333333333331,139.63452176403206,245,111.33333333333333C277.6666666666667,83.0321449026346,310.33333333333337,62.78606201930947,343,78.33333333333334C375.66666666666663,93.88060464735722,408.3333333333333,145.22123015873018,441,150.33333333333334C473.6666666666667,155.4454365079365,506.33333333333326,114.32901734576993,539,74C571.6666666666667,33.67098265423007,604.3333333333334,-5.870632875143187,637,5.000000000000004C669.6666666666666,15.870632875143196,702.3333333333333,77.15351415480282,735,109.66666666666667C767.6666666666667,142.17981917853052,800.3333333333334,145.9232429225986,833,149.66666666666666" stroke="#be78a3" stroke-width="2" stroke-dasharray="8,8"></path></g></g><path class="foreground" aria-hidden="true" d="" display="none"></path></g></g><g class="mark-symbol role-mark layer_1_marks" role="graphics-object" aria-roledescription="symbol mark container"><path aria-label="Year: 1756; similique wireless Wagon: 242; West: generating Coupe" role="graphics-symbol" aria-roledescription="point" transform="translate(49,119.33333333333334)" d="M2.7386127875258306,0A2.7386127875258306,2.7386127875258306,0,1,1,-2.7386127875258306,0A2.7386127875258306,2.7386127875258306,0,1,1,2.7386127875258306,0" fill="#333333" stroke="#be78a3" stroke-width="4" opacity="1"></path><path aria-label="Year: 1757; similique wireless Wagon: 64; West: generating Coupe" role="graphics-symbol" aria-roledescription="point" transform="translate(147,178.66666666666666)" d="M2.7386127875258306,0A2.7386127875258306,2.7386127875258306,0,1,1,-2.7386127875258306,0A2.7386127875258306,2.7386127875258306,0,1,1,2.7386127875258306,0" fill="#333333" stroke="#be78a3" stroke-width="4" opacity="1"></path><path aria-label="Year: 1758; similique wireless Wagon: 266; West: generating Coupe" role="graphics-symbol" aria-roledescription="point" transform="translate(245,111.33333333333333)" d="M2.7386127875258306,0A2.7386127875258306,2.7386127875258306,0,1,1,-2.7386127875258306,0A2.7386127875258306,2.7386127875258306,0,1,1,2.7386127875258306,0" fill="#333333" stroke="#be78a3" stroke-width="4" opacity="1"></path><path aria-label="Year: 1759; similique wireless Wagon: 365; West: generating Coupe" role="graphics-symbol" aria-roledescription="point" transform="translate(343,78.33333333333334)" d="M2.7386127875258306,0A2.7386127875258306,2.7386127875258306,0,1,1,-2.7386127875258306,0A2.7386127875258306,2.7386127875258306,0,1,1,2.7386127875258306,0" fill="#333333" stroke="#be78a3" stroke-width="4" opacity="1"></path><path aria-label="Year: 1760; similique wireless Wagon: 149; West: generating Coupe" role="graphics-symbol" aria-roledescription="point" transform="translate(441,150.33333333333334)" d="M2.7386127875258306,0A2.7386127875258306,2.7386127875258306,0,1,1,-2.7386127875258306,0A2.7386127875258306,2.7386127875258306,0,1,1,2.7386127875258306,0" fill="#333333" stroke="#be78a3" stroke-width="4" opacity="1"></path><path aria-label="Year: 1761; similique wireless Wagon: 378; West: generating Coupe" role="graphics-symbol" aria-roledescription="point" transform="translate(539,74)" d="M2.7386127875258306,0A2.7386127875258306,2.7386127875258306,0,1,1,-2.7386127875258306,0A2.7386127875258306,2.7386127875258306,0,1,1,2.7386127875258306,0" fill="#333333" stroke="#be78a3" stroke-width="4" opacity="1"></path><path aria-label="Year: 1762; similique wireless Wagon: 585; West: generating Coupe" role="graphics-symbol" aria-roledescription="point" transform="translate(637,5.000000000000004)" d="M2.7386127875258306,0A2.7386127875258306,2.7386127875258306,0,1,1,-2.7386127875258306,0A2.7386127875258306,2.7386127875258306,0,1,1,2.7386127875258306,0" fill="#333333" stroke="#be78a3" stroke-width="4" opacity="1"></path><path aria-label="Year: 1763; similique wireless Wagon: 271; West: generating Coupe" role="graphics-symbol" aria-roledescription="point" transform="translate(735,109.66666666666667)" d="M2.7386127875258306,0A2.7386127875258306,2.7386127875258306,0,1,1,-2.7386127875258306,0A2.7386127875258306,2.7386127875258306,0,1,1,2.7386127875258306,0" fill="#333333" stroke="#be78a3" stroke-width="4" opacity="1"></path><path aria-label="Year: 1764; similique wireless Wagon: 151; West: generating Coupe" role="graphics-symbol" aria-roledescription="point" transform="translate(833,149.66666666666666)" d="M2.7386127875258306,0A2.7386127875258306,2.7386127875258306,0,1,1,-2.7386127875258306,0A2.7386127875258306,2.7386127875258306,0,1,1,2.7386127875258306,0" fill="#333333" stroke="#be78a3" stroke-width="4" opacity="1"></path></g><g class="mark-group role-title"><g transform="translate(882,-44.01611328125)"><path class="background" aria-hidden="true" d="M0,0h0v0h0Z" pointer-events="none"></path><g><g class="mark-text role-title-text" role="graphics-symbol" aria-roledescription="title" aria-label="Title text 'delectus'" pointer-events="none"><text text-anchor="end" transform="translate(0,20)" font-family="sans-serif" font-size="25px" font-weight="bold" fill="#fff" opacity="1">delectus</text></g></g><path class="foreground" aria-hidden="true" d="" pointer-events="none" display="none"></path></g></g></g><path class="foreground" aria-hidden="true" d="" display="none"></path></g></g></g></svg>