<svg xmlns="http://www.w3.org/2000/svg" xmlns:xlink="http://www.w3.org/1999/xlink" version="1.1" class="marks" width="748" height="262" viewBox="0 0 748 262" style="background-color: rgb(255, 255, 255);"><g fill="none" stroke-miterlimit="10" transform="translate(33,34)"><g class="mark-group role-frame root" role="graphics-object" aria-roledescription="group mark container"><g transform="translate(0,0)"><path class="background" aria-hidden="true" d="M0.5,0.5h710v200h-710Z" fill="transparent" stroke="#ddd"></path><g><g class="mark-group role-axis" aria-hidden="true"><g transform="translate(0.5,200.5)"><path class="background" aria-hidden="true" d="M0,0h0v0h0Z" pointer-events="none"></path><g><g class="mark-rule role-axis-grid" pointer-events="none"><line transform="translate(32,-200)" x2="0" y2="200" stroke="#D0D0D0" stroke-width="1" stroke-dasharray="4, 2" opacity="1"></line><line transform="translate(97,-200)" x2="0" y2="200" stroke="#D0D0D0" stroke-width="1" stroke-dasharray="4, 2" opacity="1"></line><line transform="translate(161,-200)" x2="0" y2="200" stroke="#D0D0D0" stroke-width="1" stroke-dasharray="4, 2" opacity="1"></line><line transform="translate(226,-200)" x2="0" y2="200" stroke="#D0D0D0" stroke-width="1" stroke-dasharray="4, 2" opacity="1"></line><line transform="translate(290,-200)" x2="0" y2="200" stroke="#D0D0D0" stroke-width="1" stroke-dasharray="4, 2" opacity="1"></line><line transform="translate(355,-200)" x2="0" y2="200" stroke="#D0D0D0" stroke-width="1" stroke-dasharray="4, 2" opacity="1"></line><line transform="translate(420,-200)" x2="0" y2="200" stroke="#D0D0D0" stroke-width="1" stroke-dasharray="4, 2" opacity="1"></line><line transform="translate(484,-200)" x2="0" y2="200" stroke="#D0D0D0" stroke-width="1" stroke-dasharray="4, 2" opacity="1"></line><line transform="translate(549,-200)" x2="0" y2="200" stroke="#D0D0D0" stroke-width="1" stroke-dasharray="4, 2" opacity="1"></line><line transform="translate(613,-200)" x2="0" y2="200" stroke="#D0D0D0" stroke-width="1" stroke-dasharray="4, 2" opacity="1"></line><line transform="translate(678,-200)" x2="0" y2="200" stroke="#D0D0D0" stroke-width="1" stroke-dasharray="4, 2" opacity="1"></line></g></g><path class="foreground" aria-hidden="true" d="" pointer-events="none" display="none"></path></g></g><g class="mark-group role-axis" role="graphics-symbol" aria-roledescription="axis" aria-label="X-axis for a discrete scale with 11 values: 1804, 1805, 1806, 1807, 1808, ending with 1814"><g transform="translate(0.5,200.5)"><path class="background" aria-hidden="true" d="M0,0h0v0h0Z" pointer-events="none"></path><g><g class="mark-rule role-axis-tick" pointer-events="none"><line transform="translate(32,0)" x2="0" y2="5" stroke="#888" stroke-width="1" opacity="1"></line><line transform="translate(97,0)" x2="0" y2="5" stroke="#888" stroke-width="1" opacity="1"></line><line transform="translate(161,0)" x2="0" y2="5" stroke="#888" stroke-width="1" opacity="1"></line><line transform="translate(226,0)" x2="0" y2="5" stroke="#888" stroke-width="1" opacity="1"></line><line transform="translate(290,0)" x2="0" y2="5" stroke="#888" stroke-width="1" opacity="1"></line><line transform="translate(355,0)" x2="0" y2="5" stroke="#888" stroke-width="1" opacity="1"></line><line transform="translate(420,0)" x2="0" y2="5" stroke="#888" stroke-width="1" opacity="1"></line><line transform="translate(484,0)" x2="0" y2="5" stroke="#888" stroke-width="1" opacity="1"></line><line transform="translate(549,0)" x2="0" y2="5" stroke="#888" stroke-width="1" opacity="1"></line><line transform="translate(613,0)" x2="0" y2="5" stroke="#888" stroke-width="1" opacity="1"></line><line transform="translate(678,0)" x2="0" y2="5" stroke="#888" stroke-width="1" opacity="1"></line></g><g class="mark-text role-axis-label" pointer-events="none"><text text-anchor="middle" transform="translate(32.27272727272725,20)" font-family="Balto" font-size="17px" font-weight="bold" fill="#000" opacity="1">1804</text><text text-anchor="middle" transform="translate(96.8181818181818,20)" font-family="Balto" font-size="17px" font-weight="bold" fill="#000" opacity="1">1805</text><text text-anchor="middle" transform="translate(161.36363636363635,20)" font-family="Balto" font-size="17px" font-weight="bold" fill="#000" opacity="1">1806</text><text text-anchor="middle" transform="translate(225.90909090909088,20)" font-family="Balto" font-size="17px" font-weight="bold" fill="#000" opacity="1">1807</text><text text-anchor="middle" transform="translate(290.45454545454544,20)" font-family="Balto" font-size="17px" font-weight="bold" fill="#000" opacity="1">1808</text><text text-anchor="middle" transform="translate(355,20)" font-family="Balto" font-size="17px" font-weight="bold" fill="#000" opacity="1">1809</text><text text-anchor="middle" transform="translate(419.5454545454545,20)" font-family="Balto" font-size="17px" font-weight="bold" fill="#000" opacity="1">1810</text><text text-anchor="middle" transform="translate(484.09090909090907,20)" font-family="Balto" font-size="17px" font-weight="bold" fill="#000" opacity="1">1811</text><text text-anchor="middle" transform="translate(548.6363636363636,20)" font-family="Balto" font-size="17px" font-weight="bold" fill="#000" opacity="1">1812</text><text text-anchor="middle" transform="translate(613.1818181818181,20)" font-family="Balto" font-size="17px" font-weight="bold" fill="#000" opacity="1">1813</text><text text-anchor="middle" transform="translate(677.7272727272727,20)" font-family="Balto" font-size="17px" font-weight="bold" fill="#000" opacity="1">1814</text></g><g class="mark-rule role-axis-domain" pointer-events="none"><line transform="translate(0,0)" x2="710" y2="0" stroke="#888" stroke-width="1" opacity="1"></line></g></g><path class="foreground" aria-hidden="true" d="" pointer-events="none" display="none"></path></g></g><g class="mark-group role-axis" role="graphics-symbol" aria-roledescription="axis" aria-label="Y-axis for a linear scale with values from 0 to 900"><g transform="translate(0.5,0.5)"><path class="background" aria-hidden="true" d="M0,0h0v0h0Z" pointer-events="none"></path><g><g class="mark-text role-axis-label" pointer-events="none"><text text-anchor="end" transform="translate(-2,205)" font-family="Balto" font-size="17px" font-weight="bold" fill="#000" opacity="1">0</text><text text-anchor="end" transform="translate(-2,160.55555555555557)" font-family="Balto" font-size="17px" font-weight="bold" fill="#000" opacity="1">200</text><text text-anchor="end" transform="translate(-2,116.11111111111111)" font-family="Balto" font-size="17px" font-weight="bold" fill="#000" opacity="1">400</text><text text-anchor="end" transform="translate(-2,71.66666666666667)" font-family="Balto" font-size="17px" font-weight="bold" fill="#000" opacity="1">600</text><text text-anchor="end" transform="translate(-2,27.222222222222232)" font-family="Balto" font-size="17px" font-weight="bold" fill="#000" opacity="1">800</text></g></g><path class="foreground" aria-hidden="true" d="" pointer-events="none" display="none"></path></g></g><g class="mark-group role-scope layer_0_pathgroup" role="graphics-object" aria-roledescription="group mark container"><g transform="translate(0,0)"><path class="background" aria-hidden="true" d="M0,0h710v200h-710Z"></path><g><g class="mark-line role-mark layer_0_marks" role="graphics-object" aria-roledescription="line mark container"><path aria-label="Year: 1804; Investment: 427; West yet Wall: Cab" role="graphics-symbol" aria-roledescription="line mark" d="M32.27272727272725,105.11111111111111L96.8181818181818,118.66666666666666L161.36363636363635,130L225.90909090909088,36.444444444444436L290.45454545454544,140L355,60.444444444444436L419.5454545454545,58.22222222222222L484.09090909090907,179.77777777777777L548.6363636363636,117.33333333333333L613.1818181818181,17.777777777777782L677.7272727272727,81.11111111111111" stroke="#d2ccb0" stroke-width="2" stroke-dasharray="1,0"></path></g></g><path class="foreground" aria-hidden="true" d="" display="none"></path></g></g><g class="mark-symbol role-mark layer_1_marks" role="graphics-object" aria-roledescription="symbol mark container"><path aria-label="Year: 1804; Investment: 427; West yet Wall: Cab" role="graphics-symbol" aria-roledescription="point" transform="translate(32.27272727272725,105.11111111111111)" d="M2.7386127875258306,0A2.7386127875258306,2.7386127875258306,0,1,1,-2.7386127875258306,0A2.7386127875258306,2.7386127875258306,0,1,1,2.7386127875258306,0" fill="#fff" stroke="#d2ccb0" stroke-width="4" opacity="1"></path><path aria-label="Year: 1805; Investment: 366; West yet Wall: Cab" role="graphics-symbol" aria-roledescription="point" transform="translate(96.8181818181818,118.66666666666666)" d="M2.7386127875258306,0A2.7386127875258306,2.7386127875258306,0,1,1,-2.7386127875258306,0A2.7386127875258306,2.7386127875258306,0,1,1,2.7386127875258306,0" fill="#fff" stroke="#d2ccb0" stroke-width="4" opacity="1"></path><path aria-label="Year: 1806; Investment: 315; West yet Wall: Cab" role="graphics-symbol" aria-roledescription="point" transform="translate(161.36363636363635,130)" d="M2.7386127875258306,0A2.7386127875258306,2.7386127875258306,0,1,1,-2.7386127875258306,0A2.7386127875258306,2.7386127875258306,0,1,1,2.7386127875258306,0" fill="#fff" stroke="#d2ccb0" stroke-width="4" opacity="1"></path><path aria-label="Year: 1807; Investment: 736; West yet Wall: Cab" role="graphics-symbol" aria-roledescription="point" transform="translate(225.90909090909088,36.444444444444436)" d="M2.7386127875258306,0A2.7386127875258306,2.7386127875258306,0,1,1,-2.7386127875258306,0A2.7386127875258306,2.7386127875258306,0,1,1,2.7386127875258306,0" fill="#fff" stroke="#d2ccb0" stroke-width="4" opacity="1"></path><path aria-label="Year: 1808; Investment: 270; West yet Wall: Cab" role="graphics-symbol" aria-roledescription="point" transform="translate(290.45454545454544,140)" d="M2.7386127875258306,0A2.7386127875258306,2.7386127875258306,0,1,1,-2.7386127875258306,0A2.7386127875258306,2.7386127875258306,0,1,1,2.7386127875258306,0" fill="#fff" stroke="#d2ccb0" stroke-width="4" opacity="1"></path><path aria-label="Year: 1809; Investment: 628; West yet Wall: Cab" role="graphics-symbol" aria-roledescription="point" transform="translate(355,60.444444444444436)" d="M2.7386127875258306,0A2.7386127875258306,2.7386127875258306,0,1,1,-2.7386127875258306,0A2.7386127875258306,2.7386127875258306,0,1,1,2.7386127875258306,0" fill="#fff" stroke="#d2ccb0" stroke-width="4" opacity="1"></path><path aria-label="Year: 1810; Investment: 638; West yet Wall: Cab" role="graphics-symbol" aria-roledescription="point" transform="translate(419.5454545454545,58.22222222222222)" d="M2.7386127875258306,0A2.7386127875258306,2.7386127875258306,0,1,1,-2.7386127875258306,0A2.7386127875258306,2.7386127875258306,0,1,1,2.7386127875258306,0" fill="#fff" stroke="#d2ccb0" stroke-width="4" opacity="1"></path><path aria-label="Year: 1811; Investment: 91; West yet Wall: Cab" role="graphics-symbol" aria-roledescription="point" transform="translate(484.09090909090907,179.77777777777777)" d="M2.7386127875258306,0A2.7386127875258306,2.7386127875258306,0,1,1,-2.7386127875258306,0A2.7386127875258306,2.7386127875258306,0,1,1,2.7386127875258306,0" fill="#fff" stroke="#d2ccb0" stroke-width="4" opacity="1"></path><path aria-label="Year: 1812; Investment: 372; West yet Wall: Cab" role="graphics-symbol" aria-roledescription="point" transform="translate(548.6363636363636,117.33333333333333)" d="M2.7386127875258306,0A2.7386127875258306,2.7386127875258306,0,1,1,-2.7386127875258306,0A2.7386127875258306,2.7386127875258306,0,1,1,2.7386127875258306,0" fill="#fff" stroke="#d2ccb0" stroke-width="4" opacity="1"></path><path aria-label="Year: 1813; Investment: 820; West yet Wall: Cab" role="graphics-symbol" aria-roledescription="point" transform="translate(613.1818181818181,17.777777777777782)" d="M2.7386127875258306,0A2.7386127875258306,2.7386127875258306,0,1,1,-2.7386127875258306,0A2.7386127875258306,2.7386127875258306,0,1,1,2.7386127875258306,0" fill="#fff" stroke="#d2ccb0" stroke-width="4" opacity="1"></path><path aria-label="Year: 1814; Investment: 535; West yet Wall: Cab" role="graphics-symbol" aria-roledescription="point" transform="translate(677.7272727272727,81.11111111111111)" d="M2.7386127875258306,0A2.7386127875258306,2.7386127875258306,0,1,1,-2.7386127875258306,0A2.7386127875258306,2.7386127875258306,0,1,1,2.7386127875258306,0" fill="#fff" stroke="#d2ccb0" stroke-width="4" opacity="1"></path></g><g class="mark-group role-title"><g transform="translate(-27.5,-29)"><path class="background" aria-hidden="true" d="M0,0h0v0h0Z" pointer-events="none"></path><g><g class="mark-text role-title-text" role="graphics-symbol" aria-roledescription="title" aria-label="Title text 'South Southeast'" pointer-events="none"><text text-anchor="start" transform="translate(0,20)" font-family="Balto" font-size="25px" font-weight="bold" fill="#000" opacity="1">South Southeast</text></g></g><path class="foreground" aria-hidden="true" d="" pointer-events="none" display="none"></path></g></g></g><path class="foreground" aria-hidden="true" d="" display="none"></path></g></g></g></svg>