<svg xmlns="http://www.w3.org/2000/svg" xmlns:xlink="http://www.w3.org/1999/xlink" version="1.1" class="marks" width="1081" height="265" viewBox="0 0 1081 265" style="background-color: rgb(255, 255, 255);"><g fill="none" stroke-miterlimit="10" transform="translate(190,40)"><g class="mark-group role-frame root" role="graphics-object" aria-roledescription="group mark container"><g transform="translate(0,0)"><path class="background" aria-hidden="true" d="M0.5,0.5h886v200h-886Z" fill="transparent" stroke="#ddd"></path><g><g class="mark-group role-axis" aria-hidden="true"><g transform="translate(0.5,200.5)"><path class="background" aria-hidden="true" d="M0,0h0v0h0Z" pointer-events="none"></path><g><g class="mark-rule role-axis-grid" pointer-events="none"><line transform="translate(44,-200)" x2="0" y2="200" stroke="#D0D0D0" stroke-width="1" stroke-dasharray="6, 3" opacity="1"></line><line transform="translate(133,-200)" x2="0" y2="200" stroke="#D0D0D0" stroke-width="1" stroke-dasharray="6, 3" opacity="1"></line><line transform="translate(222,-200)" x2="0" y2="200" stroke="#D0D0D0" stroke-width="1" stroke-dasharray="6, 3" opacity="1"></line><line transform="translate(310,-200)" x2="0" y2="200" stroke="#D0D0D0" stroke-width="1" stroke-dasharray="6, 3" opacity="1"></line><line transform="translate(399,-200)" x2="0" y2="200" stroke="#D0D0D0" stroke-width="1" stroke-dasharray="6, 3" opacity="1"></line><line transform="translate(487,-200)" x2="0" y2="200" stroke="#D0D0D0" stroke-width="1" stroke-dasharray="6, 3" opacity="1"></line><line transform="translate(576,-200)" x2="0" y2="200" stroke="#D0D0D0" stroke-width="1" stroke-dasharray="6, 3" opacity="1"></line><line transform="translate(665,-200)" x2="0" y2="200" stroke="#D0D0D0" stroke-width="1" stroke-dasharray="6, 3" opacity="1"></line><line transform="translate(753,-200)" x2="0" y2="200" stroke="#D0D0D0" stroke-width="1" stroke-dasharray="6, 3" opacity="1"></line><line transform="translate(842,-200)" x2="0" y2="200" stroke="#D0D0D0" stroke-width="1" stroke-dasharray="6, 3" opacity="1"></line></g></g><path class="foreground" aria-hidden="true" d="" pointer-events="none" display="none"></path></g></g><g class="mark-group role-axis" aria-hidden="true"><g transform="translate(0.5,0.5)"><path class="background" aria-hidden="true" d="M0,0h0v0h0Z" pointer-events="none"></path><g><g class="mark-rule role-axis-grid" pointer-events="none"><line transform="translate(0,200)" x2="886" y2="0" stroke="#D0D0D0" stroke-width="1" stroke-dasharray="6, 3" opacity="1"></line><line transform="translate(0,167)" x2="886" y2="0" stroke="#D0D0D0" stroke-width="1" stroke-dasharray="6, 3" opacity="1"></line><line transform="translate(0,133)" x2="886" y2="0" stroke="#D0D0D0" stroke-width="1" stroke-dasharray="6, 3" opacity="1"></line><line transform="translate(0,100)" x2="886" y2="0" stroke="#D0D0D0" stroke-width="1" stroke-dasharray="6, 3" opacity="1"></line><line transform="translate(0,67)" x2="886" y2="0" stroke="#D0D0D0" stroke-width="1" stroke-dasharray="6, 3" opacity="1"></line><line transform="translate(0,33)" x2="886" y2="0" stroke="#D0D0D0" stroke-width="1" stroke-dasharray="6, 3" opacity="1"></line><line transform="translate(0,0)" x2="886" y2="0" stroke="#D0D0D0" stroke-width="1" stroke-dasharray="6, 3" opacity="1"></line></g></g><path class="foreground" aria-hidden="true" d="" pointer-events="none" display="none"></path></g></g><g class="mark-group role-axis" role="graphics-symbol" aria-roledescription="axis" aria-label="X-axis for a discrete scale with 10 values: Jan, Feb, Mar, Apr, May, ending with Oct"><g transform="translate(0.5,200.5)"><path class="background" aria-hidden="true" d="M0,0h0v0h0Z" pointer-events="none"></path><g><g class="mark-rule role-axis-tick" pointer-events="none"><line transform="translate(44,0)" x2="0" y2="5" stroke="#888" stroke-width="1" opacity="1"></line><line transform="translate(133,0)" x2="0" y2="5" stroke="#888" stroke-width="1" opacity="1"></line><line transform="translate(222,0)" x2="0" y2="5" stroke="#888" stroke-width="1" opacity="1"></line><line transform="translate(310,0)" x2="0" y2="5" stroke="#888" stroke-width="1" opacity="1"></line><line transform="translate(399,0)" x2="0" y2="5" stroke="#888" stroke-width="1" opacity="1"></line><line transform="translate(487,0)" x2="0" y2="5" stroke="#888" stroke-width="1" opacity="1"></line><line transform="translate(576,0)" x2="0" y2="5" stroke="#888" stroke-width="1" opacity="1"></line><line transform="translate(665,0)" x2="0" y2="5" stroke="#888" stroke-width="1" opacity="1"></line><line transform="translate(753,0)" x2="0" y2="5" stroke="#888" stroke-width="1" opacity="1"></line><line transform="translate(842,0)" x2="0" y2="5" stroke="#888" stroke-width="1" opacity="1"></line></g><g class="mark-text role-axis-label" pointer-events="none"><text text-anchor="middle" transform="translate(44.30000000000001,17)" font-family="monospace" font-size="13px" font-weight="normal" fill="#000" opacity="1">Jan</text><text text-anchor="middle" transform="translate(132.9,17)" font-family="monospace" font-size="13px" font-weight="normal" fill="#000" opacity="1">Feb</text><text text-anchor="middle" transform="translate(221.5,17)" font-family="monospace" font-size="13px" font-weight="normal" fill="#000" opacity="1">Mar</text><text text-anchor="middle" transform="translate(310.09999999999997,17)" font-family="monospace" font-size="13px" font-weight="normal" fill="#000" opacity="1">Apr</text><text text-anchor="middle" transform="translate(398.7,17)" font-family="monospace" font-size="13px" font-weight="normal" fill="#000" opacity="1">May</text><text text-anchor="middle" transform="translate(487.3,17)" font-family="monospace" font-size="13px" font-weight="normal" fill="#000" opacity="1">June</text><text text-anchor="middle" transform="translate(575.8999999999999,17)" font-family="monospace" font-size="13px" font-weight="normal" fill="#000" opacity="1">July</text><text text-anchor="middle" transform="translate(664.5,17)" font-family="monospace" font-size="13px" font-weight="normal" fill="#000" opacity="1">Aug</text><text text-anchor="middle" transform="translate(753.0999999999999,17)" font-family="monospace" font-size="13px" font-weight="normal" fill="#000" opacity="1">Sep</text><text text-anchor="middle" transform="translate(841.7,17)" font-family="monospace" font-size="13px" font-weight="normal" fill="#000" opacity="1">Oct</text></g><g class="mark-rule role-axis-domain" pointer-events="none"><line transform="translate(0,0)" x2="886" y2="0" stroke="#888" stroke-width="1" opacity="1"></line></g></g><path class="foreground" aria-hidden="true" d="" pointer-events="none" display="none"></path></g></g><g class="mark-group role-axis" role="graphics-symbol" aria-roledescription="axis" aria-label="Y-axis for a linear scale with values from 0 to 600"><g transform="translate(0.5,0.5)"><path class="background" aria-hidden="true" d="M0,0h0v0h0Z" pointer-events="none"></path><g><g class="mark-text role-axis-label" pointer-events="none"><text text-anchor="end" transform="translate(-2,204)" font-family="monospace" font-size="13px" font-weight="normal" fill="#000" opacity="1">0</text><text text-anchor="end" transform="translate(-2,170.66666666666669)" font-family="monospace" font-size="13px" font-weight="normal" fill="#000" opacity="1">100</text><text text-anchor="end" transform="translate(-2,137.33333333333334)" font-family="monospace" font-size="13px" font-weight="normal" fill="#000" opacity="1">200</text><text text-anchor="end" transform="translate(-2,104)" font-family="monospace" font-size="13px" font-weight="normal" fill="#000" opacity="1">300</text><text text-anchor="end" transform="translate(-2,70.66666666666667)" font-family="monospace" font-size="13px" font-weight="normal" fill="#000" opacity="1">400</text><text text-anchor="end" transform="translate(-2,37.33333333333333)" font-family="monospace" font-size="13px" font-weight="normal" fill="#000" opacity="1">500</text><text text-anchor="end" transform="translate(-2,4)" font-family="monospace" font-size="13px" font-weight="normal" fill="#000" opacity="1">600</text></g><g class="mark-rule role-axis-domain" pointer-events="none"><line transform="translate(0,200)" x2="0" y2="-200" stroke="#888" stroke-width="1" opacity="1"></line></g></g><path class="foreground" aria-hidden="true" d="" pointer-events="none" display="none"></path></g></g><g class="mark-group role-scope layer_0_pathgroup" role="graphics-object" aria-roledescription="group mark container"><g transform="translate(0,0)"><path class="background" aria-hidden="true" d="M0,0h886v200h-886Z"></path><g><g class="mark-line role-mark layer_0_marks" role="graphics-object" aria-roledescription="line mark container"><path aria-label="Month: Jan; Electronic North: 248; Consultant: Hermaphrodite Northwest" role="graphics-symbol" aria-roledescription="line mark" d="M44.30000000000001,117.33333333333333C73.83333333333334,86.66079390526299,103.36666666666667,55.98825447719266,132.9,58.666666666666664C162.43333333333334,61.34507885614067,191.9666666666667,97.37444266315896,221.5,120.33333333333334C251.0333333333333,143.29222400350773,280.56666666666666,153.18064153683832,310.09999999999997,128.33333333333331C339.63333333333327,103.4860251298283,369.1666666666667,43.90299118948767,398.7,47C428.2333333333333,50.09700881051233,457.76666666666665,115.87406037187762,487.3,140.33333333333334C516.8333333333334,164.79260629478907,546.3666666666666,147.9341006563352,575.8999999999999,150C605.4333333333332,152.0658993436648,634.9666666666666,173.05620366944822,664.5,143.33333333333334C694.0333333333334,113.61046299721848,723.5666666666666,33.174417999205275,753.0999999999999,21.666666666666657C782.6333333333332,10.158915334128043,812.1666666666666,67.57945766706402,841.7,125" stroke="#444c1c" stroke-width="2" stroke-dasharray="1,0"></path></g></g><path class="foreground" aria-hidden="true" d="" display="none"></path></g><g transform="translate(0,0)"><path class="background" aria-hidden="true" d="M0,0h886v200h-886Z"></path><g><g class="mark-line role-mark layer_0_marks" role="graphics-object" aria-roledescription="line mark container"><path aria-label="Month: Jan; Electronic North: 104; Consultant: payment Account Bacon" role="graphics-symbol" aria-roledescription="line mark" d="M44.30000000000001,165.33333333333334C73.83333333333334,190.74020909551803,103.36666666666667,216.1470848577027,132.9,191.66666666666669C162.43333333333334,167.18624847563066,191.9666666666667,92.81853633137395,221.5,100.66666666666669C251.0333333333333,108.51479700195942,280.56666666666666,198.57876981680167,310.09999999999997,196.66666666666666C339.63333333333327,194.75456351653165,369.1666666666667,100.86638440141954,398.7,53.33333333333334C428.2333333333333,5.800282265247145,457.76666666666665,4.622359244186839,487.3,42.66666666666667C516.8333333333334,80.7109740891465,546.3666666666666,157.97751195516642,575.8999999999999,168.33333333333334C605.4333333333332,178.68915471150027,634.9666666666666,122.13425960181418,664.5,86.00000000000001C694.0333333333334,49.86574039818585,723.5666666666666,34.15211630424358,753.0999999999999,25.333333333333343C782.6333333333332,16.514550362423105,812.1666666666666,14.590608514544888,841.7,12.666666666666671" stroke="#2ad466" stroke-width="2" stroke-dasharray="1,0"></path></g></g><path class="foreground" aria-hidden="true" d="" display="none"></path></g></g><g class="mark-symbol role-mark layer_1_marks" role="graphics-object" aria-roledescription="symbol mark container"><path aria-label="Month: Jan; Electronic North: 248; Consultant: Hermaphrodite Northwest" role="graphics-symbol" aria-roledescription="point" transform="translate(44.30000000000001,117.33333333333333)" d="M5.612486080160912,0A5.612486080160912,5.612486080160912,0,1,1,-5.612486080160912,0A5.612486080160912,5.612486080160912,0,1,1,5.612486080160912,0" fill="#444c1c" stroke-width="2" opacity="1"></path><path aria-label="Month: Feb; Electronic North: 424; Consultant: Hermaphrodite Northwest" role="graphics-symbol" aria-roledescription="point" transform="translate(132.9,58.666666666666664)" d="M5.612486080160912,0A5.612486080160912,5.612486080160912,0,1,1,-5.612486080160912,0A5.612486080160912,5.612486080160912,0,1,1,5.612486080160912,0" fill="#444c1c" stroke-width="2" opacity="1"></path><path aria-label="Month: Mar; Electronic North: 239; Consultant: Hermaphrodite Northwest" role="graphics-symbol" aria-roledescription="point" transform="translate(221.5,120.33333333333334)" d="M5.612486080160912,0A5.612486080160912,5.612486080160912,0,1,1,-5.612486080160912,0A5.612486080160912,5.612486080160912,0,1,1,5.612486080160912,0" fill="#444c1c" stroke-width="2" opacity="1"></path><path aria-label="Month: Apr; Electronic North: 215; Consultant: Hermaphrodite Northwest" role="graphics-symbol" aria-roledescription="point" transform="translate(310.09999999999997,128.33333333333331)" d="M5.612486080160912,0A5.612486080160912,5.612486080160912,0,1,1,-5.612486080160912,0A5.612486080160912,5.612486080160912,0,1,1,5.612486080160912,0" fill="#444c1c" stroke-width="2" opacity="1"></path><path aria-label="Month: May; Electronic North: 459; Consultant: Hermaphrodite Northwest" role="graphics-symbol" aria-roledescription="point" transform="translate(398.7,47)" d="M5.612486080160912,0A5.612486080160912,5.612486080160912,0,1,1,-5.612486080160912,0A5.612486080160912,5.612486080160912,0,1,1,5.612486080160912,0" fill="#444c1c" stroke-width="2" opacity="1"></path><path aria-label="Month: June; Electronic North: 179; Consultant: Hermaphrodite Northwest" role="graphics-symbol" aria-roledescription="point" transform="translate(487.3,140.33333333333334)" d="M5.612486080160912,0A5.612486080160912,5.612486080160912,0,1,1,-5.612486080160912,0A5.612486080160912,5.612486080160912,0,1,1,5.612486080160912,0" fill="#444c1c" stroke-width="2" opacity="1"></path><path aria-label="Month: July; Electronic North: 150; Consultant: Hermaphrodite Northwest" role="graphics-symbol" aria-roledescription="point" transform="translate(575.8999999999999,150)" d="M5.612486080160912,0A5.612486080160912,5.612486080160912,0,1,1,-5.612486080160912,0A5.612486080160912,5.612486080160912,0,1,1,5.612486080160912,0" fill="#444c1c" stroke-width="2" opacity="1"></path><path aria-label="Month: Aug; Electronic North: 170; Consultant: Hermaphrodite Northwest" role="graphics-symbol" aria-roledescription="point" transform="translate(664.5,143.33333333333334)" d="M5.612486080160912,0A5.612486080160912,5.612486080160912,0,1,1,-5.612486080160912,0A5.612486080160912,5.612486080160912,0,1,1,5.612486080160912,0" fill="#444c1c" stroke-width="2" opacity="1"></path><path aria-label="Month: Sep; Electronic North: 535; Consultant: Hermaphrodite Northwest" role="graphics-symbol" aria-roledescription="point" transform="translate(753.0999999999999,21.666666666666657)" d="M5.612486080160912,0A5.612486080160912,5.612486080160912,0,1,1,-5.612486080160912,0A5.612486080160912,5.612486080160912,0,1,1,5.612486080160912,0" fill="#444c1c" stroke-width="2" opacity="1"></path><path aria-label="Month: Oct; Electronic North: 225; Consultant: Hermaphrodite Northwest" role="graphics-symbol" aria-roledescription="point" transform="translate(841.7,125)" d="M5.612486080160912,0A5.612486080160912,5.612486080160912,0,1,1,-5.612486080160912,0A5.612486080160912,5.612486080160912,0,1,1,5.612486080160912,0" fill="#444c1c" stroke-width="2" opacity="1"></path><path aria-label="Month: Jan; Electronic North: 104; Consultant: payment Account Bacon" role="graphics-symbol" aria-roledescription="point" transform="translate(44.30000000000001,165.33333333333334)" d="M5.612486080160912,0A5.612486080160912,5.612486080160912,0,1,1,-5.612486080160912,0A5.612486080160912,5.612486080160912,0,1,1,5.612486080160912,0" fill="#2ad466" stroke-width="2" opacity="1"></path><path aria-label="Month: Feb; Electronic North: 25; Consultant: payment Account Bacon" role="graphics-symbol" aria-roledescription="point" transform="translate(132.9,191.66666666666669)" d="M5.612486080160912,0A5.612486080160912,5.612486080160912,0,1,1,-5.612486080160912,0A5.612486080160912,5.612486080160912,0,1,1,5.612486080160912,0" fill="#2ad466" stroke-width="2" opacity="1"></path><path aria-label="Month: Mar; Electronic North: 298; Consultant: payment Account Bacon" role="graphics-symbol" aria-roledescription="point" transform="translate(221.5,100.66666666666669)" d="M5.612486080160912,0A5.612486080160912,5.612486080160912,0,1,1,-5.612486080160912,0A5.612486080160912,5.612486080160912,0,1,1,5.612486080160912,0" fill="#2ad466" stroke-width="2" opacity="1"></path><path aria-label="Month: Apr; Electronic North: 10; Consultant: payment Account Bacon" role="graphics-symbol" aria-roledescription="point" transform="translate(310.09999999999997,196.66666666666666)" d="M5.612486080160912,0A5.612486080160912,5.612486080160912,0,1,1,-5.612486080160912,0A5.612486080160912,5.612486080160912,0,1,1,5.612486080160912,0" fill="#2ad466" stroke-width="2" opacity="1"></path><path aria-label="Month: May; Electronic North: 440; Consultant: payment Account Bacon" role="graphics-symbol" aria-roledescription="point" transform="translate(398.7,53.33333333333334)" d="M5.612486080160912,0A5.612486080160912,5.612486080160912,0,1,1,-5.612486080160912,0A5.612486080160912,5.612486080160912,0,1,1,5.612486080160912,0" fill="#2ad466" stroke-width="2" opacity="1"></path><path aria-label="Month: June; Electronic North: 472; Consultant: payment Account Bacon" role="graphics-symbol" aria-roledescription="point" transform="translate(487.3,42.66666666666667)" d="M5.612486080160912,0A5.612486080160912,5.612486080160912,0,1,1,-5.612486080160912,0A5.612486080160912,5.612486080160912,0,1,1,5.612486080160912,0" fill="#2ad466" stroke-width="2" opacity="1"></path><path aria-label="Month: July; Electronic North: 95; Consultant: payment Account Bacon" role="graphics-symbol" aria-roledescription="point" transform="translate(575.8999999999999,168.33333333333334)" d="M5.612486080160912,0A5.612486080160912,5.612486080160912,0,1,1,-5.612486080160912,0A5.612486080160912,5.612486080160912,0,1,1,5.612486080160912,0" fill="#2ad466" stroke-width="2" opacity="1"></path><path aria-label="Month: Aug; Electronic North: 342; Consultant: payment Account Bacon" role="graphics-symbol" aria-roledescription="point" transform="translate(664.5,86.00000000000001)" d="M5.612486080160912,0A5.612486080160912,5.612486080160912,0,1,1,-5.612486080160912,0A5.612486080160912,5.612486080160912,0,1,1,5.612486080160912,0" fill="#2ad466" stroke-width="2" opacity="1"></path><path aria-label="Month: Sep; Electronic North: 524; Consultant: payment Account Bacon" role="graphics-symbol" aria-roledescription="point" transform="translate(753.0999999999999,25.333333333333343)" d="M5.612486080160912,0A5.612486080160912,5.612486080160912,0,1,1,-5.612486080160912,0A5.612486080160912,5.612486080160912,0,1,1,5.612486080160912,0" fill="#2ad466" stroke-width="2" opacity="1"></path><path aria-label="Month: Oct; Electronic North: 562; Consultant: payment Account Bacon" role="graphics-symbol" aria-roledescription="point" transform="translate(841.7,12.666666666666671)" d="M5.612486080160912,0A5.612486080160912,5.612486080160912,0,1,1,-5.612486080160912,0A5.612486080160912,5.612486080160912,0,1,1,5.612486080160912,0" fill="#2ad466" stroke-width="2" opacity="1"></path></g><g class="mark-group role-legend" role="graphics-symbol" aria-roledescription="legend" aria-label="Symbol legend for fill color and stroke color with 2 values: Hermaphrodite Northwest, payment Account Bacon"><g transform="translate(-185,0)"><path class="background" aria-hidden="true" d="M0,0h143v29h-143Z" pointer-events="none"></path><g><g class="mark-group role-legend-entry"><g transform="translate(0,0)"><path class="background" aria-hidden="true" d="M0,0h0v0h0Z" pointer-events="none"></path><g><g class="mark-group role-scope" role="graphics-object" aria-roledescription="group mark container"><g transform="translate(0,0)"><path class="background" aria-hidden="true" d="M0,0h142.455078125v12.5h-142.455078125Z" pointer-events="none" opacity="1"></path><g><g class="mark-symbol role-legend-symbol" pointer-events="none"><path transform="translate(6,6)" d="M5,0A5,5,0,1,1,-5,0A5,5,0,1,1,5,0" fill="#444c1c" stroke="#444c1c" stroke-width="1.5" opacity="1"></path></g><g class="mark-text role-legend-label" pointer-events="none"><text text-anchor="start" transform="translate(16,9)" font-family="monospace" font-size="10px" fill="#000" opacity="1">Hermaphrodite Northwest</text></g></g><path class="foreground" aria-hidden="true" d="" pointer-events="none" display="none"></path></g><g transform="translate(0,16)"><path class="background" aria-hidden="true" d="M0,0h142.455078125v12.5h-142.455078125Z" pointer-events="none" opacity="1"></path><g><g class="mark-symbol role-legend-symbol" pointer-events="none"><path transform="translate(6,6)" d="M5,0A5,5,0,1,1,-5,0A5,5,0,1,1,5,0" fill="#2ad466" stroke="#2ad466" stroke-width="1.5" opacity="1"></path></g><g class="mark-text role-legend-label" pointer-events="none"><text text-anchor="start" transform="translate(16,9)" font-family="monospace" font-size="10px" fill="#000" opacity="1">payment Account Bacon</text></g></g><path class="foreground" aria-hidden="true" d="" pointer-events="none" display="none"></path></g></g></g><path class="foreground" aria-hidden="true" d="" pointer-events="none" display="none"></path></g></g></g><path class="foreground" aria-hidden="true" d="" pointer-events="none" display="none"></path></g></g><g class="mark-group role-title"><g transform="translate(-185,-35)"><path class="background" aria-hidden="true" d="M0,0h0v0h0Z" pointer-events="none"></path><g><g class="mark-text role-title-text" role="graphics-symbol" aria-roledescription="title" aria-label="Title text 'extend Arbor'" pointer-events="none"><text text-anchor="start" transform="translate(0,20)" font-family="monospace" font-size="25px" font-weight="bold" fill="#000" opacity="1">extend Arbor</text></g></g><path class="foreground" aria-hidden="true" d="" pointer-events="none" display="none"></path></g></g></g><path class="foreground" aria-hidden="true" d="" display="none"></path></g></g></g></svg>