<svg xmlns="http://www.w3.org/2000/svg" xmlns:xlink="http://www.w3.org/1999/xlink" version="1.1" class="marks" width="611" height="295" viewBox="0 0 611 295" style="background-color: rgb(255, 255, 255);"><g fill="none" stroke-miterlimit="10" transform="translate(106,40)"><g class="mark-group role-frame root" role="graphics-object" aria-roledescription="group mark container"><g transform="translate(0,0)"><path class="background" aria-hidden="true" d="M0.5,0.5h500v200h-500Z" fill="transparent" stroke="#ddd"></path><g><g class="mark-group role-axis" aria-hidden="true"><g transform="translate(0.5,200.5)"><path class="background" aria-hidden="true" d="M0,0h0v0h0Z" pointer-events="none"></path><g><g class="mark-rule role-axis-grid" pointer-events="none"><line transform="translate(42,-200)" x2="0" y2="200" stroke="#D0D0D0" stroke-width="1" stroke-dasharray="1,0" opacity="1"></line><line transform="translate(125,-200)" x2="0" y2="200" stroke="#D0D0D0" stroke-width="1" stroke-dasharray="1,0" opacity="1"></line><line transform="translate(208,-200)" x2="0" y2="200" stroke="#D0D0D0" stroke-width="1" stroke-dasharray="1,0" opacity="1"></line><line transform="translate(292,-200)" x2="0" y2="200" stroke="#D0D0D0" stroke-width="1" stroke-dasharray="1,0" opacity="1"></line><line transform="translate(375,-200)" x2="0" y2="200" stroke="#D0D0D0" stroke-width="1" stroke-dasharray="1,0" opacity="1"></line><line transform="translate(458,-200)" x2="0" y2="200" stroke="#D0D0D0" stroke-width="1" stroke-dasharray="1,0" opacity="1"></line></g></g><path class="foreground" aria-hidden="true" d="" pointer-events="none" display="none"></path></g></g><g class="mark-group role-axis" role="graphics-symbol" aria-roledescription="axis" aria-label="X-axis for a discrete scale with 6 values: 1809, 1811, 1813, 1815, 1817, 1819"><g transform="translate(0.5,200.5)"><path class="background" aria-hidden="true" d="M0,0h0v0h0Z" pointer-events="none"></path><g><g class="mark-rule role-axis-tick" pointer-events="none"><line transform="translate(42,0)" x2="0" y2="5" stroke="#888" stroke-width="1" opacity="1"></line><line transform="translate(125,0)" x2="0" y2="5" stroke="#888" stroke-width="1" opacity="1"></line><line transform="translate(208,0)" x2="0" y2="5" stroke="#888" stroke-width="1" opacity="1"></line><line transform="translate(292,0)" x2="0" y2="5" stroke="#888" stroke-width="1" opacity="1"></line><line transform="translate(375,0)" x2="0" y2="5" stroke="#888" stroke-width="1" opacity="1"></line><line transform="translate(458,0)" x2="0" y2="5" stroke="#888" stroke-width="1" opacity="1"></line></g><g class="mark-text role-axis-label" pointer-events="none"><text text-anchor="start" transform="translate(41.666666666666686,7) rotate(90) translate(0,6)" font-family="sans-serif" font-size="19px" font-weight="bold" fill="#000" opacity="1">1809</text><text text-anchor="start" transform="translate(125.00000000000001,7) rotate(90) translate(0,6)" font-family="sans-serif" font-size="19px" font-weight="bold" fill="#000" opacity="1">1811</text><text text-anchor="start" transform="translate(208.33333333333334,7) rotate(90) translate(0,6)" font-family="sans-serif" font-size="19px" font-weight="bold" fill="#000" opacity="1">1813</text><text text-anchor="start" transform="translate(291.6666666666667,7) rotate(90) translate(0,6)" font-family="sans-serif" font-size="19px" font-weight="bold" fill="#000" opacity="1">1815</text><text text-anchor="start" transform="translate(375,7) rotate(90) translate(0,6)" font-family="sans-serif" font-size="19px" font-weight="bold" fill="#000" opacity="1">1817</text><text text-anchor="start" transform="translate(458.3333333333333,7) rotate(90) translate(0,6)" font-family="sans-serif" font-size="19px" font-weight="bold" fill="#000" opacity="1">1819</text></g><g class="mark-rule role-axis-domain" pointer-events="none"><line transform="translate(0,0)" x2="500" y2="0" stroke="#888" stroke-width="1" opacity="1"></line></g></g><path class="foreground" aria-hidden="true" d="" pointer-events="none" display="none"></path></g></g><g class="mark-group role-axis" role="graphics-symbol" aria-roledescription="axis" aria-label="Y-axis for a linear scale with values from 0 to 550"><g transform="translate(0.5,0.5)"><path class="background" aria-hidden="true" d="M0,0h0v0h0Z" pointer-events="none"></path><g><g class="mark-text role-axis-label" pointer-events="none"><text text-anchor="middle" transform="translate(-2,200) rotate(90) translate(0,15)" font-family="sans-serif" font-size="19px" font-weight="bold" fill="#000" opacity="1">0</text><text text-anchor="middle" transform="translate(-2,163.63636363636363) rotate(90) translate(0,15)" font-family="sans-serif" font-size="19px" font-weight="bold" fill="#000" opacity="1">100</text><text text-anchor="middle" transform="translate(-2,127.27272727272727) rotate(90) translate(0,15)" font-family="sans-serif" font-size="19px" font-weight="bold" fill="#000" opacity="1">200</text><text text-anchor="middle" transform="translate(-2,90.90909090909092) rotate(90) translate(0,15)" font-family="sans-serif" font-size="19px" font-weight="bold" fill="#000" opacity="1">300</text><text text-anchor="middle" transform="translate(-2,54.54545454545454) rotate(90) translate(0,15)" font-family="sans-serif" font-size="19px" font-weight="bold" fill="#000" opacity="1">400</text><text text-anchor="middle" transform="translate(-2,18.181818181818187) rotate(90) translate(0,15)" font-family="sans-serif" font-size="19px" font-weight="bold" fill="#000" opacity="1">500</text></g></g><path class="foreground" aria-hidden="true" d="" pointer-events="none" display="none"></path></g></g><g class="mark-group role-scope layer_0_pathgroup" role="graphics-object" aria-roledescription="group mark container"><g transform="translate(0,0)"><path class="background" aria-hidden="true" d="M0,0h500v200h-500Z"></path><g><g class="mark-line role-mark layer_0_marks" role="graphics-object" aria-roledescription="line mark container"><path aria-label="Year: 1809; quae Southeast: 509; invoice: SSL Road" role="graphics-symbol" aria-roledescription="line mark" d="M41.666666666666686,14.909090909090917L125.00000000000001,49.09090909090909L208.33333333333334,61.090909090909086L291.6666666666667,29.454545454545446L375,21.818181818181827L458.3333333333333,125.81818181818183" stroke="#93bcdf" stroke-width="2" stroke-dasharray="8,8"></path></g></g><path class="foreground" aria-hidden="true" d="" display="none"></path></g><g transform="translate(0,0)"><path class="background" aria-hidden="true" d="M0,0h500v200h-500Z"></path><g><g class="mark-line role-mark layer_0_marks" role="graphics-object" aria-roledescription="line mark container"><path aria-label="Year: 1809; quae Southeast: 26; invoice: candela" role="graphics-symbol" aria-roledescription="line mark" d="M41.666666666666686,190.54545454545456L125.00000000000001,23.272727272727266L208.33333333333334,0L291.6666666666667,94.54545454545456L375,113.0909090909091L458.3333333333333,169.45454545454547" stroke="#a8ad2a" stroke-width="2" stroke-dasharray="8,8"></path></g></g><path class="foreground" aria-hidden="true" d="" display="none"></path></g></g><g class="mark-symbol role-mark layer_1_marks" role="graphics-object" aria-roledescription="symbol mark container"><path aria-label="Year: 1809; quae Southeast: 509; invoice: SSL Road" role="graphics-symbol" aria-roledescription="point" transform="translate(41.666666666666686,14.909090909090917)" d="M2.7386127875258306,0A2.7386127875258306,2.7386127875258306,0,1,1,-2.7386127875258306,0A2.7386127875258306,2.7386127875258306,0,1,1,2.7386127875258306,0" fill="#fff" stroke="#93bcdf" stroke-width="3" opacity="1"></path><path aria-label="Year: 1811; quae Southeast: 415; invoice: SSL Road" role="graphics-symbol" aria-roledescription="point" transform="translate(125.00000000000001,49.09090909090909)" d="M2.7386127875258306,0A2.7386127875258306,2.7386127875258306,0,1,1,-2.7386127875258306,0A2.7386127875258306,2.7386127875258306,0,1,1,2.7386127875258306,0" fill="#fff" stroke="#93bcdf" stroke-width="3" opacity="1"></path><path aria-label="Year: 1813; quae Southeast: 382; invoice: SSL Road" role="graphics-symbol" aria-roledescription="point" transform="translate(208.33333333333334,61.090909090909086)" d="M2.7386127875258306,0A2.7386127875258306,2.7386127875258306,0,1,1,-2.7386127875258306,0A2.7386127875258306,2.7386127875258306,0,1,1,2.7386127875258306,0" fill="#fff" stroke="#93bcdf" stroke-width="3" opacity="1"></path><path aria-label="Year: 1815; quae Southeast: 469; invoice: SSL Road" role="graphics-symbol" aria-roledescription="point" transform="translate(291.6666666666667,29.454545454545446)" d="M2.7386127875258306,0A2.7386127875258306,2.7386127875258306,0,1,1,-2.7386127875258306,0A2.7386127875258306,2.7386127875258306,0,1,1,2.7386127875258306,0" fill="#fff" stroke="#93bcdf" stroke-width="3" opacity="1"></path><path aria-label="Year: 1817; quae Southeast: 490; invoice: SSL Road" role="graphics-symbol" aria-roledescription="point" transform="translate(375,21.818181818181827)" d="M2.7386127875258306,0A2.7386127875258306,2.7386127875258306,0,1,1,-2.7386127875258306,0A2.7386127875258306,2.7386127875258306,0,1,1,2.7386127875258306,0" fill="#fff" stroke="#93bcdf" stroke-width="3" opacity="1"></path><path aria-label="Year: 1819; quae Southeast: 204; invoice: SSL Road" role="graphics-symbol" aria-roledescription="point" transform="translate(458.3333333333333,125.81818181818183)" d="M2.7386127875258306,0A2.7386127875258306,2.7386127875258306,0,1,1,-2.7386127875258306,0A2.7386127875258306,2.7386127875258306,0,1,1,2.7386127875258306,0" fill="#fff" stroke="#93bcdf" stroke-width="3" opacity="1"></path><path aria-label="Year: 1809; quae Southeast: 26; invoice: candela" role="graphics-symbol" aria-roledescription="point" transform="translate(41.666666666666686,190.54545454545456)" d="M2.7386127875258306,0A2.7386127875258306,2.7386127875258306,0,1,1,-2.7386127875258306,0A2.7386127875258306,2.7386127875258306,0,1,1,2.7386127875258306,0" fill="#fff" stroke="#a8ad2a" stroke-width="3" opacity="1"></path><path aria-label="Year: 1811; quae Southeast: 486; invoice: candela" role="graphics-symbol" aria-roledescription="point" transform="translate(125.00000000000001,23.272727272727266)" d="M2.7386127875258306,0A2.7386127875258306,2.7386127875258306,0,1,1,-2.7386127875258306,0A2.7386127875258306,2.7386127875258306,0,1,1,2.7386127875258306,0" fill="#fff" stroke="#a8ad2a" stroke-width="3" opacity="1"></path><path aria-label="Year: 1813; quae Southeast: 550; invoice: candela" role="graphics-symbol" aria-roledescription="point" transform="translate(208.33333333333334,0)" d="M2.7386127875258306,0A2.7386127875258306,2.7386127875258306,0,1,1,-2.7386127875258306,0A2.7386127875258306,2.7386127875258306,0,1,1,2.7386127875258306,0" fill="#fff" stroke="#a8ad2a" stroke-width="3" opacity="1"></path><path aria-label="Year: 1815; quae Southeast: 290; invoice: candela" role="graphics-symbol" aria-roledescription="point" transform="translate(291.6666666666667,94.54545454545456)" d="M2.7386127875258306,0A2.7386127875258306,2.7386127875258306,0,1,1,-2.7386127875258306,0A2.7386127875258306,2.7386127875258306,0,1,1,2.7386127875258306,0" fill="#fff" stroke="#a8ad2a" stroke-width="3" opacity="1"></path><path aria-label="Year: 1817; quae Southeast: 239; invoice: candela" role="graphics-symbol" aria-roledescription="point" transform="translate(375,113.0909090909091)" d="M2.7386127875258306,0A2.7386127875258306,2.7386127875258306,0,1,1,-2.7386127875258306,0A2.7386127875258306,2.7386127875258306,0,1,1,2.7386127875258306,0" fill="#fff" stroke="#a8ad2a" stroke-width="3" opacity="1"></path><path aria-label="Year: 1819; quae Southeast: 84; invoice: candela" role="graphics-symbol" aria-roledescription="point" transform="translate(458.3333333333333,169.45454545454547)" d="M2.7386127875258306,0A2.7386127875258306,2.7386127875258306,0,1,1,-2.7386127875258306,0A2.7386127875258306,2.7386127875258306,0,1,1,2.7386127875258306,0" fill="#fff" stroke="#a8ad2a" stroke-width="3" opacity="1"></path></g><g class="mark-group role-legend" role="graphics-symbol" aria-roledescription="legend" aria-label="Symbol legend titled 'invoice' for stroke color with 2 values: SSL Road, candela"><g transform="translate(-101,0)"><path class="background" aria-hidden="true" d="M0,0h62v45h-62Z" pointer-events="none"></path><g><g class="mark-group role-legend-entry"><g transform="translate(0,16)"><path class="background" aria-hidden="true" d="M0,0h0v0h0Z" pointer-events="none"></path><g><g class="mark-group role-scope" role="graphics-object" aria-roledescription="group mark container"><g transform="translate(0,0)"><path class="background" aria-hidden="true" d="M0,0h61.5859375v12.5h-61.5859375Z" pointer-events="none" opacity="1"></path><g><g class="mark-symbol role-legend-symbol" pointer-events="none"><path transform="translate(6,6)" d="M5,0A5,5,0,1,1,-5,0A5,5,0,1,1,5,0" fill="#fff" stroke="#93bcdf" stroke-width="1.5" opacity="1"></path></g><g class="mark-text role-legend-label" pointer-events="none"><text text-anchor="start" transform="translate(16,9)" font-family="sans-serif" font-size="10px" fill="#000" opacity="1">SSL Road</text></g></g><path class="foreground" aria-hidden="true" d="" pointer-events="none" display="none"></path></g><g transform="translate(0,16)"><path class="background" aria-hidden="true" d="M0,0h61.5859375v12.5h-61.5859375Z" pointer-events="none" opacity="1"></path><g><g class="mark-symbol role-legend-symbol" pointer-events="none"><path transform="translate(6,6)" d="M5,0A5,5,0,1,1,-5,0A5,5,0,1,1,5,0" fill="#fff" stroke="#a8ad2a" stroke-width="1.5" opacity="1"></path></g><g class="mark-text role-legend-label" pointer-events="none"><text text-anchor="start" transform="translate(16,9)" font-family="sans-serif" font-size="10px" fill="#000" opacity="1">candela</text></g></g><path class="foreground" aria-hidden="true" d="" pointer-events="none" display="none"></path></g></g></g><path class="foreground" aria-hidden="true" d="" pointer-events="none" display="none"></path></g></g><g class="mark-text role-legend-title" pointer-events="none"><text text-anchor="start" transform="translate(0,9)" font-family="sans-serif" font-size="11px" font-weight="bold" fill="#000" opacity="1">invoice</text></g></g><path class="foreground" aria-hidden="true" d="" pointer-events="none" display="none"></path></g></g><g class="mark-group role-title"><g transform="translate(500,-34.73861278752583)"><path class="background" aria-hidden="true" d="M0,0h0v0h0Z" pointer-events="none"></path><g><g class="mark-text role-title-text" role="graphics-symbol" aria-roledescription="title" aria-label="Title text 'resist male'" pointer-events="none"><text text-anchor="end" transform="translate(0,20)" font-family="sans-serif" font-size="25px" font-weight="bold" fill="#000" opacity="1">resist male</text></g></g><path class="foreground" aria-hidden="true" d="" pointer-events="none" display="none"></path></g></g></g><path class="foreground" aria-hidden="true" d="" display="none"></path></g></g></g></svg>