<svg xmlns="http://www.w3.org/2000/svg" xmlns:xlink="http://www.w3.org/1999/xlink" version="1.1" class="marks" width="535" height="321" viewBox="0 0 535 321" style="background-color: rgb(51, 51, 51);"><g fill="none" stroke-miterlimit="10" transform="translate(26,81)"><g class="mark-group role-frame root" role="graphics-object" aria-roledescription="group mark container"><g transform="translate(0,0)"><path class="background" aria-hidden="true" d="M0.5,0.5h504v200h-504Z" fill="transparent" stroke="#ddd"></path><g><g class="mark-group role-axis" aria-hidden="true"><g transform="translate(0.5,0.5)"><path class="background" aria-hidden="true" d="M0,0h0v0h0Z" pointer-events="none"></path><g><g class="mark-rule role-axis-grid" pointer-events="none"><line transform="translate(0,200)" x2="504" y2="0" stroke="#747474" stroke-width="1" stroke-dasharray="4, 2" opacity="1"></line><line transform="translate(0,158)" x2="504" y2="0" stroke="#747474" stroke-width="1" stroke-dasharray="4, 2" opacity="1"></line><line transform="translate(0,117)" x2="504" y2="0" stroke="#747474" stroke-width="1" stroke-dasharray="4, 2" opacity="1"></line><line transform="translate(0,75)" x2="504" y2="0" stroke="#747474" stroke-width="1" stroke-dasharray="4, 2" opacity="1"></line><line transform="translate(0,33)" x2="504" y2="0" stroke="#747474" stroke-width="1" stroke-dasharray="4, 2" opacity="1"></line></g></g><path class="foreground" aria-hidden="true" d="" pointer-events="none" display="none"></path></g></g><g class="mark-group role-axis" role="graphics-symbol" aria-roledescription="axis" aria-label="X-axis for a discrete scale with 5 values: Jan, Feb, Mar, Apr, May"><g transform="translate(0.5,200.5)"><path class="background" aria-hidden="true" d="M0,0h0v0h0Z" pointer-events="none"></path><g><g class="mark-rule role-axis-tick" pointer-events="none"><line transform="translate(50,0)" x2="0" y2="5" stroke="#888" stroke-width="1" opacity="1"></line><line transform="translate(151,0)" x2="0" y2="5" stroke="#888" stroke-width="1" opacity="1"></line><line transform="translate(252,0)" x2="0" y2="5" stroke="#888" stroke-width="1" opacity="1"></line><line transform="translate(353,0)" x2="0" y2="5" stroke="#888" stroke-width="1" opacity="1"></line><line transform="translate(454,0)" x2="0" y2="5" stroke="#888" stroke-width="1" opacity="1"></line></g><g class="mark-text role-axis-label" pointer-events="none"><text text-anchor="start" transform="translate(50.400000000000006,7) rotate(90) translate(0,4)" font-family="avenir" font-size="14px" font-weight="bold" fill="#fff" opacity="1">Jan</text><text text-anchor="start" transform="translate(151.2,7) rotate(90) translate(0,4)" font-family="avenir" font-size="14px" font-weight="bold" fill="#fff" opacity="1">Feb</text><text text-anchor="start" transform="translate(252,7) rotate(90) translate(0,4)" font-family="avenir" font-size="14px" font-weight="bold" fill="#fff" opacity="1">Mar</text><text text-anchor="start" transform="translate(352.79999999999995,7) rotate(90) translate(0,4)" font-family="avenir" font-size="14px" font-weight="bold" fill="#fff" opacity="1">Apr</text><text text-anchor="start" transform="translate(453.6,7) rotate(90) translate(0,4)" font-family="avenir" font-size="14px" font-weight="bold" fill="#fff" opacity="1">May</text></g><g class="mark-rule role-axis-domain" pointer-events="none"><line transform="translate(0,0)" x2="504" y2="0" stroke="#888" stroke-width="1" opacity="1"></line></g></g><path class="foreground" aria-hidden="true" d="" pointer-events="none" display="none"></path></g></g><g class="mark-group role-axis" role="graphics-symbol" aria-roledescription="axis" aria-label="Y-axis for a linear scale with values from 0 to 240"><g transform="translate(0.5,0.5)"><path class="background" aria-hidden="true" d="M0,0h0v0h0Z" pointer-events="none"></path><g><g class="mark-rule role-axis-tick" pointer-events="none"><line transform="translate(0,200)" x2="-5" y2="0" stroke="#888" stroke-width="1" opacity="1"></line><line transform="translate(0,158)" x2="-5" y2="0" stroke="#888" stroke-width="1" opacity="1"></line><line transform="translate(0,117)" x2="-5" y2="0" stroke="#888" stroke-width="1" opacity="1"></line><line transform="translate(0,75)" x2="-5" y2="0" stroke="#888" stroke-width="1" opacity="1"></line><line transform="translate(0,33)" x2="-5" y2="0" stroke="#888" stroke-width="1" opacity="1"></line></g><g class="mark-text role-axis-label" pointer-events="none"><text text-anchor="middle" transform="translate(-7,200) rotate(90) translate(0,11)" font-family="avenir" font-size="14px" font-weight="bold" fill="#fff" opacity="1">0</text><text text-anchor="middle" transform="translate(-7,158.33333333333331) rotate(90) translate(0,11)" font-family="avenir" font-size="14px" font-weight="bold" fill="#fff" opacity="1">50</text><text text-anchor="middle" transform="translate(-7,116.66666666666666) rotate(90) translate(0,11)" font-family="avenir" font-size="14px" font-weight="bold" fill="#fff" opacity="1">100</text><text text-anchor="middle" transform="translate(-7,75) rotate(90) translate(0,11)" font-family="avenir" font-size="14px" font-weight="bold" fill="#fff" opacity="1">150</text><text text-anchor="middle" transform="translate(-7,33.33333333333333) rotate(90) translate(0,11)" font-family="avenir" font-size="14px" font-weight="bold" fill="#fff" opacity="1">200</text></g></g><path class="foreground" aria-hidden="true" d="" pointer-events="none" display="none"></path></g></g><g class="mark-group role-scope layer_0_pathgroup" role="graphics-object" aria-roledescription="group mark container"><g transform="translate(0,0)"><path class="background" aria-hidden="true" d="M0,0h504v200h-504Z"></path><g><g class="mark-line role-mark layer_0_marks" role="graphics-object" aria-roledescription="line mark container"><path aria-label="Month: Jan; against insurgence: 216; generating Benin: navigate" role="graphics-symbol" aria-roledescription="line mark" d="M50.400000000000006,19.999999999999996L151.2,18.333333333333336L252,120.83333333333334L352.79999999999995,109.16666666666669L453.6,195.83333333333331" stroke="#ebcfa4" stroke-width="2" stroke-dasharray="1,0"></path></g></g><path class="foreground" aria-hidden="true" d="" display="none"></path></g><g transform="translate(0,0)"><path class="background" aria-hidden="true" d="M0,0h504v200h-504Z"></path><g><g class="mark-line role-mark layer_0_marks" role="graphics-object" aria-roledescription="line mark container"><path aria-label="Month: Jan; against insurgence: 225; generating Benin: transitional" role="graphics-symbol" aria-roledescription="line mark" d="M50.400000000000006,12.5L151.2,25.83333333333333L252,22.500000000000007L352.79999999999995,112.5L453.6,176.66666666666666" stroke="#d3d9db" stroke-width="2" stroke-dasharray="1,0"></path></g></g><path class="foreground" aria-hidden="true" d="" display="none"></path></g></g><g class="mark-symbol role-mark layer_1_marks" role="graphics-object" aria-roledescription="symbol mark container"><path aria-label="Month: Jan; against insurgence: 216; generating Benin: navigate" role="graphics-symbol" aria-roledescription="point" transform="translate(50.400000000000006,19.999999999999996)" d="M2.7386127875258306,0A2.7386127875258306,2.7386127875258306,0,1,1,-2.7386127875258306,0A2.7386127875258306,2.7386127875258306,0,1,1,2.7386127875258306,0" fill="#333333" stroke="#ebcfa4" stroke-width="4" opacity="1"></path><path aria-label="Month: Feb; against insurgence: 218; generating Benin: navigate" role="graphics-symbol" aria-roledescription="point" transform="translate(151.2,18.333333333333336)" d="M2.7386127875258306,0A2.7386127875258306,2.7386127875258306,0,1,1,-2.7386127875258306,0A2.7386127875258306,2.7386127875258306,0,1,1,2.7386127875258306,0" fill="#333333" stroke="#ebcfa4" stroke-width="4" opacity="1"></path><path aria-label="Month: Mar; against insurgence: 95; generating Benin: navigate" role="graphics-symbol" aria-roledescription="point" transform="translate(252,120.83333333333334)" d="M2.7386127875258306,0A2.7386127875258306,2.7386127875258306,0,1,1,-2.7386127875258306,0A2.7386127875258306,2.7386127875258306,0,1,1,2.7386127875258306,0" fill="#333333" stroke="#ebcfa4" stroke-width="4" opacity="1"></path><path aria-label="Month: Apr; against insurgence: 109; generating Benin: navigate" role="graphics-symbol" aria-roledescription="point" transform="translate(352.79999999999995,109.16666666666669)" d="M2.7386127875258306,0A2.7386127875258306,2.7386127875258306,0,1,1,-2.7386127875258306,0A2.7386127875258306,2.7386127875258306,0,1,1,2.7386127875258306,0" fill="#333333" stroke="#ebcfa4" stroke-width="4" opacity="1"></path><path aria-label="Month: May; against insurgence: 5; generating Benin: navigate" role="graphics-symbol" aria-roledescription="point" transform="translate(453.6,195.83333333333331)" d="M2.7386127875258306,0A2.7386127875258306,2.7386127875258306,0,1,1,-2.7386127875258306,0A2.7386127875258306,2.7386127875258306,0,1,1,2.7386127875258306,0" fill="#333333" stroke="#ebcfa4" stroke-width="4" opacity="1"></path><path aria-label="Month: Jan; against insurgence: 225; generating Benin: transitional" role="graphics-symbol" aria-roledescription="point" transform="translate(50.400000000000006,12.5)" d="M2.7386127875258306,0A2.7386127875258306,2.7386127875258306,0,1,1,-2.7386127875258306,0A2.7386127875258306,2.7386127875258306,0,1,1,2.7386127875258306,0" fill="#333333" stroke="#d3d9db" stroke-width="4" opacity="1"></path><path aria-label="Month: Feb; against insurgence: 209; generating Benin: transitional" role="graphics-symbol" aria-roledescription="point" transform="translate(151.2,25.83333333333333)" d="M2.7386127875258306,0A2.7386127875258306,2.7386127875258306,0,1,1,-2.7386127875258306,0A2.7386127875258306,2.7386127875258306,0,1,1,2.7386127875258306,0" fill="#333333" stroke="#d3d9db" stroke-width="4" opacity="1"></path><path aria-label="Month: Mar; against insurgence: 213; generating Benin: transitional" role="graphics-symbol" aria-roledescription="point" transform="translate(252,22.500000000000007)" d="M2.7386127875258306,0A2.7386127875258306,2.7386127875258306,0,1,1,-2.7386127875258306,0A2.7386127875258306,2.7386127875258306,0,1,1,2.7386127875258306,0" fill="#333333" stroke="#d3d9db" stroke-width="4" opacity="1"></path><path aria-label="Month: Apr; against insurgence: 105; generating Benin: transitional" role="graphics-symbol" aria-roledescription="point" transform="translate(352.79999999999995,112.5)" d="M2.7386127875258306,0A2.7386127875258306,2.7386127875258306,0,1,1,-2.7386127875258306,0A2.7386127875258306,2.7386127875258306,0,1,1,2.7386127875258306,0" fill="#333333" stroke="#d3d9db" stroke-width="4" opacity="1"></path><path aria-label="Month: May; against insurgence: 28; generating Benin: transitional" role="graphics-symbol" aria-roledescription="point" transform="translate(453.6,176.66666666666666)" d="M2.7386127875258306,0A2.7386127875258306,2.7386127875258306,0,1,1,-2.7386127875258306,0A2.7386127875258306,2.7386127875258306,0,1,1,2.7386127875258306,0" fill="#333333" stroke="#d3d9db" stroke-width="4" opacity="1"></path></g><g class="mark-text role-mark layer_2_marks" role="graphics-object" aria-roledescription="text mark container"><text aria-label="Month: Jan; against insurgence: 216" role="graphics-symbol" aria-roledescription="text mark" text-anchor="middle" transform="translate(50.400000000000006,-3.552713678800501e-15)" font-family="avenir" font-size="15px" fill="#fff" opacity="1">216</text><text aria-label="Month: Feb; against insurgence: 218" role="graphics-symbol" aria-roledescription="text mark" text-anchor="middle" transform="translate(151.2,-1.6666666666666643)" font-family="avenir" font-size="15px" fill="#fff" opacity="1">218</text><text aria-label="Month: Mar; against insurgence: 95" role="graphics-symbol" aria-roledescription="text mark" text-anchor="middle" transform="translate(252,100.83333333333334)" font-family="avenir" font-size="15px" fill="#fff" opacity="1">95</text><text aria-label="Month: Apr; against insurgence: 109" role="graphics-symbol" aria-roledescription="text mark" text-anchor="middle" transform="translate(352.79999999999995,89.16666666666669)" font-family="avenir" font-size="15px" fill="#fff" opacity="1">109</text><text aria-label="Month: May; against insurgence: 5" role="graphics-symbol" aria-roledescription="text mark" text-anchor="middle" transform="translate(453.6,175.83333333333331)" font-family="avenir" font-size="15px" fill="#fff" opacity="1">5</text><text aria-label="Month: Jan; against insurgence: 225" role="graphics-symbol" aria-roledescription="text mark" text-anchor="middle" transform="translate(50.400000000000006,-7.5)" font-family="avenir" font-size="15px" fill="#fff" opacity="1">225</text><text aria-label="Month: Feb; against insurgence: 209" role="graphics-symbol" aria-roledescription="text mark" text-anchor="middle" transform="translate(151.2,5.833333333333329)" font-family="avenir" font-size="15px" fill="#fff" opacity="1">209</text><text aria-label="Month: Mar; against insurgence: 213" role="graphics-symbol" aria-roledescription="text mark" text-anchor="middle" transform="translate(252,2.500000000000007)" font-family="avenir" font-size="15px" fill="#fff" opacity="1">213</text><text aria-label="Month: Apr; against insurgence: 105" role="graphics-symbol" aria-roledescription="text mark" text-anchor="middle" transform="translate(352.79999999999995,92.5)" font-family="avenir" font-size="15px" fill="#fff" opacity="1">105</text><text aria-label="Month: May; against insurgence: 28" role="graphics-symbol" aria-roledescription="text mark" text-anchor="middle" transform="translate(453.6,156.66666666666666)" font-family="avenir" font-size="15px" fill="#fff" opacity="1">28</text></g><g class="mark-group role-legend" role="graphics-symbol" aria-roledescription="legend" aria-label="Symbol legend titled 'generating Benin' for stroke color with 2 values: navigate, transitional"><g transform="translate(0,-47)"><path class="background" aria-hidden="true" d="M0,0h122v29h-122Z" pointer-events="none"></path><g><g class="mark-group role-legend-entry"><g transform="translate(0,16)"><path class="background" aria-hidden="true" d="M0,0h0v0h0Z" pointer-events="none"></path><g><g class="mark-group role-scope" role="graphics-object" aria-roledescription="group mark container"><g transform="translate(0,0.25)"><path class="background" aria-hidden="true" d="M0,0h49.8720703125v12.5h-49.8720703125Z" pointer-events="none" opacity="1"></path><g><g class="mark-symbol role-legend-symbol" pointer-events="none"><path transform="translate(6,6)" d="M5,0A5,5,0,1,1,-5,0A5,5,0,1,1,5,0" fill="#333333" stroke="#ebcfa4" stroke-width="1.5" opacity="1"></path></g><g class="mark-text role-legend-label" pointer-events="none"><text text-anchor="start" transform="translate(16,9)" font-family="avenir" font-size="10px" fill="#fff" opacity="1">navigate</text></g></g><path class="foreground" aria-hidden="true" d="" pointer-events="none" display="none"></path></g><g transform="translate(61,0.25)"><path class="background" aria-hidden="true" d="M0,0h60.990234375v12.5h-60.990234375Z" pointer-events="none" opacity="1"></path><g><g class="mark-symbol role-legend-symbol" pointer-events="none"><path transform="translate(6,6)" d="M5,0A5,5,0,1,1,-5,0A5,5,0,1,1,5,0" fill="#333333" stroke="#d3d9db" stroke-width="1.5" opacity="1"></path></g><g class="mark-text role-legend-label" pointer-events="none"><text text-anchor="start" transform="translate(16,9)" font-family="avenir" font-size="10px" fill="#fff" opacity="1">transitional</text></g></g><path class="foreground" aria-hidden="true" d="" pointer-events="none" display="none"></path></g></g></g><path class="foreground" aria-hidden="true" d="" pointer-events="none" display="none"></path></g></g><g class="mark-text role-legend-title" pointer-events="none"><text text-anchor="start" transform="translate(0,9)" font-family="avenir" font-size="11px" font-weight="bold" fill="#fff" opacity="1">generating Benin</text></g></g><path class="foreground" aria-hidden="true" d="" pointer-events="none" display="none"></path></g></g><g class="mark-group role-title"><g transform="translate(-21,-76)"><path class="background" aria-hidden="true" d="M0,0h0v0h0Z" pointer-events="none"></path><g><g class="mark-text role-title-text" role="graphics-symbol" aria-roledescription="title" aria-label="Title text 'and Supervisor index'" pointer-events="none"><text text-anchor="start" transform="translate(0,20)" font-family="avenir" font-size="25px" font-weight="bold" fill="#fff" opacity="1">and Supervisor index</text></g></g><path class="foreground" aria-hidden="true" d="" pointer-events="none" display="none"></path></g></g></g><path class="foreground" aria-hidden="true" d="" display="none"></path></g></g></g></svg>