<svg xmlns="http://www.w3.org/2000/svg" xmlns:xlink="http://www.w3.org/1999/xlink" version="1.1" class="marks" width="687" height="257" viewBox="0 0 687 257" style="background-color: rgb(255, 255, 255);"><g fill="none" stroke-miterlimit="10" transform="translate(31,34)"><g class="mark-group role-frame root" role="graphics-object" aria-roledescription="group mark container"><g transform="translate(0,0)"><path class="background" aria-hidden="true" d="M0.5,0.5h651v200h-651Z" fill="transparent" stroke="#ddd"></path><g><g class="mark-group role-axis" aria-hidden="true"><g transform="translate(0.5,0.5)"><path class="background" aria-hidden="true" d="M0,0h0v0h0Z" pointer-events="none"></path><g><g class="mark-rule role-axis-grid" pointer-events="none"><line transform="translate(0,200)" x2="651" y2="0" stroke="#D0D0D0" stroke-width="1" stroke-dasharray="1,0" opacity="1"></line><line transform="translate(0,162)" x2="651" y2="0" stroke="#D0D0D0" stroke-width="1" stroke-dasharray="1,0" opacity="1"></line><line transform="translate(0,123)" x2="651" y2="0" stroke="#D0D0D0" stroke-width="1" stroke-dasharray="1,0" opacity="1"></line><line transform="translate(0,85)" x2="651" y2="0" stroke="#D0D0D0" stroke-width="1" stroke-dasharray="1,0" opacity="1"></line><line transform="translate(0,46)" x2="651" y2="0" stroke="#D0D0D0" stroke-width="1" stroke-dasharray="1,0" opacity="1"></line><line transform="translate(0,8)" x2="651" y2="0" stroke="#D0D0D0" stroke-width="1" stroke-dasharray="1,0" opacity="1"></line></g></g><path class="foreground" aria-hidden="true" d="" pointer-events="none" display="none"></path></g></g><g class="mark-group role-axis" role="graphics-symbol" aria-roledescription="axis" aria-label="X-axis for a discrete scale with 7 values: Jan, Feb, Mar, Apr, May, June, July"><g transform="translate(0.5,200.5)"><path class="background" aria-hidden="true" d="M0,0h0v0h0Z" pointer-events="none"></path><g><g class="mark-rule role-axis-tick" pointer-events="none"><line transform="translate(47,0)" x2="0" y2="5" stroke="#888" stroke-width="1" opacity="1"></line><line transform="translate(140,0)" x2="0" y2="5" stroke="#888" stroke-width="1" opacity="1"></line><line transform="translate(233,0)" x2="0" y2="5" stroke="#888" stroke-width="1" opacity="1"></line><line transform="translate(326,0)" x2="0" y2="5" stroke="#888" stroke-width="1" opacity="1"></line><line transform="translate(419,0)" x2="0" y2="5" stroke="#888" stroke-width="1" opacity="1"></line><line transform="translate(512,0)" x2="0" y2="5" stroke="#888" stroke-width="1" opacity="1"></line><line transform="translate(605,0)" x2="0" y2="5" stroke="#888" stroke-width="1" opacity="1"></line></g><g class="mark-text role-axis-label" pointer-events="none"><text text-anchor="middle" transform="translate(46.5,16)" font-family="sans-serif" font-size="11px" font-weight="normal" fill="#000" opacity="1">Jan</text><text text-anchor="middle" transform="translate(139.5,16)" font-family="sans-serif" font-size="11px" font-weight="normal" fill="#000" opacity="1">Feb</text><text text-anchor="middle" transform="translate(232.5,16)" font-family="sans-serif" font-size="11px" font-weight="normal" fill="#000" opacity="1">Mar</text><text text-anchor="middle" transform="translate(325.5,16)" font-family="sans-serif" font-size="11px" font-weight="normal" fill="#000" opacity="1">Apr</text><text text-anchor="middle" transform="translate(418.5,16)" font-family="sans-serif" font-size="11px" font-weight="normal" fill="#000" opacity="1">May</text><text text-anchor="middle" transform="translate(511.5,16)" font-family="sans-serif" font-size="11px" font-weight="normal" fill="#000" opacity="1">June</text><text text-anchor="middle" transform="translate(604.5,16)" font-family="sans-serif" font-size="11px" font-weight="normal" fill="#000" opacity="1">July</text></g><g class="mark-rule role-axis-domain" pointer-events="none"><line transform="translate(0,0)" x2="651" y2="0" stroke="#888" stroke-width="1" opacity="1"></line></g></g><path class="foreground" aria-hidden="true" d="" pointer-events="none" display="none"></path></g></g><g class="mark-group role-axis" role="graphics-symbol" aria-roledescription="axis" aria-label="Y-axis for a linear scale with values from 0 to 260"><g transform="translate(0.5,0.5)"><path class="background" aria-hidden="true" d="M0,0h0v0h0Z" pointer-events="none"></path><g><g class="mark-rule role-axis-tick" pointer-events="none"><line transform="translate(0,200)" x2="-5" y2="0" stroke="#888" stroke-width="1" opacity="1"></line><line transform="translate(0,162)" x2="-5" y2="0" stroke="#888" stroke-width="1" opacity="1"></line><line transform="translate(0,123)" x2="-5" y2="0" stroke="#888" stroke-width="1" opacity="1"></line><line transform="translate(0,85)" x2="-5" y2="0" stroke="#888" stroke-width="1" opacity="1"></line><line transform="translate(0,46)" x2="-5" y2="0" stroke="#888" stroke-width="1" opacity="1"></line><line transform="translate(0,8)" x2="-5" y2="0" stroke="#888" stroke-width="1" opacity="1"></line></g><g class="mark-text role-axis-label" pointer-events="none"><text text-anchor="end" transform="translate(-7,203)" font-family="sans-serif" font-size="11px" font-weight="normal" fill="#000" opacity="1">0</text><text text-anchor="end" transform="translate(-7,164.53846153846155)" font-family="sans-serif" font-size="11px" font-weight="normal" fill="#000" opacity="1">50</text><text text-anchor="end" transform="translate(-7,126.07692307692308)" font-family="sans-serif" font-size="11px" font-weight="normal" fill="#000" opacity="1">100</text><text text-anchor="end" transform="translate(-7,87.61538461538463)" font-family="sans-serif" font-size="11px" font-weight="normal" fill="#000" opacity="1">150</text><text text-anchor="end" transform="translate(-7,49.153846153846146)" font-family="sans-serif" font-size="11px" font-weight="normal" fill="#000" opacity="1">200</text><text text-anchor="end" transform="translate(-7,10.692307692307686)" font-family="sans-serif" font-size="11px" font-weight="normal" fill="#000" opacity="1">250</text></g></g><path class="foreground" aria-hidden="true" d="" pointer-events="none" display="none"></path></g></g><g class="mark-group role-scope layer_0_pathgroup" role="graphics-object" aria-roledescription="group mark container"><g transform="translate(0,0)"><path class="background" aria-hidden="true" d="M0,0h651v200h-651Z"></path><g><g class="mark-line role-mark layer_0_marks" role="graphics-object" aria-roledescription="line mark container"><path aria-label="Month: Jan; rudely: 169; recap Northeast: gargle" role="graphics-symbol" aria-roledescription="line mark" d="M46.5,70L139.5,78.46153846153847L232.5,55.38461538461539L325.5,176.15384615384616L418.5,9.23076923076922L511.5,198.46153846153845L604.5,76.15384615384615" stroke="#086a7a" stroke-width="2" stroke-dasharray="8,4"></path></g></g><path class="foreground" aria-hidden="true" d="" display="none"></path></g></g><g class="mark-symbol role-mark layer_1_marks" role="graphics-object" aria-roledescription="symbol mark container"><path aria-label="Month: Jan; rudely: 169; recap Northeast: gargle" role="graphics-symbol" aria-roledescription="point" transform="translate(46.5,70)" d="M2.7386127875258306,0A2.7386127875258306,2.7386127875258306,0,1,1,-2.7386127875258306,0A2.7386127875258306,2.7386127875258306,0,1,1,2.7386127875258306,0" fill="#fff" stroke="#086a7a" stroke-width="4" opacity="1"></path><path aria-label="Month: Feb; rudely: 158; recap Northeast: gargle" role="graphics-symbol" aria-roledescription="point" transform="translate(139.5,78.46153846153847)" d="M2.7386127875258306,0A2.7386127875258306,2.7386127875258306,0,1,1,-2.7386127875258306,0A2.7386127875258306,2.7386127875258306,0,1,1,2.7386127875258306,0" fill="#fff" stroke="#086a7a" stroke-width="4" opacity="1"></path><path aria-label="Month: Mar; rudely: 188; recap Northeast: gargle" role="graphics-symbol" aria-roledescription="point" transform="translate(232.5,55.38461538461539)" d="M2.7386127875258306,0A2.7386127875258306,2.7386127875258306,0,1,1,-2.7386127875258306,0A2.7386127875258306,2.7386127875258306,0,1,1,2.7386127875258306,0" fill="#fff" stroke="#086a7a" stroke-width="4" opacity="1"></path><path aria-label="Month: Apr; rudely: 31; recap Northeast: gargle" role="graphics-symbol" aria-roledescription="point" transform="translate(325.5,176.15384615384616)" d="M2.7386127875258306,0A2.7386127875258306,2.7386127875258306,0,1,1,-2.7386127875258306,0A2.7386127875258306,2.7386127875258306,0,1,1,2.7386127875258306,0" fill="#fff" stroke="#086a7a" stroke-width="4" opacity="1"></path><path aria-label="Month: May; rudely: 248; recap Northeast: gargle" role="graphics-symbol" aria-roledescription="point" transform="translate(418.5,9.23076923076922)" d="M2.7386127875258306,0A2.7386127875258306,2.7386127875258306,0,1,1,-2.7386127875258306,0A2.7386127875258306,2.7386127875258306,0,1,1,2.7386127875258306,0" fill="#fff" stroke="#086a7a" stroke-width="4" opacity="1"></path><path aria-label="Month: June; rudely: 2; recap Northeast: gargle" role="graphics-symbol" aria-roledescription="point" transform="translate(511.5,198.46153846153845)" d="M2.7386127875258306,0A2.7386127875258306,2.7386127875258306,0,1,1,-2.7386127875258306,0A2.7386127875258306,2.7386127875258306,0,1,1,2.7386127875258306,0" fill="#fff" stroke="#086a7a" stroke-width="4" opacity="1"></path><path aria-label="Month: July; rudely: 161; recap Northeast: gargle" role="graphics-symbol" aria-roledescription="point" transform="translate(604.5,76.15384615384615)" d="M2.7386127875258306,0A2.7386127875258306,2.7386127875258306,0,1,1,-2.7386127875258306,0A2.7386127875258306,2.7386127875258306,0,1,1,2.7386127875258306,0" fill="#fff" stroke="#086a7a" stroke-width="4" opacity="1"></path></g><g class="mark-group role-title"><g transform="translate(651,-29)"><path class="background" aria-hidden="true" d="M0,0h0v0h0Z" pointer-events="none"></path><g><g class="mark-text role-title-text" role="graphics-symbol" aria-roledescription="title" aria-label="Title text 'Vermont Usability'" pointer-events="none"><text text-anchor="end" transform="translate(0,20)" font-family="sans-serif" font-size="25px" font-weight="bold" fill="#000" opacity="1">Vermont Usability</text></g></g><path class="foreground" aria-hidden="true" d="" pointer-events="none" display="none"></path></g></g></g><path class="foreground" aria-hidden="true" d="" display="none"></path></g></g></g></svg>