<svg xmlns="http://www.w3.org/2000/svg" xmlns:xlink="http://www.w3.org/1999/xlink" version="1.1" class="marks" width="971" height="309" viewBox="0 0 971 309" style="background-color: rgb(255, 255, 255);"><g fill="none" stroke-miterlimit="10" transform="translate(38,81)"><g class="mark-group role-frame root" role="graphics-object" aria-roledescription="group mark container"><g transform="translate(0,0)"><path class="background" aria-hidden="true" d="M0.5,0.5h928v200h-928Z" fill="transparent" stroke="#ddd"></path><g><g class="mark-group role-axis" aria-hidden="true"><g transform="translate(0.5,200.5)"><path class="background" aria-hidden="true" d="M0,0h0v0h0Z" pointer-events="none"></path><g><g class="mark-rule role-axis-grid" pointer-events="none"><line transform="translate(58,-200)" x2="0" y2="200" stroke="#D0D0D0" stroke-width="1" stroke-dasharray="1,0" opacity="1"></line><line transform="translate(174,-200)" x2="0" y2="200" stroke="#D0D0D0" stroke-width="1" stroke-dasharray="1,0" opacity="1"></line><line transform="translate(290,-200)" x2="0" y2="200" stroke="#D0D0D0" stroke-width="1" stroke-dasharray="1,0" opacity="1"></line><line transform="translate(406,-200)" x2="0" y2="200" stroke="#D0D0D0" stroke-width="1" stroke-dasharray="1,0" opacity="1"></line><line transform="translate(522,-200)" x2="0" y2="200" stroke="#D0D0D0" stroke-width="1" stroke-dasharray="1,0" opacity="1"></line><line transform="translate(638,-200)" x2="0" y2="200" stroke="#D0D0D0" stroke-width="1" stroke-dasharray="1,0" opacity="1"></line><line transform="translate(754,-200)" x2="0" y2="200" stroke="#D0D0D0" stroke-width="1" stroke-dasharray="1,0" opacity="1"></line><line transform="translate(870,-200)" x2="0" y2="200" stroke="#D0D0D0" stroke-width="1" stroke-dasharray="1,0" opacity="1"></line></g></g><path class="foreground" aria-hidden="true" d="" pointer-events="none" display="none"></path></g></g><g class="mark-group role-axis" aria-hidden="true"><g transform="translate(0.5,0.5)"><path class="background" aria-hidden="true" d="M0,0h0v0h0Z" pointer-events="none"></path><g><g class="mark-rule role-axis-grid" pointer-events="none"><line transform="translate(0,200)" x2="928" y2="0" stroke="#D0D0D0" stroke-width="1" stroke-dasharray="1,0" opacity="1"></line><line transform="translate(0,150)" x2="928" y2="0" stroke="#D0D0D0" stroke-width="1" stroke-dasharray="1,0" opacity="1"></line><line transform="translate(0,100)" x2="928" y2="0" stroke="#D0D0D0" stroke-width="1" stroke-dasharray="1,0" opacity="1"></line><line transform="translate(0,50)" x2="928" y2="0" stroke="#D0D0D0" stroke-width="1" stroke-dasharray="1,0" opacity="1"></line><line transform="translate(0,0)" x2="928" y2="0" stroke="#D0D0D0" stroke-width="1" stroke-dasharray="1,0" opacity="1"></line></g></g><path class="foreground" aria-hidden="true" d="" pointer-events="none" display="none"></path></g></g><g class="mark-group role-axis" role="graphics-symbol" aria-roledescription="axis" aria-label="X-axis for a discrete scale with 8 values: 1942, 1944, 1946, 1948, 1950, ending with 1956"><g transform="translate(0.5,200.5)"><path class="background" aria-hidden="true" d="M0,0h0v0h0Z" pointer-events="none"></path><g><g class="mark-rule role-axis-tick" pointer-events="none"><line transform="translate(58,0)" x2="0" y2="5" stroke="#888" stroke-width="1" opacity="1"></line><line transform="translate(174,0)" x2="0" y2="5" stroke="#888" stroke-width="1" opacity="1"></line><line transform="translate(290,0)" x2="0" y2="5" stroke="#888" stroke-width="1" opacity="1"></line><line transform="translate(406,0)" x2="0" y2="5" stroke="#888" stroke-width="1" opacity="1"></line><line transform="translate(522,0)" x2="0" y2="5" stroke="#888" stroke-width="1" opacity="1"></line><line transform="translate(638,0)" x2="0" y2="5" stroke="#888" stroke-width="1" opacity="1"></line><line transform="translate(754,0)" x2="0" y2="5" stroke="#888" stroke-width="1" opacity="1"></line><line transform="translate(870,0)" x2="0" y2="5" stroke="#888" stroke-width="1" opacity="1"></line></g><g class="mark-text role-axis-label" pointer-events="none"><text text-anchor="middle" transform="translate(58,20)" font-family="avenir" font-size="17px" font-weight="normal" fill="#000" opacity="1">1942</text><text text-anchor="middle" transform="translate(174,20)" font-family="avenir" font-size="17px" font-weight="normal" fill="#000" opacity="1">1944</text><text text-anchor="middle" transform="translate(290,20)" font-family="avenir" font-size="17px" font-weight="normal" fill="#000" opacity="1">1946</text><text text-anchor="middle" transform="translate(406,20)" font-family="avenir" font-size="17px" font-weight="normal" fill="#000" opacity="1">1948</text><text text-anchor="middle" transform="translate(522,20)" font-family="avenir" font-size="17px" font-weight="normal" fill="#000" opacity="1">1950</text><text text-anchor="middle" transform="translate(638,20)" font-family="avenir" font-size="17px" font-weight="normal" fill="#000" opacity="1">1952</text><text text-anchor="middle" transform="translate(754,20)" font-family="avenir" font-size="17px" font-weight="normal" fill="#000" opacity="1">1954</text><text text-anchor="middle" transform="translate(870,20)" font-family="avenir" font-size="17px" font-weight="normal" fill="#000" opacity="1">1956</text></g><g class="mark-rule role-axis-domain" pointer-events="none"><line transform="translate(0,0)" x2="928" y2="0" stroke="#888" stroke-width="1" opacity="1"></line></g></g><path class="foreground" aria-hidden="true" d="" pointer-events="none" display="none"></path></g></g><g class="mark-group role-axis" role="graphics-symbol" aria-roledescription="axis" aria-label="Y-axis for a linear scale with values from 0 to 200"><g transform="translate(0.5,0.5)"><path class="background" aria-hidden="true" d="M0,0h0v0h0Z" pointer-events="none"></path><g><g class="mark-rule role-axis-tick" pointer-events="none"><line transform="translate(0,200)" x2="-5" y2="0" stroke="#888" stroke-width="1" opacity="1"></line><line transform="translate(0,150)" x2="-5" y2="0" stroke="#888" stroke-width="1" opacity="1"></line><line transform="translate(0,100)" x2="-5" y2="0" stroke="#888" stroke-width="1" opacity="1"></line><line transform="translate(0,50)" x2="-5" y2="0" stroke="#888" stroke-width="1" opacity="1"></line><line transform="translate(0,0)" x2="-5" y2="0" stroke="#888" stroke-width="1" opacity="1"></line></g><g class="mark-text role-axis-label" pointer-events="none"><text text-anchor="end" transform="translate(-7,205)" font-family="avenir" font-size="17px" font-weight="normal" fill="#000" opacity="1">0</text><text text-anchor="end" transform="translate(-7,155)" font-family="avenir" font-size="17px" font-weight="normal" fill="#000" opacity="1">50</text><text text-anchor="end" transform="translate(-7,105)" font-family="avenir" font-size="17px" font-weight="normal" fill="#000" opacity="1">100</text><text text-anchor="end" transform="translate(-7,55)" font-family="avenir" font-size="17px" font-weight="normal" fill="#000" opacity="1">150</text><text text-anchor="end" transform="translate(-7,5)" font-family="avenir" font-size="17px" font-weight="normal" fill="#000" opacity="1">200</text></g></g><path class="foreground" aria-hidden="true" d="" pointer-events="none" display="none"></path></g></g><g class="mark-group role-scope layer_0_pathgroup" role="graphics-object" aria-roledescription="group mark container"><g transform="translate(0,0)"><path class="background" aria-hidden="true" d="M0,0h928v200h-928Z"></path><g><g class="mark-line role-mark layer_0_marks" role="graphics-object" aria-roledescription="line mark container"><path aria-label="Year: 1942; Markets revolutionize darn: 108; via Northeast: where productize" role="graphics-symbol" aria-roledescription="line mark" d="M58,92C96.66666666666667,128.40707660597732,135.33333333333334,164.81415321195465,174,161C212.66666666666666,157.18584678804535,251.33333333333331,113.15046375815874,290,114.00000000000001C328.6666666666667,114.84953624184129,367.3333333333333,160.58399175541052,406,178C444.6666666666667,195.41600824458948,483.33333333333326,184.51356922019926,522,156C560.6666666666667,127.48643077980076,599.3333333333334,81.3617313637925,638,71C676.6666666666666,60.63826863620749,715.3333333333334,86.03950532463071,754,82C792.6666666666666,77.96049467536929,831.3333333333333,44.48024733768465,870,11.00000000000001" stroke="#d1dccc" stroke-width="2" stroke-dasharray="8,8"></path></g></g><path class="foreground" aria-hidden="true" d="" display="none"></path></g><g transform="translate(0,0)"><path class="background" aria-hidden="true" d="M0,0h928v200h-928Z"></path><g><g class="mark-line role-mark layer_0_marks" role="graphics-object" aria-roledescription="line mark container"><path aria-label="Year: 1942; Markets revolutionize darn: 20; via Northeast: alias" role="graphics-symbol" aria-roledescription="line mark" d="M58,180C96.66666666666667,139.27104087942288,135.33333333333334,98.54208175884573,174,89.99999999999999C212.66666666666666,81.45791824115425,251.33333333333331,105.10271384403987,290,119C328.6666666666667,132.89728615596013,367.3333333333333,137.04706286499484,406,150C444.6666666666667,162.95293713500516,483.33333333333326,184.70903469598076,522,185C560.6666666666667,185.29096530401924,599.3333333333334,164.1167983510821,638,165C676.6666666666666,165.8832016489179,715.3333333333334,188.82377189969083,754,175C792.6666666666666,161.17622810030917,831.3333333333333,110.58811405015459,870,60.00000000000001" stroke="#6a74b7" stroke-width="2" stroke-dasharray="8,8"></path></g></g><path class="foreground" aria-hidden="true" d="" display="none"></path></g></g><g class="mark-symbol role-mark layer_1_marks" role="graphics-object" aria-roledescription="symbol mark container"><path aria-label="Year: 1942; Markets revolutionize darn: 108; via Northeast: where productize" role="graphics-symbol" aria-roledescription="point" transform="translate(58,92)" d="M2.7386127875258306,0A2.7386127875258306,2.7386127875258306,0,1,1,-2.7386127875258306,0A2.7386127875258306,2.7386127875258306,0,1,1,2.7386127875258306,0" fill="#fff" stroke="#d1dccc" stroke-width="3" opacity="1"></path><path aria-label="Year: 1944; Markets revolutionize darn: 39; via Northeast: where productize" role="graphics-symbol" aria-roledescription="point" transform="translate(174,161)" d="M2.7386127875258306,0A2.7386127875258306,2.7386127875258306,0,1,1,-2.7386127875258306,0A2.7386127875258306,2.7386127875258306,0,1,1,2.7386127875258306,0" fill="#fff" stroke="#d1dccc" stroke-width="3" opacity="1"></path><path aria-label="Year: 1946; Markets revolutionize darn: 86; via Northeast: where productize" role="graphics-symbol" aria-roledescription="point" transform="translate(290,114.00000000000001)" d="M2.7386127875258306,0A2.7386127875258306,2.7386127875258306,0,1,1,-2.7386127875258306,0A2.7386127875258306,2.7386127875258306,0,1,1,2.7386127875258306,0" fill="#fff" stroke="#d1dccc" stroke-width="3" opacity="1"></path><path aria-label="Year: 1948; Markets revolutionize darn: 22; via Northeast: where productize" role="graphics-symbol" aria-roledescription="point" transform="translate(406,178)" d="M2.7386127875258306,0A2.7386127875258306,2.7386127875258306,0,1,1,-2.7386127875258306,0A2.7386127875258306,2.7386127875258306,0,1,1,2.7386127875258306,0" fill="#fff" stroke="#d1dccc" stroke-width="3" opacity="1"></path><path aria-label="Year: 1950; Markets revolutionize darn: 44; via Northeast: where productize" role="graphics-symbol" aria-roledescription="point" transform="translate(522,156)" d="M2.7386127875258306,0A2.7386127875258306,2.7386127875258306,0,1,1,-2.7386127875258306,0A2.7386127875258306,2.7386127875258306,0,1,1,2.7386127875258306,0" fill="#fff" stroke="#d1dccc" stroke-width="3" opacity="1"></path><path aria-label="Year: 1952; Markets revolutionize darn: 129; via Northeast: where productize" role="graphics-symbol" aria-roledescription="point" transform="translate(638,71)" d="M2.7386127875258306,0A2.7386127875258306,2.7386127875258306,0,1,1,-2.7386127875258306,0A2.7386127875258306,2.7386127875258306,0,1,1,2.7386127875258306,0" fill="#fff" stroke="#d1dccc" stroke-width="3" opacity="1"></path><path aria-label="Year: 1954; Markets revolutionize darn: 118; via Northeast: where productize" role="graphics-symbol" aria-roledescription="point" transform="translate(754,82)" d="M2.7386127875258306,0A2.7386127875258306,2.7386127875258306,0,1,1,-2.7386127875258306,0A2.7386127875258306,2.7386127875258306,0,1,1,2.7386127875258306,0" fill="#fff" stroke="#d1dccc" stroke-width="3" opacity="1"></path><path aria-label="Year: 1956; Markets revolutionize darn: 189; via Northeast: where productize" role="graphics-symbol" aria-roledescription="point" transform="translate(870,11.00000000000001)" d="M2.7386127875258306,0A2.7386127875258306,2.7386127875258306,0,1,1,-2.7386127875258306,0A2.7386127875258306,2.7386127875258306,0,1,1,2.7386127875258306,0" fill="#fff" stroke="#d1dccc" stroke-width="3" opacity="1"></path><path aria-label="Year: 1942; Markets revolutionize darn: 20; via Northeast: alias" role="graphics-symbol" aria-roledescription="point" transform="translate(58,180)" d="M2.7386127875258306,0A2.7386127875258306,2.7386127875258306,0,1,1,-2.7386127875258306,0A2.7386127875258306,2.7386127875258306,0,1,1,2.7386127875258306,0" fill="#fff" stroke="#6a74b7" stroke-width="3" opacity="1"></path><path aria-label="Year: 1944; Markets revolutionize darn: 110; via Northeast: alias" role="graphics-symbol" aria-roledescription="point" transform="translate(174,89.99999999999999)" d="M2.7386127875258306,0A2.7386127875258306,2.7386127875258306,0,1,1,-2.7386127875258306,0A2.7386127875258306,2.7386127875258306,0,1,1,2.7386127875258306,0" fill="#fff" stroke="#6a74b7" stroke-width="3" opacity="1"></path><path aria-label="Year: 1946; Markets revolutionize darn: 81; via Northeast: alias" role="graphics-symbol" aria-roledescription="point" transform="translate(290,119)" d="M2.7386127875258306,0A2.7386127875258306,2.7386127875258306,0,1,1,-2.7386127875258306,0A2.7386127875258306,2.7386127875258306,0,1,1,2.7386127875258306,0" fill="#fff" stroke="#6a74b7" stroke-width="3" opacity="1"></path><path aria-label="Year: 1948; Markets revolutionize darn: 50; via Northeast: alias" role="graphics-symbol" aria-roledescription="point" transform="translate(406,150)" d="M2.7386127875258306,0A2.7386127875258306,2.7386127875258306,0,1,1,-2.7386127875258306,0A2.7386127875258306,2.7386127875258306,0,1,1,2.7386127875258306,0" fill="#fff" stroke="#6a74b7" stroke-width="3" opacity="1"></path><path aria-label="Year: 1950; Markets revolutionize darn: 15; via Northeast: alias" role="graphics-symbol" aria-roledescription="point" transform="translate(522,185)" d="M2.7386127875258306,0A2.7386127875258306,2.7386127875258306,0,1,1,-2.7386127875258306,0A2.7386127875258306,2.7386127875258306,0,1,1,2.7386127875258306,0" fill="#fff" stroke="#6a74b7" stroke-width="3" opacity="1"></path><path aria-label="Year: 1952; Markets revolutionize darn: 35; via Northeast: alias" role="graphics-symbol" aria-roledescription="point" transform="translate(638,165)" d="M2.7386127875258306,0A2.7386127875258306,2.7386127875258306,0,1,1,-2.7386127875258306,0A2.7386127875258306,2.7386127875258306,0,1,1,2.7386127875258306,0" fill="#fff" stroke="#6a74b7" stroke-width="3" opacity="1"></path><path aria-label="Year: 1954; Markets revolutionize darn: 25; via Northeast: alias" role="graphics-symbol" aria-roledescription="point" transform="translate(754,175)" d="M2.7386127875258306,0A2.7386127875258306,2.7386127875258306,0,1,1,-2.7386127875258306,0A2.7386127875258306,2.7386127875258306,0,1,1,2.7386127875258306,0" fill="#fff" stroke="#6a74b7" stroke-width="3" opacity="1"></path><path aria-label="Year: 1956; Markets revolutionize darn: 140; via Northeast: alias" role="graphics-symbol" aria-roledescription="point" transform="translate(870,60.00000000000001)" d="M2.7386127875258306,0A2.7386127875258306,2.7386127875258306,0,1,1,-2.7386127875258306,0A2.7386127875258306,2.7386127875258306,0,1,1,2.7386127875258306,0" fill="#fff" stroke="#6a74b7" stroke-width="3" opacity="1"></path></g><g class="mark-group role-legend" role="graphics-symbol" aria-roledescription="legend" aria-label="Symbol legend titled 'via Northeast' for stroke color with 2 values: where productize, alias"><g transform="translate(0,-47)"><path class="background" aria-hidden="true" d="M0,0h132v29h-132Z" pointer-events="none"></path><g><g class="mark-group role-legend-entry"><g transform="translate(0,16)"><path class="background" aria-hidden="true" d="M0,0h0v0h0Z" pointer-events="none"></path><g><g class="mark-group role-scope" role="graphics-object" aria-roledescription="group mark container"><g transform="translate(0,0.25)"><path class="background" aria-hidden="true" d="M0,0h85.130859375v12.5h-85.130859375Z" pointer-events="none" opacity="1"></path><g><g class="mark-symbol role-legend-symbol" pointer-events="none"><path transform="translate(6,6)" d="M5,0A5,5,0,1,1,-5,0A5,5,0,1,1,5,0" fill="#fff" stroke="#d1dccc" stroke-width="1.5" opacity="1"></path></g><g class="mark-text role-legend-label" pointer-events="none"><text text-anchor="start" transform="translate(16,9)" font-family="avenir" font-size="10px" fill="#000" opacity="1">where productize</text></g></g><path class="foreground" aria-hidden="true" d="" pointer-events="none" display="none"></path></g><g transform="translate(97,0.25)"><path class="background" aria-hidden="true" d="M0,0h34.3251953125v12.5h-34.3251953125Z" pointer-events="none" opacity="1"></path><g><g class="mark-symbol role-legend-symbol" pointer-events="none"><path transform="translate(6,6)" d="M5,0A5,5,0,1,1,-5,0A5,5,0,1,1,5,0" fill="#fff" stroke="#6a74b7" stroke-width="1.5" opacity="1"></path></g><g class="mark-text role-legend-label" pointer-events="none"><text text-anchor="start" transform="translate(16,9)" font-family="avenir" font-size="10px" fill="#000" opacity="1">alias</text></g></g><path class="foreground" aria-hidden="true" d="" pointer-events="none" display="none"></path></g></g></g><path class="foreground" aria-hidden="true" d="" pointer-events="none" display="none"></path></g></g><g class="mark-text role-legend-title" pointer-events="none"><text text-anchor="start" transform="translate(0,9)" font-family="avenir" font-size="11px" font-weight="bold" fill="#000" opacity="1">via Northeast</text></g></g><path class="foreground" aria-hidden="true" d="" pointer-events="none" display="none"></path></g></g><g class="mark-group role-title"><g transform="translate(928,-76)"><path class="background" aria-hidden="true" d="M0,0h0v0h0Z" pointer-events="none"></path><g><g class="mark-text role-title-text" role="graphics-symbol" aria-roledescription="title" aria-label="Title text 'female Brand'" pointer-events="none"><text text-anchor="end" transform="translate(0,20)" font-family="avenir" font-size="25px" font-weight="bold" fill="#000" opacity="1">female Brand</text></g></g><path class="foreground" aria-hidden="true" d="" pointer-events="none" display="none"></path></g></g></g><path class="foreground" aria-hidden="true" d="" display="none"></path></g></g></g></svg>