<svg xmlns="http://www.w3.org/2000/svg" xmlns:xlink="http://www.w3.org/1999/xlink" version="1.1" class="marks" width="909" height="318" viewBox="0 0 909 318" style="background-color: rgb(255, 255, 255);"><g fill="none" stroke-miterlimit="10" transform="translate(36,43)"><g class="mark-group role-frame root" role="graphics-object" aria-roledescription="group mark container"><g transform="translate(0,0)"><path class="background" aria-hidden="true" d="M0.5,0.5h868v200h-868Z" fill="transparent" stroke="#ddd"></path><g><g class="mark-group role-axis" aria-hidden="true"><g transform="translate(0.5,200.5)"><path class="background" aria-hidden="true" d="M0,0h0v0h0Z" pointer-events="none"></path><g><g class="mark-rule role-axis-grid" pointer-events="none"><line transform="translate(87,-200)" x2="0" y2="200" stroke="#D0D0D0" stroke-width="1" stroke-dasharray="4, 2" opacity="1"></line><line transform="translate(260,-200)" x2="0" y2="200" stroke="#D0D0D0" stroke-width="1" stroke-dasharray="4, 2" opacity="1"></line><line transform="translate(434,-200)" x2="0" y2="200" stroke="#D0D0D0" stroke-width="1" stroke-dasharray="4, 2" opacity="1"></line><line transform="translate(608,-200)" x2="0" y2="200" stroke="#D0D0D0" stroke-width="1" stroke-dasharray="4, 2" opacity="1"></line><line transform="translate(781,-200)" x2="0" y2="200" stroke="#D0D0D0" stroke-width="1" stroke-dasharray="4, 2" opacity="1"></line></g></g><path class="foreground" aria-hidden="true" d="" pointer-events="none" display="none"></path></g></g><g class="mark-group role-axis" aria-hidden="true"><g transform="translate(0.5,0.5)"><path class="background" aria-hidden="true" d="M0,0h0v0h0Z" pointer-events="none"></path><g><g class="mark-rule role-axis-grid" pointer-events="none"><line transform="translate(0,200)" x2="868" y2="0" stroke="#D0D0D0" stroke-width="1" stroke-dasharray="4, 2" opacity="1"></line><line transform="translate(0,160)" x2="868" y2="0" stroke="#D0D0D0" stroke-width="1" stroke-dasharray="4, 2" opacity="1"></line><line transform="translate(0,120)" x2="868" y2="0" stroke="#D0D0D0" stroke-width="1" stroke-dasharray="4, 2" opacity="1"></line><line transform="translate(0,80)" x2="868" y2="0" stroke="#D0D0D0" stroke-width="1" stroke-dasharray="4, 2" opacity="1"></line><line transform="translate(0,40)" x2="868" y2="0" stroke="#D0D0D0" stroke-width="1" stroke-dasharray="4, 2" opacity="1"></line><line transform="translate(0,0)" x2="868" y2="0" stroke="#D0D0D0" stroke-width="1" stroke-dasharray="4, 2" opacity="1"></line></g></g><path class="foreground" aria-hidden="true" d="" pointer-events="none" display="none"></path></g></g><g class="mark-group role-axis" role="graphics-symbol" aria-roledescription="axis" aria-label="X-axis for a discrete scale with 5 values: 1775, 1777, 1779, 1781, 1783"><g transform="translate(0.5,200.5)"><path class="background" aria-hidden="true" d="M0,0h0v0h0Z" pointer-events="none"></path><g><g class="mark-rule role-axis-tick" pointer-events="none"><line transform="translate(87,0)" x2="0" y2="5" stroke="#888" stroke-width="1" opacity="1"></line><line transform="translate(260,0)" x2="0" y2="5" stroke="#888" stroke-width="1" opacity="1"></line><line transform="translate(434,0)" x2="0" y2="5" stroke="#888" stroke-width="1" opacity="1"></line><line transform="translate(608,0)" x2="0" y2="5" stroke="#888" stroke-width="1" opacity="1"></line><line transform="translate(781,0)" x2="0" y2="5" stroke="#888" stroke-width="1" opacity="1"></line></g><g class="mark-text role-axis-label" pointer-events="none"><text text-anchor="middle" transform="translate(86.80000000000001,20)" font-family="sans-serif" font-size="17px" font-weight="bold" fill="#000" opacity="1">1775</text><text text-anchor="middle" transform="translate(260.4,20)" font-family="sans-serif" font-size="17px" font-weight="bold" fill="#000" opacity="1">1777</text><text text-anchor="middle" transform="translate(434,20)" font-family="sans-serif" font-size="17px" font-weight="bold" fill="#000" opacity="1">1779</text><text text-anchor="middle" transform="translate(607.5999999999999,20)" font-family="sans-serif" font-size="17px" font-weight="bold" fill="#000" opacity="1">1781</text><text text-anchor="middle" transform="translate(781.2,20)" font-family="sans-serif" font-size="17px" font-weight="bold" fill="#000" opacity="1">1783</text></g><g class="mark-rule role-axis-domain" pointer-events="none"><line transform="translate(0,0)" x2="868" y2="0" stroke="#888" stroke-width="1" opacity="1"></line></g></g><path class="foreground" aria-hidden="true" d="" pointer-events="none" display="none"></path></g></g><g class="mark-group role-axis" role="graphics-symbol" aria-roledescription="axis" aria-label="Y-axis for a linear scale with values from 0 to 100"><g transform="translate(0.5,0.5)"><path class="background" aria-hidden="true" d="M0,0h0v0h0Z" pointer-events="none"></path><g><g class="mark-text role-axis-label" pointer-events="none"><text text-anchor="end" transform="translate(-2,205)" font-family="sans-serif" font-size="17px" font-weight="bold" fill="#000" opacity="1">0</text><text text-anchor="end" transform="translate(-2,165)" font-family="sans-serif" font-size="17px" font-weight="bold" fill="#000" opacity="1">20</text><text text-anchor="end" transform="translate(-2,125)" font-family="sans-serif" font-size="17px" font-weight="bold" fill="#000" opacity="1">40</text><text text-anchor="end" transform="translate(-2,85)" font-family="sans-serif" font-size="17px" font-weight="bold" fill="#000" opacity="1">60</text><text text-anchor="end" transform="translate(-2,44.99999999999999)" font-family="sans-serif" font-size="17px" font-weight="bold" fill="#000" opacity="1">80</text><text text-anchor="end" transform="translate(-2,5)" font-family="sans-serif" font-size="17px" font-weight="bold" fill="#000" opacity="1">100</text></g><g class="mark-rule role-axis-domain" pointer-events="none"><line transform="translate(0,200)" x2="0" y2="-200" stroke="#888" stroke-width="1" opacity="1"></line></g></g><path class="foreground" aria-hidden="true" d="" pointer-events="none" display="none"></path></g></g><g class="mark-group role-scope layer_0_pathgroup" role="graphics-object" aria-roledescription="group mark container"><g transform="translate(0,0)"><path class="background" aria-hidden="true" d="M0,0h868v200h-868Z"></path><g><g class="mark-line role-mark layer_0_marks" role="graphics-object" aria-roledescription="line mark container"><path aria-label="Year: 1775; Brand: 41; transmit Southeast systems: Southeast" role="graphics-symbol" aria-roledescription="line mark" d="M86.80000000000001,118.00000000000001L260.4,0L434,70L607.5999999999999,174L781.2,62.000000000000014" stroke="#aea2da" stroke-width="2" stroke-dasharray="1,0"></path></g></g><path class="foreground" aria-hidden="true" d="" display="none"></path></g><g transform="translate(0,0)"><path class="background" aria-hidden="true" d="M0,0h868v200h-868Z"></path><g><g class="mark-line role-mark layer_0_marks" role="graphics-object" aria-roledescription="line mark container"><path aria-label="Year: 1775; Brand: 59; transmit Southeast systems: infrastructures transitional bypass" role="graphics-symbol" aria-roledescription="line mark" d="M86.80000000000001,82L260.4,92L434,0L607.5999999999999,54L781.2,142" stroke="#39f6fb" stroke-width="2" stroke-dasharray="1,0"></path></g></g><path class="foreground" aria-hidden="true" d="" display="none"></path></g></g><g class="mark-symbol role-mark layer_1_marks" role="graphics-object" aria-roledescription="symbol mark container"><path aria-label="Year: 1775; Brand: 41; transmit Southeast systems: Southeast" role="graphics-symbol" aria-roledescription="point" transform="translate(86.80000000000001,118.00000000000001)" d="M2.7386127875258306,0A2.7386127875258306,2.7386127875258306,0,1,1,-2.7386127875258306,0A2.7386127875258306,2.7386127875258306,0,1,1,2.7386127875258306,0" fill="#fff" stroke="#aea2da" stroke-width="4" opacity="1"></path><path aria-label="Year: 1777; Brand: 100; transmit Southeast systems: Southeast" role="graphics-symbol" aria-roledescription="point" transform="translate(260.4,0)" d="M2.7386127875258306,0A2.7386127875258306,2.7386127875258306,0,1,1,-2.7386127875258306,0A2.7386127875258306,2.7386127875258306,0,1,1,2.7386127875258306,0" fill="#fff" stroke="#aea2da" stroke-width="4" opacity="1"></path><path aria-label="Year: 1779; Brand: 65; transmit Southeast systems: Southeast" role="graphics-symbol" aria-roledescription="point" transform="translate(434,70)" d="M2.7386127875258306,0A2.7386127875258306,2.7386127875258306,0,1,1,-2.7386127875258306,0A2.7386127875258306,2.7386127875258306,0,1,1,2.7386127875258306,0" fill="#fff" stroke="#aea2da" stroke-width="4" opacity="1"></path><path aria-label="Year: 1781; Brand: 13; transmit Southeast systems: Southeast" role="graphics-symbol" aria-roledescription="point" transform="translate(607.5999999999999,174)" d="M2.7386127875258306,0A2.7386127875258306,2.7386127875258306,0,1,1,-2.7386127875258306,0A2.7386127875258306,2.7386127875258306,0,1,1,2.7386127875258306,0" fill="#fff" stroke="#aea2da" stroke-width="4" opacity="1"></path><path aria-label="Year: 1783; Brand: 69; transmit Southeast systems: Southeast" role="graphics-symbol" aria-roledescription="point" transform="translate(781.2,62.000000000000014)" d="M2.7386127875258306,0A2.7386127875258306,2.7386127875258306,0,1,1,-2.7386127875258306,0A2.7386127875258306,2.7386127875258306,0,1,1,2.7386127875258306,0" fill="#fff" stroke="#aea2da" stroke-width="4" opacity="1"></path><path aria-label="Year: 1775; Brand: 59; transmit Southeast systems: infrastructures transitional bypass" role="graphics-symbol" aria-roledescription="point" transform="translate(86.80000000000001,82)" d="M2.7386127875258306,0A2.7386127875258306,2.7386127875258306,0,1,1,-2.7386127875258306,0A2.7386127875258306,2.7386127875258306,0,1,1,2.7386127875258306,0" fill="#fff" stroke="#39f6fb" stroke-width="4" opacity="1"></path><path aria-label="Year: 1777; Brand: 54; transmit Southeast systems: infrastructures transitional bypass" role="graphics-symbol" aria-roledescription="point" transform="translate(260.4,92)" d="M2.7386127875258306,0A2.7386127875258306,2.7386127875258306,0,1,1,-2.7386127875258306,0A2.7386127875258306,2.7386127875258306,0,1,1,2.7386127875258306,0" fill="#fff" stroke="#39f6fb" stroke-width="4" opacity="1"></path><path aria-label="Year: 1779; Brand: 100; transmit Southeast systems: infrastructures transitional bypass" role="graphics-symbol" aria-roledescription="point" transform="translate(434,0)" d="M2.7386127875258306,0A2.7386127875258306,2.7386127875258306,0,1,1,-2.7386127875258306,0A2.7386127875258306,2.7386127875258306,0,1,1,2.7386127875258306,0" fill="#fff" stroke="#39f6fb" stroke-width="4" opacity="1"></path><path aria-label="Year: 1781; Brand: 73; transmit Southeast systems: infrastructures transitional bypass" role="graphics-symbol" aria-roledescription="point" transform="translate(607.5999999999999,54)" d="M2.7386127875258306,0A2.7386127875258306,2.7386127875258306,0,1,1,-2.7386127875258306,0A2.7386127875258306,2.7386127875258306,0,1,1,2.7386127875258306,0" fill="#fff" stroke="#39f6fb" stroke-width="4" opacity="1"></path><path aria-label="Year: 1783; Brand: 29; transmit Southeast systems: infrastructures transitional bypass" role="graphics-symbol" aria-roledescription="point" transform="translate(781.2,142)" d="M2.7386127875258306,0A2.7386127875258306,2.7386127875258306,0,1,1,-2.7386127875258306,0A2.7386127875258306,2.7386127875258306,0,1,1,2.7386127875258306,0" fill="#fff" stroke="#39f6fb" stroke-width="4" opacity="1"></path></g><g class="mark-group role-legend" role="graphics-symbol" aria-roledescription="legend" aria-label="Symbol legend titled 'transmit Southeast systems' for stroke color with 2 values: Southeast, infrastructures transitional bypass"><g transform="translate(0,241)"><path class="background" aria-hidden="true" d="M0,0h238v29h-238Z" pointer-events="none"></path><g><g class="mark-group role-legend-entry"><g transform="translate(0,16)"><path class="background" aria-hidden="true" d="M0,0h0v0h0Z" pointer-events="none"></path><g><g class="mark-group role-scope" role="graphics-object" aria-roledescription="group mark container"><g transform="translate(0,0.25)"><path class="background" aria-hidden="true" d="M0,0h61.0341796875v12.5h-61.0341796875Z" pointer-events="none" opacity="1"></path><g><g class="mark-symbol role-legend-symbol" pointer-events="none"><path transform="translate(6,6)" d="M5,0A5,5,0,1,1,-5,0A5,5,0,1,1,5,0" fill="#fff" stroke="#aea2da" stroke-width="1.5" opacity="1"></path></g><g class="mark-text role-legend-label" pointer-events="none"><text text-anchor="start" transform="translate(16,9)" font-family="sans-serif" font-size="10px" fill="#000" opacity="1">Southeast</text></g></g><path class="foreground" aria-hidden="true" d="" pointer-events="none" display="none"></path></g><g transform="translate(73,0.25)"><path class="background" aria-hidden="true" d="M0,0h164.955078125v12.5h-164.955078125Z" pointer-events="none" opacity="1"></path><g><g class="mark-symbol role-legend-symbol" pointer-events="none"><path transform="translate(6,6)" d="M5,0A5,5,0,1,1,-5,0A5,5,0,1,1,5,0" fill="#fff" stroke="#39f6fb" stroke-width="1.5" opacity="1"></path></g><g class="mark-text role-legend-label" pointer-events="none"><text text-anchor="start" transform="translate(16,9)" font-family="sans-serif" font-size="10px" fill="#000" opacity="1">infrastructures transitional bypass</text></g></g><path class="foreground" aria-hidden="true" d="" pointer-events="none" display="none"></path></g></g></g><path class="foreground" aria-hidden="true" d="" pointer-events="none" display="none"></path></g></g><g class="mark-text role-legend-title" pointer-events="none"><text text-anchor="start" transform="translate(0,9)" font-family="sans-serif" font-size="11px" font-weight="bold" fill="#000" opacity="1">transmit Southeast systems</text></g></g><path class="foreground" aria-hidden="true" d="" pointer-events="none" display="none"></path></g></g><g class="mark-group role-title"><g transform="translate(-30.36376953125,-38)"><path class="background" aria-hidden="true" d="M0,0h0v0h0Z" pointer-events="none"></path><g><g class="mark-text role-title-text" role="graphics-symbol" aria-roledescription="title" aria-label="Title text 'kooky Chips Loan'" pointer-events="none"><text text-anchor="start" transform="translate(0,20)" font-family="sans-serif" font-size="25px" font-weight="bold" fill="#000" opacity="1">kooky Chips Loan</text></g></g><path class="foreground" aria-hidden="true" d="" pointer-events="none" display="none"></path></g></g></g><path class="foreground" aria-hidden="true" d="" display="none"></path></g></g></g></svg>