<svg xmlns="http://www.w3.org/2000/svg" xmlns:xlink="http://www.w3.org/1999/xlink" version="1.1" class="marks" width="872" height="277" viewBox="0 0 872 277" style="background-color: rgb(51, 51, 51);"><g fill="none" stroke-miterlimit="10" transform="translate(147,43)"><g class="mark-group role-frame root" role="graphics-object" aria-roledescription="group mark container"><g transform="translate(0,0)"><path class="background" aria-hidden="true" d="M0.5,0.5h720v200h-720Z" fill="transparent" stroke="#ddd"></path><g><g class="mark-group role-axis" aria-hidden="true"><g transform="translate(0.5,200.5)"><path class="background" aria-hidden="true" d="M0,0h0v0h0Z" pointer-events="none"></path><g><g class="mark-rule role-axis-grid" pointer-events="none"><line transform="translate(60,-200)" x2="0" y2="200" stroke="#747474" stroke-width="1" stroke-dasharray="1,0" opacity="1"></line><line transform="translate(180,-200)" x2="0" y2="200" stroke="#747474" stroke-width="1" stroke-dasharray="1,0" opacity="1"></line><line transform="translate(300,-200)" x2="0" y2="200" stroke="#747474" stroke-width="1" stroke-dasharray="1,0" opacity="1"></line><line transform="translate(420,-200)" x2="0" y2="200" stroke="#747474" stroke-width="1" stroke-dasharray="1,0" opacity="1"></line><line transform="translate(540,-200)" x2="0" y2="200" stroke="#747474" stroke-width="1" stroke-dasharray="1,0" opacity="1"></line><line transform="translate(660,-200)" x2="0" y2="200" stroke="#747474" stroke-width="1" stroke-dasharray="1,0" opacity="1"></line></g></g><path class="foreground" aria-hidden="true" d="" pointer-events="none" display="none"></path></g></g><g class="mark-group role-axis" aria-hidden="true"><g transform="translate(0.5,0.5)"><path class="background" aria-hidden="true" d="M0,0h0v0h0Z" pointer-events="none"></path><g><g class="mark-rule role-axis-grid" pointer-events="none"><line transform="translate(0,200)" x2="720" y2="0" stroke="#747474" stroke-width="1" stroke-dasharray="1,0" opacity="1"></line><line transform="translate(0,171)" x2="720" y2="0" stroke="#747474" stroke-width="1" stroke-dasharray="1,0" opacity="1"></line><line transform="translate(0,143)" x2="720" y2="0" stroke="#747474" stroke-width="1" stroke-dasharray="1,0" opacity="1"></line><line transform="translate(0,114)" x2="720" y2="0" stroke="#747474" stroke-width="1" stroke-dasharray="1,0" opacity="1"></line><line transform="translate(0,86)" x2="720" y2="0" stroke="#747474" stroke-width="1" stroke-dasharray="1,0" opacity="1"></line><line transform="translate(0,57)" x2="720" y2="0" stroke="#747474" stroke-width="1" stroke-dasharray="1,0" opacity="1"></line><line transform="translate(0,29)" x2="720" y2="0" stroke="#747474" stroke-width="1" stroke-dasharray="1,0" opacity="1"></line><line transform="translate(0,0)" x2="720" y2="0" stroke="#747474" stroke-width="1" stroke-dasharray="1,0" opacity="1"></line></g></g><path class="foreground" aria-hidden="true" d="" pointer-events="none" display="none"></path></g></g><g class="mark-group role-axis" role="graphics-symbol" aria-roledescription="axis" aria-label="X-axis for a discrete scale with 6 values: 1729, 1731, 1733, 1735, 1737, 1739"><g transform="translate(0.5,200.5)"><path class="background" aria-hidden="true" d="M0,0h0v0h0Z" pointer-events="none"></path><g><g class="mark-rule role-axis-tick" pointer-events="none"><line transform="translate(60,0)" x2="0" y2="5" stroke="#888" stroke-width="1" opacity="1"></line><line transform="translate(180,0)" x2="0" y2="5" stroke="#888" stroke-width="1" opacity="1"></line><line transform="translate(300,0)" x2="0" y2="5" stroke="#888" stroke-width="1" opacity="1"></line><line transform="translate(420,0)" x2="0" y2="5" stroke="#888" stroke-width="1" opacity="1"></line><line transform="translate(540,0)" x2="0" y2="5" stroke="#888" stroke-width="1" opacity="1"></line><line transform="translate(660,0)" x2="0" y2="5" stroke="#888" stroke-width="1" opacity="1"></line></g><g class="mark-text role-axis-label" pointer-events="none"><text text-anchor="start" transform="translate(60,7) rotate(90) translate(0,3)" font-family="serif" font-size="11px" font-weight="bold" fill="#fff" opacity="1">1729</text><text text-anchor="start" transform="translate(180,7) rotate(90) translate(0,3)" font-family="serif" font-size="11px" font-weight="bold" fill="#fff" opacity="1">1731</text><text text-anchor="start" transform="translate(300,7) rotate(90) translate(0,3)" font-family="serif" font-size="11px" font-weight="bold" fill="#fff" opacity="1">1733</text><text text-anchor="start" transform="translate(420,7) rotate(90) translate(0,3)" font-family="serif" font-size="11px" font-weight="bold" fill="#fff" opacity="1">1735</text><text text-anchor="start" transform="translate(540,7) rotate(90) translate(0,3)" font-family="serif" font-size="11px" font-weight="bold" fill="#fff" opacity="1">1737</text><text text-anchor="start" transform="translate(660,7) rotate(90) translate(0,3)" font-family="serif" font-size="11px" font-weight="bold" fill="#fff" opacity="1">1739</text></g><g class="mark-rule role-axis-domain" pointer-events="none"><line transform="translate(0,0)" x2="720" y2="0" stroke="#888" stroke-width="1" opacity="1"></line></g></g><path class="foreground" aria-hidden="true" d="" pointer-events="none" display="none"></path></g></g><g class="mark-group role-axis" role="graphics-symbol" aria-roledescription="axis" aria-label="Y-axis for a linear scale with values from 0 to 350"><g transform="translate(0.5,0.5)"><path class="background" aria-hidden="true" d="M0,0h0v0h0Z" pointer-events="none"></path><g><g class="mark-rule role-axis-tick" pointer-events="none"><line transform="translate(0,200)" x2="-5" y2="0" stroke="#888" stroke-width="1" opacity="1"></line><line transform="translate(0,171)" x2="-5" y2="0" stroke="#888" stroke-width="1" opacity="1"></line><line transform="translate(0,143)" x2="-5" y2="0" stroke="#888" stroke-width="1" opacity="1"></line><line transform="translate(0,114)" x2="-5" y2="0" stroke="#888" stroke-width="1" opacity="1"></line><line transform="translate(0,86)" x2="-5" y2="0" stroke="#888" stroke-width="1" opacity="1"></line><line transform="translate(0,57)" x2="-5" y2="0" stroke="#888" stroke-width="1" opacity="1"></line><line transform="translate(0,29)" x2="-5" y2="0" stroke="#888" stroke-width="1" opacity="1"></line><line transform="translate(0,0)" x2="-5" y2="0" stroke="#888" stroke-width="1" opacity="1"></line></g><g class="mark-text role-axis-label" pointer-events="none"><text text-anchor="middle" transform="translate(-7,200) rotate(90) translate(0,9)" font-family="serif" font-size="11px" font-weight="bold" fill="#fff" opacity="1">0</text><text text-anchor="middle" transform="translate(-7,171.42857142857144) rotate(90) translate(0,9)" font-family="serif" font-size="11px" font-weight="bold" fill="#fff" opacity="1">50</text><text text-anchor="middle" transform="translate(-7,142.85714285714286) rotate(90) translate(0,9)" font-family="serif" font-size="11px" font-weight="bold" fill="#fff" opacity="1">100</text><text text-anchor="middle" transform="translate(-7,114.28571428571428) rotate(90) translate(0,9)" font-family="serif" font-size="11px" font-weight="bold" fill="#fff" opacity="1">150</text><text text-anchor="middle" transform="translate(-7,85.71428571428572) rotate(90) translate(0,9)" font-family="serif" font-size="11px" font-weight="bold" fill="#fff" opacity="1">200</text><text text-anchor="middle" transform="translate(-7,57.14285714285714) rotate(90) translate(0,9)" font-family="serif" font-size="11px" font-weight="bold" fill="#fff" opacity="1">250</text><text text-anchor="middle" transform="translate(-7,28.57142857142858) rotate(90) translate(0,9)" font-family="serif" font-size="11px" font-weight="bold" fill="#fff" opacity="1">300</text><text text-anchor="middle" transform="translate(-7,0) rotate(90) translate(0,9)" font-family="serif" font-size="11px" font-weight="bold" fill="#fff" opacity="1">350</text></g><g class="mark-rule role-axis-domain" pointer-events="none"><line transform="translate(0,200)" x2="0" y2="-200" stroke="#888" stroke-width="1" opacity="1"></line></g></g><path class="foreground" aria-hidden="true" d="" pointer-events="none" display="none"></path></g></g><g class="mark-group role-scope layer_0_pathgroup" role="graphics-object" aria-roledescription="group mark container"><g transform="translate(0,0)"><path class="background" aria-hidden="true" d="M0,0h720v200h-720Z"></path><g><g class="mark-line role-mark layer_0_marks" role="graphics-object" aria-roledescription="line mark container"><path aria-label="Year: 1729; transparent Netherlands: 282; deposit: gold Response female" role="graphics-symbol" aria-roledescription="line mark" d="M60,38.857142857142854L180,49.71428571428571L300,29.714285714285715L420,193.7142857142857L540,195.42857142857142L660,143.42857142857142" stroke="#3cb3c0" stroke-width="2" stroke-dasharray="8,4"></path></g></g><path class="foreground" aria-hidden="true" d="" display="none"></path></g><g transform="translate(0,0)"><path class="background" aria-hidden="true" d="M0,0h720v200h-720Z"></path><g><g class="mark-line role-mark layer_0_marks" role="graphics-object" aria-roledescription="line mark container"><path aria-label="Year: 1729; transparent Netherlands: 291; deposit: West hungrily" role="graphics-symbol" aria-roledescription="line mark" d="M60,33.71428571428572L180,33.71428571428572L300,148L420,184.57142857142856L540,34.857142857142854L660,24.571428571428577" stroke="#d39fad" stroke-width="2" stroke-dasharray="8,4"></path></g></g><path class="foreground" aria-hidden="true" d="" display="none"></path></g></g><g class="mark-symbol role-mark layer_1_marks" role="graphics-object" aria-roledescription="symbol mark container"><path aria-label="Year: 1729; transparent Netherlands: 282; deposit: gold Response female" role="graphics-symbol" aria-roledescription="point" transform="translate(60,38.857142857142854)" d="M5.123475382979799,0A5.123475382979799,5.123475382979799,0,1,1,-5.123475382979799,0A5.123475382979799,5.123475382979799,0,1,1,5.123475382979799,0" fill="#3cb3c0" stroke-width="3" opacity="1"></path><path aria-label="Year: 1731; transparent Netherlands: 263; deposit: gold Response female" role="graphics-symbol" aria-roledescription="point" transform="translate(180,49.71428571428571)" d="M5.123475382979799,0A5.123475382979799,5.123475382979799,0,1,1,-5.123475382979799,0A5.123475382979799,5.123475382979799,0,1,1,5.123475382979799,0" fill="#3cb3c0" stroke-width="3" opacity="1"></path><path aria-label="Year: 1733; transparent Netherlands: 298; deposit: gold Response female" role="graphics-symbol" aria-roledescription="point" transform="translate(300,29.714285714285715)" d="M5.123475382979799,0A5.123475382979799,5.123475382979799,0,1,1,-5.123475382979799,0A5.123475382979799,5.123475382979799,0,1,1,5.123475382979799,0" fill="#3cb3c0" stroke-width="3" opacity="1"></path><path aria-label="Year: 1735; transparent Netherlands: 11; deposit: gold Response female" role="graphics-symbol" aria-roledescription="point" transform="translate(420,193.7142857142857)" d="M5.123475382979799,0A5.123475382979799,5.123475382979799,0,1,1,-5.123475382979799,0A5.123475382979799,5.123475382979799,0,1,1,5.123475382979799,0" fill="#3cb3c0" stroke-width="3" opacity="1"></path><path aria-label="Year: 1737; transparent Netherlands: 8; deposit: gold Response female" role="graphics-symbol" aria-roledescription="point" transform="translate(540,195.42857142857142)" d="M5.123475382979799,0A5.123475382979799,5.123475382979799,0,1,1,-5.123475382979799,0A5.123475382979799,5.123475382979799,0,1,1,5.123475382979799,0" fill="#3cb3c0" stroke-width="3" opacity="1"></path><path aria-label="Year: 1739; transparent Netherlands: 99; deposit: gold Response female" role="graphics-symbol" aria-roledescription="point" transform="translate(660,143.42857142857142)" d="M5.123475382979799,0A5.123475382979799,5.123475382979799,0,1,1,-5.123475382979799,0A5.123475382979799,5.123475382979799,0,1,1,5.123475382979799,0" fill="#3cb3c0" stroke-width="3" opacity="1"></path><path aria-label="Year: 1729; transparent Netherlands: 291; deposit: West hungrily" role="graphics-symbol" aria-roledescription="point" transform="translate(60,33.71428571428572)" d="M5.123475382979799,0A5.123475382979799,5.123475382979799,0,1,1,-5.123475382979799,0A5.123475382979799,5.123475382979799,0,1,1,5.123475382979799,0" fill="#d39fad" stroke-width="3" opacity="1"></path><path aria-label="Year: 1731; transparent Netherlands: 291; deposit: West hungrily" role="graphics-symbol" aria-roledescription="point" transform="translate(180,33.71428571428572)" d="M5.123475382979799,0A5.123475382979799,5.123475382979799,0,1,1,-5.123475382979799,0A5.123475382979799,5.123475382979799,0,1,1,5.123475382979799,0" fill="#d39fad" stroke-width="3" opacity="1"></path><path aria-label="Year: 1733; transparent Netherlands: 91; deposit: West hungrily" role="graphics-symbol" aria-roledescription="point" transform="translate(300,148)" d="M5.123475382979799,0A5.123475382979799,5.123475382979799,0,1,1,-5.123475382979799,0A5.123475382979799,5.123475382979799,0,1,1,5.123475382979799,0" fill="#d39fad" stroke-width="3" opacity="1"></path><path aria-label="Year: 1735; transparent Netherlands: 27; deposit: West hungrily" role="graphics-symbol" aria-roledescription="point" transform="translate(420,184.57142857142856)" d="M5.123475382979799,0A5.123475382979799,5.123475382979799,0,1,1,-5.123475382979799,0A5.123475382979799,5.123475382979799,0,1,1,5.123475382979799,0" fill="#d39fad" stroke-width="3" opacity="1"></path><path aria-label="Year: 1737; transparent Netherlands: 289; deposit: West hungrily" role="graphics-symbol" aria-roledescription="point" transform="translate(540,34.857142857142854)" d="M5.123475382979799,0A5.123475382979799,5.123475382979799,0,1,1,-5.123475382979799,0A5.123475382979799,5.123475382979799,0,1,1,5.123475382979799,0" fill="#d39fad" stroke-width="3" opacity="1"></path><path aria-label="Year: 1739; transparent Netherlands: 307; deposit: West hungrily" role="graphics-symbol" aria-roledescription="point" transform="translate(660,24.571428571428577)" d="M5.123475382979799,0A5.123475382979799,5.123475382979799,0,1,1,-5.123475382979799,0A5.123475382979799,5.123475382979799,0,1,1,5.123475382979799,0" fill="#d39fad" stroke-width="3" opacity="1"></path></g><g class="mark-text role-mark layer_2_marks" role="graphics-object" aria-roledescription="text mark container"><text aria-label="Year: 1729; transparent Netherlands: 282" role="graphics-symbol" aria-roledescription="text mark" text-anchor="middle" transform="translate(60,17.857142857142854)" font-family="serif" font-size="14px" fill="#fff" opacity="1">282</text><text aria-label="Year: 1731; transparent Netherlands: 263" role="graphics-symbol" aria-roledescription="text mark" text-anchor="middle" transform="translate(180,28.714285714285708)" font-family="serif" font-size="14px" fill="#fff" opacity="1">263</text><text aria-label="Year: 1733; transparent Netherlands: 298" role="graphics-symbol" aria-roledescription="text mark" text-anchor="middle" transform="translate(300,8.714285714285715)" font-family="serif" font-size="14px" fill="#fff" opacity="1">298</text><text aria-label="Year: 1735; transparent Netherlands: 11" role="graphics-symbol" aria-roledescription="text mark" text-anchor="middle" transform="translate(420,172.7142857142857)" font-family="serif" font-size="14px" fill="#fff" opacity="1">11</text><text aria-label="Year: 1737; transparent Netherlands: 8" role="graphics-symbol" aria-roledescription="text mark" text-anchor="middle" transform="translate(540,174.42857142857142)" font-family="serif" font-size="14px" fill="#fff" opacity="1">8</text><text aria-label="Year: 1739; transparent Netherlands: 99" role="graphics-symbol" aria-roledescription="text mark" text-anchor="middle" transform="translate(660,122.42857142857142)" font-family="serif" font-size="14px" fill="#fff" opacity="1">99</text><text aria-label="Year: 1729; transparent Netherlands: 291" role="graphics-symbol" aria-roledescription="text mark" text-anchor="middle" transform="translate(60,12.714285714285722)" font-family="serif" font-size="14px" fill="#fff" opacity="1">291</text><text aria-label="Year: 1731; transparent Netherlands: 291" role="graphics-symbol" aria-roledescription="text mark" text-anchor="middle" transform="translate(180,12.714285714285722)" font-family="serif" font-size="14px" fill="#fff" opacity="1">291</text><text aria-label="Year: 1733; transparent Netherlands: 91" role="graphics-symbol" aria-roledescription="text mark" text-anchor="middle" transform="translate(300,127)" font-family="serif" font-size="14px" fill="#fff" opacity="1">91</text><text aria-label="Year: 1735; transparent Netherlands: 27" role="graphics-symbol" aria-roledescription="text mark" text-anchor="middle" transform="translate(420,163.57142857142856)" font-family="serif" font-size="14px" fill="#fff" opacity="1">27</text><text aria-label="Year: 1737; transparent Netherlands: 289" role="graphics-symbol" aria-roledescription="text mark" text-anchor="middle" transform="translate(540,13.857142857142854)" font-family="serif" font-size="14px" fill="#fff" opacity="1">289</text><text aria-label="Year: 1739; transparent Netherlands: 307" role="graphics-symbol" aria-roledescription="text mark" text-anchor="middle" transform="translate(660,3.5714285714285765)" font-family="serif" font-size="14px" fill="#fff" opacity="1">307</text></g><g class="mark-group role-legend" role="graphics-symbol" aria-roledescription="legend" aria-label="Symbol legend titled 'deposit' for fill color and stroke color with 2 values: gold Response female, West hungrily"><g transform="translate(-142,0)"><path class="background" aria-hidden="true" d="M0,0h105v45h-105Z" pointer-events="none"></path><g><g class="mark-group role-legend-entry"><g transform="translate(0,16)"><path class="background" aria-hidden="true" d="M0,0h0v0h0Z" pointer-events="none"></path><g><g class="mark-group role-scope" role="graphics-object" aria-roledescription="group mark container"><g transform="translate(0,0)"><path class="background" aria-hidden="true" d="M0,0h104.310546875v12.5h-104.310546875Z" pointer-events="none" opacity="1"></path><g><g class="mark-symbol role-legend-symbol" pointer-events="none"><path transform="translate(6,6)" d="M5,0A5,5,0,1,1,-5,0A5,5,0,1,1,5,0" fill="#3cb3c0" stroke="#3cb3c0" stroke-width="1.5" opacity="1"></path></g><g class="mark-text role-legend-label" pointer-events="none"><text text-anchor="start" transform="translate(16,9)" font-family="serif" font-size="10px" fill="#fff" opacity="1">gold Response female</text></g></g><path class="foreground" aria-hidden="true" d="" pointer-events="none" display="none"></path></g><g transform="translate(0,16)"><path class="background" aria-hidden="true" d="M0,0h104.310546875v12.5h-104.310546875Z" pointer-events="none" opacity="1"></path><g><g class="mark-symbol role-legend-symbol" pointer-events="none"><path transform="translate(6,6)" d="M5,0A5,5,0,1,1,-5,0A5,5,0,1,1,5,0" fill="#d39fad" stroke="#d39fad" stroke-width="1.5" opacity="1"></path></g><g class="mark-text role-legend-label" pointer-events="none"><text text-anchor="start" transform="translate(16,9)" font-family="serif" font-size="10px" fill="#fff" opacity="1">West hungrily</text></g></g><path class="foreground" aria-hidden="true" d="" pointer-events="none" display="none"></path></g></g></g><path class="foreground" aria-hidden="true" d="" pointer-events="none" display="none"></path></g></g><g class="mark-text role-legend-title" pointer-events="none"><text text-anchor="start" transform="translate(0,9)" font-family="serif" font-size="11px" font-weight="bold" fill="#fff" opacity="1">deposit</text></g></g><path class="foreground" aria-hidden="true" d="" pointer-events="none" display="none"></path></g></g><g class="mark-group role-title"><g transform="translate(-142,-37.25)"><path class="background" aria-hidden="true" d="M0,0h0v0h0Z" pointer-events="none"></path><g><g class="mark-text role-title-text" role="graphics-symbol" aria-roledescription="title" aria-label="Title text 'male DNS'" pointer-events="none"><text text-anchor="start" transform="translate(0,20)" font-family="serif" font-size="25px" font-weight="bold" fill="#fff" opacity="1">male DNS</text></g></g><path class="foreground" aria-hidden="true" d="" pointer-events="none" display="none"></path></g></g></g><path class="foreground" aria-hidden="true" d="" display="none"></path></g></g></g></svg>