<svg xmlns="http://www.w3.org/2000/svg" xmlns:xlink="http://www.w3.org/1999/xlink" version="1.1" class="marks" width="561" height="323" viewBox="0 0 561 323" style="background-color: rgb(51, 51, 51);"><g fill="none" stroke-miterlimit="10" transform="translate(19,43)"><g class="mark-group role-frame root" role="graphics-object" aria-roledescription="group mark container"><g transform="translate(0,0)"><path class="background" aria-hidden="true" d="M0.5,0.5h537v200h-537Z" fill="transparent" stroke="#ddd"></path><g><g class="mark-group role-axis" aria-hidden="true"><g transform="translate(0.5,200.5)"><path class="background" aria-hidden="true" d="M0,0h0v0h0Z" pointer-events="none"></path><g><g class="mark-rule role-axis-grid" pointer-events="none"><line transform="translate(45,-200)" x2="0" y2="200" stroke="#747474" stroke-width="1" stroke-dasharray="1,0" opacity="1"></line><line transform="translate(134,-200)" x2="0" y2="200" stroke="#747474" stroke-width="1" stroke-dasharray="1,0" opacity="1"></line><line transform="translate(224,-200)" x2="0" y2="200" stroke="#747474" stroke-width="1" stroke-dasharray="1,0" opacity="1"></line><line transform="translate(313,-200)" x2="0" y2="200" stroke="#747474" stroke-width="1" stroke-dasharray="1,0" opacity="1"></line><line transform="translate(403,-200)" x2="0" y2="200" stroke="#747474" stroke-width="1" stroke-dasharray="1,0" opacity="1"></line><line transform="translate(492,-200)" x2="0" y2="200" stroke="#747474" stroke-width="1" stroke-dasharray="1,0" opacity="1"></line></g></g><path class="foreground" aria-hidden="true" d="" pointer-events="none" display="none"></path></g></g><g class="mark-group role-axis" role="graphics-symbol" aria-roledescription="axis" aria-label="X-axis for a discrete scale with 6 values: Jan, Feb, Mar, Apr, May, June"><g transform="translate(0.5,200.5)"><path class="background" aria-hidden="true" d="M0,0h0v0h0Z" pointer-events="none"></path><g><g class="mark-rule role-axis-tick" pointer-events="none"><line transform="translate(45,0)" x2="0" y2="5" stroke="#888" stroke-width="1" opacity="1"></line><line transform="translate(134,0)" x2="0" y2="5" stroke="#888" stroke-width="1" opacity="1"></line><line transform="translate(224,0)" x2="0" y2="5" stroke="#888" stroke-width="1" opacity="1"></line><line transform="translate(313,0)" x2="0" y2="5" stroke="#888" stroke-width="1" opacity="1"></line><line transform="translate(403,0)" x2="0" y2="5" stroke="#888" stroke-width="1" opacity="1"></line><line transform="translate(492,0)" x2="0" y2="5" stroke="#888" stroke-width="1" opacity="1"></line></g><g class="mark-text role-axis-label" pointer-events="none"><text text-anchor="start" transform="translate(44.75,7) rotate(90) translate(0,3)" font-family="serif" font-size="11px" font-weight="normal" fill="#fff" opacity="1">Jan</text><text text-anchor="start" transform="translate(134.25,7) rotate(90) translate(0,3)" font-family="serif" font-size="11px" font-weight="normal" fill="#fff" opacity="1">Feb</text><text text-anchor="start" transform="translate(223.75,7) rotate(90) translate(0,3)" font-family="serif" font-size="11px" font-weight="normal" fill="#fff" opacity="1">Mar</text><text text-anchor="start" transform="translate(313.25,7) rotate(90) translate(0,3)" font-family="serif" font-size="11px" font-weight="normal" fill="#fff" opacity="1">Apr</text><text text-anchor="start" transform="translate(402.75,7) rotate(90) translate(0,3)" font-family="serif" font-size="11px" font-weight="normal" fill="#fff" opacity="1">May</text><text text-anchor="start" transform="translate(492.25,7) rotate(90) translate(0,3)" font-family="serif" font-size="11px" font-weight="normal" fill="#fff" opacity="1">June</text></g><g class="mark-rule role-axis-domain" pointer-events="none"><line transform="translate(0,0)" x2="537" y2="0" stroke="#888" stroke-width="1" opacity="1"></line></g></g><path class="foreground" aria-hidden="true" d="" pointer-events="none" display="none"></path></g></g><g class="mark-group role-axis" role="graphics-symbol" aria-roledescription="axis" aria-label="Y-axis for a linear scale with values from 0 to 350"><g transform="translate(0.5,0.5)"><path class="background" aria-hidden="true" d="M0,0h0v0h0Z" pointer-events="none"></path><g><g class="mark-text role-axis-label" pointer-events="none"><text text-anchor="middle" transform="translate(-2,200) rotate(90) translate(0,9)" font-family="serif" font-size="11px" font-weight="normal" fill="#fff" opacity="1">0</text><text text-anchor="middle" transform="translate(-2,171.42857142857144) rotate(90) translate(0,9)" font-family="serif" font-size="11px" font-weight="normal" fill="#fff" opacity="1">50</text><text text-anchor="middle" transform="translate(-2,142.85714285714286) rotate(90) translate(0,9)" font-family="serif" font-size="11px" font-weight="normal" fill="#fff" opacity="1">100</text><text text-anchor="middle" transform="translate(-2,114.28571428571428) rotate(90) translate(0,9)" font-family="serif" font-size="11px" font-weight="normal" fill="#fff" opacity="1">150</text><text text-anchor="middle" transform="translate(-2,85.71428571428572) rotate(90) translate(0,9)" font-family="serif" font-size="11px" font-weight="normal" fill="#fff" opacity="1">200</text><text text-anchor="middle" transform="translate(-2,57.14285714285714) rotate(90) translate(0,9)" font-family="serif" font-size="11px" font-weight="normal" fill="#fff" opacity="1">250</text><text text-anchor="middle" transform="translate(-2,28.57142857142858) rotate(90) translate(0,9)" font-family="serif" font-size="11px" font-weight="normal" fill="#fff" opacity="1">300</text><text text-anchor="middle" transform="translate(-2,0) rotate(90) translate(0,9)" font-family="serif" font-size="11px" font-weight="normal" fill="#fff" opacity="1">350</text></g></g><path class="foreground" aria-hidden="true" d="" pointer-events="none" display="none"></path></g></g><g class="mark-group role-scope layer_0_pathgroup" role="graphics-object" aria-roledescription="group mark container"><g transform="translate(0,0)"><path class="background" aria-hidden="true" d="M0,0h537v200h-537Z"></path><g><g class="mark-line role-mark layer_0_marks" role="graphics-object" aria-roledescription="line mark container"><path aria-label="Month: Jan; grade Baby: 296; Innovative vero er: ipsam" role="graphics-symbol" aria-roledescription="line mark" d="M44.75,30.85714285714285C74.58333333333334,28.360902255639104,104.41666666666669,25.864661654135347,134.25,66.85714285714286C164.08333333333331,107.84962406015038,193.91666666666663,192.3308270676692,223.75,187.42857142857144C253.58333333333337,182.5263157894737,283.4166666666667,88.24060150375941,313.25,56.00000000000001C343.0833333333333,23.759398496240603,372.9166666666667,53.563909774436084,402.75,72.57142857142857C432.5833333333333,91.57894736842105,462.41666666666663,99.78947368421052,492.25,108" stroke="#0d218f" stroke-width="2" stroke-dasharray="1,0"></path></g></g><path class="foreground" aria-hidden="true" d="" display="none"></path></g><g transform="translate(0,0)"><path class="background" aria-hidden="true" d="M0,0h537v200h-537Z"></path><g><g class="mark-line role-mark layer_0_marks" role="graphics-object" aria-roledescription="line mark container"><path aria-label="Month: Jan; grade Baby: 302; Innovative vero er: capability Coordinator transmitter" role="graphics-symbol" aria-roledescription="line mark" d="M44.75,27.428571428571423C74.58333333333334,14.662109820004558,104.41666666666669,1.8956482114376887,134.25,2.285714285714291C164.08333333333331,2.675780359990893,193.91666666666663,16.22237411711096,223.75,41.142857142857146C253.58333333333337,66.06334016860333,283.4166666666667,102.35771246297563,313.25,116.57142857142857C343.0833333333333,130.7851446798815,372.9166666666667,122.91820460241513,402.75,126.85714285714286C432.5833333333333,130.7960811118706,462.41666666666663,146.54089769879243,492.25,162.28571428571428" stroke="#dab0ee" stroke-width="2" stroke-dasharray="1,0"></path></g></g><path class="foreground" aria-hidden="true" d="" display="none"></path></g></g><g class="mark-symbol role-mark layer_1_marks" role="graphics-object" aria-roledescription="symbol mark container"><path aria-label="Month: Jan; grade Baby: 296; Innovative vero er: ipsam" role="graphics-symbol" aria-roledescription="point" transform="translate(44.75,30.85714285714285)" d="M2.7386127875258306,0A2.7386127875258306,2.7386127875258306,0,1,1,-2.7386127875258306,0A2.7386127875258306,2.7386127875258306,0,1,1,2.7386127875258306,0" fill="#333333" stroke="#0d218f" stroke-width="3" opacity="1"></path><path aria-label="Month: Feb; grade Baby: 233; Innovative vero er: ipsam" role="graphics-symbol" aria-roledescription="point" transform="translate(134.25,66.85714285714286)" d="M2.7386127875258306,0A2.7386127875258306,2.7386127875258306,0,1,1,-2.7386127875258306,0A2.7386127875258306,2.7386127875258306,0,1,1,2.7386127875258306,0" fill="#333333" stroke="#0d218f" stroke-width="3" opacity="1"></path><path aria-label="Month: Mar; grade Baby: 22; Innovative vero er: ipsam" role="graphics-symbol" aria-roledescription="point" transform="translate(223.75,187.42857142857144)" d="M2.7386127875258306,0A2.7386127875258306,2.7386127875258306,0,1,1,-2.7386127875258306,0A2.7386127875258306,2.7386127875258306,0,1,1,2.7386127875258306,0" fill="#333333" stroke="#0d218f" stroke-width="3" opacity="1"></path><path aria-label="Month: Apr; grade Baby: 252; Innovative vero er: ipsam" role="graphics-symbol" aria-roledescription="point" transform="translate(313.25,56.00000000000001)" d="M2.7386127875258306,0A2.7386127875258306,2.7386127875258306,0,1,1,-2.7386127875258306,0A2.7386127875258306,2.7386127875258306,0,1,1,2.7386127875258306,0" fill="#333333" stroke="#0d218f" stroke-width="3" opacity="1"></path><path aria-label="Month: May; grade Baby: 223; Innovative vero er: ipsam" role="graphics-symbol" aria-roledescription="point" transform="translate(402.75,72.57142857142857)" d="M2.7386127875258306,0A2.7386127875258306,2.7386127875258306,0,1,1,-2.7386127875258306,0A2.7386127875258306,2.7386127875258306,0,1,1,2.7386127875258306,0" fill="#333333" stroke="#0d218f" stroke-width="3" opacity="1"></path><path aria-label="Month: June; grade Baby: 161; Innovative vero er: ipsam" role="graphics-symbol" aria-roledescription="point" transform="translate(492.25,108)" d="M2.7386127875258306,0A2.7386127875258306,2.7386127875258306,0,1,1,-2.7386127875258306,0A2.7386127875258306,2.7386127875258306,0,1,1,2.7386127875258306,0" fill="#333333" stroke="#0d218f" stroke-width="3" opacity="1"></path><path aria-label="Month: Jan; grade Baby: 302; Innovative vero er: capability Coordinator transmitter" role="graphics-symbol" aria-roledescription="point" transform="translate(44.75,27.428571428571423)" d="M2.7386127875258306,0A2.7386127875258306,2.7386127875258306,0,1,1,-2.7386127875258306,0A2.7386127875258306,2.7386127875258306,0,1,1,2.7386127875258306,0" fill="#333333" stroke="#dab0ee" stroke-width="3" opacity="1"></path><path aria-label="Month: Feb; grade Baby: 346; Innovative vero er: capability Coordinator transmitter" role="graphics-symbol" aria-roledescription="point" transform="translate(134.25,2.285714285714291)" d="M2.7386127875258306,0A2.7386127875258306,2.7386127875258306,0,1,1,-2.7386127875258306,0A2.7386127875258306,2.7386127875258306,0,1,1,2.7386127875258306,0" fill="#333333" stroke="#dab0ee" stroke-width="3" opacity="1"></path><path aria-label="Month: Mar; grade Baby: 278; Innovative vero er: capability Coordinator transmitter" role="graphics-symbol" aria-roledescription="point" transform="translate(223.75,41.142857142857146)" d="M2.7386127875258306,0A2.7386127875258306,2.7386127875258306,0,1,1,-2.7386127875258306,0A2.7386127875258306,2.7386127875258306,0,1,1,2.7386127875258306,0" fill="#333333" stroke="#dab0ee" stroke-width="3" opacity="1"></path><path aria-label="Month: Apr; grade Baby: 146; Innovative vero er: capability Coordinator transmitter" role="graphics-symbol" aria-roledescription="point" transform="translate(313.25,116.57142857142857)" d="M2.7386127875258306,0A2.7386127875258306,2.7386127875258306,0,1,1,-2.7386127875258306,0A2.7386127875258306,2.7386127875258306,0,1,1,2.7386127875258306,0" fill="#333333" stroke="#dab0ee" stroke-width="3" opacity="1"></path><path aria-label="Month: May; grade Baby: 128; Innovative vero er: capability Coordinator transmitter" role="graphics-symbol" aria-roledescription="point" transform="translate(402.75,126.85714285714286)" d="M2.7386127875258306,0A2.7386127875258306,2.7386127875258306,0,1,1,-2.7386127875258306,0A2.7386127875258306,2.7386127875258306,0,1,1,2.7386127875258306,0" fill="#333333" stroke="#dab0ee" stroke-width="3" opacity="1"></path><path aria-label="Month: June; grade Baby: 66; Innovative vero er: capability Coordinator transmitter" role="graphics-symbol" aria-roledescription="point" transform="translate(492.25,162.28571428571428)" d="M2.7386127875258306,0A2.7386127875258306,2.7386127875258306,0,1,1,-2.7386127875258306,0A2.7386127875258306,2.7386127875258306,0,1,1,2.7386127875258306,0" fill="#333333" stroke="#dab0ee" stroke-width="3" opacity="1"></path></g><g class="mark-text role-mark layer_2_marks" role="graphics-object" aria-roledescription="text mark container"><text aria-label="Month: Jan; grade Baby: 296" role="graphics-symbol" aria-roledescription="text mark" text-anchor="middle" transform="translate(44.75,49.85714285714285)" font-family="serif" font-size="12px" fill="#fff" opacity="1">296</text><text aria-label="Month: Feb; grade Baby: 233" role="graphics-symbol" aria-roledescription="text mark" text-anchor="middle" transform="translate(134.25,85.85714285714286)" font-family="serif" font-size="12px" fill="#fff" opacity="1">233</text><text aria-label="Month: Mar; grade Baby: 22" role="graphics-symbol" aria-roledescription="text mark" text-anchor="middle" transform="translate(223.75,206.42857142857144)" font-family="serif" font-size="12px" fill="#fff" opacity="1">22</text><text aria-label="Month: Apr; grade Baby: 252" role="graphics-symbol" aria-roledescription="text mark" text-anchor="middle" transform="translate(313.25,75)" font-family="serif" font-size="12px" fill="#fff" opacity="1">252</text><text aria-label="Month: May; grade Baby: 223" role="graphics-symbol" aria-roledescription="text mark" text-anchor="middle" transform="translate(402.75,91.57142857142857)" font-family="serif" font-size="12px" fill="#fff" opacity="1">223</text><text aria-label="Month: June; grade Baby: 161" role="graphics-symbol" aria-roledescription="text mark" text-anchor="middle" transform="translate(492.25,127)" font-family="serif" font-size="12px" fill="#fff" opacity="1">161</text><text aria-label="Month: Jan; grade Baby: 302" role="graphics-symbol" aria-roledescription="text mark" text-anchor="middle" transform="translate(44.75,46.42857142857142)" font-family="serif" font-size="12px" fill="#fff" opacity="1">302</text><text aria-label="Month: Feb; grade Baby: 346" role="graphics-symbol" aria-roledescription="text mark" text-anchor="middle" transform="translate(134.25,21.285714285714292)" font-family="serif" font-size="12px" fill="#fff" opacity="1">346</text><text aria-label="Month: Mar; grade Baby: 278" role="graphics-symbol" aria-roledescription="text mark" text-anchor="middle" transform="translate(223.75,60.142857142857146)" font-family="serif" font-size="12px" fill="#fff" opacity="1">278</text><text aria-label="Month: Apr; grade Baby: 146" role="graphics-symbol" aria-roledescription="text mark" text-anchor="middle" transform="translate(313.25,135.57142857142856)" font-family="serif" font-size="12px" fill="#fff" opacity="1">146</text><text aria-label="Month: May; grade Baby: 128" role="graphics-symbol" aria-roledescription="text mark" text-anchor="middle" transform="translate(402.75,145.85714285714286)" font-family="serif" font-size="12px" fill="#fff" opacity="1">128</text><text aria-label="Month: June; grade Baby: 66" role="graphics-symbol" aria-roledescription="text mark" text-anchor="middle" transform="translate(492.25,181.28571428571428)" font-family="serif" font-size="12px" fill="#fff" opacity="1">66</text></g><g class="mark-group role-legend" role="graphics-symbol" aria-roledescription="legend" aria-label="Symbol legend titled 'Innovative vero er' for stroke color with 2 values: ipsam, capability Coordinator transmitter"><g transform="translate(0,246)"><path class="background" aria-hidden="true" d="M0,0h204v29h-204Z" pointer-events="none"></path><g><g class="mark-group role-legend-entry"><g transform="translate(0,16)"><path class="background" aria-hidden="true" d="M0,0h0v0h0Z" pointer-events="none"></path><g><g class="mark-group role-scope" role="graphics-object" aria-roledescription="group mark container"><g transform="translate(0,0.25)"><path class="background" aria-hidden="true" d="M0,0h39.88671875v12.5h-39.88671875Z" pointer-events="none" opacity="1"></path><g><g class="mark-symbol role-legend-symbol" pointer-events="none"><path transform="translate(6,6)" d="M5,0A5,5,0,1,1,-5,0A5,5,0,1,1,5,0" fill="#333333" stroke="#0d218f" stroke-width="1.5" opacity="1"></path></g><g class="mark-text role-legend-label" pointer-events="none"><text text-anchor="start" transform="translate(16,9)" font-family="serif" font-size="10px" fill="#fff" opacity="1">ipsam</text></g></g><path class="foreground" aria-hidden="true" d="" pointer-events="none" display="none"></path></g><g transform="translate(51,0.25)"><path class="background" aria-hidden="true" d="M0,0h152.07421875v12.5h-152.07421875Z" pointer-events="none" opacity="1"></path><g><g class="mark-symbol role-legend-symbol" pointer-events="none"><path transform="translate(6,6)" d="M5,0A5,5,0,1,1,-5,0A5,5,0,1,1,5,0" fill="#333333" stroke="#dab0ee" stroke-width="1.5" opacity="1"></path></g><g class="mark-text role-legend-label" pointer-events="none"><text text-anchor="start" transform="translate(16,9)" font-family="serif" font-size="10px" fill="#fff" opacity="1">capability Coordinator transmitter</text></g></g><path class="foreground" aria-hidden="true" d="" pointer-events="none" display="none"></path></g></g></g><path class="foreground" aria-hidden="true" d="" pointer-events="none" display="none"></path></g></g><g class="mark-text role-legend-title" pointer-events="none"><text text-anchor="start" transform="translate(0,9)" font-family="serif" font-size="11px" font-weight="bold" fill="#fff" opacity="1">Innovative vero er</text></g></g><path class="foreground" aria-hidden="true" d="" pointer-events="none" display="none"></path></g></g><g class="mark-group role-title"><g transform="translate(268.5,-37.25)"><path class="background" aria-hidden="true" d="M0,0h0v0h0Z" pointer-events="none"></path><g><g class="mark-text role-title-text" role="graphics-symbol" aria-roledescription="title" aria-label="Title text 'methodologies Producer Convertible'" pointer-events="none"><text text-anchor="middle" transform="translate(0,20)" font-family="serif" font-size="25px" font-weight="bold" fill="#fff" opacity="1">methodologies Producer Convertible</text></g></g><path class="foreground" aria-hidden="true" d="" pointer-events="none" display="none"></path></g></g></g><path class="foreground" aria-hidden="true" d="" display="none"></path></g></g></g></svg>