<svg xmlns="http://www.w3.org/2000/svg" xmlns:xlink="http://www.w3.org/1999/xlink" version="1.1" class="marks" width="497" height="265" viewBox="0 0 497 265" style="background-color: rgb(255, 255, 255);"><g fill="none" stroke-miterlimit="10" transform="translate(38,35)"><g class="mark-group role-frame root" role="graphics-object" aria-roledescription="group mark container"><g transform="translate(0,0)"><path class="background" aria-hidden="true" d="M0.5,0.5h454v200h-454Z" fill="transparent" stroke="#ddd"></path><g><g class="mark-group role-axis" aria-hidden="true"><g transform="translate(0.5,200.5)"><path class="background" aria-hidden="true" d="M0,0h0v0h0Z" pointer-events="none"></path><g><g class="mark-rule role-axis-grid" pointer-events="none"><line transform="translate(38,-200)" x2="0" y2="200" stroke="#D0D0D0" stroke-width="1" stroke-dasharray="4, 2" opacity="1"></line><line transform="translate(113,-200)" x2="0" y2="200" stroke="#D0D0D0" stroke-width="1" stroke-dasharray="4, 2" opacity="1"></line><line transform="translate(189,-200)" x2="0" y2="200" stroke="#D0D0D0" stroke-width="1" stroke-dasharray="4, 2" opacity="1"></line><line transform="translate(265,-200)" x2="0" y2="200" stroke="#D0D0D0" stroke-width="1" stroke-dasharray="4, 2" opacity="1"></line><line transform="translate(341,-200)" x2="0" y2="200" stroke="#D0D0D0" stroke-width="1" stroke-dasharray="4, 2" opacity="1"></line><line transform="translate(416,-200)" x2="0" y2="200" stroke="#D0D0D0" stroke-width="1" stroke-dasharray="4, 2" opacity="1"></line></g></g><path class="foreground" aria-hidden="true" d="" pointer-events="none" display="none"></path></g></g><g class="mark-group role-axis" role="graphics-symbol" aria-roledescription="axis" aria-label="X-axis for a discrete scale with 6 values: 1757, 1758, 1759, 1760, 1761, 1762"><g transform="translate(0.5,200.5)"><path class="background" aria-hidden="true" d="M0,0h0v0h0Z" pointer-events="none"></path><g><g class="mark-rule role-axis-tick" pointer-events="none"><line transform="translate(38,0)" x2="0" y2="5" stroke="#888" stroke-width="1" opacity="1"></line><line transform="translate(113,0)" x2="0" y2="5" stroke="#888" stroke-width="1" opacity="1"></line><line transform="translate(189,0)" x2="0" y2="5" stroke="#888" stroke-width="1" opacity="1"></line><line transform="translate(265,0)" x2="0" y2="5" stroke="#888" stroke-width="1" opacity="1"></line><line transform="translate(341,0)" x2="0" y2="5" stroke="#888" stroke-width="1" opacity="1"></line><line transform="translate(416,0)" x2="0" y2="5" stroke="#888" stroke-width="1" opacity="1"></line></g><g class="mark-text role-axis-label" pointer-events="none"><text text-anchor="middle" transform="translate(37.833333333333314,21)" font-family="sans-serif" font-size="18px" font-weight="normal" fill="#000" opacity="1">1757</text><text text-anchor="middle" transform="translate(113.49999999999999,21)" font-family="sans-serif" font-size="18px" font-weight="normal" fill="#000" opacity="1">1758</text><text text-anchor="middle" transform="translate(189.16666666666666,21)" font-family="sans-serif" font-size="18px" font-weight="normal" fill="#000" opacity="1">1759</text><text text-anchor="middle" transform="translate(264.8333333333333,21)" font-family="sans-serif" font-size="18px" font-weight="normal" fill="#000" opacity="1">1760</text><text text-anchor="middle" transform="translate(340.5,21)" font-family="sans-serif" font-size="18px" font-weight="normal" fill="#000" opacity="1">1761</text><text text-anchor="middle" transform="translate(416.1666666666667,21)" font-family="sans-serif" font-size="18px" font-weight="normal" fill="#000" opacity="1">1762</text></g><g class="mark-rule role-axis-domain" pointer-events="none"><line transform="translate(0,0)" x2="454" y2="0" stroke="#888" stroke-width="1" opacity="1"></line></g></g><path class="foreground" aria-hidden="true" d="" pointer-events="none" display="none"></path></g></g><g class="mark-group role-axis" role="graphics-symbol" aria-roledescription="axis" aria-label="Y-axis for a linear scale with values from 0 to 900"><g transform="translate(0.5,0.5)"><path class="background" aria-hidden="true" d="M0,0h0v0h0Z" pointer-events="none"></path><g><g class="mark-text role-axis-label" pointer-events="none"><text text-anchor="end" transform="translate(-2,205)" font-family="sans-serif" font-size="18px" font-weight="normal" fill="#000" opacity="1">0</text><text text-anchor="end" transform="translate(-2,160.55555555555557)" font-family="sans-serif" font-size="18px" font-weight="normal" fill="#000" opacity="1">200</text><text text-anchor="end" transform="translate(-2,116.11111111111111)" font-family="sans-serif" font-size="18px" font-weight="normal" fill="#000" opacity="1">400</text><text text-anchor="end" transform="translate(-2,71.66666666666667)" font-family="sans-serif" font-size="18px" font-weight="normal" fill="#000" opacity="1">600</text><text text-anchor="end" transform="translate(-2,27.222222222222232)" font-family="sans-serif" font-size="18px" font-weight="normal" fill="#000" opacity="1">800</text></g><g class="mark-rule role-axis-domain" pointer-events="none"><line transform="translate(0,200)" x2="0" y2="-200" stroke="#888" stroke-width="1" opacity="1"></line></g></g><path class="foreground" aria-hidden="true" d="" pointer-events="none" display="none"></path></g></g><g class="mark-group role-scope layer_0_pathgroup" role="graphics-object" aria-roledescription="group mark container"><g transform="translate(0,0)"><path class="background" aria-hidden="true" d="M0,0h454v200h-454Z"></path><g><g class="mark-line role-mark layer_0_marks" role="graphics-object" aria-roledescription="line mark container"><path aria-label="Year: 1757; Northeast: 892; Royce: psst ullam" role="graphics-symbol" aria-roledescription="line mark" d="M37.833333333333314,1.777777777777767C63.05555555555553,83.1465532518164,88.27777777777777,164.51532872585503,113.49999999999999,161.11111111111111C138.7222222222222,157.7068934963672,163.94444444444443,69.52968279284069,189.16666666666666,41.99999999999999C214.38888888888889,14.470317207159292,239.6111111111111,47.58816232500442,264.8333333333333,48.66666666666666C290.05555555555554,49.745171008328896,315.2777777777778,18.784334573808266,340.5,35.111111111111114C365.7222222222222,51.43788764841396,390.94444444444446,115.05227715754032,416.1666666666667,178.66666666666666" stroke="#eea092" stroke-width="2" stroke-dasharray="1,0"></path></g></g><path class="foreground" aria-hidden="true" d="" display="none"></path></g></g><g class="mark-symbol role-mark layer_1_marks" role="graphics-object" aria-roledescription="symbol mark container"><path aria-label="Year: 1757; Northeast: 892; Royce: psst ullam" role="graphics-symbol" aria-roledescription="point" transform="translate(37.833333333333314,1.777777777777767)" d="M2.23606797749979,0A2.23606797749979,2.23606797749979,0,1,1,-2.23606797749979,0A2.23606797749979,2.23606797749979,0,1,1,2.23606797749979,0" fill="#eea092" stroke-width="2" opacity="1"></path><path aria-label="Year: 1758; Northeast: 175; Royce: psst ullam" role="graphics-symbol" aria-roledescription="point" transform="translate(113.49999999999999,161.11111111111111)" d="M2.23606797749979,0A2.23606797749979,2.23606797749979,0,1,1,-2.23606797749979,0A2.23606797749979,2.23606797749979,0,1,1,2.23606797749979,0" fill="#eea092" stroke-width="2" opacity="1"></path><path aria-label="Year: 1759; Northeast: 711; Royce: psst ullam" role="graphics-symbol" aria-roledescription="point" transform="translate(189.16666666666666,41.99999999999999)" d="M2.23606797749979,0A2.23606797749979,2.23606797749979,0,1,1,-2.23606797749979,0A2.23606797749979,2.23606797749979,0,1,1,2.23606797749979,0" fill="#eea092" stroke-width="2" opacity="1"></path><path aria-label="Year: 1760; Northeast: 681; Royce: psst ullam" role="graphics-symbol" aria-roledescription="point" transform="translate(264.8333333333333,48.66666666666666)" d="M2.23606797749979,0A2.23606797749979,2.23606797749979,0,1,1,-2.23606797749979,0A2.23606797749979,2.23606797749979,0,1,1,2.23606797749979,0" fill="#eea092" stroke-width="2" opacity="1"></path><path aria-label="Year: 1761; Northeast: 742; Royce: psst ullam" role="graphics-symbol" aria-roledescription="point" transform="translate(340.5,35.111111111111114)" d="M2.23606797749979,0A2.23606797749979,2.23606797749979,0,1,1,-2.23606797749979,0A2.23606797749979,2.23606797749979,0,1,1,2.23606797749979,0" fill="#eea092" stroke-width="2" opacity="1"></path><path aria-label="Year: 1762; Northeast: 96; Royce: psst ullam" role="graphics-symbol" aria-roledescription="point" transform="translate(416.1666666666667,178.66666666666666)" d="M2.23606797749979,0A2.23606797749979,2.23606797749979,0,1,1,-2.23606797749979,0A2.23606797749979,2.23606797749979,0,1,1,2.23606797749979,0" fill="#eea092" stroke-width="2" opacity="1"></path></g><g class="mark-group role-title"><g transform="translate(454,-29.458290199722022)"><path class="background" aria-hidden="true" d="M0,0h0v0h0Z" pointer-events="none"></path><g><g class="mark-text role-title-text" role="graphics-symbol" aria-roledescription="title" aria-label="Title text 'alarm'" pointer-events="none"><text text-anchor="end" transform="translate(0,20)" font-family="sans-serif" font-size="25px" font-weight="bold" fill="#000" opacity="1">alarm</text></g></g><path class="foreground" aria-hidden="true" d="" pointer-events="none" display="none"></path></g></g></g><path class="foreground" aria-hidden="true" d="" display="none"></path></g></g></g></svg>