<svg xmlns="http://www.w3.org/2000/svg" xmlns:xlink="http://www.w3.org/1999/xlink" version="1.1" class="marks" width="501" height="277" viewBox="0 0 501 277" style="background-color: rgb(51, 51, 51);"><g fill="none" stroke-miterlimit="10" transform="translate(18,43)"><g class="mark-group role-frame root" role="graphics-object" aria-roledescription="group mark container"><g transform="translate(0,0)"><path class="background" aria-hidden="true" d="M0.5,0.5h478v200h-478Z" fill="transparent" stroke="#ddd"></path><g><g class="mark-group role-axis" role="graphics-symbol" aria-roledescription="axis" aria-label="X-axis for a discrete scale with 8 values: 1862, 1863, 1864, 1865, 1866, ending with 1869"><g transform="translate(0.5,200.5)"><path class="background" aria-hidden="true" d="M0,0h0v0h0Z" pointer-events="none"></path><g><g class="mark-rule role-axis-tick" pointer-events="none"><line transform="translate(30,0)" x2="0" y2="5" stroke="#888" stroke-width="1" opacity="1"></line><line transform="translate(90,0)" x2="0" y2="5" stroke="#888" stroke-width="1" opacity="1"></line><line transform="translate(149,0)" x2="0" y2="5" stroke="#888" stroke-width="1" opacity="1"></line><line transform="translate(209,0)" x2="0" y2="5" stroke="#888" stroke-width="1" opacity="1"></line><line transform="translate(269,0)" x2="0" y2="5" stroke="#888" stroke-width="1" opacity="1"></line><line transform="translate(329,0)" x2="0" y2="5" stroke="#888" stroke-width="1" opacity="1"></line><line transform="translate(388,0)" x2="0" y2="5" stroke="#888" stroke-width="1" opacity="1"></line><line transform="translate(448,0)" x2="0" y2="5" stroke="#888" stroke-width="1" opacity="1"></line></g><g class="mark-text role-axis-label" pointer-events="none"><text text-anchor="start" transform="translate(29.875,7) rotate(90) translate(0,3)" font-family="avenir" font-size="11px" font-weight="bold" fill="#fff" opacity="1">1862</text><text text-anchor="start" transform="translate(89.625,7) rotate(90) translate(0,3)" font-family="avenir" font-size="11px" font-weight="bold" fill="#fff" opacity="1">1863</text><text text-anchor="start" transform="translate(149.375,7) rotate(90) translate(0,3)" font-family="avenir" font-size="11px" font-weight="bold" fill="#fff" opacity="1">1864</text><text text-anchor="start" transform="translate(209.125,7) rotate(90) translate(0,3)" font-family="avenir" font-size="11px" font-weight="bold" fill="#fff" opacity="1">1865</text><text text-anchor="start" transform="translate(268.875,7) rotate(90) translate(0,3)" font-family="avenir" font-size="11px" font-weight="bold" fill="#fff" opacity="1">1866</text><text text-anchor="start" transform="translate(328.625,7) rotate(90) translate(0,3)" font-family="avenir" font-size="11px" font-weight="bold" fill="#fff" opacity="1">1867</text><text text-anchor="start" transform="translate(388.375,7) rotate(90) translate(0,3)" font-family="avenir" font-size="11px" font-weight="bold" fill="#fff" opacity="1">1868</text><text text-anchor="start" transform="translate(448.125,7) rotate(90) translate(0,3)" font-family="avenir" font-size="11px" font-weight="bold" fill="#fff" opacity="1">1869</text></g><g class="mark-rule role-axis-domain" pointer-events="none"><line transform="translate(0,0)" x2="478" y2="0" stroke="#888" stroke-width="1" opacity="1"></line></g></g><path class="foreground" aria-hidden="true" d="" pointer-events="none" display="none"></path></g></g><g class="mark-group role-axis" role="graphics-symbol" aria-roledescription="axis" aria-label="Y-axis for a linear scale with values from 0 to 800"><g transform="translate(0.5,0.5)"><path class="background" aria-hidden="true" d="M0,0h0v0h0Z" pointer-events="none"></path><g><g class="mark-text role-axis-label" pointer-events="none"><text text-anchor="middle" transform="translate(-2,200) rotate(90) translate(0,9)" font-family="avenir" font-size="11px" font-weight="bold" fill="#fff" opacity="1">0</text><text text-anchor="middle" transform="translate(-2,150) rotate(90) translate(0,9)" font-family="avenir" font-size="11px" font-weight="bold" fill="#fff" opacity="1">200</text><text text-anchor="middle" transform="translate(-2,100) rotate(90) translate(0,9)" font-family="avenir" font-size="11px" font-weight="bold" fill="#fff" opacity="1">400</text><text text-anchor="middle" transform="translate(-2,50) rotate(90) translate(0,9)" font-family="avenir" font-size="11px" font-weight="bold" fill="#fff" opacity="1">600</text><text text-anchor="middle" transform="translate(-2,0) rotate(90) translate(0,9)" font-family="avenir" font-size="11px" font-weight="bold" fill="#fff" opacity="1">800</text></g></g><path class="foreground" aria-hidden="true" d="" pointer-events="none" display="none"></path></g></g><g class="mark-group role-scope layer_0_pathgroup" role="graphics-object" aria-roledescription="group mark container"><g transform="translate(0,0)"><path class="background" aria-hidden="true" d="M0,0h478v200h-478Z"></path><g><g class="mark-line role-mark layer_0_marks" role="graphics-object" aria-roledescription="line mark container"><path aria-label="Year: 1862; Vermont: 747; female indexing Hahn: Guatemala" role="graphics-symbol" aria-roledescription="line mark" d="M29.875,13.250000000000007L89.625,66.5L149.375,47.24999999999999L209.125,61.5L268.875,170.25L328.625,193.5L388.375,175L448.125,110.75" stroke="#e1f7af" stroke-width="2" stroke-dasharray="1,0"></path></g></g><path class="foreground" aria-hidden="true" d="" display="none"></path></g></g><g class="mark-symbol role-mark layer_1_marks" role="graphics-object" aria-roledescription="symbol mark container"><path aria-label="Year: 1862; Vermont: 747; female indexing Hahn: Guatemala" role="graphics-symbol" aria-roledescription="point" transform="translate(29.875,13.250000000000007)" d="M2.7386127875258306,0A2.7386127875258306,2.7386127875258306,0,1,1,-2.7386127875258306,0A2.7386127875258306,2.7386127875258306,0,1,1,2.7386127875258306,0" fill="#333333" stroke="#e1f7af" stroke-width="3" opacity="1"></path><path aria-label="Year: 1863; Vermont: 534; female indexing Hahn: Guatemala" role="graphics-symbol" aria-roledescription="point" transform="translate(89.625,66.5)" d="M2.7386127875258306,0A2.7386127875258306,2.7386127875258306,0,1,1,-2.7386127875258306,0A2.7386127875258306,2.7386127875258306,0,1,1,2.7386127875258306,0" fill="#333333" stroke="#e1f7af" stroke-width="3" opacity="1"></path><path aria-label="Year: 1864; Vermont: 611; female indexing Hahn: Guatemala" role="graphics-symbol" aria-roledescription="point" transform="translate(149.375,47.24999999999999)" d="M2.7386127875258306,0A2.7386127875258306,2.7386127875258306,0,1,1,-2.7386127875258306,0A2.7386127875258306,2.7386127875258306,0,1,1,2.7386127875258306,0" fill="#333333" stroke="#e1f7af" stroke-width="3" opacity="1"></path><path aria-label="Year: 1865; Vermont: 554; female indexing Hahn: Guatemala" role="graphics-symbol" aria-roledescription="point" transform="translate(209.125,61.5)" d="M2.7386127875258306,0A2.7386127875258306,2.7386127875258306,0,1,1,-2.7386127875258306,0A2.7386127875258306,2.7386127875258306,0,1,1,2.7386127875258306,0" fill="#333333" stroke="#e1f7af" stroke-width="3" opacity="1"></path><path aria-label="Year: 1866; Vermont: 119; female indexing Hahn: Guatemala" role="graphics-symbol" aria-roledescription="point" transform="translate(268.875,170.25)" d="M2.7386127875258306,0A2.7386127875258306,2.7386127875258306,0,1,1,-2.7386127875258306,0A2.7386127875258306,2.7386127875258306,0,1,1,2.7386127875258306,0" fill="#333333" stroke="#e1f7af" stroke-width="3" opacity="1"></path><path aria-label="Year: 1867; Vermont: 26; female indexing Hahn: Guatemala" role="graphics-symbol" aria-roledescription="point" transform="translate(328.625,193.5)" d="M2.7386127875258306,0A2.7386127875258306,2.7386127875258306,0,1,1,-2.7386127875258306,0A2.7386127875258306,2.7386127875258306,0,1,1,2.7386127875258306,0" fill="#333333" stroke="#e1f7af" stroke-width="3" opacity="1"></path><path aria-label="Year: 1868; Vermont: 100; female indexing Hahn: Guatemala" role="graphics-symbol" aria-roledescription="point" transform="translate(388.375,175)" d="M2.7386127875258306,0A2.7386127875258306,2.7386127875258306,0,1,1,-2.7386127875258306,0A2.7386127875258306,2.7386127875258306,0,1,1,2.7386127875258306,0" fill="#333333" stroke="#e1f7af" stroke-width="3" opacity="1"></path><path aria-label="Year: 1869; Vermont: 357; female indexing Hahn: Guatemala" role="graphics-symbol" aria-roledescription="point" transform="translate(448.125,110.75)" d="M2.7386127875258306,0A2.7386127875258306,2.7386127875258306,0,1,1,-2.7386127875258306,0A2.7386127875258306,2.7386127875258306,0,1,1,2.7386127875258306,0" fill="#333333" stroke="#e1f7af" stroke-width="3" opacity="1"></path></g><g class="mark-group role-title"><g transform="translate(478,-37.25)"><path class="background" aria-hidden="true" d="M0,0h0v0h0Z" pointer-events="none"></path><g><g class="mark-text role-title-text" role="graphics-symbol" aria-roledescription="title" aria-label="Title text 'firewall Planner'" pointer-events="none"><text text-anchor="end" transform="translate(0,20)" font-family="avenir" font-size="25px" font-weight="bold" fill="#fff" opacity="1">firewall Planner</text></g></g><path class="foreground" aria-hidden="true" d="" pointer-events="none" display="none"></path></g></g></g><path class="foreground" aria-hidden="true" d="" display="none"></path></g></g></g></svg>