<svg xmlns="http://www.w3.org/2000/svg" xmlns:xlink="http://www.w3.org/1999/xlink" version="1.1" class="marks" width="619" height="283" viewBox="0 0 619 283" style="background-color: rgb(255, 255, 255);"><g fill="none" stroke-miterlimit="10" transform="translate(18,50)"><g class="mark-group role-frame root" role="graphics-object" aria-roledescription="group mark container"><g transform="translate(0,0)"><path class="background" aria-hidden="true" d="M0.5,0.5h596v200h-596Z" fill="transparent" stroke="#ddd"></path><g><g class="mark-group role-axis" aria-hidden="true"><g transform="translate(0.5,200.5)"><path class="background" aria-hidden="true" d="M0,0h0v0h0Z" pointer-events="none"></path><g><g class="mark-rule role-axis-grid" pointer-events="none"><line transform="translate(50,-200)" x2="0" y2="200" stroke="#D0D0D0" stroke-width="1" stroke-dasharray="1,0" opacity="1"></line><line transform="translate(149,-200)" x2="0" y2="200" stroke="#D0D0D0" stroke-width="1" stroke-dasharray="1,0" opacity="1"></line><line transform="translate(248,-200)" x2="0" y2="200" stroke="#D0D0D0" stroke-width="1" stroke-dasharray="1,0" opacity="1"></line><line transform="translate(348,-200)" x2="0" y2="200" stroke="#D0D0D0" stroke-width="1" stroke-dasharray="1,0" opacity="1"></line><line transform="translate(447,-200)" x2="0" y2="200" stroke="#D0D0D0" stroke-width="1" stroke-dasharray="1,0" opacity="1"></line><line transform="translate(546,-200)" x2="0" y2="200" stroke="#D0D0D0" stroke-width="1" stroke-dasharray="1,0" opacity="1"></line></g></g><path class="foreground" aria-hidden="true" d="" pointer-events="none" display="none"></path></g></g><g class="mark-group role-axis" role="graphics-symbol" aria-roledescription="axis" aria-label="X-axis for a discrete scale with 6 values: Jan, Feb, Mar, Apr, May, June"><g transform="translate(0.5,200.5)"><path class="background" aria-hidden="true" d="M0,0h0v0h0Z" pointer-events="none"></path><g><g class="mark-rule role-axis-tick" pointer-events="none"><line transform="translate(50,0)" x2="0" y2="5" stroke="#888" stroke-width="1" opacity="1"></line><line transform="translate(149,0)" x2="0" y2="5" stroke="#888" stroke-width="1" opacity="1"></line><line transform="translate(248,0)" x2="0" y2="5" stroke="#888" stroke-width="1" opacity="1"></line><line transform="translate(348,0)" x2="0" y2="5" stroke="#888" stroke-width="1" opacity="1"></line><line transform="translate(447,0)" x2="0" y2="5" stroke="#888" stroke-width="1" opacity="1"></line><line transform="translate(546,0)" x2="0" y2="5" stroke="#888" stroke-width="1" opacity="1"></line></g><g class="mark-text role-axis-label" pointer-events="none"><text text-anchor="start" transform="translate(49.666666666666686,7) rotate(90) translate(0,3)" font-family="avenir" font-size="11px" font-weight="normal" fill="#000" opacity="1">Jan</text><text text-anchor="start" transform="translate(149,7) rotate(90) translate(0,3)" font-family="avenir" font-size="11px" font-weight="normal" fill="#000" opacity="1">Feb</text><text text-anchor="start" transform="translate(248.33333333333334,7) rotate(90) translate(0,3)" font-family="avenir" font-size="11px" font-weight="normal" fill="#000" opacity="1">Mar</text><text text-anchor="start" transform="translate(347.6666666666667,7) rotate(90) translate(0,3)" font-family="avenir" font-size="11px" font-weight="normal" fill="#000" opacity="1">Apr</text><text text-anchor="start" transform="translate(447,7) rotate(90) translate(0,3)" font-family="avenir" font-size="11px" font-weight="normal" fill="#000" opacity="1">May</text><text text-anchor="start" transform="translate(546.3333333333333,7) rotate(90) translate(0,3)" font-family="avenir" font-size="11px" font-weight="normal" fill="#000" opacity="1">June</text></g><g class="mark-rule role-axis-domain" pointer-events="none"><line transform="translate(0,0)" x2="596" y2="0" stroke="#888" stroke-width="1" opacity="1"></line></g></g><path class="foreground" aria-hidden="true" d="" pointer-events="none" display="none"></path></g></g><g class="mark-group role-axis" role="graphics-symbol" aria-roledescription="axis" aria-label="Y-axis for a linear scale with values from 0 to 550"><g transform="translate(0.5,0.5)"><path class="background" aria-hidden="true" d="M0,0h0v0h0Z" pointer-events="none"></path><g><g class="mark-text role-axis-label" pointer-events="none"><text text-anchor="middle" transform="translate(-2,200) rotate(90) translate(0,9)" font-family="avenir" font-size="11px" font-weight="normal" fill="#000" opacity="1">0</text><text text-anchor="middle" transform="translate(-2,163.63636363636363) rotate(90) translate(0,9)" font-family="avenir" font-size="11px" font-weight="normal" fill="#000" opacity="1">100</text><text text-anchor="middle" transform="translate(-2,127.27272727272727) rotate(90) translate(0,9)" font-family="avenir" font-size="11px" font-weight="normal" fill="#000" opacity="1">200</text><text text-anchor="middle" transform="translate(-2,90.90909090909092) rotate(90) translate(0,9)" font-family="avenir" font-size="11px" font-weight="normal" fill="#000" opacity="1">300</text><text text-anchor="middle" transform="translate(-2,54.54545454545454) rotate(90) translate(0,9)" font-family="avenir" font-size="11px" font-weight="normal" fill="#000" opacity="1">400</text><text text-anchor="middle" transform="translate(-2,18.181818181818187) rotate(90) translate(0,9)" font-family="avenir" font-size="11px" font-weight="normal" fill="#000" opacity="1">500</text></g></g><path class="foreground" aria-hidden="true" d="" pointer-events="none" display="none"></path></g></g><g class="mark-group role-scope layer_0_pathgroup" role="graphics-object" aria-roledescription="group mark container"><g transform="translate(0,0)"><path class="background" aria-hidden="true" d="M0,0h596v200h-596Z"></path><g><g class="mark-line role-mark layer_0_marks" role="graphics-object" aria-roledescription="line mark container"><path aria-label="Month: Jan; Carolina reintermediate: 366; Account Argon: Southwest" role="graphics-symbol" aria-roledescription="line mark" d="M49.666666666666686,66.90909090909092L149,115.27272727272728L248.33333333333334,121.81818181818183L347.6666666666667,46.9090909090909L447,43.272727272727266L546.3333333333333,10.909090909090914" stroke="#063fae" stroke-width="2" stroke-dasharray="8,4"></path></g></g><path class="foreground" aria-hidden="true" d="" display="none"></path></g></g><g class="mark-symbol role-mark layer_1_marks" role="graphics-object" aria-roledescription="symbol mark container"><path aria-label="Month: Jan; Carolina reintermediate: 366; Account Argon: Southwest" role="graphics-symbol" aria-roledescription="point" transform="translate(49.666666666666686,66.90909090909092)" d="M6,0A6,6,0,1,1,-6,0A6,6,0,1,1,6,0" fill="#063fae" stroke-width="4" opacity="1"></path><path aria-label="Month: Feb; Carolina reintermediate: 233; Account Argon: Southwest" role="graphics-symbol" aria-roledescription="point" transform="translate(149,115.27272727272728)" d="M6,0A6,6,0,1,1,-6,0A6,6,0,1,1,6,0" fill="#063fae" stroke-width="4" opacity="1"></path><path aria-label="Month: Mar; Carolina reintermediate: 215; Account Argon: Southwest" role="graphics-symbol" aria-roledescription="point" transform="translate(248.33333333333334,121.81818181818183)" d="M6,0A6,6,0,1,1,-6,0A6,6,0,1,1,6,0" fill="#063fae" stroke-width="4" opacity="1"></path><path aria-label="Month: Apr; Carolina reintermediate: 421; Account Argon: Southwest" role="graphics-symbol" aria-roledescription="point" transform="translate(347.6666666666667,46.9090909090909)" d="M6,0A6,6,0,1,1,-6,0A6,6,0,1,1,6,0" fill="#063fae" stroke-width="4" opacity="1"></path><path aria-label="Month: May; Carolina reintermediate: 431; Account Argon: Southwest" role="graphics-symbol" aria-roledescription="point" transform="translate(447,43.272727272727266)" d="M6,0A6,6,0,1,1,-6,0A6,6,0,1,1,6,0" fill="#063fae" stroke-width="4" opacity="1"></path><path aria-label="Month: June; Carolina reintermediate: 520; Account Argon: Southwest" role="graphics-symbol" aria-roledescription="point" transform="translate(546.3333333333333,10.909090909090914)" d="M6,0A6,6,0,1,1,-6,0A6,6,0,1,1,6,0" fill="#063fae" stroke-width="4" opacity="1"></path></g><g class="mark-text role-mark layer_2_marks" role="graphics-object" aria-roledescription="text mark container"><text aria-label="Month: Jan; Carolina reintermediate: 366" role="graphics-symbol" aria-roledescription="text mark" text-anchor="middle" transform="translate(49.666666666666686,50.90909090909092)" font-family="avenir" font-size="13px" fill="#000" opacity="1">366</text><text aria-label="Month: Feb; Carolina reintermediate: 233" role="graphics-symbol" aria-roledescription="text mark" text-anchor="middle" transform="translate(149,99.27272727272728)" font-family="avenir" font-size="13px" fill="#000" opacity="1">233</text><text aria-label="Month: Mar; Carolina reintermediate: 215" role="graphics-symbol" aria-roledescription="text mark" text-anchor="middle" transform="translate(248.33333333333334,105.81818181818183)" font-family="avenir" font-size="13px" fill="#000" opacity="1">215</text><text aria-label="Month: Apr; Carolina reintermediate: 421" role="graphics-symbol" aria-roledescription="text mark" text-anchor="middle" transform="translate(347.6666666666667,30.9090909090909)" font-family="avenir" font-size="13px" fill="#000" opacity="1">421</text><text aria-label="Month: May; Carolina reintermediate: 431" role="graphics-symbol" aria-roledescription="text mark" text-anchor="middle" transform="translate(447,27.272727272727266)" font-family="avenir" font-size="13px" fill="#000" opacity="1">431</text><text aria-label="Month: June; Carolina reintermediate: 520" role="graphics-symbol" aria-roledescription="text mark" text-anchor="middle" transform="translate(546.3333333333333,-5.090909090909086)" font-family="avenir" font-size="13px" fill="#000" opacity="1">520</text></g><g class="mark-group role-title"><g transform="translate(298,-44.090909090909086)"><path class="background" aria-hidden="true" d="M0,0h0v0h0Z" pointer-events="none"></path><g><g class="mark-text role-title-text" role="graphics-symbol" aria-roledescription="title" aria-label="Title text 'withdrawal Rhodium up'" pointer-events="none"><text text-anchor="middle" transform="translate(0,20)" font-family="avenir" font-size="25px" font-weight="bold" fill="#000" opacity="1">withdrawal Rhodium up</text></g></g><path class="foreground" aria-hidden="true" d="" pointer-events="none" display="none"></path></g></g></g><path class="foreground" aria-hidden="true" d="" display="none"></path></g></g></g></svg>