<svg xmlns="http://www.w3.org/2000/svg" xmlns:xlink="http://www.w3.org/1999/xlink" version="1.1" class="marks" width="540" height="348" viewBox="0 0 540 348" style="background-color: rgb(51, 51, 51);"><g fill="none" stroke-miterlimit="10" transform="translate(27,55)"><g class="mark-group role-frame root" role="graphics-object" aria-roledescription="group mark container"><g transform="translate(0,0)"><path class="background" aria-hidden="true" d="M0.5,0.5h508v200h-508Z" fill="transparent" stroke="#ddd"></path><g><g class="mark-group role-axis" aria-hidden="true"><g transform="translate(0.5,200.5)"><path class="background" aria-hidden="true" d="M0,0h0v0h0Z" pointer-events="none"></path><g><g class="mark-rule role-axis-grid" pointer-events="none"><line transform="translate(25,-200)" x2="0" y2="200" stroke="#747474" stroke-width="1" stroke-dasharray="4, 2" opacity="1"></line><line transform="translate(76,-200)" x2="0" y2="200" stroke="#747474" stroke-width="1" stroke-dasharray="4, 2" opacity="1"></line><line transform="translate(127,-200)" x2="0" y2="200" stroke="#747474" stroke-width="1" stroke-dasharray="4, 2" opacity="1"></line><line transform="translate(178,-200)" x2="0" y2="200" stroke="#747474" stroke-width="1" stroke-dasharray="4, 2" opacity="1"></line><line transform="translate(229,-200)" x2="0" y2="200" stroke="#747474" stroke-width="1" stroke-dasharray="4, 2" opacity="1"></line><line transform="translate(279,-200)" x2="0" y2="200" stroke="#747474" stroke-width="1" stroke-dasharray="4, 2" opacity="1"></line><line transform="translate(330,-200)" x2="0" y2="200" stroke="#747474" stroke-width="1" stroke-dasharray="4, 2" opacity="1"></line><line transform="translate(381,-200)" x2="0" y2="200" stroke="#747474" stroke-width="1" stroke-dasharray="4, 2" opacity="1"></line><line transform="translate(432,-200)" x2="0" y2="200" stroke="#747474" stroke-width="1" stroke-dasharray="4, 2" opacity="1"></line><line transform="translate(483,-200)" x2="0" y2="200" stroke="#747474" stroke-width="1" stroke-dasharray="4, 2" opacity="1"></line></g></g><path class="foreground" aria-hidden="true" d="" pointer-events="none" display="none"></path></g></g><g class="mark-group role-axis" aria-hidden="true"><g transform="translate(0.5,0.5)"><path class="background" aria-hidden="true" d="M0,0h0v0h0Z" pointer-events="none"></path><g><g class="mark-rule role-axis-grid" pointer-events="none"><line transform="translate(0,200)" x2="508" y2="0" stroke="#747474" stroke-width="1" stroke-dasharray="4, 2" opacity="1"></line><line transform="translate(0,150)" x2="508" y2="0" stroke="#747474" stroke-width="1" stroke-dasharray="4, 2" opacity="1"></line><line transform="translate(0,100)" x2="508" y2="0" stroke="#747474" stroke-width="1" stroke-dasharray="4, 2" opacity="1"></line><line transform="translate(0,50)" x2="508" y2="0" stroke="#747474" stroke-width="1" stroke-dasharray="4, 2" opacity="1"></line><line transform="translate(0,0)" x2="508" y2="0" stroke="#747474" stroke-width="1" stroke-dasharray="4, 2" opacity="1"></line></g></g><path class="foreground" aria-hidden="true" d="" pointer-events="none" display="none"></path></g></g><g class="mark-group role-axis" role="graphics-symbol" aria-roledescription="axis" aria-label="X-axis for a discrete scale with 10 values: 1847, 1849, 1851, 1853, 1855, ending with 1865"><g transform="translate(0.5,200.5)"><path class="background" aria-hidden="true" d="M0,0h0v0h0Z" pointer-events="none"></path><g><g class="mark-rule role-axis-tick" pointer-events="none"><line transform="translate(25,0)" x2="0" y2="5" stroke="#888" stroke-width="1" opacity="1"></line><line transform="translate(76,0)" x2="0" y2="5" stroke="#888" stroke-width="1" opacity="1"></line><line transform="translate(127,0)" x2="0" y2="5" stroke="#888" stroke-width="1" opacity="1"></line><line transform="translate(178,0)" x2="0" y2="5" stroke="#888" stroke-width="1" opacity="1"></line><line transform="translate(229,0)" x2="0" y2="5" stroke="#888" stroke-width="1" opacity="1"></line><line transform="translate(279,0)" x2="0" y2="5" stroke="#888" stroke-width="1" opacity="1"></line><line transform="translate(330,0)" x2="0" y2="5" stroke="#888" stroke-width="1" opacity="1"></line><line transform="translate(381,0)" x2="0" y2="5" stroke="#888" stroke-width="1" opacity="1"></line><line transform="translate(432,0)" x2="0" y2="5" stroke="#888" stroke-width="1" opacity="1"></line><line transform="translate(483,0)" x2="0" y2="5" stroke="#888" stroke-width="1" opacity="1"></line></g><g class="mark-text role-axis-label" pointer-events="none"><text text-anchor="start" transform="translate(25.400000000000006,7) rotate(90) translate(0,5)" font-family="sans-serif" font-size="15px" font-weight="bold" fill="#fff" opacity="1">1847</text><text text-anchor="start" transform="translate(76.2,7) rotate(90) translate(0,5)" font-family="sans-serif" font-size="15px" font-weight="bold" fill="#fff" opacity="1">1849</text><text text-anchor="start" transform="translate(127,7) rotate(90) translate(0,5)" font-family="sans-serif" font-size="15px" font-weight="bold" fill="#fff" opacity="1">1851</text><text text-anchor="start" transform="translate(177.79999999999998,7) rotate(90) translate(0,5)" font-family="sans-serif" font-size="15px" font-weight="bold" fill="#fff" opacity="1">1853</text><text text-anchor="start" transform="translate(228.6,7) rotate(90) translate(0,5)" font-family="sans-serif" font-size="15px" font-weight="bold" fill="#fff" opacity="1">1855</text><text text-anchor="start" transform="translate(279.4,7) rotate(90) translate(0,5)" font-family="sans-serif" font-size="15px" font-weight="bold" fill="#fff" opacity="1">1857</text><text text-anchor="start" transform="translate(330.19999999999993,7) rotate(90) translate(0,5)" font-family="sans-serif" font-size="15px" font-weight="bold" fill="#fff" opacity="1">1859</text><text text-anchor="start" transform="translate(381,7) rotate(90) translate(0,5)" font-family="sans-serif" font-size="15px" font-weight="bold" fill="#fff" opacity="1">1861</text><text text-anchor="start" transform="translate(431.79999999999995,7) rotate(90) translate(0,5)" font-family="sans-serif" font-size="15px" font-weight="bold" fill="#fff" opacity="1">1863</text><text text-anchor="start" transform="translate(482.6,7) rotate(90) translate(0,5)" font-family="sans-serif" font-size="15px" font-weight="bold" fill="#fff" opacity="1">1865</text></g><g class="mark-rule role-axis-domain" pointer-events="none"><line transform="translate(0,0)" x2="508" y2="0" stroke="#888" stroke-width="1" opacity="1"></line></g></g><path class="foreground" aria-hidden="true" d="" pointer-events="none" display="none"></path></g></g><g class="mark-group role-axis" role="graphics-symbol" aria-roledescription="axis" aria-label="Y-axis for a linear scale with values from 0 to 800"><g transform="translate(0.5,0.5)"><path class="background" aria-hidden="true" d="M0,0h0v0h0Z" pointer-events="none"></path><g><g class="mark-rule role-axis-tick" pointer-events="none"><line transform="translate(0,200)" x2="-5" y2="0" stroke="#888" stroke-width="1" opacity="1"></line><line transform="translate(0,150)" x2="-5" y2="0" stroke="#888" stroke-width="1" opacity="1"></line><line transform="translate(0,100)" x2="-5" y2="0" stroke="#888" stroke-width="1" opacity="1"></line><line transform="translate(0,50)" x2="-5" y2="0" stroke="#888" stroke-width="1" opacity="1"></line><line transform="translate(0,0)" x2="-5" y2="0" stroke="#888" stroke-width="1" opacity="1"></line></g><g class="mark-text role-axis-label" pointer-events="none"><text text-anchor="middle" transform="translate(-7,200) rotate(90) translate(0,12)" font-family="sans-serif" font-size="15px" font-weight="bold" fill="#fff" opacity="1">0</text><text text-anchor="middle" transform="translate(-7,150) rotate(90) translate(0,12)" font-family="sans-serif" font-size="15px" font-weight="bold" fill="#fff" opacity="1">200</text><text text-anchor="middle" transform="translate(-7,100) rotate(90) translate(0,12)" font-family="sans-serif" font-size="15px" font-weight="bold" fill="#fff" opacity="1">400</text><text text-anchor="middle" transform="translate(-7,50) rotate(90) translate(0,12)" font-family="sans-serif" font-size="15px" font-weight="bold" fill="#fff" opacity="1">600</text><text text-anchor="middle" transform="translate(-7,0) rotate(90) translate(0,12)" font-family="sans-serif" font-size="15px" font-weight="bold" fill="#fff" opacity="1">800</text></g><g class="mark-rule role-axis-domain" pointer-events="none"><line transform="translate(0,200)" x2="0" y2="-200" stroke="#888" stroke-width="1" opacity="1"></line></g></g><path class="foreground" aria-hidden="true" d="" pointer-events="none" display="none"></path></g></g><g class="mark-group role-scope layer_0_pathgroup" role="graphics-object" aria-roledescription="group mark container"><g transform="translate(0,0)"><path class="background" aria-hidden="true" d="M0,0h508v200h-508Z"></path><g><g class="mark-line role-mark layer_0_marks" role="graphics-object" aria-roledescription="line mark container"><path aria-label="Year: 1847; analyzing Consultant Brand: 232; Account: optical Dalasi Nobelium" role="graphics-symbol" aria-roledescription="line mark" d="M25.400000000000006,142L76.2,156.25L127,0.24999999999999467L177.79999999999998,86.5L228.6,60.00000000000001L279.4,127L330.19999999999993,146.25L381,0.24999999999999467L431.79999999999995,158L482.6,77.25" stroke="#31cabf" stroke-width="2" stroke-dasharray="1,0"></path></g></g><path class="foreground" aria-hidden="true" d="" display="none"></path></g><g transform="translate(0,0)"><path class="background" aria-hidden="true" d="M0,0h508v200h-508Z"></path><g><g class="mark-line role-mark layer_0_marks" role="graphics-object" aria-roledescription="line mark container"><path aria-label="Year: 1847; analyzing Consultant Brand: 493; Account: SQL Southwest Account" role="graphics-symbol" aria-roledescription="line mark" d="M25.400000000000006,76.75L76.2,83L127,182.75L177.79999999999998,161L228.6,68.5L279.4,159L330.19999999999993,51L381,191L431.79999999999995,135.25L482.6,137.75" stroke="#a6fdfa" stroke-width="2" stroke-dasharray="1,0"></path></g></g><path class="foreground" aria-hidden="true" d="" display="none"></path></g></g><g class="mark-symbol role-mark layer_1_marks" role="graphics-object" aria-roledescription="symbol mark container"><path aria-label="Year: 1847; analyzing Consultant Brand: 232; Account: optical Dalasi Nobelium" role="graphics-symbol" aria-roledescription="point" transform="translate(25.400000000000006,142)" d="M2.7386127875258306,0A2.7386127875258306,2.7386127875258306,0,1,1,-2.7386127875258306,0A2.7386127875258306,2.7386127875258306,0,1,1,2.7386127875258306,0" fill="#333333" stroke="#31cabf" stroke-width="4" opacity="1"></path><path aria-label="Year: 1849; analyzing Consultant Brand: 175; Account: optical Dalasi Nobelium" role="graphics-symbol" aria-roledescription="point" transform="translate(76.2,156.25)" d="M2.7386127875258306,0A2.7386127875258306,2.7386127875258306,0,1,1,-2.7386127875258306,0A2.7386127875258306,2.7386127875258306,0,1,1,2.7386127875258306,0" fill="#333333" stroke="#31cabf" stroke-width="4" opacity="1"></path><path aria-label="Year: 1851; analyzing Consultant Brand: 799; Account: optical Dalasi Nobelium" role="graphics-symbol" aria-roledescription="point" transform="translate(127,0.24999999999999467)" d="M2.7386127875258306,0A2.7386127875258306,2.7386127875258306,0,1,1,-2.7386127875258306,0A2.7386127875258306,2.7386127875258306,0,1,1,2.7386127875258306,0" fill="#333333" stroke="#31cabf" stroke-width="4" opacity="1"></path><path aria-label="Year: 1853; analyzing Consultant Brand: 454; Account: optical Dalasi Nobelium" role="graphics-symbol" aria-roledescription="point" transform="translate(177.79999999999998,86.5)" d="M2.7386127875258306,0A2.7386127875258306,2.7386127875258306,0,1,1,-2.7386127875258306,0A2.7386127875258306,2.7386127875258306,0,1,1,2.7386127875258306,0" fill="#333333" stroke="#31cabf" stroke-width="4" opacity="1"></path><path aria-label="Year: 1855; analyzing Consultant Brand: 560; Account: optical Dalasi Nobelium" role="graphics-symbol" aria-roledescription="point" transform="translate(228.6,60.00000000000001)" d="M2.7386127875258306,0A2.7386127875258306,2.7386127875258306,0,1,1,-2.7386127875258306,0A2.7386127875258306,2.7386127875258306,0,1,1,2.7386127875258306,0" fill="#333333" stroke="#31cabf" stroke-width="4" opacity="1"></path><path aria-label="Year: 1857; analyzing Consultant Brand: 292; Account: optical Dalasi Nobelium" role="graphics-symbol" aria-roledescription="point" transform="translate(279.4,127)" d="M2.7386127875258306,0A2.7386127875258306,2.7386127875258306,0,1,1,-2.7386127875258306,0A2.7386127875258306,2.7386127875258306,0,1,1,2.7386127875258306,0" fill="#333333" stroke="#31cabf" stroke-width="4" opacity="1"></path><path aria-label="Year: 1859; analyzing Consultant Brand: 215; Account: optical Dalasi Nobelium" role="graphics-symbol" aria-roledescription="point" transform="translate(330.19999999999993,146.25)" d="M2.7386127875258306,0A2.7386127875258306,2.7386127875258306,0,1,1,-2.7386127875258306,0A2.7386127875258306,2.7386127875258306,0,1,1,2.7386127875258306,0" fill="#333333" stroke="#31cabf" stroke-width="4" opacity="1"></path><path aria-label="Year: 1861; analyzing Consultant Brand: 799; Account: optical Dalasi Nobelium" role="graphics-symbol" aria-roledescription="point" transform="translate(381,0.24999999999999467)" d="M2.7386127875258306,0A2.7386127875258306,2.7386127875258306,0,1,1,-2.7386127875258306,0A2.7386127875258306,2.7386127875258306,0,1,1,2.7386127875258306,0" fill="#333333" stroke="#31cabf" stroke-width="4" opacity="1"></path><path aria-label="Year: 1863; analyzing Consultant Brand: 168; Account: optical Dalasi Nobelium" role="graphics-symbol" aria-roledescription="point" transform="translate(431.79999999999995,158)" d="M2.7386127875258306,0A2.7386127875258306,2.7386127875258306,0,1,1,-2.7386127875258306,0A2.7386127875258306,2.7386127875258306,0,1,1,2.7386127875258306,0" fill="#333333" stroke="#31cabf" stroke-width="4" opacity="1"></path><path aria-label="Year: 1865; analyzing Consultant Brand: 491; Account: optical Dalasi Nobelium" role="graphics-symbol" aria-roledescription="point" transform="translate(482.6,77.25)" d="M2.7386127875258306,0A2.7386127875258306,2.7386127875258306,0,1,1,-2.7386127875258306,0A2.7386127875258306,2.7386127875258306,0,1,1,2.7386127875258306,0" fill="#333333" stroke="#31cabf" stroke-width="4" opacity="1"></path><path aria-label="Year: 1847; analyzing Consultant Brand: 493; Account: SQL Southwest Account" role="graphics-symbol" aria-roledescription="point" transform="translate(25.400000000000006,76.75)" d="M2.7386127875258306,0A2.7386127875258306,2.7386127875258306,0,1,1,-2.7386127875258306,0A2.7386127875258306,2.7386127875258306,0,1,1,2.7386127875258306,0" fill="#333333" stroke="#a6fdfa" stroke-width="4" opacity="1"></path><path aria-label="Year: 1849; analyzing Consultant Brand: 468; Account: SQL Southwest Account" role="graphics-symbol" aria-roledescription="point" transform="translate(76.2,83)" d="M2.7386127875258306,0A2.7386127875258306,2.7386127875258306,0,1,1,-2.7386127875258306,0A2.7386127875258306,2.7386127875258306,0,1,1,2.7386127875258306,0" fill="#333333" stroke="#a6fdfa" stroke-width="4" opacity="1"></path><path aria-label="Year: 1851; analyzing Consultant Brand: 69; Account: SQL Southwest Account" role="graphics-symbol" aria-roledescription="point" transform="translate(127,182.75)" d="M2.7386127875258306,0A2.7386127875258306,2.7386127875258306,0,1,1,-2.7386127875258306,0A2.7386127875258306,2.7386127875258306,0,1,1,2.7386127875258306,0" fill="#333333" stroke="#a6fdfa" stroke-width="4" opacity="1"></path><path aria-label="Year: 1853; analyzing Consultant Brand: 156; Account: SQL Southwest Account" role="graphics-symbol" aria-roledescription="point" transform="translate(177.79999999999998,161)" d="M2.7386127875258306,0A2.7386127875258306,2.7386127875258306,0,1,1,-2.7386127875258306,0A2.7386127875258306,2.7386127875258306,0,1,1,2.7386127875258306,0" fill="#333333" stroke="#a6fdfa" stroke-width="4" opacity="1"></path><path aria-label="Year: 1855; analyzing Consultant Brand: 526; Account: SQL Southwest Account" role="graphics-symbol" aria-roledescription="point" transform="translate(228.6,68.5)" d="M2.7386127875258306,0A2.7386127875258306,2.7386127875258306,0,1,1,-2.7386127875258306,0A2.7386127875258306,2.7386127875258306,0,1,1,2.7386127875258306,0" fill="#333333" stroke="#a6fdfa" stroke-width="4" opacity="1"></path><path aria-label="Year: 1857; analyzing Consultant Brand: 164; Account: SQL Southwest Account" role="graphics-symbol" aria-roledescription="point" transform="translate(279.4,159)" d="M2.7386127875258306,0A2.7386127875258306,2.7386127875258306,0,1,1,-2.7386127875258306,0A2.7386127875258306,2.7386127875258306,0,1,1,2.7386127875258306,0" fill="#333333" stroke="#a6fdfa" stroke-width="4" opacity="1"></path><path aria-label="Year: 1859; analyzing Consultant Brand: 596; Account: SQL Southwest Account" role="graphics-symbol" aria-roledescription="point" transform="translate(330.19999999999993,51)" d="M2.7386127875258306,0A2.7386127875258306,2.7386127875258306,0,1,1,-2.7386127875258306,0A2.7386127875258306,2.7386127875258306,0,1,1,2.7386127875258306,0" fill="#333333" stroke="#a6fdfa" stroke-width="4" opacity="1"></path><path aria-label="Year: 1861; analyzing Consultant Brand: 36; Account: SQL Southwest Account" role="graphics-symbol" aria-roledescription="point" transform="translate(381,191)" d="M2.7386127875258306,0A2.7386127875258306,2.7386127875258306,0,1,1,-2.7386127875258306,0A2.7386127875258306,2.7386127875258306,0,1,1,2.7386127875258306,0" fill="#333333" stroke="#a6fdfa" stroke-width="4" opacity="1"></path><path aria-label="Year: 1863; analyzing Consultant Brand: 259; Account: SQL Southwest Account" role="graphics-symbol" aria-roledescription="point" transform="translate(431.79999999999995,135.25)" d="M2.7386127875258306,0A2.7386127875258306,2.7386127875258306,0,1,1,-2.7386127875258306,0A2.7386127875258306,2.7386127875258306,0,1,1,2.7386127875258306,0" fill="#333333" stroke="#a6fdfa" stroke-width="4" opacity="1"></path><path aria-label="Year: 1865; analyzing Consultant Brand: 249; Account: SQL Southwest Account" role="graphics-symbol" aria-roledescription="point" transform="translate(482.6,137.75)" d="M2.7386127875258306,0A2.7386127875258306,2.7386127875258306,0,1,1,-2.7386127875258306,0A2.7386127875258306,2.7386127875258306,0,1,1,2.7386127875258306,0" fill="#333333" stroke="#a6fdfa" stroke-width="4" opacity="1"></path></g><g class="mark-text role-mark layer_2_marks" role="graphics-object" aria-roledescription="text mark container"><text aria-label="Year: 1847; analyzing Consultant Brand: 232" role="graphics-symbol" aria-roledescription="text mark" text-anchor="middle" transform="translate(25.400000000000006,130)" font-family="sans-serif" font-size="11px" fill="#fff" opacity="1">232</text><text aria-label="Year: 1849; analyzing Consultant Brand: 175" role="graphics-symbol" aria-roledescription="text mark" text-anchor="middle" transform="translate(76.2,144.25)" font-family="sans-serif" font-size="11px" fill="#fff" opacity="1">175</text><text aria-label="Year: 1851; analyzing Consultant Brand: 799" role="graphics-symbol" aria-roledescription="text mark" text-anchor="middle" transform="translate(127,-11.750000000000005)" font-family="sans-serif" font-size="11px" fill="#fff" opacity="1">799</text><text aria-label="Year: 1853; analyzing Consultant Brand: 454" role="graphics-symbol" aria-roledescription="text mark" text-anchor="middle" transform="translate(177.79999999999998,74.5)" font-family="sans-serif" font-size="11px" fill="#fff" opacity="1">454</text><text aria-label="Year: 1855; analyzing Consultant Brand: 560" role="graphics-symbol" aria-roledescription="text mark" text-anchor="middle" transform="translate(228.6,48.00000000000001)" font-family="sans-serif" font-size="11px" fill="#fff" opacity="1">560</text><text aria-label="Year: 1857; analyzing Consultant Brand: 292" role="graphics-symbol" aria-roledescription="text mark" text-anchor="middle" transform="translate(279.4,115)" font-family="sans-serif" font-size="11px" fill="#fff" opacity="1">292</text><text aria-label="Year: 1859; analyzing Consultant Brand: 215" role="graphics-symbol" aria-roledescription="text mark" text-anchor="middle" transform="translate(330.19999999999993,134.25)" font-family="sans-serif" font-size="11px" fill="#fff" opacity="1">215</text><text aria-label="Year: 1861; analyzing Consultant Brand: 799" role="graphics-symbol" aria-roledescription="text mark" text-anchor="middle" transform="translate(381,-11.750000000000005)" font-family="sans-serif" font-size="11px" fill="#fff" opacity="1">799</text><text aria-label="Year: 1863; analyzing Consultant Brand: 168" role="graphics-symbol" aria-roledescription="text mark" text-anchor="middle" transform="translate(431.79999999999995,146)" font-family="sans-serif" font-size="11px" fill="#fff" opacity="1">168</text><text aria-label="Year: 1865; analyzing Consultant Brand: 491" role="graphics-symbol" aria-roledescription="text mark" text-anchor="middle" transform="translate(482.6,65.25)" font-family="sans-serif" font-size="11px" fill="#fff" opacity="1">491</text><text aria-label="Year: 1847; analyzing Consultant Brand: 493" role="graphics-symbol" aria-roledescription="text mark" text-anchor="middle" transform="translate(25.400000000000006,64.75)" font-family="sans-serif" font-size="11px" fill="#fff" opacity="1">493</text><text aria-label="Year: 1849; analyzing Consultant Brand: 468" role="graphics-symbol" aria-roledescription="text mark" text-anchor="middle" transform="translate(76.2,71)" font-family="sans-serif" font-size="11px" fill="#fff" opacity="1">468</text><text aria-label="Year: 1851; analyzing Consultant Brand: 69" role="graphics-symbol" aria-roledescription="text mark" text-anchor="middle" transform="translate(127,170.75)" font-family="sans-serif" font-size="11px" fill="#fff" opacity="1">69</text><text aria-label="Year: 1853; analyzing Consultant Brand: 156" role="graphics-symbol" aria-roledescription="text mark" text-anchor="middle" transform="translate(177.79999999999998,149)" font-family="sans-serif" font-size="11px" fill="#fff" opacity="1">156</text><text aria-label="Year: 1855; analyzing Consultant Brand: 526" role="graphics-symbol" aria-roledescription="text mark" text-anchor="middle" transform="translate(228.6,56.5)" font-family="sans-serif" font-size="11px" fill="#fff" opacity="1">526</text><text aria-label="Year: 1857; analyzing Consultant Brand: 164" role="graphics-symbol" aria-roledescription="text mark" text-anchor="middle" transform="translate(279.4,147)" font-family="sans-serif" font-size="11px" fill="#fff" opacity="1">164</text><text aria-label="Year: 1859; analyzing Consultant Brand: 596" role="graphics-symbol" aria-roledescription="text mark" text-anchor="middle" transform="translate(330.19999999999993,39)" font-family="sans-serif" font-size="11px" fill="#fff" opacity="1">596</text><text aria-label="Year: 1861; analyzing Consultant Brand: 36" role="graphics-symbol" aria-roledescription="text mark" text-anchor="middle" transform="translate(381,179)" font-family="sans-serif" font-size="11px" fill="#fff" opacity="1">36</text><text aria-label="Year: 1863; analyzing Consultant Brand: 259" role="graphics-symbol" aria-roledescription="text mark" text-anchor="middle" transform="translate(431.79999999999995,123.25)" font-family="sans-serif" font-size="11px" fill="#fff" opacity="1">259</text><text aria-label="Year: 1865; analyzing Consultant Brand: 249" role="graphics-symbol" aria-roledescription="text mark" text-anchor="middle" transform="translate(482.6,125.75)" font-family="sans-serif" font-size="11px" fill="#fff" opacity="1">249</text></g><g class="mark-group role-legend" role="graphics-symbol" aria-roledescription="legend" aria-label="Symbol legend titled 'Account' for stroke color with 2 values: optical Dalasi Nobelium, SQL Southwest Account"><g transform="translate(0,259)"><path class="background" aria-hidden="true" d="M0,0h257v29h-257Z" pointer-events="none"></path><g><g class="mark-group role-legend-entry"><g transform="translate(0,16)"><path class="background" aria-hidden="true" d="M0,0h0v0h0Z" pointer-events="none"></path><g><g class="mark-group role-scope" role="graphics-object" aria-roledescription="group mark container"><g transform="translate(0,0.25)"><path class="background" aria-hidden="true" d="M0,0h120.4921875v12.5h-120.4921875Z" pointer-events="none" opacity="1"></path><g><g class="mark-symbol role-legend-symbol" pointer-events="none"><path transform="translate(6,6)" d="M5,0A5,5,0,1,1,-5,0A5,5,0,1,1,5,0" fill="#333333" stroke="#31cabf" stroke-width="1.5" opacity="1"></path></g><g class="mark-text role-legend-label" pointer-events="none"><text text-anchor="start" transform="translate(16,9)" font-family="sans-serif" font-size="10px" fill="#fff" opacity="1">optical Dalasi Nobelium</text></g></g><path class="foreground" aria-hidden="true" d="" pointer-events="none" display="none"></path></g><g transform="translate(132,0.25)"><path class="background" aria-hidden="true" d="M0,0h124.3935546875v12.5h-124.3935546875Z" pointer-events="none" opacity="1"></path><g><g class="mark-symbol role-legend-symbol" pointer-events="none"><path transform="translate(6,6)" d="M5,0A5,5,0,1,1,-5,0A5,5,0,1,1,5,0" fill="#333333" stroke="#a6fdfa" stroke-width="1.5" opacity="1"></path></g><g class="mark-text role-legend-label" pointer-events="none"><text text-anchor="start" transform="translate(16,9)" font-family="sans-serif" font-size="10px" fill="#fff" opacity="1">SQL Southwest Account</text></g></g><path class="foreground" aria-hidden="true" d="" pointer-events="none" display="none"></path></g></g></g><path class="foreground" aria-hidden="true" d="" pointer-events="none" display="none"></path></g></g><g class="mark-text role-legend-title" pointer-events="none"><text text-anchor="start" transform="translate(0,9)" font-family="sans-serif" font-size="11px" font-weight="bold" fill="#fff" opacity="1">Account</text></g></g><path class="foreground" aria-hidden="true" d="" pointer-events="none" display="none"></path></g></g><g class="mark-group role-title"><g transform="translate(-22,-49.75000000000001)"><path class="background" aria-hidden="true" d="M0,0h0v0h0Z" pointer-events="none"></path><g><g class="mark-text role-title-text" role="graphics-symbol" aria-roledescription="title" aria-label="Title text 'methodical CFA Group'" pointer-events="none"><text text-anchor="start" transform="translate(0,20)" font-family="sans-serif" font-size="25px" font-weight="bold" fill="#fff" opacity="1">methodical CFA Group</text></g></g><path class="foreground" aria-hidden="true" d="" pointer-events="none" display="none"></path></g></g></g><path class="foreground" aria-hidden="true" d="" display="none"></path></g></g></g></svg>