<svg xmlns="http://www.w3.org/2000/svg" xmlns:xlink="http://www.w3.org/1999/xlink" version="1.1" class="marks" width="499" height="273" viewBox="0 0 499 273" style="background-color: rgb(51, 51, 51);"><g fill="none" stroke-miterlimit="10" transform="translate(22,41)"><g class="mark-group role-frame root" role="graphics-object" aria-roledescription="group mark container"><g transform="translate(0,0)"><path class="background" aria-hidden="true" d="M0.5,0.5h472v200h-472Z" fill="transparent" stroke="#ddd"></path><g><g class="mark-group role-axis" aria-hidden="true"><g transform="translate(0.5,0.5)"><path class="background" aria-hidden="true" d="M0,0h0v0h0Z" pointer-events="none"></path><g><g class="mark-rule role-axis-grid" pointer-events="none"><line transform="translate(0,200)" x2="472" y2="0" stroke="#747474" stroke-width="1" stroke-dasharray="6, 3" opacity="1"></line><line transform="translate(0,156)" x2="472" y2="0" stroke="#747474" stroke-width="1" stroke-dasharray="6, 3" opacity="1"></line><line transform="translate(0,111)" x2="472" y2="0" stroke="#747474" stroke-width="1" stroke-dasharray="6, 3" opacity="1"></line><line transform="translate(0,67)" x2="472" y2="0" stroke="#747474" stroke-width="1" stroke-dasharray="6, 3" opacity="1"></line><line transform="translate(0,22)" x2="472" y2="0" stroke="#747474" stroke-width="1" stroke-dasharray="6, 3" opacity="1"></line></g></g><path class="foreground" aria-hidden="true" d="" pointer-events="none" display="none"></path></g></g><g class="mark-group role-axis" role="graphics-symbol" aria-roledescription="axis" aria-label="X-axis for a discrete scale with 7 values: 1783, 1784, 1785, 1786, 1787, 1788, 1789"><g transform="translate(0.5,200.5)"><path class="background" aria-hidden="true" d="M0,0h0v0h0Z" pointer-events="none"></path><g><g class="mark-rule role-axis-tick" pointer-events="none"><line transform="translate(34,0)" x2="0" y2="5" stroke="#888" stroke-width="1" opacity="1"></line><line transform="translate(101,0)" x2="0" y2="5" stroke="#888" stroke-width="1" opacity="1"></line><line transform="translate(169,0)" x2="0" y2="5" stroke="#888" stroke-width="1" opacity="1"></line><line transform="translate(236,0)" x2="0" y2="5" stroke="#888" stroke-width="1" opacity="1"></line><line transform="translate(303,0)" x2="0" y2="5" stroke="#888" stroke-width="1" opacity="1"></line><line transform="translate(371,0)" x2="0" y2="5" stroke="#888" stroke-width="1" opacity="1"></line><line transform="translate(438,0)" x2="0" y2="5" stroke="#888" stroke-width="1" opacity="1"></line></g><g class="mark-text role-axis-label" pointer-events="none"><text text-anchor="start" transform="translate(33.71428571428572,7) rotate(90) translate(0,3)" font-family="Balto" font-size="10px" font-weight="bold" fill="#fff" opacity="1">1783</text><text text-anchor="start" transform="translate(101.14285714285715,7) rotate(90) translate(0,3)" font-family="Balto" font-size="10px" font-weight="bold" fill="#fff" opacity="1">1784</text><text text-anchor="start" transform="translate(168.57142857142858,7) rotate(90) translate(0,3)" font-family="Balto" font-size="10px" font-weight="bold" fill="#fff" opacity="1">1785</text><text text-anchor="start" transform="translate(236,7) rotate(90) translate(0,3)" font-family="Balto" font-size="10px" font-weight="bold" fill="#fff" opacity="1">1786</text><text text-anchor="start" transform="translate(303.42857142857144,7) rotate(90) translate(0,3)" font-family="Balto" font-size="10px" font-weight="bold" fill="#fff" opacity="1">1787</text><text text-anchor="start" transform="translate(370.8571428571429,7) rotate(90) translate(0,3)" font-family="Balto" font-size="10px" font-weight="bold" fill="#fff" opacity="1">1788</text><text text-anchor="start" transform="translate(438.2857142857143,7) rotate(90) translate(0,3)" font-family="Balto" font-size="10px" font-weight="bold" fill="#fff" opacity="1">1789</text></g><g class="mark-rule role-axis-domain" pointer-events="none"><line transform="translate(0,0)" x2="472" y2="0" stroke="#888" stroke-width="1" opacity="1"></line></g></g><path class="foreground" aria-hidden="true" d="" pointer-events="none" display="none"></path></g></g><g class="mark-group role-axis" role="graphics-symbol" aria-roledescription="axis" aria-label="Y-axis for a linear scale with values from 0 to 9"><g transform="translate(0.5,0.5)"><path class="background" aria-hidden="true" d="M0,0h0v0h0Z" pointer-events="none"></path><g><g class="mark-rule role-axis-tick" pointer-events="none"><line transform="translate(0,200)" x2="-5" y2="0" stroke="#888" stroke-width="1" opacity="1"></line><line transform="translate(0,156)" x2="-5" y2="0" stroke="#888" stroke-width="1" opacity="1"></line><line transform="translate(0,111)" x2="-5" y2="0" stroke="#888" stroke-width="1" opacity="1"></line><line transform="translate(0,67)" x2="-5" y2="0" stroke="#888" stroke-width="1" opacity="1"></line><line transform="translate(0,22)" x2="-5" y2="0" stroke="#888" stroke-width="1" opacity="1"></line></g><g class="mark-text role-axis-label" pointer-events="none"><text text-anchor="middle" transform="translate(-7,200) rotate(90) translate(0,8)" font-family="Balto" font-size="10px" font-weight="bold" fill="#fff" opacity="1">0</text><text text-anchor="middle" transform="translate(-7,155.55555555555557) rotate(90) translate(0,8)" font-family="Balto" font-size="10px" font-weight="bold" fill="#fff" opacity="1">2</text><text text-anchor="middle" transform="translate(-7,111.11111111111111) rotate(90) translate(0,8)" font-family="Balto" font-size="10px" font-weight="bold" fill="#fff" opacity="1">4</text><text text-anchor="middle" transform="translate(-7,66.66666666666667) rotate(90) translate(0,8)" font-family="Balto" font-size="10px" font-weight="bold" fill="#fff" opacity="1">6</text><text text-anchor="middle" transform="translate(-7,22.222222222222232) rotate(90) translate(0,8)" font-family="Balto" font-size="10px" font-weight="bold" fill="#fff" opacity="1">8</text></g><g class="mark-rule role-axis-domain" pointer-events="none"><line transform="translate(0,200)" x2="0" y2="-200" stroke="#888" stroke-width="1" opacity="1"></line></g></g><path class="foreground" aria-hidden="true" d="" pointer-events="none" display="none"></path></g></g><g class="mark-group role-scope layer_0_pathgroup" role="graphics-object" aria-roledescription="group mark container"><g transform="translate(0,0)"><path class="background" aria-hidden="true" d="M0,0h472v200h-472Z"></path><g><g class="mark-line role-mark layer_0_marks" role="graphics-object" aria-roledescription="line mark container"><path aria-label="Year: 1783; Point Northwest: 9; override meh: Engineer East" role="graphics-symbol" aria-roledescription="line mark" d="M33.71428571428572,0L101.14285714285715,111.11111111111111L168.57142857142858,88.88888888888889L236,177.77777777777777L303.42857142857144,44.44444444444444L370.8571428571429,66.66666666666667L438.2857142857143,66.66666666666667" stroke="#ddeb0f" stroke-width="2" stroke-dasharray="1,0"></path></g></g><path class="foreground" aria-hidden="true" d="" display="none"></path></g></g><g class="mark-symbol role-mark layer_1_marks" role="graphics-object" aria-roledescription="symbol mark container"><path aria-label="Year: 1783; Point Northwest: 9; override meh: Engineer East" role="graphics-symbol" aria-roledescription="point" transform="translate(33.71428571428572,0)" d="M2.7386127875258306,0A2.7386127875258306,2.7386127875258306,0,1,1,-2.7386127875258306,0A2.7386127875258306,2.7386127875258306,0,1,1,2.7386127875258306,0" fill="#333333" stroke="#ddeb0f" stroke-width="4" opacity="1"></path><path aria-label="Year: 1784; Point Northwest: 4; override meh: Engineer East" role="graphics-symbol" aria-roledescription="point" transform="translate(101.14285714285715,111.11111111111111)" d="M2.7386127875258306,0A2.7386127875258306,2.7386127875258306,0,1,1,-2.7386127875258306,0A2.7386127875258306,2.7386127875258306,0,1,1,2.7386127875258306,0" fill="#333333" stroke="#ddeb0f" stroke-width="4" opacity="1"></path><path aria-label="Year: 1785; Point Northwest: 5; override meh: Engineer East" role="graphics-symbol" aria-roledescription="point" transform="translate(168.57142857142858,88.88888888888889)" d="M2.7386127875258306,0A2.7386127875258306,2.7386127875258306,0,1,1,-2.7386127875258306,0A2.7386127875258306,2.7386127875258306,0,1,1,2.7386127875258306,0" fill="#333333" stroke="#ddeb0f" stroke-width="4" opacity="1"></path><path aria-label="Year: 1786; Point Northwest: 1; override meh: Engineer East" role="graphics-symbol" aria-roledescription="point" transform="translate(236,177.77777777777777)" d="M2.7386127875258306,0A2.7386127875258306,2.7386127875258306,0,1,1,-2.7386127875258306,0A2.7386127875258306,2.7386127875258306,0,1,1,2.7386127875258306,0" fill="#333333" stroke="#ddeb0f" stroke-width="4" opacity="1"></path><path aria-label="Year: 1787; Point Northwest: 7; override meh: Engineer East" role="graphics-symbol" aria-roledescription="point" transform="translate(303.42857142857144,44.44444444444444)" d="M2.7386127875258306,0A2.7386127875258306,2.7386127875258306,0,1,1,-2.7386127875258306,0A2.7386127875258306,2.7386127875258306,0,1,1,2.7386127875258306,0" fill="#333333" stroke="#ddeb0f" stroke-width="4" opacity="1"></path><path aria-label="Year: 1788; Point Northwest: 6; override meh: Engineer East" role="graphics-symbol" aria-roledescription="point" transform="translate(370.8571428571429,66.66666666666667)" d="M2.7386127875258306,0A2.7386127875258306,2.7386127875258306,0,1,1,-2.7386127875258306,0A2.7386127875258306,2.7386127875258306,0,1,1,2.7386127875258306,0" fill="#333333" stroke="#ddeb0f" stroke-width="4" opacity="1"></path><path aria-label="Year: 1789; Point Northwest: 6; override meh: Engineer East" role="graphics-symbol" aria-roledescription="point" transform="translate(438.2857142857143,66.66666666666667)" d="M2.7386127875258306,0A2.7386127875258306,2.7386127875258306,0,1,1,-2.7386127875258306,0A2.7386127875258306,2.7386127875258306,0,1,1,2.7386127875258306,0" fill="#333333" stroke="#ddeb0f" stroke-width="4" opacity="1"></path></g><g class="mark-group role-title"><g transform="translate(472,-35.73861278752583)"><path class="background" aria-hidden="true" d="M0,0h0v0h0Z" pointer-events="none"></path><g><g class="mark-text role-title-text" role="graphics-symbol" aria-roledescription="title" aria-label="Title text 'Senior violet'" pointer-events="none"><text text-anchor="end" transform="translate(0,20)" font-family="Balto" font-size="25px" font-weight="bold" fill="#fff" opacity="1">Senior violet</text></g></g><path class="foreground" aria-hidden="true" d="" pointer-events="none" display="none"></path></g></g></g><path class="foreground" aria-hidden="true" d="" display="none"></path></g></g></g></svg>