<svg xmlns="http://www.w3.org/2000/svg" xmlns:xlink="http://www.w3.org/1999/xlink" version="1.1" class="marks" width="562" height="274" viewBox="0 0 562 274" style="background-color: rgb(51, 51, 51);"><g fill="none" stroke-miterlimit="10" transform="translate(25,38)"><g class="mark-group role-frame root" role="graphics-object" aria-roledescription="group mark container"><g transform="translate(0,0)"><path class="background" aria-hidden="true" d="M0.5,0.5h411v200h-411Z" fill="transparent" stroke="#ddd"></path><g><g class="mark-group role-axis" role="graphics-symbol" aria-roledescription="axis" aria-label="X-axis for a discrete scale with 10 values: Jan, Feb, Mar, Apr, May, ending with Oct"><g transform="translate(0.5,200.5)"><path class="background" aria-hidden="true" d="M0,0h0v0h0Z" pointer-events="none"></path><g><g class="mark-rule role-axis-tick" pointer-events="none"><line transform="translate(21,0)" x2="0" y2="5" stroke="#888" stroke-width="1" opacity="1"></line><line transform="translate(62,0)" x2="0" y2="5" stroke="#888" stroke-width="1" opacity="1"></line><line transform="translate(103,0)" x2="0" y2="5" stroke="#888" stroke-width="1" opacity="1"></line><line transform="translate(144,0)" x2="0" y2="5" stroke="#888" stroke-width="1" opacity="1"></line><line transform="translate(185,0)" x2="0" y2="5" stroke="#888" stroke-width="1" opacity="1"></line><line transform="translate(226,0)" x2="0" y2="5" stroke="#888" stroke-width="1" opacity="1"></line><line transform="translate(267,0)" x2="0" y2="5" stroke="#888" stroke-width="1" opacity="1"></line><line transform="translate(308,0)" x2="0" y2="5" stroke="#888" stroke-width="1" opacity="1"></line><line transform="translate(349,0)" x2="0" y2="5" stroke="#888" stroke-width="1" opacity="1"></line><line transform="translate(390,0)" x2="0" y2="5" stroke="#888" stroke-width="1" opacity="1"></line></g><g class="mark-text role-axis-label" pointer-events="none"><text text-anchor="start" transform="translate(20.549999999999983,7) rotate(90) translate(0,4)" font-family="avenir" font-size="13px" font-weight="normal" fill="#fff" opacity="1">Jan</text><text text-anchor="start" transform="translate(61.649999999999984,7) rotate(90) translate(0,4)" font-family="avenir" font-size="13px" font-weight="normal" fill="#fff" opacity="1">Feb</text><text text-anchor="start" transform="translate(102.74999999999999,7) rotate(90) translate(0,4)" font-family="avenir" font-size="13px" font-weight="normal" fill="#fff" opacity="1">Mar</text><text text-anchor="start" transform="translate(143.85,7) rotate(90) translate(0,4)" font-family="avenir" font-size="13px" font-weight="normal" fill="#fff" opacity="1">Apr</text><text text-anchor="start" transform="translate(184.95,7) rotate(90) translate(0,4)" font-family="avenir" font-size="13px" font-weight="normal" fill="#fff" opacity="1">May</text><text text-anchor="start" transform="translate(226.04999999999998,7) rotate(90) translate(0,4)" font-family="avenir" font-size="13px" font-weight="normal" fill="#fff" opacity="1">June</text><text text-anchor="start" transform="translate(267.15,7) rotate(90) translate(0,4)" font-family="avenir" font-size="13px" font-weight="normal" fill="#fff" opacity="1">July</text><text text-anchor="start" transform="translate(308.25,7) rotate(90) translate(0,4)" font-family="avenir" font-size="13px" font-weight="normal" fill="#fff" opacity="1">Aug</text><text text-anchor="start" transform="translate(349.35,7) rotate(90) translate(0,4)" font-family="avenir" font-size="13px" font-weight="normal" fill="#fff" opacity="1">Sep</text><text text-anchor="start" transform="translate(390.45000000000005,7) rotate(90) translate(0,4)" font-family="avenir" font-size="13px" font-weight="normal" fill="#fff" opacity="1">Oct</text></g><g class="mark-rule role-axis-domain" pointer-events="none"><line transform="translate(0,0)" x2="411" y2="0" stroke="#888" stroke-width="1" opacity="1"></line></g></g><path class="foreground" aria-hidden="true" d="" pointer-events="none" display="none"></path></g></g><g class="mark-group role-axis" role="graphics-symbol" aria-roledescription="axis" aria-label="Y-axis for a linear scale with values from 0 to 110"><g transform="translate(0.5,0.5)"><path class="background" aria-hidden="true" d="M0,0h0v0h0Z" pointer-events="none"></path><g><g class="mark-rule role-axis-tick" pointer-events="none"><line transform="translate(0,200)" x2="-5" y2="0" stroke="#888" stroke-width="1" opacity="1"></line><line transform="translate(0,164)" x2="-5" y2="0" stroke="#888" stroke-width="1" opacity="1"></line><line transform="translate(0,127)" x2="-5" y2="0" stroke="#888" stroke-width="1" opacity="1"></line><line transform="translate(0,91)" x2="-5" y2="0" stroke="#888" stroke-width="1" opacity="1"></line><line transform="translate(0,55)" x2="-5" y2="0" stroke="#888" stroke-width="1" opacity="1"></line><line transform="translate(0,18)" x2="-5" y2="0" stroke="#888" stroke-width="1" opacity="1"></line></g><g class="mark-text role-axis-label" pointer-events="none"><text text-anchor="middle" transform="translate(-7,200) rotate(90) translate(0,10)" font-family="avenir" font-size="13px" font-weight="normal" fill="#fff" opacity="1">0</text><text text-anchor="middle" transform="translate(-7,163.63636363636363) rotate(90) translate(0,10)" font-family="avenir" font-size="13px" font-weight="normal" fill="#fff" opacity="1">20</text><text text-anchor="middle" transform="translate(-7,127.27272727272727) rotate(90) translate(0,10)" font-family="avenir" font-size="13px" font-weight="normal" fill="#fff" opacity="1">40</text><text text-anchor="middle" transform="translate(-7,90.90909090909092) rotate(90) translate(0,10)" font-family="avenir" font-size="13px" font-weight="normal" fill="#fff" opacity="1">60</text><text text-anchor="middle" transform="translate(-7,54.54545454545454) rotate(90) translate(0,10)" font-family="avenir" font-size="13px" font-weight="normal" fill="#fff" opacity="1">80</text><text text-anchor="middle" transform="translate(-7,18.181818181818187) rotate(90) translate(0,10)" font-family="avenir" font-size="13px" font-weight="normal" fill="#fff" opacity="1">100</text></g></g><path class="foreground" aria-hidden="true" d="" pointer-events="none" display="none"></path></g></g><g class="mark-group role-scope layer_0_pathgroup" role="graphics-object" aria-roledescription="group mark container"><g transform="translate(0,0)"><path class="background" aria-hidden="true" d="M0,0h411v200h-411Z"></path><g><g class="mark-line role-mark layer_0_marks" role="graphics-object" aria-roledescription="line mark container"><path aria-label="Month: Jan; deserunt West: 87; West Bismuth: Hat katal Switzerland" role="graphics-symbol" aria-roledescription="line mark" d="M20.549999999999983,41.81818181818182C34.249999999999986,80.35726857924416,47.949999999999974,118.89635534030649,61.649999999999984,127.27272727272727C75.35,135.64909920514805,89.04999999999997,113.86275630892723,102.74999999999999,114.54545454545455C116.45,115.22815278198186,130.15,138.3798921512573,143.85,118.18181818181816C157.54999999999998,97.98374421237902,171.25,34.435856904225375,184.95,10.909090909090914C198.64999999999998,-12.617675086043548,212.34999999999994,3.876680231841174,226.04999999999998,10.909090909090914C239.75000000000003,17.941501586340653,253.45,15.51196762295541,267.15,52.727272727272734C280.84999999999997,89.94257783159006,294.54999999999995,166.8027220036099,308.25,169.0909090909091C321.95000000000005,171.3790961782083,335.65000000000003,99.09532618078677,349.35,78.18181818181817C363.05,57.26831018284957,376.75,87.72506418233387,390.45000000000005,118.18181818181816" stroke="#e7dbed" stroke-width="2" stroke-dasharray="8,8"></path></g></g><path class="foreground" aria-hidden="true" d="" display="none"></path></g><g transform="translate(0,0)"><path class="background" aria-hidden="true" d="M0,0h411v200h-411Z"></path><g><g class="mark-line role-mark layer_0_marks" role="graphics-object" aria-roledescription="line mark container"><path aria-label="Month: Jan; deserunt West: 96; West Bismuth: gee Liaison" role="graphics-symbol" aria-roledescription="line mark" d="M20.549999999999983,25.454545454545464C34.249999999999986,12.856182991588096,47.949999999999974,0.25782052863072646,61.649999999999984,1.8181818181818077C75.35,3.378543107732889,89.04999999999997,19.09762814979242,102.74999999999999,25.454545454545464C116.45,31.811462759298507,130.15,28.80621232674507,143.85,41.81818181818182C157.54999999999998,54.83015130961857,171.25,83.8593407250455,184.95,85.45454545454545C198.64999999999998,87.04975018404541,212.34999999999994,61.2109702276184,226.04999999999998,47.272727272727266C239.75000000000003,33.334484317836136,253.45,31.296778364480886,267.15,70.9090909090909C280.84999999999997,110.52140345370093,294.54999999999995,191.78373449627614,308.25,170.9090909090909C321.95000000000005,150.03444732190567,335.65000000000003,27.02282910496006,349.35,9.090909090909083C363.05,-8.841010923141894,376.75,78.30676726570178,390.45000000000005,165.45454545454547" stroke="#b39cec" stroke-width="2" stroke-dasharray="8,8"></path></g></g><path class="foreground" aria-hidden="true" d="" display="none"></path></g></g><g class="mark-symbol role-mark layer_1_marks" role="graphics-object" aria-roledescription="symbol mark container"><path aria-label="Month: Jan; deserunt West: 87; West Bismuth: Hat katal Switzerland" role="graphics-symbol" aria-roledescription="point" transform="translate(20.549999999999983,41.81818181818182)" d="M0,0" fill="#e7dbed" stroke-width="2" opacity="1"></path><path aria-label="Month: Feb; deserunt West: 40; West Bismuth: Hat katal Switzerland" role="graphics-symbol" aria-roledescription="point" transform="translate(61.649999999999984,127.27272727272727)" d="M0,0" fill="#e7dbed" stroke-width="2" opacity="1"></path><path aria-label="Month: Mar; deserunt West: 47; West Bismuth: Hat katal Switzerland" role="graphics-symbol" aria-roledescription="point" transform="translate(102.74999999999999,114.54545454545455)" d="M0,0" fill="#e7dbed" stroke-width="2" opacity="1"></path><path aria-label="Month: Apr; deserunt West: 45; West Bismuth: Hat katal Switzerland" role="graphics-symbol" aria-roledescription="point" transform="translate(143.85,118.18181818181816)" d="M0,0" fill="#e7dbed" stroke-width="2" opacity="1"></path><path aria-label="Month: May; deserunt West: 104; West Bismuth: Hat katal Switzerland" role="graphics-symbol" aria-roledescription="point" transform="translate(184.95,10.909090909090914)" d="M0,0" fill="#e7dbed" stroke-width="2" opacity="1"></path><path aria-label="Month: June; deserunt West: 104; West Bismuth: Hat katal Switzerland" role="graphics-symbol" aria-roledescription="point" transform="translate(226.04999999999998,10.909090909090914)" d="M0,0" fill="#e7dbed" stroke-width="2" opacity="1"></path><path aria-label="Month: July; deserunt West: 81; West Bismuth: Hat katal Switzerland" role="graphics-symbol" aria-roledescription="point" transform="translate(267.15,52.727272727272734)" d="M0,0" fill="#e7dbed" stroke-width="2" opacity="1"></path><path aria-label="Month: Aug; deserunt West: 17; West Bismuth: Hat katal Switzerland" role="graphics-symbol" aria-roledescription="point" transform="translate(308.25,169.0909090909091)" d="M0,0" fill="#e7dbed" stroke-width="2" opacity="1"></path><path aria-label="Month: Sep; deserunt West: 67; West Bismuth: Hat katal Switzerland" role="graphics-symbol" aria-roledescription="point" transform="translate(349.35,78.18181818181817)" d="M0,0" fill="#e7dbed" stroke-width="2" opacity="1"></path><path aria-label="Month: Oct; deserunt West: 45; West Bismuth: Hat katal Switzerland" role="graphics-symbol" aria-roledescription="point" transform="translate(390.45000000000005,118.18181818181816)" d="M0,0" fill="#e7dbed" stroke-width="2" opacity="1"></path><path aria-label="Month: Jan; deserunt West: 96; West Bismuth: gee Liaison" role="graphics-symbol" aria-roledescription="point" transform="translate(20.549999999999983,25.454545454545464)" d="M0,0" fill="#b39cec" stroke-width="2" opacity="1"></path><path aria-label="Month: Feb; deserunt West: 109; West Bismuth: gee Liaison" role="graphics-symbol" aria-roledescription="point" transform="translate(61.649999999999984,1.8181818181818077)" d="M0,0" fill="#b39cec" stroke-width="2" opacity="1"></path><path aria-label="Month: Mar; deserunt West: 96; West Bismuth: gee Liaison" role="graphics-symbol" aria-roledescription="point" transform="translate(102.74999999999999,25.454545454545464)" d="M0,0" fill="#b39cec" stroke-width="2" opacity="1"></path><path aria-label="Month: Apr; deserunt West: 87; West Bismuth: gee Liaison" role="graphics-symbol" aria-roledescription="point" transform="translate(143.85,41.81818181818182)" d="M0,0" fill="#b39cec" stroke-width="2" opacity="1"></path><path aria-label="Month: May; deserunt West: 63; West Bismuth: gee Liaison" role="graphics-symbol" aria-roledescription="point" transform="translate(184.95,85.45454545454545)" d="M0,0" fill="#b39cec" stroke-width="2" opacity="1"></path><path aria-label="Month: June; deserunt West: 84; West Bismuth: gee Liaison" role="graphics-symbol" aria-roledescription="point" transform="translate(226.04999999999998,47.272727272727266)" d="M0,0" fill="#b39cec" stroke-width="2" opacity="1"></path><path aria-label="Month: July; deserunt West: 71; West Bismuth: gee Liaison" role="graphics-symbol" aria-roledescription="point" transform="translate(267.15,70.9090909090909)" d="M0,0" fill="#b39cec" stroke-width="2" opacity="1"></path><path aria-label="Month: Aug; deserunt West: 16; West Bismuth: gee Liaison" role="graphics-symbol" aria-roledescription="point" transform="translate(308.25,170.9090909090909)" d="M0,0" fill="#b39cec" stroke-width="2" opacity="1"></path><path aria-label="Month: Sep; deserunt West: 105; West Bismuth: gee Liaison" role="graphics-symbol" aria-roledescription="point" transform="translate(349.35,9.090909090909083)" d="M0,0" fill="#b39cec" stroke-width="2" opacity="1"></path><path aria-label="Month: Oct; deserunt West: 19; West Bismuth: gee Liaison" role="graphics-symbol" aria-roledescription="point" transform="translate(390.45000000000005,165.45454545454547)" d="M0,0" fill="#b39cec" stroke-width="2" opacity="1"></path></g><g class="mark-group role-legend" role="graphics-symbol" aria-roledescription="legend" aria-label="Symbol legend for fill color and stroke color with 2 values: Hat katal Switzerland, gee Liaison"><g transform="translate(429,0)"><path class="background" aria-hidden="true" d="M0,0h103v29h-103Z" pointer-events="none"></path><g><g class="mark-group role-legend-entry"><g transform="translate(0,0)"><path class="background" aria-hidden="true" d="M0,0h0v0h0Z" pointer-events="none"></path><g><g class="mark-group role-scope" role="graphics-object" aria-roledescription="group mark container"><g transform="translate(0,0)"><path class="background" aria-hidden="true" d="M0,0h102.6357421875v12.5h-102.6357421875Z" pointer-events="none" opacity="1"></path><g><g class="mark-symbol role-legend-symbol" pointer-events="none"><path transform="translate(6,6)" d="M5,0A5,5,0,1,1,-5,0A5,5,0,1,1,5,0" fill="#e7dbed" stroke="#e7dbed" stroke-width="1.5" opacity="1"></path></g><g class="mark-text role-legend-label" pointer-events="none"><text text-anchor="start" transform="translate(16,9)" font-family="avenir" font-size="10px" fill="#fff" opacity="1">Hat katal Switzerland</text></g></g><path class="foreground" aria-hidden="true" d="" pointer-events="none" display="none"></path></g><g transform="translate(0,16)"><path class="background" aria-hidden="true" d="M0,0h102.6357421875v12.5h-102.6357421875Z" pointer-events="none" opacity="1"></path><g><g class="mark-symbol role-legend-symbol" pointer-events="none"><path transform="translate(6,6)" d="M5,0A5,5,0,1,1,-5,0A5,5,0,1,1,5,0" fill="#b39cec" stroke="#b39cec" stroke-width="1.5" opacity="1"></path></g><g class="mark-text role-legend-label" pointer-events="none"><text text-anchor="start" transform="translate(16,9)" font-family="avenir" font-size="10px" fill="#fff" opacity="1">gee Liaison</text></g></g><path class="foreground" aria-hidden="true" d="" pointer-events="none" display="none"></path></g></g></g><path class="foreground" aria-hidden="true" d="" pointer-events="none" display="none"></path></g></g></g><path class="foreground" aria-hidden="true" d="" pointer-events="none" display="none"></path></g></g><g class="mark-group role-title"><g transform="translate(532,-32.29183616939734)"><path class="background" aria-hidden="true" d="M0,0h0v0h0Z" pointer-events="none"></path><g><g class="mark-text role-title-text" role="graphics-symbol" aria-roledescription="title" aria-label="Title text 'Southeast Turkey'" pointer-events="none"><text text-anchor="end" transform="translate(0,20)" font-family="avenir" font-size="25px" font-weight="bold" fill="#fff" opacity="1">Southeast Turkey</text></g></g><path class="foreground" aria-hidden="true" d="" pointer-events="none" display="none"></path></g></g></g><path class="foreground" aria-hidden="true" d="" display="none"></path></g></g></g></svg>