<svg xmlns="http://www.w3.org/2000/svg" xmlns:xlink="http://www.w3.org/1999/xlink" version="1.1" class="marks" width="896" height="297" viewBox="0 0 896 297" style="background-color: rgb(51, 51, 51);"><g fill="none" stroke-miterlimit="10" transform="translate(21,54)"><g class="mark-group role-frame root" role="graphics-object" aria-roledescription="group mark container"><g transform="translate(0,0)"><path class="background" aria-hidden="true" d="M0.5,0.5h870v200h-870Z" fill="transparent" stroke="#ddd"></path><g><g class="mark-group role-axis" aria-hidden="true"><g transform="translate(0.5,200.5)"><path class="background" aria-hidden="true" d="M0,0h0v0h0Z" pointer-events="none"></path><g><g class="mark-rule role-axis-grid" pointer-events="none"><line transform="translate(54,-200)" x2="0" y2="200" stroke="#747474" stroke-width="1" stroke-dasharray="4, 2" opacity="1"></line><line transform="translate(163,-200)" x2="0" y2="200" stroke="#747474" stroke-width="1" stroke-dasharray="4, 2" opacity="1"></line><line transform="translate(272,-200)" x2="0" y2="200" stroke="#747474" stroke-width="1" stroke-dasharray="4, 2" opacity="1"></line><line transform="translate(381,-200)" x2="0" y2="200" stroke="#747474" stroke-width="1" stroke-dasharray="4, 2" opacity="1"></line><line transform="translate(489,-200)" x2="0" y2="200" stroke="#747474" stroke-width="1" stroke-dasharray="4, 2" opacity="1"></line><line transform="translate(598,-200)" x2="0" y2="200" stroke="#747474" stroke-width="1" stroke-dasharray="4, 2" opacity="1"></line><line transform="translate(707,-200)" x2="0" y2="200" stroke="#747474" stroke-width="1" stroke-dasharray="4, 2" opacity="1"></line><line transform="translate(816,-200)" x2="0" y2="200" stroke="#747474" stroke-width="1" stroke-dasharray="4, 2" opacity="1"></line></g></g><path class="foreground" aria-hidden="true" d="" pointer-events="none" display="none"></path></g></g><g class="mark-group role-axis" role="graphics-symbol" aria-roledescription="axis" aria-label="X-axis for a discrete scale with 8 values: 1866, 1867, 1868, 1869, 1870, ending with 1873"><g transform="translate(0.5,200.5)"><path class="background" aria-hidden="true" d="M0,0h0v0h0Z" pointer-events="none"></path><g><g class="mark-rule role-axis-tick" pointer-events="none"><line transform="translate(54,0)" x2="0" y2="5" stroke="#888" stroke-width="1" opacity="1"></line><line transform="translate(163,0)" x2="0" y2="5" stroke="#888" stroke-width="1" opacity="1"></line><line transform="translate(272,0)" x2="0" y2="5" stroke="#888" stroke-width="1" opacity="1"></line><line transform="translate(381,0)" x2="0" y2="5" stroke="#888" stroke-width="1" opacity="1"></line><line transform="translate(489,0)" x2="0" y2="5" stroke="#888" stroke-width="1" opacity="1"></line><line transform="translate(598,0)" x2="0" y2="5" stroke="#888" stroke-width="1" opacity="1"></line><line transform="translate(707,0)" x2="0" y2="5" stroke="#888" stroke-width="1" opacity="1"></line><line transform="translate(816,0)" x2="0" y2="5" stroke="#888" stroke-width="1" opacity="1"></line></g><g class="mark-text role-axis-label" pointer-events="none"><text text-anchor="start" transform="translate(54.375,7) rotate(90) translate(0,4)" font-family="monospace" font-size="14px" font-weight="bold" fill="#fff" opacity="1">1866</text><text text-anchor="start" transform="translate(163.125,7) rotate(90) translate(0,4)" font-family="monospace" font-size="14px" font-weight="bold" fill="#fff" opacity="1">1867</text><text text-anchor="start" transform="translate(271.875,7) rotate(90) translate(0,4)" font-family="monospace" font-size="14px" font-weight="bold" fill="#fff" opacity="1">1868</text><text text-anchor="start" transform="translate(380.625,7) rotate(90) translate(0,4)" font-family="monospace" font-size="14px" font-weight="bold" fill="#fff" opacity="1">1869</text><text text-anchor="start" transform="translate(489.375,7) rotate(90) translate(0,4)" font-family="monospace" font-size="14px" font-weight="bold" fill="#fff" opacity="1">1870</text><text text-anchor="start" transform="translate(598.125,7) rotate(90) translate(0,4)" font-family="monospace" font-size="14px" font-weight="bold" fill="#fff" opacity="1">1871</text><text text-anchor="start" transform="translate(706.875,7) rotate(90) translate(0,4)" font-family="monospace" font-size="14px" font-weight="bold" fill="#fff" opacity="1">1872</text><text text-anchor="start" transform="translate(815.625,7) rotate(90) translate(0,4)" font-family="monospace" font-size="14px" font-weight="bold" fill="#fff" opacity="1">1873</text></g><g class="mark-rule role-axis-domain" pointer-events="none"><line transform="translate(0,0)" x2="870" y2="0" stroke="#888" stroke-width="1" opacity="1"></line></g></g><path class="foreground" aria-hidden="true" d="" pointer-events="none" display="none"></path></g></g><g class="mark-group role-axis" role="graphics-symbol" aria-roledescription="axis" aria-label="Y-axis for a linear scale with values from 0 to 1,000"><g transform="translate(0.5,0.5)"><path class="background" aria-hidden="true" d="M0,0h0v0h0Z" pointer-events="none"></path><g><g class="mark-text role-axis-label" pointer-events="none"><text text-anchor="middle" transform="translate(-2,200) rotate(90) translate(0,11)" font-family="monospace" font-size="14px" font-weight="bold" fill="#fff" opacity="1">0</text><text text-anchor="middle" transform="translate(-2,160) rotate(90) translate(0,11)" font-family="monospace" font-size="14px" font-weight="bold" fill="#fff" opacity="1">200</text><text text-anchor="middle" transform="translate(-2,120) rotate(90) translate(0,11)" font-family="monospace" font-size="14px" font-weight="bold" fill="#fff" opacity="1">400</text><text text-anchor="middle" transform="translate(-2,80) rotate(90) translate(0,11)" font-family="monospace" font-size="14px" font-weight="bold" fill="#fff" opacity="1">600</text><text text-anchor="middle" transform="translate(-2,39.99999999999999) rotate(90) translate(0,11)" font-family="monospace" font-size="14px" font-weight="bold" fill="#fff" opacity="1">800</text><text text-anchor="middle" transform="translate(-2,0) rotate(90) translate(0,11)" font-family="monospace" font-size="14px" font-weight="bold" fill="#fff" opacity="1">1,000</text></g><g class="mark-rule role-axis-domain" pointer-events="none"><line transform="translate(0,200)" x2="0" y2="-200" stroke="#888" stroke-width="1" opacity="1"></line></g></g><path class="foreground" aria-hidden="true" d="" pointer-events="none" display="none"></path></g></g><g class="mark-group role-scope layer_0_pathgroup" role="graphics-object" aria-roledescription="group mark container"><g transform="translate(0,0)"><path class="background" aria-hidden="true" d="M0,0h870v200h-870Z"></path><g><g class="mark-line role-mark layer_0_marks" role="graphics-object" aria-roledescription="line mark container"><path aria-label="Year: 1866; Bicycle: 310; Jazz Bronze: Cambridgeshire Mississippi suscipit" role="graphics-symbol" aria-roledescription="line mark" d="M54.375,138L163.125,56.400000000000006L271.875,188.20000000000002L380.625,178.2L489.375,3.600000000000003L598.125,70.6L706.875,139.2L815.625,175.4" stroke="#343bca" stroke-width="2" stroke-dasharray="1,0"></path></g></g><path class="foreground" aria-hidden="true" d="" display="none"></path></g></g><g class="mark-symbol role-mark layer_1_marks" role="graphics-object" aria-roledescription="symbol mark container"><path aria-label="Year: 1866; Bicycle: 310; Jazz Bronze: Cambridgeshire Mississippi suscipit" role="graphics-symbol" aria-roledescription="point" transform="translate(54.375,138)" d="M5.172040216394301,0A5.172040216394301,5.172040216394301,0,1,1,-5.172040216394301,0A5.172040216394301,5.172040216394301,0,1,1,5.172040216394301,0" fill="#343bca" stroke-width="3" opacity="1"></path><path aria-label="Year: 1867; Bicycle: 718; Jazz Bronze: Cambridgeshire Mississippi suscipit" role="graphics-symbol" aria-roledescription="point" transform="translate(163.125,56.400000000000006)" d="M5.172040216394301,0A5.172040216394301,5.172040216394301,0,1,1,-5.172040216394301,0A5.172040216394301,5.172040216394301,0,1,1,5.172040216394301,0" fill="#343bca" stroke-width="3" opacity="1"></path><path aria-label="Year: 1868; Bicycle: 59; Jazz Bronze: Cambridgeshire Mississippi suscipit" role="graphics-symbol" aria-roledescription="point" transform="translate(271.875,188.20000000000002)" d="M5.172040216394301,0A5.172040216394301,5.172040216394301,0,1,1,-5.172040216394301,0A5.172040216394301,5.172040216394301,0,1,1,5.172040216394301,0" fill="#343bca" stroke-width="3" opacity="1"></path><path aria-label="Year: 1869; Bicycle: 109; Jazz Bronze: Cambridgeshire Mississippi suscipit" role="graphics-symbol" aria-roledescription="point" transform="translate(380.625,178.2)" d="M5.172040216394301,0A5.172040216394301,5.172040216394301,0,1,1,-5.172040216394301,0A5.172040216394301,5.172040216394301,0,1,1,5.172040216394301,0" fill="#343bca" stroke-width="3" opacity="1"></path><path aria-label="Year: 1870; Bicycle: 982; Jazz Bronze: Cambridgeshire Mississippi suscipit" role="graphics-symbol" aria-roledescription="point" transform="translate(489.375,3.600000000000003)" d="M5.172040216394301,0A5.172040216394301,5.172040216394301,0,1,1,-5.172040216394301,0A5.172040216394301,5.172040216394301,0,1,1,5.172040216394301,0" fill="#343bca" stroke-width="3" opacity="1"></path><path aria-label="Year: 1871; Bicycle: 647; Jazz Bronze: Cambridgeshire Mississippi suscipit" role="graphics-symbol" aria-roledescription="point" transform="translate(598.125,70.6)" d="M5.172040216394301,0A5.172040216394301,5.172040216394301,0,1,1,-5.172040216394301,0A5.172040216394301,5.172040216394301,0,1,1,5.172040216394301,0" fill="#343bca" stroke-width="3" opacity="1"></path><path aria-label="Year: 1872; Bicycle: 304; Jazz Bronze: Cambridgeshire Mississippi suscipit" role="graphics-symbol" aria-roledescription="point" transform="translate(706.875,139.2)" d="M5.172040216394301,0A5.172040216394301,5.172040216394301,0,1,1,-5.172040216394301,0A5.172040216394301,5.172040216394301,0,1,1,5.172040216394301,0" fill="#343bca" stroke-width="3" opacity="1"></path><path aria-label="Year: 1873; Bicycle: 123; Jazz Bronze: Cambridgeshire Mississippi suscipit" role="graphics-symbol" aria-roledescription="point" transform="translate(815.625,175.4)" d="M5.172040216394301,0A5.172040216394301,5.172040216394301,0,1,1,-5.172040216394301,0A5.172040216394301,5.172040216394301,0,1,1,5.172040216394301,0" fill="#343bca" stroke-width="3" opacity="1"></path></g><g class="mark-text role-mark layer_2_marks" role="graphics-object" aria-roledescription="text mark container"><text aria-label="Year: 1866; Bicycle: 310" role="graphics-symbol" aria-roledescription="text mark" text-anchor="middle" transform="translate(54.375,127)" font-family="monospace" font-size="13px" fill="#fff" opacity="1">310</text><text aria-label="Year: 1867; Bicycle: 718" role="graphics-symbol" aria-roledescription="text mark" text-anchor="middle" transform="translate(163.125,45.400000000000006)" font-family="monospace" font-size="13px" fill="#fff" opacity="1">718</text><text aria-label="Year: 1868; Bicycle: 59" role="graphics-symbol" aria-roledescription="text mark" text-anchor="middle" transform="translate(271.875,177.20000000000002)" font-family="monospace" font-size="13px" fill="#fff" opacity="1">59</text><text aria-label="Year: 1869; Bicycle: 109" role="graphics-symbol" aria-roledescription="text mark" text-anchor="middle" transform="translate(380.625,167.2)" font-family="monospace" font-size="13px" fill="#fff" opacity="1">109</text><text aria-label="Year: 1870; Bicycle: 982" role="graphics-symbol" aria-roledescription="text mark" text-anchor="middle" transform="translate(489.375,-7.399999999999997)" font-family="monospace" font-size="13px" fill="#fff" opacity="1">982</text><text aria-label="Year: 1871; Bicycle: 647" role="graphics-symbol" aria-roledescription="text mark" text-anchor="middle" transform="translate(598.125,59.599999999999994)" font-family="monospace" font-size="13px" fill="#fff" opacity="1">647</text><text aria-label="Year: 1872; Bicycle: 304" role="graphics-symbol" aria-roledescription="text mark" text-anchor="middle" transform="translate(706.875,128.2)" font-family="monospace" font-size="13px" fill="#fff" opacity="1">304</text><text aria-label="Year: 1873; Bicycle: 123" role="graphics-symbol" aria-roledescription="text mark" text-anchor="middle" transform="translate(815.625,164.4)" font-family="monospace" font-size="13px" fill="#fff" opacity="1">123</text></g><g class="mark-group role-title"><g transform="translate(870,-48.2431640625)"><path class="background" aria-hidden="true" d="M0,0h0v0h0Z" pointer-events="none"></path><g><g class="mark-text role-title-text" role="graphics-symbol" aria-roledescription="title" aria-label="Title text 'API Northeast'" pointer-events="none"><text text-anchor="end" transform="translate(0,20)" font-family="monospace" font-size="25px" font-weight="bold" fill="#fff" opacity="1">API Northeast</text></g></g><path class="foreground" aria-hidden="true" d="" pointer-events="none" display="none"></path></g></g></g><path class="foreground" aria-hidden="true" d="" display="none"></path></g></g></g></svg>