<svg xmlns="http://www.w3.org/2000/svg" xmlns:xlink="http://www.w3.org/1999/xlink" version="1.1" class="marks" width="828" height="270" viewBox="0 0 828 270" style="background-color: rgb(255, 255, 255);"><g fill="none" stroke-miterlimit="10" transform="translate(34,42)"><g class="mark-group role-frame root" role="graphics-object" aria-roledescription="group mark container"><g transform="translate(0,0)"><path class="background" aria-hidden="true" d="M0.5,0.5h789v200h-789Z" fill="transparent" stroke="#ddd"></path><g><g class="mark-group role-axis" role="graphics-symbol" aria-roledescription="axis" aria-label="X-axis for a discrete scale with 11 values: 1955, 1956, 1957, 1958, 1959, ending with 1965"><g transform="translate(0.5,200.5)"><path class="background" aria-hidden="true" d="M0,0h0v0h0Z" pointer-events="none"></path><g><g class="mark-rule role-axis-tick" pointer-events="none"><line transform="translate(36,0)" x2="0" y2="5" stroke="#888" stroke-width="1" opacity="1"></line><line transform="translate(108,0)" x2="0" y2="5" stroke="#888" stroke-width="1" opacity="1"></line><line transform="translate(179,0)" x2="0" y2="5" stroke="#888" stroke-width="1" opacity="1"></line><line transform="translate(251,0)" x2="0" y2="5" stroke="#888" stroke-width="1" opacity="1"></line><line transform="translate(323,0)" x2="0" y2="5" stroke="#888" stroke-width="1" opacity="1"></line><line transform="translate(395,0)" x2="0" y2="5" stroke="#888" stroke-width="1" opacity="1"></line><line transform="translate(466,0)" x2="0" y2="5" stroke="#888" stroke-width="1" opacity="1"></line><line transform="translate(538,0)" x2="0" y2="5" stroke="#888" stroke-width="1" opacity="1"></line><line transform="translate(610,0)" x2="0" y2="5" stroke="#888" stroke-width="1" opacity="1"></line><line transform="translate(681,0)" x2="0" y2="5" stroke="#888" stroke-width="1" opacity="1"></line><line transform="translate(753,0)" x2="0" y2="5" stroke="#888" stroke-width="1" opacity="1"></line></g><g class="mark-text role-axis-label" pointer-events="none"><text text-anchor="middle" transform="translate(35.86363636363632,20)" font-family="sans-serif" font-size="16px" font-weight="normal" fill="#000" opacity="1">1955</text><text text-anchor="middle" transform="translate(107.59090909090905,20)" font-family="sans-serif" font-size="16px" font-weight="normal" fill="#000" opacity="1">1956</text><text text-anchor="middle" transform="translate(179.31818181818178,20)" font-family="sans-serif" font-size="16px" font-weight="normal" fill="#000" opacity="1">1957</text><text text-anchor="middle" transform="translate(251.0454545454545,20)" font-family="sans-serif" font-size="16px" font-weight="normal" fill="#000" opacity="1">1958</text><text text-anchor="middle" transform="translate(322.77272727272725,20)" font-family="sans-serif" font-size="16px" font-weight="normal" fill="#000" opacity="1">1959</text><text text-anchor="middle" transform="translate(394.5,20)" font-family="sans-serif" font-size="16px" font-weight="normal" fill="#000" opacity="1">1960</text><text text-anchor="middle" transform="translate(466.2272727272727,20)" font-family="sans-serif" font-size="16px" font-weight="normal" fill="#000" opacity="1">1961</text><text text-anchor="middle" transform="translate(537.9545454545455,20)" font-family="sans-serif" font-size="16px" font-weight="normal" fill="#000" opacity="1">1962</text><text text-anchor="middle" transform="translate(609.6818181818182,20)" font-family="sans-serif" font-size="16px" font-weight="normal" fill="#000" opacity="1">1963</text><text text-anchor="middle" transform="translate(681.409090909091,20)" font-family="sans-serif" font-size="16px" font-weight="normal" fill="#000" opacity="1">1964</text><text text-anchor="middle" transform="translate(753.1363636363637,20)" font-family="sans-serif" font-size="16px" font-weight="normal" fill="#000" opacity="1">1965</text></g><g class="mark-rule role-axis-domain" pointer-events="none"><line transform="translate(0,0)" x2="789" y2="0" stroke="#888" stroke-width="1" opacity="1"></line></g></g><path class="foreground" aria-hidden="true" d="" pointer-events="none" display="none"></path></g></g><g class="mark-group role-axis" role="graphics-symbol" aria-roledescription="axis" aria-label="Y-axis for a linear scale with values from 0 to 700"><g transform="translate(0.5,0.5)"><path class="background" aria-hidden="true" d="M0,0h0v0h0Z" pointer-events="none"></path><g><g class="mark-text role-axis-label" pointer-events="none"><text text-anchor="end" transform="translate(-2,205)" font-family="sans-serif" font-size="16px" font-weight="normal" fill="#000" opacity="1">0</text><text text-anchor="end" transform="translate(-2,176.42857142857144)" font-family="sans-serif" font-size="16px" font-weight="normal" fill="#000" opacity="1">100</text><text text-anchor="end" transform="translate(-2,147.85714285714286)" font-family="sans-serif" font-size="16px" font-weight="normal" fill="#000" opacity="1">200</text><text text-anchor="end" transform="translate(-2,119.28571428571428)" font-family="sans-serif" font-size="16px" font-weight="normal" fill="#000" opacity="1">300</text><text text-anchor="end" transform="translate(-2,90.71428571428572)" font-family="sans-serif" font-size="16px" font-weight="normal" fill="#000" opacity="1">400</text><text text-anchor="end" transform="translate(-2,62.14285714285714)" font-family="sans-serif" font-size="16px" font-weight="normal" fill="#000" opacity="1">500</text><text text-anchor="end" transform="translate(-2,33.571428571428584)" font-family="sans-serif" font-size="16px" font-weight="normal" fill="#000" opacity="1">600</text><text text-anchor="end" transform="translate(-2,5)" font-family="sans-serif" font-size="16px" font-weight="normal" fill="#000" opacity="1">700</text></g></g><path class="foreground" aria-hidden="true" d="" pointer-events="none" display="none"></path></g></g><g class="mark-group role-scope layer_0_pathgroup" role="graphics-object" aria-roledescription="group mark container"><g transform="translate(0,0)"><path class="background" aria-hidden="true" d="M0,0h789v200h-789Z"></path><g><g class="mark-line role-mark layer_0_marks" role="graphics-object" aria-roledescription="line mark container"><path aria-label="Year: 1955; Pennsylvania: 397; mother because: RSS Ford Einsteinium" role="graphics-symbol" aria-roledescription="line mark" d="M35.86363636363632,86.57142857142857L107.59090909090905,115.14285714285715L179.31818181818178,81.14285714285714L251.0454545454545,10.285714285714276L322.77272727272725,155.71428571428572L394.5,178.85714285714286L466.2272727272727,140.57142857142856L537.9545454545455,128.85714285714286L609.6818181818182,191.14285714285714L681.409090909091,54L753.1363636363637,58.00000000000001" stroke="#bbc2cc" stroke-width="2" stroke-dasharray="1,0"></path></g></g><path class="foreground" aria-hidden="true" d="" display="none"></path></g></g><g class="mark-symbol role-mark layer_1_marks" role="graphics-object" aria-roledescription="symbol mark container"><path aria-label="Year: 1955; Pennsylvania: 397; mother because: RSS Ford Einsteinium" role="graphics-symbol" aria-roledescription="point" transform="translate(35.86363636363632,86.57142857142857)" d="M2.7386127875258306,0A2.7386127875258306,2.7386127875258306,0,1,1,-2.7386127875258306,0A2.7386127875258306,2.7386127875258306,0,1,1,2.7386127875258306,0" fill="#fff" stroke="#bbc2cc" stroke-width="3" opacity="1"></path><path aria-label="Year: 1956; Pennsylvania: 297; mother because: RSS Ford Einsteinium" role="graphics-symbol" aria-roledescription="point" transform="translate(107.59090909090905,115.14285714285715)" d="M2.7386127875258306,0A2.7386127875258306,2.7386127875258306,0,1,1,-2.7386127875258306,0A2.7386127875258306,2.7386127875258306,0,1,1,2.7386127875258306,0" fill="#fff" stroke="#bbc2cc" stroke-width="3" opacity="1"></path><path aria-label="Year: 1957; Pennsylvania: 416; mother because: RSS Ford Einsteinium" role="graphics-symbol" aria-roledescription="point" transform="translate(179.31818181818178,81.14285714285714)" d="M2.7386127875258306,0A2.7386127875258306,2.7386127875258306,0,1,1,-2.7386127875258306,0A2.7386127875258306,2.7386127875258306,0,1,1,2.7386127875258306,0" fill="#fff" stroke="#bbc2cc" stroke-width="3" opacity="1"></path><path aria-label="Year: 1958; Pennsylvania: 664; mother because: RSS Ford Einsteinium" role="graphics-symbol" aria-roledescription="point" transform="translate(251.0454545454545,10.285714285714276)" d="M2.7386127875258306,0A2.7386127875258306,2.7386127875258306,0,1,1,-2.7386127875258306,0A2.7386127875258306,2.7386127875258306,0,1,1,2.7386127875258306,0" fill="#fff" stroke="#bbc2cc" stroke-width="3" opacity="1"></path><path aria-label="Year: 1959; Pennsylvania: 155; mother because: RSS Ford Einsteinium" role="graphics-symbol" aria-roledescription="point" transform="translate(322.77272727272725,155.71428571428572)" d="M2.7386127875258306,0A2.7386127875258306,2.7386127875258306,0,1,1,-2.7386127875258306,0A2.7386127875258306,2.7386127875258306,0,1,1,2.7386127875258306,0" fill="#fff" stroke="#bbc2cc" stroke-width="3" opacity="1"></path><path aria-label="Year: 1960; Pennsylvania: 74; mother because: RSS Ford Einsteinium" role="graphics-symbol" aria-roledescription="point" transform="translate(394.5,178.85714285714286)" d="M2.7386127875258306,0A2.7386127875258306,2.7386127875258306,0,1,1,-2.7386127875258306,0A2.7386127875258306,2.7386127875258306,0,1,1,2.7386127875258306,0" fill="#fff" stroke="#bbc2cc" stroke-width="3" opacity="1"></path><path aria-label="Year: 1961; Pennsylvania: 208; mother because: RSS Ford Einsteinium" role="graphics-symbol" aria-roledescription="point" transform="translate(466.2272727272727,140.57142857142856)" d="M2.7386127875258306,0A2.7386127875258306,2.7386127875258306,0,1,1,-2.7386127875258306,0A2.7386127875258306,2.7386127875258306,0,1,1,2.7386127875258306,0" fill="#fff" stroke="#bbc2cc" stroke-width="3" opacity="1"></path><path aria-label="Year: 1962; Pennsylvania: 249; mother because: RSS Ford Einsteinium" role="graphics-symbol" aria-roledescription="point" transform="translate(537.9545454545455,128.85714285714286)" d="M2.7386127875258306,0A2.7386127875258306,2.7386127875258306,0,1,1,-2.7386127875258306,0A2.7386127875258306,2.7386127875258306,0,1,1,2.7386127875258306,0" fill="#fff" stroke="#bbc2cc" stroke-width="3" opacity="1"></path><path aria-label="Year: 1963; Pennsylvania: 31; mother because: RSS Ford Einsteinium" role="graphics-symbol" aria-roledescription="point" transform="translate(609.6818181818182,191.14285714285714)" d="M2.7386127875258306,0A2.7386127875258306,2.7386127875258306,0,1,1,-2.7386127875258306,0A2.7386127875258306,2.7386127875258306,0,1,1,2.7386127875258306,0" fill="#fff" stroke="#bbc2cc" stroke-width="3" opacity="1"></path><path aria-label="Year: 1964; Pennsylvania: 511; mother because: RSS Ford Einsteinium" role="graphics-symbol" aria-roledescription="point" transform="translate(681.409090909091,54)" d="M2.7386127875258306,0A2.7386127875258306,2.7386127875258306,0,1,1,-2.7386127875258306,0A2.7386127875258306,2.7386127875258306,0,1,1,2.7386127875258306,0" fill="#fff" stroke="#bbc2cc" stroke-width="3" opacity="1"></path><path aria-label="Year: 1965; Pennsylvania: 497; mother because: RSS Ford Einsteinium" role="graphics-symbol" aria-roledescription="point" transform="translate(753.1363636363637,58.00000000000001)" d="M2.7386127875258306,0A2.7386127875258306,2.7386127875258306,0,1,1,-2.7386127875258306,0A2.7386127875258306,2.7386127875258306,0,1,1,2.7386127875258306,0" fill="#fff" stroke="#bbc2cc" stroke-width="3" opacity="1"></path></g><g class="mark-group role-title"><g transform="translate(789,-37)"><path class="background" aria-hidden="true" d="M0,0h0v0h0Z" pointer-events="none"></path><g><g class="mark-text role-title-text" role="graphics-symbol" aria-roledescription="title" aria-label="Title text 'Louisiana Response Wall'" pointer-events="none"><text text-anchor="end" transform="translate(0,20)" font-family="sans-serif" font-size="25px" font-weight="bold" fill="#000" opacity="1">Louisiana Response Wall</text></g></g><path class="foreground" aria-hidden="true" d="" pointer-events="none" display="none"></path></g></g></g><path class="foreground" aria-hidden="true" d="" display="none"></path></g></g></g></svg>