<svg xmlns="http://www.w3.org/2000/svg" xmlns:xlink="http://www.w3.org/1999/xlink" version="1.1" class="marks" width="1086" height="281" viewBox="0 0 1086 281" style="background-color: rgb(255, 255, 255);"><g fill="none" stroke-miterlimit="10" transform="translate(125,55)"><g class="mark-group role-frame root" role="graphics-object" aria-roledescription="group mark container"><g transform="translate(0,0)"><path class="background" aria-hidden="true" d="M0.5,0.5h956v200h-956Z" fill="transparent" stroke="#ddd"></path><g><g class="mark-group role-axis" aria-hidden="true"><g transform="translate(0.5,200.5)"><path class="background" aria-hidden="true" d="M0,0h0v0h0Z" pointer-events="none"></path><g><g class="mark-rule role-axis-grid" pointer-events="none"><line transform="translate(60,-200)" x2="0" y2="200" stroke="#D0D0D0" stroke-width="1" stroke-dasharray="4, 2" opacity="1"></line><line transform="translate(179,-200)" x2="0" y2="200" stroke="#D0D0D0" stroke-width="1" stroke-dasharray="4, 2" opacity="1"></line><line transform="translate(299,-200)" x2="0" y2="200" stroke="#D0D0D0" stroke-width="1" stroke-dasharray="4, 2" opacity="1"></line><line transform="translate(418,-200)" x2="0" y2="200" stroke="#D0D0D0" stroke-width="1" stroke-dasharray="4, 2" opacity="1"></line><line transform="translate(538,-200)" x2="0" y2="200" stroke="#D0D0D0" stroke-width="1" stroke-dasharray="4, 2" opacity="1"></line><line transform="translate(657,-200)" x2="0" y2="200" stroke="#D0D0D0" stroke-width="1" stroke-dasharray="4, 2" opacity="1"></line><line transform="translate(777,-200)" x2="0" y2="200" stroke="#D0D0D0" stroke-width="1" stroke-dasharray="4, 2" opacity="1"></line><line transform="translate(896,-200)" x2="0" y2="200" stroke="#D0D0D0" stroke-width="1" stroke-dasharray="4, 2" opacity="1"></line></g></g><path class="foreground" aria-hidden="true" d="" pointer-events="none" display="none"></path></g></g><g class="mark-group role-axis" role="graphics-symbol" aria-roledescription="axis" aria-label="X-axis for a discrete scale with 8 values: Jan, Feb, Mar, Apr, May, ending with Aug"><g transform="translate(0.5,200.5)"><path class="background" aria-hidden="true" d="M0,0h0v0h0Z" pointer-events="none"></path><g><g class="mark-rule role-axis-tick" pointer-events="none"><line transform="translate(60,0)" x2="0" y2="5" stroke="#888" stroke-width="1" opacity="1"></line><line transform="translate(179,0)" x2="0" y2="5" stroke="#888" stroke-width="1" opacity="1"></line><line transform="translate(299,0)" x2="0" y2="5" stroke="#888" stroke-width="1" opacity="1"></line><line transform="translate(418,0)" x2="0" y2="5" stroke="#888" stroke-width="1" opacity="1"></line><line transform="translate(538,0)" x2="0" y2="5" stroke="#888" stroke-width="1" opacity="1"></line><line transform="translate(657,0)" x2="0" y2="5" stroke="#888" stroke-width="1" opacity="1"></line><line transform="translate(777,0)" x2="0" y2="5" stroke="#888" stroke-width="1" opacity="1"></line><line transform="translate(896,0)" x2="0" y2="5" stroke="#888" stroke-width="1" opacity="1"></line></g><g class="mark-text role-axis-label" pointer-events="none"><text text-anchor="middle" transform="translate(59.75,18)" font-family="serif" font-size="14px" font-weight="bold" fill="#000" opacity="1">Jan</text><text text-anchor="middle" transform="translate(179.25,18)" font-family="serif" font-size="14px" font-weight="bold" fill="#000" opacity="1">Feb</text><text text-anchor="middle" transform="translate(298.75,18)" font-family="serif" font-size="14px" font-weight="bold" fill="#000" opacity="1">Mar</text><text text-anchor="middle" transform="translate(418.25,18)" font-family="serif" font-size="14px" font-weight="bold" fill="#000" opacity="1">Apr</text><text text-anchor="middle" transform="translate(537.75,18)" font-family="serif" font-size="14px" font-weight="bold" fill="#000" opacity="1">May</text><text text-anchor="middle" transform="translate(657.25,18)" font-family="serif" font-size="14px" font-weight="bold" fill="#000" opacity="1">June</text><text text-anchor="middle" transform="translate(776.75,18)" font-family="serif" font-size="14px" font-weight="bold" fill="#000" opacity="1">July</text><text text-anchor="middle" transform="translate(896.25,18)" font-family="serif" font-size="14px" font-weight="bold" fill="#000" opacity="1">Aug</text></g><g class="mark-rule role-axis-domain" pointer-events="none"><line transform="translate(0,0)" x2="956" y2="0" stroke="#888" stroke-width="1" opacity="1"></line></g></g><path class="foreground" aria-hidden="true" d="" pointer-events="none" display="none"></path></g></g><g class="mark-group role-axis" role="graphics-symbol" aria-roledescription="axis" aria-label="Y-axis for a linear scale with values from 0 to 700"><g transform="translate(0.5,0.5)"><path class="background" aria-hidden="true" d="M0,0h0v0h0Z" pointer-events="none"></path><g><g class="mark-rule role-axis-tick" pointer-events="none"><line transform="translate(0,200)" x2="-5" y2="0" stroke="#888" stroke-width="1" opacity="1"></line><line transform="translate(0,171)" x2="-5" y2="0" stroke="#888" stroke-width="1" opacity="1"></line><line transform="translate(0,143)" x2="-5" y2="0" stroke="#888" stroke-width="1" opacity="1"></line><line transform="translate(0,114)" x2="-5" y2="0" stroke="#888" stroke-width="1" opacity="1"></line><line transform="translate(0,86)" x2="-5" y2="0" stroke="#888" stroke-width="1" opacity="1"></line><line transform="translate(0,57)" x2="-5" y2="0" stroke="#888" stroke-width="1" opacity="1"></line><line transform="translate(0,29)" x2="-5" y2="0" stroke="#888" stroke-width="1" opacity="1"></line><line transform="translate(0,0)" x2="-5" y2="0" stroke="#888" stroke-width="1" opacity="1"></line></g><g class="mark-text role-axis-label" pointer-events="none"><text text-anchor="end" transform="translate(-7,204)" font-family="serif" font-size="14px" font-weight="bold" fill="#000" opacity="1">0</text><text text-anchor="end" transform="translate(-7,175.42857142857144)" font-family="serif" font-size="14px" font-weight="bold" fill="#000" opacity="1">100</text><text text-anchor="end" transform="translate(-7,146.85714285714286)" font-family="serif" font-size="14px" font-weight="bold" fill="#000" opacity="1">200</text><text text-anchor="end" transform="translate(-7,118.28571428571428)" font-family="serif" font-size="14px" font-weight="bold" fill="#000" opacity="1">300</text><text text-anchor="end" transform="translate(-7,89.71428571428572)" font-family="serif" font-size="14px" font-weight="bold" fill="#000" opacity="1">400</text><text text-anchor="end" transform="translate(-7,61.14285714285714)" font-family="serif" font-size="14px" font-weight="bold" fill="#000" opacity="1">500</text><text text-anchor="end" transform="translate(-7,32.571428571428584)" font-family="serif" font-size="14px" font-weight="bold" fill="#000" opacity="1">600</text><text text-anchor="end" transform="translate(-7,4)" font-family="serif" font-size="14px" font-weight="bold" fill="#000" opacity="1">700</text></g></g><path class="foreground" aria-hidden="true" d="" pointer-events="none" display="none"></path></g></g><g class="mark-group role-scope layer_0_pathgroup" role="graphics-object" aria-roledescription="group mark container"><g transform="translate(0,0)"><path class="background" aria-hidden="true" d="M0,0h956v200h-956Z"></path><g><g class="mark-line role-mark layer_0_marks" role="graphics-object" aria-roledescription="line mark container"><path aria-label="Month: Jan; withdrawal ivory North: 125; World Cisgender: analyzer" role="graphics-symbol" aria-roledescription="line mark" d="M59.75,164.28571428571428C99.58333333333333,179.15538761021412,139.41666666666666,194.025060934714,179.25,173.71428571428572C219.08333333333334,153.40351049385745,258.9166666666667,97.91228672850107,298.75,84.28571428571428C338.5833333333333,70.65914184292748,378.41666666666663,98.89722072271022,418.25,116.85714285714286C458.08333333333337,134.8170649915755,497.91666666666674,142.49883038065792,537.75,113.7142857142857C577.5833333333333,84.92974104791347,617.4166666666666,19.678886326086598,657.25,32.857142857142854C697.0833333333334,46.03539938819911,736.9166666666667,137.64276717213852,776.75,177.14285714285714C816.5833333333333,216.64294711357576,856.4166666666666,204.0357592710736,896.25,191.42857142857144" stroke="#c969e2" stroke-width="2" stroke-dasharray="1,0"></path></g></g><path class="foreground" aria-hidden="true" d="" display="none"></path></g><g transform="translate(0,0)"><path class="background" aria-hidden="true" d="M0,0h956v200h-956Z"></path><g><g class="mark-line role-mark layer_0_marks" role="graphics-object" aria-roledescription="line mark container"><path aria-label="Month: Jan; withdrawal ivory North: 411; World Cisgender: Tennessee teal" role="graphics-symbol" aria-roledescription="line mark" d="M59.75,82.57142857142856C99.58333333333333,66.7416204544339,139.41666666666666,50.91181233743926,179.25,32.57142857142856C219.08333333333334,14.23104480541787,258.9166666666667,-6.61991460960887,298.75,11.428571428571432C338.5833333333333,29.477057466751734,378.41666666666663,86.42498895813908,418.25,86.85714285714286C458.08333333333337,87.28929675614664,497.91666666666674,31.20567306276684,537.75,39.71428571428572C577.5833333333333,48.2228983658046,617.4166666666666,121.32374736222215,657.25,123.42857142857144C697.0833333333334,125.53339549492074,736.9166666666667,56.642194631201846,776.75,38.857142857142854C816.5833333333333,21.072091083083865,856.4166666666666,54.39318839868479,896.25,87.71428571428572" stroke="#8bfbc8" stroke-width="2" stroke-dasharray="1,0"></path></g></g><path class="foreground" aria-hidden="true" d="" display="none"></path></g></g><g class="mark-symbol role-mark layer_1_marks" role="graphics-object" aria-roledescription="symbol mark container"><path aria-label="Month: Jan; withdrawal ivory North: 125; World Cisgender: analyzer" role="graphics-symbol" aria-roledescription="point" transform="translate(59.75,164.28571428571428)" d="M2.7386127875258306,0A2.7386127875258306,2.7386127875258306,0,1,1,-2.7386127875258306,0A2.7386127875258306,2.7386127875258306,0,1,1,2.7386127875258306,0" fill="#fff" stroke="#c969e2" stroke-width="3" opacity="1"></path><path aria-label="Month: Feb; withdrawal ivory North: 92; World Cisgender: analyzer" role="graphics-symbol" aria-roledescription="point" transform="translate(179.25,173.71428571428572)" d="M2.7386127875258306,0A2.7386127875258306,2.7386127875258306,0,1,1,-2.7386127875258306,0A2.7386127875258306,2.7386127875258306,0,1,1,2.7386127875258306,0" fill="#fff" stroke="#c969e2" stroke-width="3" opacity="1"></path><path aria-label="Month: Mar; withdrawal ivory North: 405; World Cisgender: analyzer" role="graphics-symbol" aria-roledescription="point" transform="translate(298.75,84.28571428571428)" d="M2.7386127875258306,0A2.7386127875258306,2.7386127875258306,0,1,1,-2.7386127875258306,0A2.7386127875258306,2.7386127875258306,0,1,1,2.7386127875258306,0" fill="#fff" stroke="#c969e2" stroke-width="3" opacity="1"></path><path aria-label="Month: Apr; withdrawal ivory North: 291; World Cisgender: analyzer" role="graphics-symbol" aria-roledescription="point" transform="translate(418.25,116.85714285714286)" d="M2.7386127875258306,0A2.7386127875258306,2.7386127875258306,0,1,1,-2.7386127875258306,0A2.7386127875258306,2.7386127875258306,0,1,1,2.7386127875258306,0" fill="#fff" stroke="#c969e2" stroke-width="3" opacity="1"></path><path aria-label="Month: May; withdrawal ivory North: 302; World Cisgender: analyzer" role="graphics-symbol" aria-roledescription="point" transform="translate(537.75,113.7142857142857)" d="M2.7386127875258306,0A2.7386127875258306,2.7386127875258306,0,1,1,-2.7386127875258306,0A2.7386127875258306,2.7386127875258306,0,1,1,2.7386127875258306,0" fill="#fff" stroke="#c969e2" stroke-width="3" opacity="1"></path><path aria-label="Month: June; withdrawal ivory North: 585; World Cisgender: analyzer" role="graphics-symbol" aria-roledescription="point" transform="translate(657.25,32.857142857142854)" d="M2.7386127875258306,0A2.7386127875258306,2.7386127875258306,0,1,1,-2.7386127875258306,0A2.7386127875258306,2.7386127875258306,0,1,1,2.7386127875258306,0" fill="#fff" stroke="#c969e2" stroke-width="3" opacity="1"></path><path aria-label="Month: July; withdrawal ivory North: 80; World Cisgender: analyzer" role="graphics-symbol" aria-roledescription="point" transform="translate(776.75,177.14285714285714)" d="M2.7386127875258306,0A2.7386127875258306,2.7386127875258306,0,1,1,-2.7386127875258306,0A2.7386127875258306,2.7386127875258306,0,1,1,2.7386127875258306,0" fill="#fff" stroke="#c969e2" stroke-width="3" opacity="1"></path><path aria-label="Month: Aug; withdrawal ivory North: 30; World Cisgender: analyzer" role="graphics-symbol" aria-roledescription="point" transform="translate(896.25,191.42857142857144)" d="M2.7386127875258306,0A2.7386127875258306,2.7386127875258306,0,1,1,-2.7386127875258306,0A2.7386127875258306,2.7386127875258306,0,1,1,2.7386127875258306,0" fill="#fff" stroke="#c969e2" stroke-width="3" opacity="1"></path><path aria-label="Month: Jan; withdrawal ivory North: 411; World Cisgender: Tennessee teal" role="graphics-symbol" aria-roledescription="point" transform="translate(59.75,82.57142857142856)" d="M2.7386127875258306,0A2.7386127875258306,2.7386127875258306,0,1,1,-2.7386127875258306,0A2.7386127875258306,2.7386127875258306,0,1,1,2.7386127875258306,0" fill="#fff" stroke="#8bfbc8" stroke-width="3" opacity="1"></path><path aria-label="Month: Feb; withdrawal ivory North: 586; World Cisgender: Tennessee teal" role="graphics-symbol" aria-roledescription="point" transform="translate(179.25,32.57142857142856)" d="M2.7386127875258306,0A2.7386127875258306,2.7386127875258306,0,1,1,-2.7386127875258306,0A2.7386127875258306,2.7386127875258306,0,1,1,2.7386127875258306,0" fill="#fff" stroke="#8bfbc8" stroke-width="3" opacity="1"></path><path aria-label="Month: Mar; withdrawal ivory North: 660; World Cisgender: Tennessee teal" role="graphics-symbol" aria-roledescription="point" transform="translate(298.75,11.428571428571432)" d="M2.7386127875258306,0A2.7386127875258306,2.7386127875258306,0,1,1,-2.7386127875258306,0A2.7386127875258306,2.7386127875258306,0,1,1,2.7386127875258306,0" fill="#fff" stroke="#8bfbc8" stroke-width="3" opacity="1"></path><path aria-label="Month: Apr; withdrawal ivory North: 396; World Cisgender: Tennessee teal" role="graphics-symbol" aria-roledescription="point" transform="translate(418.25,86.85714285714286)" d="M2.7386127875258306,0A2.7386127875258306,2.7386127875258306,0,1,1,-2.7386127875258306,0A2.7386127875258306,2.7386127875258306,0,1,1,2.7386127875258306,0" fill="#fff" stroke="#8bfbc8" stroke-width="3" opacity="1"></path><path aria-label="Month: May; withdrawal ivory North: 561; World Cisgender: Tennessee teal" role="graphics-symbol" aria-roledescription="point" transform="translate(537.75,39.71428571428572)" d="M2.7386127875258306,0A2.7386127875258306,2.7386127875258306,0,1,1,-2.7386127875258306,0A2.7386127875258306,2.7386127875258306,0,1,1,2.7386127875258306,0" fill="#fff" stroke="#8bfbc8" stroke-width="3" opacity="1"></path><path aria-label="Month: June; withdrawal ivory North: 268; World Cisgender: Tennessee teal" role="graphics-symbol" aria-roledescription="point" transform="translate(657.25,123.42857142857144)" d="M2.7386127875258306,0A2.7386127875258306,2.7386127875258306,0,1,1,-2.7386127875258306,0A2.7386127875258306,2.7386127875258306,0,1,1,2.7386127875258306,0" fill="#fff" stroke="#8bfbc8" stroke-width="3" opacity="1"></path><path aria-label="Month: July; withdrawal ivory North: 564; World Cisgender: Tennessee teal" role="graphics-symbol" aria-roledescription="point" transform="translate(776.75,38.857142857142854)" d="M2.7386127875258306,0A2.7386127875258306,2.7386127875258306,0,1,1,-2.7386127875258306,0A2.7386127875258306,2.7386127875258306,0,1,1,2.7386127875258306,0" fill="#fff" stroke="#8bfbc8" stroke-width="3" opacity="1"></path><path aria-label="Month: Aug; withdrawal ivory North: 393; World Cisgender: Tennessee teal" role="graphics-symbol" aria-roledescription="point" transform="translate(896.25,87.71428571428572)" d="M2.7386127875258306,0A2.7386127875258306,2.7386127875258306,0,1,1,-2.7386127875258306,0A2.7386127875258306,2.7386127875258306,0,1,1,2.7386127875258306,0" fill="#fff" stroke="#8bfbc8" stroke-width="3" opacity="1"></path></g><g class="mark-text role-mark layer_2_marks" role="graphics-object" aria-roledescription="text mark container"><text aria-label="Month: Jan; withdrawal ivory North: 125" role="graphics-symbol" aria-roledescription="text mark" text-anchor="middle" transform="translate(59.75,144.28571428571428)" font-family="serif" font-size="15px" fill="#000" opacity="1">125</text><text aria-label="Month: Feb; withdrawal ivory North: 92" role="graphics-symbol" aria-roledescription="text mark" text-anchor="middle" transform="translate(179.25,153.71428571428572)" font-family="serif" font-size="15px" fill="#000" opacity="1">92</text><text aria-label="Month: Mar; withdrawal ivory North: 405" role="graphics-symbol" aria-roledescription="text mark" text-anchor="middle" transform="translate(298.75,64.28571428571428)" font-family="serif" font-size="15px" fill="#000" opacity="1">405</text><text aria-label="Month: Apr; withdrawal ivory North: 291" role="graphics-symbol" aria-roledescription="text mark" text-anchor="middle" transform="translate(418.25,96.85714285714286)" font-family="serif" font-size="15px" fill="#000" opacity="1">291</text><text aria-label="Month: May; withdrawal ivory North: 302" role="graphics-symbol" aria-roledescription="text mark" text-anchor="middle" transform="translate(537.75,93.7142857142857)" font-family="serif" font-size="15px" fill="#000" opacity="1">302</text><text aria-label="Month: June; withdrawal ivory North: 585" role="graphics-symbol" aria-roledescription="text mark" text-anchor="middle" transform="translate(657.25,12.857142857142854)" font-family="serif" font-size="15px" fill="#000" opacity="1">585</text><text aria-label="Month: July; withdrawal ivory North: 80" role="graphics-symbol" aria-roledescription="text mark" text-anchor="middle" transform="translate(776.75,157.14285714285714)" font-family="serif" font-size="15px" fill="#000" opacity="1">80</text><text aria-label="Month: Aug; withdrawal ivory North: 30" role="graphics-symbol" aria-roledescription="text mark" text-anchor="middle" transform="translate(896.25,171.42857142857144)" font-family="serif" font-size="15px" fill="#000" opacity="1">30</text><text aria-label="Month: Jan; withdrawal ivory North: 411" role="graphics-symbol" aria-roledescription="text mark" text-anchor="middle" transform="translate(59.75,62.571428571428555)" font-family="serif" font-size="15px" fill="#000" opacity="1">411</text><text aria-label="Month: Feb; withdrawal ivory North: 586" role="graphics-symbol" aria-roledescription="text mark" text-anchor="middle" transform="translate(179.25,12.571428571428562)" font-family="serif" font-size="15px" fill="#000" opacity="1">586</text><text aria-label="Month: Mar; withdrawal ivory North: 660" role="graphics-symbol" aria-roledescription="text mark" text-anchor="middle" transform="translate(298.75,-8.571428571428568)" font-family="serif" font-size="15px" fill="#000" opacity="1">660</text><text aria-label="Month: Apr; withdrawal ivory North: 396" role="graphics-symbol" aria-roledescription="text mark" text-anchor="middle" transform="translate(418.25,66.85714285714286)" font-family="serif" font-size="15px" fill="#000" opacity="1">396</text><text aria-label="Month: May; withdrawal ivory North: 561" role="graphics-symbol" aria-roledescription="text mark" text-anchor="middle" transform="translate(537.75,19.714285714285722)" font-family="serif" font-size="15px" fill="#000" opacity="1">561</text><text aria-label="Month: June; withdrawal ivory North: 268" role="graphics-symbol" aria-roledescription="text mark" text-anchor="middle" transform="translate(657.25,103.42857142857144)" font-family="serif" font-size="15px" fill="#000" opacity="1">268</text><text aria-label="Month: July; withdrawal ivory North: 564" role="graphics-symbol" aria-roledescription="text mark" text-anchor="middle" transform="translate(776.75,18.857142857142854)" font-family="serif" font-size="15px" fill="#000" opacity="1">564</text><text aria-label="Month: Aug; withdrawal ivory North: 393" role="graphics-symbol" aria-roledescription="text mark" text-anchor="middle" transform="translate(896.25,67.71428571428572)" font-family="serif" font-size="15px" fill="#000" opacity="1">393</text></g><g class="mark-group role-legend" role="graphics-symbol" aria-roledescription="legend" aria-label="Symbol legend for stroke color with 2 values: analyzer, Tennessee teal"><g transform="translate(-120,0)"><path class="background" aria-hidden="true" d="M0,0h74v29h-74Z" pointer-events="none"></path><g><g class="mark-group role-legend-entry"><g transform="translate(0,0)"><path class="background" aria-hidden="true" d="M0,0h0v0h0Z" pointer-events="none"></path><g><g class="mark-group role-scope" role="graphics-object" aria-roledescription="group mark container"><g transform="translate(0,0)"><path class="background" aria-hidden="true" d="M0,0h73.880859375v12.5h-73.880859375Z" pointer-events="none" opacity="1"></path><g><g class="mark-symbol role-legend-symbol" pointer-events="none"><path transform="translate(6,6)" d="M5,0A5,5,0,1,1,-5,0A5,5,0,1,1,5,0" fill="#fff" stroke="#c969e2" stroke-width="1.5" opacity="1"></path></g><g class="mark-text role-legend-label" pointer-events="none"><text text-anchor="start" transform="translate(16,9)" font-family="serif" font-size="10px" fill="#000" opacity="1">analyzer</text></g></g><path class="foreground" aria-hidden="true" d="" pointer-events="none" display="none"></path></g><g transform="translate(0,16)"><path class="background" aria-hidden="true" d="M0,0h73.880859375v12.5h-73.880859375Z" pointer-events="none" opacity="1"></path><g><g class="mark-symbol role-legend-symbol" pointer-events="none"><path transform="translate(6,6)" d="M5,0A5,5,0,1,1,-5,0A5,5,0,1,1,5,0" fill="#fff" stroke="#8bfbc8" stroke-width="1.5" opacity="1"></path></g><g class="mark-text role-legend-label" pointer-events="none"><text text-anchor="start" transform="translate(16,9)" font-family="serif" font-size="10px" fill="#000" opacity="1">Tennessee teal</text></g></g><path class="foreground" aria-hidden="true" d="" pointer-events="none" display="none"></path></g></g></g><path class="foreground" aria-hidden="true" d="" pointer-events="none" display="none"></path></g></g></g><path class="foreground" aria-hidden="true" d="" pointer-events="none" display="none"></path></g></g><g class="mark-group role-title"><g transform="translate(956,-49.57142857142857)"><path class="background" aria-hidden="true" d="M0,0h0v0h0Z" pointer-events="none"></path><g><g class="mark-text role-title-text" role="graphics-symbol" aria-roledescription="title" aria-label="Title text 'orchid Omnigender MTF'" pointer-events="none"><text text-anchor="end" transform="translate(0,20)" font-family="serif" font-size="25px" font-weight="bold" fill="#000" opacity="1">orchid Omnigender MTF</text></g></g><path class="foreground" aria-hidden="true" d="" pointer-events="none" display="none"></path></g></g></g><path class="foreground" aria-hidden="true" d="" display="none"></path></g></g></g></svg>