<svg xmlns="http://www.w3.org/2000/svg" xmlns:xlink="http://www.w3.org/1999/xlink" version="1.1" class="marks" width="440" height="278" viewBox="0 0 440 278" style="background-color: rgb(51, 51, 51);"><g fill="none" stroke-miterlimit="10" transform="translate(18,43)"><g class="mark-group role-frame root" role="graphics-object" aria-roledescription="group mark container"><g transform="translate(0,0)"><path class="background" aria-hidden="true" d="M0.5,0.5h417v200h-417Z" fill="transparent" stroke="#ddd"></path><g><g class="mark-group role-axis" aria-hidden="true"><g transform="translate(0.5,200.5)"><path class="background" aria-hidden="true" d="M0,0h0v0h0Z" pointer-events="none"></path><g><g class="mark-rule role-axis-grid" pointer-events="none"><line transform="translate(21,-200)" x2="0" y2="200" stroke="#747474" stroke-width="1" stroke-dasharray="6, 3" opacity="1"></line><line transform="translate(63,-200)" x2="0" y2="200" stroke="#747474" stroke-width="1" stroke-dasharray="6, 3" opacity="1"></line><line transform="translate(104,-200)" x2="0" y2="200" stroke="#747474" stroke-width="1" stroke-dasharray="6, 3" opacity="1"></line><line transform="translate(146,-200)" x2="0" y2="200" stroke="#747474" stroke-width="1" stroke-dasharray="6, 3" opacity="1"></line><line transform="translate(188,-200)" x2="0" y2="200" stroke="#747474" stroke-width="1" stroke-dasharray="6, 3" opacity="1"></line><line transform="translate(229,-200)" x2="0" y2="200" stroke="#747474" stroke-width="1" stroke-dasharray="6, 3" opacity="1"></line><line transform="translate(271,-200)" x2="0" y2="200" stroke="#747474" stroke-width="1" stroke-dasharray="6, 3" opacity="1"></line><line transform="translate(313,-200)" x2="0" y2="200" stroke="#747474" stroke-width="1" stroke-dasharray="6, 3" opacity="1"></line><line transform="translate(354,-200)" x2="0" y2="200" stroke="#747474" stroke-width="1" stroke-dasharray="6, 3" opacity="1"></line><line transform="translate(396,-200)" x2="0" y2="200" stroke="#747474" stroke-width="1" stroke-dasharray="6, 3" opacity="1"></line></g></g><path class="foreground" aria-hidden="true" d="" pointer-events="none" display="none"></path></g></g><g class="mark-group role-axis" aria-hidden="true"><g transform="translate(0.5,0.5)"><path class="background" aria-hidden="true" d="M0,0h0v0h0Z" pointer-events="none"></path><g><g class="mark-rule role-axis-grid" pointer-events="none"><line transform="translate(0,200)" x2="417" y2="0" stroke="#747474" stroke-width="1" stroke-dasharray="6, 3" opacity="1"></line><line transform="translate(0,167)" x2="417" y2="0" stroke="#747474" stroke-width="1" stroke-dasharray="6, 3" opacity="1"></line><line transform="translate(0,133)" x2="417" y2="0" stroke="#747474" stroke-width="1" stroke-dasharray="6, 3" opacity="1"></line><line transform="translate(0,100)" x2="417" y2="0" stroke="#747474" stroke-width="1" stroke-dasharray="6, 3" opacity="1"></line><line transform="translate(0,67)" x2="417" y2="0" stroke="#747474" stroke-width="1" stroke-dasharray="6, 3" opacity="1"></line><line transform="translate(0,33)" x2="417" y2="0" stroke="#747474" stroke-width="1" stroke-dasharray="6, 3" opacity="1"></line><line transform="translate(0,0)" x2="417" y2="0" stroke="#747474" stroke-width="1" stroke-dasharray="6, 3" opacity="1"></line></g></g><path class="foreground" aria-hidden="true" d="" pointer-events="none" display="none"></path></g></g><g class="mark-group role-axis" role="graphics-symbol" aria-roledescription="axis" aria-label="X-axis for a discrete scale with 10 values: Jan, Feb, Mar, Apr, May, ending with Oct"><g transform="translate(0.5,200.5)"><path class="background" aria-hidden="true" d="M0,0h0v0h0Z" pointer-events="none"></path><g><g class="mark-rule role-axis-tick" pointer-events="none"><line transform="translate(21,0)" x2="0" y2="5" stroke="#888" stroke-width="1" opacity="1"></line><line transform="translate(63,0)" x2="0" y2="5" stroke="#888" stroke-width="1" opacity="1"></line><line transform="translate(104,0)" x2="0" y2="5" stroke="#888" stroke-width="1" opacity="1"></line><line transform="translate(146,0)" x2="0" y2="5" stroke="#888" stroke-width="1" opacity="1"></line><line transform="translate(188,0)" x2="0" y2="5" stroke="#888" stroke-width="1" opacity="1"></line><line transform="translate(229,0)" x2="0" y2="5" stroke="#888" stroke-width="1" opacity="1"></line><line transform="translate(271,0)" x2="0" y2="5" stroke="#888" stroke-width="1" opacity="1"></line><line transform="translate(313,0)" x2="0" y2="5" stroke="#888" stroke-width="1" opacity="1"></line><line transform="translate(354,0)" x2="0" y2="5" stroke="#888" stroke-width="1" opacity="1"></line><line transform="translate(396,0)" x2="0" y2="5" stroke="#888" stroke-width="1" opacity="1"></line></g><g class="mark-text role-axis-label" pointer-events="none"><text text-anchor="start" transform="translate(20.849999999999994,7) rotate(90) translate(0,3)" font-family="avenir" font-size="11px" font-weight="bold" fill="#fff" opacity="1">Jan</text><text text-anchor="start" transform="translate(62.55,7) rotate(90) translate(0,3)" font-family="avenir" font-size="11px" font-weight="bold" fill="#fff" opacity="1">Feb</text><text text-anchor="start" transform="translate(104.25,7) rotate(90) translate(0,3)" font-family="avenir" font-size="11px" font-weight="bold" fill="#fff" opacity="1">Mar</text><text text-anchor="start" transform="translate(145.95,7) rotate(90) translate(0,3)" font-family="avenir" font-size="11px" font-weight="bold" fill="#fff" opacity="1">Apr</text><text text-anchor="start" transform="translate(187.65,7) rotate(90) translate(0,3)" font-family="avenir" font-size="11px" font-weight="bold" fill="#fff" opacity="1">May</text><text text-anchor="start" transform="translate(229.35,7) rotate(90) translate(0,3)" font-family="avenir" font-size="11px" font-weight="bold" fill="#fff" opacity="1">June</text><text text-anchor="start" transform="translate(271.05,7) rotate(90) translate(0,3)" font-family="avenir" font-size="11px" font-weight="bold" fill="#fff" opacity="1">July</text><text text-anchor="start" transform="translate(312.75,7) rotate(90) translate(0,3)" font-family="avenir" font-size="11px" font-weight="bold" fill="#fff" opacity="1">Aug</text><text text-anchor="start" transform="translate(354.45000000000005,7) rotate(90) translate(0,3)" font-family="avenir" font-size="11px" font-weight="bold" fill="#fff" opacity="1">Sep</text><text text-anchor="start" transform="translate(396.15,7) rotate(90) translate(0,3)" font-family="avenir" font-size="11px" font-weight="bold" fill="#fff" opacity="1">Oct</text></g><g class="mark-rule role-axis-domain" pointer-events="none"><line transform="translate(0,0)" x2="417" y2="0" stroke="#888" stroke-width="1" opacity="1"></line></g></g><path class="foreground" aria-hidden="true" d="" pointer-events="none" display="none"></path></g></g><g class="mark-group role-axis" role="graphics-symbol" aria-roledescription="axis" aria-label="Y-axis for a linear scale with values from 0 to 600"><g transform="translate(0.5,0.5)"><path class="background" aria-hidden="true" d="M0,0h0v0h0Z" pointer-events="none"></path><g><g class="mark-text role-axis-label" pointer-events="none"><text text-anchor="middle" transform="translate(-2,200) rotate(90) translate(0,9)" font-family="avenir" font-size="11px" font-weight="bold" fill="#fff" opacity="1">0</text><text text-anchor="middle" transform="translate(-2,166.66666666666669) rotate(90) translate(0,9)" font-family="avenir" font-size="11px" font-weight="bold" fill="#fff" opacity="1">100</text><text text-anchor="middle" transform="translate(-2,133.33333333333334) rotate(90) translate(0,9)" font-family="avenir" font-size="11px" font-weight="bold" fill="#fff" opacity="1">200</text><text text-anchor="middle" transform="translate(-2,100) rotate(90) translate(0,9)" font-family="avenir" font-size="11px" font-weight="bold" fill="#fff" opacity="1">300</text><text text-anchor="middle" transform="translate(-2,66.66666666666667) rotate(90) translate(0,9)" font-family="avenir" font-size="11px" font-weight="bold" fill="#fff" opacity="1">400</text><text text-anchor="middle" transform="translate(-2,33.33333333333333) rotate(90) translate(0,9)" font-family="avenir" font-size="11px" font-weight="bold" fill="#fff" opacity="1">500</text><text text-anchor="middle" transform="translate(-2,0) rotate(90) translate(0,9)" font-family="avenir" font-size="11px" font-weight="bold" fill="#fff" opacity="1">600</text></g><g class="mark-rule role-axis-domain" pointer-events="none"><line transform="translate(0,200)" x2="0" y2="-200" stroke="#888" stroke-width="1" opacity="1"></line></g></g><path class="foreground" aria-hidden="true" d="" pointer-events="none" display="none"></path></g></g><g class="mark-group role-scope layer_0_pathgroup" role="graphics-object" aria-roledescription="group mark container"><g transform="translate(0,0)"><path class="background" aria-hidden="true" d="M0,0h417v200h-417Z"></path><g><g class="mark-line role-mark layer_0_marks" role="graphics-object" aria-roledescription="line mark container"><path aria-label="Month: Jan; South blossom: 266; Fresh Cruiser: Optimized newton beside" role="graphics-symbol" aria-roledescription="line mark" d="M20.849999999999994,111.33333333333333L62.55,60.33333333333333L104.25,125L145.95,55.00000000000001L187.65,188L229.35,132.66666666666666L271.05,139L312.75,115.66666666666667L354.45000000000005,14.666666666666671L396.15,99.33333333333334" stroke="#54fdfe" stroke-width="2" stroke-dasharray="1,0"></path></g></g><path class="foreground" aria-hidden="true" d="" display="none"></path></g></g><g class="mark-symbol role-mark layer_1_marks" role="graphics-object" aria-roledescription="symbol mark container"><path aria-label="Month: Jan; South blossom: 266; Fresh Cruiser: Optimized newton beside" role="graphics-symbol" aria-roledescription="point" transform="translate(20.849999999999994,111.33333333333333)" d="M2.7386127875258306,0A2.7386127875258306,2.7386127875258306,0,1,1,-2.7386127875258306,0A2.7386127875258306,2.7386127875258306,0,1,1,2.7386127875258306,0" fill="#333333" stroke="#54fdfe" stroke-width="2" opacity="1"></path><path aria-label="Month: Feb; South blossom: 419; Fresh Cruiser: Optimized newton beside" role="graphics-symbol" aria-roledescription="point" transform="translate(62.55,60.33333333333333)" d="M2.7386127875258306,0A2.7386127875258306,2.7386127875258306,0,1,1,-2.7386127875258306,0A2.7386127875258306,2.7386127875258306,0,1,1,2.7386127875258306,0" fill="#333333" stroke="#54fdfe" stroke-width="2" opacity="1"></path><path aria-label="Month: Mar; South blossom: 225; Fresh Cruiser: Optimized newton beside" role="graphics-symbol" aria-roledescription="point" transform="translate(104.25,125)" d="M2.7386127875258306,0A2.7386127875258306,2.7386127875258306,0,1,1,-2.7386127875258306,0A2.7386127875258306,2.7386127875258306,0,1,1,2.7386127875258306,0" fill="#333333" stroke="#54fdfe" stroke-width="2" opacity="1"></path><path aria-label="Month: Apr; South blossom: 435; Fresh Cruiser: Optimized newton beside" role="graphics-symbol" aria-roledescription="point" transform="translate(145.95,55.00000000000001)" d="M2.7386127875258306,0A2.7386127875258306,2.7386127875258306,0,1,1,-2.7386127875258306,0A2.7386127875258306,2.7386127875258306,0,1,1,2.7386127875258306,0" fill="#333333" stroke="#54fdfe" stroke-width="2" opacity="1"></path><path aria-label="Month: May; South blossom: 36; Fresh Cruiser: Optimized newton beside" role="graphics-symbol" aria-roledescription="point" transform="translate(187.65,188)" d="M2.7386127875258306,0A2.7386127875258306,2.7386127875258306,0,1,1,-2.7386127875258306,0A2.7386127875258306,2.7386127875258306,0,1,1,2.7386127875258306,0" fill="#333333" stroke="#54fdfe" stroke-width="2" opacity="1"></path><path aria-label="Month: June; South blossom: 202; Fresh Cruiser: Optimized newton beside" role="graphics-symbol" aria-roledescription="point" transform="translate(229.35,132.66666666666666)" d="M2.7386127875258306,0A2.7386127875258306,2.7386127875258306,0,1,1,-2.7386127875258306,0A2.7386127875258306,2.7386127875258306,0,1,1,2.7386127875258306,0" fill="#333333" stroke="#54fdfe" stroke-width="2" opacity="1"></path><path aria-label="Month: July; South blossom: 183; Fresh Cruiser: Optimized newton beside" role="graphics-symbol" aria-roledescription="point" transform="translate(271.05,139)" d="M2.7386127875258306,0A2.7386127875258306,2.7386127875258306,0,1,1,-2.7386127875258306,0A2.7386127875258306,2.7386127875258306,0,1,1,2.7386127875258306,0" fill="#333333" stroke="#54fdfe" stroke-width="2" opacity="1"></path><path aria-label="Month: Aug; South blossom: 253; Fresh Cruiser: Optimized newton beside" role="graphics-symbol" aria-roledescription="point" transform="translate(312.75,115.66666666666667)" d="M2.7386127875258306,0A2.7386127875258306,2.7386127875258306,0,1,1,-2.7386127875258306,0A2.7386127875258306,2.7386127875258306,0,1,1,2.7386127875258306,0" fill="#333333" stroke="#54fdfe" stroke-width="2" opacity="1"></path><path aria-label="Month: Sep; South blossom: 556; Fresh Cruiser: Optimized newton beside" role="graphics-symbol" aria-roledescription="point" transform="translate(354.45000000000005,14.666666666666671)" d="M2.7386127875258306,0A2.7386127875258306,2.7386127875258306,0,1,1,-2.7386127875258306,0A2.7386127875258306,2.7386127875258306,0,1,1,2.7386127875258306,0" fill="#333333" stroke="#54fdfe" stroke-width="2" opacity="1"></path><path aria-label="Month: Oct; South blossom: 302; Fresh Cruiser: Optimized newton beside" role="graphics-symbol" aria-roledescription="point" transform="translate(396.15,99.33333333333334)" d="M2.7386127875258306,0A2.7386127875258306,2.7386127875258306,0,1,1,-2.7386127875258306,0A2.7386127875258306,2.7386127875258306,0,1,1,2.7386127875258306,0" fill="#333333" stroke="#54fdfe" stroke-width="2" opacity="1"></path></g><g class="mark-group role-title"><g transform="translate(417,-37.25)"><path class="background" aria-hidden="true" d="M0,0h0v0h0Z" pointer-events="none"></path><g><g class="mark-text role-title-text" role="graphics-symbol" aria-roledescription="title" aria-label="Title text 'Product'" pointer-events="none"><text text-anchor="end" transform="translate(0,20)" font-family="avenir" font-size="25px" font-weight="bold" fill="#fff" opacity="1">Product</text></g></g><path class="foreground" aria-hidden="true" d="" pointer-events="none" display="none"></path></g></g></g><path class="foreground" aria-hidden="true" d="" display="none"></path></g></g></g></svg>