<svg xmlns="http://www.w3.org/2000/svg" xmlns:xlink="http://www.w3.org/1999/xlink" version="1.1" class="marks" width="523" height="282" viewBox="0 0 523 282" style="background-color: rgb(255, 255, 255);"><g fill="none" stroke-miterlimit="10" transform="translate(25,44)"><g class="mark-group role-frame root" role="graphics-object" aria-roledescription="group mark container"><g transform="translate(0,0)"><path class="background" aria-hidden="true" d="M0.5,0.5h493v200h-493Z" fill="transparent" stroke="#ddd"></path><g><g class="mark-group role-axis" aria-hidden="true"><g transform="translate(0.5,200.5)"><path class="background" aria-hidden="true" d="M0,0h0v0h0Z" pointer-events="none"></path><g><g class="mark-rule role-axis-grid" pointer-events="none"><line transform="translate(41,-200)" x2="0" y2="200" stroke="#D0D0D0" stroke-width="1" stroke-dasharray="1,0" opacity="1"></line><line transform="translate(123,-200)" x2="0" y2="200" stroke="#D0D0D0" stroke-width="1" stroke-dasharray="1,0" opacity="1"></line><line transform="translate(205,-200)" x2="0" y2="200" stroke="#D0D0D0" stroke-width="1" stroke-dasharray="1,0" opacity="1"></line><line transform="translate(288,-200)" x2="0" y2="200" stroke="#D0D0D0" stroke-width="1" stroke-dasharray="1,0" opacity="1"></line><line transform="translate(370,-200)" x2="0" y2="200" stroke="#D0D0D0" stroke-width="1" stroke-dasharray="1,0" opacity="1"></line><line transform="translate(452,-200)" x2="0" y2="200" stroke="#D0D0D0" stroke-width="1" stroke-dasharray="1,0" opacity="1"></line></g></g><path class="foreground" aria-hidden="true" d="" pointer-events="none" display="none"></path></g></g><g class="mark-group role-axis" role="graphics-symbol" aria-roledescription="axis" aria-label="X-axis for a discrete scale with 6 values: 1780, 1781, 1782, 1783, 1784, 1785"><g transform="translate(0.5,200.5)"><path class="background" aria-hidden="true" d="M0,0h0v0h0Z" pointer-events="none"></path><g><g class="mark-rule role-axis-tick" pointer-events="none"><line transform="translate(41,0)" x2="0" y2="5" stroke="#888" stroke-width="1" opacity="1"></line><line transform="translate(123,0)" x2="0" y2="5" stroke="#888" stroke-width="1" opacity="1"></line><line transform="translate(205,0)" x2="0" y2="5" stroke="#888" stroke-width="1" opacity="1"></line><line transform="translate(288,0)" x2="0" y2="5" stroke="#888" stroke-width="1" opacity="1"></line><line transform="translate(370,0)" x2="0" y2="5" stroke="#888" stroke-width="1" opacity="1"></line><line transform="translate(452,0)" x2="0" y2="5" stroke="#888" stroke-width="1" opacity="1"></line></g><g class="mark-text role-axis-label" pointer-events="none"><text text-anchor="start" transform="translate(41.083333333333314,7) rotate(90) translate(0,4)" font-family="Balto" font-size="13px" font-weight="normal" fill="#000" opacity="1">1780</text><text text-anchor="start" transform="translate(123.24999999999999,7) rotate(90) translate(0,4)" font-family="Balto" font-size="13px" font-weight="normal" fill="#000" opacity="1">1781</text><text text-anchor="start" transform="translate(205.41666666666666,7) rotate(90) translate(0,4)" font-family="Balto" font-size="13px" font-weight="normal" fill="#000" opacity="1">1782</text><text text-anchor="start" transform="translate(287.5833333333333,7) rotate(90) translate(0,4)" font-family="Balto" font-size="13px" font-weight="normal" fill="#000" opacity="1">1783</text><text text-anchor="start" transform="translate(369.75,7) rotate(90) translate(0,4)" font-family="Balto" font-size="13px" font-weight="normal" fill="#000" opacity="1">1784</text><text text-anchor="start" transform="translate(451.9166666666667,7) rotate(90) translate(0,4)" font-family="Balto" font-size="13px" font-weight="normal" fill="#000" opacity="1">1785</text></g><g class="mark-rule role-axis-domain" pointer-events="none"><line transform="translate(0,0)" x2="493" y2="0" stroke="#888" stroke-width="1" opacity="1"></line></g></g><path class="foreground" aria-hidden="true" d="" pointer-events="none" display="none"></path></g></g><g class="mark-group role-axis" role="graphics-symbol" aria-roledescription="axis" aria-label="Y-axis for a linear scale with values from 0 to 400"><g transform="translate(0.5,0.5)"><path class="background" aria-hidden="true" d="M0,0h0v0h0Z" pointer-events="none"></path><g><g class="mark-rule role-axis-tick" pointer-events="none"><line transform="translate(0,200)" x2="-5" y2="0" stroke="#888" stroke-width="1" opacity="1"></line><line transform="translate(0,150)" x2="-5" y2="0" stroke="#888" stroke-width="1" opacity="1"></line><line transform="translate(0,100)" x2="-5" y2="0" stroke="#888" stroke-width="1" opacity="1"></line><line transform="translate(0,50)" x2="-5" y2="0" stroke="#888" stroke-width="1" opacity="1"></line><line transform="translate(0,0)" x2="-5" y2="0" stroke="#888" stroke-width="1" opacity="1"></line></g><g class="mark-text role-axis-label" pointer-events="none"><text text-anchor="middle" transform="translate(-7,200) rotate(90) translate(0,10)" font-family="Balto" font-size="13px" font-weight="normal" fill="#000" opacity="1">0</text><text text-anchor="middle" transform="translate(-7,150) rotate(90) translate(0,10)" font-family="Balto" font-size="13px" font-weight="normal" fill="#000" opacity="1">100</text><text text-anchor="middle" transform="translate(-7,100) rotate(90) translate(0,10)" font-family="Balto" font-size="13px" font-weight="normal" fill="#000" opacity="1">200</text><text text-anchor="middle" transform="translate(-7,50) rotate(90) translate(0,10)" font-family="Balto" font-size="13px" font-weight="normal" fill="#000" opacity="1">300</text><text text-anchor="middle" transform="translate(-7,0) rotate(90) translate(0,10)" font-family="Balto" font-size="13px" font-weight="normal" fill="#000" opacity="1">400</text></g><g class="mark-rule role-axis-domain" pointer-events="none"><line transform="translate(0,200)" x2="0" y2="-200" stroke="#888" stroke-width="1" opacity="1"></line></g></g><path class="foreground" aria-hidden="true" d="" pointer-events="none" display="none"></path></g></g><g class="mark-group role-scope layer_0_pathgroup" role="graphics-object" aria-roledescription="group mark container"><g transform="translate(0,0)"><path class="background" aria-hidden="true" d="M0,0h493v200h-493Z"></path><g><g class="mark-line role-mark layer_0_marks" role="graphics-object" aria-roledescription="line mark container"><path aria-label="Year: 1780; Berkshire cultivate facilitate: 24; maroon North: solemnly" role="graphics-symbol" aria-roledescription="line mark" d="M41.083333333333314,188L123.24999999999999,189L205.41666666666666,13.5L287.5833333333333,129.5L369.75,105L451.9166666666667,164.5" stroke="#9cfbdb" stroke-width="2" stroke-dasharray="8,8"></path></g></g><path class="foreground" aria-hidden="true" d="" display="none"></path></g></g><g class="mark-symbol role-mark layer_1_marks" role="graphics-object" aria-roledescription="symbol mark container"><path aria-label="Year: 1780; Berkshire cultivate facilitate: 24; maroon North: solemnly" role="graphics-symbol" aria-roledescription="point" transform="translate(41.083333333333314,188)" d="M6.103277807866851,0A6.103277807866851,6.103277807866851,0,1,1,-6.103277807866851,0A6.103277807866851,6.103277807866851,0,1,1,6.103277807866851,0" fill="#9cfbdb" stroke-width="2" opacity="1"></path><path aria-label="Year: 1781; Berkshire cultivate facilitate: 22; maroon North: solemnly" role="graphics-symbol" aria-roledescription="point" transform="translate(123.24999999999999,189)" d="M6.103277807866851,0A6.103277807866851,6.103277807866851,0,1,1,-6.103277807866851,0A6.103277807866851,6.103277807866851,0,1,1,6.103277807866851,0" fill="#9cfbdb" stroke-width="2" opacity="1"></path><path aria-label="Year: 1782; Berkshire cultivate facilitate: 373; maroon North: solemnly" role="graphics-symbol" aria-roledescription="point" transform="translate(205.41666666666666,13.5)" d="M6.103277807866851,0A6.103277807866851,6.103277807866851,0,1,1,-6.103277807866851,0A6.103277807866851,6.103277807866851,0,1,1,6.103277807866851,0" fill="#9cfbdb" stroke-width="2" opacity="1"></path><path aria-label="Year: 1783; Berkshire cultivate facilitate: 141; maroon North: solemnly" role="graphics-symbol" aria-roledescription="point" transform="translate(287.5833333333333,129.5)" d="M6.103277807866851,0A6.103277807866851,6.103277807866851,0,1,1,-6.103277807866851,0A6.103277807866851,6.103277807866851,0,1,1,6.103277807866851,0" fill="#9cfbdb" stroke-width="2" opacity="1"></path><path aria-label="Year: 1784; Berkshire cultivate facilitate: 190; maroon North: solemnly" role="graphics-symbol" aria-roledescription="point" transform="translate(369.75,105)" d="M6.103277807866851,0A6.103277807866851,6.103277807866851,0,1,1,-6.103277807866851,0A6.103277807866851,6.103277807866851,0,1,1,6.103277807866851,0" fill="#9cfbdb" stroke-width="2" opacity="1"></path><path aria-label="Year: 1785; Berkshire cultivate facilitate: 71; maroon North: solemnly" role="graphics-symbol" aria-roledescription="point" transform="translate(451.9166666666667,164.5)" d="M6.103277807866851,0A6.103277807866851,6.103277807866851,0,1,1,-6.103277807866851,0A6.103277807866851,6.103277807866851,0,1,1,6.103277807866851,0" fill="#9cfbdb" stroke-width="2" opacity="1"></path></g><g class="mark-group role-title"><g transform="translate(246.5,-38.75)"><path class="background" aria-hidden="true" d="M0,0h0v0h0Z" pointer-events="none"></path><g><g class="mark-text role-title-text" role="graphics-symbol" aria-roledescription="title" aria-label="Title text 'Dynamic mobility Northwest'" pointer-events="none"><text text-anchor="middle" transform="translate(0,20)" font-family="Balto" font-size="25px" font-weight="bold" fill="#000" opacity="1">Dynamic mobility Northwest</text></g></g><path class="foreground" aria-hidden="true" d="" pointer-events="none" display="none"></path></g></g></g><path class="foreground" aria-hidden="true" d="" display="none"></path></g></g></g></svg>