<svg xmlns="http://www.w3.org/2000/svg" xmlns:xlink="http://www.w3.org/1999/xlink" version="1.1" class="marks" width="962" height="268" viewBox="0 0 962 268" style="background-color: rgb(51, 51, 51);"><g fill="none" stroke-miterlimit="10" transform="translate(186,41)"><g class="mark-group role-frame root" role="graphics-object" aria-roledescription="group mark container"><g transform="translate(0,0)"><path class="background" aria-hidden="true" d="M0.5,0.5h771v200h-771Z" fill="transparent" stroke="#ddd"></path><g><g class="mark-group role-axis" aria-hidden="true"><g transform="translate(0.5,200.5)"><path class="background" aria-hidden="true" d="M0,0h0v0h0Z" pointer-events="none"></path><g><g class="mark-rule role-axis-grid" pointer-events="none"><line transform="translate(39,-200)" x2="0" y2="200" stroke="#747474" stroke-width="1" stroke-dasharray="1,0" opacity="1"></line><line transform="translate(116,-200)" x2="0" y2="200" stroke="#747474" stroke-width="1" stroke-dasharray="1,0" opacity="1"></line><line transform="translate(193,-200)" x2="0" y2="200" stroke="#747474" stroke-width="1" stroke-dasharray="1,0" opacity="1"></line><line transform="translate(270,-200)" x2="0" y2="200" stroke="#747474" stroke-width="1" stroke-dasharray="1,0" opacity="1"></line><line transform="translate(347,-200)" x2="0" y2="200" stroke="#747474" stroke-width="1" stroke-dasharray="1,0" opacity="1"></line><line transform="translate(424,-200)" x2="0" y2="200" stroke="#747474" stroke-width="1" stroke-dasharray="1,0" opacity="1"></line><line transform="translate(501,-200)" x2="0" y2="200" stroke="#747474" stroke-width="1" stroke-dasharray="1,0" opacity="1"></line><line transform="translate(578,-200)" x2="0" y2="200" stroke="#747474" stroke-width="1" stroke-dasharray="1,0" opacity="1"></line><line transform="translate(655,-200)" x2="0" y2="200" stroke="#747474" stroke-width="1" stroke-dasharray="1,0" opacity="1"></line><line transform="translate(732,-200)" x2="0" y2="200" stroke="#747474" stroke-width="1" stroke-dasharray="1,0" opacity="1"></line></g></g><path class="foreground" aria-hidden="true" d="" pointer-events="none" display="none"></path></g></g><g class="mark-group role-axis" aria-hidden="true"><g transform="translate(0.5,0.5)"><path class="background" aria-hidden="true" d="M0,0h0v0h0Z" pointer-events="none"></path><g><g class="mark-rule role-axis-grid" pointer-events="none"><line transform="translate(0,200)" x2="771" y2="0" stroke="#747474" stroke-width="1" stroke-dasharray="1,0" opacity="1"></line><line transform="translate(0,160)" x2="771" y2="0" stroke="#747474" stroke-width="1" stroke-dasharray="1,0" opacity="1"></line><line transform="translate(0,120)" x2="771" y2="0" stroke="#747474" stroke-width="1" stroke-dasharray="1,0" opacity="1"></line><line transform="translate(0,80)" x2="771" y2="0" stroke="#747474" stroke-width="1" stroke-dasharray="1,0" opacity="1"></line><line transform="translate(0,40)" x2="771" y2="0" stroke="#747474" stroke-width="1" stroke-dasharray="1,0" opacity="1"></line><line transform="translate(0,0)" x2="771" y2="0" stroke="#747474" stroke-width="1" stroke-dasharray="1,0" opacity="1"></line></g></g><path class="foreground" aria-hidden="true" d="" pointer-events="none" display="none"></path></g></g><g class="mark-group role-axis" role="graphics-symbol" aria-roledescription="axis" aria-label="X-axis for a discrete scale with 10 values: Jan, Feb, Mar, Apr, May, ending with Oct"><g transform="translate(0.5,200.5)"><path class="background" aria-hidden="true" d="M0,0h0v0h0Z" pointer-events="none"></path><g><g class="mark-rule role-axis-tick" pointer-events="none"><line transform="translate(39,0)" x2="0" y2="5" stroke="#888" stroke-width="1" opacity="1"></line><line transform="translate(116,0)" x2="0" y2="5" stroke="#888" stroke-width="1" opacity="1"></line><line transform="translate(193,0)" x2="0" y2="5" stroke="#888" stroke-width="1" opacity="1"></line><line transform="translate(270,0)" x2="0" y2="5" stroke="#888" stroke-width="1" opacity="1"></line><line transform="translate(347,0)" x2="0" y2="5" stroke="#888" stroke-width="1" opacity="1"></line><line transform="translate(424,0)" x2="0" y2="5" stroke="#888" stroke-width="1" opacity="1"></line><line transform="translate(501,0)" x2="0" y2="5" stroke="#888" stroke-width="1" opacity="1"></line><line transform="translate(578,0)" x2="0" y2="5" stroke="#888" stroke-width="1" opacity="1"></line><line transform="translate(655,0)" x2="0" y2="5" stroke="#888" stroke-width="1" opacity="1"></line><line transform="translate(732,0)" x2="0" y2="5" stroke="#888" stroke-width="1" opacity="1"></line></g><g class="mark-text role-axis-label" pointer-events="none"><text text-anchor="middle" transform="translate(38.55000000000001,19)" font-family="sans-serif" font-size="15px" font-weight="normal" fill="#fff" opacity="1">Jan</text><text text-anchor="middle" transform="translate(115.65,19)" font-family="sans-serif" font-size="15px" font-weight="normal" fill="#fff" opacity="1">Feb</text><text text-anchor="middle" transform="translate(192.75,19)" font-family="sans-serif" font-size="15px" font-weight="normal" fill="#fff" opacity="1">Mar</text><text text-anchor="middle" transform="translate(269.85,19)" font-family="sans-serif" font-size="15px" font-weight="normal" fill="#fff" opacity="1">Apr</text><text text-anchor="middle" transform="translate(346.95,19)" font-family="sans-serif" font-size="15px" font-weight="normal" fill="#fff" opacity="1">May</text><text text-anchor="middle" transform="translate(424.05,19)" font-family="sans-serif" font-size="15px" font-weight="normal" fill="#fff" opacity="1">June</text><text text-anchor="middle" transform="translate(501.15,19)" font-family="sans-serif" font-size="15px" font-weight="normal" fill="#fff" opacity="1">July</text><text text-anchor="middle" transform="translate(578.25,19)" font-family="sans-serif" font-size="15px" font-weight="normal" fill="#fff" opacity="1">Aug</text><text text-anchor="middle" transform="translate(655.3499999999999,19)" font-family="sans-serif" font-size="15px" font-weight="normal" fill="#fff" opacity="1">Sep</text><text text-anchor="middle" transform="translate(732.45,19)" font-family="sans-serif" font-size="15px" font-weight="normal" fill="#fff" opacity="1">Oct</text></g><g class="mark-rule role-axis-domain" pointer-events="none"><line transform="translate(0,0)" x2="771" y2="0" stroke="#888" stroke-width="1" opacity="1"></line></g></g><path class="foreground" aria-hidden="true" d="" pointer-events="none" display="none"></path></g></g><g class="mark-group role-axis" role="graphics-symbol" aria-roledescription="axis" aria-label="Y-axis for a linear scale with values from 0 to 1,000"><g transform="translate(0.5,0.5)"><path class="background" aria-hidden="true" d="M0,0h0v0h0Z" pointer-events="none"></path><g><g class="mark-text role-axis-label" pointer-events="none"><text text-anchor="end" transform="translate(-2,205)" font-family="sans-serif" font-size="15px" font-weight="normal" fill="#fff" opacity="1">0</text><text text-anchor="end" transform="translate(-2,165)" font-family="sans-serif" font-size="15px" font-weight="normal" fill="#fff" opacity="1">200</text><text text-anchor="end" transform="translate(-2,125)" font-family="sans-serif" font-size="15px" font-weight="normal" fill="#fff" opacity="1">400</text><text text-anchor="end" transform="translate(-2,85)" font-family="sans-serif" font-size="15px" font-weight="normal" fill="#fff" opacity="1">600</text><text text-anchor="end" transform="translate(-2,44.99999999999999)" font-family="sans-serif" font-size="15px" font-weight="normal" fill="#fff" opacity="1">800</text><text text-anchor="end" transform="translate(-2,5)" font-family="sans-serif" font-size="15px" font-weight="normal" fill="#fff" opacity="1">1,000</text></g><g class="mark-rule role-axis-domain" pointer-events="none"><line transform="translate(0,200)" x2="0" y2="-200" stroke="#888" stroke-width="1" opacity="1"></line></g></g><path class="foreground" aria-hidden="true" d="" pointer-events="none" display="none"></path></g></g><g class="mark-group role-scope layer_0_pathgroup" role="graphics-object" aria-roledescription="group mark container"><g transform="translate(0,0)"><path class="background" aria-hidden="true" d="M0,0h771v200h-771Z"></path><g><g class="mark-line role-mark layer_0_marks" role="graphics-object" aria-roledescription="line mark container"><path aria-label="Month: Jan; lest excepturi: 670; Web: modular delectus purple" role="graphics-symbol" aria-roledescription="line mark" d="M38.55000000000001,65.99999999999999L115.65,68L192.75,34.60000000000001L269.85,107.79999999999998L346.95,79L424.05,101.8L501.15,132.20000000000002L578.25,71.8L655.3499999999999,183L732.45,27.200000000000003" stroke="#88518e" stroke-width="2" stroke-dasharray="1,0"></path></g></g><path class="foreground" aria-hidden="true" d="" display="none"></path></g><g transform="translate(0,0)"><path class="background" aria-hidden="true" d="M0,0h771v200h-771Z"></path><g><g class="mark-line role-mark layer_0_marks" role="graphics-object" aria-roledescription="line mark container"><path aria-label="Month: Jan; lest excepturi: 595; Web: Southwest" role="graphics-symbol" aria-roledescription="line mark" d="M38.55000000000001,81L115.65,122L192.75,62.000000000000014L269.85,100.2L346.95,17.599999999999994L424.05,53.800000000000004L501.15,75.6L578.25,121.39999999999999L655.3499999999999,131.6L732.45,90.19999999999999" stroke="#f2ca9c" stroke-width="2" stroke-dasharray="1,0"></path></g></g><path class="foreground" aria-hidden="true" d="" display="none"></path></g></g><g class="mark-symbol role-mark layer_1_marks" role="graphics-object" aria-roledescription="symbol mark container"><path aria-label="Month: Jan; lest excepturi: 670; Web: modular delectus purple" role="graphics-symbol" aria-roledescription="point" transform="translate(38.55000000000001,65.99999999999999)" d="M2.7386127875258306,0A2.7386127875258306,2.7386127875258306,0,1,1,-2.7386127875258306,0A2.7386127875258306,2.7386127875258306,0,1,1,2.7386127875258306,0" fill="#333333" stroke="#88518e" stroke-width="2" opacity="1"></path><path aria-label="Month: Feb; lest excepturi: 660; Web: modular delectus purple" role="graphics-symbol" aria-roledescription="point" transform="translate(115.65,68)" d="M2.7386127875258306,0A2.7386127875258306,2.7386127875258306,0,1,1,-2.7386127875258306,0A2.7386127875258306,2.7386127875258306,0,1,1,2.7386127875258306,0" fill="#333333" stroke="#88518e" stroke-width="2" opacity="1"></path><path aria-label="Month: Mar; lest excepturi: 827; Web: modular delectus purple" role="graphics-symbol" aria-roledescription="point" transform="translate(192.75,34.60000000000001)" d="M2.7386127875258306,0A2.7386127875258306,2.7386127875258306,0,1,1,-2.7386127875258306,0A2.7386127875258306,2.7386127875258306,0,1,1,2.7386127875258306,0" fill="#333333" stroke="#88518e" stroke-width="2" opacity="1"></path><path aria-label="Month: Apr; lest excepturi: 461; Web: modular delectus purple" role="graphics-symbol" aria-roledescription="point" transform="translate(269.85,107.79999999999998)" d="M2.7386127875258306,0A2.7386127875258306,2.7386127875258306,0,1,1,-2.7386127875258306,0A2.7386127875258306,2.7386127875258306,0,1,1,2.7386127875258306,0" fill="#333333" stroke="#88518e" stroke-width="2" opacity="1"></path><path aria-label="Month: May; lest excepturi: 605; Web: modular delectus purple" role="graphics-symbol" aria-roledescription="point" transform="translate(346.95,79)" d="M2.7386127875258306,0A2.7386127875258306,2.7386127875258306,0,1,1,-2.7386127875258306,0A2.7386127875258306,2.7386127875258306,0,1,1,2.7386127875258306,0" fill="#333333" stroke="#88518e" stroke-width="2" opacity="1"></path><path aria-label="Month: June; lest excepturi: 491; Web: modular delectus purple" role="graphics-symbol" aria-roledescription="point" transform="translate(424.05,101.8)" d="M2.7386127875258306,0A2.7386127875258306,2.7386127875258306,0,1,1,-2.7386127875258306,0A2.7386127875258306,2.7386127875258306,0,1,1,2.7386127875258306,0" fill="#333333" stroke="#88518e" stroke-width="2" opacity="1"></path><path aria-label="Month: July; lest excepturi: 339; Web: modular delectus purple" role="graphics-symbol" aria-roledescription="point" transform="translate(501.15,132.20000000000002)" d="M2.7386127875258306,0A2.7386127875258306,2.7386127875258306,0,1,1,-2.7386127875258306,0A2.7386127875258306,2.7386127875258306,0,1,1,2.7386127875258306,0" fill="#333333" stroke="#88518e" stroke-width="2" opacity="1"></path><path aria-label="Month: Aug; lest excepturi: 641; Web: modular delectus purple" role="graphics-symbol" aria-roledescription="point" transform="translate(578.25,71.8)" d="M2.7386127875258306,0A2.7386127875258306,2.7386127875258306,0,1,1,-2.7386127875258306,0A2.7386127875258306,2.7386127875258306,0,1,1,2.7386127875258306,0" fill="#333333" stroke="#88518e" stroke-width="2" opacity="1"></path><path aria-label="Month: Sep; lest excepturi: 85; Web: modular delectus purple" role="graphics-symbol" aria-roledescription="point" transform="translate(655.3499999999999,183)" d="M2.7386127875258306,0A2.7386127875258306,2.7386127875258306,0,1,1,-2.7386127875258306,0A2.7386127875258306,2.7386127875258306,0,1,1,2.7386127875258306,0" fill="#333333" stroke="#88518e" stroke-width="2" opacity="1"></path><path aria-label="Month: Oct; lest excepturi: 864; Web: modular delectus purple" role="graphics-symbol" aria-roledescription="point" transform="translate(732.45,27.200000000000003)" d="M2.7386127875258306,0A2.7386127875258306,2.7386127875258306,0,1,1,-2.7386127875258306,0A2.7386127875258306,2.7386127875258306,0,1,1,2.7386127875258306,0" fill="#333333" stroke="#88518e" stroke-width="2" opacity="1"></path><path aria-label="Month: Jan; lest excepturi: 595; Web: Southwest" role="graphics-symbol" aria-roledescription="point" transform="translate(38.55000000000001,81)" d="M2.7386127875258306,0A2.7386127875258306,2.7386127875258306,0,1,1,-2.7386127875258306,0A2.7386127875258306,2.7386127875258306,0,1,1,2.7386127875258306,0" fill="#333333" stroke="#f2ca9c" stroke-width="2" opacity="1"></path><path aria-label="Month: Feb; lest excepturi: 390; Web: Southwest" role="graphics-symbol" aria-roledescription="point" transform="translate(115.65,122)" d="M2.7386127875258306,0A2.7386127875258306,2.7386127875258306,0,1,1,-2.7386127875258306,0A2.7386127875258306,2.7386127875258306,0,1,1,2.7386127875258306,0" fill="#333333" stroke="#f2ca9c" stroke-width="2" opacity="1"></path><path aria-label="Month: Mar; lest excepturi: 690; Web: Southwest" role="graphics-symbol" aria-roledescription="point" transform="translate(192.75,62.000000000000014)" d="M2.7386127875258306,0A2.7386127875258306,2.7386127875258306,0,1,1,-2.7386127875258306,0A2.7386127875258306,2.7386127875258306,0,1,1,2.7386127875258306,0" fill="#333333" stroke="#f2ca9c" stroke-width="2" opacity="1"></path><path aria-label="Month: Apr; lest excepturi: 499; Web: Southwest" role="graphics-symbol" aria-roledescription="point" transform="translate(269.85,100.2)" d="M2.7386127875258306,0A2.7386127875258306,2.7386127875258306,0,1,1,-2.7386127875258306,0A2.7386127875258306,2.7386127875258306,0,1,1,2.7386127875258306,0" fill="#333333" stroke="#f2ca9c" stroke-width="2" opacity="1"></path><path aria-label="Month: May; lest excepturi: 912; Web: Southwest" role="graphics-symbol" aria-roledescription="point" transform="translate(346.95,17.599999999999994)" d="M2.7386127875258306,0A2.7386127875258306,2.7386127875258306,0,1,1,-2.7386127875258306,0A2.7386127875258306,2.7386127875258306,0,1,1,2.7386127875258306,0" fill="#333333" stroke="#f2ca9c" stroke-width="2" opacity="1"></path><path aria-label="Month: June; lest excepturi: 731; Web: Southwest" role="graphics-symbol" aria-roledescription="point" transform="translate(424.05,53.800000000000004)" d="M2.7386127875258306,0A2.7386127875258306,2.7386127875258306,0,1,1,-2.7386127875258306,0A2.7386127875258306,2.7386127875258306,0,1,1,2.7386127875258306,0" fill="#333333" stroke="#f2ca9c" stroke-width="2" opacity="1"></path><path aria-label="Month: July; lest excepturi: 622; Web: Southwest" role="graphics-symbol" aria-roledescription="point" transform="translate(501.15,75.6)" d="M2.7386127875258306,0A2.7386127875258306,2.7386127875258306,0,1,1,-2.7386127875258306,0A2.7386127875258306,2.7386127875258306,0,1,1,2.7386127875258306,0" fill="#333333" stroke="#f2ca9c" stroke-width="2" opacity="1"></path><path aria-label="Month: Aug; lest excepturi: 393; Web: Southwest" role="graphics-symbol" aria-roledescription="point" transform="translate(578.25,121.39999999999999)" d="M2.7386127875258306,0A2.7386127875258306,2.7386127875258306,0,1,1,-2.7386127875258306,0A2.7386127875258306,2.7386127875258306,0,1,1,2.7386127875258306,0" fill="#333333" stroke="#f2ca9c" stroke-width="2" opacity="1"></path><path aria-label="Month: Sep; lest excepturi: 342; Web: Southwest" role="graphics-symbol" aria-roledescription="point" transform="translate(655.3499999999999,131.6)" d="M2.7386127875258306,0A2.7386127875258306,2.7386127875258306,0,1,1,-2.7386127875258306,0A2.7386127875258306,2.7386127875258306,0,1,1,2.7386127875258306,0" fill="#333333" stroke="#f2ca9c" stroke-width="2" opacity="1"></path><path aria-label="Month: Oct; lest excepturi: 549; Web: Southwest" role="graphics-symbol" aria-roledescription="point" transform="translate(732.45,90.19999999999999)" d="M2.7386127875258306,0A2.7386127875258306,2.7386127875258306,0,1,1,-2.7386127875258306,0A2.7386127875258306,2.7386127875258306,0,1,1,2.7386127875258306,0" fill="#333333" stroke="#f2ca9c" stroke-width="2" opacity="1"></path></g><g class="mark-text role-mark layer_2_marks" role="graphics-object" aria-roledescription="text mark container"><text aria-label="Month: Jan; lest excepturi: 670" role="graphics-symbol" aria-roledescription="text mark" text-anchor="middle" transform="translate(38.55000000000001,86.99999999999999)" font-family="sans-serif" font-size="19px" fill="#fff" opacity="1">670</text><text aria-label="Month: Feb; lest excepturi: 660" role="graphics-symbol" aria-roledescription="text mark" text-anchor="middle" transform="translate(115.65,89)" font-family="sans-serif" font-size="19px" fill="#fff" opacity="1">660</text><text aria-label="Month: Mar; lest excepturi: 827" role="graphics-symbol" aria-roledescription="text mark" text-anchor="middle" transform="translate(192.75,55.60000000000001)" font-family="sans-serif" font-size="19px" fill="#fff" opacity="1">827</text><text aria-label="Month: Apr; lest excepturi: 461" role="graphics-symbol" aria-roledescription="text mark" text-anchor="middle" transform="translate(269.85,128.79999999999998)" font-family="sans-serif" font-size="19px" fill="#fff" opacity="1">461</text><text aria-label="Month: May; lest excepturi: 605" role="graphics-symbol" aria-roledescription="text mark" text-anchor="middle" transform="translate(346.95,100)" font-family="sans-serif" font-size="19px" fill="#fff" opacity="1">605</text><text aria-label="Month: June; lest excepturi: 491" role="graphics-symbol" aria-roledescription="text mark" text-anchor="middle" transform="translate(424.05,122.8)" font-family="sans-serif" font-size="19px" fill="#fff" opacity="1">491</text><text aria-label="Month: July; lest excepturi: 339" role="graphics-symbol" aria-roledescription="text mark" text-anchor="middle" transform="translate(501.15,153.20000000000002)" font-family="sans-serif" font-size="19px" fill="#fff" opacity="1">339</text><text aria-label="Month: Aug; lest excepturi: 641" role="graphics-symbol" aria-roledescription="text mark" text-anchor="middle" transform="translate(578.25,92.8)" font-family="sans-serif" font-size="19px" fill="#fff" opacity="1">641</text><text aria-label="Month: Sep; lest excepturi: 85" role="graphics-symbol" aria-roledescription="text mark" text-anchor="middle" transform="translate(655.3499999999999,204)" font-family="sans-serif" font-size="19px" fill="#fff" opacity="1">85</text><text aria-label="Month: Oct; lest excepturi: 864" role="graphics-symbol" aria-roledescription="text mark" text-anchor="middle" transform="translate(732.45,48.2)" font-family="sans-serif" font-size="19px" fill="#fff" opacity="1">864</text><text aria-label="Month: Jan; lest excepturi: 595" role="graphics-symbol" aria-roledescription="text mark" text-anchor="middle" transform="translate(38.55000000000001,102)" font-family="sans-serif" font-size="19px" fill="#fff" opacity="1">595</text><text aria-label="Month: Feb; lest excepturi: 390" role="graphics-symbol" aria-roledescription="text mark" text-anchor="middle" transform="translate(115.65,143)" font-family="sans-serif" font-size="19px" fill="#fff" opacity="1">390</text><text aria-label="Month: Mar; lest excepturi: 690" role="graphics-symbol" aria-roledescription="text mark" text-anchor="middle" transform="translate(192.75,83.00000000000001)" font-family="sans-serif" font-size="19px" fill="#fff" opacity="1">690</text><text aria-label="Month: Apr; lest excepturi: 499" role="graphics-symbol" aria-roledescription="text mark" text-anchor="middle" transform="translate(269.85,121.2)" font-family="sans-serif" font-size="19px" fill="#fff" opacity="1">499</text><text aria-label="Month: May; lest excepturi: 912" role="graphics-symbol" aria-roledescription="text mark" text-anchor="middle" transform="translate(346.95,38.599999999999994)" font-family="sans-serif" font-size="19px" fill="#fff" opacity="1">912</text><text aria-label="Month: June; lest excepturi: 731" role="graphics-symbol" aria-roledescription="text mark" text-anchor="middle" transform="translate(424.05,74.80000000000001)" font-family="sans-serif" font-size="19px" fill="#fff" opacity="1">731</text><text aria-label="Month: July; lest excepturi: 622" role="graphics-symbol" aria-roledescription="text mark" text-anchor="middle" transform="translate(501.15,96.6)" font-family="sans-serif" font-size="19px" fill="#fff" opacity="1">622</text><text aria-label="Month: Aug; lest excepturi: 393" role="graphics-symbol" aria-roledescription="text mark" text-anchor="middle" transform="translate(578.25,142.39999999999998)" font-family="sans-serif" font-size="19px" fill="#fff" opacity="1">393</text><text aria-label="Month: Sep; lest excepturi: 342" role="graphics-symbol" aria-roledescription="text mark" text-anchor="middle" transform="translate(655.3499999999999,152.6)" font-family="sans-serif" font-size="19px" fill="#fff" opacity="1">342</text><text aria-label="Month: Oct; lest excepturi: 549" role="graphics-symbol" aria-roledescription="text mark" text-anchor="middle" transform="translate(732.45,111.19999999999999)" font-family="sans-serif" font-size="19px" fill="#fff" opacity="1">549</text></g><g class="mark-group role-legend" role="graphics-symbol" aria-roledescription="legend" aria-label="Symbol legend for stroke color with 2 values: modular delectus purple, Southwest"><g transform="translate(-181,0)"><path class="background" aria-hidden="true" d="M0,0h123v29h-123Z" pointer-events="none"></path><g><g class="mark-group role-legend-entry"><g transform="translate(0,0)"><path class="background" aria-hidden="true" d="M0,0h0v0h0Z" pointer-events="none"></path><g><g class="mark-group role-scope" role="graphics-object" aria-roledescription="group mark container"><g transform="translate(0,0)"><path class="background" aria-hidden="true" d="M0,0h122.728515625v12.5h-122.728515625Z" pointer-events="none" opacity="1"></path><g><g class="mark-symbol role-legend-symbol" pointer-events="none"><path transform="translate(6,6)" d="M5,0A5,5,0,1,1,-5,0A5,5,0,1,1,5,0" fill="#333333" stroke="#88518e" stroke-width="1.5" opacity="1"></path></g><g class="mark-text role-legend-label" pointer-events="none"><text text-anchor="start" transform="translate(16,9)" font-family="sans-serif" font-size="10px" fill="#fff" opacity="1">modular delectus purple</text></g></g><path class="foreground" aria-hidden="true" d="" pointer-events="none" display="none"></path></g><g transform="translate(0,16)"><path class="background" aria-hidden="true" d="M0,0h122.728515625v12.5h-122.728515625Z" pointer-events="none" opacity="1"></path><g><g class="mark-symbol role-legend-symbol" pointer-events="none"><path transform="translate(6,6)" d="M5,0A5,5,0,1,1,-5,0A5,5,0,1,1,5,0" fill="#333333" stroke="#f2ca9c" stroke-width="1.5" opacity="1"></path></g><g class="mark-text role-legend-label" pointer-events="none"><text text-anchor="start" transform="translate(16,9)" font-family="sans-serif" font-size="10px" fill="#fff" opacity="1">Southwest</text></g></g><path class="foreground" aria-hidden="true" d="" pointer-events="none" display="none"></path></g></g></g><path class="foreground" aria-hidden="true" d="" pointer-events="none" display="none"></path></g></g></g><path class="foreground" aria-hidden="true" d="" pointer-events="none" display="none"></path></g></g><g class="mark-group role-title"><g transform="translate(-181,-36)"><path class="background" aria-hidden="true" d="M0,0h0v0h0Z" pointer-events="none"></path><g><g class="mark-text role-title-text" role="graphics-symbol" aria-roledescription="title" aria-label="Title text 'bandwidth enterprise'" pointer-events="none"><text text-anchor="start" transform="translate(0,20)" font-family="sans-serif" font-size="25px" font-weight="bold" fill="#fff" opacity="1">bandwidth enterprise</text></g></g><path class="foreground" aria-hidden="true" d="" pointer-events="none" display="none"></path></g></g></g><path class="foreground" aria-hidden="true" d="" display="none"></path></g></g></g></svg>