<svg xmlns="http://www.w3.org/2000/svg" xmlns:xlink="http://www.w3.org/1999/xlink" version="1.1" class="marks" width="895" height="274" viewBox="0 0 895 274" style="background-color: rgb(255, 255, 255);"><g fill="none" stroke-miterlimit="10" transform="translate(55,43)"><g class="mark-group role-frame root" role="graphics-object" aria-roledescription="group mark container"><g transform="translate(0,0)"><path class="background" aria-hidden="true" d="M0.5,0.5h688v200h-688Z" fill="transparent" stroke="#ddd"></path><g><g class="mark-group role-axis" aria-hidden="true"><g transform="translate(0.5,0.5)"><path class="background" aria-hidden="true" d="M0,0h0v0h0Z" pointer-events="none"></path><g><g class="mark-rule role-axis-grid" pointer-events="none"><line transform="translate(0,200)" x2="688" y2="0" stroke="#D0D0D0" stroke-width="1" stroke-dasharray="1,0" opacity="1"></line><line transform="translate(0,160)" x2="688" y2="0" stroke="#D0D0D0" stroke-width="1" stroke-dasharray="1,0" opacity="1"></line><line transform="translate(0,120)" x2="688" y2="0" stroke="#D0D0D0" stroke-width="1" stroke-dasharray="1,0" opacity="1"></line><line transform="translate(0,80)" x2="688" y2="0" stroke="#D0D0D0" stroke-width="1" stroke-dasharray="1,0" opacity="1"></line><line transform="translate(0,40)" x2="688" y2="0" stroke="#D0D0D0" stroke-width="1" stroke-dasharray="1,0" opacity="1"></line><line transform="translate(0,0)" x2="688" y2="0" stroke="#D0D0D0" stroke-width="1" stroke-dasharray="1,0" opacity="1"></line></g></g><path class="foreground" aria-hidden="true" d="" pointer-events="none" display="none"></path></g></g><g class="mark-group role-axis" role="graphics-symbol" aria-roledescription="axis" aria-label="X-axis for a discrete scale with 10 values: 1794, 1796, 1798, 1800, 1802, ending with 1812"><g transform="translate(0.5,200.5)"><path class="background" aria-hidden="true" d="M0,0h0v0h0Z" pointer-events="none"></path><g><g class="mark-rule role-axis-tick" pointer-events="none"><line transform="translate(34,0)" x2="0" y2="5" stroke="#888" stroke-width="1" opacity="1"></line><line transform="translate(103,0)" x2="0" y2="5" stroke="#888" stroke-width="1" opacity="1"></line><line transform="translate(172,0)" x2="0" y2="5" stroke="#888" stroke-width="1" opacity="1"></line><line transform="translate(241,0)" x2="0" y2="5" stroke="#888" stroke-width="1" opacity="1"></line><line transform="translate(310,0)" x2="0" y2="5" stroke="#888" stroke-width="1" opacity="1"></line><line transform="translate(378,0)" x2="0" y2="5" stroke="#888" stroke-width="1" opacity="1"></line><line transform="translate(447,0)" x2="0" y2="5" stroke="#888" stroke-width="1" opacity="1"></line><line transform="translate(516,0)" x2="0" y2="5" stroke="#888" stroke-width="1" opacity="1"></line><line transform="translate(585,0)" x2="0" y2="5" stroke="#888" stroke-width="1" opacity="1"></line><line transform="translate(654,0)" x2="0" y2="5" stroke="#888" stroke-width="1" opacity="1"></line></g><g class="mark-text role-axis-label" pointer-events="none"><text text-anchor="middle" transform="translate(34.400000000000034,22)" font-family="sans-serif" font-size="19px" font-weight="bold" fill="#000" opacity="1">1794</text><text text-anchor="middle" transform="translate(103.20000000000003,22)" font-family="sans-serif" font-size="19px" font-weight="bold" fill="#000" opacity="1">1796</text><text text-anchor="middle" transform="translate(172.00000000000003,22)" font-family="sans-serif" font-size="19px" font-weight="bold" fill="#000" opacity="1">1798</text><text text-anchor="middle" transform="translate(240.8,22)" font-family="sans-serif" font-size="19px" font-weight="bold" fill="#000" opacity="1">1800</text><text text-anchor="middle" transform="translate(309.6,22)" font-family="sans-serif" font-size="19px" font-weight="bold" fill="#000" opacity="1">1802</text><text text-anchor="middle" transform="translate(378.40000000000003,22)" font-family="sans-serif" font-size="19px" font-weight="bold" fill="#000" opacity="1">1804</text><text text-anchor="middle" transform="translate(447.2,22)" font-family="sans-serif" font-size="19px" font-weight="bold" fill="#000" opacity="1">1806</text><text text-anchor="middle" transform="translate(516,22)" font-family="sans-serif" font-size="19px" font-weight="bold" fill="#000" opacity="1">1808</text><text text-anchor="middle" transform="translate(584.8,22)" font-family="sans-serif" font-size="19px" font-weight="bold" fill="#000" opacity="1">1810</text><text text-anchor="middle" transform="translate(653.5999999999999,22)" font-family="sans-serif" font-size="19px" font-weight="bold" fill="#000" opacity="1">1812</text></g><g class="mark-rule role-axis-domain" pointer-events="none"><line transform="translate(0,0)" x2="688" y2="0" stroke="#888" stroke-width="1" opacity="1"></line></g></g><path class="foreground" aria-hidden="true" d="" pointer-events="none" display="none"></path></g></g><g class="mark-group role-axis" role="graphics-symbol" aria-roledescription="axis" aria-label="Y-axis for a linear scale with values from 0 to 1,000"><g transform="translate(0.5,0.5)"><path class="background" aria-hidden="true" d="M0,0h0v0h0Z" pointer-events="none"></path><g><g class="mark-text role-axis-label" pointer-events="none"><text text-anchor="end" transform="translate(-2,206)" font-family="sans-serif" font-size="19px" font-weight="bold" fill="#000" opacity="1">0</text><text text-anchor="end" transform="translate(-2,166)" font-family="sans-serif" font-size="19px" font-weight="bold" fill="#000" opacity="1">200</text><text text-anchor="end" transform="translate(-2,126)" font-family="sans-serif" font-size="19px" font-weight="bold" fill="#000" opacity="1">400</text><text text-anchor="end" transform="translate(-2,86)" font-family="sans-serif" font-size="19px" font-weight="bold" fill="#000" opacity="1">600</text><text text-anchor="end" transform="translate(-2,45.99999999999999)" font-family="sans-serif" font-size="19px" font-weight="bold" fill="#000" opacity="1">800</text><text text-anchor="end" transform="translate(-2,6)" font-family="sans-serif" font-size="19px" font-weight="bold" fill="#000" opacity="1">1,000</text></g><g class="mark-rule role-axis-domain" pointer-events="none"><line transform="translate(0,200)" x2="0" y2="-200" stroke="#888" stroke-width="1" opacity="1"></line></g></g><path class="foreground" aria-hidden="true" d="" pointer-events="none" display="none"></path></g></g><g class="mark-group role-scope layer_0_pathgroup" role="graphics-object" aria-roledescription="group mark container"><g transform="translate(0,0)"><path class="background" aria-hidden="true" d="M0,0h688v200h-688Z"></path><g><g class="mark-line role-mark layer_0_marks" role="graphics-object" aria-roledescription="line mark container"><path aria-label="Year: 1794; near Manager: 840; Northeast Northwest pro: Jersey" role="graphics-symbol" aria-roledescription="line mark" d="M34.400000000000034,32.00000000000001C57.33333333333338,90.42574587906441,80.26666666666672,148.85149175812882,103.20000000000003,130.6C126.13333333333334,112.34850824187116,149.0666666666667,17.41977884654911,172.00000000000003,11.800000000000011C194.93333333333337,6.180221153450913,217.86666666666667,89.86939285567479,240.8,116.00000000000001C263.73333333333335,142.13060714432524,286.66666666666663,110.70264973075184,309.6,104.2C332.5333333333334,97.69735026924816,355.46666666666675,116.1200082213179,378.40000000000003,121.2C401.3333333333333,126.2799917786821,424.2666666666666,118.01731738397666,447.2,103.60000000000001C470.1333333333334,89.18268261602336,493.06666666666683,68.61072224277554,516,74.6C538.9333333333332,80.58927775722445,561.8666666666664,113.13979364492127,584.8,123.6C607.7333333333335,134.06020635507872,630.6666666666667,122.43010317753937,653.5999999999999,110.80000000000001" stroke="#aa39ad" stroke-width="2" stroke-dasharray="8,4"></path></g></g><path class="foreground" aria-hidden="true" d="" display="none"></path></g><g transform="translate(0,0)"><path class="background" aria-hidden="true" d="M0,0h688v200h-688Z"></path><g><g class="mark-line role-mark layer_0_marks" role="graphics-object" aria-roledescription="line mark container"><path aria-label="Year: 1794; near Manager: 761; Northeast Northwest pro: Dominican Direct" role="graphics-symbol" aria-roledescription="line mark" d="M34.400000000000034,47.8C57.33333333333338,106.78685740124145,80.26666666666672,165.77371480248289,103.20000000000003,182.20000000000002C126.13333333333334,198.62628519751715,149.0666666666667,172.49199819131005,172.00000000000003,150.6C194.93333333333337,128.70800180868994,217.86666666666667,111.0582924322769,240.8,96C263.73333333333335,80.9417075677231,286.66666666666663,68.47483207958236,309.6,75.4C332.5333333333334,82.32516792041766,355.46666666666675,108.64237924939368,378.40000000000003,89.39999999999999C401.3333333333333,70.1576207506063,424.2666666666666,5.355650922842923,447.2,15.59999999999999C470.1333333333334,25.84434907715706,493.06666666666683,111.13501705923457,516,125.6C538.9333333333332,140.06498294076542,561.8666666666664,83.70428084021869,584.8,55.60000000000001C607.7333333333335,27.49571915978133,630.6666666666667,27.647859579890667,653.5999999999999,27.800000000000004" stroke="#4760ca" stroke-width="2" stroke-dasharray="8,4"></path></g></g><path class="foreground" aria-hidden="true" d="" display="none"></path></g></g><g class="mark-symbol role-mark layer_1_marks" role="graphics-object" aria-roledescription="symbol mark container"><path aria-label="Year: 1794; near Manager: 840; Northeast Northwest pro: Jersey" role="graphics-symbol" aria-roledescription="point" transform="translate(34.400000000000034,32.00000000000001)" d="M2.7386127875258306,0A2.7386127875258306,2.7386127875258306,0,1,1,-2.7386127875258306,0A2.7386127875258306,2.7386127875258306,0,1,1,2.7386127875258306,0" fill="#fff" stroke="#aa39ad" stroke-width="4" opacity="1"></path><path aria-label="Year: 1796; near Manager: 347; Northeast Northwest pro: Jersey" role="graphics-symbol" aria-roledescription="point" transform="translate(103.20000000000003,130.6)" d="M2.7386127875258306,0A2.7386127875258306,2.7386127875258306,0,1,1,-2.7386127875258306,0A2.7386127875258306,2.7386127875258306,0,1,1,2.7386127875258306,0" fill="#fff" stroke="#aa39ad" stroke-width="4" opacity="1"></path><path aria-label="Year: 1798; near Manager: 941; Northeast Northwest pro: Jersey" role="graphics-symbol" aria-roledescription="point" transform="translate(172.00000000000003,11.800000000000011)" d="M2.7386127875258306,0A2.7386127875258306,2.7386127875258306,0,1,1,-2.7386127875258306,0A2.7386127875258306,2.7386127875258306,0,1,1,2.7386127875258306,0" fill="#fff" stroke="#aa39ad" stroke-width="4" opacity="1"></path><path aria-label="Year: 1800; near Manager: 420; Northeast Northwest pro: Jersey" role="graphics-symbol" aria-roledescription="point" transform="translate(240.8,116.00000000000001)" d="M2.7386127875258306,0A2.7386127875258306,2.7386127875258306,0,1,1,-2.7386127875258306,0A2.7386127875258306,2.7386127875258306,0,1,1,2.7386127875258306,0" fill="#fff" stroke="#aa39ad" stroke-width="4" opacity="1"></path><path aria-label="Year: 1802; near Manager: 479; Northeast Northwest pro: Jersey" role="graphics-symbol" aria-roledescription="point" transform="translate(309.6,104.2)" d="M2.7386127875258306,0A2.7386127875258306,2.7386127875258306,0,1,1,-2.7386127875258306,0A2.7386127875258306,2.7386127875258306,0,1,1,2.7386127875258306,0" fill="#fff" stroke="#aa39ad" stroke-width="4" opacity="1"></path><path aria-label="Year: 1804; near Manager: 394; Northeast Northwest pro: Jersey" role="graphics-symbol" aria-roledescription="point" transform="translate(378.40000000000003,121.2)" d="M2.7386127875258306,0A2.7386127875258306,2.7386127875258306,0,1,1,-2.7386127875258306,0A2.7386127875258306,2.7386127875258306,0,1,1,2.7386127875258306,0" fill="#fff" stroke="#aa39ad" stroke-width="4" opacity="1"></path><path aria-label="Year: 1806; near Manager: 482; Northeast Northwest pro: Jersey" role="graphics-symbol" aria-roledescription="point" transform="translate(447.2,103.60000000000001)" d="M2.7386127875258306,0A2.7386127875258306,2.7386127875258306,0,1,1,-2.7386127875258306,0A2.7386127875258306,2.7386127875258306,0,1,1,2.7386127875258306,0" fill="#fff" stroke="#aa39ad" stroke-width="4" opacity="1"></path><path aria-label="Year: 1808; near Manager: 627; Northeast Northwest pro: Jersey" role="graphics-symbol" aria-roledescription="point" transform="translate(516,74.6)" d="M2.7386127875258306,0A2.7386127875258306,2.7386127875258306,0,1,1,-2.7386127875258306,0A2.7386127875258306,2.7386127875258306,0,1,1,2.7386127875258306,0" fill="#fff" stroke="#aa39ad" stroke-width="4" opacity="1"></path><path aria-label="Year: 1810; near Manager: 382; Northeast Northwest pro: Jersey" role="graphics-symbol" aria-roledescription="point" transform="translate(584.8,123.6)" d="M2.7386127875258306,0A2.7386127875258306,2.7386127875258306,0,1,1,-2.7386127875258306,0A2.7386127875258306,2.7386127875258306,0,1,1,2.7386127875258306,0" fill="#fff" stroke="#aa39ad" stroke-width="4" opacity="1"></path><path aria-label="Year: 1812; near Manager: 446; Northeast Northwest pro: Jersey" role="graphics-symbol" aria-roledescription="point" transform="translate(653.5999999999999,110.80000000000001)" d="M2.7386127875258306,0A2.7386127875258306,2.7386127875258306,0,1,1,-2.7386127875258306,0A2.7386127875258306,2.7386127875258306,0,1,1,2.7386127875258306,0" fill="#fff" stroke="#aa39ad" stroke-width="4" opacity="1"></path><path aria-label="Year: 1794; near Manager: 761; Northeast Northwest pro: Dominican Direct" role="graphics-symbol" aria-roledescription="point" transform="translate(34.400000000000034,47.8)" d="M2.7386127875258306,0A2.7386127875258306,2.7386127875258306,0,1,1,-2.7386127875258306,0A2.7386127875258306,2.7386127875258306,0,1,1,2.7386127875258306,0" fill="#fff" stroke="#4760ca" stroke-width="4" opacity="1"></path><path aria-label="Year: 1796; near Manager: 89; Northeast Northwest pro: Dominican Direct" role="graphics-symbol" aria-roledescription="point" transform="translate(103.20000000000003,182.20000000000002)" d="M2.7386127875258306,0A2.7386127875258306,2.7386127875258306,0,1,1,-2.7386127875258306,0A2.7386127875258306,2.7386127875258306,0,1,1,2.7386127875258306,0" fill="#fff" stroke="#4760ca" stroke-width="4" opacity="1"></path><path aria-label="Year: 1798; near Manager: 247; Northeast Northwest pro: Dominican Direct" role="graphics-symbol" aria-roledescription="point" transform="translate(172.00000000000003,150.6)" d="M2.7386127875258306,0A2.7386127875258306,2.7386127875258306,0,1,1,-2.7386127875258306,0A2.7386127875258306,2.7386127875258306,0,1,1,2.7386127875258306,0" fill="#fff" stroke="#4760ca" stroke-width="4" opacity="1"></path><path aria-label="Year: 1800; near Manager: 520; Northeast Northwest pro: Dominican Direct" role="graphics-symbol" aria-roledescription="point" transform="translate(240.8,96)" d="M2.7386127875258306,0A2.7386127875258306,2.7386127875258306,0,1,1,-2.7386127875258306,0A2.7386127875258306,2.7386127875258306,0,1,1,2.7386127875258306,0" fill="#fff" stroke="#4760ca" stroke-width="4" opacity="1"></path><path aria-label="Year: 1802; near Manager: 623; Northeast Northwest pro: Dominican Direct" role="graphics-symbol" aria-roledescription="point" transform="translate(309.6,75.4)" d="M2.7386127875258306,0A2.7386127875258306,2.7386127875258306,0,1,1,-2.7386127875258306,0A2.7386127875258306,2.7386127875258306,0,1,1,2.7386127875258306,0" fill="#fff" stroke="#4760ca" stroke-width="4" opacity="1"></path><path aria-label="Year: 1804; near Manager: 553; Northeast Northwest pro: Dominican Direct" role="graphics-symbol" aria-roledescription="point" transform="translate(378.40000000000003,89.39999999999999)" d="M2.7386127875258306,0A2.7386127875258306,2.7386127875258306,0,1,1,-2.7386127875258306,0A2.7386127875258306,2.7386127875258306,0,1,1,2.7386127875258306,0" fill="#fff" stroke="#4760ca" stroke-width="4" opacity="1"></path><path aria-label="Year: 1806; near Manager: 922; Northeast Northwest pro: Dominican Direct" role="graphics-symbol" aria-roledescription="point" transform="translate(447.2,15.59999999999999)" d="M2.7386127875258306,0A2.7386127875258306,2.7386127875258306,0,1,1,-2.7386127875258306,0A2.7386127875258306,2.7386127875258306,0,1,1,2.7386127875258306,0" fill="#fff" stroke="#4760ca" stroke-width="4" opacity="1"></path><path aria-label="Year: 1808; near Manager: 372; Northeast Northwest pro: Dominican Direct" role="graphics-symbol" aria-roledescription="point" transform="translate(516,125.6)" d="M2.7386127875258306,0A2.7386127875258306,2.7386127875258306,0,1,1,-2.7386127875258306,0A2.7386127875258306,2.7386127875258306,0,1,1,2.7386127875258306,0" fill="#fff" stroke="#4760ca" stroke-width="4" opacity="1"></path><path aria-label="Year: 1810; near Manager: 722; Northeast Northwest pro: Dominican Direct" role="graphics-symbol" aria-roledescription="point" transform="translate(584.8,55.60000000000001)" d="M2.7386127875258306,0A2.7386127875258306,2.7386127875258306,0,1,1,-2.7386127875258306,0A2.7386127875258306,2.7386127875258306,0,1,1,2.7386127875258306,0" fill="#fff" stroke="#4760ca" stroke-width="4" opacity="1"></path><path aria-label="Year: 1812; near Manager: 861; Northeast Northwest pro: Dominican Direct" role="graphics-symbol" aria-roledescription="point" transform="translate(653.5999999999999,27.800000000000004)" d="M2.7386127875258306,0A2.7386127875258306,2.7386127875258306,0,1,1,-2.7386127875258306,0A2.7386127875258306,2.7386127875258306,0,1,1,2.7386127875258306,0" fill="#fff" stroke="#4760ca" stroke-width="4" opacity="1"></path></g><g class="mark-text role-mark layer_2_marks" role="graphics-object" aria-roledescription="text mark container"><text aria-label="Year: 1794; near Manager: 840" role="graphics-symbol" aria-roledescription="text mark" text-anchor="middle" transform="translate(34.400000000000034,55.00000000000001)" font-family="sans-serif" font-size="10px" fill="#000" opacity="1">840</text><text aria-label="Year: 1796; near Manager: 347" role="graphics-symbol" aria-roledescription="text mark" text-anchor="middle" transform="translate(103.20000000000003,153.6)" font-family="sans-serif" font-size="10px" fill="#000" opacity="1">347</text><text aria-label="Year: 1798; near Manager: 941" role="graphics-symbol" aria-roledescription="text mark" text-anchor="middle" transform="translate(172.00000000000003,34.80000000000001)" font-family="sans-serif" font-size="10px" fill="#000" opacity="1">941</text><text aria-label="Year: 1800; near Manager: 420" role="graphics-symbol" aria-roledescription="text mark" text-anchor="middle" transform="translate(240.8,139)" font-family="sans-serif" font-size="10px" fill="#000" opacity="1">420</text><text aria-label="Year: 1802; near Manager: 479" role="graphics-symbol" aria-roledescription="text mark" text-anchor="middle" transform="translate(309.6,127.2)" font-family="sans-serif" font-size="10px" fill="#000" opacity="1">479</text><text aria-label="Year: 1804; near Manager: 394" role="graphics-symbol" aria-roledescription="text mark" text-anchor="middle" transform="translate(378.40000000000003,144.2)" font-family="sans-serif" font-size="10px" fill="#000" opacity="1">394</text><text aria-label="Year: 1806; near Manager: 482" role="graphics-symbol" aria-roledescription="text mark" text-anchor="middle" transform="translate(447.2,126.60000000000001)" font-family="sans-serif" font-size="10px" fill="#000" opacity="1">482</text><text aria-label="Year: 1808; near Manager: 627" role="graphics-symbol" aria-roledescription="text mark" text-anchor="middle" transform="translate(516,97.6)" font-family="sans-serif" font-size="10px" fill="#000" opacity="1">627</text><text aria-label="Year: 1810; near Manager: 382" role="graphics-symbol" aria-roledescription="text mark" text-anchor="middle" transform="translate(584.8,146.6)" font-family="sans-serif" font-size="10px" fill="#000" opacity="1">382</text><text aria-label="Year: 1812; near Manager: 446" role="graphics-symbol" aria-roledescription="text mark" text-anchor="middle" transform="translate(653.5999999999999,133.8)" font-family="sans-serif" font-size="10px" fill="#000" opacity="1">446</text><text aria-label="Year: 1794; near Manager: 761" role="graphics-symbol" aria-roledescription="text mark" text-anchor="middle" transform="translate(34.400000000000034,70.8)" font-family="sans-serif" font-size="10px" fill="#000" opacity="1">761</text><text aria-label="Year: 1796; near Manager: 89" role="graphics-symbol" aria-roledescription="text mark" text-anchor="middle" transform="translate(103.20000000000003,205.20000000000002)" font-family="sans-serif" font-size="10px" fill="#000" opacity="1">89</text><text aria-label="Year: 1798; near Manager: 247" role="graphics-symbol" aria-roledescription="text mark" text-anchor="middle" transform="translate(172.00000000000003,173.6)" font-family="sans-serif" font-size="10px" fill="#000" opacity="1">247</text><text aria-label="Year: 1800; near Manager: 520" role="graphics-symbol" aria-roledescription="text mark" text-anchor="middle" transform="translate(240.8,119)" font-family="sans-serif" font-size="10px" fill="#000" opacity="1">520</text><text aria-label="Year: 1802; near Manager: 623" role="graphics-symbol" aria-roledescription="text mark" text-anchor="middle" transform="translate(309.6,98.4)" font-family="sans-serif" font-size="10px" fill="#000" opacity="1">623</text><text aria-label="Year: 1804; near Manager: 553" role="graphics-symbol" aria-roledescription="text mark" text-anchor="middle" transform="translate(378.40000000000003,112.39999999999999)" font-family="sans-serif" font-size="10px" fill="#000" opacity="1">553</text><text aria-label="Year: 1806; near Manager: 922" role="graphics-symbol" aria-roledescription="text mark" text-anchor="middle" transform="translate(447.2,38.599999999999994)" font-family="sans-serif" font-size="10px" fill="#000" opacity="1">922</text><text aria-label="Year: 1808; near Manager: 372" role="graphics-symbol" aria-roledescription="text mark" text-anchor="middle" transform="translate(516,148.6)" font-family="sans-serif" font-size="10px" fill="#000" opacity="1">372</text><text aria-label="Year: 1810; near Manager: 722" role="graphics-symbol" aria-roledescription="text mark" text-anchor="middle" transform="translate(584.8,78.60000000000001)" font-family="sans-serif" font-size="10px" fill="#000" opacity="1">722</text><text aria-label="Year: 1812; near Manager: 861" role="graphics-symbol" aria-roledescription="text mark" text-anchor="middle" transform="translate(653.5999999999999,50.800000000000004)" font-family="sans-serif" font-size="10px" fill="#000" opacity="1">861</text></g><g class="mark-group role-legend" role="graphics-symbol" aria-roledescription="legend" aria-label="Symbol legend titled 'Northeast Northwest pro' for stroke color with 2 values: Jersey, Dominican Direct"><g transform="translate(706,0)"><path class="background" aria-hidden="true" d="M0,0h129v45h-129Z" pointer-events="none"></path><g><g class="mark-group role-legend-entry"><g transform="translate(0,16)"><path class="background" aria-hidden="true" d="M0,0h0v0h0Z" pointer-events="none"></path><g><g class="mark-group role-scope" role="graphics-object" aria-roledescription="group mark container"><g transform="translate(0,0)"><path class="background" aria-hidden="true" d="M0,0h92.1328125v12.5h-92.1328125Z" pointer-events="none" opacity="1"></path><g><g class="mark-symbol role-legend-symbol" pointer-events="none"><path transform="translate(6,6)" d="M5,0A5,5,0,1,1,-5,0A5,5,0,1,1,5,0" fill="#fff" stroke="#aa39ad" stroke-width="1.5" opacity="1"></path></g><g class="mark-text role-legend-label" pointer-events="none"><text text-anchor="start" transform="translate(16,9)" font-family="sans-serif" font-size="10px" fill="#000" opacity="1">Jersey</text></g></g><path class="foreground" aria-hidden="true" d="" pointer-events="none" display="none"></path></g><g transform="translate(0,16)"><path class="background" aria-hidden="true" d="M0,0h92.1328125v12.5h-92.1328125Z" pointer-events="none" opacity="1"></path><g><g class="mark-symbol role-legend-symbol" pointer-events="none"><path transform="translate(6,6)" d="M5,0A5,5,0,1,1,-5,0A5,5,0,1,1,5,0" fill="#fff" stroke="#4760ca" stroke-width="1.5" opacity="1"></path></g><g class="mark-text role-legend-label" pointer-events="none"><text text-anchor="start" transform="translate(16,9)" font-family="sans-serif" font-size="10px" fill="#000" opacity="1">Dominican Direct</text></g></g><path class="foreground" aria-hidden="true" d="" pointer-events="none" display="none"></path></g></g></g><path class="foreground" aria-hidden="true" d="" pointer-events="none" display="none"></path></g></g><g class="mark-text role-legend-title" pointer-events="none"><text text-anchor="start" transform="translate(0,9)" font-family="sans-serif" font-size="11px" font-weight="bold" fill="#000" opacity="1">Northeast Northwest pro</text></g></g><path class="foreground" aria-hidden="true" d="" pointer-events="none" display="none"></path></g></g><g class="mark-group role-title"><g transform="translate(344,-38)"><path class="background" aria-hidden="true" d="M0,0h0v0h0Z" pointer-events="none"></path><g><g class="mark-text role-title-text" role="graphics-symbol" aria-roledescription="title" aria-label="Title text 'mint XML'" pointer-events="none"><text text-anchor="middle" transform="translate(0,20)" font-family="sans-serif" font-size="25px" font-weight="bold" fill="#000" opacity="1">mint XML</text></g></g><path class="foreground" aria-hidden="true" d="" pointer-events="none" display="none"></path></g></g></g><path class="foreground" aria-hidden="true" d="" display="none"></path></g></g></g></svg>