<svg xmlns="http://www.w3.org/2000/svg" xmlns:xlink="http://www.w3.org/1999/xlink" version="1.1" class="marks" width="431" height="338" viewBox="0 0 431 338" style="background-color: rgb(51, 51, 51);"><g fill="none" stroke-miterlimit="10" transform="translate(24,57)"><g class="mark-group role-frame root" role="graphics-object" aria-roledescription="group mark container"><g transform="translate(0,0)"><path class="background" aria-hidden="true" d="M0.5,0.5h402v200h-402Z" fill="transparent" stroke="#ddd"></path><g><g class="mark-group role-axis" aria-hidden="true"><g transform="translate(0.5,200.5)"><path class="background" aria-hidden="true" d="M0,0h0v0h0Z" pointer-events="none"></path><g><g class="mark-rule role-axis-grid" pointer-events="none"><line transform="translate(20,-200)" x2="0" y2="200" stroke="#747474" stroke-width="1" stroke-dasharray="1,0" opacity="1"></line><line transform="translate(60,-200)" x2="0" y2="200" stroke="#747474" stroke-width="1" stroke-dasharray="1,0" opacity="1"></line><line transform="translate(101,-200)" x2="0" y2="200" stroke="#747474" stroke-width="1" stroke-dasharray="1,0" opacity="1"></line><line transform="translate(141,-200)" x2="0" y2="200" stroke="#747474" stroke-width="1" stroke-dasharray="1,0" opacity="1"></line><line transform="translate(181,-200)" x2="0" y2="200" stroke="#747474" stroke-width="1" stroke-dasharray="1,0" opacity="1"></line><line transform="translate(221,-200)" x2="0" y2="200" stroke="#747474" stroke-width="1" stroke-dasharray="1,0" opacity="1"></line><line transform="translate(261,-200)" x2="0" y2="200" stroke="#747474" stroke-width="1" stroke-dasharray="1,0" opacity="1"></line><line transform="translate(302,-200)" x2="0" y2="200" stroke="#747474" stroke-width="1" stroke-dasharray="1,0" opacity="1"></line><line transform="translate(342,-200)" x2="0" y2="200" stroke="#747474" stroke-width="1" stroke-dasharray="1,0" opacity="1"></line><line transform="translate(382,-200)" x2="0" y2="200" stroke="#747474" stroke-width="1" stroke-dasharray="1,0" opacity="1"></line></g></g><path class="foreground" aria-hidden="true" d="" pointer-events="none" display="none"></path></g></g><g class="mark-group role-axis" role="graphics-symbol" aria-roledescription="axis" aria-label="X-axis for a discrete scale with 10 values: 1812, 1814, 1816, 1818, 1820, ending with 1830"><g transform="translate(0.5,200.5)"><path class="background" aria-hidden="true" d="M0,0h0v0h0Z" pointer-events="none"></path><g><g class="mark-rule role-axis-tick" pointer-events="none"><line transform="translate(20,0)" x2="0" y2="5" stroke="#888" stroke-width="1" opacity="1"></line><line transform="translate(60,0)" x2="0" y2="5" stroke="#888" stroke-width="1" opacity="1"></line><line transform="translate(101,0)" x2="0" y2="5" stroke="#888" stroke-width="1" opacity="1"></line><line transform="translate(141,0)" x2="0" y2="5" stroke="#888" stroke-width="1" opacity="1"></line><line transform="translate(181,0)" x2="0" y2="5" stroke="#888" stroke-width="1" opacity="1"></line><line transform="translate(221,0)" x2="0" y2="5" stroke="#888" stroke-width="1" opacity="1"></line><line transform="translate(261,0)" x2="0" y2="5" stroke="#888" stroke-width="1" opacity="1"></line><line transform="translate(302,0)" x2="0" y2="5" stroke="#888" stroke-width="1" opacity="1"></line><line transform="translate(342,0)" x2="0" y2="5" stroke="#888" stroke-width="1" opacity="1"></line><line transform="translate(382,0)" x2="0" y2="5" stroke="#888" stroke-width="1" opacity="1"></line></g><g class="mark-text role-axis-label" pointer-events="none"><text text-anchor="start" transform="translate(20.099999999999994,7) rotate(90) translate(0,5)" font-family="monospace" font-size="17px" font-weight="normal" fill="#fff" opacity="1">1812</text><text text-anchor="start" transform="translate(60.3,7) rotate(90) translate(0,5)" font-family="monospace" font-size="17px" font-weight="normal" fill="#fff" opacity="1">1814</text><text text-anchor="start" transform="translate(100.5,7) rotate(90) translate(0,5)" font-family="monospace" font-size="17px" font-weight="normal" fill="#fff" opacity="1">1816</text><text text-anchor="start" transform="translate(140.7,7) rotate(90) translate(0,5)" font-family="monospace" font-size="17px" font-weight="normal" fill="#fff" opacity="1">1818</text><text text-anchor="start" transform="translate(180.9,7) rotate(90) translate(0,5)" font-family="monospace" font-size="17px" font-weight="normal" fill="#fff" opacity="1">1820</text><text text-anchor="start" transform="translate(221.1,7) rotate(90) translate(0,5)" font-family="monospace" font-size="17px" font-weight="normal" fill="#fff" opacity="1">1822</text><text text-anchor="start" transform="translate(261.3,7) rotate(90) translate(0,5)" font-family="monospace" font-size="17px" font-weight="normal" fill="#fff" opacity="1">1824</text><text text-anchor="start" transform="translate(301.5,7) rotate(90) translate(0,5)" font-family="monospace" font-size="17px" font-weight="normal" fill="#fff" opacity="1">1826</text><text text-anchor="start" transform="translate(341.70000000000005,7) rotate(90) translate(0,5)" font-family="monospace" font-size="17px" font-weight="normal" fill="#fff" opacity="1">1828</text><text text-anchor="start" transform="translate(381.9,7) rotate(90) translate(0,5)" font-family="monospace" font-size="17px" font-weight="normal" fill="#fff" opacity="1">1830</text></g><g class="mark-rule role-axis-domain" pointer-events="none"><line transform="translate(0,0)" x2="402" y2="0" stroke="#888" stroke-width="1" opacity="1"></line></g></g><path class="foreground" aria-hidden="true" d="" pointer-events="none" display="none"></path></g></g><g class="mark-group role-axis" role="graphics-symbol" aria-roledescription="axis" aria-label="Y-axis for a linear scale with values from 0 to 700"><g transform="translate(0.5,0.5)"><path class="background" aria-hidden="true" d="M0,0h0v0h0Z" pointer-events="none"></path><g><g class="mark-text role-axis-label" pointer-events="none"><text text-anchor="middle" transform="translate(-2,200) rotate(90) translate(0,13)" font-family="monospace" font-size="17px" font-weight="normal" fill="#fff" opacity="1">0</text><text text-anchor="middle" transform="translate(-2,171.42857142857144) rotate(90) translate(0,13)" font-family="monospace" font-size="17px" font-weight="normal" fill="#fff" opacity="1">100</text><text text-anchor="middle" transform="translate(-2,142.85714285714286) rotate(90) translate(0,13)" font-family="monospace" font-size="17px" font-weight="normal" fill="#fff" opacity="1">200</text><text text-anchor="middle" transform="translate(-2,114.28571428571428) rotate(90) translate(0,13)" font-family="monospace" font-size="17px" font-weight="normal" fill="#fff" opacity="1">300</text><text text-anchor="middle" transform="translate(-2,85.71428571428572) rotate(90) translate(0,13)" font-family="monospace" font-size="17px" font-weight="normal" fill="#fff" opacity="1">400</text><text text-anchor="middle" transform="translate(-2,57.14285714285714) rotate(90) translate(0,13)" font-family="monospace" font-size="17px" font-weight="normal" fill="#fff" opacity="1">500</text><text text-anchor="middle" transform="translate(-2,28.57142857142858) rotate(90) translate(0,13)" font-family="monospace" font-size="17px" font-weight="normal" fill="#fff" opacity="1">600</text><text text-anchor="middle" transform="translate(-2,0) rotate(90) translate(0,13)" font-family="monospace" font-size="17px" font-weight="normal" fill="#fff" opacity="1">700</text></g><g class="mark-rule role-axis-domain" pointer-events="none"><line transform="translate(0,200)" x2="0" y2="-200" stroke="#888" stroke-width="1" opacity="1"></line></g></g><path class="foreground" aria-hidden="true" d="" pointer-events="none" display="none"></path></g></g><g class="mark-group role-scope layer_0_pathgroup" role="graphics-object" aria-roledescription="group mark container"><g transform="translate(0,0)"><path class="background" aria-hidden="true" d="M0,0h402v200h-402Z"></path><g><g class="mark-line role-mark layer_0_marks" role="graphics-object" aria-roledescription="line mark container"><path aria-label="Year: 1812; deposit: 480; services: Connecticut" role="graphics-symbol" aria-roledescription="line mark" d="M20.099999999999994,62.857142857142854C33.499999999999986,85.83616087944611,46.89999999999998,108.81517890174938,60.3,102.85714285714285C73.70000000000002,96.89910681253632,87.1,62.00401670102002,100.5,70.85714285714286C113.9,79.7102690132657,127.30000000000001,132.31161143702764,140.7,120.28571428571428C154.09999999999997,108.25981713440092,167.50000000000003,31.606680408012252,180.9,39.99999999999999C194.29999999999998,48.39331959198773,207.69999999999996,141.8330955023519,221.1,176.57142857142858C234.50000000000003,211.30976164050526,247.89999999999998,187.34665186829451,261.3,182.2857142857143C274.70000000000005,177.2247767031341,288.09999999999997,191.06601131018448,301.5,160C314.90000000000003,128.93398868981552,328.30000000000007,52.96073146239626,341.70000000000005,39.99999999999999C355.1,27.039268537603725,368.5,77.09106284023044,381.9,127.14285714285714" stroke="#880b3a" stroke-width="2" stroke-dasharray="8,4"></path></g></g><path class="foreground" aria-hidden="true" d="" display="none"></path></g><g transform="translate(0,0)"><path class="background" aria-hidden="true" d="M0,0h402v200h-402Z"></path><g><g class="mark-line role-mark layer_0_marks" role="graphics-object" aria-roledescription="line mark container"><path aria-label="Year: 1812; deposit: 642; services: taste" role="graphics-symbol" aria-roledescription="line mark" d="M20.099999999999994,16.57142857142857C33.499999999999986,62.66239862821438,46.89999999999998,108.75336868500021,60.3,100C73.70000000000002,91.24663131499979,87.1,27.648923888213552,100.5,3.4285714285714253C113.9,-20.791781031070702,127.30000000000001,-5.634778523568741,140.7,43.99999999999999C154.09999999999997,93.63477852356873,167.50000000000003,177.74733306320428,180.9,169.7142857142857C194.29999999999998,161.6812383653671,207.69999999999996,61.50258912789433,221.1,48.285714285714285C234.50000000000003,35.06883944353424,247.89999999999998,108.81373899664686,261.3,156.85714285714286C274.70000000000005,204.90054671763886,288.09999999999997,227.24245488551819,301.5,193.42857142857144C314.90000000000003,159.6146879716247,328.30000000000007,69.64501288985197,341.70000000000005,45.14285714285715C355.1,20.640701395862333,368.5,61.60606498364546,381.9,102.57142857142858" stroke="#d84a34" stroke-width="2" stroke-dasharray="8,4"></path></g></g><path class="foreground" aria-hidden="true" d="" display="none"></path></g></g><g class="mark-symbol role-mark layer_1_marks" role="graphics-object" aria-roledescription="symbol mark container"><path aria-label="Year: 1812; deposit: 480; services: Connecticut" role="graphics-symbol" aria-roledescription="point" transform="translate(20.099999999999994,62.857142857142854)" d="M2.7386127875258306,0A2.7386127875258306,2.7386127875258306,0,1,1,-2.7386127875258306,0A2.7386127875258306,2.7386127875258306,0,1,1,2.7386127875258306,0" fill="#333333" stroke="#880b3a" stroke-width="4" opacity="1"></path><path aria-label="Year: 1814; deposit: 340; services: Connecticut" role="graphics-symbol" aria-roledescription="point" transform="translate(60.3,102.85714285714285)" d="M2.7386127875258306,0A2.7386127875258306,2.7386127875258306,0,1,1,-2.7386127875258306,0A2.7386127875258306,2.7386127875258306,0,1,1,2.7386127875258306,0" fill="#333333" stroke="#880b3a" stroke-width="4" opacity="1"></path><path aria-label="Year: 1816; deposit: 452; services: Connecticut" role="graphics-symbol" aria-roledescription="point" transform="translate(100.5,70.85714285714286)" d="M2.7386127875258306,0A2.7386127875258306,2.7386127875258306,0,1,1,-2.7386127875258306,0A2.7386127875258306,2.7386127875258306,0,1,1,2.7386127875258306,0" fill="#333333" stroke="#880b3a" stroke-width="4" opacity="1"></path><path aria-label="Year: 1818; deposit: 279; services: Connecticut" role="graphics-symbol" aria-roledescription="point" transform="translate(140.7,120.28571428571428)" d="M2.7386127875258306,0A2.7386127875258306,2.7386127875258306,0,1,1,-2.7386127875258306,0A2.7386127875258306,2.7386127875258306,0,1,1,2.7386127875258306,0" fill="#333333" stroke="#880b3a" stroke-width="4" opacity="1"></path><path aria-label="Year: 1820; deposit: 560; services: Connecticut" role="graphics-symbol" aria-roledescription="point" transform="translate(180.9,39.99999999999999)" d="M2.7386127875258306,0A2.7386127875258306,2.7386127875258306,0,1,1,-2.7386127875258306,0A2.7386127875258306,2.7386127875258306,0,1,1,2.7386127875258306,0" fill="#333333" stroke="#880b3a" stroke-width="4" opacity="1"></path><path aria-label="Year: 1822; deposit: 82; services: Connecticut" role="graphics-symbol" aria-roledescription="point" transform="translate(221.1,176.57142857142858)" d="M2.7386127875258306,0A2.7386127875258306,2.7386127875258306,0,1,1,-2.7386127875258306,0A2.7386127875258306,2.7386127875258306,0,1,1,2.7386127875258306,0" fill="#333333" stroke="#880b3a" stroke-width="4" opacity="1"></path><path aria-label="Year: 1824; deposit: 62; services: Connecticut" role="graphics-symbol" aria-roledescription="point" transform="translate(261.3,182.2857142857143)" d="M2.7386127875258306,0A2.7386127875258306,2.7386127875258306,0,1,1,-2.7386127875258306,0A2.7386127875258306,2.7386127875258306,0,1,1,2.7386127875258306,0" fill="#333333" stroke="#880b3a" stroke-width="4" opacity="1"></path><path aria-label="Year: 1826; deposit: 140; services: Connecticut" role="graphics-symbol" aria-roledescription="point" transform="translate(301.5,160)" d="M2.7386127875258306,0A2.7386127875258306,2.7386127875258306,0,1,1,-2.7386127875258306,0A2.7386127875258306,2.7386127875258306,0,1,1,2.7386127875258306,0" fill="#333333" stroke="#880b3a" stroke-width="4" opacity="1"></path><path aria-label="Year: 1828; deposit: 560; services: Connecticut" role="graphics-symbol" aria-roledescription="point" transform="translate(341.70000000000005,39.99999999999999)" d="M2.7386127875258306,0A2.7386127875258306,2.7386127875258306,0,1,1,-2.7386127875258306,0A2.7386127875258306,2.7386127875258306,0,1,1,2.7386127875258306,0" fill="#333333" stroke="#880b3a" stroke-width="4" opacity="1"></path><path aria-label="Year: 1830; deposit: 255; services: Connecticut" role="graphics-symbol" aria-roledescription="point" transform="translate(381.9,127.14285714285714)" d="M2.7386127875258306,0A2.7386127875258306,2.7386127875258306,0,1,1,-2.7386127875258306,0A2.7386127875258306,2.7386127875258306,0,1,1,2.7386127875258306,0" fill="#333333" stroke="#880b3a" stroke-width="4" opacity="1"></path><path aria-label="Year: 1812; deposit: 642; services: taste" role="graphics-symbol" aria-roledescription="point" transform="translate(20.099999999999994,16.57142857142857)" d="M2.7386127875258306,0A2.7386127875258306,2.7386127875258306,0,1,1,-2.7386127875258306,0A2.7386127875258306,2.7386127875258306,0,1,1,2.7386127875258306,0" fill="#333333" stroke="#d84a34" stroke-width="4" opacity="1"></path><path aria-label="Year: 1814; deposit: 350; services: taste" role="graphics-symbol" aria-roledescription="point" transform="translate(60.3,100)" d="M2.7386127875258306,0A2.7386127875258306,2.7386127875258306,0,1,1,-2.7386127875258306,0A2.7386127875258306,2.7386127875258306,0,1,1,2.7386127875258306,0" fill="#333333" stroke="#d84a34" stroke-width="4" opacity="1"></path><path aria-label="Year: 1816; deposit: 688; services: taste" role="graphics-symbol" aria-roledescription="point" transform="translate(100.5,3.4285714285714253)" d="M2.7386127875258306,0A2.7386127875258306,2.7386127875258306,0,1,1,-2.7386127875258306,0A2.7386127875258306,2.7386127875258306,0,1,1,2.7386127875258306,0" fill="#333333" stroke="#d84a34" stroke-width="4" opacity="1"></path><path aria-label="Year: 1818; deposit: 546; services: taste" role="graphics-symbol" aria-roledescription="point" transform="translate(140.7,43.99999999999999)" d="M2.7386127875258306,0A2.7386127875258306,2.7386127875258306,0,1,1,-2.7386127875258306,0A2.7386127875258306,2.7386127875258306,0,1,1,2.7386127875258306,0" fill="#333333" stroke="#d84a34" stroke-width="4" opacity="1"></path><path aria-label="Year: 1820; deposit: 106; services: taste" role="graphics-symbol" aria-roledescription="point" transform="translate(180.9,169.7142857142857)" d="M2.7386127875258306,0A2.7386127875258306,2.7386127875258306,0,1,1,-2.7386127875258306,0A2.7386127875258306,2.7386127875258306,0,1,1,2.7386127875258306,0" fill="#333333" stroke="#d84a34" stroke-width="4" opacity="1"></path><path aria-label="Year: 1822; deposit: 531; services: taste" role="graphics-symbol" aria-roledescription="point" transform="translate(221.1,48.285714285714285)" d="M2.7386127875258306,0A2.7386127875258306,2.7386127875258306,0,1,1,-2.7386127875258306,0A2.7386127875258306,2.7386127875258306,0,1,1,2.7386127875258306,0" fill="#333333" stroke="#d84a34" stroke-width="4" opacity="1"></path><path aria-label="Year: 1824; deposit: 151; services: taste" role="graphics-symbol" aria-roledescription="point" transform="translate(261.3,156.85714285714286)" d="M2.7386127875258306,0A2.7386127875258306,2.7386127875258306,0,1,1,-2.7386127875258306,0A2.7386127875258306,2.7386127875258306,0,1,1,2.7386127875258306,0" fill="#333333" stroke="#d84a34" stroke-width="4" opacity="1"></path><path aria-label="Year: 1826; deposit: 23; services: taste" role="graphics-symbol" aria-roledescription="point" transform="translate(301.5,193.42857142857144)" d="M2.7386127875258306,0A2.7386127875258306,2.7386127875258306,0,1,1,-2.7386127875258306,0A2.7386127875258306,2.7386127875258306,0,1,1,2.7386127875258306,0" fill="#333333" stroke="#d84a34" stroke-width="4" opacity="1"></path><path aria-label="Year: 1828; deposit: 542; services: taste" role="graphics-symbol" aria-roledescription="point" transform="translate(341.70000000000005,45.14285714285715)" d="M2.7386127875258306,0A2.7386127875258306,2.7386127875258306,0,1,1,-2.7386127875258306,0A2.7386127875258306,2.7386127875258306,0,1,1,2.7386127875258306,0" fill="#333333" stroke="#d84a34" stroke-width="4" opacity="1"></path><path aria-label="Year: 1830; deposit: 341; services: taste" role="graphics-symbol" aria-roledescription="point" transform="translate(381.9,102.57142857142858)" d="M2.7386127875258306,0A2.7386127875258306,2.7386127875258306,0,1,1,-2.7386127875258306,0A2.7386127875258306,2.7386127875258306,0,1,1,2.7386127875258306,0" fill="#333333" stroke="#d84a34" stroke-width="4" opacity="1"></path></g><g class="mark-text role-mark layer_2_marks" role="graphics-object" aria-roledescription="text mark container"><text aria-label="Year: 1812; deposit: 480" role="graphics-symbol" aria-roledescription="text mark" text-anchor="middle" transform="translate(20.099999999999994,46.857142857142854)" font-family="monospace" font-size="12px" fill="#fff" opacity="1">480</text><text aria-label="Year: 1814; deposit: 340" role="graphics-symbol" aria-roledescription="text mark" text-anchor="middle" transform="translate(60.3,86.85714285714285)" font-family="monospace" font-size="12px" fill="#fff" opacity="1">340</text><text aria-label="Year: 1816; deposit: 452" role="graphics-symbol" aria-roledescription="text mark" text-anchor="middle" transform="translate(100.5,54.85714285714286)" font-family="monospace" font-size="12px" fill="#fff" opacity="1">452</text><text aria-label="Year: 1818; deposit: 279" role="graphics-symbol" aria-roledescription="text mark" text-anchor="middle" transform="translate(140.7,104.28571428571428)" font-family="monospace" font-size="12px" fill="#fff" opacity="1">279</text><text aria-label="Year: 1820; deposit: 560" role="graphics-symbol" aria-roledescription="text mark" text-anchor="middle" transform="translate(180.9,23.999999999999993)" font-family="monospace" font-size="12px" fill="#fff" opacity="1">560</text><text aria-label="Year: 1822; deposit: 82" role="graphics-symbol" aria-roledescription="text mark" text-anchor="middle" transform="translate(221.1,160.57142857142858)" font-family="monospace" font-size="12px" fill="#fff" opacity="1">82</text><text aria-label="Year: 1824; deposit: 62" role="graphics-symbol" aria-roledescription="text mark" text-anchor="middle" transform="translate(261.3,166.2857142857143)" font-family="monospace" font-size="12px" fill="#fff" opacity="1">62</text><text aria-label="Year: 1826; deposit: 140" role="graphics-symbol" aria-roledescription="text mark" text-anchor="middle" transform="translate(301.5,144)" font-family="monospace" font-size="12px" fill="#fff" opacity="1">140</text><text aria-label="Year: 1828; deposit: 560" role="graphics-symbol" aria-roledescription="text mark" text-anchor="middle" transform="translate(341.70000000000005,23.999999999999993)" font-family="monospace" font-size="12px" fill="#fff" opacity="1">560</text><text aria-label="Year: 1830; deposit: 255" role="graphics-symbol" aria-roledescription="text mark" text-anchor="middle" transform="translate(381.9,111.14285714285714)" font-family="monospace" font-size="12px" fill="#fff" opacity="1">255</text><text aria-label="Year: 1812; deposit: 642" role="graphics-symbol" aria-roledescription="text mark" text-anchor="middle" transform="translate(20.099999999999994,0.5714285714285694)" font-family="monospace" font-size="12px" fill="#fff" opacity="1">642</text><text aria-label="Year: 1814; deposit: 350" role="graphics-symbol" aria-roledescription="text mark" text-anchor="middle" transform="translate(60.3,84)" font-family="monospace" font-size="12px" fill="#fff" opacity="1">350</text><text aria-label="Year: 1816; deposit: 688" role="graphics-symbol" aria-roledescription="text mark" text-anchor="middle" transform="translate(100.5,-12.571428571428575)" font-family="monospace" font-size="12px" fill="#fff" opacity="1">688</text><text aria-label="Year: 1818; deposit: 546" role="graphics-symbol" aria-roledescription="text mark" text-anchor="middle" transform="translate(140.7,27.999999999999993)" font-family="monospace" font-size="12px" fill="#fff" opacity="1">546</text><text aria-label="Year: 1820; deposit: 106" role="graphics-symbol" aria-roledescription="text mark" text-anchor="middle" transform="translate(180.9,153.7142857142857)" font-family="monospace" font-size="12px" fill="#fff" opacity="1">106</text><text aria-label="Year: 1822; deposit: 531" role="graphics-symbol" aria-roledescription="text mark" text-anchor="middle" transform="translate(221.1,32.285714285714285)" font-family="monospace" font-size="12px" fill="#fff" opacity="1">531</text><text aria-label="Year: 1824; deposit: 151" role="graphics-symbol" aria-roledescription="text mark" text-anchor="middle" transform="translate(261.3,140.85714285714286)" font-family="monospace" font-size="12px" fill="#fff" opacity="1">151</text><text aria-label="Year: 1826; deposit: 23" role="graphics-symbol" aria-roledescription="text mark" text-anchor="middle" transform="translate(301.5,177.42857142857144)" font-family="monospace" font-size="12px" fill="#fff" opacity="1">23</text><text aria-label="Year: 1828; deposit: 542" role="graphics-symbol" aria-roledescription="text mark" text-anchor="middle" transform="translate(341.70000000000005,29.142857142857153)" font-family="monospace" font-size="12px" fill="#fff" opacity="1">542</text><text aria-label="Year: 1830; deposit: 341" role="graphics-symbol" aria-roledescription="text mark" text-anchor="middle" transform="translate(381.9,86.57142857142858)" font-family="monospace" font-size="12px" fill="#fff" opacity="1">341</text></g><g class="mark-group role-legend" role="graphics-symbol" aria-roledescription="legend" aria-label="Symbol legend for stroke color with 2 values: Connecticut, taste"><g transform="translate(0,263)"><path class="background" aria-hidden="true" d="M0,0h132v13h-132Z" pointer-events="none"></path><g><g class="mark-group role-legend-entry"><g transform="translate(0,0)"><path class="background" aria-hidden="true" d="M0,0h0v0h0Z" pointer-events="none"></path><g><g class="mark-group role-scope" role="graphics-object" aria-roledescription="group mark container"><g transform="translate(0,0.25)"><path class="background" aria-hidden="true" d="M0,0h76.478515625v12.5h-76.478515625Z" pointer-events="none" opacity="1"></path><g><g class="mark-symbol role-legend-symbol" pointer-events="none"><path transform="translate(6,6)" d="M5,0A5,5,0,1,1,-5,0A5,5,0,1,1,5,0" fill="#333333" stroke="#880b3a" stroke-width="1.5" opacity="1"></path></g><g class="mark-text role-legend-label" pointer-events="none"><text text-anchor="start" transform="translate(16,9)" font-family="monospace" font-size="10px" fill="#fff" opacity="1">Connecticut</text></g></g><path class="foreground" aria-hidden="true" d="" pointer-events="none" display="none"></path></g><g transform="translate(88,0.25)"><path class="background" aria-hidden="true" d="M0,0h43.490234375v12.5h-43.490234375Z" pointer-events="none" opacity="1"></path><g><g class="mark-symbol role-legend-symbol" pointer-events="none"><path transform="translate(6,6)" d="M5,0A5,5,0,1,1,-5,0A5,5,0,1,1,5,0" fill="#333333" stroke="#d84a34" stroke-width="1.5" opacity="1"></path></g><g class="mark-text role-legend-label" pointer-events="none"><text text-anchor="start" transform="translate(16,9)" font-family="monospace" font-size="10px" fill="#fff" opacity="1">taste</text></g></g><path class="foreground" aria-hidden="true" d="" pointer-events="none" display="none"></path></g></g></g><path class="foreground" aria-hidden="true" d="" pointer-events="none" display="none"></path></g></g></g><path class="foreground" aria-hidden="true" d="" pointer-events="none" display="none"></path></g></g><g class="mark-group role-title"><g transform="translate(-18.000000000000004,-51.57142857142858)"><path class="background" aria-hidden="true" d="M0,0h0v0h0Z" pointer-events="none"></path><g><g class="mark-text role-title-text" role="graphics-symbol" aria-roledescription="title" aria-label="Title text 'generate'" pointer-events="none"><text text-anchor="start" transform="translate(0,20)" font-family="monospace" font-size="25px" font-weight="bold" fill="#fff" opacity="1">generate</text></g></g><path class="foreground" aria-hidden="true" d="" pointer-events="none" display="none"></path></g></g></g><path class="foreground" aria-hidden="true" d="" display="none"></path></g></g></g></svg>