<svg xmlns="http://www.w3.org/2000/svg" xmlns:xlink="http://www.w3.org/1999/xlink" version="1.1" class="marks" width="753" height="303" viewBox="0 0 753 303" style="background-color: rgb(51, 51, 51);"><g fill="none" stroke-miterlimit="10" transform="translate(22,57)"><g class="mark-group role-frame root" role="graphics-object" aria-roledescription="group mark container"><g transform="translate(0,0)"><path class="background" aria-hidden="true" d="M0.5,0.5h634v200h-634Z" fill="transparent" stroke="#ddd"></path><g><g class="mark-group role-axis" aria-hidden="true"><g transform="translate(0.5,200.5)"><path class="background" aria-hidden="true" d="M0,0h0v0h0Z" pointer-events="none"></path><g><g class="mark-rule role-axis-grid" pointer-events="none"><line transform="translate(53,-200)" x2="0" y2="200" stroke="#747474" stroke-width="1" stroke-dasharray="1,0" opacity="1"></line><line transform="translate(159,-200)" x2="0" y2="200" stroke="#747474" stroke-width="1" stroke-dasharray="1,0" opacity="1"></line><line transform="translate(264,-200)" x2="0" y2="200" stroke="#747474" stroke-width="1" stroke-dasharray="1,0" opacity="1"></line><line transform="translate(370,-200)" x2="0" y2="200" stroke="#747474" stroke-width="1" stroke-dasharray="1,0" opacity="1"></line><line transform="translate(476,-200)" x2="0" y2="200" stroke="#747474" stroke-width="1" stroke-dasharray="1,0" opacity="1"></line><line transform="translate(581,-200)" x2="0" y2="200" stroke="#747474" stroke-width="1" stroke-dasharray="1,0" opacity="1"></line></g></g><path class="foreground" aria-hidden="true" d="" pointer-events="none" display="none"></path></g></g><g class="mark-group role-axis" role="graphics-symbol" aria-roledescription="axis" aria-label="X-axis for a discrete scale with 6 values: 1772, 1774, 1776, 1778, 1780, 1782"><g transform="translate(0.5,200.5)"><path class="background" aria-hidden="true" d="M0,0h0v0h0Z" pointer-events="none"></path><g><g class="mark-rule role-axis-tick" pointer-events="none"><line transform="translate(53,0)" x2="0" y2="5" stroke="#888" stroke-width="1" opacity="1"></line><line transform="translate(159,0)" x2="0" y2="5" stroke="#888" stroke-width="1" opacity="1"></line><line transform="translate(264,0)" x2="0" y2="5" stroke="#888" stroke-width="1" opacity="1"></line><line transform="translate(370,0)" x2="0" y2="5" stroke="#888" stroke-width="1" opacity="1"></line><line transform="translate(476,0)" x2="0" y2="5" stroke="#888" stroke-width="1" opacity="1"></line><line transform="translate(581,0)" x2="0" y2="5" stroke="#888" stroke-width="1" opacity="1"></line></g><g class="mark-text role-axis-label" pointer-events="none"><text text-anchor="start" transform="translate(52.833333333333314,7) rotate(90) translate(0,5)" font-family="sans-serif" font-size="15px" font-weight="normal" fill="#fff" opacity="1">1772</text><text text-anchor="start" transform="translate(158.5,7) rotate(90) translate(0,5)" font-family="sans-serif" font-size="15px" font-weight="normal" fill="#fff" opacity="1">1774</text><text text-anchor="start" transform="translate(264.16666666666663,7) rotate(90) translate(0,5)" font-family="sans-serif" font-size="15px" font-weight="normal" fill="#fff" opacity="1">1776</text><text text-anchor="start" transform="translate(369.8333333333333,7) rotate(90) translate(0,5)" font-family="sans-serif" font-size="15px" font-weight="normal" fill="#fff" opacity="1">1778</text><text text-anchor="start" transform="translate(475.5,7) rotate(90) translate(0,5)" font-family="sans-serif" font-size="15px" font-weight="normal" fill="#fff" opacity="1">1780</text><text text-anchor="start" transform="translate(581.1666666666667,7) rotate(90) translate(0,5)" font-family="sans-serif" font-size="15px" font-weight="normal" fill="#fff" opacity="1">1782</text></g><g class="mark-rule role-axis-domain" pointer-events="none"><line transform="translate(0,0)" x2="634" y2="0" stroke="#888" stroke-width="1" opacity="1"></line></g></g><path class="foreground" aria-hidden="true" d="" pointer-events="none" display="none"></path></g></g><g class="mark-group role-axis" role="graphics-symbol" aria-roledescription="axis" aria-label="Y-axis for a linear scale with values from 0 to 240"><g transform="translate(0.5,0.5)"><path class="background" aria-hidden="true" d="M0,0h0v0h0Z" pointer-events="none"></path><g><g class="mark-text role-axis-label" pointer-events="none"><text text-anchor="middle" transform="translate(-2,200) rotate(90) translate(0,12)" font-family="sans-serif" font-size="15px" font-weight="normal" fill="#fff" opacity="1">0</text><text text-anchor="middle" transform="translate(-2,158.33333333333331) rotate(90) translate(0,12)" font-family="sans-serif" font-size="15px" font-weight="normal" fill="#fff" opacity="1">50</text><text text-anchor="middle" transform="translate(-2,116.66666666666666) rotate(90) translate(0,12)" font-family="sans-serif" font-size="15px" font-weight="normal" fill="#fff" opacity="1">100</text><text text-anchor="middle" transform="translate(-2,75) rotate(90) translate(0,12)" font-family="sans-serif" font-size="15px" font-weight="normal" fill="#fff" opacity="1">150</text><text text-anchor="middle" transform="translate(-2,33.33333333333333) rotate(90) translate(0,12)" font-family="sans-serif" font-size="15px" font-weight="normal" fill="#fff" opacity="1">200</text></g></g><path class="foreground" aria-hidden="true" d="" pointer-events="none" display="none"></path></g></g><g class="mark-group role-scope layer_0_pathgroup" role="graphics-object" aria-roledescription="group mark container"><g transform="translate(0,0)"><path class="background" aria-hidden="true" d="M0,0h634v200h-634Z"></path><g><g class="mark-line role-mark layer_0_marks" role="graphics-object" aria-roledescription="line mark container"><path aria-label="Year: 1772; integrated: 235; West Thiel: Market blah" role="graphics-symbol" aria-roledescription="line mark" d="M52.833333333333314,4.166666666666674L158.5,107.5L264.16666666666663,140.83333333333331L369.8333333333333,62.5L475.5,10.000000000000009L581.1666666666667,40.83333333333334" stroke="#ed6d2f" stroke-width="2" stroke-dasharray="1,0"></path></g></g><path class="foreground" aria-hidden="true" d="" display="none"></path></g><g transform="translate(0,0)"><path class="background" aria-hidden="true" d="M0,0h634v200h-634Z"></path><g><g class="mark-line role-mark layer_0_marks" role="graphics-object" aria-roledescription="line mark container"><path aria-label="Year: 1772; integrated: 142; West Thiel: Implemented" role="graphics-symbol" aria-roledescription="line mark" d="M52.833333333333314,81.66666666666667L158.5,10.000000000000009L264.16666666666663,180.83333333333334L369.8333333333333,163.33333333333334L475.5,186.66666666666666L581.1666666666667,25.83333333333333" stroke="#caffc9" stroke-width="2" stroke-dasharray="1,0"></path></g></g><path class="foreground" aria-hidden="true" d="" display="none"></path></g></g><g class="mark-symbol role-mark layer_1_marks" role="graphics-object" aria-roledescription="symbol mark container"><path aria-label="Year: 1772; integrated: 235; West Thiel: Market blah" role="graphics-symbol" aria-roledescription="point" transform="translate(52.833333333333314,4.166666666666674)" d="M4.330127018922194,0A4.330127018922194,4.330127018922194,0,1,1,-4.330127018922194,0A4.330127018922194,4.330127018922194,0,1,1,4.330127018922194,0" fill="#ed6d2f" stroke-width="2" opacity="1"></path><path aria-label="Year: 1774; integrated: 111; West Thiel: Market blah" role="graphics-symbol" aria-roledescription="point" transform="translate(158.5,107.5)" d="M4.330127018922194,0A4.330127018922194,4.330127018922194,0,1,1,-4.330127018922194,0A4.330127018922194,4.330127018922194,0,1,1,4.330127018922194,0" fill="#ed6d2f" stroke-width="2" opacity="1"></path><path aria-label="Year: 1776; integrated: 71; West Thiel: Market blah" role="graphics-symbol" aria-roledescription="point" transform="translate(264.16666666666663,140.83333333333331)" d="M4.330127018922194,0A4.330127018922194,4.330127018922194,0,1,1,-4.330127018922194,0A4.330127018922194,4.330127018922194,0,1,1,4.330127018922194,0" fill="#ed6d2f" stroke-width="2" opacity="1"></path><path aria-label="Year: 1778; integrated: 165; West Thiel: Market blah" role="graphics-symbol" aria-roledescription="point" transform="translate(369.8333333333333,62.5)" d="M4.330127018922194,0A4.330127018922194,4.330127018922194,0,1,1,-4.330127018922194,0A4.330127018922194,4.330127018922194,0,1,1,4.330127018922194,0" fill="#ed6d2f" stroke-width="2" opacity="1"></path><path aria-label="Year: 1780; integrated: 228; West Thiel: Market blah" role="graphics-symbol" aria-roledescription="point" transform="translate(475.5,10.000000000000009)" d="M4.330127018922194,0A4.330127018922194,4.330127018922194,0,1,1,-4.330127018922194,0A4.330127018922194,4.330127018922194,0,1,1,4.330127018922194,0" fill="#ed6d2f" stroke-width="2" opacity="1"></path><path aria-label="Year: 1782; integrated: 191; West Thiel: Market blah" role="graphics-symbol" aria-roledescription="point" transform="translate(581.1666666666667,40.83333333333334)" d="M4.330127018922194,0A4.330127018922194,4.330127018922194,0,1,1,-4.330127018922194,0A4.330127018922194,4.330127018922194,0,1,1,4.330127018922194,0" fill="#ed6d2f" stroke-width="2" opacity="1"></path><path aria-label="Year: 1772; integrated: 142; West Thiel: Implemented" role="graphics-symbol" aria-roledescription="point" transform="translate(52.833333333333314,81.66666666666667)" d="M4.330127018922194,0A4.330127018922194,4.330127018922194,0,1,1,-4.330127018922194,0A4.330127018922194,4.330127018922194,0,1,1,4.330127018922194,0" fill="#caffc9" stroke-width="2" opacity="1"></path><path aria-label="Year: 1774; integrated: 228; West Thiel: Implemented" role="graphics-symbol" aria-roledescription="point" transform="translate(158.5,10.000000000000009)" d="M4.330127018922194,0A4.330127018922194,4.330127018922194,0,1,1,-4.330127018922194,0A4.330127018922194,4.330127018922194,0,1,1,4.330127018922194,0" fill="#caffc9" stroke-width="2" opacity="1"></path><path aria-label="Year: 1776; integrated: 23; West Thiel: Implemented" role="graphics-symbol" aria-roledescription="point" transform="translate(264.16666666666663,180.83333333333334)" d="M4.330127018922194,0A4.330127018922194,4.330127018922194,0,1,1,-4.330127018922194,0A4.330127018922194,4.330127018922194,0,1,1,4.330127018922194,0" fill="#caffc9" stroke-width="2" opacity="1"></path><path aria-label="Year: 1778; integrated: 44; West Thiel: Implemented" role="graphics-symbol" aria-roledescription="point" transform="translate(369.8333333333333,163.33333333333334)" d="M4.330127018922194,0A4.330127018922194,4.330127018922194,0,1,1,-4.330127018922194,0A4.330127018922194,4.330127018922194,0,1,1,4.330127018922194,0" fill="#caffc9" stroke-width="2" opacity="1"></path><path aria-label="Year: 1780; integrated: 16; West Thiel: Implemented" role="graphics-symbol" aria-roledescription="point" transform="translate(475.5,186.66666666666666)" d="M4.330127018922194,0A4.330127018922194,4.330127018922194,0,1,1,-4.330127018922194,0A4.330127018922194,4.330127018922194,0,1,1,4.330127018922194,0" fill="#caffc9" stroke-width="2" opacity="1"></path><path aria-label="Year: 1782; integrated: 209; West Thiel: Implemented" role="graphics-symbol" aria-roledescription="point" transform="translate(581.1666666666667,25.83333333333333)" d="M4.330127018922194,0A4.330127018922194,4.330127018922194,0,1,1,-4.330127018922194,0A4.330127018922194,4.330127018922194,0,1,1,4.330127018922194,0" fill="#caffc9" stroke-width="2" opacity="1"></path></g><g class="mark-text role-mark layer_2_marks" role="graphics-object" aria-roledescription="text mark container"><text aria-label="Year: 1772; integrated: 235" role="graphics-symbol" aria-roledescription="text mark" text-anchor="middle" transform="translate(52.833333333333314,-11.833333333333325)" font-family="sans-serif" font-size="14px" fill="#fff" opacity="1">235</text><text aria-label="Year: 1774; integrated: 111" role="graphics-symbol" aria-roledescription="text mark" text-anchor="middle" transform="translate(158.5,91.5)" font-family="sans-serif" font-size="14px" fill="#fff" opacity="1">111</text><text aria-label="Year: 1776; integrated: 71" role="graphics-symbol" aria-roledescription="text mark" text-anchor="middle" transform="translate(264.16666666666663,124.83333333333331)" font-family="sans-serif" font-size="14px" fill="#fff" opacity="1">71</text><text aria-label="Year: 1778; integrated: 165" role="graphics-symbol" aria-roledescription="text mark" text-anchor="middle" transform="translate(369.8333333333333,46.5)" font-family="sans-serif" font-size="14px" fill="#fff" opacity="1">165</text><text aria-label="Year: 1780; integrated: 228" role="graphics-symbol" aria-roledescription="text mark" text-anchor="middle" transform="translate(475.5,-5.999999999999991)" font-family="sans-serif" font-size="14px" fill="#fff" opacity="1">228</text><text aria-label="Year: 1782; integrated: 191" role="graphics-symbol" aria-roledescription="text mark" text-anchor="middle" transform="translate(581.1666666666667,24.833333333333343)" font-family="sans-serif" font-size="14px" fill="#fff" opacity="1">191</text><text aria-label="Year: 1772; integrated: 142" role="graphics-symbol" aria-roledescription="text mark" text-anchor="middle" transform="translate(52.833333333333314,65.66666666666667)" font-family="sans-serif" font-size="14px" fill="#fff" opacity="1">142</text><text aria-label="Year: 1774; integrated: 228" role="graphics-symbol" aria-roledescription="text mark" text-anchor="middle" transform="translate(158.5,-5.999999999999991)" font-family="sans-serif" font-size="14px" fill="#fff" opacity="1">228</text><text aria-label="Year: 1776; integrated: 23" role="graphics-symbol" aria-roledescription="text mark" text-anchor="middle" transform="translate(264.16666666666663,164.83333333333334)" font-family="sans-serif" font-size="14px" fill="#fff" opacity="1">23</text><text aria-label="Year: 1778; integrated: 44" role="graphics-symbol" aria-roledescription="text mark" text-anchor="middle" transform="translate(369.8333333333333,147.33333333333334)" font-family="sans-serif" font-size="14px" fill="#fff" opacity="1">44</text><text aria-label="Year: 1780; integrated: 16" role="graphics-symbol" aria-roledescription="text mark" text-anchor="middle" transform="translate(475.5,170.66666666666666)" font-family="sans-serif" font-size="14px" fill="#fff" opacity="1">16</text><text aria-label="Year: 1782; integrated: 209" role="graphics-symbol" aria-roledescription="text mark" text-anchor="middle" transform="translate(581.1666666666667,9.833333333333329)" font-family="sans-serif" font-size="14px" fill="#fff" opacity="1">209</text></g><g class="mark-group role-legend" role="graphics-symbol" aria-roledescription="legend" aria-label="Symbol legend titled 'West Thiel' for fill color and stroke color with 2 values: Market blah, Implemented"><g transform="translate(652,0)"><path class="background" aria-hidden="true" d="M0,0h74v45h-74Z" pointer-events="none"></path><g><g class="mark-group role-legend-entry"><g transform="translate(0,16)"><path class="background" aria-hidden="true" d="M0,0h0v0h0Z" pointer-events="none"></path><g><g class="mark-group role-scope" role="graphics-object" aria-roledescription="group mark container"><g transform="translate(0,0)"><path class="background" aria-hidden="true" d="M0,0h73.8076171875v12.5h-73.8076171875Z" pointer-events="none" opacity="1"></path><g><g class="mark-symbol role-legend-symbol" pointer-events="none"><path transform="translate(6,6)" d="M5,0A5,5,0,1,1,-5,0A5,5,0,1,1,5,0" fill="#ed6d2f" stroke="#ed6d2f" stroke-width="1.5" opacity="1"></path></g><g class="mark-text role-legend-label" pointer-events="none"><text text-anchor="start" transform="translate(16,9)" font-family="sans-serif" font-size="10px" fill="#fff" opacity="1">Market blah</text></g></g><path class="foreground" aria-hidden="true" d="" pointer-events="none" display="none"></path></g><g transform="translate(0,16)"><path class="background" aria-hidden="true" d="M0,0h73.8076171875v12.5h-73.8076171875Z" pointer-events="none" opacity="1"></path><g><g class="mark-symbol role-legend-symbol" pointer-events="none"><path transform="translate(6,6)" d="M5,0A5,5,0,1,1,-5,0A5,5,0,1,1,5,0" fill="#caffc9" stroke="#caffc9" stroke-width="1.5" opacity="1"></path></g><g class="mark-text role-legend-label" pointer-events="none"><text text-anchor="start" transform="translate(16,9)" font-family="sans-serif" font-size="10px" fill="#fff" opacity="1">Implemented</text></g></g><path class="foreground" aria-hidden="true" d="" pointer-events="none" display="none"></path></g></g></g><path class="foreground" aria-hidden="true" d="" pointer-events="none" display="none"></path></g></g><g class="mark-text role-legend-title" pointer-events="none"><text text-anchor="start" transform="translate(0,9)" font-family="sans-serif" font-size="11px" font-weight="bold" fill="#fff" opacity="1">West Thiel</text></g></g><path class="foreground" aria-hidden="true" d="" pointer-events="none" display="none"></path></g></g><g class="mark-group role-title"><g transform="translate(726,-51.83333333333333)"><path class="background" aria-hidden="true" d="M0,0h0v0h0Z" pointer-events="none"></path><g><g class="mark-text role-title-text" role="graphics-symbol" aria-roledescription="title" aria-label="Title text 'International override'" pointer-events="none"><text text-anchor="end" transform="translate(0,20)" font-family="sans-serif" font-size="25px" font-weight="bold" fill="#fff" opacity="1">International override</text></g></g><path class="foreground" aria-hidden="true" d="" pointer-events="none" display="none"></path></g></g></g><path class="foreground" aria-hidden="true" d="" display="none"></path></g></g></g></svg>