<svg xmlns="http://www.w3.org/2000/svg" xmlns:xlink="http://www.w3.org/1999/xlink" version="1.1" class="marks" width="544" height="274" viewBox="0 0 544 274" style="background-color: rgb(51, 51, 51);"><g fill="none" stroke-miterlimit="10" transform="translate(17,40)"><g class="mark-group role-frame root" role="graphics-object" aria-roledescription="group mark container"><g transform="translate(0,0)"><path class="background" aria-hidden="true" d="M0.5,0.5h522v200h-522Z" fill="transparent" stroke="#ddd"></path><g><g class="mark-group role-axis" aria-hidden="true"><g transform="translate(0.5,0.5)"><path class="background" aria-hidden="true" d="M0,0h0v0h0Z" pointer-events="none"></path><g><g class="mark-rule role-axis-grid" pointer-events="none"><line transform="translate(0,200)" x2="522" y2="0" stroke="#747474" stroke-width="1" stroke-dasharray="6, 3" opacity="1"></line><line transform="translate(0,138)" x2="522" y2="0" stroke="#747474" stroke-width="1" stroke-dasharray="6, 3" opacity="1"></line><line transform="translate(0,75)" x2="522" y2="0" stroke="#747474" stroke-width="1" stroke-dasharray="6, 3" opacity="1"></line><line transform="translate(0,13)" x2="522" y2="0" stroke="#747474" stroke-width="1" stroke-dasharray="6, 3" opacity="1"></line></g></g><path class="foreground" aria-hidden="true" d="" pointer-events="none" display="none"></path></g></g><g class="mark-group role-axis" role="graphics-symbol" aria-roledescription="axis" aria-label="X-axis for a discrete scale with 8 values: Jan, Feb, Mar, Apr, May, ending with Aug"><g transform="translate(0.5,200.5)"><path class="background" aria-hidden="true" d="M0,0h0v0h0Z" pointer-events="none"></path><g><g class="mark-rule role-axis-tick" pointer-events="none"><line transform="translate(33,0)" x2="0" y2="5" stroke="#888" stroke-width="1" opacity="1"></line><line transform="translate(98,0)" x2="0" y2="5" stroke="#888" stroke-width="1" opacity="1"></line><line transform="translate(163,0)" x2="0" y2="5" stroke="#888" stroke-width="1" opacity="1"></line><line transform="translate(228,0)" x2="0" y2="5" stroke="#888" stroke-width="1" opacity="1"></line><line transform="translate(294,0)" x2="0" y2="5" stroke="#888" stroke-width="1" opacity="1"></line><line transform="translate(359,0)" x2="0" y2="5" stroke="#888" stroke-width="1" opacity="1"></line><line transform="translate(424,0)" x2="0" y2="5" stroke="#888" stroke-width="1" opacity="1"></line><line transform="translate(489,0)" x2="0" y2="5" stroke="#888" stroke-width="1" opacity="1"></line></g><g class="mark-text role-axis-label" pointer-events="none"><text text-anchor="start" transform="translate(32.625,7) rotate(90) translate(0,3)" font-family="monospace" font-size="10px" font-weight="normal" fill="#fff" opacity="1">Jan</text><text text-anchor="start" transform="translate(97.875,7) rotate(90) translate(0,3)" font-family="monospace" font-size="10px" font-weight="normal" fill="#fff" opacity="1">Feb</text><text text-anchor="start" transform="translate(163.125,7) rotate(90) translate(0,3)" font-family="monospace" font-size="10px" font-weight="normal" fill="#fff" opacity="1">Mar</text><text text-anchor="start" transform="translate(228.375,7) rotate(90) translate(0,3)" font-family="monospace" font-size="10px" font-weight="normal" fill="#fff" opacity="1">Apr</text><text text-anchor="start" transform="translate(293.625,7) rotate(90) translate(0,3)" font-family="monospace" font-size="10px" font-weight="normal" fill="#fff" opacity="1">May</text><text text-anchor="start" transform="translate(358.875,7) rotate(90) translate(0,3)" font-family="monospace" font-size="10px" font-weight="normal" fill="#fff" opacity="1">June</text><text text-anchor="start" transform="translate(424.125,7) rotate(90) translate(0,3)" font-family="monospace" font-size="10px" font-weight="normal" fill="#fff" opacity="1">July</text><text text-anchor="start" transform="translate(489.375,7) rotate(90) translate(0,3)" font-family="monospace" font-size="10px" font-weight="normal" fill="#fff" opacity="1">Aug</text></g><g class="mark-rule role-axis-domain" pointer-events="none"><line transform="translate(0,0)" x2="522" y2="0" stroke="#888" stroke-width="1" opacity="1"></line></g></g><path class="foreground" aria-hidden="true" d="" pointer-events="none" display="none"></path></g></g><g class="mark-group role-axis" role="graphics-symbol" aria-roledescription="axis" aria-label="Y-axis for a linear scale with values from 0 to 160"><g transform="translate(0.5,0.5)"><path class="background" aria-hidden="true" d="M0,0h0v0h0Z" pointer-events="none"></path><g><g class="mark-text role-axis-label" pointer-events="none"><text text-anchor="middle" transform="translate(-2,200) rotate(90) translate(0,8)" font-family="monospace" font-size="10px" font-weight="normal" fill="#fff" opacity="1">0</text><text text-anchor="middle" transform="translate(-2,137.5) rotate(90) translate(0,8)" font-family="monospace" font-size="10px" font-weight="normal" fill="#fff" opacity="1">50</text><text text-anchor="middle" transform="translate(-2,75) rotate(90) translate(0,8)" font-family="monospace" font-size="10px" font-weight="normal" fill="#fff" opacity="1">100</text><text text-anchor="middle" transform="translate(-2,12.5) rotate(90) translate(0,8)" font-family="monospace" font-size="10px" font-weight="normal" fill="#fff" opacity="1">150</text></g></g><path class="foreground" aria-hidden="true" d="" pointer-events="none" display="none"></path></g></g><g class="mark-group role-scope layer_0_pathgroup" role="graphics-object" aria-roledescription="group mark container"><g transform="translate(0,0)"><path class="background" aria-hidden="true" d="M0,0h522v200h-522Z"></path><g><g class="mark-line role-mark layer_0_marks" role="graphics-object" aria-roledescription="line mark container"><path aria-label="Month: Jan; Folk Cambridgeshire male: 66; Organic azure female: South apartment female" role="graphics-symbol" aria-roledescription="line mark" d="M32.625,117.5C54.375,128.02688079697697,76.125,138.553761593954,97.875,116.25000000000001C119.625,93.94623840604605,141.375,38.811834421161116,163.125,13.749999999999996C184.875,-11.311834421161123,206.625,-6.3010992785984286,228.375,13.749999999999996C250.125,33.80109927859842,271.875,68.89256269323256,293.625,82.5C315.375,96.10743730676744,337.12499999999994,88.23084850566812,358.875,102.49999999999999C380.62500000000006,116.76915149433185,402.37500000000006,153.18404328409483,424.125,172.5C445.87499999999994,191.81595671590517,467.625,194.03297835795257,489.375,196.25" stroke="#e93a73" stroke-width="2" stroke-dasharray="1,0"></path></g></g><path class="foreground" aria-hidden="true" d="" display="none"></path></g></g><g class="mark-symbol role-mark layer_1_marks" role="graphics-object" aria-roledescription="symbol mark container"><path aria-label="Month: Jan; Folk Cambridgeshire male: 66; Organic azure female: South apartment female" role="graphics-symbol" aria-roledescription="point" transform="translate(32.625,117.5)" d="M2.7386127875258306,0A2.7386127875258306,2.7386127875258306,0,1,1,-2.7386127875258306,0A2.7386127875258306,2.7386127875258306,0,1,1,2.7386127875258306,0" fill="#333333" stroke="#e93a73" stroke-width="4" opacity="1"></path><path aria-label="Month: Feb; Folk Cambridgeshire male: 67; Organic azure female: South apartment female" role="graphics-symbol" aria-roledescription="point" transform="translate(97.875,116.25000000000001)" d="M2.7386127875258306,0A2.7386127875258306,2.7386127875258306,0,1,1,-2.7386127875258306,0A2.7386127875258306,2.7386127875258306,0,1,1,2.7386127875258306,0" fill="#333333" stroke="#e93a73" stroke-width="4" opacity="1"></path><path aria-label="Month: Mar; Folk Cambridgeshire male: 149; Organic azure female: South apartment female" role="graphics-symbol" aria-roledescription="point" transform="translate(163.125,13.749999999999996)" d="M2.7386127875258306,0A2.7386127875258306,2.7386127875258306,0,1,1,-2.7386127875258306,0A2.7386127875258306,2.7386127875258306,0,1,1,2.7386127875258306,0" fill="#333333" stroke="#e93a73" stroke-width="4" opacity="1"></path><path aria-label="Month: Apr; Folk Cambridgeshire male: 149; Organic azure female: South apartment female" role="graphics-symbol" aria-roledescription="point" transform="translate(228.375,13.749999999999996)" d="M2.7386127875258306,0A2.7386127875258306,2.7386127875258306,0,1,1,-2.7386127875258306,0A2.7386127875258306,2.7386127875258306,0,1,1,2.7386127875258306,0" fill="#333333" stroke="#e93a73" stroke-width="4" opacity="1"></path><path aria-label="Month: May; Folk Cambridgeshire male: 94; Organic azure female: South apartment female" role="graphics-symbol" aria-roledescription="point" transform="translate(293.625,82.5)" d="M2.7386127875258306,0A2.7386127875258306,2.7386127875258306,0,1,1,-2.7386127875258306,0A2.7386127875258306,2.7386127875258306,0,1,1,2.7386127875258306,0" fill="#333333" stroke="#e93a73" stroke-width="4" opacity="1"></path><path aria-label="Month: June; Folk Cambridgeshire male: 78; Organic azure female: South apartment female" role="graphics-symbol" aria-roledescription="point" transform="translate(358.875,102.49999999999999)" d="M2.7386127875258306,0A2.7386127875258306,2.7386127875258306,0,1,1,-2.7386127875258306,0A2.7386127875258306,2.7386127875258306,0,1,1,2.7386127875258306,0" fill="#333333" stroke="#e93a73" stroke-width="4" opacity="1"></path><path aria-label="Month: July; Folk Cambridgeshire male: 22; Organic azure female: South apartment female" role="graphics-symbol" aria-roledescription="point" transform="translate(424.125,172.5)" d="M2.7386127875258306,0A2.7386127875258306,2.7386127875258306,0,1,1,-2.7386127875258306,0A2.7386127875258306,2.7386127875258306,0,1,1,2.7386127875258306,0" fill="#333333" stroke="#e93a73" stroke-width="4" opacity="1"></path><path aria-label="Month: Aug; Folk Cambridgeshire male: 3; Organic azure female: South apartment female" role="graphics-symbol" aria-roledescription="point" transform="translate(489.375,196.25)" d="M2.7386127875258306,0A2.7386127875258306,2.7386127875258306,0,1,1,-2.7386127875258306,0A2.7386127875258306,2.7386127875258306,0,1,1,2.7386127875258306,0" fill="#333333" stroke="#e93a73" stroke-width="4" opacity="1"></path></g><g class="mark-group role-title"><g transform="translate(-12,-34.219208959122)"><path class="background" aria-hidden="true" d="M0,0h0v0h0Z" pointer-events="none"></path><g><g class="mark-text role-title-text" role="graphics-symbol" aria-roledescription="title" aria-label="Title text 'South'" pointer-events="none"><text text-anchor="start" transform="translate(0,20)" font-family="monospace" font-size="25px" font-weight="bold" fill="#fff" opacity="1">South</text></g></g><path class="foreground" aria-hidden="true" d="" pointer-events="none" display="none"></path></g></g></g><path class="foreground" aria-hidden="true" d="" display="none"></path></g></g></g></svg>