<svg xmlns="http://www.w3.org/2000/svg" xmlns:xlink="http://www.w3.org/1999/xlink" version="1.1" class="marks" width="813" height="264" viewBox="0 0 813 264" style="background-color: rgb(255, 255, 255);"><g fill="none" stroke-miterlimit="10" transform="translate(43,34)"><g class="mark-group role-frame root" role="graphics-object" aria-roledescription="group mark container"><g transform="translate(0,0)"><path class="background" aria-hidden="true" d="M0.5,0.5h613v200h-613Z" fill="transparent" stroke="#ddd"></path><g><g class="mark-group role-axis" aria-hidden="true"><g transform="translate(0.5,200.5)"><path class="background" aria-hidden="true" d="M0,0h0v0h0Z" pointer-events="none"></path><g><g class="mark-rule role-axis-grid" pointer-events="none"><line transform="translate(44,-200)" x2="0" y2="200" stroke="#D0D0D0" stroke-width="1" stroke-dasharray="4, 2" opacity="1"></line><line transform="translate(131,-200)" x2="0" y2="200" stroke="#D0D0D0" stroke-width="1" stroke-dasharray="4, 2" opacity="1"></line><line transform="translate(219,-200)" x2="0" y2="200" stroke="#D0D0D0" stroke-width="1" stroke-dasharray="4, 2" opacity="1"></line><line transform="translate(307,-200)" x2="0" y2="200" stroke="#D0D0D0" stroke-width="1" stroke-dasharray="4, 2" opacity="1"></line><line transform="translate(394,-200)" x2="0" y2="200" stroke="#D0D0D0" stroke-width="1" stroke-dasharray="4, 2" opacity="1"></line><line transform="translate(482,-200)" x2="0" y2="200" stroke="#D0D0D0" stroke-width="1" stroke-dasharray="4, 2" opacity="1"></line><line transform="translate(569,-200)" x2="0" y2="200" stroke="#D0D0D0" stroke-width="1" stroke-dasharray="4, 2" opacity="1"></line></g></g><path class="foreground" aria-hidden="true" d="" pointer-events="none" display="none"></path></g></g><g class="mark-group role-axis" aria-hidden="true"><g transform="translate(0.5,0.5)"><path class="background" aria-hidden="true" d="M0,0h0v0h0Z" pointer-events="none"></path><g><g class="mark-rule role-axis-grid" pointer-events="none"><line transform="translate(0,200)" x2="613" y2="0" stroke="#D0D0D0" stroke-width="1" stroke-dasharray="4, 2" opacity="1"></line><line transform="translate(0,156)" x2="613" y2="0" stroke="#D0D0D0" stroke-width="1" stroke-dasharray="4, 2" opacity="1"></line><line transform="translate(0,111)" x2="613" y2="0" stroke="#D0D0D0" stroke-width="1" stroke-dasharray="4, 2" opacity="1"></line><line transform="translate(0,67)" x2="613" y2="0" stroke="#D0D0D0" stroke-width="1" stroke-dasharray="4, 2" opacity="1"></line><line transform="translate(0,22)" x2="613" y2="0" stroke="#D0D0D0" stroke-width="1" stroke-dasharray="4, 2" opacity="1"></line></g></g><path class="foreground" aria-hidden="true" d="" pointer-events="none" display="none"></path></g></g><g class="mark-group role-axis" role="graphics-symbol" aria-roledescription="axis" aria-label="X-axis for a discrete scale with 7 values: Jan, Feb, Mar, Apr, May, June, July"><g transform="translate(0.5,200.5)"><path class="background" aria-hidden="true" d="M0,0h0v0h0Z" pointer-events="none"></path><g><g class="mark-rule role-axis-tick" pointer-events="none"><line transform="translate(44,0)" x2="0" y2="5" stroke="#888" stroke-width="1" opacity="1"></line><line transform="translate(131,0)" x2="0" y2="5" stroke="#888" stroke-width="1" opacity="1"></line><line transform="translate(219,0)" x2="0" y2="5" stroke="#888" stroke-width="1" opacity="1"></line><line transform="translate(307,0)" x2="0" y2="5" stroke="#888" stroke-width="1" opacity="1"></line><line transform="translate(394,0)" x2="0" y2="5" stroke="#888" stroke-width="1" opacity="1"></line><line transform="translate(482,0)" x2="0" y2="5" stroke="#888" stroke-width="1" opacity="1"></line><line transform="translate(569,0)" x2="0" y2="5" stroke="#888" stroke-width="1" opacity="1"></line></g><g class="mark-text role-axis-label" pointer-events="none"><text text-anchor="middle" transform="translate(43.78571428571428,21)" font-family="sans-serif" font-size="18px" font-weight="normal" fill="#000" opacity="1">Jan</text><text text-anchor="middle" transform="translate(131.35714285714283,21)" font-family="sans-serif" font-size="18px" font-weight="normal" fill="#000" opacity="1">Feb</text><text text-anchor="middle" transform="translate(218.92857142857142,21)" font-family="sans-serif" font-size="18px" font-weight="normal" fill="#000" opacity="1">Mar</text><text text-anchor="middle" transform="translate(306.5,21)" font-family="sans-serif" font-size="18px" font-weight="normal" fill="#000" opacity="1">Apr</text><text text-anchor="middle" transform="translate(394.07142857142856,21)" font-family="sans-serif" font-size="18px" font-weight="normal" fill="#000" opacity="1">May</text><text text-anchor="middle" transform="translate(481.6428571428571,21)" font-family="sans-serif" font-size="18px" font-weight="normal" fill="#000" opacity="1">June</text><text text-anchor="middle" transform="translate(569.2142857142858,21)" font-family="sans-serif" font-size="18px" font-weight="normal" fill="#000" opacity="1">July</text></g><g class="mark-rule role-axis-domain" pointer-events="none"><line transform="translate(0,0)" x2="613" y2="0" stroke="#888" stroke-width="1" opacity="1"></line></g></g><path class="foreground" aria-hidden="true" d="" pointer-events="none" display="none"></path></g></g><g class="mark-group role-axis" role="graphics-symbol" aria-roledescription="axis" aria-label="Y-axis for a linear scale with values from 0 to 900"><g transform="translate(0.5,0.5)"><path class="background" aria-hidden="true" d="M0,0h0v0h0Z" pointer-events="none"></path><g><g class="mark-rule role-axis-tick" pointer-events="none"><line transform="translate(0,200)" x2="-5" y2="0" stroke="#888" stroke-width="1" opacity="1"></line><line transform="translate(0,156)" x2="-5" y2="0" stroke="#888" stroke-width="1" opacity="1"></line><line transform="translate(0,111)" x2="-5" y2="0" stroke="#888" stroke-width="1" opacity="1"></line><line transform="translate(0,67)" x2="-5" y2="0" stroke="#888" stroke-width="1" opacity="1"></line><line transform="translate(0,22)" x2="-5" y2="0" stroke="#888" stroke-width="1" opacity="1"></line></g><g class="mark-text role-axis-label" pointer-events="none"><text text-anchor="end" transform="translate(-7,205)" font-family="sans-serif" font-size="18px" font-weight="normal" fill="#000" opacity="1">0</text><text text-anchor="end" transform="translate(-7,160.55555555555557)" font-family="sans-serif" font-size="18px" font-weight="normal" fill="#000" opacity="1">200</text><text text-anchor="end" transform="translate(-7,116.11111111111111)" font-family="sans-serif" font-size="18px" font-weight="normal" fill="#000" opacity="1">400</text><text text-anchor="end" transform="translate(-7,71.66666666666667)" font-family="sans-serif" font-size="18px" font-weight="normal" fill="#000" opacity="1">600</text><text text-anchor="end" transform="translate(-7,27.222222222222232)" font-family="sans-serif" font-size="18px" font-weight="normal" fill="#000" opacity="1">800</text></g></g><path class="foreground" aria-hidden="true" d="" pointer-events="none" display="none"></path></g></g><g class="mark-group role-scope layer_0_pathgroup" role="graphics-object" aria-roledescription="group mark container"><g transform="translate(0,0)"><path class="background" aria-hidden="true" d="M0,0h613v200h-613Z"></path><g><g class="mark-line role-mark layer_0_marks" role="graphics-object" aria-roledescription="line mark container"><path aria-label="Month: Jan; Coupe Maserati watt: 352; Bolivia: Land Wooden" role="graphics-symbol" aria-roledescription="line mark" d="M43.78571428571428,121.77777777777776C72.97619047619047,137.14881291547957,102.16666666666666,152.51984805318136,131.35714285714283,140.88888888888889C160.547619047619,129.2579297245964,189.73809523809518,90.62497625830962,218.92857142857142,97.55555555555556C248.11904761904765,104.4861348528015,277.3095238095238,156.98024691358023,306.5,152.44444444444446C335.6904761904762,147.90864197530868,364.88095238095246,86.3429249762583,394.07142857142856,51.777777777777764C423.26190476190465,17.21263057929722,452.45238095238085,9.648053181386505,481.6428571428571,15.333333333333332C510.83333333333337,21.01861348528016,540.0238095238096,39.95375118708452,569.2142857142858,58.88888888888888" stroke="#37fa47" stroke-width="2" stroke-dasharray="1,0"></path></g></g><path class="foreground" aria-hidden="true" d="" display="none"></path></g><g transform="translate(0,0)"><path class="background" aria-hidden="true" d="M0,0h613v200h-613Z"></path><g><g class="mark-line role-mark layer_0_marks" role="graphics-object" aria-roledescription="line mark container"><path aria-label="Month: Jan; Coupe Maserati watt: 623; Bolivia: Southeast FTM Aluminium" role="graphics-symbol" aria-roledescription="line mark" d="M43.78571428571428,61.555555555555564C72.97619047619047,73.833428300095,102.16666666666666,86.1113010446344,131.35714285714283,75.33333333333334C160.547619047619,64.55536562203228,189.73809523809518,30.721557454890778,218.92857142857142,19.999999999999996C248.11904761904765,9.278442545109215,277.3095238095238,21.669135802469157,306.5,37.555555555555564C335.6904761904762,53.44197530864197,364.88095238095246,72.8241215574549,394.07142857142856,65.11111111111111C423.26190476190465,57.398100664767334,452.45238095238085,22.589933523266865,481.6428571428571,40.22222222222223C510.83333333333337,57.85451092117759,540.0238095238096,127.9272554605888,569.2142857142858,198" stroke="#f2f6b8" stroke-width="2" stroke-dasharray="1,0"></path></g></g><path class="foreground" aria-hidden="true" d="" display="none"></path></g></g><g class="mark-symbol role-mark layer_1_marks" role="graphics-object" aria-roledescription="symbol mark container"><path aria-label="Month: Jan; Coupe Maserati watt: 352; Bolivia: Land Wooden" role="graphics-symbol" aria-roledescription="point" transform="translate(43.78571428571428,121.77777777777776)" d="M5.744562646538029,0A5.744562646538029,5.744562646538029,0,1,1,-5.744562646538029,0A5.744562646538029,5.744562646538029,0,1,1,5.744562646538029,0" fill="#37fa47" stroke-width="3" opacity="1"></path><path aria-label="Month: Feb; Coupe Maserati watt: 266; Bolivia: Land Wooden" role="graphics-symbol" aria-roledescription="point" transform="translate(131.35714285714283,140.88888888888889)" d="M5.744562646538029,0A5.744562646538029,5.744562646538029,0,1,1,-5.744562646538029,0A5.744562646538029,5.744562646538029,0,1,1,5.744562646538029,0" fill="#37fa47" stroke-width="3" opacity="1"></path><path aria-label="Month: Mar; Coupe Maserati watt: 461; Bolivia: Land Wooden" role="graphics-symbol" aria-roledescription="point" transform="translate(218.92857142857142,97.55555555555556)" d="M5.744562646538029,0A5.744562646538029,5.744562646538029,0,1,1,-5.744562646538029,0A5.744562646538029,5.744562646538029,0,1,1,5.744562646538029,0" fill="#37fa47" stroke-width="3" opacity="1"></path><path aria-label="Month: Apr; Coupe Maserati watt: 214; Bolivia: Land Wooden" role="graphics-symbol" aria-roledescription="point" transform="translate(306.5,152.44444444444446)" d="M5.744562646538029,0A5.744562646538029,5.744562646538029,0,1,1,-5.744562646538029,0A5.744562646538029,5.744562646538029,0,1,1,5.744562646538029,0" fill="#37fa47" stroke-width="3" opacity="1"></path><path aria-label="Month: May; Coupe Maserati watt: 667; Bolivia: Land Wooden" role="graphics-symbol" aria-roledescription="point" transform="translate(394.07142857142856,51.777777777777764)" d="M5.744562646538029,0A5.744562646538029,5.744562646538029,0,1,1,-5.744562646538029,0A5.744562646538029,5.744562646538029,0,1,1,5.744562646538029,0" fill="#37fa47" stroke-width="3" opacity="1"></path><path aria-label="Month: June; Coupe Maserati watt: 831; Bolivia: Land Wooden" role="graphics-symbol" aria-roledescription="point" transform="translate(481.6428571428571,15.333333333333332)" d="M5.744562646538029,0A5.744562646538029,5.744562646538029,0,1,1,-5.744562646538029,0A5.744562646538029,5.744562646538029,0,1,1,5.744562646538029,0" fill="#37fa47" stroke-width="3" opacity="1"></path><path aria-label="Month: July; Coupe Maserati watt: 635; Bolivia: Land Wooden" role="graphics-symbol" aria-roledescription="point" transform="translate(569.2142857142858,58.88888888888888)" d="M5.744562646538029,0A5.744562646538029,5.744562646538029,0,1,1,-5.744562646538029,0A5.744562646538029,5.744562646538029,0,1,1,5.744562646538029,0" fill="#37fa47" stroke-width="3" opacity="1"></path><path aria-label="Month: Jan; Coupe Maserati watt: 623; Bolivia: Southeast FTM Aluminium" role="graphics-symbol" aria-roledescription="point" transform="translate(43.78571428571428,61.555555555555564)" d="M5.744562646538029,0A5.744562646538029,5.744562646538029,0,1,1,-5.744562646538029,0A5.744562646538029,5.744562646538029,0,1,1,5.744562646538029,0" fill="#f2f6b8" stroke-width="3" opacity="1"></path><path aria-label="Month: Feb; Coupe Maserati watt: 561; Bolivia: Southeast FTM Aluminium" role="graphics-symbol" aria-roledescription="point" transform="translate(131.35714285714283,75.33333333333334)" d="M5.744562646538029,0A5.744562646538029,5.744562646538029,0,1,1,-5.744562646538029,0A5.744562646538029,5.744562646538029,0,1,1,5.744562646538029,0" fill="#f2f6b8" stroke-width="3" opacity="1"></path><path aria-label="Month: Mar; Coupe Maserati watt: 810; Bolivia: Southeast FTM Aluminium" role="graphics-symbol" aria-roledescription="point" transform="translate(218.92857142857142,19.999999999999996)" d="M5.744562646538029,0A5.744562646538029,5.744562646538029,0,1,1,-5.744562646538029,0A5.744562646538029,5.744562646538029,0,1,1,5.744562646538029,0" fill="#f2f6b8" stroke-width="3" opacity="1"></path><path aria-label="Month: Apr; Coupe Maserati watt: 731; Bolivia: Southeast FTM Aluminium" role="graphics-symbol" aria-roledescription="point" transform="translate(306.5,37.555555555555564)" d="M5.744562646538029,0A5.744562646538029,5.744562646538029,0,1,1,-5.744562646538029,0A5.744562646538029,5.744562646538029,0,1,1,5.744562646538029,0" fill="#f2f6b8" stroke-width="3" opacity="1"></path><path aria-label="Month: May; Coupe Maserati watt: 607; Bolivia: Southeast FTM Aluminium" role="graphics-symbol" aria-roledescription="point" transform="translate(394.07142857142856,65.11111111111111)" d="M5.744562646538029,0A5.744562646538029,5.744562646538029,0,1,1,-5.744562646538029,0A5.744562646538029,5.744562646538029,0,1,1,5.744562646538029,0" fill="#f2f6b8" stroke-width="3" opacity="1"></path><path aria-label="Month: June; Coupe Maserati watt: 719; Bolivia: Southeast FTM Aluminium" role="graphics-symbol" aria-roledescription="point" transform="translate(481.6428571428571,40.22222222222223)" d="M5.744562646538029,0A5.744562646538029,5.744562646538029,0,1,1,-5.744562646538029,0A5.744562646538029,5.744562646538029,0,1,1,5.744562646538029,0" fill="#f2f6b8" stroke-width="3" opacity="1"></path><path aria-label="Month: July; Coupe Maserati watt: 9; Bolivia: Southeast FTM Aluminium" role="graphics-symbol" aria-roledescription="point" transform="translate(569.2142857142858,198)" d="M5.744562646538029,0A5.744562646538029,5.744562646538029,0,1,1,-5.744562646538029,0A5.744562646538029,5.744562646538029,0,1,1,5.744562646538029,0" fill="#f2f6b8" stroke-width="3" opacity="1"></path></g><g class="mark-group role-legend" role="graphics-symbol" aria-roledescription="legend" aria-label="Symbol legend for fill color and stroke color with 2 values: Land Wooden, Southeast FTM Aluminium"><g transform="translate(631,0)"><path class="background" aria-hidden="true" d="M0,0h134v29h-134Z" pointer-events="none"></path><g><g class="mark-group role-legend-entry"><g transform="translate(0,0)"><path class="background" aria-hidden="true" d="M0,0h0v0h0Z" pointer-events="none"></path><g><g class="mark-group role-scope" role="graphics-object" aria-roledescription="group mark container"><g transform="translate(0,0)"><path class="background" aria-hidden="true" d="M0,0h133.8173828125v12.5h-133.8173828125Z" pointer-events="none" opacity="1"></path><g><g class="mark-symbol role-legend-symbol" pointer-events="none"><path transform="translate(6,6)" d="M5,0A5,5,0,1,1,-5,0A5,5,0,1,1,5,0" fill="#37fa47" stroke="#37fa47" stroke-width="1.5" opacity="1"></path></g><g class="mark-text role-legend-label" pointer-events="none"><text text-anchor="start" transform="translate(16,9)" font-family="sans-serif" font-size="10px" fill="#000" opacity="1">Land Wooden</text></g></g><path class="foreground" aria-hidden="true" d="" pointer-events="none" display="none"></path></g><g transform="translate(0,16)"><path class="background" aria-hidden="true" d="M0,0h133.8173828125v12.5h-133.8173828125Z" pointer-events="none" opacity="1"></path><g><g class="mark-symbol role-legend-symbol" pointer-events="none"><path transform="translate(6,6)" d="M5,0A5,5,0,1,1,-5,0A5,5,0,1,1,5,0" fill="#f2f6b8" stroke="#f2f6b8" stroke-width="1.5" opacity="1"></path></g><g class="mark-text role-legend-label" pointer-events="none"><text text-anchor="start" transform="translate(16,9)" font-family="sans-serif" font-size="10px" fill="#000" opacity="1">Southeast FTM Aluminium</text></g></g><path class="foreground" aria-hidden="true" d="" pointer-events="none" display="none"></path></g></g></g><path class="foreground" aria-hidden="true" d="" pointer-events="none" display="none"></path></g></g></g><path class="foreground" aria-hidden="true" d="" pointer-events="none" display="none"></path></g></g><g class="mark-group role-title"><g transform="translate(306.5,-29)"><path class="background" aria-hidden="true" d="M0,0h0v0h0Z" pointer-events="none"></path><g><g class="mark-text role-title-text" role="graphics-symbol" aria-roledescription="title" aria-label="Title text 'maroon'" pointer-events="none"><text text-anchor="middle" transform="translate(0,20)" font-family="sans-serif" font-size="25px" font-weight="bold" fill="#000" opacity="1">maroon</text></g></g><path class="foreground" aria-hidden="true" d="" pointer-events="none" display="none"></path></g></g></g><path class="foreground" aria-hidden="true" d="" display="none"></path></g></g></g></svg>