<svg xmlns="http://www.w3.org/2000/svg" xmlns:xlink="http://www.w3.org/1999/xlink" version="1.1" class="marks" width="746" height="275" viewBox="0 0 746 275" style="background-color: rgb(255, 255, 255);"><g fill="none" stroke-miterlimit="10" transform="translate(25,36)"><g class="mark-group role-frame root" role="graphics-object" aria-roledescription="group mark container"><g transform="translate(0,0)"><path class="background" aria-hidden="true" d="M0.5,0.5h716v200h-716Z" fill="transparent" stroke="#ddd"></path><g><g class="mark-group role-axis" aria-hidden="true"><g transform="translate(0.5,0.5)"><path class="background" aria-hidden="true" d="M0,0h0v0h0Z" pointer-events="none"></path><g><g class="mark-rule role-axis-grid" pointer-events="none"><line transform="translate(0,200)" x2="716" y2="0" stroke="#D0D0D0" stroke-width="1" stroke-dasharray="6, 3" opacity="1"></line><line transform="translate(0,164)" x2="716" y2="0" stroke="#D0D0D0" stroke-width="1" stroke-dasharray="6, 3" opacity="1"></line><line transform="translate(0,127)" x2="716" y2="0" stroke="#D0D0D0" stroke-width="1" stroke-dasharray="6, 3" opacity="1"></line><line transform="translate(0,91)" x2="716" y2="0" stroke="#D0D0D0" stroke-width="1" stroke-dasharray="6, 3" opacity="1"></line><line transform="translate(0,55)" x2="716" y2="0" stroke="#D0D0D0" stroke-width="1" stroke-dasharray="6, 3" opacity="1"></line><line transform="translate(0,18)" x2="716" y2="0" stroke="#D0D0D0" stroke-width="1" stroke-dasharray="6, 3" opacity="1"></line></g></g><path class="foreground" aria-hidden="true" d="" pointer-events="none" display="none"></path></g></g><g class="mark-group role-axis" role="graphics-symbol" aria-roledescription="axis" aria-label="X-axis for a discrete scale with 5 values: 1738, 1739, 1740, 1741, 1742"><g transform="translate(0.5,200.5)"><path class="background" aria-hidden="true" d="M0,0h0v0h0Z" pointer-events="none"></path><g><g class="mark-rule role-axis-tick" pointer-events="none"><line transform="translate(72,0)" x2="0" y2="5" stroke="#888" stroke-width="1" opacity="1"></line><line transform="translate(215,0)" x2="0" y2="5" stroke="#888" stroke-width="1" opacity="1"></line><line transform="translate(358,0)" x2="0" y2="5" stroke="#888" stroke-width="1" opacity="1"></line><line transform="translate(501,0)" x2="0" y2="5" stroke="#888" stroke-width="1" opacity="1"></line><line transform="translate(644,0)" x2="0" y2="5" stroke="#888" stroke-width="1" opacity="1"></line></g><g class="mark-text role-axis-label" pointer-events="none"><text text-anchor="start" transform="translate(71.60000000000002,7) rotate(90) translate(0,4)" font-family="Balto" font-size="13px" font-weight="bold" fill="#000" opacity="1">1738</text><text text-anchor="start" transform="translate(214.8,7) rotate(90) translate(0,4)" font-family="Balto" font-size="13px" font-weight="bold" fill="#000" opacity="1">1739</text><text text-anchor="start" transform="translate(358,7) rotate(90) translate(0,4)" font-family="Balto" font-size="13px" font-weight="bold" fill="#000" opacity="1">1740</text><text text-anchor="start" transform="translate(501.2,7) rotate(90) translate(0,4)" font-family="Balto" font-size="13px" font-weight="bold" fill="#000" opacity="1">1741</text><text text-anchor="start" transform="translate(644.4,7) rotate(90) translate(0,4)" font-family="Balto" font-size="13px" font-weight="bold" fill="#000" opacity="1">1742</text></g><g class="mark-rule role-axis-domain" pointer-events="none"><line transform="translate(0,0)" x2="716" y2="0" stroke="#888" stroke-width="1" opacity="1"></line></g></g><path class="foreground" aria-hidden="true" d="" pointer-events="none" display="none"></path></g></g><g class="mark-group role-axis" role="graphics-symbol" aria-roledescription="axis" aria-label="Y-axis for a linear scale with values from 0 to 550"><g transform="translate(0.5,0.5)"><path class="background" aria-hidden="true" d="M0,0h0v0h0Z" pointer-events="none"></path><g><g class="mark-rule role-axis-tick" pointer-events="none"><line transform="translate(0,200)" x2="-5" y2="0" stroke="#888" stroke-width="1" opacity="1"></line><line transform="translate(0,164)" x2="-5" y2="0" stroke="#888" stroke-width="1" opacity="1"></line><line transform="translate(0,127)" x2="-5" y2="0" stroke="#888" stroke-width="1" opacity="1"></line><line transform="translate(0,91)" x2="-5" y2="0" stroke="#888" stroke-width="1" opacity="1"></line><line transform="translate(0,55)" x2="-5" y2="0" stroke="#888" stroke-width="1" opacity="1"></line><line transform="translate(0,18)" x2="-5" y2="0" stroke="#888" stroke-width="1" opacity="1"></line></g><g class="mark-text role-axis-label" pointer-events="none"><text text-anchor="middle" transform="translate(-7,200) rotate(90) translate(0,10)" font-family="Balto" font-size="13px" font-weight="bold" fill="#000" opacity="1">0</text><text text-anchor="middle" transform="translate(-7,163.63636363636363) rotate(90) translate(0,10)" font-family="Balto" font-size="13px" font-weight="bold" fill="#000" opacity="1">100</text><text text-anchor="middle" transform="translate(-7,127.27272727272727) rotate(90) translate(0,10)" font-family="Balto" font-size="13px" font-weight="bold" fill="#000" opacity="1">200</text><text text-anchor="middle" transform="translate(-7,90.90909090909092) rotate(90) translate(0,10)" font-family="Balto" font-size="13px" font-weight="bold" fill="#000" opacity="1">300</text><text text-anchor="middle" transform="translate(-7,54.54545454545454) rotate(90) translate(0,10)" font-family="Balto" font-size="13px" font-weight="bold" fill="#000" opacity="1">400</text><text text-anchor="middle" transform="translate(-7,18.181818181818187) rotate(90) translate(0,10)" font-family="Balto" font-size="13px" font-weight="bold" fill="#000" opacity="1">500</text></g><g class="mark-rule role-axis-domain" pointer-events="none"><line transform="translate(0,200)" x2="0" y2="-200" stroke="#888" stroke-width="1" opacity="1"></line></g></g><path class="foreground" aria-hidden="true" d="" pointer-events="none" display="none"></path></g></g><g class="mark-group role-scope layer_0_pathgroup" role="graphics-object" aria-roledescription="group mark container"><g transform="translate(0,0)"><path class="background" aria-hidden="true" d="M0,0h716v200h-716Z"></path><g><g class="mark-line role-mark layer_0_marks" role="graphics-object" aria-roledescription="line mark container"><path aria-label="Year: 1738; Tuna hack: 538; Clothing circa: plum" role="graphics-symbol" aria-roledescription="line mark" d="M71.60000000000002,4.3636363636363695L214.8,9.818181818181815L358,22.545454545454536L501.2,172L644.4,42.545454545454554" stroke="#dc214d" stroke-width="2" stroke-dasharray="1,0"></path></g></g><path class="foreground" aria-hidden="true" d="" display="none"></path></g></g><g class="mark-symbol role-mark layer_1_marks" role="graphics-object" aria-roledescription="symbol mark container"><path aria-label="Year: 1738; Tuna hack: 538; Clothing circa: plum" role="graphics-symbol" aria-roledescription="point" transform="translate(71.60000000000002,4.3636363636363695)" d="M2.7386127875258306,0A2.7386127875258306,2.7386127875258306,0,1,1,-2.7386127875258306,0A2.7386127875258306,2.7386127875258306,0,1,1,2.7386127875258306,0" fill="#fff" stroke="#dc214d" stroke-width="3" opacity="1"></path><path aria-label="Year: 1739; Tuna hack: 523; Clothing circa: plum" role="graphics-symbol" aria-roledescription="point" transform="translate(214.8,9.818181818181815)" d="M2.7386127875258306,0A2.7386127875258306,2.7386127875258306,0,1,1,-2.7386127875258306,0A2.7386127875258306,2.7386127875258306,0,1,1,2.7386127875258306,0" fill="#fff" stroke="#dc214d" stroke-width="3" opacity="1"></path><path aria-label="Year: 1740; Tuna hack: 488; Clothing circa: plum" role="graphics-symbol" aria-roledescription="point" transform="translate(358,22.545454545454536)" d="M2.7386127875258306,0A2.7386127875258306,2.7386127875258306,0,1,1,-2.7386127875258306,0A2.7386127875258306,2.7386127875258306,0,1,1,2.7386127875258306,0" fill="#fff" stroke="#dc214d" stroke-width="3" opacity="1"></path><path aria-label="Year: 1741; Tuna hack: 77; Clothing circa: plum" role="graphics-symbol" aria-roledescription="point" transform="translate(501.2,172)" d="M2.7386127875258306,0A2.7386127875258306,2.7386127875258306,0,1,1,-2.7386127875258306,0A2.7386127875258306,2.7386127875258306,0,1,1,2.7386127875258306,0" fill="#fff" stroke="#dc214d" stroke-width="3" opacity="1"></path><path aria-label="Year: 1742; Tuna hack: 433; Clothing circa: plum" role="graphics-symbol" aria-roledescription="point" transform="translate(644.4,42.545454545454554)" d="M2.7386127875258306,0A2.7386127875258306,2.7386127875258306,0,1,1,-2.7386127875258306,0A2.7386127875258306,2.7386127875258306,0,1,1,2.7386127875258306,0" fill="#fff" stroke="#dc214d" stroke-width="3" opacity="1"></path></g><g class="mark-text role-mark layer_2_marks" role="graphics-object" aria-roledescription="text mark container"><text aria-label="Year: 1738; Tuna hack: 538" role="graphics-symbol" aria-roledescription="text mark" text-anchor="middle" transform="translate(71.60000000000002,24.36363636363637)" font-family="Balto" font-size="18px" fill="#000" opacity="1">538</text><text aria-label="Year: 1739; Tuna hack: 523" role="graphics-symbol" aria-roledescription="text mark" text-anchor="middle" transform="translate(214.8,29.818181818181813)" font-family="Balto" font-size="18px" fill="#000" opacity="1">523</text><text aria-label="Year: 1740; Tuna hack: 488" role="graphics-symbol" aria-roledescription="text mark" text-anchor="middle" transform="translate(358,42.54545454545453)" font-family="Balto" font-size="18px" fill="#000" opacity="1">488</text><text aria-label="Year: 1741; Tuna hack: 77" role="graphics-symbol" aria-roledescription="text mark" text-anchor="middle" transform="translate(501.2,192)" font-family="Balto" font-size="18px" fill="#000" opacity="1">77</text><text aria-label="Year: 1742; Tuna hack: 433" role="graphics-symbol" aria-roledescription="text mark" text-anchor="middle" transform="translate(644.4,62.545454545454554)" font-family="Balto" font-size="18px" fill="#000" opacity="1">433</text></g><g class="mark-group role-title"><g transform="translate(716,-30.37497642388946)"><path class="background" aria-hidden="true" d="M0,0h0v0h0Z" pointer-events="none"></path><g><g class="mark-text role-title-text" role="graphics-symbol" aria-roledescription="title" aria-label="Title text 'Southwest'" pointer-events="none"><text text-anchor="end" transform="translate(0,20)" font-family="Balto" font-size="25px" font-weight="bold" fill="#000" opacity="1">Southwest</text></g></g><path class="foreground" aria-hidden="true" d="" pointer-events="none" display="none"></path></g></g></g><path class="foreground" aria-hidden="true" d="" display="none"></path></g></g></g></svg>