<svg xmlns="http://www.w3.org/2000/svg" xmlns:xlink="http://www.w3.org/1999/xlink" version="1.1" class="marks" width="490" height="282" viewBox="0 0 490 282" style="background-color: rgb(255, 255, 255);"><g fill="none" stroke-miterlimit="10" transform="translate(22,60)"><g class="mark-group role-frame root" role="graphics-object" aria-roledescription="group mark container"><g transform="translate(0,0)"><path class="background" aria-hidden="true" d="M0.5,0.5h463v200h-463Z" fill="transparent" stroke="#ddd"></path><g><g class="mark-group role-axis" aria-hidden="true"><g transform="translate(0.5,200.5)"><path class="background" aria-hidden="true" d="M0,0h0v0h0Z" pointer-events="none"></path><g><g class="mark-rule role-axis-grid" pointer-events="none"><line transform="translate(29,-200)" x2="0" y2="200" stroke="#D0D0D0" stroke-width="1" stroke-dasharray="6, 3" opacity="1"></line><line transform="translate(87,-200)" x2="0" y2="200" stroke="#D0D0D0" stroke-width="1" stroke-dasharray="6, 3" opacity="1"></line><line transform="translate(145,-200)" x2="0" y2="200" stroke="#D0D0D0" stroke-width="1" stroke-dasharray="6, 3" opacity="1"></line><line transform="translate(203,-200)" x2="0" y2="200" stroke="#D0D0D0" stroke-width="1" stroke-dasharray="6, 3" opacity="1"></line><line transform="translate(260,-200)" x2="0" y2="200" stroke="#D0D0D0" stroke-width="1" stroke-dasharray="6, 3" opacity="1"></line><line transform="translate(318,-200)" x2="0" y2="200" stroke="#D0D0D0" stroke-width="1" stroke-dasharray="6, 3" opacity="1"></line><line transform="translate(376,-200)" x2="0" y2="200" stroke="#D0D0D0" stroke-width="1" stroke-dasharray="6, 3" opacity="1"></line><line transform="translate(434,-200)" x2="0" y2="200" stroke="#D0D0D0" stroke-width="1" stroke-dasharray="6, 3" opacity="1"></line></g></g><path class="foreground" aria-hidden="true" d="" pointer-events="none" display="none"></path></g></g><g class="mark-group role-axis" role="graphics-symbol" aria-roledescription="axis" aria-label="X-axis for a discrete scale with 8 values: 1901, 1902, 1903, 1904, 1905, ending with 1908"><g transform="translate(0.5,200.5)"><path class="background" aria-hidden="true" d="M0,0h0v0h0Z" pointer-events="none"></path><g><g class="mark-rule role-axis-tick" pointer-events="none"><line transform="translate(29,0)" x2="0" y2="5" stroke="#888" stroke-width="1" opacity="1"></line><line transform="translate(87,0)" x2="0" y2="5" stroke="#888" stroke-width="1" opacity="1"></line><line transform="translate(145,0)" x2="0" y2="5" stroke="#888" stroke-width="1" opacity="1"></line><line transform="translate(203,0)" x2="0" y2="5" stroke="#888" stroke-width="1" opacity="1"></line><line transform="translate(260,0)" x2="0" y2="5" stroke="#888" stroke-width="1" opacity="1"></line><line transform="translate(318,0)" x2="0" y2="5" stroke="#888" stroke-width="1" opacity="1"></line><line transform="translate(376,0)" x2="0" y2="5" stroke="#888" stroke-width="1" opacity="1"></line><line transform="translate(434,0)" x2="0" y2="5" stroke="#888" stroke-width="1" opacity="1"></line></g><g class="mark-text role-axis-label" pointer-events="none"><text text-anchor="middle" transform="translate(28.9375,15)" font-family="serif" font-size="10px" font-weight="bold" fill="#000" opacity="1">1901</text><text text-anchor="middle" transform="translate(86.8125,15)" font-family="serif" font-size="10px" font-weight="bold" fill="#000" opacity="1">1902</text><text text-anchor="middle" transform="translate(144.6875,15)" font-family="serif" font-size="10px" font-weight="bold" fill="#000" opacity="1">1903</text><text text-anchor="middle" transform="translate(202.5625,15)" font-family="serif" font-size="10px" font-weight="bold" fill="#000" opacity="1">1904</text><text text-anchor="middle" transform="translate(260.4375,15)" font-family="serif" font-size="10px" font-weight="bold" fill="#000" opacity="1">1905</text><text text-anchor="middle" transform="translate(318.3125,15)" font-family="serif" font-size="10px" font-weight="bold" fill="#000" opacity="1">1906</text><text text-anchor="middle" transform="translate(376.1875,15)" font-family="serif" font-size="10px" font-weight="bold" fill="#000" opacity="1">1907</text><text text-anchor="middle" transform="translate(434.0625,15)" font-family="serif" font-size="10px" font-weight="bold" fill="#000" opacity="1">1908</text></g><g class="mark-rule role-axis-domain" pointer-events="none"><line transform="translate(0,0)" x2="463" y2="0" stroke="#888" stroke-width="1" opacity="1"></line></g></g><path class="foreground" aria-hidden="true" d="" pointer-events="none" display="none"></path></g></g><g class="mark-group role-axis" role="graphics-symbol" aria-roledescription="axis" aria-label="Y-axis for a linear scale with values from 0 to 550"><g transform="translate(0.5,0.5)"><path class="background" aria-hidden="true" d="M0,0h0v0h0Z" pointer-events="none"></path><g><g class="mark-text role-axis-label" pointer-events="none"><text text-anchor="end" transform="translate(-2,203)" font-family="serif" font-size="10px" font-weight="bold" fill="#000" opacity="1">0</text><text text-anchor="end" transform="translate(-2,166.63636363636363)" font-family="serif" font-size="10px" font-weight="bold" fill="#000" opacity="1">100</text><text text-anchor="end" transform="translate(-2,130.27272727272725)" font-family="serif" font-size="10px" font-weight="bold" fill="#000" opacity="1">200</text><text text-anchor="end" transform="translate(-2,93.90909090909092)" font-family="serif" font-size="10px" font-weight="bold" fill="#000" opacity="1">300</text><text text-anchor="end" transform="translate(-2,57.54545454545454)" font-family="serif" font-size="10px" font-weight="bold" fill="#000" opacity="1">400</text><text text-anchor="end" transform="translate(-2,21.181818181818187)" font-family="serif" font-size="10px" font-weight="bold" fill="#000" opacity="1">500</text></g></g><path class="foreground" aria-hidden="true" d="" pointer-events="none" display="none"></path></g></g><g class="mark-group role-scope layer_0_pathgroup" role="graphics-object" aria-roledescription="group mark container"><g transform="translate(0,0)"><path class="background" aria-hidden="true" d="M0,0h463v200h-463Z"></path><g><g class="mark-line role-mark layer_0_marks" role="graphics-object" aria-roledescription="line mark container"><path aria-label="Year: 1901; Ytterbium: 391; relationships: motivating" role="graphics-symbol" aria-roledescription="line mark" d="M28.9375,57.81818181818181C48.229166666666664,94.1049519586105,67.52083333333333,130.39172209903919,86.8125,125.0909090909091C106.10416666666667,119.790096082779,125.39583333333334,72.90169992609016,144.6875,47.272727272727266C163.97916666666666,21.643754619364376,183.27083333333331,17.274205469327434,202.5625,28.363636363636367C221.85416666666669,39.4530672579453,241.14583333333337,66.00147819660012,260.4375,105.81818181818181C279.72916666666663,145.6348854397635,299.02083333333337,198.719881744272,318.3125,169.0909090909091C337.60416666666663,139.4619364375462,356.8958333333333,27.118994826311912,376.1875,8.363636363636374C395.4791666666667,-10.391722099039164,414.77083333333337,64.44050258684405,434.0625,139.27272727272725" stroke="#afaecd" stroke-width="2" stroke-dasharray="1,0"></path></g></g><path class="foreground" aria-hidden="true" d="" display="none"></path></g></g><g class="mark-symbol role-mark layer_1_marks" role="graphics-object" aria-roledescription="symbol mark container"><path aria-label="Year: 1901; Ytterbium: 391; relationships: motivating" role="graphics-symbol" aria-roledescription="point" transform="translate(28.9375,57.81818181818181)" d="M2.7386127875258306,0A2.7386127875258306,2.7386127875258306,0,1,1,-2.7386127875258306,0A2.7386127875258306,2.7386127875258306,0,1,1,2.7386127875258306,0" fill="#fff" stroke="#afaecd" stroke-width="2" opacity="1"></path><path aria-label="Year: 1902; Ytterbium: 206; relationships: motivating" role="graphics-symbol" aria-roledescription="point" transform="translate(86.8125,125.0909090909091)" d="M2.7386127875258306,0A2.7386127875258306,2.7386127875258306,0,1,1,-2.7386127875258306,0A2.7386127875258306,2.7386127875258306,0,1,1,2.7386127875258306,0" fill="#fff" stroke="#afaecd" stroke-width="2" opacity="1"></path><path aria-label="Year: 1903; Ytterbium: 420; relationships: motivating" role="graphics-symbol" aria-roledescription="point" transform="translate(144.6875,47.272727272727266)" d="M2.7386127875258306,0A2.7386127875258306,2.7386127875258306,0,1,1,-2.7386127875258306,0A2.7386127875258306,2.7386127875258306,0,1,1,2.7386127875258306,0" fill="#fff" stroke="#afaecd" stroke-width="2" opacity="1"></path><path aria-label="Year: 1904; Ytterbium: 472; relationships: motivating" role="graphics-symbol" aria-roledescription="point" transform="translate(202.5625,28.363636363636367)" d="M2.7386127875258306,0A2.7386127875258306,2.7386127875258306,0,1,1,-2.7386127875258306,0A2.7386127875258306,2.7386127875258306,0,1,1,2.7386127875258306,0" fill="#fff" stroke="#afaecd" stroke-width="2" opacity="1"></path><path aria-label="Year: 1905; Ytterbium: 259; relationships: motivating" role="graphics-symbol" aria-roledescription="point" transform="translate(260.4375,105.81818181818181)" d="M2.7386127875258306,0A2.7386127875258306,2.7386127875258306,0,1,1,-2.7386127875258306,0A2.7386127875258306,2.7386127875258306,0,1,1,2.7386127875258306,0" fill="#fff" stroke="#afaecd" stroke-width="2" opacity="1"></path><path aria-label="Year: 1906; Ytterbium: 85; relationships: motivating" role="graphics-symbol" aria-roledescription="point" transform="translate(318.3125,169.0909090909091)" d="M2.7386127875258306,0A2.7386127875258306,2.7386127875258306,0,1,1,-2.7386127875258306,0A2.7386127875258306,2.7386127875258306,0,1,1,2.7386127875258306,0" fill="#fff" stroke="#afaecd" stroke-width="2" opacity="1"></path><path aria-label="Year: 1907; Ytterbium: 527; relationships: motivating" role="graphics-symbol" aria-roledescription="point" transform="translate(376.1875,8.363636363636374)" d="M2.7386127875258306,0A2.7386127875258306,2.7386127875258306,0,1,1,-2.7386127875258306,0A2.7386127875258306,2.7386127875258306,0,1,1,2.7386127875258306,0" fill="#fff" stroke="#afaecd" stroke-width="2" opacity="1"></path><path aria-label="Year: 1908; Ytterbium: 167; relationships: motivating" role="graphics-symbol" aria-roledescription="point" transform="translate(434.0625,139.27272727272725)" d="M2.7386127875258306,0A2.7386127875258306,2.7386127875258306,0,1,1,-2.7386127875258306,0A2.7386127875258306,2.7386127875258306,0,1,1,2.7386127875258306,0" fill="#fff" stroke="#afaecd" stroke-width="2" opacity="1"></path></g><g class="mark-text role-mark layer_2_marks" role="graphics-object" aria-roledescription="text mark container"><text aria-label="Year: 1901; Ytterbium: 391" role="graphics-symbol" aria-roledescription="text mark" text-anchor="middle" transform="translate(28.9375,37.81818181818181)" font-family="serif" font-size="18px" fill="#000" opacity="1">391</text><text aria-label="Year: 1902; Ytterbium: 206" role="graphics-symbol" aria-roledescription="text mark" text-anchor="middle" transform="translate(86.8125,105.0909090909091)" font-family="serif" font-size="18px" fill="#000" opacity="1">206</text><text aria-label="Year: 1903; Ytterbium: 420" role="graphics-symbol" aria-roledescription="text mark" text-anchor="middle" transform="translate(144.6875,27.272727272727266)" font-family="serif" font-size="18px" fill="#000" opacity="1">420</text><text aria-label="Year: 1904; Ytterbium: 472" role="graphics-symbol" aria-roledescription="text mark" text-anchor="middle" transform="translate(202.5625,8.363636363636367)" font-family="serif" font-size="18px" fill="#000" opacity="1">472</text><text aria-label="Year: 1905; Ytterbium: 259" role="graphics-symbol" aria-roledescription="text mark" text-anchor="middle" transform="translate(260.4375,85.81818181818181)" font-family="serif" font-size="18px" fill="#000" opacity="1">259</text><text aria-label="Year: 1906; Ytterbium: 85" role="graphics-symbol" aria-roledescription="text mark" text-anchor="middle" transform="translate(318.3125,149.0909090909091)" font-family="serif" font-size="18px" fill="#000" opacity="1">85</text><text aria-label="Year: 1907; Ytterbium: 527" role="graphics-symbol" aria-roledescription="text mark" text-anchor="middle" transform="translate(376.1875,-11.636363636363626)" font-family="serif" font-size="18px" fill="#000" opacity="1">527</text><text aria-label="Year: 1908; Ytterbium: 167" role="graphics-symbol" aria-roledescription="text mark" text-anchor="middle" transform="translate(434.0625,119.27272727272725)" font-family="serif" font-size="18px" fill="#000" opacity="1">167</text></g><g class="mark-group role-title"><g transform="translate(463,-54.636363636363626)"><path class="background" aria-hidden="true" d="M0,0h0v0h0Z" pointer-events="none"></path><g><g class="mark-text role-title-text" role="graphics-symbol" aria-roledescription="title" aria-label="Title text 'Interface grey'" pointer-events="none"><text text-anchor="end" transform="translate(0,20)" font-family="serif" font-size="25px" font-weight="bold" fill="#000" opacity="1">Interface grey</text></g></g><path class="foreground" aria-hidden="true" d="" pointer-events="none" display="none"></path></g></g></g><path class="foreground" aria-hidden="true" d="" display="none"></path></g></g></g></svg>