<svg xmlns="http://www.w3.org/2000/svg" xmlns:xlink="http://www.w3.org/1999/xlink" version="1.1" class="marks" width="798" height="283" viewBox="0 0 798 283" style="background-color: rgb(51, 51, 51);"><g fill="none" stroke-miterlimit="10" transform="translate(24,44)"><g class="mark-group role-frame root" role="graphics-object" aria-roledescription="group mark container"><g transform="translate(0,0)"><path class="background" aria-hidden="true" d="M0.5,0.5h619v200h-619Z" fill="transparent" stroke="#ddd"></path><g><g class="mark-group role-axis" aria-hidden="true"><g transform="translate(0.5,200.5)"><path class="background" aria-hidden="true" d="M0,0h0v0h0Z" pointer-events="none"></path><g><g class="mark-rule role-axis-grid" pointer-events="none"><line transform="translate(28,-200)" x2="0" y2="200" stroke="#747474" stroke-width="1" stroke-dasharray="1,0" opacity="1"></line><line transform="translate(84,-200)" x2="0" y2="200" stroke="#747474" stroke-width="1" stroke-dasharray="1,0" opacity="1"></line><line transform="translate(141,-200)" x2="0" y2="200" stroke="#747474" stroke-width="1" stroke-dasharray="1,0" opacity="1"></line><line transform="translate(197,-200)" x2="0" y2="200" stroke="#747474" stroke-width="1" stroke-dasharray="1,0" opacity="1"></line><line transform="translate(253,-200)" x2="0" y2="200" stroke="#747474" stroke-width="1" stroke-dasharray="1,0" opacity="1"></line><line transform="translate(310,-200)" x2="0" y2="200" stroke="#747474" stroke-width="1" stroke-dasharray="1,0" opacity="1"></line><line transform="translate(366,-200)" x2="0" y2="200" stroke="#747474" stroke-width="1" stroke-dasharray="1,0" opacity="1"></line><line transform="translate(422,-200)" x2="0" y2="200" stroke="#747474" stroke-width="1" stroke-dasharray="1,0" opacity="1"></line><line transform="translate(478,-200)" x2="0" y2="200" stroke="#747474" stroke-width="1" stroke-dasharray="1,0" opacity="1"></line><line transform="translate(535,-200)" x2="0" y2="200" stroke="#747474" stroke-width="1" stroke-dasharray="1,0" opacity="1"></line><line transform="translate(591,-200)" x2="0" y2="200" stroke="#747474" stroke-width="1" stroke-dasharray="1,0" opacity="1"></line></g></g><path class="foreground" aria-hidden="true" d="" pointer-events="none" display="none"></path></g></g><g class="mark-group role-axis" aria-hidden="true"><g transform="translate(0.5,0.5)"><path class="background" aria-hidden="true" d="M0,0h0v0h0Z" pointer-events="none"></path><g><g class="mark-rule role-axis-grid" pointer-events="none"><line transform="translate(0,200)" x2="619" y2="0" stroke="#747474" stroke-width="1" stroke-dasharray="1,0" opacity="1"></line><line transform="translate(0,171)" x2="619" y2="0" stroke="#747474" stroke-width="1" stroke-dasharray="1,0" opacity="1"></line><line transform="translate(0,143)" x2="619" y2="0" stroke="#747474" stroke-width="1" stroke-dasharray="1,0" opacity="1"></line><line transform="translate(0,114)" x2="619" y2="0" stroke="#747474" stroke-width="1" stroke-dasharray="1,0" opacity="1"></line><line transform="translate(0,86)" x2="619" y2="0" stroke="#747474" stroke-width="1" stroke-dasharray="1,0" opacity="1"></line><line transform="translate(0,57)" x2="619" y2="0" stroke="#747474" stroke-width="1" stroke-dasharray="1,0" opacity="1"></line><line transform="translate(0,29)" x2="619" y2="0" stroke="#747474" stroke-width="1" stroke-dasharray="1,0" opacity="1"></line><line transform="translate(0,0)" x2="619" y2="0" stroke="#747474" stroke-width="1" stroke-dasharray="1,0" opacity="1"></line></g></g><path class="foreground" aria-hidden="true" d="" pointer-events="none" display="none"></path></g></g><g class="mark-group role-axis" role="graphics-symbol" aria-roledescription="axis" aria-label="X-axis for a discrete scale with 11 values: Jan, Feb, Mar, Apr, May, ending with Nov"><g transform="translate(0.5,200.5)"><path class="background" aria-hidden="true" d="M0,0h0v0h0Z" pointer-events="none"></path><g><g class="mark-rule role-axis-tick" pointer-events="none"><line transform="translate(28,0)" x2="0" y2="5" stroke="#888" stroke-width="1" opacity="1"></line><line transform="translate(84,0)" x2="0" y2="5" stroke="#888" stroke-width="1" opacity="1"></line><line transform="translate(141,0)" x2="0" y2="5" stroke="#888" stroke-width="1" opacity="1"></line><line transform="translate(197,0)" x2="0" y2="5" stroke="#888" stroke-width="1" opacity="1"></line><line transform="translate(253,0)" x2="0" y2="5" stroke="#888" stroke-width="1" opacity="1"></line><line transform="translate(310,0)" x2="0" y2="5" stroke="#888" stroke-width="1" opacity="1"></line><line transform="translate(366,0)" x2="0" y2="5" stroke="#888" stroke-width="1" opacity="1"></line><line transform="translate(422,0)" x2="0" y2="5" stroke="#888" stroke-width="1" opacity="1"></line><line transform="translate(478,0)" x2="0" y2="5" stroke="#888" stroke-width="1" opacity="1"></line><line transform="translate(535,0)" x2="0" y2="5" stroke="#888" stroke-width="1" opacity="1"></line><line transform="translate(591,0)" x2="0" y2="5" stroke="#888" stroke-width="1" opacity="1"></line></g><g class="mark-text role-axis-label" pointer-events="none"><text text-anchor="start" transform="translate(28.136363636363626,7) rotate(90) translate(0,4)" font-family="monospace" font-size="12px" font-weight="normal" fill="#fff" opacity="1">Jan</text><text text-anchor="start" transform="translate(84.4090909090909,7) rotate(90) translate(0,4)" font-family="monospace" font-size="12px" font-weight="normal" fill="#fff" opacity="1">Feb</text><text text-anchor="start" transform="translate(140.6818181818182,7) rotate(90) translate(0,4)" font-family="monospace" font-size="12px" font-weight="normal" fill="#fff" opacity="1">Mar</text><text text-anchor="start" transform="translate(196.95454545454544,7) rotate(90) translate(0,4)" font-family="monospace" font-size="12px" font-weight="normal" fill="#fff" opacity="1">Apr</text><text text-anchor="start" transform="translate(253.22727272727272,7) rotate(90) translate(0,4)" font-family="monospace" font-size="12px" font-weight="normal" fill="#fff" opacity="1">May</text><text text-anchor="start" transform="translate(309.5,7) rotate(90) translate(0,4)" font-family="monospace" font-size="12px" font-weight="normal" fill="#fff" opacity="1">June</text><text text-anchor="start" transform="translate(365.77272727272725,7) rotate(90) translate(0,4)" font-family="monospace" font-size="12px" font-weight="normal" fill="#fff" opacity="1">July</text><text text-anchor="start" transform="translate(422.04545454545456,7) rotate(90) translate(0,4)" font-family="monospace" font-size="12px" font-weight="normal" fill="#fff" opacity="1">Aug</text><text text-anchor="start" transform="translate(478.3181818181818,7) rotate(90) translate(0,4)" font-family="monospace" font-size="12px" font-weight="normal" fill="#fff" opacity="1">Sep</text><text text-anchor="start" transform="translate(534.590909090909,7) rotate(90) translate(0,4)" font-family="monospace" font-size="12px" font-weight="normal" fill="#fff" opacity="1">Oct</text><text text-anchor="start" transform="translate(590.8636363636364,7) rotate(90) translate(0,4)" font-family="monospace" font-size="12px" font-weight="normal" fill="#fff" opacity="1">Nov</text></g><g class="mark-rule role-axis-domain" pointer-events="none"><line transform="translate(0,0)" x2="619" y2="0" stroke="#888" stroke-width="1" opacity="1"></line></g></g><path class="foreground" aria-hidden="true" d="" pointer-events="none" display="none"></path></g></g><g class="mark-group role-axis" role="graphics-symbol" aria-roledescription="axis" aria-label="Y-axis for a linear scale with values from 0 to 700"><g transform="translate(0.5,0.5)"><path class="background" aria-hidden="true" d="M0,0h0v0h0Z" pointer-events="none"></path><g><g class="mark-rule role-axis-tick" pointer-events="none"><line transform="translate(0,200)" x2="-5" y2="0" stroke="#888" stroke-width="1" opacity="1"></line><line transform="translate(0,171)" x2="-5" y2="0" stroke="#888" stroke-width="1" opacity="1"></line><line transform="translate(0,143)" x2="-5" y2="0" stroke="#888" stroke-width="1" opacity="1"></line><line transform="translate(0,114)" x2="-5" y2="0" stroke="#888" stroke-width="1" opacity="1"></line><line transform="translate(0,86)" x2="-5" y2="0" stroke="#888" stroke-width="1" opacity="1"></line><line transform="translate(0,57)" x2="-5" y2="0" stroke="#888" stroke-width="1" opacity="1"></line><line transform="translate(0,29)" x2="-5" y2="0" stroke="#888" stroke-width="1" opacity="1"></line><line transform="translate(0,0)" x2="-5" y2="0" stroke="#888" stroke-width="1" opacity="1"></line></g><g class="mark-text role-axis-label" pointer-events="none"><text text-anchor="middle" transform="translate(-7,200) rotate(90) translate(0,9)" font-family="monospace" font-size="12px" font-weight="normal" fill="#fff" opacity="1">0</text><text text-anchor="middle" transform="translate(-7,171.42857142857144) rotate(90) translate(0,9)" font-family="monospace" font-size="12px" font-weight="normal" fill="#fff" opacity="1">100</text><text text-anchor="middle" transform="translate(-7,142.85714285714286) rotate(90) translate(0,9)" font-family="monospace" font-size="12px" font-weight="normal" fill="#fff" opacity="1">200</text><text text-anchor="middle" transform="translate(-7,114.28571428571428) rotate(90) translate(0,9)" font-family="monospace" font-size="12px" font-weight="normal" fill="#fff" opacity="1">300</text><text text-anchor="middle" transform="translate(-7,85.71428571428572) rotate(90) translate(0,9)" font-family="monospace" font-size="12px" font-weight="normal" fill="#fff" opacity="1">400</text><text text-anchor="middle" transform="translate(-7,57.14285714285714) rotate(90) translate(0,9)" font-family="monospace" font-size="12px" font-weight="normal" fill="#fff" opacity="1">500</text><text text-anchor="middle" transform="translate(-7,28.57142857142858) rotate(90) translate(0,9)" font-family="monospace" font-size="12px" font-weight="normal" fill="#fff" opacity="1">600</text><text text-anchor="middle" transform="translate(-7,0) rotate(90) translate(0,9)" font-family="monospace" font-size="12px" font-weight="normal" fill="#fff" opacity="1">700</text></g></g><path class="foreground" aria-hidden="true" d="" pointer-events="none" display="none"></path></g></g><g class="mark-group role-scope layer_0_pathgroup" role="graphics-object" aria-roledescription="group mark container"><g transform="translate(0,0)"><path class="background" aria-hidden="true" d="M0,0h619v200h-619Z"></path><g><g class="mark-line role-mark layer_0_marks" role="graphics-object" aria-roledescription="line mark container"><path aria-label="Month: Jan; Gardens: 641; Credit Southeast: facelift Bedfordshire" role="graphics-symbol" aria-roledescription="line mark" d="M28.136363636363626,16.85714285714286L84.4090909090909,113.14285714285714L140.6818181818182,91.71428571428571L196.95454545454544,78.28571428571429L253.22727272727272,121.14285714285712L309.5,64.28571428571428L365.77272727272725,116.57142857142857L422.04545454545456,194L478.3181818181818,56.00000000000001L534.590909090909,57.714285714285715L590.8636363636364,7.14285714285714" stroke="#aa3f25" stroke-width="2" stroke-dasharray="8,8"></path></g></g><path class="foreground" aria-hidden="true" d="" display="none"></path></g><g transform="translate(0,0)"><path class="background" aria-hidden="true" d="M0,0h619v200h-619Z"></path><g><g class="mark-line role-mark layer_0_marks" role="graphics-object" aria-roledescription="line mark container"><path aria-label="Month: Jan; Gardens: 173; Credit Southeast: tan" role="graphics-symbol" aria-roledescription="line mark" d="M28.136363636363626,150.57142857142858L84.4090909090909,159.42857142857144L140.6818181818182,174.85714285714286L196.95454545454544,10.857142857142854L253.22727272727272,88.28571428571428L309.5,138L365.77272727272725,46L422.04545454545456,66.85714285714286L478.3181818181818,20.571428571428573L534.590909090909,86.85714285714286L590.8636363636364,71.71428571428571" stroke="#fcb1b2" stroke-width="2" stroke-dasharray="8,8"></path></g></g><path class="foreground" aria-hidden="true" d="" display="none"></path></g></g><g class="mark-symbol role-mark layer_1_marks" role="graphics-object" aria-roledescription="symbol mark container"><path aria-label="Month: Jan; Gardens: 641; Credit Southeast: facelift Bedfordshire" role="graphics-symbol" aria-roledescription="point" transform="translate(28.136363636363626,16.85714285714286)" d="M2.7386127875258306,0A2.7386127875258306,2.7386127875258306,0,1,1,-2.7386127875258306,0A2.7386127875258306,2.7386127875258306,0,1,1,2.7386127875258306,0" fill="#333333" stroke="#aa3f25" stroke-width="3" opacity="1"></path><path aria-label="Month: Feb; Gardens: 304; Credit Southeast: facelift Bedfordshire" role="graphics-symbol" aria-roledescription="point" transform="translate(84.4090909090909,113.14285714285714)" d="M2.7386127875258306,0A2.7386127875258306,2.7386127875258306,0,1,1,-2.7386127875258306,0A2.7386127875258306,2.7386127875258306,0,1,1,2.7386127875258306,0" fill="#333333" stroke="#aa3f25" stroke-width="3" opacity="1"></path><path aria-label="Month: Mar; Gardens: 379; Credit Southeast: facelift Bedfordshire" role="graphics-symbol" aria-roledescription="point" transform="translate(140.6818181818182,91.71428571428571)" d="M2.7386127875258306,0A2.7386127875258306,2.7386127875258306,0,1,1,-2.7386127875258306,0A2.7386127875258306,2.7386127875258306,0,1,1,2.7386127875258306,0" fill="#333333" stroke="#aa3f25" stroke-width="3" opacity="1"></path><path aria-label="Month: Apr; Gardens: 426; Credit Southeast: facelift Bedfordshire" role="graphics-symbol" aria-roledescription="point" transform="translate(196.95454545454544,78.28571428571429)" d="M2.7386127875258306,0A2.7386127875258306,2.7386127875258306,0,1,1,-2.7386127875258306,0A2.7386127875258306,2.7386127875258306,0,1,1,2.7386127875258306,0" fill="#333333" stroke="#aa3f25" stroke-width="3" opacity="1"></path><path aria-label="Month: May; Gardens: 276; Credit Southeast: facelift Bedfordshire" role="graphics-symbol" aria-roledescription="point" transform="translate(253.22727272727272,121.14285714285712)" d="M2.7386127875258306,0A2.7386127875258306,2.7386127875258306,0,1,1,-2.7386127875258306,0A2.7386127875258306,2.7386127875258306,0,1,1,2.7386127875258306,0" fill="#333333" stroke="#aa3f25" stroke-width="3" opacity="1"></path><path aria-label="Month: June; Gardens: 475; Credit Southeast: facelift Bedfordshire" role="graphics-symbol" aria-roledescription="point" transform="translate(309.5,64.28571428571428)" d="M2.7386127875258306,0A2.7386127875258306,2.7386127875258306,0,1,1,-2.7386127875258306,0A2.7386127875258306,2.7386127875258306,0,1,1,2.7386127875258306,0" fill="#333333" stroke="#aa3f25" stroke-width="3" opacity="1"></path><path aria-label="Month: July; Gardens: 292; Credit Southeast: facelift Bedfordshire" role="graphics-symbol" aria-roledescription="point" transform="translate(365.77272727272725,116.57142857142857)" d="M2.7386127875258306,0A2.7386127875258306,2.7386127875258306,0,1,1,-2.7386127875258306,0A2.7386127875258306,2.7386127875258306,0,1,1,2.7386127875258306,0" fill="#333333" stroke="#aa3f25" stroke-width="3" opacity="1"></path><path aria-label="Month: Aug; Gardens: 21; Credit Southeast: facelift Bedfordshire" role="graphics-symbol" aria-roledescription="point" transform="translate(422.04545454545456,194)" d="M2.7386127875258306,0A2.7386127875258306,2.7386127875258306,0,1,1,-2.7386127875258306,0A2.7386127875258306,2.7386127875258306,0,1,1,2.7386127875258306,0" fill="#333333" stroke="#aa3f25" stroke-width="3" opacity="1"></path><path aria-label="Month: Sep; Gardens: 504; Credit Southeast: facelift Bedfordshire" role="graphics-symbol" aria-roledescription="point" transform="translate(478.3181818181818,56.00000000000001)" d="M2.7386127875258306,0A2.7386127875258306,2.7386127875258306,0,1,1,-2.7386127875258306,0A2.7386127875258306,2.7386127875258306,0,1,1,2.7386127875258306,0" fill="#333333" stroke="#aa3f25" stroke-width="3" opacity="1"></path><path aria-label="Month: Oct; Gardens: 498; Credit Southeast: facelift Bedfordshire" role="graphics-symbol" aria-roledescription="point" transform="translate(534.590909090909,57.714285714285715)" d="M2.7386127875258306,0A2.7386127875258306,2.7386127875258306,0,1,1,-2.7386127875258306,0A2.7386127875258306,2.7386127875258306,0,1,1,2.7386127875258306,0" fill="#333333" stroke="#aa3f25" stroke-width="3" opacity="1"></path><path aria-label="Month: Nov; Gardens: 675; Credit Southeast: facelift Bedfordshire" role="graphics-symbol" aria-roledescription="point" transform="translate(590.8636363636364,7.14285714285714)" d="M2.7386127875258306,0A2.7386127875258306,2.7386127875258306,0,1,1,-2.7386127875258306,0A2.7386127875258306,2.7386127875258306,0,1,1,2.7386127875258306,0" fill="#333333" stroke="#aa3f25" stroke-width="3" opacity="1"></path><path aria-label="Month: Jan; Gardens: 173; Credit Southeast: tan" role="graphics-symbol" aria-roledescription="point" transform="translate(28.136363636363626,150.57142857142858)" d="M2.7386127875258306,0A2.7386127875258306,2.7386127875258306,0,1,1,-2.7386127875258306,0A2.7386127875258306,2.7386127875258306,0,1,1,2.7386127875258306,0" fill="#333333" stroke="#fcb1b2" stroke-width="3" opacity="1"></path><path aria-label="Month: Feb; Gardens: 142; Credit Southeast: tan" role="graphics-symbol" aria-roledescription="point" transform="translate(84.4090909090909,159.42857142857144)" d="M2.7386127875258306,0A2.7386127875258306,2.7386127875258306,0,1,1,-2.7386127875258306,0A2.7386127875258306,2.7386127875258306,0,1,1,2.7386127875258306,0" fill="#333333" stroke="#fcb1b2" stroke-width="3" opacity="1"></path><path aria-label="Month: Mar; Gardens: 88; Credit Southeast: tan" role="graphics-symbol" aria-roledescription="point" transform="translate(140.6818181818182,174.85714285714286)" d="M2.7386127875258306,0A2.7386127875258306,2.7386127875258306,0,1,1,-2.7386127875258306,0A2.7386127875258306,2.7386127875258306,0,1,1,2.7386127875258306,0" fill="#333333" stroke="#fcb1b2" stroke-width="3" opacity="1"></path><path aria-label="Month: Apr; Gardens: 662; Credit Southeast: tan" role="graphics-symbol" aria-roledescription="point" transform="translate(196.95454545454544,10.857142857142854)" d="M2.7386127875258306,0A2.7386127875258306,2.7386127875258306,0,1,1,-2.7386127875258306,0A2.7386127875258306,2.7386127875258306,0,1,1,2.7386127875258306,0" fill="#333333" stroke="#fcb1b2" stroke-width="3" opacity="1"></path><path aria-label="Month: May; Gardens: 391; Credit Southeast: tan" role="graphics-symbol" aria-roledescription="point" transform="translate(253.22727272727272,88.28571428571428)" d="M2.7386127875258306,0A2.7386127875258306,2.7386127875258306,0,1,1,-2.7386127875258306,0A2.7386127875258306,2.7386127875258306,0,1,1,2.7386127875258306,0" fill="#333333" stroke="#fcb1b2" stroke-width="3" opacity="1"></path><path aria-label="Month: June; Gardens: 217; Credit Southeast: tan" role="graphics-symbol" aria-roledescription="point" transform="translate(309.5,138)" d="M2.7386127875258306,0A2.7386127875258306,2.7386127875258306,0,1,1,-2.7386127875258306,0A2.7386127875258306,2.7386127875258306,0,1,1,2.7386127875258306,0" fill="#333333" stroke="#fcb1b2" stroke-width="3" opacity="1"></path><path aria-label="Month: July; Gardens: 539; Credit Southeast: tan" role="graphics-symbol" aria-roledescription="point" transform="translate(365.77272727272725,46)" d="M2.7386127875258306,0A2.7386127875258306,2.7386127875258306,0,1,1,-2.7386127875258306,0A2.7386127875258306,2.7386127875258306,0,1,1,2.7386127875258306,0" fill="#333333" stroke="#fcb1b2" stroke-width="3" opacity="1"></path><path aria-label="Month: Aug; Gardens: 466; Credit Southeast: tan" role="graphics-symbol" aria-roledescription="point" transform="translate(422.04545454545456,66.85714285714286)" d="M2.7386127875258306,0A2.7386127875258306,2.7386127875258306,0,1,1,-2.7386127875258306,0A2.7386127875258306,2.7386127875258306,0,1,1,2.7386127875258306,0" fill="#333333" stroke="#fcb1b2" stroke-width="3" opacity="1"></path><path aria-label="Month: Sep; Gardens: 628; Credit Southeast: tan" role="graphics-symbol" aria-roledescription="point" transform="translate(478.3181818181818,20.571428571428573)" d="M2.7386127875258306,0A2.7386127875258306,2.7386127875258306,0,1,1,-2.7386127875258306,0A2.7386127875258306,2.7386127875258306,0,1,1,2.7386127875258306,0" fill="#333333" stroke="#fcb1b2" stroke-width="3" opacity="1"></path><path aria-label="Month: Oct; Gardens: 396; Credit Southeast: tan" role="graphics-symbol" aria-roledescription="point" transform="translate(534.590909090909,86.85714285714286)" d="M2.7386127875258306,0A2.7386127875258306,2.7386127875258306,0,1,1,-2.7386127875258306,0A2.7386127875258306,2.7386127875258306,0,1,1,2.7386127875258306,0" fill="#333333" stroke="#fcb1b2" stroke-width="3" opacity="1"></path><path aria-label="Month: Nov; Gardens: 449; Credit Southeast: tan" role="graphics-symbol" aria-roledescription="point" transform="translate(590.8636363636364,71.71428571428571)" d="M2.7386127875258306,0A2.7386127875258306,2.7386127875258306,0,1,1,-2.7386127875258306,0A2.7386127875258306,2.7386127875258306,0,1,1,2.7386127875258306,0" fill="#333333" stroke="#fcb1b2" stroke-width="3" opacity="1"></path></g><g class="mark-group role-legend" role="graphics-symbol" aria-roledescription="legend" aria-label="Symbol legend for stroke color with 2 values: facelift Bedfordshire, tan"><g transform="translate(637,0)"><path class="background" aria-hidden="true" d="M0,0h132v29h-132Z" pointer-events="none"></path><g><g class="mark-group role-legend-entry"><g transform="translate(0,0)"><path class="background" aria-hidden="true" d="M0,0h0v0h0Z" pointer-events="none"></path><g><g class="mark-group role-scope" role="graphics-object" aria-roledescription="group mark container"><g transform="translate(0,0)"><path class="background" aria-hidden="true" d="M0,0h131.458984375v12.5h-131.458984375Z" pointer-events="none" opacity="1"></path><g><g class="mark-symbol role-legend-symbol" pointer-events="none"><path transform="translate(6,6)" d="M5,0A5,5,0,1,1,-5,0A5,5,0,1,1,5,0" fill="#333333" stroke="#aa3f25" stroke-width="1.5" opacity="1"></path></g><g class="mark-text role-legend-label" pointer-events="none"><text text-anchor="start" transform="translate(16,9)" font-family="monospace" font-size="10px" fill="#fff" opacity="1">facelift Bedfordshire</text></g></g><path class="foreground" aria-hidden="true" d="" pointer-events="none" display="none"></path></g><g transform="translate(0,16)"><path class="background" aria-hidden="true" d="M0,0h131.458984375v12.5h-131.458984375Z" pointer-events="none" opacity="1"></path><g><g class="mark-symbol role-legend-symbol" pointer-events="none"><path transform="translate(6,6)" d="M5,0A5,5,0,1,1,-5,0A5,5,0,1,1,5,0" fill="#333333" stroke="#fcb1b2" stroke-width="1.5" opacity="1"></path></g><g class="mark-text role-legend-label" pointer-events="none"><text text-anchor="start" transform="translate(16,9)" font-family="monospace" font-size="10px" fill="#fff" opacity="1">tan</text></g></g><path class="foreground" aria-hidden="true" d="" pointer-events="none" display="none"></path></g></g></g><path class="foreground" aria-hidden="true" d="" pointer-events="none" display="none"></path></g></g></g><path class="foreground" aria-hidden="true" d="" pointer-events="none" display="none"></path></g></g><g class="mark-group role-title"><g transform="translate(769,-38.896484375)"><path class="background" aria-hidden="true" d="M0,0h0v0h0Z" pointer-events="none"></path><g><g class="mark-text role-title-text" role="graphics-symbol" aria-roledescription="title" aria-label="Title text 'adduce'" pointer-events="none"><text text-anchor="end" transform="translate(0,20)" font-family="monospace" font-size="25px" font-weight="bold" fill="#fff" opacity="1">adduce</text></g></g><path class="foreground" aria-hidden="true" d="" pointer-events="none" display="none"></path></g></g></g><path class="foreground" aria-hidden="true" d="" display="none"></path></g></g></g></svg>