<svg xmlns="http://www.w3.org/2000/svg" xmlns:xlink="http://www.w3.org/1999/xlink" version="1.1" class="marks" width="436" height="286" viewBox="0 0 436 286" style="background-color: rgb(51, 51, 51);"><g fill="none" stroke-miterlimit="10" transform="translate(25,36)"><g class="mark-group role-frame root" role="graphics-object" aria-roledescription="group mark container"><g transform="translate(0,0)"><path class="background" aria-hidden="true" d="M0.5,0.5h406v200h-406Z" fill="transparent" stroke="#ddd"></path><g><g class="mark-group role-axis" aria-hidden="true"><g transform="translate(0.5,0.5)"><path class="background" aria-hidden="true" d="M0,0h0v0h0Z" pointer-events="none"></path><g><g class="mark-rule role-axis-grid" pointer-events="none"><line transform="translate(0,200)" x2="406" y2="0" stroke="#747474" stroke-width="1" stroke-dasharray="1,0" opacity="1"></line><line transform="translate(0,156)" x2="406" y2="0" stroke="#747474" stroke-width="1" stroke-dasharray="1,0" opacity="1"></line><line transform="translate(0,111)" x2="406" y2="0" stroke="#747474" stroke-width="1" stroke-dasharray="1,0" opacity="1"></line><line transform="translate(0,67)" x2="406" y2="0" stroke="#747474" stroke-width="1" stroke-dasharray="1,0" opacity="1"></line><line transform="translate(0,22)" x2="406" y2="0" stroke="#747474" stroke-width="1" stroke-dasharray="1,0" opacity="1"></line></g></g><path class="foreground" aria-hidden="true" d="" pointer-events="none" display="none"></path></g></g><g class="mark-group role-axis" role="graphics-symbol" aria-roledescription="axis" aria-label="X-axis for a discrete scale with 11 values: Jan, Feb, Mar, Apr, May, ending with Nov"><g transform="translate(0.5,200.5)"><path class="background" aria-hidden="true" d="M0,0h0v0h0Z" pointer-events="none"></path><g><g class="mark-rule role-axis-tick" pointer-events="none"><line transform="translate(18,0)" x2="0" y2="5" stroke="#888" stroke-width="1" opacity="1"></line><line transform="translate(55,0)" x2="0" y2="5" stroke="#888" stroke-width="1" opacity="1"></line><line transform="translate(92,0)" x2="0" y2="5" stroke="#888" stroke-width="1" opacity="1"></line><line transform="translate(129,0)" x2="0" y2="5" stroke="#888" stroke-width="1" opacity="1"></line><line transform="translate(166,0)" x2="0" y2="5" stroke="#888" stroke-width="1" opacity="1"></line><line transform="translate(203,0)" x2="0" y2="5" stroke="#888" stroke-width="1" opacity="1"></line><line transform="translate(240,0)" x2="0" y2="5" stroke="#888" stroke-width="1" opacity="1"></line><line transform="translate(277,0)" x2="0" y2="5" stroke="#888" stroke-width="1" opacity="1"></line><line transform="translate(314,0)" x2="0" y2="5" stroke="#888" stroke-width="1" opacity="1"></line><line transform="translate(351,0)" x2="0" y2="5" stroke="#888" stroke-width="1" opacity="1"></line><line transform="translate(388,0)" x2="0" y2="5" stroke="#888" stroke-width="1" opacity="1"></line></g><g class="mark-text role-axis-label" pointer-events="none"><text text-anchor="start" transform="translate(18.454545454545467,7) rotate(90) translate(0,5)" font-family="serif" font-size="18px" font-weight="bold" fill="#fff" opacity="1">Jan</text><text text-anchor="start" transform="translate(55.363636363636374,7) rotate(90) translate(0,5)" font-family="serif" font-size="18px" font-weight="bold" fill="#fff" opacity="1">Feb</text><text text-anchor="start" transform="translate(92.27272727272728,7) rotate(90) translate(0,5)" font-family="serif" font-size="18px" font-weight="bold" fill="#fff" opacity="1">Mar</text><text text-anchor="start" transform="translate(129.1818181818182,7) rotate(90) translate(0,5)" font-family="serif" font-size="18px" font-weight="bold" fill="#fff" opacity="1">Apr</text><text text-anchor="start" transform="translate(166.0909090909091,7) rotate(90) translate(0,5)" font-family="serif" font-size="18px" font-weight="bold" fill="#fff" opacity="1">May</text><text text-anchor="start" transform="translate(203,7) rotate(90) translate(0,5)" font-family="serif" font-size="18px" font-weight="bold" fill="#fff" opacity="1">June</text><text text-anchor="start" transform="translate(239.9090909090909,7) rotate(90) translate(0,5)" font-family="serif" font-size="18px" font-weight="bold" fill="#fff" opacity="1">July</text><text text-anchor="start" transform="translate(276.81818181818187,7) rotate(90) translate(0,5)" font-family="serif" font-size="18px" font-weight="bold" fill="#fff" opacity="1">Aug</text><text text-anchor="start" transform="translate(313.72727272727275,7) rotate(90) translate(0,5)" font-family="serif" font-size="18px" font-weight="bold" fill="#fff" opacity="1">Sep</text><text text-anchor="start" transform="translate(350.6363636363636,7) rotate(90) translate(0,5)" font-family="serif" font-size="18px" font-weight="bold" fill="#fff" opacity="1">Oct</text><text text-anchor="start" transform="translate(387.5454545454545,7) rotate(90) translate(0,5)" font-family="serif" font-size="18px" font-weight="bold" fill="#fff" opacity="1">Nov</text></g><g class="mark-rule role-axis-domain" pointer-events="none"><line transform="translate(0,0)" x2="406" y2="0" stroke="#888" stroke-width="1" opacity="1"></line></g></g><path class="foreground" aria-hidden="true" d="" pointer-events="none" display="none"></path></g></g><g class="mark-group role-axis" role="graphics-symbol" aria-roledescription="axis" aria-label="Y-axis for a linear scale with values from 0 to 900"><g transform="translate(0.5,0.5)"><path class="background" aria-hidden="true" d="M0,0h0v0h0Z" pointer-events="none"></path><g><g class="mark-text role-axis-label" pointer-events="none"><text text-anchor="middle" transform="translate(-2,200) rotate(90) translate(0,14)" font-family="serif" font-size="18px" font-weight="bold" fill="#fff" opacity="1">0</text><text text-anchor="middle" transform="translate(-2,155.55555555555557) rotate(90) translate(0,14)" font-family="serif" font-size="18px" font-weight="bold" fill="#fff" opacity="1">200</text><text text-anchor="middle" transform="translate(-2,111.11111111111111) rotate(90) translate(0,14)" font-family="serif" font-size="18px" font-weight="bold" fill="#fff" opacity="1">400</text><text text-anchor="middle" transform="translate(-2,66.66666666666667) rotate(90) translate(0,14)" font-family="serif" font-size="18px" font-weight="bold" fill="#fff" opacity="1">600</text><text text-anchor="middle" transform="translate(-2,22.222222222222232) rotate(90) translate(0,14)" font-family="serif" font-size="18px" font-weight="bold" fill="#fff" opacity="1">800</text></g><g class="mark-rule role-axis-domain" pointer-events="none"><line transform="translate(0,200)" x2="0" y2="-200" stroke="#888" stroke-width="1" opacity="1"></line></g></g><path class="foreground" aria-hidden="true" d="" pointer-events="none" display="none"></path></g></g><g class="mark-group role-scope layer_0_pathgroup" role="graphics-object" aria-roledescription="group mark container"><g transform="translate(0,0)"><path class="background" aria-hidden="true" d="M0,0h406v200h-406Z"></path><g><g class="mark-line role-mark layer_0_marks" role="graphics-object" aria-roledescription="line mark container"><path aria-label="Month: Jan; Executive Market metrics: 875; Coordinator whoever Gasoline: Jeep" role="graphics-symbol" aria-roledescription="line mark" d="M18.454545454545467,5.555555555555558L55.363636363636374,87.77777777777777L92.27272727272728,51.55555555555556L129.1818181818182,96.88888888888889L166.0909090909091,183.55555555555557L203,81.33333333333333L239.9090909090909,34.66666666666667L276.81818181818187,4.888888888888898L313.72727272727275,164L350.6363636363636,78.8888888888889L387.5454545454545,50.66666666666666" stroke="#a5ad52" stroke-width="2" stroke-dasharray="8,8"></path></g></g><path class="foreground" aria-hidden="true" d="" display="none"></path></g></g><g class="mark-symbol role-mark layer_1_marks" role="graphics-object" aria-roledescription="symbol mark container"><path aria-label="Month: Jan; Executive Market metrics: 875; Coordinator whoever Gasoline: Jeep" role="graphics-symbol" aria-roledescription="point" transform="translate(18.454545454545467,5.555555555555558)" d="M2.7386127875258306,0A2.7386127875258306,2.7386127875258306,0,1,1,-2.7386127875258306,0A2.7386127875258306,2.7386127875258306,0,1,1,2.7386127875258306,0" fill="#333333" stroke="#a5ad52" stroke-width="4" opacity="1"></path><path aria-label="Month: Feb; Executive Market metrics: 505; Coordinator whoever Gasoline: Jeep" role="graphics-symbol" aria-roledescription="point" transform="translate(55.363636363636374,87.77777777777777)" d="M2.7386127875258306,0A2.7386127875258306,2.7386127875258306,0,1,1,-2.7386127875258306,0A2.7386127875258306,2.7386127875258306,0,1,1,2.7386127875258306,0" fill="#333333" stroke="#a5ad52" stroke-width="4" opacity="1"></path><path aria-label="Month: Mar; Executive Market metrics: 668; Coordinator whoever Gasoline: Jeep" role="graphics-symbol" aria-roledescription="point" transform="translate(92.27272727272728,51.55555555555556)" d="M2.7386127875258306,0A2.7386127875258306,2.7386127875258306,0,1,1,-2.7386127875258306,0A2.7386127875258306,2.7386127875258306,0,1,1,2.7386127875258306,0" fill="#333333" stroke="#a5ad52" stroke-width="4" opacity="1"></path><path aria-label="Month: Apr; Executive Market metrics: 464; Coordinator whoever Gasoline: Jeep" role="graphics-symbol" aria-roledescription="point" transform="translate(129.1818181818182,96.88888888888889)" d="M2.7386127875258306,0A2.7386127875258306,2.7386127875258306,0,1,1,-2.7386127875258306,0A2.7386127875258306,2.7386127875258306,0,1,1,2.7386127875258306,0" fill="#333333" stroke="#a5ad52" stroke-width="4" opacity="1"></path><path aria-label="Month: May; Executive Market metrics: 74; Coordinator whoever Gasoline: Jeep" role="graphics-symbol" aria-roledescription="point" transform="translate(166.0909090909091,183.55555555555557)" d="M2.7386127875258306,0A2.7386127875258306,2.7386127875258306,0,1,1,-2.7386127875258306,0A2.7386127875258306,2.7386127875258306,0,1,1,2.7386127875258306,0" fill="#333333" stroke="#a5ad52" stroke-width="4" opacity="1"></path><path aria-label="Month: June; Executive Market metrics: 534; Coordinator whoever Gasoline: Jeep" role="graphics-symbol" aria-roledescription="point" transform="translate(203,81.33333333333333)" d="M2.7386127875258306,0A2.7386127875258306,2.7386127875258306,0,1,1,-2.7386127875258306,0A2.7386127875258306,2.7386127875258306,0,1,1,2.7386127875258306,0" fill="#333333" stroke="#a5ad52" stroke-width="4" opacity="1"></path><path aria-label="Month: July; Executive Market metrics: 744; Coordinator whoever Gasoline: Jeep" role="graphics-symbol" aria-roledescription="point" transform="translate(239.9090909090909,34.66666666666667)" d="M2.7386127875258306,0A2.7386127875258306,2.7386127875258306,0,1,1,-2.7386127875258306,0A2.7386127875258306,2.7386127875258306,0,1,1,2.7386127875258306,0" fill="#333333" stroke="#a5ad52" stroke-width="4" opacity="1"></path><path aria-label="Month: Aug; Executive Market metrics: 878; Coordinator whoever Gasoline: Jeep" role="graphics-symbol" aria-roledescription="point" transform="translate(276.81818181818187,4.888888888888898)" d="M2.7386127875258306,0A2.7386127875258306,2.7386127875258306,0,1,1,-2.7386127875258306,0A2.7386127875258306,2.7386127875258306,0,1,1,2.7386127875258306,0" fill="#333333" stroke="#a5ad52" stroke-width="4" opacity="1"></path><path aria-label="Month: Sep; Executive Market metrics: 162; Coordinator whoever Gasoline: Jeep" role="graphics-symbol" aria-roledescription="point" transform="translate(313.72727272727275,164)" d="M2.7386127875258306,0A2.7386127875258306,2.7386127875258306,0,1,1,-2.7386127875258306,0A2.7386127875258306,2.7386127875258306,0,1,1,2.7386127875258306,0" fill="#333333" stroke="#a5ad52" stroke-width="4" opacity="1"></path><path aria-label="Month: Oct; Executive Market metrics: 545; Coordinator whoever Gasoline: Jeep" role="graphics-symbol" aria-roledescription="point" transform="translate(350.6363636363636,78.8888888888889)" d="M2.7386127875258306,0A2.7386127875258306,2.7386127875258306,0,1,1,-2.7386127875258306,0A2.7386127875258306,2.7386127875258306,0,1,1,2.7386127875258306,0" fill="#333333" stroke="#a5ad52" stroke-width="4" opacity="1"></path><path aria-label="Month: Nov; Executive Market metrics: 672; Coordinator whoever Gasoline: Jeep" role="graphics-symbol" aria-roledescription="point" transform="translate(387.5454545454545,50.66666666666666)" d="M2.7386127875258306,0A2.7386127875258306,2.7386127875258306,0,1,1,-2.7386127875258306,0A2.7386127875258306,2.7386127875258306,0,1,1,2.7386127875258306,0" fill="#333333" stroke="#a5ad52" stroke-width="4" opacity="1"></path></g><g class="mark-text role-mark layer_2_marks" role="graphics-object" aria-roledescription="text mark container"><text aria-label="Month: Jan; Executive Market metrics: 875" role="graphics-symbol" aria-roledescription="text mark" text-anchor="middle" transform="translate(18.454545454545467,30.555555555555557)" font-family="serif" font-size="17px" fill="#fff" opacity="1">875</text><text aria-label="Month: Feb; Executive Market metrics: 505" role="graphics-symbol" aria-roledescription="text mark" text-anchor="middle" transform="translate(55.363636363636374,112.77777777777777)" font-family="serif" font-size="17px" fill="#fff" opacity="1">505</text><text aria-label="Month: Mar; Executive Market metrics: 668" role="graphics-symbol" aria-roledescription="text mark" text-anchor="middle" transform="translate(92.27272727272728,76.55555555555556)" font-family="serif" font-size="17px" fill="#fff" opacity="1">668</text><text aria-label="Month: Apr; Executive Market metrics: 464" role="graphics-symbol" aria-roledescription="text mark" text-anchor="middle" transform="translate(129.1818181818182,121.88888888888889)" font-family="serif" font-size="17px" fill="#fff" opacity="1">464</text><text aria-label="Month: May; Executive Market metrics: 74" role="graphics-symbol" aria-roledescription="text mark" text-anchor="middle" transform="translate(166.0909090909091,208.55555555555557)" font-family="serif" font-size="17px" fill="#fff" opacity="1">74</text><text aria-label="Month: June; Executive Market metrics: 534" role="graphics-symbol" aria-roledescription="text mark" text-anchor="middle" transform="translate(203,106.33333333333333)" font-family="serif" font-size="17px" fill="#fff" opacity="1">534</text><text aria-label="Month: July; Executive Market metrics: 744" role="graphics-symbol" aria-roledescription="text mark" text-anchor="middle" transform="translate(239.9090909090909,59.66666666666667)" font-family="serif" font-size="17px" fill="#fff" opacity="1">744</text><text aria-label="Month: Aug; Executive Market metrics: 878" role="graphics-symbol" aria-roledescription="text mark" text-anchor="middle" transform="translate(276.81818181818187,29.8888888888889)" font-family="serif" font-size="17px" fill="#fff" opacity="1">878</text><text aria-label="Month: Sep; Executive Market metrics: 162" role="graphics-symbol" aria-roledescription="text mark" text-anchor="middle" transform="translate(313.72727272727275,189)" font-family="serif" font-size="17px" fill="#fff" opacity="1">162</text><text aria-label="Month: Oct; Executive Market metrics: 545" role="graphics-symbol" aria-roledescription="text mark" text-anchor="middle" transform="translate(350.6363636363636,103.8888888888889)" font-family="serif" font-size="17px" fill="#fff" opacity="1">545</text><text aria-label="Month: Nov; Executive Market metrics: 672" role="graphics-symbol" aria-roledescription="text mark" text-anchor="middle" transform="translate(387.5454545454545,75.66666666666666)" font-family="serif" font-size="17px" fill="#fff" opacity="1">672</text></g><g class="mark-group role-title"><g transform="translate(203,-30.84972389863693)"><path class="background" aria-hidden="true" d="M0,0h0v0h0Z" pointer-events="none"></path><g><g class="mark-text role-title-text" role="graphics-symbol" aria-roledescription="title" aria-label="Title text 'yellow'" pointer-events="none"><text text-anchor="middle" transform="translate(0,20)" font-family="serif" font-size="25px" font-weight="bold" fill="#fff" opacity="1">yellow</text></g></g><path class="foreground" aria-hidden="true" d="" pointer-events="none" display="none"></path></g></g></g><path class="foreground" aria-hidden="true" d="" display="none"></path></g></g></g></svg>