<svg xmlns="http://www.w3.org/2000/svg" xmlns:xlink="http://www.w3.org/1999/xlink" version="1.1" class="marks" width="576" height="321" viewBox="0 0 576 321" style="background-color: rgb(255, 255, 255);"><g fill="none" stroke-miterlimit="10" transform="translate(27,34)"><g class="mark-group role-frame root" role="graphics-object" aria-roledescription="group mark container"><g transform="translate(0,0)"><path class="background" aria-hidden="true" d="M0.5,0.5h544v200h-544Z" fill="transparent" stroke="#ddd"></path><g><g class="mark-group role-axis" role="graphics-symbol" aria-roledescription="axis" aria-label="X-axis for a discrete scale with 8 values: Jan, Feb, Mar, Apr, May, ending with Aug"><g transform="translate(0.5,200.5)"><path class="background" aria-hidden="true" d="M0,0h0v0h0Z" pointer-events="none"></path><g><g class="mark-rule role-axis-tick" pointer-events="none"><line transform="translate(34,0)" x2="0" y2="5" stroke="#888" stroke-width="1" opacity="1"></line><line transform="translate(102,0)" x2="0" y2="5" stroke="#888" stroke-width="1" opacity="1"></line><line transform="translate(170,0)" x2="0" y2="5" stroke="#888" stroke-width="1" opacity="1"></line><line transform="translate(238,0)" x2="0" y2="5" stroke="#888" stroke-width="1" opacity="1"></line><line transform="translate(306,0)" x2="0" y2="5" stroke="#888" stroke-width="1" opacity="1"></line><line transform="translate(374,0)" x2="0" y2="5" stroke="#888" stroke-width="1" opacity="1"></line><line transform="translate(442,0)" x2="0" y2="5" stroke="#888" stroke-width="1" opacity="1"></line><line transform="translate(510,0)" x2="0" y2="5" stroke="#888" stroke-width="1" opacity="1"></line></g><g class="mark-text role-axis-label" pointer-events="none"><text text-anchor="start" transform="translate(34,7) rotate(90) translate(0,5)" font-family="Balto" font-size="15px" font-weight="normal" fill="#000" opacity="1">Jan</text><text text-anchor="start" transform="translate(102,7) rotate(90) translate(0,5)" font-family="Balto" font-size="15px" font-weight="normal" fill="#000" opacity="1">Feb</text><text text-anchor="start" transform="translate(170,7) rotate(90) translate(0,5)" font-family="Balto" font-size="15px" font-weight="normal" fill="#000" opacity="1">Mar</text><text text-anchor="start" transform="translate(238,7) rotate(90) translate(0,5)" font-family="Balto" font-size="15px" font-weight="normal" fill="#000" opacity="1">Apr</text><text text-anchor="start" transform="translate(306,7) rotate(90) translate(0,5)" font-family="Balto" font-size="15px" font-weight="normal" fill="#000" opacity="1">May</text><text text-anchor="start" transform="translate(374,7) rotate(90) translate(0,5)" font-family="Balto" font-size="15px" font-weight="normal" fill="#000" opacity="1">June</text><text text-anchor="start" transform="translate(442,7) rotate(90) translate(0,5)" font-family="Balto" font-size="15px" font-weight="normal" fill="#000" opacity="1">July</text><text text-anchor="start" transform="translate(510,7) rotate(90) translate(0,5)" font-family="Balto" font-size="15px" font-weight="normal" fill="#000" opacity="1">Aug</text></g><g class="mark-rule role-axis-domain" pointer-events="none"><line transform="translate(0,0)" x2="544" y2="0" stroke="#888" stroke-width="1" opacity="1"></line></g></g><path class="foreground" aria-hidden="true" d="" pointer-events="none" display="none"></path></g></g><g class="mark-group role-axis" role="graphics-symbol" aria-roledescription="axis" aria-label="Y-axis for a linear scale with values from 0 to 900"><g transform="translate(0.5,0.5)"><path class="background" aria-hidden="true" d="M0,0h0v0h0Z" pointer-events="none"></path><g><g class="mark-rule role-axis-tick" pointer-events="none"><line transform="translate(0,200)" x2="-5" y2="0" stroke="#888" stroke-width="1" opacity="1"></line><line transform="translate(0,156)" x2="-5" y2="0" stroke="#888" stroke-width="1" opacity="1"></line><line transform="translate(0,111)" x2="-5" y2="0" stroke="#888" stroke-width="1" opacity="1"></line><line transform="translate(0,67)" x2="-5" y2="0" stroke="#888" stroke-width="1" opacity="1"></line><line transform="translate(0,22)" x2="-5" y2="0" stroke="#888" stroke-width="1" opacity="1"></line></g><g class="mark-text role-axis-label" pointer-events="none"><text text-anchor="middle" transform="translate(-7,200) rotate(90) translate(0,12)" font-family="Balto" font-size="15px" font-weight="normal" fill="#000" opacity="1">0</text><text text-anchor="middle" transform="translate(-7,155.55555555555557) rotate(90) translate(0,12)" font-family="Balto" font-size="15px" font-weight="normal" fill="#000" opacity="1">200</text><text text-anchor="middle" transform="translate(-7,111.11111111111111) rotate(90) translate(0,12)" font-family="Balto" font-size="15px" font-weight="normal" fill="#000" opacity="1">400</text><text text-anchor="middle" transform="translate(-7,66.66666666666667) rotate(90) translate(0,12)" font-family="Balto" font-size="15px" font-weight="normal" fill="#000" opacity="1">600</text><text text-anchor="middle" transform="translate(-7,22.222222222222232) rotate(90) translate(0,12)" font-family="Balto" font-size="15px" font-weight="normal" fill="#000" opacity="1">800</text></g><g class="mark-rule role-axis-domain" pointer-events="none"><line transform="translate(0,200)" x2="0" y2="-200" stroke="#888" stroke-width="1" opacity="1"></line></g></g><path class="foreground" aria-hidden="true" d="" pointer-events="none" display="none"></path></g></g><g class="mark-group role-scope layer_0_pathgroup" role="graphics-object" aria-roledescription="group mark container"><g transform="translate(0,0)"><path class="background" aria-hidden="true" d="M0,0h544v200h-544Z"></path><g><g class="mark-line role-mark layer_0_marks" role="graphics-object" aria-roledescription="line mark container"><path aria-label="Month: Jan; Principal numquam than: 393; Rupiah Soft abaft: Security Bedfordshire optimize" role="graphics-symbol" aria-roledescription="line mark" d="M34,112.66666666666667L102,66.22222222222223L170,12.222222222222223L238,181.55555555555557L306,61.111111111111114L374,78.8888888888889L442,197.11111111111111L510,92.44444444444444" stroke="#1dbaba" stroke-width="2" stroke-dasharray="8,4"></path></g></g><path class="foreground" aria-hidden="true" d="" display="none"></path></g><g transform="translate(0,0)"><path class="background" aria-hidden="true" d="M0,0h544v200h-544Z"></path><g><g class="mark-line role-mark layer_0_marks" role="graphics-object" aria-roledescription="line mark container"><path aria-label="Month: Jan; Principal numquam than: 366; Rupiah Soft abaft: roasted Customer" role="graphics-symbol" aria-roledescription="line mark" d="M34,118.66666666666666L102,46.66666666666666L170,199.11111111111111L238,86.66666666666667L306,123.77777777777777L374,160.22222222222223L442,177.11111111111111L510,140.66666666666669" stroke="#cdad7d" stroke-width="2" stroke-dasharray="8,4"></path></g></g><path class="foreground" aria-hidden="true" d="" display="none"></path></g></g><g class="mark-symbol role-mark layer_1_marks" role="graphics-object" aria-roledescription="symbol mark container"><path aria-label="Month: Jan; Principal numquam than: 393; Rupiah Soft abaft: Security Bedfordshire optimize" role="graphics-symbol" aria-roledescription="point" transform="translate(34,112.66666666666667)" d="M3.1622776601683795,0A3.1622776601683795,3.1622776601683795,0,1,1,-3.1622776601683795,0A3.1622776601683795,3.1622776601683795,0,1,1,3.1622776601683795,0" fill="#1dbaba" stroke-width="3" opacity="1"></path><path aria-label="Month: Feb; Principal numquam than: 602; Rupiah Soft abaft: Security Bedfordshire optimize" role="graphics-symbol" aria-roledescription="point" transform="translate(102,66.22222222222223)" d="M3.1622776601683795,0A3.1622776601683795,3.1622776601683795,0,1,1,-3.1622776601683795,0A3.1622776601683795,3.1622776601683795,0,1,1,3.1622776601683795,0" fill="#1dbaba" stroke-width="3" opacity="1"></path><path aria-label="Month: Mar; Principal numquam than: 845; Rupiah Soft abaft: Security Bedfordshire optimize" role="graphics-symbol" aria-roledescription="point" transform="translate(170,12.222222222222223)" d="M3.1622776601683795,0A3.1622776601683795,3.1622776601683795,0,1,1,-3.1622776601683795,0A3.1622776601683795,3.1622776601683795,0,1,1,3.1622776601683795,0" fill="#1dbaba" stroke-width="3" opacity="1"></path><path aria-label="Month: Apr; Principal numquam than: 83; Rupiah Soft abaft: Security Bedfordshire optimize" role="graphics-symbol" aria-roledescription="point" transform="translate(238,181.55555555555557)" d="M3.1622776601683795,0A3.1622776601683795,3.1622776601683795,0,1,1,-3.1622776601683795,0A3.1622776601683795,3.1622776601683795,0,1,1,3.1622776601683795,0" fill="#1dbaba" stroke-width="3" opacity="1"></path><path aria-label="Month: May; Principal numquam than: 625; Rupiah Soft abaft: Security Bedfordshire optimize" role="graphics-symbol" aria-roledescription="point" transform="translate(306,61.111111111111114)" d="M3.1622776601683795,0A3.1622776601683795,3.1622776601683795,0,1,1,-3.1622776601683795,0A3.1622776601683795,3.1622776601683795,0,1,1,3.1622776601683795,0" fill="#1dbaba" stroke-width="3" opacity="1"></path><path aria-label="Month: June; Principal numquam than: 545; Rupiah Soft abaft: Security Bedfordshire optimize" role="graphics-symbol" aria-roledescription="point" transform="translate(374,78.8888888888889)" d="M3.1622776601683795,0A3.1622776601683795,3.1622776601683795,0,1,1,-3.1622776601683795,0A3.1622776601683795,3.1622776601683795,0,1,1,3.1622776601683795,0" fill="#1dbaba" stroke-width="3" opacity="1"></path><path aria-label="Month: July; Principal numquam than: 13; Rupiah Soft abaft: Security Bedfordshire optimize" role="graphics-symbol" aria-roledescription="point" transform="translate(442,197.11111111111111)" d="M3.1622776601683795,0A3.1622776601683795,3.1622776601683795,0,1,1,-3.1622776601683795,0A3.1622776601683795,3.1622776601683795,0,1,1,3.1622776601683795,0" fill="#1dbaba" stroke-width="3" opacity="1"></path><path aria-label="Month: Aug; Principal numquam than: 484; Rupiah Soft abaft: Security Bedfordshire optimize" role="graphics-symbol" aria-roledescription="point" transform="translate(510,92.44444444444444)" d="M3.1622776601683795,0A3.1622776601683795,3.1622776601683795,0,1,1,-3.1622776601683795,0A3.1622776601683795,3.1622776601683795,0,1,1,3.1622776601683795,0" fill="#1dbaba" stroke-width="3" opacity="1"></path><path aria-label="Month: Jan; Principal numquam than: 366; Rupiah Soft abaft: roasted Customer" role="graphics-symbol" aria-roledescription="point" transform="translate(34,118.66666666666666)" d="M3.1622776601683795,0A3.1622776601683795,3.1622776601683795,0,1,1,-3.1622776601683795,0A3.1622776601683795,3.1622776601683795,0,1,1,3.1622776601683795,0" fill="#cdad7d" stroke-width="3" opacity="1"></path><path aria-label="Month: Feb; Principal numquam than: 690; Rupiah Soft abaft: roasted Customer" role="graphics-symbol" aria-roledescription="point" transform="translate(102,46.66666666666666)" d="M3.1622776601683795,0A3.1622776601683795,3.1622776601683795,0,1,1,-3.1622776601683795,0A3.1622776601683795,3.1622776601683795,0,1,1,3.1622776601683795,0" fill="#cdad7d" stroke-width="3" opacity="1"></path><path aria-label="Month: Mar; Principal numquam than: 4; Rupiah Soft abaft: roasted Customer" role="graphics-symbol" aria-roledescription="point" transform="translate(170,199.11111111111111)" d="M3.1622776601683795,0A3.1622776601683795,3.1622776601683795,0,1,1,-3.1622776601683795,0A3.1622776601683795,3.1622776601683795,0,1,1,3.1622776601683795,0" fill="#cdad7d" stroke-width="3" opacity="1"></path><path aria-label="Month: Apr; Principal numquam than: 510; Rupiah Soft abaft: roasted Customer" role="graphics-symbol" aria-roledescription="point" transform="translate(238,86.66666666666667)" d="M3.1622776601683795,0A3.1622776601683795,3.1622776601683795,0,1,1,-3.1622776601683795,0A3.1622776601683795,3.1622776601683795,0,1,1,3.1622776601683795,0" fill="#cdad7d" stroke-width="3" opacity="1"></path><path aria-label="Month: May; Principal numquam than: 343; Rupiah Soft abaft: roasted Customer" role="graphics-symbol" aria-roledescription="point" transform="translate(306,123.77777777777777)" d="M3.1622776601683795,0A3.1622776601683795,3.1622776601683795,0,1,1,-3.1622776601683795,0A3.1622776601683795,3.1622776601683795,0,1,1,3.1622776601683795,0" fill="#cdad7d" stroke-width="3" opacity="1"></path><path aria-label="Month: June; Principal numquam than: 179; Rupiah Soft abaft: roasted Customer" role="graphics-symbol" aria-roledescription="point" transform="translate(374,160.22222222222223)" d="M3.1622776601683795,0A3.1622776601683795,3.1622776601683795,0,1,1,-3.1622776601683795,0A3.1622776601683795,3.1622776601683795,0,1,1,3.1622776601683795,0" fill="#cdad7d" stroke-width="3" opacity="1"></path><path aria-label="Month: July; Principal numquam than: 103; Rupiah Soft abaft: roasted Customer" role="graphics-symbol" aria-roledescription="point" transform="translate(442,177.11111111111111)" d="M3.1622776601683795,0A3.1622776601683795,3.1622776601683795,0,1,1,-3.1622776601683795,0A3.1622776601683795,3.1622776601683795,0,1,1,3.1622776601683795,0" fill="#cdad7d" stroke-width="3" opacity="1"></path><path aria-label="Month: Aug; Principal numquam than: 267; Rupiah Soft abaft: roasted Customer" role="graphics-symbol" aria-roledescription="point" transform="translate(510,140.66666666666669)" d="M3.1622776601683795,0A3.1622776601683795,3.1622776601683795,0,1,1,-3.1622776601683795,0A3.1622776601683795,3.1622776601683795,0,1,1,3.1622776601683795,0" fill="#cdad7d" stroke-width="3" opacity="1"></path></g><g class="mark-group role-legend" role="graphics-symbol" aria-roledescription="legend" aria-label="Symbol legend titled 'Rupiah Soft abaft' for fill color and stroke color with 2 values: Security Bedfordshire optimize, roasted Customer"><g transform="translate(0,253)"><path class="background" aria-hidden="true" d="M0,0h240v29h-240Z" pointer-events="none"></path><g><g class="mark-group role-legend-entry"><g transform="translate(0,16)"><path class="background" aria-hidden="true" d="M0,0h0v0h0Z" pointer-events="none"></path><g><g class="mark-group role-scope" role="graphics-object" aria-roledescription="group mark container"><g transform="translate(0,0.25)"><path class="background" aria-hidden="true" d="M0,0h141.5224609375v12.5h-141.5224609375Z" pointer-events="none" opacity="1"></path><g><g class="mark-symbol role-legend-symbol" pointer-events="none"><path transform="translate(6,6)" d="M5,0A5,5,0,1,1,-5,0A5,5,0,1,1,5,0" fill="#1dbaba" stroke="#1dbaba" stroke-width="1.5" opacity="1"></path></g><g class="mark-text role-legend-label" pointer-events="none"><text text-anchor="start" transform="translate(16,9)" font-family="Balto" font-size="10px" fill="#000" opacity="1">Security Bedfordshire optimize</text></g></g><path class="foreground" aria-hidden="true" d="" pointer-events="none" display="none"></path></g><g transform="translate(153,0.25)"><path class="background" aria-hidden="true" d="M0,0h86.263671875v12.5h-86.263671875Z" pointer-events="none" opacity="1"></path><g><g class="mark-symbol role-legend-symbol" pointer-events="none"><path transform="translate(6,6)" d="M5,0A5,5,0,1,1,-5,0A5,5,0,1,1,5,0" fill="#cdad7d" stroke="#cdad7d" stroke-width="1.5" opacity="1"></path></g><g class="mark-text role-legend-label" pointer-events="none"><text text-anchor="start" transform="translate(16,9)" font-family="Balto" font-size="10px" fill="#000" opacity="1">roasted Customer</text></g></g><path class="foreground" aria-hidden="true" d="" pointer-events="none" display="none"></path></g></g></g><path class="foreground" aria-hidden="true" d="" pointer-events="none" display="none"></path></g></g><g class="mark-text role-legend-title" pointer-events="none"><text text-anchor="start" transform="translate(0,9)" font-family="Balto" font-size="11px" font-weight="bold" fill="#000" opacity="1">Rupiah Soft abaft</text></g></g><path class="foreground" aria-hidden="true" d="" pointer-events="none" display="none"></path></g></g><g class="mark-group role-title"><g transform="translate(272,-29)"><path class="background" aria-hidden="true" d="M0,0h0v0h0Z" pointer-events="none"></path><g><g class="mark-text role-title-text" role="graphics-symbol" aria-roledescription="title" aria-label="Title text 'set Chips'" pointer-events="none"><text text-anchor="middle" transform="translate(0,20)" font-family="Balto" font-size="25px" font-weight="bold" fill="#000" opacity="1">set Chips</text></g></g><path class="foreground" aria-hidden="true" d="" pointer-events="none" display="none"></path></g></g></g><path class="foreground" aria-hidden="true" d="" display="none"></path></g></g></g></svg>