<svg xmlns="http://www.w3.org/2000/svg" xmlns:xlink="http://www.w3.org/1999/xlink" version="1.1" class="marks" width="625" height="262" viewBox="0 0 625 262" style="background-color: rgb(51, 51, 51);"><g fill="none" stroke-miterlimit="10" transform="translate(33,34)"><g class="mark-group role-frame root" role="graphics-object" aria-roledescription="group mark container"><g transform="translate(0,0)"><path class="background" aria-hidden="true" d="M0.5,0.5h587v200h-587Z" fill="transparent" stroke="#ddd"></path><g><g class="mark-group role-axis" aria-hidden="true"><g transform="translate(0.5,0.5)"><path class="background" aria-hidden="true" d="M0,0h0v0h0Z" pointer-events="none"></path><g><g class="mark-rule role-axis-grid" pointer-events="none"><line transform="translate(0,200)" x2="587" y2="0" stroke="#747474" stroke-width="1" stroke-dasharray="1,0" opacity="1"></line><line transform="translate(0,169)" x2="587" y2="0" stroke="#747474" stroke-width="1" stroke-dasharray="1,0" opacity="1"></line><line transform="translate(0,138)" x2="587" y2="0" stroke="#747474" stroke-width="1" stroke-dasharray="1,0" opacity="1"></line><line transform="translate(0,108)" x2="587" y2="0" stroke="#747474" stroke-width="1" stroke-dasharray="1,0" opacity="1"></line><line transform="translate(0,77)" x2="587" y2="0" stroke="#747474" stroke-width="1" stroke-dasharray="1,0" opacity="1"></line><line transform="translate(0,46)" x2="587" y2="0" stroke="#747474" stroke-width="1" stroke-dasharray="1,0" opacity="1"></line><line transform="translate(0,15)" x2="587" y2="0" stroke="#747474" stroke-width="1" stroke-dasharray="1,0" opacity="1"></line></g></g><path class="foreground" aria-hidden="true" d="" pointer-events="none" display="none"></path></g></g><g class="mark-group role-axis" role="graphics-symbol" aria-roledescription="axis" aria-label="X-axis for a discrete scale with 11 values: Jan, Feb, Mar, Apr, May, ending with Nov"><g transform="translate(0.5,200.5)"><path class="background" aria-hidden="true" d="M0,0h0v0h0Z" pointer-events="none"></path><g><g class="mark-rule role-axis-tick" pointer-events="none"><line transform="translate(27,0)" x2="0" y2="5" stroke="#888" stroke-width="1" opacity="1"></line><line transform="translate(80,0)" x2="0" y2="5" stroke="#888" stroke-width="1" opacity="1"></line><line transform="translate(133,0)" x2="0" y2="5" stroke="#888" stroke-width="1" opacity="1"></line><line transform="translate(187,0)" x2="0" y2="5" stroke="#888" stroke-width="1" opacity="1"></line><line transform="translate(240,0)" x2="0" y2="5" stroke="#888" stroke-width="1" opacity="1"></line><line transform="translate(294,0)" x2="0" y2="5" stroke="#888" stroke-width="1" opacity="1"></line><line transform="translate(347,0)" x2="0" y2="5" stroke="#888" stroke-width="1" opacity="1"></line><line transform="translate(400,0)" x2="0" y2="5" stroke="#888" stroke-width="1" opacity="1"></line><line transform="translate(454,0)" x2="0" y2="5" stroke="#888" stroke-width="1" opacity="1"></line><line transform="translate(507,0)" x2="0" y2="5" stroke="#888" stroke-width="1" opacity="1"></line><line transform="translate(560,0)" x2="0" y2="5" stroke="#888" stroke-width="1" opacity="1"></line></g><g class="mark-text role-axis-label" pointer-events="none"><text text-anchor="middle" transform="translate(26.681818181818187,20)" font-family="avenir" font-size="17px" font-weight="normal" fill="#fff" opacity="1">Jan</text><text text-anchor="middle" transform="translate(80.04545454545456,20)" font-family="avenir" font-size="17px" font-weight="normal" fill="#fff" opacity="1">Feb</text><text text-anchor="middle" transform="translate(133.40909090909093,20)" font-family="avenir" font-size="17px" font-weight="normal" fill="#fff" opacity="1">Mar</text><text text-anchor="middle" transform="translate(186.77272727272728,20)" font-family="avenir" font-size="17px" font-weight="normal" fill="#fff" opacity="1">Apr</text><text text-anchor="middle" transform="translate(240.13636363636365,20)" font-family="avenir" font-size="17px" font-weight="normal" fill="#fff" opacity="1">May</text><text text-anchor="middle" transform="translate(293.5,20)" font-family="avenir" font-size="17px" font-weight="normal" fill="#fff" opacity="1">June</text><text text-anchor="middle" transform="translate(346.8636363636364,20)" font-family="avenir" font-size="17px" font-weight="normal" fill="#fff" opacity="1">July</text><text text-anchor="middle" transform="translate(400.22727272727275,20)" font-family="avenir" font-size="17px" font-weight="normal" fill="#fff" opacity="1">Aug</text><text text-anchor="middle" transform="translate(453.5909090909091,20)" font-family="avenir" font-size="17px" font-weight="normal" fill="#fff" opacity="1">Sep</text><text text-anchor="middle" transform="translate(506.9545454545455,20)" font-family="avenir" font-size="17px" font-weight="normal" fill="#fff" opacity="1">Oct</text><text text-anchor="middle" transform="translate(560.3181818181818,20)" font-family="avenir" font-size="17px" font-weight="normal" fill="#fff" opacity="1">Nov</text></g><g class="mark-rule role-axis-domain" pointer-events="none"><line transform="translate(0,0)" x2="587" y2="0" stroke="#888" stroke-width="1" opacity="1"></line></g></g><path class="foreground" aria-hidden="true" d="" pointer-events="none" display="none"></path></g></g><g class="mark-group role-axis" role="graphics-symbol" aria-roledescription="axis" aria-label="Y-axis for a linear scale with values from 0 to 650"><g transform="translate(0.5,0.5)"><path class="background" aria-hidden="true" d="M0,0h0v0h0Z" pointer-events="none"></path><g><g class="mark-text role-axis-label" pointer-events="none"><text text-anchor="end" transform="translate(-2,205)" font-family="avenir" font-size="17px" font-weight="normal" fill="#fff" opacity="1">0</text><text text-anchor="end" transform="translate(-2,174.23076923076923)" font-family="avenir" font-size="17px" font-weight="normal" fill="#fff" opacity="1">100</text><text text-anchor="end" transform="translate(-2,143.46153846153845)" font-family="avenir" font-size="17px" font-weight="normal" fill="#fff" opacity="1">200</text><text text-anchor="end" transform="translate(-2,112.6923076923077)" font-family="avenir" font-size="17px" font-weight="normal" fill="#fff" opacity="1">300</text><text text-anchor="end" transform="translate(-2,81.92307692307692)" font-family="avenir" font-size="17px" font-weight="normal" fill="#fff" opacity="1">400</text><text text-anchor="end" transform="translate(-2,51.153846153846146)" font-family="avenir" font-size="17px" font-weight="normal" fill="#fff" opacity="1">500</text><text text-anchor="end" transform="translate(-2,20.384615384615373)" font-family="avenir" font-size="17px" font-weight="normal" fill="#fff" opacity="1">600</text></g><g class="mark-rule role-axis-domain" pointer-events="none"><line transform="translate(0,200)" x2="0" y2="-200" stroke="#888" stroke-width="1" opacity="1"></line></g></g><path class="foreground" aria-hidden="true" d="" pointer-events="none" display="none"></path></g></g><g class="mark-group role-scope layer_0_pathgroup" role="graphics-object" aria-roledescription="group mark container"><g transform="translate(0,0)"><path class="background" aria-hidden="true" d="M0,0h587v200h-587Z"></path><g><g class="mark-line role-mark layer_0_marks" role="graphics-object" aria-roledescription="line mark container"><path aria-label="Month: Jan; Dodge: 178; Integration invoice: Radon" role="graphics-symbol" aria-roledescription="line mark" d="M26.681818181818187,145.23076923076923C44.46969696969697,89.32050231439588,62.25757575757575,33.410235398022536,80.04545454545456,12.615384615384606C97.83333333333337,-8.17946616725332,115.62121212121218,6.141099183844176,133.40909090909093,21.53846153846153C151.1969696969697,36.93582389307888,168.98484848484844,53.40998325121612,186.77272727272728,81.23076923076924C204.56060606060612,109.05155521032236,222.34848484848493,148.2189678112912,240.13636363636365,136.30769230769232C257.9242424242424,124.39641680409343,275.7121212121212,61.406453195926886,293.5,77.23076923076924C311.2878787878788,93.0550852656116,329.07575757575756,187.69368094346288,346.8636363636364,187.3846153846154C364.6515151515152,187.0755498257679,382.43939393939405,91.81882303022167,400.22727272727275,74.15384615384615C418.01515151515144,56.488869277470634,435.8030303030303,116.41564232026579,453.5909090909091,119.6923076923077C471.37878787878793,122.9689730643496,489.16666666666674,69.59553076563834,506.9545454545455,48C524.7424242424242,26.40446923436166,542.530303030303,36.58685000179621,560.3181818181818,46.76923076923076" stroke="#1cb5b0" stroke-width="2" stroke-dasharray="8,4"></path></g></g><path class="foreground" aria-hidden="true" d="" display="none"></path></g></g><g class="mark-symbol role-mark layer_1_marks" role="graphics-object" aria-roledescription="symbol mark container"><path aria-label="Month: Jan; Dodge: 178; Integration invoice: Radon" role="graphics-symbol" aria-roledescription="point" transform="translate(26.681818181818187,145.23076923076923)" d="M4.58257569495584,0A4.58257569495584,4.58257569495584,0,1,1,-4.58257569495584,0A4.58257569495584,4.58257569495584,0,1,1,4.58257569495584,0" fill="#1cb5b0" stroke-width="3" opacity="1"></path><path aria-label="Month: Feb; Dodge: 609; Integration invoice: Radon" role="graphics-symbol" aria-roledescription="point" transform="translate(80.04545454545456,12.615384615384606)" d="M4.58257569495584,0A4.58257569495584,4.58257569495584,0,1,1,-4.58257569495584,0A4.58257569495584,4.58257569495584,0,1,1,4.58257569495584,0" fill="#1cb5b0" stroke-width="3" opacity="1"></path><path aria-label="Month: Mar; Dodge: 580; Integration invoice: Radon" role="graphics-symbol" aria-roledescription="point" transform="translate(133.40909090909093,21.53846153846153)" d="M4.58257569495584,0A4.58257569495584,4.58257569495584,0,1,1,-4.58257569495584,0A4.58257569495584,4.58257569495584,0,1,1,4.58257569495584,0" fill="#1cb5b0" stroke-width="3" opacity="1"></path><path aria-label="Month: Apr; Dodge: 386; Integration invoice: Radon" role="graphics-symbol" aria-roledescription="point" transform="translate(186.77272727272728,81.23076923076924)" d="M4.58257569495584,0A4.58257569495584,4.58257569495584,0,1,1,-4.58257569495584,0A4.58257569495584,4.58257569495584,0,1,1,4.58257569495584,0" fill="#1cb5b0" stroke-width="3" opacity="1"></path><path aria-label="Month: May; Dodge: 207; Integration invoice: Radon" role="graphics-symbol" aria-roledescription="point" transform="translate(240.13636363636365,136.30769230769232)" d="M4.58257569495584,0A4.58257569495584,4.58257569495584,0,1,1,-4.58257569495584,0A4.58257569495584,4.58257569495584,0,1,1,4.58257569495584,0" fill="#1cb5b0" stroke-width="3" opacity="1"></path><path aria-label="Month: June; Dodge: 399; Integration invoice: Radon" role="graphics-symbol" aria-roledescription="point" transform="translate(293.5,77.23076923076924)" d="M4.58257569495584,0A4.58257569495584,4.58257569495584,0,1,1,-4.58257569495584,0A4.58257569495584,4.58257569495584,0,1,1,4.58257569495584,0" fill="#1cb5b0" stroke-width="3" opacity="1"></path><path aria-label="Month: July; Dodge: 41; Integration invoice: Radon" role="graphics-symbol" aria-roledescription="point" transform="translate(346.8636363636364,187.3846153846154)" d="M4.58257569495584,0A4.58257569495584,4.58257569495584,0,1,1,-4.58257569495584,0A4.58257569495584,4.58257569495584,0,1,1,4.58257569495584,0" fill="#1cb5b0" stroke-width="3" opacity="1"></path><path aria-label="Month: Aug; Dodge: 409; Integration invoice: Radon" role="graphics-symbol" aria-roledescription="point" transform="translate(400.22727272727275,74.15384615384615)" d="M4.58257569495584,0A4.58257569495584,4.58257569495584,0,1,1,-4.58257569495584,0A4.58257569495584,4.58257569495584,0,1,1,4.58257569495584,0" fill="#1cb5b0" stroke-width="3" opacity="1"></path><path aria-label="Month: Sep; Dodge: 261; Integration invoice: Radon" role="graphics-symbol" aria-roledescription="point" transform="translate(453.5909090909091,119.6923076923077)" d="M4.58257569495584,0A4.58257569495584,4.58257569495584,0,1,1,-4.58257569495584,0A4.58257569495584,4.58257569495584,0,1,1,4.58257569495584,0" fill="#1cb5b0" stroke-width="3" opacity="1"></path><path aria-label="Month: Oct; Dodge: 494; Integration invoice: Radon" role="graphics-symbol" aria-roledescription="point" transform="translate(506.9545454545455,48)" d="M4.58257569495584,0A4.58257569495584,4.58257569495584,0,1,1,-4.58257569495584,0A4.58257569495584,4.58257569495584,0,1,1,4.58257569495584,0" fill="#1cb5b0" stroke-width="3" opacity="1"></path><path aria-label="Month: Nov; Dodge: 498; Integration invoice: Radon" role="graphics-symbol" aria-roledescription="point" transform="translate(560.3181818181818,46.76923076923076)" d="M4.58257569495584,0A4.58257569495584,4.58257569495584,0,1,1,-4.58257569495584,0A4.58257569495584,4.58257569495584,0,1,1,4.58257569495584,0" fill="#1cb5b0" stroke-width="3" opacity="1"></path></g><g class="mark-text role-mark layer_2_marks" role="graphics-object" aria-roledescription="text mark container"><text aria-label="Month: Jan; Dodge: 178" role="graphics-symbol" aria-roledescription="text mark" text-anchor="middle" transform="translate(26.681818181818187,163.23076923076923)" font-family="avenir" font-size="10px" fill="#fff" opacity="1">178</text><text aria-label="Month: Feb; Dodge: 609" role="graphics-symbol" aria-roledescription="text mark" text-anchor="middle" transform="translate(80.04545454545456,30.615384615384606)" font-family="avenir" font-size="10px" fill="#fff" opacity="1">609</text><text aria-label="Month: Mar; Dodge: 580" role="graphics-symbol" aria-roledescription="text mark" text-anchor="middle" transform="translate(133.40909090909093,39.53846153846153)" font-family="avenir" font-size="10px" fill="#fff" opacity="1">580</text><text aria-label="Month: Apr; Dodge: 386" role="graphics-symbol" aria-roledescription="text mark" text-anchor="middle" transform="translate(186.77272727272728,99.23076923076924)" font-family="avenir" font-size="10px" fill="#fff" opacity="1">386</text><text aria-label="Month: May; Dodge: 207" role="graphics-symbol" aria-roledescription="text mark" text-anchor="middle" transform="translate(240.13636363636365,154.30769230769232)" font-family="avenir" font-size="10px" fill="#fff" opacity="1">207</text><text aria-label="Month: June; Dodge: 399" role="graphics-symbol" aria-roledescription="text mark" text-anchor="middle" transform="translate(293.5,95.23076923076924)" font-family="avenir" font-size="10px" fill="#fff" opacity="1">399</text><text aria-label="Month: July; Dodge: 41" role="graphics-symbol" aria-roledescription="text mark" text-anchor="middle" transform="translate(346.8636363636364,205.3846153846154)" font-family="avenir" font-size="10px" fill="#fff" opacity="1">41</text><text aria-label="Month: Aug; Dodge: 409" role="graphics-symbol" aria-roledescription="text mark" text-anchor="middle" transform="translate(400.22727272727275,92.15384615384615)" font-family="avenir" font-size="10px" fill="#fff" opacity="1">409</text><text aria-label="Month: Sep; Dodge: 261" role="graphics-symbol" aria-roledescription="text mark" text-anchor="middle" transform="translate(453.5909090909091,137.69230769230768)" font-family="avenir" font-size="10px" fill="#fff" opacity="1">261</text><text aria-label="Month: Oct; Dodge: 494" role="graphics-symbol" aria-roledescription="text mark" text-anchor="middle" transform="translate(506.9545454545455,66)" font-family="avenir" font-size="10px" fill="#fff" opacity="1">494</text><text aria-label="Month: Nov; Dodge: 498" role="graphics-symbol" aria-roledescription="text mark" text-anchor="middle" transform="translate(560.3181818181818,64.76923076923076)" font-family="avenir" font-size="10px" fill="#fff" opacity="1">498</text></g><g class="mark-group role-title"><g transform="translate(293.5,-29)"><path class="background" aria-hidden="true" d="M0,0h0v0h0Z" pointer-events="none"></path><g><g class="mark-text role-title-text" role="graphics-symbol" aria-roledescription="title" aria-label="Title text 'Intersex Forward'" pointer-events="none"><text text-anchor="middle" transform="translate(0,20)" font-family="avenir" font-size="25px" font-weight="bold" fill="#fff" opacity="1">Intersex Forward</text></g></g><path class="foreground" aria-hidden="true" d="" pointer-events="none" display="none"></path></g></g></g><path class="foreground" aria-hidden="true" d="" display="none"></path></g></g></g></svg>