<svg xmlns="http://www.w3.org/2000/svg" xmlns:xlink="http://www.w3.org/1999/xlink" version="1.1" class="marks" width="587" height="290" viewBox="0 0 587 290" style="background-color: rgb(51, 51, 51);"><g fill="none" stroke-miterlimit="10" transform="translate(22,58)"><g class="mark-group role-frame root" role="graphics-object" aria-roledescription="group mark container"><g transform="translate(0,0)"><path class="background" aria-hidden="true" d="M0.5,0.5h560v200h-560Z" fill="transparent" stroke="#ddd"></path><g><g class="mark-group role-axis" aria-hidden="true"><g transform="translate(0.5,200.5)"><path class="background" aria-hidden="true" d="M0,0h0v0h0Z" pointer-events="none"></path><g><g class="mark-rule role-axis-grid" pointer-events="none"><line transform="translate(28,-200)" x2="0" y2="200" stroke="#747474" stroke-width="1" stroke-dasharray="1,0" opacity="1"></line><line transform="translate(84,-200)" x2="0" y2="200" stroke="#747474" stroke-width="1" stroke-dasharray="1,0" opacity="1"></line><line transform="translate(140,-200)" x2="0" y2="200" stroke="#747474" stroke-width="1" stroke-dasharray="1,0" opacity="1"></line><line transform="translate(196,-200)" x2="0" y2="200" stroke="#747474" stroke-width="1" stroke-dasharray="1,0" opacity="1"></line><line transform="translate(252,-200)" x2="0" y2="200" stroke="#747474" stroke-width="1" stroke-dasharray="1,0" opacity="1"></line><line transform="translate(308,-200)" x2="0" y2="200" stroke="#747474" stroke-width="1" stroke-dasharray="1,0" opacity="1"></line><line transform="translate(364,-200)" x2="0" y2="200" stroke="#747474" stroke-width="1" stroke-dasharray="1,0" opacity="1"></line><line transform="translate(420,-200)" x2="0" y2="200" stroke="#747474" stroke-width="1" stroke-dasharray="1,0" opacity="1"></line><line transform="translate(476,-200)" x2="0" y2="200" stroke="#747474" stroke-width="1" stroke-dasharray="1,0" opacity="1"></line><line transform="translate(532,-200)" x2="0" y2="200" stroke="#747474" stroke-width="1" stroke-dasharray="1,0" opacity="1"></line></g></g><path class="foreground" aria-hidden="true" d="" pointer-events="none" display="none"></path></g></g><g class="mark-group role-axis" aria-hidden="true"><g transform="translate(0.5,0.5)"><path class="background" aria-hidden="true" d="M0,0h0v0h0Z" pointer-events="none"></path><g><g class="mark-rule role-axis-grid" pointer-events="none"><line transform="translate(0,200)" x2="560" y2="0" stroke="#747474" stroke-width="1" stroke-dasharray="1,0" opacity="1"></line><line transform="translate(0,169)" x2="560" y2="0" stroke="#747474" stroke-width="1" stroke-dasharray="1,0" opacity="1"></line><line transform="translate(0,138)" x2="560" y2="0" stroke="#747474" stroke-width="1" stroke-dasharray="1,0" opacity="1"></line><line transform="translate(0,108)" x2="560" y2="0" stroke="#747474" stroke-width="1" stroke-dasharray="1,0" opacity="1"></line><line transform="translate(0,77)" x2="560" y2="0" stroke="#747474" stroke-width="1" stroke-dasharray="1,0" opacity="1"></line><line transform="translate(0,46)" x2="560" y2="0" stroke="#747474" stroke-width="1" stroke-dasharray="1,0" opacity="1"></line><line transform="translate(0,15)" x2="560" y2="0" stroke="#747474" stroke-width="1" stroke-dasharray="1,0" opacity="1"></line></g></g><path class="foreground" aria-hidden="true" d="" pointer-events="none" display="none"></path></g></g><g class="mark-group role-axis" role="graphics-symbol" aria-roledescription="axis" aria-label="X-axis for a discrete scale with 10 values: 1704, 1705, 1706, 1707, 1708, ending with 1713"><g transform="translate(0.5,200.5)"><path class="background" aria-hidden="true" d="M0,0h0v0h0Z" pointer-events="none"></path><g><g class="mark-rule role-axis-tick" pointer-events="none"><line transform="translate(28,0)" x2="0" y2="5" stroke="#888" stroke-width="1" opacity="1"></line><line transform="translate(84,0)" x2="0" y2="5" stroke="#888" stroke-width="1" opacity="1"></line><line transform="translate(140,0)" x2="0" y2="5" stroke="#888" stroke-width="1" opacity="1"></line><line transform="translate(196,0)" x2="0" y2="5" stroke="#888" stroke-width="1" opacity="1"></line><line transform="translate(252,0)" x2="0" y2="5" stroke="#888" stroke-width="1" opacity="1"></line><line transform="translate(308,0)" x2="0" y2="5" stroke="#888" stroke-width="1" opacity="1"></line><line transform="translate(364,0)" x2="0" y2="5" stroke="#888" stroke-width="1" opacity="1"></line><line transform="translate(420,0)" x2="0" y2="5" stroke="#888" stroke-width="1" opacity="1"></line><line transform="translate(476,0)" x2="0" y2="5" stroke="#888" stroke-width="1" opacity="1"></line><line transform="translate(532,0)" x2="0" y2="5" stroke="#888" stroke-width="1" opacity="1"></line></g><g class="mark-text role-axis-label" pointer-events="none"><text text-anchor="start" transform="translate(28,7) rotate(90) translate(0,3)" font-family="Balto" font-size="10px" font-weight="bold" fill="#fff" opacity="1">1704</text><text text-anchor="start" transform="translate(84,7) rotate(90) translate(0,3)" font-family="Balto" font-size="10px" font-weight="bold" fill="#fff" opacity="1">1705</text><text text-anchor="start" transform="translate(140,7) rotate(90) translate(0,3)" font-family="Balto" font-size="10px" font-weight="bold" fill="#fff" opacity="1">1706</text><text text-anchor="start" transform="translate(196,7) rotate(90) translate(0,3)" font-family="Balto" font-size="10px" font-weight="bold" fill="#fff" opacity="1">1707</text><text text-anchor="start" transform="translate(252,7) rotate(90) translate(0,3)" font-family="Balto" font-size="10px" font-weight="bold" fill="#fff" opacity="1">1708</text><text text-anchor="start" transform="translate(308,7) rotate(90) translate(0,3)" font-family="Balto" font-size="10px" font-weight="bold" fill="#fff" opacity="1">1709</text><text text-anchor="start" transform="translate(364,7) rotate(90) translate(0,3)" font-family="Balto" font-size="10px" font-weight="bold" fill="#fff" opacity="1">1710</text><text text-anchor="start" transform="translate(420,7) rotate(90) translate(0,3)" font-family="Balto" font-size="10px" font-weight="bold" fill="#fff" opacity="1">1711</text><text text-anchor="start" transform="translate(476,7) rotate(90) translate(0,3)" font-family="Balto" font-size="10px" font-weight="bold" fill="#fff" opacity="1">1712</text><text text-anchor="start" transform="translate(532,7) rotate(90) translate(0,3)" font-family="Balto" font-size="10px" font-weight="bold" fill="#fff" opacity="1">1713</text></g><g class="mark-rule role-axis-domain" pointer-events="none"><line transform="translate(0,0)" x2="560" y2="0" stroke="#888" stroke-width="1" opacity="1"></line></g></g><path class="foreground" aria-hidden="true" d="" pointer-events="none" display="none"></path></g></g><g class="mark-group role-axis" role="graphics-symbol" aria-roledescription="axis" aria-label="Y-axis for a linear scale with values from 0 to 650"><g transform="translate(0.5,0.5)"><path class="background" aria-hidden="true" d="M0,0h0v0h0Z" pointer-events="none"></path><g><g class="mark-rule role-axis-tick" pointer-events="none"><line transform="translate(0,200)" x2="-5" y2="0" stroke="#888" stroke-width="1" opacity="1"></line><line transform="translate(0,169)" x2="-5" y2="0" stroke="#888" stroke-width="1" opacity="1"></line><line transform="translate(0,138)" x2="-5" y2="0" stroke="#888" stroke-width="1" opacity="1"></line><line transform="translate(0,108)" x2="-5" y2="0" stroke="#888" stroke-width="1" opacity="1"></line><line transform="translate(0,77)" x2="-5" y2="0" stroke="#888" stroke-width="1" opacity="1"></line><line transform="translate(0,46)" x2="-5" y2="0" stroke="#888" stroke-width="1" opacity="1"></line><line transform="translate(0,15)" x2="-5" y2="0" stroke="#888" stroke-width="1" opacity="1"></line></g><g class="mark-text role-axis-label" pointer-events="none"><text text-anchor="middle" transform="translate(-7,200) rotate(90) translate(0,8)" font-family="Balto" font-size="10px" font-weight="bold" fill="#fff" opacity="1">0</text><text text-anchor="middle" transform="translate(-7,169.23076923076923) rotate(90) translate(0,8)" font-family="Balto" font-size="10px" font-weight="bold" fill="#fff" opacity="1">100</text><text text-anchor="middle" transform="translate(-7,138.46153846153845) rotate(90) translate(0,8)" font-family="Balto" font-size="10px" font-weight="bold" fill="#fff" opacity="1">200</text><text text-anchor="middle" transform="translate(-7,107.6923076923077) rotate(90) translate(0,8)" font-family="Balto" font-size="10px" font-weight="bold" fill="#fff" opacity="1">300</text><text text-anchor="middle" transform="translate(-7,76.92307692307692) rotate(90) translate(0,8)" font-family="Balto" font-size="10px" font-weight="bold" fill="#fff" opacity="1">400</text><text text-anchor="middle" transform="translate(-7,46.153846153846146) rotate(90) translate(0,8)" font-family="Balto" font-size="10px" font-weight="bold" fill="#fff" opacity="1">500</text><text text-anchor="middle" transform="translate(-7,15.384615384615374) rotate(90) translate(0,8)" font-family="Balto" font-size="10px" font-weight="bold" fill="#fff" opacity="1">600</text></g><g class="mark-rule role-axis-domain" pointer-events="none"><line transform="translate(0,200)" x2="0" y2="-200" stroke="#888" stroke-width="1" opacity="1"></line></g></g><path class="foreground" aria-hidden="true" d="" pointer-events="none" display="none"></path></g></g><g class="mark-group role-scope layer_0_pathgroup" role="graphics-object" aria-roledescription="group mark container"><g transform="translate(0,0)"><path class="background" aria-hidden="true" d="M0,0h560v200h-560Z"></path><g><g class="mark-line role-mark layer_0_marks" role="graphics-object" aria-roledescription="line mark container"><path aria-label="Year: 1704; Incredible microchip: 151; Roentgenium Licensed: embrace besides schlepp" role="graphics-symbol" aria-roledescription="line mark" d="M28,153.53846153846155L84,117.23076923076923L140,162.46153846153845L196,152.6153846153846L252,34.769230769230774L308,75.07692307692308L364,47.6923076923077L420,142.76923076923077L476,7.0769230769230695L532,17.846153846153847" stroke="#5aefcc" stroke-width="2" stroke-dasharray="8,4"></path></g></g><path class="foreground" aria-hidden="true" d="" display="none"></path></g></g><g class="mark-symbol role-mark layer_1_marks" role="graphics-object" aria-roledescription="symbol mark container"><path aria-label="Year: 1704; Incredible microchip: 151; Roentgenium Licensed: embrace besides schlepp" role="graphics-symbol" aria-roledescription="point" transform="translate(28,153.53846153846155)" d="M2.7386127875258306,0A2.7386127875258306,2.7386127875258306,0,1,1,-2.7386127875258306,0A2.7386127875258306,2.7386127875258306,0,1,1,2.7386127875258306,0" fill="#333333" stroke="#5aefcc" stroke-width="4" opacity="1"></path><path aria-label="Year: 1705; Incredible microchip: 269; Roentgenium Licensed: embrace besides schlepp" role="graphics-symbol" aria-roledescription="point" transform="translate(84,117.23076923076923)" d="M2.7386127875258306,0A2.7386127875258306,2.7386127875258306,0,1,1,-2.7386127875258306,0A2.7386127875258306,2.7386127875258306,0,1,1,2.7386127875258306,0" fill="#333333" stroke="#5aefcc" stroke-width="4" opacity="1"></path><path aria-label="Year: 1706; Incredible microchip: 122; Roentgenium Licensed: embrace besides schlepp" role="graphics-symbol" aria-roledescription="point" transform="translate(140,162.46153846153845)" d="M2.7386127875258306,0A2.7386127875258306,2.7386127875258306,0,1,1,-2.7386127875258306,0A2.7386127875258306,2.7386127875258306,0,1,1,2.7386127875258306,0" fill="#333333" stroke="#5aefcc" stroke-width="4" opacity="1"></path><path aria-label="Year: 1707; Incredible microchip: 154; Roentgenium Licensed: embrace besides schlepp" role="graphics-symbol" aria-roledescription="point" transform="translate(196,152.6153846153846)" d="M2.7386127875258306,0A2.7386127875258306,2.7386127875258306,0,1,1,-2.7386127875258306,0A2.7386127875258306,2.7386127875258306,0,1,1,2.7386127875258306,0" fill="#333333" stroke="#5aefcc" stroke-width="4" opacity="1"></path><path aria-label="Year: 1708; Incredible microchip: 537; Roentgenium Licensed: embrace besides schlepp" role="graphics-symbol" aria-roledescription="point" transform="translate(252,34.769230769230774)" d="M2.7386127875258306,0A2.7386127875258306,2.7386127875258306,0,1,1,-2.7386127875258306,0A2.7386127875258306,2.7386127875258306,0,1,1,2.7386127875258306,0" fill="#333333" stroke="#5aefcc" stroke-width="4" opacity="1"></path><path aria-label="Year: 1709; Incredible microchip: 406; Roentgenium Licensed: embrace besides schlepp" role="graphics-symbol" aria-roledescription="point" transform="translate(308,75.07692307692308)" d="M2.7386127875258306,0A2.7386127875258306,2.7386127875258306,0,1,1,-2.7386127875258306,0A2.7386127875258306,2.7386127875258306,0,1,1,2.7386127875258306,0" fill="#333333" stroke="#5aefcc" stroke-width="4" opacity="1"></path><path aria-label="Year: 1710; Incredible microchip: 495; Roentgenium Licensed: embrace besides schlepp" role="graphics-symbol" aria-roledescription="point" transform="translate(364,47.6923076923077)" d="M2.7386127875258306,0A2.7386127875258306,2.7386127875258306,0,1,1,-2.7386127875258306,0A2.7386127875258306,2.7386127875258306,0,1,1,2.7386127875258306,0" fill="#333333" stroke="#5aefcc" stroke-width="4" opacity="1"></path><path aria-label="Year: 1711; Incredible microchip: 186; Roentgenium Licensed: embrace besides schlepp" role="graphics-symbol" aria-roledescription="point" transform="translate(420,142.76923076923077)" d="M2.7386127875258306,0A2.7386127875258306,2.7386127875258306,0,1,1,-2.7386127875258306,0A2.7386127875258306,2.7386127875258306,0,1,1,2.7386127875258306,0" fill="#333333" stroke="#5aefcc" stroke-width="4" opacity="1"></path><path aria-label="Year: 1712; Incredible microchip: 627; Roentgenium Licensed: embrace besides schlepp" role="graphics-symbol" aria-roledescription="point" transform="translate(476,7.0769230769230695)" d="M2.7386127875258306,0A2.7386127875258306,2.7386127875258306,0,1,1,-2.7386127875258306,0A2.7386127875258306,2.7386127875258306,0,1,1,2.7386127875258306,0" fill="#333333" stroke="#5aefcc" stroke-width="4" opacity="1"></path><path aria-label="Year: 1713; Incredible microchip: 592; Roentgenium Licensed: embrace besides schlepp" role="graphics-symbol" aria-roledescription="point" transform="translate(532,17.846153846153847)" d="M2.7386127875258306,0A2.7386127875258306,2.7386127875258306,0,1,1,-2.7386127875258306,0A2.7386127875258306,2.7386127875258306,0,1,1,2.7386127875258306,0" fill="#333333" stroke="#5aefcc" stroke-width="4" opacity="1"></path></g><g class="mark-text role-mark layer_2_marks" role="graphics-object" aria-roledescription="text mark container"><text aria-label="Year: 1704; Incredible microchip: 151" role="graphics-symbol" aria-roledescription="text mark" text-anchor="middle" transform="translate(28,132.53846153846155)" font-family="Balto" font-size="13px" fill="#fff" opacity="1">151</text><text aria-label="Year: 1705; Incredible microchip: 269" role="graphics-symbol" aria-roledescription="text mark" text-anchor="middle" transform="translate(84,96.23076923076923)" font-family="Balto" font-size="13px" fill="#fff" opacity="1">269</text><text aria-label="Year: 1706; Incredible microchip: 122" role="graphics-symbol" aria-roledescription="text mark" text-anchor="middle" transform="translate(140,141.46153846153845)" font-family="Balto" font-size="13px" fill="#fff" opacity="1">122</text><text aria-label="Year: 1707; Incredible microchip: 154" role="graphics-symbol" aria-roledescription="text mark" text-anchor="middle" transform="translate(196,131.6153846153846)" font-family="Balto" font-size="13px" fill="#fff" opacity="1">154</text><text aria-label="Year: 1708; Incredible microchip: 537" role="graphics-symbol" aria-roledescription="text mark" text-anchor="middle" transform="translate(252,13.769230769230774)" font-family="Balto" font-size="13px" fill="#fff" opacity="1">537</text><text aria-label="Year: 1709; Incredible microchip: 406" role="graphics-symbol" aria-roledescription="text mark" text-anchor="middle" transform="translate(308,54.07692307692308)" font-family="Balto" font-size="13px" fill="#fff" opacity="1">406</text><text aria-label="Year: 1710; Incredible microchip: 495" role="graphics-symbol" aria-roledescription="text mark" text-anchor="middle" transform="translate(364,26.6923076923077)" font-family="Balto" font-size="13px" fill="#fff" opacity="1">495</text><text aria-label="Year: 1711; Incredible microchip: 186" role="graphics-symbol" aria-roledescription="text mark" text-anchor="middle" transform="translate(420,121.76923076923077)" font-family="Balto" font-size="13px" fill="#fff" opacity="1">186</text><text aria-label="Year: 1712; Incredible microchip: 627" role="graphics-symbol" aria-roledescription="text mark" text-anchor="middle" transform="translate(476,-13.92307692307693)" font-family="Balto" font-size="13px" fill="#fff" opacity="1">627</text><text aria-label="Year: 1713; Incredible microchip: 592" role="graphics-symbol" aria-roledescription="text mark" text-anchor="middle" transform="translate(532,-3.1538461538461533)" font-family="Balto" font-size="13px" fill="#fff" opacity="1">592</text></g><g class="mark-group role-title"><g transform="translate(560,-52.923076923076934)"><path class="background" aria-hidden="true" d="M0,0h0v0h0Z" pointer-events="none"></path><g><g class="mark-text role-title-text" role="graphics-symbol" aria-roledescription="title" aria-label="Title text 'West shyly cruelly'" pointer-events="none"><text text-anchor="end" transform="translate(0,20)" font-family="Balto" font-size="25px" font-weight="bold" fill="#fff" opacity="1">West shyly cruelly</text></g></g><path class="foreground" aria-hidden="true" d="" pointer-events="none" display="none"></path></g></g></g><path class="foreground" aria-hidden="true" d="" display="none"></path></g></g></g></svg>