<svg xmlns="http://www.w3.org/2000/svg" xmlns:xlink="http://www.w3.org/1999/xlink" version="1.1" class="marks" width="836" height="278" viewBox="0 0 836 278" style="background-color: rgb(255, 255, 255);"><g fill="none" stroke-miterlimit="10" transform="translate(28,55)"><g class="mark-group role-frame root" role="graphics-object" aria-roledescription="group mark container"><g transform="translate(0,0)"><path class="background" aria-hidden="true" d="M0.5,0.5h803v200h-803Z" fill="transparent" stroke="#ddd"></path><g><g class="mark-group role-axis" role="graphics-symbol" aria-roledescription="axis" aria-label="X-axis for a discrete scale with 11 values: 1748, 1749, 1750, 1751, 1752, ending with 1758"><g transform="translate(0.5,200.5)"><path class="background" aria-hidden="true" d="M0,0h0v0h0Z" pointer-events="none"></path><g><g class="mark-rule role-axis-tick" pointer-events="none"><line transform="translate(37,0)" x2="0" y2="5" stroke="#888" stroke-width="1" opacity="1"></line><line transform="translate(110,0)" x2="0" y2="5" stroke="#888" stroke-width="1" opacity="1"></line><line transform="translate(183,0)" x2="0" y2="5" stroke="#888" stroke-width="1" opacity="1"></line><line transform="translate(256,0)" x2="0" y2="5" stroke="#888" stroke-width="1" opacity="1"></line><line transform="translate(329,0)" x2="0" y2="5" stroke="#888" stroke-width="1" opacity="1"></line><line transform="translate(402,0)" x2="0" y2="5" stroke="#888" stroke-width="1" opacity="1"></line><line transform="translate(475,0)" x2="0" y2="5" stroke="#888" stroke-width="1" opacity="1"></line><line transform="translate(548,0)" x2="0" y2="5" stroke="#888" stroke-width="1" opacity="1"></line><line transform="translate(621,0)" x2="0" y2="5" stroke="#888" stroke-width="1" opacity="1"></line><line transform="translate(694,0)" x2="0" y2="5" stroke="#888" stroke-width="1" opacity="1"></line><line transform="translate(767,0)" x2="0" y2="5" stroke="#888" stroke-width="1" opacity="1"></line></g><g class="mark-text role-axis-label" pointer-events="none"><text text-anchor="middle" transform="translate(36.5,16)" font-family="sans-serif" font-size="12px" font-weight="bold" fill="#000" opacity="1">1748</text><text text-anchor="middle" transform="translate(109.5,16)" font-family="sans-serif" font-size="12px" font-weight="bold" fill="#000" opacity="1">1749</text><text text-anchor="middle" transform="translate(182.5,16)" font-family="sans-serif" font-size="12px" font-weight="bold" fill="#000" opacity="1">1750</text><text text-anchor="middle" transform="translate(255.5,16)" font-family="sans-serif" font-size="12px" font-weight="bold" fill="#000" opacity="1">1751</text><text text-anchor="middle" transform="translate(328.5,16)" font-family="sans-serif" font-size="12px" font-weight="bold" fill="#000" opacity="1">1752</text><text text-anchor="middle" transform="translate(401.5,16)" font-family="sans-serif" font-size="12px" font-weight="bold" fill="#000" opacity="1">1753</text><text text-anchor="middle" transform="translate(474.5,16)" font-family="sans-serif" font-size="12px" font-weight="bold" fill="#000" opacity="1">1754</text><text text-anchor="middle" transform="translate(547.5,16)" font-family="sans-serif" font-size="12px" font-weight="bold" fill="#000" opacity="1">1755</text><text text-anchor="middle" transform="translate(620.5,16)" font-family="sans-serif" font-size="12px" font-weight="bold" fill="#000" opacity="1">1756</text><text text-anchor="middle" transform="translate(693.5,16)" font-family="sans-serif" font-size="12px" font-weight="bold" fill="#000" opacity="1">1757</text><text text-anchor="middle" transform="translate(766.5,16)" font-family="sans-serif" font-size="12px" font-weight="bold" fill="#000" opacity="1">1758</text></g><g class="mark-rule role-axis-domain" pointer-events="none"><line transform="translate(0,0)" x2="803" y2="0" stroke="#888" stroke-width="1" opacity="1"></line></g></g><path class="foreground" aria-hidden="true" d="" pointer-events="none" display="none"></path></g></g><g class="mark-group role-axis" role="graphics-symbol" aria-roledescription="axis" aria-label="Y-axis for a linear scale with values from 0 to 500"><g transform="translate(0.5,0.5)"><path class="background" aria-hidden="true" d="M0,0h0v0h0Z" pointer-events="none"></path><g><g class="mark-text role-axis-label" pointer-events="none"><text text-anchor="end" transform="translate(-2,204)" font-family="sans-serif" font-size="12px" font-weight="bold" fill="#000" opacity="1">0</text><text text-anchor="end" transform="translate(-2,164)" font-family="sans-serif" font-size="12px" font-weight="bold" fill="#000" opacity="1">100</text><text text-anchor="end" transform="translate(-2,124)" font-family="sans-serif" font-size="12px" font-weight="bold" fill="#000" opacity="1">200</text><text text-anchor="end" transform="translate(-2,84)" font-family="sans-serif" font-size="12px" font-weight="bold" fill="#000" opacity="1">300</text><text text-anchor="end" transform="translate(-2,43.99999999999999)" font-family="sans-serif" font-size="12px" font-weight="bold" fill="#000" opacity="1">400</text><text text-anchor="end" transform="translate(-2,4)" font-family="sans-serif" font-size="12px" font-weight="bold" fill="#000" opacity="1">500</text></g></g><path class="foreground" aria-hidden="true" d="" pointer-events="none" display="none"></path></g></g><g class="mark-group role-scope layer_0_pathgroup" role="graphics-object" aria-roledescription="group mark container"><g transform="translate(0,0)"><path class="background" aria-hidden="true" d="M0,0h803v200h-803Z"></path><g><g class="mark-line role-mark layer_0_marks" role="graphics-object" aria-roledescription="line mark container"><path aria-label="Year: 1748; North Jewelery: 452; tesla poverty: Unbranded Manganese" role="graphics-symbol" aria-roledescription="line mark" d="M36.5,19.199999999999996L109.5,29.600000000000005L182.5,18.399999999999995L255.5,178.8L328.5,54L401.5,53.2L474.5,6.000000000000005L547.5,56.00000000000001L620.5,39.599999999999994L693.5,82.80000000000001L766.5,34.400000000000006" stroke="#d4881a" stroke-width="2" stroke-dasharray="8,4"></path></g></g><path class="foreground" aria-hidden="true" d="" display="none"></path></g></g><g class="mark-symbol role-mark layer_1_marks" role="graphics-object" aria-roledescription="symbol mark container"><path aria-label="Year: 1748; North Jewelery: 452; tesla poverty: Unbranded Manganese" role="graphics-symbol" aria-roledescription="point" transform="translate(36.5,19.199999999999996)" d="M2.5495097567963922,0A2.5495097567963922,2.5495097567963922,0,1,1,-2.5495097567963922,0A2.5495097567963922,2.5495097567963922,0,1,1,2.5495097567963922,0" fill="#d4881a" stroke-width="2" opacity="1"></path><path aria-label="Year: 1749; North Jewelery: 426; tesla poverty: Unbranded Manganese" role="graphics-symbol" aria-roledescription="point" transform="translate(109.5,29.600000000000005)" d="M2.5495097567963922,0A2.5495097567963922,2.5495097567963922,0,1,1,-2.5495097567963922,0A2.5495097567963922,2.5495097567963922,0,1,1,2.5495097567963922,0" fill="#d4881a" stroke-width="2" opacity="1"></path><path aria-label="Year: 1750; North Jewelery: 454; tesla poverty: Unbranded Manganese" role="graphics-symbol" aria-roledescription="point" transform="translate(182.5,18.399999999999995)" d="M2.5495097567963922,0A2.5495097567963922,2.5495097567963922,0,1,1,-2.5495097567963922,0A2.5495097567963922,2.5495097567963922,0,1,1,2.5495097567963922,0" fill="#d4881a" stroke-width="2" opacity="1"></path><path aria-label="Year: 1751; North Jewelery: 53; tesla poverty: Unbranded Manganese" role="graphics-symbol" aria-roledescription="point" transform="translate(255.5,178.8)" d="M2.5495097567963922,0A2.5495097567963922,2.5495097567963922,0,1,1,-2.5495097567963922,0A2.5495097567963922,2.5495097567963922,0,1,1,2.5495097567963922,0" fill="#d4881a" stroke-width="2" opacity="1"></path><path aria-label="Year: 1752; North Jewelery: 365; tesla poverty: Unbranded Manganese" role="graphics-symbol" aria-roledescription="point" transform="translate(328.5,54)" d="M2.5495097567963922,0A2.5495097567963922,2.5495097567963922,0,1,1,-2.5495097567963922,0A2.5495097567963922,2.5495097567963922,0,1,1,2.5495097567963922,0" fill="#d4881a" stroke-width="2" opacity="1"></path><path aria-label="Year: 1753; North Jewelery: 367; tesla poverty: Unbranded Manganese" role="graphics-symbol" aria-roledescription="point" transform="translate(401.5,53.2)" d="M2.5495097567963922,0A2.5495097567963922,2.5495097567963922,0,1,1,-2.5495097567963922,0A2.5495097567963922,2.5495097567963922,0,1,1,2.5495097567963922,0" fill="#d4881a" stroke-width="2" opacity="1"></path><path aria-label="Year: 1754; North Jewelery: 485; tesla poverty: Unbranded Manganese" role="graphics-symbol" aria-roledescription="point" transform="translate(474.5,6.000000000000005)" d="M2.5495097567963922,0A2.5495097567963922,2.5495097567963922,0,1,1,-2.5495097567963922,0A2.5495097567963922,2.5495097567963922,0,1,1,2.5495097567963922,0" fill="#d4881a" stroke-width="2" opacity="1"></path><path aria-label="Year: 1755; North Jewelery: 360; tesla poverty: Unbranded Manganese" role="graphics-symbol" aria-roledescription="point" transform="translate(547.5,56.00000000000001)" d="M2.5495097567963922,0A2.5495097567963922,2.5495097567963922,0,1,1,-2.5495097567963922,0A2.5495097567963922,2.5495097567963922,0,1,1,2.5495097567963922,0" fill="#d4881a" stroke-width="2" opacity="1"></path><path aria-label="Year: 1756; North Jewelery: 401; tesla poverty: Unbranded Manganese" role="graphics-symbol" aria-roledescription="point" transform="translate(620.5,39.599999999999994)" d="M2.5495097567963922,0A2.5495097567963922,2.5495097567963922,0,1,1,-2.5495097567963922,0A2.5495097567963922,2.5495097567963922,0,1,1,2.5495097567963922,0" fill="#d4881a" stroke-width="2" opacity="1"></path><path aria-label="Year: 1757; North Jewelery: 293; tesla poverty: Unbranded Manganese" role="graphics-symbol" aria-roledescription="point" transform="translate(693.5,82.80000000000001)" d="M2.5495097567963922,0A2.5495097567963922,2.5495097567963922,0,1,1,-2.5495097567963922,0A2.5495097567963922,2.5495097567963922,0,1,1,2.5495097567963922,0" fill="#d4881a" stroke-width="2" opacity="1"></path><path aria-label="Year: 1758; North Jewelery: 414; tesla poverty: Unbranded Manganese" role="graphics-symbol" aria-roledescription="point" transform="translate(766.5,34.400000000000006)" d="M2.5495097567963922,0A2.5495097567963922,2.5495097567963922,0,1,1,-2.5495097567963922,0A2.5495097567963922,2.5495097567963922,0,1,1,2.5495097567963922,0" fill="#d4881a" stroke-width="2" opacity="1"></path></g><g class="mark-text role-mark layer_2_marks" role="graphics-object" aria-roledescription="text mark container"><text aria-label="Year: 1748; North Jewelery: 452" role="graphics-symbol" aria-roledescription="text mark" text-anchor="middle" transform="translate(36.5,4.199999999999996)" font-family="sans-serif" font-size="15px" fill="#000" opacity="1">452</text><text aria-label="Year: 1749; North Jewelery: 426" role="graphics-symbol" aria-roledescription="text mark" text-anchor="middle" transform="translate(109.5,14.600000000000005)" font-family="sans-serif" font-size="15px" fill="#000" opacity="1">426</text><text aria-label="Year: 1750; North Jewelery: 454" role="graphics-symbol" aria-roledescription="text mark" text-anchor="middle" transform="translate(182.5,3.399999999999995)" font-family="sans-serif" font-size="15px" fill="#000" opacity="1">454</text><text aria-label="Year: 1751; North Jewelery: 53" role="graphics-symbol" aria-roledescription="text mark" text-anchor="middle" transform="translate(255.5,163.8)" font-family="sans-serif" font-size="15px" fill="#000" opacity="1">53</text><text aria-label="Year: 1752; North Jewelery: 365" role="graphics-symbol" aria-roledescription="text mark" text-anchor="middle" transform="translate(328.5,39)" font-family="sans-serif" font-size="15px" fill="#000" opacity="1">365</text><text aria-label="Year: 1753; North Jewelery: 367" role="graphics-symbol" aria-roledescription="text mark" text-anchor="middle" transform="translate(401.5,38.2)" font-family="sans-serif" font-size="15px" fill="#000" opacity="1">367</text><text aria-label="Year: 1754; North Jewelery: 485" role="graphics-symbol" aria-roledescription="text mark" text-anchor="middle" transform="translate(474.5,-8.999999999999995)" font-family="sans-serif" font-size="15px" fill="#000" opacity="1">485</text><text aria-label="Year: 1755; North Jewelery: 360" role="graphics-symbol" aria-roledescription="text mark" text-anchor="middle" transform="translate(547.5,41.00000000000001)" font-family="sans-serif" font-size="15px" fill="#000" opacity="1">360</text><text aria-label="Year: 1756; North Jewelery: 401" role="graphics-symbol" aria-roledescription="text mark" text-anchor="middle" transform="translate(620.5,24.599999999999994)" font-family="sans-serif" font-size="15px" fill="#000" opacity="1">401</text><text aria-label="Year: 1757; North Jewelery: 293" role="graphics-symbol" aria-roledescription="text mark" text-anchor="middle" transform="translate(693.5,67.80000000000001)" font-family="sans-serif" font-size="15px" fill="#000" opacity="1">293</text><text aria-label="Year: 1758; North Jewelery: 414" role="graphics-symbol" aria-roledescription="text mark" text-anchor="middle" transform="translate(766.5,19.400000000000006)" font-family="sans-serif" font-size="15px" fill="#000" opacity="1">414</text></g><g class="mark-group role-title"><g transform="translate(-22.021484375,-49.99999999999999)"><path class="background" aria-hidden="true" d="M0,0h0v0h0Z" pointer-events="none"></path><g><g class="mark-text role-title-text" role="graphics-symbol" aria-roledescription="title" aria-label="Title text 'withdrawal'" pointer-events="none"><text text-anchor="start" transform="translate(0,20)" font-family="sans-serif" font-size="25px" font-weight="bold" fill="#000" opacity="1">withdrawal</text></g></g><path class="foreground" aria-hidden="true" d="" pointer-events="none" display="none"></path></g></g></g><path class="foreground" aria-hidden="true" d="" display="none"></path></g></g></g></svg>