<svg xmlns="http://www.w3.org/2000/svg" xmlns:xlink="http://www.w3.org/1999/xlink" version="1.1" class="marks" width="985" height="276" viewBox="0 0 985 276" style="background-color: rgb(255, 255, 255);"><g fill="none" stroke-miterlimit="10" transform="translate(17,40)"><g class="mark-group role-frame root" role="graphics-object" aria-roledescription="group mark container"><g transform="translate(0,0)"><path class="background" aria-hidden="true" d="M0.5,0.5h963v200h-963Z" fill="transparent" stroke="#ddd"></path><g><g class="mark-group role-axis" aria-hidden="true"><g transform="translate(0.5,200.5)"><path class="background" aria-hidden="true" d="M0,0h0v0h0Z" pointer-events="none"></path><g><g class="mark-rule role-axis-grid" pointer-events="none"><line transform="translate(54,-200)" x2="0" y2="200" stroke="#D0D0D0" stroke-width="1" stroke-dasharray="1,0" opacity="1"></line><line transform="translate(161,-200)" x2="0" y2="200" stroke="#D0D0D0" stroke-width="1" stroke-dasharray="1,0" opacity="1"></line><line transform="translate(268,-200)" x2="0" y2="200" stroke="#D0D0D0" stroke-width="1" stroke-dasharray="1,0" opacity="1"></line><line transform="translate(375,-200)" x2="0" y2="200" stroke="#D0D0D0" stroke-width="1" stroke-dasharray="1,0" opacity="1"></line><line transform="translate(482,-200)" x2="0" y2="200" stroke="#D0D0D0" stroke-width="1" stroke-dasharray="1,0" opacity="1"></line><line transform="translate(589,-200)" x2="0" y2="200" stroke="#D0D0D0" stroke-width="1" stroke-dasharray="1,0" opacity="1"></line><line transform="translate(696,-200)" x2="0" y2="200" stroke="#D0D0D0" stroke-width="1" stroke-dasharray="1,0" opacity="1"></line><line transform="translate(803,-200)" x2="0" y2="200" stroke="#D0D0D0" stroke-width="1" stroke-dasharray="1,0" opacity="1"></line><line transform="translate(910,-200)" x2="0" y2="200" stroke="#D0D0D0" stroke-width="1" stroke-dasharray="1,0" opacity="1"></line></g></g><path class="foreground" aria-hidden="true" d="" pointer-events="none" display="none"></path></g></g><g class="mark-group role-axis" role="graphics-symbol" aria-roledescription="axis" aria-label="X-axis for a discrete scale with 9 values: Jan, Feb, Mar, Apr, May, ending with Sep"><g transform="translate(0.5,200.5)"><path class="background" aria-hidden="true" d="M0,0h0v0h0Z" pointer-events="none"></path><g><g class="mark-rule role-axis-tick" pointer-events="none"><line transform="translate(54,0)" x2="0" y2="5" stroke="#888" stroke-width="1" opacity="1"></line><line transform="translate(161,0)" x2="0" y2="5" stroke="#888" stroke-width="1" opacity="1"></line><line transform="translate(268,0)" x2="0" y2="5" stroke="#888" stroke-width="1" opacity="1"></line><line transform="translate(375,0)" x2="0" y2="5" stroke="#888" stroke-width="1" opacity="1"></line><line transform="translate(482,0)" x2="0" y2="5" stroke="#888" stroke-width="1" opacity="1"></line><line transform="translate(589,0)" x2="0" y2="5" stroke="#888" stroke-width="1" opacity="1"></line><line transform="translate(696,0)" x2="0" y2="5" stroke="#888" stroke-width="1" opacity="1"></line><line transform="translate(803,0)" x2="0" y2="5" stroke="#888" stroke-width="1" opacity="1"></line><line transform="translate(910,0)" x2="0" y2="5" stroke="#888" stroke-width="1" opacity="1"></line></g><g class="mark-text role-axis-label" pointer-events="none"><text text-anchor="start" transform="translate(53.5,7) rotate(90) translate(0,3)" font-family="sans-serif" font-size="10px" font-weight="bold" fill="#000" opacity="1">Jan</text><text text-anchor="start" transform="translate(160.5,7) rotate(90) translate(0,3)" font-family="sans-serif" font-size="10px" font-weight="bold" fill="#000" opacity="1">Feb</text><text text-anchor="start" transform="translate(267.5,7) rotate(90) translate(0,3)" font-family="sans-serif" font-size="10px" font-weight="bold" fill="#000" opacity="1">Mar</text><text text-anchor="start" transform="translate(374.5,7) rotate(90) translate(0,3)" font-family="sans-serif" font-size="10px" font-weight="bold" fill="#000" opacity="1">Apr</text><text text-anchor="start" transform="translate(481.5,7) rotate(90) translate(0,3)" font-family="sans-serif" font-size="10px" font-weight="bold" fill="#000" opacity="1">May</text><text text-anchor="start" transform="translate(588.5,7) rotate(90) translate(0,3)" font-family="sans-serif" font-size="10px" font-weight="bold" fill="#000" opacity="1">June</text><text text-anchor="start" transform="translate(695.5,7) rotate(90) translate(0,3)" font-family="sans-serif" font-size="10px" font-weight="bold" fill="#000" opacity="1">July</text><text text-anchor="start" transform="translate(802.5,7) rotate(90) translate(0,3)" font-family="sans-serif" font-size="10px" font-weight="bold" fill="#000" opacity="1">Aug</text><text text-anchor="start" transform="translate(909.5,7) rotate(90) translate(0,3)" font-family="sans-serif" font-size="10px" font-weight="bold" fill="#000" opacity="1">Sep</text></g><g class="mark-rule role-axis-domain" pointer-events="none"><line transform="translate(0,0)" x2="963" y2="0" stroke="#888" stroke-width="1" opacity="1"></line></g></g><path class="foreground" aria-hidden="true" d="" pointer-events="none" display="none"></path></g></g><g class="mark-group role-axis" role="graphics-symbol" aria-roledescription="axis" aria-label="Y-axis for a linear scale with values from 0 to 80"><g transform="translate(0.5,0.5)"><path class="background" aria-hidden="true" d="M0,0h0v0h0Z" pointer-events="none"></path><g><g class="mark-text role-axis-label" pointer-events="none"><text text-anchor="middle" transform="translate(-2,200) rotate(90) translate(0,8)" font-family="sans-serif" font-size="10px" font-weight="bold" fill="#000" opacity="1">0</text><text text-anchor="middle" transform="translate(-2,150) rotate(90) translate(0,8)" font-family="sans-serif" font-size="10px" font-weight="bold" fill="#000" opacity="1">20</text><text text-anchor="middle" transform="translate(-2,100) rotate(90) translate(0,8)" font-family="sans-serif" font-size="10px" font-weight="bold" fill="#000" opacity="1">40</text><text text-anchor="middle" transform="translate(-2,50) rotate(90) translate(0,8)" font-family="sans-serif" font-size="10px" font-weight="bold" fill="#000" opacity="1">60</text><text text-anchor="middle" transform="translate(-2,0) rotate(90) translate(0,8)" font-family="sans-serif" font-size="10px" font-weight="bold" fill="#000" opacity="1">80</text></g></g><path class="foreground" aria-hidden="true" d="" pointer-events="none" display="none"></path></g></g><g class="mark-group role-scope layer_0_pathgroup" role="graphics-object" aria-roledescription="group mark container"><g transform="translate(0,0)"><path class="background" aria-hidden="true" d="M0,0h963v200h-963Z"></path><g><g class="mark-line role-mark layer_0_marks" role="graphics-object" aria-roledescription="line mark container"><path aria-label="Month: Jan; twitch definition: 17; compressing protocol: Reinhold EXE database" role="graphics-symbol" aria-roledescription="line mark" d="M53.5,157.5L160.5,27.499999999999993L267.5,177.5L374.5,122.50000000000001L481.5,145L588.5,39.99999999999999L695.5,82.5L802.5,165L909.5,10.000000000000009" stroke="#af848c" stroke-width="2" stroke-dasharray="1,0"></path></g></g><path class="foreground" aria-hidden="true" d="" display="none"></path></g></g><g class="mark-symbol role-mark layer_1_marks" role="graphics-object" aria-roledescription="symbol mark container"><path aria-label="Month: Jan; twitch definition: 17; compressing protocol: Reinhold EXE database" role="graphics-symbol" aria-roledescription="point" transform="translate(53.5,157.5)" d="M2.7386127875258306,0A2.7386127875258306,2.7386127875258306,0,1,1,-2.7386127875258306,0A2.7386127875258306,2.7386127875258306,0,1,1,2.7386127875258306,0" fill="#fff" stroke="#af848c" stroke-width="2" opacity="1"></path><path aria-label="Month: Feb; twitch definition: 69; compressing protocol: Reinhold EXE database" role="graphics-symbol" aria-roledescription="point" transform="translate(160.5,27.499999999999993)" d="M2.7386127875258306,0A2.7386127875258306,2.7386127875258306,0,1,1,-2.7386127875258306,0A2.7386127875258306,2.7386127875258306,0,1,1,2.7386127875258306,0" fill="#fff" stroke="#af848c" stroke-width="2" opacity="1"></path><path aria-label="Month: Mar; twitch definition: 9; compressing protocol: Reinhold EXE database" role="graphics-symbol" aria-roledescription="point" transform="translate(267.5,177.5)" d="M2.7386127875258306,0A2.7386127875258306,2.7386127875258306,0,1,1,-2.7386127875258306,0A2.7386127875258306,2.7386127875258306,0,1,1,2.7386127875258306,0" fill="#fff" stroke="#af848c" stroke-width="2" opacity="1"></path><path aria-label="Month: Apr; twitch definition: 31; compressing protocol: Reinhold EXE database" role="graphics-symbol" aria-roledescription="point" transform="translate(374.5,122.50000000000001)" d="M2.7386127875258306,0A2.7386127875258306,2.7386127875258306,0,1,1,-2.7386127875258306,0A2.7386127875258306,2.7386127875258306,0,1,1,2.7386127875258306,0" fill="#fff" stroke="#af848c" stroke-width="2" opacity="1"></path><path aria-label="Month: May; twitch definition: 22; compressing protocol: Reinhold EXE database" role="graphics-symbol" aria-roledescription="point" transform="translate(481.5,145)" d="M2.7386127875258306,0A2.7386127875258306,2.7386127875258306,0,1,1,-2.7386127875258306,0A2.7386127875258306,2.7386127875258306,0,1,1,2.7386127875258306,0" fill="#fff" stroke="#af848c" stroke-width="2" opacity="1"></path><path aria-label="Month: June; twitch definition: 64; compressing protocol: Reinhold EXE database" role="graphics-symbol" aria-roledescription="point" transform="translate(588.5,39.99999999999999)" d="M2.7386127875258306,0A2.7386127875258306,2.7386127875258306,0,1,1,-2.7386127875258306,0A2.7386127875258306,2.7386127875258306,0,1,1,2.7386127875258306,0" fill="#fff" stroke="#af848c" stroke-width="2" opacity="1"></path><path aria-label="Month: July; twitch definition: 47; compressing protocol: Reinhold EXE database" role="graphics-symbol" aria-roledescription="point" transform="translate(695.5,82.5)" d="M2.7386127875258306,0A2.7386127875258306,2.7386127875258306,0,1,1,-2.7386127875258306,0A2.7386127875258306,2.7386127875258306,0,1,1,2.7386127875258306,0" fill="#fff" stroke="#af848c" stroke-width="2" opacity="1"></path><path aria-label="Month: Aug; twitch definition: 14; compressing protocol: Reinhold EXE database" role="graphics-symbol" aria-roledescription="point" transform="translate(802.5,165)" d="M2.7386127875258306,0A2.7386127875258306,2.7386127875258306,0,1,1,-2.7386127875258306,0A2.7386127875258306,2.7386127875258306,0,1,1,2.7386127875258306,0" fill="#fff" stroke="#af848c" stroke-width="2" opacity="1"></path><path aria-label="Month: Sep; twitch definition: 76; compressing protocol: Reinhold EXE database" role="graphics-symbol" aria-roledescription="point" transform="translate(909.5,10.000000000000009)" d="M2.7386127875258306,0A2.7386127875258306,2.7386127875258306,0,1,1,-2.7386127875258306,0A2.7386127875258306,2.7386127875258306,0,1,1,2.7386127875258306,0" fill="#fff" stroke="#af848c" stroke-width="2" opacity="1"></path></g><g class="mark-text role-mark layer_2_marks" role="graphics-object" aria-roledescription="text mark container"><text aria-label="Month: Jan; twitch definition: 17" role="graphics-symbol" aria-roledescription="text mark" text-anchor="middle" transform="translate(53.5,181.5)" font-family="sans-serif" font-size="13px" fill="#000" opacity="1">17</text><text aria-label="Month: Feb; twitch definition: 69" role="graphics-symbol" aria-roledescription="text mark" text-anchor="middle" transform="translate(160.5,51.49999999999999)" font-family="sans-serif" font-size="13px" fill="#000" opacity="1">69</text><text aria-label="Month: Mar; twitch definition: 9" role="graphics-symbol" aria-roledescription="text mark" text-anchor="middle" transform="translate(267.5,201.5)" font-family="sans-serif" font-size="13px" fill="#000" opacity="1">9</text><text aria-label="Month: Apr; twitch definition: 31" role="graphics-symbol" aria-roledescription="text mark" text-anchor="middle" transform="translate(374.5,146.5)" font-family="sans-serif" font-size="13px" fill="#000" opacity="1">31</text><text aria-label="Month: May; twitch definition: 22" role="graphics-symbol" aria-roledescription="text mark" text-anchor="middle" transform="translate(481.5,169)" font-family="sans-serif" font-size="13px" fill="#000" opacity="1">22</text><text aria-label="Month: June; twitch definition: 64" role="graphics-symbol" aria-roledescription="text mark" text-anchor="middle" transform="translate(588.5,63.99999999999999)" font-family="sans-serif" font-size="13px" fill="#000" opacity="1">64</text><text aria-label="Month: July; twitch definition: 47" role="graphics-symbol" aria-roledescription="text mark" text-anchor="middle" transform="translate(695.5,106.5)" font-family="sans-serif" font-size="13px" fill="#000" opacity="1">47</text><text aria-label="Month: Aug; twitch definition: 14" role="graphics-symbol" aria-roledescription="text mark" text-anchor="middle" transform="translate(802.5,189)" font-family="sans-serif" font-size="13px" fill="#000" opacity="1">14</text><text aria-label="Month: Sep; twitch definition: 76" role="graphics-symbol" aria-roledescription="text mark" text-anchor="middle" transform="translate(909.5,34.00000000000001)" font-family="sans-serif" font-size="13px" fill="#000" opacity="1">76</text></g><g class="mark-group role-title"><g transform="translate(-12,-34.5615234375)"><path class="background" aria-hidden="true" d="M0,0h0v0h0Z" pointer-events="none"></path><g><g class="mark-text role-title-text" role="graphics-symbol" aria-roledescription="title" aria-label="Title text 'finally Francium'" pointer-events="none"><text text-anchor="start" transform="translate(0,20)" font-family="sans-serif" font-size="25px" font-weight="bold" fill="#000" opacity="1">finally Francium</text></g></g><path class="foreground" aria-hidden="true" d="" pointer-events="none" display="none"></path></g></g></g><path class="foreground" aria-hidden="true" d="" display="none"></path></g></g></g></svg>