<svg xmlns="http://www.w3.org/2000/svg" xmlns:xlink="http://www.w3.org/1999/xlink" version="1.1" class="marks" width="715" height="278" viewBox="0 0 715 278" style="background-color: rgb(51, 51, 51);"><g fill="none" stroke-miterlimit="10" transform="translate(37,51)"><g class="mark-group role-frame root" role="graphics-object" aria-roledescription="group mark container"><g transform="translate(0,0)"><path class="background" aria-hidden="true" d="M0.5,0.5h673v200h-673Z" fill="transparent" stroke="#ddd"></path><g><g class="mark-group role-axis" role="graphics-symbol" aria-roledescription="axis" aria-label="X-axis for a discrete scale with 10 values: 1790, 1791, 1792, 1793, 1794, ending with 1799"><g transform="translate(0.5,200.5)"><path class="background" aria-hidden="true" d="M0,0h0v0h0Z" pointer-events="none"></path><g><g class="mark-rule role-axis-tick" pointer-events="none"><line transform="translate(34,0)" x2="0" y2="5" stroke="#888" stroke-width="1" opacity="1"></line><line transform="translate(101,0)" x2="0" y2="5" stroke="#888" stroke-width="1" opacity="1"></line><line transform="translate(168,0)" x2="0" y2="5" stroke="#888" stroke-width="1" opacity="1"></line><line transform="translate(236,0)" x2="0" y2="5" stroke="#888" stroke-width="1" opacity="1"></line><line transform="translate(303,0)" x2="0" y2="5" stroke="#888" stroke-width="1" opacity="1"></line><line transform="translate(370,0)" x2="0" y2="5" stroke="#888" stroke-width="1" opacity="1"></line><line transform="translate(437,0)" x2="0" y2="5" stroke="#888" stroke-width="1" opacity="1"></line><line transform="translate(505,0)" x2="0" y2="5" stroke="#888" stroke-width="1" opacity="1"></line><line transform="translate(572,0)" x2="0" y2="5" stroke="#888" stroke-width="1" opacity="1"></line><line transform="translate(639,0)" x2="0" y2="5" stroke="#888" stroke-width="1" opacity="1"></line></g><g class="mark-text role-axis-label" pointer-events="none"><text text-anchor="middle" transform="translate(33.650000000000034,19)" font-family="monospace" font-size="15px" font-weight="bold" fill="#fff" opacity="1">1790</text><text text-anchor="middle" transform="translate(100.95000000000003,19)" font-family="monospace" font-size="15px" font-weight="bold" fill="#fff" opacity="1">1791</text><text text-anchor="middle" transform="translate(168.25000000000003,19)" font-family="monospace" font-size="15px" font-weight="bold" fill="#fff" opacity="1">1792</text><text text-anchor="middle" transform="translate(235.55,19)" font-family="monospace" font-size="15px" font-weight="bold" fill="#fff" opacity="1">1793</text><text text-anchor="middle" transform="translate(302.85,19)" font-family="monospace" font-size="15px" font-weight="bold" fill="#fff" opacity="1">1794</text><text text-anchor="middle" transform="translate(370.15000000000003,19)" font-family="monospace" font-size="15px" font-weight="bold" fill="#fff" opacity="1">1795</text><text text-anchor="middle" transform="translate(437.45,19)" font-family="monospace" font-size="15px" font-weight="bold" fill="#fff" opacity="1">1796</text><text text-anchor="middle" transform="translate(504.75,19)" font-family="monospace" font-size="15px" font-weight="bold" fill="#fff" opacity="1">1797</text><text text-anchor="middle" transform="translate(572.05,19)" font-family="monospace" font-size="15px" font-weight="bold" fill="#fff" opacity="1">1798</text><text text-anchor="middle" transform="translate(639.3499999999999,19)" font-family="monospace" font-size="15px" font-weight="bold" fill="#fff" opacity="1">1799</text></g><g class="mark-rule role-axis-domain" pointer-events="none"><line transform="translate(0,0)" x2="673" y2="0" stroke="#888" stroke-width="1" opacity="1"></line></g></g><path class="foreground" aria-hidden="true" d="" pointer-events="none" display="none"></path></g></g><g class="mark-group role-axis" role="graphics-symbol" aria-roledescription="axis" aria-label="Y-axis for a linear scale with values from 0 to 800"><g transform="translate(0.5,0.5)"><path class="background" aria-hidden="true" d="M0,0h0v0h0Z" pointer-events="none"></path><g><g class="mark-rule role-axis-tick" pointer-events="none"><line transform="translate(0,200)" x2="-5" y2="0" stroke="#888" stroke-width="1" opacity="1"></line><line transform="translate(0,150)" x2="-5" y2="0" stroke="#888" stroke-width="1" opacity="1"></line><line transform="translate(0,100)" x2="-5" y2="0" stroke="#888" stroke-width="1" opacity="1"></line><line transform="translate(0,50)" x2="-5" y2="0" stroke="#888" stroke-width="1" opacity="1"></line><line transform="translate(0,0)" x2="-5" y2="0" stroke="#888" stroke-width="1" opacity="1"></line></g><g class="mark-text role-axis-label" pointer-events="none"><text text-anchor="end" transform="translate(-7,205)" font-family="monospace" font-size="15px" font-weight="bold" fill="#fff" opacity="1">0</text><text text-anchor="end" transform="translate(-7,155)" font-family="monospace" font-size="15px" font-weight="bold" fill="#fff" opacity="1">200</text><text text-anchor="end" transform="translate(-7,105)" font-family="monospace" font-size="15px" font-weight="bold" fill="#fff" opacity="1">400</text><text text-anchor="end" transform="translate(-7,55)" font-family="monospace" font-size="15px" font-weight="bold" fill="#fff" opacity="1">600</text><text text-anchor="end" transform="translate(-7,5)" font-family="monospace" font-size="15px" font-weight="bold" fill="#fff" opacity="1">800</text></g><g class="mark-rule role-axis-domain" pointer-events="none"><line transform="translate(0,200)" x2="0" y2="-200" stroke="#888" stroke-width="1" opacity="1"></line></g></g><path class="foreground" aria-hidden="true" d="" pointer-events="none" display="none"></path></g></g><g class="mark-group role-scope layer_0_pathgroup" role="graphics-object" aria-roledescription="group mark container"><g transform="translate(0,0)"><path class="background" aria-hidden="true" d="M0,0h673v200h-673Z"></path><g><g class="mark-line role-mark layer_0_marks" role="graphics-object" aria-roledescription="line mark container"><path aria-label="Year: 1790; Turnpike optimal: 155; Orchestrator Modern: index" role="graphics-symbol" aria-roledescription="line mark" d="M33.650000000000034,161.25C56.08333333333337,141.58930817610064,78.51666666666671,121.92861635220126,100.95000000000003,105C123.38333333333335,88.07138364779874,145.81666666666672,73.87484276729559,168.25000000000003,95.5C190.68333333333334,117.12515723270441,213.11666666666667,174.57201257861635,235.55,173.5C257.98333333333335,172.42798742138365,280.41666666666663,112.83710691823899,302.85,85.75C325.2833333333334,58.662893081761005,347.71666666666675,64.07955974842766,370.15000000000003,47.24999999999999C392.5833333333333,30.42044025157233,415.01666666666665,-8.655345911949667,437.45,28.750000000000007C459.8833333333333,66.15534591194968,482.3166666666667,180.04182389937105,504.75,171.75C527.1833333333333,163.45817610062895,549.6166666666666,32.98805031446541,572.05,4.249999999999998C594.4833333333333,-24.48805031446541,616.9166666666666,48.50597484276729,639.3499999999999,121.49999999999999" stroke="#beee1b" stroke-width="2" stroke-dasharray="8,4"></path></g></g><path class="foreground" aria-hidden="true" d="" display="none"></path></g></g><g class="mark-symbol role-mark layer_1_marks" role="graphics-object" aria-roledescription="symbol mark container"><path aria-label="Year: 1790; Turnpike optimal: 155; Orchestrator Modern: index" role="graphics-symbol" aria-roledescription="point" transform="translate(33.650000000000034,161.25)" d="M2.7386127875258306,0A2.7386127875258306,2.7386127875258306,0,1,1,-2.7386127875258306,0A2.7386127875258306,2.7386127875258306,0,1,1,2.7386127875258306,0" fill="#333333" stroke="#beee1b" stroke-width="4" opacity="1"></path><path aria-label="Year: 1791; Turnpike optimal: 380; Orchestrator Modern: index" role="graphics-symbol" aria-roledescription="point" transform="translate(100.95000000000003,105)" d="M2.7386127875258306,0A2.7386127875258306,2.7386127875258306,0,1,1,-2.7386127875258306,0A2.7386127875258306,2.7386127875258306,0,1,1,2.7386127875258306,0" fill="#333333" stroke="#beee1b" stroke-width="4" opacity="1"></path><path aria-label="Year: 1792; Turnpike optimal: 418; Orchestrator Modern: index" role="graphics-symbol" aria-roledescription="point" transform="translate(168.25000000000003,95.5)" d="M2.7386127875258306,0A2.7386127875258306,2.7386127875258306,0,1,1,-2.7386127875258306,0A2.7386127875258306,2.7386127875258306,0,1,1,2.7386127875258306,0" fill="#333333" stroke="#beee1b" stroke-width="4" opacity="1"></path><path aria-label="Year: 1793; Turnpike optimal: 106; Orchestrator Modern: index" role="graphics-symbol" aria-roledescription="point" transform="translate(235.55,173.5)" d="M2.7386127875258306,0A2.7386127875258306,2.7386127875258306,0,1,1,-2.7386127875258306,0A2.7386127875258306,2.7386127875258306,0,1,1,2.7386127875258306,0" fill="#333333" stroke="#beee1b" stroke-width="4" opacity="1"></path><path aria-label="Year: 1794; Turnpike optimal: 457; Orchestrator Modern: index" role="graphics-symbol" aria-roledescription="point" transform="translate(302.85,85.75)" d="M2.7386127875258306,0A2.7386127875258306,2.7386127875258306,0,1,1,-2.7386127875258306,0A2.7386127875258306,2.7386127875258306,0,1,1,2.7386127875258306,0" fill="#333333" stroke="#beee1b" stroke-width="4" opacity="1"></path><path aria-label="Year: 1795; Turnpike optimal: 611; Orchestrator Modern: index" role="graphics-symbol" aria-roledescription="point" transform="translate(370.15000000000003,47.24999999999999)" d="M2.7386127875258306,0A2.7386127875258306,2.7386127875258306,0,1,1,-2.7386127875258306,0A2.7386127875258306,2.7386127875258306,0,1,1,2.7386127875258306,0" fill="#333333" stroke="#beee1b" stroke-width="4" opacity="1"></path><path aria-label="Year: 1796; Turnpike optimal: 685; Orchestrator Modern: index" role="graphics-symbol" aria-roledescription="point" transform="translate(437.45,28.750000000000007)" d="M2.7386127875258306,0A2.7386127875258306,2.7386127875258306,0,1,1,-2.7386127875258306,0A2.7386127875258306,2.7386127875258306,0,1,1,2.7386127875258306,0" fill="#333333" stroke="#beee1b" stroke-width="4" opacity="1"></path><path aria-label="Year: 1797; Turnpike optimal: 113; Orchestrator Modern: index" role="graphics-symbol" aria-roledescription="point" transform="translate(504.75,171.75)" d="M2.7386127875258306,0A2.7386127875258306,2.7386127875258306,0,1,1,-2.7386127875258306,0A2.7386127875258306,2.7386127875258306,0,1,1,2.7386127875258306,0" fill="#333333" stroke="#beee1b" stroke-width="4" opacity="1"></path><path aria-label="Year: 1798; Turnpike optimal: 783; Orchestrator Modern: index" role="graphics-symbol" aria-roledescription="point" transform="translate(572.05,4.249999999999998)" d="M2.7386127875258306,0A2.7386127875258306,2.7386127875258306,0,1,1,-2.7386127875258306,0A2.7386127875258306,2.7386127875258306,0,1,1,2.7386127875258306,0" fill="#333333" stroke="#beee1b" stroke-width="4" opacity="1"></path><path aria-label="Year: 1799; Turnpike optimal: 314; Orchestrator Modern: index" role="graphics-symbol" aria-roledescription="point" transform="translate(639.3499999999999,121.49999999999999)" d="M2.7386127875258306,0A2.7386127875258306,2.7386127875258306,0,1,1,-2.7386127875258306,0A2.7386127875258306,2.7386127875258306,0,1,1,2.7386127875258306,0" fill="#333333" stroke="#beee1b" stroke-width="4" opacity="1"></path></g><g class="mark-text role-mark layer_2_marks" role="graphics-object" aria-roledescription="text mark container"><text aria-label="Year: 1790; Turnpike optimal: 155" role="graphics-symbol" aria-roledescription="text mark" text-anchor="middle" transform="translate(33.650000000000034,150.25)" font-family="monospace" font-size="12px" fill="#fff" opacity="1">155</text><text aria-label="Year: 1791; Turnpike optimal: 380" role="graphics-symbol" aria-roledescription="text mark" text-anchor="middle" transform="translate(100.95000000000003,94)" font-family="monospace" font-size="12px" fill="#fff" opacity="1">380</text><text aria-label="Year: 1792; Turnpike optimal: 418" role="graphics-symbol" aria-roledescription="text mark" text-anchor="middle" transform="translate(168.25000000000003,84.5)" font-family="monospace" font-size="12px" fill="#fff" opacity="1">418</text><text aria-label="Year: 1793; Turnpike optimal: 106" role="graphics-symbol" aria-roledescription="text mark" text-anchor="middle" transform="translate(235.55,162.5)" font-family="monospace" font-size="12px" fill="#fff" opacity="1">106</text><text aria-label="Year: 1794; Turnpike optimal: 457" role="graphics-symbol" aria-roledescription="text mark" text-anchor="middle" transform="translate(302.85,74.75)" font-family="monospace" font-size="12px" fill="#fff" opacity="1">457</text><text aria-label="Year: 1795; Turnpike optimal: 611" role="graphics-symbol" aria-roledescription="text mark" text-anchor="middle" transform="translate(370.15000000000003,36.24999999999999)" font-family="monospace" font-size="12px" fill="#fff" opacity="1">611</text><text aria-label="Year: 1796; Turnpike optimal: 685" role="graphics-symbol" aria-roledescription="text mark" text-anchor="middle" transform="translate(437.45,17.750000000000007)" font-family="monospace" font-size="12px" fill="#fff" opacity="1">685</text><text aria-label="Year: 1797; Turnpike optimal: 113" role="graphics-symbol" aria-roledescription="text mark" text-anchor="middle" transform="translate(504.75,160.75)" font-family="monospace" font-size="12px" fill="#fff" opacity="1">113</text><text aria-label="Year: 1798; Turnpike optimal: 783" role="graphics-symbol" aria-roledescription="text mark" text-anchor="middle" transform="translate(572.05,-6.750000000000002)" font-family="monospace" font-size="12px" fill="#fff" opacity="1">783</text><text aria-label="Year: 1799; Turnpike optimal: 314" role="graphics-symbol" aria-roledescription="text mark" text-anchor="middle" transform="translate(639.3499999999999,110.49999999999999)" font-family="monospace" font-size="12px" fill="#fff" opacity="1">314</text></g><g class="mark-group role-title"><g transform="translate(-31.7412109375,-45.75)"><path class="background" aria-hidden="true" d="M0,0h0v0h0Z" pointer-events="none"></path><g><g class="mark-text role-title-text" role="graphics-symbol" aria-roledescription="title" aria-label="Title text 'Blues'" pointer-events="none"><text text-anchor="start" transform="translate(0,20)" font-family="monospace" font-size="25px" font-weight="bold" fill="#fff" opacity="1">Blues</text></g></g><path class="foreground" aria-hidden="true" d="" pointer-events="none" display="none"></path></g></g></g><path class="foreground" aria-hidden="true" d="" display="none"></path></g></g></g></svg>