<svg xmlns="http://www.w3.org/2000/svg" xmlns:xlink="http://www.w3.org/1999/xlink" version="1.1" class="marks" width="1038" height="296" viewBox="0 0 1038 296" style="background-color: rgb(255, 255, 255);"><g fill="none" stroke-miterlimit="10" transform="translate(36,65)"><g class="mark-group role-frame root" role="graphics-object" aria-roledescription="group mark container"><g transform="translate(0,0)"><path class="background" aria-hidden="true" d="M0.5,0.5h997v200h-997Z" fill="transparent" stroke="#ddd"></path><g><g class="mark-group role-axis" aria-hidden="true"><g transform="translate(0.5,200.5)"><path class="background" aria-hidden="true" d="M0,0h0v0h0Z" pointer-events="none"></path><g><g class="mark-rule role-axis-grid" pointer-events="none"><line transform="translate(83,-200)" x2="0" y2="200" stroke="#D0D0D0" stroke-width="1" stroke-dasharray="4, 2" opacity="1"></line><line transform="translate(249,-200)" x2="0" y2="200" stroke="#D0D0D0" stroke-width="1" stroke-dasharray="4, 2" opacity="1"></line><line transform="translate(415,-200)" x2="0" y2="200" stroke="#D0D0D0" stroke-width="1" stroke-dasharray="4, 2" opacity="1"></line><line transform="translate(582,-200)" x2="0" y2="200" stroke="#D0D0D0" stroke-width="1" stroke-dasharray="4, 2" opacity="1"></line><line transform="translate(748,-200)" x2="0" y2="200" stroke="#D0D0D0" stroke-width="1" stroke-dasharray="4, 2" opacity="1"></line><line transform="translate(914,-200)" x2="0" y2="200" stroke="#D0D0D0" stroke-width="1" stroke-dasharray="4, 2" opacity="1"></line></g></g><path class="foreground" aria-hidden="true" d="" pointer-events="none" display="none"></path></g></g><g class="mark-group role-axis" role="graphics-symbol" aria-roledescription="axis" aria-label="X-axis for a discrete scale with 6 values: 1869, 1871, 1873, 1875, 1877, 1879"><g transform="translate(0.5,200.5)"><path class="background" aria-hidden="true" d="M0,0h0v0h0Z" pointer-events="none"></path><g><g class="mark-rule role-axis-tick" pointer-events="none"><line transform="translate(83,0)" x2="0" y2="5" stroke="#888" stroke-width="1" opacity="1"></line><line transform="translate(249,0)" x2="0" y2="5" stroke="#888" stroke-width="1" opacity="1"></line><line transform="translate(415,0)" x2="0" y2="5" stroke="#888" stroke-width="1" opacity="1"></line><line transform="translate(582,0)" x2="0" y2="5" stroke="#888" stroke-width="1" opacity="1"></line><line transform="translate(748,0)" x2="0" y2="5" stroke="#888" stroke-width="1" opacity="1"></line><line transform="translate(914,0)" x2="0" y2="5" stroke="#888" stroke-width="1" opacity="1"></line></g><g class="mark-text role-axis-label" pointer-events="none"><text text-anchor="middle" transform="translate(83.08333333333337,22)" font-family="avenir" font-size="19px" font-weight="bold" fill="#000" opacity="1">1869</text><text text-anchor="middle" transform="translate(249.25000000000003,22)" font-family="avenir" font-size="19px" font-weight="bold" fill="#000" opacity="1">1871</text><text text-anchor="middle" transform="translate(415.4166666666667,22)" font-family="avenir" font-size="19px" font-weight="bold" fill="#000" opacity="1">1873</text><text text-anchor="middle" transform="translate(581.5833333333334,22)" font-family="avenir" font-size="19px" font-weight="bold" fill="#000" opacity="1">1875</text><text text-anchor="middle" transform="translate(747.75,22)" font-family="avenir" font-size="19px" font-weight="bold" fill="#000" opacity="1">1877</text><text text-anchor="middle" transform="translate(913.9166666666666,22)" font-family="avenir" font-size="19px" font-weight="bold" fill="#000" opacity="1">1879</text></g><g class="mark-rule role-axis-domain" pointer-events="none"><line transform="translate(0,0)" x2="997" y2="0" stroke="#888" stroke-width="1" opacity="1"></line></g></g><path class="foreground" aria-hidden="true" d="" pointer-events="none" display="none"></path></g></g><g class="mark-group role-axis" role="graphics-symbol" aria-roledescription="axis" aria-label="Y-axis for a linear scale with values from 0 to 350"><g transform="translate(0.5,0.5)"><path class="background" aria-hidden="true" d="M0,0h0v0h0Z" pointer-events="none"></path><g><g class="mark-text role-axis-label" pointer-events="none"><text text-anchor="end" transform="translate(-2,206)" font-family="avenir" font-size="19px" font-weight="bold" fill="#000" opacity="1">0</text><text text-anchor="end" transform="translate(-2,177.42857142857144)" font-family="avenir" font-size="19px" font-weight="bold" fill="#000" opacity="1">50</text><text text-anchor="end" transform="translate(-2,148.85714285714286)" font-family="avenir" font-size="19px" font-weight="bold" fill="#000" opacity="1">100</text><text text-anchor="end" transform="translate(-2,120.28571428571428)" font-family="avenir" font-size="19px" font-weight="bold" fill="#000" opacity="1">150</text><text text-anchor="end" transform="translate(-2,91.71428571428572)" font-family="avenir" font-size="19px" font-weight="bold" fill="#000" opacity="1">200</text><text text-anchor="end" transform="translate(-2,63.14285714285714)" font-family="avenir" font-size="19px" font-weight="bold" fill="#000" opacity="1">250</text><text text-anchor="end" transform="translate(-2,34.571428571428584)" font-family="avenir" font-size="19px" font-weight="bold" fill="#000" opacity="1">300</text><text text-anchor="end" transform="translate(-2,6)" font-family="avenir" font-size="19px" font-weight="bold" fill="#000" opacity="1">350</text></g><g class="mark-rule role-axis-domain" pointer-events="none"><line transform="translate(0,200)" x2="0" y2="-200" stroke="#888" stroke-width="1" opacity="1"></line></g></g><path class="foreground" aria-hidden="true" d="" pointer-events="none" display="none"></path></g></g><g class="mark-group role-scope layer_0_pathgroup" role="graphics-object" aria-roledescription="group mark container"><g transform="translate(0,0)"><path class="background" aria-hidden="true" d="M0,0h997v200h-997Z"></path><g><g class="mark-line role-mark layer_0_marks" role="graphics-object" aria-roledescription="line mark container"><path aria-label="Year: 1869; Northeast Selenium Rock: 19; eum communities: untried Electric" role="graphics-symbol" aria-roledescription="line mark" d="M83.08333333333337,189.14285714285714L249.25000000000003,135.42857142857144L415.4166666666667,18.285714285714285L581.5833333333334,111.42857142857143L747.75,53.14285714285714L913.9166666666666,56.57142857142856" stroke="#3a0db9" stroke-width="2" stroke-dasharray="1,0"></path></g></g><path class="foreground" aria-hidden="true" d="" display="none"></path></g><g transform="translate(0,0)"><path class="background" aria-hidden="true" d="M0,0h997v200h-997Z"></path><g><g class="mark-line role-mark layer_0_marks" role="graphics-object" aria-roledescription="line mark container"><path aria-label="Year: 1869; Northeast Selenium Rock: 95; eum communities: coulomb voluptates Assurance" role="graphics-symbol" aria-roledescription="line mark" d="M83.08333333333337,145.71428571428572L249.25000000000003,10.857142857142854L415.4166666666667,160L581.5833333333334,180L747.75,7.428571428571429L913.9166666666666,30.85714285714285" stroke="#fcc0b1" stroke-width="2" stroke-dasharray="1,0"></path></g></g><path class="foreground" aria-hidden="true" d="" display="none"></path></g></g><g class="mark-symbol role-mark layer_1_marks" role="graphics-object" aria-roledescription="symbol mark container"><path aria-label="Year: 1869; Northeast Selenium Rock: 19; eum communities: untried Electric" role="graphics-symbol" aria-roledescription="point" transform="translate(83.08333333333337,189.14285714285714)" d="M2.7386127875258306,0A2.7386127875258306,2.7386127875258306,0,1,1,-2.7386127875258306,0A2.7386127875258306,2.7386127875258306,0,1,1,2.7386127875258306,0" fill="#fff" stroke="#3a0db9" stroke-width="4" opacity="1"></path><path aria-label="Year: 1871; Northeast Selenium Rock: 113; eum communities: untried Electric" role="graphics-symbol" aria-roledescription="point" transform="translate(249.25000000000003,135.42857142857144)" d="M2.7386127875258306,0A2.7386127875258306,2.7386127875258306,0,1,1,-2.7386127875258306,0A2.7386127875258306,2.7386127875258306,0,1,1,2.7386127875258306,0" fill="#fff" stroke="#3a0db9" stroke-width="4" opacity="1"></path><path aria-label="Year: 1873; Northeast Selenium Rock: 318; eum communities: untried Electric" role="graphics-symbol" aria-roledescription="point" transform="translate(415.4166666666667,18.285714285714285)" d="M2.7386127875258306,0A2.7386127875258306,2.7386127875258306,0,1,1,-2.7386127875258306,0A2.7386127875258306,2.7386127875258306,0,1,1,2.7386127875258306,0" fill="#fff" stroke="#3a0db9" stroke-width="4" opacity="1"></path><path aria-label="Year: 1875; Northeast Selenium Rock: 155; eum communities: untried Electric" role="graphics-symbol" aria-roledescription="point" transform="translate(581.5833333333334,111.42857142857143)" d="M2.7386127875258306,0A2.7386127875258306,2.7386127875258306,0,1,1,-2.7386127875258306,0A2.7386127875258306,2.7386127875258306,0,1,1,2.7386127875258306,0" fill="#fff" stroke="#3a0db9" stroke-width="4" opacity="1"></path><path aria-label="Year: 1877; Northeast Selenium Rock: 257; eum communities: untried Electric" role="graphics-symbol" aria-roledescription="point" transform="translate(747.75,53.14285714285714)" d="M2.7386127875258306,0A2.7386127875258306,2.7386127875258306,0,1,1,-2.7386127875258306,0A2.7386127875258306,2.7386127875258306,0,1,1,2.7386127875258306,0" fill="#fff" stroke="#3a0db9" stroke-width="4" opacity="1"></path><path aria-label="Year: 1879; Northeast Selenium Rock: 251; eum communities: untried Electric" role="graphics-symbol" aria-roledescription="point" transform="translate(913.9166666666666,56.57142857142856)" d="M2.7386127875258306,0A2.7386127875258306,2.7386127875258306,0,1,1,-2.7386127875258306,0A2.7386127875258306,2.7386127875258306,0,1,1,2.7386127875258306,0" fill="#fff" stroke="#3a0db9" stroke-width="4" opacity="1"></path><path aria-label="Year: 1869; Northeast Selenium Rock: 95; eum communities: coulomb voluptates Assurance" role="graphics-symbol" aria-roledescription="point" transform="translate(83.08333333333337,145.71428571428572)" d="M2.7386127875258306,0A2.7386127875258306,2.7386127875258306,0,1,1,-2.7386127875258306,0A2.7386127875258306,2.7386127875258306,0,1,1,2.7386127875258306,0" fill="#fff" stroke="#fcc0b1" stroke-width="4" opacity="1"></path><path aria-label="Year: 1871; Northeast Selenium Rock: 331; eum communities: coulomb voluptates Assurance" role="graphics-symbol" aria-roledescription="point" transform="translate(249.25000000000003,10.857142857142854)" d="M2.7386127875258306,0A2.7386127875258306,2.7386127875258306,0,1,1,-2.7386127875258306,0A2.7386127875258306,2.7386127875258306,0,1,1,2.7386127875258306,0" fill="#fff" stroke="#fcc0b1" stroke-width="4" opacity="1"></path><path aria-label="Year: 1873; Northeast Selenium Rock: 70; eum communities: coulomb voluptates Assurance" role="graphics-symbol" aria-roledescription="point" transform="translate(415.4166666666667,160)" d="M2.7386127875258306,0A2.7386127875258306,2.7386127875258306,0,1,1,-2.7386127875258306,0A2.7386127875258306,2.7386127875258306,0,1,1,2.7386127875258306,0" fill="#fff" stroke="#fcc0b1" stroke-width="4" opacity="1"></path><path aria-label="Year: 1875; Northeast Selenium Rock: 35; eum communities: coulomb voluptates Assurance" role="graphics-symbol" aria-roledescription="point" transform="translate(581.5833333333334,180)" d="M2.7386127875258306,0A2.7386127875258306,2.7386127875258306,0,1,1,-2.7386127875258306,0A2.7386127875258306,2.7386127875258306,0,1,1,2.7386127875258306,0" fill="#fff" stroke="#fcc0b1" stroke-width="4" opacity="1"></path><path aria-label="Year: 1877; Northeast Selenium Rock: 337; eum communities: coulomb voluptates Assurance" role="graphics-symbol" aria-roledescription="point" transform="translate(747.75,7.428571428571429)" d="M2.7386127875258306,0A2.7386127875258306,2.7386127875258306,0,1,1,-2.7386127875258306,0A2.7386127875258306,2.7386127875258306,0,1,1,2.7386127875258306,0" fill="#fff" stroke="#fcc0b1" stroke-width="4" opacity="1"></path><path aria-label="Year: 1879; Northeast Selenium Rock: 296; eum communities: coulomb voluptates Assurance" role="graphics-symbol" aria-roledescription="point" transform="translate(913.9166666666666,30.85714285714285)" d="M2.7386127875258306,0A2.7386127875258306,2.7386127875258306,0,1,1,-2.7386127875258306,0A2.7386127875258306,2.7386127875258306,0,1,1,2.7386127875258306,0" fill="#fff" stroke="#fcc0b1" stroke-width="4" opacity="1"></path></g><g class="mark-group role-legend" role="graphics-symbol" aria-roledescription="legend" aria-label="Symbol legend for stroke color with 2 values: untried Electric, coulomb voluptates Assurance"><g transform="translate(0,-31)"><path class="background" aria-hidden="true" d="M0,0h228v13h-228Z" pointer-events="none"></path><g><g class="mark-group role-legend-entry"><g transform="translate(0,0)"><path class="background" aria-hidden="true" d="M0,0h0v0h0Z" pointer-events="none"></path><g><g class="mark-group role-scope" role="graphics-object" aria-roledescription="group mark container"><g transform="translate(0,0.25)"><path class="background" aria-hidden="true" d="M0,0h77.9140625v12.5h-77.9140625Z" pointer-events="none" opacity="1"></path><g><g class="mark-symbol role-legend-symbol" pointer-events="none"><path transform="translate(6,6)" d="M5,0A5,5,0,1,1,-5,0A5,5,0,1,1,5,0" fill="#fff" stroke="#3a0db9" stroke-width="1.5" opacity="1"></path></g><g class="mark-text role-legend-label" pointer-events="none"><text text-anchor="start" transform="translate(16,9)" font-family="avenir" font-size="10px" fill="#000" opacity="1">untried Electric</text></g></g><path class="foreground" aria-hidden="true" d="" pointer-events="none" display="none"></path></g><g transform="translate(89,0.25)"><path class="background" aria-hidden="true" d="M0,0h138.7490234375v12.5h-138.7490234375Z" pointer-events="none" opacity="1"></path><g><g class="mark-symbol role-legend-symbol" pointer-events="none"><path transform="translate(6,6)" d="M5,0A5,5,0,1,1,-5,0A5,5,0,1,1,5,0" fill="#fff" stroke="#fcc0b1" stroke-width="1.5" opacity="1"></path></g><g class="mark-text role-legend-label" pointer-events="none"><text text-anchor="start" transform="translate(16,9)" font-family="avenir" font-size="10px" fill="#000" opacity="1">coulomb voluptates Assurance</text></g></g><path class="foreground" aria-hidden="true" d="" pointer-events="none" display="none"></path></g></g></g><path class="foreground" aria-hidden="true" d="" pointer-events="none" display="none"></path></g></g></g><path class="foreground" aria-hidden="true" d="" pointer-events="none" display="none"></path></g></g><g class="mark-group role-title"><g transform="translate(-30.5,-60)"><path class="background" aria-hidden="true" d="M0,0h0v0h0Z" pointer-events="none"></path><g><g class="mark-text role-title-text" role="graphics-symbol" aria-roledescription="title" aria-label="Title text 'Strategist port'" pointer-events="none"><text text-anchor="start" transform="translate(0,20)" font-family="avenir" font-size="25px" font-weight="bold" fill="#000" opacity="1">Strategist port</text></g></g><path class="foreground" aria-hidden="true" d="" pointer-events="none" display="none"></path></g></g></g><path class="foreground" aria-hidden="true" d="" display="none"></path></g></g></g></svg>