<svg xmlns="http://www.w3.org/2000/svg" xmlns:xlink="http://www.w3.org/1999/xlink" version="1.1" class="marks" width="827" height="287" viewBox="0 0 827 287" style="background-color: rgb(255, 255, 255);"><g fill="none" stroke-miterlimit="10" transform="translate(22,45)"><g class="mark-group role-frame root" role="graphics-object" aria-roledescription="group mark container"><g transform="translate(0,0)"><path class="background" aria-hidden="true" d="M0.5,0.5h800v200h-800Z" fill="transparent" stroke="#ddd"></path><g><g class="mark-group role-axis" role="graphics-symbol" aria-roledescription="axis" aria-label="X-axis for a discrete scale with 5 values: 1752, 1753, 1754, 1755, 1756"><g transform="translate(0.5,200.5)"><path class="background" aria-hidden="true" d="M0,0h0v0h0Z" pointer-events="none"></path><g><g class="mark-rule role-axis-tick" pointer-events="none"><line transform="translate(80,0)" x2="0" y2="5" stroke="#888" stroke-width="1" opacity="1"></line><line transform="translate(240,0)" x2="0" y2="5" stroke="#888" stroke-width="1" opacity="1"></line><line transform="translate(400,0)" x2="0" y2="5" stroke="#888" stroke-width="1" opacity="1"></line><line transform="translate(560,0)" x2="0" y2="5" stroke="#888" stroke-width="1" opacity="1"></line><line transform="translate(720,0)" x2="0" y2="5" stroke="#888" stroke-width="1" opacity="1"></line></g><g class="mark-text role-axis-label" pointer-events="none"><text text-anchor="start" transform="translate(80,7) rotate(90) translate(0,5)" font-family="serif" font-size="15px" font-weight="bold" fill="#000" opacity="1">1752</text><text text-anchor="start" transform="translate(240,7) rotate(90) translate(0,5)" font-family="serif" font-size="15px" font-weight="bold" fill="#000" opacity="1">1753</text><text text-anchor="start" transform="translate(400,7) rotate(90) translate(0,5)" font-family="serif" font-size="15px" font-weight="bold" fill="#000" opacity="1">1754</text><text text-anchor="start" transform="translate(560,7) rotate(90) translate(0,5)" font-family="serif" font-size="15px" font-weight="bold" fill="#000" opacity="1">1755</text><text text-anchor="start" transform="translate(720,7) rotate(90) translate(0,5)" font-family="serif" font-size="15px" font-weight="bold" fill="#000" opacity="1">1756</text></g><g class="mark-rule role-axis-domain" pointer-events="none"><line transform="translate(0,0)" x2="800" y2="0" stroke="#888" stroke-width="1" opacity="1"></line></g></g><path class="foreground" aria-hidden="true" d="" pointer-events="none" display="none"></path></g></g><g class="mark-group role-axis" role="graphics-symbol" aria-roledescription="axis" aria-label="Y-axis for a linear scale with values from 0 to 900"><g transform="translate(0.5,0.5)"><path class="background" aria-hidden="true" d="M0,0h0v0h0Z" pointer-events="none"></path><g><g class="mark-text role-axis-label" pointer-events="none"><text text-anchor="middle" transform="translate(-2,200) rotate(90) translate(0,12)" font-family="serif" font-size="15px" font-weight="bold" fill="#000" opacity="1">0</text><text text-anchor="middle" transform="translate(-2,155.55555555555557) rotate(90) translate(0,12)" font-family="serif" font-size="15px" font-weight="bold" fill="#000" opacity="1">200</text><text text-anchor="middle" transform="translate(-2,111.11111111111111) rotate(90) translate(0,12)" font-family="serif" font-size="15px" font-weight="bold" fill="#000" opacity="1">400</text><text text-anchor="middle" transform="translate(-2,66.66666666666667) rotate(90) translate(0,12)" font-family="serif" font-size="15px" font-weight="bold" fill="#000" opacity="1">600</text><text text-anchor="middle" transform="translate(-2,22.222222222222232) rotate(90) translate(0,12)" font-family="serif" font-size="15px" font-weight="bold" fill="#000" opacity="1">800</text></g></g><path class="foreground" aria-hidden="true" d="" pointer-events="none" display="none"></path></g></g><g class="mark-group role-scope layer_0_pathgroup" role="graphics-object" aria-roledescription="group mark container"><g transform="translate(0,0)"><path class="background" aria-hidden="true" d="M0,0h800v200h-800Z"></path><g><g class="mark-line role-mark layer_0_marks" role="graphics-object" aria-roledescription="line mark container"><path aria-label="Year: 1752; Rubber lavender Northwest: 4; mobile: scalable" role="graphics-symbol" aria-roledescription="line mark" d="M80,199.11111111111111L240,187.55555555555557L400,47.55555555555555L560,18.444444444444443L720,114.66666666666666" stroke="#aec54f" stroke-width="2" stroke-dasharray="8,8"></path></g></g><path class="foreground" aria-hidden="true" d="" display="none"></path></g></g><g class="mark-symbol role-mark layer_1_marks" role="graphics-object" aria-roledescription="symbol mark container"><path aria-label="Year: 1752; Rubber lavender Northwest: 4; mobile: scalable" role="graphics-symbol" aria-roledescription="point" transform="translate(80,199.11111111111111)" d="M2.7386127875258306,0A2.7386127875258306,2.7386127875258306,0,1,1,-2.7386127875258306,0A2.7386127875258306,2.7386127875258306,0,1,1,2.7386127875258306,0" fill="#fff" stroke="#aec54f" stroke-width="2" opacity="1"></path><path aria-label="Year: 1753; Rubber lavender Northwest: 56; mobile: scalable" role="graphics-symbol" aria-roledescription="point" transform="translate(240,187.55555555555557)" d="M2.7386127875258306,0A2.7386127875258306,2.7386127875258306,0,1,1,-2.7386127875258306,0A2.7386127875258306,2.7386127875258306,0,1,1,2.7386127875258306,0" fill="#fff" stroke="#aec54f" stroke-width="2" opacity="1"></path><path aria-label="Year: 1754; Rubber lavender Northwest: 686; mobile: scalable" role="graphics-symbol" aria-roledescription="point" transform="translate(400,47.55555555555555)" d="M2.7386127875258306,0A2.7386127875258306,2.7386127875258306,0,1,1,-2.7386127875258306,0A2.7386127875258306,2.7386127875258306,0,1,1,2.7386127875258306,0" fill="#fff" stroke="#aec54f" stroke-width="2" opacity="1"></path><path aria-label="Year: 1755; Rubber lavender Northwest: 817; mobile: scalable" role="graphics-symbol" aria-roledescription="point" transform="translate(560,18.444444444444443)" d="M2.7386127875258306,0A2.7386127875258306,2.7386127875258306,0,1,1,-2.7386127875258306,0A2.7386127875258306,2.7386127875258306,0,1,1,2.7386127875258306,0" fill="#fff" stroke="#aec54f" stroke-width="2" opacity="1"></path><path aria-label="Year: 1756; Rubber lavender Northwest: 384; mobile: scalable" role="graphics-symbol" aria-roledescription="point" transform="translate(720,114.66666666666666)" d="M2.7386127875258306,0A2.7386127875258306,2.7386127875258306,0,1,1,-2.7386127875258306,0A2.7386127875258306,2.7386127875258306,0,1,1,2.7386127875258306,0" fill="#fff" stroke="#aec54f" stroke-width="2" opacity="1"></path></g><g class="mark-text role-mark layer_2_marks" role="graphics-object" aria-roledescription="text mark container"><text aria-label="Year: 1752; Rubber lavender Northwest: 4" role="graphics-symbol" aria-roledescription="text mark" text-anchor="middle" transform="translate(80,184.11111111111111)" font-family="serif" font-size="18px" fill="#000" opacity="1">4</text><text aria-label="Year: 1753; Rubber lavender Northwest: 56" role="graphics-symbol" aria-roledescription="text mark" text-anchor="middle" transform="translate(240,172.55555555555557)" font-family="serif" font-size="18px" fill="#000" opacity="1">56</text><text aria-label="Year: 1754; Rubber lavender Northwest: 686" role="graphics-symbol" aria-roledescription="text mark" text-anchor="middle" transform="translate(400,32.55555555555555)" font-family="serif" font-size="18px" fill="#000" opacity="1">686</text><text aria-label="Year: 1755; Rubber lavender Northwest: 817" role="graphics-symbol" aria-roledescription="text mark" text-anchor="middle" transform="translate(560,3.444444444444443)" font-family="serif" font-size="18px" fill="#000" opacity="1">817</text><text aria-label="Year: 1756; Rubber lavender Northwest: 384" role="graphics-symbol" aria-roledescription="text mark" text-anchor="middle" transform="translate(720,99.66666666666666)" font-family="serif" font-size="18px" fill="#000" opacity="1">384</text></g><g class="mark-group role-title"><g transform="translate(400,-39.55555555555556)"><path class="background" aria-hidden="true" d="M0,0h0v0h0Z" pointer-events="none"></path><g><g class="mark-text role-title-text" role="graphics-symbol" aria-roledescription="title" aria-label="Title text 'du North'" pointer-events="none"><text text-anchor="middle" transform="translate(0,20)" font-family="serif" font-size="25px" font-weight="bold" fill="#000" opacity="1">du North</text></g></g><path class="foreground" aria-hidden="true" d="" pointer-events="none" display="none"></path></g></g></g><path class="foreground" aria-hidden="true" d="" display="none"></path></g></g></g></svg>