<svg xmlns="http://www.w3.org/2000/svg" xmlns:xlink="http://www.w3.org/1999/xlink" version="1.1" class="marks" width="931" height="291" viewBox="0 0 931 291" style="background-color: rgb(255, 255, 255);"><g fill="none" stroke-miterlimit="10" transform="translate(128,39)"><g class="mark-group role-frame root" role="graphics-object" aria-roledescription="group mark container"><g transform="translate(0,0)"><path class="background" aria-hidden="true" d="M0.5,0.5h798v200h-798Z" fill="transparent" stroke="#ddd"></path><g><g class="mark-group role-axis" aria-hidden="true"><g transform="translate(0.5,0.5)"><path class="background" aria-hidden="true" d="M0,0h0v0h0Z" pointer-events="none"></path><g><g class="mark-rule role-axis-grid" pointer-events="none"><line transform="translate(0,200)" x2="798" y2="0" stroke="#D0D0D0" stroke-width="1" stroke-dasharray="1,0" opacity="1"></line><line transform="translate(0,156)" x2="798" y2="0" stroke="#D0D0D0" stroke-width="1" stroke-dasharray="1,0" opacity="1"></line><line transform="translate(0,111)" x2="798" y2="0" stroke="#D0D0D0" stroke-width="1" stroke-dasharray="1,0" opacity="1"></line><line transform="translate(0,67)" x2="798" y2="0" stroke="#D0D0D0" stroke-width="1" stroke-dasharray="1,0" opacity="1"></line><line transform="translate(0,22)" x2="798" y2="0" stroke="#D0D0D0" stroke-width="1" stroke-dasharray="1,0" opacity="1"></line></g></g><path class="foreground" aria-hidden="true" d="" pointer-events="none" display="none"></path></g></g><g class="mark-group role-axis" role="graphics-symbol" aria-roledescription="axis" aria-label="X-axis for a discrete scale with 8 values: Jan, Feb, Mar, Apr, May, ending with Aug"><g transform="translate(0.5,200.5)"><path class="background" aria-hidden="true" d="M0,0h0v0h0Z" pointer-events="none"></path><g><g class="mark-rule role-axis-tick" pointer-events="none"><line transform="translate(50,0)" x2="0" y2="5" stroke="#888" stroke-width="1" opacity="1"></line><line transform="translate(150,0)" x2="0" y2="5" stroke="#888" stroke-width="1" opacity="1"></line><line transform="translate(249,0)" x2="0" y2="5" stroke="#888" stroke-width="1" opacity="1"></line><line transform="translate(349,0)" x2="0" y2="5" stroke="#888" stroke-width="1" opacity="1"></line><line transform="translate(449,0)" x2="0" y2="5" stroke="#888" stroke-width="1" opacity="1"></line><line transform="translate(549,0)" x2="0" y2="5" stroke="#888" stroke-width="1" opacity="1"></line><line transform="translate(648,0)" x2="0" y2="5" stroke="#888" stroke-width="1" opacity="1"></line><line transform="translate(748,0)" x2="0" y2="5" stroke="#888" stroke-width="1" opacity="1"></line></g><g class="mark-text role-axis-label" pointer-events="none"><text text-anchor="start" transform="translate(49.875,7) rotate(90) translate(0,5)" font-family="sans-serif" font-size="18px" font-weight="normal" fill="#000" opacity="1">Jan</text><text text-anchor="start" transform="translate(149.625,7) rotate(90) translate(0,5)" font-family="sans-serif" font-size="18px" font-weight="normal" fill="#000" opacity="1">Feb</text><text text-anchor="start" transform="translate(249.375,7) rotate(90) translate(0,5)" font-family="sans-serif" font-size="18px" font-weight="normal" fill="#000" opacity="1">Mar</text><text text-anchor="start" transform="translate(349.125,7) rotate(90) translate(0,5)" font-family="sans-serif" font-size="18px" font-weight="normal" fill="#000" opacity="1">Apr</text><text text-anchor="start" transform="translate(448.875,7) rotate(90) translate(0,5)" font-family="sans-serif" font-size="18px" font-weight="normal" fill="#000" opacity="1">May</text><text text-anchor="start" transform="translate(548.625,7) rotate(90) translate(0,5)" font-family="sans-serif" font-size="18px" font-weight="normal" fill="#000" opacity="1">June</text><text text-anchor="start" transform="translate(648.375,7) rotate(90) translate(0,5)" font-family="sans-serif" font-size="18px" font-weight="normal" fill="#000" opacity="1">July</text><text text-anchor="start" transform="translate(748.125,7) rotate(90) translate(0,5)" font-family="sans-serif" font-size="18px" font-weight="normal" fill="#000" opacity="1">Aug</text></g><g class="mark-rule role-axis-domain" pointer-events="none"><line transform="translate(0,0)" x2="798" y2="0" stroke="#888" stroke-width="1" opacity="1"></line></g></g><path class="foreground" aria-hidden="true" d="" pointer-events="none" display="none"></path></g></g><g class="mark-group role-axis" role="graphics-symbol" aria-roledescription="axis" aria-label="Y-axis for a linear scale with values from 0 to 900"><g transform="translate(0.5,0.5)"><path class="background" aria-hidden="true" d="M0,0h0v0h0Z" pointer-events="none"></path><g><g class="mark-text role-axis-label" pointer-events="none"><text text-anchor="middle" transform="translate(-2,200) rotate(90) translate(0,14)" font-family="sans-serif" font-size="18px" font-weight="normal" fill="#000" opacity="1">0</text><text text-anchor="middle" transform="translate(-2,155.55555555555557) rotate(90) translate(0,14)" font-family="sans-serif" font-size="18px" font-weight="normal" fill="#000" opacity="1">200</text><text text-anchor="middle" transform="translate(-2,111.11111111111111) rotate(90) translate(0,14)" font-family="sans-serif" font-size="18px" font-weight="normal" fill="#000" opacity="1">400</text><text text-anchor="middle" transform="translate(-2,66.66666666666667) rotate(90) translate(0,14)" font-family="sans-serif" font-size="18px" font-weight="normal" fill="#000" opacity="1">600</text><text text-anchor="middle" transform="translate(-2,22.222222222222232) rotate(90) translate(0,14)" font-family="sans-serif" font-size="18px" font-weight="normal" fill="#000" opacity="1">800</text></g><g class="mark-rule role-axis-domain" pointer-events="none"><line transform="translate(0,200)" x2="0" y2="-200" stroke="#888" stroke-width="1" opacity="1"></line></g></g><path class="foreground" aria-hidden="true" d="" pointer-events="none" display="none"></path></g></g><g class="mark-group role-scope layer_0_pathgroup" role="graphics-object" aria-roledescription="group mark container"><g transform="translate(0,0)"><path class="background" aria-hidden="true" d="M0,0h798v200h-798Z"></path><g><g class="mark-line role-mark layer_0_marks" role="graphics-object" aria-roledescription="line mark container"><path aria-label="Month: Jan; National: 596; engage phew: queerly" role="graphics-symbol" aria-roledescription="line mark" d="M49.875,67.55555555555554C83.125,100.01302848709237,116.375,132.4705014186292,149.625,138.88888888888889C182.875,145.30727635914857,216.125,125.68657836813111,249.375,127.55555555555556C282.625,129.42453274298,315.87499999999994,152.78318510884642,349.125,160C382.37500000000006,167.21681489115358,415.62499999999994,158.29179230759442,448.875,154.22222222222223C482.12500000000006,150.15265213685004,515.375,150.93853454966475,548.625,129.33333333333334C581.875,107.72813211700193,615.1250000000001,63.73184727152436,648.375,59.77777777777777C681.6249999999999,55.823708284031184,714.875,91.91185414201559,748.125,128" stroke="#8fd32c" stroke-width="2" stroke-dasharray="1,0"></path></g></g><path class="foreground" aria-hidden="true" d="" display="none"></path></g><g transform="translate(0,0)"><path class="background" aria-hidden="true" d="M0,0h798v200h-798Z"></path><g><g class="mark-line role-mark layer_0_marks" role="graphics-object" aria-roledescription="line mark container"><path aria-label="Month: Jan; National: 636; engage phew: Pomona niches" role="graphics-symbol" aria-roledescription="line mark" d="M49.875,58.666666666666664C83.125,17.00283725841953,116.375,-24.660992149827607,149.625,10.666666666666668C182.875,45.99432548316094,216.125,158.31347252439662,249.375,158.66666666666666C282.625,159.0198608089367,315.87499999999994,47.40710205224117,349.125,31.555555555555557C382.37500000000006,15.70400905886994,415.62499999999994,95.61367482219423,448.875,111.77777777777777C482.12500000000006,127.94188073336132,515.375,80.3604208812041,548.625,70.44444444444444C581.875,60.52846800768477,615.1250000000001,88.27797498632262,648.375,109.11111111111111C681.6249999999999,129.9442472358996,714.875,143.86101250683868,748.125,157.77777777777777" stroke="#9b8c7e" stroke-width="2" stroke-dasharray="1,0"></path></g></g><path class="foreground" aria-hidden="true" d="" display="none"></path></g></g><g class="mark-symbol role-mark layer_1_marks" role="graphics-object" aria-roledescription="symbol mark container"><path aria-label="Month: Jan; National: 596; engage phew: queerly" role="graphics-symbol" aria-roledescription="point" transform="translate(49.875,67.55555555555554)" d="M0,0" fill="#8fd32c" stroke-width="2" opacity="1"></path><path aria-label="Month: Feb; National: 275; engage phew: queerly" role="graphics-symbol" aria-roledescription="point" transform="translate(149.625,138.88888888888889)" d="M0,0" fill="#8fd32c" stroke-width="2" opacity="1"></path><path aria-label="Month: Mar; National: 326; engage phew: queerly" role="graphics-symbol" aria-roledescription="point" transform="translate(249.375,127.55555555555556)" d="M0,0" fill="#8fd32c" stroke-width="2" opacity="1"></path><path aria-label="Month: Apr; National: 180; engage phew: queerly" role="graphics-symbol" aria-roledescription="point" transform="translate(349.125,160)" d="M0,0" fill="#8fd32c" stroke-width="2" opacity="1"></path><path aria-label="Month: May; National: 206; engage phew: queerly" role="graphics-symbol" aria-roledescription="point" transform="translate(448.875,154.22222222222223)" d="M0,0" fill="#8fd32c" stroke-width="2" opacity="1"></path><path aria-label="Month: June; National: 318; engage phew: queerly" role="graphics-symbol" aria-roledescription="point" transform="translate(548.625,129.33333333333334)" d="M0,0" fill="#8fd32c" stroke-width="2" opacity="1"></path><path aria-label="Month: July; National: 631; engage phew: queerly" role="graphics-symbol" aria-roledescription="point" transform="translate(648.375,59.77777777777777)" d="M0,0" fill="#8fd32c" stroke-width="2" opacity="1"></path><path aria-label="Month: Aug; National: 324; engage phew: queerly" role="graphics-symbol" aria-roledescription="point" transform="translate(748.125,128)" d="M0,0" fill="#8fd32c" stroke-width="2" opacity="1"></path><path aria-label="Month: Jan; National: 636; engage phew: Pomona niches" role="graphics-symbol" aria-roledescription="point" transform="translate(49.875,58.666666666666664)" d="M0,0" fill="#9b8c7e" stroke-width="2" opacity="1"></path><path aria-label="Month: Feb; National: 852; engage phew: Pomona niches" role="graphics-symbol" aria-roledescription="point" transform="translate(149.625,10.666666666666668)" d="M0,0" fill="#9b8c7e" stroke-width="2" opacity="1"></path><path aria-label="Month: Mar; National: 186; engage phew: Pomona niches" role="graphics-symbol" aria-roledescription="point" transform="translate(249.375,158.66666666666666)" d="M0,0" fill="#9b8c7e" stroke-width="2" opacity="1"></path><path aria-label="Month: Apr; National: 758; engage phew: Pomona niches" role="graphics-symbol" aria-roledescription="point" transform="translate(349.125,31.555555555555557)" d="M0,0" fill="#9b8c7e" stroke-width="2" opacity="1"></path><path aria-label="Month: May; National: 397; engage phew: Pomona niches" role="graphics-symbol" aria-roledescription="point" transform="translate(448.875,111.77777777777777)" d="M0,0" fill="#9b8c7e" stroke-width="2" opacity="1"></path><path aria-label="Month: June; National: 583; engage phew: Pomona niches" role="graphics-symbol" aria-roledescription="point" transform="translate(548.625,70.44444444444444)" d="M0,0" fill="#9b8c7e" stroke-width="2" opacity="1"></path><path aria-label="Month: July; National: 409; engage phew: Pomona niches" role="graphics-symbol" aria-roledescription="point" transform="translate(648.375,109.11111111111111)" d="M0,0" fill="#9b8c7e" stroke-width="2" opacity="1"></path><path aria-label="Month: Aug; National: 190; engage phew: Pomona niches" role="graphics-symbol" aria-roledescription="point" transform="translate(748.125,157.77777777777777)" d="M0,0" fill="#9b8c7e" stroke-width="2" opacity="1"></path></g><g class="mark-group role-legend" role="graphics-symbol" aria-roledescription="legend" aria-label="Symbol legend titled 'engage phew' for fill color and stroke color with 2 values: queerly, Pomona niches"><g transform="translate(-123,0)"><path class="background" aria-hidden="true" d="M0,0h85v45h-85Z" pointer-events="none"></path><g><g class="mark-group role-legend-entry"><g transform="translate(0,16)"><path class="background" aria-hidden="true" d="M0,0h0v0h0Z" pointer-events="none"></path><g><g class="mark-group role-scope" role="graphics-object" aria-roledescription="group mark container"><g transform="translate(0,0)"><path class="background" aria-hidden="true" d="M0,0h84.9306640625v12.5h-84.9306640625Z" pointer-events="none" opacity="1"></path><g><g class="mark-symbol role-legend-symbol" pointer-events="none"><path transform="translate(6,6)" d="M5,0A5,5,0,1,1,-5,0A5,5,0,1,1,5,0" fill="#8fd32c" stroke="#8fd32c" stroke-width="1.5" opacity="1"></path></g><g class="mark-text role-legend-label" pointer-events="none"><text text-anchor="start" transform="translate(16,9)" font-family="sans-serif" font-size="10px" fill="#000" opacity="1">queerly</text></g></g><path class="foreground" aria-hidden="true" d="" pointer-events="none" display="none"></path></g><g transform="translate(0,16)"><path class="background" aria-hidden="true" d="M0,0h84.9306640625v12.5h-84.9306640625Z" pointer-events="none" opacity="1"></path><g><g class="mark-symbol role-legend-symbol" pointer-events="none"><path transform="translate(6,6)" d="M5,0A5,5,0,1,1,-5,0A5,5,0,1,1,5,0" fill="#9b8c7e" stroke="#9b8c7e" stroke-width="1.5" opacity="1"></path></g><g class="mark-text role-legend-label" pointer-events="none"><text text-anchor="start" transform="translate(16,9)" font-family="sans-serif" font-size="10px" fill="#000" opacity="1">Pomona niches</text></g></g><path class="foreground" aria-hidden="true" d="" pointer-events="none" display="none"></path></g></g></g><path class="foreground" aria-hidden="true" d="" pointer-events="none" display="none"></path></g></g><g class="mark-text role-legend-title" pointer-events="none"><text text-anchor="start" transform="translate(0,9)" font-family="sans-serif" font-size="11px" font-weight="bold" fill="#000" opacity="1">engage phew</text></g></g><path class="foreground" aria-hidden="true" d="" pointer-events="none" display="none"></path></g></g><g class="mark-group role-title"><g transform="translate(-123,-33.63149002005214)"><path class="background" aria-hidden="true" d="M0,0h0v0h0Z" pointer-events="none"></path><g><g class="mark-text role-title-text" role="graphics-symbol" aria-roledescription="title" aria-label="Title text 'Bronze'" pointer-events="none"><text text-anchor="start" transform="translate(0,20)" font-family="sans-serif" font-size="25px" font-weight="bold" fill="#000" opacity="1">Bronze</text></g></g><path class="foreground" aria-hidden="true" d="" pointer-events="none" display="none"></path></g></g></g><path class="foreground" aria-hidden="true" d="" display="none"></path></g></g></g></svg>