<svg xmlns="http://www.w3.org/2000/svg" xmlns:xlink="http://www.w3.org/1999/xlink" version="1.1" class="marks" width="946" height="319" viewBox="0 0 946 319" style="background-color: rgb(255, 255, 255);"><g fill="none" stroke-miterlimit="10" transform="translate(33,93)"><g class="mark-group role-frame root" role="graphics-object" aria-roledescription="group mark container"><g transform="translate(0,0)"><path class="background" aria-hidden="true" d="M0.5,0.5h908v200h-908Z" fill="transparent" stroke="#ddd"></path><g><g class="mark-group role-axis" aria-hidden="true"><g transform="translate(0.5,200.5)"><path class="background" aria-hidden="true" d="M0,0h0v0h0Z" pointer-events="none"></path><g><g class="mark-rule role-axis-grid" pointer-events="none"><line transform="translate(91,-200)" x2="0" y2="200" stroke="#D0D0D0" stroke-width="1" stroke-dasharray="1,0" opacity="1"></line><line transform="translate(272,-200)" x2="0" y2="200" stroke="#D0D0D0" stroke-width="1" stroke-dasharray="1,0" opacity="1"></line><line transform="translate(454,-200)" x2="0" y2="200" stroke="#D0D0D0" stroke-width="1" stroke-dasharray="1,0" opacity="1"></line><line transform="translate(636,-200)" x2="0" y2="200" stroke="#D0D0D0" stroke-width="1" stroke-dasharray="1,0" opacity="1"></line><line transform="translate(817,-200)" x2="0" y2="200" stroke="#D0D0D0" stroke-width="1" stroke-dasharray="1,0" opacity="1"></line></g></g><path class="foreground" aria-hidden="true" d="" pointer-events="none" display="none"></path></g></g><g class="mark-group role-axis" aria-hidden="true"><g transform="translate(0.5,0.5)"><path class="background" aria-hidden="true" d="M0,0h0v0h0Z" pointer-events="none"></path><g><g class="mark-rule role-axis-grid" pointer-events="none"><line transform="translate(0,200)" x2="908" y2="0" stroke="#D0D0D0" stroke-width="1" stroke-dasharray="1,0" opacity="1"></line><line transform="translate(0,167)" x2="908" y2="0" stroke="#D0D0D0" stroke-width="1" stroke-dasharray="1,0" opacity="1"></line><line transform="translate(0,133)" x2="908" y2="0" stroke="#D0D0D0" stroke-width="1" stroke-dasharray="1,0" opacity="1"></line><line transform="translate(0,100)" x2="908" y2="0" stroke="#D0D0D0" stroke-width="1" stroke-dasharray="1,0" opacity="1"></line><line transform="translate(0,67)" x2="908" y2="0" stroke="#D0D0D0" stroke-width="1" stroke-dasharray="1,0" opacity="1"></line><line transform="translate(0,33)" x2="908" y2="0" stroke="#D0D0D0" stroke-width="1" stroke-dasharray="1,0" opacity="1"></line><line transform="translate(0,0)" x2="908" y2="0" stroke="#D0D0D0" stroke-width="1" stroke-dasharray="1,0" opacity="1"></line></g></g><path class="foreground" aria-hidden="true" d="" pointer-events="none" display="none"></path></g></g><g class="mark-group role-axis" role="graphics-symbol" aria-roledescription="axis" aria-label="X-axis for a discrete scale with 5 values: 1810, 1812, 1814, 1816, 1818"><g transform="translate(0.5,200.5)"><path class="background" aria-hidden="true" d="M0,0h0v0h0Z" pointer-events="none"></path><g><g class="mark-rule role-axis-tick" pointer-events="none"><line transform="translate(91,0)" x2="0" y2="5" stroke="#888" stroke-width="1" opacity="1"></line><line transform="translate(272,0)" x2="0" y2="5" stroke="#888" stroke-width="1" opacity="1"></line><line transform="translate(454,0)" x2="0" y2="5" stroke="#888" stroke-width="1" opacity="1"></line><line transform="translate(636,0)" x2="0" y2="5" stroke="#888" stroke-width="1" opacity="1"></line><line transform="translate(817,0)" x2="0" y2="5" stroke="#888" stroke-width="1" opacity="1"></line></g><g class="mark-text role-axis-label" pointer-events="none"><text text-anchor="middle" transform="translate(90.80000000000001,18)" font-family="avenir" font-size="14px" font-weight="normal" fill="#000" opacity="1">1810</text><text text-anchor="middle" transform="translate(272.4,18)" font-family="avenir" font-size="14px" font-weight="normal" fill="#000" opacity="1">1812</text><text text-anchor="middle" transform="translate(454,18)" font-family="avenir" font-size="14px" font-weight="normal" fill="#000" opacity="1">1814</text><text text-anchor="middle" transform="translate(635.5999999999999,18)" font-family="avenir" font-size="14px" font-weight="normal" fill="#000" opacity="1">1816</text><text text-anchor="middle" transform="translate(817.2,18)" font-family="avenir" font-size="14px" font-weight="normal" fill="#000" opacity="1">1818</text></g><g class="mark-rule role-axis-domain" pointer-events="none"><line transform="translate(0,0)" x2="908" y2="0" stroke="#888" stroke-width="1" opacity="1"></line></g></g><path class="foreground" aria-hidden="true" d="" pointer-events="none" display="none"></path></g></g><g class="mark-group role-axis" role="graphics-symbol" aria-roledescription="axis" aria-label="Y-axis for a linear scale with values from 0 to 300"><g transform="translate(0.5,0.5)"><path class="background" aria-hidden="true" d="M0,0h0v0h0Z" pointer-events="none"></path><g><g class="mark-rule role-axis-tick" pointer-events="none"><line transform="translate(0,200)" x2="-5" y2="0" stroke="#888" stroke-width="1" opacity="1"></line><line transform="translate(0,167)" x2="-5" y2="0" stroke="#888" stroke-width="1" opacity="1"></line><line transform="translate(0,133)" x2="-5" y2="0" stroke="#888" stroke-width="1" opacity="1"></line><line transform="translate(0,100)" x2="-5" y2="0" stroke="#888" stroke-width="1" opacity="1"></line><line transform="translate(0,67)" x2="-5" y2="0" stroke="#888" stroke-width="1" opacity="1"></line><line transform="translate(0,33)" x2="-5" y2="0" stroke="#888" stroke-width="1" opacity="1"></line><line transform="translate(0,0)" x2="-5" y2="0" stroke="#888" stroke-width="1" opacity="1"></line></g><g class="mark-text role-axis-label" pointer-events="none"><text text-anchor="end" transform="translate(-7,204)" font-family="avenir" font-size="14px" font-weight="normal" fill="#000" opacity="1">0</text><text text-anchor="end" transform="translate(-7,170.66666666666669)" font-family="avenir" font-size="14px" font-weight="normal" fill="#000" opacity="1">50</text><text text-anchor="end" transform="translate(-7,137.33333333333334)" font-family="avenir" font-size="14px" font-weight="normal" fill="#000" opacity="1">100</text><text text-anchor="end" transform="translate(-7,104)" font-family="avenir" font-size="14px" font-weight="normal" fill="#000" opacity="1">150</text><text text-anchor="end" transform="translate(-7,70.66666666666667)" font-family="avenir" font-size="14px" font-weight="normal" fill="#000" opacity="1">200</text><text text-anchor="end" transform="translate(-7,37.33333333333333)" font-family="avenir" font-size="14px" font-weight="normal" fill="#000" opacity="1">250</text><text text-anchor="end" transform="translate(-7,4)" font-family="avenir" font-size="14px" font-weight="normal" fill="#000" opacity="1">300</text></g></g><path class="foreground" aria-hidden="true" d="" pointer-events="none" display="none"></path></g></g><g class="mark-group role-scope layer_0_pathgroup" role="graphics-object" aria-roledescription="group mark container"><g transform="translate(0,0)"><path class="background" aria-hidden="true" d="M0,0h908v200h-908Z"></path><g><g class="mark-line role-mark layer_0_marks" role="graphics-object" aria-roledescription="line mark container"><path aria-label="Year: 1810; harum whenever: 250; excepting eek: Guyana ha Corporate" role="graphics-symbol" aria-roledescription="line mark" d="M90.80000000000001,33.33333333333333C151.3333333333333,30.972222222222236,211.86666666666662,28.61111111111113,272.4,63.33333333333333C332.93333333333334,98.05555555555553,393.4666666666667,169.86111111111111,454,160C514.5333333333333,150.13888888888889,575.0666666666667,58.611111111111114,635.5999999999999,18.666666666666675C696.1333333333331,-21.277777777777768,756.6666666666665,-9.638888888888882,817.2,2.0000000000000018" stroke="#dd1b1f" stroke-width="2" stroke-dasharray="8,8"></path></g></g><path class="foreground" aria-hidden="true" d="" display="none"></path></g><g transform="translate(0,0)"><path class="background" aria-hidden="true" d="M0,0h908v200h-908Z"></path><g><g class="mark-line role-mark layer_0_marks" role="graphics-object" aria-roledescription="line mark container"><path aria-label="Year: 1810; harum whenever: 300; excepting eek: incomparable Concrete Minivan" role="graphics-symbol" aria-roledescription="line mark" d="M90.80000000000001,0C151.3333333333333,20.460317460317455,211.86666666666662,40.92063492063491,272.4,74C332.93333333333334,107.07936507936509,393.4666666666667,152.77777777777777,454,167.33333333333334C514.5333333333333,181.8888888888889,575.0666666666667,165.3015873015873,635.5999999999999,144C696.1333333333331,122.69841269841271,756.6666666666665,96.6825396825397,817.2,70.66666666666667" stroke="#c6287d" stroke-width="2" stroke-dasharray="8,8"></path></g></g><path class="foreground" aria-hidden="true" d="" display="none"></path></g></g><g class="mark-symbol role-mark layer_1_marks" role="graphics-object" aria-roledescription="symbol mark container"><path aria-label="Year: 1810; harum whenever: 250; excepting eek: Guyana ha Corporate" role="graphics-symbol" aria-roledescription="point" transform="translate(90.80000000000001,33.33333333333333)" d="M2.7386127875258306,0A2.7386127875258306,2.7386127875258306,0,1,1,-2.7386127875258306,0A2.7386127875258306,2.7386127875258306,0,1,1,2.7386127875258306,0" fill="#fff" stroke="#dd1b1f" stroke-width="3" opacity="1"></path><path aria-label="Year: 1812; harum whenever: 205; excepting eek: Guyana ha Corporate" role="graphics-symbol" aria-roledescription="point" transform="translate(272.4,63.33333333333333)" d="M2.7386127875258306,0A2.7386127875258306,2.7386127875258306,0,1,1,-2.7386127875258306,0A2.7386127875258306,2.7386127875258306,0,1,1,2.7386127875258306,0" fill="#fff" stroke="#dd1b1f" stroke-width="3" opacity="1"></path><path aria-label="Year: 1814; harum whenever: 60; excepting eek: Guyana ha Corporate" role="graphics-symbol" aria-roledescription="point" transform="translate(454,160)" d="M2.7386127875258306,0A2.7386127875258306,2.7386127875258306,0,1,1,-2.7386127875258306,0A2.7386127875258306,2.7386127875258306,0,1,1,2.7386127875258306,0" fill="#fff" stroke="#dd1b1f" stroke-width="3" opacity="1"></path><path aria-label="Year: 1816; harum whenever: 272; excepting eek: Guyana ha Corporate" role="graphics-symbol" aria-roledescription="point" transform="translate(635.5999999999999,18.666666666666675)" d="M2.7386127875258306,0A2.7386127875258306,2.7386127875258306,0,1,1,-2.7386127875258306,0A2.7386127875258306,2.7386127875258306,0,1,1,2.7386127875258306,0" fill="#fff" stroke="#dd1b1f" stroke-width="3" opacity="1"></path><path aria-label="Year: 1818; harum whenever: 297; excepting eek: Guyana ha Corporate" role="graphics-symbol" aria-roledescription="point" transform="translate(817.2,2.0000000000000018)" d="M2.7386127875258306,0A2.7386127875258306,2.7386127875258306,0,1,1,-2.7386127875258306,0A2.7386127875258306,2.7386127875258306,0,1,1,2.7386127875258306,0" fill="#fff" stroke="#dd1b1f" stroke-width="3" opacity="1"></path><path aria-label="Year: 1810; harum whenever: 300; excepting eek: incomparable Concrete Minivan" role="graphics-symbol" aria-roledescription="point" transform="translate(90.80000000000001,0)" d="M2.7386127875258306,0A2.7386127875258306,2.7386127875258306,0,1,1,-2.7386127875258306,0A2.7386127875258306,2.7386127875258306,0,1,1,2.7386127875258306,0" fill="#fff" stroke="#c6287d" stroke-width="3" opacity="1"></path><path aria-label="Year: 1812; harum whenever: 189; excepting eek: incomparable Concrete Minivan" role="graphics-symbol" aria-roledescription="point" transform="translate(272.4,74)" d="M2.7386127875258306,0A2.7386127875258306,2.7386127875258306,0,1,1,-2.7386127875258306,0A2.7386127875258306,2.7386127875258306,0,1,1,2.7386127875258306,0" fill="#fff" stroke="#c6287d" stroke-width="3" opacity="1"></path><path aria-label="Year: 1814; harum whenever: 49; excepting eek: incomparable Concrete Minivan" role="graphics-symbol" aria-roledescription="point" transform="translate(454,167.33333333333334)" d="M2.7386127875258306,0A2.7386127875258306,2.7386127875258306,0,1,1,-2.7386127875258306,0A2.7386127875258306,2.7386127875258306,0,1,1,2.7386127875258306,0" fill="#fff" stroke="#c6287d" stroke-width="3" opacity="1"></path><path aria-label="Year: 1816; harum whenever: 84; excepting eek: incomparable Concrete Minivan" role="graphics-symbol" aria-roledescription="point" transform="translate(635.5999999999999,144)" d="M2.7386127875258306,0A2.7386127875258306,2.7386127875258306,0,1,1,-2.7386127875258306,0A2.7386127875258306,2.7386127875258306,0,1,1,2.7386127875258306,0" fill="#fff" stroke="#c6287d" stroke-width="3" opacity="1"></path><path aria-label="Year: 1818; harum whenever: 194; excepting eek: incomparable Concrete Minivan" role="graphics-symbol" aria-roledescription="point" transform="translate(817.2,70.66666666666667)" d="M2.7386127875258306,0A2.7386127875258306,2.7386127875258306,0,1,1,-2.7386127875258306,0A2.7386127875258306,2.7386127875258306,0,1,1,2.7386127875258306,0" fill="#fff" stroke="#c6287d" stroke-width="3" opacity="1"></path></g><g class="mark-group role-legend" role="graphics-symbol" aria-roledescription="legend" aria-label="Symbol legend titled 'excepting eek' for stroke color with 2 values: Guyana ha Corporate, incomparable Concrete Minivan"><g transform="translate(0,-59)"><path class="background" aria-hidden="true" d="M0,0h259v29h-259Z" pointer-events="none"></path><g><g class="mark-group role-legend-entry"><g transform="translate(0,16)"><path class="background" aria-hidden="true" d="M0,0h0v0h0Z" pointer-events="none"></path><g><g class="mark-group role-scope" role="graphics-object" aria-roledescription="group mark container"><g transform="translate(0,0.25)"><path class="background" aria-hidden="true" d="M0,0h101.5224609375v12.5h-101.5224609375Z" pointer-events="none" opacity="1"></path><g><g class="mark-symbol role-legend-symbol" pointer-events="none"><path transform="translate(6,6)" d="M5,0A5,5,0,1,1,-5,0A5,5,0,1,1,5,0" fill="#fff" stroke="#dd1b1f" stroke-width="1.5" opacity="1"></path></g><g class="mark-text role-legend-label" pointer-events="none"><text text-anchor="start" transform="translate(16,9)" font-family="avenir" font-size="10px" fill="#000" opacity="1">Guyana ha Corporate</text></g></g><path class="foreground" aria-hidden="true" d="" pointer-events="none" display="none"></path></g><g transform="translate(113,0.25)"><path class="background" aria-hidden="true" d="M0,0h145.3994140625v12.5h-145.3994140625Z" pointer-events="none" opacity="1"></path><g><g class="mark-symbol role-legend-symbol" pointer-events="none"><path transform="translate(6,6)" d="M5,0A5,5,0,1,1,-5,0A5,5,0,1,1,5,0" fill="#fff" stroke="#c6287d" stroke-width="1.5" opacity="1"></path></g><g class="mark-text role-legend-label" pointer-events="none"><text text-anchor="start" transform="translate(16,9)" font-family="avenir" font-size="10px" fill="#000" opacity="1">incomparable Concrete Minivan</text></g></g><path class="foreground" aria-hidden="true" d="" pointer-events="none" display="none"></path></g></g></g><path class="foreground" aria-hidden="true" d="" pointer-events="none" display="none"></path></g></g><g class="mark-text role-legend-title" pointer-events="none"><text text-anchor="start" transform="translate(0,9)" font-family="avenir" font-size="11px" font-weight="bold" fill="#000" opacity="1">excepting eek</text></g></g><path class="foreground" aria-hidden="true" d="" pointer-events="none" display="none"></path></g></g><g class="mark-group role-title"><g transform="translate(-28,-88)"><path class="background" aria-hidden="true" d="M0,0h0v0h0Z" pointer-events="none"></path><g><g class="mark-text role-title-text" role="graphics-symbol" aria-roledescription="title" aria-label="Title text 'synthesize Ruthenium'" pointer-events="none"><text text-anchor="start" transform="translate(0,20)" font-family="avenir" font-size="25px" font-weight="bold" fill="#000" opacity="1">synthesize Ruthenium</text></g></g><path class="foreground" aria-hidden="true" d="" pointer-events="none" display="none"></path></g></g></g><path class="foreground" aria-hidden="true" d="" display="none"></path></g></g></g></svg>