<svg xmlns="http://www.w3.org/2000/svg" xmlns:xlink="http://www.w3.org/1999/xlink" version="1.1" class="marks" width="980" height="261" viewBox="0 0 980 261" style="background-color: rgb(51, 51, 51);"><g fill="none" stroke-miterlimit="10" transform="translate(22,34)"><g class="mark-group role-frame root" role="graphics-object" aria-roledescription="group mark container"><g transform="translate(0,0)"><path class="background" aria-hidden="true" d="M0.5,0.5h953v200h-953Z" fill="transparent" stroke="#ddd"></path><g><g class="mark-group role-axis" aria-hidden="true"><g transform="translate(0.5,200.5)"><path class="background" aria-hidden="true" d="M0,0h0v0h0Z" pointer-events="none"></path><g><g class="mark-rule role-axis-grid" pointer-events="none"><line transform="translate(79,-200)" x2="0" y2="200" stroke="#747474" stroke-width="1" stroke-dasharray="4, 2" opacity="1"></line><line transform="translate(238,-200)" x2="0" y2="200" stroke="#747474" stroke-width="1" stroke-dasharray="4, 2" opacity="1"></line><line transform="translate(397,-200)" x2="0" y2="200" stroke="#747474" stroke-width="1" stroke-dasharray="4, 2" opacity="1"></line><line transform="translate(556,-200)" x2="0" y2="200" stroke="#747474" stroke-width="1" stroke-dasharray="4, 2" opacity="1"></line><line transform="translate(715,-200)" x2="0" y2="200" stroke="#747474" stroke-width="1" stroke-dasharray="4, 2" opacity="1"></line><line transform="translate(874,-200)" x2="0" y2="200" stroke="#747474" stroke-width="1" stroke-dasharray="4, 2" opacity="1"></line></g></g><path class="foreground" aria-hidden="true" d="" pointer-events="none" display="none"></path></g></g><g class="mark-group role-axis" aria-hidden="true"><g transform="translate(0.5,0.5)"><path class="background" aria-hidden="true" d="M0,0h0v0h0Z" pointer-events="none"></path><g><g class="mark-rule role-axis-grid" pointer-events="none"><line transform="translate(0,200)" x2="953" y2="0" stroke="#747474" stroke-width="1" stroke-dasharray="4, 2" opacity="1"></line><line transform="translate(0,156)" x2="953" y2="0" stroke="#747474" stroke-width="1" stroke-dasharray="4, 2" opacity="1"></line><line transform="translate(0,111)" x2="953" y2="0" stroke="#747474" stroke-width="1" stroke-dasharray="4, 2" opacity="1"></line><line transform="translate(0,67)" x2="953" y2="0" stroke="#747474" stroke-width="1" stroke-dasharray="4, 2" opacity="1"></line><line transform="translate(0,22)" x2="953" y2="0" stroke="#747474" stroke-width="1" stroke-dasharray="4, 2" opacity="1"></line></g></g><path class="foreground" aria-hidden="true" d="" pointer-events="none" display="none"></path></g></g><g class="mark-group role-axis" role="graphics-symbol" aria-roledescription="axis" aria-label="X-axis for a discrete scale with 6 values: 1941, 1942, 1943, 1944, 1945, 1946"><g transform="translate(0.5,200.5)"><path class="background" aria-hidden="true" d="M0,0h0v0h0Z" pointer-events="none"></path><g><g class="mark-rule role-axis-tick" pointer-events="none"><line transform="translate(79,0)" x2="0" y2="5" stroke="#888" stroke-width="1" opacity="1"></line><line transform="translate(238,0)" x2="0" y2="5" stroke="#888" stroke-width="1" opacity="1"></line><line transform="translate(397,0)" x2="0" y2="5" stroke="#888" stroke-width="1" opacity="1"></line><line transform="translate(556,0)" x2="0" y2="5" stroke="#888" stroke-width="1" opacity="1"></line><line transform="translate(715,0)" x2="0" y2="5" stroke="#888" stroke-width="1" opacity="1"></line><line transform="translate(874,0)" x2="0" y2="5" stroke="#888" stroke-width="1" opacity="1"></line></g><g class="mark-text role-axis-label" pointer-events="none"><text text-anchor="middle" transform="translate(79.41666666666663,19)" font-family="serif" font-size="15px" font-weight="bold" fill="#fff" opacity="1">1941</text><text text-anchor="middle" transform="translate(238.24999999999997,19)" font-family="serif" font-size="15px" font-weight="bold" fill="#fff" opacity="1">1942</text><text text-anchor="middle" transform="translate(397.0833333333333,19)" font-family="serif" font-size="15px" font-weight="bold" fill="#fff" opacity="1">1943</text><text text-anchor="middle" transform="translate(555.9166666666666,19)" font-family="serif" font-size="15px" font-weight="bold" fill="#fff" opacity="1">1944</text><text text-anchor="middle" transform="translate(714.75,19)" font-family="serif" font-size="15px" font-weight="bold" fill="#fff" opacity="1">1945</text><text text-anchor="middle" transform="translate(873.5833333333334,19)" font-family="serif" font-size="15px" font-weight="bold" fill="#fff" opacity="1">1946</text></g><g class="mark-rule role-axis-domain" pointer-events="none"><line transform="translate(0,0)" x2="953" y2="0" stroke="#888" stroke-width="1" opacity="1"></line></g></g><path class="foreground" aria-hidden="true" d="" pointer-events="none" display="none"></path></g></g><g class="mark-group role-axis" role="graphics-symbol" aria-roledescription="axis" aria-label="Y-axis for a linear scale with values from 0 to 90"><g transform="translate(0.5,0.5)"><path class="background" aria-hidden="true" d="M0,0h0v0h0Z" pointer-events="none"></path><g><g class="mark-text role-axis-label" pointer-events="none"><text text-anchor="end" transform="translate(-2,205)" font-family="serif" font-size="15px" font-weight="bold" fill="#fff" opacity="1">0</text><text text-anchor="end" transform="translate(-2,160.55555555555557)" font-family="serif" font-size="15px" font-weight="bold" fill="#fff" opacity="1">20</text><text text-anchor="end" transform="translate(-2,116.11111111111111)" font-family="serif" font-size="15px" font-weight="bold" fill="#fff" opacity="1">40</text><text text-anchor="end" transform="translate(-2,71.66666666666667)" font-family="serif" font-size="15px" font-weight="bold" fill="#fff" opacity="1">60</text><text text-anchor="end" transform="translate(-2,27.222222222222232)" font-family="serif" font-size="15px" font-weight="bold" fill="#fff" opacity="1">80</text></g><g class="mark-rule role-axis-domain" pointer-events="none"><line transform="translate(0,200)" x2="0" y2="-200" stroke="#888" stroke-width="1" opacity="1"></line></g></g><path class="foreground" aria-hidden="true" d="" pointer-events="none" display="none"></path></g></g><g class="mark-group role-scope layer_0_pathgroup" role="graphics-object" aria-roledescription="group mark container"><g transform="translate(0,0)"><path class="background" aria-hidden="true" d="M0,0h953v200h-953Z"></path><g><g class="mark-line role-mark layer_0_marks" role="graphics-object" aria-roledescription="line mark container"><path aria-label="Year: 1941; Toyota dead evolve: 1; harum: Pickup Direct" role="graphics-symbol" aria-roledescription="line mark" d="M79.41666666666663,197.77777777777777L238.24999999999997,71.1111111111111L397.0833333333333,17.777777777777782L555.9166666666666,180L714.75,37.77777777777778L873.5833333333334,153.33333333333331" stroke="#ada6a1" stroke-width="2" stroke-dasharray="1,0"></path></g></g><path class="foreground" aria-hidden="true" d="" display="none"></path></g></g><g class="mark-symbol role-mark layer_1_marks" role="graphics-object" aria-roledescription="symbol mark container"><path aria-label="Year: 1941; Toyota dead evolve: 1; harum: Pickup Direct" role="graphics-symbol" aria-roledescription="point" transform="translate(79.41666666666663,197.77777777777777)" d="M2.7386127875258306,0A2.7386127875258306,2.7386127875258306,0,1,1,-2.7386127875258306,0A2.7386127875258306,2.7386127875258306,0,1,1,2.7386127875258306,0" fill="#333333" stroke="#ada6a1" stroke-width="3" opacity="1"></path><path aria-label="Year: 1942; Toyota dead evolve: 58; harum: Pickup Direct" role="graphics-symbol" aria-roledescription="point" transform="translate(238.24999999999997,71.1111111111111)" d="M2.7386127875258306,0A2.7386127875258306,2.7386127875258306,0,1,1,-2.7386127875258306,0A2.7386127875258306,2.7386127875258306,0,1,1,2.7386127875258306,0" fill="#333333" stroke="#ada6a1" stroke-width="3" opacity="1"></path><path aria-label="Year: 1943; Toyota dead evolve: 82; harum: Pickup Direct" role="graphics-symbol" aria-roledescription="point" transform="translate(397.0833333333333,17.777777777777782)" d="M2.7386127875258306,0A2.7386127875258306,2.7386127875258306,0,1,1,-2.7386127875258306,0A2.7386127875258306,2.7386127875258306,0,1,1,2.7386127875258306,0" fill="#333333" stroke="#ada6a1" stroke-width="3" opacity="1"></path><path aria-label="Year: 1944; Toyota dead evolve: 9; harum: Pickup Direct" role="graphics-symbol" aria-roledescription="point" transform="translate(555.9166666666666,180)" d="M2.7386127875258306,0A2.7386127875258306,2.7386127875258306,0,1,1,-2.7386127875258306,0A2.7386127875258306,2.7386127875258306,0,1,1,2.7386127875258306,0" fill="#333333" stroke="#ada6a1" stroke-width="3" opacity="1"></path><path aria-label="Year: 1945; Toyota dead evolve: 73; harum: Pickup Direct" role="graphics-symbol" aria-roledescription="point" transform="translate(714.75,37.77777777777778)" d="M2.7386127875258306,0A2.7386127875258306,2.7386127875258306,0,1,1,-2.7386127875258306,0A2.7386127875258306,2.7386127875258306,0,1,1,2.7386127875258306,0" fill="#333333" stroke="#ada6a1" stroke-width="3" opacity="1"></path><path aria-label="Year: 1946; Toyota dead evolve: 21; harum: Pickup Direct" role="graphics-symbol" aria-roledescription="point" transform="translate(873.5833333333334,153.33333333333331)" d="M2.7386127875258306,0A2.7386127875258306,2.7386127875258306,0,1,1,-2.7386127875258306,0A2.7386127875258306,2.7386127875258306,0,1,1,2.7386127875258306,0" fill="#333333" stroke="#ada6a1" stroke-width="3" opacity="1"></path></g><g class="mark-group role-title"><g transform="translate(953,-29)"><path class="background" aria-hidden="true" d="M0,0h0v0h0Z" pointer-events="none"></path><g><g class="mark-text role-title-text" role="graphics-symbol" aria-roledescription="title" aria-label="Title text 'Ghana defiantly redefine'" pointer-events="none"><text text-anchor="end" transform="translate(0,20)" font-family="serif" font-size="25px" font-weight="bold" fill="#fff" opacity="1">Ghana defiantly redefine</text></g></g><path class="foreground" aria-hidden="true" d="" pointer-events="none" display="none"></path></g></g></g><path class="foreground" aria-hidden="true" d="" display="none"></path></g></g></g></svg>