<svg xmlns="http://www.w3.org/2000/svg" xmlns:xlink="http://www.w3.org/1999/xlink" version="1.1" class="marks" width="706" height="287" viewBox="0 0 706 287" style="background-color: rgb(51, 51, 51);"><g fill="none" stroke-miterlimit="10" transform="translate(23,39)"><g class="mark-group role-frame root" role="graphics-object" aria-roledescription="group mark container"><g transform="translate(0,0)"><path class="background" aria-hidden="true" d="M0.5,0.5h678v200h-678Z" fill="transparent" stroke="#ddd"></path><g><g class="mark-group role-axis" aria-hidden="true"><g transform="translate(0.5,0.5)"><path class="background" aria-hidden="true" d="M0,0h0v0h0Z" pointer-events="none"></path><g><g class="mark-rule role-axis-grid" pointer-events="none"><line transform="translate(0,200)" x2="678" y2="0" stroke="#747474" stroke-width="1" stroke-dasharray="4, 2" opacity="1"></line><line transform="translate(0,164)" x2="678" y2="0" stroke="#747474" stroke-width="1" stroke-dasharray="4, 2" opacity="1"></line><line transform="translate(0,127)" x2="678" y2="0" stroke="#747474" stroke-width="1" stroke-dasharray="4, 2" opacity="1"></line><line transform="translate(0,91)" x2="678" y2="0" stroke="#747474" stroke-width="1" stroke-dasharray="4, 2" opacity="1"></line><line transform="translate(0,55)" x2="678" y2="0" stroke="#747474" stroke-width="1" stroke-dasharray="4, 2" opacity="1"></line><line transform="translate(0,18)" x2="678" y2="0" stroke="#747474" stroke-width="1" stroke-dasharray="4, 2" opacity="1"></line></g></g><path class="foreground" aria-hidden="true" d="" pointer-events="none" display="none"></path></g></g><g class="mark-group role-axis" role="graphics-symbol" aria-roledescription="axis" aria-label="X-axis for a discrete scale with 10 values: Jan, Feb, Mar, Apr, May, ending with Oct"><g transform="translate(0.5,200.5)"><path class="background" aria-hidden="true" d="M0,0h0v0h0Z" pointer-events="none"></path><g><g class="mark-rule role-axis-tick" pointer-events="none"><line transform="translate(34,0)" x2="0" y2="5" stroke="#888" stroke-width="1" opacity="1"></line><line transform="translate(102,0)" x2="0" y2="5" stroke="#888" stroke-width="1" opacity="1"></line><line transform="translate(170,0)" x2="0" y2="5" stroke="#888" stroke-width="1" opacity="1"></line><line transform="translate(237,0)" x2="0" y2="5" stroke="#888" stroke-width="1" opacity="1"></line><line transform="translate(305,0)" x2="0" y2="5" stroke="#888" stroke-width="1" opacity="1"></line><line transform="translate(373,0)" x2="0" y2="5" stroke="#888" stroke-width="1" opacity="1"></line><line transform="translate(441,0)" x2="0" y2="5" stroke="#888" stroke-width="1" opacity="1"></line><line transform="translate(509,0)" x2="0" y2="5" stroke="#888" stroke-width="1" opacity="1"></line><line transform="translate(576,0)" x2="0" y2="5" stroke="#888" stroke-width="1" opacity="1"></line><line transform="translate(644,0)" x2="0" y2="5" stroke="#888" stroke-width="1" opacity="1"></line></g><g class="mark-text role-axis-label" pointer-events="none"><text text-anchor="start" transform="translate(33.900000000000034,7) rotate(90) translate(0,5)" font-family="monospace" font-size="16px" font-weight="normal" fill="#fff" opacity="1">Jan</text><text text-anchor="start" transform="translate(101.70000000000003,7) rotate(90) translate(0,5)" font-family="monospace" font-size="16px" font-weight="normal" fill="#fff" opacity="1">Feb</text><text text-anchor="start" transform="translate(169.50000000000003,7) rotate(90) translate(0,5)" font-family="monospace" font-size="16px" font-weight="normal" fill="#fff" opacity="1">Mar</text><text text-anchor="start" transform="translate(237.3,7) rotate(90) translate(0,5)" font-family="monospace" font-size="16px" font-weight="normal" fill="#fff" opacity="1">Apr</text><text text-anchor="start" transform="translate(305.1,7) rotate(90) translate(0,5)" font-family="monospace" font-size="16px" font-weight="normal" fill="#fff" opacity="1">May</text><text text-anchor="start" transform="translate(372.90000000000003,7) rotate(90) translate(0,5)" font-family="monospace" font-size="16px" font-weight="normal" fill="#fff" opacity="1">June</text><text text-anchor="start" transform="translate(440.7,7) rotate(90) translate(0,5)" font-family="monospace" font-size="16px" font-weight="normal" fill="#fff" opacity="1">July</text><text text-anchor="start" transform="translate(508.5,7) rotate(90) translate(0,5)" font-family="monospace" font-size="16px" font-weight="normal" fill="#fff" opacity="1">Aug</text><text text-anchor="start" transform="translate(576.3,7) rotate(90) translate(0,5)" font-family="monospace" font-size="16px" font-weight="normal" fill="#fff" opacity="1">Sep</text><text text-anchor="start" transform="translate(644.0999999999999,7) rotate(90) translate(0,5)" font-family="monospace" font-size="16px" font-weight="normal" fill="#fff" opacity="1">Oct</text></g><g class="mark-rule role-axis-domain" pointer-events="none"><line transform="translate(0,0)" x2="678" y2="0" stroke="#888" stroke-width="1" opacity="1"></line></g></g><path class="foreground" aria-hidden="true" d="" pointer-events="none" display="none"></path></g></g><g class="mark-group role-axis" role="graphics-symbol" aria-roledescription="axis" aria-label="Y-axis for a linear scale with values from 0 to 550"><g transform="translate(0.5,0.5)"><path class="background" aria-hidden="true" d="M0,0h0v0h0Z" pointer-events="none"></path><g><g class="mark-text role-axis-label" pointer-events="none"><text text-anchor="middle" transform="translate(-2,200) rotate(90) translate(0,13)" font-family="monospace" font-size="16px" font-weight="normal" fill="#fff" opacity="1">0</text><text text-anchor="middle" transform="translate(-2,163.63636363636363) rotate(90) translate(0,13)" font-family="monospace" font-size="16px" font-weight="normal" fill="#fff" opacity="1">100</text><text text-anchor="middle" transform="translate(-2,127.27272727272727) rotate(90) translate(0,13)" font-family="monospace" font-size="16px" font-weight="normal" fill="#fff" opacity="1">200</text><text text-anchor="middle" transform="translate(-2,90.90909090909092) rotate(90) translate(0,13)" font-family="monospace" font-size="16px" font-weight="normal" fill="#fff" opacity="1">300</text><text text-anchor="middle" transform="translate(-2,54.54545454545454) rotate(90) translate(0,13)" font-family="monospace" font-size="16px" font-weight="normal" fill="#fff" opacity="1">400</text><text text-anchor="middle" transform="translate(-2,18.181818181818187) rotate(90) translate(0,13)" font-family="monospace" font-size="16px" font-weight="normal" fill="#fff" opacity="1">500</text></g><g class="mark-rule role-axis-domain" pointer-events="none"><line transform="translate(0,200)" x2="0" y2="-200" stroke="#888" stroke-width="1" opacity="1"></line></g></g><path class="foreground" aria-hidden="true" d="" pointer-events="none" display="none"></path></g></g><g class="mark-group role-scope layer_0_pathgroup" role="graphics-object" aria-roledescription="group mark container"><g transform="translate(0,0)"><path class="background" aria-hidden="true" d="M0,0h678v200h-678Z"></path><g><g class="mark-line role-mark layer_0_marks" role="graphics-object" aria-roledescription="line mark container"><path aria-label="Month: Jan; wherever: 48; female Rand: Account" role="graphics-symbol" aria-roledescription="line mark" d="M33.900000000000034,182.54545454545453C56.500000000000036,104.88505327040286,79.10000000000004,27.22465199535121,101.70000000000003,34.54545454545455C124.30000000000003,41.866257095557884,146.90000000000003,134.1682634708162,169.50000000000003,166.54545454545456C192.10000000000002,198.9226456200929,214.70000000000005,171.37502139411131,237.3,146.90909090909093C259.9,122.44316042407056,282.49999999999994,101.05892368001136,305.1,80.36363636363637C327.7000000000001,59.66834904726138,350.3000000000001,39.66201115857055,372.90000000000003,45.45454545454546C395.49999999999994,51.24707975052037,418.0999999999999,82.83848623116103,440.7,68.72727272727272C463.30000000000007,54.616059223384404,485.9000000000001,-5.197774265032865,508.5,0C531.0999999999999,5.197774265032865,553.6999999999998,75.40715628351587,576.3,97.0909090909091C598.9000000000001,118.77466189830231,621.5,91.9327854946057,644.0999999999999,65.0909090909091" stroke="#feb89e" stroke-width="2" stroke-dasharray="1,0"></path></g></g><path class="foreground" aria-hidden="true" d="" display="none"></path></g></g><g class="mark-symbol role-mark layer_1_marks" role="graphics-object" aria-roledescription="symbol mark container"><path aria-label="Month: Jan; wherever: 48; female Rand: Account" role="graphics-symbol" aria-roledescription="point" transform="translate(33.900000000000034,182.54545454545453)" d="M4.8218253804964775,0A4.8218253804964775,4.8218253804964775,0,1,1,-4.8218253804964775,0A4.8218253804964775,4.8218253804964775,0,1,1,4.8218253804964775,0" fill="#feb89e" stroke-width="2" opacity="1"></path><path aria-label="Month: Feb; wherever: 455; female Rand: Account" role="graphics-symbol" aria-roledescription="point" transform="translate(101.70000000000003,34.54545454545455)" d="M4.8218253804964775,0A4.8218253804964775,4.8218253804964775,0,1,1,-4.8218253804964775,0A4.8218253804964775,4.8218253804964775,0,1,1,4.8218253804964775,0" fill="#feb89e" stroke-width="2" opacity="1"></path><path aria-label="Month: Mar; wherever: 92; female Rand: Account" role="graphics-symbol" aria-roledescription="point" transform="translate(169.50000000000003,166.54545454545456)" d="M4.8218253804964775,0A4.8218253804964775,4.8218253804964775,0,1,1,-4.8218253804964775,0A4.8218253804964775,4.8218253804964775,0,1,1,4.8218253804964775,0" fill="#feb89e" stroke-width="2" opacity="1"></path><path aria-label="Month: Apr; wherever: 146; female Rand: Account" role="graphics-symbol" aria-roledescription="point" transform="translate(237.3,146.90909090909093)" d="M4.8218253804964775,0A4.8218253804964775,4.8218253804964775,0,1,1,-4.8218253804964775,0A4.8218253804964775,4.8218253804964775,0,1,1,4.8218253804964775,0" fill="#feb89e" stroke-width="2" opacity="1"></path><path aria-label="Month: May; wherever: 329; female Rand: Account" role="graphics-symbol" aria-roledescription="point" transform="translate(305.1,80.36363636363637)" d="M4.8218253804964775,0A4.8218253804964775,4.8218253804964775,0,1,1,-4.8218253804964775,0A4.8218253804964775,4.8218253804964775,0,1,1,4.8218253804964775,0" fill="#feb89e" stroke-width="2" opacity="1"></path><path aria-label="Month: June; wherever: 425; female Rand: Account" role="graphics-symbol" aria-roledescription="point" transform="translate(372.90000000000003,45.45454545454546)" d="M4.8218253804964775,0A4.8218253804964775,4.8218253804964775,0,1,1,-4.8218253804964775,0A4.8218253804964775,4.8218253804964775,0,1,1,4.8218253804964775,0" fill="#feb89e" stroke-width="2" opacity="1"></path><path aria-label="Month: July; wherever: 361; female Rand: Account" role="graphics-symbol" aria-roledescription="point" transform="translate(440.7,68.72727272727272)" d="M4.8218253804964775,0A4.8218253804964775,4.8218253804964775,0,1,1,-4.8218253804964775,0A4.8218253804964775,4.8218253804964775,0,1,1,4.8218253804964775,0" fill="#feb89e" stroke-width="2" opacity="1"></path><path aria-label="Month: Aug; wherever: 550; female Rand: Account" role="graphics-symbol" aria-roledescription="point" transform="translate(508.5,0)" d="M4.8218253804964775,0A4.8218253804964775,4.8218253804964775,0,1,1,-4.8218253804964775,0A4.8218253804964775,4.8218253804964775,0,1,1,4.8218253804964775,0" fill="#feb89e" stroke-width="2" opacity="1"></path><path aria-label="Month: Sep; wherever: 283; female Rand: Account" role="graphics-symbol" aria-roledescription="point" transform="translate(576.3,97.0909090909091)" d="M4.8218253804964775,0A4.8218253804964775,4.8218253804964775,0,1,1,-4.8218253804964775,0A4.8218253804964775,4.8218253804964775,0,1,1,4.8218253804964775,0" fill="#feb89e" stroke-width="2" opacity="1"></path><path aria-label="Month: Oct; wherever: 371; female Rand: Account" role="graphics-symbol" aria-roledescription="point" transform="translate(644.0999999999999,65.0909090909091)" d="M4.8218253804964775,0A4.8218253804964775,4.8218253804964775,0,1,1,-4.8218253804964775,0A4.8218253804964775,4.8218253804964775,0,1,1,4.8218253804964775,0" fill="#feb89e" stroke-width="2" opacity="1"></path></g><g class="mark-group role-title"><g transform="translate(678,-33.82182538049648)"><path class="background" aria-hidden="true" d="M0,0h0v0h0Z" pointer-events="none"></path><g><g class="mark-text role-title-text" role="graphics-symbol" aria-roledescription="title" aria-label="Title text 'Hybrid'" pointer-events="none"><text text-anchor="end" transform="translate(0,20)" font-family="monospace" font-size="25px" font-weight="bold" fill="#fff" opacity="1">Hybrid</text></g></g><path class="foreground" aria-hidden="true" d="" pointer-events="none" display="none"></path></g></g></g><path class="foreground" aria-hidden="true" d="" display="none"></path></g></g></g></svg>