<svg xmlns="http://www.w3.org/2000/svg" xmlns:xlink="http://www.w3.org/1999/xlink" version="1.1" class="marks" width="744" height="275" viewBox="0 0 744 275" style="background-color: rgb(255, 255, 255);"><g fill="none" stroke-miterlimit="10" transform="translate(20,34)"><g class="mark-group role-frame root" role="graphics-object" aria-roledescription="group mark container"><g transform="translate(0,0)"><path class="background" aria-hidden="true" d="M0.5,0.5h584v200h-584Z" fill="transparent" stroke="#ddd"></path><g><g class="mark-group role-axis" aria-hidden="true"><g transform="translate(0.5,200.5)"><path class="background" aria-hidden="true" d="M0,0h0v0h0Z" pointer-events="none"></path><g><g class="mark-rule role-axis-grid" pointer-events="none"><line transform="translate(37,-200)" x2="0" y2="200" stroke="#D0D0D0" stroke-width="1" stroke-dasharray="1,0" opacity="1"></line><line transform="translate(110,-200)" x2="0" y2="200" stroke="#D0D0D0" stroke-width="1" stroke-dasharray="1,0" opacity="1"></line><line transform="translate(183,-200)" x2="0" y2="200" stroke="#D0D0D0" stroke-width="1" stroke-dasharray="1,0" opacity="1"></line><line transform="translate(256,-200)" x2="0" y2="200" stroke="#D0D0D0" stroke-width="1" stroke-dasharray="1,0" opacity="1"></line><line transform="translate(329,-200)" x2="0" y2="200" stroke="#D0D0D0" stroke-width="1" stroke-dasharray="1,0" opacity="1"></line><line transform="translate(402,-200)" x2="0" y2="200" stroke="#D0D0D0" stroke-width="1" stroke-dasharray="1,0" opacity="1"></line><line transform="translate(475,-200)" x2="0" y2="200" stroke="#D0D0D0" stroke-width="1" stroke-dasharray="1,0" opacity="1"></line><line transform="translate(548,-200)" x2="0" y2="200" stroke="#D0D0D0" stroke-width="1" stroke-dasharray="1,0" opacity="1"></line></g></g><path class="foreground" aria-hidden="true" d="" pointer-events="none" display="none"></path></g></g><g class="mark-group role-axis" aria-hidden="true"><g transform="translate(0.5,0.5)"><path class="background" aria-hidden="true" d="M0,0h0v0h0Z" pointer-events="none"></path><g><g class="mark-rule role-axis-grid" pointer-events="none"><line transform="translate(0,200)" x2="584" y2="0" stroke="#D0D0D0" stroke-width="1" stroke-dasharray="1,0" opacity="1"></line><line transform="translate(0,156)" x2="584" y2="0" stroke="#D0D0D0" stroke-width="1" stroke-dasharray="1,0" opacity="1"></line><line transform="translate(0,111)" x2="584" y2="0" stroke="#D0D0D0" stroke-width="1" stroke-dasharray="1,0" opacity="1"></line><line transform="translate(0,67)" x2="584" y2="0" stroke="#D0D0D0" stroke-width="1" stroke-dasharray="1,0" opacity="1"></line><line transform="translate(0,22)" x2="584" y2="0" stroke="#D0D0D0" stroke-width="1" stroke-dasharray="1,0" opacity="1"></line></g></g><path class="foreground" aria-hidden="true" d="" pointer-events="none" display="none"></path></g></g><g class="mark-group role-axis" role="graphics-symbol" aria-roledescription="axis" aria-label="X-axis for a discrete scale with 8 values: 1989, 1991, 1993, 1995, 1997, ending with 2003"><g transform="translate(0.5,200.5)"><path class="background" aria-hidden="true" d="M0,0h0v0h0Z" pointer-events="none"></path><g><g class="mark-rule role-axis-tick" pointer-events="none"><line transform="translate(37,0)" x2="0" y2="5" stroke="#888" stroke-width="1" opacity="1"></line><line transform="translate(110,0)" x2="0" y2="5" stroke="#888" stroke-width="1" opacity="1"></line><line transform="translate(183,0)" x2="0" y2="5" stroke="#888" stroke-width="1" opacity="1"></line><line transform="translate(256,0)" x2="0" y2="5" stroke="#888" stroke-width="1" opacity="1"></line><line transform="translate(329,0)" x2="0" y2="5" stroke="#888" stroke-width="1" opacity="1"></line><line transform="translate(402,0)" x2="0" y2="5" stroke="#888" stroke-width="1" opacity="1"></line><line transform="translate(475,0)" x2="0" y2="5" stroke="#888" stroke-width="1" opacity="1"></line><line transform="translate(548,0)" x2="0" y2="5" stroke="#888" stroke-width="1" opacity="1"></line></g><g class="mark-text role-axis-label" pointer-events="none"><text text-anchor="start" transform="translate(36.5,7) rotate(90) translate(0,4)" font-family="sans-serif" font-size="13px" font-weight="bold" fill="#000" opacity="1">1989</text><text text-anchor="start" transform="translate(109.5,7) rotate(90) translate(0,4)" font-family="sans-serif" font-size="13px" font-weight="bold" fill="#000" opacity="1">1991</text><text text-anchor="start" transform="translate(182.5,7) rotate(90) translate(0,4)" font-family="sans-serif" font-size="13px" font-weight="bold" fill="#000" opacity="1">1993</text><text text-anchor="start" transform="translate(255.5,7) rotate(90) translate(0,4)" font-family="sans-serif" font-size="13px" font-weight="bold" fill="#000" opacity="1">1995</text><text text-anchor="start" transform="translate(328.5,7) rotate(90) translate(0,4)" font-family="sans-serif" font-size="13px" font-weight="bold" fill="#000" opacity="1">1997</text><text text-anchor="start" transform="translate(401.5,7) rotate(90) translate(0,4)" font-family="sans-serif" font-size="13px" font-weight="bold" fill="#000" opacity="1">1999</text><text text-anchor="start" transform="translate(474.5,7) rotate(90) translate(0,4)" font-family="sans-serif" font-size="13px" font-weight="bold" fill="#000" opacity="1">2001</text><text text-anchor="start" transform="translate(547.5,7) rotate(90) translate(0,4)" font-family="sans-serif" font-size="13px" font-weight="bold" fill="#000" opacity="1">2003</text></g><g class="mark-rule role-axis-domain" pointer-events="none"><line transform="translate(0,0)" x2="584" y2="0" stroke="#888" stroke-width="1" opacity="1"></line></g></g><path class="foreground" aria-hidden="true" d="" pointer-events="none" display="none"></path></g></g><g class="mark-group role-axis" role="graphics-symbol" aria-roledescription="axis" aria-label="Y-axis for a linear scale with values from 0 to 900"><g transform="translate(0.5,0.5)"><path class="background" aria-hidden="true" d="M0,0h0v0h0Z" pointer-events="none"></path><g><g class="mark-text role-axis-label" pointer-events="none"><text text-anchor="middle" transform="translate(-2,200) rotate(90) translate(0,10)" font-family="sans-serif" font-size="13px" font-weight="bold" fill="#000" opacity="1">0</text><text text-anchor="middle" transform="translate(-2,155.55555555555557) rotate(90) translate(0,10)" font-family="sans-serif" font-size="13px" font-weight="bold" fill="#000" opacity="1">200</text><text text-anchor="middle" transform="translate(-2,111.11111111111111) rotate(90) translate(0,10)" font-family="sans-serif" font-size="13px" font-weight="bold" fill="#000" opacity="1">400</text><text text-anchor="middle" transform="translate(-2,66.66666666666667) rotate(90) translate(0,10)" font-family="sans-serif" font-size="13px" font-weight="bold" fill="#000" opacity="1">600</text><text text-anchor="middle" transform="translate(-2,22.222222222222232) rotate(90) translate(0,10)" font-family="sans-serif" font-size="13px" font-weight="bold" fill="#000" opacity="1">800</text></g><g class="mark-rule role-axis-domain" pointer-events="none"><line transform="translate(0,200)" x2="0" y2="-200" stroke="#888" stroke-width="1" opacity="1"></line></g></g><path class="foreground" aria-hidden="true" d="" pointer-events="none" display="none"></path></g></g><g class="mark-group role-scope layer_0_pathgroup" role="graphics-object" aria-roledescription="group mark container"><g transform="translate(0,0)"><path class="background" aria-hidden="true" d="M0,0h584v200h-584Z"></path><g><g class="mark-line role-mark layer_0_marks" role="graphics-object" aria-roledescription="line mark container"><path aria-label="Year: 1989; blue yet: 759; Modern Bronze utilize: female Potassium lime" role="graphics-symbol" aria-roledescription="line mark" d="M36.5,31.333333333333325C60.83333333333334,42.800844815959884,85.16666666666669,54.268356298586454,109.5,87.77777777777777C133.83333333333331,121.28719925696909,158.16666666666666,176.83853073272516,182.5,155.33333333333331C206.83333333333334,133.82813593394147,231.16666666666663,35.26640965940174,255.5,37.77777777777778C279.83333333333337,40.28914589615382,304.16666666666663,143.87360840744557,328.5,160.44444444444443C352.83333333333337,177.01528048144328,377.1666666666667,106.57249004414925,401.5,91.33333333333333C425.8333333333333,76.09417662251741,450.1666666666667,116.05865363817958,474.5,131.77777777777777C498.8333333333333,147.49690191737596,523.1666666666666,138.9706731809102,547.5,130.44444444444446" stroke="#fb6f71" stroke-width="2" stroke-dasharray="8,4"></path></g></g><path class="foreground" aria-hidden="true" d="" display="none"></path></g><g transform="translate(0,0)"><path class="background" aria-hidden="true" d="M0,0h584v200h-584Z"></path><g><g class="mark-line role-mark layer_0_marks" role="graphics-object" aria-roledescription="line mark container"><path aria-label="Year: 1989; blue yet: 845; Modern Bronze utilize: Principal Card" role="graphics-symbol" aria-roledescription="line mark" d="M36.5,12.222222222222223C60.83333333333334,9.580136646436877,85.16666666666669,6.938051070651525,109.5,38.444444444444436C133.83333333333331,69.95083781823735,158.16666666666666,135.60571014160848,182.5,141.55555555555557C206.83333333333334,147.50540096950266,231.16666666666663,93.75021947402571,255.5,74C279.83333333333337,54.24978052597429,304.16666666666663,68.50452307339978,328.5,100.66666666666669C352.83333333333337,132.8288102599336,377.1666666666667,182.89835489904192,401.5,169.77777777777777C425.8333333333333,156.65720065651362,450.1666666666667,80.34650177487691,474.5,64.22222222222223C498.8333333333333,48.097942669567544,523.1666666666666,92.16008244589489,547.5,136.22222222222223" stroke="#80df0f" stroke-width="2" stroke-dasharray="8,4"></path></g></g><path class="foreground" aria-hidden="true" d="" display="none"></path></g></g><g class="mark-symbol role-mark layer_1_marks" role="graphics-object" aria-roledescription="symbol mark container"><path aria-label="Year: 1989; blue yet: 759; Modern Bronze utilize: female Potassium lime" role="graphics-symbol" aria-roledescription="point" transform="translate(36.5,31.333333333333325)" d="M2.7386127875258306,0A2.7386127875258306,2.7386127875258306,0,1,1,-2.7386127875258306,0A2.7386127875258306,2.7386127875258306,0,1,1,2.7386127875258306,0" fill="#fff" stroke="#fb6f71" stroke-width="2" opacity="1"></path><path aria-label="Year: 1991; blue yet: 505; Modern Bronze utilize: female Potassium lime" role="graphics-symbol" aria-roledescription="point" transform="translate(109.5,87.77777777777777)" d="M2.7386127875258306,0A2.7386127875258306,2.7386127875258306,0,1,1,-2.7386127875258306,0A2.7386127875258306,2.7386127875258306,0,1,1,2.7386127875258306,0" fill="#fff" stroke="#fb6f71" stroke-width="2" opacity="1"></path><path aria-label="Year: 1993; blue yet: 201; Modern Bronze utilize: female Potassium lime" role="graphics-symbol" aria-roledescription="point" transform="translate(182.5,155.33333333333331)" d="M2.7386127875258306,0A2.7386127875258306,2.7386127875258306,0,1,1,-2.7386127875258306,0A2.7386127875258306,2.7386127875258306,0,1,1,2.7386127875258306,0" fill="#fff" stroke="#fb6f71" stroke-width="2" opacity="1"></path><path aria-label="Year: 1995; blue yet: 730; Modern Bronze utilize: female Potassium lime" role="graphics-symbol" aria-roledescription="point" transform="translate(255.5,37.77777777777778)" d="M2.7386127875258306,0A2.7386127875258306,2.7386127875258306,0,1,1,-2.7386127875258306,0A2.7386127875258306,2.7386127875258306,0,1,1,2.7386127875258306,0" fill="#fff" stroke="#fb6f71" stroke-width="2" opacity="1"></path><path aria-label="Year: 1997; blue yet: 178; Modern Bronze utilize: female Potassium lime" role="graphics-symbol" aria-roledescription="point" transform="translate(328.5,160.44444444444443)" d="M2.7386127875258306,0A2.7386127875258306,2.7386127875258306,0,1,1,-2.7386127875258306,0A2.7386127875258306,2.7386127875258306,0,1,1,2.7386127875258306,0" fill="#fff" stroke="#fb6f71" stroke-width="2" opacity="1"></path><path aria-label="Year: 1999; blue yet: 489; Modern Bronze utilize: female Potassium lime" role="graphics-symbol" aria-roledescription="point" transform="translate(401.5,91.33333333333333)" d="M2.7386127875258306,0A2.7386127875258306,2.7386127875258306,0,1,1,-2.7386127875258306,0A2.7386127875258306,2.7386127875258306,0,1,1,2.7386127875258306,0" fill="#fff" stroke="#fb6f71" stroke-width="2" opacity="1"></path><path aria-label="Year: 2001; blue yet: 307; Modern Bronze utilize: female Potassium lime" role="graphics-symbol" aria-roledescription="point" transform="translate(474.5,131.77777777777777)" d="M2.7386127875258306,0A2.7386127875258306,2.7386127875258306,0,1,1,-2.7386127875258306,0A2.7386127875258306,2.7386127875258306,0,1,1,2.7386127875258306,0" fill="#fff" stroke="#fb6f71" stroke-width="2" opacity="1"></path><path aria-label="Year: 2003; blue yet: 313; Modern Bronze utilize: female Potassium lime" role="graphics-symbol" aria-roledescription="point" transform="translate(547.5,130.44444444444446)" d="M2.7386127875258306,0A2.7386127875258306,2.7386127875258306,0,1,1,-2.7386127875258306,0A2.7386127875258306,2.7386127875258306,0,1,1,2.7386127875258306,0" fill="#fff" stroke="#fb6f71" stroke-width="2" opacity="1"></path><path aria-label="Year: 1989; blue yet: 845; Modern Bronze utilize: Principal Card" role="graphics-symbol" aria-roledescription="point" transform="translate(36.5,12.222222222222223)" d="M2.7386127875258306,0A2.7386127875258306,2.7386127875258306,0,1,1,-2.7386127875258306,0A2.7386127875258306,2.7386127875258306,0,1,1,2.7386127875258306,0" fill="#fff" stroke="#80df0f" stroke-width="2" opacity="1"></path><path aria-label="Year: 1991; blue yet: 727; Modern Bronze utilize: Principal Card" role="graphics-symbol" aria-roledescription="point" transform="translate(109.5,38.444444444444436)" d="M2.7386127875258306,0A2.7386127875258306,2.7386127875258306,0,1,1,-2.7386127875258306,0A2.7386127875258306,2.7386127875258306,0,1,1,2.7386127875258306,0" fill="#fff" stroke="#80df0f" stroke-width="2" opacity="1"></path><path aria-label="Year: 1993; blue yet: 263; Modern Bronze utilize: Principal Card" role="graphics-symbol" aria-roledescription="point" transform="translate(182.5,141.55555555555557)" d="M2.7386127875258306,0A2.7386127875258306,2.7386127875258306,0,1,1,-2.7386127875258306,0A2.7386127875258306,2.7386127875258306,0,1,1,2.7386127875258306,0" fill="#fff" stroke="#80df0f" stroke-width="2" opacity="1"></path><path aria-label="Year: 1995; blue yet: 567; Modern Bronze utilize: Principal Card" role="graphics-symbol" aria-roledescription="point" transform="translate(255.5,74)" d="M2.7386127875258306,0A2.7386127875258306,2.7386127875258306,0,1,1,-2.7386127875258306,0A2.7386127875258306,2.7386127875258306,0,1,1,2.7386127875258306,0" fill="#fff" stroke="#80df0f" stroke-width="2" opacity="1"></path><path aria-label="Year: 1997; blue yet: 447; Modern Bronze utilize: Principal Card" role="graphics-symbol" aria-roledescription="point" transform="translate(328.5,100.66666666666669)" d="M2.7386127875258306,0A2.7386127875258306,2.7386127875258306,0,1,1,-2.7386127875258306,0A2.7386127875258306,2.7386127875258306,0,1,1,2.7386127875258306,0" fill="#fff" stroke="#80df0f" stroke-width="2" opacity="1"></path><path aria-label="Year: 1999; blue yet: 136; Modern Bronze utilize: Principal Card" role="graphics-symbol" aria-roledescription="point" transform="translate(401.5,169.77777777777777)" d="M2.7386127875258306,0A2.7386127875258306,2.7386127875258306,0,1,1,-2.7386127875258306,0A2.7386127875258306,2.7386127875258306,0,1,1,2.7386127875258306,0" fill="#fff" stroke="#80df0f" stroke-width="2" opacity="1"></path><path aria-label="Year: 2001; blue yet: 611; Modern Bronze utilize: Principal Card" role="graphics-symbol" aria-roledescription="point" transform="translate(474.5,64.22222222222223)" d="M2.7386127875258306,0A2.7386127875258306,2.7386127875258306,0,1,1,-2.7386127875258306,0A2.7386127875258306,2.7386127875258306,0,1,1,2.7386127875258306,0" fill="#fff" stroke="#80df0f" stroke-width="2" opacity="1"></path><path aria-label="Year: 2003; blue yet: 287; Modern Bronze utilize: Principal Card" role="graphics-symbol" aria-roledescription="point" transform="translate(547.5,136.22222222222223)" d="M2.7386127875258306,0A2.7386127875258306,2.7386127875258306,0,1,1,-2.7386127875258306,0A2.7386127875258306,2.7386127875258306,0,1,1,2.7386127875258306,0" fill="#fff" stroke="#80df0f" stroke-width="2" opacity="1"></path></g><g class="mark-group role-legend" role="graphics-symbol" aria-roledescription="legend" aria-label="Symbol legend for stroke color with 2 values: female Potassium lime, Principal Card"><g transform="translate(602,0)"><path class="background" aria-hidden="true" d="M0,0h117v29h-117Z" pointer-events="none"></path><g><g class="mark-group role-legend-entry"><g transform="translate(0,0)"><path class="background" aria-hidden="true" d="M0,0h0v0h0Z" pointer-events="none"></path><g><g class="mark-group role-scope" role="graphics-object" aria-roledescription="group mark container"><g transform="translate(0,0)"><path class="background" aria-hidden="true" d="M0,0h116.5908203125v12.5h-116.5908203125Z" pointer-events="none" opacity="1"></path><g><g class="mark-symbol role-legend-symbol" pointer-events="none"><path transform="translate(6,6)" d="M5,0A5,5,0,1,1,-5,0A5,5,0,1,1,5,0" fill="#fff" stroke="#fb6f71" stroke-width="1.5" opacity="1"></path></g><g class="mark-text role-legend-label" pointer-events="none"><text text-anchor="start" transform="translate(16,9)" font-family="sans-serif" font-size="10px" fill="#000" opacity="1">female Potassium lime</text></g></g><path class="foreground" aria-hidden="true" d="" pointer-events="none" display="none"></path></g><g transform="translate(0,16)"><path class="background" aria-hidden="true" d="M0,0h116.5908203125v12.5h-116.5908203125Z" pointer-events="none" opacity="1"></path><g><g class="mark-symbol role-legend-symbol" pointer-events="none"><path transform="translate(6,6)" d="M5,0A5,5,0,1,1,-5,0A5,5,0,1,1,5,0" fill="#fff" stroke="#80df0f" stroke-width="1.5" opacity="1"></path></g><g class="mark-text role-legend-label" pointer-events="none"><text text-anchor="start" transform="translate(16,9)" font-family="sans-serif" font-size="10px" fill="#000" opacity="1">Principal Card</text></g></g><path class="foreground" aria-hidden="true" d="" pointer-events="none" display="none"></path></g></g></g><path class="foreground" aria-hidden="true" d="" pointer-events="none" display="none"></path></g></g></g><path class="foreground" aria-hidden="true" d="" pointer-events="none" display="none"></path></g></g><g class="mark-group role-title"><g transform="translate(719,-29)"><path class="background" aria-hidden="true" d="M0,0h0v0h0Z" pointer-events="none"></path><g><g class="mark-text role-title-text" role="graphics-symbol" aria-roledescription="title" aria-label="Title text 'Van'" pointer-events="none"><text text-anchor="end" transform="translate(0,20)" font-family="sans-serif" font-size="25px" font-weight="bold" fill="#000" opacity="1">Van</text></g></g><path class="foreground" aria-hidden="true" d="" pointer-events="none" display="none"></path></g></g></g><path class="foreground" aria-hidden="true" d="" display="none"></path></g></g></g></svg>