<svg xmlns="http://www.w3.org/2000/svg" xmlns:xlink="http://www.w3.org/1999/xlink" version="1.1" class="marks" width="871" height="276" viewBox="0 0 871 276" style="background-color: rgb(255, 255, 255);"><g fill="none" stroke-miterlimit="10" transform="translate(29,54)"><g class="mark-group role-frame root" role="graphics-object" aria-roledescription="group mark container"><g transform="translate(0,0)"><path class="background" aria-hidden="true" d="M0.5,0.5h837v200h-837Z" fill="transparent" stroke="#ddd"></path><g><g class="mark-group role-axis" aria-hidden="true"><g transform="translate(0.5,200.5)"><path class="background" aria-hidden="true" d="M0,0h0v0h0Z" pointer-events="none"></path><g><g class="mark-rule role-axis-grid" pointer-events="none"><line transform="translate(52,-200)" x2="0" y2="200" stroke="#D0D0D0" stroke-width="1" stroke-dasharray="1,0" opacity="1"></line><line transform="translate(157,-200)" x2="0" y2="200" stroke="#D0D0D0" stroke-width="1" stroke-dasharray="1,0" opacity="1"></line><line transform="translate(262,-200)" x2="0" y2="200" stroke="#D0D0D0" stroke-width="1" stroke-dasharray="1,0" opacity="1"></line><line transform="translate(366,-200)" x2="0" y2="200" stroke="#D0D0D0" stroke-width="1" stroke-dasharray="1,0" opacity="1"></line><line transform="translate(471,-200)" x2="0" y2="200" stroke="#D0D0D0" stroke-width="1" stroke-dasharray="1,0" opacity="1"></line><line transform="translate(575,-200)" x2="0" y2="200" stroke="#D0D0D0" stroke-width="1" stroke-dasharray="1,0" opacity="1"></line><line transform="translate(680,-200)" x2="0" y2="200" stroke="#D0D0D0" stroke-width="1" stroke-dasharray="1,0" opacity="1"></line><line transform="translate(785,-200)" x2="0" y2="200" stroke="#D0D0D0" stroke-width="1" stroke-dasharray="1,0" opacity="1"></line></g></g><path class="foreground" aria-hidden="true" d="" pointer-events="none" display="none"></path></g></g><g class="mark-group role-axis" aria-hidden="true"><g transform="translate(0.5,0.5)"><path class="background" aria-hidden="true" d="M0,0h0v0h0Z" pointer-events="none"></path><g><g class="mark-rule role-axis-grid" pointer-events="none"><line transform="translate(0,200)" x2="837" y2="0" stroke="#D0D0D0" stroke-width="1" stroke-dasharray="1,0" opacity="1"></line><line transform="translate(0,169)" x2="837" y2="0" stroke="#D0D0D0" stroke-width="1" stroke-dasharray="1,0" opacity="1"></line><line transform="translate(0,138)" x2="837" y2="0" stroke="#D0D0D0" stroke-width="1" stroke-dasharray="1,0" opacity="1"></line><line transform="translate(0,108)" x2="837" y2="0" stroke="#D0D0D0" stroke-width="1" stroke-dasharray="1,0" opacity="1"></line><line transform="translate(0,77)" x2="837" y2="0" stroke="#D0D0D0" stroke-width="1" stroke-dasharray="1,0" opacity="1"></line><line transform="translate(0,46)" x2="837" y2="0" stroke="#D0D0D0" stroke-width="1" stroke-dasharray="1,0" opacity="1"></line><line transform="translate(0,15)" x2="837" y2="0" stroke="#D0D0D0" stroke-width="1" stroke-dasharray="1,0" opacity="1"></line></g></g><path class="foreground" aria-hidden="true" d="" pointer-events="none" display="none"></path></g></g><g class="mark-group role-axis" role="graphics-symbol" aria-roledescription="axis" aria-label="X-axis for a discrete scale with 8 values: 1833, 1834, 1835, 1836, 1837, ending with 1840"><g transform="translate(0.5,200.5)"><path class="background" aria-hidden="true" d="M0,0h0v0h0Z" pointer-events="none"></path><g><g class="mark-rule role-axis-tick" pointer-events="none"><line transform="translate(52,0)" x2="0" y2="5" stroke="#888" stroke-width="1" opacity="1"></line><line transform="translate(157,0)" x2="0" y2="5" stroke="#888" stroke-width="1" opacity="1"></line><line transform="translate(262,0)" x2="0" y2="5" stroke="#888" stroke-width="1" opacity="1"></line><line transform="translate(366,0)" x2="0" y2="5" stroke="#888" stroke-width="1" opacity="1"></line><line transform="translate(471,0)" x2="0" y2="5" stroke="#888" stroke-width="1" opacity="1"></line><line transform="translate(575,0)" x2="0" y2="5" stroke="#888" stroke-width="1" opacity="1"></line><line transform="translate(680,0)" x2="0" y2="5" stroke="#888" stroke-width="1" opacity="1"></line><line transform="translate(785,0)" x2="0" y2="5" stroke="#888" stroke-width="1" opacity="1"></line></g><g class="mark-text role-axis-label" pointer-events="none"><text text-anchor="middle" transform="translate(52.3125,15)" font-family="monospace" font-size="10px" font-weight="bold" fill="#000" opacity="1">1833</text><text text-anchor="middle" transform="translate(156.9375,15)" font-family="monospace" font-size="10px" font-weight="bold" fill="#000" opacity="1">1834</text><text text-anchor="middle" transform="translate(261.5625,15)" font-family="monospace" font-size="10px" font-weight="bold" fill="#000" opacity="1">1835</text><text text-anchor="middle" transform="translate(366.1875,15)" font-family="monospace" font-size="10px" font-weight="bold" fill="#000" opacity="1">1836</text><text text-anchor="middle" transform="translate(470.8125,15)" font-family="monospace" font-size="10px" font-weight="bold" fill="#000" opacity="1">1837</text><text text-anchor="middle" transform="translate(575.4375,15)" font-family="monospace" font-size="10px" font-weight="bold" fill="#000" opacity="1">1838</text><text text-anchor="middle" transform="translate(680.0625,15)" font-family="monospace" font-size="10px" font-weight="bold" fill="#000" opacity="1">1839</text><text text-anchor="middle" transform="translate(784.6875,15)" font-family="monospace" font-size="10px" font-weight="bold" fill="#000" opacity="1">1840</text></g><g class="mark-rule role-axis-domain" pointer-events="none"><line transform="translate(0,0)" x2="837" y2="0" stroke="#888" stroke-width="1" opacity="1"></line></g></g><path class="foreground" aria-hidden="true" d="" pointer-events="none" display="none"></path></g></g><g class="mark-group role-axis" role="graphics-symbol" aria-roledescription="axis" aria-label="Y-axis for a linear scale with values from 0 to 650"><g transform="translate(0.5,0.5)"><path class="background" aria-hidden="true" d="M0,0h0v0h0Z" pointer-events="none"></path><g><g class="mark-rule role-axis-tick" pointer-events="none"><line transform="translate(0,200)" x2="-5" y2="0" stroke="#888" stroke-width="1" opacity="1"></line><line transform="translate(0,169)" x2="-5" y2="0" stroke="#888" stroke-width="1" opacity="1"></line><line transform="translate(0,138)" x2="-5" y2="0" stroke="#888" stroke-width="1" opacity="1"></line><line transform="translate(0,108)" x2="-5" y2="0" stroke="#888" stroke-width="1" opacity="1"></line><line transform="translate(0,77)" x2="-5" y2="0" stroke="#888" stroke-width="1" opacity="1"></line><line transform="translate(0,46)" x2="-5" y2="0" stroke="#888" stroke-width="1" opacity="1"></line><line transform="translate(0,15)" x2="-5" y2="0" stroke="#888" stroke-width="1" opacity="1"></line></g><g class="mark-text role-axis-label" pointer-events="none"><text text-anchor="end" transform="translate(-7,203)" font-family="monospace" font-size="10px" font-weight="bold" fill="#000" opacity="1">0</text><text text-anchor="end" transform="translate(-7,172.23076923076923)" font-family="monospace" font-size="10px" font-weight="bold" fill="#000" opacity="1">100</text><text text-anchor="end" transform="translate(-7,141.46153846153845)" font-family="monospace" font-size="10px" font-weight="bold" fill="#000" opacity="1">200</text><text text-anchor="end" transform="translate(-7,110.6923076923077)" font-family="monospace" font-size="10px" font-weight="bold" fill="#000" opacity="1">300</text><text text-anchor="end" transform="translate(-7,79.92307692307692)" font-family="monospace" font-size="10px" font-weight="bold" fill="#000" opacity="1">400</text><text text-anchor="end" transform="translate(-7,49.153846153846146)" font-family="monospace" font-size="10px" font-weight="bold" fill="#000" opacity="1">500</text><text text-anchor="end" transform="translate(-7,18.384615384615373)" font-family="monospace" font-size="10px" font-weight="bold" fill="#000" opacity="1">600</text></g></g><path class="foreground" aria-hidden="true" d="" pointer-events="none" display="none"></path></g></g><g class="mark-group role-scope layer_0_pathgroup" role="graphics-object" aria-roledescription="group mark container"><g transform="translate(0,0)"><path class="background" aria-hidden="true" d="M0,0h837v200h-837Z"></path><g><g class="mark-line role-mark layer_0_marks" role="graphics-object" aria-roledescription="line mark container"><path aria-label="Year: 1833; Run: 221; Venezuela Practical: panel Loan" role="graphics-symbol" aria-roledescription="line mark" d="M52.3125,131.99999999999997L156.9375,54.15384615384615L261.5625,167.6923076923077L366.1875,113.53846153846155L470.8125,73.84615384615385L575.4375,199.6923076923077L680.0625,14.46153846153846L784.6875,182.15384615384616" stroke="#fbcfcb" stroke-width="2" stroke-dasharray="8,8"></path></g></g><path class="foreground" aria-hidden="true" d="" display="none"></path></g></g><g class="mark-symbol role-mark layer_1_marks" role="graphics-object" aria-roledescription="symbol mark container"><path aria-label="Year: 1833; Run: 221; Venezuela Practical: panel Loan" role="graphics-symbol" aria-roledescription="point" transform="translate(52.3125,131.99999999999997)" d="M2.7386127875258306,0A2.7386127875258306,2.7386127875258306,0,1,1,-2.7386127875258306,0A2.7386127875258306,2.7386127875258306,0,1,1,2.7386127875258306,0" fill="#fff" stroke="#fbcfcb" stroke-width="2" opacity="1"></path><path aria-label="Year: 1834; Run: 474; Venezuela Practical: panel Loan" role="graphics-symbol" aria-roledescription="point" transform="translate(156.9375,54.15384615384615)" d="M2.7386127875258306,0A2.7386127875258306,2.7386127875258306,0,1,1,-2.7386127875258306,0A2.7386127875258306,2.7386127875258306,0,1,1,2.7386127875258306,0" fill="#fff" stroke="#fbcfcb" stroke-width="2" opacity="1"></path><path aria-label="Year: 1835; Run: 105; Venezuela Practical: panel Loan" role="graphics-symbol" aria-roledescription="point" transform="translate(261.5625,167.6923076923077)" d="M2.7386127875258306,0A2.7386127875258306,2.7386127875258306,0,1,1,-2.7386127875258306,0A2.7386127875258306,2.7386127875258306,0,1,1,2.7386127875258306,0" fill="#fff" stroke="#fbcfcb" stroke-width="2" opacity="1"></path><path aria-label="Year: 1836; Run: 281; Venezuela Practical: panel Loan" role="graphics-symbol" aria-roledescription="point" transform="translate(366.1875,113.53846153846155)" d="M2.7386127875258306,0A2.7386127875258306,2.7386127875258306,0,1,1,-2.7386127875258306,0A2.7386127875258306,2.7386127875258306,0,1,1,2.7386127875258306,0" fill="#fff" stroke="#fbcfcb" stroke-width="2" opacity="1"></path><path aria-label="Year: 1837; Run: 410; Venezuela Practical: panel Loan" role="graphics-symbol" aria-roledescription="point" transform="translate(470.8125,73.84615384615385)" d="M2.7386127875258306,0A2.7386127875258306,2.7386127875258306,0,1,1,-2.7386127875258306,0A2.7386127875258306,2.7386127875258306,0,1,1,2.7386127875258306,0" fill="#fff" stroke="#fbcfcb" stroke-width="2" opacity="1"></path><path aria-label="Year: 1838; Run: 1; Venezuela Practical: panel Loan" role="graphics-symbol" aria-roledescription="point" transform="translate(575.4375,199.6923076923077)" d="M2.7386127875258306,0A2.7386127875258306,2.7386127875258306,0,1,1,-2.7386127875258306,0A2.7386127875258306,2.7386127875258306,0,1,1,2.7386127875258306,0" fill="#fff" stroke="#fbcfcb" stroke-width="2" opacity="1"></path><path aria-label="Year: 1839; Run: 603; Venezuela Practical: panel Loan" role="graphics-symbol" aria-roledescription="point" transform="translate(680.0625,14.46153846153846)" d="M2.7386127875258306,0A2.7386127875258306,2.7386127875258306,0,1,1,-2.7386127875258306,0A2.7386127875258306,2.7386127875258306,0,1,1,2.7386127875258306,0" fill="#fff" stroke="#fbcfcb" stroke-width="2" opacity="1"></path><path aria-label="Year: 1840; Run: 58; Venezuela Practical: panel Loan" role="graphics-symbol" aria-roledescription="point" transform="translate(784.6875,182.15384615384616)" d="M2.7386127875258306,0A2.7386127875258306,2.7386127875258306,0,1,1,-2.7386127875258306,0A2.7386127875258306,2.7386127875258306,0,1,1,2.7386127875258306,0" fill="#fff" stroke="#fbcfcb" stroke-width="2" opacity="1"></path></g><g class="mark-text role-mark layer_2_marks" role="graphics-object" aria-roledescription="text mark container"><text aria-label="Year: 1833; Run: 221" role="graphics-symbol" aria-roledescription="text mark" text-anchor="middle" transform="translate(52.3125,112.99999999999997)" font-family="monospace" font-size="19px" fill="#000" opacity="1">221</text><text aria-label="Year: 1834; Run: 474" role="graphics-symbol" aria-roledescription="text mark" text-anchor="middle" transform="translate(156.9375,35.15384615384615)" font-family="monospace" font-size="19px" fill="#000" opacity="1">474</text><text aria-label="Year: 1835; Run: 105" role="graphics-symbol" aria-roledescription="text mark" text-anchor="middle" transform="translate(261.5625,148.6923076923077)" font-family="monospace" font-size="19px" fill="#000" opacity="1">105</text><text aria-label="Year: 1836; Run: 281" role="graphics-symbol" aria-roledescription="text mark" text-anchor="middle" transform="translate(366.1875,94.53846153846155)" font-family="monospace" font-size="19px" fill="#000" opacity="1">281</text><text aria-label="Year: 1837; Run: 410" role="graphics-symbol" aria-roledescription="text mark" text-anchor="middle" transform="translate(470.8125,54.846153846153854)" font-family="monospace" font-size="19px" fill="#000" opacity="1">410</text><text aria-label="Year: 1838; Run: 1" role="graphics-symbol" aria-roledescription="text mark" text-anchor="middle" transform="translate(575.4375,180.6923076923077)" font-family="monospace" font-size="19px" fill="#000" opacity="1">1</text><text aria-label="Year: 1839; Run: 603" role="graphics-symbol" aria-roledescription="text mark" text-anchor="middle" transform="translate(680.0625,-4.53846153846154)" font-family="monospace" font-size="19px" fill="#000" opacity="1">603</text><text aria-label="Year: 1840; Run: 58" role="graphics-symbol" aria-roledescription="text mark" text-anchor="middle" transform="translate(784.6875,163.15384615384616)" font-family="monospace" font-size="19px" fill="#000" opacity="1">58</text></g><g class="mark-group role-title"><g transform="translate(-23.494140625,-48.53846153846154)"><path class="background" aria-hidden="true" d="M0,0h0v0h0Z" pointer-events="none"></path><g><g class="mark-text role-title-text" role="graphics-symbol" aria-roledescription="title" aria-label="Title text 'darken'" pointer-events="none"><text text-anchor="start" transform="translate(0,20)" font-family="monospace" font-size="25px" font-weight="bold" fill="#000" opacity="1">darken</text></g></g><path class="foreground" aria-hidden="true" d="" pointer-events="none" display="none"></path></g></g></g><path class="foreground" aria-hidden="true" d="" display="none"></path></g></g></g></svg>