<svg xmlns="http://www.w3.org/2000/svg" xmlns:xlink="http://www.w3.org/1999/xlink" version="1.1" class="marks" width="623" height="272" viewBox="0 0 623 272" style="background-color: rgb(51, 51, 51);"><g fill="none" stroke-miterlimit="10" transform="translate(25,47)"><g class="mark-group role-frame root" role="graphics-object" aria-roledescription="group mark container"><g transform="translate(0,0)"><path class="background" aria-hidden="true" d="M0.5,0.5h593v200h-593Z" fill="transparent" stroke="#ddd"></path><g><g class="mark-group role-axis" aria-hidden="true"><g transform="translate(0.5,200.5)"><path class="background" aria-hidden="true" d="M0,0h0v0h0Z" pointer-events="none"></path><g><g class="mark-rule role-axis-grid" pointer-events="none"><line transform="translate(33,-200)" x2="0" y2="200" stroke="#747474" stroke-width="1" stroke-dasharray="6, 3" opacity="1"></line><line transform="translate(99,-200)" x2="0" y2="200" stroke="#747474" stroke-width="1" stroke-dasharray="6, 3" opacity="1"></line><line transform="translate(165,-200)" x2="0" y2="200" stroke="#747474" stroke-width="1" stroke-dasharray="6, 3" opacity="1"></line><line transform="translate(231,-200)" x2="0" y2="200" stroke="#747474" stroke-width="1" stroke-dasharray="6, 3" opacity="1"></line><line transform="translate(297,-200)" x2="0" y2="200" stroke="#747474" stroke-width="1" stroke-dasharray="6, 3" opacity="1"></line><line transform="translate(362,-200)" x2="0" y2="200" stroke="#747474" stroke-width="1" stroke-dasharray="6, 3" opacity="1"></line><line transform="translate(428,-200)" x2="0" y2="200" stroke="#747474" stroke-width="1" stroke-dasharray="6, 3" opacity="1"></line><line transform="translate(494,-200)" x2="0" y2="200" stroke="#747474" stroke-width="1" stroke-dasharray="6, 3" opacity="1"></line><line transform="translate(560,-200)" x2="0" y2="200" stroke="#747474" stroke-width="1" stroke-dasharray="6, 3" opacity="1"></line></g></g><path class="foreground" aria-hidden="true" d="" pointer-events="none" display="none"></path></g></g><g class="mark-group role-axis" role="graphics-symbol" aria-roledescription="axis" aria-label="X-axis for a discrete scale with 9 values: 1703, 1704, 1705, 1706, 1707, ending with 1711"><g transform="translate(0.5,200.5)"><path class="background" aria-hidden="true" d="M0,0h0v0h0Z" pointer-events="none"></path><g><g class="mark-rule role-axis-tick" pointer-events="none"><line transform="translate(33,0)" x2="0" y2="5" stroke="#888" stroke-width="1" opacity="1"></line><line transform="translate(99,0)" x2="0" y2="5" stroke="#888" stroke-width="1" opacity="1"></line><line transform="translate(165,0)" x2="0" y2="5" stroke="#888" stroke-width="1" opacity="1"></line><line transform="translate(231,0)" x2="0" y2="5" stroke="#888" stroke-width="1" opacity="1"></line><line transform="translate(297,0)" x2="0" y2="5" stroke="#888" stroke-width="1" opacity="1"></line><line transform="translate(362,0)" x2="0" y2="5" stroke="#888" stroke-width="1" opacity="1"></line><line transform="translate(428,0)" x2="0" y2="5" stroke="#888" stroke-width="1" opacity="1"></line><line transform="translate(494,0)" x2="0" y2="5" stroke="#888" stroke-width="1" opacity="1"></line><line transform="translate(560,0)" x2="0" y2="5" stroke="#888" stroke-width="1" opacity="1"></line></g><g class="mark-text role-axis-label" pointer-events="none"><text text-anchor="middle" transform="translate(32.94444444444446,17)" font-family="serif" font-size="13px" font-weight="normal" fill="#fff" opacity="1">1703</text><text text-anchor="middle" transform="translate(98.83333333333334,17)" font-family="serif" font-size="13px" font-weight="normal" fill="#fff" opacity="1">1704</text><text text-anchor="middle" transform="translate(164.72222222222223,17)" font-family="serif" font-size="13px" font-weight="normal" fill="#fff" opacity="1">1705</text><text text-anchor="middle" transform="translate(230.61111111111111,17)" font-family="serif" font-size="13px" font-weight="normal" fill="#fff" opacity="1">1706</text><text text-anchor="middle" transform="translate(296.5,17)" font-family="serif" font-size="13px" font-weight="normal" fill="#fff" opacity="1">1707</text><text text-anchor="middle" transform="translate(362.3888888888889,17)" font-family="serif" font-size="13px" font-weight="normal" fill="#fff" opacity="1">1708</text><text text-anchor="middle" transform="translate(428.27777777777777,17)" font-family="serif" font-size="13px" font-weight="normal" fill="#fff" opacity="1">1709</text><text text-anchor="middle" transform="translate(494.16666666666663,17)" font-family="serif" font-size="13px" font-weight="normal" fill="#fff" opacity="1">1710</text><text text-anchor="middle" transform="translate(560.0555555555555,17)" font-family="serif" font-size="13px" font-weight="normal" fill="#fff" opacity="1">1711</text></g><g class="mark-rule role-axis-domain" pointer-events="none"><line transform="translate(0,0)" x2="593" y2="0" stroke="#888" stroke-width="1" opacity="1"></line></g></g><path class="foreground" aria-hidden="true" d="" pointer-events="none" display="none"></path></g></g><g class="mark-group role-axis" role="graphics-symbol" aria-roledescription="axis" aria-label="Y-axis for a linear scale with values from 0 to 45"><g transform="translate(0.5,0.5)"><path class="background" aria-hidden="true" d="M0,0h0v0h0Z" pointer-events="none"></path><g><g class="mark-rule role-axis-tick" pointer-events="none"><line transform="translate(0,200)" x2="-5" y2="0" stroke="#888" stroke-width="1" opacity="1"></line><line transform="translate(0,156)" x2="-5" y2="0" stroke="#888" stroke-width="1" opacity="1"></line><line transform="translate(0,111)" x2="-5" y2="0" stroke="#888" stroke-width="1" opacity="1"></line><line transform="translate(0,67)" x2="-5" y2="0" stroke="#888" stroke-width="1" opacity="1"></line><line transform="translate(0,22)" x2="-5" y2="0" stroke="#888" stroke-width="1" opacity="1"></line></g><g class="mark-text role-axis-label" pointer-events="none"><text text-anchor="end" transform="translate(-7,204)" font-family="serif" font-size="13px" font-weight="normal" fill="#fff" opacity="1">0</text><text text-anchor="end" transform="translate(-7,159.55555555555557)" font-family="serif" font-size="13px" font-weight="normal" fill="#fff" opacity="1">10</text><text text-anchor="end" transform="translate(-7,115.11111111111111)" font-family="serif" font-size="13px" font-weight="normal" fill="#fff" opacity="1">20</text><text text-anchor="end" transform="translate(-7,70.66666666666667)" font-family="serif" font-size="13px" font-weight="normal" fill="#fff" opacity="1">30</text><text text-anchor="end" transform="translate(-7,26.222222222222232)" font-family="serif" font-size="13px" font-weight="normal" fill="#fff" opacity="1">40</text></g></g><path class="foreground" aria-hidden="true" d="" pointer-events="none" display="none"></path></g></g><g class="mark-group role-scope layer_0_pathgroup" role="graphics-object" aria-roledescription="group mark container"><g transform="translate(0,0)"><path class="background" aria-hidden="true" d="M0,0h593v200h-593Z"></path><g><g class="mark-line role-mark layer_0_marks" role="graphics-object" aria-roledescription="line mark container"><path aria-label="Year: 1703; payment amidst generating: 30; Latin husband: Einsteinium" role="graphics-symbol" aria-roledescription="line mark" d="M32.94444444444446,66.66666666666667C54.90740740740742,112.136447935417,76.87037037037038,157.6062292041673,98.83333333333334,177.77777777777777C120.7962962962963,197.94932635138824,142.75925925925927,192.82264222985873,164.72222222222223,182.22222222222223C186.6851851851852,171.62180221458573,208.64814814814818,155.5476463208422,230.61111111111111,137.77777777777777C252.57407407407405,120.00790923471335,274.53703703703707,100.54232804232805,296.5,62.22222222222222C318.46296296296293,23.9021164021164,340.42592592592587,-33.27251404570992,362.3888888888889,0C384.35185185185196,33.27251404570992,406.31481481481484,156.99217258495608,428.27777777777777,173.33333333333334C450.2407407407407,189.6744940817106,472.2037037037037,98.6371570392189,494.16666666666663,66.66666666666667C516.1296296296296,34.69617629411444,538.0925925925926,61.79253259150166,560.0555555555555,88.88888888888889" stroke="#5daa53" stroke-width="2" stroke-dasharray="1,0"></path></g></g><path class="foreground" aria-hidden="true" d="" display="none"></path></g></g><g class="mark-symbol role-mark layer_1_marks" role="graphics-object" aria-roledescription="symbol mark container"><path aria-label="Year: 1703; payment amidst generating: 30; Latin husband: Einsteinium" role="graphics-symbol" aria-roledescription="point" transform="translate(32.94444444444446,66.66666666666667)" d="M4,0A4,4,0,1,1,-4,0A4,4,0,1,1,4,0" fill="#5daa53" stroke-width="3" opacity="1"></path><path aria-label="Year: 1704; payment amidst generating: 5; Latin husband: Einsteinium" role="graphics-symbol" aria-roledescription="point" transform="translate(98.83333333333334,177.77777777777777)" d="M4,0A4,4,0,1,1,-4,0A4,4,0,1,1,4,0" fill="#5daa53" stroke-width="3" opacity="1"></path><path aria-label="Year: 1705; payment amidst generating: 4; Latin husband: Einsteinium" role="graphics-symbol" aria-roledescription="point" transform="translate(164.72222222222223,182.22222222222223)" d="M4,0A4,4,0,1,1,-4,0A4,4,0,1,1,4,0" fill="#5daa53" stroke-width="3" opacity="1"></path><path aria-label="Year: 1706; payment amidst generating: 14; Latin husband: Einsteinium" role="graphics-symbol" aria-roledescription="point" transform="translate(230.61111111111111,137.77777777777777)" d="M4,0A4,4,0,1,1,-4,0A4,4,0,1,1,4,0" fill="#5daa53" stroke-width="3" opacity="1"></path><path aria-label="Year: 1707; payment amidst generating: 31; Latin husband: Einsteinium" role="graphics-symbol" aria-roledescription="point" transform="translate(296.5,62.22222222222222)" d="M4,0A4,4,0,1,1,-4,0A4,4,0,1,1,4,0" fill="#5daa53" stroke-width="3" opacity="1"></path><path aria-label="Year: 1708; payment amidst generating: 45; Latin husband: Einsteinium" role="graphics-symbol" aria-roledescription="point" transform="translate(362.3888888888889,0)" d="M4,0A4,4,0,1,1,-4,0A4,4,0,1,1,4,0" fill="#5daa53" stroke-width="3" opacity="1"></path><path aria-label="Year: 1709; payment amidst generating: 6; Latin husband: Einsteinium" role="graphics-symbol" aria-roledescription="point" transform="translate(428.27777777777777,173.33333333333334)" d="M4,0A4,4,0,1,1,-4,0A4,4,0,1,1,4,0" fill="#5daa53" stroke-width="3" opacity="1"></path><path aria-label="Year: 1710; payment amidst generating: 30; Latin husband: Einsteinium" role="graphics-symbol" aria-roledescription="point" transform="translate(494.16666666666663,66.66666666666667)" d="M4,0A4,4,0,1,1,-4,0A4,4,0,1,1,4,0" fill="#5daa53" stroke-width="3" opacity="1"></path><path aria-label="Year: 1711; payment amidst generating: 25; Latin husband: Einsteinium" role="graphics-symbol" aria-roledescription="point" transform="translate(560.0555555555555,88.88888888888889)" d="M4,0A4,4,0,1,1,-4,0A4,4,0,1,1,4,0" fill="#5daa53" stroke-width="3" opacity="1"></path></g><g class="mark-group role-title"><g transform="translate(593,-41.00789175898056)"><path class="background" aria-hidden="true" d="M0,0h0v0h0Z" pointer-events="none"></path><g><g class="mark-text role-title-text" role="graphics-symbol" aria-roledescription="title" aria-label="Title text 'Minivan Product'" pointer-events="none"><text text-anchor="end" transform="translate(0,20)" font-family="serif" font-size="25px" font-weight="bold" fill="#fff" opacity="1">Minivan Product</text></g></g><path class="foreground" aria-hidden="true" d="" pointer-events="none" display="none"></path></g></g></g><path class="foreground" aria-hidden="true" d="" display="none"></path></g></g></g></svg>