<svg xmlns="http://www.w3.org/2000/svg" xmlns:xlink="http://www.w3.org/1999/xlink" version="1.1" class="marks" width="1004" height="288" viewBox="0 0 1004 288" style="background-color: rgb(255, 255, 255);"><g fill="none" stroke-miterlimit="10" transform="translate(34,55)"><g class="mark-group role-frame root" role="graphics-object" aria-roledescription="group mark container"><g transform="translate(0,0)"><path class="background" aria-hidden="true" d="M0.5,0.5h851v200h-851Z" fill="transparent" stroke="#ddd"></path><g><g class="mark-group role-axis" role="graphics-symbol" aria-roledescription="axis" aria-label="X-axis for a discrete scale with 7 values: Jan, Feb, Mar, Apr, May, June, July"><g transform="translate(0.5,200.5)"><path class="background" aria-hidden="true" d="M0,0h0v0h0Z" pointer-events="none"></path><g><g class="mark-rule role-axis-tick" pointer-events="none"><line transform="translate(61,0)" x2="0" y2="5" stroke="#888" stroke-width="1" opacity="1"></line><line transform="translate(182,0)" x2="0" y2="5" stroke="#888" stroke-width="1" opacity="1"></line><line transform="translate(304,0)" x2="0" y2="5" stroke="#888" stroke-width="1" opacity="1"></line><line transform="translate(426,0)" x2="0" y2="5" stroke="#888" stroke-width="1" opacity="1"></line><line transform="translate(547,0)" x2="0" y2="5" stroke="#888" stroke-width="1" opacity="1"></line><line transform="translate(669,0)" x2="0" y2="5" stroke="#888" stroke-width="1" opacity="1"></line><line transform="translate(790,0)" x2="0" y2="5" stroke="#888" stroke-width="1" opacity="1"></line></g><g class="mark-text role-axis-label" pointer-events="none"><text text-anchor="middle" transform="translate(60.78571428571428,20)" font-family="sans-serif" font-size="16px" font-weight="bold" fill="#000" opacity="1">Jan</text><text text-anchor="middle" transform="translate(182.35714285714283,20)" font-family="sans-serif" font-size="16px" font-weight="bold" fill="#000" opacity="1">Feb</text><text text-anchor="middle" transform="translate(303.92857142857144,20)" font-family="sans-serif" font-size="16px" font-weight="bold" fill="#000" opacity="1">Mar</text><text text-anchor="middle" transform="translate(425.5,20)" font-family="sans-serif" font-size="16px" font-weight="bold" fill="#000" opacity="1">Apr</text><text text-anchor="middle" transform="translate(547.0714285714286,20)" font-family="sans-serif" font-size="16px" font-weight="bold" fill="#000" opacity="1">May</text><text text-anchor="middle" transform="translate(668.6428571428571,20)" font-family="sans-serif" font-size="16px" font-weight="bold" fill="#000" opacity="1">June</text><text text-anchor="middle" transform="translate(790.2142857142858,20)" font-family="sans-serif" font-size="16px" font-weight="bold" fill="#000" opacity="1">July</text></g><g class="mark-rule role-axis-domain" pointer-events="none"><line transform="translate(0,0)" x2="851" y2="0" stroke="#888" stroke-width="1" opacity="1"></line></g></g><path class="foreground" aria-hidden="true" d="" pointer-events="none" display="none"></path></g></g><g class="mark-group role-axis" role="graphics-symbol" aria-roledescription="axis" aria-label="Y-axis for a linear scale with values from 0 to 700"><g transform="translate(0.5,0.5)"><path class="background" aria-hidden="true" d="M0,0h0v0h0Z" pointer-events="none"></path><g><g class="mark-text role-axis-label" pointer-events="none"><text text-anchor="end" transform="translate(-2,205)" font-family="sans-serif" font-size="16px" font-weight="bold" fill="#000" opacity="1">0</text><text text-anchor="end" transform="translate(-2,176.42857142857144)" font-family="sans-serif" font-size="16px" font-weight="bold" fill="#000" opacity="1">100</text><text text-anchor="end" transform="translate(-2,147.85714285714286)" font-family="sans-serif" font-size="16px" font-weight="bold" fill="#000" opacity="1">200</text><text text-anchor="end" transform="translate(-2,119.28571428571428)" font-family="sans-serif" font-size="16px" font-weight="bold" fill="#000" opacity="1">300</text><text text-anchor="end" transform="translate(-2,90.71428571428572)" font-family="sans-serif" font-size="16px" font-weight="bold" fill="#000" opacity="1">400</text><text text-anchor="end" transform="translate(-2,62.14285714285714)" font-family="sans-serif" font-size="16px" font-weight="bold" fill="#000" opacity="1">500</text><text text-anchor="end" transform="translate(-2,33.571428571428584)" font-family="sans-serif" font-size="16px" font-weight="bold" fill="#000" opacity="1">600</text><text text-anchor="end" transform="translate(-2,5)" font-family="sans-serif" font-size="16px" font-weight="bold" fill="#000" opacity="1">700</text></g></g><path class="foreground" aria-hidden="true" d="" pointer-events="none" display="none"></path></g></g><g class="mark-group role-scope layer_0_pathgroup" role="graphics-object" aria-roledescription="group mark container"><g transform="translate(0,0)"><path class="background" aria-hidden="true" d="M0,0h851v200h-851Z"></path><g><g class="mark-line role-mark layer_0_marks" role="graphics-object" aria-roledescription="line mark container"><path aria-label="Month: Jan; quae: 233; deposit payment: Jazz Karina" role="graphics-symbol" aria-roledescription="line mark" d="M60.78571428571428,133.42857142857142C101.3095238095238,91.50952380952381,141.83333333333331,49.5904761904762,182.35714285714283,17.14285714285715C222.88095238095235,-15.304761904761904,263.404761904762,-38.2809523809524,303.92857142857144,8.571428571428562C344.4523809523809,55.423809523809524,384.9761904761905,172.10476190476192,425.5,198.85714285714286C466.0238095238095,225.6095238095238,506.54761904761904,162.43333333333328,547.0714285714286,133.42857142857142C587.5952380952381,104.42380952380954,628.1190476190475,109.59047619047618,668.6428571428571,95.71428571428571C709.1666666666667,81.83809523809524,749.6904761904763,48.91904761904762,790.2142857142858,15.999999999999993" stroke="#6a935e" stroke-width="2" stroke-dasharray="1,0"></path></g></g><path class="foreground" aria-hidden="true" d="" display="none"></path></g><g transform="translate(0,0)"><path class="background" aria-hidden="true" d="M0,0h851v200h-851Z"></path><g><g class="mark-line role-mark layer_0_marks" role="graphics-object" aria-roledescription="line mark container"><path aria-label="Month: Jan; quae: 522; deposit payment: Vanuatu Tanzania" role="graphics-symbol" aria-roledescription="line mark" d="M60.78571428571428,50.85714285714287C101.3095238095238,71.6018315018315,141.83333333333331,92.34652014652013,182.35714285714283,84.57142857142857C222.88095238095235,76.796336996337,263.404761904762,40.50146520146521,303.92857142857144,58.2857142857143C344.4523809523809,76.06996336996339,384.9761904761905,147.93333333333334,425.5,173.71428571428572C466.0238095238095,199.4952380952381,506.54761904761904,179.19377289377292,547.0714285714286,163.42857142857144C587.5952380952381,147.66336996336997,628.1190476190475,136.43443223443222,668.6428571428571,114.28571428571428C709.1666666666667,92.13699633699633,749.6904761904763,59.06849816849817,790.2142857142858,26" stroke="#5f8c73" stroke-width="2" stroke-dasharray="1,0"></path></g></g><path class="foreground" aria-hidden="true" d="" display="none"></path></g></g><g class="mark-symbol role-mark layer_1_marks" role="graphics-object" aria-roledescription="symbol mark container"><path aria-label="Month: Jan; quae: 233; deposit payment: Jazz Karina" role="graphics-symbol" aria-roledescription="point" transform="translate(60.78571428571428,133.42857142857142)" d="M1.8708286933869707,0A1.8708286933869707,1.8708286933869707,0,1,1,-1.8708286933869707,0A1.8708286933869707,1.8708286933869707,0,1,1,1.8708286933869707,0" fill="#6a935e" stroke-width="4" opacity="1"></path><path aria-label="Month: Feb; quae: 640; deposit payment: Jazz Karina" role="graphics-symbol" aria-roledescription="point" transform="translate(182.35714285714283,17.14285714285715)" d="M1.8708286933869707,0A1.8708286933869707,1.8708286933869707,0,1,1,-1.8708286933869707,0A1.8708286933869707,1.8708286933869707,0,1,1,1.8708286933869707,0" fill="#6a935e" stroke-width="4" opacity="1"></path><path aria-label="Month: Mar; quae: 670; deposit payment: Jazz Karina" role="graphics-symbol" aria-roledescription="point" transform="translate(303.92857142857144,8.571428571428562)" d="M1.8708286933869707,0A1.8708286933869707,1.8708286933869707,0,1,1,-1.8708286933869707,0A1.8708286933869707,1.8708286933869707,0,1,1,1.8708286933869707,0" fill="#6a935e" stroke-width="4" opacity="1"></path><path aria-label="Month: Apr; quae: 4; deposit payment: Jazz Karina" role="graphics-symbol" aria-roledescription="point" transform="translate(425.5,198.85714285714286)" d="M1.8708286933869707,0A1.8708286933869707,1.8708286933869707,0,1,1,-1.8708286933869707,0A1.8708286933869707,1.8708286933869707,0,1,1,1.8708286933869707,0" fill="#6a935e" stroke-width="4" opacity="1"></path><path aria-label="Month: May; quae: 233; deposit payment: Jazz Karina" role="graphics-symbol" aria-roledescription="point" transform="translate(547.0714285714286,133.42857142857142)" d="M1.8708286933869707,0A1.8708286933869707,1.8708286933869707,0,1,1,-1.8708286933869707,0A1.8708286933869707,1.8708286933869707,0,1,1,1.8708286933869707,0" fill="#6a935e" stroke-width="4" opacity="1"></path><path aria-label="Month: June; quae: 365; deposit payment: Jazz Karina" role="graphics-symbol" aria-roledescription="point" transform="translate(668.6428571428571,95.71428571428571)" d="M1.8708286933869707,0A1.8708286933869707,1.8708286933869707,0,1,1,-1.8708286933869707,0A1.8708286933869707,1.8708286933869707,0,1,1,1.8708286933869707,0" fill="#6a935e" stroke-width="4" opacity="1"></path><path aria-label="Month: July; quae: 644; deposit payment: Jazz Karina" role="graphics-symbol" aria-roledescription="point" transform="translate(790.2142857142858,15.999999999999993)" d="M1.8708286933869707,0A1.8708286933869707,1.8708286933869707,0,1,1,-1.8708286933869707,0A1.8708286933869707,1.8708286933869707,0,1,1,1.8708286933869707,0" fill="#6a935e" stroke-width="4" opacity="1"></path><path aria-label="Month: Jan; quae: 522; deposit payment: Vanuatu Tanzania" role="graphics-symbol" aria-roledescription="point" transform="translate(60.78571428571428,50.85714285714287)" d="M1.8708286933869707,0A1.8708286933869707,1.8708286933869707,0,1,1,-1.8708286933869707,0A1.8708286933869707,1.8708286933869707,0,1,1,1.8708286933869707,0" fill="#5f8c73" stroke-width="4" opacity="1"></path><path aria-label="Month: Feb; quae: 404; deposit payment: Vanuatu Tanzania" role="graphics-symbol" aria-roledescription="point" transform="translate(182.35714285714283,84.57142857142857)" d="M1.8708286933869707,0A1.8708286933869707,1.8708286933869707,0,1,1,-1.8708286933869707,0A1.8708286933869707,1.8708286933869707,0,1,1,1.8708286933869707,0" fill="#5f8c73" stroke-width="4" opacity="1"></path><path aria-label="Month: Mar; quae: 496; deposit payment: Vanuatu Tanzania" role="graphics-symbol" aria-roledescription="point" transform="translate(303.92857142857144,58.2857142857143)" d="M1.8708286933869707,0A1.8708286933869707,1.8708286933869707,0,1,1,-1.8708286933869707,0A1.8708286933869707,1.8708286933869707,0,1,1,1.8708286933869707,0" fill="#5f8c73" stroke-width="4" opacity="1"></path><path aria-label="Month: Apr; quae: 92; deposit payment: Vanuatu Tanzania" role="graphics-symbol" aria-roledescription="point" transform="translate(425.5,173.71428571428572)" d="M1.8708286933869707,0A1.8708286933869707,1.8708286933869707,0,1,1,-1.8708286933869707,0A1.8708286933869707,1.8708286933869707,0,1,1,1.8708286933869707,0" fill="#5f8c73" stroke-width="4" opacity="1"></path><path aria-label="Month: May; quae: 128; deposit payment: Vanuatu Tanzania" role="graphics-symbol" aria-roledescription="point" transform="translate(547.0714285714286,163.42857142857144)" d="M1.8708286933869707,0A1.8708286933869707,1.8708286933869707,0,1,1,-1.8708286933869707,0A1.8708286933869707,1.8708286933869707,0,1,1,1.8708286933869707,0" fill="#5f8c73" stroke-width="4" opacity="1"></path><path aria-label="Month: June; quae: 300; deposit payment: Vanuatu Tanzania" role="graphics-symbol" aria-roledescription="point" transform="translate(668.6428571428571,114.28571428571428)" d="M1.8708286933869707,0A1.8708286933869707,1.8708286933869707,0,1,1,-1.8708286933869707,0A1.8708286933869707,1.8708286933869707,0,1,1,1.8708286933869707,0" fill="#5f8c73" stroke-width="4" opacity="1"></path><path aria-label="Month: July; quae: 609; deposit payment: Vanuatu Tanzania" role="graphics-symbol" aria-roledescription="point" transform="translate(790.2142857142858,26)" d="M1.8708286933869707,0A1.8708286933869707,1.8708286933869707,0,1,1,-1.8708286933869707,0A1.8708286933869707,1.8708286933869707,0,1,1,1.8708286933869707,0" fill="#5f8c73" stroke-width="4" opacity="1"></path></g><g class="mark-text role-mark layer_2_marks" role="graphics-object" aria-roledescription="text mark container"><text aria-label="Month: Jan; quae: 233" role="graphics-symbol" aria-roledescription="text mark" text-anchor="middle" transform="translate(60.78571428571428,158.42857142857142)" font-family="sans-serif" font-size="18px" fill="#000" opacity="1">233</text><text aria-label="Month: Feb; quae: 640" role="graphics-symbol" aria-roledescription="text mark" text-anchor="middle" transform="translate(182.35714285714283,42.14285714285715)" font-family="sans-serif" font-size="18px" fill="#000" opacity="1">640</text><text aria-label="Month: Mar; quae: 670" role="graphics-symbol" aria-roledescription="text mark" text-anchor="middle" transform="translate(303.92857142857144,33.57142857142856)" font-family="sans-serif" font-size="18px" fill="#000" opacity="1">670</text><text aria-label="Month: Apr; quae: 4" role="graphics-symbol" aria-roledescription="text mark" text-anchor="middle" transform="translate(425.5,223.85714285714286)" font-family="sans-serif" font-size="18px" fill="#000" opacity="1">4</text><text aria-label="Month: May; quae: 233" role="graphics-symbol" aria-roledescription="text mark" text-anchor="middle" transform="translate(547.0714285714286,158.42857142857142)" font-family="sans-serif" font-size="18px" fill="#000" opacity="1">233</text><text aria-label="Month: June; quae: 365" role="graphics-symbol" aria-roledescription="text mark" text-anchor="middle" transform="translate(668.6428571428571,120.71428571428571)" font-family="sans-serif" font-size="18px" fill="#000" opacity="1">365</text><text aria-label="Month: July; quae: 644" role="graphics-symbol" aria-roledescription="text mark" text-anchor="middle" transform="translate(790.2142857142858,40.99999999999999)" font-family="sans-serif" font-size="18px" fill="#000" opacity="1">644</text><text aria-label="Month: Jan; quae: 522" role="graphics-symbol" aria-roledescription="text mark" text-anchor="middle" transform="translate(60.78571428571428,75.85714285714286)" font-family="sans-serif" font-size="18px" fill="#000" opacity="1">522</text><text aria-label="Month: Feb; quae: 404" role="graphics-symbol" aria-roledescription="text mark" text-anchor="middle" transform="translate(182.35714285714283,109.57142857142857)" font-family="sans-serif" font-size="18px" fill="#000" opacity="1">404</text><text aria-label="Month: Mar; quae: 496" role="graphics-symbol" aria-roledescription="text mark" text-anchor="middle" transform="translate(303.92857142857144,83.2857142857143)" font-family="sans-serif" font-size="18px" fill="#000" opacity="1">496</text><text aria-label="Month: Apr; quae: 92" role="graphics-symbol" aria-roledescription="text mark" text-anchor="middle" transform="translate(425.5,198.71428571428572)" font-family="sans-serif" font-size="18px" fill="#000" opacity="1">92</text><text aria-label="Month: May; quae: 128" role="graphics-symbol" aria-roledescription="text mark" text-anchor="middle" transform="translate(547.0714285714286,188.42857142857144)" font-family="sans-serif" font-size="18px" fill="#000" opacity="1">128</text><text aria-label="Month: June; quae: 300" role="graphics-symbol" aria-roledescription="text mark" text-anchor="middle" transform="translate(668.6428571428571,139.28571428571428)" font-family="sans-serif" font-size="18px" fill="#000" opacity="1">300</text><text aria-label="Month: July; quae: 609" role="graphics-symbol" aria-roledescription="text mark" text-anchor="middle" transform="translate(790.2142857142858,51)" font-family="sans-serif" font-size="18px" fill="#000" opacity="1">609</text></g><g class="mark-group role-legend" role="graphics-symbol" aria-roledescription="legend" aria-label="Symbol legend titled 'deposit payment' for fill color and stroke color with 2 values: Jazz Karina, Vanuatu Tanzania"><g transform="translate(869,0)"><path class="background" aria-hidden="true" d="M0,0h96v45h-96Z" pointer-events="none"></path><g><g class="mark-group role-legend-entry"><g transform="translate(0,16)"><path class="background" aria-hidden="true" d="M0,0h0v0h0Z" pointer-events="none"></path><g><g class="mark-group role-scope" role="graphics-object" aria-roledescription="group mark container"><g transform="translate(0,0)"><path class="background" aria-hidden="true" d="M0,0h95.3212890625v12.5h-95.3212890625Z" pointer-events="none" opacity="1"></path><g><g class="mark-symbol role-legend-symbol" pointer-events="none"><path transform="translate(6,6)" d="M5,0A5,5,0,1,1,-5,0A5,5,0,1,1,5,0" fill="#6a935e" stroke="#6a935e" stroke-width="1.5" opacity="1"></path></g><g class="mark-text role-legend-label" pointer-events="none"><text text-anchor="start" transform="translate(16,9)" font-family="sans-serif" font-size="10px" fill="#000" opacity="1">Jazz Karina</text></g></g><path class="foreground" aria-hidden="true" d="" pointer-events="none" display="none"></path></g><g transform="translate(0,16)"><path class="background" aria-hidden="true" d="M0,0h95.3212890625v12.5h-95.3212890625Z" pointer-events="none" opacity="1"></path><g><g class="mark-symbol role-legend-symbol" pointer-events="none"><path transform="translate(6,6)" d="M5,0A5,5,0,1,1,-5,0A5,5,0,1,1,5,0" fill="#5f8c73" stroke="#5f8c73" stroke-width="1.5" opacity="1"></path></g><g class="mark-text role-legend-label" pointer-events="none"><text text-anchor="start" transform="translate(16,9)" font-family="sans-serif" font-size="10px" fill="#000" opacity="1">Vanuatu Tanzania</text></g></g><path class="foreground" aria-hidden="true" d="" pointer-events="none" display="none"></path></g></g></g><path class="foreground" aria-hidden="true" d="" pointer-events="none" display="none"></path></g></g><g class="mark-text role-legend-title" pointer-events="none"><text text-anchor="start" transform="translate(0,9)" font-family="sans-serif" font-size="11px" font-weight="bold" fill="#000" opacity="1">deposit payment</text></g></g><path class="foreground" aria-hidden="true" d="" pointer-events="none" display="none"></path></g></g><g class="mark-group role-title"><g transform="translate(425.5,-49.003457996146466)"><path class="background" aria-hidden="true" d="M0,0h0v0h0Z" pointer-events="none"></path><g><g class="mark-text role-title-text" role="graphics-symbol" aria-roledescription="title" aria-label="Title text 'mindshare male explode'" pointer-events="none"><text text-anchor="middle" transform="translate(0,20)" font-family="sans-serif" font-size="25px" font-weight="bold" fill="#000" opacity="1">mindshare male explode</text></g></g><path class="foreground" aria-hidden="true" d="" pointer-events="none" display="none"></path></g></g></g><path class="foreground" aria-hidden="true" d="" display="none"></path></g></g></g></svg>