<svg xmlns="http://www.w3.org/2000/svg" xmlns:xlink="http://www.w3.org/1999/xlink" version="1.1" class="marks" width="729" height="328" viewBox="0 0 729 328" style="background-color: rgb(51, 51, 51);"><g fill="none" stroke-miterlimit="10" transform="translate(23,52)"><g class="mark-group role-frame root" role="graphics-object" aria-roledescription="group mark container"><g transform="translate(0,0)"><path class="background" aria-hidden="true" d="M0.5,0.5h701v200h-701Z" fill="transparent" stroke="#ddd"></path><g><g class="mark-group role-axis" role="graphics-symbol" aria-roledescription="axis" aria-label="X-axis for a discrete scale with 7 values: Jan, Feb, Mar, Apr, May, June, July"><g transform="translate(0.5,200.5)"><path class="background" aria-hidden="true" d="M0,0h0v0h0Z" pointer-events="none"></path><g><g class="mark-rule role-axis-tick" pointer-events="none"><line transform="translate(50,0)" x2="0" y2="5" stroke="#888" stroke-width="1" opacity="1"></line><line transform="translate(150,0)" x2="0" y2="5" stroke="#888" stroke-width="1" opacity="1"></line><line transform="translate(250,0)" x2="0" y2="5" stroke="#888" stroke-width="1" opacity="1"></line><line transform="translate(351,0)" x2="0" y2="5" stroke="#888" stroke-width="1" opacity="1"></line><line transform="translate(451,0)" x2="0" y2="5" stroke="#888" stroke-width="1" opacity="1"></line><line transform="translate(551,0)" x2="0" y2="5" stroke="#888" stroke-width="1" opacity="1"></line><line transform="translate(651,0)" x2="0" y2="5" stroke="#888" stroke-width="1" opacity="1"></line></g><g class="mark-text role-axis-label" pointer-events="none"><text text-anchor="start" transform="translate(50.071428571428555,7) rotate(90) translate(0,5)" font-family="avenir" font-size="16px" font-weight="bold" fill="#fff" opacity="1">Jan</text><text text-anchor="start" transform="translate(150.2142857142857,7) rotate(90) translate(0,5)" font-family="avenir" font-size="16px" font-weight="bold" fill="#fff" opacity="1">Feb</text><text text-anchor="start" transform="translate(250.35714285714283,7) rotate(90) translate(0,5)" font-family="avenir" font-size="16px" font-weight="bold" fill="#fff" opacity="1">Mar</text><text text-anchor="start" transform="translate(350.5,7) rotate(90) translate(0,5)" font-family="avenir" font-size="16px" font-weight="bold" fill="#fff" opacity="1">Apr</text><text text-anchor="start" transform="translate(450.6428571428571,7) rotate(90) translate(0,5)" font-family="avenir" font-size="16px" font-weight="bold" fill="#fff" opacity="1">May</text><text text-anchor="start" transform="translate(550.7857142857142,7) rotate(90) translate(0,5)" font-family="avenir" font-size="16px" font-weight="bold" fill="#fff" opacity="1">June</text><text text-anchor="start" transform="translate(650.9285714285714,7) rotate(90) translate(0,5)" font-family="avenir" font-size="16px" font-weight="bold" fill="#fff" opacity="1">July</text></g><g class="mark-rule role-axis-domain" pointer-events="none"><line transform="translate(0,0)" x2="701" y2="0" stroke="#888" stroke-width="1" opacity="1"></line></g></g><path class="foreground" aria-hidden="true" d="" pointer-events="none" display="none"></path></g></g><g class="mark-group role-axis" role="graphics-symbol" aria-roledescription="axis" aria-label="Y-axis for a linear scale with values from 0 to 1,000"><g transform="translate(0.5,0.5)"><path class="background" aria-hidden="true" d="M0,0h0v0h0Z" pointer-events="none"></path><g><g class="mark-text role-axis-label" pointer-events="none"><text text-anchor="middle" transform="translate(-2,200) rotate(90) translate(0,13)" font-family="avenir" font-size="16px" font-weight="bold" fill="#fff" opacity="1">0</text><text text-anchor="middle" transform="translate(-2,160) rotate(90) translate(0,13)" font-family="avenir" font-size="16px" font-weight="bold" fill="#fff" opacity="1">200</text><text text-anchor="middle" transform="translate(-2,120) rotate(90) translate(0,13)" font-family="avenir" font-size="16px" font-weight="bold" fill="#fff" opacity="1">400</text><text text-anchor="middle" transform="translate(-2,80) rotate(90) translate(0,13)" font-family="avenir" font-size="16px" font-weight="bold" fill="#fff" opacity="1">600</text><text text-anchor="middle" transform="translate(-2,39.99999999999999) rotate(90) translate(0,13)" font-family="avenir" font-size="16px" font-weight="bold" fill="#fff" opacity="1">800</text><text text-anchor="middle" transform="translate(-2,0) rotate(90) translate(0,13)" font-family="avenir" font-size="16px" font-weight="bold" fill="#fff" opacity="1">1,000</text></g><g class="mark-rule role-axis-domain" pointer-events="none"><line transform="translate(0,200)" x2="0" y2="-200" stroke="#888" stroke-width="1" opacity="1"></line></g></g><path class="foreground" aria-hidden="true" d="" pointer-events="none" display="none"></path></g></g><g class="mark-group role-scope layer_0_pathgroup" role="graphics-object" aria-roledescription="group mark container"><g transform="translate(0,0)"><path class="background" aria-hidden="true" d="M0,0h701v200h-701Z"></path><g><g class="mark-line role-mark layer_0_marks" role="graphics-object" aria-roledescription="line mark container"><path aria-label="Month: Jan; Maserati: 552; pessimistic Hop: oof" role="graphics-symbol" aria-roledescription="line mark" d="M50.071428571428555,89.6C83.45238095238093,60.463589743589736,116.83333333333331,31.327179487179485,150.2142857142857,22.4C183.59523809523807,13.47282051282051,216.97619047619042,24.754871794871796,250.35714285714283,28.800000000000004C283.73809523809524,32.84512820512821,317.1190476190477,29.653333333333336,350.5,41.79999999999999C383.8809523809523,53.946666666666644,417.2619047619047,81.43179487179486,450.6428571428571,96.39999999999999C484.0238095238095,111.36820512820512,517.4047619047618,113.8194871794872,550.7857142857142,108.80000000000001C584.1666666666666,103.78051282051283,617.547619047619,91.2902564102564,650.9285714285714,78.8" stroke="#a60c53" stroke-width="2" stroke-dasharray="1,0"></path></g></g><path class="foreground" aria-hidden="true" d="" display="none"></path></g><g transform="translate(0,0)"><path class="background" aria-hidden="true" d="M0,0h701v200h-701Z"></path><g><g class="mark-line role-mark layer_0_marks" role="graphics-object" aria-roledescription="line mark container"><path aria-label="Month: Jan; Maserati: 888; pessimistic Hop: Francium Bedfordshire" role="graphics-symbol" aria-roledescription="line mark" d="M50.071428571428555,22.4C83.45238095238093,19.873675213675213,116.83333333333331,17.34735042735042,150.2142857142857,53C183.59523809523807,88.65264957264958,216.97619047619042,162.48427350427352,250.35714285714283,173C283.73809523809524,183.51572649572648,317.1190476190477,130.71555555555557,350.5,124.4C383.8809523809523,118.08444444444446,417.2619047619047,158.2535042735043,450.6428571428571,135.2C484.0238095238095,112.1464957264957,517.4047619047618,25.870427350427335,550.7857142857142,18.799999999999994C584.1666666666666,11.729572649572654,617.547619047619,83.86478632478632,650.9285714285714,156" stroke="#eb4e5a" stroke-width="2" stroke-dasharray="1,0"></path></g></g><path class="foreground" aria-hidden="true" d="" display="none"></path></g></g><g class="mark-symbol role-mark layer_1_marks" role="graphics-object" aria-roledescription="symbol mark container"><path aria-label="Month: Jan; Maserati: 552; pessimistic Hop: oof" role="graphics-symbol" aria-roledescription="point" transform="translate(50.071428571428555,89.6)" d="M2.7386127875258306,0A2.7386127875258306,2.7386127875258306,0,1,1,-2.7386127875258306,0A2.7386127875258306,2.7386127875258306,0,1,1,2.7386127875258306,0" fill="#333333" stroke="#a60c53" stroke-width="4" opacity="1"></path><path aria-label="Month: Feb; Maserati: 888; pessimistic Hop: oof" role="graphics-symbol" aria-roledescription="point" transform="translate(150.2142857142857,22.4)" d="M2.7386127875258306,0A2.7386127875258306,2.7386127875258306,0,1,1,-2.7386127875258306,0A2.7386127875258306,2.7386127875258306,0,1,1,2.7386127875258306,0" fill="#333333" stroke="#a60c53" stroke-width="4" opacity="1"></path><path aria-label="Month: Mar; Maserati: 856; pessimistic Hop: oof" role="graphics-symbol" aria-roledescription="point" transform="translate(250.35714285714283,28.800000000000004)" d="M2.7386127875258306,0A2.7386127875258306,2.7386127875258306,0,1,1,-2.7386127875258306,0A2.7386127875258306,2.7386127875258306,0,1,1,2.7386127875258306,0" fill="#333333" stroke="#a60c53" stroke-width="4" opacity="1"></path><path aria-label="Month: Apr; Maserati: 791; pessimistic Hop: oof" role="graphics-symbol" aria-roledescription="point" transform="translate(350.5,41.79999999999999)" d="M2.7386127875258306,0A2.7386127875258306,2.7386127875258306,0,1,1,-2.7386127875258306,0A2.7386127875258306,2.7386127875258306,0,1,1,2.7386127875258306,0" fill="#333333" stroke="#a60c53" stroke-width="4" opacity="1"></path><path aria-label="Month: May; Maserati: 518; pessimistic Hop: oof" role="graphics-symbol" aria-roledescription="point" transform="translate(450.6428571428571,96.39999999999999)" d="M2.7386127875258306,0A2.7386127875258306,2.7386127875258306,0,1,1,-2.7386127875258306,0A2.7386127875258306,2.7386127875258306,0,1,1,2.7386127875258306,0" fill="#333333" stroke="#a60c53" stroke-width="4" opacity="1"></path><path aria-label="Month: June; Maserati: 456; pessimistic Hop: oof" role="graphics-symbol" aria-roledescription="point" transform="translate(550.7857142857142,108.80000000000001)" d="M2.7386127875258306,0A2.7386127875258306,2.7386127875258306,0,1,1,-2.7386127875258306,0A2.7386127875258306,2.7386127875258306,0,1,1,2.7386127875258306,0" fill="#333333" stroke="#a60c53" stroke-width="4" opacity="1"></path><path aria-label="Month: July; Maserati: 606; pessimistic Hop: oof" role="graphics-symbol" aria-roledescription="point" transform="translate(650.9285714285714,78.8)" d="M2.7386127875258306,0A2.7386127875258306,2.7386127875258306,0,1,1,-2.7386127875258306,0A2.7386127875258306,2.7386127875258306,0,1,1,2.7386127875258306,0" fill="#333333" stroke="#a60c53" stroke-width="4" opacity="1"></path><path aria-label="Month: Jan; Maserati: 888; pessimistic Hop: Francium Bedfordshire" role="graphics-symbol" aria-roledescription="point" transform="translate(50.071428571428555,22.4)" d="M2.7386127875258306,0A2.7386127875258306,2.7386127875258306,0,1,1,-2.7386127875258306,0A2.7386127875258306,2.7386127875258306,0,1,1,2.7386127875258306,0" fill="#333333" stroke="#eb4e5a" stroke-width="4" opacity="1"></path><path aria-label="Month: Feb; Maserati: 735; pessimistic Hop: Francium Bedfordshire" role="graphics-symbol" aria-roledescription="point" transform="translate(150.2142857142857,53)" d="M2.7386127875258306,0A2.7386127875258306,2.7386127875258306,0,1,1,-2.7386127875258306,0A2.7386127875258306,2.7386127875258306,0,1,1,2.7386127875258306,0" fill="#333333" stroke="#eb4e5a" stroke-width="4" opacity="1"></path><path aria-label="Month: Mar; Maserati: 135; pessimistic Hop: Francium Bedfordshire" role="graphics-symbol" aria-roledescription="point" transform="translate(250.35714285714283,173)" d="M2.7386127875258306,0A2.7386127875258306,2.7386127875258306,0,1,1,-2.7386127875258306,0A2.7386127875258306,2.7386127875258306,0,1,1,2.7386127875258306,0" fill="#333333" stroke="#eb4e5a" stroke-width="4" opacity="1"></path><path aria-label="Month: Apr; Maserati: 378; pessimistic Hop: Francium Bedfordshire" role="graphics-symbol" aria-roledescription="point" transform="translate(350.5,124.4)" d="M2.7386127875258306,0A2.7386127875258306,2.7386127875258306,0,1,1,-2.7386127875258306,0A2.7386127875258306,2.7386127875258306,0,1,1,2.7386127875258306,0" fill="#333333" stroke="#eb4e5a" stroke-width="4" opacity="1"></path><path aria-label="Month: May; Maserati: 324; pessimistic Hop: Francium Bedfordshire" role="graphics-symbol" aria-roledescription="point" transform="translate(450.6428571428571,135.2)" d="M2.7386127875258306,0A2.7386127875258306,2.7386127875258306,0,1,1,-2.7386127875258306,0A2.7386127875258306,2.7386127875258306,0,1,1,2.7386127875258306,0" fill="#333333" stroke="#eb4e5a" stroke-width="4" opacity="1"></path><path aria-label="Month: June; Maserati: 906; pessimistic Hop: Francium Bedfordshire" role="graphics-symbol" aria-roledescription="point" transform="translate(550.7857142857142,18.799999999999994)" d="M2.7386127875258306,0A2.7386127875258306,2.7386127875258306,0,1,1,-2.7386127875258306,0A2.7386127875258306,2.7386127875258306,0,1,1,2.7386127875258306,0" fill="#333333" stroke="#eb4e5a" stroke-width="4" opacity="1"></path><path aria-label="Month: July; Maserati: 220; pessimistic Hop: Francium Bedfordshire" role="graphics-symbol" aria-roledescription="point" transform="translate(650.9285714285714,156)" d="M2.7386127875258306,0A2.7386127875258306,2.7386127875258306,0,1,1,-2.7386127875258306,0A2.7386127875258306,2.7386127875258306,0,1,1,2.7386127875258306,0" fill="#333333" stroke="#eb4e5a" stroke-width="4" opacity="1"></path></g><g class="mark-group role-legend" role="graphics-symbol" aria-roledescription="legend" aria-label="Symbol legend for stroke color with 2 values: oof, Francium Bedfordshire"><g transform="translate(0,258)"><path class="background" aria-hidden="true" d="M0,0h151v13h-151Z" pointer-events="none"></path><g><g class="mark-group role-legend-entry"><g transform="translate(0,0)"><path class="background" aria-hidden="true" d="M0,0h0v0h0Z" pointer-events="none"></path><g><g class="mark-group role-scope" role="graphics-object" aria-roledescription="group mark container"><g transform="translate(0,0.25)"><path class="background" aria-hidden="true" d="M0,0h29.330078125v12.5h-29.330078125Z" pointer-events="none" opacity="1"></path><g><g class="mark-symbol role-legend-symbol" pointer-events="none"><path transform="translate(6,6)" d="M5,0A5,5,0,1,1,-5,0A5,5,0,1,1,5,0" fill="#333333" stroke="#a60c53" stroke-width="1.5" opacity="1"></path></g><g class="mark-text role-legend-label" pointer-events="none"><text text-anchor="start" transform="translate(16,9)" font-family="avenir" font-size="10px" fill="#fff" opacity="1">oof</text></g></g><path class="foreground" aria-hidden="true" d="" pointer-events="none" display="none"></path></g><g transform="translate(41,0.25)"><path class="background" aria-hidden="true" d="M0,0h109.0322265625v12.5h-109.0322265625Z" pointer-events="none" opacity="1"></path><g><g class="mark-symbol role-legend-symbol" pointer-events="none"><path transform="translate(6,6)" d="M5,0A5,5,0,1,1,-5,0A5,5,0,1,1,5,0" fill="#333333" stroke="#eb4e5a" stroke-width="1.5" opacity="1"></path></g><g class="mark-text role-legend-label" pointer-events="none"><text text-anchor="start" transform="translate(16,9)" font-family="avenir" font-size="10px" fill="#fff" opacity="1">Francium Bedfordshire</text></g></g><path class="foreground" aria-hidden="true" d="" pointer-events="none" display="none"></path></g></g></g><path class="foreground" aria-hidden="true" d="" pointer-events="none" display="none"></path></g></g></g><path class="foreground" aria-hidden="true" d="" pointer-events="none" display="none"></path></g></g><g class="mark-group role-title"><g transform="translate(701,-47)"><path class="background" aria-hidden="true" d="M0,0h0v0h0Z" pointer-events="none"></path><g><g class="mark-text role-title-text" role="graphics-symbol" aria-roledescription="title" aria-label="Title text 'Market tesla'" pointer-events="none"><text text-anchor="end" transform="translate(0,20)" font-family="avenir" font-size="25px" font-weight="bold" fill="#fff" opacity="1">Market tesla</text></g></g><path class="foreground" aria-hidden="true" d="" pointer-events="none" display="none"></path></g></g></g><path class="foreground" aria-hidden="true" d="" display="none"></path></g></g></g></svg>