<svg xmlns="http://www.w3.org/2000/svg" xmlns:xlink="http://www.w3.org/1999/xlink" version="1.1" class="marks" width="809" height="264" viewBox="0 0 809 264" style="background-color: rgb(255, 255, 255);"><g fill="none" stroke-miterlimit="10" transform="translate(39,34)"><g class="mark-group role-frame root" role="graphics-object" aria-roledescription="group mark container"><g transform="translate(0,0)"><path class="background" aria-hidden="true" d="M0.5,0.5h765v200h-765Z" fill="transparent" stroke="#ddd"></path><g><g class="mark-group role-axis" aria-hidden="true"><g transform="translate(0.5,200.5)"><path class="background" aria-hidden="true" d="M0,0h0v0h0Z" pointer-events="none"></path><g><g class="mark-rule role-axis-grid" pointer-events="none"><line transform="translate(48,-200)" x2="0" y2="200" stroke="#D0D0D0" stroke-width="1" stroke-dasharray="1,0" opacity="1"></line><line transform="translate(143,-200)" x2="0" y2="200" stroke="#D0D0D0" stroke-width="1" stroke-dasharray="1,0" opacity="1"></line><line transform="translate(239,-200)" x2="0" y2="200" stroke="#D0D0D0" stroke-width="1" stroke-dasharray="1,0" opacity="1"></line><line transform="translate(335,-200)" x2="0" y2="200" stroke="#D0D0D0" stroke-width="1" stroke-dasharray="1,0" opacity="1"></line><line transform="translate(430,-200)" x2="0" y2="200" stroke="#D0D0D0" stroke-width="1" stroke-dasharray="1,0" opacity="1"></line><line transform="translate(526,-200)" x2="0" y2="200" stroke="#D0D0D0" stroke-width="1" stroke-dasharray="1,0" opacity="1"></line><line transform="translate(622,-200)" x2="0" y2="200" stroke="#D0D0D0" stroke-width="1" stroke-dasharray="1,0" opacity="1"></line><line transform="translate(717,-200)" x2="0" y2="200" stroke="#D0D0D0" stroke-width="1" stroke-dasharray="1,0" opacity="1"></line></g></g><path class="foreground" aria-hidden="true" d="" pointer-events="none" display="none"></path></g></g><g class="mark-group role-axis" role="graphics-symbol" aria-roledescription="axis" aria-label="X-axis for a discrete scale with 8 values: Jan, Feb, Mar, Apr, May, ending with Aug"><g transform="translate(0.5,200.5)"><path class="background" aria-hidden="true" d="M0,0h0v0h0Z" pointer-events="none"></path><g><g class="mark-rule role-axis-tick" pointer-events="none"><line transform="translate(48,0)" x2="0" y2="5" stroke="#888" stroke-width="1" opacity="1"></line><line transform="translate(143,0)" x2="0" y2="5" stroke="#888" stroke-width="1" opacity="1"></line><line transform="translate(239,0)" x2="0" y2="5" stroke="#888" stroke-width="1" opacity="1"></line><line transform="translate(335,0)" x2="0" y2="5" stroke="#888" stroke-width="1" opacity="1"></line><line transform="translate(430,0)" x2="0" y2="5" stroke="#888" stroke-width="1" opacity="1"></line><line transform="translate(526,0)" x2="0" y2="5" stroke="#888" stroke-width="1" opacity="1"></line><line transform="translate(622,0)" x2="0" y2="5" stroke="#888" stroke-width="1" opacity="1"></line><line transform="translate(717,0)" x2="0" y2="5" stroke="#888" stroke-width="1" opacity="1"></line></g><g class="mark-text role-axis-label" pointer-events="none"><text text-anchor="middle" transform="translate(47.8125,21)" font-family="avenir" font-size="18px" font-weight="bold" fill="#000" opacity="1">Jan</text><text text-anchor="middle" transform="translate(143.4375,21)" font-family="avenir" font-size="18px" font-weight="bold" fill="#000" opacity="1">Feb</text><text text-anchor="middle" transform="translate(239.0625,21)" font-family="avenir" font-size="18px" font-weight="bold" fill="#000" opacity="1">Mar</text><text text-anchor="middle" transform="translate(334.6875,21)" font-family="avenir" font-size="18px" font-weight="bold" fill="#000" opacity="1">Apr</text><text text-anchor="middle" transform="translate(430.3125,21)" font-family="avenir" font-size="18px" font-weight="bold" fill="#000" opacity="1">May</text><text text-anchor="middle" transform="translate(525.9375,21)" font-family="avenir" font-size="18px" font-weight="bold" fill="#000" opacity="1">June</text><text text-anchor="middle" transform="translate(621.5625,21)" font-family="avenir" font-size="18px" font-weight="bold" fill="#000" opacity="1">July</text><text text-anchor="middle" transform="translate(717.1875,21)" font-family="avenir" font-size="18px" font-weight="bold" fill="#000" opacity="1">Aug</text></g><g class="mark-rule role-axis-domain" pointer-events="none"><line transform="translate(0,0)" x2="765" y2="0" stroke="#888" stroke-width="1" opacity="1"></line></g></g><path class="foreground" aria-hidden="true" d="" pointer-events="none" display="none"></path></g></g><g class="mark-group role-axis" role="graphics-symbol" aria-roledescription="axis" aria-label="Y-axis for a linear scale with values from 0 to 650"><g transform="translate(0.5,0.5)"><path class="background" aria-hidden="true" d="M0,0h0v0h0Z" pointer-events="none"></path><g><g class="mark-rule role-axis-tick" pointer-events="none"><line transform="translate(0,200)" x2="-5" y2="0" stroke="#888" stroke-width="1" opacity="1"></line><line transform="translate(0,169)" x2="-5" y2="0" stroke="#888" stroke-width="1" opacity="1"></line><line transform="translate(0,138)" x2="-5" y2="0" stroke="#888" stroke-width="1" opacity="1"></line><line transform="translate(0,108)" x2="-5" y2="0" stroke="#888" stroke-width="1" opacity="1"></line><line transform="translate(0,77)" x2="-5" y2="0" stroke="#888" stroke-width="1" opacity="1"></line><line transform="translate(0,46)" x2="-5" y2="0" stroke="#888" stroke-width="1" opacity="1"></line><line transform="translate(0,15)" x2="-5" y2="0" stroke="#888" stroke-width="1" opacity="1"></line></g><g class="mark-text role-axis-label" pointer-events="none"><text text-anchor="end" transform="translate(-7,205)" font-family="avenir" font-size="18px" font-weight="bold" fill="#000" opacity="1">0</text><text text-anchor="end" transform="translate(-7,174.23076923076923)" font-family="avenir" font-size="18px" font-weight="bold" fill="#000" opacity="1">100</text><text text-anchor="end" transform="translate(-7,143.46153846153845)" font-family="avenir" font-size="18px" font-weight="bold" fill="#000" opacity="1">200</text><text text-anchor="end" transform="translate(-7,112.6923076923077)" font-family="avenir" font-size="18px" font-weight="bold" fill="#000" opacity="1">300</text><text text-anchor="end" transform="translate(-7,81.92307692307692)" font-family="avenir" font-size="18px" font-weight="bold" fill="#000" opacity="1">400</text><text text-anchor="end" transform="translate(-7,51.153846153846146)" font-family="avenir" font-size="18px" font-weight="bold" fill="#000" opacity="1">500</text><text text-anchor="end" transform="translate(-7,20.384615384615373)" font-family="avenir" font-size="18px" font-weight="bold" fill="#000" opacity="1">600</text></g></g><path class="foreground" aria-hidden="true" d="" pointer-events="none" display="none"></path></g></g><g class="mark-group role-scope layer_0_pathgroup" role="graphics-object" aria-roledescription="group mark container"><g transform="translate(0,0)"><path class="background" aria-hidden="true" d="M0,0h765v200h-765Z"></path><g><g class="mark-line role-mark layer_0_marks" role="graphics-object" aria-roledescription="line mark container"><path aria-label="Month: Jan; Hatchback Cruiser: 406; South Nissan: Polestar placate Pangender" role="graphics-symbol" aria-roledescription="line mark" d="M47.8125,75.07692307692308C79.6875,111.04193642153108,111.5625,147.00694976613906,143.4375,129.53846153846155C175.3125,112.06997331078404,207.1875,41.167983510821024,239.0625,45.230769230769226C270.9375,49.29355495071743,302.8125,128.32111619057687,334.6875,168.92307692307693C366.5625,209.525037655577,398.43750000000006,211.7013978807177,430.3125,196.6153846153846C462.18749999999994,181.52937135005152,494.0624999999999,149.18098459424462,525.9375,143.07692307692307C557.8125000000001,136.9728615596015,589.6875,157.11312528076525,621.5625,139.3846153846154C653.4375,121.65610548846551,685.3125,66.05882197500199,717.1875,10.461538461538456" stroke="#cae6fd" stroke-width="2" stroke-dasharray="8,4"></path></g></g><path class="foreground" aria-hidden="true" d="" display="none"></path></g></g><g class="mark-symbol role-mark layer_1_marks" role="graphics-object" aria-roledescription="symbol mark container"><path aria-label="Month: Jan; Hatchback Cruiser: 406; South Nissan: Polestar placate Pangender" role="graphics-symbol" aria-roledescription="point" transform="translate(47.8125,75.07692307692308)" d="M2.7386127875258306,0A2.7386127875258306,2.7386127875258306,0,1,1,-2.7386127875258306,0A2.7386127875258306,2.7386127875258306,0,1,1,2.7386127875258306,0" fill="#fff" stroke="#cae6fd" stroke-width="3" opacity="1"></path><path aria-label="Month: Feb; Hatchback Cruiser: 229; South Nissan: Polestar placate Pangender" role="graphics-symbol" aria-roledescription="point" transform="translate(143.4375,129.53846153846155)" d="M2.7386127875258306,0A2.7386127875258306,2.7386127875258306,0,1,1,-2.7386127875258306,0A2.7386127875258306,2.7386127875258306,0,1,1,2.7386127875258306,0" fill="#fff" stroke="#cae6fd" stroke-width="3" opacity="1"></path><path aria-label="Month: Mar; Hatchback Cruiser: 503; South Nissan: Polestar placate Pangender" role="graphics-symbol" aria-roledescription="point" transform="translate(239.0625,45.230769230769226)" d="M2.7386127875258306,0A2.7386127875258306,2.7386127875258306,0,1,1,-2.7386127875258306,0A2.7386127875258306,2.7386127875258306,0,1,1,2.7386127875258306,0" fill="#fff" stroke="#cae6fd" stroke-width="3" opacity="1"></path><path aria-label="Month: Apr; Hatchback Cruiser: 101; South Nissan: Polestar placate Pangender" role="graphics-symbol" aria-roledescription="point" transform="translate(334.6875,168.92307692307693)" d="M2.7386127875258306,0A2.7386127875258306,2.7386127875258306,0,1,1,-2.7386127875258306,0A2.7386127875258306,2.7386127875258306,0,1,1,2.7386127875258306,0" fill="#fff" stroke="#cae6fd" stroke-width="3" opacity="1"></path><path aria-label="Month: May; Hatchback Cruiser: 11; South Nissan: Polestar placate Pangender" role="graphics-symbol" aria-roledescription="point" transform="translate(430.3125,196.6153846153846)" d="M2.7386127875258306,0A2.7386127875258306,2.7386127875258306,0,1,1,-2.7386127875258306,0A2.7386127875258306,2.7386127875258306,0,1,1,2.7386127875258306,0" fill="#fff" stroke="#cae6fd" stroke-width="3" opacity="1"></path><path aria-label="Month: June; Hatchback Cruiser: 185; South Nissan: Polestar placate Pangender" role="graphics-symbol" aria-roledescription="point" transform="translate(525.9375,143.07692307692307)" d="M2.7386127875258306,0A2.7386127875258306,2.7386127875258306,0,1,1,-2.7386127875258306,0A2.7386127875258306,2.7386127875258306,0,1,1,2.7386127875258306,0" fill="#fff" stroke="#cae6fd" stroke-width="3" opacity="1"></path><path aria-label="Month: July; Hatchback Cruiser: 197; South Nissan: Polestar placate Pangender" role="graphics-symbol" aria-roledescription="point" transform="translate(621.5625,139.3846153846154)" d="M2.7386127875258306,0A2.7386127875258306,2.7386127875258306,0,1,1,-2.7386127875258306,0A2.7386127875258306,2.7386127875258306,0,1,1,2.7386127875258306,0" fill="#fff" stroke="#cae6fd" stroke-width="3" opacity="1"></path><path aria-label="Month: Aug; Hatchback Cruiser: 616; South Nissan: Polestar placate Pangender" role="graphics-symbol" aria-roledescription="point" transform="translate(717.1875,10.461538461538456)" d="M2.7386127875258306,0A2.7386127875258306,2.7386127875258306,0,1,1,-2.7386127875258306,0A2.7386127875258306,2.7386127875258306,0,1,1,2.7386127875258306,0" fill="#fff" stroke="#cae6fd" stroke-width="3" opacity="1"></path></g><g class="mark-text role-mark layer_2_marks" role="graphics-object" aria-roledescription="text mark container"><text aria-label="Month: Jan; Hatchback Cruiser: 406" role="graphics-symbol" aria-roledescription="text mark" text-anchor="middle" transform="translate(47.8125,96.07692307692308)" font-family="avenir" font-size="19px" fill="#000" opacity="1">406</text><text aria-label="Month: Feb; Hatchback Cruiser: 229" role="graphics-symbol" aria-roledescription="text mark" text-anchor="middle" transform="translate(143.4375,150.53846153846155)" font-family="avenir" font-size="19px" fill="#000" opacity="1">229</text><text aria-label="Month: Mar; Hatchback Cruiser: 503" role="graphics-symbol" aria-roledescription="text mark" text-anchor="middle" transform="translate(239.0625,66.23076923076923)" font-family="avenir" font-size="19px" fill="#000" opacity="1">503</text><text aria-label="Month: Apr; Hatchback Cruiser: 101" role="graphics-symbol" aria-roledescription="text mark" text-anchor="middle" transform="translate(334.6875,189.92307692307693)" font-family="avenir" font-size="19px" fill="#000" opacity="1">101</text><text aria-label="Month: May; Hatchback Cruiser: 11" role="graphics-symbol" aria-roledescription="text mark" text-anchor="middle" transform="translate(430.3125,217.6153846153846)" font-family="avenir" font-size="19px" fill="#000" opacity="1">11</text><text aria-label="Month: June; Hatchback Cruiser: 185" role="graphics-symbol" aria-roledescription="text mark" text-anchor="middle" transform="translate(525.9375,164.07692307692307)" font-family="avenir" font-size="19px" fill="#000" opacity="1">185</text><text aria-label="Month: July; Hatchback Cruiser: 197" role="graphics-symbol" aria-roledescription="text mark" text-anchor="middle" transform="translate(621.5625,160.3846153846154)" font-family="avenir" font-size="19px" fill="#000" opacity="1">197</text><text aria-label="Month: Aug; Hatchback Cruiser: 616" role="graphics-symbol" aria-roledescription="text mark" text-anchor="middle" transform="translate(717.1875,31.461538461538456)" font-family="avenir" font-size="19px" fill="#000" opacity="1">616</text></g><g class="mark-group role-title"><g transform="translate(382.5,-29)"><path class="background" aria-hidden="true" d="M0,0h0v0h0Z" pointer-events="none"></path><g><g class="mark-text role-title-text" role="graphics-symbol" aria-roledescription="title" aria-label="Title text 'female Electric'" pointer-events="none"><text text-anchor="middle" transform="translate(0,20)" font-family="avenir" font-size="25px" font-weight="bold" fill="#000" opacity="1">female Electric</text></g></g><path class="foreground" aria-hidden="true" d="" pointer-events="none" display="none"></path></g></g></g><path class="foreground" aria-hidden="true" d="" display="none"></path></g></g></g></svg>