<svg xmlns="http://www.w3.org/2000/svg" xmlns:xlink="http://www.w3.org/1999/xlink" version="1.1" class="marks" width="818" height="303" viewBox="0 0 818 303" style="background-color: rgb(255, 255, 255);"><g fill="none" stroke-miterlimit="10" transform="translate(20,65)"><g class="mark-group role-frame root" role="graphics-object" aria-roledescription="group mark container"><g transform="translate(0,0)"><path class="background" aria-hidden="true" d="M0.5,0.5h793v200h-793Z" fill="transparent" stroke="#ddd"></path><g><g class="mark-group role-axis" aria-hidden="true"><g transform="translate(0.5,200.5)"><path class="background" aria-hidden="true" d="M0,0h0v0h0Z" pointer-events="none"></path><g><g class="mark-rule role-axis-grid" pointer-events="none"><line transform="translate(79,-200)" x2="0" y2="200" stroke="#D0D0D0" stroke-width="1" stroke-dasharray="1,0" opacity="1"></line><line transform="translate(238,-200)" x2="0" y2="200" stroke="#D0D0D0" stroke-width="1" stroke-dasharray="1,0" opacity="1"></line><line transform="translate(397,-200)" x2="0" y2="200" stroke="#D0D0D0" stroke-width="1" stroke-dasharray="1,0" opacity="1"></line><line transform="translate(555,-200)" x2="0" y2="200" stroke="#D0D0D0" stroke-width="1" stroke-dasharray="1,0" opacity="1"></line><line transform="translate(714,-200)" x2="0" y2="200" stroke="#D0D0D0" stroke-width="1" stroke-dasharray="1,0" opacity="1"></line></g></g><path class="foreground" aria-hidden="true" d="" pointer-events="none" display="none"></path></g></g><g class="mark-group role-axis" role="graphics-symbol" aria-roledescription="axis" aria-label="X-axis for a discrete scale with 5 values: Jan, Feb, Mar, Apr, May"><g transform="translate(0.5,200.5)"><path class="background" aria-hidden="true" d="M0,0h0v0h0Z" pointer-events="none"></path><g><g class="mark-rule role-axis-tick" pointer-events="none"><line transform="translate(79,0)" x2="0" y2="5" stroke="#888" stroke-width="1" opacity="1"></line><line transform="translate(238,0)" x2="0" y2="5" stroke="#888" stroke-width="1" opacity="1"></line><line transform="translate(397,0)" x2="0" y2="5" stroke="#888" stroke-width="1" opacity="1"></line><line transform="translate(555,0)" x2="0" y2="5" stroke="#888" stroke-width="1" opacity="1"></line><line transform="translate(714,0)" x2="0" y2="5" stroke="#888" stroke-width="1" opacity="1"></line></g><g class="mark-text role-axis-label" pointer-events="none"><text text-anchor="start" transform="translate(79.30000000000001,7) rotate(90) translate(0,4)" font-family="serif" font-size="13px" font-weight="bold" fill="#000" opacity="1">Jan</text><text text-anchor="start" transform="translate(237.9,7) rotate(90) translate(0,4)" font-family="serif" font-size="13px" font-weight="bold" fill="#000" opacity="1">Feb</text><text text-anchor="start" transform="translate(396.5,7) rotate(90) translate(0,4)" font-family="serif" font-size="13px" font-weight="bold" fill="#000" opacity="1">Mar</text><text text-anchor="start" transform="translate(555.0999999999999,7) rotate(90) translate(0,4)" font-family="serif" font-size="13px" font-weight="bold" fill="#000" opacity="1">Apr</text><text text-anchor="start" transform="translate(713.7,7) rotate(90) translate(0,4)" font-family="serif" font-size="13px" font-weight="bold" fill="#000" opacity="1">May</text></g><g class="mark-rule role-axis-domain" pointer-events="none"><line transform="translate(0,0)" x2="793" y2="0" stroke="#888" stroke-width="1" opacity="1"></line></g></g><path class="foreground" aria-hidden="true" d="" pointer-events="none" display="none"></path></g></g><g class="mark-group role-axis" role="graphics-symbol" aria-roledescription="axis" aria-label="Y-axis for a linear scale with values from 0 to 240"><g transform="translate(0.5,0.5)"><path class="background" aria-hidden="true" d="M0,0h0v0h0Z" pointer-events="none"></path><g><g class="mark-text role-axis-label" pointer-events="none"><text text-anchor="middle" transform="translate(-2,200) rotate(90) translate(0,10)" font-family="serif" font-size="13px" font-weight="bold" fill="#000" opacity="1">0</text><text text-anchor="middle" transform="translate(-2,158.33333333333331) rotate(90) translate(0,10)" font-family="serif" font-size="13px" font-weight="bold" fill="#000" opacity="1">50</text><text text-anchor="middle" transform="translate(-2,116.66666666666666) rotate(90) translate(0,10)" font-family="serif" font-size="13px" font-weight="bold" fill="#000" opacity="1">100</text><text text-anchor="middle" transform="translate(-2,75) rotate(90) translate(0,10)" font-family="serif" font-size="13px" font-weight="bold" fill="#000" opacity="1">150</text><text text-anchor="middle" transform="translate(-2,33.33333333333333) rotate(90) translate(0,10)" font-family="serif" font-size="13px" font-weight="bold" fill="#000" opacity="1">200</text></g><g class="mark-rule role-axis-domain" pointer-events="none"><line transform="translate(0,200)" x2="0" y2="-200" stroke="#888" stroke-width="1" opacity="1"></line></g></g><path class="foreground" aria-hidden="true" d="" pointer-events="none" display="none"></path></g></g><g class="mark-group role-scope layer_0_pathgroup" role="graphics-object" aria-roledescription="group mark container"><g transform="translate(0,0)"><path class="background" aria-hidden="true" d="M0,0h793v200h-793Z"></path><g><g class="mark-line role-mark layer_0_marks" role="graphics-object" aria-roledescription="line mark container"><path aria-label="Month: Jan; Dong connecting: 192; Vista Division whoa: virus Illinois Illinois" role="graphics-symbol" aria-roledescription="line mark" d="M79.30000000000001,39.99999999999999C132.16666666666666,35.59523809523808,185.0333333333333,31.190476190476176,237.9,52.49999999999999C290.7666666666667,73.80952380952381,343.6333333333334,120.83333333333333,396.5,112.5C449.3666666666666,104.16666666666667,502.23333333333323,40.47619047619048,555.0999999999999,36.66666666666667C607.9666666666666,32.85714285714286,660.8333333333333,88.92857142857143,713.7,145" stroke="#bb63fa" stroke-width="2" stroke-dasharray="1,0"></path></g></g><path class="foreground" aria-hidden="true" d="" display="none"></path></g><g transform="translate(0,0)"><path class="background" aria-hidden="true" d="M0,0h793v200h-793Z"></path><g><g class="mark-line role-mark layer_0_marks" role="graphics-object" aria-roledescription="line mark container"><path aria-label="Month: Jan; Dong connecting: 35; Vista Division whoa: Customer Bentley" role="graphics-symbol" aria-roledescription="line mark" d="M79.30000000000001,170.83333333333331C132.16666666666666,88.49206349206348,185.0333333333333,6.1507936507936245,237.9,6.666666666666665C290.7666666666667,7.182539682539706,343.6333333333334,90.5555555555556,396.5,123.33333333333334C449.3666666666666,156.1111111111111,502.23333333333323,138.29365079365078,555.0999999999999,113.33333333333333C607.9666666666666,88.37301587301586,660.8333333333333,56.269841269841265,713.7,24.16666666666667" stroke="#ff4297" stroke-width="2" stroke-dasharray="1,0"></path></g></g><path class="foreground" aria-hidden="true" d="" display="none"></path></g></g><g class="mark-symbol role-mark layer_1_marks" role="graphics-object" aria-roledescription="symbol mark container"><path aria-label="Month: Jan; Dong connecting: 192; Vista Division whoa: virus Illinois Illinois" role="graphics-symbol" aria-roledescription="point" transform="translate(79.30000000000001,39.99999999999999)" d="M2.7386127875258306,0A2.7386127875258306,2.7386127875258306,0,1,1,-2.7386127875258306,0A2.7386127875258306,2.7386127875258306,0,1,1,2.7386127875258306,0" fill="#fff" stroke="#bb63fa" stroke-width="2" opacity="1"></path><path aria-label="Month: Feb; Dong connecting: 177; Vista Division whoa: virus Illinois Illinois" role="graphics-symbol" aria-roledescription="point" transform="translate(237.9,52.49999999999999)" d="M2.7386127875258306,0A2.7386127875258306,2.7386127875258306,0,1,1,-2.7386127875258306,0A2.7386127875258306,2.7386127875258306,0,1,1,2.7386127875258306,0" fill="#fff" stroke="#bb63fa" stroke-width="2" opacity="1"></path><path aria-label="Month: Mar; Dong connecting: 105; Vista Division whoa: virus Illinois Illinois" role="graphics-symbol" aria-roledescription="point" transform="translate(396.5,112.5)" d="M2.7386127875258306,0A2.7386127875258306,2.7386127875258306,0,1,1,-2.7386127875258306,0A2.7386127875258306,2.7386127875258306,0,1,1,2.7386127875258306,0" fill="#fff" stroke="#bb63fa" stroke-width="2" opacity="1"></path><path aria-label="Month: Apr; Dong connecting: 196; Vista Division whoa: virus Illinois Illinois" role="graphics-symbol" aria-roledescription="point" transform="translate(555.0999999999999,36.66666666666667)" d="M2.7386127875258306,0A2.7386127875258306,2.7386127875258306,0,1,1,-2.7386127875258306,0A2.7386127875258306,2.7386127875258306,0,1,1,2.7386127875258306,0" fill="#fff" stroke="#bb63fa" stroke-width="2" opacity="1"></path><path aria-label="Month: May; Dong connecting: 66; Vista Division whoa: virus Illinois Illinois" role="graphics-symbol" aria-roledescription="point" transform="translate(713.7,145)" d="M2.7386127875258306,0A2.7386127875258306,2.7386127875258306,0,1,1,-2.7386127875258306,0A2.7386127875258306,2.7386127875258306,0,1,1,2.7386127875258306,0" fill="#fff" stroke="#bb63fa" stroke-width="2" opacity="1"></path><path aria-label="Month: Jan; Dong connecting: 35; Vista Division whoa: Customer Bentley" role="graphics-symbol" aria-roledescription="point" transform="translate(79.30000000000001,170.83333333333331)" d="M2.7386127875258306,0A2.7386127875258306,2.7386127875258306,0,1,1,-2.7386127875258306,0A2.7386127875258306,2.7386127875258306,0,1,1,2.7386127875258306,0" fill="#fff" stroke="#ff4297" stroke-width="2" opacity="1"></path><path aria-label="Month: Feb; Dong connecting: 232; Vista Division whoa: Customer Bentley" role="graphics-symbol" aria-roledescription="point" transform="translate(237.9,6.666666666666665)" d="M2.7386127875258306,0A2.7386127875258306,2.7386127875258306,0,1,1,-2.7386127875258306,0A2.7386127875258306,2.7386127875258306,0,1,1,2.7386127875258306,0" fill="#fff" stroke="#ff4297" stroke-width="2" opacity="1"></path><path aria-label="Month: Mar; Dong connecting: 92; Vista Division whoa: Customer Bentley" role="graphics-symbol" aria-roledescription="point" transform="translate(396.5,123.33333333333334)" d="M2.7386127875258306,0A2.7386127875258306,2.7386127875258306,0,1,1,-2.7386127875258306,0A2.7386127875258306,2.7386127875258306,0,1,1,2.7386127875258306,0" fill="#fff" stroke="#ff4297" stroke-width="2" opacity="1"></path><path aria-label="Month: Apr; Dong connecting: 104; Vista Division whoa: Customer Bentley" role="graphics-symbol" aria-roledescription="point" transform="translate(555.0999999999999,113.33333333333333)" d="M2.7386127875258306,0A2.7386127875258306,2.7386127875258306,0,1,1,-2.7386127875258306,0A2.7386127875258306,2.7386127875258306,0,1,1,2.7386127875258306,0" fill="#fff" stroke="#ff4297" stroke-width="2" opacity="1"></path><path aria-label="Month: May; Dong connecting: 211; Vista Division whoa: Customer Bentley" role="graphics-symbol" aria-roledescription="point" transform="translate(713.7,24.16666666666667)" d="M2.7386127875258306,0A2.7386127875258306,2.7386127875258306,0,1,1,-2.7386127875258306,0A2.7386127875258306,2.7386127875258306,0,1,1,2.7386127875258306,0" fill="#fff" stroke="#ff4297" stroke-width="2" opacity="1"></path></g><g class="mark-text role-mark layer_2_marks" role="graphics-object" aria-roledescription="text mark container"><text aria-label="Month: Jan; Dong connecting: 192" role="graphics-symbol" aria-roledescription="text mark" text-anchor="middle" transform="translate(79.30000000000001,59.99999999999999)" font-family="serif" font-size="17px" fill="#000" opacity="1">192</text><text aria-label="Month: Feb; Dong connecting: 177" role="graphics-symbol" aria-roledescription="text mark" text-anchor="middle" transform="translate(237.9,72.5)" font-family="serif" font-size="17px" fill="#000" opacity="1">177</text><text aria-label="Month: Mar; Dong connecting: 105" role="graphics-symbol" aria-roledescription="text mark" text-anchor="middle" transform="translate(396.5,132.5)" font-family="serif" font-size="17px" fill="#000" opacity="1">105</text><text aria-label="Month: Apr; Dong connecting: 196" role="graphics-symbol" aria-roledescription="text mark" text-anchor="middle" transform="translate(555.0999999999999,56.66666666666667)" font-family="serif" font-size="17px" fill="#000" opacity="1">196</text><text aria-label="Month: May; Dong connecting: 66" role="graphics-symbol" aria-roledescription="text mark" text-anchor="middle" transform="translate(713.7,165)" font-family="serif" font-size="17px" fill="#000" opacity="1">66</text><text aria-label="Month: Jan; Dong connecting: 35" role="graphics-symbol" aria-roledescription="text mark" text-anchor="middle" transform="translate(79.30000000000001,190.83333333333331)" font-family="serif" font-size="17px" fill="#000" opacity="1">35</text><text aria-label="Month: Feb; Dong connecting: 232" role="graphics-symbol" aria-roledescription="text mark" text-anchor="middle" transform="translate(237.9,26.666666666666664)" font-family="serif" font-size="17px" fill="#000" opacity="1">232</text><text aria-label="Month: Mar; Dong connecting: 92" role="graphics-symbol" aria-roledescription="text mark" text-anchor="middle" transform="translate(396.5,143.33333333333334)" font-family="serif" font-size="17px" fill="#000" opacity="1">92</text><text aria-label="Month: Apr; Dong connecting: 104" role="graphics-symbol" aria-roledescription="text mark" text-anchor="middle" transform="translate(555.0999999999999,133.33333333333331)" font-family="serif" font-size="17px" fill="#000" opacity="1">104</text><text aria-label="Month: May; Dong connecting: 211" role="graphics-symbol" aria-roledescription="text mark" text-anchor="middle" transform="translate(713.7,44.16666666666667)" font-family="serif" font-size="17px" fill="#000" opacity="1">211</text></g><g class="mark-group role-legend" role="graphics-symbol" aria-roledescription="legend" aria-label="Symbol legend for stroke color with 2 values: virus Illinois Illinois, Customer Bentley"><g transform="translate(0,-31)"><path class="background" aria-hidden="true" d="M0,0h198v13h-198Z" pointer-events="none"></path><g><g class="mark-group role-legend-entry"><g transform="translate(0,0)"><path class="background" aria-hidden="true" d="M0,0h0v0h0Z" pointer-events="none"></path><g><g class="mark-group role-scope" role="graphics-object" aria-roledescription="group mark container"><g transform="translate(0,0.25)"><path class="background" aria-hidden="true" d="M0,0h97.669921875v12.5h-97.669921875Z" pointer-events="none" opacity="1"></path><g><g class="mark-symbol role-legend-symbol" pointer-events="none"><path transform="translate(6,6)" d="M5,0A5,5,0,1,1,-5,0A5,5,0,1,1,5,0" fill="#fff" stroke="#bb63fa" stroke-width="1.5" opacity="1"></path></g><g class="mark-text role-legend-label" pointer-events="none"><text text-anchor="start" transform="translate(16,9)" font-family="serif" font-size="10px" fill="#000" opacity="1">virus Illinois Illinois</text></g></g><path class="foreground" aria-hidden="true" d="" pointer-events="none" display="none"></path></g><g transform="translate(109,0.25)"><path class="background" aria-hidden="true" d="M0,0h88.490234375v12.5h-88.490234375Z" pointer-events="none" opacity="1"></path><g><g class="mark-symbol role-legend-symbol" pointer-events="none"><path transform="translate(6,6)" d="M5,0A5,5,0,1,1,-5,0A5,5,0,1,1,5,0" fill="#fff" stroke="#ff4297" stroke-width="1.5" opacity="1"></path></g><g class="mark-text role-legend-label" pointer-events="none"><text text-anchor="start" transform="translate(16,9)" font-family="serif" font-size="10px" fill="#000" opacity="1">Customer Bentley</text></g></g><path class="foreground" aria-hidden="true" d="" pointer-events="none" display="none"></path></g></g></g><path class="foreground" aria-hidden="true" d="" pointer-events="none" display="none"></path></g></g></g><path class="foreground" aria-hidden="true" d="" pointer-events="none" display="none"></path></g></g><g class="mark-group role-title"><g transform="translate(396.5,-60)"><path class="background" aria-hidden="true" d="M0,0h0v0h0Z" pointer-events="none"></path><g><g class="mark-text role-title-text" role="graphics-symbol" aria-roledescription="title" aria-label="Title text 'Palestinian Passenger Borders'" pointer-events="none"><text text-anchor="middle" transform="translate(0,20)" font-family="serif" font-size="25px" font-weight="bold" fill="#000" opacity="1">Palestinian Passenger Borders</text></g></g><path class="foreground" aria-hidden="true" d="" pointer-events="none" display="none"></path></g></g></g><path class="foreground" aria-hidden="true" d="" display="none"></path></g></g></g></svg>