<svg xmlns="http://www.w3.org/2000/svg" xmlns:xlink="http://www.w3.org/1999/xlink" version="1.1" class="marks" width="893" height="277" viewBox="0 0 893 277" style="background-color: rgb(255, 255, 255);"><g fill="none" stroke-miterlimit="10" transform="translate(27,35)"><g class="mark-group role-frame root" role="graphics-object" aria-roledescription="group mark container"><g transform="translate(0,0)"><path class="background" aria-hidden="true" d="M0.5,0.5h861v200h-861Z" fill="transparent" stroke="#ddd"></path><g><g class="mark-group role-axis" aria-hidden="true"><g transform="translate(0.5,200.5)"><path class="background" aria-hidden="true" d="M0,0h0v0h0Z" pointer-events="none"></path><g><g class="mark-rule role-axis-grid" pointer-events="none"><line transform="translate(62,-200)" x2="0" y2="200" stroke="#D0D0D0" stroke-width="1" stroke-dasharray="6, 3" opacity="1"></line><line transform="translate(185,-200)" x2="0" y2="200" stroke="#D0D0D0" stroke-width="1" stroke-dasharray="6, 3" opacity="1"></line><line transform="translate(308,-200)" x2="0" y2="200" stroke="#D0D0D0" stroke-width="1" stroke-dasharray="6, 3" opacity="1"></line><line transform="translate(431,-200)" x2="0" y2="200" stroke="#D0D0D0" stroke-width="1" stroke-dasharray="6, 3" opacity="1"></line><line transform="translate(554,-200)" x2="0" y2="200" stroke="#D0D0D0" stroke-width="1" stroke-dasharray="6, 3" opacity="1"></line><line transform="translate(677,-200)" x2="0" y2="200" stroke="#D0D0D0" stroke-width="1" stroke-dasharray="6, 3" opacity="1"></line><line transform="translate(800,-200)" x2="0" y2="200" stroke="#D0D0D0" stroke-width="1" stroke-dasharray="6, 3" opacity="1"></line></g></g><path class="foreground" aria-hidden="true" d="" pointer-events="none" display="none"></path></g></g><g class="mark-group role-axis" aria-hidden="true"><g transform="translate(0.5,0.5)"><path class="background" aria-hidden="true" d="M0,0h0v0h0Z" pointer-events="none"></path><g><g class="mark-rule role-axis-grid" pointer-events="none"><line transform="translate(0,200)" x2="861" y2="0" stroke="#D0D0D0" stroke-width="1" stroke-dasharray="6, 3" opacity="1"></line><line transform="translate(0,169)" x2="861" y2="0" stroke="#D0D0D0" stroke-width="1" stroke-dasharray="6, 3" opacity="1"></line><line transform="translate(0,138)" x2="861" y2="0" stroke="#D0D0D0" stroke-width="1" stroke-dasharray="6, 3" opacity="1"></line><line transform="translate(0,108)" x2="861" y2="0" stroke="#D0D0D0" stroke-width="1" stroke-dasharray="6, 3" opacity="1"></line><line transform="translate(0,77)" x2="861" y2="0" stroke="#D0D0D0" stroke-width="1" stroke-dasharray="6, 3" opacity="1"></line><line transform="translate(0,46)" x2="861" y2="0" stroke="#D0D0D0" stroke-width="1" stroke-dasharray="6, 3" opacity="1"></line><line transform="translate(0,15)" x2="861" y2="0" stroke="#D0D0D0" stroke-width="1" stroke-dasharray="6, 3" opacity="1"></line></g></g><path class="foreground" aria-hidden="true" d="" pointer-events="none" display="none"></path></g></g><g class="mark-group role-axis" role="graphics-symbol" aria-roledescription="axis" aria-label="X-axis for a discrete scale with 7 values: 1778, 1779, 1780, 1781, 1782, 1783, 1784"><g transform="translate(0.5,200.5)"><path class="background" aria-hidden="true" d="M0,0h0v0h0Z" pointer-events="none"></path><g><g class="mark-rule role-axis-tick" pointer-events="none"><line transform="translate(62,0)" x2="0" y2="5" stroke="#888" stroke-width="1" opacity="1"></line><line transform="translate(185,0)" x2="0" y2="5" stroke="#888" stroke-width="1" opacity="1"></line><line transform="translate(308,0)" x2="0" y2="5" stroke="#888" stroke-width="1" opacity="1"></line><line transform="translate(431,0)" x2="0" y2="5" stroke="#888" stroke-width="1" opacity="1"></line><line transform="translate(554,0)" x2="0" y2="5" stroke="#888" stroke-width="1" opacity="1"></line><line transform="translate(677,0)" x2="0" y2="5" stroke="#888" stroke-width="1" opacity="1"></line><line transform="translate(800,0)" x2="0" y2="5" stroke="#888" stroke-width="1" opacity="1"></line></g><g class="mark-text role-axis-label" pointer-events="none"><text text-anchor="start" transform="translate(61.5,7) rotate(90) translate(0,5)" font-family="avenir" font-size="15px" font-weight="bold" fill="#000" opacity="1">1778</text><text text-anchor="start" transform="translate(184.5,7) rotate(90) translate(0,5)" font-family="avenir" font-size="15px" font-weight="bold" fill="#000" opacity="1">1779</text><text text-anchor="start" transform="translate(307.5,7) rotate(90) translate(0,5)" font-family="avenir" font-size="15px" font-weight="bold" fill="#000" opacity="1">1780</text><text text-anchor="start" transform="translate(430.5,7) rotate(90) translate(0,5)" font-family="avenir" font-size="15px" font-weight="bold" fill="#000" opacity="1">1781</text><text text-anchor="start" transform="translate(553.5,7) rotate(90) translate(0,5)" font-family="avenir" font-size="15px" font-weight="bold" fill="#000" opacity="1">1782</text><text text-anchor="start" transform="translate(676.5,7) rotate(90) translate(0,5)" font-family="avenir" font-size="15px" font-weight="bold" fill="#000" opacity="1">1783</text><text text-anchor="start" transform="translate(799.5,7) rotate(90) translate(0,5)" font-family="avenir" font-size="15px" font-weight="bold" fill="#000" opacity="1">1784</text></g><g class="mark-rule role-axis-domain" pointer-events="none"><line transform="translate(0,0)" x2="861" y2="0" stroke="#888" stroke-width="1" opacity="1"></line></g></g><path class="foreground" aria-hidden="true" d="" pointer-events="none" display="none"></path></g></g><g class="mark-group role-axis" role="graphics-symbol" aria-roledescription="axis" aria-label="Y-axis for a linear scale with values from 0 to 650"><g transform="translate(0.5,0.5)"><path class="background" aria-hidden="true" d="M0,0h0v0h0Z" pointer-events="none"></path><g><g class="mark-rule role-axis-tick" pointer-events="none"><line transform="translate(0,200)" x2="-5" y2="0" stroke="#888" stroke-width="1" opacity="1"></line><line transform="translate(0,169)" x2="-5" y2="0" stroke="#888" stroke-width="1" opacity="1"></line><line transform="translate(0,138)" x2="-5" y2="0" stroke="#888" stroke-width="1" opacity="1"></line><line transform="translate(0,108)" x2="-5" y2="0" stroke="#888" stroke-width="1" opacity="1"></line><line transform="translate(0,77)" x2="-5" y2="0" stroke="#888" stroke-width="1" opacity="1"></line><line transform="translate(0,46)" x2="-5" y2="0" stroke="#888" stroke-width="1" opacity="1"></line><line transform="translate(0,15)" x2="-5" y2="0" stroke="#888" stroke-width="1" opacity="1"></line></g><g class="mark-text role-axis-label" pointer-events="none"><text text-anchor="middle" transform="translate(-7,200) rotate(90) translate(0,12)" font-family="avenir" font-size="15px" font-weight="bold" fill="#000" opacity="1">0</text><text text-anchor="middle" transform="translate(-7,169.23076923076923) rotate(90) translate(0,12)" font-family="avenir" font-size="15px" font-weight="bold" fill="#000" opacity="1">100</text><text text-anchor="middle" transform="translate(-7,138.46153846153845) rotate(90) translate(0,12)" font-family="avenir" font-size="15px" font-weight="bold" fill="#000" opacity="1">200</text><text text-anchor="middle" transform="translate(-7,107.6923076923077) rotate(90) translate(0,12)" font-family="avenir" font-size="15px" font-weight="bold" fill="#000" opacity="1">300</text><text text-anchor="middle" transform="translate(-7,76.92307692307692) rotate(90) translate(0,12)" font-family="avenir" font-size="15px" font-weight="bold" fill="#000" opacity="1">400</text><text text-anchor="middle" transform="translate(-7,46.153846153846146) rotate(90) translate(0,12)" font-family="avenir" font-size="15px" font-weight="bold" fill="#000" opacity="1">500</text><text text-anchor="middle" transform="translate(-7,15.384615384615374) rotate(90) translate(0,12)" font-family="avenir" font-size="15px" font-weight="bold" fill="#000" opacity="1">600</text></g><g class="mark-rule role-axis-domain" pointer-events="none"><line transform="translate(0,200)" x2="0" y2="-200" stroke="#888" stroke-width="1" opacity="1"></line></g></g><path class="foreground" aria-hidden="true" d="" pointer-events="none" display="none"></path></g></g><g class="mark-group role-scope layer_0_pathgroup" role="graphics-object" aria-roledescription="group mark container"><g transform="translate(0,0)"><path class="background" aria-hidden="true" d="M0,0h861v200h-861Z"></path><g><g class="mark-line role-mark layer_0_marks" role="graphics-object" aria-roledescription="line mark container"><path aria-label="Year: 1778; Interface Southeast: 344; surprisingly anger Jewelery: Larson Osmium" role="graphics-symbol" aria-roledescription="line mark" d="M61.5,94.15384615384615L184.5,29.538461538461537L307.5,28.61538461538462L430.5,91.38461538461537L553.5,5.230769230769239L676.5,12.923076923076927L799.5,157.84615384615384" stroke="#aea4cd" stroke-width="2" stroke-dasharray="1,0"></path></g></g><path class="foreground" aria-hidden="true" d="" display="none"></path></g></g><g class="mark-symbol role-mark layer_1_marks" role="graphics-object" aria-roledescription="symbol mark container"><path aria-label="Year: 1778; Interface Southeast: 344; surprisingly anger Jewelery: Larson Osmium" role="graphics-symbol" aria-roledescription="point" transform="translate(61.5,94.15384615384615)" d="M2.7386127875258306,0A2.7386127875258306,2.7386127875258306,0,1,1,-2.7386127875258306,0A2.7386127875258306,2.7386127875258306,0,1,1,2.7386127875258306,0" fill="#fff" stroke="#aea4cd" stroke-width="3" opacity="1"></path><path aria-label="Year: 1779; Interface Southeast: 554; surprisingly anger Jewelery: Larson Osmium" role="graphics-symbol" aria-roledescription="point" transform="translate(184.5,29.538461538461537)" d="M2.7386127875258306,0A2.7386127875258306,2.7386127875258306,0,1,1,-2.7386127875258306,0A2.7386127875258306,2.7386127875258306,0,1,1,2.7386127875258306,0" fill="#fff" stroke="#aea4cd" stroke-width="3" opacity="1"></path><path aria-label="Year: 1780; Interface Southeast: 557; surprisingly anger Jewelery: Larson Osmium" role="graphics-symbol" aria-roledescription="point" transform="translate(307.5,28.61538461538462)" d="M2.7386127875258306,0A2.7386127875258306,2.7386127875258306,0,1,1,-2.7386127875258306,0A2.7386127875258306,2.7386127875258306,0,1,1,2.7386127875258306,0" fill="#fff" stroke="#aea4cd" stroke-width="3" opacity="1"></path><path aria-label="Year: 1781; Interface Southeast: 353; surprisingly anger Jewelery: Larson Osmium" role="graphics-symbol" aria-roledescription="point" transform="translate(430.5,91.38461538461537)" d="M2.7386127875258306,0A2.7386127875258306,2.7386127875258306,0,1,1,-2.7386127875258306,0A2.7386127875258306,2.7386127875258306,0,1,1,2.7386127875258306,0" fill="#fff" stroke="#aea4cd" stroke-width="3" opacity="1"></path><path aria-label="Year: 1782; Interface Southeast: 633; surprisingly anger Jewelery: Larson Osmium" role="graphics-symbol" aria-roledescription="point" transform="translate(553.5,5.230769230769239)" d="M2.7386127875258306,0A2.7386127875258306,2.7386127875258306,0,1,1,-2.7386127875258306,0A2.7386127875258306,2.7386127875258306,0,1,1,2.7386127875258306,0" fill="#fff" stroke="#aea4cd" stroke-width="3" opacity="1"></path><path aria-label="Year: 1783; Interface Southeast: 608; surprisingly anger Jewelery: Larson Osmium" role="graphics-symbol" aria-roledescription="point" transform="translate(676.5,12.923076923076927)" d="M2.7386127875258306,0A2.7386127875258306,2.7386127875258306,0,1,1,-2.7386127875258306,0A2.7386127875258306,2.7386127875258306,0,1,1,2.7386127875258306,0" fill="#fff" stroke="#aea4cd" stroke-width="3" opacity="1"></path><path aria-label="Year: 1784; Interface Southeast: 137; surprisingly anger Jewelery: Larson Osmium" role="graphics-symbol" aria-roledescription="point" transform="translate(799.5,157.84615384615384)" d="M2.7386127875258306,0A2.7386127875258306,2.7386127875258306,0,1,1,-2.7386127875258306,0A2.7386127875258306,2.7386127875258306,0,1,1,2.7386127875258306,0" fill="#fff" stroke="#aea4cd" stroke-width="3" opacity="1"></path></g><g class="mark-text role-mark layer_2_marks" role="graphics-object" aria-roledescription="text mark container"><text aria-label="Year: 1778; Interface Southeast: 344" role="graphics-symbol" aria-roledescription="text mark" text-anchor="middle" transform="translate(61.5,124.15384615384615)" font-family="avenir" font-size="15px" fill="#000" opacity="1">344</text><text aria-label="Year: 1779; Interface Southeast: 554" role="graphics-symbol" aria-roledescription="text mark" text-anchor="middle" transform="translate(184.5,59.53846153846153)" font-family="avenir" font-size="15px" fill="#000" opacity="1">554</text><text aria-label="Year: 1780; Interface Southeast: 557" role="graphics-symbol" aria-roledescription="text mark" text-anchor="middle" transform="translate(307.5,58.61538461538462)" font-family="avenir" font-size="15px" fill="#000" opacity="1">557</text><text aria-label="Year: 1781; Interface Southeast: 353" role="graphics-symbol" aria-roledescription="text mark" text-anchor="middle" transform="translate(430.5,121.38461538461537)" font-family="avenir" font-size="15px" fill="#000" opacity="1">353</text><text aria-label="Year: 1782; Interface Southeast: 633" role="graphics-symbol" aria-roledescription="text mark" text-anchor="middle" transform="translate(553.5,35.23076923076924)" font-family="avenir" font-size="15px" fill="#000" opacity="1">633</text><text aria-label="Year: 1783; Interface Southeast: 608" role="graphics-symbol" aria-roledescription="text mark" text-anchor="middle" transform="translate(676.5,42.92307692307693)" font-family="avenir" font-size="15px" fill="#000" opacity="1">608</text><text aria-label="Year: 1784; Interface Southeast: 137" role="graphics-symbol" aria-roledescription="text mark" text-anchor="middle" transform="translate(799.5,187.84615384615384)" font-family="avenir" font-size="15px" fill="#000" opacity="1">137</text></g><g class="mark-group role-title"><g transform="translate(861,-29.50784355675659)"><path class="background" aria-hidden="true" d="M0,0h0v0h0Z" pointer-events="none"></path><g><g class="mark-text role-title-text" role="graphics-symbol" aria-roledescription="title" aria-label="Title text 'Rick'" pointer-events="none"><text text-anchor="end" transform="translate(0,20)" font-family="avenir" font-size="25px" font-weight="bold" fill="#000" opacity="1">Rick</text></g></g><path class="foreground" aria-hidden="true" d="" pointer-events="none" display="none"></path></g></g></g><path class="foreground" aria-hidden="true" d="" display="none"></path></g></g></g></svg>