<svg xmlns="http://www.w3.org/2000/svg" xmlns:xlink="http://www.w3.org/1999/xlink" version="1.1" class="marks" width="997" height="265" viewBox="0 0 997 265" style="background-color: rgb(51, 51, 51);"><g fill="none" stroke-miterlimit="10" transform="translate(38,37)"><g class="mark-group role-frame root" role="graphics-object" aria-roledescription="group mark container"><g transform="translate(0,0)"><path class="background" aria-hidden="true" d="M0.5,0.5h954v200h-954Z" fill="transparent" stroke="#ddd"></path><g><g class="mark-group role-axis" aria-hidden="true"><g transform="translate(0.5,200.5)"><path class="background" aria-hidden="true" d="M0,0h0v0h0Z" pointer-events="none"></path><g><g class="mark-rule role-axis-grid" pointer-events="none"><line transform="translate(68,-200)" x2="0" y2="200" stroke="#747474" stroke-width="1" stroke-dasharray="1,0" opacity="1"></line><line transform="translate(204,-200)" x2="0" y2="200" stroke="#747474" stroke-width="1" stroke-dasharray="1,0" opacity="1"></line><line transform="translate(341,-200)" x2="0" y2="200" stroke="#747474" stroke-width="1" stroke-dasharray="1,0" opacity="1"></line><line transform="translate(477,-200)" x2="0" y2="200" stroke="#747474" stroke-width="1" stroke-dasharray="1,0" opacity="1"></line><line transform="translate(613,-200)" x2="0" y2="200" stroke="#747474" stroke-width="1" stroke-dasharray="1,0" opacity="1"></line><line transform="translate(750,-200)" x2="0" y2="200" stroke="#747474" stroke-width="1" stroke-dasharray="1,0" opacity="1"></line><line transform="translate(886,-200)" x2="0" y2="200" stroke="#747474" stroke-width="1" stroke-dasharray="1,0" opacity="1"></line></g></g><path class="foreground" aria-hidden="true" d="" pointer-events="none" display="none"></path></g></g><g class="mark-group role-axis" role="graphics-symbol" aria-roledescription="axis" aria-label="X-axis for a discrete scale with 7 values: 1961, 1962, 1963, 1964, 1965, 1966, 1967"><g transform="translate(0.5,200.5)"><path class="background" aria-hidden="true" d="M0,0h0v0h0Z" pointer-events="none"></path><g><g class="mark-rule role-axis-tick" pointer-events="none"><line transform="translate(68,0)" x2="0" y2="5" stroke="#888" stroke-width="1" opacity="1"></line><line transform="translate(204,0)" x2="0" y2="5" stroke="#888" stroke-width="1" opacity="1"></line><line transform="translate(341,0)" x2="0" y2="5" stroke="#888" stroke-width="1" opacity="1"></line><line transform="translate(477,0)" x2="0" y2="5" stroke="#888" stroke-width="1" opacity="1"></line><line transform="translate(613,0)" x2="0" y2="5" stroke="#888" stroke-width="1" opacity="1"></line><line transform="translate(750,0)" x2="0" y2="5" stroke="#888" stroke-width="1" opacity="1"></line><line transform="translate(886,0)" x2="0" y2="5" stroke="#888" stroke-width="1" opacity="1"></line></g><g class="mark-text role-axis-label" pointer-events="none"><text text-anchor="middle" transform="translate(68.14285714285717,20)" font-family="serif" font-size="17px" font-weight="bold" fill="#fff" opacity="1">1961</text><text text-anchor="middle" transform="translate(204.42857142857144,20)" font-family="serif" font-size="17px" font-weight="bold" fill="#fff" opacity="1">1962</text><text text-anchor="middle" transform="translate(340.7142857142857,20)" font-family="serif" font-size="17px" font-weight="bold" fill="#fff" opacity="1">1963</text><text text-anchor="middle" transform="translate(477,20)" font-family="serif" font-size="17px" font-weight="bold" fill="#fff" opacity="1">1964</text><text text-anchor="middle" transform="translate(613.2857142857142,20)" font-family="serif" font-size="17px" font-weight="bold" fill="#fff" opacity="1">1965</text><text text-anchor="middle" transform="translate(749.5714285714284,20)" font-family="serif" font-size="17px" font-weight="bold" fill="#fff" opacity="1">1966</text><text text-anchor="middle" transform="translate(885.8571428571429,20)" font-family="serif" font-size="17px" font-weight="bold" fill="#fff" opacity="1">1967</text></g><g class="mark-rule role-axis-domain" pointer-events="none"><line transform="translate(0,0)" x2="954" y2="0" stroke="#888" stroke-width="1" opacity="1"></line></g></g><path class="foreground" aria-hidden="true" d="" pointer-events="none" display="none"></path></g></g><g class="mark-group role-axis" role="graphics-symbol" aria-roledescription="axis" aria-label="Y-axis for a linear scale with values from 0 to 220"><g transform="translate(0.5,0.5)"><path class="background" aria-hidden="true" d="M0,0h0v0h0Z" pointer-events="none"></path><g><g class="mark-rule role-axis-tick" pointer-events="none"><line transform="translate(0,200)" x2="-5" y2="0" stroke="#888" stroke-width="1" opacity="1"></line><line transform="translate(0,155)" x2="-5" y2="0" stroke="#888" stroke-width="1" opacity="1"></line><line transform="translate(0,109)" x2="-5" y2="0" stroke="#888" stroke-width="1" opacity="1"></line><line transform="translate(0,64)" x2="-5" y2="0" stroke="#888" stroke-width="1" opacity="1"></line><line transform="translate(0,18)" x2="-5" y2="0" stroke="#888" stroke-width="1" opacity="1"></line></g><g class="mark-text role-axis-label" pointer-events="none"><text text-anchor="end" transform="translate(-7,205)" font-family="serif" font-size="17px" font-weight="bold" fill="#fff" opacity="1">0</text><text text-anchor="end" transform="translate(-7,159.54545454545453)" font-family="serif" font-size="17px" font-weight="bold" fill="#fff" opacity="1">50</text><text text-anchor="end" transform="translate(-7,114.09090909090908)" font-family="serif" font-size="17px" font-weight="bold" fill="#fff" opacity="1">100</text><text text-anchor="end" transform="translate(-7,68.63636363636365)" font-family="serif" font-size="17px" font-weight="bold" fill="#fff" opacity="1">150</text><text text-anchor="end" transform="translate(-7,23.181818181818187)" font-family="serif" font-size="17px" font-weight="bold" fill="#fff" opacity="1">200</text></g></g><path class="foreground" aria-hidden="true" d="" pointer-events="none" display="none"></path></g></g><g class="mark-group role-scope layer_0_pathgroup" role="graphics-object" aria-roledescription="group mark container"><g transform="translate(0,0)"><path class="background" aria-hidden="true" d="M0,0h954v200h-954Z"></path><g><g class="mark-line role-mark layer_0_marks" role="graphics-object" aria-roledescription="line mark container"><path aria-label="Year: 1961; Licensed: 7; enfranchise: Holmium benchmark" role="graphics-symbol" aria-roledescription="line mark" d="M68.14285714285717,193.63636363636363C113.57142857142858,176.06449106449105,159,158.4926184926185,204.42857142857144,117.27272727272728C249.8571428571429,76.05283605283606,295.2857142857142,11.184926184926184,340.7142857142857,19.090909090909093C386.1428571428572,26.996891996892003,431.57142857142867,107.6767676767677,477,128.1818181818182C522.4285714285713,148.68686868686868,567.8571428571429,109.01709401709401,613.2857142857142,113.63636363636363C658.7142857142856,118.25563325563324,704.142857142857,167.16394716394717,749.5714285714284,156.36363636363637C794.9999999999999,145.56332556332558,840.4285714285713,75.05439005439005,885.8571428571429,4.545454545454541" stroke="#bb524e" stroke-width="2" stroke-dasharray="8,4"></path></g></g><path class="foreground" aria-hidden="true" d="" display="none"></path></g></g><g class="mark-symbol role-mark layer_1_marks" role="graphics-object" aria-roledescription="symbol mark container"><path aria-label="Year: 1961; Licensed: 7; enfranchise: Holmium benchmark" role="graphics-symbol" aria-roledescription="point" transform="translate(68.14285714285717,193.63636363636363)" d="M2.7386127875258306,0A2.7386127875258306,2.7386127875258306,0,1,1,-2.7386127875258306,0A2.7386127875258306,2.7386127875258306,0,1,1,2.7386127875258306,0" fill="#333333" stroke="#bb524e" stroke-width="4" opacity="1"></path><path aria-label="Year: 1962; Licensed: 91; enfranchise: Holmium benchmark" role="graphics-symbol" aria-roledescription="point" transform="translate(204.42857142857144,117.27272727272728)" d="M2.7386127875258306,0A2.7386127875258306,2.7386127875258306,0,1,1,-2.7386127875258306,0A2.7386127875258306,2.7386127875258306,0,1,1,2.7386127875258306,0" fill="#333333" stroke="#bb524e" stroke-width="4" opacity="1"></path><path aria-label="Year: 1963; Licensed: 199; enfranchise: Holmium benchmark" role="graphics-symbol" aria-roledescription="point" transform="translate(340.7142857142857,19.090909090909093)" d="M2.7386127875258306,0A2.7386127875258306,2.7386127875258306,0,1,1,-2.7386127875258306,0A2.7386127875258306,2.7386127875258306,0,1,1,2.7386127875258306,0" fill="#333333" stroke="#bb524e" stroke-width="4" opacity="1"></path><path aria-label="Year: 1964; Licensed: 79; enfranchise: Holmium benchmark" role="graphics-symbol" aria-roledescription="point" transform="translate(477,128.1818181818182)" d="M2.7386127875258306,0A2.7386127875258306,2.7386127875258306,0,1,1,-2.7386127875258306,0A2.7386127875258306,2.7386127875258306,0,1,1,2.7386127875258306,0" fill="#333333" stroke="#bb524e" stroke-width="4" opacity="1"></path><path aria-label="Year: 1965; Licensed: 95; enfranchise: Holmium benchmark" role="graphics-symbol" aria-roledescription="point" transform="translate(613.2857142857142,113.63636363636363)" d="M2.7386127875258306,0A2.7386127875258306,2.7386127875258306,0,1,1,-2.7386127875258306,0A2.7386127875258306,2.7386127875258306,0,1,1,2.7386127875258306,0" fill="#333333" stroke="#bb524e" stroke-width="4" opacity="1"></path><path aria-label="Year: 1966; Licensed: 48; enfranchise: Holmium benchmark" role="graphics-symbol" aria-roledescription="point" transform="translate(749.5714285714284,156.36363636363637)" d="M2.7386127875258306,0A2.7386127875258306,2.7386127875258306,0,1,1,-2.7386127875258306,0A2.7386127875258306,2.7386127875258306,0,1,1,2.7386127875258306,0" fill="#333333" stroke="#bb524e" stroke-width="4" opacity="1"></path><path aria-label="Year: 1967; Licensed: 215; enfranchise: Holmium benchmark" role="graphics-symbol" aria-roledescription="point" transform="translate(885.8571428571429,4.545454545454541)" d="M2.7386127875258306,0A2.7386127875258306,2.7386127875258306,0,1,1,-2.7386127875258306,0A2.7386127875258306,2.7386127875258306,0,1,1,2.7386127875258306,0" fill="#333333" stroke="#bb524e" stroke-width="4" opacity="1"></path></g><g class="mark-group role-title"><g transform="translate(477,-31.19315824207129)"><path class="background" aria-hidden="true" d="M0,0h0v0h0Z" pointer-events="none"></path><g><g class="mark-text role-title-text" role="graphics-symbol" aria-roledescription="title" aria-label="Title text 'Manat adipisci Account'" pointer-events="none"><text text-anchor="middle" transform="translate(0,20)" font-family="serif" font-size="25px" font-weight="bold" fill="#fff" opacity="1">Manat adipisci Account</text></g></g><path class="foreground" aria-hidden="true" d="" pointer-events="none" display="none"></path></g></g></g><path class="foreground" aria-hidden="true" d="" display="none"></path></g></g></g></svg>