<svg xmlns="http://www.w3.org/2000/svg" xmlns:xlink="http://www.w3.org/1999/xlink" version="1.1" class="marks" width="962" height="320" viewBox="0 0 962 320" style="background-color: rgb(51, 51, 51);"><g fill="none" stroke-miterlimit="10" transform="translate(39,43)"><g class="mark-group role-frame root" role="graphics-object" aria-roledescription="group mark container"><g transform="translate(0,0)"><path class="background" aria-hidden="true" d="M0.5,0.5h918v200h-918Z" fill="transparent" stroke="#ddd"></path><g><g class="mark-group role-axis" aria-hidden="true"><g transform="translate(0.5,200.5)"><path class="background" aria-hidden="true" d="M0,0h0v0h0Z" pointer-events="none"></path><g><g class="mark-rule role-axis-grid" pointer-events="none"><line transform="translate(46,-200)" x2="0" y2="200" stroke="#747474" stroke-width="1" stroke-dasharray="6, 3" opacity="1"></line><line transform="translate(138,-200)" x2="0" y2="200" stroke="#747474" stroke-width="1" stroke-dasharray="6, 3" opacity="1"></line><line transform="translate(230,-200)" x2="0" y2="200" stroke="#747474" stroke-width="1" stroke-dasharray="6, 3" opacity="1"></line><line transform="translate(321,-200)" x2="0" y2="200" stroke="#747474" stroke-width="1" stroke-dasharray="6, 3" opacity="1"></line><line transform="translate(413,-200)" x2="0" y2="200" stroke="#747474" stroke-width="1" stroke-dasharray="6, 3" opacity="1"></line><line transform="translate(505,-200)" x2="0" y2="200" stroke="#747474" stroke-width="1" stroke-dasharray="6, 3" opacity="1"></line><line transform="translate(597,-200)" x2="0" y2="200" stroke="#747474" stroke-width="1" stroke-dasharray="6, 3" opacity="1"></line><line transform="translate(689,-200)" x2="0" y2="200" stroke="#747474" stroke-width="1" stroke-dasharray="6, 3" opacity="1"></line><line transform="translate(780,-200)" x2="0" y2="200" stroke="#747474" stroke-width="1" stroke-dasharray="6, 3" opacity="1"></line><line transform="translate(872,-200)" x2="0" y2="200" stroke="#747474" stroke-width="1" stroke-dasharray="6, 3" opacity="1"></line></g></g><path class="foreground" aria-hidden="true" d="" pointer-events="none" display="none"></path></g></g><g class="mark-group role-axis" aria-hidden="true"><g transform="translate(0.5,0.5)"><path class="background" aria-hidden="true" d="M0,0h0v0h0Z" pointer-events="none"></path><g><g class="mark-rule role-axis-grid" pointer-events="none"><line transform="translate(0,200)" x2="918" y2="0" stroke="#747474" stroke-width="1" stroke-dasharray="6, 3" opacity="1"></line><line transform="translate(0,167)" x2="918" y2="0" stroke="#747474" stroke-width="1" stroke-dasharray="6, 3" opacity="1"></line><line transform="translate(0,133)" x2="918" y2="0" stroke="#747474" stroke-width="1" stroke-dasharray="6, 3" opacity="1"></line><line transform="translate(0,100)" x2="918" y2="0" stroke="#747474" stroke-width="1" stroke-dasharray="6, 3" opacity="1"></line><line transform="translate(0,67)" x2="918" y2="0" stroke="#747474" stroke-width="1" stroke-dasharray="6, 3" opacity="1"></line><line transform="translate(0,33)" x2="918" y2="0" stroke="#747474" stroke-width="1" stroke-dasharray="6, 3" opacity="1"></line><line transform="translate(0,0)" x2="918" y2="0" stroke="#747474" stroke-width="1" stroke-dasharray="6, 3" opacity="1"></line></g></g><path class="foreground" aria-hidden="true" d="" pointer-events="none" display="none"></path></g></g><g class="mark-group role-axis" role="graphics-symbol" aria-roledescription="axis" aria-label="X-axis for a discrete scale with 10 values: 1998, 2000, 2002, 2004, 2006, ending with 2016"><g transform="translate(0.5,200.5)"><path class="background" aria-hidden="true" d="M0,0h0v0h0Z" pointer-events="none"></path><g><g class="mark-rule role-axis-tick" pointer-events="none"><line transform="translate(46,0)" x2="0" y2="5" stroke="#888" stroke-width="1" opacity="1"></line><line transform="translate(138,0)" x2="0" y2="5" stroke="#888" stroke-width="1" opacity="1"></line><line transform="translate(230,0)" x2="0" y2="5" stroke="#888" stroke-width="1" opacity="1"></line><line transform="translate(321,0)" x2="0" y2="5" stroke="#888" stroke-width="1" opacity="1"></line><line transform="translate(413,0)" x2="0" y2="5" stroke="#888" stroke-width="1" opacity="1"></line><line transform="translate(505,0)" x2="0" y2="5" stroke="#888" stroke-width="1" opacity="1"></line><line transform="translate(597,0)" x2="0" y2="5" stroke="#888" stroke-width="1" opacity="1"></line><line transform="translate(689,0)" x2="0" y2="5" stroke="#888" stroke-width="1" opacity="1"></line><line transform="translate(780,0)" x2="0" y2="5" stroke="#888" stroke-width="1" opacity="1"></line><line transform="translate(872,0)" x2="0" y2="5" stroke="#888" stroke-width="1" opacity="1"></line></g><g class="mark-text role-axis-label" pointer-events="none"><text text-anchor="middle" transform="translate(45.900000000000034,21)" font-family="serif" font-size="18px" font-weight="normal" fill="#fff" opacity="1">1998</text><text text-anchor="middle" transform="translate(137.70000000000005,21)" font-family="serif" font-size="18px" font-weight="normal" fill="#fff" opacity="1">2000</text><text text-anchor="middle" transform="translate(229.50000000000003,21)" font-family="serif" font-size="18px" font-weight="normal" fill="#fff" opacity="1">2002</text><text text-anchor="middle" transform="translate(321.3,21)" font-family="serif" font-size="18px" font-weight="normal" fill="#fff" opacity="1">2004</text><text text-anchor="middle" transform="translate(413.1,21)" font-family="serif" font-size="18px" font-weight="normal" fill="#fff" opacity="1">2006</text><text text-anchor="middle" transform="translate(504.90000000000003,21)" font-family="serif" font-size="18px" font-weight="normal" fill="#fff" opacity="1">2008</text><text text-anchor="middle" transform="translate(596.7,21)" font-family="serif" font-size="18px" font-weight="normal" fill="#fff" opacity="1">2010</text><text text-anchor="middle" transform="translate(688.5,21)" font-family="serif" font-size="18px" font-weight="normal" fill="#fff" opacity="1">2012</text><text text-anchor="middle" transform="translate(780.3,21)" font-family="serif" font-size="18px" font-weight="normal" fill="#fff" opacity="1">2014</text><text text-anchor="middle" transform="translate(872.0999999999999,21)" font-family="serif" font-size="18px" font-weight="normal" fill="#fff" opacity="1">2016</text></g><g class="mark-rule role-axis-domain" pointer-events="none"><line transform="translate(0,0)" x2="918" y2="0" stroke="#888" stroke-width="1" opacity="1"></line></g></g><path class="foreground" aria-hidden="true" d="" pointer-events="none" display="none"></path></g></g><g class="mark-group role-axis" role="graphics-symbol" aria-roledescription="axis" aria-label="Y-axis for a linear scale with values from 0 to 120"><g transform="translate(0.5,0.5)"><path class="background" aria-hidden="true" d="M0,0h0v0h0Z" pointer-events="none"></path><g><g class="mark-rule role-axis-tick" pointer-events="none"><line transform="translate(0,200)" x2="-5" y2="0" stroke="#888" stroke-width="1" opacity="1"></line><line transform="translate(0,167)" x2="-5" y2="0" stroke="#888" stroke-width="1" opacity="1"></line><line transform="translate(0,133)" x2="-5" y2="0" stroke="#888" stroke-width="1" opacity="1"></line><line transform="translate(0,100)" x2="-5" y2="0" stroke="#888" stroke-width="1" opacity="1"></line><line transform="translate(0,67)" x2="-5" y2="0" stroke="#888" stroke-width="1" opacity="1"></line><line transform="translate(0,33)" x2="-5" y2="0" stroke="#888" stroke-width="1" opacity="1"></line><line transform="translate(0,0)" x2="-5" y2="0" stroke="#888" stroke-width="1" opacity="1"></line></g><g class="mark-text role-axis-label" pointer-events="none"><text text-anchor="end" transform="translate(-7,205)" font-family="serif" font-size="18px" font-weight="normal" fill="#fff" opacity="1">0</text><text text-anchor="end" transform="translate(-7,171.66666666666669)" font-family="serif" font-size="18px" font-weight="normal" fill="#fff" opacity="1">20</text><text text-anchor="end" transform="translate(-7,138.33333333333334)" font-family="serif" font-size="18px" font-weight="normal" fill="#fff" opacity="1">40</text><text text-anchor="end" transform="translate(-7,105)" font-family="serif" font-size="18px" font-weight="normal" fill="#fff" opacity="1">60</text><text text-anchor="end" transform="translate(-7,71.66666666666667)" font-family="serif" font-size="18px" font-weight="normal" fill="#fff" opacity="1">80</text><text text-anchor="end" transform="translate(-7,38.33333333333333)" font-family="serif" font-size="18px" font-weight="normal" fill="#fff" opacity="1">100</text><text text-anchor="end" transform="translate(-7,5)" font-family="serif" font-size="18px" font-weight="normal" fill="#fff" opacity="1">120</text></g><g class="mark-rule role-axis-domain" pointer-events="none"><line transform="translate(0,200)" x2="0" y2="-200" stroke="#888" stroke-width="1" opacity="1"></line></g></g><path class="foreground" aria-hidden="true" d="" pointer-events="none" display="none"></path></g></g><g class="mark-group role-scope layer_0_pathgroup" role="graphics-object" aria-roledescription="group mark container"><g transform="translate(0,0)"><path class="background" aria-hidden="true" d="M0,0h918v200h-918Z"></path><g><g class="mark-line role-mark layer_0_marks" role="graphics-object" aria-roledescription="line mark container"><path aria-label="Year: 1998; paradigms blocker sit: 44; Country: mole an compressing" role="graphics-symbol" aria-roledescription="line mark" d="M45.900000000000034,126.66666666666666C76.50000000000007,142.78342308272013,107.10000000000011,158.90017949877364,137.70000000000005,170C168.29999999999998,181.09982050122636,198.89999999999998,187.18270508762555,229.50000000000003,150C260.1000000000001,112.81729491237444,290.70000000000005,32.36900015072416,321.3,16.666666666666675C351.9,0.9643331826091893,382.5,50.007960976144496,413.1,55.00000000000001C443.70000000000005,59.99203902385552,474.29999999999995,20.93248927803127,504.90000000000003,25C535.5000000000001,29.06751072196873,566.1000000000003,76.26208191173045,596.7,75C627.2999999999998,73.73791808826955,657.8999999999999,24.019183075046925,688.5,6.666666666666665C719.1000000000001,-10.685849741713595,749.6999999999999,4.327852454748502,780.3,16.666666666666675C810.9,29.005480878584848,841.5,38.669407105959095,872.0999999999999,48.33333333333334" stroke="#3fcad2" stroke-width="2" stroke-dasharray="1,0"></path></g></g><path class="foreground" aria-hidden="true" d="" display="none"></path></g><g transform="translate(0,0)"><path class="background" aria-hidden="true" d="M0,0h918v200h-918Z"></path><g><g class="mark-line role-mark layer_0_marks" role="graphics-object" aria-roledescription="line mark container"><path aria-label="Year: 1998; paradigms blocker sit: 71; Country: Monroe heuristic Checking" role="graphics-symbol" aria-roledescription="line mark" d="M45.900000000000034,81.66666666666667C76.50000000000007,33.897206122141384,107.10000000000011,-13.872254422383914,137.70000000000005,11.66666666666667C168.29999999999998,37.205587755717254,198.89999999999998,136.0528904783437,229.50000000000003,155C260.1000000000001,173.9471095216563,290.70000000000005,112.99402584234254,321.3,93.33333333333333C351.9,73.67264082432412,382.5,95.30433948561954,413.1,81.66666666666667C443.70000000000005,68.0289938477138,474.29999999999995,19.121949548512646,504.90000000000003,48.33333333333334C535.5000000000001,77.54471711815404,566.1000000000003,184.87452898699664,596.7,188.33333333333334C627.2999999999998,191.79213767967005,657.8999999999999,91.37993450350093,688.5,83.33333333333333C719.1000000000001,75.28673216316572,749.6999999999999,159.60573299899974,780.3,180C810.9,200.39426700100026,841.5,156.8638001671668,872.0999999999999,113.33333333333333" stroke="#51e3db" stroke-width="2" stroke-dasharray="1,0"></path></g></g><path class="foreground" aria-hidden="true" d="" display="none"></path></g></g><g class="mark-symbol role-mark layer_1_marks" role="graphics-object" aria-roledescription="symbol mark container"><path aria-label="Year: 1998; paradigms blocker sit: 44; Country: mole an compressing" role="graphics-symbol" aria-roledescription="point" transform="translate(45.900000000000034,126.66666666666666)" d="M2.7386127875258306,0A2.7386127875258306,2.7386127875258306,0,1,1,-2.7386127875258306,0A2.7386127875258306,2.7386127875258306,0,1,1,2.7386127875258306,0" fill="#333333" stroke="#3fcad2" stroke-width="3" opacity="1"></path><path aria-label="Year: 2000; paradigms blocker sit: 18; Country: mole an compressing" role="graphics-symbol" aria-roledescription="point" transform="translate(137.70000000000005,170)" d="M2.7386127875258306,0A2.7386127875258306,2.7386127875258306,0,1,1,-2.7386127875258306,0A2.7386127875258306,2.7386127875258306,0,1,1,2.7386127875258306,0" fill="#333333" stroke="#3fcad2" stroke-width="3" opacity="1"></path><path aria-label="Year: 2002; paradigms blocker sit: 30; Country: mole an compressing" role="graphics-symbol" aria-roledescription="point" transform="translate(229.50000000000003,150)" d="M2.7386127875258306,0A2.7386127875258306,2.7386127875258306,0,1,1,-2.7386127875258306,0A2.7386127875258306,2.7386127875258306,0,1,1,2.7386127875258306,0" fill="#333333" stroke="#3fcad2" stroke-width="3" opacity="1"></path><path aria-label="Year: 2004; paradigms blocker sit: 110; Country: mole an compressing" role="graphics-symbol" aria-roledescription="point" transform="translate(321.3,16.666666666666675)" d="M2.7386127875258306,0A2.7386127875258306,2.7386127875258306,0,1,1,-2.7386127875258306,0A2.7386127875258306,2.7386127875258306,0,1,1,2.7386127875258306,0" fill="#333333" stroke="#3fcad2" stroke-width="3" opacity="1"></path><path aria-label="Year: 2006; paradigms blocker sit: 87; Country: mole an compressing" role="graphics-symbol" aria-roledescription="point" transform="translate(413.1,55.00000000000001)" d="M2.7386127875258306,0A2.7386127875258306,2.7386127875258306,0,1,1,-2.7386127875258306,0A2.7386127875258306,2.7386127875258306,0,1,1,2.7386127875258306,0" fill="#333333" stroke="#3fcad2" stroke-width="3" opacity="1"></path><path aria-label="Year: 2008; paradigms blocker sit: 105; Country: mole an compressing" role="graphics-symbol" aria-roledescription="point" transform="translate(504.90000000000003,25)" d="M2.7386127875258306,0A2.7386127875258306,2.7386127875258306,0,1,1,-2.7386127875258306,0A2.7386127875258306,2.7386127875258306,0,1,1,2.7386127875258306,0" fill="#333333" stroke="#3fcad2" stroke-width="3" opacity="1"></path><path aria-label="Year: 2010; paradigms blocker sit: 75; Country: mole an compressing" role="graphics-symbol" aria-roledescription="point" transform="translate(596.7,75)" d="M2.7386127875258306,0A2.7386127875258306,2.7386127875258306,0,1,1,-2.7386127875258306,0A2.7386127875258306,2.7386127875258306,0,1,1,2.7386127875258306,0" fill="#333333" stroke="#3fcad2" stroke-width="3" opacity="1"></path><path aria-label="Year: 2012; paradigms blocker sit: 116; Country: mole an compressing" role="graphics-symbol" aria-roledescription="point" transform="translate(688.5,6.666666666666665)" d="M2.7386127875258306,0A2.7386127875258306,2.7386127875258306,0,1,1,-2.7386127875258306,0A2.7386127875258306,2.7386127875258306,0,1,1,2.7386127875258306,0" fill="#333333" stroke="#3fcad2" stroke-width="3" opacity="1"></path><path aria-label="Year: 2014; paradigms blocker sit: 110; Country: mole an compressing" role="graphics-symbol" aria-roledescription="point" transform="translate(780.3,16.666666666666675)" d="M2.7386127875258306,0A2.7386127875258306,2.7386127875258306,0,1,1,-2.7386127875258306,0A2.7386127875258306,2.7386127875258306,0,1,1,2.7386127875258306,0" fill="#333333" stroke="#3fcad2" stroke-width="3" opacity="1"></path><path aria-label="Year: 2016; paradigms blocker sit: 91; Country: mole an compressing" role="graphics-symbol" aria-roledescription="point" transform="translate(872.0999999999999,48.33333333333334)" d="M2.7386127875258306,0A2.7386127875258306,2.7386127875258306,0,1,1,-2.7386127875258306,0A2.7386127875258306,2.7386127875258306,0,1,1,2.7386127875258306,0" fill="#333333" stroke="#3fcad2" stroke-width="3" opacity="1"></path><path aria-label="Year: 1998; paradigms blocker sit: 71; Country: Monroe heuristic Checking" role="graphics-symbol" aria-roledescription="point" transform="translate(45.900000000000034,81.66666666666667)" d="M2.7386127875258306,0A2.7386127875258306,2.7386127875258306,0,1,1,-2.7386127875258306,0A2.7386127875258306,2.7386127875258306,0,1,1,2.7386127875258306,0" fill="#333333" stroke="#51e3db" stroke-width="3" opacity="1"></path><path aria-label="Year: 2000; paradigms blocker sit: 113; Country: Monroe heuristic Checking" role="graphics-symbol" aria-roledescription="point" transform="translate(137.70000000000005,11.66666666666667)" d="M2.7386127875258306,0A2.7386127875258306,2.7386127875258306,0,1,1,-2.7386127875258306,0A2.7386127875258306,2.7386127875258306,0,1,1,2.7386127875258306,0" fill="#333333" stroke="#51e3db" stroke-width="3" opacity="1"></path><path aria-label="Year: 2002; paradigms blocker sit: 27; Country: Monroe heuristic Checking" role="graphics-symbol" aria-roledescription="point" transform="translate(229.50000000000003,155)" d="M2.7386127875258306,0A2.7386127875258306,2.7386127875258306,0,1,1,-2.7386127875258306,0A2.7386127875258306,2.7386127875258306,0,1,1,2.7386127875258306,0" fill="#333333" stroke="#51e3db" stroke-width="3" opacity="1"></path><path aria-label="Year: 2004; paradigms blocker sit: 64; Country: Monroe heuristic Checking" role="graphics-symbol" aria-roledescription="point" transform="translate(321.3,93.33333333333333)" d="M2.7386127875258306,0A2.7386127875258306,2.7386127875258306,0,1,1,-2.7386127875258306,0A2.7386127875258306,2.7386127875258306,0,1,1,2.7386127875258306,0" fill="#333333" stroke="#51e3db" stroke-width="3" opacity="1"></path><path aria-label="Year: 2006; paradigms blocker sit: 71; Country: Monroe heuristic Checking" role="graphics-symbol" aria-roledescription="point" transform="translate(413.1,81.66666666666667)" d="M2.7386127875258306,0A2.7386127875258306,2.7386127875258306,0,1,1,-2.7386127875258306,0A2.7386127875258306,2.7386127875258306,0,1,1,2.7386127875258306,0" fill="#333333" stroke="#51e3db" stroke-width="3" opacity="1"></path><path aria-label="Year: 2008; paradigms blocker sit: 91; Country: Monroe heuristic Checking" role="graphics-symbol" aria-roledescription="point" transform="translate(504.90000000000003,48.33333333333334)" d="M2.7386127875258306,0A2.7386127875258306,2.7386127875258306,0,1,1,-2.7386127875258306,0A2.7386127875258306,2.7386127875258306,0,1,1,2.7386127875258306,0" fill="#333333" stroke="#51e3db" stroke-width="3" opacity="1"></path><path aria-label="Year: 2010; paradigms blocker sit: 7; Country: Monroe heuristic Checking" role="graphics-symbol" aria-roledescription="point" transform="translate(596.7,188.33333333333334)" d="M2.7386127875258306,0A2.7386127875258306,2.7386127875258306,0,1,1,-2.7386127875258306,0A2.7386127875258306,2.7386127875258306,0,1,1,2.7386127875258306,0" fill="#333333" stroke="#51e3db" stroke-width="3" opacity="1"></path><path aria-label="Year: 2012; paradigms blocker sit: 70; Country: Monroe heuristic Checking" role="graphics-symbol" aria-roledescription="point" transform="translate(688.5,83.33333333333333)" d="M2.7386127875258306,0A2.7386127875258306,2.7386127875258306,0,1,1,-2.7386127875258306,0A2.7386127875258306,2.7386127875258306,0,1,1,2.7386127875258306,0" fill="#333333" stroke="#51e3db" stroke-width="3" opacity="1"></path><path aria-label="Year: 2014; paradigms blocker sit: 12; Country: Monroe heuristic Checking" role="graphics-symbol" aria-roledescription="point" transform="translate(780.3,180)" d="M2.7386127875258306,0A2.7386127875258306,2.7386127875258306,0,1,1,-2.7386127875258306,0A2.7386127875258306,2.7386127875258306,0,1,1,2.7386127875258306,0" fill="#333333" stroke="#51e3db" stroke-width="3" opacity="1"></path><path aria-label="Year: 2016; paradigms blocker sit: 52; Country: Monroe heuristic Checking" role="graphics-symbol" aria-roledescription="point" transform="translate(872.0999999999999,113.33333333333333)" d="M2.7386127875258306,0A2.7386127875258306,2.7386127875258306,0,1,1,-2.7386127875258306,0A2.7386127875258306,2.7386127875258306,0,1,1,2.7386127875258306,0" fill="#333333" stroke="#51e3db" stroke-width="3" opacity="1"></path></g><g class="mark-group role-legend" role="graphics-symbol" aria-roledescription="legend" aria-label="Symbol legend titled 'Country' for stroke color with 2 values: mole an compressing, Monroe heuristic Checking"><g transform="translate(0,243)"><path class="background" aria-hidden="true" d="M0,0h238v29h-238Z" pointer-events="none"></path><g><g class="mark-group role-legend-entry"><g transform="translate(0,16)"><path class="background" aria-hidden="true" d="M0,0h0v0h0Z" pointer-events="none"></path><g><g class="mark-group role-scope" role="graphics-object" aria-roledescription="group mark container"><g transform="translate(0,0.25)"><path class="background" aria-hidden="true" d="M0,0h100.98046875v12.5h-100.98046875Z" pointer-events="none" opacity="1"></path><g><g class="mark-symbol role-legend-symbol" pointer-events="none"><path transform="translate(6,6)" d="M5,0A5,5,0,1,1,-5,0A5,5,0,1,1,5,0" fill="#333333" stroke="#3fcad2" stroke-width="1.5" opacity="1"></path></g><g class="mark-text role-legend-label" pointer-events="none"><text text-anchor="start" transform="translate(16,9)" font-family="serif" font-size="10px" fill="#fff" opacity="1">mole an compressing</text></g></g><path class="foreground" aria-hidden="true" d="" pointer-events="none" display="none"></path></g><g transform="translate(112,0.25)"><path class="background" aria-hidden="true" d="M0,0h125.4189453125v12.5h-125.4189453125Z" pointer-events="none" opacity="1"></path><g><g class="mark-symbol role-legend-symbol" pointer-events="none"><path transform="translate(6,6)" d="M5,0A5,5,0,1,1,-5,0A5,5,0,1,1,5,0" fill="#333333" stroke="#51e3db" stroke-width="1.5" opacity="1"></path></g><g class="mark-text role-legend-label" pointer-events="none"><text text-anchor="start" transform="translate(16,9)" font-family="serif" font-size="10px" fill="#fff" opacity="1">Monroe heuristic Checking</text></g></g><path class="foreground" aria-hidden="true" d="" pointer-events="none" display="none"></path></g></g></g><path class="foreground" aria-hidden="true" d="" pointer-events="none" display="none"></path></g></g><g class="mark-text role-legend-title" pointer-events="none"><text text-anchor="start" transform="translate(0,9)" font-family="serif" font-size="11px" font-weight="bold" fill="#fff" opacity="1">Country</text></g></g><path class="foreground" aria-hidden="true" d="" pointer-events="none" display="none"></path></g></g><g class="mark-group role-title"><g transform="translate(-34,-38)"><path class="background" aria-hidden="true" d="M0,0h0v0h0Z" pointer-events="none"></path><g><g class="mark-text role-title-text" role="graphics-symbol" aria-roledescription="title" aria-label="Title text 'digital maroon'" pointer-events="none"><text text-anchor="start" transform="translate(0,20)" font-family="serif" font-size="25px" font-weight="bold" fill="#fff" opacity="1">digital maroon</text></g></g><path class="foreground" aria-hidden="true" d="" pointer-events="none" display="none"></path></g></g></g><path class="foreground" aria-hidden="true" d="" display="none"></path></g></g></g></svg>