<svg xmlns="http://www.w3.org/2000/svg" xmlns:xlink="http://www.w3.org/1999/xlink" version="1.1" class="marks" width="891" height="256" viewBox="0 0 891 256" style="background-color: rgb(255, 255, 255);"><g fill="none" stroke-miterlimit="10" transform="translate(27,34)"><g class="mark-group role-frame root" role="graphics-object" aria-roledescription="group mark container"><g transform="translate(0,0)"><path class="background" aria-hidden="true" d="M0.5,0.5h723v200h-723Z" fill="transparent" stroke="#ddd"></path><g><g class="mark-group role-axis" role="graphics-symbol" aria-roledescription="axis" aria-label="X-axis for a discrete scale with 5 values: Jan, Feb, Mar, Apr, May"><g transform="translate(0.5,200.5)"><path class="background" aria-hidden="true" d="M0,0h0v0h0Z" pointer-events="none"></path><g><g class="mark-rule role-axis-tick" pointer-events="none"><line transform="translate(72,0)" x2="0" y2="5" stroke="#888" stroke-width="1" opacity="1"></line><line transform="translate(217,0)" x2="0" y2="5" stroke="#888" stroke-width="1" opacity="1"></line><line transform="translate(362,0)" x2="0" y2="5" stroke="#888" stroke-width="1" opacity="1"></line><line transform="translate(506,0)" x2="0" y2="5" stroke="#888" stroke-width="1" opacity="1"></line><line transform="translate(651,0)" x2="0" y2="5" stroke="#888" stroke-width="1" opacity="1"></line></g><g class="mark-text role-axis-label" pointer-events="none"><text text-anchor="middle" transform="translate(72.30000000000001,15)" font-family="serif" font-size="10px" font-weight="normal" fill="#000" opacity="1">Jan</text><text text-anchor="middle" transform="translate(216.9,15)" font-family="serif" font-size="10px" font-weight="normal" fill="#000" opacity="1">Feb</text><text text-anchor="middle" transform="translate(361.5,15)" font-family="serif" font-size="10px" font-weight="normal" fill="#000" opacity="1">Mar</text><text text-anchor="middle" transform="translate(506.09999999999997,15)" font-family="serif" font-size="10px" font-weight="normal" fill="#000" opacity="1">Apr</text><text text-anchor="middle" transform="translate(650.7,15)" font-family="serif" font-size="10px" font-weight="normal" fill="#000" opacity="1">May</text></g><g class="mark-rule role-axis-domain" pointer-events="none"><line transform="translate(0,0)" x2="723" y2="0" stroke="#888" stroke-width="1" opacity="1"></line></g></g><path class="foreground" aria-hidden="true" d="" pointer-events="none" display="none"></path></g></g><g class="mark-group role-axis" role="graphics-symbol" aria-roledescription="axis" aria-label="Y-axis for a linear scale with values from 0 to 650"><g transform="translate(0.5,0.5)"><path class="background" aria-hidden="true" d="M0,0h0v0h0Z" pointer-events="none"></path><g><g class="mark-rule role-axis-tick" pointer-events="none"><line transform="translate(0,200)" x2="-5" y2="0" stroke="#888" stroke-width="1" opacity="1"></line><line transform="translate(0,169)" x2="-5" y2="0" stroke="#888" stroke-width="1" opacity="1"></line><line transform="translate(0,138)" x2="-5" y2="0" stroke="#888" stroke-width="1" opacity="1"></line><line transform="translate(0,108)" x2="-5" y2="0" stroke="#888" stroke-width="1" opacity="1"></line><line transform="translate(0,77)" x2="-5" y2="0" stroke="#888" stroke-width="1" opacity="1"></line><line transform="translate(0,46)" x2="-5" y2="0" stroke="#888" stroke-width="1" opacity="1"></line><line transform="translate(0,15)" x2="-5" y2="0" stroke="#888" stroke-width="1" opacity="1"></line></g><g class="mark-text role-axis-label" pointer-events="none"><text text-anchor="end" transform="translate(-7,203)" font-family="serif" font-size="10px" font-weight="normal" fill="#000" opacity="1">0</text><text text-anchor="end" transform="translate(-7,172.23076923076923)" font-family="serif" font-size="10px" font-weight="normal" fill="#000" opacity="1">100</text><text text-anchor="end" transform="translate(-7,141.46153846153845)" font-family="serif" font-size="10px" font-weight="normal" fill="#000" opacity="1">200</text><text text-anchor="end" transform="translate(-7,110.6923076923077)" font-family="serif" font-size="10px" font-weight="normal" fill="#000" opacity="1">300</text><text text-anchor="end" transform="translate(-7,79.92307692307692)" font-family="serif" font-size="10px" font-weight="normal" fill="#000" opacity="1">400</text><text text-anchor="end" transform="translate(-7,49.153846153846146)" font-family="serif" font-size="10px" font-weight="normal" fill="#000" opacity="1">500</text><text text-anchor="end" transform="translate(-7,18.384615384615373)" font-family="serif" font-size="10px" font-weight="normal" fill="#000" opacity="1">600</text></g></g><path class="foreground" aria-hidden="true" d="" pointer-events="none" display="none"></path></g></g><g class="mark-group role-scope layer_0_pathgroup" role="graphics-object" aria-roledescription="group mark container"><g transform="translate(0,0)"><path class="background" aria-hidden="true" d="M0,0h723v200h-723Z"></path><g><g class="mark-line role-mark layer_0_marks" role="graphics-object" aria-roledescription="line mark container"><path aria-label="Month: Jan; Metal Plaza Bedfordshire: 457; Oganesson Account male: Investment" role="graphics-symbol" aria-roledescription="line mark" d="M72.30000000000001,59.384615384615394C120.5,33.83516483516484,168.7,8.285714285714295,216.9,15.692307692307693C265.1,23.09890109890109,313.30000000000007,63.46153846153844,361.5,81.84615384615384C409.69999999999993,100.23076923076924,457.9,96.63736263736266,506.09999999999997,90.15384615384616C554.3,83.67032967032966,602.5,74.2967032967033,650.7,64.92307692307693" stroke="#5cdcff" stroke-width="2" stroke-dasharray="1,0"></path></g></g><path class="foreground" aria-hidden="true" d="" display="none"></path></g><g transform="translate(0,0)"><path class="background" aria-hidden="true" d="M0,0h723v200h-723Z"></path><g><g class="mark-line role-mark layer_0_marks" role="graphics-object" aria-roledescription="line mark container"><path aria-label="Month: Jan; Metal Plaza Bedfordshire: 275; Oganesson Account male: kebab Rupee program" role="graphics-symbol" aria-roledescription="line mark" d="M72.30000000000001,115.38461538461537C120.5,117.94505494505492,168.7,120.50549450549448,216.9,144.3076923076923C265.1,168.1098901098901,313.30000000000007,213.15384615384616,361.5,181.84615384615387C409.69999999999993,150.53846153846158,457.9,42.87912087912089,506.09999999999997,14.46153846153846C554.3,-13.95604395604397,602.5,36.86813186813186,650.7,87.6923076923077" stroke="#0eebdb" stroke-width="2" stroke-dasharray="1,0"></path></g></g><path class="foreground" aria-hidden="true" d="" display="none"></path></g></g><g class="mark-symbol role-mark layer_1_marks" role="graphics-object" aria-roledescription="symbol mark container"><path aria-label="Month: Jan; Metal Plaza Bedfordshire: 457; Oganesson Account male: Investment" role="graphics-symbol" aria-roledescription="point" transform="translate(72.30000000000001,59.384615384615394)" d="M5.244044240850758,0A5.244044240850758,5.244044240850758,0,1,1,-5.244044240850758,0A5.244044240850758,5.244044240850758,0,1,1,5.244044240850758,0" fill="#5cdcff" stroke-width="2" opacity="1"></path><path aria-label="Month: Feb; Metal Plaza Bedfordshire: 599; Oganesson Account male: Investment" role="graphics-symbol" aria-roledescription="point" transform="translate(216.9,15.692307692307693)" d="M5.244044240850758,0A5.244044240850758,5.244044240850758,0,1,1,-5.244044240850758,0A5.244044240850758,5.244044240850758,0,1,1,5.244044240850758,0" fill="#5cdcff" stroke-width="2" opacity="1"></path><path aria-label="Month: Mar; Metal Plaza Bedfordshire: 384; Oganesson Account male: Investment" role="graphics-symbol" aria-roledescription="point" transform="translate(361.5,81.84615384615384)" d="M5.244044240850758,0A5.244044240850758,5.244044240850758,0,1,1,-5.244044240850758,0A5.244044240850758,5.244044240850758,0,1,1,5.244044240850758,0" fill="#5cdcff" stroke-width="2" opacity="1"></path><path aria-label="Month: Apr; Metal Plaza Bedfordshire: 357; Oganesson Account male: Investment" role="graphics-symbol" aria-roledescription="point" transform="translate(506.09999999999997,90.15384615384616)" d="M5.244044240850758,0A5.244044240850758,5.244044240850758,0,1,1,-5.244044240850758,0A5.244044240850758,5.244044240850758,0,1,1,5.244044240850758,0" fill="#5cdcff" stroke-width="2" opacity="1"></path><path aria-label="Month: May; Metal Plaza Bedfordshire: 439; Oganesson Account male: Investment" role="graphics-symbol" aria-roledescription="point" transform="translate(650.7,64.92307692307693)" d="M5.244044240850758,0A5.244044240850758,5.244044240850758,0,1,1,-5.244044240850758,0A5.244044240850758,5.244044240850758,0,1,1,5.244044240850758,0" fill="#5cdcff" stroke-width="2" opacity="1"></path><path aria-label="Month: Jan; Metal Plaza Bedfordshire: 275; Oganesson Account male: kebab Rupee program" role="graphics-symbol" aria-roledescription="point" transform="translate(72.30000000000001,115.38461538461537)" d="M5.244044240850758,0A5.244044240850758,5.244044240850758,0,1,1,-5.244044240850758,0A5.244044240850758,5.244044240850758,0,1,1,5.244044240850758,0" fill="#0eebdb" stroke-width="2" opacity="1"></path><path aria-label="Month: Feb; Metal Plaza Bedfordshire: 181; Oganesson Account male: kebab Rupee program" role="graphics-symbol" aria-roledescription="point" transform="translate(216.9,144.3076923076923)" d="M5.244044240850758,0A5.244044240850758,5.244044240850758,0,1,1,-5.244044240850758,0A5.244044240850758,5.244044240850758,0,1,1,5.244044240850758,0" fill="#0eebdb" stroke-width="2" opacity="1"></path><path aria-label="Month: Mar; Metal Plaza Bedfordshire: 59; Oganesson Account male: kebab Rupee program" role="graphics-symbol" aria-roledescription="point" transform="translate(361.5,181.84615384615387)" d="M5.244044240850758,0A5.244044240850758,5.244044240850758,0,1,1,-5.244044240850758,0A5.244044240850758,5.244044240850758,0,1,1,5.244044240850758,0" fill="#0eebdb" stroke-width="2" opacity="1"></path><path aria-label="Month: Apr; Metal Plaza Bedfordshire: 603; Oganesson Account male: kebab Rupee program" role="graphics-symbol" aria-roledescription="point" transform="translate(506.09999999999997,14.46153846153846)" d="M5.244044240850758,0A5.244044240850758,5.244044240850758,0,1,1,-5.244044240850758,0A5.244044240850758,5.244044240850758,0,1,1,5.244044240850758,0" fill="#0eebdb" stroke-width="2" opacity="1"></path><path aria-label="Month: May; Metal Plaza Bedfordshire: 365; Oganesson Account male: kebab Rupee program" role="graphics-symbol" aria-roledescription="point" transform="translate(650.7,87.6923076923077)" d="M5.244044240850758,0A5.244044240850758,5.244044240850758,0,1,1,-5.244044240850758,0A5.244044240850758,5.244044240850758,0,1,1,5.244044240850758,0" fill="#0eebdb" stroke-width="2" opacity="1"></path></g><g class="mark-text role-mark layer_2_marks" role="graphics-object" aria-roledescription="text mark container"><text aria-label="Month: Jan; Metal Plaza Bedfordshire: 457" role="graphics-symbol" aria-roledescription="text mark" text-anchor="middle" transform="translate(72.30000000000001,88.38461538461539)" font-family="serif" font-size="13px" fill="#000" opacity="1">457</text><text aria-label="Month: Feb; Metal Plaza Bedfordshire: 599" role="graphics-symbol" aria-roledescription="text mark" text-anchor="middle" transform="translate(216.9,44.69230769230769)" font-family="serif" font-size="13px" fill="#000" opacity="1">599</text><text aria-label="Month: Mar; Metal Plaza Bedfordshire: 384" role="graphics-symbol" aria-roledescription="text mark" text-anchor="middle" transform="translate(361.5,110.84615384615384)" font-family="serif" font-size="13px" fill="#000" opacity="1">384</text><text aria-label="Month: Apr; Metal Plaza Bedfordshire: 357" role="graphics-symbol" aria-roledescription="text mark" text-anchor="middle" transform="translate(506.09999999999997,119.15384615384616)" font-family="serif" font-size="13px" fill="#000" opacity="1">357</text><text aria-label="Month: May; Metal Plaza Bedfordshire: 439" role="graphics-symbol" aria-roledescription="text mark" text-anchor="middle" transform="translate(650.7,93.92307692307693)" font-family="serif" font-size="13px" fill="#000" opacity="1">439</text><text aria-label="Month: Jan; Metal Plaza Bedfordshire: 275" role="graphics-symbol" aria-roledescription="text mark" text-anchor="middle" transform="translate(72.30000000000001,144.38461538461536)" font-family="serif" font-size="13px" fill="#000" opacity="1">275</text><text aria-label="Month: Feb; Metal Plaza Bedfordshire: 181" role="graphics-symbol" aria-roledescription="text mark" text-anchor="middle" transform="translate(216.9,173.3076923076923)" font-family="serif" font-size="13px" fill="#000" opacity="1">181</text><text aria-label="Month: Mar; Metal Plaza Bedfordshire: 59" role="graphics-symbol" aria-roledescription="text mark" text-anchor="middle" transform="translate(361.5,210.84615384615387)" font-family="serif" font-size="13px" fill="#000" opacity="1">59</text><text aria-label="Month: Apr; Metal Plaza Bedfordshire: 603" role="graphics-symbol" aria-roledescription="text mark" text-anchor="middle" transform="translate(506.09999999999997,43.46153846153846)" font-family="serif" font-size="13px" fill="#000" opacity="1">603</text><text aria-label="Month: May; Metal Plaza Bedfordshire: 365" role="graphics-symbol" aria-roledescription="text mark" text-anchor="middle" transform="translate(650.7,116.6923076923077)" font-family="serif" font-size="13px" fill="#000" opacity="1">365</text></g><g class="mark-group role-legend" role="graphics-symbol" aria-roledescription="legend" aria-label="Symbol legend titled 'Oganesson Account male' for fill color and stroke color with 2 values: Investment, kebab Rupee program"><g transform="translate(741,0)"><path class="background" aria-hidden="true" d="M0,0h118v45h-118Z" pointer-events="none"></path><g><g class="mark-group role-legend-entry"><g transform="translate(0,16)"><path class="background" aria-hidden="true" d="M0,0h0v0h0Z" pointer-events="none"></path><g><g class="mark-group role-scope" role="graphics-object" aria-roledescription="group mark container"><g transform="translate(0,0)"><path class="background" aria-hidden="true" d="M0,0h104.30078125v12.5h-104.30078125Z" pointer-events="none" opacity="1"></path><g><g class="mark-symbol role-legend-symbol" pointer-events="none"><path transform="translate(6,6)" d="M5,0A5,5,0,1,1,-5,0A5,5,0,1,1,5,0" fill="#5cdcff" stroke="#5cdcff" stroke-width="1.5" opacity="1"></path></g><g class="mark-text role-legend-label" pointer-events="none"><text text-anchor="start" transform="translate(16,9)" font-family="serif" font-size="10px" fill="#000" opacity="1">Investment</text></g></g><path class="foreground" aria-hidden="true" d="" pointer-events="none" display="none"></path></g><g transform="translate(0,16)"><path class="background" aria-hidden="true" d="M0,0h104.30078125v12.5h-104.30078125Z" pointer-events="none" opacity="1"></path><g><g class="mark-symbol role-legend-symbol" pointer-events="none"><path transform="translate(6,6)" d="M5,0A5,5,0,1,1,-5,0A5,5,0,1,1,5,0" fill="#0eebdb" stroke="#0eebdb" stroke-width="1.5" opacity="1"></path></g><g class="mark-text role-legend-label" pointer-events="none"><text text-anchor="start" transform="translate(16,9)" font-family="serif" font-size="10px" fill="#000" opacity="1">kebab Rupee program</text></g></g><path class="foreground" aria-hidden="true" d="" pointer-events="none" display="none"></path></g></g></g><path class="foreground" aria-hidden="true" d="" pointer-events="none" display="none"></path></g></g><g class="mark-text role-legend-title" pointer-events="none"><text text-anchor="start" transform="translate(0,9)" font-family="serif" font-size="11px" font-weight="bold" fill="#000" opacity="1">Oganesson Account male</text></g></g><path class="foreground" aria-hidden="true" d="" pointer-events="none" display="none"></path></g></g><g class="mark-group role-title"><g transform="translate(859,-29)"><path class="background" aria-hidden="true" d="M0,0h0v0h0Z" pointer-events="none"></path><g><g class="mark-text role-title-text" role="graphics-symbol" aria-roledescription="title" aria-label="Title text 'engineer Chevrolet Bicycle'" pointer-events="none"><text text-anchor="end" transform="translate(0,20)" font-family="serif" font-size="25px" font-weight="bold" fill="#000" opacity="1">engineer Chevrolet Bicycle</text></g></g><path class="foreground" aria-hidden="true" d="" pointer-events="none" display="none"></path></g></g></g><path class="foreground" aria-hidden="true" d="" display="none"></path></g></g></g></svg>