<svg xmlns="http://www.w3.org/2000/svg" xmlns:xlink="http://www.w3.org/1999/xlink" version="1.1" class="marks" width="669" height="259" viewBox="0 0 669 259" style="background-color: rgb(51, 51, 51);"><g fill="none" stroke-miterlimit="10" transform="translate(34,34)"><g class="mark-group role-frame root" role="graphics-object" aria-roledescription="group mark container"><g transform="translate(0,0)"><path class="background" aria-hidden="true" d="M0.5,0.5h630v200h-630Z" fill="transparent" stroke="#ddd"></path><g><g class="mark-group role-axis" aria-hidden="true"><g transform="translate(0.5,200.5)"><path class="background" aria-hidden="true" d="M0,0h0v0h0Z" pointer-events="none"></path><g><g class="mark-rule role-axis-grid" pointer-events="none"><line transform="translate(35,-200)" x2="0" y2="200" stroke="#747474" stroke-width="1" stroke-dasharray="6, 3" opacity="1"></line><line transform="translate(105,-200)" x2="0" y2="200" stroke="#747474" stroke-width="1" stroke-dasharray="6, 3" opacity="1"></line><line transform="translate(175,-200)" x2="0" y2="200" stroke="#747474" stroke-width="1" stroke-dasharray="6, 3" opacity="1"></line><line transform="translate(245,-200)" x2="0" y2="200" stroke="#747474" stroke-width="1" stroke-dasharray="6, 3" opacity="1"></line><line transform="translate(315,-200)" x2="0" y2="200" stroke="#747474" stroke-width="1" stroke-dasharray="6, 3" opacity="1"></line><line transform="translate(385,-200)" x2="0" y2="200" stroke="#747474" stroke-width="1" stroke-dasharray="6, 3" opacity="1"></line><line transform="translate(455,-200)" x2="0" y2="200" stroke="#747474" stroke-width="1" stroke-dasharray="6, 3" opacity="1"></line><line transform="translate(525,-200)" x2="0" y2="200" stroke="#747474" stroke-width="1" stroke-dasharray="6, 3" opacity="1"></line><line transform="translate(595,-200)" x2="0" y2="200" stroke="#747474" stroke-width="1" stroke-dasharray="6, 3" opacity="1"></line></g></g><path class="foreground" aria-hidden="true" d="" pointer-events="none" display="none"></path></g></g><g class="mark-group role-axis" aria-hidden="true"><g transform="translate(0.5,0.5)"><path class="background" aria-hidden="true" d="M0,0h0v0h0Z" pointer-events="none"></path><g><g class="mark-rule role-axis-grid" pointer-events="none"><line transform="translate(0,200)" x2="630" y2="0" stroke="#747474" stroke-width="1" stroke-dasharray="6, 3" opacity="1"></line><line transform="translate(0,169)" x2="630" y2="0" stroke="#747474" stroke-width="1" stroke-dasharray="6, 3" opacity="1"></line><line transform="translate(0,138)" x2="630" y2="0" stroke="#747474" stroke-width="1" stroke-dasharray="6, 3" opacity="1"></line><line transform="translate(0,108)" x2="630" y2="0" stroke="#747474" stroke-width="1" stroke-dasharray="6, 3" opacity="1"></line><line transform="translate(0,77)" x2="630" y2="0" stroke="#747474" stroke-width="1" stroke-dasharray="6, 3" opacity="1"></line><line transform="translate(0,46)" x2="630" y2="0" stroke="#747474" stroke-width="1" stroke-dasharray="6, 3" opacity="1"></line><line transform="translate(0,15)" x2="630" y2="0" stroke="#747474" stroke-width="1" stroke-dasharray="6, 3" opacity="1"></line></g></g><path class="foreground" aria-hidden="true" d="" pointer-events="none" display="none"></path></g></g><g class="mark-group role-axis" role="graphics-symbol" aria-roledescription="axis" aria-label="X-axis for a discrete scale with 9 values: Jan, Feb, Mar, Apr, May, ending with Sep"><g transform="translate(0.5,200.5)"><path class="background" aria-hidden="true" d="M0,0h0v0h0Z" pointer-events="none"></path><g><g class="mark-rule role-axis-tick" pointer-events="none"><line transform="translate(35,0)" x2="0" y2="5" stroke="#888" stroke-width="1" opacity="1"></line><line transform="translate(105,0)" x2="0" y2="5" stroke="#888" stroke-width="1" opacity="1"></line><line transform="translate(175,0)" x2="0" y2="5" stroke="#888" stroke-width="1" opacity="1"></line><line transform="translate(245,0)" x2="0" y2="5" stroke="#888" stroke-width="1" opacity="1"></line><line transform="translate(315,0)" x2="0" y2="5" stroke="#888" stroke-width="1" opacity="1"></line><line transform="translate(385,0)" x2="0" y2="5" stroke="#888" stroke-width="1" opacity="1"></line><line transform="translate(455,0)" x2="0" y2="5" stroke="#888" stroke-width="1" opacity="1"></line><line transform="translate(525,0)" x2="0" y2="5" stroke="#888" stroke-width="1" opacity="1"></line><line transform="translate(595,0)" x2="0" y2="5" stroke="#888" stroke-width="1" opacity="1"></line></g><g class="mark-text role-axis-label" pointer-events="none"><text text-anchor="middle" transform="translate(35,17)" font-family="monospace" font-size="13px" font-weight="normal" fill="#fff" opacity="1">Jan</text><text text-anchor="middle" transform="translate(105,17)" font-family="monospace" font-size="13px" font-weight="normal" fill="#fff" opacity="1">Feb</text><text text-anchor="middle" transform="translate(175,17)" font-family="monospace" font-size="13px" font-weight="normal" fill="#fff" opacity="1">Mar</text><text text-anchor="middle" transform="translate(245,17)" font-family="monospace" font-size="13px" font-weight="normal" fill="#fff" opacity="1">Apr</text><text text-anchor="middle" transform="translate(315,17)" font-family="monospace" font-size="13px" font-weight="normal" fill="#fff" opacity="1">May</text><text text-anchor="middle" transform="translate(385,17)" font-family="monospace" font-size="13px" font-weight="normal" fill="#fff" opacity="1">June</text><text text-anchor="middle" transform="translate(455,17)" font-family="monospace" font-size="13px" font-weight="normal" fill="#fff" opacity="1">July</text><text text-anchor="middle" transform="translate(525,17)" font-family="monospace" font-size="13px" font-weight="normal" fill="#fff" opacity="1">Aug</text><text text-anchor="middle" transform="translate(595,17)" font-family="monospace" font-size="13px" font-weight="normal" fill="#fff" opacity="1">Sep</text></g><g class="mark-rule role-axis-domain" pointer-events="none"><line transform="translate(0,0)" x2="630" y2="0" stroke="#888" stroke-width="1" opacity="1"></line></g></g><path class="foreground" aria-hidden="true" d="" pointer-events="none" display="none"></path></g></g><g class="mark-group role-axis" role="graphics-symbol" aria-roledescription="axis" aria-label="Y-axis for a linear scale with values from 0 to 650"><g transform="translate(0.5,0.5)"><path class="background" aria-hidden="true" d="M0,0h0v0h0Z" pointer-events="none"></path><g><g class="mark-rule role-axis-tick" pointer-events="none"><line transform="translate(0,200)" x2="-5" y2="0" stroke="#888" stroke-width="1" opacity="1"></line><line transform="translate(0,169)" x2="-5" y2="0" stroke="#888" stroke-width="1" opacity="1"></line><line transform="translate(0,138)" x2="-5" y2="0" stroke="#888" stroke-width="1" opacity="1"></line><line transform="translate(0,108)" x2="-5" y2="0" stroke="#888" stroke-width="1" opacity="1"></line><line transform="translate(0,77)" x2="-5" y2="0" stroke="#888" stroke-width="1" opacity="1"></line><line transform="translate(0,46)" x2="-5" y2="0" stroke="#888" stroke-width="1" opacity="1"></line><line transform="translate(0,15)" x2="-5" y2="0" stroke="#888" stroke-width="1" opacity="1"></line></g><g class="mark-text role-axis-label" pointer-events="none"><text text-anchor="end" transform="translate(-7,204)" font-family="monospace" font-size="13px" font-weight="normal" fill="#fff" opacity="1">0</text><text text-anchor="end" transform="translate(-7,173.23076923076923)" font-family="monospace" font-size="13px" font-weight="normal" fill="#fff" opacity="1">100</text><text text-anchor="end" transform="translate(-7,142.46153846153845)" font-family="monospace" font-size="13px" font-weight="normal" fill="#fff" opacity="1">200</text><text text-anchor="end" transform="translate(-7,111.6923076923077)" font-family="monospace" font-size="13px" font-weight="normal" fill="#fff" opacity="1">300</text><text text-anchor="end" transform="translate(-7,80.92307692307692)" font-family="monospace" font-size="13px" font-weight="normal" fill="#fff" opacity="1">400</text><text text-anchor="end" transform="translate(-7,50.153846153846146)" font-family="monospace" font-size="13px" font-weight="normal" fill="#fff" opacity="1">500</text><text text-anchor="end" transform="translate(-7,19.384615384615373)" font-family="monospace" font-size="13px" font-weight="normal" fill="#fff" opacity="1">600</text></g><g class="mark-rule role-axis-domain" pointer-events="none"><line transform="translate(0,200)" x2="0" y2="-200" stroke="#888" stroke-width="1" opacity="1"></line></g></g><path class="foreground" aria-hidden="true" d="" pointer-events="none" display="none"></path></g></g><g class="mark-group role-scope layer_0_pathgroup" role="graphics-object" aria-roledescription="group mark container"><g transform="translate(0,0)"><path class="background" aria-hidden="true" d="M0,0h630v200h-630Z"></path><g><g class="mark-line role-mark layer_0_marks" role="graphics-object" aria-roledescription="line mark container"><path aria-label="Month: Jan; Hayden engineer: 424; female radian: geez Pizza model" role="graphics-symbol" aria-roledescription="line mark" d="M35,69.53846153846155C58.33333333333334,59.02105283033119,81.66666666666669,48.50364412220084,105,77.84615384615385C128.33333333333331,107.18866357010687,151.66666666666666,176.39109172614326,175,180.6153846153846C198.33333333333334,184.83967750462597,221.66666666666669,124.08583512707223,245,117.84615384615384C268.3333333333333,111.60647256523545,291.66666666666663,159.8809523809524,315,136C338.33333333333337,112.1190476190476,361.66666666666674,16.08266304142591,385,22.153846153846146C408.33333333333326,28.225029266266382,431.6666666666666,136.40378006872854,455,154.15384615384616C478.3333333333334,171.90391223896378,501.66666666666674,99.2252936067369,525,60.615384615384606C548.3333333333333,22.005475624032318,571.6666666666666,17.464276273554624,595,12.923076923076927" stroke="#5eaef7" stroke-width="2" stroke-dasharray="1,0"></path></g></g><path class="foreground" aria-hidden="true" d="" display="none"></path></g></g><g class="mark-symbol role-mark layer_1_marks" role="graphics-object" aria-roledescription="symbol mark container"><path aria-label="Month: Jan; Hayden engineer: 424; female radian: geez Pizza model" role="graphics-symbol" aria-roledescription="point" transform="translate(35,69.53846153846155)" d="M2.7386127875258306,0A2.7386127875258306,2.7386127875258306,0,1,1,-2.7386127875258306,0A2.7386127875258306,2.7386127875258306,0,1,1,2.7386127875258306,0" fill="#333333" stroke="#5eaef7" stroke-width="3" opacity="1"></path><path aria-label="Month: Feb; Hayden engineer: 397; female radian: geez Pizza model" role="graphics-symbol" aria-roledescription="point" transform="translate(105,77.84615384615385)" d="M2.7386127875258306,0A2.7386127875258306,2.7386127875258306,0,1,1,-2.7386127875258306,0A2.7386127875258306,2.7386127875258306,0,1,1,2.7386127875258306,0" fill="#333333" stroke="#5eaef7" stroke-width="3" opacity="1"></path><path aria-label="Month: Mar; Hayden engineer: 63; female radian: geez Pizza model" role="graphics-symbol" aria-roledescription="point" transform="translate(175,180.6153846153846)" d="M2.7386127875258306,0A2.7386127875258306,2.7386127875258306,0,1,1,-2.7386127875258306,0A2.7386127875258306,2.7386127875258306,0,1,1,2.7386127875258306,0" fill="#333333" stroke="#5eaef7" stroke-width="3" opacity="1"></path><path aria-label="Month: Apr; Hayden engineer: 267; female radian: geez Pizza model" role="graphics-symbol" aria-roledescription="point" transform="translate(245,117.84615384615384)" d="M2.7386127875258306,0A2.7386127875258306,2.7386127875258306,0,1,1,-2.7386127875258306,0A2.7386127875258306,2.7386127875258306,0,1,1,2.7386127875258306,0" fill="#333333" stroke="#5eaef7" stroke-width="3" opacity="1"></path><path aria-label="Month: May; Hayden engineer: 208; female radian: geez Pizza model" role="graphics-symbol" aria-roledescription="point" transform="translate(315,136)" d="M2.7386127875258306,0A2.7386127875258306,2.7386127875258306,0,1,1,-2.7386127875258306,0A2.7386127875258306,2.7386127875258306,0,1,1,2.7386127875258306,0" fill="#333333" stroke="#5eaef7" stroke-width="3" opacity="1"></path><path aria-label="Month: June; Hayden engineer: 578; female radian: geez Pizza model" role="graphics-symbol" aria-roledescription="point" transform="translate(385,22.153846153846146)" d="M2.7386127875258306,0A2.7386127875258306,2.7386127875258306,0,1,1,-2.7386127875258306,0A2.7386127875258306,2.7386127875258306,0,1,1,2.7386127875258306,0" fill="#333333" stroke="#5eaef7" stroke-width="3" opacity="1"></path><path aria-label="Month: July; Hayden engineer: 149; female radian: geez Pizza model" role="graphics-symbol" aria-roledescription="point" transform="translate(455,154.15384615384616)" d="M2.7386127875258306,0A2.7386127875258306,2.7386127875258306,0,1,1,-2.7386127875258306,0A2.7386127875258306,2.7386127875258306,0,1,1,2.7386127875258306,0" fill="#333333" stroke="#5eaef7" stroke-width="3" opacity="1"></path><path aria-label="Month: Aug; Hayden engineer: 453; female radian: geez Pizza model" role="graphics-symbol" aria-roledescription="point" transform="translate(525,60.615384615384606)" d="M2.7386127875258306,0A2.7386127875258306,2.7386127875258306,0,1,1,-2.7386127875258306,0A2.7386127875258306,2.7386127875258306,0,1,1,2.7386127875258306,0" fill="#333333" stroke="#5eaef7" stroke-width="3" opacity="1"></path><path aria-label="Month: Sep; Hayden engineer: 608; female radian: geez Pizza model" role="graphics-symbol" aria-roledescription="point" transform="translate(595,12.923076923076927)" d="M2.7386127875258306,0A2.7386127875258306,2.7386127875258306,0,1,1,-2.7386127875258306,0A2.7386127875258306,2.7386127875258306,0,1,1,2.7386127875258306,0" fill="#333333" stroke="#5eaef7" stroke-width="3" opacity="1"></path></g><g class="mark-group role-title"><g transform="translate(315,-29)"><path class="background" aria-hidden="true" d="M0,0h0v0h0Z" pointer-events="none"></path><g><g class="mark-text role-title-text" role="graphics-symbol" aria-roledescription="title" aria-label="Title text 'Croatia Dong Tesla'" pointer-events="none"><text text-anchor="middle" transform="translate(0,20)" font-family="monospace" font-size="25px" font-weight="bold" fill="#fff" opacity="1">Croatia Dong Tesla</text></g></g><path class="foreground" aria-hidden="true" d="" pointer-events="none" display="none"></path></g></g></g><path class="foreground" aria-hidden="true" d="" display="none"></path></g></g></g></svg>