<svg xmlns="http://www.w3.org/2000/svg" xmlns:xlink="http://www.w3.org/1999/xlink" version="1.1" class="marks" width="778" height="274" viewBox="0 0 778 274" style="background-color: rgb(51, 51, 51);"><g fill="none" stroke-miterlimit="10" transform="translate(107,43)"><g class="mark-group role-frame root" role="graphics-object" aria-roledescription="group mark container"><g transform="translate(0,0)"><path class="background" aria-hidden="true" d="M0.5,0.5h666v200h-666Z" fill="transparent" stroke="#ddd"></path><g><g class="mark-group role-axis" role="graphics-symbol" aria-roledescription="axis" aria-label="X-axis for a discrete scale with 11 values: Jan, Feb, Mar, Apr, May, ending with Nov"><g transform="translate(0.5,200.5)"><path class="background" aria-hidden="true" d="M0,0h0v0h0Z" pointer-events="none"></path><g><g class="mark-rule role-axis-tick" pointer-events="none"><line transform="translate(30,0)" x2="0" y2="5" stroke="#888" stroke-width="1" opacity="1"></line><line transform="translate(91,0)" x2="0" y2="5" stroke="#888" stroke-width="1" opacity="1"></line><line transform="translate(151,0)" x2="0" y2="5" stroke="#888" stroke-width="1" opacity="1"></line><line transform="translate(212,0)" x2="0" y2="5" stroke="#888" stroke-width="1" opacity="1"></line><line transform="translate(272,0)" x2="0" y2="5" stroke="#888" stroke-width="1" opacity="1"></line><line transform="translate(333,0)" x2="0" y2="5" stroke="#888" stroke-width="1" opacity="1"></line><line transform="translate(394,0)" x2="0" y2="5" stroke="#888" stroke-width="1" opacity="1"></line><line transform="translate(454,0)" x2="0" y2="5" stroke="#888" stroke-width="1" opacity="1"></line><line transform="translate(515,0)" x2="0" y2="5" stroke="#888" stroke-width="1" opacity="1"></line><line transform="translate(575,0)" x2="0" y2="5" stroke="#888" stroke-width="1" opacity="1"></line><line transform="translate(636,0)" x2="0" y2="5" stroke="#888" stroke-width="1" opacity="1"></line></g><g class="mark-text role-axis-label" pointer-events="none"><text text-anchor="middle" transform="translate(30.272727272727252,22)" font-family="Balto" font-size="19px" font-weight="normal" fill="#fff" opacity="1">Jan</text><text text-anchor="middle" transform="translate(90.8181818181818,22)" font-family="Balto" font-size="19px" font-weight="normal" fill="#fff" opacity="1">Feb</text><text text-anchor="middle" transform="translate(151.36363636363635,22)" font-family="Balto" font-size="19px" font-weight="normal" fill="#fff" opacity="1">Mar</text><text text-anchor="middle" transform="translate(211.90909090909088,22)" font-family="Balto" font-size="19px" font-weight="normal" fill="#fff" opacity="1">Apr</text><text text-anchor="middle" transform="translate(272.45454545454544,22)" font-family="Balto" font-size="19px" font-weight="normal" fill="#fff" opacity="1">May</text><text text-anchor="middle" transform="translate(333,22)" font-family="Balto" font-size="19px" font-weight="normal" fill="#fff" opacity="1">June</text><text text-anchor="middle" transform="translate(393.5454545454545,22)" font-family="Balto" font-size="19px" font-weight="normal" fill="#fff" opacity="1">July</text><text text-anchor="middle" transform="translate(454.09090909090907,22)" font-family="Balto" font-size="19px" font-weight="normal" fill="#fff" opacity="1">Aug</text><text text-anchor="middle" transform="translate(514.6363636363636,22)" font-family="Balto" font-size="19px" font-weight="normal" fill="#fff" opacity="1">Sep</text><text text-anchor="middle" transform="translate(575.1818181818181,22)" font-family="Balto" font-size="19px" font-weight="normal" fill="#fff" opacity="1">Oct</text><text text-anchor="middle" transform="translate(635.7272727272727,22)" font-family="Balto" font-size="19px" font-weight="normal" fill="#fff" opacity="1">Nov</text></g><g class="mark-rule role-axis-domain" pointer-events="none"><line transform="translate(0,0)" x2="666" y2="0" stroke="#888" stroke-width="1" opacity="1"></line></g></g><path class="foreground" aria-hidden="true" d="" pointer-events="none" display="none"></path></g></g><g class="mark-group role-axis" role="graphics-symbol" aria-roledescription="axis" aria-label="Y-axis for a linear scale with values from 0 to 800"><g transform="translate(0.5,0.5)"><path class="background" aria-hidden="true" d="M0,0h0v0h0Z" pointer-events="none"></path><g><g class="mark-rule role-axis-tick" pointer-events="none"><line transform="translate(0,200)" x2="-5" y2="0" stroke="#888" stroke-width="1" opacity="1"></line><line transform="translate(0,150)" x2="-5" y2="0" stroke="#888" stroke-width="1" opacity="1"></line><line transform="translate(0,100)" x2="-5" y2="0" stroke="#888" stroke-width="1" opacity="1"></line><line transform="translate(0,50)" x2="-5" y2="0" stroke="#888" stroke-width="1" opacity="1"></line><line transform="translate(0,0)" x2="-5" y2="0" stroke="#888" stroke-width="1" opacity="1"></line></g><g class="mark-text role-axis-label" pointer-events="none"><text text-anchor="end" transform="translate(-7,206)" font-family="Balto" font-size="19px" font-weight="normal" fill="#fff" opacity="1">0</text><text text-anchor="end" transform="translate(-7,156)" font-family="Balto" font-size="19px" font-weight="normal" fill="#fff" opacity="1">200</text><text text-anchor="end" transform="translate(-7,106)" font-family="Balto" font-size="19px" font-weight="normal" fill="#fff" opacity="1">400</text><text text-anchor="end" transform="translate(-7,56)" font-family="Balto" font-size="19px" font-weight="normal" fill="#fff" opacity="1">600</text><text text-anchor="end" transform="translate(-7,6)" font-family="Balto" font-size="19px" font-weight="normal" fill="#fff" opacity="1">800</text></g></g><path class="foreground" aria-hidden="true" d="" pointer-events="none" display="none"></path></g></g><g class="mark-group role-scope layer_0_pathgroup" role="graphics-object" aria-roledescription="group mark container"><g transform="translate(0,0)"><path class="background" aria-hidden="true" d="M0,0h666v200h-666Z"></path><g><g class="mark-line role-mark layer_0_marks" role="graphics-object" aria-roledescription="line mark container"><path aria-label="Month: Jan; integrate SMS ack: 613; Providence: West" role="graphics-symbol" aria-roledescription="line mark" d="M30.272727272727252,46.75L90.8181818181818,182.75L151.36363636363635,176L211.90909090909088,45.24999999999999L272.45454545454544,135.25L333,80.25L393.5454545454545,48.75000000000001L454.09090909090907,71.24999999999999L514.6363636363636,122.25000000000001L575.1818181818181,127.74999999999999L635.7272727272727,24.249999999999993" stroke="#198d0f" stroke-width="2" stroke-dasharray="1,0"></path></g></g><path class="foreground" aria-hidden="true" d="" display="none"></path></g><g transform="translate(0,0)"><path class="background" aria-hidden="true" d="M0,0h666v200h-666Z"></path><g><g class="mark-line role-mark layer_0_marks" role="graphics-object" aria-roledescription="line mark container"><path aria-label="Month: Jan; integrate SMS ack: 243; Providence: connect" role="graphics-symbol" aria-roledescription="line mark" d="M30.272727272727252,139.25L90.8181818181818,89.5L151.36363636363635,103.50000000000001L211.90909090909088,41.99999999999999L272.45454545454544,149.5L333,182.75L393.5454545454545,61.74999999999999L454.09090909090907,144L514.6363636363636,193L575.1818181818181,152.75L635.7272727272727,109.75000000000001" stroke="#1461ab" stroke-width="2" stroke-dasharray="1,0"></path></g></g><path class="foreground" aria-hidden="true" d="" display="none"></path></g></g><g class="mark-symbol role-mark layer_1_marks" role="graphics-object" aria-roledescription="symbol mark container"><path aria-label="Month: Jan; integrate SMS ack: 613; Providence: West" role="graphics-symbol" aria-roledescription="point" transform="translate(30.272727272727252,46.75)" d="M2.7386127875258306,0A2.7386127875258306,2.7386127875258306,0,1,1,-2.7386127875258306,0A2.7386127875258306,2.7386127875258306,0,1,1,2.7386127875258306,0" fill="#333333" stroke="#198d0f" stroke-width="2" opacity="1"></path><path aria-label="Month: Feb; integrate SMS ack: 69; Providence: West" role="graphics-symbol" aria-roledescription="point" transform="translate(90.8181818181818,182.75)" d="M2.7386127875258306,0A2.7386127875258306,2.7386127875258306,0,1,1,-2.7386127875258306,0A2.7386127875258306,2.7386127875258306,0,1,1,2.7386127875258306,0" fill="#333333" stroke="#198d0f" stroke-width="2" opacity="1"></path><path aria-label="Month: Mar; integrate SMS ack: 96; Providence: West" role="graphics-symbol" aria-roledescription="point" transform="translate(151.36363636363635,176)" d="M2.7386127875258306,0A2.7386127875258306,2.7386127875258306,0,1,1,-2.7386127875258306,0A2.7386127875258306,2.7386127875258306,0,1,1,2.7386127875258306,0" fill="#333333" stroke="#198d0f" stroke-width="2" opacity="1"></path><path aria-label="Month: Apr; integrate SMS ack: 619; Providence: West" role="graphics-symbol" aria-roledescription="point" transform="translate(211.90909090909088,45.24999999999999)" d="M2.7386127875258306,0A2.7386127875258306,2.7386127875258306,0,1,1,-2.7386127875258306,0A2.7386127875258306,2.7386127875258306,0,1,1,2.7386127875258306,0" fill="#333333" stroke="#198d0f" stroke-width="2" opacity="1"></path><path aria-label="Month: May; integrate SMS ack: 259; Providence: West" role="graphics-symbol" aria-roledescription="point" transform="translate(272.45454545454544,135.25)" d="M2.7386127875258306,0A2.7386127875258306,2.7386127875258306,0,1,1,-2.7386127875258306,0A2.7386127875258306,2.7386127875258306,0,1,1,2.7386127875258306,0" fill="#333333" stroke="#198d0f" stroke-width="2" opacity="1"></path><path aria-label="Month: June; integrate SMS ack: 479; Providence: West" role="graphics-symbol" aria-roledescription="point" transform="translate(333,80.25)" d="M2.7386127875258306,0A2.7386127875258306,2.7386127875258306,0,1,1,-2.7386127875258306,0A2.7386127875258306,2.7386127875258306,0,1,1,2.7386127875258306,0" fill="#333333" stroke="#198d0f" stroke-width="2" opacity="1"></path><path aria-label="Month: July; integrate SMS ack: 605; Providence: West" role="graphics-symbol" aria-roledescription="point" transform="translate(393.5454545454545,48.75000000000001)" d="M2.7386127875258306,0A2.7386127875258306,2.7386127875258306,0,1,1,-2.7386127875258306,0A2.7386127875258306,2.7386127875258306,0,1,1,2.7386127875258306,0" fill="#333333" stroke="#198d0f" stroke-width="2" opacity="1"></path><path aria-label="Month: Aug; integrate SMS ack: 515; Providence: West" role="graphics-symbol" aria-roledescription="point" transform="translate(454.09090909090907,71.24999999999999)" d="M2.7386127875258306,0A2.7386127875258306,2.7386127875258306,0,1,1,-2.7386127875258306,0A2.7386127875258306,2.7386127875258306,0,1,1,2.7386127875258306,0" fill="#333333" stroke="#198d0f" stroke-width="2" opacity="1"></path><path aria-label="Month: Sep; integrate SMS ack: 311; Providence: West" role="graphics-symbol" aria-roledescription="point" transform="translate(514.6363636363636,122.25000000000001)" d="M2.7386127875258306,0A2.7386127875258306,2.7386127875258306,0,1,1,-2.7386127875258306,0A2.7386127875258306,2.7386127875258306,0,1,1,2.7386127875258306,0" fill="#333333" stroke="#198d0f" stroke-width="2" opacity="1"></path><path aria-label="Month: Oct; integrate SMS ack: 289; Providence: West" role="graphics-symbol" aria-roledescription="point" transform="translate(575.1818181818181,127.74999999999999)" d="M2.7386127875258306,0A2.7386127875258306,2.7386127875258306,0,1,1,-2.7386127875258306,0A2.7386127875258306,2.7386127875258306,0,1,1,2.7386127875258306,0" fill="#333333" stroke="#198d0f" stroke-width="2" opacity="1"></path><path aria-label="Month: Nov; integrate SMS ack: 703; Providence: West" role="graphics-symbol" aria-roledescription="point" transform="translate(635.7272727272727,24.249999999999993)" d="M2.7386127875258306,0A2.7386127875258306,2.7386127875258306,0,1,1,-2.7386127875258306,0A2.7386127875258306,2.7386127875258306,0,1,1,2.7386127875258306,0" fill="#333333" stroke="#198d0f" stroke-width="2" opacity="1"></path><path aria-label="Month: Jan; integrate SMS ack: 243; Providence: connect" role="graphics-symbol" aria-roledescription="point" transform="translate(30.272727272727252,139.25)" d="M2.7386127875258306,0A2.7386127875258306,2.7386127875258306,0,1,1,-2.7386127875258306,0A2.7386127875258306,2.7386127875258306,0,1,1,2.7386127875258306,0" fill="#333333" stroke="#1461ab" stroke-width="2" opacity="1"></path><path aria-label="Month: Feb; integrate SMS ack: 442; Providence: connect" role="graphics-symbol" aria-roledescription="point" transform="translate(90.8181818181818,89.5)" d="M2.7386127875258306,0A2.7386127875258306,2.7386127875258306,0,1,1,-2.7386127875258306,0A2.7386127875258306,2.7386127875258306,0,1,1,2.7386127875258306,0" fill="#333333" stroke="#1461ab" stroke-width="2" opacity="1"></path><path aria-label="Month: Mar; integrate SMS ack: 386; Providence: connect" role="graphics-symbol" aria-roledescription="point" transform="translate(151.36363636363635,103.50000000000001)" d="M2.7386127875258306,0A2.7386127875258306,2.7386127875258306,0,1,1,-2.7386127875258306,0A2.7386127875258306,2.7386127875258306,0,1,1,2.7386127875258306,0" fill="#333333" stroke="#1461ab" stroke-width="2" opacity="1"></path><path aria-label="Month: Apr; integrate SMS ack: 632; Providence: connect" role="graphics-symbol" aria-roledescription="point" transform="translate(211.90909090909088,41.99999999999999)" d="M2.7386127875258306,0A2.7386127875258306,2.7386127875258306,0,1,1,-2.7386127875258306,0A2.7386127875258306,2.7386127875258306,0,1,1,2.7386127875258306,0" fill="#333333" stroke="#1461ab" stroke-width="2" opacity="1"></path><path aria-label="Month: May; integrate SMS ack: 202; Providence: connect" role="graphics-symbol" aria-roledescription="point" transform="translate(272.45454545454544,149.5)" d="M2.7386127875258306,0A2.7386127875258306,2.7386127875258306,0,1,1,-2.7386127875258306,0A2.7386127875258306,2.7386127875258306,0,1,1,2.7386127875258306,0" fill="#333333" stroke="#1461ab" stroke-width="2" opacity="1"></path><path aria-label="Month: June; integrate SMS ack: 69; Providence: connect" role="graphics-symbol" aria-roledescription="point" transform="translate(333,182.75)" d="M2.7386127875258306,0A2.7386127875258306,2.7386127875258306,0,1,1,-2.7386127875258306,0A2.7386127875258306,2.7386127875258306,0,1,1,2.7386127875258306,0" fill="#333333" stroke="#1461ab" stroke-width="2" opacity="1"></path><path aria-label="Month: July; integrate SMS ack: 553; Providence: connect" role="graphics-symbol" aria-roledescription="point" transform="translate(393.5454545454545,61.74999999999999)" d="M2.7386127875258306,0A2.7386127875258306,2.7386127875258306,0,1,1,-2.7386127875258306,0A2.7386127875258306,2.7386127875258306,0,1,1,2.7386127875258306,0" fill="#333333" stroke="#1461ab" stroke-width="2" opacity="1"></path><path aria-label="Month: Aug; integrate SMS ack: 224; Providence: connect" role="graphics-symbol" aria-roledescription="point" transform="translate(454.09090909090907,144)" d="M2.7386127875258306,0A2.7386127875258306,2.7386127875258306,0,1,1,-2.7386127875258306,0A2.7386127875258306,2.7386127875258306,0,1,1,2.7386127875258306,0" fill="#333333" stroke="#1461ab" stroke-width="2" opacity="1"></path><path aria-label="Month: Sep; integrate SMS ack: 28; Providence: connect" role="graphics-symbol" aria-roledescription="point" transform="translate(514.6363636363636,193)" d="M2.7386127875258306,0A2.7386127875258306,2.7386127875258306,0,1,1,-2.7386127875258306,0A2.7386127875258306,2.7386127875258306,0,1,1,2.7386127875258306,0" fill="#333333" stroke="#1461ab" stroke-width="2" opacity="1"></path><path aria-label="Month: Oct; integrate SMS ack: 189; Providence: connect" role="graphics-symbol" aria-roledescription="point" transform="translate(575.1818181818181,152.75)" d="M2.7386127875258306,0A2.7386127875258306,2.7386127875258306,0,1,1,-2.7386127875258306,0A2.7386127875258306,2.7386127875258306,0,1,1,2.7386127875258306,0" fill="#333333" stroke="#1461ab" stroke-width="2" opacity="1"></path><path aria-label="Month: Nov; integrate SMS ack: 361; Providence: connect" role="graphics-symbol" aria-roledescription="point" transform="translate(635.7272727272727,109.75000000000001)" d="M2.7386127875258306,0A2.7386127875258306,2.7386127875258306,0,1,1,-2.7386127875258306,0A2.7386127875258306,2.7386127875258306,0,1,1,2.7386127875258306,0" fill="#333333" stroke="#1461ab" stroke-width="2" opacity="1"></path></g><g class="mark-text role-mark layer_2_marks" role="graphics-object" aria-roledescription="text mark container"><text aria-label="Month: Jan; integrate SMS ack: 613" role="graphics-symbol" aria-roledescription="text mark" text-anchor="middle" transform="translate(30.272727272727252,31.75)" font-family="Balto" font-size="17px" fill="#fff" opacity="1">613</text><text aria-label="Month: Feb; integrate SMS ack: 69" role="graphics-symbol" aria-roledescription="text mark" text-anchor="middle" transform="translate(90.8181818181818,167.75)" font-family="Balto" font-size="17px" fill="#fff" opacity="1">69</text><text aria-label="Month: Mar; integrate SMS ack: 96" role="graphics-symbol" aria-roledescription="text mark" text-anchor="middle" transform="translate(151.36363636363635,161)" font-family="Balto" font-size="17px" fill="#fff" opacity="1">96</text><text aria-label="Month: Apr; integrate SMS ack: 619" role="graphics-symbol" aria-roledescription="text mark" text-anchor="middle" transform="translate(211.90909090909088,30.249999999999993)" font-family="Balto" font-size="17px" fill="#fff" opacity="1">619</text><text aria-label="Month: May; integrate SMS ack: 259" role="graphics-symbol" aria-roledescription="text mark" text-anchor="middle" transform="translate(272.45454545454544,120.25)" font-family="Balto" font-size="17px" fill="#fff" opacity="1">259</text><text aria-label="Month: June; integrate SMS ack: 479" role="graphics-symbol" aria-roledescription="text mark" text-anchor="middle" transform="translate(333,65.25)" font-family="Balto" font-size="17px" fill="#fff" opacity="1">479</text><text aria-label="Month: July; integrate SMS ack: 605" role="graphics-symbol" aria-roledescription="text mark" text-anchor="middle" transform="translate(393.5454545454545,33.75000000000001)" font-family="Balto" font-size="17px" fill="#fff" opacity="1">605</text><text aria-label="Month: Aug; integrate SMS ack: 515" role="graphics-symbol" aria-roledescription="text mark" text-anchor="middle" transform="translate(454.09090909090907,56.249999999999986)" font-family="Balto" font-size="17px" fill="#fff" opacity="1">515</text><text aria-label="Month: Sep; integrate SMS ack: 311" role="graphics-symbol" aria-roledescription="text mark" text-anchor="middle" transform="translate(514.6363636363636,107.25000000000001)" font-family="Balto" font-size="17px" fill="#fff" opacity="1">311</text><text aria-label="Month: Oct; integrate SMS ack: 289" role="graphics-symbol" aria-roledescription="text mark" text-anchor="middle" transform="translate(575.1818181818181,112.74999999999999)" font-family="Balto" font-size="17px" fill="#fff" opacity="1">289</text><text aria-label="Month: Nov; integrate SMS ack: 703" role="graphics-symbol" aria-roledescription="text mark" text-anchor="middle" transform="translate(635.7272727272727,9.249999999999993)" font-family="Balto" font-size="17px" fill="#fff" opacity="1">703</text><text aria-label="Month: Jan; integrate SMS ack: 243" role="graphics-symbol" aria-roledescription="text mark" text-anchor="middle" transform="translate(30.272727272727252,124.25)" font-family="Balto" font-size="17px" fill="#fff" opacity="1">243</text><text aria-label="Month: Feb; integrate SMS ack: 442" role="graphics-symbol" aria-roledescription="text mark" text-anchor="middle" transform="translate(90.8181818181818,74.5)" font-family="Balto" font-size="17px" fill="#fff" opacity="1">442</text><text aria-label="Month: Mar; integrate SMS ack: 386" role="graphics-symbol" aria-roledescription="text mark" text-anchor="middle" transform="translate(151.36363636363635,88.50000000000001)" font-family="Balto" font-size="17px" fill="#fff" opacity="1">386</text><text aria-label="Month: Apr; integrate SMS ack: 632" role="graphics-symbol" aria-roledescription="text mark" text-anchor="middle" transform="translate(211.90909090909088,26.999999999999993)" font-family="Balto" font-size="17px" fill="#fff" opacity="1">632</text><text aria-label="Month: May; integrate SMS ack: 202" role="graphics-symbol" aria-roledescription="text mark" text-anchor="middle" transform="translate(272.45454545454544,134.5)" font-family="Balto" font-size="17px" fill="#fff" opacity="1">202</text><text aria-label="Month: June; integrate SMS ack: 69" role="graphics-symbol" aria-roledescription="text mark" text-anchor="middle" transform="translate(333,167.75)" font-family="Balto" font-size="17px" fill="#fff" opacity="1">69</text><text aria-label="Month: July; integrate SMS ack: 553" role="graphics-symbol" aria-roledescription="text mark" text-anchor="middle" transform="translate(393.5454545454545,46.74999999999999)" font-family="Balto" font-size="17px" fill="#fff" opacity="1">553</text><text aria-label="Month: Aug; integrate SMS ack: 224" role="graphics-symbol" aria-roledescription="text mark" text-anchor="middle" transform="translate(454.09090909090907,129)" font-family="Balto" font-size="17px" fill="#fff" opacity="1">224</text><text aria-label="Month: Sep; integrate SMS ack: 28" role="graphics-symbol" aria-roledescription="text mark" text-anchor="middle" transform="translate(514.6363636363636,178)" font-family="Balto" font-size="17px" fill="#fff" opacity="1">28</text><text aria-label="Month: Oct; integrate SMS ack: 189" role="graphics-symbol" aria-roledescription="text mark" text-anchor="middle" transform="translate(575.1818181818181,137.75)" font-family="Balto" font-size="17px" fill="#fff" opacity="1">189</text><text aria-label="Month: Nov; integrate SMS ack: 361" role="graphics-symbol" aria-roledescription="text mark" text-anchor="middle" transform="translate(635.7272727272727,94.75000000000001)" font-family="Balto" font-size="17px" fill="#fff" opacity="1">361</text></g><g class="mark-group role-legend" role="graphics-symbol" aria-roledescription="legend" aria-label="Symbol legend for stroke color with 2 values: West, connect"><g transform="translate(-102,0)"><path class="background" aria-hidden="true" d="M0,0h48v29h-48Z" pointer-events="none"></path><g><g class="mark-group role-legend-entry"><g transform="translate(0,0)"><path class="background" aria-hidden="true" d="M0,0h0v0h0Z" pointer-events="none"></path><g><g class="mark-group role-scope" role="graphics-object" aria-roledescription="group mark container"><g transform="translate(0,0)"><path class="background" aria-hidden="true" d="M0,0h47.09375v12.5h-47.09375Z" pointer-events="none" opacity="1"></path><g><g class="mark-symbol role-legend-symbol" pointer-events="none"><path transform="translate(6,6)" d="M5,0A5,5,0,1,1,-5,0A5,5,0,1,1,5,0" fill="#333333" stroke="#198d0f" stroke-width="1.5" opacity="1"></path></g><g class="mark-text role-legend-label" pointer-events="none"><text text-anchor="start" transform="translate(16,9)" font-family="Balto" font-size="10px" fill="#fff" opacity="1">West</text></g></g><path class="foreground" aria-hidden="true" d="" pointer-events="none" display="none"></path></g><g transform="translate(0,16)"><path class="background" aria-hidden="true" d="M0,0h47.09375v12.5h-47.09375Z" pointer-events="none" opacity="1"></path><g><g class="mark-symbol role-legend-symbol" pointer-events="none"><path transform="translate(6,6)" d="M5,0A5,5,0,1,1,-5,0A5,5,0,1,1,5,0" fill="#333333" stroke="#1461ab" stroke-width="1.5" opacity="1"></path></g><g class="mark-text role-legend-label" pointer-events="none"><text text-anchor="start" transform="translate(16,9)" font-family="Balto" font-size="10px" fill="#fff" opacity="1">connect</text></g></g><path class="foreground" aria-hidden="true" d="" pointer-events="none" display="none"></path></g></g></g><path class="foreground" aria-hidden="true" d="" pointer-events="none" display="none"></path></g></g></g><path class="foreground" aria-hidden="true" d="" pointer-events="none" display="none"></path></g></g><g class="mark-group role-title"><g transform="translate(666,-38)"><path class="background" aria-hidden="true" d="M0,0h0v0h0Z" pointer-events="none"></path><g><g class="mark-text role-title-text" role="graphics-symbol" aria-roledescription="title" aria-label="Title text 'Wagon'" pointer-events="none"><text text-anchor="end" transform="translate(0,20)" font-family="Balto" font-size="25px" font-weight="bold" fill="#fff" opacity="1">Wagon</text></g></g><path class="foreground" aria-hidden="true" d="" pointer-events="none" display="none"></path></g></g></g><path class="foreground" aria-hidden="true" d="" display="none"></path></g></g></g></svg>