<svg xmlns="http://www.w3.org/2000/svg" xmlns:xlink="http://www.w3.org/1999/xlink" version="1.1" class="marks" width="647" height="296" viewBox="0 0 647 296" style="background-color: rgb(51, 51, 51);"><g fill="none" stroke-miterlimit="10" transform="translate(41,65)"><g class="mark-group role-frame root" role="graphics-object" aria-roledescription="group mark container"><g transform="translate(0,0)"><path class="background" aria-hidden="true" d="M0.5,0.5h601v200h-601Z" fill="transparent" stroke="#ddd"></path><g><g class="mark-group role-axis" aria-hidden="true"><g transform="translate(0.5,0.5)"><path class="background" aria-hidden="true" d="M0,0h0v0h0Z" pointer-events="none"></path><g><g class="mark-rule role-axis-grid" pointer-events="none"><line transform="translate(0,200)" x2="601" y2="0" stroke="#747474" stroke-width="1" stroke-dasharray="4, 2" opacity="1"></line><line transform="translate(0,156)" x2="601" y2="0" stroke="#747474" stroke-width="1" stroke-dasharray="4, 2" opacity="1"></line><line transform="translate(0,111)" x2="601" y2="0" stroke="#747474" stroke-width="1" stroke-dasharray="4, 2" opacity="1"></line><line transform="translate(0,67)" x2="601" y2="0" stroke="#747474" stroke-width="1" stroke-dasharray="4, 2" opacity="1"></line><line transform="translate(0,22)" x2="601" y2="0" stroke="#747474" stroke-width="1" stroke-dasharray="4, 2" opacity="1"></line></g></g><path class="foreground" aria-hidden="true" d="" pointer-events="none" display="none"></path></g></g><g class="mark-group role-axis" role="graphics-symbol" aria-roledescription="axis" aria-label="X-axis for a discrete scale with 10 values: 1945, 1947, 1949, 1951, 1953, ending with 1963"><g transform="translate(0.5,200.5)"><path class="background" aria-hidden="true" d="M0,0h0v0h0Z" pointer-events="none"></path><g><g class="mark-rule role-axis-tick" pointer-events="none"><line transform="translate(30,0)" x2="0" y2="5" stroke="#888" stroke-width="1" opacity="1"></line><line transform="translate(90,0)" x2="0" y2="5" stroke="#888" stroke-width="1" opacity="1"></line><line transform="translate(150,0)" x2="0" y2="5" stroke="#888" stroke-width="1" opacity="1"></line><line transform="translate(210,0)" x2="0" y2="5" stroke="#888" stroke-width="1" opacity="1"></line><line transform="translate(270,0)" x2="0" y2="5" stroke="#888" stroke-width="1" opacity="1"></line><line transform="translate(331,0)" x2="0" y2="5" stroke="#888" stroke-width="1" opacity="1"></line><line transform="translate(391,0)" x2="0" y2="5" stroke="#888" stroke-width="1" opacity="1"></line><line transform="translate(451,0)" x2="0" y2="5" stroke="#888" stroke-width="1" opacity="1"></line><line transform="translate(511,0)" x2="0" y2="5" stroke="#888" stroke-width="1" opacity="1"></line><line transform="translate(571,0)" x2="0" y2="5" stroke="#888" stroke-width="1" opacity="1"></line></g><g class="mark-text role-axis-label" pointer-events="none"><text text-anchor="middle" transform="translate(30.05000000000001,22)" font-family="serif" font-size="19px" font-weight="normal" fill="#fff" opacity="1">1945</text><text text-anchor="middle" transform="translate(90.15,22)" font-family="serif" font-size="19px" font-weight="normal" fill="#fff" opacity="1">1947</text><text text-anchor="middle" transform="translate(150.25,22)" font-family="serif" font-size="19px" font-weight="normal" fill="#fff" opacity="1">1949</text><text text-anchor="middle" transform="translate(210.35000000000002,22)" font-family="serif" font-size="19px" font-weight="normal" fill="#fff" opacity="1">1951</text><text text-anchor="middle" transform="translate(270.45000000000005,22)" font-family="serif" font-size="19px" font-weight="normal" fill="#fff" opacity="1">1953</text><text text-anchor="middle" transform="translate(330.55,22)" font-family="serif" font-size="19px" font-weight="normal" fill="#fff" opacity="1">1955</text><text text-anchor="middle" transform="translate(390.65000000000003,22)" font-family="serif" font-size="19px" font-weight="normal" fill="#fff" opacity="1">1957</text><text text-anchor="middle" transform="translate(450.75,22)" font-family="serif" font-size="19px" font-weight="normal" fill="#fff" opacity="1">1959</text><text text-anchor="middle" transform="translate(510.85,22)" font-family="serif" font-size="19px" font-weight="normal" fill="#fff" opacity="1">1961</text><text text-anchor="middle" transform="translate(570.95,22)" font-family="serif" font-size="19px" font-weight="normal" fill="#fff" opacity="1">1963</text></g><g class="mark-rule role-axis-domain" pointer-events="none"><line transform="translate(0,0)" x2="601" y2="0" stroke="#888" stroke-width="1" opacity="1"></line></g></g><path class="foreground" aria-hidden="true" d="" pointer-events="none" display="none"></path></g></g><g class="mark-group role-axis" role="graphics-symbol" aria-roledescription="axis" aria-label="Y-axis for a linear scale with values from 0 to 900"><g transform="translate(0.5,0.5)"><path class="background" aria-hidden="true" d="M0,0h0v0h0Z" pointer-events="none"></path><g><g class="mark-rule role-axis-tick" pointer-events="none"><line transform="translate(0,200)" x2="-5" y2="0" stroke="#888" stroke-width="1" opacity="1"></line><line transform="translate(0,156)" x2="-5" y2="0" stroke="#888" stroke-width="1" opacity="1"></line><line transform="translate(0,111)" x2="-5" y2="0" stroke="#888" stroke-width="1" opacity="1"></line><line transform="translate(0,67)" x2="-5" y2="0" stroke="#888" stroke-width="1" opacity="1"></line><line transform="translate(0,22)" x2="-5" y2="0" stroke="#888" stroke-width="1" opacity="1"></line></g><g class="mark-text role-axis-label" pointer-events="none"><text text-anchor="end" transform="translate(-7,206)" font-family="serif" font-size="19px" font-weight="normal" fill="#fff" opacity="1">0</text><text text-anchor="end" transform="translate(-7,161.55555555555557)" font-family="serif" font-size="19px" font-weight="normal" fill="#fff" opacity="1">200</text><text text-anchor="end" transform="translate(-7,117.11111111111111)" font-family="serif" font-size="19px" font-weight="normal" fill="#fff" opacity="1">400</text><text text-anchor="end" transform="translate(-7,72.66666666666667)" font-family="serif" font-size="19px" font-weight="normal" fill="#fff" opacity="1">600</text><text text-anchor="end" transform="translate(-7,28.222222222222232)" font-family="serif" font-size="19px" font-weight="normal" fill="#fff" opacity="1">800</text></g></g><path class="foreground" aria-hidden="true" d="" pointer-events="none" display="none"></path></g></g><g class="mark-group role-scope layer_0_pathgroup" role="graphics-object" aria-roledescription="group mark container"><g transform="translate(0,0)"><path class="background" aria-hidden="true" d="M0,0h601v200h-601Z"></path><g><g class="mark-line role-mark layer_0_marks" role="graphics-object" aria-roledescription="line mark container"><path aria-label="Year: 1945; reluctantly male: 105; drive Kroon: Avon" role="graphics-symbol" aria-roledescription="line mark" d="M30.05000000000001,176.66666666666666L90.15,165.55555555555554L150.25,53.11111111111111L210.35000000000002,56.00000000000001L270.45000000000005,140.88888888888889L330.55,73.55555555555556L390.65000000000003,147.33333333333334L450.75,162.44444444444443L510.85,108.66666666666667L570.95,90.44444444444444" stroke="#f3abac" stroke-width="2" stroke-dasharray="1,0"></path></g></g><path class="foreground" aria-hidden="true" d="" display="none"></path></g><g transform="translate(0,0)"><path class="background" aria-hidden="true" d="M0,0h601v200h-601Z"></path><g><g class="mark-line role-mark layer_0_marks" role="graphics-object" aria-roledescription="line mark container"><path aria-label="Year: 1945; reluctantly male: 84; drive Kroon: Metal" role="graphics-symbol" aria-roledescription="line mark" d="M30.05000000000001,181.33333333333331L90.15,121.77777777777776L150.25,154.22222222222223L210.35000000000002,167.77777777777777L270.45000000000005,181.33333333333331L330.55,4.666666666666663L390.65000000000003,108.22222222222221L450.75,193.77777777777777L510.85,43.55555555555555L570.95,68.88888888888889" stroke="#464ada" stroke-width="2" stroke-dasharray="1,0"></path></g></g><path class="foreground" aria-hidden="true" d="" display="none"></path></g></g><g class="mark-symbol role-mark layer_1_marks" role="graphics-object" aria-roledescription="symbol mark container"><path aria-label="Year: 1945; reluctantly male: 105; drive Kroon: Avon" role="graphics-symbol" aria-roledescription="point" transform="translate(30.05000000000001,176.66666666666666)" d="M2.7386127875258306,0A2.7386127875258306,2.7386127875258306,0,1,1,-2.7386127875258306,0A2.7386127875258306,2.7386127875258306,0,1,1,2.7386127875258306,0" fill="#333333" stroke="#f3abac" stroke-width="2" opacity="1"></path><path aria-label="Year: 1947; reluctantly male: 155; drive Kroon: Avon" role="graphics-symbol" aria-roledescription="point" transform="translate(90.15,165.55555555555554)" d="M2.7386127875258306,0A2.7386127875258306,2.7386127875258306,0,1,1,-2.7386127875258306,0A2.7386127875258306,2.7386127875258306,0,1,1,2.7386127875258306,0" fill="#333333" stroke="#f3abac" stroke-width="2" opacity="1"></path><path aria-label="Year: 1949; reluctantly male: 661; drive Kroon: Avon" role="graphics-symbol" aria-roledescription="point" transform="translate(150.25,53.11111111111111)" d="M2.7386127875258306,0A2.7386127875258306,2.7386127875258306,0,1,1,-2.7386127875258306,0A2.7386127875258306,2.7386127875258306,0,1,1,2.7386127875258306,0" fill="#333333" stroke="#f3abac" stroke-width="2" opacity="1"></path><path aria-label="Year: 1951; reluctantly male: 648; drive Kroon: Avon" role="graphics-symbol" aria-roledescription="point" transform="translate(210.35000000000002,56.00000000000001)" d="M2.7386127875258306,0A2.7386127875258306,2.7386127875258306,0,1,1,-2.7386127875258306,0A2.7386127875258306,2.7386127875258306,0,1,1,2.7386127875258306,0" fill="#333333" stroke="#f3abac" stroke-width="2" opacity="1"></path><path aria-label="Year: 1953; reluctantly male: 266; drive Kroon: Avon" role="graphics-symbol" aria-roledescription="point" transform="translate(270.45000000000005,140.88888888888889)" d="M2.7386127875258306,0A2.7386127875258306,2.7386127875258306,0,1,1,-2.7386127875258306,0A2.7386127875258306,2.7386127875258306,0,1,1,2.7386127875258306,0" fill="#333333" stroke="#f3abac" stroke-width="2" opacity="1"></path><path aria-label="Year: 1955; reluctantly male: 569; drive Kroon: Avon" role="graphics-symbol" aria-roledescription="point" transform="translate(330.55,73.55555555555556)" d="M2.7386127875258306,0A2.7386127875258306,2.7386127875258306,0,1,1,-2.7386127875258306,0A2.7386127875258306,2.7386127875258306,0,1,1,2.7386127875258306,0" fill="#333333" stroke="#f3abac" stroke-width="2" opacity="1"></path><path aria-label="Year: 1957; reluctantly male: 237; drive Kroon: Avon" role="graphics-symbol" aria-roledescription="point" transform="translate(390.65000000000003,147.33333333333334)" d="M2.7386127875258306,0A2.7386127875258306,2.7386127875258306,0,1,1,-2.7386127875258306,0A2.7386127875258306,2.7386127875258306,0,1,1,2.7386127875258306,0" fill="#333333" stroke="#f3abac" stroke-width="2" opacity="1"></path><path aria-label="Year: 1959; reluctantly male: 169; drive Kroon: Avon" role="graphics-symbol" aria-roledescription="point" transform="translate(450.75,162.44444444444443)" d="M2.7386127875258306,0A2.7386127875258306,2.7386127875258306,0,1,1,-2.7386127875258306,0A2.7386127875258306,2.7386127875258306,0,1,1,2.7386127875258306,0" fill="#333333" stroke="#f3abac" stroke-width="2" opacity="1"></path><path aria-label="Year: 1961; reluctantly male: 411; drive Kroon: Avon" role="graphics-symbol" aria-roledescription="point" transform="translate(510.85,108.66666666666667)" d="M2.7386127875258306,0A2.7386127875258306,2.7386127875258306,0,1,1,-2.7386127875258306,0A2.7386127875258306,2.7386127875258306,0,1,1,2.7386127875258306,0" fill="#333333" stroke="#f3abac" stroke-width="2" opacity="1"></path><path aria-label="Year: 1963; reluctantly male: 493; drive Kroon: Avon" role="graphics-symbol" aria-roledescription="point" transform="translate(570.95,90.44444444444444)" d="M2.7386127875258306,0A2.7386127875258306,2.7386127875258306,0,1,1,-2.7386127875258306,0A2.7386127875258306,2.7386127875258306,0,1,1,2.7386127875258306,0" fill="#333333" stroke="#f3abac" stroke-width="2" opacity="1"></path><path aria-label="Year: 1945; reluctantly male: 84; drive Kroon: Metal" role="graphics-symbol" aria-roledescription="point" transform="translate(30.05000000000001,181.33333333333331)" d="M2.7386127875258306,0A2.7386127875258306,2.7386127875258306,0,1,1,-2.7386127875258306,0A2.7386127875258306,2.7386127875258306,0,1,1,2.7386127875258306,0" fill="#333333" stroke="#464ada" stroke-width="2" opacity="1"></path><path aria-label="Year: 1947; reluctantly male: 352; drive Kroon: Metal" role="graphics-symbol" aria-roledescription="point" transform="translate(90.15,121.77777777777776)" d="M2.7386127875258306,0A2.7386127875258306,2.7386127875258306,0,1,1,-2.7386127875258306,0A2.7386127875258306,2.7386127875258306,0,1,1,2.7386127875258306,0" fill="#333333" stroke="#464ada" stroke-width="2" opacity="1"></path><path aria-label="Year: 1949; reluctantly male: 206; drive Kroon: Metal" role="graphics-symbol" aria-roledescription="point" transform="translate(150.25,154.22222222222223)" d="M2.7386127875258306,0A2.7386127875258306,2.7386127875258306,0,1,1,-2.7386127875258306,0A2.7386127875258306,2.7386127875258306,0,1,1,2.7386127875258306,0" fill="#333333" stroke="#464ada" stroke-width="2" opacity="1"></path><path aria-label="Year: 1951; reluctantly male: 145; drive Kroon: Metal" role="graphics-symbol" aria-roledescription="point" transform="translate(210.35000000000002,167.77777777777777)" d="M2.7386127875258306,0A2.7386127875258306,2.7386127875258306,0,1,1,-2.7386127875258306,0A2.7386127875258306,2.7386127875258306,0,1,1,2.7386127875258306,0" fill="#333333" stroke="#464ada" stroke-width="2" opacity="1"></path><path aria-label="Year: 1953; reluctantly male: 84; drive Kroon: Metal" role="graphics-symbol" aria-roledescription="point" transform="translate(270.45000000000005,181.33333333333331)" d="M2.7386127875258306,0A2.7386127875258306,2.7386127875258306,0,1,1,-2.7386127875258306,0A2.7386127875258306,2.7386127875258306,0,1,1,2.7386127875258306,0" fill="#333333" stroke="#464ada" stroke-width="2" opacity="1"></path><path aria-label="Year: 1955; reluctantly male: 879; drive Kroon: Metal" role="graphics-symbol" aria-roledescription="point" transform="translate(330.55,4.666666666666663)" d="M2.7386127875258306,0A2.7386127875258306,2.7386127875258306,0,1,1,-2.7386127875258306,0A2.7386127875258306,2.7386127875258306,0,1,1,2.7386127875258306,0" fill="#333333" stroke="#464ada" stroke-width="2" opacity="1"></path><path aria-label="Year: 1957; reluctantly male: 413; drive Kroon: Metal" role="graphics-symbol" aria-roledescription="point" transform="translate(390.65000000000003,108.22222222222221)" d="M2.7386127875258306,0A2.7386127875258306,2.7386127875258306,0,1,1,-2.7386127875258306,0A2.7386127875258306,2.7386127875258306,0,1,1,2.7386127875258306,0" fill="#333333" stroke="#464ada" stroke-width="2" opacity="1"></path><path aria-label="Year: 1959; reluctantly male: 28; drive Kroon: Metal" role="graphics-symbol" aria-roledescription="point" transform="translate(450.75,193.77777777777777)" d="M2.7386127875258306,0A2.7386127875258306,2.7386127875258306,0,1,1,-2.7386127875258306,0A2.7386127875258306,2.7386127875258306,0,1,1,2.7386127875258306,0" fill="#333333" stroke="#464ada" stroke-width="2" opacity="1"></path><path aria-label="Year: 1961; reluctantly male: 704; drive Kroon: Metal" role="graphics-symbol" aria-roledescription="point" transform="translate(510.85,43.55555555555555)" d="M2.7386127875258306,0A2.7386127875258306,2.7386127875258306,0,1,1,-2.7386127875258306,0A2.7386127875258306,2.7386127875258306,0,1,1,2.7386127875258306,0" fill="#333333" stroke="#464ada" stroke-width="2" opacity="1"></path><path aria-label="Year: 1963; reluctantly male: 590; drive Kroon: Metal" role="graphics-symbol" aria-roledescription="point" transform="translate(570.95,68.88888888888889)" d="M2.7386127875258306,0A2.7386127875258306,2.7386127875258306,0,1,1,-2.7386127875258306,0A2.7386127875258306,2.7386127875258306,0,1,1,2.7386127875258306,0" fill="#333333" stroke="#464ada" stroke-width="2" opacity="1"></path></g><g class="mark-text role-mark layer_2_marks" role="graphics-object" aria-roledescription="text mark container"><text aria-label="Year: 1945; reluctantly male: 105" role="graphics-symbol" aria-roledescription="text mark" text-anchor="middle" transform="translate(30.05000000000001,165.66666666666666)" font-family="serif" font-size="13px" fill="#fff" opacity="1">105</text><text aria-label="Year: 1947; reluctantly male: 155" role="graphics-symbol" aria-roledescription="text mark" text-anchor="middle" transform="translate(90.15,154.55555555555554)" font-family="serif" font-size="13px" fill="#fff" opacity="1">155</text><text aria-label="Year: 1949; reluctantly male: 661" role="graphics-symbol" aria-roledescription="text mark" text-anchor="middle" transform="translate(150.25,42.11111111111111)" font-family="serif" font-size="13px" fill="#fff" opacity="1">661</text><text aria-label="Year: 1951; reluctantly male: 648" role="graphics-symbol" aria-roledescription="text mark" text-anchor="middle" transform="translate(210.35000000000002,45.00000000000001)" font-family="serif" font-size="13px" fill="#fff" opacity="1">648</text><text aria-label="Year: 1953; reluctantly male: 266" role="graphics-symbol" aria-roledescription="text mark" text-anchor="middle" transform="translate(270.45000000000005,129.88888888888889)" font-family="serif" font-size="13px" fill="#fff" opacity="1">266</text><text aria-label="Year: 1955; reluctantly male: 569" role="graphics-symbol" aria-roledescription="text mark" text-anchor="middle" transform="translate(330.55,62.55555555555556)" font-family="serif" font-size="13px" fill="#fff" opacity="1">569</text><text aria-label="Year: 1957; reluctantly male: 237" role="graphics-symbol" aria-roledescription="text mark" text-anchor="middle" transform="translate(390.65000000000003,136.33333333333334)" font-family="serif" font-size="13px" fill="#fff" opacity="1">237</text><text aria-label="Year: 1959; reluctantly male: 169" role="graphics-symbol" aria-roledescription="text mark" text-anchor="middle" transform="translate(450.75,151.44444444444443)" font-family="serif" font-size="13px" fill="#fff" opacity="1">169</text><text aria-label="Year: 1961; reluctantly male: 411" role="graphics-symbol" aria-roledescription="text mark" text-anchor="middle" transform="translate(510.85,97.66666666666667)" font-family="serif" font-size="13px" fill="#fff" opacity="1">411</text><text aria-label="Year: 1963; reluctantly male: 493" role="graphics-symbol" aria-roledescription="text mark" text-anchor="middle" transform="translate(570.95,79.44444444444444)" font-family="serif" font-size="13px" fill="#fff" opacity="1">493</text><text aria-label="Year: 1945; reluctantly male: 84" role="graphics-symbol" aria-roledescription="text mark" text-anchor="middle" transform="translate(30.05000000000001,170.33333333333331)" font-family="serif" font-size="13px" fill="#fff" opacity="1">84</text><text aria-label="Year: 1947; reluctantly male: 352" role="graphics-symbol" aria-roledescription="text mark" text-anchor="middle" transform="translate(90.15,110.77777777777776)" font-family="serif" font-size="13px" fill="#fff" opacity="1">352</text><text aria-label="Year: 1949; reluctantly male: 206" role="graphics-symbol" aria-roledescription="text mark" text-anchor="middle" transform="translate(150.25,143.22222222222223)" font-family="serif" font-size="13px" fill="#fff" opacity="1">206</text><text aria-label="Year: 1951; reluctantly male: 145" role="graphics-symbol" aria-roledescription="text mark" text-anchor="middle" transform="translate(210.35000000000002,156.77777777777777)" font-family="serif" font-size="13px" fill="#fff" opacity="1">145</text><text aria-label="Year: 1953; reluctantly male: 84" role="graphics-symbol" aria-roledescription="text mark" text-anchor="middle" transform="translate(270.45000000000005,170.33333333333331)" font-family="serif" font-size="13px" fill="#fff" opacity="1">84</text><text aria-label="Year: 1955; reluctantly male: 879" role="graphics-symbol" aria-roledescription="text mark" text-anchor="middle" transform="translate(330.55,-6.333333333333337)" font-family="serif" font-size="13px" fill="#fff" opacity="1">879</text><text aria-label="Year: 1957; reluctantly male: 413" role="graphics-symbol" aria-roledescription="text mark" text-anchor="middle" transform="translate(390.65000000000003,97.22222222222221)" font-family="serif" font-size="13px" fill="#fff" opacity="1">413</text><text aria-label="Year: 1959; reluctantly male: 28" role="graphics-symbol" aria-roledescription="text mark" text-anchor="middle" transform="translate(450.75,182.77777777777777)" font-family="serif" font-size="13px" fill="#fff" opacity="1">28</text><text aria-label="Year: 1961; reluctantly male: 704" role="graphics-symbol" aria-roledescription="text mark" text-anchor="middle" transform="translate(510.85,32.55555555555555)" font-family="serif" font-size="13px" fill="#fff" opacity="1">704</text><text aria-label="Year: 1963; reluctantly male: 590" role="graphics-symbol" aria-roledescription="text mark" text-anchor="middle" transform="translate(570.95,57.888888888888886)" font-family="serif" font-size="13px" fill="#fff" opacity="1">590</text></g><g class="mark-group role-legend" role="graphics-symbol" aria-roledescription="legend" aria-label="Symbol legend for stroke color with 2 values: Avon, Metal"><g transform="translate(0,-31)"><path class="background" aria-hidden="true" d="M0,0h89v13h-89Z" pointer-events="none"></path><g><g class="mark-group role-legend-entry"><g transform="translate(0,0)"><path class="background" aria-hidden="true" d="M0,0h0v0h0Z" pointer-events="none"></path><g><g class="mark-group role-scope" role="graphics-object" aria-roledescription="group mark container"><g transform="translate(0,0.25)"><path class="background" aria-hidden="true" d="M0,0h37.4794921875v12.5h-37.4794921875Z" pointer-events="none" opacity="1"></path><g><g class="mark-symbol role-legend-symbol" pointer-events="none"><path transform="translate(6,6)" d="M5,0A5,5,0,1,1,-5,0A5,5,0,1,1,5,0" fill="#333333" stroke="#f3abac" stroke-width="1.5" opacity="1"></path></g><g class="mark-text role-legend-label" pointer-events="none"><text text-anchor="start" transform="translate(16,9)" font-family="serif" font-size="10px" fill="#fff" opacity="1">Avon</text></g></g><path class="foreground" aria-hidden="true" d="" pointer-events="none" display="none"></path></g><g transform="translate(49,0.25)"><path class="background" aria-hidden="true" d="M0,0h39.3251953125v12.5h-39.3251953125Z" pointer-events="none" opacity="1"></path><g><g class="mark-symbol role-legend-symbol" pointer-events="none"><path transform="translate(6,6)" d="M5,0A5,5,0,1,1,-5,0A5,5,0,1,1,5,0" fill="#333333" stroke="#464ada" stroke-width="1.5" opacity="1"></path></g><g class="mark-text role-legend-label" pointer-events="none"><text text-anchor="start" transform="translate(16,9)" font-family="serif" font-size="10px" fill="#fff" opacity="1">Metal</text></g></g><path class="foreground" aria-hidden="true" d="" pointer-events="none" display="none"></path></g></g></g><path class="foreground" aria-hidden="true" d="" pointer-events="none" display="none"></path></g></g></g><path class="foreground" aria-hidden="true" d="" pointer-events="none" display="none"></path></g></g><g class="mark-group role-title"><g transform="translate(601,-60)"><path class="background" aria-hidden="true" d="M0,0h0v0h0Z" pointer-events="none"></path><g><g class="mark-text role-title-text" role="graphics-symbol" aria-roledescription="title" aria-label="Title text 'transform Washington exuding'" pointer-events="none"><text text-anchor="end" transform="translate(0,20)" font-family="serif" font-size="25px" font-weight="bold" fill="#fff" opacity="1">transform Washington exuding</text></g></g><path class="foreground" aria-hidden="true" d="" pointer-events="none" display="none"></path></g></g></g><path class="foreground" aria-hidden="true" d="" display="none"></path></g></g></g></svg>