<svg xmlns="http://www.w3.org/2000/svg" xmlns:xlink="http://www.w3.org/1999/xlink" version="1.1" class="marks" width="1000" height="267" viewBox="0 0 1000 267" style="background-color: rgb(51, 51, 51);"><g fill="none" stroke-miterlimit="10" transform="translate(36,38)"><g class="mark-group role-frame root" role="graphics-object" aria-roledescription="group mark container"><g transform="translate(0,0)"><path class="background" aria-hidden="true" d="M0.5,0.5h959v200h-959Z" fill="transparent" stroke="#ddd"></path><g><g class="mark-group role-axis" aria-hidden="true"><g transform="translate(0.5,0.5)"><path class="background" aria-hidden="true" d="M0,0h0v0h0Z" pointer-events="none"></path><g><g class="mark-rule role-axis-grid" pointer-events="none"><line transform="translate(0,200)" x2="959" y2="0" stroke="#747474" stroke-width="1" stroke-dasharray="6, 3" opacity="1"></line><line transform="translate(0,156)" x2="959" y2="0" stroke="#747474" stroke-width="1" stroke-dasharray="6, 3" opacity="1"></line><line transform="translate(0,111)" x2="959" y2="0" stroke="#747474" stroke-width="1" stroke-dasharray="6, 3" opacity="1"></line><line transform="translate(0,67)" x2="959" y2="0" stroke="#747474" stroke-width="1" stroke-dasharray="6, 3" opacity="1"></line><line transform="translate(0,22)" x2="959" y2="0" stroke="#747474" stroke-width="1" stroke-dasharray="6, 3" opacity="1"></line></g></g><path class="foreground" aria-hidden="true" d="" pointer-events="none" display="none"></path></g></g><g class="mark-group role-axis" role="graphics-symbol" aria-roledescription="axis" aria-label="X-axis for a discrete scale with 11 values: Jan, Feb, Mar, Apr, May, ending with Nov"><g transform="translate(0.5,200.5)"><path class="background" aria-hidden="true" d="M0,0h0v0h0Z" pointer-events="none"></path><g><g class="mark-rule role-axis-tick" pointer-events="none"><line transform="translate(44,0)" x2="0" y2="5" stroke="#888" stroke-width="1" opacity="1"></line><line transform="translate(131,0)" x2="0" y2="5" stroke="#888" stroke-width="1" opacity="1"></line><line transform="translate(218,0)" x2="0" y2="5" stroke="#888" stroke-width="1" opacity="1"></line><line transform="translate(305,0)" x2="0" y2="5" stroke="#888" stroke-width="1" opacity="1"></line><line transform="translate(392,0)" x2="0" y2="5" stroke="#888" stroke-width="1" opacity="1"></line><line transform="translate(480,0)" x2="0" y2="5" stroke="#888" stroke-width="1" opacity="1"></line><line transform="translate(567,0)" x2="0" y2="5" stroke="#888" stroke-width="1" opacity="1"></line><line transform="translate(654,0)" x2="0" y2="5" stroke="#888" stroke-width="1" opacity="1"></line><line transform="translate(741,0)" x2="0" y2="5" stroke="#888" stroke-width="1" opacity="1"></line><line transform="translate(828,0)" x2="0" y2="5" stroke="#888" stroke-width="1" opacity="1"></line><line transform="translate(915,0)" x2="0" y2="5" stroke="#888" stroke-width="1" opacity="1"></line></g><g class="mark-text role-axis-label" pointer-events="none"><text text-anchor="middle" transform="translate(43.590909090909065,20)" font-family="sans-serif" font-size="17px" font-weight="normal" fill="#fff" opacity="1">Jan</text><text text-anchor="middle" transform="translate(130.77272727272725,20)" font-family="sans-serif" font-size="17px" font-weight="normal" fill="#fff" opacity="1">Feb</text><text text-anchor="middle" transform="translate(217.95454545454544,20)" font-family="sans-serif" font-size="17px" font-weight="normal" fill="#fff" opacity="1">Mar</text><text text-anchor="middle" transform="translate(305.1363636363636,20)" font-family="sans-serif" font-size="17px" font-weight="normal" fill="#fff" opacity="1">Apr</text><text text-anchor="middle" transform="translate(392.3181818181818,20)" font-family="sans-serif" font-size="17px" font-weight="normal" fill="#fff" opacity="1">May</text><text text-anchor="middle" transform="translate(479.5,20)" font-family="sans-serif" font-size="17px" font-weight="normal" fill="#fff" opacity="1">June</text><text text-anchor="middle" transform="translate(566.6818181818182,20)" font-family="sans-serif" font-size="17px" font-weight="normal" fill="#fff" opacity="1">July</text><text text-anchor="middle" transform="translate(653.8636363636363,20)" font-family="sans-serif" font-size="17px" font-weight="normal" fill="#fff" opacity="1">Aug</text><text text-anchor="middle" transform="translate(741.0454545454545,20)" font-family="sans-serif" font-size="17px" font-weight="normal" fill="#fff" opacity="1">Sep</text><text text-anchor="middle" transform="translate(828.2272727272727,20)" font-family="sans-serif" font-size="17px" font-weight="normal" fill="#fff" opacity="1">Oct</text><text text-anchor="middle" transform="translate(915.409090909091,20)" font-family="sans-serif" font-size="17px" font-weight="normal" fill="#fff" opacity="1">Nov</text></g><g class="mark-rule role-axis-domain" pointer-events="none"><line transform="translate(0,0)" x2="959" y2="0" stroke="#888" stroke-width="1" opacity="1"></line></g></g><path class="foreground" aria-hidden="true" d="" pointer-events="none" display="none"></path></g></g><g class="mark-group role-axis" role="graphics-symbol" aria-roledescription="axis" aria-label="Y-axis for a linear scale with values from 0 to 900"><g transform="translate(0.5,0.5)"><path class="background" aria-hidden="true" d="M0,0h0v0h0Z" pointer-events="none"></path><g><g class="mark-text role-axis-label" pointer-events="none"><text text-anchor="end" transform="translate(-2,205)" font-family="sans-serif" font-size="17px" font-weight="normal" fill="#fff" opacity="1">0</text><text text-anchor="end" transform="translate(-2,160.55555555555557)" font-family="sans-serif" font-size="17px" font-weight="normal" fill="#fff" opacity="1">200</text><text text-anchor="end" transform="translate(-2,116.11111111111111)" font-family="sans-serif" font-size="17px" font-weight="normal" fill="#fff" opacity="1">400</text><text text-anchor="end" transform="translate(-2,71.66666666666667)" font-family="sans-serif" font-size="17px" font-weight="normal" fill="#fff" opacity="1">600</text><text text-anchor="end" transform="translate(-2,27.222222222222232)" font-family="sans-serif" font-size="17px" font-weight="normal" fill="#fff" opacity="1">800</text></g></g><path class="foreground" aria-hidden="true" d="" pointer-events="none" display="none"></path></g></g><g class="mark-group role-scope layer_0_pathgroup" role="graphics-object" aria-roledescription="group mark container"><g transform="translate(0,0)"><path class="background" aria-hidden="true" d="M0,0h959v200h-959Z"></path><g><g class="mark-line role-mark layer_0_marks" role="graphics-object" aria-roledescription="line mark container"><path aria-label="Month: Jan; Organized: 413; Assurance: third Metal" role="graphics-symbol" aria-roledescription="line mark" d="M43.590909090909065,108.22222222222221C72.65151515151513,109.50176868030894,101.71212121212119,110.78131513839567,130.77272727272725,111.55555555555554C159.83333333333331,112.32979597271542,188.8939393939394,112.59873034894845,217.95454545454544,97.55555555555556C247.01515151515147,82.51238076216266,276.0757575757576,52.15709679914391,305.1363636363636,54.666666666666664C334.19696969696963,57.17623653418942,363.25757575757575,92.55066023225372,392.3181818181818,110.00000000000001C421.3787878787879,127.44933976774631,450.4393939393939,126.97359560517457,479.5,92.66666666666667C508.5606060606061,58.35973772815878,537.6212121212122,-9.77837598628527,566.6818181818182,2.6666666666666616C595.7424242424242,15.111709319618594,624.8030303030303,108.13990833996652,653.8636363636363,154.44444444444446C682.9242424242423,200.7489805489224,711.9848484848483,200.32985373753036,741.0454545454545,191.55555555555554C770.1060606060607,182.78125737358073,799.1666666666666,165.65178782102305,828.2272727272727,136.44444444444446C857.2878787878789,107.23710106786585,886.348484848485,65.95188386726625,915.409090909091,24.666666666666657" stroke="#4ad51c" stroke-width="2" stroke-dasharray="1,0"></path></g></g><path class="foreground" aria-hidden="true" d="" display="none"></path></g></g><g class="mark-symbol role-mark layer_1_marks" role="graphics-object" aria-roledescription="symbol mark container"><path aria-label="Month: Jan; Organized: 413; Assurance: third Metal" role="graphics-symbol" aria-roledescription="point" transform="translate(43.590909090909065,108.22222222222221)" d="M2.7386127875258306,0A2.7386127875258306,2.7386127875258306,0,1,1,-2.7386127875258306,0A2.7386127875258306,2.7386127875258306,0,1,1,2.7386127875258306,0" fill="#333333" stroke="#4ad51c" stroke-width="3" opacity="1"></path><path aria-label="Month: Feb; Organized: 398; Assurance: third Metal" role="graphics-symbol" aria-roledescription="point" transform="translate(130.77272727272725,111.55555555555554)" d="M2.7386127875258306,0A2.7386127875258306,2.7386127875258306,0,1,1,-2.7386127875258306,0A2.7386127875258306,2.7386127875258306,0,1,1,2.7386127875258306,0" fill="#333333" stroke="#4ad51c" stroke-width="3" opacity="1"></path><path aria-label="Month: Mar; Organized: 461; Assurance: third Metal" role="graphics-symbol" aria-roledescription="point" transform="translate(217.95454545454544,97.55555555555556)" d="M2.7386127875258306,0A2.7386127875258306,2.7386127875258306,0,1,1,-2.7386127875258306,0A2.7386127875258306,2.7386127875258306,0,1,1,2.7386127875258306,0" fill="#333333" stroke="#4ad51c" stroke-width="3" opacity="1"></path><path aria-label="Month: Apr; Organized: 654; Assurance: third Metal" role="graphics-symbol" aria-roledescription="point" transform="translate(305.1363636363636,54.666666666666664)" d="M2.7386127875258306,0A2.7386127875258306,2.7386127875258306,0,1,1,-2.7386127875258306,0A2.7386127875258306,2.7386127875258306,0,1,1,2.7386127875258306,0" fill="#333333" stroke="#4ad51c" stroke-width="3" opacity="1"></path><path aria-label="Month: May; Organized: 405; Assurance: third Metal" role="graphics-symbol" aria-roledescription="point" transform="translate(392.3181818181818,110.00000000000001)" d="M2.7386127875258306,0A2.7386127875258306,2.7386127875258306,0,1,1,-2.7386127875258306,0A2.7386127875258306,2.7386127875258306,0,1,1,2.7386127875258306,0" fill="#333333" stroke="#4ad51c" stroke-width="3" opacity="1"></path><path aria-label="Month: June; Organized: 483; Assurance: third Metal" role="graphics-symbol" aria-roledescription="point" transform="translate(479.5,92.66666666666667)" d="M2.7386127875258306,0A2.7386127875258306,2.7386127875258306,0,1,1,-2.7386127875258306,0A2.7386127875258306,2.7386127875258306,0,1,1,2.7386127875258306,0" fill="#333333" stroke="#4ad51c" stroke-width="3" opacity="1"></path><path aria-label="Month: July; Organized: 888; Assurance: third Metal" role="graphics-symbol" aria-roledescription="point" transform="translate(566.6818181818182,2.6666666666666616)" d="M2.7386127875258306,0A2.7386127875258306,2.7386127875258306,0,1,1,-2.7386127875258306,0A2.7386127875258306,2.7386127875258306,0,1,1,2.7386127875258306,0" fill="#333333" stroke="#4ad51c" stroke-width="3" opacity="1"></path><path aria-label="Month: Aug; Organized: 205; Assurance: third Metal" role="graphics-symbol" aria-roledescription="point" transform="translate(653.8636363636363,154.44444444444446)" d="M2.7386127875258306,0A2.7386127875258306,2.7386127875258306,0,1,1,-2.7386127875258306,0A2.7386127875258306,2.7386127875258306,0,1,1,2.7386127875258306,0" fill="#333333" stroke="#4ad51c" stroke-width="3" opacity="1"></path><path aria-label="Month: Sep; Organized: 38; Assurance: third Metal" role="graphics-symbol" aria-roledescription="point" transform="translate(741.0454545454545,191.55555555555554)" d="M2.7386127875258306,0A2.7386127875258306,2.7386127875258306,0,1,1,-2.7386127875258306,0A2.7386127875258306,2.7386127875258306,0,1,1,2.7386127875258306,0" fill="#333333" stroke="#4ad51c" stroke-width="3" opacity="1"></path><path aria-label="Month: Oct; Organized: 286; Assurance: third Metal" role="graphics-symbol" aria-roledescription="point" transform="translate(828.2272727272727,136.44444444444446)" d="M2.7386127875258306,0A2.7386127875258306,2.7386127875258306,0,1,1,-2.7386127875258306,0A2.7386127875258306,2.7386127875258306,0,1,1,2.7386127875258306,0" fill="#333333" stroke="#4ad51c" stroke-width="3" opacity="1"></path><path aria-label="Month: Nov; Organized: 789; Assurance: third Metal" role="graphics-symbol" aria-roledescription="point" transform="translate(915.409090909091,24.666666666666657)" d="M2.7386127875258306,0A2.7386127875258306,2.7386127875258306,0,1,1,-2.7386127875258306,0A2.7386127875258306,2.7386127875258306,0,1,1,2.7386127875258306,0" fill="#333333" stroke="#4ad51c" stroke-width="3" opacity="1"></path></g><g class="mark-text role-mark layer_2_marks" role="graphics-object" aria-roledescription="text mark container"><text aria-label="Month: Jan; Organized: 413" role="graphics-symbol" aria-roledescription="text mark" text-anchor="middle" transform="translate(43.590909090909065,137.22222222222223)" font-family="sans-serif" font-size="13px" fill="#fff" opacity="1">413</text><text aria-label="Month: Feb; Organized: 398" role="graphics-symbol" aria-roledescription="text mark" text-anchor="middle" transform="translate(130.77272727272725,140.55555555555554)" font-family="sans-serif" font-size="13px" fill="#fff" opacity="1">398</text><text aria-label="Month: Mar; Organized: 461" role="graphics-symbol" aria-roledescription="text mark" text-anchor="middle" transform="translate(217.95454545454544,126.55555555555556)" font-family="sans-serif" font-size="13px" fill="#fff" opacity="1">461</text><text aria-label="Month: Apr; Organized: 654" role="graphics-symbol" aria-roledescription="text mark" text-anchor="middle" transform="translate(305.1363636363636,83.66666666666666)" font-family="sans-serif" font-size="13px" fill="#fff" opacity="1">654</text><text aria-label="Month: May; Organized: 405" role="graphics-symbol" aria-roledescription="text mark" text-anchor="middle" transform="translate(392.3181818181818,139)" font-family="sans-serif" font-size="13px" fill="#fff" opacity="1">405</text><text aria-label="Month: June; Organized: 483" role="graphics-symbol" aria-roledescription="text mark" text-anchor="middle" transform="translate(479.5,121.66666666666667)" font-family="sans-serif" font-size="13px" fill="#fff" opacity="1">483</text><text aria-label="Month: July; Organized: 888" role="graphics-symbol" aria-roledescription="text mark" text-anchor="middle" transform="translate(566.6818181818182,31.66666666666666)" font-family="sans-serif" font-size="13px" fill="#fff" opacity="1">888</text><text aria-label="Month: Aug; Organized: 205" role="graphics-symbol" aria-roledescription="text mark" text-anchor="middle" transform="translate(653.8636363636363,183.44444444444446)" font-family="sans-serif" font-size="13px" fill="#fff" opacity="1">205</text><text aria-label="Month: Sep; Organized: 38" role="graphics-symbol" aria-roledescription="text mark" text-anchor="middle" transform="translate(741.0454545454545,220.55555555555554)" font-family="sans-serif" font-size="13px" fill="#fff" opacity="1">38</text><text aria-label="Month: Oct; Organized: 286" role="graphics-symbol" aria-roledescription="text mark" text-anchor="middle" transform="translate(828.2272727272727,165.44444444444446)" font-family="sans-serif" font-size="13px" fill="#fff" opacity="1">286</text><text aria-label="Month: Nov; Organized: 789" role="graphics-symbol" aria-roledescription="text mark" text-anchor="middle" transform="translate(915.409090909091,53.66666666666666)" font-family="sans-serif" font-size="13px" fill="#fff" opacity="1">789</text></g><g class="mark-group role-title"><g transform="translate(479.5,-32.07194612085917)"><path class="background" aria-hidden="true" d="M0,0h0v0h0Z" pointer-events="none"></path><g><g class="mark-text role-title-text" role="graphics-symbol" aria-roledescription="title" aria-label="Title text 'Books Wagon middleware'" pointer-events="none"><text text-anchor="middle" transform="translate(0,20)" font-family="sans-serif" font-size="25px" font-weight="bold" fill="#fff" opacity="1">Books Wagon middleware</text></g></g><path class="foreground" aria-hidden="true" d="" pointer-events="none" display="none"></path></g></g></g><path class="foreground" aria-hidden="true" d="" display="none"></path></g></g></g></svg>