<svg xmlns="http://www.w3.org/2000/svg" xmlns:xlink="http://www.w3.org/1999/xlink" version="1.1" class="marks" width="919" height="266" viewBox="0 0 919 266" style="background-color: rgb(255, 255, 255);"><g fill="none" stroke-miterlimit="10" transform="translate(21,40)"><g class="mark-group role-frame root" role="graphics-object" aria-roledescription="group mark container"><g transform="translate(0,0)"><path class="background" aria-hidden="true" d="M0.5,0.5h893v200h-893Z" fill="transparent" stroke="#ddd"></path><g><g class="mark-group role-axis" aria-hidden="true"><g transform="translate(0.5,0.5)"><path class="background" aria-hidden="true" d="M0,0h0v0h0Z" pointer-events="none"></path><g><g class="mark-rule role-axis-grid" pointer-events="none"><line transform="translate(0,200)" x2="893" y2="0" stroke="#D0D0D0" stroke-width="1" stroke-dasharray="1,0" opacity="1"></line><line transform="translate(0,169)" x2="893" y2="0" stroke="#D0D0D0" stroke-width="1" stroke-dasharray="1,0" opacity="1"></line><line transform="translate(0,138)" x2="893" y2="0" stroke="#D0D0D0" stroke-width="1" stroke-dasharray="1,0" opacity="1"></line><line transform="translate(0,108)" x2="893" y2="0" stroke="#D0D0D0" stroke-width="1" stroke-dasharray="1,0" opacity="1"></line><line transform="translate(0,77)" x2="893" y2="0" stroke="#D0D0D0" stroke-width="1" stroke-dasharray="1,0" opacity="1"></line><line transform="translate(0,46)" x2="893" y2="0" stroke="#D0D0D0" stroke-width="1" stroke-dasharray="1,0" opacity="1"></line><line transform="translate(0,15)" x2="893" y2="0" stroke="#D0D0D0" stroke-width="1" stroke-dasharray="1,0" opacity="1"></line></g></g><path class="foreground" aria-hidden="true" d="" pointer-events="none" display="none"></path></g></g><g class="mark-group role-axis" role="graphics-symbol" aria-roledescription="axis" aria-label="X-axis for a discrete scale with 10 values: 1838, 1839, 1840, 1841, 1842, ending with 1847"><g transform="translate(0.5,200.5)"><path class="background" aria-hidden="true" d="M0,0h0v0h0Z" pointer-events="none"></path><g><g class="mark-rule role-axis-tick" pointer-events="none"><line transform="translate(45,0)" x2="0" y2="5" stroke="#888" stroke-width="1" opacity="1"></line><line transform="translate(134,0)" x2="0" y2="5" stroke="#888" stroke-width="1" opacity="1"></line><line transform="translate(223,0)" x2="0" y2="5" stroke="#888" stroke-width="1" opacity="1"></line><line transform="translate(313,0)" x2="0" y2="5" stroke="#888" stroke-width="1" opacity="1"></line><line transform="translate(402,0)" x2="0" y2="5" stroke="#888" stroke-width="1" opacity="1"></line><line transform="translate(491,0)" x2="0" y2="5" stroke="#888" stroke-width="1" opacity="1"></line><line transform="translate(580,0)" x2="0" y2="5" stroke="#888" stroke-width="1" opacity="1"></line><line transform="translate(670,0)" x2="0" y2="5" stroke="#888" stroke-width="1" opacity="1"></line><line transform="translate(759,0)" x2="0" y2="5" stroke="#888" stroke-width="1" opacity="1"></line><line transform="translate(848,0)" x2="0" y2="5" stroke="#888" stroke-width="1" opacity="1"></line></g><g class="mark-text role-axis-label" pointer-events="none"><text text-anchor="middle" transform="translate(44.650000000000034,18)" font-family="avenir" font-size="14px" font-weight="normal" fill="#000" opacity="1">1838</text><text text-anchor="middle" transform="translate(133.95000000000005,18)" font-family="avenir" font-size="14px" font-weight="normal" fill="#000" opacity="1">1839</text><text text-anchor="middle" transform="translate(223.25000000000003,18)" font-family="avenir" font-size="14px" font-weight="normal" fill="#000" opacity="1">1840</text><text text-anchor="middle" transform="translate(312.55,18)" font-family="avenir" font-size="14px" font-weight="normal" fill="#000" opacity="1">1841</text><text text-anchor="middle" transform="translate(401.85,18)" font-family="avenir" font-size="14px" font-weight="normal" fill="#000" opacity="1">1842</text><text text-anchor="middle" transform="translate(491.15000000000003,18)" font-family="avenir" font-size="14px" font-weight="normal" fill="#000" opacity="1">1843</text><text text-anchor="middle" transform="translate(580.45,18)" font-family="avenir" font-size="14px" font-weight="normal" fill="#000" opacity="1">1844</text><text text-anchor="middle" transform="translate(669.75,18)" font-family="avenir" font-size="14px" font-weight="normal" fill="#000" opacity="1">1845</text><text text-anchor="middle" transform="translate(759.05,18)" font-family="avenir" font-size="14px" font-weight="normal" fill="#000" opacity="1">1846</text><text text-anchor="middle" transform="translate(848.3499999999999,18)" font-family="avenir" font-size="14px" font-weight="normal" fill="#000" opacity="1">1847</text></g><g class="mark-rule role-axis-domain" pointer-events="none"><line transform="translate(0,0)" x2="893" y2="0" stroke="#888" stroke-width="1" opacity="1"></line></g></g><path class="foreground" aria-hidden="true" d="" pointer-events="none" display="none"></path></g></g><g class="mark-group role-axis" role="graphics-symbol" aria-roledescription="axis" aria-label="Y-axis for a linear scale with values from 0 to 13"><g transform="translate(0.5,0.5)"><path class="background" aria-hidden="true" d="M0,0h0v0h0Z" pointer-events="none"></path><g><g class="mark-text role-axis-label" pointer-events="none"><text text-anchor="end" transform="translate(-2,204)" font-family="avenir" font-size="14px" font-weight="normal" fill="#000" opacity="1">0</text><text text-anchor="end" transform="translate(-2,173.23076923076923)" font-family="avenir" font-size="14px" font-weight="normal" fill="#000" opacity="1">2</text><text text-anchor="end" transform="translate(-2,142.46153846153845)" font-family="avenir" font-size="14px" font-weight="normal" fill="#000" opacity="1">4</text><text text-anchor="end" transform="translate(-2,111.6923076923077)" font-family="avenir" font-size="14px" font-weight="normal" fill="#000" opacity="1">6</text><text text-anchor="end" transform="translate(-2,80.92307692307692)" font-family="avenir" font-size="14px" font-weight="normal" fill="#000" opacity="1">8</text><text text-anchor="end" transform="translate(-2,50.153846153846146)" font-family="avenir" font-size="14px" font-weight="normal" fill="#000" opacity="1">10</text><text text-anchor="end" transform="translate(-2,19.384615384615373)" font-family="avenir" font-size="14px" font-weight="normal" fill="#000" opacity="1">12</text></g></g><path class="foreground" aria-hidden="true" d="" pointer-events="none" display="none"></path></g></g><g class="mark-group role-scope layer_0_pathgroup" role="graphics-object" aria-roledescription="group mark container"><g transform="translate(0,0)"><path class="background" aria-hidden="true" d="M0,0h893v200h-893Z"></path><g><g class="mark-line role-mark layer_0_marks" role="graphics-object" aria-roledescription="line mark container"><path aria-label="Year: 1838; Promethium Hybrid Wagon: 1; proactive withdrawal: Bronze" role="graphics-symbol" aria-roledescription="line mark" d="M44.650000000000034,184.6153846153846C74.41666666666671,89.9589250310671,104.1833333333334,-4.697534553250421,133.95000000000005,0C163.7166666666667,4.697534553250421,193.48333333333338,108.7490632440688,223.25000000000003,153.84615384615384C253.01666666666668,198.9432444482389,282.7833333333334,185.0858969615906,312.55,184.6153846153846C342.3166666666666,184.14487226917862,372.0833333333333,197.06119506341483,401.85,169.23076923076923C431.61666666666673,141.40034339812362,461.38333333333344,72.82316893859621,491.15000000000003,76.92307692307692C520.9166666666666,81.02298490755763,550.6833333333334,157.79997533604637,580.45,184.6153846153846C610.2166666666667,211.43079389472285,639.9833333333332,188.28462202491056,669.75,138.46153846153845C699.5166666666668,88.63845489816633,729.2833333333332,12.138459641234324,759.05,15.384615384615374C788.8166666666667,18.630771127996425,818.5833333333333,101.62307787169053,848.3499999999999,184.6153846153846" stroke="#1092ee" stroke-width="2" stroke-dasharray="1,0"></path></g></g><path class="foreground" aria-hidden="true" d="" display="none"></path></g></g><g class="mark-symbol role-mark layer_1_marks" role="graphics-object" aria-roledescription="symbol mark container"><path aria-label="Year: 1838; Promethium Hybrid Wagon: 1; proactive withdrawal: Bronze" role="graphics-symbol" aria-roledescription="point" transform="translate(44.650000000000034,184.6153846153846)" d="M5.172040216394301,0A5.172040216394301,5.172040216394301,0,1,1,-5.172040216394301,0A5.172040216394301,5.172040216394301,0,1,1,5.172040216394301,0" fill="#1092ee" stroke-width="3" opacity="1"></path><path aria-label="Year: 1839; Promethium Hybrid Wagon: 13; proactive withdrawal: Bronze" role="graphics-symbol" aria-roledescription="point" transform="translate(133.95000000000005,0)" d="M5.172040216394301,0A5.172040216394301,5.172040216394301,0,1,1,-5.172040216394301,0A5.172040216394301,5.172040216394301,0,1,1,5.172040216394301,0" fill="#1092ee" stroke-width="3" opacity="1"></path><path aria-label="Year: 1840; Promethium Hybrid Wagon: 3; proactive withdrawal: Bronze" role="graphics-symbol" aria-roledescription="point" transform="translate(223.25000000000003,153.84615384615384)" d="M5.172040216394301,0A5.172040216394301,5.172040216394301,0,1,1,-5.172040216394301,0A5.172040216394301,5.172040216394301,0,1,1,5.172040216394301,0" fill="#1092ee" stroke-width="3" opacity="1"></path><path aria-label="Year: 1841; Promethium Hybrid Wagon: 1; proactive withdrawal: Bronze" role="graphics-symbol" aria-roledescription="point" transform="translate(312.55,184.6153846153846)" d="M5.172040216394301,0A5.172040216394301,5.172040216394301,0,1,1,-5.172040216394301,0A5.172040216394301,5.172040216394301,0,1,1,5.172040216394301,0" fill="#1092ee" stroke-width="3" opacity="1"></path><path aria-label="Year: 1842; Promethium Hybrid Wagon: 2; proactive withdrawal: Bronze" role="graphics-symbol" aria-roledescription="point" transform="translate(401.85,169.23076923076923)" d="M5.172040216394301,0A5.172040216394301,5.172040216394301,0,1,1,-5.172040216394301,0A5.172040216394301,5.172040216394301,0,1,1,5.172040216394301,0" fill="#1092ee" stroke-width="3" opacity="1"></path><path aria-label="Year: 1843; Promethium Hybrid Wagon: 8; proactive withdrawal: Bronze" role="graphics-symbol" aria-roledescription="point" transform="translate(491.15000000000003,76.92307692307692)" d="M5.172040216394301,0A5.172040216394301,5.172040216394301,0,1,1,-5.172040216394301,0A5.172040216394301,5.172040216394301,0,1,1,5.172040216394301,0" fill="#1092ee" stroke-width="3" opacity="1"></path><path aria-label="Year: 1844; Promethium Hybrid Wagon: 1; proactive withdrawal: Bronze" role="graphics-symbol" aria-roledescription="point" transform="translate(580.45,184.6153846153846)" d="M5.172040216394301,0A5.172040216394301,5.172040216394301,0,1,1,-5.172040216394301,0A5.172040216394301,5.172040216394301,0,1,1,5.172040216394301,0" fill="#1092ee" stroke-width="3" opacity="1"></path><path aria-label="Year: 1845; Promethium Hybrid Wagon: 4; proactive withdrawal: Bronze" role="graphics-symbol" aria-roledescription="point" transform="translate(669.75,138.46153846153845)" d="M5.172040216394301,0A5.172040216394301,5.172040216394301,0,1,1,-5.172040216394301,0A5.172040216394301,5.172040216394301,0,1,1,5.172040216394301,0" fill="#1092ee" stroke-width="3" opacity="1"></path><path aria-label="Year: 1846; Promethium Hybrid Wagon: 12; proactive withdrawal: Bronze" role="graphics-symbol" aria-roledescription="point" transform="translate(759.05,15.384615384615374)" d="M5.172040216394301,0A5.172040216394301,5.172040216394301,0,1,1,-5.172040216394301,0A5.172040216394301,5.172040216394301,0,1,1,5.172040216394301,0" fill="#1092ee" stroke-width="3" opacity="1"></path><path aria-label="Year: 1847; Promethium Hybrid Wagon: 1; proactive withdrawal: Bronze" role="graphics-symbol" aria-roledescription="point" transform="translate(848.3499999999999,184.6153846153846)" d="M5.172040216394301,0A5.172040216394301,5.172040216394301,0,1,1,-5.172040216394301,0A5.172040216394301,5.172040216394301,0,1,1,5.172040216394301,0" fill="#1092ee" stroke-width="3" opacity="1"></path></g><g class="mark-group role-title"><g transform="translate(893,-34.1720402163943)"><path class="background" aria-hidden="true" d="M0,0h0v0h0Z" pointer-events="none"></path><g><g class="mark-text role-title-text" role="graphics-symbol" aria-roledescription="title" aria-label="Title text 'Smart PNG'" pointer-events="none"><text text-anchor="end" transform="translate(0,20)" font-family="avenir" font-size="25px" font-weight="bold" fill="#000" opacity="1">Smart PNG</text></g></g><path class="foreground" aria-hidden="true" d="" pointer-events="none" display="none"></path></g></g></g><path class="foreground" aria-hidden="true" d="" display="none"></path></g></g></g></svg>