<svg xmlns="http://www.w3.org/2000/svg" xmlns:xlink="http://www.w3.org/1999/xlink" version="1.1" class="marks" width="640" height="284" viewBox="0 0 640 284" style="background-color: rgb(255, 255, 255);"><g fill="none" stroke-miterlimit="10" transform="translate(26,34)"><g class="mark-group role-frame root" role="graphics-object" aria-roledescription="group mark container"><g transform="translate(0,0)"><path class="background" aria-hidden="true" d="M0.5,0.5h609v200h-609Z" fill="transparent" stroke="#ddd"></path><g><g class="mark-group role-axis" aria-hidden="true"><g transform="translate(0.5,0.5)"><path class="background" aria-hidden="true" d="M0,0h0v0h0Z" pointer-events="none"></path><g><g class="mark-rule role-axis-grid" pointer-events="none"><line transform="translate(0,200)" x2="609" y2="0" stroke="#D0D0D0" stroke-width="1" stroke-dasharray="1,0" opacity="1"></line><line transform="translate(0,169)" x2="609" y2="0" stroke="#D0D0D0" stroke-width="1" stroke-dasharray="1,0" opacity="1"></line><line transform="translate(0,138)" x2="609" y2="0" stroke="#D0D0D0" stroke-width="1" stroke-dasharray="1,0" opacity="1"></line><line transform="translate(0,108)" x2="609" y2="0" stroke="#D0D0D0" stroke-width="1" stroke-dasharray="1,0" opacity="1"></line><line transform="translate(0,77)" x2="609" y2="0" stroke="#D0D0D0" stroke-width="1" stroke-dasharray="1,0" opacity="1"></line><line transform="translate(0,46)" x2="609" y2="0" stroke="#D0D0D0" stroke-width="1" stroke-dasharray="1,0" opacity="1"></line><line transform="translate(0,15)" x2="609" y2="0" stroke="#D0D0D0" stroke-width="1" stroke-dasharray="1,0" opacity="1"></line></g></g><path class="foreground" aria-hidden="true" d="" pointer-events="none" display="none"></path></g></g><g class="mark-group role-axis" role="graphics-symbol" aria-roledescription="axis" aria-label="X-axis for a discrete scale with 5 values: 1901, 1902, 1903, 1904, 1905"><g transform="translate(0.5,200.5)"><path class="background" aria-hidden="true" d="M0,0h0v0h0Z" pointer-events="none"></path><g><g class="mark-rule role-axis-tick" pointer-events="none"><line transform="translate(61,0)" x2="0" y2="5" stroke="#888" stroke-width="1" opacity="1"></line><line transform="translate(183,0)" x2="0" y2="5" stroke="#888" stroke-width="1" opacity="1"></line><line transform="translate(305,0)" x2="0" y2="5" stroke="#888" stroke-width="1" opacity="1"></line><line transform="translate(426,0)" x2="0" y2="5" stroke="#888" stroke-width="1" opacity="1"></line><line transform="translate(548,0)" x2="0" y2="5" stroke="#888" stroke-width="1" opacity="1"></line></g><g class="mark-text role-axis-label" pointer-events="none"><text text-anchor="start" transform="translate(60.900000000000006,7) rotate(90) translate(0,6)" font-family="serif" font-size="19px" font-weight="normal" fill="#000" opacity="1">1901</text><text text-anchor="start" transform="translate(182.7,7) rotate(90) translate(0,6)" font-family="serif" font-size="19px" font-weight="normal" fill="#000" opacity="1">1902</text><text text-anchor="start" transform="translate(304.5,7) rotate(90) translate(0,6)" font-family="serif" font-size="19px" font-weight="normal" fill="#000" opacity="1">1903</text><text text-anchor="start" transform="translate(426.29999999999995,7) rotate(90) translate(0,6)" font-family="serif" font-size="19px" font-weight="normal" fill="#000" opacity="1">1904</text><text text-anchor="start" transform="translate(548.1,7) rotate(90) translate(0,6)" font-family="serif" font-size="19px" font-weight="normal" fill="#000" opacity="1">1905</text></g><g class="mark-rule role-axis-domain" pointer-events="none"><line transform="translate(0,0)" x2="609" y2="0" stroke="#888" stroke-width="1" opacity="1"></line></g></g><path class="foreground" aria-hidden="true" d="" pointer-events="none" display="none"></path></g></g><g class="mark-group role-axis" role="graphics-symbol" aria-roledescription="axis" aria-label="Y-axis for a linear scale with values from 0 to 650"><g transform="translate(0.5,0.5)"><path class="background" aria-hidden="true" d="M0,0h0v0h0Z" pointer-events="none"></path><g><g class="mark-text role-axis-label" pointer-events="none"><text text-anchor="middle" transform="translate(-2,200) rotate(90) translate(0,15)" font-family="serif" font-size="19px" font-weight="normal" fill="#000" opacity="1">0</text><text text-anchor="middle" transform="translate(-2,169.23076923076923) rotate(90) translate(0,15)" font-family="serif" font-size="19px" font-weight="normal" fill="#000" opacity="1">100</text><text text-anchor="middle" transform="translate(-2,138.46153846153845) rotate(90) translate(0,15)" font-family="serif" font-size="19px" font-weight="normal" fill="#000" opacity="1">200</text><text text-anchor="middle" transform="translate(-2,107.6923076923077) rotate(90) translate(0,15)" font-family="serif" font-size="19px" font-weight="normal" fill="#000" opacity="1">300</text><text text-anchor="middle" transform="translate(-2,76.92307692307692) rotate(90) translate(0,15)" font-family="serif" font-size="19px" font-weight="normal" fill="#000" opacity="1">400</text><text text-anchor="middle" transform="translate(-2,46.153846153846146) rotate(90) translate(0,15)" font-family="serif" font-size="19px" font-weight="normal" fill="#000" opacity="1">500</text><text text-anchor="middle" transform="translate(-2,15.384615384615374) rotate(90) translate(0,15)" font-family="serif" font-size="19px" font-weight="normal" fill="#000" opacity="1">600</text></g><g class="mark-rule role-axis-domain" pointer-events="none"><line transform="translate(0,200)" x2="0" y2="-200" stroke="#888" stroke-width="1" opacity="1"></line></g></g><path class="foreground" aria-hidden="true" d="" pointer-events="none" display="none"></path></g></g><g class="mark-group role-scope layer_0_pathgroup" role="graphics-object" aria-roledescription="group mark container"><g transform="translate(0,0)"><path class="background" aria-hidden="true" d="M0,0h609v200h-609Z"></path><g><g class="mark-line role-mark layer_0_marks" role="graphics-object" aria-roledescription="line mark container"><path aria-label="Year: 1901; Electric withdrawal CLI: 627; consistency Gasoline Toyota: female ford" role="graphics-symbol" aria-roledescription="line mark" d="M60.900000000000006,7.0769230769230695C101.49999999999996,15.972527472527467,142.09999999999994,24.86813186813187,182.7,41.230769230769226C223.30000000000004,57.593406593406584,263.9000000000001,81.42307692307692,304.5,90.15384615384616C345.0999999999999,98.8846153846154,385.69999999999993,92.51648351648352,426.29999999999995,92C466.9,91.48351648351648,507.5,96.81868131868131,548.1,102.15384615384615" stroke="#8a94b7" stroke-width="2" stroke-dasharray="1,0"></path></g></g><path class="foreground" aria-hidden="true" d="" display="none"></path></g></g><g class="mark-symbol role-mark layer_1_marks" role="graphics-object" aria-roledescription="symbol mark container"><path aria-label="Year: 1901; Electric withdrawal CLI: 627; consistency Gasoline Toyota: female ford" role="graphics-symbol" aria-roledescription="point" transform="translate(60.900000000000006,7.0769230769230695)" d="M2.7386127875258306,0A2.7386127875258306,2.7386127875258306,0,1,1,-2.7386127875258306,0A2.7386127875258306,2.7386127875258306,0,1,1,2.7386127875258306,0" fill="#fff" stroke="#8a94b7" stroke-width="2" opacity="1"></path><path aria-label="Year: 1902; Electric withdrawal CLI: 516; consistency Gasoline Toyota: female ford" role="graphics-symbol" aria-roledescription="point" transform="translate(182.7,41.230769230769226)" d="M2.7386127875258306,0A2.7386127875258306,2.7386127875258306,0,1,1,-2.7386127875258306,0A2.7386127875258306,2.7386127875258306,0,1,1,2.7386127875258306,0" fill="#fff" stroke="#8a94b7" stroke-width="2" opacity="1"></path><path aria-label="Year: 1903; Electric withdrawal CLI: 357; consistency Gasoline Toyota: female ford" role="graphics-symbol" aria-roledescription="point" transform="translate(304.5,90.15384615384616)" d="M2.7386127875258306,0A2.7386127875258306,2.7386127875258306,0,1,1,-2.7386127875258306,0A2.7386127875258306,2.7386127875258306,0,1,1,2.7386127875258306,0" fill="#fff" stroke="#8a94b7" stroke-width="2" opacity="1"></path><path aria-label="Year: 1904; Electric withdrawal CLI: 351; consistency Gasoline Toyota: female ford" role="graphics-symbol" aria-roledescription="point" transform="translate(426.29999999999995,92)" d="M2.7386127875258306,0A2.7386127875258306,2.7386127875258306,0,1,1,-2.7386127875258306,0A2.7386127875258306,2.7386127875258306,0,1,1,2.7386127875258306,0" fill="#fff" stroke="#8a94b7" stroke-width="2" opacity="1"></path><path aria-label="Year: 1905; Electric withdrawal CLI: 318; consistency Gasoline Toyota: female ford" role="graphics-symbol" aria-roledescription="point" transform="translate(548.1,102.15384615384615)" d="M2.7386127875258306,0A2.7386127875258306,2.7386127875258306,0,1,1,-2.7386127875258306,0A2.7386127875258306,2.7386127875258306,0,1,1,2.7386127875258306,0" fill="#fff" stroke="#8a94b7" stroke-width="2" opacity="1"></path></g><g class="mark-text role-mark layer_2_marks" role="graphics-object" aria-roledescription="text mark container"><text aria-label="Year: 1901; Electric withdrawal CLI: 627" role="graphics-symbol" aria-roledescription="text mark" text-anchor="middle" transform="translate(60.900000000000006,30.07692307692307)" font-family="serif" font-size="11px" fill="#000" opacity="1">627</text><text aria-label="Year: 1902; Electric withdrawal CLI: 516" role="graphics-symbol" aria-roledescription="text mark" text-anchor="middle" transform="translate(182.7,64.23076923076923)" font-family="serif" font-size="11px" fill="#000" opacity="1">516</text><text aria-label="Year: 1903; Electric withdrawal CLI: 357" role="graphics-symbol" aria-roledescription="text mark" text-anchor="middle" transform="translate(304.5,113.15384615384616)" font-family="serif" font-size="11px" fill="#000" opacity="1">357</text><text aria-label="Year: 1904; Electric withdrawal CLI: 351" role="graphics-symbol" aria-roledescription="text mark" text-anchor="middle" transform="translate(426.29999999999995,115)" font-family="serif" font-size="11px" fill="#000" opacity="1">351</text><text aria-label="Year: 1905; Electric withdrawal CLI: 318" role="graphics-symbol" aria-roledescription="text mark" text-anchor="middle" transform="translate(548.1,125.15384615384615)" font-family="serif" font-size="11px" fill="#000" opacity="1">318</text></g><g class="mark-group role-title"><g transform="translate(-21,-29)"><path class="background" aria-hidden="true" d="M0,0h0v0h0Z" pointer-events="none"></path><g><g class="mark-text role-title-text" role="graphics-symbol" aria-roledescription="title" aria-label="Title text 'gee amid Devolved'" pointer-events="none"><text text-anchor="start" transform="translate(0,20)" font-family="serif" font-size="25px" font-weight="bold" fill="#000" opacity="1">gee amid Devolved</text></g></g><path class="foreground" aria-hidden="true" d="" pointer-events="none" display="none"></path></g></g></g><path class="foreground" aria-hidden="true" d="" display="none"></path></g></g></g></svg>