<svg xmlns="http://www.w3.org/2000/svg" xmlns:xlink="http://www.w3.org/1999/xlink" version="1.1" class="marks" width="661" height="284" viewBox="0 0 661 284" style="background-color: rgb(51, 51, 51);"><g fill="none" stroke-miterlimit="10" transform="translate(100,34)"><g class="mark-group role-frame root" role="graphics-object" aria-roledescription="group mark container"><g transform="translate(0,0)"><path class="background" aria-hidden="true" d="M0.5,0.5h556v200h-556Z" fill="transparent" stroke="#ddd"></path><g><g class="mark-group role-axis" aria-hidden="true"><g transform="translate(0.5,200.5)"><path class="background" aria-hidden="true" d="M0,0h0v0h0Z" pointer-events="none"></path><g><g class="mark-rule role-axis-grid" pointer-events="none"><line transform="translate(56,-200)" x2="0" y2="200" stroke="#747474" stroke-width="1" stroke-dasharray="6, 3" opacity="1"></line><line transform="translate(167,-200)" x2="0" y2="200" stroke="#747474" stroke-width="1" stroke-dasharray="6, 3" opacity="1"></line><line transform="translate(278,-200)" x2="0" y2="200" stroke="#747474" stroke-width="1" stroke-dasharray="6, 3" opacity="1"></line><line transform="translate(389,-200)" x2="0" y2="200" stroke="#747474" stroke-width="1" stroke-dasharray="6, 3" opacity="1"></line><line transform="translate(500,-200)" x2="0" y2="200" stroke="#747474" stroke-width="1" stroke-dasharray="6, 3" opacity="1"></line></g></g><path class="foreground" aria-hidden="true" d="" pointer-events="none" display="none"></path></g></g><g class="mark-group role-axis" aria-hidden="true"><g transform="translate(0.5,0.5)"><path class="background" aria-hidden="true" d="M0,0h0v0h0Z" pointer-events="none"></path><g><g class="mark-rule role-axis-grid" pointer-events="none"><line transform="translate(0,200)" x2="556" y2="0" stroke="#747474" stroke-width="1" stroke-dasharray="6, 3" opacity="1"></line><line transform="translate(0,156)" x2="556" y2="0" stroke="#747474" stroke-width="1" stroke-dasharray="6, 3" opacity="1"></line><line transform="translate(0,111)" x2="556" y2="0" stroke="#747474" stroke-width="1" stroke-dasharray="6, 3" opacity="1"></line><line transform="translate(0,67)" x2="556" y2="0" stroke="#747474" stroke-width="1" stroke-dasharray="6, 3" opacity="1"></line><line transform="translate(0,22)" x2="556" y2="0" stroke="#747474" stroke-width="1" stroke-dasharray="6, 3" opacity="1"></line></g></g><path class="foreground" aria-hidden="true" d="" pointer-events="none" display="none"></path></g></g><g class="mark-group role-axis" role="graphics-symbol" aria-roledescription="axis" aria-label="X-axis for a discrete scale with 5 values: 1911, 1913, 1915, 1917, 1919"><g transform="translate(0.5,200.5)"><path class="background" aria-hidden="true" d="M0,0h0v0h0Z" pointer-events="none"></path><g><g class="mark-rule role-axis-tick" pointer-events="none"><line transform="translate(56,0)" x2="0" y2="5" stroke="#888" stroke-width="1" opacity="1"></line><line transform="translate(167,0)" x2="0" y2="5" stroke="#888" stroke-width="1" opacity="1"></line><line transform="translate(278,0)" x2="0" y2="5" stroke="#888" stroke-width="1" opacity="1"></line><line transform="translate(389,0)" x2="0" y2="5" stroke="#888" stroke-width="1" opacity="1"></line><line transform="translate(500,0)" x2="0" y2="5" stroke="#888" stroke-width="1" opacity="1"></line></g><g class="mark-text role-axis-label" pointer-events="none"><text text-anchor="start" transform="translate(55.599999999999994,7) rotate(90) translate(0,6)" font-family="avenir" font-size="19px" font-weight="bold" fill="#fff" opacity="1">1911</text><text text-anchor="start" transform="translate(166.8,7) rotate(90) translate(0,6)" font-family="avenir" font-size="19px" font-weight="bold" fill="#fff" opacity="1">1913</text><text text-anchor="start" transform="translate(278,7) rotate(90) translate(0,6)" font-family="avenir" font-size="19px" font-weight="bold" fill="#fff" opacity="1">1915</text><text text-anchor="start" transform="translate(389.20000000000005,7) rotate(90) translate(0,6)" font-family="avenir" font-size="19px" font-weight="bold" fill="#fff" opacity="1">1917</text><text text-anchor="start" transform="translate(500.4,7) rotate(90) translate(0,6)" font-family="avenir" font-size="19px" font-weight="bold" fill="#fff" opacity="1">1919</text></g><g class="mark-rule role-axis-domain" pointer-events="none"><line transform="translate(0,0)" x2="556" y2="0" stroke="#888" stroke-width="1" opacity="1"></line></g></g><path class="foreground" aria-hidden="true" d="" pointer-events="none" display="none"></path></g></g><g class="mark-group role-axis" role="graphics-symbol" aria-roledescription="axis" aria-label="Y-axis for a linear scale with values from 0 to 450"><g transform="translate(0.5,0.5)"><path class="background" aria-hidden="true" d="M0,0h0v0h0Z" pointer-events="none"></path><g><g class="mark-text role-axis-label" pointer-events="none"><text text-anchor="middle" transform="translate(-2,200) rotate(90) translate(0,15)" font-family="avenir" font-size="19px" font-weight="bold" fill="#fff" opacity="1">0</text><text text-anchor="middle" transform="translate(-2,155.55555555555557) rotate(90) translate(0,15)" font-family="avenir" font-size="19px" font-weight="bold" fill="#fff" opacity="1">100</text><text text-anchor="middle" transform="translate(-2,111.11111111111111) rotate(90) translate(0,15)" font-family="avenir" font-size="19px" font-weight="bold" fill="#fff" opacity="1">200</text><text text-anchor="middle" transform="translate(-2,66.66666666666667) rotate(90) translate(0,15)" font-family="avenir" font-size="19px" font-weight="bold" fill="#fff" opacity="1">300</text><text text-anchor="middle" transform="translate(-2,22.222222222222232) rotate(90) translate(0,15)" font-family="avenir" font-size="19px" font-weight="bold" fill="#fff" opacity="1">400</text></g><g class="mark-rule role-axis-domain" pointer-events="none"><line transform="translate(0,200)" x2="0" y2="-200" stroke="#888" stroke-width="1" opacity="1"></line></g></g><path class="foreground" aria-hidden="true" d="" pointer-events="none" display="none"></path></g></g><g class="mark-group role-scope layer_0_pathgroup" role="graphics-object" aria-roledescription="group mark container"><g transform="translate(0,0)"><path class="background" aria-hidden="true" d="M0,0h556v200h-556Z"></path><g><g class="mark-line role-mark layer_0_marks" role="graphics-object" aria-roledescription="line mark container"><path aria-label="Year: 1911; wireless Bicycle efficient: 142; Coordinator female disintermediate: to" role="graphics-symbol" aria-roledescription="line mark" d="M55.599999999999994,136.88888888888889L166.8,140.88888888888889L278,17.333333333333336L389.20000000000005,157.33333333333331L500.4,111.55555555555554" stroke="#a73751" stroke-width="2" stroke-dasharray="1,0"></path></g></g><path class="foreground" aria-hidden="true" d="" display="none"></path></g><g transform="translate(0,0)"><path class="background" aria-hidden="true" d="M0,0h556v200h-556Z"></path><g><g class="mark-line role-mark layer_0_marks" role="graphics-object" aria-roledescription="line mark container"><path aria-label="Year: 1911; wireless Bicycle efficient: 201; Coordinator female disintermediate: Corporate" role="graphics-symbol" aria-roledescription="line mark" d="M55.599999999999994,110.66666666666667L166.8,7.55555555555556L278,41.77777777777778L389.20000000000005,28.888888888888896L500.4,39.555555555555564" stroke="#ec1aad" stroke-width="2" stroke-dasharray="1,0"></path></g></g><path class="foreground" aria-hidden="true" d="" display="none"></path></g></g><g class="mark-symbol role-mark layer_1_marks" role="graphics-object" aria-roledescription="symbol mark container"><path aria-label="Year: 1911; wireless Bicycle efficient: 142; Coordinator female disintermediate: to" role="graphics-symbol" aria-roledescription="point" transform="translate(55.599999999999994,136.88888888888889)" d="M2.7386127875258306,0A2.7386127875258306,2.7386127875258306,0,1,1,-2.7386127875258306,0A2.7386127875258306,2.7386127875258306,0,1,1,2.7386127875258306,0" fill="#333333" stroke="#a73751" stroke-width="4" opacity="1"></path><path aria-label="Year: 1913; wireless Bicycle efficient: 133; Coordinator female disintermediate: to" role="graphics-symbol" aria-roledescription="point" transform="translate(166.8,140.88888888888889)" d="M2.7386127875258306,0A2.7386127875258306,2.7386127875258306,0,1,1,-2.7386127875258306,0A2.7386127875258306,2.7386127875258306,0,1,1,2.7386127875258306,0" fill="#333333" stroke="#a73751" stroke-width="4" opacity="1"></path><path aria-label="Year: 1915; wireless Bicycle efficient: 411; Coordinator female disintermediate: to" role="graphics-symbol" aria-roledescription="point" transform="translate(278,17.333333333333336)" d="M2.7386127875258306,0A2.7386127875258306,2.7386127875258306,0,1,1,-2.7386127875258306,0A2.7386127875258306,2.7386127875258306,0,1,1,2.7386127875258306,0" fill="#333333" stroke="#a73751" stroke-width="4" opacity="1"></path><path aria-label="Year: 1917; wireless Bicycle efficient: 96; Coordinator female disintermediate: to" role="graphics-symbol" aria-roledescription="point" transform="translate(389.20000000000005,157.33333333333331)" d="M2.7386127875258306,0A2.7386127875258306,2.7386127875258306,0,1,1,-2.7386127875258306,0A2.7386127875258306,2.7386127875258306,0,1,1,2.7386127875258306,0" fill="#333333" stroke="#a73751" stroke-width="4" opacity="1"></path><path aria-label="Year: 1919; wireless Bicycle efficient: 199; Coordinator female disintermediate: to" role="graphics-symbol" aria-roledescription="point" transform="translate(500.4,111.55555555555554)" d="M2.7386127875258306,0A2.7386127875258306,2.7386127875258306,0,1,1,-2.7386127875258306,0A2.7386127875258306,2.7386127875258306,0,1,1,2.7386127875258306,0" fill="#333333" stroke="#a73751" stroke-width="4" opacity="1"></path><path aria-label="Year: 1911; wireless Bicycle efficient: 201; Coordinator female disintermediate: Corporate" role="graphics-symbol" aria-roledescription="point" transform="translate(55.599999999999994,110.66666666666667)" d="M2.7386127875258306,0A2.7386127875258306,2.7386127875258306,0,1,1,-2.7386127875258306,0A2.7386127875258306,2.7386127875258306,0,1,1,2.7386127875258306,0" fill="#333333" stroke="#ec1aad" stroke-width="4" opacity="1"></path><path aria-label="Year: 1913; wireless Bicycle efficient: 433; Coordinator female disintermediate: Corporate" role="graphics-symbol" aria-roledescription="point" transform="translate(166.8,7.55555555555556)" d="M2.7386127875258306,0A2.7386127875258306,2.7386127875258306,0,1,1,-2.7386127875258306,0A2.7386127875258306,2.7386127875258306,0,1,1,2.7386127875258306,0" fill="#333333" stroke="#ec1aad" stroke-width="4" opacity="1"></path><path aria-label="Year: 1915; wireless Bicycle efficient: 356; Coordinator female disintermediate: Corporate" role="graphics-symbol" aria-roledescription="point" transform="translate(278,41.77777777777778)" d="M2.7386127875258306,0A2.7386127875258306,2.7386127875258306,0,1,1,-2.7386127875258306,0A2.7386127875258306,2.7386127875258306,0,1,1,2.7386127875258306,0" fill="#333333" stroke="#ec1aad" stroke-width="4" opacity="1"></path><path aria-label="Year: 1917; wireless Bicycle efficient: 385; Coordinator female disintermediate: Corporate" role="graphics-symbol" aria-roledescription="point" transform="translate(389.20000000000005,28.888888888888896)" d="M2.7386127875258306,0A2.7386127875258306,2.7386127875258306,0,1,1,-2.7386127875258306,0A2.7386127875258306,2.7386127875258306,0,1,1,2.7386127875258306,0" fill="#333333" stroke="#ec1aad" stroke-width="4" opacity="1"></path><path aria-label="Year: 1919; wireless Bicycle efficient: 361; Coordinator female disintermediate: Corporate" role="graphics-symbol" aria-roledescription="point" transform="translate(500.4,39.555555555555564)" d="M2.7386127875258306,0A2.7386127875258306,2.7386127875258306,0,1,1,-2.7386127875258306,0A2.7386127875258306,2.7386127875258306,0,1,1,2.7386127875258306,0" fill="#333333" stroke="#ec1aad" stroke-width="4" opacity="1"></path></g><g class="mark-text role-mark layer_2_marks" role="graphics-object" aria-roledescription="text mark container"><text aria-label="Year: 1911; wireless Bicycle efficient: 142" role="graphics-symbol" aria-roledescription="text mark" text-anchor="middle" transform="translate(55.599999999999994,160.88888888888889)" font-family="avenir" font-size="13px" fill="#fff" opacity="1">142</text><text aria-label="Year: 1913; wireless Bicycle efficient: 133" role="graphics-symbol" aria-roledescription="text mark" text-anchor="middle" transform="translate(166.8,164.88888888888889)" font-family="avenir" font-size="13px" fill="#fff" opacity="1">133</text><text aria-label="Year: 1915; wireless Bicycle efficient: 411" role="graphics-symbol" aria-roledescription="text mark" text-anchor="middle" transform="translate(278,41.333333333333336)" font-family="avenir" font-size="13px" fill="#fff" opacity="1">411</text><text aria-label="Year: 1917; wireless Bicycle efficient: 96" role="graphics-symbol" aria-roledescription="text mark" text-anchor="middle" transform="translate(389.20000000000005,181.33333333333331)" font-family="avenir" font-size="13px" fill="#fff" opacity="1">96</text><text aria-label="Year: 1919; wireless Bicycle efficient: 199" role="graphics-symbol" aria-roledescription="text mark" text-anchor="middle" transform="translate(500.4,135.55555555555554)" font-family="avenir" font-size="13px" fill="#fff" opacity="1">199</text><text aria-label="Year: 1911; wireless Bicycle efficient: 201" role="graphics-symbol" aria-roledescription="text mark" text-anchor="middle" transform="translate(55.599999999999994,134.66666666666669)" font-family="avenir" font-size="13px" fill="#fff" opacity="1">201</text><text aria-label="Year: 1913; wireless Bicycle efficient: 433" role="graphics-symbol" aria-roledescription="text mark" text-anchor="middle" transform="translate(166.8,31.55555555555556)" font-family="avenir" font-size="13px" fill="#fff" opacity="1">433</text><text aria-label="Year: 1915; wireless Bicycle efficient: 356" role="graphics-symbol" aria-roledescription="text mark" text-anchor="middle" transform="translate(278,65.77777777777777)" font-family="avenir" font-size="13px" fill="#fff" opacity="1">356</text><text aria-label="Year: 1917; wireless Bicycle efficient: 385" role="graphics-symbol" aria-roledescription="text mark" text-anchor="middle" transform="translate(389.20000000000005,52.8888888888889)" font-family="avenir" font-size="13px" fill="#fff" opacity="1">385</text><text aria-label="Year: 1919; wireless Bicycle efficient: 361" role="graphics-symbol" aria-roledescription="text mark" text-anchor="middle" transform="translate(500.4,63.555555555555564)" font-family="avenir" font-size="13px" fill="#fff" opacity="1">361</text></g><g class="mark-group role-legend" role="graphics-symbol" aria-roledescription="legend" aria-label="Symbol legend for stroke color with 2 values: to, Corporate"><g transform="translate(-95,0)"><path class="background" aria-hidden="true" d="M0,0h56v29h-56Z" pointer-events="none"></path><g><g class="mark-group role-legend-entry"><g transform="translate(0,0)"><path class="background" aria-hidden="true" d="M0,0h0v0h0Z" pointer-events="none"></path><g><g class="mark-group role-scope" role="graphics-object" aria-roledescription="group mark container"><g transform="translate(0,0)"><path class="background" aria-hidden="true" d="M0,0h55.9853515625v12.5h-55.9853515625Z" pointer-events="none" opacity="1"></path><g><g class="mark-symbol role-legend-symbol" pointer-events="none"><path transform="translate(6,6)" d="M5,0A5,5,0,1,1,-5,0A5,5,0,1,1,5,0" fill="#333333" stroke="#a73751" stroke-width="1.5" opacity="1"></path></g><g class="mark-text role-legend-label" pointer-events="none"><text text-anchor="start" transform="translate(16,9)" font-family="avenir" font-size="10px" fill="#fff" opacity="1">to</text></g></g><path class="foreground" aria-hidden="true" d="" pointer-events="none" display="none"></path></g><g transform="translate(0,16)"><path class="background" aria-hidden="true" d="M0,0h55.9853515625v12.5h-55.9853515625Z" pointer-events="none" opacity="1"></path><g><g class="mark-symbol role-legend-symbol" pointer-events="none"><path transform="translate(6,6)" d="M5,0A5,5,0,1,1,-5,0A5,5,0,1,1,5,0" fill="#333333" stroke="#ec1aad" stroke-width="1.5" opacity="1"></path></g><g class="mark-text role-legend-label" pointer-events="none"><text text-anchor="start" transform="translate(16,9)" font-family="avenir" font-size="10px" fill="#fff" opacity="1">Corporate</text></g></g><path class="foreground" aria-hidden="true" d="" pointer-events="none" display="none"></path></g></g></g><path class="foreground" aria-hidden="true" d="" pointer-events="none" display="none"></path></g></g></g><path class="foreground" aria-hidden="true" d="" pointer-events="none" display="none"></path></g></g><g class="mark-group role-title"><g transform="translate(556,-29)"><path class="background" aria-hidden="true" d="M0,0h0v0h0Z" pointer-events="none"></path><g><g class="mark-text role-title-text" role="graphics-symbol" aria-roledescription="title" aria-label="Title text 'BMX'" pointer-events="none"><text text-anchor="end" transform="translate(0,20)" font-family="avenir" font-size="25px" font-weight="bold" fill="#fff" opacity="1">BMX</text></g></g><path class="foreground" aria-hidden="true" d="" pointer-events="none" display="none"></path></g></g></g><path class="foreground" aria-hidden="true" d="" display="none"></path></g></g></g></svg>