<svg xmlns="http://www.w3.org/2000/svg" xmlns:xlink="http://www.w3.org/1999/xlink" version="1.1" class="marks" width="765" height="308" viewBox="0 0 765 308" style="background-color: rgb(255, 255, 255);"><g fill="none" stroke-miterlimit="10" transform="translate(18,43)"><g class="mark-group role-frame root" role="graphics-object" aria-roledescription="group mark container"><g transform="translate(0,0)"><path class="background" aria-hidden="true" d="M0.5,0.5h742v200h-742Z" fill="transparent" stroke="#ddd"></path><g><g class="mark-group role-axis" role="graphics-symbol" aria-roledescription="axis" aria-label="X-axis for a discrete scale with 10 values: 1900, 1902, 1904, 1906, 1908, ending with 1918"><g transform="translate(0.5,200.5)"><path class="background" aria-hidden="true" d="M0,0h0v0h0Z" pointer-events="none"></path><g><g class="mark-rule role-axis-tick" pointer-events="none"><line transform="translate(37,0)" x2="0" y2="5" stroke="#888" stroke-width="1" opacity="1"></line><line transform="translate(111,0)" x2="0" y2="5" stroke="#888" stroke-width="1" opacity="1"></line><line transform="translate(185,0)" x2="0" y2="5" stroke="#888" stroke-width="1" opacity="1"></line><line transform="translate(260,0)" x2="0" y2="5" stroke="#888" stroke-width="1" opacity="1"></line><line transform="translate(334,0)" x2="0" y2="5" stroke="#888" stroke-width="1" opacity="1"></line><line transform="translate(408,0)" x2="0" y2="5" stroke="#888" stroke-width="1" opacity="1"></line><line transform="translate(482,0)" x2="0" y2="5" stroke="#888" stroke-width="1" opacity="1"></line><line transform="translate(557,0)" x2="0" y2="5" stroke="#888" stroke-width="1" opacity="1"></line><line transform="translate(631,0)" x2="0" y2="5" stroke="#888" stroke-width="1" opacity="1"></line><line transform="translate(705,0)" x2="0" y2="5" stroke="#888" stroke-width="1" opacity="1"></line></g><g class="mark-text role-axis-label" pointer-events="none"><text text-anchor="start" transform="translate(37.099999999999966,7) rotate(90) translate(0,3)" font-family="avenir" font-size="11px" font-weight="bold" fill="#000" opacity="1">1900</text><text text-anchor="start" transform="translate(111.29999999999997,7) rotate(90) translate(0,3)" font-family="avenir" font-size="11px" font-weight="bold" fill="#000" opacity="1">1902</text><text text-anchor="start" transform="translate(185.49999999999997,7) rotate(90) translate(0,3)" font-family="avenir" font-size="11px" font-weight="bold" fill="#000" opacity="1">1904</text><text text-anchor="start" transform="translate(259.7,7) rotate(90) translate(0,3)" font-family="avenir" font-size="11px" font-weight="bold" fill="#000" opacity="1">1906</text><text text-anchor="start" transform="translate(333.9,7) rotate(90) translate(0,3)" font-family="avenir" font-size="11px" font-weight="bold" fill="#000" opacity="1">1908</text><text text-anchor="start" transform="translate(408.09999999999997,7) rotate(90) translate(0,3)" font-family="avenir" font-size="11px" font-weight="bold" fill="#000" opacity="1">1910</text><text text-anchor="start" transform="translate(482.3,7) rotate(90) translate(0,3)" font-family="avenir" font-size="11px" font-weight="bold" fill="#000" opacity="1">1912</text><text text-anchor="start" transform="translate(556.5,7) rotate(90) translate(0,3)" font-family="avenir" font-size="11px" font-weight="bold" fill="#000" opacity="1">1914</text><text text-anchor="start" transform="translate(630.7,7) rotate(90) translate(0,3)" font-family="avenir" font-size="11px" font-weight="bold" fill="#000" opacity="1">1916</text><text text-anchor="start" transform="translate(704.9000000000001,7) rotate(90) translate(0,3)" font-family="avenir" font-size="11px" font-weight="bold" fill="#000" opacity="1">1918</text></g><g class="mark-rule role-axis-domain" pointer-events="none"><line transform="translate(0,0)" x2="742" y2="0" stroke="#888" stroke-width="1" opacity="1"></line></g></g><path class="foreground" aria-hidden="true" d="" pointer-events="none" display="none"></path></g></g><g class="mark-group role-axis" role="graphics-symbol" aria-roledescription="axis" aria-label="Y-axis for a linear scale with values from 0 to 600"><g transform="translate(0.5,0.5)"><path class="background" aria-hidden="true" d="M0,0h0v0h0Z" pointer-events="none"></path><g><g class="mark-text role-axis-label" pointer-events="none"><text text-anchor="middle" transform="translate(-2,200) rotate(90) translate(0,9)" font-family="avenir" font-size="11px" font-weight="bold" fill="#000" opacity="1">0</text><text text-anchor="middle" transform="translate(-2,166.66666666666669) rotate(90) translate(0,9)" font-family="avenir" font-size="11px" font-weight="bold" fill="#000" opacity="1">100</text><text text-anchor="middle" transform="translate(-2,133.33333333333334) rotate(90) translate(0,9)" font-family="avenir" font-size="11px" font-weight="bold" fill="#000" opacity="1">200</text><text text-anchor="middle" transform="translate(-2,100) rotate(90) translate(0,9)" font-family="avenir" font-size="11px" font-weight="bold" fill="#000" opacity="1">300</text><text text-anchor="middle" transform="translate(-2,66.66666666666667) rotate(90) translate(0,9)" font-family="avenir" font-size="11px" font-weight="bold" fill="#000" opacity="1">400</text><text text-anchor="middle" transform="translate(-2,33.33333333333333) rotate(90) translate(0,9)" font-family="avenir" font-size="11px" font-weight="bold" fill="#000" opacity="1">500</text><text text-anchor="middle" transform="translate(-2,0) rotate(90) translate(0,9)" font-family="avenir" font-size="11px" font-weight="bold" fill="#000" opacity="1">600</text></g><g class="mark-rule role-axis-domain" pointer-events="none"><line transform="translate(0,200)" x2="0" y2="-200" stroke="#888" stroke-width="1" opacity="1"></line></g></g><path class="foreground" aria-hidden="true" d="" pointer-events="none" display="none"></path></g></g><g class="mark-group role-scope layer_0_pathgroup" role="graphics-object" aria-roledescription="group mark container"><g transform="translate(0,0)"><path class="background" aria-hidden="true" d="M0,0h742v200h-742Z"></path><g><g class="mark-line role-mark layer_0_marks" role="graphics-object" aria-roledescription="line mark container"><path aria-label="Year: 1900; Walks Wagon: 246; Account Specialist Cuban: Titusville" role="graphics-symbol" aria-roledescription="line mark" d="M37.099999999999966,118.00000000000001C61.8333333333333,83.25305490470123,86.5666666666666,48.50610980940245,111.29999999999997,23.33333333333334C136.03333333333333,-1.8394431427357765,160.76666666666665,-17.43805099957523,185.49999999999997,7.666666666666666C210.2333333333333,32.77138433290856,234.96666666666664,98.57942752223181,259.7,118.00000000000001C284.43333333333334,137.42057247776822,309.16666666666674,110.45367424398134,333.9,105C358.6333333333332,99.54632575601866,383.3666666666665,115.60587550184295,408.09999999999997,116.66666666666666C432.8333333333334,117.72745783149037,457.56666666666683,103.78949041531357,482.3,114.33333333333333C507.0333333333332,124.87717625135309,531.7666666666665,159.9028295035694,556.5,178.66666666666666C581.2333333333335,197.43050382976392,605.9666666666668,199.9325249037421,630.7,175.33333333333334C655.4333333333333,150.7341417629246,680.1666666666667,99.03373754812897,704.9000000000001,47.333333333333336" stroke="#9fff87" stroke-width="2" stroke-dasharray="1,0"></path></g></g><path class="foreground" aria-hidden="true" d="" display="none"></path></g><g transform="translate(0,0)"><path class="background" aria-hidden="true" d="M0,0h742v200h-742Z"></path><g><g class="mark-line role-mark layer_0_marks" role="graphics-object" aria-roledescription="line mark container"><path aria-label="Year: 1900; Walks Wagon: 387; Account Specialist Cuban: Dodge reboot" role="graphics-symbol" aria-roledescription="line mark" d="M37.099999999999966,71C61.8333333333333,136.34013236321783,86.5666666666666,201.68026472643564,111.29999999999997,186C136.03333333333333,170.31973527356436,160.76666666666665,73.61907345747524,185.49999999999997,74.66666666666666C210.2333333333333,75.71425987585808,234.96666666666664,174.51010811033004,259.7,194C284.43333333333334,213.48989188966996,309.16666666666674,153.67382743453777,333.9,110.33333333333334C358.6333333333332,66.9928392321289,383.3666666666665,40.12791548485221,408.09999999999997,44.333333333333336C432.8333333333334,48.53875118181446,457.56666666666683,83.81451062605333,482.3,121C507.0333333333332,158.18548937394667,531.7666666666665,197.280708677601,556.5,171.33333333333334C581.2333333333335,145.38595798906567,605.9666666666668,54.3959879968759,630.7,40.66666666666667C655.4333333333333,26.937345336457437,680.1666666666667,90.46867266822872,704.9000000000001,154" stroke="#7fb4e4" stroke-width="2" stroke-dasharray="1,0"></path></g></g><path class="foreground" aria-hidden="true" d="" display="none"></path></g></g><g class="mark-symbol role-mark layer_1_marks" role="graphics-object" aria-roledescription="symbol mark container"><path aria-label="Year: 1900; Walks Wagon: 246; Account Specialist Cuban: Titusville" role="graphics-symbol" aria-roledescription="point" transform="translate(37.099999999999966,118.00000000000001)" d="M2.7386127875258306,0A2.7386127875258306,2.7386127875258306,0,1,1,-2.7386127875258306,0A2.7386127875258306,2.7386127875258306,0,1,1,2.7386127875258306,0" fill="#fff" stroke="#9fff87" stroke-width="2" opacity="1"></path><path aria-label="Year: 1902; Walks Wagon: 530; Account Specialist Cuban: Titusville" role="graphics-symbol" aria-roledescription="point" transform="translate(111.29999999999997,23.33333333333334)" d="M2.7386127875258306,0A2.7386127875258306,2.7386127875258306,0,1,1,-2.7386127875258306,0A2.7386127875258306,2.7386127875258306,0,1,1,2.7386127875258306,0" fill="#fff" stroke="#9fff87" stroke-width="2" opacity="1"></path><path aria-label="Year: 1904; Walks Wagon: 577; Account Specialist Cuban: Titusville" role="graphics-symbol" aria-roledescription="point" transform="translate(185.49999999999997,7.666666666666666)" d="M2.7386127875258306,0A2.7386127875258306,2.7386127875258306,0,1,1,-2.7386127875258306,0A2.7386127875258306,2.7386127875258306,0,1,1,2.7386127875258306,0" fill="#fff" stroke="#9fff87" stroke-width="2" opacity="1"></path><path aria-label="Year: 1906; Walks Wagon: 246; Account Specialist Cuban: Titusville" role="graphics-symbol" aria-roledescription="point" transform="translate(259.7,118.00000000000001)" d="M2.7386127875258306,0A2.7386127875258306,2.7386127875258306,0,1,1,-2.7386127875258306,0A2.7386127875258306,2.7386127875258306,0,1,1,2.7386127875258306,0" fill="#fff" stroke="#9fff87" stroke-width="2" opacity="1"></path><path aria-label="Year: 1908; Walks Wagon: 285; Account Specialist Cuban: Titusville" role="graphics-symbol" aria-roledescription="point" transform="translate(333.9,105)" d="M2.7386127875258306,0A2.7386127875258306,2.7386127875258306,0,1,1,-2.7386127875258306,0A2.7386127875258306,2.7386127875258306,0,1,1,2.7386127875258306,0" fill="#fff" stroke="#9fff87" stroke-width="2" opacity="1"></path><path aria-label="Year: 1910; Walks Wagon: 250; Account Specialist Cuban: Titusville" role="graphics-symbol" aria-roledescription="point" transform="translate(408.09999999999997,116.66666666666666)" d="M2.7386127875258306,0A2.7386127875258306,2.7386127875258306,0,1,1,-2.7386127875258306,0A2.7386127875258306,2.7386127875258306,0,1,1,2.7386127875258306,0" fill="#fff" stroke="#9fff87" stroke-width="2" opacity="1"></path><path aria-label="Year: 1912; Walks Wagon: 257; Account Specialist Cuban: Titusville" role="graphics-symbol" aria-roledescription="point" transform="translate(482.3,114.33333333333333)" d="M2.7386127875258306,0A2.7386127875258306,2.7386127875258306,0,1,1,-2.7386127875258306,0A2.7386127875258306,2.7386127875258306,0,1,1,2.7386127875258306,0" fill="#fff" stroke="#9fff87" stroke-width="2" opacity="1"></path><path aria-label="Year: 1914; Walks Wagon: 64; Account Specialist Cuban: Titusville" role="graphics-symbol" aria-roledescription="point" transform="translate(556.5,178.66666666666666)" d="M2.7386127875258306,0A2.7386127875258306,2.7386127875258306,0,1,1,-2.7386127875258306,0A2.7386127875258306,2.7386127875258306,0,1,1,2.7386127875258306,0" fill="#fff" stroke="#9fff87" stroke-width="2" opacity="1"></path><path aria-label="Year: 1916; Walks Wagon: 74; Account Specialist Cuban: Titusville" role="graphics-symbol" aria-roledescription="point" transform="translate(630.7,175.33333333333334)" d="M2.7386127875258306,0A2.7386127875258306,2.7386127875258306,0,1,1,-2.7386127875258306,0A2.7386127875258306,2.7386127875258306,0,1,1,2.7386127875258306,0" fill="#fff" stroke="#9fff87" stroke-width="2" opacity="1"></path><path aria-label="Year: 1918; Walks Wagon: 458; Account Specialist Cuban: Titusville" role="graphics-symbol" aria-roledescription="point" transform="translate(704.9000000000001,47.333333333333336)" d="M2.7386127875258306,0A2.7386127875258306,2.7386127875258306,0,1,1,-2.7386127875258306,0A2.7386127875258306,2.7386127875258306,0,1,1,2.7386127875258306,0" fill="#fff" stroke="#9fff87" stroke-width="2" opacity="1"></path><path aria-label="Year: 1900; Walks Wagon: 387; Account Specialist Cuban: Dodge reboot" role="graphics-symbol" aria-roledescription="point" transform="translate(37.099999999999966,71)" d="M2.7386127875258306,0A2.7386127875258306,2.7386127875258306,0,1,1,-2.7386127875258306,0A2.7386127875258306,2.7386127875258306,0,1,1,2.7386127875258306,0" fill="#fff" stroke="#7fb4e4" stroke-width="2" opacity="1"></path><path aria-label="Year: 1902; Walks Wagon: 42; Account Specialist Cuban: Dodge reboot" role="graphics-symbol" aria-roledescription="point" transform="translate(111.29999999999997,186)" d="M2.7386127875258306,0A2.7386127875258306,2.7386127875258306,0,1,1,-2.7386127875258306,0A2.7386127875258306,2.7386127875258306,0,1,1,2.7386127875258306,0" fill="#fff" stroke="#7fb4e4" stroke-width="2" opacity="1"></path><path aria-label="Year: 1904; Walks Wagon: 376; Account Specialist Cuban: Dodge reboot" role="graphics-symbol" aria-roledescription="point" transform="translate(185.49999999999997,74.66666666666666)" d="M2.7386127875258306,0A2.7386127875258306,2.7386127875258306,0,1,1,-2.7386127875258306,0A2.7386127875258306,2.7386127875258306,0,1,1,2.7386127875258306,0" fill="#fff" stroke="#7fb4e4" stroke-width="2" opacity="1"></path><path aria-label="Year: 1906; Walks Wagon: 18; Account Specialist Cuban: Dodge reboot" role="graphics-symbol" aria-roledescription="point" transform="translate(259.7,194)" d="M2.7386127875258306,0A2.7386127875258306,2.7386127875258306,0,1,1,-2.7386127875258306,0A2.7386127875258306,2.7386127875258306,0,1,1,2.7386127875258306,0" fill="#fff" stroke="#7fb4e4" stroke-width="2" opacity="1"></path><path aria-label="Year: 1908; Walks Wagon: 269; Account Specialist Cuban: Dodge reboot" role="graphics-symbol" aria-roledescription="point" transform="translate(333.9,110.33333333333334)" d="M2.7386127875258306,0A2.7386127875258306,2.7386127875258306,0,1,1,-2.7386127875258306,0A2.7386127875258306,2.7386127875258306,0,1,1,2.7386127875258306,0" fill="#fff" stroke="#7fb4e4" stroke-width="2" opacity="1"></path><path aria-label="Year: 1910; Walks Wagon: 467; Account Specialist Cuban: Dodge reboot" role="graphics-symbol" aria-roledescription="point" transform="translate(408.09999999999997,44.333333333333336)" d="M2.7386127875258306,0A2.7386127875258306,2.7386127875258306,0,1,1,-2.7386127875258306,0A2.7386127875258306,2.7386127875258306,0,1,1,2.7386127875258306,0" fill="#fff" stroke="#7fb4e4" stroke-width="2" opacity="1"></path><path aria-label="Year: 1912; Walks Wagon: 237; Account Specialist Cuban: Dodge reboot" role="graphics-symbol" aria-roledescription="point" transform="translate(482.3,121)" d="M2.7386127875258306,0A2.7386127875258306,2.7386127875258306,0,1,1,-2.7386127875258306,0A2.7386127875258306,2.7386127875258306,0,1,1,2.7386127875258306,0" fill="#fff" stroke="#7fb4e4" stroke-width="2" opacity="1"></path><path aria-label="Year: 1914; Walks Wagon: 86; Account Specialist Cuban: Dodge reboot" role="graphics-symbol" aria-roledescription="point" transform="translate(556.5,171.33333333333334)" d="M2.7386127875258306,0A2.7386127875258306,2.7386127875258306,0,1,1,-2.7386127875258306,0A2.7386127875258306,2.7386127875258306,0,1,1,2.7386127875258306,0" fill="#fff" stroke="#7fb4e4" stroke-width="2" opacity="1"></path><path aria-label="Year: 1916; Walks Wagon: 478; Account Specialist Cuban: Dodge reboot" role="graphics-symbol" aria-roledescription="point" transform="translate(630.7,40.66666666666667)" d="M2.7386127875258306,0A2.7386127875258306,2.7386127875258306,0,1,1,-2.7386127875258306,0A2.7386127875258306,2.7386127875258306,0,1,1,2.7386127875258306,0" fill="#fff" stroke="#7fb4e4" stroke-width="2" opacity="1"></path><path aria-label="Year: 1918; Walks Wagon: 138; Account Specialist Cuban: Dodge reboot" role="graphics-symbol" aria-roledescription="point" transform="translate(704.9000000000001,154)" d="M2.7386127875258306,0A2.7386127875258306,2.7386127875258306,0,1,1,-2.7386127875258306,0A2.7386127875258306,2.7386127875258306,0,1,1,2.7386127875258306,0" fill="#fff" stroke="#7fb4e4" stroke-width="2" opacity="1"></path></g><g class="mark-group role-legend" role="graphics-symbol" aria-roledescription="legend" aria-label="Symbol legend for stroke color with 2 values: Titusville, Dodge reboot"><g transform="translate(0,247)"><path class="background" aria-hidden="true" d="M0,0h136v13h-136Z" pointer-events="none"></path><g><g class="mark-group role-legend-entry"><g transform="translate(0,0)"><path class="background" aria-hidden="true" d="M0,0h0v0h0Z" pointer-events="none"></path><g><g class="mark-group role-scope" role="graphics-object" aria-roledescription="group mark container"><g transform="translate(0,0.25)"><path class="background" aria-hidden="true" d="M0,0h53.978515625v12.5h-53.978515625Z" pointer-events="none" opacity="1"></path><g><g class="mark-symbol role-legend-symbol" pointer-events="none"><path transform="translate(6,6)" d="M5,0A5,5,0,1,1,-5,0A5,5,0,1,1,5,0" fill="#fff" stroke="#9fff87" stroke-width="1.5" opacity="1"></path></g><g class="mark-text role-legend-label" pointer-events="none"><text text-anchor="start" transform="translate(16,9)" font-family="avenir" font-size="10px" fill="#000" opacity="1">Titusville</text></g></g><path class="foreground" aria-hidden="true" d="" pointer-events="none" display="none"></path></g><g transform="translate(65,0.25)"><path class="background" aria-hidden="true" d="M0,0h70.70703125v12.5h-70.70703125Z" pointer-events="none" opacity="1"></path><g><g class="mark-symbol role-legend-symbol" pointer-events="none"><path transform="translate(6,6)" d="M5,0A5,5,0,1,1,-5,0A5,5,0,1,1,5,0" fill="#fff" stroke="#7fb4e4" stroke-width="1.5" opacity="1"></path></g><g class="mark-text role-legend-label" pointer-events="none"><text text-anchor="start" transform="translate(16,9)" font-family="avenir" font-size="10px" fill="#000" opacity="1">Dodge reboot</text></g></g><path class="foreground" aria-hidden="true" d="" pointer-events="none" display="none"></path></g></g></g><path class="foreground" aria-hidden="true" d="" pointer-events="none" display="none"></path></g></g></g><path class="foreground" aria-hidden="true" d="" pointer-events="none" display="none"></path></g></g><g class="mark-group role-title"><g transform="translate(-13,-37.25)"><path class="background" aria-hidden="true" d="M0,0h0v0h0Z" pointer-events="none"></path><g><g class="mark-text role-title-text" role="graphics-symbol" aria-roledescription="title" aria-label="Title text 'female'" pointer-events="none"><text text-anchor="start" transform="translate(0,20)" font-family="avenir" font-size="25px" font-weight="bold" fill="#000" opacity="1">female</text></g></g><path class="foreground" aria-hidden="true" d="" pointer-events="none" display="none"></path></g></g></g><path class="foreground" aria-hidden="true" d="" display="none"></path></g></g></g></svg>