<svg xmlns="http://www.w3.org/2000/svg" xmlns:xlink="http://www.w3.org/1999/xlink" version="1.1" class="marks" width="519" height="274" viewBox="0 0 519 274" style="background-color: rgb(255, 255, 255);"><g fill="none" stroke-miterlimit="10" transform="translate(17,42)"><g class="mark-group role-frame root" role="graphics-object" aria-roledescription="group mark container"><g transform="translate(0,0)"><path class="background" aria-hidden="true" d="M0.5,0.5h497v200h-497Z" fill="transparent" stroke="#ddd"></path><g><g class="mark-group role-axis" role="graphics-symbol" aria-roledescription="axis" aria-label="X-axis for a discrete scale with 5 values: Jan, Feb, Mar, Apr, May"><g transform="translate(0.5,200.5)"><path class="background" aria-hidden="true" d="M0,0h0v0h0Z" pointer-events="none"></path><g><g class="mark-rule role-axis-tick" pointer-events="none"><line transform="translate(50,0)" x2="0" y2="5" stroke="#888" stroke-width="1" opacity="1"></line><line transform="translate(149,0)" x2="0" y2="5" stroke="#888" stroke-width="1" opacity="1"></line><line transform="translate(249,0)" x2="0" y2="5" stroke="#888" stroke-width="1" opacity="1"></line><line transform="translate(348,0)" x2="0" y2="5" stroke="#888" stroke-width="1" opacity="1"></line><line transform="translate(447,0)" x2="0" y2="5" stroke="#888" stroke-width="1" opacity="1"></line></g><g class="mark-text role-axis-label" pointer-events="none"><text text-anchor="start" transform="translate(49.69999999999999,7) rotate(90) translate(0,3)" font-family="serif" font-size="10px" font-weight="bold" fill="#000" opacity="1">Jan</text><text text-anchor="start" transform="translate(149.1,7) rotate(90) translate(0,3)" font-family="serif" font-size="10px" font-weight="bold" fill="#000" opacity="1">Feb</text><text text-anchor="start" transform="translate(248.5,7) rotate(90) translate(0,3)" font-family="serif" font-size="10px" font-weight="bold" fill="#000" opacity="1">Mar</text><text text-anchor="start" transform="translate(347.90000000000003,7) rotate(90) translate(0,3)" font-family="serif" font-size="10px" font-weight="bold" fill="#000" opacity="1">Apr</text><text text-anchor="start" transform="translate(447.3,7) rotate(90) translate(0,3)" font-family="serif" font-size="10px" font-weight="bold" fill="#000" opacity="1">May</text></g><g class="mark-rule role-axis-domain" pointer-events="none"><line transform="translate(0,0)" x2="497" y2="0" stroke="#888" stroke-width="1" opacity="1"></line></g></g><path class="foreground" aria-hidden="true" d="" pointer-events="none" display="none"></path></g></g><g class="mark-group role-axis" role="graphics-symbol" aria-roledescription="axis" aria-label="Y-axis for a linear scale with values from 0 to 800"><g transform="translate(0.5,0.5)"><path class="background" aria-hidden="true" d="M0,0h0v0h0Z" pointer-events="none"></path><g><g class="mark-text role-axis-label" pointer-events="none"><text text-anchor="middle" transform="translate(-2,200) rotate(90) translate(0,8)" font-family="serif" font-size="10px" font-weight="bold" fill="#000" opacity="1">0</text><text text-anchor="middle" transform="translate(-2,150) rotate(90) translate(0,8)" font-family="serif" font-size="10px" font-weight="bold" fill="#000" opacity="1">200</text><text text-anchor="middle" transform="translate(-2,100) rotate(90) translate(0,8)" font-family="serif" font-size="10px" font-weight="bold" fill="#000" opacity="1">400</text><text text-anchor="middle" transform="translate(-2,50) rotate(90) translate(0,8)" font-family="serif" font-size="10px" font-weight="bold" fill="#000" opacity="1">600</text><text text-anchor="middle" transform="translate(-2,0) rotate(90) translate(0,8)" font-family="serif" font-size="10px" font-weight="bold" fill="#000" opacity="1">800</text></g></g><path class="foreground" aria-hidden="true" d="" pointer-events="none" display="none"></path></g></g><g class="mark-group role-scope layer_0_pathgroup" role="graphics-object" aria-roledescription="group mark container"><g transform="translate(0,0)"><path class="background" aria-hidden="true" d="M0,0h497v200h-497Z"></path><g><g class="mark-line role-mark layer_0_marks" role="graphics-object" aria-roledescription="line mark container"><path aria-label="Month: Jan; Toys: 795; Bacon Adaptive: Jewelery Soft maxime" role="graphics-symbol" aria-roledescription="line mark" d="M49.69999999999999,1.2499999999999956C82.83333333333331,19.623511904761912,115.96666666666664,37.997023809523824,149.1,64.25C182.23333333333335,90.50297619047618,215.36666666666667,124.63541666666666,248.5,154.75C281.6333333333333,184.86458333333334,314.76666666666665,210.96130952380952,347.90000000000003,190.5C381.0333333333334,170.03869047619048,414.16666666666674,103.01934523809524,447.3,36.00000000000001" stroke="#ac8d98" stroke-width="2" stroke-dasharray="8,8"></path></g></g><path class="foreground" aria-hidden="true" d="" display="none"></path></g></g><g class="mark-symbol role-mark layer_1_marks" role="graphics-object" aria-roledescription="symbol mark container"><path aria-label="Month: Jan; Toys: 795; Bacon Adaptive: Jewelery Soft maxime" role="graphics-symbol" aria-roledescription="point" transform="translate(49.69999999999999,1.2499999999999956)" d="M5.024937810560445,0A5.024937810560445,5.024937810560445,0,1,1,-5.024937810560445,0A5.024937810560445,5.024937810560445,0,1,1,5.024937810560445,0" fill="#ac8d98" stroke-width="3" opacity="1"></path><path aria-label="Month: Feb; Toys: 543; Bacon Adaptive: Jewelery Soft maxime" role="graphics-symbol" aria-roledescription="point" transform="translate(149.1,64.25)" d="M5.024937810560445,0A5.024937810560445,5.024937810560445,0,1,1,-5.024937810560445,0A5.024937810560445,5.024937810560445,0,1,1,5.024937810560445,0" fill="#ac8d98" stroke-width="3" opacity="1"></path><path aria-label="Month: Mar; Toys: 181; Bacon Adaptive: Jewelery Soft maxime" role="graphics-symbol" aria-roledescription="point" transform="translate(248.5,154.75)" d="M5.024937810560445,0A5.024937810560445,5.024937810560445,0,1,1,-5.024937810560445,0A5.024937810560445,5.024937810560445,0,1,1,5.024937810560445,0" fill="#ac8d98" stroke-width="3" opacity="1"></path><path aria-label="Month: Apr; Toys: 38; Bacon Adaptive: Jewelery Soft maxime" role="graphics-symbol" aria-roledescription="point" transform="translate(347.90000000000003,190.5)" d="M5.024937810560445,0A5.024937810560445,5.024937810560445,0,1,1,-5.024937810560445,0A5.024937810560445,5.024937810560445,0,1,1,5.024937810560445,0" fill="#ac8d98" stroke-width="3" opacity="1"></path><path aria-label="Month: May; Toys: 656; Bacon Adaptive: Jewelery Soft maxime" role="graphics-symbol" aria-roledescription="point" transform="translate(447.3,36.00000000000001)" d="M5.024937810560445,0A5.024937810560445,5.024937810560445,0,1,1,-5.024937810560445,0A5.024937810560445,5.024937810560445,0,1,1,5.024937810560445,0" fill="#ac8d98" stroke-width="3" opacity="1"></path></g><g class="mark-group role-title"><g transform="translate(-12,-36.5)"><path class="background" aria-hidden="true" d="M0,0h0v0h0Z" pointer-events="none"></path><g><g class="mark-text role-title-text" role="graphics-symbol" aria-roledescription="title" aria-label="Title text 'joule hustle'" pointer-events="none"><text text-anchor="start" transform="translate(0,20)" font-family="serif" font-size="25px" font-weight="bold" fill="#000" opacity="1">joule hustle</text></g></g><path class="foreground" aria-hidden="true" d="" pointer-events="none" display="none"></path></g></g></g><path class="foreground" aria-hidden="true" d="" display="none"></path></g></g></g></svg>