<svg xmlns="http://www.w3.org/2000/svg" xmlns:xlink="http://www.w3.org/1999/xlink" version="1.1" class="marks" width="1113" height="283" viewBox="0 0 1113 283" style="background-color: rgb(51, 51, 51);"><g fill="none" stroke-miterlimit="10" transform="translate(142,44)"><g class="mark-group role-frame root" role="graphics-object" aria-roledescription="group mark container"><g transform="translate(0,0)"><path class="background" aria-hidden="true" d="M0.5,0.5h966v200h-966Z" fill="transparent" stroke="#ddd"></path><g><g class="mark-group role-axis" aria-hidden="true"><g transform="translate(0.5,0.5)"><path class="background" aria-hidden="true" d="M0,0h0v0h0Z" pointer-events="none"></path><g><g class="mark-rule role-axis-grid" pointer-events="none"><line transform="translate(0,200)" x2="966" y2="0" stroke="#747474" stroke-width="1" stroke-dasharray="4, 2" opacity="1"></line><line transform="translate(0,160)" x2="966" y2="0" stroke="#747474" stroke-width="1" stroke-dasharray="4, 2" opacity="1"></line><line transform="translate(0,120)" x2="966" y2="0" stroke="#747474" stroke-width="1" stroke-dasharray="4, 2" opacity="1"></line><line transform="translate(0,80)" x2="966" y2="0" stroke="#747474" stroke-width="1" stroke-dasharray="4, 2" opacity="1"></line><line transform="translate(0,40)" x2="966" y2="0" stroke="#747474" stroke-width="1" stroke-dasharray="4, 2" opacity="1"></line><line transform="translate(0,0)" x2="966" y2="0" stroke="#747474" stroke-width="1" stroke-dasharray="4, 2" opacity="1"></line></g></g><path class="foreground" aria-hidden="true" d="" pointer-events="none" display="none"></path></g></g><g class="mark-group role-axis" role="graphics-symbol" aria-roledescription="axis" aria-label="X-axis for a discrete scale with 6 values: Jan, Feb, Mar, Apr, May, June"><g transform="translate(0.5,200.5)"><path class="background" aria-hidden="true" d="M0,0h0v0h0Z" pointer-events="none"></path><g><g class="mark-rule role-axis-tick" pointer-events="none"><line transform="translate(81,0)" x2="0" y2="5" stroke="#888" stroke-width="1" opacity="1"></line><line transform="translate(242,0)" x2="0" y2="5" stroke="#888" stroke-width="1" opacity="1"></line><line transform="translate(403,0)" x2="0" y2="5" stroke="#888" stroke-width="1" opacity="1"></line><line transform="translate(564,0)" x2="0" y2="5" stroke="#888" stroke-width="1" opacity="1"></line><line transform="translate(725,0)" x2="0" y2="5" stroke="#888" stroke-width="1" opacity="1"></line><line transform="translate(886,0)" x2="0" y2="5" stroke="#888" stroke-width="1" opacity="1"></line></g><g class="mark-text role-axis-label" pointer-events="none"><text text-anchor="start" transform="translate(80.5,7) rotate(90) translate(0,4)" font-family="serif" font-size="13px" font-weight="bold" fill="#fff" opacity="1">Jan</text><text text-anchor="start" transform="translate(241.5,7) rotate(90) translate(0,4)" font-family="serif" font-size="13px" font-weight="bold" fill="#fff" opacity="1">Feb</text><text text-anchor="start" transform="translate(402.5,7) rotate(90) translate(0,4)" font-family="serif" font-size="13px" font-weight="bold" fill="#fff" opacity="1">Mar</text><text text-anchor="start" transform="translate(563.5,7) rotate(90) translate(0,4)" font-family="serif" font-size="13px" font-weight="bold" fill="#fff" opacity="1">Apr</text><text text-anchor="start" transform="translate(724.5,7) rotate(90) translate(0,4)" font-family="serif" font-size="13px" font-weight="bold" fill="#fff" opacity="1">May</text><text text-anchor="start" transform="translate(885.5,7) rotate(90) translate(0,4)" font-family="serif" font-size="13px" font-weight="bold" fill="#fff" opacity="1">June</text></g><g class="mark-rule role-axis-domain" pointer-events="none"><line transform="translate(0,0)" x2="966" y2="0" stroke="#888" stroke-width="1" opacity="1"></line></g></g><path class="foreground" aria-hidden="true" d="" pointer-events="none" display="none"></path></g></g><g class="mark-group role-axis" role="graphics-symbol" aria-roledescription="axis" aria-label="Y-axis for a linear scale with values from 0 to 500"><g transform="translate(0.5,0.5)"><path class="background" aria-hidden="true" d="M0,0h0v0h0Z" pointer-events="none"></path><g><g class="mark-text role-axis-label" pointer-events="none"><text text-anchor="middle" transform="translate(-2,200) rotate(90) translate(0,10)" font-family="serif" font-size="13px" font-weight="bold" fill="#fff" opacity="1">0</text><text text-anchor="middle" transform="translate(-2,160) rotate(90) translate(0,10)" font-family="serif" font-size="13px" font-weight="bold" fill="#fff" opacity="1">100</text><text text-anchor="middle" transform="translate(-2,120) rotate(90) translate(0,10)" font-family="serif" font-size="13px" font-weight="bold" fill="#fff" opacity="1">200</text><text text-anchor="middle" transform="translate(-2,80) rotate(90) translate(0,10)" font-family="serif" font-size="13px" font-weight="bold" fill="#fff" opacity="1">300</text><text text-anchor="middle" transform="translate(-2,39.99999999999999) rotate(90) translate(0,10)" font-family="serif" font-size="13px" font-weight="bold" fill="#fff" opacity="1">400</text><text text-anchor="middle" transform="translate(-2,0) rotate(90) translate(0,10)" font-family="serif" font-size="13px" font-weight="bold" fill="#fff" opacity="1">500</text></g></g><path class="foreground" aria-hidden="true" d="" pointer-events="none" display="none"></path></g></g><g class="mark-group role-scope layer_0_pathgroup" role="graphics-object" aria-roledescription="group mark container"><g transform="translate(0,0)"><path class="background" aria-hidden="true" d="M0,0h966v200h-966Z"></path><g><g class="mark-line role-mark layer_0_marks" role="graphics-object" aria-roledescription="line mark container"><path aria-label="Month: Jan; concept: 404; male female: Northwest Cis female" role="graphics-symbol" aria-roledescription="line mark" d="M80.5,38.39999999999999L241.5,179.20000000000002L402.5,172.4L563.5,87.20000000000002L724.5,92L885.5,21.199999999999996" stroke="#b0487a" stroke-width="2" stroke-dasharray="1,0"></path></g></g><path class="foreground" aria-hidden="true" d="" display="none"></path></g><g transform="translate(0,0)"><path class="background" aria-hidden="true" d="M0,0h966v200h-966Z"></path><g><g class="mark-line role-mark layer_0_marks" role="graphics-object" aria-roledescription="line mark container"><path aria-label="Month: Jan; concept: 129; male female: Tuna" role="graphics-symbol" aria-roledescription="line mark" d="M80.5,148.4L241.5,23.2L402.5,68L563.5,6.400000000000006L724.5,132.39999999999998L885.5,0" stroke="#c70f5b" stroke-width="2" stroke-dasharray="1,0"></path></g></g><path class="foreground" aria-hidden="true" d="" display="none"></path></g></g><g class="mark-symbol role-mark layer_1_marks" role="graphics-object" aria-roledescription="symbol mark container"><path aria-label="Month: Jan; concept: 404; male female: Northwest Cis female" role="graphics-symbol" aria-roledescription="point" transform="translate(80.5,38.39999999999999)" d="M2.7386127875258306,0A2.7386127875258306,2.7386127875258306,0,1,1,-2.7386127875258306,0A2.7386127875258306,2.7386127875258306,0,1,1,2.7386127875258306,0" fill="#333333" stroke="#b0487a" stroke-width="2" opacity="1"></path><path aria-label="Month: Feb; concept: 52; male female: Northwest Cis female" role="graphics-symbol" aria-roledescription="point" transform="translate(241.5,179.20000000000002)" d="M2.7386127875258306,0A2.7386127875258306,2.7386127875258306,0,1,1,-2.7386127875258306,0A2.7386127875258306,2.7386127875258306,0,1,1,2.7386127875258306,0" fill="#333333" stroke="#b0487a" stroke-width="2" opacity="1"></path><path aria-label="Month: Mar; concept: 69; male female: Northwest Cis female" role="graphics-symbol" aria-roledescription="point" transform="translate(402.5,172.4)" d="M2.7386127875258306,0A2.7386127875258306,2.7386127875258306,0,1,1,-2.7386127875258306,0A2.7386127875258306,2.7386127875258306,0,1,1,2.7386127875258306,0" fill="#333333" stroke="#b0487a" stroke-width="2" opacity="1"></path><path aria-label="Month: Apr; concept: 282; male female: Northwest Cis female" role="graphics-symbol" aria-roledescription="point" transform="translate(563.5,87.20000000000002)" d="M2.7386127875258306,0A2.7386127875258306,2.7386127875258306,0,1,1,-2.7386127875258306,0A2.7386127875258306,2.7386127875258306,0,1,1,2.7386127875258306,0" fill="#333333" stroke="#b0487a" stroke-width="2" opacity="1"></path><path aria-label="Month: May; concept: 270; male female: Northwest Cis female" role="graphics-symbol" aria-roledescription="point" transform="translate(724.5,92)" d="M2.7386127875258306,0A2.7386127875258306,2.7386127875258306,0,1,1,-2.7386127875258306,0A2.7386127875258306,2.7386127875258306,0,1,1,2.7386127875258306,0" fill="#333333" stroke="#b0487a" stroke-width="2" opacity="1"></path><path aria-label="Month: June; concept: 447; male female: Northwest Cis female" role="graphics-symbol" aria-roledescription="point" transform="translate(885.5,21.199999999999996)" d="M2.7386127875258306,0A2.7386127875258306,2.7386127875258306,0,1,1,-2.7386127875258306,0A2.7386127875258306,2.7386127875258306,0,1,1,2.7386127875258306,0" fill="#333333" stroke="#b0487a" stroke-width="2" opacity="1"></path><path aria-label="Month: Jan; concept: 129; male female: Tuna" role="graphics-symbol" aria-roledescription="point" transform="translate(80.5,148.4)" d="M2.7386127875258306,0A2.7386127875258306,2.7386127875258306,0,1,1,-2.7386127875258306,0A2.7386127875258306,2.7386127875258306,0,1,1,2.7386127875258306,0" fill="#333333" stroke="#c70f5b" stroke-width="2" opacity="1"></path><path aria-label="Month: Feb; concept: 442; male female: Tuna" role="graphics-symbol" aria-roledescription="point" transform="translate(241.5,23.2)" d="M2.7386127875258306,0A2.7386127875258306,2.7386127875258306,0,1,1,-2.7386127875258306,0A2.7386127875258306,2.7386127875258306,0,1,1,2.7386127875258306,0" fill="#333333" stroke="#c70f5b" stroke-width="2" opacity="1"></path><path aria-label="Month: Mar; concept: 330; male female: Tuna" role="graphics-symbol" aria-roledescription="point" transform="translate(402.5,68)" d="M2.7386127875258306,0A2.7386127875258306,2.7386127875258306,0,1,1,-2.7386127875258306,0A2.7386127875258306,2.7386127875258306,0,1,1,2.7386127875258306,0" fill="#333333" stroke="#c70f5b" stroke-width="2" opacity="1"></path><path aria-label="Month: Apr; concept: 484; male female: Tuna" role="graphics-symbol" aria-roledescription="point" transform="translate(563.5,6.400000000000006)" d="M2.7386127875258306,0A2.7386127875258306,2.7386127875258306,0,1,1,-2.7386127875258306,0A2.7386127875258306,2.7386127875258306,0,1,1,2.7386127875258306,0" fill="#333333" stroke="#c70f5b" stroke-width="2" opacity="1"></path><path aria-label="Month: May; concept: 169; male female: Tuna" role="graphics-symbol" aria-roledescription="point" transform="translate(724.5,132.39999999999998)" d="M2.7386127875258306,0A2.7386127875258306,2.7386127875258306,0,1,1,-2.7386127875258306,0A2.7386127875258306,2.7386127875258306,0,1,1,2.7386127875258306,0" fill="#333333" stroke="#c70f5b" stroke-width="2" opacity="1"></path><path aria-label="Month: June; concept: 500; male female: Tuna" role="graphics-symbol" aria-roledescription="point" transform="translate(885.5,0)" d="M2.7386127875258306,0A2.7386127875258306,2.7386127875258306,0,1,1,-2.7386127875258306,0A2.7386127875258306,2.7386127875258306,0,1,1,2.7386127875258306,0" fill="#333333" stroke="#c70f5b" stroke-width="2" opacity="1"></path></g><g class="mark-text role-mark layer_2_marks" role="graphics-object" aria-roledescription="text mark container"><text aria-label="Month: Jan; concept: 404" role="graphics-symbol" aria-roledescription="text mark" text-anchor="middle" transform="translate(80.5,56.39999999999999)" font-family="serif" font-size="10px" fill="#fff" opacity="1">404</text><text aria-label="Month: Feb; concept: 52" role="graphics-symbol" aria-roledescription="text mark" text-anchor="middle" transform="translate(241.5,197.20000000000002)" font-family="serif" font-size="10px" fill="#fff" opacity="1">52</text><text aria-label="Month: Mar; concept: 69" role="graphics-symbol" aria-roledescription="text mark" text-anchor="middle" transform="translate(402.5,190.4)" font-family="serif" font-size="10px" fill="#fff" opacity="1">69</text><text aria-label="Month: Apr; concept: 282" role="graphics-symbol" aria-roledescription="text mark" text-anchor="middle" transform="translate(563.5,105.20000000000002)" font-family="serif" font-size="10px" fill="#fff" opacity="1">282</text><text aria-label="Month: May; concept: 270" role="graphics-symbol" aria-roledescription="text mark" text-anchor="middle" transform="translate(724.5,110)" font-family="serif" font-size="10px" fill="#fff" opacity="1">270</text><text aria-label="Month: June; concept: 447" role="graphics-symbol" aria-roledescription="text mark" text-anchor="middle" transform="translate(885.5,39.199999999999996)" font-family="serif" font-size="10px" fill="#fff" opacity="1">447</text><text aria-label="Month: Jan; concept: 129" role="graphics-symbol" aria-roledescription="text mark" text-anchor="middle" transform="translate(80.5,166.4)" font-family="serif" font-size="10px" fill="#fff" opacity="1">129</text><text aria-label="Month: Feb; concept: 442" role="graphics-symbol" aria-roledescription="text mark" text-anchor="middle" transform="translate(241.5,41.2)" font-family="serif" font-size="10px" fill="#fff" opacity="1">442</text><text aria-label="Month: Mar; concept: 330" role="graphics-symbol" aria-roledescription="text mark" text-anchor="middle" transform="translate(402.5,86)" font-family="serif" font-size="10px" fill="#fff" opacity="1">330</text><text aria-label="Month: Apr; concept: 484" role="graphics-symbol" aria-roledescription="text mark" text-anchor="middle" transform="translate(563.5,24.400000000000006)" font-family="serif" font-size="10px" fill="#fff" opacity="1">484</text><text aria-label="Month: May; concept: 169" role="graphics-symbol" aria-roledescription="text mark" text-anchor="middle" transform="translate(724.5,150.39999999999998)" font-family="serif" font-size="10px" fill="#fff" opacity="1">169</text><text aria-label="Month: June; concept: 500" role="graphics-symbol" aria-roledescription="text mark" text-anchor="middle" transform="translate(885.5,18)" font-family="serif" font-size="10px" fill="#fff" opacity="1">500</text></g><g class="mark-group role-legend" role="graphics-symbol" aria-roledescription="legend" aria-label="Symbol legend for stroke color with 2 values: Northwest Cis female, Tuna"><g transform="translate(-137,0)"><path class="background" aria-hidden="true" d="M0,0h104v29h-104Z" pointer-events="none"></path><g><g class="mark-group role-legend-entry"><g transform="translate(0,0)"><path class="background" aria-hidden="true" d="M0,0h0v0h0Z" pointer-events="none"></path><g><g class="mark-group role-scope" role="graphics-object" aria-roledescription="group mark container"><g transform="translate(0,0)"><path class="background" aria-hidden="true" d="M0,0h103.2021484375v12.5h-103.2021484375Z" pointer-events="none" opacity="1"></path><g><g class="mark-symbol role-legend-symbol" pointer-events="none"><path transform="translate(6,6)" d="M5,0A5,5,0,1,1,-5,0A5,5,0,1,1,5,0" fill="#333333" stroke="#b0487a" stroke-width="1.5" opacity="1"></path></g><g class="mark-text role-legend-label" pointer-events="none"><text text-anchor="start" transform="translate(16,9)" font-family="serif" font-size="10px" fill="#fff" opacity="1">Northwest Cis female</text></g></g><path class="foreground" aria-hidden="true" d="" pointer-events="none" display="none"></path></g><g transform="translate(0,16)"><path class="background" aria-hidden="true" d="M0,0h103.2021484375v12.5h-103.2021484375Z" pointer-events="none" opacity="1"></path><g><g class="mark-symbol role-legend-symbol" pointer-events="none"><path transform="translate(6,6)" d="M5,0A5,5,0,1,1,-5,0A5,5,0,1,1,5,0" fill="#333333" stroke="#c70f5b" stroke-width="1.5" opacity="1"></path></g><g class="mark-text role-legend-label" pointer-events="none"><text text-anchor="start" transform="translate(16,9)" font-family="serif" font-size="10px" fill="#fff" opacity="1">Tuna</text></g></g><path class="foreground" aria-hidden="true" d="" pointer-events="none" display="none"></path></g></g></g><path class="foreground" aria-hidden="true" d="" pointer-events="none" display="none"></path></g></g></g><path class="foreground" aria-hidden="true" d="" pointer-events="none" display="none"></path></g></g><g class="mark-group role-title"><g transform="translate(966,-38.75)"><path class="background" aria-hidden="true" d="M0,0h0v0h0Z" pointer-events="none"></path><g><g class="mark-text role-title-text" role="graphics-symbol" aria-roledescription="title" aria-label="Title text 'Bicycle'" pointer-events="none"><text text-anchor="end" transform="translate(0,20)" font-family="serif" font-size="25px" font-weight="bold" fill="#fff" opacity="1">Bicycle</text></g></g><path class="foreground" aria-hidden="true" d="" pointer-events="none" display="none"></path></g></g></g><path class="foreground" aria-hidden="true" d="" display="none"></path></g></g></g></svg>