<svg xmlns="http://www.w3.org/2000/svg" xmlns:xlink="http://www.w3.org/1999/xlink" version="1.1" class="marks" width="598" height="288" viewBox="0 0 598 288" style="background-color: rgb(51, 51, 51);"><g fill="none" stroke-miterlimit="10" transform="translate(21,50)"><g class="mark-group role-frame root" role="graphics-object" aria-roledescription="group mark container"><g transform="translate(0,0)"><path class="background" aria-hidden="true" d="M0.5,0.5h572v200h-572Z" fill="transparent" stroke="#ddd"></path><g><g class="mark-group role-axis" role="graphics-symbol" aria-roledescription="axis" aria-label="X-axis for a discrete scale with 11 values: 1734, 1735, 1736, 1737, 1738, ending with 1744"><g transform="translate(0.5,200.5)"><path class="background" aria-hidden="true" d="M0,0h0v0h0Z" pointer-events="none"></path><g><g class="mark-rule role-axis-tick" pointer-events="none"><line transform="translate(26,0)" x2="0" y2="5" stroke="#888" stroke-width="1" opacity="1"></line><line transform="translate(78,0)" x2="0" y2="5" stroke="#888" stroke-width="1" opacity="1"></line><line transform="translate(130,0)" x2="0" y2="5" stroke="#888" stroke-width="1" opacity="1"></line><line transform="translate(182,0)" x2="0" y2="5" stroke="#888" stroke-width="1" opacity="1"></line><line transform="translate(234,0)" x2="0" y2="5" stroke="#888" stroke-width="1" opacity="1"></line><line transform="translate(286,0)" x2="0" y2="5" stroke="#888" stroke-width="1" opacity="1"></line><line transform="translate(338,0)" x2="0" y2="5" stroke="#888" stroke-width="1" opacity="1"></line><line transform="translate(390,0)" x2="0" y2="5" stroke="#888" stroke-width="1" opacity="1"></line><line transform="translate(442,0)" x2="0" y2="5" stroke="#888" stroke-width="1" opacity="1"></line><line transform="translate(494,0)" x2="0" y2="5" stroke="#888" stroke-width="1" opacity="1"></line><line transform="translate(546,0)" x2="0" y2="5" stroke="#888" stroke-width="1" opacity="1"></line></g><g class="mark-text role-axis-label" pointer-events="none"><text text-anchor="start" transform="translate(26,7) rotate(90) translate(0,4)" font-family="Balto" font-size="13px" font-weight="bold" fill="#fff" opacity="1">1734</text><text text-anchor="start" transform="translate(78,7) rotate(90) translate(0,4)" font-family="Balto" font-size="13px" font-weight="bold" fill="#fff" opacity="1">1735</text><text text-anchor="start" transform="translate(130,7) rotate(90) translate(0,4)" font-family="Balto" font-size="13px" font-weight="bold" fill="#fff" opacity="1">1736</text><text text-anchor="start" transform="translate(182,7) rotate(90) translate(0,4)" font-family="Balto" font-size="13px" font-weight="bold" fill="#fff" opacity="1">1737</text><text text-anchor="start" transform="translate(234,7) rotate(90) translate(0,4)" font-family="Balto" font-size="13px" font-weight="bold" fill="#fff" opacity="1">1738</text><text text-anchor="start" transform="translate(286,7) rotate(90) translate(0,4)" font-family="Balto" font-size="13px" font-weight="bold" fill="#fff" opacity="1">1739</text><text text-anchor="start" transform="translate(338,7) rotate(90) translate(0,4)" font-family="Balto" font-size="13px" font-weight="bold" fill="#fff" opacity="1">1740</text><text text-anchor="start" transform="translate(390,7) rotate(90) translate(0,4)" font-family="Balto" font-size="13px" font-weight="bold" fill="#fff" opacity="1">1741</text><text text-anchor="start" transform="translate(442,7) rotate(90) translate(0,4)" font-family="Balto" font-size="13px" font-weight="bold" fill="#fff" opacity="1">1742</text><text text-anchor="start" transform="translate(494,7) rotate(90) translate(0,4)" font-family="Balto" font-size="13px" font-weight="bold" fill="#fff" opacity="1">1743</text><text text-anchor="start" transform="translate(546,7) rotate(90) translate(0,4)" font-family="Balto" font-size="13px" font-weight="bold" fill="#fff" opacity="1">1744</text></g><g class="mark-rule role-axis-domain" pointer-events="none"><line transform="translate(0,0)" x2="572" y2="0" stroke="#888" stroke-width="1" opacity="1"></line></g></g><path class="foreground" aria-hidden="true" d="" pointer-events="none" display="none"></path></g></g><g class="mark-group role-axis" role="graphics-symbol" aria-roledescription="axis" aria-label="Y-axis for a linear scale with values from 0 to 700"><g transform="translate(0.5,0.5)"><path class="background" aria-hidden="true" d="M0,0h0v0h0Z" pointer-events="none"></path><g><g class="mark-text role-axis-label" pointer-events="none"><text text-anchor="middle" transform="translate(-2,200) rotate(90) translate(0,10)" font-family="Balto" font-size="13px" font-weight="bold" fill="#fff" opacity="1">0</text><text text-anchor="middle" transform="translate(-2,171.42857142857144) rotate(90) translate(0,10)" font-family="Balto" font-size="13px" font-weight="bold" fill="#fff" opacity="1">100</text><text text-anchor="middle" transform="translate(-2,142.85714285714286) rotate(90) translate(0,10)" font-family="Balto" font-size="13px" font-weight="bold" fill="#fff" opacity="1">200</text><text text-anchor="middle" transform="translate(-2,114.28571428571428) rotate(90) translate(0,10)" font-family="Balto" font-size="13px" font-weight="bold" fill="#fff" opacity="1">300</text><text text-anchor="middle" transform="translate(-2,85.71428571428572) rotate(90) translate(0,10)" font-family="Balto" font-size="13px" font-weight="bold" fill="#fff" opacity="1">400</text><text text-anchor="middle" transform="translate(-2,57.14285714285714) rotate(90) translate(0,10)" font-family="Balto" font-size="13px" font-weight="bold" fill="#fff" opacity="1">500</text><text text-anchor="middle" transform="translate(-2,28.57142857142858) rotate(90) translate(0,10)" font-family="Balto" font-size="13px" font-weight="bold" fill="#fff" opacity="1">600</text><text text-anchor="middle" transform="translate(-2,0) rotate(90) translate(0,10)" font-family="Balto" font-size="13px" font-weight="bold" fill="#fff" opacity="1">700</text></g><g class="mark-rule role-axis-domain" pointer-events="none"><line transform="translate(0,200)" x2="0" y2="-200" stroke="#888" stroke-width="1" opacity="1"></line></g></g><path class="foreground" aria-hidden="true" d="" pointer-events="none" display="none"></path></g></g><g class="mark-group role-scope layer_0_pathgroup" role="graphics-object" aria-roledescription="group mark container"><g transform="translate(0,0)"><path class="background" aria-hidden="true" d="M0,0h572v200h-572Z"></path><g><g class="mark-line role-mark layer_0_marks" role="graphics-object" aria-roledescription="line mark container"><path aria-label="Year: 1734; moratorium Tuna farad: 566; provided Gold navigate: Credit nymph" role="graphics-symbol" aria-roledescription="line mark" d="M26,38.28571428571428C43.33333333333333,50.13443956450643,60.66666666666666,61.98316484329858,78,94C95.33333333333334,126.01683515670142,112.66666666666669,178.20178019131205,130,185.42857142857144C147.33333333333331,192.65536266583084,164.66666666666669,154.924000105739,182,118.00000000000001C199.33333333333331,81.07599989426103,216.66666666666666,44.9593622428749,234,28.57142857142858C251.33333333333334,12.18349489998226,268.66666666666674,15.524265208475747,286,13.428571428571434C303.33333333333326,11.332877648667122,320.66666666666663,3.8007197803650143,338,28.285714285714292C355.33333333333337,52.77070879106357,372.66666666666674,109.27285567006416,390,122.28571428571429C407.33333333333326,135.29857290136442,424.66666666666663,104.82214325366407,442,76.57142857142858C459.33333333333337,48.3207138891931,476.6666666666667,22.295714172422507,494,17.714285714285705C511.3333333333333,13.1328572561489,528.6666666666666,29.995000056645882,546,46.85714285714286" stroke="#cb8788" stroke-width="2" stroke-dasharray="8,4"></path></g></g><path class="foreground" aria-hidden="true" d="" display="none"></path></g></g><g class="mark-symbol role-mark layer_1_marks" role="graphics-object" aria-roledescription="symbol mark container"><path aria-label="Year: 1734; moratorium Tuna farad: 566; provided Gold navigate: Credit nymph" role="graphics-symbol" aria-roledescription="point" transform="translate(26,38.28571428571428)" d="M2.7386127875258306,0A2.7386127875258306,2.7386127875258306,0,1,1,-2.7386127875258306,0A2.7386127875258306,2.7386127875258306,0,1,1,2.7386127875258306,0" fill="#333333" stroke="#cb8788" stroke-width="2" opacity="1"></path><path aria-label="Year: 1735; moratorium Tuna farad: 371; provided Gold navigate: Credit nymph" role="graphics-symbol" aria-roledescription="point" transform="translate(78,94)" d="M2.7386127875258306,0A2.7386127875258306,2.7386127875258306,0,1,1,-2.7386127875258306,0A2.7386127875258306,2.7386127875258306,0,1,1,2.7386127875258306,0" fill="#333333" stroke="#cb8788" stroke-width="2" opacity="1"></path><path aria-label="Year: 1736; moratorium Tuna farad: 51; provided Gold navigate: Credit nymph" role="graphics-symbol" aria-roledescription="point" transform="translate(130,185.42857142857144)" d="M2.7386127875258306,0A2.7386127875258306,2.7386127875258306,0,1,1,-2.7386127875258306,0A2.7386127875258306,2.7386127875258306,0,1,1,2.7386127875258306,0" fill="#333333" stroke="#cb8788" stroke-width="2" opacity="1"></path><path aria-label="Year: 1737; moratorium Tuna farad: 287; provided Gold navigate: Credit nymph" role="graphics-symbol" aria-roledescription="point" transform="translate(182,118.00000000000001)" d="M2.7386127875258306,0A2.7386127875258306,2.7386127875258306,0,1,1,-2.7386127875258306,0A2.7386127875258306,2.7386127875258306,0,1,1,2.7386127875258306,0" fill="#333333" stroke="#cb8788" stroke-width="2" opacity="1"></path><path aria-label="Year: 1738; moratorium Tuna farad: 600; provided Gold navigate: Credit nymph" role="graphics-symbol" aria-roledescription="point" transform="translate(234,28.57142857142858)" d="M2.7386127875258306,0A2.7386127875258306,2.7386127875258306,0,1,1,-2.7386127875258306,0A2.7386127875258306,2.7386127875258306,0,1,1,2.7386127875258306,0" fill="#333333" stroke="#cb8788" stroke-width="2" opacity="1"></path><path aria-label="Year: 1739; moratorium Tuna farad: 653; provided Gold navigate: Credit nymph" role="graphics-symbol" aria-roledescription="point" transform="translate(286,13.428571428571434)" d="M2.7386127875258306,0A2.7386127875258306,2.7386127875258306,0,1,1,-2.7386127875258306,0A2.7386127875258306,2.7386127875258306,0,1,1,2.7386127875258306,0" fill="#333333" stroke="#cb8788" stroke-width="2" opacity="1"></path><path aria-label="Year: 1740; moratorium Tuna farad: 601; provided Gold navigate: Credit nymph" role="graphics-symbol" aria-roledescription="point" transform="translate(338,28.285714285714292)" d="M2.7386127875258306,0A2.7386127875258306,2.7386127875258306,0,1,1,-2.7386127875258306,0A2.7386127875258306,2.7386127875258306,0,1,1,2.7386127875258306,0" fill="#333333" stroke="#cb8788" stroke-width="2" opacity="1"></path><path aria-label="Year: 1741; moratorium Tuna farad: 272; provided Gold navigate: Credit nymph" role="graphics-symbol" aria-roledescription="point" transform="translate(390,122.28571428571429)" d="M2.7386127875258306,0A2.7386127875258306,2.7386127875258306,0,1,1,-2.7386127875258306,0A2.7386127875258306,2.7386127875258306,0,1,1,2.7386127875258306,0" fill="#333333" stroke="#cb8788" stroke-width="2" opacity="1"></path><path aria-label="Year: 1742; moratorium Tuna farad: 432; provided Gold navigate: Credit nymph" role="graphics-symbol" aria-roledescription="point" transform="translate(442,76.57142857142858)" d="M2.7386127875258306,0A2.7386127875258306,2.7386127875258306,0,1,1,-2.7386127875258306,0A2.7386127875258306,2.7386127875258306,0,1,1,2.7386127875258306,0" fill="#333333" stroke="#cb8788" stroke-width="2" opacity="1"></path><path aria-label="Year: 1743; moratorium Tuna farad: 638; provided Gold navigate: Credit nymph" role="graphics-symbol" aria-roledescription="point" transform="translate(494,17.714285714285705)" d="M2.7386127875258306,0A2.7386127875258306,2.7386127875258306,0,1,1,-2.7386127875258306,0A2.7386127875258306,2.7386127875258306,0,1,1,2.7386127875258306,0" fill="#333333" stroke="#cb8788" stroke-width="2" opacity="1"></path><path aria-label="Year: 1744; moratorium Tuna farad: 536; provided Gold navigate: Credit nymph" role="graphics-symbol" aria-roledescription="point" transform="translate(546,46.85714285714286)" d="M2.7386127875258306,0A2.7386127875258306,2.7386127875258306,0,1,1,-2.7386127875258306,0A2.7386127875258306,2.7386127875258306,0,1,1,2.7386127875258306,0" fill="#333333" stroke="#cb8788" stroke-width="2" opacity="1"></path></g><g class="mark-text role-mark layer_2_marks" role="graphics-object" aria-roledescription="text mark container"><text aria-label="Year: 1734; moratorium Tuna farad: 566" role="graphics-symbol" aria-roledescription="text mark" text-anchor="middle" transform="translate(26,24.285714285714278)" font-family="Balto" font-size="19px" fill="#fff" opacity="1">566</text><text aria-label="Year: 1735; moratorium Tuna farad: 371" role="graphics-symbol" aria-roledescription="text mark" text-anchor="middle" transform="translate(78,80)" font-family="Balto" font-size="19px" fill="#fff" opacity="1">371</text><text aria-label="Year: 1736; moratorium Tuna farad: 51" role="graphics-symbol" aria-roledescription="text mark" text-anchor="middle" transform="translate(130,171.42857142857144)" font-family="Balto" font-size="19px" fill="#fff" opacity="1">51</text><text aria-label="Year: 1737; moratorium Tuna farad: 287" role="graphics-symbol" aria-roledescription="text mark" text-anchor="middle" transform="translate(182,104.00000000000001)" font-family="Balto" font-size="19px" fill="#fff" opacity="1">287</text><text aria-label="Year: 1738; moratorium Tuna farad: 600" role="graphics-symbol" aria-roledescription="text mark" text-anchor="middle" transform="translate(234,14.57142857142858)" font-family="Balto" font-size="19px" fill="#fff" opacity="1">600</text><text aria-label="Year: 1739; moratorium Tuna farad: 653" role="graphics-symbol" aria-roledescription="text mark" text-anchor="middle" transform="translate(286,-0.5714285714285658)" font-family="Balto" font-size="19px" fill="#fff" opacity="1">653</text><text aria-label="Year: 1740; moratorium Tuna farad: 601" role="graphics-symbol" aria-roledescription="text mark" text-anchor="middle" transform="translate(338,14.285714285714292)" font-family="Balto" font-size="19px" fill="#fff" opacity="1">601</text><text aria-label="Year: 1741; moratorium Tuna farad: 272" role="graphics-symbol" aria-roledescription="text mark" text-anchor="middle" transform="translate(390,108.28571428571429)" font-family="Balto" font-size="19px" fill="#fff" opacity="1">272</text><text aria-label="Year: 1742; moratorium Tuna farad: 432" role="graphics-symbol" aria-roledescription="text mark" text-anchor="middle" transform="translate(442,62.571428571428584)" font-family="Balto" font-size="19px" fill="#fff" opacity="1">432</text><text aria-label="Year: 1743; moratorium Tuna farad: 638" role="graphics-symbol" aria-roledescription="text mark" text-anchor="middle" transform="translate(494,3.7142857142857046)" font-family="Balto" font-size="19px" fill="#fff" opacity="1">638</text><text aria-label="Year: 1744; moratorium Tuna farad: 536" role="graphics-symbol" aria-roledescription="text mark" text-anchor="middle" transform="translate(546,32.85714285714286)" font-family="Balto" font-size="19px" fill="#fff" opacity="1">536</text></g><g class="mark-group role-title"><g transform="translate(-15.000000000000004,-44.57142857142857)"><path class="background" aria-hidden="true" d="M0,0h0v0h0Z" pointer-events="none"></path><g><g class="mark-text role-title-text" role="graphics-symbol" aria-roledescription="title" aria-label="Title text 'strictly Detroit'" pointer-events="none"><text text-anchor="start" transform="translate(0,20)" font-family="Balto" font-size="25px" font-weight="bold" fill="#fff" opacity="1">strictly Detroit</text></g></g><path class="foreground" aria-hidden="true" d="" pointer-events="none" display="none"></path></g></g></g><path class="foreground" aria-hidden="true" d="" display="none"></path></g></g></g></svg>