<svg xmlns="http://www.w3.org/2000/svg" xmlns:xlink="http://www.w3.org/1999/xlink" version="1.1" class="marks" width="990" height="304" viewBox="0 0 990 304" style="background-color: rgb(255, 255, 255);"><g fill="none" stroke-miterlimit="10" transform="translate(26,50)"><g class="mark-group role-frame root" role="graphics-object" aria-roledescription="group mark container"><g transform="translate(0,0)"><path class="background" aria-hidden="true" d="M0.5,0.5h959v200h-959Z" fill="transparent" stroke="#ddd"></path><g><g class="mark-group role-axis" aria-hidden="true"><g transform="translate(0.5,0.5)"><path class="background" aria-hidden="true" d="M0,0h0v0h0Z" pointer-events="none"></path><g><g class="mark-rule role-axis-grid" pointer-events="none"><line transform="translate(0,200)" x2="959" y2="0" stroke="#D0D0D0" stroke-width="1" stroke-dasharray="1,0" opacity="1"></line><line transform="translate(0,150)" x2="959" y2="0" stroke="#D0D0D0" stroke-width="1" stroke-dasharray="1,0" opacity="1"></line><line transform="translate(0,100)" x2="959" y2="0" stroke="#D0D0D0" stroke-width="1" stroke-dasharray="1,0" opacity="1"></line><line transform="translate(0,50)" x2="959" y2="0" stroke="#D0D0D0" stroke-width="1" stroke-dasharray="1,0" opacity="1"></line><line transform="translate(0,0)" x2="959" y2="0" stroke="#D0D0D0" stroke-width="1" stroke-dasharray="1,0" opacity="1"></line></g></g><path class="foreground" aria-hidden="true" d="" pointer-events="none" display="none"></path></g></g><g class="mark-group role-axis" role="graphics-symbol" aria-roledescription="axis" aria-label="X-axis for a discrete scale with 10 values: Jan, Feb, Mar, Apr, May, ending with Oct"><g transform="translate(0.5,200.5)"><path class="background" aria-hidden="true" d="M0,0h0v0h0Z" pointer-events="none"></path><g><g class="mark-rule role-axis-tick" pointer-events="none"><line transform="translate(48,0)" x2="0" y2="5" stroke="#888" stroke-width="1" opacity="1"></line><line transform="translate(144,0)" x2="0" y2="5" stroke="#888" stroke-width="1" opacity="1"></line><line transform="translate(240,0)" x2="0" y2="5" stroke="#888" stroke-width="1" opacity="1"></line><line transform="translate(336,0)" x2="0" y2="5" stroke="#888" stroke-width="1" opacity="1"></line><line transform="translate(432,0)" x2="0" y2="5" stroke="#888" stroke-width="1" opacity="1"></line><line transform="translate(527,0)" x2="0" y2="5" stroke="#888" stroke-width="1" opacity="1"></line><line transform="translate(623,0)" x2="0" y2="5" stroke="#888" stroke-width="1" opacity="1"></line><line transform="translate(719,0)" x2="0" y2="5" stroke="#888" stroke-width="1" opacity="1"></line><line transform="translate(815,0)" x2="0" y2="5" stroke="#888" stroke-width="1" opacity="1"></line><line transform="translate(911,0)" x2="0" y2="5" stroke="#888" stroke-width="1" opacity="1"></line></g><g class="mark-text role-axis-label" pointer-events="none"><text text-anchor="start" transform="translate(47.94999999999999,7) rotate(90) translate(0,6)" font-family="monospace" font-size="19px" font-weight="bold" fill="#000" opacity="1">Jan</text><text text-anchor="start" transform="translate(143.85,7) rotate(90) translate(0,6)" font-family="monospace" font-size="19px" font-weight="bold" fill="#000" opacity="1">Feb</text><text text-anchor="start" transform="translate(239.75,7) rotate(90) translate(0,6)" font-family="monospace" font-size="19px" font-weight="bold" fill="#000" opacity="1">Mar</text><text text-anchor="start" transform="translate(335.65000000000003,7) rotate(90) translate(0,6)" font-family="monospace" font-size="19px" font-weight="bold" fill="#000" opacity="1">Apr</text><text text-anchor="start" transform="translate(431.55,7) rotate(90) translate(0,6)" font-family="monospace" font-size="19px" font-weight="bold" fill="#000" opacity="1">May</text><text text-anchor="start" transform="translate(527.45,7) rotate(90) translate(0,6)" font-family="monospace" font-size="19px" font-weight="bold" fill="#000" opacity="1">June</text><text text-anchor="start" transform="translate(623.3500000000001,7) rotate(90) translate(0,6)" font-family="monospace" font-size="19px" font-weight="bold" fill="#000" opacity="1">July</text><text text-anchor="start" transform="translate(719.25,7) rotate(90) translate(0,6)" font-family="monospace" font-size="19px" font-weight="bold" fill="#000" opacity="1">Aug</text><text text-anchor="start" transform="translate(815.1500000000001,7) rotate(90) translate(0,6)" font-family="monospace" font-size="19px" font-weight="bold" fill="#000" opacity="1">Sep</text><text text-anchor="start" transform="translate(911.05,7) rotate(90) translate(0,6)" font-family="monospace" font-size="19px" font-weight="bold" fill="#000" opacity="1">Oct</text></g><g class="mark-rule role-axis-domain" pointer-events="none"><line transform="translate(0,0)" x2="959" y2="0" stroke="#888" stroke-width="1" opacity="1"></line></g></g><path class="foreground" aria-hidden="true" d="" pointer-events="none" display="none"></path></g></g><g class="mark-group role-axis" role="graphics-symbol" aria-roledescription="axis" aria-label="Y-axis for a linear scale with values from 0 to 800"><g transform="translate(0.5,0.5)"><path class="background" aria-hidden="true" d="M0,0h0v0h0Z" pointer-events="none"></path><g><g class="mark-text role-axis-label" pointer-events="none"><text text-anchor="middle" transform="translate(-2,200) rotate(90) translate(0,15)" font-family="monospace" font-size="19px" font-weight="bold" fill="#000" opacity="1">0</text><text text-anchor="middle" transform="translate(-2,150) rotate(90) translate(0,15)" font-family="monospace" font-size="19px" font-weight="bold" fill="#000" opacity="1">200</text><text text-anchor="middle" transform="translate(-2,100) rotate(90) translate(0,15)" font-family="monospace" font-size="19px" font-weight="bold" fill="#000" opacity="1">400</text><text text-anchor="middle" transform="translate(-2,50) rotate(90) translate(0,15)" font-family="monospace" font-size="19px" font-weight="bold" fill="#000" opacity="1">600</text><text text-anchor="middle" transform="translate(-2,0) rotate(90) translate(0,15)" font-family="monospace" font-size="19px" font-weight="bold" fill="#000" opacity="1">800</text></g></g><path class="foreground" aria-hidden="true" d="" pointer-events="none" display="none"></path></g></g><g class="mark-group role-scope layer_0_pathgroup" role="graphics-object" aria-roledescription="group mark container"><g transform="translate(0,0)"><path class="background" aria-hidden="true" d="M0,0h959v200h-959Z"></path><g><g class="mark-line role-mark layer_0_marks" role="graphics-object" aria-roledescription="line mark container"><path aria-label="Month: Jan; Bronze: 667; Carbon: Lempira synergistic" role="graphics-symbol" aria-roledescription="line mark" d="M47.94999999999999,33.25L143.85,23.50000000000001L239.75,178.5L335.65000000000003,140.25L431.55,83.5L527.45,172L623.3500000000001,189.25L719.25,44.75L815.1500000000001,185.5L911.05,179.75" stroke="#a9e2f3" stroke-width="2" stroke-dasharray="8,4"></path></g></g><path class="foreground" aria-hidden="true" d="" display="none"></path></g></g><g class="mark-symbol role-mark layer_1_marks" role="graphics-object" aria-roledescription="symbol mark container"><path aria-label="Month: Jan; Bronze: 667; Carbon: Lempira synergistic" role="graphics-symbol" aria-roledescription="point" transform="translate(47.94999999999999,33.25)" d="M2.7386127875258306,0A2.7386127875258306,2.7386127875258306,0,1,1,-2.7386127875258306,0A2.7386127875258306,2.7386127875258306,0,1,1,2.7386127875258306,0" fill="#fff" stroke="#a9e2f3" stroke-width="2" opacity="1"></path><path aria-label="Month: Feb; Bronze: 706; Carbon: Lempira synergistic" role="graphics-symbol" aria-roledescription="point" transform="translate(143.85,23.50000000000001)" d="M2.7386127875258306,0A2.7386127875258306,2.7386127875258306,0,1,1,-2.7386127875258306,0A2.7386127875258306,2.7386127875258306,0,1,1,2.7386127875258306,0" fill="#fff" stroke="#a9e2f3" stroke-width="2" opacity="1"></path><path aria-label="Month: Mar; Bronze: 86; Carbon: Lempira synergistic" role="graphics-symbol" aria-roledescription="point" transform="translate(239.75,178.5)" d="M2.7386127875258306,0A2.7386127875258306,2.7386127875258306,0,1,1,-2.7386127875258306,0A2.7386127875258306,2.7386127875258306,0,1,1,2.7386127875258306,0" fill="#fff" stroke="#a9e2f3" stroke-width="2" opacity="1"></path><path aria-label="Month: Apr; Bronze: 239; Carbon: Lempira synergistic" role="graphics-symbol" aria-roledescription="point" transform="translate(335.65000000000003,140.25)" d="M2.7386127875258306,0A2.7386127875258306,2.7386127875258306,0,1,1,-2.7386127875258306,0A2.7386127875258306,2.7386127875258306,0,1,1,2.7386127875258306,0" fill="#fff" stroke="#a9e2f3" stroke-width="2" opacity="1"></path><path aria-label="Month: May; Bronze: 466; Carbon: Lempira synergistic" role="graphics-symbol" aria-roledescription="point" transform="translate(431.55,83.5)" d="M2.7386127875258306,0A2.7386127875258306,2.7386127875258306,0,1,1,-2.7386127875258306,0A2.7386127875258306,2.7386127875258306,0,1,1,2.7386127875258306,0" fill="#fff" stroke="#a9e2f3" stroke-width="2" opacity="1"></path><path aria-label="Month: June; Bronze: 112; Carbon: Lempira synergistic" role="graphics-symbol" aria-roledescription="point" transform="translate(527.45,172)" d="M2.7386127875258306,0A2.7386127875258306,2.7386127875258306,0,1,1,-2.7386127875258306,0A2.7386127875258306,2.7386127875258306,0,1,1,2.7386127875258306,0" fill="#fff" stroke="#a9e2f3" stroke-width="2" opacity="1"></path><path aria-label="Month: July; Bronze: 43; Carbon: Lempira synergistic" role="graphics-symbol" aria-roledescription="point" transform="translate(623.3500000000001,189.25)" d="M2.7386127875258306,0A2.7386127875258306,2.7386127875258306,0,1,1,-2.7386127875258306,0A2.7386127875258306,2.7386127875258306,0,1,1,2.7386127875258306,0" fill="#fff" stroke="#a9e2f3" stroke-width="2" opacity="1"></path><path aria-label="Month: Aug; Bronze: 621; Carbon: Lempira synergistic" role="graphics-symbol" aria-roledescription="point" transform="translate(719.25,44.75)" d="M2.7386127875258306,0A2.7386127875258306,2.7386127875258306,0,1,1,-2.7386127875258306,0A2.7386127875258306,2.7386127875258306,0,1,1,2.7386127875258306,0" fill="#fff" stroke="#a9e2f3" stroke-width="2" opacity="1"></path><path aria-label="Month: Sep; Bronze: 58; Carbon: Lempira synergistic" role="graphics-symbol" aria-roledescription="point" transform="translate(815.1500000000001,185.5)" d="M2.7386127875258306,0A2.7386127875258306,2.7386127875258306,0,1,1,-2.7386127875258306,0A2.7386127875258306,2.7386127875258306,0,1,1,2.7386127875258306,0" fill="#fff" stroke="#a9e2f3" stroke-width="2" opacity="1"></path><path aria-label="Month: Oct; Bronze: 81; Carbon: Lempira synergistic" role="graphics-symbol" aria-roledescription="point" transform="translate(911.05,179.75)" d="M2.7386127875258306,0A2.7386127875258306,2.7386127875258306,0,1,1,-2.7386127875258306,0A2.7386127875258306,2.7386127875258306,0,1,1,2.7386127875258306,0" fill="#fff" stroke="#a9e2f3" stroke-width="2" opacity="1"></path></g><g class="mark-group role-title"><g transform="translate(479.5,-44.66943359375)"><path class="background" aria-hidden="true" d="M0,0h0v0h0Z" pointer-events="none"></path><g><g class="mark-text role-title-text" role="graphics-symbol" aria-roledescription="title" aria-label="Title text 'Coordinator Beauty Mouse'" pointer-events="none"><text text-anchor="middle" transform="translate(0,20)" font-family="monospace" font-size="25px" font-weight="bold" fill="#000" opacity="1">Coordinator Beauty Mouse</text></g></g><path class="foreground" aria-hidden="true" d="" pointer-events="none" display="none"></path></g></g></g><path class="foreground" aria-hidden="true" d="" display="none"></path></g></g></g></svg>