<svg xmlns="http://www.w3.org/2000/svg" xmlns:xlink="http://www.w3.org/1999/xlink" version="1.1" class="marks" width="768" height="281" viewBox="0 0 768 281" style="background-color: rgb(51, 51, 51);"><g fill="none" stroke-miterlimit="10" transform="translate(31,34)"><g class="mark-group role-frame root" role="graphics-object" aria-roledescription="group mark container"><g transform="translate(0,0)"><path class="background" aria-hidden="true" d="M0.5,0.5h732v200h-732Z" fill="transparent" stroke="#ddd"></path><g><g class="mark-group role-axis" role="graphics-symbol" aria-roledescription="axis" aria-label="X-axis for a discrete scale with 8 values: Jan, Feb, Mar, Apr, May, ending with Aug"><g transform="translate(0.5,200.5)"><path class="background" aria-hidden="true" d="M0,0h0v0h0Z" pointer-events="none"></path><g><g class="mark-rule role-axis-tick" pointer-events="none"><line transform="translate(46,0)" x2="0" y2="5" stroke="#888" stroke-width="1" opacity="1"></line><line transform="translate(137,0)" x2="0" y2="5" stroke="#888" stroke-width="1" opacity="1"></line><line transform="translate(229,0)" x2="0" y2="5" stroke="#888" stroke-width="1" opacity="1"></line><line transform="translate(320,0)" x2="0" y2="5" stroke="#888" stroke-width="1" opacity="1"></line><line transform="translate(412,0)" x2="0" y2="5" stroke="#888" stroke-width="1" opacity="1"></line><line transform="translate(503,0)" x2="0" y2="5" stroke="#888" stroke-width="1" opacity="1"></line><line transform="translate(595,0)" x2="0" y2="5" stroke="#888" stroke-width="1" opacity="1"></line><line transform="translate(686,0)" x2="0" y2="5" stroke="#888" stroke-width="1" opacity="1"></line></g><g class="mark-text role-axis-label" pointer-events="none"><text text-anchor="start" transform="translate(45.75,7) rotate(90) translate(0,6)" font-family="avenir" font-size="19px" font-weight="normal" fill="#fff" opacity="1">Jan</text><text text-anchor="start" transform="translate(137.25,7) rotate(90) translate(0,6)" font-family="avenir" font-size="19px" font-weight="normal" fill="#fff" opacity="1">Feb</text><text text-anchor="start" transform="translate(228.75,7) rotate(90) translate(0,6)" font-family="avenir" font-size="19px" font-weight="normal" fill="#fff" opacity="1">Mar</text><text text-anchor="start" transform="translate(320.25,7) rotate(90) translate(0,6)" font-family="avenir" font-size="19px" font-weight="normal" fill="#fff" opacity="1">Apr</text><text text-anchor="start" transform="translate(411.75,7) rotate(90) translate(0,6)" font-family="avenir" font-size="19px" font-weight="normal" fill="#fff" opacity="1">May</text><text text-anchor="start" transform="translate(503.25,7) rotate(90) translate(0,6)" font-family="avenir" font-size="19px" font-weight="normal" fill="#fff" opacity="1">June</text><text text-anchor="start" transform="translate(594.75,7) rotate(90) translate(0,6)" font-family="avenir" font-size="19px" font-weight="normal" fill="#fff" opacity="1">July</text><text text-anchor="start" transform="translate(686.25,7) rotate(90) translate(0,6)" font-family="avenir" font-size="19px" font-weight="normal" fill="#fff" opacity="1">Aug</text></g><g class="mark-rule role-axis-domain" pointer-events="none"><line transform="translate(0,0)" x2="732" y2="0" stroke="#888" stroke-width="1" opacity="1"></line></g></g><path class="foreground" aria-hidden="true" d="" pointer-events="none" display="none"></path></g></g><g class="mark-group role-axis" role="graphics-symbol" aria-roledescription="axis" aria-label="Y-axis for a linear scale with values from 0 to 650"><g transform="translate(0.5,0.5)"><path class="background" aria-hidden="true" d="M0,0h0v0h0Z" pointer-events="none"></path><g><g class="mark-rule role-axis-tick" pointer-events="none"><line transform="translate(0,200)" x2="-5" y2="0" stroke="#888" stroke-width="1" opacity="1"></line><line transform="translate(0,169)" x2="-5" y2="0" stroke="#888" stroke-width="1" opacity="1"></line><line transform="translate(0,138)" x2="-5" y2="0" stroke="#888" stroke-width="1" opacity="1"></line><line transform="translate(0,108)" x2="-5" y2="0" stroke="#888" stroke-width="1" opacity="1"></line><line transform="translate(0,77)" x2="-5" y2="0" stroke="#888" stroke-width="1" opacity="1"></line><line transform="translate(0,46)" x2="-5" y2="0" stroke="#888" stroke-width="1" opacity="1"></line><line transform="translate(0,15)" x2="-5" y2="0" stroke="#888" stroke-width="1" opacity="1"></line></g><g class="mark-text role-axis-label" pointer-events="none"><text text-anchor="middle" transform="translate(-7,200) rotate(90) translate(0,15)" font-family="avenir" font-size="19px" font-weight="normal" fill="#fff" opacity="1">0</text><text text-anchor="middle" transform="translate(-7,169.23076923076923) rotate(90) translate(0,15)" font-family="avenir" font-size="19px" font-weight="normal" fill="#fff" opacity="1">100</text><text text-anchor="middle" transform="translate(-7,138.46153846153845) rotate(90) translate(0,15)" font-family="avenir" font-size="19px" font-weight="normal" fill="#fff" opacity="1">200</text><text text-anchor="middle" transform="translate(-7,107.6923076923077) rotate(90) translate(0,15)" font-family="avenir" font-size="19px" font-weight="normal" fill="#fff" opacity="1">300</text><text text-anchor="middle" transform="translate(-7,76.92307692307692) rotate(90) translate(0,15)" font-family="avenir" font-size="19px" font-weight="normal" fill="#fff" opacity="1">400</text><text text-anchor="middle" transform="translate(-7,46.153846153846146) rotate(90) translate(0,15)" font-family="avenir" font-size="19px" font-weight="normal" fill="#fff" opacity="1">500</text><text text-anchor="middle" transform="translate(-7,15.384615384615374) rotate(90) translate(0,15)" font-family="avenir" font-size="19px" font-weight="normal" fill="#fff" opacity="1">600</text></g><g class="mark-rule role-axis-domain" pointer-events="none"><line transform="translate(0,200)" x2="0" y2="-200" stroke="#888" stroke-width="1" opacity="1"></line></g></g><path class="foreground" aria-hidden="true" d="" pointer-events="none" display="none"></path></g></g><g class="mark-group role-scope layer_0_pathgroup" role="graphics-object" aria-roledescription="group mark container"><g transform="translate(0,0)"><path class="background" aria-hidden="true" d="M0,0h732v200h-732Z"></path><g><g class="mark-line role-mark layer_0_marks" role="graphics-object" aria-roledescription="line mark container"><path aria-label="Month: Jan; Berkshire: 497; maroon Concrete Beaulah: technologies Chrysler female" role="graphics-symbol" aria-roledescription="line mark" d="M45.75,47.07692307692308C76.25,29.0902588765866,106.75,11.103594676250118,137.25,26.769230769230766C167.75,42.434866862211415,198.25,91.7528032485092,228.75,81.23076923076924C259.25,70.70873521302929,289.75,0.3467307912515878,320.25,12.307692307692308C350.75,24.26865382413303,381.25,118.55258127879219,411.75,134.15384615384616C442.25,149.75511102890013,472.75,86.67371332434885,503.25,73.23076923076923C533.75,59.7878251371896,564.25,95.98333465458165,594.75,109.23076923076924C625.25,122.47820380695683,655.75,112.77756344193995,686.25,103.07692307692307" stroke="#1abeb9" stroke-width="2" stroke-dasharray="8,4"></path></g></g><path class="foreground" aria-hidden="true" d="" display="none"></path></g></g><g class="mark-symbol role-mark layer_1_marks" role="graphics-object" aria-roledescription="symbol mark container"><path aria-label="Month: Jan; Berkshire: 497; maroon Concrete Beaulah: technologies Chrysler female" role="graphics-symbol" aria-roledescription="point" transform="translate(45.75,47.07692307692308)" d="M2.7386127875258306,0A2.7386127875258306,2.7386127875258306,0,1,1,-2.7386127875258306,0A2.7386127875258306,2.7386127875258306,0,1,1,2.7386127875258306,0" fill="#333333" stroke="#1abeb9" stroke-width="2" opacity="1"></path><path aria-label="Month: Feb; Berkshire: 563; maroon Concrete Beaulah: technologies Chrysler female" role="graphics-symbol" aria-roledescription="point" transform="translate(137.25,26.769230769230766)" d="M2.7386127875258306,0A2.7386127875258306,2.7386127875258306,0,1,1,-2.7386127875258306,0A2.7386127875258306,2.7386127875258306,0,1,1,2.7386127875258306,0" fill="#333333" stroke="#1abeb9" stroke-width="2" opacity="1"></path><path aria-label="Month: Mar; Berkshire: 386; maroon Concrete Beaulah: technologies Chrysler female" role="graphics-symbol" aria-roledescription="point" transform="translate(228.75,81.23076923076924)" d="M2.7386127875258306,0A2.7386127875258306,2.7386127875258306,0,1,1,-2.7386127875258306,0A2.7386127875258306,2.7386127875258306,0,1,1,2.7386127875258306,0" fill="#333333" stroke="#1abeb9" stroke-width="2" opacity="1"></path><path aria-label="Month: Apr; Berkshire: 610; maroon Concrete Beaulah: technologies Chrysler female" role="graphics-symbol" aria-roledescription="point" transform="translate(320.25,12.307692307692308)" d="M2.7386127875258306,0A2.7386127875258306,2.7386127875258306,0,1,1,-2.7386127875258306,0A2.7386127875258306,2.7386127875258306,0,1,1,2.7386127875258306,0" fill="#333333" stroke="#1abeb9" stroke-width="2" opacity="1"></path><path aria-label="Month: May; Berkshire: 214; maroon Concrete Beaulah: technologies Chrysler female" role="graphics-symbol" aria-roledescription="point" transform="translate(411.75,134.15384615384616)" d="M2.7386127875258306,0A2.7386127875258306,2.7386127875258306,0,1,1,-2.7386127875258306,0A2.7386127875258306,2.7386127875258306,0,1,1,2.7386127875258306,0" fill="#333333" stroke="#1abeb9" stroke-width="2" opacity="1"></path><path aria-label="Month: June; Berkshire: 412; maroon Concrete Beaulah: technologies Chrysler female" role="graphics-symbol" aria-roledescription="point" transform="translate(503.25,73.23076923076923)" d="M2.7386127875258306,0A2.7386127875258306,2.7386127875258306,0,1,1,-2.7386127875258306,0A2.7386127875258306,2.7386127875258306,0,1,1,2.7386127875258306,0" fill="#333333" stroke="#1abeb9" stroke-width="2" opacity="1"></path><path aria-label="Month: July; Berkshire: 295; maroon Concrete Beaulah: technologies Chrysler female" role="graphics-symbol" aria-roledescription="point" transform="translate(594.75,109.23076923076924)" d="M2.7386127875258306,0A2.7386127875258306,2.7386127875258306,0,1,1,-2.7386127875258306,0A2.7386127875258306,2.7386127875258306,0,1,1,2.7386127875258306,0" fill="#333333" stroke="#1abeb9" stroke-width="2" opacity="1"></path><path aria-label="Month: Aug; Berkshire: 315; maroon Concrete Beaulah: technologies Chrysler female" role="graphics-symbol" aria-roledescription="point" transform="translate(686.25,103.07692307692307)" d="M2.7386127875258306,0A2.7386127875258306,2.7386127875258306,0,1,1,-2.7386127875258306,0A2.7386127875258306,2.7386127875258306,0,1,1,2.7386127875258306,0" fill="#333333" stroke="#1abeb9" stroke-width="2" opacity="1"></path></g><g class="mark-group role-title"><g transform="translate(366,-29)"><path class="background" aria-hidden="true" d="M0,0h0v0h0Z" pointer-events="none"></path><g><g class="mark-text role-title-text" role="graphics-symbol" aria-roledescription="title" aria-label="Title text 'Ball'" pointer-events="none"><text text-anchor="middle" transform="translate(0,20)" font-family="avenir" font-size="25px" font-weight="bold" fill="#fff" opacity="1">Ball</text></g></g><path class="foreground" aria-hidden="true" d="" pointer-events="none" display="none"></path></g></g></g><path class="foreground" aria-hidden="true" d="" display="none"></path></g></g></g></svg>