<svg xmlns="http://www.w3.org/2000/svg" xmlns:xlink="http://www.w3.org/1999/xlink" version="1.1" class="marks" width="961" height="337" viewBox="0 0 961 337" style="background-color: rgb(255, 255, 255);"><g fill="none" stroke-miterlimit="10" transform="translate(23,46)"><g class="mark-group role-frame root" role="graphics-object" aria-roledescription="group mark container"><g transform="translate(0,0)"><path class="background" aria-hidden="true" d="M0.5,0.5h933v200h-933Z" fill="transparent" stroke="#ddd"></path><g><g class="mark-group role-axis" aria-hidden="true"><g transform="translate(0.5,0.5)"><path class="background" aria-hidden="true" d="M0,0h0v0h0Z" pointer-events="none"></path><g><g class="mark-rule role-axis-grid" pointer-events="none"><line transform="translate(0,200)" x2="933" y2="0" stroke="#D0D0D0" stroke-width="1" stroke-dasharray="6, 3" opacity="1"></line><line transform="translate(0,150)" x2="933" y2="0" stroke="#D0D0D0" stroke-width="1" stroke-dasharray="6, 3" opacity="1"></line><line transform="translate(0,100)" x2="933" y2="0" stroke="#D0D0D0" stroke-width="1" stroke-dasharray="6, 3" opacity="1"></line><line transform="translate(0,50)" x2="933" y2="0" stroke="#D0D0D0" stroke-width="1" stroke-dasharray="6, 3" opacity="1"></line><line transform="translate(0,0)" x2="933" y2="0" stroke="#D0D0D0" stroke-width="1" stroke-dasharray="6, 3" opacity="1"></line></g></g><path class="foreground" aria-hidden="true" d="" pointer-events="none" display="none"></path></g></g><g class="mark-group role-axis" role="graphics-symbol" aria-roledescription="axis" aria-label="X-axis for a discrete scale with 6 values: 1946, 1948, 1950, 1952, 1954, 1956"><g transform="translate(0.5,200.5)"><path class="background" aria-hidden="true" d="M0,0h0v0h0Z" pointer-events="none"></path><g><g class="mark-rule role-axis-tick" pointer-events="none"><line transform="translate(78,0)" x2="0" y2="5" stroke="#888" stroke-width="1" opacity="1"></line><line transform="translate(233,0)" x2="0" y2="5" stroke="#888" stroke-width="1" opacity="1"></line><line transform="translate(389,0)" x2="0" y2="5" stroke="#888" stroke-width="1" opacity="1"></line><line transform="translate(544,0)" x2="0" y2="5" stroke="#888" stroke-width="1" opacity="1"></line><line transform="translate(700,0)" x2="0" y2="5" stroke="#888" stroke-width="1" opacity="1"></line><line transform="translate(855,0)" x2="0" y2="5" stroke="#888" stroke-width="1" opacity="1"></line></g><g class="mark-text role-axis-label" pointer-events="none"><text text-anchor="start" transform="translate(77.75,7) rotate(90) translate(0,5)" font-family="Balto" font-size="16px" font-weight="normal" fill="#000" opacity="1">1946</text><text text-anchor="start" transform="translate(233.25,7) rotate(90) translate(0,5)" font-family="Balto" font-size="16px" font-weight="normal" fill="#000" opacity="1">1948</text><text text-anchor="start" transform="translate(388.75,7) rotate(90) translate(0,5)" font-family="Balto" font-size="16px" font-weight="normal" fill="#000" opacity="1">1950</text><text text-anchor="start" transform="translate(544.25,7) rotate(90) translate(0,5)" font-family="Balto" font-size="16px" font-weight="normal" fill="#000" opacity="1">1952</text><text text-anchor="start" transform="translate(699.75,7) rotate(90) translate(0,5)" font-family="Balto" font-size="16px" font-weight="normal" fill="#000" opacity="1">1954</text><text text-anchor="start" transform="translate(855.25,7) rotate(90) translate(0,5)" font-family="Balto" font-size="16px" font-weight="normal" fill="#000" opacity="1">1956</text></g><g class="mark-rule role-axis-domain" pointer-events="none"><line transform="translate(0,0)" x2="933" y2="0" stroke="#888" stroke-width="1" opacity="1"></line></g></g><path class="foreground" aria-hidden="true" d="" pointer-events="none" display="none"></path></g></g><g class="mark-group role-axis" role="graphics-symbol" aria-roledescription="axis" aria-label="Y-axis for a linear scale with values from 0 to 400"><g transform="translate(0.5,0.5)"><path class="background" aria-hidden="true" d="M0,0h0v0h0Z" pointer-events="none"></path><g><g class="mark-text role-axis-label" pointer-events="none"><text text-anchor="middle" transform="translate(-2,200) rotate(90) translate(0,13)" font-family="Balto" font-size="16px" font-weight="normal" fill="#000" opacity="1">0</text><text text-anchor="middle" transform="translate(-2,150) rotate(90) translate(0,13)" font-family="Balto" font-size="16px" font-weight="normal" fill="#000" opacity="1">100</text><text text-anchor="middle" transform="translate(-2,100) rotate(90) translate(0,13)" font-family="Balto" font-size="16px" font-weight="normal" fill="#000" opacity="1">200</text><text text-anchor="middle" transform="translate(-2,50) rotate(90) translate(0,13)" font-family="Balto" font-size="16px" font-weight="normal" fill="#000" opacity="1">300</text><text text-anchor="middle" transform="translate(-2,0) rotate(90) translate(0,13)" font-family="Balto" font-size="16px" font-weight="normal" fill="#000" opacity="1">400</text></g></g><path class="foreground" aria-hidden="true" d="" pointer-events="none" display="none"></path></g></g><g class="mark-group role-scope layer_0_pathgroup" role="graphics-object" aria-roledescription="group mark container"><g transform="translate(0,0)"><path class="background" aria-hidden="true" d="M0,0h933v200h-933Z"></path><g><g class="mark-line role-mark layer_0_marks" role="graphics-object" aria-roledescription="line mark container"><path aria-label="Year: 1946; silver: 304; Plastic alliance: Modern Van violet" role="graphics-symbol" aria-roledescription="line mark" d="M77.75,48C129.58333333333331,94.71690590111642,181.41666666666663,141.43381180223284,233.25,139.5C285.08333333333337,137.56618819776716,336.91666666666674,86.98165869218501,388.75,56.00000000000001C440.58333333333326,25.018341307815003,492.41666666666663,13.639553429027107,544.25,13.99999999999999C596.0833333333334,14.360446570972872,647.9166666666667,26.46012759170653,699.75,34.5C751.5833333333333,42.53987240829347,803.4166666666666,46.51993620414673,855.25,50.499999999999986" stroke="#4eb4e2" stroke-width="2" stroke-dasharray="1,0"></path></g></g><path class="foreground" aria-hidden="true" d="" display="none"></path></g><g transform="translate(0,0)"><path class="background" aria-hidden="true" d="M0,0h933v200h-933Z"></path><g><g class="mark-line role-mark layer_0_marks" role="graphics-object" aria-roledescription="line mark container"><path aria-label="Year: 1946; silver: 18; Plastic alliance: Dynamic" role="graphics-symbol" aria-roledescription="line mark" d="M77.75,191C129.58333333333331,147.42663476874003,181.41666666666663,103.85326953748006,233.25,87.5C285.08333333333337,71.14673046251994,336.91666666666674,82.01355661881976,388.75,78.49999999999999C440.58333333333326,74.98644338118021,492.41666666666663,57.09250398724083,544.25,82.5C596.0833333333334,107.90749601275917,647.9166666666667,176.6164274322169,699.75,181.5C751.5833333333333,186.3835725677831,803.4166666666666,127.44178628389155,855.25,68.5" stroke="#dffab2" stroke-width="2" stroke-dasharray="1,0"></path></g></g><path class="foreground" aria-hidden="true" d="" display="none"></path></g></g><g class="mark-symbol role-mark layer_1_marks" role="graphics-object" aria-roledescription="symbol mark container"><path aria-label="Year: 1946; silver: 304; Plastic alliance: Modern Van violet" role="graphics-symbol" aria-roledescription="point" transform="translate(77.75,48)" d="M2.7386127875258306,0A2.7386127875258306,2.7386127875258306,0,1,1,-2.7386127875258306,0A2.7386127875258306,2.7386127875258306,0,1,1,2.7386127875258306,0" fill="#fff" stroke="#4eb4e2" stroke-width="2" opacity="1"></path><path aria-label="Year: 1948; silver: 121; Plastic alliance: Modern Van violet" role="graphics-symbol" aria-roledescription="point" transform="translate(233.25,139.5)" d="M2.7386127875258306,0A2.7386127875258306,2.7386127875258306,0,1,1,-2.7386127875258306,0A2.7386127875258306,2.7386127875258306,0,1,1,2.7386127875258306,0" fill="#fff" stroke="#4eb4e2" stroke-width="2" opacity="1"></path><path aria-label="Year: 1950; silver: 288; Plastic alliance: Modern Van violet" role="graphics-symbol" aria-roledescription="point" transform="translate(388.75,56.00000000000001)" d="M2.7386127875258306,0A2.7386127875258306,2.7386127875258306,0,1,1,-2.7386127875258306,0A2.7386127875258306,2.7386127875258306,0,1,1,2.7386127875258306,0" fill="#fff" stroke="#4eb4e2" stroke-width="2" opacity="1"></path><path aria-label="Year: 1952; silver: 372; Plastic alliance: Modern Van violet" role="graphics-symbol" aria-roledescription="point" transform="translate(544.25,13.99999999999999)" d="M2.7386127875258306,0A2.7386127875258306,2.7386127875258306,0,1,1,-2.7386127875258306,0A2.7386127875258306,2.7386127875258306,0,1,1,2.7386127875258306,0" fill="#fff" stroke="#4eb4e2" stroke-width="2" opacity="1"></path><path aria-label="Year: 1954; silver: 331; Plastic alliance: Modern Van violet" role="graphics-symbol" aria-roledescription="point" transform="translate(699.75,34.5)" d="M2.7386127875258306,0A2.7386127875258306,2.7386127875258306,0,1,1,-2.7386127875258306,0A2.7386127875258306,2.7386127875258306,0,1,1,2.7386127875258306,0" fill="#fff" stroke="#4eb4e2" stroke-width="2" opacity="1"></path><path aria-label="Year: 1956; silver: 299; Plastic alliance: Modern Van violet" role="graphics-symbol" aria-roledescription="point" transform="translate(855.25,50.499999999999986)" d="M2.7386127875258306,0A2.7386127875258306,2.7386127875258306,0,1,1,-2.7386127875258306,0A2.7386127875258306,2.7386127875258306,0,1,1,2.7386127875258306,0" fill="#fff" stroke="#4eb4e2" stroke-width="2" opacity="1"></path><path aria-label="Year: 1946; silver: 18; Plastic alliance: Dynamic" role="graphics-symbol" aria-roledescription="point" transform="translate(77.75,191)" d="M2.7386127875258306,0A2.7386127875258306,2.7386127875258306,0,1,1,-2.7386127875258306,0A2.7386127875258306,2.7386127875258306,0,1,1,2.7386127875258306,0" fill="#fff" stroke="#dffab2" stroke-width="2" opacity="1"></path><path aria-label="Year: 1948; silver: 225; Plastic alliance: Dynamic" role="graphics-symbol" aria-roledescription="point" transform="translate(233.25,87.5)" d="M2.7386127875258306,0A2.7386127875258306,2.7386127875258306,0,1,1,-2.7386127875258306,0A2.7386127875258306,2.7386127875258306,0,1,1,2.7386127875258306,0" fill="#fff" stroke="#dffab2" stroke-width="2" opacity="1"></path><path aria-label="Year: 1950; silver: 243; Plastic alliance: Dynamic" role="graphics-symbol" aria-roledescription="point" transform="translate(388.75,78.49999999999999)" d="M2.7386127875258306,0A2.7386127875258306,2.7386127875258306,0,1,1,-2.7386127875258306,0A2.7386127875258306,2.7386127875258306,0,1,1,2.7386127875258306,0" fill="#fff" stroke="#dffab2" stroke-width="2" opacity="1"></path><path aria-label="Year: 1952; silver: 235; Plastic alliance: Dynamic" role="graphics-symbol" aria-roledescription="point" transform="translate(544.25,82.5)" d="M2.7386127875258306,0A2.7386127875258306,2.7386127875258306,0,1,1,-2.7386127875258306,0A2.7386127875258306,2.7386127875258306,0,1,1,2.7386127875258306,0" fill="#fff" stroke="#dffab2" stroke-width="2" opacity="1"></path><path aria-label="Year: 1954; silver: 37; Plastic alliance: Dynamic" role="graphics-symbol" aria-roledescription="point" transform="translate(699.75,181.5)" d="M2.7386127875258306,0A2.7386127875258306,2.7386127875258306,0,1,1,-2.7386127875258306,0A2.7386127875258306,2.7386127875258306,0,1,1,2.7386127875258306,0" fill="#fff" stroke="#dffab2" stroke-width="2" opacity="1"></path><path aria-label="Year: 1956; silver: 263; Plastic alliance: Dynamic" role="graphics-symbol" aria-roledescription="point" transform="translate(855.25,68.5)" d="M2.7386127875258306,0A2.7386127875258306,2.7386127875258306,0,1,1,-2.7386127875258306,0A2.7386127875258306,2.7386127875258306,0,1,1,2.7386127875258306,0" fill="#fff" stroke="#dffab2" stroke-width="2" opacity="1"></path></g><g class="mark-group role-legend" role="graphics-symbol" aria-roledescription="legend" aria-label="Symbol legend titled 'Plastic alliance' for stroke color with 2 values: Modern Van violet, Dynamic"><g transform="translate(0,257)"><path class="background" aria-hidden="true" d="M0,0h155v29h-155Z" pointer-events="none"></path><g><g class="mark-group role-legend-entry"><g transform="translate(0,16)"><path class="background" aria-hidden="true" d="M0,0h0v0h0Z" pointer-events="none"></path><g><g class="mark-group role-scope" role="graphics-object" aria-roledescription="group mark container"><g transform="translate(0,0.25)"><path class="background" aria-hidden="true" d="M0,0h90.9853515625v12.5h-90.9853515625Z" pointer-events="none" opacity="1"></path><g><g class="mark-symbol role-legend-symbol" pointer-events="none"><path transform="translate(6,6)" d="M5,0A5,5,0,1,1,-5,0A5,5,0,1,1,5,0" fill="#fff" stroke="#4eb4e2" stroke-width="1.5" opacity="1"></path></g><g class="mark-text role-legend-label" pointer-events="none"><text text-anchor="start" transform="translate(16,9)" font-family="Balto" font-size="10px" fill="#000" opacity="1">Modern Van violet</text></g></g><path class="foreground" aria-hidden="true" d="" pointer-events="none" display="none"></path></g><g transform="translate(102,0.25)"><path class="background" aria-hidden="true" d="M0,0h52.6552734375v12.5h-52.6552734375Z" pointer-events="none" opacity="1"></path><g><g class="mark-symbol role-legend-symbol" pointer-events="none"><path transform="translate(6,6)" d="M5,0A5,5,0,1,1,-5,0A5,5,0,1,1,5,0" fill="#fff" stroke="#dffab2" stroke-width="1.5" opacity="1"></path></g><g class="mark-text role-legend-label" pointer-events="none"><text text-anchor="start" transform="translate(16,9)" font-family="Balto" font-size="10px" fill="#000" opacity="1">Dynamic</text></g></g><path class="foreground" aria-hidden="true" d="" pointer-events="none" display="none"></path></g></g></g><path class="foreground" aria-hidden="true" d="" pointer-events="none" display="none"></path></g></g><g class="mark-text role-legend-title" pointer-events="none"><text text-anchor="start" transform="translate(0,9)" font-family="Balto" font-size="11px" font-weight="bold" fill="#000" opacity="1">Plastic alliance</text></g></g><path class="foreground" aria-hidden="true" d="" pointer-events="none" display="none"></path></g></g><g class="mark-group role-title"><g transform="translate(466.5,-41)"><path class="background" aria-hidden="true" d="M0,0h0v0h0Z" pointer-events="none"></path><g><g class="mark-text role-title-text" role="graphics-symbol" aria-roledescription="title" aria-label="Title text 'panel SQL Usability'" pointer-events="none"><text text-anchor="middle" transform="translate(0,20)" font-family="Balto" font-size="25px" font-weight="bold" fill="#000" opacity="1">panel SQL Usability</text></g></g><path class="foreground" aria-hidden="true" d="" pointer-events="none" display="none"></path></g></g></g><path class="foreground" aria-hidden="true" d="" display="none"></path></g></g></g></svg>