<svg xmlns="http://www.w3.org/2000/svg" xmlns:xlink="http://www.w3.org/1999/xlink" version="1.1" class="marks" width="715" height="315" viewBox="0 0 715 315" style="background-color: rgb(51, 51, 51);"><g fill="none" stroke-miterlimit="10" transform="translate(30,87)"><g class="mark-group role-frame root" role="graphics-object" aria-roledescription="group mark container"><g transform="translate(0,0)"><path class="background" aria-hidden="true" d="M0.5,0.5h680v200h-680Z" fill="transparent" stroke="#ddd"></path><g><g class="mark-group role-axis" aria-hidden="true"><g transform="translate(0.5,0.5)"><path class="background" aria-hidden="true" d="M0,0h0v0h0Z" pointer-events="none"></path><g><g class="mark-rule role-axis-grid" pointer-events="none"><line transform="translate(0,200)" x2="680" y2="0" stroke="#747474" stroke-width="1" stroke-dasharray="1,0" opacity="1"></line><line transform="translate(0,156)" x2="680" y2="0" stroke="#747474" stroke-width="1" stroke-dasharray="1,0" opacity="1"></line><line transform="translate(0,111)" x2="680" y2="0" stroke="#747474" stroke-width="1" stroke-dasharray="1,0" opacity="1"></line><line transform="translate(0,67)" x2="680" y2="0" stroke="#747474" stroke-width="1" stroke-dasharray="1,0" opacity="1"></line><line transform="translate(0,22)" x2="680" y2="0" stroke="#747474" stroke-width="1" stroke-dasharray="1,0" opacity="1"></line></g></g><path class="foreground" aria-hidden="true" d="" pointer-events="none" display="none"></path></g></g><g class="mark-group role-axis" role="graphics-symbol" aria-roledescription="axis" aria-label="X-axis for a discrete scale with 6 values: Jan, Feb, Mar, Apr, May, June"><g transform="translate(0.5,200.5)"><path class="background" aria-hidden="true" d="M0,0h0v0h0Z" pointer-events="none"></path><g><g class="mark-rule role-axis-tick" pointer-events="none"><line transform="translate(57,0)" x2="0" y2="5" stroke="#888" stroke-width="1" opacity="1"></line><line transform="translate(170,0)" x2="0" y2="5" stroke="#888" stroke-width="1" opacity="1"></line><line transform="translate(283,0)" x2="0" y2="5" stroke="#888" stroke-width="1" opacity="1"></line><line transform="translate(397,0)" x2="0" y2="5" stroke="#888" stroke-width="1" opacity="1"></line><line transform="translate(510,0)" x2="0" y2="5" stroke="#888" stroke-width="1" opacity="1"></line><line transform="translate(623,0)" x2="0" y2="5" stroke="#888" stroke-width="1" opacity="1"></line></g><g class="mark-text role-axis-label" pointer-events="none"><text text-anchor="middle" transform="translate(56.666666666666686,20)" font-family="monospace" font-size="16px" font-weight="bold" fill="#fff" opacity="1">Jan</text><text text-anchor="middle" transform="translate(170,20)" font-family="monospace" font-size="16px" font-weight="bold" fill="#fff" opacity="1">Feb</text><text text-anchor="middle" transform="translate(283.33333333333337,20)" font-family="monospace" font-size="16px" font-weight="bold" fill="#fff" opacity="1">Mar</text><text text-anchor="middle" transform="translate(396.6666666666667,20)" font-family="monospace" font-size="16px" font-weight="bold" fill="#fff" opacity="1">Apr</text><text text-anchor="middle" transform="translate(510,20)" font-family="monospace" font-size="16px" font-weight="bold" fill="#fff" opacity="1">May</text><text text-anchor="middle" transform="translate(623.3333333333333,20)" font-family="monospace" font-size="16px" font-weight="bold" fill="#fff" opacity="1">June</text></g><g class="mark-rule role-axis-domain" pointer-events="none"><line transform="translate(0,0)" x2="680" y2="0" stroke="#888" stroke-width="1" opacity="1"></line></g></g><path class="foreground" aria-hidden="true" d="" pointer-events="none" display="none"></path></g></g><g class="mark-group role-axis" role="graphics-symbol" aria-roledescription="axis" aria-label="Y-axis for a linear scale with values from 0 to 90"><g transform="translate(0.5,0.5)"><path class="background" aria-hidden="true" d="M0,0h0v0h0Z" pointer-events="none"></path><g><g class="mark-rule role-axis-tick" pointer-events="none"><line transform="translate(0,200)" x2="-5" y2="0" stroke="#888" stroke-width="1" opacity="1"></line><line transform="translate(0,156)" x2="-5" y2="0" stroke="#888" stroke-width="1" opacity="1"></line><line transform="translate(0,111)" x2="-5" y2="0" stroke="#888" stroke-width="1" opacity="1"></line><line transform="translate(0,67)" x2="-5" y2="0" stroke="#888" stroke-width="1" opacity="1"></line><line transform="translate(0,22)" x2="-5" y2="0" stroke="#888" stroke-width="1" opacity="1"></line></g><g class="mark-text role-axis-label" pointer-events="none"><text text-anchor="end" transform="translate(-7,205)" font-family="monospace" font-size="16px" font-weight="bold" fill="#fff" opacity="1">0</text><text text-anchor="end" transform="translate(-7,160.55555555555557)" font-family="monospace" font-size="16px" font-weight="bold" fill="#fff" opacity="1">20</text><text text-anchor="end" transform="translate(-7,116.11111111111111)" font-family="monospace" font-size="16px" font-weight="bold" fill="#fff" opacity="1">40</text><text text-anchor="end" transform="translate(-7,71.66666666666667)" font-family="monospace" font-size="16px" font-weight="bold" fill="#fff" opacity="1">60</text><text text-anchor="end" transform="translate(-7,27.222222222222232)" font-family="monospace" font-size="16px" font-weight="bold" fill="#fff" opacity="1">80</text></g><g class="mark-rule role-axis-domain" pointer-events="none"><line transform="translate(0,200)" x2="0" y2="-200" stroke="#888" stroke-width="1" opacity="1"></line></g></g><path class="foreground" aria-hidden="true" d="" pointer-events="none" display="none"></path></g></g><g class="mark-group role-scope layer_0_pathgroup" role="graphics-object" aria-roledescription="group mark container"><g transform="translate(0,0)"><path class="background" aria-hidden="true" d="M0,0h680v200h-680Z"></path><g><g class="mark-line role-mark layer_0_marks" role="graphics-object" aria-roledescription="line mark container"><path aria-label="Month: Jan; national inquisitively Northwest: 69; synthesizing: Analyst" role="graphics-symbol" aria-roledescription="line mark" d="M56.666666666666686,46.66666666666666C94.44444444444443,83.56902356902359,132.22222222222217,120.47138047138047,170,111.11111111111111C207.77777777777783,101.75084175084176,245.5555555555556,46.12794612794614,283.33333333333337,22.222222222222232C321.11111111111114,-1.6835016835016725,358.8888888888888,6.1279461279461245,396.6666666666667,8.888888888888879C434.44444444444457,11.649831649831633,472.2222222222223,9.36026936026935,510,15.555555555555545C547.7777777777777,21.75084175084174,585.5555555555554,36.43097643097642,623.3333333333333,51.11111111111111" stroke="#cd949d" stroke-width="2" stroke-dasharray="8,8"></path></g></g><path class="foreground" aria-hidden="true" d="" display="none"></path></g><g transform="translate(0,0)"><path class="background" aria-hidden="true" d="M0,0h680v200h-680Z"></path><g><g class="mark-line role-mark layer_0_marks" role="graphics-object" aria-roledescription="line mark container"><path aria-label="Month: Jan; national inquisitively Northwest: 87; synthesizing: aw" role="graphics-symbol" aria-roledescription="line mark" d="M56.666666666666686,6.666666666666665C94.44444444444443,-4.136097820308343,132.22222222222217,-14.938862307283351,170,24.444444444444446C207.77777777777783,63.827751196172244,245.5555555555556,153.39712918660285,283.33333333333337,175.55555555555554C321.11111111111114,197.71398192450823,358.8888888888888,152.461456671983,396.6666666666667,128.88888888888889C434.44444444444457,105.31632110579478,472.2222222222223,103.42371079213184,510,106.66666666666667C547.7777777777777,109.9096225412015,585.5555555555554,118.28814460393409,623.3333333333333,126.66666666666666" stroke="#cbdc1a" stroke-width="2" stroke-dasharray="8,8"></path></g></g><path class="foreground" aria-hidden="true" d="" display="none"></path></g></g><g class="mark-symbol role-mark layer_1_marks" role="graphics-object" aria-roledescription="symbol mark container"><path aria-label="Month: Jan; national inquisitively Northwest: 69; synthesizing: Analyst" role="graphics-symbol" aria-roledescription="point" transform="translate(56.666666666666686,46.66666666666666)" d="M2.7386127875258306,0A2.7386127875258306,2.7386127875258306,0,1,1,-2.7386127875258306,0A2.7386127875258306,2.7386127875258306,0,1,1,2.7386127875258306,0" fill="#333333" stroke="#cd949d" stroke-width="3" opacity="1"></path><path aria-label="Month: Feb; national inquisitively Northwest: 40; synthesizing: Analyst" role="graphics-symbol" aria-roledescription="point" transform="translate(170,111.11111111111111)" d="M2.7386127875258306,0A2.7386127875258306,2.7386127875258306,0,1,1,-2.7386127875258306,0A2.7386127875258306,2.7386127875258306,0,1,1,2.7386127875258306,0" fill="#333333" stroke="#cd949d" stroke-width="3" opacity="1"></path><path aria-label="Month: Mar; national inquisitively Northwest: 80; synthesizing: Analyst" role="graphics-symbol" aria-roledescription="point" transform="translate(283.33333333333337,22.222222222222232)" d="M2.7386127875258306,0A2.7386127875258306,2.7386127875258306,0,1,1,-2.7386127875258306,0A2.7386127875258306,2.7386127875258306,0,1,1,2.7386127875258306,0" fill="#333333" stroke="#cd949d" stroke-width="3" opacity="1"></path><path aria-label="Month: Apr; national inquisitively Northwest: 86; synthesizing: Analyst" role="graphics-symbol" aria-roledescription="point" transform="translate(396.6666666666667,8.888888888888879)" d="M2.7386127875258306,0A2.7386127875258306,2.7386127875258306,0,1,1,-2.7386127875258306,0A2.7386127875258306,2.7386127875258306,0,1,1,2.7386127875258306,0" fill="#333333" stroke="#cd949d" stroke-width="3" opacity="1"></path><path aria-label="Month: May; national inquisitively Northwest: 83; synthesizing: Analyst" role="graphics-symbol" aria-roledescription="point" transform="translate(510,15.555555555555545)" d="M2.7386127875258306,0A2.7386127875258306,2.7386127875258306,0,1,1,-2.7386127875258306,0A2.7386127875258306,2.7386127875258306,0,1,1,2.7386127875258306,0" fill="#333333" stroke="#cd949d" stroke-width="3" opacity="1"></path><path aria-label="Month: June; national inquisitively Northwest: 67; synthesizing: Analyst" role="graphics-symbol" aria-roledescription="point" transform="translate(623.3333333333333,51.11111111111111)" d="M2.7386127875258306,0A2.7386127875258306,2.7386127875258306,0,1,1,-2.7386127875258306,0A2.7386127875258306,2.7386127875258306,0,1,1,2.7386127875258306,0" fill="#333333" stroke="#cd949d" stroke-width="3" opacity="1"></path><path aria-label="Month: Jan; national inquisitively Northwest: 87; synthesizing: aw" role="graphics-symbol" aria-roledescription="point" transform="translate(56.666666666666686,6.666666666666665)" d="M2.7386127875258306,0A2.7386127875258306,2.7386127875258306,0,1,1,-2.7386127875258306,0A2.7386127875258306,2.7386127875258306,0,1,1,2.7386127875258306,0" fill="#333333" stroke="#cbdc1a" stroke-width="3" opacity="1"></path><path aria-label="Month: Feb; national inquisitively Northwest: 79; synthesizing: aw" role="graphics-symbol" aria-roledescription="point" transform="translate(170,24.444444444444446)" d="M2.7386127875258306,0A2.7386127875258306,2.7386127875258306,0,1,1,-2.7386127875258306,0A2.7386127875258306,2.7386127875258306,0,1,1,2.7386127875258306,0" fill="#333333" stroke="#cbdc1a" stroke-width="3" opacity="1"></path><path aria-label="Month: Mar; national inquisitively Northwest: 11; synthesizing: aw" role="graphics-symbol" aria-roledescription="point" transform="translate(283.33333333333337,175.55555555555554)" d="M2.7386127875258306,0A2.7386127875258306,2.7386127875258306,0,1,1,-2.7386127875258306,0A2.7386127875258306,2.7386127875258306,0,1,1,2.7386127875258306,0" fill="#333333" stroke="#cbdc1a" stroke-width="3" opacity="1"></path><path aria-label="Month: Apr; national inquisitively Northwest: 32; synthesizing: aw" role="graphics-symbol" aria-roledescription="point" transform="translate(396.6666666666667,128.88888888888889)" d="M2.7386127875258306,0A2.7386127875258306,2.7386127875258306,0,1,1,-2.7386127875258306,0A2.7386127875258306,2.7386127875258306,0,1,1,2.7386127875258306,0" fill="#333333" stroke="#cbdc1a" stroke-width="3" opacity="1"></path><path aria-label="Month: May; national inquisitively Northwest: 42; synthesizing: aw" role="graphics-symbol" aria-roledescription="point" transform="translate(510,106.66666666666667)" d="M2.7386127875258306,0A2.7386127875258306,2.7386127875258306,0,1,1,-2.7386127875258306,0A2.7386127875258306,2.7386127875258306,0,1,1,2.7386127875258306,0" fill="#333333" stroke="#cbdc1a" stroke-width="3" opacity="1"></path><path aria-label="Month: June; national inquisitively Northwest: 33; synthesizing: aw" role="graphics-symbol" aria-roledescription="point" transform="translate(623.3333333333333,126.66666666666666)" d="M2.7386127875258306,0A2.7386127875258306,2.7386127875258306,0,1,1,-2.7386127875258306,0A2.7386127875258306,2.7386127875258306,0,1,1,2.7386127875258306,0" fill="#333333" stroke="#cbdc1a" stroke-width="3" opacity="1"></path></g><g class="mark-group role-legend" role="graphics-symbol" aria-roledescription="legend" aria-label="Symbol legend titled 'synthesizing' for stroke color with 2 values: Analyst, aw"><g transform="translate(0,-53)"><path class="background" aria-hidden="true" d="M0,0h93v29h-93Z" pointer-events="none"></path><g><g class="mark-group role-legend-entry"><g transform="translate(0,16)"><path class="background" aria-hidden="true" d="M0,0h0v0h0Z" pointer-events="none"></path><g><g class="mark-group role-scope" role="graphics-object" aria-roledescription="group mark container"><g transform="translate(0,0.25)"><path class="background" aria-hidden="true" d="M0,0h54.486328125v12.5h-54.486328125Z" pointer-events="none" opacity="1"></path><g><g class="mark-symbol role-legend-symbol" pointer-events="none"><path transform="translate(6,6)" d="M5,0A5,5,0,1,1,-5,0A5,5,0,1,1,5,0" fill="#333333" stroke="#cd949d" stroke-width="1.5" opacity="1"></path></g><g class="mark-text role-legend-label" pointer-events="none"><text text-anchor="start" transform="translate(16,9)" font-family="monospace" font-size="10px" fill="#fff" opacity="1">Analyst</text></g></g><path class="foreground" aria-hidden="true" d="" pointer-events="none" display="none"></path></g><g transform="translate(66,0.25)"><path class="background" aria-hidden="true" d="M0,0h26.99609375v12.5h-26.99609375Z" pointer-events="none" opacity="1"></path><g><g class="mark-symbol role-legend-symbol" pointer-events="none"><path transform="translate(6,6)" d="M5,0A5,5,0,1,1,-5,0A5,5,0,1,1,5,0" fill="#333333" stroke="#cbdc1a" stroke-width="1.5" opacity="1"></path></g><g class="mark-text role-legend-label" pointer-events="none"><text text-anchor="start" transform="translate(16,9)" font-family="monospace" font-size="10px" fill="#fff" opacity="1">aw</text></g></g><path class="foreground" aria-hidden="true" d="" pointer-events="none" display="none"></path></g></g></g><path class="foreground" aria-hidden="true" d="" pointer-events="none" display="none"></path></g></g><g class="mark-text role-legend-title" pointer-events="none"><text text-anchor="start" transform="translate(0,9)" font-family="monospace" font-size="11px" font-weight="bold" fill="#fff" opacity="1">synthesizing</text></g></g><path class="foreground" aria-hidden="true" d="" pointer-events="none" display="none"></path></g></g><g class="mark-group role-title"><g transform="translate(-24.59375,-82)"><path class="background" aria-hidden="true" d="M0,0h0v0h0Z" pointer-events="none"></path><g><g class="mark-text role-title-text" role="graphics-symbol" aria-roledescription="title" aria-label="Title text 'Bronze Keyboard wireless'" pointer-events="none"><text text-anchor="start" transform="translate(0,20)" font-family="monospace" font-size="25px" font-weight="bold" fill="#fff" opacity="1">Bronze Keyboard wireless</text></g></g><path class="foreground" aria-hidden="true" d="" pointer-events="none" display="none"></path></g></g></g><path class="foreground" aria-hidden="true" d="" display="none"></path></g></g></g></svg>