<svg xmlns="http://www.w3.org/2000/svg" xmlns:xlink="http://www.w3.org/1999/xlink" version="1.1" class="marks" width="838" height="279" viewBox="0 0 838 279" style="background-color: rgb(255, 255, 255);"><g fill="none" stroke-miterlimit="10" transform="translate(39,48)"><g class="mark-group role-frame root" role="graphics-object" aria-roledescription="group mark container"><g transform="translate(0,0)"><path class="background" aria-hidden="true" d="M0.5,0.5h794v200h-794Z" fill="transparent" stroke="#ddd"></path><g><g class="mark-group role-axis" role="graphics-symbol" aria-roledescription="axis" aria-label="X-axis for a discrete scale with 11 values: Jan, Feb, Mar, Apr, May, ending with Nov"><g transform="translate(0.5,200.5)"><path class="background" aria-hidden="true" d="M0,0h0v0h0Z" pointer-events="none"></path><g><g class="mark-rule role-axis-tick" pointer-events="none"><line transform="translate(36,0)" x2="0" y2="5" stroke="#888" stroke-width="1" opacity="1"></line><line transform="translate(108,0)" x2="0" y2="5" stroke="#888" stroke-width="1" opacity="1"></line><line transform="translate(180,0)" x2="0" y2="5" stroke="#888" stroke-width="1" opacity="1"></line><line transform="translate(253,0)" x2="0" y2="5" stroke="#888" stroke-width="1" opacity="1"></line><line transform="translate(325,0)" x2="0" y2="5" stroke="#888" stroke-width="1" opacity="1"></line><line transform="translate(397,0)" x2="0" y2="5" stroke="#888" stroke-width="1" opacity="1"></line><line transform="translate(469,0)" x2="0" y2="5" stroke="#888" stroke-width="1" opacity="1"></line><line transform="translate(541,0)" x2="0" y2="5" stroke="#888" stroke-width="1" opacity="1"></line><line transform="translate(614,0)" x2="0" y2="5" stroke="#888" stroke-width="1" opacity="1"></line><line transform="translate(686,0)" x2="0" y2="5" stroke="#888" stroke-width="1" opacity="1"></line><line transform="translate(758,0)" x2="0" y2="5" stroke="#888" stroke-width="1" opacity="1"></line></g><g class="mark-text role-axis-label" pointer-events="none"><text text-anchor="middle" transform="translate(36.090909090909065,22)" font-family="monospace" font-size="19px" font-weight="bold" fill="#000" opacity="1">Jan</text><text text-anchor="middle" transform="translate(108.27272727272725,22)" font-family="monospace" font-size="19px" font-weight="bold" fill="#000" opacity="1">Feb</text><text text-anchor="middle" transform="translate(180.45454545454544,22)" font-family="monospace" font-size="19px" font-weight="bold" fill="#000" opacity="1">Mar</text><text text-anchor="middle" transform="translate(252.63636363636363,22)" font-family="monospace" font-size="19px" font-weight="bold" fill="#000" opacity="1">Apr</text><text text-anchor="middle" transform="translate(324.8181818181818,22)" font-family="monospace" font-size="19px" font-weight="bold" fill="#000" opacity="1">May</text><text text-anchor="middle" transform="translate(397,22)" font-family="monospace" font-size="19px" font-weight="bold" fill="#000" opacity="1">June</text><text text-anchor="middle" transform="translate(469.1818181818182,22)" font-family="monospace" font-size="19px" font-weight="bold" fill="#000" opacity="1">July</text><text text-anchor="middle" transform="translate(541.3636363636364,22)" font-family="monospace" font-size="19px" font-weight="bold" fill="#000" opacity="1">Aug</text><text text-anchor="middle" transform="translate(613.5454545454545,22)" font-family="monospace" font-size="19px" font-weight="bold" fill="#000" opacity="1">Sep</text><text text-anchor="middle" transform="translate(685.7272727272727,22)" font-family="monospace" font-size="19px" font-weight="bold" fill="#000" opacity="1">Oct</text><text text-anchor="middle" transform="translate(757.909090909091,22)" font-family="monospace" font-size="19px" font-weight="bold" fill="#000" opacity="1">Nov</text></g><g class="mark-rule role-axis-domain" pointer-events="none"><line transform="translate(0,0)" x2="794" y2="0" stroke="#888" stroke-width="1" opacity="1"></line></g></g><path class="foreground" aria-hidden="true" d="" pointer-events="none" display="none"></path></g></g><g class="mark-group role-axis" role="graphics-symbol" aria-roledescription="axis" aria-label="Y-axis for a linear scale with values from 0 to 160"><g transform="translate(0.5,0.5)"><path class="background" aria-hidden="true" d="M0,0h0v0h0Z" pointer-events="none"></path><g><g class="mark-text role-axis-label" pointer-events="none"><text text-anchor="end" transform="translate(-2,206)" font-family="monospace" font-size="19px" font-weight="bold" fill="#000" opacity="1">0</text><text text-anchor="end" transform="translate(-2,143.5)" font-family="monospace" font-size="19px" font-weight="bold" fill="#000" opacity="1">50</text><text text-anchor="end" transform="translate(-2,81)" font-family="monospace" font-size="19px" font-weight="bold" fill="#000" opacity="1">100</text><text text-anchor="end" transform="translate(-2,18.5)" font-family="monospace" font-size="19px" font-weight="bold" fill="#000" opacity="1">150</text></g></g><path class="foreground" aria-hidden="true" d="" pointer-events="none" display="none"></path></g></g><g class="mark-group role-scope layer_0_pathgroup" role="graphics-object" aria-roledescription="group mark container"><g transform="translate(0,0)"><path class="background" aria-hidden="true" d="M0,0h794v200h-794Z"></path><g><g class="mark-line role-mark layer_0_marks" role="graphics-object" aria-roledescription="line mark container"><path aria-label="Month: Jan; visualize purple: 150; Producer Games: indigo" role="graphics-symbol" aria-roledescription="line mark" d="M36.090909090909065,12.5L108.27272727272725,192.5L180.45454545454544,125L252.63636363636363,151.25L324.8181818181818,64.99999999999999L397,89.99999999999999L469.1818181818182,93.75L541.3636363636364,50L613.5454545454545,157.5L685.7272727272727,145L757.909090909091,17.500000000000004" stroke="#6d447e" stroke-width="2" stroke-dasharray="1,0"></path></g></g><path class="foreground" aria-hidden="true" d="" display="none"></path></g></g><g class="mark-symbol role-mark layer_1_marks" role="graphics-object" aria-roledescription="symbol mark container"><path aria-label="Month: Jan; visualize purple: 150; Producer Games: indigo" role="graphics-symbol" aria-roledescription="point" transform="translate(36.090909090909065,12.5)" d="M2.7386127875258306,0A2.7386127875258306,2.7386127875258306,0,1,1,-2.7386127875258306,0A2.7386127875258306,2.7386127875258306,0,1,1,2.7386127875258306,0" fill="#fff" stroke="#6d447e" stroke-width="4" opacity="1"></path><path aria-label="Month: Feb; visualize purple: 6; Producer Games: indigo" role="graphics-symbol" aria-roledescription="point" transform="translate(108.27272727272725,192.5)" d="M2.7386127875258306,0A2.7386127875258306,2.7386127875258306,0,1,1,-2.7386127875258306,0A2.7386127875258306,2.7386127875258306,0,1,1,2.7386127875258306,0" fill="#fff" stroke="#6d447e" stroke-width="4" opacity="1"></path><path aria-label="Month: Mar; visualize purple: 60; Producer Games: indigo" role="graphics-symbol" aria-roledescription="point" transform="translate(180.45454545454544,125)" d="M2.7386127875258306,0A2.7386127875258306,2.7386127875258306,0,1,1,-2.7386127875258306,0A2.7386127875258306,2.7386127875258306,0,1,1,2.7386127875258306,0" fill="#fff" stroke="#6d447e" stroke-width="4" opacity="1"></path><path aria-label="Month: Apr; visualize purple: 39; Producer Games: indigo" role="graphics-symbol" aria-roledescription="point" transform="translate(252.63636363636363,151.25)" d="M2.7386127875258306,0A2.7386127875258306,2.7386127875258306,0,1,1,-2.7386127875258306,0A2.7386127875258306,2.7386127875258306,0,1,1,2.7386127875258306,0" fill="#fff" stroke="#6d447e" stroke-width="4" opacity="1"></path><path aria-label="Month: May; visualize purple: 108; Producer Games: indigo" role="graphics-symbol" aria-roledescription="point" transform="translate(324.8181818181818,64.99999999999999)" d="M2.7386127875258306,0A2.7386127875258306,2.7386127875258306,0,1,1,-2.7386127875258306,0A2.7386127875258306,2.7386127875258306,0,1,1,2.7386127875258306,0" fill="#fff" stroke="#6d447e" stroke-width="4" opacity="1"></path><path aria-label="Month: June; visualize purple: 88; Producer Games: indigo" role="graphics-symbol" aria-roledescription="point" transform="translate(397,89.99999999999999)" d="M2.7386127875258306,0A2.7386127875258306,2.7386127875258306,0,1,1,-2.7386127875258306,0A2.7386127875258306,2.7386127875258306,0,1,1,2.7386127875258306,0" fill="#fff" stroke="#6d447e" stroke-width="4" opacity="1"></path><path aria-label="Month: July; visualize purple: 85; Producer Games: indigo" role="graphics-symbol" aria-roledescription="point" transform="translate(469.1818181818182,93.75)" d="M2.7386127875258306,0A2.7386127875258306,2.7386127875258306,0,1,1,-2.7386127875258306,0A2.7386127875258306,2.7386127875258306,0,1,1,2.7386127875258306,0" fill="#fff" stroke="#6d447e" stroke-width="4" opacity="1"></path><path aria-label="Month: Aug; visualize purple: 120; Producer Games: indigo" role="graphics-symbol" aria-roledescription="point" transform="translate(541.3636363636364,50)" d="M2.7386127875258306,0A2.7386127875258306,2.7386127875258306,0,1,1,-2.7386127875258306,0A2.7386127875258306,2.7386127875258306,0,1,1,2.7386127875258306,0" fill="#fff" stroke="#6d447e" stroke-width="4" opacity="1"></path><path aria-label="Month: Sep; visualize purple: 34; Producer Games: indigo" role="graphics-symbol" aria-roledescription="point" transform="translate(613.5454545454545,157.5)" d="M2.7386127875258306,0A2.7386127875258306,2.7386127875258306,0,1,1,-2.7386127875258306,0A2.7386127875258306,2.7386127875258306,0,1,1,2.7386127875258306,0" fill="#fff" stroke="#6d447e" stroke-width="4" opacity="1"></path><path aria-label="Month: Oct; visualize purple: 44; Producer Games: indigo" role="graphics-symbol" aria-roledescription="point" transform="translate(685.7272727272727,145)" d="M2.7386127875258306,0A2.7386127875258306,2.7386127875258306,0,1,1,-2.7386127875258306,0A2.7386127875258306,2.7386127875258306,0,1,1,2.7386127875258306,0" fill="#fff" stroke="#6d447e" stroke-width="4" opacity="1"></path><path aria-label="Month: Nov; visualize purple: 146; Producer Games: indigo" role="graphics-symbol" aria-roledescription="point" transform="translate(757.909090909091,17.500000000000004)" d="M2.7386127875258306,0A2.7386127875258306,2.7386127875258306,0,1,1,-2.7386127875258306,0A2.7386127875258306,2.7386127875258306,0,1,1,2.7386127875258306,0" fill="#fff" stroke="#6d447e" stroke-width="4" opacity="1"></path></g><g class="mark-text role-mark layer_2_marks" role="graphics-object" aria-roledescription="text mark container"><text aria-label="Month: Jan; visualize purple: 150" role="graphics-symbol" aria-roledescription="text mark" text-anchor="middle" transform="translate(36.090909090909065,-3.5)" font-family="monospace" font-size="13px" fill="#000" opacity="1">150</text><text aria-label="Month: Feb; visualize purple: 6" role="graphics-symbol" aria-roledescription="text mark" text-anchor="middle" transform="translate(108.27272727272725,176.5)" font-family="monospace" font-size="13px" fill="#000" opacity="1">6</text><text aria-label="Month: Mar; visualize purple: 60" role="graphics-symbol" aria-roledescription="text mark" text-anchor="middle" transform="translate(180.45454545454544,109)" font-family="monospace" font-size="13px" fill="#000" opacity="1">60</text><text aria-label="Month: Apr; visualize purple: 39" role="graphics-symbol" aria-roledescription="text mark" text-anchor="middle" transform="translate(252.63636363636363,135.25)" font-family="monospace" font-size="13px" fill="#000" opacity="1">39</text><text aria-label="Month: May; visualize purple: 108" role="graphics-symbol" aria-roledescription="text mark" text-anchor="middle" transform="translate(324.8181818181818,48.999999999999986)" font-family="monospace" font-size="13px" fill="#000" opacity="1">108</text><text aria-label="Month: June; visualize purple: 88" role="graphics-symbol" aria-roledescription="text mark" text-anchor="middle" transform="translate(397,73.99999999999999)" font-family="monospace" font-size="13px" fill="#000" opacity="1">88</text><text aria-label="Month: July; visualize purple: 85" role="graphics-symbol" aria-roledescription="text mark" text-anchor="middle" transform="translate(469.1818181818182,77.75)" font-family="monospace" font-size="13px" fill="#000" opacity="1">85</text><text aria-label="Month: Aug; visualize purple: 120" role="graphics-symbol" aria-roledescription="text mark" text-anchor="middle" transform="translate(541.3636363636364,34)" font-family="monospace" font-size="13px" fill="#000" opacity="1">120</text><text aria-label="Month: Sep; visualize purple: 34" role="graphics-symbol" aria-roledescription="text mark" text-anchor="middle" transform="translate(613.5454545454545,141.5)" font-family="monospace" font-size="13px" fill="#000" opacity="1">34</text><text aria-label="Month: Oct; visualize purple: 44" role="graphics-symbol" aria-roledescription="text mark" text-anchor="middle" transform="translate(685.7272727272727,129)" font-family="monospace" font-size="13px" fill="#000" opacity="1">44</text><text aria-label="Month: Nov; visualize purple: 146" role="graphics-symbol" aria-roledescription="text mark" text-anchor="middle" transform="translate(757.909090909091,1.5000000000000036)" font-family="monospace" font-size="13px" fill="#000" opacity="1">146</text></g><g class="mark-group role-title"><g transform="translate(397,-42.5)"><path class="background" aria-hidden="true" d="M0,0h0v0h0Z" pointer-events="none"></path><g><g class="mark-text role-title-text" role="graphics-symbol" aria-roledescription="title" aria-label="Title text 'aged'" pointer-events="none"><text text-anchor="middle" transform="translate(0,20)" font-family="monospace" font-size="25px" font-weight="bold" fill="#000" opacity="1">aged</text></g></g><path class="foreground" aria-hidden="true" d="" pointer-events="none" display="none"></path></g></g></g><path class="foreground" aria-hidden="true" d="" display="none"></path></g></g></g></svg>