<svg xmlns="http://www.w3.org/2000/svg" xmlns:xlink="http://www.w3.org/1999/xlink" version="1.1" class="marks" width="929" height="273" viewBox="0 0 929 273" style="background-color: rgb(255, 255, 255);"><g fill="none" stroke-miterlimit="10" transform="translate(42,43)"><g class="mark-group role-frame root" role="graphics-object" aria-roledescription="group mark container"><g transform="translate(0,0)"><path class="background" aria-hidden="true" d="M0.5,0.5h882v200h-882Z" fill="transparent" stroke="#ddd"></path><g><g class="mark-group role-axis" role="graphics-symbol" aria-roledescription="axis" aria-label="X-axis for a discrete scale with 6 values: 1723, 1724, 1725, 1726, 1727, 1728"><g transform="translate(0.5,200.5)"><path class="background" aria-hidden="true" d="M0,0h0v0h0Z" pointer-events="none"></path><g><g class="mark-rule role-axis-tick" pointer-events="none"><line transform="translate(74,0)" x2="0" y2="5" stroke="#888" stroke-width="1" opacity="1"></line><line transform="translate(221,0)" x2="0" y2="5" stroke="#888" stroke-width="1" opacity="1"></line><line transform="translate(368,0)" x2="0" y2="5" stroke="#888" stroke-width="1" opacity="1"></line><line transform="translate(515,0)" x2="0" y2="5" stroke="#888" stroke-width="1" opacity="1"></line><line transform="translate(662,0)" x2="0" y2="5" stroke="#888" stroke-width="1" opacity="1"></line><line transform="translate(809,0)" x2="0" y2="5" stroke="#888" stroke-width="1" opacity="1"></line></g><g class="mark-text role-axis-label" pointer-events="none"><text text-anchor="middle" transform="translate(73.5,21)" font-family="monospace" font-size="18px" font-weight="normal" fill="#000" opacity="1">1723</text><text text-anchor="middle" transform="translate(220.5,21)" font-family="monospace" font-size="18px" font-weight="normal" fill="#000" opacity="1">1724</text><text text-anchor="middle" transform="translate(367.5,21)" font-family="monospace" font-size="18px" font-weight="normal" fill="#000" opacity="1">1725</text><text text-anchor="middle" transform="translate(514.5,21)" font-family="monospace" font-size="18px" font-weight="normal" fill="#000" opacity="1">1726</text><text text-anchor="middle" transform="translate(661.5,21)" font-family="monospace" font-size="18px" font-weight="normal" fill="#000" opacity="1">1727</text><text text-anchor="middle" transform="translate(808.5,21)" font-family="monospace" font-size="18px" font-weight="normal" fill="#000" opacity="1">1728</text></g><g class="mark-rule role-axis-domain" pointer-events="none"><line transform="translate(0,0)" x2="882" y2="0" stroke="#888" stroke-width="1" opacity="1"></line></g></g><path class="foreground" aria-hidden="true" d="" pointer-events="none" display="none"></path></g></g><g class="mark-group role-axis" role="graphics-symbol" aria-roledescription="axis" aria-label="Y-axis for a linear scale with values from 0 to 400"><g transform="translate(0.5,0.5)"><path class="background" aria-hidden="true" d="M0,0h0v0h0Z" pointer-events="none"></path><g><g class="mark-rule role-axis-tick" pointer-events="none"><line transform="translate(0,200)" x2="-5" y2="0" stroke="#888" stroke-width="1" opacity="1"></line><line transform="translate(0,150)" x2="-5" y2="0" stroke="#888" stroke-width="1" opacity="1"></line><line transform="translate(0,100)" x2="-5" y2="0" stroke="#888" stroke-width="1" opacity="1"></line><line transform="translate(0,50)" x2="-5" y2="0" stroke="#888" stroke-width="1" opacity="1"></line><line transform="translate(0,0)" x2="-5" y2="0" stroke="#888" stroke-width="1" opacity="1"></line></g><g class="mark-text role-axis-label" pointer-events="none"><text text-anchor="end" transform="translate(-7,205)" font-family="monospace" font-size="18px" font-weight="normal" fill="#000" opacity="1">0</text><text text-anchor="end" transform="translate(-7,155)" font-family="monospace" font-size="18px" font-weight="normal" fill="#000" opacity="1">100</text><text text-anchor="end" transform="translate(-7,105)" font-family="monospace" font-size="18px" font-weight="normal" fill="#000" opacity="1">200</text><text text-anchor="end" transform="translate(-7,55)" font-family="monospace" font-size="18px" font-weight="normal" fill="#000" opacity="1">300</text><text text-anchor="end" transform="translate(-7,5)" font-family="monospace" font-size="18px" font-weight="normal" fill="#000" opacity="1">400</text></g></g><path class="foreground" aria-hidden="true" d="" pointer-events="none" display="none"></path></g></g><g class="mark-group role-scope layer_0_pathgroup" role="graphics-object" aria-roledescription="group mark container"><g transform="translate(0,0)"><path class="background" aria-hidden="true" d="M0,0h882v200h-882Z"></path><g><g class="mark-line role-mark layer_0_marks" role="graphics-object" aria-roledescription="line mark container"><path aria-label="Year: 1723; North meter: 340; Toys: Delaware Hybrid" role="graphics-symbol" aria-roledescription="line mark" d="M73.5,30.000000000000004C122.5,51.54066985645933,171.5,73.08133971291866,220.5,77C269.5,80.91866028708134,318.5,67.2153110047847,367.5,64.5C416.5,61.78468899521531,465.5,70.05741626794257,514.5,52.49999999999999C563.5,34.942583732057415,612.5,-8.444976076555015,661.5,10.000000000000009C710.5,28.444976076555033,759.5,108.72248803827752,808.5,189" stroke="#cafee6" stroke-width="2" stroke-dasharray="8,4"></path></g></g><path class="foreground" aria-hidden="true" d="" display="none"></path></g></g><g class="mark-symbol role-mark layer_1_marks" role="graphics-object" aria-roledescription="symbol mark container"><path aria-label="Year: 1723; North meter: 340; Toys: Delaware Hybrid" role="graphics-symbol" aria-roledescription="point" transform="translate(73.5,30.000000000000004)" d="M2.7386127875258306,0A2.7386127875258306,2.7386127875258306,0,1,1,-2.7386127875258306,0A2.7386127875258306,2.7386127875258306,0,1,1,2.7386127875258306,0" fill="#fff" stroke="#cafee6" stroke-width="2" opacity="1"></path><path aria-label="Year: 1724; North meter: 246; Toys: Delaware Hybrid" role="graphics-symbol" aria-roledescription="point" transform="translate(220.5,77)" d="M2.7386127875258306,0A2.7386127875258306,2.7386127875258306,0,1,1,-2.7386127875258306,0A2.7386127875258306,2.7386127875258306,0,1,1,2.7386127875258306,0" fill="#fff" stroke="#cafee6" stroke-width="2" opacity="1"></path><path aria-label="Year: 1725; North meter: 271; Toys: Delaware Hybrid" role="graphics-symbol" aria-roledescription="point" transform="translate(367.5,64.5)" d="M2.7386127875258306,0A2.7386127875258306,2.7386127875258306,0,1,1,-2.7386127875258306,0A2.7386127875258306,2.7386127875258306,0,1,1,2.7386127875258306,0" fill="#fff" stroke="#cafee6" stroke-width="2" opacity="1"></path><path aria-label="Year: 1726; North meter: 295; Toys: Delaware Hybrid" role="graphics-symbol" aria-roledescription="point" transform="translate(514.5,52.49999999999999)" d="M2.7386127875258306,0A2.7386127875258306,2.7386127875258306,0,1,1,-2.7386127875258306,0A2.7386127875258306,2.7386127875258306,0,1,1,2.7386127875258306,0" fill="#fff" stroke="#cafee6" stroke-width="2" opacity="1"></path><path aria-label="Year: 1727; North meter: 380; Toys: Delaware Hybrid" role="graphics-symbol" aria-roledescription="point" transform="translate(661.5,10.000000000000009)" d="M2.7386127875258306,0A2.7386127875258306,2.7386127875258306,0,1,1,-2.7386127875258306,0A2.7386127875258306,2.7386127875258306,0,1,1,2.7386127875258306,0" fill="#fff" stroke="#cafee6" stroke-width="2" opacity="1"></path><path aria-label="Year: 1728; North meter: 22; Toys: Delaware Hybrid" role="graphics-symbol" aria-roledescription="point" transform="translate(808.5,189)" d="M2.7386127875258306,0A2.7386127875258306,2.7386127875258306,0,1,1,-2.7386127875258306,0A2.7386127875258306,2.7386127875258306,0,1,1,2.7386127875258306,0" fill="#fff" stroke="#cafee6" stroke-width="2" opacity="1"></path></g><g class="mark-group role-title"><g transform="translate(-36.689453125,-38)"><path class="background" aria-hidden="true" d="M0,0h0v0h0Z" pointer-events="none"></path><g><g class="mark-text role-title-text" role="graphics-symbol" aria-roledescription="title" aria-label="Title text 'pascal'" pointer-events="none"><text text-anchor="start" transform="translate(0,20)" font-family="monospace" font-size="25px" font-weight="bold" fill="#000" opacity="1">pascal</text></g></g><path class="foreground" aria-hidden="true" d="" pointer-events="none" display="none"></path></g></g></g><path class="foreground" aria-hidden="true" d="" display="none"></path></g></g></g></svg>