<svg xmlns="http://www.w3.org/2000/svg" xmlns:xlink="http://www.w3.org/1999/xlink" version="1.1" class="marks" width="992" height="317" viewBox="0 0 992 317" style="background-color: rgb(51, 51, 51);"><g fill="none" stroke-miterlimit="10" transform="translate(22,48)"><g class="mark-group role-frame root" role="graphics-object" aria-roledescription="group mark container"><g transform="translate(0,0)"><path class="background" aria-hidden="true" d="M0.5,0.5h965v200h-965Z" fill="transparent" stroke="#ddd"></path><g><g class="mark-group role-axis" role="graphics-symbol" aria-roledescription="axis" aria-label="X-axis for a discrete scale with 9 values: Jan, Feb, Mar, Apr, May, ending with Sep"><g transform="translate(0.5,200.5)"><path class="background" aria-hidden="true" d="M0,0h0v0h0Z" pointer-events="none"></path><g><g class="mark-rule role-axis-tick" pointer-events="none"><line transform="translate(54,0)" x2="0" y2="5" stroke="#888" stroke-width="1" opacity="1"></line><line transform="translate(161,0)" x2="0" y2="5" stroke="#888" stroke-width="1" opacity="1"></line><line transform="translate(268,0)" x2="0" y2="5" stroke="#888" stroke-width="1" opacity="1"></line><line transform="translate(375,0)" x2="0" y2="5" stroke="#888" stroke-width="1" opacity="1"></line><line transform="translate(483,0)" x2="0" y2="5" stroke="#888" stroke-width="1" opacity="1"></line><line transform="translate(590,0)" x2="0" y2="5" stroke="#888" stroke-width="1" opacity="1"></line><line transform="translate(697,0)" x2="0" y2="5" stroke="#888" stroke-width="1" opacity="1"></line><line transform="translate(804,0)" x2="0" y2="5" stroke="#888" stroke-width="1" opacity="1"></line><line transform="translate(911,0)" x2="0" y2="5" stroke="#888" stroke-width="1" opacity="1"></line></g><g class="mark-text role-axis-label" pointer-events="none"><text text-anchor="middle" transform="translate(53.611111111111086,15)" font-family="serif" font-size="10px" font-weight="bold" fill="#fff" opacity="1">Jan</text><text text-anchor="middle" transform="translate(160.83333333333331,15)" font-family="serif" font-size="10px" font-weight="bold" fill="#fff" opacity="1">Feb</text><text text-anchor="middle" transform="translate(268.05555555555554,15)" font-family="serif" font-size="10px" font-weight="bold" fill="#fff" opacity="1">Mar</text><text text-anchor="middle" transform="translate(375.27777777777777,15)" font-family="serif" font-size="10px" font-weight="bold" fill="#fff" opacity="1">Apr</text><text text-anchor="middle" transform="translate(482.5,15)" font-family="serif" font-size="10px" font-weight="bold" fill="#fff" opacity="1">May</text><text text-anchor="middle" transform="translate(589.7222222222222,15)" font-family="serif" font-size="10px" font-weight="bold" fill="#fff" opacity="1">June</text><text text-anchor="middle" transform="translate(696.9444444444445,15)" font-family="serif" font-size="10px" font-weight="bold" fill="#fff" opacity="1">July</text><text text-anchor="middle" transform="translate(804.1666666666667,15)" font-family="serif" font-size="10px" font-weight="bold" fill="#fff" opacity="1">Aug</text><text text-anchor="middle" transform="translate(911.3888888888889,15)" font-family="serif" font-size="10px" font-weight="bold" fill="#fff" opacity="1">Sep</text></g><g class="mark-rule role-axis-domain" pointer-events="none"><line transform="translate(0,0)" x2="965" y2="0" stroke="#888" stroke-width="1" opacity="1"></line></g></g><path class="foreground" aria-hidden="true" d="" pointer-events="none" display="none"></path></g></g><g class="mark-group role-axis" role="graphics-symbol" aria-roledescription="axis" aria-label="Y-axis for a linear scale with values from 0 to 18"><g transform="translate(0.5,0.5)"><path class="background" aria-hidden="true" d="M0,0h0v0h0Z" pointer-events="none"></path><g><g class="mark-rule role-axis-tick" pointer-events="none"><line transform="translate(0,200)" x2="-5" y2="0" stroke="#888" stroke-width="1" opacity="1"></line><line transform="translate(0,144)" x2="-5" y2="0" stroke="#888" stroke-width="1" opacity="1"></line><line transform="translate(0,89)" x2="-5" y2="0" stroke="#888" stroke-width="1" opacity="1"></line><line transform="translate(0,33)" x2="-5" y2="0" stroke="#888" stroke-width="1" opacity="1"></line></g><g class="mark-text role-axis-label" pointer-events="none"><text text-anchor="end" transform="translate(-7,203)" font-family="serif" font-size="10px" font-weight="bold" fill="#fff" opacity="1">0</text><text text-anchor="end" transform="translate(-7,147.44444444444443)" font-family="serif" font-size="10px" font-weight="bold" fill="#fff" opacity="1">5</text><text text-anchor="end" transform="translate(-7,91.88888888888889)" font-family="serif" font-size="10px" font-weight="bold" fill="#fff" opacity="1">10</text><text text-anchor="end" transform="translate(-7,36.33333333333333)" font-family="serif" font-size="10px" font-weight="bold" fill="#fff" opacity="1">15</text></g><g class="mark-rule role-axis-domain" pointer-events="none"><line transform="translate(0,200)" x2="0" y2="-200" stroke="#888" stroke-width="1" opacity="1"></line></g></g><path class="foreground" aria-hidden="true" d="" pointer-events="none" display="none"></path></g></g><g class="mark-group role-scope layer_0_pathgroup" role="graphics-object" aria-roledescription="group mark container"><g transform="translate(0,0)"><path class="background" aria-hidden="true" d="M0,0h965v200h-965Z"></path><g><g class="mark-line role-mark layer_0_marks" role="graphics-object" aria-roledescription="line mark container"><path aria-label="Month: Jan; moratorium hertz: 12; solutions relive: weed Taka enrapture" role="graphics-symbol" aria-roledescription="line mark" d="M53.611111111111086,66.66666666666667L160.83333333333331,77.77777777777777L268.05555555555554,100L375.27777777777777,166.66666666666669L482.5,55.55555555555556L589.7222222222222,22.222222222222232L696.9444444444445,11.111111111111116L804.1666666666667,177.77777777777777L911.3888888888889,111.11111111111111" stroke="#bca743" stroke-width="2" stroke-dasharray="8,8"></path></g></g><path class="foreground" aria-hidden="true" d="" display="none"></path></g><g transform="translate(0,0)"><path class="background" aria-hidden="true" d="M0,0h965v200h-965Z"></path><g><g class="mark-line role-mark layer_0_marks" role="graphics-object" aria-roledescription="line mark container"><path aria-label="Month: Jan; moratorium hertz: 7; solutions relive: parallelism" role="graphics-symbol" aria-roledescription="line mark" d="M53.611111111111086,122.22222222222223L160.83333333333331,88.88888888888889L268.05555555555554,77.77777777777777L375.27777777777777,122.22222222222223L482.5,111.11111111111111L589.7222222222222,122.22222222222223L696.9444444444445,133.33333333333334L804.1666666666667,122.22222222222223L911.3888888888889,144.44444444444443" stroke="#f808cf" stroke-width="2" stroke-dasharray="8,8"></path></g></g><path class="foreground" aria-hidden="true" d="" display="none"></path></g></g><g class="mark-symbol role-mark layer_1_marks" role="graphics-object" aria-roledescription="symbol mark container"><path aria-label="Month: Jan; moratorium hertz: 12; solutions relive: weed Taka enrapture" role="graphics-symbol" aria-roledescription="point" transform="translate(53.611111111111086,66.66666666666667)" d="M2.7386127875258306,0A2.7386127875258306,2.7386127875258306,0,1,1,-2.7386127875258306,0A2.7386127875258306,2.7386127875258306,0,1,1,2.7386127875258306,0" fill="#333333" stroke="#bca743" stroke-width="3" opacity="1"></path><path aria-label="Month: Feb; moratorium hertz: 11; solutions relive: weed Taka enrapture" role="graphics-symbol" aria-roledescription="point" transform="translate(160.83333333333331,77.77777777777777)" d="M2.7386127875258306,0A2.7386127875258306,2.7386127875258306,0,1,1,-2.7386127875258306,0A2.7386127875258306,2.7386127875258306,0,1,1,2.7386127875258306,0" fill="#333333" stroke="#bca743" stroke-width="3" opacity="1"></path><path aria-label="Month: Mar; moratorium hertz: 9; solutions relive: weed Taka enrapture" role="graphics-symbol" aria-roledescription="point" transform="translate(268.05555555555554,100)" d="M2.7386127875258306,0A2.7386127875258306,2.7386127875258306,0,1,1,-2.7386127875258306,0A2.7386127875258306,2.7386127875258306,0,1,1,2.7386127875258306,0" fill="#333333" stroke="#bca743" stroke-width="3" opacity="1"></path><path aria-label="Month: Apr; moratorium hertz: 3; solutions relive: weed Taka enrapture" role="graphics-symbol" aria-roledescription="point" transform="translate(375.27777777777777,166.66666666666669)" d="M2.7386127875258306,0A2.7386127875258306,2.7386127875258306,0,1,1,-2.7386127875258306,0A2.7386127875258306,2.7386127875258306,0,1,1,2.7386127875258306,0" fill="#333333" stroke="#bca743" stroke-width="3" opacity="1"></path><path aria-label="Month: May; moratorium hertz: 13; solutions relive: weed Taka enrapture" role="graphics-symbol" aria-roledescription="point" transform="translate(482.5,55.55555555555556)" d="M2.7386127875258306,0A2.7386127875258306,2.7386127875258306,0,1,1,-2.7386127875258306,0A2.7386127875258306,2.7386127875258306,0,1,1,2.7386127875258306,0" fill="#333333" stroke="#bca743" stroke-width="3" opacity="1"></path><path aria-label="Month: June; moratorium hertz: 16; solutions relive: weed Taka enrapture" role="graphics-symbol" aria-roledescription="point" transform="translate(589.7222222222222,22.222222222222232)" d="M2.7386127875258306,0A2.7386127875258306,2.7386127875258306,0,1,1,-2.7386127875258306,0A2.7386127875258306,2.7386127875258306,0,1,1,2.7386127875258306,0" fill="#333333" stroke="#bca743" stroke-width="3" opacity="1"></path><path aria-label="Month: July; moratorium hertz: 17; solutions relive: weed Taka enrapture" role="graphics-symbol" aria-roledescription="point" transform="translate(696.9444444444445,11.111111111111116)" d="M2.7386127875258306,0A2.7386127875258306,2.7386127875258306,0,1,1,-2.7386127875258306,0A2.7386127875258306,2.7386127875258306,0,1,1,2.7386127875258306,0" fill="#333333" stroke="#bca743" stroke-width="3" opacity="1"></path><path aria-label="Month: Aug; moratorium hertz: 2; solutions relive: weed Taka enrapture" role="graphics-symbol" aria-roledescription="point" transform="translate(804.1666666666667,177.77777777777777)" d="M2.7386127875258306,0A2.7386127875258306,2.7386127875258306,0,1,1,-2.7386127875258306,0A2.7386127875258306,2.7386127875258306,0,1,1,2.7386127875258306,0" fill="#333333" stroke="#bca743" stroke-width="3" opacity="1"></path><path aria-label="Month: Sep; moratorium hertz: 8; solutions relive: weed Taka enrapture" role="graphics-symbol" aria-roledescription="point" transform="translate(911.3888888888889,111.11111111111111)" d="M2.7386127875258306,0A2.7386127875258306,2.7386127875258306,0,1,1,-2.7386127875258306,0A2.7386127875258306,2.7386127875258306,0,1,1,2.7386127875258306,0" fill="#333333" stroke="#bca743" stroke-width="3" opacity="1"></path><path aria-label="Month: Jan; moratorium hertz: 7; solutions relive: parallelism" role="graphics-symbol" aria-roledescription="point" transform="translate(53.611111111111086,122.22222222222223)" d="M2.7386127875258306,0A2.7386127875258306,2.7386127875258306,0,1,1,-2.7386127875258306,0A2.7386127875258306,2.7386127875258306,0,1,1,2.7386127875258306,0" fill="#333333" stroke="#f808cf" stroke-width="3" opacity="1"></path><path aria-label="Month: Feb; moratorium hertz: 10; solutions relive: parallelism" role="graphics-symbol" aria-roledescription="point" transform="translate(160.83333333333331,88.88888888888889)" d="M2.7386127875258306,0A2.7386127875258306,2.7386127875258306,0,1,1,-2.7386127875258306,0A2.7386127875258306,2.7386127875258306,0,1,1,2.7386127875258306,0" fill="#333333" stroke="#f808cf" stroke-width="3" opacity="1"></path><path aria-label="Month: Mar; moratorium hertz: 11; solutions relive: parallelism" role="graphics-symbol" aria-roledescription="point" transform="translate(268.05555555555554,77.77777777777777)" d="M2.7386127875258306,0A2.7386127875258306,2.7386127875258306,0,1,1,-2.7386127875258306,0A2.7386127875258306,2.7386127875258306,0,1,1,2.7386127875258306,0" fill="#333333" stroke="#f808cf" stroke-width="3" opacity="1"></path><path aria-label="Month: Apr; moratorium hertz: 7; solutions relive: parallelism" role="graphics-symbol" aria-roledescription="point" transform="translate(375.27777777777777,122.22222222222223)" d="M2.7386127875258306,0A2.7386127875258306,2.7386127875258306,0,1,1,-2.7386127875258306,0A2.7386127875258306,2.7386127875258306,0,1,1,2.7386127875258306,0" fill="#333333" stroke="#f808cf" stroke-width="3" opacity="1"></path><path aria-label="Month: May; moratorium hertz: 8; solutions relive: parallelism" role="graphics-symbol" aria-roledescription="point" transform="translate(482.5,111.11111111111111)" d="M2.7386127875258306,0A2.7386127875258306,2.7386127875258306,0,1,1,-2.7386127875258306,0A2.7386127875258306,2.7386127875258306,0,1,1,2.7386127875258306,0" fill="#333333" stroke="#f808cf" stroke-width="3" opacity="1"></path><path aria-label="Month: June; moratorium hertz: 7; solutions relive: parallelism" role="graphics-symbol" aria-roledescription="point" transform="translate(589.7222222222222,122.22222222222223)" d="M2.7386127875258306,0A2.7386127875258306,2.7386127875258306,0,1,1,-2.7386127875258306,0A2.7386127875258306,2.7386127875258306,0,1,1,2.7386127875258306,0" fill="#333333" stroke="#f808cf" stroke-width="3" opacity="1"></path><path aria-label="Month: July; moratorium hertz: 6; solutions relive: parallelism" role="graphics-symbol" aria-roledescription="point" transform="translate(696.9444444444445,133.33333333333334)" d="M2.7386127875258306,0A2.7386127875258306,2.7386127875258306,0,1,1,-2.7386127875258306,0A2.7386127875258306,2.7386127875258306,0,1,1,2.7386127875258306,0" fill="#333333" stroke="#f808cf" stroke-width="3" opacity="1"></path><path aria-label="Month: Aug; moratorium hertz: 7; solutions relive: parallelism" role="graphics-symbol" aria-roledescription="point" transform="translate(804.1666666666667,122.22222222222223)" d="M2.7386127875258306,0A2.7386127875258306,2.7386127875258306,0,1,1,-2.7386127875258306,0A2.7386127875258306,2.7386127875258306,0,1,1,2.7386127875258306,0" fill="#333333" stroke="#f808cf" stroke-width="3" opacity="1"></path><path aria-label="Month: Sep; moratorium hertz: 5; solutions relive: parallelism" role="graphics-symbol" aria-roledescription="point" transform="translate(911.3888888888889,144.44444444444443)" d="M2.7386127875258306,0A2.7386127875258306,2.7386127875258306,0,1,1,-2.7386127875258306,0A2.7386127875258306,2.7386127875258306,0,1,1,2.7386127875258306,0" fill="#333333" stroke="#f808cf" stroke-width="3" opacity="1"></path></g><g class="mark-text role-mark layer_2_marks" role="graphics-object" aria-roledescription="text mark container"><text aria-label="Month: Jan; moratorium hertz: 12" role="graphics-symbol" aria-roledescription="text mark" text-anchor="middle" transform="translate(53.611111111111086,49.66666666666667)" font-family="serif" font-size="10px" fill="#fff" opacity="1">12</text><text aria-label="Month: Feb; moratorium hertz: 11" role="graphics-symbol" aria-roledescription="text mark" text-anchor="middle" transform="translate(160.83333333333331,60.77777777777777)" font-family="serif" font-size="10px" fill="#fff" opacity="1">11</text><text aria-label="Month: Mar; moratorium hertz: 9" role="graphics-symbol" aria-roledescription="text mark" text-anchor="middle" transform="translate(268.05555555555554,83)" font-family="serif" font-size="10px" fill="#fff" opacity="1">9</text><text aria-label="Month: Apr; moratorium hertz: 3" role="graphics-symbol" aria-roledescription="text mark" text-anchor="middle" transform="translate(375.27777777777777,149.66666666666669)" font-family="serif" font-size="10px" fill="#fff" opacity="1">3</text><text aria-label="Month: May; moratorium hertz: 13" role="graphics-symbol" aria-roledescription="text mark" text-anchor="middle" transform="translate(482.5,38.55555555555556)" font-family="serif" font-size="10px" fill="#fff" opacity="1">13</text><text aria-label="Month: June; moratorium hertz: 16" role="graphics-symbol" aria-roledescription="text mark" text-anchor="middle" transform="translate(589.7222222222222,5.222222222222232)" font-family="serif" font-size="10px" fill="#fff" opacity="1">16</text><text aria-label="Month: July; moratorium hertz: 17" role="graphics-symbol" aria-roledescription="text mark" text-anchor="middle" transform="translate(696.9444444444445,-5.888888888888884)" font-family="serif" font-size="10px" fill="#fff" opacity="1">17</text><text aria-label="Month: Aug; moratorium hertz: 2" role="graphics-symbol" aria-roledescription="text mark" text-anchor="middle" transform="translate(804.1666666666667,160.77777777777777)" font-family="serif" font-size="10px" fill="#fff" opacity="1">2</text><text aria-label="Month: Sep; moratorium hertz: 8" role="graphics-symbol" aria-roledescription="text mark" text-anchor="middle" transform="translate(911.3888888888889,94.11111111111111)" font-family="serif" font-size="10px" fill="#fff" opacity="1">8</text><text aria-label="Month: Jan; moratorium hertz: 7" role="graphics-symbol" aria-roledescription="text mark" text-anchor="middle" transform="translate(53.611111111111086,105.22222222222223)" font-family="serif" font-size="10px" fill="#fff" opacity="1">7</text><text aria-label="Month: Feb; moratorium hertz: 10" role="graphics-symbol" aria-roledescription="text mark" text-anchor="middle" transform="translate(160.83333333333331,71.88888888888889)" font-family="serif" font-size="10px" fill="#fff" opacity="1">10</text><text aria-label="Month: Mar; moratorium hertz: 11" role="graphics-symbol" aria-roledescription="text mark" text-anchor="middle" transform="translate(268.05555555555554,60.77777777777777)" font-family="serif" font-size="10px" fill="#fff" opacity="1">11</text><text aria-label="Month: Apr; moratorium hertz: 7" role="graphics-symbol" aria-roledescription="text mark" text-anchor="middle" transform="translate(375.27777777777777,105.22222222222223)" font-family="serif" font-size="10px" fill="#fff" opacity="1">7</text><text aria-label="Month: May; moratorium hertz: 8" role="graphics-symbol" aria-roledescription="text mark" text-anchor="middle" transform="translate(482.5,94.11111111111111)" font-family="serif" font-size="10px" fill="#fff" opacity="1">8</text><text aria-label="Month: June; moratorium hertz: 7" role="graphics-symbol" aria-roledescription="text mark" text-anchor="middle" transform="translate(589.7222222222222,105.22222222222223)" font-family="serif" font-size="10px" fill="#fff" opacity="1">7</text><text aria-label="Month: July; moratorium hertz: 6" role="graphics-symbol" aria-roledescription="text mark" text-anchor="middle" transform="translate(696.9444444444445,116.33333333333334)" font-family="serif" font-size="10px" fill="#fff" opacity="1">6</text><text aria-label="Month: Aug; moratorium hertz: 7" role="graphics-symbol" aria-roledescription="text mark" text-anchor="middle" transform="translate(804.1666666666667,105.22222222222223)" font-family="serif" font-size="10px" fill="#fff" opacity="1">7</text><text aria-label="Month: Sep; moratorium hertz: 5" role="graphics-symbol" aria-roledescription="text mark" text-anchor="middle" transform="translate(911.3888888888889,127.44444444444443)" font-family="serif" font-size="10px" fill="#fff" opacity="1">5</text></g><g class="mark-group role-legend" role="graphics-symbol" aria-roledescription="legend" aria-label="Symbol legend titled 'solutions relive' for stroke color with 2 values: weed Taka enrapture, parallelism"><g transform="translate(0,235)"><path class="background" aria-hidden="true" d="M0,0h172v29h-172Z" pointer-events="none"></path><g><g class="mark-group role-legend-entry"><g transform="translate(0,16)"><path class="background" aria-hidden="true" d="M0,0h0v0h0Z" pointer-events="none"></path><g><g class="mark-group role-scope" role="graphics-object" aria-roledescription="group mark container"><g transform="translate(0,0.25)"><path class="background" aria-hidden="true" d="M0,0h99.1396484375v12.5h-99.1396484375Z" pointer-events="none" opacity="1"></path><g><g class="mark-symbol role-legend-symbol" pointer-events="none"><path transform="translate(6,6)" d="M5,0A5,5,0,1,1,-5,0A5,5,0,1,1,5,0" fill="#333333" stroke="#bca743" stroke-width="1.5" opacity="1"></path></g><g class="mark-text role-legend-label" pointer-events="none"><text text-anchor="start" transform="translate(16,9)" font-family="serif" font-size="10px" fill="#fff" opacity="1">weed Taka enrapture</text></g></g><path class="foreground" aria-hidden="true" d="" pointer-events="none" display="none"></path></g><g transform="translate(111,0.25)"><path class="background" aria-hidden="true" d="M0,0h60.4287109375v12.5h-60.4287109375Z" pointer-events="none" opacity="1"></path><g><g class="mark-symbol role-legend-symbol" pointer-events="none"><path transform="translate(6,6)" d="M5,0A5,5,0,1,1,-5,0A5,5,0,1,1,5,0" fill="#333333" stroke="#f808cf" stroke-width="1.5" opacity="1"></path></g><g class="mark-text role-legend-label" pointer-events="none"><text text-anchor="start" transform="translate(16,9)" font-family="serif" font-size="10px" fill="#fff" opacity="1">parallelism</text></g></g><path class="foreground" aria-hidden="true" d="" pointer-events="none" display="none"></path></g></g></g><path class="foreground" aria-hidden="true" d="" pointer-events="none" display="none"></path></g></g><g class="mark-text role-legend-title" pointer-events="none"><text text-anchor="start" transform="translate(0,9)" font-family="serif" font-size="11px" font-weight="bold" fill="#fff" opacity="1">solutions relive</text></g></g><path class="foreground" aria-hidden="true" d="" pointer-events="none" display="none"></path></g></g><g class="mark-group role-title"><g transform="translate(965,-42.888888888888886)"><path class="background" aria-hidden="true" d="M0,0h0v0h0Z" pointer-events="none"></path><g><g class="mark-text role-title-text" role="graphics-symbol" aria-roledescription="title" aria-label="Title text 'Northwest Gasoline'" pointer-events="none"><text text-anchor="end" transform="translate(0,20)" font-family="serif" font-size="25px" font-weight="bold" fill="#fff" opacity="1">Northwest Gasoline</text></g></g><path class="foreground" aria-hidden="true" d="" pointer-events="none" display="none"></path></g></g></g><path class="foreground" aria-hidden="true" d="" display="none"></path></g></g></g></svg>