<svg xmlns="http://www.w3.org/2000/svg" xmlns:xlink="http://www.w3.org/1999/xlink" version="1.1" class="marks" width="432" height="272" viewBox="0 0 432 272" style="background-color: rgb(255, 255, 255);"><g fill="none" stroke-miterlimit="10" transform="translate(25,34)"><g class="mark-group role-frame root" role="graphics-object" aria-roledescription="group mark container"><g transform="translate(0,0)"><path class="background" aria-hidden="true" d="M0.5,0.5h402v200h-402Z" fill="transparent" stroke="#ddd"></path><g><g class="mark-group role-axis" aria-hidden="true"><g transform="translate(0.5,200.5)"><path class="background" aria-hidden="true" d="M0,0h0v0h0Z" pointer-events="none"></path><g><g class="mark-rule role-axis-grid" pointer-events="none"><line transform="translate(22,-200)" x2="0" y2="200" stroke="#D0D0D0" stroke-width="1" stroke-dasharray="6, 3" opacity="1"></line><line transform="translate(67,-200)" x2="0" y2="200" stroke="#D0D0D0" stroke-width="1" stroke-dasharray="6, 3" opacity="1"></line><line transform="translate(112,-200)" x2="0" y2="200" stroke="#D0D0D0" stroke-width="1" stroke-dasharray="6, 3" opacity="1"></line><line transform="translate(156,-200)" x2="0" y2="200" stroke="#D0D0D0" stroke-width="1" stroke-dasharray="6, 3" opacity="1"></line><line transform="translate(201,-200)" x2="0" y2="200" stroke="#D0D0D0" stroke-width="1" stroke-dasharray="6, 3" opacity="1"></line><line transform="translate(246,-200)" x2="0" y2="200" stroke="#D0D0D0" stroke-width="1" stroke-dasharray="6, 3" opacity="1"></line><line transform="translate(290,-200)" x2="0" y2="200" stroke="#D0D0D0" stroke-width="1" stroke-dasharray="6, 3" opacity="1"></line><line transform="translate(335,-200)" x2="0" y2="200" stroke="#D0D0D0" stroke-width="1" stroke-dasharray="6, 3" opacity="1"></line><line transform="translate(380,-200)" x2="0" y2="200" stroke="#D0D0D0" stroke-width="1" stroke-dasharray="6, 3" opacity="1"></line></g></g><path class="foreground" aria-hidden="true" d="" pointer-events="none" display="none"></path></g></g><g class="mark-group role-axis" role="graphics-symbol" aria-roledescription="axis" aria-label="X-axis for a discrete scale with 9 values: 1875, 1876, 1877, 1878, 1879, ending with 1883"><g transform="translate(0.5,200.5)"><path class="background" aria-hidden="true" d="M0,0h0v0h0Z" pointer-events="none"></path><g><g class="mark-rule role-axis-tick" pointer-events="none"><line transform="translate(22,0)" x2="0" y2="5" stroke="#888" stroke-width="1" opacity="1"></line><line transform="translate(67,0)" x2="0" y2="5" stroke="#888" stroke-width="1" opacity="1"></line><line transform="translate(112,0)" x2="0" y2="5" stroke="#888" stroke-width="1" opacity="1"></line><line transform="translate(156,0)" x2="0" y2="5" stroke="#888" stroke-width="1" opacity="1"></line><line transform="translate(201,0)" x2="0" y2="5" stroke="#888" stroke-width="1" opacity="1"></line><line transform="translate(246,0)" x2="0" y2="5" stroke="#888" stroke-width="1" opacity="1"></line><line transform="translate(290,0)" x2="0" y2="5" stroke="#888" stroke-width="1" opacity="1"></line><line transform="translate(335,0)" x2="0" y2="5" stroke="#888" stroke-width="1" opacity="1"></line><line transform="translate(380,0)" x2="0" y2="5" stroke="#888" stroke-width="1" opacity="1"></line></g><g class="mark-text role-axis-label" pointer-events="none"><text text-anchor="start" transform="translate(22.333333333333343,7) rotate(90) translate(0,4)" font-family="serif" font-size="13px" font-weight="normal" fill="#000" opacity="1">1875</text><text text-anchor="start" transform="translate(67,7) rotate(90) translate(0,4)" font-family="serif" font-size="13px" font-weight="normal" fill="#000" opacity="1">1876</text><text text-anchor="start" transform="translate(111.66666666666667,7) rotate(90) translate(0,4)" font-family="serif" font-size="13px" font-weight="normal" fill="#000" opacity="1">1877</text><text text-anchor="start" transform="translate(156.33333333333334,7) rotate(90) translate(0,4)" font-family="serif" font-size="13px" font-weight="normal" fill="#000" opacity="1">1878</text><text text-anchor="start" transform="translate(201,7) rotate(90) translate(0,4)" font-family="serif" font-size="13px" font-weight="normal" fill="#000" opacity="1">1879</text><text text-anchor="start" transform="translate(245.66666666666666,7) rotate(90) translate(0,4)" font-family="serif" font-size="13px" font-weight="normal" fill="#000" opacity="1">1880</text><text text-anchor="start" transform="translate(290.33333333333337,7) rotate(90) translate(0,4)" font-family="serif" font-size="13px" font-weight="normal" fill="#000" opacity="1">1881</text><text text-anchor="start" transform="translate(335,7) rotate(90) translate(0,4)" font-family="serif" font-size="13px" font-weight="normal" fill="#000" opacity="1">1882</text><text text-anchor="start" transform="translate(379.66666666666663,7) rotate(90) translate(0,4)" font-family="serif" font-size="13px" font-weight="normal" fill="#000" opacity="1">1883</text></g><g class="mark-rule role-axis-domain" pointer-events="none"><line transform="translate(0,0)" x2="402" y2="0" stroke="#888" stroke-width="1" opacity="1"></line></g></g><path class="foreground" aria-hidden="true" d="" pointer-events="none" display="none"></path></g></g><g class="mark-group role-axis" role="graphics-symbol" aria-roledescription="axis" aria-label="Y-axis for a linear scale with values from 0 to 650"><g transform="translate(0.5,0.5)"><path class="background" aria-hidden="true" d="M0,0h0v0h0Z" pointer-events="none"></path><g><g class="mark-rule role-axis-tick" pointer-events="none"><line transform="translate(0,200)" x2="-5" y2="0" stroke="#888" stroke-width="1" opacity="1"></line><line transform="translate(0,169)" x2="-5" y2="0" stroke="#888" stroke-width="1" opacity="1"></line><line transform="translate(0,138)" x2="-5" y2="0" stroke="#888" stroke-width="1" opacity="1"></line><line transform="translate(0,108)" x2="-5" y2="0" stroke="#888" stroke-width="1" opacity="1"></line><line transform="translate(0,77)" x2="-5" y2="0" stroke="#888" stroke-width="1" opacity="1"></line><line transform="translate(0,46)" x2="-5" y2="0" stroke="#888" stroke-width="1" opacity="1"></line><line transform="translate(0,15)" x2="-5" y2="0" stroke="#888" stroke-width="1" opacity="1"></line></g><g class="mark-text role-axis-label" pointer-events="none"><text text-anchor="middle" transform="translate(-7,200) rotate(90) translate(0,10)" font-family="serif" font-size="13px" font-weight="normal" fill="#000" opacity="1">0</text><text text-anchor="middle" transform="translate(-7,169.23076923076923) rotate(90) translate(0,10)" font-family="serif" font-size="13px" font-weight="normal" fill="#000" opacity="1">100</text><text text-anchor="middle" transform="translate(-7,138.46153846153845) rotate(90) translate(0,10)" font-family="serif" font-size="13px" font-weight="normal" fill="#000" opacity="1">200</text><text text-anchor="middle" transform="translate(-7,107.6923076923077) rotate(90) translate(0,10)" font-family="serif" font-size="13px" font-weight="normal" fill="#000" opacity="1">300</text><text text-anchor="middle" transform="translate(-7,76.92307692307692) rotate(90) translate(0,10)" font-family="serif" font-size="13px" font-weight="normal" fill="#000" opacity="1">400</text><text text-anchor="middle" transform="translate(-7,46.153846153846146) rotate(90) translate(0,10)" font-family="serif" font-size="13px" font-weight="normal" fill="#000" opacity="1">500</text><text text-anchor="middle" transform="translate(-7,15.384615384615374) rotate(90) translate(0,10)" font-family="serif" font-size="13px" font-weight="normal" fill="#000" opacity="1">600</text></g><g class="mark-rule role-axis-domain" pointer-events="none"><line transform="translate(0,200)" x2="0" y2="-200" stroke="#888" stroke-width="1" opacity="1"></line></g></g><path class="foreground" aria-hidden="true" d="" pointer-events="none" display="none"></path></g></g><g class="mark-group role-scope layer_0_pathgroup" role="graphics-object" aria-roledescription="group mark container"><g transform="translate(0,0)"><path class="background" aria-hidden="true" d="M0,0h402v200h-402Z"></path><g><g class="mark-line role-mark layer_0_marks" role="graphics-object" aria-roledescription="line mark container"><path aria-label="Year: 1875; Card duh discretion: 189; throughout bandwidth Bhutanese: Californium" role="graphics-symbol" aria-roledescription="line mark" d="M22.333333333333343,141.84615384615384L67,7.692307692307687L111.66666666666667,78.15384615384615L156.33333333333334,120L201,170.15384615384613L245.66666666666666,141.23076923076923L290.33333333333337,58.769230769230774L335,135.07692307692307L379.66666666666663,122.15384615384615" stroke="#f6341d" stroke-width="2" stroke-dasharray="1,0"></path></g></g><path class="foreground" aria-hidden="true" d="" display="none"></path></g></g><g class="mark-symbol role-mark layer_1_marks" role="graphics-object" aria-roledescription="symbol mark container"><path aria-label="Year: 1875; Card duh discretion: 189; throughout bandwidth Bhutanese: Californium" role="graphics-symbol" aria-roledescription="point" transform="translate(22.333333333333343,141.84615384615384)" d="M3.9370039370059056,0A3.9370039370059056,3.9370039370059056,0,1,1,-3.9370039370059056,0A3.9370039370059056,3.9370039370059056,0,1,1,3.9370039370059056,0" fill="#f6341d" stroke-width="4" opacity="1"></path><path aria-label="Year: 1876; Card duh discretion: 625; throughout bandwidth Bhutanese: Californium" role="graphics-symbol" aria-roledescription="point" transform="translate(67,7.692307692307687)" d="M3.9370039370059056,0A3.9370039370059056,3.9370039370059056,0,1,1,-3.9370039370059056,0A3.9370039370059056,3.9370039370059056,0,1,1,3.9370039370059056,0" fill="#f6341d" stroke-width="4" opacity="1"></path><path aria-label="Year: 1877; Card duh discretion: 396; throughout bandwidth Bhutanese: Californium" role="graphics-symbol" aria-roledescription="point" transform="translate(111.66666666666667,78.15384615384615)" d="M3.9370039370059056,0A3.9370039370059056,3.9370039370059056,0,1,1,-3.9370039370059056,0A3.9370039370059056,3.9370039370059056,0,1,1,3.9370039370059056,0" fill="#f6341d" stroke-width="4" opacity="1"></path><path aria-label="Year: 1878; Card duh discretion: 260; throughout bandwidth Bhutanese: Californium" role="graphics-symbol" aria-roledescription="point" transform="translate(156.33333333333334,120)" d="M3.9370039370059056,0A3.9370039370059056,3.9370039370059056,0,1,1,-3.9370039370059056,0A3.9370039370059056,3.9370039370059056,0,1,1,3.9370039370059056,0" fill="#f6341d" stroke-width="4" opacity="1"></path><path aria-label="Year: 1879; Card duh discretion: 97; throughout bandwidth Bhutanese: Californium" role="graphics-symbol" aria-roledescription="point" transform="translate(201,170.15384615384613)" d="M3.9370039370059056,0A3.9370039370059056,3.9370039370059056,0,1,1,-3.9370039370059056,0A3.9370039370059056,3.9370039370059056,0,1,1,3.9370039370059056,0" fill="#f6341d" stroke-width="4" opacity="1"></path><path aria-label="Year: 1880; Card duh discretion: 191; throughout bandwidth Bhutanese: Californium" role="graphics-symbol" aria-roledescription="point" transform="translate(245.66666666666666,141.23076923076923)" d="M3.9370039370059056,0A3.9370039370059056,3.9370039370059056,0,1,1,-3.9370039370059056,0A3.9370039370059056,3.9370039370059056,0,1,1,3.9370039370059056,0" fill="#f6341d" stroke-width="4" opacity="1"></path><path aria-label="Year: 1881; Card duh discretion: 459; throughout bandwidth Bhutanese: Californium" role="graphics-symbol" aria-roledescription="point" transform="translate(290.33333333333337,58.769230769230774)" d="M3.9370039370059056,0A3.9370039370059056,3.9370039370059056,0,1,1,-3.9370039370059056,0A3.9370039370059056,3.9370039370059056,0,1,1,3.9370039370059056,0" fill="#f6341d" stroke-width="4" opacity="1"></path><path aria-label="Year: 1882; Card duh discretion: 211; throughout bandwidth Bhutanese: Californium" role="graphics-symbol" aria-roledescription="point" transform="translate(335,135.07692307692307)" d="M3.9370039370059056,0A3.9370039370059056,3.9370039370059056,0,1,1,-3.9370039370059056,0A3.9370039370059056,3.9370039370059056,0,1,1,3.9370039370059056,0" fill="#f6341d" stroke-width="4" opacity="1"></path><path aria-label="Year: 1883; Card duh discretion: 253; throughout bandwidth Bhutanese: Californium" role="graphics-symbol" aria-roledescription="point" transform="translate(379.66666666666663,122.15384615384615)" d="M3.9370039370059056,0A3.9370039370059056,3.9370039370059056,0,1,1,-3.9370039370059056,0A3.9370039370059056,3.9370039370059056,0,1,1,3.9370039370059056,0" fill="#f6341d" stroke-width="4" opacity="1"></path></g><g class="mark-group role-title"><g transform="translate(402,-29)"><path class="background" aria-hidden="true" d="M0,0h0v0h0Z" pointer-events="none"></path><g><g class="mark-text role-title-text" role="graphics-symbol" aria-roledescription="title" aria-label="Title text 'Buckinghamshire Architect Southeast'" pointer-events="none"><text text-anchor="end" transform="translate(0,20)" font-family="serif" font-size="25px" font-weight="bold" fill="#000" opacity="1">Buckinghamshire Architect Southeast</text></g></g><path class="foreground" aria-hidden="true" d="" pointer-events="none" display="none"></path></g></g></g><path class="foreground" aria-hidden="true" d="" display="none"></path></g></g></g></svg>