<svg xmlns="http://www.w3.org/2000/svg" xmlns:xlink="http://www.w3.org/1999/xlink" version="1.1" class="marks" width="507" height="270" viewBox="0 0 507 270" style="background-color: rgb(51, 51, 51);"><g fill="none" stroke-miterlimit="10" transform="translate(18,34)"><g class="mark-group role-frame root" role="graphics-object" aria-roledescription="group mark container"><g transform="translate(0,0)"><path class="background" aria-hidden="true" d="M0.5,0.5h484v200h-484Z" fill="transparent" stroke="#ddd"></path><g><g class="mark-group role-axis" aria-hidden="true"><g transform="translate(0.5,200.5)"><path class="background" aria-hidden="true" d="M0,0h0v0h0Z" pointer-events="none"></path><g><g class="mark-rule role-axis-grid" pointer-events="none"><line transform="translate(22,-200)" x2="0" y2="200" stroke="#747474" stroke-width="1" stroke-dasharray="1,0" opacity="1"></line><line transform="translate(66,-200)" x2="0" y2="200" stroke="#747474" stroke-width="1" stroke-dasharray="1,0" opacity="1"></line><line transform="translate(110,-200)" x2="0" y2="200" stroke="#747474" stroke-width="1" stroke-dasharray="1,0" opacity="1"></line><line transform="translate(154,-200)" x2="0" y2="200" stroke="#747474" stroke-width="1" stroke-dasharray="1,0" opacity="1"></line><line transform="translate(198,-200)" x2="0" y2="200" stroke="#747474" stroke-width="1" stroke-dasharray="1,0" opacity="1"></line><line transform="translate(242,-200)" x2="0" y2="200" stroke="#747474" stroke-width="1" stroke-dasharray="1,0" opacity="1"></line><line transform="translate(286,-200)" x2="0" y2="200" stroke="#747474" stroke-width="1" stroke-dasharray="1,0" opacity="1"></line><line transform="translate(330,-200)" x2="0" y2="200" stroke="#747474" stroke-width="1" stroke-dasharray="1,0" opacity="1"></line><line transform="translate(374,-200)" x2="0" y2="200" stroke="#747474" stroke-width="1" stroke-dasharray="1,0" opacity="1"></line><line transform="translate(418,-200)" x2="0" y2="200" stroke="#747474" stroke-width="1" stroke-dasharray="1,0" opacity="1"></line><line transform="translate(462,-200)" x2="0" y2="200" stroke="#747474" stroke-width="1" stroke-dasharray="1,0" opacity="1"></line></g></g><path class="foreground" aria-hidden="true" d="" pointer-events="none" display="none"></path></g></g><g class="mark-group role-axis" aria-hidden="true"><g transform="translate(0.5,0.5)"><path class="background" aria-hidden="true" d="M0,0h0v0h0Z" pointer-events="none"></path><g><g class="mark-rule role-axis-grid" pointer-events="none"><line transform="translate(0,200)" x2="484" y2="0" stroke="#747474" stroke-width="1" stroke-dasharray="1,0" opacity="1"></line><line transform="translate(0,169)" x2="484" y2="0" stroke="#747474" stroke-width="1" stroke-dasharray="1,0" opacity="1"></line><line transform="translate(0,138)" x2="484" y2="0" stroke="#747474" stroke-width="1" stroke-dasharray="1,0" opacity="1"></line><line transform="translate(0,108)" x2="484" y2="0" stroke="#747474" stroke-width="1" stroke-dasharray="1,0" opacity="1"></line><line transform="translate(0,77)" x2="484" y2="0" stroke="#747474" stroke-width="1" stroke-dasharray="1,0" opacity="1"></line><line transform="translate(0,46)" x2="484" y2="0" stroke="#747474" stroke-width="1" stroke-dasharray="1,0" opacity="1"></line><line transform="translate(0,15)" x2="484" y2="0" stroke="#747474" stroke-width="1" stroke-dasharray="1,0" opacity="1"></line></g></g><path class="foreground" aria-hidden="true" d="" pointer-events="none" display="none"></path></g></g><g class="mark-group role-axis" role="graphics-symbol" aria-roledescription="axis" aria-label="X-axis for a discrete scale with 11 values: 1882, 1883, 1884, 1885, 1886, ending with 1892"><g transform="translate(0.5,200.5)"><path class="background" aria-hidden="true" d="M0,0h0v0h0Z" pointer-events="none"></path><g><g class="mark-rule role-axis-tick" pointer-events="none"><line transform="translate(22,0)" x2="0" y2="5" stroke="#888" stroke-width="1" opacity="1"></line><line transform="translate(66,0)" x2="0" y2="5" stroke="#888" stroke-width="1" opacity="1"></line><line transform="translate(110,0)" x2="0" y2="5" stroke="#888" stroke-width="1" opacity="1"></line><line transform="translate(154,0)" x2="0" y2="5" stroke="#888" stroke-width="1" opacity="1"></line><line transform="translate(198,0)" x2="0" y2="5" stroke="#888" stroke-width="1" opacity="1"></line><line transform="translate(242,0)" x2="0" y2="5" stroke="#888" stroke-width="1" opacity="1"></line><line transform="translate(286,0)" x2="0" y2="5" stroke="#888" stroke-width="1" opacity="1"></line><line transform="translate(330,0)" x2="0" y2="5" stroke="#888" stroke-width="1" opacity="1"></line><line transform="translate(374,0)" x2="0" y2="5" stroke="#888" stroke-width="1" opacity="1"></line><line transform="translate(418,0)" x2="0" y2="5" stroke="#888" stroke-width="1" opacity="1"></line><line transform="translate(462,0)" x2="0" y2="5" stroke="#888" stroke-width="1" opacity="1"></line></g><g class="mark-text role-axis-label" pointer-events="none"><text text-anchor="start" transform="translate(22,7) rotate(90) translate(0,4)" font-family="avenir" font-size="12px" font-weight="normal" fill="#fff" opacity="1">1882</text><text text-anchor="start" transform="translate(66,7) rotate(90) translate(0,4)" font-family="avenir" font-size="12px" font-weight="normal" fill="#fff" opacity="1">1883</text><text text-anchor="start" transform="translate(110,7) rotate(90) translate(0,4)" font-family="avenir" font-size="12px" font-weight="normal" fill="#fff" opacity="1">1884</text><text text-anchor="start" transform="translate(154,7) rotate(90) translate(0,4)" font-family="avenir" font-size="12px" font-weight="normal" fill="#fff" opacity="1">1885</text><text text-anchor="start" transform="translate(198,7) rotate(90) translate(0,4)" font-family="avenir" font-size="12px" font-weight="normal" fill="#fff" opacity="1">1886</text><text text-anchor="start" transform="translate(242,7) rotate(90) translate(0,4)" font-family="avenir" font-size="12px" font-weight="normal" fill="#fff" opacity="1">1887</text><text text-anchor="start" transform="translate(286,7) rotate(90) translate(0,4)" font-family="avenir" font-size="12px" font-weight="normal" fill="#fff" opacity="1">1888</text><text text-anchor="start" transform="translate(330,7) rotate(90) translate(0,4)" font-family="avenir" font-size="12px" font-weight="normal" fill="#fff" opacity="1">1889</text><text text-anchor="start" transform="translate(374,7) rotate(90) translate(0,4)" font-family="avenir" font-size="12px" font-weight="normal" fill="#fff" opacity="1">1890</text><text text-anchor="start" transform="translate(418,7) rotate(90) translate(0,4)" font-family="avenir" font-size="12px" font-weight="normal" fill="#fff" opacity="1">1891</text><text text-anchor="start" transform="translate(462,7) rotate(90) translate(0,4)" font-family="avenir" font-size="12px" font-weight="normal" fill="#fff" opacity="1">1892</text></g><g class="mark-rule role-axis-domain" pointer-events="none"><line transform="translate(0,0)" x2="484" y2="0" stroke="#888" stroke-width="1" opacity="1"></line></g></g><path class="foreground" aria-hidden="true" d="" pointer-events="none" display="none"></path></g></g><g class="mark-group role-axis" role="graphics-symbol" aria-roledescription="axis" aria-label="Y-axis for a linear scale with values from 0 to 650"><g transform="translate(0.5,0.5)"><path class="background" aria-hidden="true" d="M0,0h0v0h0Z" pointer-events="none"></path><g><g class="mark-text role-axis-label" pointer-events="none"><text text-anchor="middle" transform="translate(-2,200) rotate(90) translate(0,9)" font-family="avenir" font-size="12px" font-weight="normal" fill="#fff" opacity="1">0</text><text text-anchor="middle" transform="translate(-2,169.23076923076923) rotate(90) translate(0,9)" font-family="avenir" font-size="12px" font-weight="normal" fill="#fff" opacity="1">100</text><text text-anchor="middle" transform="translate(-2,138.46153846153845) rotate(90) translate(0,9)" font-family="avenir" font-size="12px" font-weight="normal" fill="#fff" opacity="1">200</text><text text-anchor="middle" transform="translate(-2,107.6923076923077) rotate(90) translate(0,9)" font-family="avenir" font-size="12px" font-weight="normal" fill="#fff" opacity="1">300</text><text text-anchor="middle" transform="translate(-2,76.92307692307692) rotate(90) translate(0,9)" font-family="avenir" font-size="12px" font-weight="normal" fill="#fff" opacity="1">400</text><text text-anchor="middle" transform="translate(-2,46.153846153846146) rotate(90) translate(0,9)" font-family="avenir" font-size="12px" font-weight="normal" fill="#fff" opacity="1">500</text><text text-anchor="middle" transform="translate(-2,15.384615384615374) rotate(90) translate(0,9)" font-family="avenir" font-size="12px" font-weight="normal" fill="#fff" opacity="1">600</text></g><g class="mark-rule role-axis-domain" pointer-events="none"><line transform="translate(0,200)" x2="0" y2="-200" stroke="#888" stroke-width="1" opacity="1"></line></g></g><path class="foreground" aria-hidden="true" d="" pointer-events="none" display="none"></path></g></g><g class="mark-group role-scope layer_0_pathgroup" role="graphics-object" aria-roledescription="group mark container"><g transform="translate(0,0)"><path class="background" aria-hidden="true" d="M0,0h484v200h-484Z"></path><g><g class="mark-line role-mark layer_0_marks" role="graphics-object" aria-roledescription="line mark container"><path aria-label="Year: 1882; mole Technician: 523; Outdoors optimistic Generic: Generic" role="graphics-symbol" aria-roledescription="line mark" d="M22,39.07692307692307C36.66666666666667,35.7987394015309,51.33333333333334,32.52055572613874,66,56.92307692307692C80.66666666666666,81.3255981200151,95.33333333333331,133.40882418928365,110,147.6923076923077C124.66666666666669,161.97579119533177,139.33333333333337,138.45953213211138,154,111.6923076923077C168.66666666666663,84.92508325250401,183.3333333333333,54.906893436117045,198,32.92307692307692C212.6666666666667,10.939260410036791,227.33333333333337,-3.0101827996564836,242,24.923076923076913C256.66666666666663,52.85633664581031,271.33333333333326,122.67229930097042,286,110.76923076923077C300.66666666666674,98.86616223749112,315.33333333333337,5.244062518851704,330,6.153846153846154C344.66666666666663,7.063629788840604,359.33333333333337,102.50529677746891,374,153.23076923076923C388.66666666666663,203.95624168406954,403.3333333333333,209.96551960204184,418,180.9230769230769C432.6666666666667,151.88063424411197,447.33333333333337,87.78647096820984,462,23.6923076923077" stroke="#4ece81" stroke-width="2" stroke-dasharray="8,4"></path></g></g><path class="foreground" aria-hidden="true" d="" display="none"></path></g></g><g class="mark-symbol role-mark layer_1_marks" role="graphics-object" aria-roledescription="symbol mark container"><path aria-label="Year: 1882; mole Technician: 523; Outdoors optimistic Generic: Generic" role="graphics-symbol" aria-roledescription="point" transform="translate(22,39.07692307692307)" d="M5.979130371550699,0A5.979130371550699,5.979130371550699,0,1,1,-5.979130371550699,0A5.979130371550699,5.979130371550699,0,1,1,5.979130371550699,0" fill="#4ece81" stroke-width="2" opacity="1"></path><path aria-label="Year: 1883; mole Technician: 465; Outdoors optimistic Generic: Generic" role="graphics-symbol" aria-roledescription="point" transform="translate(66,56.92307692307692)" d="M5.979130371550699,0A5.979130371550699,5.979130371550699,0,1,1,-5.979130371550699,0A5.979130371550699,5.979130371550699,0,1,1,5.979130371550699,0" fill="#4ece81" stroke-width="2" opacity="1"></path><path aria-label="Year: 1884; mole Technician: 170; Outdoors optimistic Generic: Generic" role="graphics-symbol" aria-roledescription="point" transform="translate(110,147.6923076923077)" d="M5.979130371550699,0A5.979130371550699,5.979130371550699,0,1,1,-5.979130371550699,0A5.979130371550699,5.979130371550699,0,1,1,5.979130371550699,0" fill="#4ece81" stroke-width="2" opacity="1"></path><path aria-label="Year: 1885; mole Technician: 287; Outdoors optimistic Generic: Generic" role="graphics-symbol" aria-roledescription="point" transform="translate(154,111.6923076923077)" d="M5.979130371550699,0A5.979130371550699,5.979130371550699,0,1,1,-5.979130371550699,0A5.979130371550699,5.979130371550699,0,1,1,5.979130371550699,0" fill="#4ece81" stroke-width="2" opacity="1"></path><path aria-label="Year: 1886; mole Technician: 543; Outdoors optimistic Generic: Generic" role="graphics-symbol" aria-roledescription="point" transform="translate(198,32.92307692307692)" d="M5.979130371550699,0A5.979130371550699,5.979130371550699,0,1,1,-5.979130371550699,0A5.979130371550699,5.979130371550699,0,1,1,5.979130371550699,0" fill="#4ece81" stroke-width="2" opacity="1"></path><path aria-label="Year: 1887; mole Technician: 569; Outdoors optimistic Generic: Generic" role="graphics-symbol" aria-roledescription="point" transform="translate(242,24.923076923076913)" d="M5.979130371550699,0A5.979130371550699,5.979130371550699,0,1,1,-5.979130371550699,0A5.979130371550699,5.979130371550699,0,1,1,5.979130371550699,0" fill="#4ece81" stroke-width="2" opacity="1"></path><path aria-label="Year: 1888; mole Technician: 290; Outdoors optimistic Generic: Generic" role="graphics-symbol" aria-roledescription="point" transform="translate(286,110.76923076923077)" d="M5.979130371550699,0A5.979130371550699,5.979130371550699,0,1,1,-5.979130371550699,0A5.979130371550699,5.979130371550699,0,1,1,5.979130371550699,0" fill="#4ece81" stroke-width="2" opacity="1"></path><path aria-label="Year: 1889; mole Technician: 630; Outdoors optimistic Generic: Generic" role="graphics-symbol" aria-roledescription="point" transform="translate(330,6.153846153846154)" d="M5.979130371550699,0A5.979130371550699,5.979130371550699,0,1,1,-5.979130371550699,0A5.979130371550699,5.979130371550699,0,1,1,5.979130371550699,0" fill="#4ece81" stroke-width="2" opacity="1"></path><path aria-label="Year: 1890; mole Technician: 152; Outdoors optimistic Generic: Generic" role="graphics-symbol" aria-roledescription="point" transform="translate(374,153.23076923076923)" d="M5.979130371550699,0A5.979130371550699,5.979130371550699,0,1,1,-5.979130371550699,0A5.979130371550699,5.979130371550699,0,1,1,5.979130371550699,0" fill="#4ece81" stroke-width="2" opacity="1"></path><path aria-label="Year: 1891; mole Technician: 62; Outdoors optimistic Generic: Generic" role="graphics-symbol" aria-roledescription="point" transform="translate(418,180.9230769230769)" d="M5.979130371550699,0A5.979130371550699,5.979130371550699,0,1,1,-5.979130371550699,0A5.979130371550699,5.979130371550699,0,1,1,5.979130371550699,0" fill="#4ece81" stroke-width="2" opacity="1"></path><path aria-label="Year: 1892; mole Technician: 573; Outdoors optimistic Generic: Generic" role="graphics-symbol" aria-roledescription="point" transform="translate(462,23.6923076923077)" d="M5.979130371550699,0A5.979130371550699,5.979130371550699,0,1,1,-5.979130371550699,0A5.979130371550699,5.979130371550699,0,1,1,5.979130371550699,0" fill="#4ece81" stroke-width="2" opacity="1"></path></g><g class="mark-group role-title"><g transform="translate(484,-29)"><path class="background" aria-hidden="true" d="M0,0h0v0h0Z" pointer-events="none"></path><g><g class="mark-text role-title-text" role="graphics-symbol" aria-roledescription="title" aria-label="Title text 'Brunei Passaic'" pointer-events="none"><text text-anchor="end" transform="translate(0,20)" font-family="avenir" font-size="25px" font-weight="bold" fill="#fff" opacity="1">Brunei Passaic</text></g></g><path class="foreground" aria-hidden="true" d="" pointer-events="none" display="none"></path></g></g></g><path class="foreground" aria-hidden="true" d="" display="none"></path></g></g></g></svg>