<svg xmlns="http://www.w3.org/2000/svg" xmlns:xlink="http://www.w3.org/1999/xlink" version="1.1" class="marks" width="311" height="239" viewBox="0 0 311 239" style="background-color: rgb(255, 255, 255);">
<text aria-label="72,306,0,26" text-anchor="middle" x="189.0" y="25.0" font-family="serif" font-size="25px" font-weight="bold" fill="#000" opacity="1">Manager Schowalter</text>
<path aria-label="ASCII Pop female: 715; Hemet gosh: Classical" role="graphics-symbol" aria-roledescription="arc mark"  d="M250.9856950578177,91.77709616571553A75,75,0,0,0,189.0,59.0L189.0,134.0Z" fill="#3cce43" stroke="black" stroke-width="0"/>
<path aria-label="ASCII Pop female: 79; Hemet gosh: Designer" role="graphics-symbol" aria-roledescription="arc mark"  d="M255.15761900196273,98.67055834022932A75,75,0,0,0,250.9856950578177,91.77709616571553L189.0,134.0Z" fill="#5d3bc2" stroke="black" stroke-width="0"/>
<path aria-label="ASCII Pop female: 689; Hemet gosh: Northwest" role="graphics-symbol" aria-roledescription="arc mark"  d="M128.4860802628251,178.30649521280998A75,75,0,0,0,188.89795609513945,208.9999305802444L189.0,134.0Z" fill="#caac2c" stroke="black" stroke-width="0"/>
<path aria-label="ASCII Pop female: 8; Hemet gosh: circuit" role="graphics-symbol" aria-roledescription="arc mark"  d="M128.00741217364714,177.64520855998555A75,75,0,0,0,128.4860802628251,178.30649521280998L189.0,134.0Z" fill="#0d5bbd" stroke="black" stroke-width="0"/>
<path aria-label="ASCII Pop female: 596; Hemet gosh: Designer" role="graphics-symbol" aria-roledescription="arc mark"  d="M260.18278941728346,157.6222456759445A75,75,0,0,0,255.15761900196273,98.67055834022932L189.0,134.0Z" fill="#5d3bc2" stroke="black" stroke-width="0"/>
<path aria-label="ASCII Pop female: 920; Hemet gosh: Fort" role="graphics-symbol" aria-roledescription="arc mark"  d="M188.89795609513945,208.9999305802444A75,75,0,0,0,260.18278941728346,157.6222456759445L189.0,134.0Z" fill="#4fd49e" stroke="black" stroke-width="0"/>
<path aria-label="ASCII Pop female: 2; Hemet gosh: rerum" role="graphics-symbol" aria-roledescription="arc mark"  d="M115.93924318101784,117.0552128063657A75,75,0,0,0,115.89340406270478,117.2540861562873L189.0,134.0Z" fill="#faecd2" stroke="black" stroke-width="0"/>
<path aria-label="ASCII Pop female: 622; Hemet gosh: metrics" role="graphics-symbol" aria-roledescription="arc mark"  d="M115.89340406270478,117.2540861562873A75,75,0,0,0,128.00741217364714,177.64520855998555L189.0,134.0Z" fill="#91ffd9" stroke="black" stroke-width="0"/>
<path aria-label="ASCII Pop female: 603; Hemet gosh: synthesize" role="graphics-symbol" aria-roledescription="arc mark"  d="M151.57366795595112,69.00561816796316A75,75,0,0,0,115.93924318101784,117.0552128063657L189.0,134.0Z" fill="#b24c8f" stroke="black" stroke-width="0"/>
<path aria-label="ASCII Pop female: 384; Hemet gosh: tesla" role="graphics-symbol" aria-roledescription="arc mark"  d="M189.0,59.0A75,75,0,0,0,151.57366795595112,69.00561816796316L189.0,134.0Z" fill="#0b5f7a" stroke="black" stroke-width="0"/>
<text aria-label="224,237,48,57" role="graphics-symbol" aria-roledescription="text mark" text-anchor="middle" x="231.0709304977753" y="56.43847156413244" font-family="serif" font-size="8px" fill="#3cce43" opacity="1">715</text>
<text aria-label="261,270,81,90" role="graphics-symbol" aria-roledescription="text mark" text-anchor="middle" x="265.9971580854189" y="89.4013128214001" font-family="serif" font-size="8px" fill="#5d3bc2" opacity="1">79</text>
<text aria-label="141,154,208,217" role="graphics-symbol" aria-roledescription="text mark" text-anchor="middle" x="148.23362257635983" y="216.2377870566812" font-family="serif" font-size="8px" fill="#caac2c" opacity="1">689</text>
<text aria-label="113,118,180,189" role="graphics-symbol" aria-roledescription="text mark" text-anchor="middle" x="116.09501577452869" y="188.77180378842263" font-family="serif" font-size="8px" fill="#0d5bbd" opacity="1">8</text>
<text aria-label="271,285,120,129" role="graphics-symbol" aria-roledescription="text mark" text-anchor="middle" x="278.6747908880616" y="128.3559252239121" font-family="serif" font-size="8px" fill="#5d3bc2" opacity="1">596</text>
<text aria-label="234,248,201,210" role="graphics-symbol" aria-roledescription="text mark" text-anchor="middle" x="241.62290375817216" y="209.01253317108063" font-family="serif" font-size="8px" fill="#4fd49e" opacity="1">920</text>
<text aria-label="99,103,107,116" role="graphics-symbol" aria-roledescription="text mark" text-anchor="middle" x="101.2995071709432" y="115.78556066717266" font-family="serif" font-size="8px" fill="#faecd2" opacity="1">2</text>
<text aria-label="94,107,145,154" role="graphics-symbol" aria-roledescription="text mark" text-anchor="middle" x="100.7578085581968" y="153.70072454867756" font-family="serif" font-size="8px" fill="#91ffd9" opacity="1">622</text>
<text aria-label="109,123,74,83" role="graphics-symbol" aria-roledescription="text mark" text-anchor="middle" x="116.71018241741675" y="82.38859940388764" font-family="serif" font-size="8px" fill="#b24c8f" opacity="1">603</text>
<text aria-label="159,172,41,50" role="graphics-symbol" aria-roledescription="text mark" text-anchor="middle" x="165.75557311805665" y="49.053484147264484" font-family="serif" font-size="8px" fill="#0b5f7a" opacity="1">384</text>
<path  d="M16.0,56.0A5,5,0,1,1,6.0,56.0A5,5,0,1,1,16.0,56.0" fill="#3cce43" stroke="black" stroke-width="1.5" opacity="1"/>
<path  d="M16.0,72.0A5,5,0,1,1,6.0,72.0A5,5,0,1,1,16.0,72.0" fill="#5d3bc2" stroke="black" stroke-width="1.5" opacity="1"/>
<path  d="M16.0,88.0A5,5,0,1,1,6.0,88.0A5,5,0,1,1,16.0,88.0" fill="#4fd49e" stroke="black" stroke-width="1.5" opacity="1"/>
<path  d="M16.0,104.0A5,5,0,1,1,6.0,104.0A5,5,0,1,1,16.0,104.0" fill="#caac2c" stroke="black" stroke-width="1.5" opacity="1"/>
<path  d="M16.0,120.0A5,5,0,1,1,6.0,120.0A5,5,0,1,1,16.0,120.0" fill="#0d5bbd" stroke="black" stroke-width="1.5" opacity="1"/>
<path  d="M16.0,136.0A5,5,0,1,1,6.0,136.0A5,5,0,1,1,16.0,136.0" fill="#91ffd9" stroke="black" stroke-width="1.5" opacity="1"/>
<path  d="M16.0,152.0A5,5,0,1,1,6.0,152.0A5,5,0,1,1,16.0,152.0" fill="#faecd2" stroke="black" stroke-width="1.5" opacity="1"/>
<path  d="M16.0,168.0A5,5,0,1,1,6.0,168.0A5,5,0,1,1,16.0,168.0" fill="#b24c8f" stroke="black" stroke-width="1.5" opacity="1"/>
<path  d="M16.0,184.0A5,5,0,1,1,6.0,184.0A5,5,0,1,1,16.0,184.0" fill="#0b5f7a" stroke="black" stroke-width="1.5" opacity="1"/>
<text aria-label="21,70,49,60" text-anchor="start" x="21.0" y="59.0" font-family="serif" font-size="10px" fill="#000" opacity="1">Classical</text>
<text aria-label="21,65,65,76" text-anchor="start" x="21.0" y="75.0" font-family="serif" font-size="10px" fill="#000" opacity="1">Designer</text>
<text aria-label="21,43,81,92" text-anchor="start" x="21.0" y="91.0" font-family="serif" font-size="10px" fill="#000" opacity="1">Fort</text>
<text aria-label="21,70,97,108" text-anchor="start" x="21.0" y="107.0" font-family="serif" font-size="10px" fill="#000" opacity="1">Northwest</text>
<text aria-label="21,59,113,124" text-anchor="start" x="21.0" y="123.0" font-family="serif" font-size="10px" fill="#000" opacity="1">circuit</text>
<text aria-label="21,59,129,140" text-anchor="start" x="21.0" y="139.0" font-family="serif" font-size="10px" fill="#000" opacity="1">metrics</text>
<text aria-label="21,48,145,156" text-anchor="start" x="21.0" y="155.0" font-family="serif" font-size="10px" fill="#000" opacity="1">rerum</text>
<text aria-label="21,76,161,172" text-anchor="start" x="21.0" y="171.0" font-family="serif" font-size="10px" fill="#000" opacity="1">synthesize</text>
<text aria-label="21,48,177,188" text-anchor="start" x="21.0" y="187.0" font-family="serif" font-size="10px" fill="#000" opacity="1">tesla</text>
<text aria-label="5,65,32,44" text-anchor="start" x="5.0" y="43.0" font-family="serif" font-size="11px" font-weight="bold" fill="#000" opacity="1">Hemet gosh</text>
</svg>