<svg xmlns="http://www.w3.org/2000/svg" xmlns:xlink="http://www.w3.org/1999/xlink" version="1.1" class="marks" width="304" height="239" viewBox="0 0 304 239" style="background-color: rgb(255, 255, 255);">
<text aria-label="5,135,0,26" text-anchor="start" x="5.0" y="25.0" font-family="serif" font-size="25px" font-weight="bold" fill="#000" opacity="1">Investment</text>
<path aria-label="Hatchback lavender: 2; doloribus sensor Minnesota: digital" role="graphics-symbol" aria-roledescription="arc mark"  d="M154.46792017370984,194.3481057394921A75,75,0,0,0,154.8412398263655,194.6218104309615L172.5047438958193,170.3730862585769A45,45,0,0,1,172.2807521042259,170.20886344369526Z" fill="#bb84b8" stroke="black" stroke-width="0"/>
<path aria-label="Hatchback lavender: 378; doloribus sensor Minnesota: delightfully" role="graphics-symbol" aria-roledescription="arc mark"  d="M154.8412398263655,194.6218104309615A75,75,0,0,0,237.36521356161737,198.4446304075948L222.0191281369704,172.66677824455687A45,45,0,0,1,172.5047438958193,170.3730862585769Z" fill="#4fab2f" stroke="black" stroke-width="0"/>
<path aria-label="Hatchback lavender: 334; doloribus sensor Minnesota: evenly" role="graphics-symbol" aria-roledescription="arc mark"  d="M124.34294745851204,126.8358876462254A75,75,0,0,0,154.46792017370984,194.3481057394921L172.2807521042259,170.20886344369526A45,45,0,0,1,154.20576847510722,129.70153258773524Z" fill="#bb2bb9" stroke="black" stroke-width="0"/>
<path aria-label="Hatchback lavender: 272; doloribus sensor Minnesota: indexing" role="graphics-symbol" aria-roledescription="arc mark"  d="M154.46792017370984,73.6518942605079A75,75,0,0,0,124.34294745851204,126.8358876462254L154.20576847510722,129.70153258773524A45,45,0,0,1,172.28075210422588,97.79113655630474Z" fill="#ceade4" stroke="black" stroke-width="0"/>
<path aria-label="Hatchback lavender: 414; doloribus sensor Minnesota: Investor" role="graphics-symbol" aria-roledescription="arc mark"  d="M240.88401809713196,196.21518325970857A75,75,0,0,0,270.664710990839,111.88283023080213L241.99882659450338,120.72969813848128A45,45,0,0,1,224.13041085827916,171.32910995582515Z" fill="#dab717" stroke="black" stroke-width="0"/>
<path aria-label="Hatchback lavender: 172; doloribus sensor Minnesota: Elegant" role="graphics-symbol" aria-roledescription="arc mark"  d="M236.96672742184657,69.3198051264902A75,75,0,0,0,199.0,59.0L199.0,89.0A45,45,0,0,1,221.78003645310793,95.19188307589411Z" fill="#da6ca2" stroke="black" stroke-width="0"/>
<path aria-label="Hatchback lavender: 169; doloribus sensor Minnesota: quis" role="graphics-symbol" aria-roledescription="arc mark"  d="M190.4548250828654,59.488390262754535A75,75,0,0,0,154.46792017370984,73.6518942605079L172.28075210422588,97.79113655630474A45,45,0,0,1,193.87289504971923,89.29303415765273Z" fill="#edc15c" stroke="black" stroke-width="0"/>
<path aria-label="Hatchback lavender: 37; doloribus sensor Minnesota: wisely" role="graphics-symbol" aria-roledescription="arc mark"  d="M199.0,59.0A75,75,0,0,0,190.4548250828654,59.488390262754535L193.87289504971923,89.29303415765273A45,45,0,0,1,199.0,89.0Z" fill="#311c11" stroke="black" stroke-width="0"/>
<path aria-label="Hatchback lavender: 18; doloribus sensor Minnesota: circuit" role="graphics-symbol" aria-roledescription="arc mark"  d="M237.36521356161737,198.4446304075948A75,75,0,0,0,240.88401809713196,196.21518325970857L224.13041085827916,171.32910995582515A45,45,0,0,1,222.0191281369704,172.66677824455687Z" fill="#b1ad71" stroke="black" stroke-width="0"/>
<path aria-label="Hatchback lavender: 240; doloribus sensor Minnesota: Games" role="graphics-symbol" aria-roledescription="arc mark"  d="M270.664710990839,111.88283023080213A75,75,0,0,0,236.96672742184657,69.3198051264902L221.78003645310793,95.19188307589411A45,45,0,0,1,241.99882659450338,120.72969813848128Z" fill="#2e2ef5" stroke="black" stroke-width="0"/>
<text aria-label="143,147,201,209" role="graphics-symbol" aria-roledescription="text mark" text-anchor="middle" x="145.78524260043898" y="208.58229532679348" font-family="serif" font-size="7px" fill="#bb84b8" opacity="1">2</text>
<text aria-label="188,200,218,226" role="graphics-symbol" aria-roledescription="text mark" text-anchor="middle" x="194.83532851584064" y="225.9035900919926" font-family="serif" font-size="7px" fill="#4fab2f" opacity="1">378</text>
<text aria-label="110,122,165,173" role="graphics-symbol" aria-roledescription="text mark" text-anchor="middle" x="116.81106162065142" y="172.6739472660858" font-family="serif" font-size="7px" fill="#bb2bb9" opacity="1">334</text>
<text aria-label="114,126,84,92" role="graphics-symbol" aria-roledescription="text mark" text-anchor="middle" x="120.6900318367267" y="91.64293871019946" font-family="serif" font-size="7px" fill="#ceade4" opacity="1">272</text>
<text aria-label="277,289,158,166" role="graphics-symbol" aria-roledescription="text mark" text-anchor="middle" x="283.8639704006287" y="165.96842551488498" font-family="serif" font-size="7px" fill="#dab717" opacity="1">414</text>
<text aria-label="216,228,42,50" role="graphics-symbol" aria-roledescription="text mark" text-anchor="middle" x="222.6065558019477" y="49.15110522770293" font-family="serif" font-size="7px" fill="#da6ca2" opacity="1">172</text>
<text aria-label="160,172,45,53" role="graphics-symbol" aria-roledescription="text mark" text-anchor="middle" x="166.0392971256164" y="52.25280860812943" font-family="serif" font-size="7px" fill="#edc15c" opacity="1">169</text>
<text aria-label="189,197,39,47" role="graphics-symbol" aria-roledescription="text mark" text-anchor="middle" x="193.8645278514294" y="46.14663653590226" font-family="serif" font-size="7px" fill="#311c11" opacity="1">37</text>
<text aria-label="243,251,205,213" role="graphics-symbol" aria-roledescription="text mark" text-anchor="middle" x="247.16811665309055" y="212.0252098852365" font-family="serif" font-size="7px" fill="#b1ad71" opacity="1">18</text>
<text aria-label="263,275,73,81" role="graphics-symbol" aria-roledescription="text mark" text-anchor="middle" x="269.5623045400822" y="80.13443656426" font-family="serif" font-size="7px" fill="#2e2ef5" opacity="1">240</text>
<path  d="M16.0,40.0A5,5,0,1,1,6.0,40.0A5,5,0,1,1,16.0,40.0" fill="#da6ca2" stroke="black" stroke-width="1.5" opacity="1"/>
<path  d="M16.0,56.0A5,5,0,1,1,6.0,56.0A5,5,0,1,1,16.0,56.0" fill="#2e2ef5" stroke="black" stroke-width="1.5" opacity="1"/>
<path  d="M16.0,72.0A5,5,0,1,1,6.0,72.0A5,5,0,1,1,16.0,72.0" fill="#dab717" stroke="black" stroke-width="1.5" opacity="1"/>
<path  d="M16.0,88.0A5,5,0,1,1,6.0,88.0A5,5,0,1,1,16.0,88.0" fill="#b1ad71" stroke="black" stroke-width="1.5" opacity="1"/>
<path  d="M16.0,104.0A5,5,0,1,1,6.0,104.0A5,5,0,1,1,16.0,104.0" fill="#4fab2f" stroke="black" stroke-width="1.5" opacity="1"/>
<path  d="M16.0,120.0A5,5,0,1,1,6.0,120.0A5,5,0,1,1,16.0,120.0" fill="#bb84b8" stroke="black" stroke-width="1.5" opacity="1"/>
<path  d="M16.0,136.0A5,5,0,1,1,6.0,136.0A5,5,0,1,1,16.0,136.0" fill="#bb2bb9" stroke="black" stroke-width="1.5" opacity="1"/>
<path  d="M16.0,152.0A5,5,0,1,1,6.0,152.0A5,5,0,1,1,16.0,152.0" fill="#ceade4" stroke="black" stroke-width="1.5" opacity="1"/>
<path  d="M16.0,168.0A5,5,0,1,1,6.0,168.0A5,5,0,1,1,16.0,168.0" fill="#edc15c" stroke="black" stroke-width="1.5" opacity="1"/>
<path  d="M16.0,184.0A5,5,0,1,1,6.0,184.0A5,5,0,1,1,16.0,184.0" fill="#311c11" stroke="black" stroke-width="1.5" opacity="1"/>
<text aria-label="21,59,33,44" text-anchor="start" x="21.0" y="43.0" font-family="serif" font-size="10px" fill="#000" opacity="1">Elegant</text>
<text aria-label="21,48,49,60" text-anchor="start" x="21.0" y="59.0" font-family="serif" font-size="10px" fill="#000" opacity="1">Games</text>
<text aria-label="21,65,65,76" text-anchor="start" x="21.0" y="75.0" font-family="serif" font-size="10px" fill="#000" opacity="1">Investor</text>
<text aria-label="21,59,81,92" text-anchor="start" x="21.0" y="91.0" font-family="serif" font-size="10px" fill="#000" opacity="1">circuit</text>
<text aria-label="21,87,97,108" text-anchor="start" x="21.0" y="107.0" font-family="serif" font-size="10px" fill="#000" opacity="1">delightfully</text>
<text aria-label="21,59,113,124" text-anchor="start" x="21.0" y="123.0" font-family="serif" font-size="10px" fill="#000" opacity="1">digital</text>
<text aria-label="21,54,129,140" text-anchor="start" x="21.0" y="139.0" font-family="serif" font-size="10px" fill="#000" opacity="1">evenly</text>
<text aria-label="21,65,145,156" text-anchor="start" x="21.0" y="155.0" font-family="serif" font-size="10px" fill="#000" opacity="1">indexing</text>
<text aria-label="21,43,161,172" text-anchor="start" x="21.0" y="171.0" font-family="serif" font-size="10px" fill="#000" opacity="1">quis</text>
<text aria-label="21,54,177,188" text-anchor="start" x="21.0" y="187.0" font-family="serif" font-size="10px" fill="#000" opacity="1">wisely</text>
</svg>