<svg xmlns="http://www.w3.org/2000/svg" xmlns:xlink="http://www.w3.org/1999/xlink" version="1.1" class="marks" width="344" height="239" viewBox="0 0 344 239" style="background-color: rgb(255, 255, 255);">
<text aria-label="0,325,0,26" text-anchor="middle" x="163.0" y="25.0" font-family="Balto" font-size="25px" font-weight="bold" fill="#000" opacity="1">Specialist blissfully BMW</text>
<path aria-label="Jeffersonville connecting: 93; Jewelery: Global" role="graphics-symbol" aria-roledescription="arc mark"  d="M199.7230743854423,68.60568979122668A75,75,0,0,0,163.0,59.0L163.0,93.0A41,41,0,0,1,183.07528066404177,98.25111041920393Z" fill="#d59a35" stroke="black" stroke-width="0"/>
<path aria-label="Jeffersonville connecting: 429; Jewelery: lavender" role="graphics-symbol" aria-roledescription="arc mark"  d="M163.0,59.0A75,75,0,0,0,110.18627957080554,187.25139373224786L134.12849949870701,163.11076190696215A41,41,0,0,1,163.0,93.0Z" fill="#fceb0a" stroke="black" stroke-width="0"/>
<path aria-label="Jeffersonville connecting: 620; Jewelery: Table" role="graphics-symbol" aria-roledescription="arc mark"  d="M110.18627957080554,187.25139373224786A75,75,0,1,0,199.7230743854423,68.60568979122668L183.07528066404177,98.25111041920393A41,41,0,1,1,134.12849949870701,163.11076190696215Z" fill="#cfdff4" stroke="black" stroke-width="0"/>
<path  d="M292.0,40.0A5,5,0,1,1,282.0,40.0A5,5,0,1,1,292.0,40.0" fill="#d59a35" stroke="black" stroke-width="1.5" opacity="1"/>
<path  d="M292.0,56.0A5,5,0,1,1,282.0,56.0A5,5,0,1,1,292.0,56.0" fill="#cfdff4" stroke="black" stroke-width="1.5" opacity="1"/>
<path  d="M292.0,72.0A5,5,0,1,1,282.0,72.0A5,5,0,1,1,292.0,72.0" fill="#fceb0a" stroke="black" stroke-width="1.5" opacity="1"/>
<text aria-label="297,330,33,44" text-anchor="start" x="297.0" y="43.0" font-family="Balto" font-size="10px" fill="#000" opacity="1">Global</text>
<text aria-label="297,324,49,60" text-anchor="start" x="297.0" y="59.0" font-family="Balto" font-size="10px" fill="#000" opacity="1">Table</text>
<text aria-label="297,341,65,76" text-anchor="start" x="297.0" y="75.0" font-family="Balto" font-size="10px" fill="#000" opacity="1">lavender</text>
</svg>