<svg xmlns="http://www.w3.org/2000/svg" xmlns:xlink="http://www.w3.org/1999/xlink" version="1.1" class="marks" width="289" height="239" viewBox="0 0 289 239" style="background-color: rgb(255, 255, 255);">
<text aria-label="85,124,0,26" text-anchor="middle" x="105.0" y="25.0" font-family="serif" font-size="25px" font-weight="bold" fill="#000" opacity="1">lux</text>
<path aria-label="doloribus deep considering: 200; for concept Investor: ivory" role="graphics-symbol" aria-roledescription="arc mark"  d="M104.99999999999999,59.0A75,75,0,0,0,37.069377599604664,102.21272990181592L66.05310982377334,115.77529847704113A43,43,0,0,1,104.99999999999999,91.0Z" fill="#abf788" stroke="white" stroke-width="0"/>
<path aria-label="doloribus deep considering: 42; for concept Investor: Cotton" role="graphics-symbol" aria-roledescription="arc mark"  d="M143.99247154262196,198.06705208605916A75,75,0,0,0,157.995437107361,187.0705534717676L135.38405060822032,164.42711732381343A43,43,0,0,1,127.35568368443658,170.73177652934058Z" fill="#c8dee4" stroke="white" stroke-width="0"/>
<path aria-label="doloribus deep considering: 416; for concept Investor: Cape" role="graphics-symbol" aria-roledescription="arc mark"  d="M157.995437107361,187.0705534717676A75,75,0,0,0,105.0,59.0L105.0,91.0A43,43,0,0,1,135.38405060822032,164.42711732381343Z" fill="#468c17" stroke="white" stroke-width="0"/>
<path aria-label="doloribus deep considering: 92; for concept Investor: Marketing" role="graphics-symbol" aria-roledescription="arc mark"  d="M44.037787785285396,177.6876261873783A75,75,0,0,0,73.88780354435576,202.2424445027096L87.16234069876397,173.1256681815535A43,43,0,0,1,70.04833166356363,159.04757234743022Z" fill="#4ee109" stroke="white" stroke-width="0"/>
<path aria-label="doloribus deep considering: 172; for concept Investor: Hybrid" role="graphics-symbol" aria-roledescription="arc mark"  d="M73.88780354435576,202.2424445027096A75,75,0,0,0,143.99247154262196,198.06705208605916L127.35568368443658,170.73177652934058A43,43,0,0,1,87.16234069876397,173.1256681815535Z" fill="#98fdc7" stroke="white" stroke-width="0"/>
<path aria-label="doloribus deep considering: 187; for concept Investor: channels" role="graphics-symbol" aria-roledescription="arc mark"  d="M37.069377599604664,102.21272990181592A75,75,0,0,0,44.037787785285396,177.6876261873783L70.04833166356363,159.04757234743022A43,43,0,0,1,66.05310982377334,115.77529847704113Z" fill="#008671" stroke="white" stroke-width="0"/>
<text aria-label="47,65,50,62" role="graphics-symbol" aria-roledescription="text mark" text-anchor="middle" x="56.69381597871696" y="61.062442854000494" font-family="serif" font-size="11px" fill="#abf788" opacity="1">200</text>
<text aria-label="154,166,196,208" role="graphics-symbol" aria-roledescription="text mark" text-anchor="middle" x="160.58571214840933" y="207.78296832539718" font-family="serif" font-size="11px" fill="#c8dee4" opacity="1">42</text>
<text aria-label="179,197,91,103" role="graphics-symbol" aria-roledescription="text mark" text-anchor="middle" x="188.1613485188609" y="102.58793652620422" font-family="serif" font-size="11px" fill="#468c17" opacity="1">416</text>
<text aria-label="41,53,195,207" role="graphics-symbol" aria-roledescription="text mark" text-anchor="middle" x="47.82457782912079" y="206.50518757317136" font-family="serif" font-size="11px" fill="#4ee109" opacity="1">92</text>
<text aria-label="101,119,215,227" role="graphics-symbol" aria-roledescription="text mark" text-anchor="middle" x="110.35086436200791" y="226.84079391111476" font-family="serif" font-size="11px" fill="#98fdc7" opacity="1">172</text>
<text aria-label="6,24,134,146" role="graphics-symbol" aria-roledescription="text mark" text-anchor="middle" x="15.381161565235544" y="145.2742853228292" font-family="serif" font-size="11px" fill="#008671" opacity="1">187</text>
<path  d="M234.0,40.0A5,5,0,1,1,224.0,40.0A5,5,0,1,1,234.0,40.0" fill="#468c17" stroke="white" stroke-width="1.5" opacity="1"/>
<path  d="M234.0,56.0A5,5,0,1,1,224.0,56.0A5,5,0,1,1,234.0,56.0" fill="#c8dee4" stroke="white" stroke-width="1.5" opacity="1"/>
<path  d="M234.0,72.0A5,5,0,1,1,224.0,72.0A5,5,0,1,1,234.0,72.0" fill="#98fdc7" stroke="white" stroke-width="1.5" opacity="1"/>
<path  d="M234.0,88.0A5,5,0,1,1,224.0,88.0A5,5,0,1,1,234.0,88.0" fill="#4ee109" stroke="white" stroke-width="1.5" opacity="1"/>
<path  d="M234.0,104.0A5,5,0,1,1,224.0,104.0A5,5,0,1,1,234.0,104.0" fill="#008671" stroke="white" stroke-width="1.5" opacity="1"/>
<path  d="M234.0,120.0A5,5,0,1,1,224.0,120.0A5,5,0,1,1,234.0,120.0" fill="#abf788" stroke="white" stroke-width="1.5" opacity="1"/>
<text aria-label="239,261,33,44" text-anchor="start" x="239.0" y="43.0" font-family="serif" font-size="10px" fill="#000" opacity="1">Cape</text>
<text aria-label="239,272,49,60" text-anchor="start" x="239.0" y="59.0" font-family="serif" font-size="10px" fill="#000" opacity="1">Cotton</text>
<text aria-label="239,272,65,76" text-anchor="start" x="239.0" y="75.0" font-family="serif" font-size="10px" fill="#000" opacity="1">Hybrid</text>
<text aria-label="239,288,81,92" text-anchor="start" x="239.0" y="91.0" font-family="serif" font-size="10px" fill="#000" opacity="1">Marketing</text>
<text aria-label="239,283,97,108" text-anchor="start" x="239.0" y="107.0" font-family="serif" font-size="10px" fill="#000" opacity="1">channels</text>
<text aria-label="239,266,113,124" text-anchor="start" x="239.0" y="123.0" font-family="serif" font-size="10px" fill="#000" opacity="1">ivory</text>
</svg>