<svg xmlns="http://www.w3.org/2000/svg" xmlns:xlink="http://www.w3.org/1999/xlink" version="1.1" class="marks" width="338" height="239" viewBox="0 0 338 239" style="background-color: rgb(255, 255, 255);">
<text aria-label="98,332,0,26" text-anchor="middle" x="215.0" y="25.0" font-family="avenir" font-size="25px" font-weight="bold" fill="#000" opacity="1">Pine invoice North</text>
<path aria-label="Weston South: 439; East Southeast: Cambridgeshire" role="graphics-symbol" aria-roledescription="arc mark"  d="M256.06144404155225,71.23888295112593A75,75,0,0,0,215.0,59.0L215.0,134.0Z" fill="#727fcb" stroke="white" stroke-width="0"/>
<path aria-label="Weston South: 853; East Southeast: quantifying" role="graphics-symbol" aria-roledescription="arc mark"  d="M152.09027521436397,93.16660034487049A75,75,0,0,0,151.0603930543622,173.20110538795237L215.0,134.0Z" fill="#5f5dfb" stroke="white" stroke-width="0"/>
<path aria-label="Weston South: 529; East Southeast: bifurcated" role="graphics-symbol" aria-roledescription="arc mark"  d="M234.13642106980072,206.51756606946546A75,75,0,0,0,276.27274197578316,177.25102415861502L215.0,134.0Z" fill="#8a9b6d" stroke="white" stroke-width="0"/>
<path aria-label="Weston South: 151; East Southeast: kilogram" role="graphics-symbol" aria-roledescription="arc mark"  d="M154.18729824599325,177.8955043868757A75,75,0,0,0,164.0804052721177,189.06536908755103L215.0,134.0Z" fill="#fef9b5" stroke="white" stroke-width="0"/>
<path aria-label="Weston South: 494; East Southeast: Chips" role="graphics-symbol" aria-roledescription="arc mark"  d="M285.71914971976565,109.02397423701336A75,75,0,0,0,256.06144404155225,71.23888295112593L215.0,134.0Z" fill="#aeb20a" stroke="white" stroke-width="0"/>
<path aria-label="Weston South: 55; East Southeast: consequently" role="graphics-symbol" aria-roledescription="arc mark"  d="M228.8269964318341,207.71440951180472A75,75,0,0,0,234.13642106980072,206.51756606946546L215.0,134.0Z" fill="#a3c94d" stroke="white" stroke-width="0"/>
<path aria-label="Weston South: 553; East Southeast: redundant" role="graphics-symbol" aria-roledescription="arc mark"  d="M195.3377219356463,61.623243915466645A75,75,0,0,0,152.09027521436397,93.16660034487049L215.0,134.0Z" fill="#0aaffe" stroke="white" stroke-width="0"/>
<path aria-label="Weston South: 723; East Southeast: Table" role="graphics-symbol" aria-roledescription="arc mark"  d="M276.27274197578316,177.25102415861502A75,75,0,0,0,285.71914971976565,109.02397423701336L215.0,134.0Z" fill="#87266d" stroke="white" stroke-width="0"/>
<path aria-label="Weston South: 201; East Southeast: unless" role="graphics-symbol" aria-roledescription="arc mark"  d="M215.0,59.0A75,75,0,0,0,195.3377219356463,61.623243915466645L215.0,134.0Z" fill="#bcd8a4" stroke="white" stroke-width="0"/>
<path aria-label="Weston South: 706; East Southeast: cyan" role="graphics-symbol" aria-roledescription="arc mark"  d="M164.0804052721177,189.06536908755103A75,75,0,0,0,228.8269964318341,207.71440951180472L215.0,134.0Z" fill="#b2fbea" stroke="white" stroke-width="0"/>
<path aria-label="Weston South: 57; East Southeast: online" role="graphics-symbol" aria-roledescription="arc mark"  d="M151.0603930543622,173.20110538795237A75,75,0,0,0,154.18729824599325,177.8955043868757L215.0,134.0Z" fill="#4a82c7" stroke="white" stroke-width="0"/>
<text aria-label="230,250,39,52" role="graphics-symbol" aria-roledescription="text mark" text-anchor="middle" x="240.7079691800189" y="51.74978075019635" font-family="avenir" font-size="12px" fill="#727fcb" opacity="1">439</text>
<text aria-label="115,134,124,137" role="graphics-symbol" aria-roledescription="text mark" text-anchor="middle" x="125.00745039205597" y="136.84197795282915" font-family="avenir" font-size="12px" fill="#5f5dfb" opacity="1">853</text>
<text aria-label="256,276,199,212" role="graphics-symbol" aria-roledescription="text mark" text-anchor="middle" x="266.34178640990115" y="211.91901628295722" font-family="avenir" font-size="12px" fill="#8a9b6d" opacity="1">529</text>
<text aria-label="137,157,185,198" role="graphics-symbol" aria-roledescription="text mark" text-anchor="middle" x="147.62645991461238" y="197.67249028122313" font-family="avenir" font-size="12px" fill="#fef9b5" opacity="1">151</text>
<text aria-label="276,295,70,83" role="graphics-symbol" aria-roledescription="text mark" text-anchor="middle" x="285.7964768575501" y="82.43149395063449" font-family="avenir" font-size="12px" fill="#aeb20a" opacity="1">494</text>
<text aria-label="228,241,213,226" role="graphics-symbol" aria-roledescription="text mark" text-anchor="middle" x="234.79108278848125" y="225.79699904928117" font-family="avenir" font-size="12px" fill="#a3c94d" opacity="1">55</text>
<text aria-label="152,171,53,66" role="graphics-symbol" aria-roledescription="text mark" text-anchor="middle" x="161.96489053262167" y="65.28633440828887" font-family="avenir" font-size="12px" fill="#0aaffe" opacity="1">553</text>
<text aria-label="294,313,138,151" role="graphics-symbol" aria-roledescription="text mark" text-anchor="middle" x="304.14956159833156" y="150.34324377241595" font-family="avenir" font-size="12px" fill="#87266d" opacity="1">723</text>
<text aria-label="193,212,36,49" role="graphics-symbol" aria-roledescription="text mark" text-anchor="middle" x="203.09810219186875" y="48.790444297907186" font-family="avenir" font-size="12px" fill="#bcd8a4" opacity="1">201</text>
<text aria-label="180,199,212,225" role="graphics-symbol" aria-roledescription="text mark" text-anchor="middle" x="190.0898992263162" y="224.4840267300553" font-family="avenir" font-size="12px" fill="#b2fbea" opacity="1">706</text>
<text aria-label="133,146,175,188" role="graphics-symbol" aria-roledescription="text mark" text-anchor="middle" x="140.09563879968735" y="187.89325278204555" font-family="avenir" font-size="12px" fill="#4a82c7" opacity="1">57</text>
<path  d="M16.0,40.0A5,5,0,1,1,6.0,40.0A5,5,0,1,1,16.0,40.0" fill="#727fcb" stroke="white" stroke-width="1.5" opacity="1"/>
<path  d="M16.0,56.0A5,5,0,1,1,6.0,56.0A5,5,0,1,1,16.0,56.0" fill="#aeb20a" stroke="white" stroke-width="1.5" opacity="1"/>
<path  d="M16.0,72.0A5,5,0,1,1,6.0,72.0A5,5,0,1,1,16.0,72.0" fill="#87266d" stroke="white" stroke-width="1.5" opacity="1"/>
<path  d="M16.0,88.0A5,5,0,1,1,6.0,88.0A5,5,0,1,1,16.0,88.0" fill="#8a9b6d" stroke="white" stroke-width="1.5" opacity="1"/>
<path  d="M16.0,104.0A5,5,0,1,1,6.0,104.0A5,5,0,1,1,16.0,104.0" fill="#a3c94d" stroke="white" stroke-width="1.5" opacity="1"/>
<path  d="M16.0,120.0A5,5,0,1,1,6.0,120.0A5,5,0,1,1,16.0,120.0" fill="#b2fbea" stroke="white" stroke-width="1.5" opacity="1"/>
<path  d="M16.0,136.0A5,5,0,1,1,6.0,136.0A5,5,0,1,1,16.0,136.0" fill="#fef9b5" stroke="white" stroke-width="1.5" opacity="1"/>
<path  d="M16.0,152.0A5,5,0,1,1,6.0,152.0A5,5,0,1,1,16.0,152.0" fill="#4a82c7" stroke="white" stroke-width="1.5" opacity="1"/>
<path  d="M16.0,168.0A5,5,0,1,1,6.0,168.0A5,5,0,1,1,16.0,168.0" fill="#5f5dfb" stroke="white" stroke-width="1.5" opacity="1"/>
<path  d="M16.0,184.0A5,5,0,1,1,6.0,184.0A5,5,0,1,1,16.0,184.0" fill="#0aaffe" stroke="white" stroke-width="1.5" opacity="1"/>
<path  d="M16.0,200.0A5,5,0,1,1,6.0,200.0A5,5,0,1,1,16.0,200.0" fill="#bcd8a4" stroke="white" stroke-width="1.5" opacity="1"/>
<text aria-label="21,98,33,44" text-anchor="start" x="21.0" y="43.0" font-family="avenir" font-size="10px" fill="#000" opacity="1">Cambridgeshire</text>
<text aria-label="21,48,49,60" text-anchor="start" x="21.0" y="59.0" font-family="avenir" font-size="10px" fill="#000" opacity="1">Chips</text>
<text aria-label="21,48,65,76" text-anchor="start" x="21.0" y="75.0" font-family="avenir" font-size="10px" fill="#000" opacity="1">Table</text>
<text aria-label="21,76,81,92" text-anchor="start" x="21.0" y="91.0" font-family="avenir" font-size="10px" fill="#000" opacity="1">bifurcated</text>
<text aria-label="21,87,97,108" text-anchor="start" x="21.0" y="107.0" font-family="avenir" font-size="10px" fill="#000" opacity="1">consequently</text>
<text aria-label="21,43,113,124" text-anchor="start" x="21.0" y="123.0" font-family="avenir" font-size="10px" fill="#000" opacity="1">cyan</text>
<text aria-label="21,65,129,140" text-anchor="start" x="21.0" y="139.0" font-family="avenir" font-size="10px" fill="#000" opacity="1">kilogram</text>
<text aria-label="21,54,145,156" text-anchor="start" x="21.0" y="155.0" font-family="avenir" font-size="10px" fill="#000" opacity="1">online</text>
<text aria-label="21,81,161,172" text-anchor="start" x="21.0" y="171.0" font-family="avenir" font-size="10px" fill="#000" opacity="1">quantifying</text>
<text aria-label="21,70,177,188" text-anchor="start" x="21.0" y="187.0" font-family="avenir" font-size="10px" fill="#000" opacity="1">redundant</text>
<text aria-label="21,54,193,204" text-anchor="start" x="21.0" y="203.0" font-family="avenir" font-size="10px" fill="#000" opacity="1">unless</text>
</svg>