<svg xmlns="http://www.w3.org/2000/svg" xmlns:xlink="http://www.w3.org/1999/xlink" version="1.1" class="marks" width="300" height="239" viewBox="0 0 300 239" style="background-color: rgb(255, 255, 255);">
<text aria-label="86,294,0,26" text-anchor="middle" x="190.0" y="25.0" font-family="avenir" font-size="25px" font-weight="bold" fill="#000" opacity="1">drive Car orange</text>
<path aria-label="harness Shirt Latvian: 1; when: Brand" role="graphics-symbol" aria-roledescription="arc mark"  d="M207.94867482156684,61.1793636930461A75,75,0,0,0,190.0,59.0L190.0,104.0A30,30,0,0,1,197.17946992862673,104.87174547721844Z" fill="#aeb0fc" stroke="black" stroke-width="0"/>
<path aria-label="harness Shirt Latvian: 4; when: sky" role="graphics-symbol" aria-roledescription="arc mark"  d="M190.0,59.0A75,75,0,0,0,128.27621005797576,91.39514399516332L165.3104840231903,116.95805759806532A30,30,0,0,1,190.0,104.0Z" fill="#2e5b4c" stroke="black" stroke-width="0"/>
<path aria-label="harness Shirt Latvian: 3; when: navigating" role="graphics-symbol" aria-roledescription="arc mark"  d="M128.27621005797576,91.39514399516332A75,75,0,0,0,115.54683444264595,143.04025101914925L160.2187337770584,137.6161004076597A30,30,0,0,1,165.3104840231903,116.95805759806532Z" fill="#e38de4" stroke="black" stroke-width="0"/>
<path aria-label="harness Shirt Latvian: 3; when: Realigned" role="graphics-symbol" aria-roledescription="arc mark"  d="M239.73419936805965,190.1383061128326A75,75,0,0,0,264.45316555735405,143.04025101914922L219.7812662229416,137.6161004076597A30,30,0,0,1,209.89367974722384,156.45532244513305Z" fill="#b0ccf2" stroke="black" stroke-width="0"/>
<path aria-label="harness Shirt Latvian: 1; when: aggregate" role="graphics-symbol" aria-roledescription="arc mark"  d="M155.1457620967174,200.40920192399076A75,75,0,0,0,172.0513251784332,206.82063630695393L182.82053007137327,163.12825452278156A30,30,0,0,1,176.05830483868695,160.56368076959632Z" fill="#5ceac6" stroke="black" stroke-width="0"/>
<path aria-label="harness Shirt Latvian: 4; when: Van" role="graphics-symbol" aria-roledescription="arc mark"  d="M172.0513251784332,206.82063630695393A75,75,0,0,0,239.73419936805965,190.1383061128326L209.89367974722384,156.45532244513305A30,30,0,0,1,182.82053007137327,163.12825452278156Z" fill="#db7ce3" stroke="black" stroke-width="0"/>
<path aria-label="harness Shirt Latvian: 4; when: female" role="graphics-symbol" aria-roledescription="arc mark"  d="M115.54683444264595,143.04025101914925A75,75,0,0,0,155.1457620967174,200.40920192399076L176.05830483868695,160.56368076959632A30,30,0,0,1,160.2187337770584,137.6161004076597Z" fill="#f193fd" stroke="black" stroke-width="0"/>
<path aria-label="harness Shirt Latvian: 1; when: Indium" role="graphics-symbol" aria-roledescription="arc mark"  d="M264.45316555735405,143.04025101914922A75,75,0,0,0,264.45316555735405,124.95974898085078L219.7812662229416,130.3838995923403A30,30,0,0,1,219.7812662229416,137.6161004076597Z" fill="#53daf0" stroke="black" stroke-width="0"/>
<path aria-label="harness Shirt Latvian: 5; when: East" role="graphics-symbol" aria-roledescription="arc mark"  d="M264.45316555735405,124.95974898085078A75,75,0,0,0,207.94867482156684,61.1793636930461L197.17946992862673,104.87174547721844A30,30,0,0,1,219.7812662229416,130.3838995923403Z" fill="#c4eacf" stroke="black" stroke-width="0"/>
<text aria-label="198,202,39,47" role="graphics-symbol" aria-roledescription="text mark" text-anchor="middle" x="200.84830122297907" y="46.65620133117514" font-family="avenir" font-size="7px" fill="#aeb0fc" opacity="1">1</text>
<text aria-label="146,150,49,57" role="graphics-symbol" aria-roledescription="text mark" text-anchor="middle" x="148.17491451606085" y="56.30895769121109" font-family="avenir" font-size="7px" fill="#2e5b4c" opacity="1">4</text>
<text aria-label="100,104,107,115" role="graphics-symbol" aria-roledescription="text mark" text-anchor="middle" x="102.6152364316553" y="114.46159021411984" font-family="avenir" font-size="7px" fill="#e38de4" opacity="1">3</text>
<text aria-label="267,271,170,178" role="graphics-symbol" aria-roledescription="text mark" text-anchor="middle" x="269.6910423087889" y="177.82508548393918" font-family="avenir" font-size="7px" fill="#b0ccf2" opacity="1">3</text>
<text aria-label="156,160,213,221" role="graphics-symbol" aria-roledescription="text mark" text-anchor="middle" x="158.08556016617177" y="220.15146184168734" font-family="avenir" font-size="7px" fill="#5ceac6" opacity="1">1</text>
<text aria-label="209,213,216,224" role="graphics-symbol" aria-roledescription="text mark" text-anchor="middle" x="211.5384097858802" y="223.38476356834468" font-family="avenir" font-size="7px" fill="#db7ce3" opacity="1">4</text>
<text aria-label="113,117,180,188" role="graphics-symbol" aria-roledescription="text mark" text-anchor="middle" x="115.93145206957092" y="187.12582720580403" font-family="avenir" font-size="7px" fill="#f193fd" opacity="1">4</text>
<text aria-label="278,282,129,137" role="graphics-symbol" aria-roledescription="text mark" text-anchor="middle" x="280.0" y="136.0" font-family="avenir" font-size="7px" fill="#53daf0" opacity="1">1</text>
<text aria-label="255,259,69,77" role="graphics-symbol" aria-roledescription="text mark" text-anchor="middle" x="257.3659673353991" y="76.31896075832843" font-family="avenir" font-size="7px" fill="#c4eacf" opacity="1">5</text>
<path  d="M16.0,56.0A5,5,0,1,1,6.0,56.0A5,5,0,1,1,16.0,56.0" fill="#aeb0fc" stroke="black" stroke-width="1.5" opacity="1"/>
<path  d="M16.0,72.0A5,5,0,1,1,6.0,72.0A5,5,0,1,1,16.0,72.0" fill="#c4eacf" stroke="black" stroke-width="1.5" opacity="1"/>
<path  d="M16.0,88.0A5,5,0,1,1,6.0,88.0A5,5,0,1,1,16.0,88.0" fill="#53daf0" stroke="black" stroke-width="1.5" opacity="1"/>
<path  d="M16.0,104.0A5,5,0,1,1,6.0,104.0A5,5,0,1,1,16.0,104.0" fill="#b0ccf2" stroke="black" stroke-width="1.5" opacity="1"/>
<path  d="M16.0,120.0A5,5,0,1,1,6.0,120.0A5,5,0,1,1,16.0,120.0" fill="#db7ce3" stroke="black" stroke-width="1.5" opacity="1"/>
<path  d="M16.0,136.0A5,5,0,1,1,6.0,136.0A5,5,0,1,1,16.0,136.0" fill="#5ceac6" stroke="black" stroke-width="1.5" opacity="1"/>
<path  d="M16.0,152.0A5,5,0,1,1,6.0,152.0A5,5,0,1,1,16.0,152.0" fill="#f193fd" stroke="black" stroke-width="1.5" opacity="1"/>
<path  d="M16.0,168.0A5,5,0,1,1,6.0,168.0A5,5,0,1,1,16.0,168.0" fill="#e38de4" stroke="black" stroke-width="1.5" opacity="1"/>
<path  d="M16.0,184.0A5,5,0,1,1,6.0,184.0A5,5,0,1,1,16.0,184.0" fill="#2e5b4c" stroke="black" stroke-width="1.5" opacity="1"/>
<text aria-label="21,48,49,60" text-anchor="start" x="21.0" y="59.0" font-family="avenir" font-size="10px" fill="#000" opacity="1">Brand</text>
<text aria-label="21,43,65,76" text-anchor="start" x="21.0" y="75.0" font-family="avenir" font-size="10px" fill="#000" opacity="1">East</text>
<text aria-label="21,54,81,92" text-anchor="start" x="21.0" y="91.0" font-family="avenir" font-size="10px" fill="#000" opacity="1">Indium</text>
<text aria-label="21,70,97,108" text-anchor="start" x="21.0" y="107.0" font-family="avenir" font-size="10px" fill="#000" opacity="1">Realigned</text>
<text aria-label="21,37,113,124" text-anchor="start" x="21.0" y="123.0" font-family="avenir" font-size="10px" fill="#000" opacity="1">Van</text>
<text aria-label="21,70,129,140" text-anchor="start" x="21.0" y="139.0" font-family="avenir" font-size="10px" fill="#000" opacity="1">aggregate</text>
<text aria-label="21,54,145,156" text-anchor="start" x="21.0" y="155.0" font-family="avenir" font-size="10px" fill="#000" opacity="1">female</text>
<text aria-label="21,76,161,172" text-anchor="start" x="21.0" y="171.0" font-family="avenir" font-size="10px" fill="#000" opacity="1">navigating</text>
<text aria-label="21,37,177,188" text-anchor="start" x="21.0" y="187.0" font-family="avenir" font-size="10px" fill="#000" opacity="1">sky</text>
<text aria-label="5,29,32,44" text-anchor="start" x="5.0" y="43.0" font-family="avenir" font-size="11px" font-weight="bold" fill="#000" opacity="1">when</text>
</svg>