<svg xmlns="http://www.w3.org/2000/svg" xmlns:xlink="http://www.w3.org/1999/xlink" version="1.1" class="marks" width="373" height="239" viewBox="0 0 373 239" style="background-color: rgb(255, 255, 255);">
<text aria-label="196,339,0,26" text-anchor="middle" x="268.0" y="25.0" font-family="avenir" font-size="25px" font-weight="bold" fill="#000" opacity="1">target vice</text>
<path aria-label="national: 445; quaerat Mobility magenta: Wyoming" role="graphics-symbol" aria-roledescription="arc mark"  d="M242.30044620160044,204.45944177016423A75,75,0,0,0,331.7306326000639,173.5399351086426L268.0,134.0Z" fill="#7f3c3a" stroke="black" stroke-width="0"/>
<path aria-label="national: 193; quaerat Mobility magenta: Peso" role="graphics-symbol" aria-roledescription="arc mark"  d="M331.7306326000639,173.5399351086426A75,75,0,0,0,342.9491788441262,131.2394582793981L268.0,134.0Z" fill="#fed09e" stroke="black" stroke-width="0"/>
<path aria-label="national: 378; quaerat Mobility magenta: bah" role="graphics-symbol" aria-roledescription="arc mark"  d="M193.1411415324888,138.59905522266567A75,75,0,0,0,242.30044620160044,204.45944177016423L268.0,134.0Z" fill="#f4a72f" stroke="black" stroke-width="0"/>
<path aria-label="national: 532; quaerat Mobility magenta: connect" role="graphics-symbol" aria-roledescription="arc mark"  d="M268.0,59.0A75,75,0,0,0,193.1411415324888,138.59905522266567L268.0,134.0Z" fill="#f657b0" stroke="black" stroke-width="0"/>
<path aria-label="national: 420; quaerat Mobility magenta: Pants" role="graphics-symbol" aria-roledescription="arc mark"  d="M342.9491788441262,131.2394582793981A75,75,0,0,0,286.2235134927448,61.2476560104092L268.0,134.0Z" fill="#20cf81" stroke="black" stroke-width="0"/>
<path aria-label="national: 80; quaerat Mobility magenta: Global" role="graphics-symbol" aria-roledescription="arc mark"  d="M286.2235134927448,61.2476560104092A75,75,0,0,0,268.0,59.0L268.0,134.0Z" fill="#75e8ce" stroke="black" stroke-width="0"/>
<path  d="M16.0,56.0A5,5,0,1,1,6.0,56.0A5,5,0,1,1,16.0,56.0" fill="#75e8ce" stroke="black" stroke-width="1.5" opacity="1"/>
<path  d="M16.0,72.0A5,5,0,1,1,6.0,72.0A5,5,0,1,1,16.0,72.0" fill="#20cf81" stroke="black" stroke-width="1.5" opacity="1"/>
<path  d="M16.0,88.0A5,5,0,1,1,6.0,88.0A5,5,0,1,1,16.0,88.0" fill="#fed09e" stroke="black" stroke-width="1.5" opacity="1"/>
<path  d="M16.0,104.0A5,5,0,1,1,6.0,104.0A5,5,0,1,1,16.0,104.0" fill="#7f3c3a" stroke="black" stroke-width="1.5" opacity="1"/>
<path  d="M16.0,120.0A5,5,0,1,1,6.0,120.0A5,5,0,1,1,16.0,120.0" fill="#f4a72f" stroke="black" stroke-width="1.5" opacity="1"/>
<path  d="M16.0,136.0A5,5,0,1,1,6.0,136.0A5,5,0,1,1,16.0,136.0" fill="#f657b0" stroke="black" stroke-width="1.5" opacity="1"/>
<text aria-label="21,54,49,60" text-anchor="start" x="21.0" y="59.0" font-family="avenir" font-size="10px" fill="#000" opacity="1">Global</text>
<text aria-label="21,48,65,76" text-anchor="start" x="21.0" y="75.0" font-family="avenir" font-size="10px" fill="#000" opacity="1">Pants</text>
<text aria-label="21,43,81,92" text-anchor="start" x="21.0" y="91.0" font-family="avenir" font-size="10px" fill="#000" opacity="1">Peso</text>
<text aria-label="21,59,97,108" text-anchor="start" x="21.0" y="107.0" font-family="avenir" font-size="10px" fill="#000" opacity="1">Wyoming</text>
<text aria-label="21,37,113,124" text-anchor="start" x="21.0" y="123.0" font-family="avenir" font-size="10px" fill="#000" opacity="1">bah</text>
<text aria-label="21,59,129,140" text-anchor="start" x="21.0" y="139.0" font-family="avenir" font-size="10px" fill="#000" opacity="1">connect</text>
<text aria-label="5,149,32,44" text-anchor="start" x="5.0" y="43.0" font-family="avenir" font-size="11px" font-weight="bold" fill="#000" opacity="1">quaerat Mobility magenta</text>
</svg>