<svg xmlns="http://www.w3.org/2000/svg" xmlns:xlink="http://www.w3.org/1999/xlink" version="1.1" class="marks" width="578" height="270" viewBox="0 0 578 270" style="background-color: rgb(255, 255, 255);">
<text aria-label="5,135,0,26" text-anchor="start" x="5.0" y="25.0" font-family="Balto" font-size="25px" font-weight="bold" fill="#000" opacity="1">transition</text>
<path aria-label="Drives SUV Representative: 797; gadzooks Transmasculine Astatine: protocol" role="graphics-symbol" aria-roledescription="arc mark"  d="M104.99999999999999,59.0A75,75,0,0,0,32.24528885154058,115.78593934060187L105.0,134.0Z" fill="#1ad1a5" stroke="black" stroke-width="3"/>
<path aria-label="Drives SUV Representative: 773; gadzooks Transmasculine Astatine: beatae" role="graphics-symbol" aria-roledescription="arc mark"  d="M32.24528885154058,115.78593934060187A75,75,0,0,0,67.0508147800484,198.69048879968219L105.0,134.0Z" fill="#bcf826" stroke="black" stroke-width="3"/>
<path aria-label="Drives SUV Representative: 511; gadzooks Transmasculine Astatine: Accountability" role="graphics-symbol" aria-roledescription="arc mark"  d="M179.85418947926092,138.6744323080885A75,75,0,0,0,157.92264518993616,80.8568572052788L105.0,134.0Z" fill="#5e5a6e" stroke="black" stroke-width="3"/>
<path aria-label="Drives SUV Representative: 128; gadzooks Transmasculine Astatine: Southwest" role="graphics-symbol" aria-roledescription="arc mark"  d="M67.0508147800484,198.69048879968219A75,75,0,0,0,81.57474945354872,205.24786057725512L105.0,134.0Z" fill="#ebacde" stroke="black" stroke-width="3"/>
<path aria-label="Drives SUV Representative: 157; gadzooks Transmasculine Astatine: DNS" role="graphics-symbol" aria-roledescription="arc mark"  d="M81.57474945354872,205.24786057725512A75,75,0,0,0,100.76135897985692,208.88013035714056L105.0,134.0Z" fill="#450bc7" stroke="black" stroke-width="3"/>
<path aria-label="Drives SUV Representative: 728; gadzooks Transmasculine Astatine: Avon" role="graphics-symbol" aria-roledescription="arc mark"  d="M126.99877374400805,205.70114332254363A75,75,0,0,0,179.85418947926092,138.6744323080885L105.0,134.0Z" fill="#23b6bc" stroke="black" stroke-width="3"/>
<path aria-label="Drives SUV Representative: 471; gadzooks Transmasculine Astatine: Account" role="graphics-symbol" aria-roledescription="arc mark"  d="M157.92264518993616,80.8568572052788A75,75,0,0,0,105.0,59.0L105.0,134.0Z" fill="#feccde" stroke="black" stroke-width="3"/>
<path aria-label="Drives SUV Representative: 213; gadzooks Transmasculine Astatine: Buckinghamshire" role="graphics-symbol" aria-roledescription="arc mark"  d="M100.76135897985692,208.88013035714056A75,75,0,0,0,126.99877374400805,205.70114332254363L105.0,134.0Z" fill="#c541dc" stroke="black" stroke-width="3"/>
<path  d="M16.0,258.25A5,5,0,1,1,6.0,258.25A5,5,0,1,1,16.0,258.25" fill="#feccde" stroke="black" stroke-width="1.5" opacity="1"/>
<path  d="M83.0,258.25A5,5,0,1,1,73.0,258.25A5,5,0,1,1,83.0,258.25" fill="#5e5a6e" stroke="black" stroke-width="1.5" opacity="1"/>
<path  d="M179.0,258.25A5,5,0,1,1,169.0,258.25A5,5,0,1,1,179.0,258.25" fill="#23b6bc" stroke="black" stroke-width="1.5" opacity="1"/>
<path  d="M231.0,258.25A5,5,0,1,1,221.0,258.25A5,5,0,1,1,231.0,258.25" fill="#c541dc" stroke="black" stroke-width="1.5" opacity="1"/>
<path  d="M340.0,258.25A5,5,0,1,1,330.0,258.25A5,5,0,1,1,340.0,258.25" fill="#450bc7" stroke="black" stroke-width="1.5" opacity="1"/>
<path  d="M389.0,258.25A5,5,0,1,1,379.0,258.25A5,5,0,1,1,389.0,258.25" fill="#ebacde" stroke="black" stroke-width="1.5" opacity="1"/>
<path  d="M467.0,258.25A5,5,0,1,1,457.0,258.25A5,5,0,1,1,467.0,258.25" fill="#bcf826" stroke="black" stroke-width="1.5" opacity="1"/>
<path  d="M527.0,258.25A5,5,0,1,1,517.0,258.25A5,5,0,1,1,527.0,258.25" fill="#1ad1a5" stroke="black" stroke-width="1.5" opacity="1"/>
<text aria-label="21,59,251,262" text-anchor="start" x="21.0" y="261.25" font-family="Balto" font-size="10px" fill="#000" opacity="1">Account</text>
<text aria-label="88,165,251,262" text-anchor="start" x="88.0" y="261.25" font-family="Balto" font-size="10px" fill="#000" opacity="1">Accountability</text>
<text aria-label="184,206,251,262" text-anchor="start" x="184.0" y="261.25" font-family="Balto" font-size="10px" fill="#000" opacity="1">Avon</text>
<text aria-label="236,318,251,262" text-anchor="start" x="236.0" y="261.25" font-family="Balto" font-size="10px" fill="#000" opacity="1">Buckinghamshire</text>
<text aria-label="345,361,251,262" text-anchor="start" x="345.0" y="261.25" font-family="Balto" font-size="10px" fill="#000" opacity="1">DNS</text>
<text aria-label="394,443,251,262" text-anchor="start" x="394.0" y="261.25" font-family="Balto" font-size="10px" fill="#000" opacity="1">Southwest</text>
<text aria-label="472,505,251,262" text-anchor="start" x="472.0" y="261.25" font-family="Balto" font-size="10px" fill="#000" opacity="1">beatae</text>
<text aria-label="532,576,251,262" text-anchor="start" x="532.0" y="261.25" font-family="Balto" font-size="10px" fill="#000" opacity="1">protocol</text>
</svg>