<svg xmlns="http://www.w3.org/2000/svg" xmlns:xlink="http://www.w3.org/1999/xlink" version="1.1" class="marks" width="431" height="239" viewBox="0 0 431 239" style="background-color: rgb(255, 255, 255);">
<text aria-label="5,395,0,26" text-anchor="start" x="5.0" y="25.0" font-family="avenir" font-size="25px" font-weight="bold" fill="#000" opacity="1">Branding bandwidth comfortable</text>
<path aria-label="Baby transmitting: 444; um Generic female: Bigender" role="graphics-symbol" aria-roledescription="arc mark"  d="M162.56929537993304,85.92946609971946A75,75,0,0,0,105.0,59.0L105.0,87.0A47,47,0,0,1,141.07675843809136,103.8757987558242Z" fill="#4b88df" stroke="black" stroke-width="0"/>
<path aria-label="Baby transmitting: 698; um Generic female: Hybrid" role="graphics-symbol" aria-roledescription="arc mark"  d="M58.8849474839476,193.14729014453434A75,75,0,0,0,154.084080979783,190.70760966898627L135.75935741399735,169.53676872589807A47,47,0,0,1,76.10123375660717,171.06563515724153Z" fill="#642ba2" stroke="black" stroke-width="0"/>
<path aria-label="Baby transmitting: 166; um Generic female: Southwest" role="graphics-symbol" aria-roledescription="arc mark"  d="M91.03933942946995,60.3107880593472A75,75,0,0,0,68.09897083388472,68.705941721459L81.8753550559011,93.08239014544763A47,47,0,0,1,96.25131937580116,87.82142718385758Z" fill="#fe81bf" stroke="black" stroke-width="0"/>
<path aria-label="Baby transmitting: 808; um Generic female: Mandatory" role="graphics-symbol" aria-roledescription="arc mark"  d="M46.86629369236188,86.61358643094758A75,75,0,0,0,58.8849474839476,193.14729014453434L76.10123375660717,171.06563515724153A47,47,0,0,1,68.56954404721344,104.3045141633938Z" fill="#65f4d9" stroke="black" stroke-width="0"/>
<path aria-label="Baby transmitting: 17; um Generic female: but" role="graphics-symbol" aria-roledescription="arc mark"  d="M93.51567473429495,59.884480213713076A75,75,0,0,0,91.03933942946995,60.3107880593472L96.25131937580116,87.82142718385758A47,47,0,0,1,97.80315616682483,87.55427426726018Z" fill="#ebca27" stroke="black" stroke-width="0"/>
<path aria-label="Baby transmitting: 323; um Generic female: Grove" role="graphics-symbol" aria-roledescription="arc mark"  d="M179.8689399401394,129.56808932402765A75,75,0,0,0,162.56929537993304,85.92946609971946L141.07675843809136,103.8757987558242A47,47,0,0,1,151.91786902915402,131.22266930972398Z" fill="#d7f6dc" stroke="black" stroke-width="0"/>
<path aria-label="Baby transmitting: 189; um Generic female: Shoes" role="graphics-symbol" aria-roledescription="arc mark"  d="M68.09897083388472,68.705941721459A75,75,0,0,0,46.86629369236188,86.61358643094758L68.56954404721344,104.3045141633938A47,47,0,0,1,81.8753550559011,93.08239014544763Z" fill="#ca445d" stroke="black" stroke-width="0"/>
<path aria-label="Baby transmitting: 465; um Generic female: Human" role="graphics-symbol" aria-roledescription="arc mark"  d="M154.084080979783,190.70760966898627A75,75,0,0,0,179.8689399401394,129.56808932402765L151.91786902915402,131.22266930972398A47,47,0,0,1,135.75935741399735,169.53676872589807Z" fill="#9d16f8" stroke="black" stroke-width="0"/>
<path aria-label="Baby transmitting: 78; um Generic female: consequuntur" role="graphics-symbol" aria-roledescription="arc mark"  d="M104.99999999999999,59.0A75,75,0,0,0,93.51567473429495,59.884480213713076L97.80315616682483,87.55427426726018A47,47,0,0,1,104.99999999999999,87.0Z" fill="#fa1b4e" stroke="black" stroke-width="0"/>
<text aria-label="136,149,46,55" role="graphics-symbol" aria-roledescription="text mark" text-anchor="middle" x="143.13385856931936" y="54.47816960706078" font-family="avenir" font-size="8px" fill="#4b88df" opacity="1">444</text>
<text aria-label="100,114,217,226" role="graphics-symbol" aria-roledescription="text mark" text-anchor="middle" x="107.30568460610652" y="225.97046081074143" font-family="avenir" font-size="8px" fill="#642ba2" opacity="1">698</text>
<text aria-label="67,80,43,52" role="graphics-symbol" aria-roledescription="text mark" text-anchor="middle" x="74.07007223358241" y="51.481720507548246" font-family="avenir" font-size="8px" fill="#fe81bf" opacity="1">166</text>
<text aria-label="8,22,138,147" role="graphics-symbol" aria-roledescription="text mark" text-anchor="middle" x="15.567320583820461" y="146.08939306612925" font-family="avenir" font-size="8px" fill="#65f4d9" opacity="1">808</text>
<text aria-label="85,94,39,48" role="graphics-symbol" aria-roledescription="text mark" text-anchor="middle" x="89.73086592727789" y="47.3047152061101" font-family="avenir" font-size="8px" fill="#ebca27" opacity="1">17</text>
<text aria-label="181,195,94,103" role="graphics-symbol" aria-roledescription="text mark" text-anchor="middle" x="188.66551033836396" y="102.83251019716576" font-family="avenir" font-size="8px" fill="#d7f6dc" opacity="1">323</text>
<text aria-label="40,53,59,68" role="graphics-symbol" aria-roledescription="text mark" text-anchor="middle" x="46.97567331869572" y="67.2019076341409" font-family="avenir" font-size="8px" fill="#ca445d" opacity="1">189</text>
<text aria-label="181,194,162,171" role="graphics-symbol" aria-roledescription="text mark" text-anchor="middle" x="187.92684272023794" y="170.9734006990015" font-family="avenir" font-size="8px" fill="#9d16f8" opacity="1">465</text>
<text aria-label="93,102,38,47" role="graphics-symbol" aria-roledescription="text mark" text-anchor="middle" x="98.08899923741097" y="46.2657363742283" font-family="avenir" font-size="8px" fill="#fa1b4e" opacity="1">78</text>
<path  d="M234.0,40.0A5,5,0,1,1,224.0,40.0A5,5,0,1,1,234.0,40.0" fill="#4b88df" stroke="black" stroke-width="1.5" opacity="1"/>
<path  d="M234.0,56.0A5,5,0,1,1,224.0,56.0A5,5,0,1,1,234.0,56.0" fill="#d7f6dc" stroke="black" stroke-width="1.5" opacity="1"/>
<path  d="M234.0,72.0A5,5,0,1,1,224.0,72.0A5,5,0,1,1,234.0,72.0" fill="#9d16f8" stroke="black" stroke-width="1.5" opacity="1"/>
<path  d="M234.0,88.0A5,5,0,1,1,224.0,88.0A5,5,0,1,1,234.0,88.0" fill="#642ba2" stroke="black" stroke-width="1.5" opacity="1"/>
<path  d="M234.0,104.0A5,5,0,1,1,224.0,104.0A5,5,0,1,1,234.0,104.0" fill="#65f4d9" stroke="black" stroke-width="1.5" opacity="1"/>
<path  d="M234.0,120.0A5,5,0,1,1,224.0,120.0A5,5,0,1,1,234.0,120.0" fill="#ca445d" stroke="black" stroke-width="1.5" opacity="1"/>
<path  d="M234.0,136.0A5,5,0,1,1,224.0,136.0A5,5,0,1,1,234.0,136.0" fill="#fe81bf" stroke="black" stroke-width="1.5" opacity="1"/>
<path  d="M234.0,152.0A5,5,0,1,1,224.0,152.0A5,5,0,1,1,234.0,152.0" fill="#ebca27" stroke="black" stroke-width="1.5" opacity="1"/>
<path  d="M234.0,168.0A5,5,0,1,1,224.0,168.0A5,5,0,1,1,234.0,168.0" fill="#fa1b4e" stroke="black" stroke-width="1.5" opacity="1"/>
<text aria-label="239,283,33,44" text-anchor="start" x="239.0" y="43.0" font-family="avenir" font-size="10px" fill="#000" opacity="1">Bigender</text>
<text aria-label="239,266,49,60" text-anchor="start" x="239.0" y="59.0" font-family="avenir" font-size="10px" fill="#000" opacity="1">Grove</text>
<text aria-label="239,266,65,76" text-anchor="start" x="239.0" y="75.0" font-family="avenir" font-size="10px" fill="#000" opacity="1">Human</text>
<text aria-label="239,272,81,92" text-anchor="start" x="239.0" y="91.0" font-family="avenir" font-size="10px" fill="#000" opacity="1">Hybrid</text>
<text aria-label="239,288,97,108" text-anchor="start" x="239.0" y="107.0" font-family="avenir" font-size="10px" fill="#000" opacity="1">Mandatory</text>
<text aria-label="239,266,113,124" text-anchor="start" x="239.0" y="123.0" font-family="avenir" font-size="10px" fill="#000" opacity="1">Shoes</text>
<text aria-label="239,288,129,140" text-anchor="start" x="239.0" y="139.0" font-family="avenir" font-size="10px" fill="#000" opacity="1">Southwest</text>
<text aria-label="239,255,145,156" text-anchor="start" x="239.0" y="155.0" font-family="avenir" font-size="10px" fill="#000" opacity="1">but</text>
<text aria-label="239,305,161,172" text-anchor="start" x="239.0" y="171.0" font-family="avenir" font-size="10px" fill="#000" opacity="1">consequuntur</text>
</svg>