<svg xmlns="http://www.w3.org/2000/svg" xmlns:xlink="http://www.w3.org/1999/xlink" version="1.1" class="marks" width="327" height="239" viewBox="0 0 327 239" style="background-color: rgb(255, 255, 255);">
<text aria-label="54,314,0,26" text-anchor="middle" x="184.0" y="25.0" font-family="sans-serif" font-size="25px" font-weight="bold" fill="#000" opacity="1">Switchable mindshare</text>
<path aria-label="withdrawal: 115; blue Baby that: Diesel" role="graphics-symbol" aria-roledescription="arc mark"  d="M247.73371295506865,173.53496974781837A75,75,0,0,0,255.4874525936438,156.68356501239455L224.98613948702246,147.00524394043953A43,43,0,0,1,220.54066209423937,156.66671598874922Z" fill="#8ec511" stroke="white" stroke-width="0"/>
<path aria-label="withdrawal: 55; blue Baby that: Accounts" role="graphics-symbol" aria-roledescription="arc mark"  d="M255.4874525936438,156.68356501239455A75,75,0,0,0,257.66911851193004,148.06630646883548L226.23696128017323,142.06468237546568A43,43,0,0,1,224.98613948702246,147.00524394043953Z" fill="#0f5ba8" stroke="white" stroke-width="0"/>
<path aria-label="withdrawal: 747; blue Baby that: Internal" role="graphics-symbol" aria-roledescription="arc mark"  d="M141.95482804702493,196.1063886846173A75,75,0,0,0,247.73371295506865,173.53496974781837L220.54066209423937,156.66671598874922A43,43,0,0,1,159.89410141362762,169.60766284584724Z" fill="#f16dae" stroke="white" stroke-width="0"/>
<path aria-label="withdrawal: 459; blue Baby that: AGP" role="graphics-symbol" aria-roledescription="arc mark"  d="M246.6895471544256,92.82937117831395A75,75,0,0,0,184.0,59.0L184.0,91.0A43,43,0,0,1,219.94200703520403,110.39550614223333Z" fill="#1a4fcc" stroke="white" stroke-width="0"/>
<path aria-label="withdrawal: 357; blue Baby that: ASCII" role="graphics-symbol" aria-roledescription="arc mark"  d="M257.66911851193004,148.06630646883548A75,75,0,0,0,246.6895471544256,92.82937117831395L219.94200703520403,110.39550614223333A43,43,0,0,1,226.23696128017323,142.06468237546568Z" fill="#dd6d13" stroke="white" stroke-width="0"/>
<path aria-label="withdrawal: 327; blue Baby that: North" role="graphics-symbol" aria-roledescription="arc mark"  d="M111.72927682720095,154.0485054824704A75,75,0,0,0,141.95482804702493,196.1063886846173L159.89410141362762,169.60766284584724A43,43,0,0,1,142.56478538092853,145.49447647661637Z" fill="#6a70da" stroke="white" stroke-width="0"/>
<path aria-label="withdrawal: 467; blue Baby that: Somoni" role="graphics-symbol" aria-roledescription="arc mark"  d="M128.430362527983,83.63120617655608A75,75,0,0,0,111.72927682720095,154.0485054824704L142.56478538092853,145.49447647661637A43,43,0,0,1,152.14007451604357,105.12189154122548Z" fill="#1067bf" stroke="white" stroke-width="0"/>
<path aria-label="withdrawal: 387; blue Baby that: sanity" role="graphics-symbol" aria-roledescription="arc mark"  d="M184.0,59.0A75,75,0,0,0,128.430362527983,83.63120617655608L152.14007451604357,105.12189154122548A43,43,0,0,1,184.0,91.0Z" fill="#22bed5" stroke="white" stroke-width="0"/>
<path  d="M16.0,40.0A5,5,0,1,1,6.0,40.0A5,5,0,1,1,16.0,40.0" fill="#1a4fcc" stroke="white" stroke-width="1.5" opacity="1"/>
<path  d="M16.0,56.0A5,5,0,1,1,6.0,56.0A5,5,0,1,1,16.0,56.0" fill="#dd6d13" stroke="white" stroke-width="1.5" opacity="1"/>
<path  d="M16.0,72.0A5,5,0,1,1,6.0,72.0A5,5,0,1,1,16.0,72.0" fill="#0f5ba8" stroke="white" stroke-width="1.5" opacity="1"/>
<path  d="M16.0,88.0A5,5,0,1,1,6.0,88.0A5,5,0,1,1,16.0,88.0" fill="#8ec511" stroke="white" stroke-width="1.5" opacity="1"/>
<path  d="M16.0,104.0A5,5,0,1,1,6.0,104.0A5,5,0,1,1,16.0,104.0" fill="#f16dae" stroke="white" stroke-width="1.5" opacity="1"/>
<path  d="M16.0,120.0A5,5,0,1,1,6.0,120.0A5,5,0,1,1,16.0,120.0" fill="#6a70da" stroke="white" stroke-width="1.5" opacity="1"/>
<path  d="M16.0,136.0A5,5,0,1,1,6.0,136.0A5,5,0,1,1,16.0,136.0" fill="#1067bf" stroke="white" stroke-width="1.5" opacity="1"/>
<path  d="M16.0,152.0A5,5,0,1,1,6.0,152.0A5,5,0,1,1,16.0,152.0" fill="#22bed5" stroke="white" stroke-width="1.5" opacity="1"/>
<text aria-label="21,37,33,44" text-anchor="start" x="21.0" y="43.0" font-family="sans-serif" font-size="10px" fill="#000" opacity="1">AGP</text>
<text aria-label="21,48,49,60" text-anchor="start" x="21.0" y="59.0" font-family="sans-serif" font-size="10px" fill="#000" opacity="1">ASCII</text>
<text aria-label="21,65,65,76" text-anchor="start" x="21.0" y="75.0" font-family="sans-serif" font-size="10px" fill="#000" opacity="1">Accounts</text>
<text aria-label="21,54,81,92" text-anchor="start" x="21.0" y="91.0" font-family="sans-serif" font-size="10px" fill="#000" opacity="1">Diesel</text>
<text aria-label="21,65,97,108" text-anchor="start" x="21.0" y="107.0" font-family="sans-serif" font-size="10px" fill="#000" opacity="1">Internal</text>
<text aria-label="21,48,113,124" text-anchor="start" x="21.0" y="123.0" font-family="sans-serif" font-size="10px" fill="#000" opacity="1">North</text>
<text aria-label="21,54,129,140" text-anchor="start" x="21.0" y="139.0" font-family="sans-serif" font-size="10px" fill="#000" opacity="1">Somoni</text>
<text aria-label="21,54,145,156" text-anchor="start" x="21.0" y="155.0" font-family="sans-serif" font-size="10px" fill="#000" opacity="1">sanity</text>
</svg>