<svg xmlns="http://www.w3.org/2000/svg" xmlns:xlink="http://www.w3.org/1999/xlink" version="1.1" class="marks" width="366" height="239" viewBox="0 0 366 239" style="background-color: rgb(255, 255, 255);">
<text aria-label="8,294,0,26" text-anchor="middle" x="151.0" y="25.0" font-family="Balto" font-size="25px" font-weight="bold" fill="#000" opacity="1">and Californium rescue</text>
<path aria-label="New solutions product: 269; Bahraini Maggio: Texas" role="graphics-symbol" aria-roledescription="arc mark"  d="M158.13734018646028,208.65961676209395A75,75,0,0,0,216.52843407963303,170.4832060963834L178.95879854064344,149.56616793445693A32,32,0,0,1,154.04526514622304,165.85476981849342Z" fill="#b3e79b" stroke="black" stroke-width="0"/>
<path aria-label="New solutions product: 350; Bahraini Maggio: Division" role="graphics-symbol" aria-roledescription="arc mark"  d="M223.0867738484263,113.29983004596723A75,75,0,0,0,153.42725215119341,59.039287309988L152.0356275845092,102.01676258559488A32,32,0,0,1,181.7570235086619,125.16792748627935Z" fill="#14f1f2" stroke="black" stroke-width="0"/>
<path aria-label="New solutions product: 230; Bahraini Maggio: services" role="graphics-symbol" aria-roledescription="arc mark"  d="M151.0,59.0A75,75,0,0,0,95.79667457116524,83.23000037819415L127.44658115036384,112.33813349469617A32,32,0,0,1,151.0,102.0Z" fill="#163ddb" stroke="black" stroke-width="0"/>
<path aria-label="New solutions product: 219; Bahraini Maggio: North" role="graphics-symbol" aria-roledescription="arc mark"  d="M216.52843407963303,170.4832060963834A75,75,0,0,0,223.0867738484263,113.29983004596723L181.7570235086619,125.16792748627935A32,32,0,0,1,178.95879854064344,149.56616793445693Z" fill="#fa62c7" stroke="black" stroke-width="0"/>
<path aria-label="New solutions product: 418; Bahraini Maggio: lux" role="graphics-symbol" aria-roledescription="arc mark"  d="M95.79667457116524,83.23000037819415A75,75,0,0,0,96.62555589241936,185.6567500719082L127.80023718076559,156.04021336401416A32,32,0,0,1,127.44658115036384,112.33813349469617Z" fill="#8d03ae" stroke="black" stroke-width="0"/>
<path aria-label="New solutions product: 252; Bahraini Maggio: Tricycle" role="graphics-symbol" aria-roledescription="arc mark"  d="M96.62555589241936,185.6567500719082A75,75,0,0,0,158.13734018646028,208.65961676209395L154.04526514622304,165.85476981849342A32,32,0,0,1,127.80023718076559,156.04021336401416Z" fill="#6e7aab" stroke="black" stroke-width="0"/>
<path aria-label="New solutions product: 9; Bahraini Maggio: Bedfordshire" role="graphics-symbol" aria-roledescription="arc mark"  d="M153.42725215119341,59.039287309988A75,75,0,0,0,151.0,59.0L151.0,102.0A32,32,0,0,1,152.0356275845092,102.01676258559488Z" fill="#5afa9d" stroke="black" stroke-width="0"/>
<path  d="M280.0,56.0A5,5,0,1,1,270.0,56.0A5,5,0,1,1,280.0,56.0" fill="#5afa9d" stroke="black" stroke-width="1.5" opacity="1"/>
<path  d="M280.0,72.0A5,5,0,1,1,270.0,72.0A5,5,0,1,1,280.0,72.0" fill="#14f1f2" stroke="black" stroke-width="1.5" opacity="1"/>
<path  d="M280.0,88.0A5,5,0,1,1,270.0,88.0A5,5,0,1,1,280.0,88.0" fill="#fa62c7" stroke="black" stroke-width="1.5" opacity="1"/>
<path  d="M280.0,104.0A5,5,0,1,1,270.0,104.0A5,5,0,1,1,280.0,104.0" fill="#b3e79b" stroke="black" stroke-width="1.5" opacity="1"/>
<path  d="M280.0,120.0A5,5,0,1,1,270.0,120.0A5,5,0,1,1,280.0,120.0" fill="#6e7aab" stroke="black" stroke-width="1.5" opacity="1"/>
<path  d="M280.0,136.0A5,5,0,1,1,270.0,136.0A5,5,0,1,1,280.0,136.0" fill="#8d03ae" stroke="black" stroke-width="1.5" opacity="1"/>
<path  d="M280.0,152.0A5,5,0,1,1,270.0,152.0A5,5,0,1,1,280.0,152.0" fill="#163ddb" stroke="black" stroke-width="1.5" opacity="1"/>
<text aria-label="285,351,49,60" text-anchor="start" x="285.0" y="59.0" font-family="Balto" font-size="10px" fill="#000" opacity="1">Bedfordshire</text>
<text aria-label="285,329,65,76" text-anchor="start" x="285.0" y="75.0" font-family="Balto" font-size="10px" fill="#000" opacity="1">Division</text>
<text aria-label="285,312,81,92" text-anchor="start" x="285.0" y="91.0" font-family="Balto" font-size="10px" fill="#000" opacity="1">North</text>
<text aria-label="285,312,97,108" text-anchor="start" x="285.0" y="107.0" font-family="Balto" font-size="10px" fill="#000" opacity="1">Texas</text>
<text aria-label="285,329,113,124" text-anchor="start" x="285.0" y="123.0" font-family="Balto" font-size="10px" fill="#000" opacity="1">Tricycle</text>
<text aria-label="285,301,129,140" text-anchor="start" x="285.0" y="139.0" font-family="Balto" font-size="10px" fill="#000" opacity="1">lux</text>
<text aria-label="285,329,145,156" text-anchor="start" x="285.0" y="155.0" font-family="Balto" font-size="10px" fill="#000" opacity="1">services</text>
<text aria-label="269,359,32,44" text-anchor="start" x="269.0" y="43.0" font-family="Balto" font-size="11px" font-weight="bold" fill="#000" opacity="1">Bahraini Maggio</text>
</svg>