<svg xmlns="http://www.w3.org/2000/svg" xmlns:xlink="http://www.w3.org/1999/xlink" version="1.1" class="marks" width="621" height="286" viewBox="0 0 621 286" style="background-color: rgb(255, 255, 255);">
<text aria-label="5,356,0,26" text-anchor="start" x="5.0" y="25.0" font-family="monospace" font-size="25px" font-weight="bold" fill="#000" opacity="1">system connecting redundant</text>
<path aria-label="RSS microchip: 304; Hybrid female Architect: Pizza" role="graphics-symbol" aria-roledescription="arc mark"  d="M177.34285141346183,153.7866583679454A75,75,0,0,0,172.64614181252858,101.6117382701808L105.0,134.0Z" fill="#2afcf6" stroke="white" stroke-width="0"/>
<path aria-label="RSS microchip: 39; Hybrid female Architect: Fiat" role="graphics-symbol" aria-roledescription="arc mark"  d="M164.6729837048966,88.56724732359767A75,75,0,0,0,160.27019111974684,83.30280112682104L105.0,134.0Z" fill="#ad02e5" stroke="white" stroke-width="0"/>
<path aria-label="RSS microchip: 294; Hybrid female Architect: maroon" role="graphics-symbol" aria-roledescription="arc mark"  d="M58.55845031885423,192.89127663087012A75,75,0,0,0,106.67216981078957,208.98135667033426L105.0,134.0Z" fill="#dcbef1" stroke="white" stroke-width="0"/>
<path aria-label="RSS microchip: 50; Hybrid female Architect: copying" role="graphics-symbol" aria-roledescription="arc mark"  d="M157.26515310689567,187.7899039849743A75,75,0,0,0,163.2036964004685,181.30041992754497L105.0,134.0Z" fill="#0bfd21" stroke="white" stroke-width="0"/>
<path aria-label="RSS microchip: 504; Hybrid female Architect: success" role="graphics-symbol" aria-roledescription="arc mark"  d="M32.91859604717669,113.28113892633311A75,75,0,0,0,58.55845031885423,192.89127663087012L105.0,134.0Z" fill="#73ce05" stroke="white" stroke-width="0"/>
<path aria-label="RSS microchip: 87; Hybrid female Architect: Nissan" role="graphics-symbol" aria-roledescription="arc mark"  d="M172.64614181252858,101.6117382701808A75,75,0,0,0,164.6729837048966,88.56724732359767L105.0,134.0Z" fill="#e5a8b9" stroke="white" stroke-width="0"/>
<path aria-label="RSS microchip: 550; Hybrid female Architect: ugh" role="graphics-symbol" aria-roledescription="arc mark"  d="M104.99999999999999,59.0A75,75,0,0,0,32.91859604717669,113.28113892633311L105.0,134.0Z" fill="#fe9afd" stroke="white" stroke-width="0"/>
<path aria-label="RSS microchip: 75; Hybrid female Architect: Profound" role="graphics-symbol" aria-roledescription="arc mark"  d="M172.7597500498016,166.14990315986057A75,75,0,0,0,177.34285141346183,153.7866583679454L105.0,134.0Z" fill="#ee37af" stroke="white" stroke-width="0"/>
<path aria-label="RSS microchip: 102; Hybrid female Architect: Security" role="graphics-symbol" aria-roledescription="arc mark"  d="M163.2036964004685,181.30041992754497A75,75,0,0,0,172.7597500498016,166.14990315986057L105.0,134.0Z" fill="#a5da68" stroke="white" stroke-width="0"/>
<path aria-label="RSS microchip: 353; Hybrid female Architect: Chile" role="graphics-symbol" aria-roledescription="arc mark"  d="M160.27019111974684,83.30280112682104A75,75,0,0,0,105.0,59.0L105.0,134.0Z" fill="#bdeac2" stroke="white" stroke-width="0"/>
<path aria-label="RSS microchip: 319; Hybrid female Architect: female" role="graphics-symbol" aria-roledescription="arc mark"  d="M106.67216981078957,208.98135667033426A75,75,0,0,0,157.26515310689567,187.7899039849743L105.0,134.0Z" fill="#992c63" stroke="white" stroke-width="0"/>
<path  d="M16.0,274.25A5,5,0,1,1,6.0,274.25A5,5,0,1,1,16.0,274.25" fill="#bdeac2" stroke="white" stroke-width="1.5" opacity="1"/>
<path  d="M68.0,274.25A5,5,0,1,1,58.0,274.25A5,5,0,1,1,68.0,274.25" fill="#ad02e5" stroke="white" stroke-width="1.5" opacity="1"/>
<path  d="M115.0,274.25A5,5,0,1,1,105.0,274.25A5,5,0,1,1,115.0,274.25" fill="#e5a8b9" stroke="white" stroke-width="1.5" opacity="1"/>
<path  d="M172.0,274.25A5,5,0,1,1,162.0,274.25A5,5,0,1,1,172.0,274.25" fill="#2afcf6" stroke="white" stroke-width="1.5" opacity="1"/>
<path  d="M224.0,274.25A5,5,0,1,1,214.0,274.25A5,5,0,1,1,224.0,274.25" fill="#ee37af" stroke="white" stroke-width="1.5" opacity="1"/>
<path  d="M291.0,274.25A5,5,0,1,1,281.0,274.25A5,5,0,1,1,291.0,274.25" fill="#a5da68" stroke="white" stroke-width="1.5" opacity="1"/>
<path  d="M358.0,274.25A5,5,0,1,1,348.0,274.25A5,5,0,1,1,358.0,274.25" fill="#0bfd21" stroke="white" stroke-width="1.5" opacity="1"/>
<path  d="M420.0,274.25A5,5,0,1,1,410.0,274.25A5,5,0,1,1,420.0,274.25" fill="#992c63" stroke="white" stroke-width="1.5" opacity="1"/>
<path  d="M477.0,274.25A5,5,0,1,1,467.0,274.25A5,5,0,1,1,477.0,274.25" fill="#dcbef1" stroke="white" stroke-width="1.5" opacity="1"/>
<path  d="M534.0,274.25A5,5,0,1,1,524.0,274.25A5,5,0,1,1,534.0,274.25" fill="#73ce05" stroke="white" stroke-width="1.5" opacity="1"/>
<path  d="M596.0,274.25A5,5,0,1,1,586.0,274.25A5,5,0,1,1,596.0,274.25" fill="#fe9afd" stroke="white" stroke-width="1.5" opacity="1"/>
<text aria-label="21,48,267,278" text-anchor="start" x="21.0" y="277.25" font-family="monospace" font-size="10px" fill="#000" opacity="1">Chile</text>
<text aria-label="73,95,267,278" text-anchor="start" x="73.0" y="277.25" font-family="monospace" font-size="10px" fill="#000" opacity="1">Fiat</text>
<text aria-label="120,153,267,278" text-anchor="start" x="120.0" y="277.25" font-family="monospace" font-size="10px" fill="#000" opacity="1">Nissan</text>
<text aria-label="177,204,267,278" text-anchor="start" x="177.0" y="277.25" font-family="monospace" font-size="10px" fill="#000" opacity="1">Pizza</text>
<text aria-label="229,273,267,278" text-anchor="start" x="229.0" y="277.25" font-family="monospace" font-size="10px" fill="#000" opacity="1">Profound</text>
<text aria-label="296,340,267,278" text-anchor="start" x="296.0" y="277.25" font-family="monospace" font-size="10px" fill="#000" opacity="1">Security</text>
<text aria-label="363,401,267,278" text-anchor="start" x="363.0" y="277.25" font-family="monospace" font-size="10px" fill="#000" opacity="1">copying</text>
<text aria-label="425,458,267,278" text-anchor="start" x="425.0" y="277.25" font-family="monospace" font-size="10px" fill="#000" opacity="1">female</text>
<text aria-label="482,515,267,278" text-anchor="start" x="482.0" y="277.25" font-family="monospace" font-size="10px" fill="#000" opacity="1">maroon</text>
<text aria-label="539,577,267,278" text-anchor="start" x="539.0" y="277.25" font-family="monospace" font-size="10px" fill="#000" opacity="1">success</text>
<text aria-label="601,617,267,278" text-anchor="start" x="601.0" y="277.25" font-family="monospace" font-size="10px" fill="#000" opacity="1">ugh</text>
<text aria-label="5,143,250,262" text-anchor="start" x="5.0" y="261.0" font-family="monospace" font-size="11px" font-weight="bold" fill="#000" opacity="1">Hybrid female Architect</text>
</svg>