<svg xmlns="http://www.w3.org/2000/svg" xmlns:xlink="http://www.w3.org/1999/xlink" version="1.1" class="marks" width="355" height="239" viewBox="0 0 355 239" style="background-color: rgb(255, 255, 255);">
<text aria-label="64,350,0,26" text-anchor="end" x="350.0" y="25.0" font-family="sans-serif" font-size="25px" font-weight="bold" fill="#000" opacity="1">functionalities Copper</text>
<path aria-label="Samarium Polonium: 588; Sedan paradigms mole: cooperative" role="graphics-symbol" aria-roledescription="arc mark"  d="M205.8849010824546,194.65359055732137A75,75,0,0,0,307.970047470223,181.58648543757036L295.60310400990875,171.43470187755534A59,59,0,0,1,215.2961221848643,181.7141579050928Z" fill="#376d28" stroke="black" stroke-width="0"/>
<path aria-label="Samarium Polonium: 878; Sedan paradigms mole: but" role="graphics-symbol" aria-roledescription="arc mark"  d="M307.970047470223,181.58648543757036A75,75,0,0,0,250.0,59.0L250.0,75.0A59,59,0,0,1,295.60310400990875,171.43470187755534Z" fill="#a813d8" stroke="black" stroke-width="0"/>
<path aria-label="Samarium Polonium: 585; Sedan paradigms mole: plum" role="graphics-symbol" aria-roledescription="arc mark"  d="M250.0,59.0A75,75,0,0,0,175.16441437932275,129.0366216333746L191.1293393117339,130.09547568492135A59,59,0,0,1,250.0,75.0Z" fill="#498d9a" stroke="black" stroke-width="0"/>
<path aria-label="Samarium Polonium: 392; Sedan paradigms mole: implement" role="graphics-symbol" aria-roledescription="arc mark"  d="M175.16441437932275,129.0366216333746A75,75,0,0,0,205.8849010824546,194.65359055732137L215.2961221848643,181.7141579050928A59,59,0,0,1,191.1293393117339,130.09547568492135Z" fill="#ac5240" stroke="black" stroke-width="0"/>
<path  d="M16.0,56.0A5,5,0,1,1,6.0,56.0A5,5,0,1,1,16.0,56.0" fill="#a813d8" stroke="black" stroke-width="1.5" opacity="1"/>
<path  d="M16.0,72.0A5,5,0,1,1,6.0,72.0A5,5,0,1,1,16.0,72.0" fill="#376d28" stroke="black" stroke-width="1.5" opacity="1"/>
<path  d="M16.0,88.0A5,5,0,1,1,6.0,88.0A5,5,0,1,1,16.0,88.0" fill="#ac5240" stroke="black" stroke-width="1.5" opacity="1"/>
<path  d="M16.0,104.0A5,5,0,1,1,6.0,104.0A5,5,0,1,1,16.0,104.0" fill="#498d9a" stroke="black" stroke-width="1.5" opacity="1"/>
<text aria-label="21,37,49,60" text-anchor="start" x="21.0" y="59.0" font-family="sans-serif" font-size="10px" fill="#000" opacity="1">but</text>
<text aria-label="21,81,65,76" text-anchor="start" x="21.0" y="75.0" font-family="sans-serif" font-size="10px" fill="#000" opacity="1">cooperative</text>
<text aria-label="21,70,81,92" text-anchor="start" x="21.0" y="91.0" font-family="sans-serif" font-size="10px" fill="#000" opacity="1">implement</text>
<text aria-label="21,43,97,108" text-anchor="start" x="21.0" y="107.0" font-family="sans-serif" font-size="10px" fill="#000" opacity="1">plum</text>
<text aria-label="5,125,32,44" text-anchor="start" x="5.0" y="43.0" font-family="sans-serif" font-size="11px" font-weight="bold" fill="#000" opacity="1">Sedan paradigms mole</text>
</svg>