<svg xmlns="http://www.w3.org/2000/svg" xmlns:xlink="http://www.w3.org/1999/xlink" version="1.1" class="marks" width="338" height="239" viewBox="0 0 338 239" style="background-color: rgb(255, 255, 255);">
<text aria-label="14,196,0,26" text-anchor="middle" x="105.0" y="25.0" font-family="Balto" font-size="25px" font-weight="bold" fill="#000" opacity="1">Cambridgeshire</text>
<path aria-label="Senior Bicycle: 56; East anterior purple: similique" role="graphics-symbol" aria-roledescription="arc mark"  d="M104.99999999999999,59.0A75,75,0,0,0,98.07080075146797,59.32077800502911L102.22832030058719,104.12831120201164A30,30,0,0,1,105.0,104.0Z" fill="#3cd0e8" stroke="white" stroke-width="4"/>
<path aria-label="Senior Bicycle: 687; East anterior purple: ironclad" role="graphics-symbol" aria-roledescription="arc mark"  d="M68.73173538651385,199.64764262276407A75,75,0,0,0,149.20410389826034,194.5887547202598L122.68164155930414,158.23550188810393A30,30,0,0,1,90.49269415460554,160.25905704910562Z" fill="#4d64e1" stroke="white" stroke-width="4"/>
<path aria-label="Senior Bicycle: 330; East anterior purple: plus" role="graphics-symbol" aria-roledescription="arc mark"  d="M98.07080075146797,59.32077800502911A75,75,0,0,0,60.346660026731,73.7415630037448L87.1386640106924,109.89662520149793A30,30,0,0,1,102.22832030058719,104.12831120201164Z" fill="#5adec9" stroke="white" stroke-width="4"/>
<path aria-label="Senior Bicycle: 573; East anterior purple: moral" role="graphics-symbol" aria-roledescription="arc mark"  d="M30.53370135893047,142.93142579317814A75,75,0,0,0,68.73173538651385,199.64764262276407L90.49269415460554,160.25905704910562A30,30,0,0,1,75.21348054357219,137.57257031727124Z" fill="#ff16fa" stroke="white" stroke-width="4"/>
<path aria-label="Senior Bicycle: 177; East anterior purple: Georgia" role="graphics-symbol" aria-roledescription="arc mark"  d="M179.35802760450588,143.79202383409782A75,75,0,0,0,179.02404960979783,121.9401459641425L134.60961984391912,129.176058385657A30,30,0,0,1,134.74321104180234,137.91680953363914Z" fill="#32b215" stroke="white" stroke-width="4"/>
<path aria-label="Senior Bicycle: 361; East anterior purple: deceivingly" role="graphics-symbol" aria-roledescription="arc mark"  d="M149.20410389826034,194.5887547202598A75,75,0,0,0,175.60438308008406,159.29863810328015L133.24175323203363,144.11945524131207A30,30,0,0,1,122.68164155930414,158.23550188810393Z" fill="#0c69e8" stroke="white" stroke-width="4"/>
<path aria-label="Senior Bicycle: 853; East anterior purple: Electric" role="graphics-symbol" aria-roledescription="arc mark"  d="M179.02404960979783,121.9401459641425A75,75,0,0,0,105.0,59.0L105.0,104.0A30,30,0,0,1,134.60961984391912,129.176058385657Z" fill="#a9db09" stroke="white" stroke-width="4"/>
<path aria-label="Senior Bicycle: 637; East anterior purple: pink" role="graphics-symbol" aria-roledescription="arc mark"  d="M60.346660026731,73.7415630037448A75,75,0,0,0,30.53370135893047,142.93142579317814L75.21348054357219,137.57257031727124A30,30,0,0,1,87.1386640106924,109.89662520149793Z" fill="#ec706a" stroke="white" stroke-width="4"/>
<path aria-label="Senior Bicycle: 129; East anterior purple: Towels" role="graphics-symbol" aria-roledescription="arc mark"  d="M175.60438308008406,159.29863810328015A75,75,0,0,0,179.35802760450588,143.79202383409782L134.74321104180234,137.91680953363914A30,30,0,0,1,133.24175323203363,144.11945524131207Z" fill="#bfe492" stroke="white" stroke-width="4"/>
<text aria-label="94,107,36,49" role="graphics-symbol" aria-roledescription="text mark" text-anchor="middle" x="100.8380278386836" y="48.09628490585928" font-family="Balto" font-size="12px" fill="#3cd0e8" opacity="1">56</text>
<text aria-label="100,120,215,228" role="graphics-symbol" aria-roledescription="text mark" text-anchor="middle" x="110.64669470637405" y="227.8226855470989" font-family="Balto" font-size="12px" fill="#4d64e1" opacity="1">687</text>
<text aria-label="63,82,41,54" role="graphics-symbol" aria-roledescription="text mark" text-anchor="middle" x="72.8637547103396" y="53.932992567340776" font-family="Balto" font-size="12px" fill="#5adec9" opacity="1">330</text>
<text aria-label="20,40,176,189" role="graphics-symbol" aria-roledescription="text mark" text-anchor="middle" x="30.351529217072297" y="188.2753001957262" font-family="Balto" font-size="12px" fill="#ff16fa" opacity="1">573</text>
<text aria-label="185,204,124,137" role="graphics-symbol" aria-roledescription="text mark" text-anchor="middle" x="194.98949019610575" y="136.62462578001967" font-family="Balto" font-size="12px" fill="#32b215" opacity="1">177</text>
<text aria-label="167,186,179,192" role="graphics-symbol" aria-roledescription="text mark" text-anchor="middle" x="177.0659223538755" y="191.9119915722392" font-family="Balto" font-size="12px" fill="#0c69e8" opacity="1">361</text>
<text aria-label="153,173,57,70" role="graphics-symbol" aria-roledescription="text mark" text-anchor="middle" x="163.2989526669536" y="69.43446844123278" font-family="Balto" font-size="12px" fill="#a9db09" opacity="1">853</text>
<text aria-label="12,32,90,103" role="graphics-symbol" aria-roledescription="text mark" text-anchor="middle" x="22.34637848275952" y="102.38569318258797" font-family="Balto" font-size="12px" fill="#ec706a" opacity="1">637</text>
<text aria-label="182,202,147,160" role="graphics-symbol" aria-roledescription="text mark" text-anchor="middle" x="192.47365326273467" y="159.17451262416364" font-family="Balto" font-size="12px" fill="#bfe492" opacity="1">129</text>
<path  d="M234.0,56.0A5,5,0,1,1,224.0,56.0A5,5,0,1,1,234.0,56.0" fill="#a9db09" stroke="white" stroke-width="1.5" opacity="1"/>
<path  d="M234.0,72.0A5,5,0,1,1,224.0,72.0A5,5,0,1,1,234.0,72.0" fill="#32b215" stroke="white" stroke-width="1.5" opacity="1"/>
<path  d="M234.0,88.0A5,5,0,1,1,224.0,88.0A5,5,0,1,1,234.0,88.0" fill="#bfe492" stroke="white" stroke-width="1.5" opacity="1"/>
<path  d="M234.0,104.0A5,5,0,1,1,224.0,104.0A5,5,0,1,1,234.0,104.0" fill="#0c69e8" stroke="white" stroke-width="1.5" opacity="1"/>
<path  d="M234.0,120.0A5,5,0,1,1,224.0,120.0A5,5,0,1,1,234.0,120.0" fill="#4d64e1" stroke="white" stroke-width="1.5" opacity="1"/>
<path  d="M234.0,136.0A5,5,0,1,1,224.0,136.0A5,5,0,1,1,234.0,136.0" fill="#ff16fa" stroke="white" stroke-width="1.5" opacity="1"/>
<path  d="M234.0,152.0A5,5,0,1,1,224.0,152.0A5,5,0,1,1,234.0,152.0" fill="#ec706a" stroke="white" stroke-width="1.5" opacity="1"/>
<path  d="M234.0,168.0A5,5,0,1,1,224.0,168.0A5,5,0,1,1,234.0,168.0" fill="#5adec9" stroke="white" stroke-width="1.5" opacity="1"/>
<path  d="M234.0,184.0A5,5,0,1,1,224.0,184.0A5,5,0,1,1,234.0,184.0" fill="#3cd0e8" stroke="white" stroke-width="1.5" opacity="1"/>
<text aria-label="239,283,49,60" text-anchor="start" x="239.0" y="59.0" font-family="Balto" font-size="10px" fill="#000" opacity="1">Electric</text>
<text aria-label="239,277,65,76" text-anchor="start" x="239.0" y="75.0" font-family="Balto" font-size="10px" fill="#000" opacity="1">Georgia</text>
<text aria-label="239,272,81,92" text-anchor="start" x="239.0" y="91.0" font-family="Balto" font-size="10px" fill="#000" opacity="1">Towels</text>
<text aria-label="239,299,97,108" text-anchor="start" x="239.0" y="107.0" font-family="Balto" font-size="10px" fill="#000" opacity="1">deceivingly</text>
<text aria-label="239,283,113,124" text-anchor="start" x="239.0" y="123.0" font-family="Balto" font-size="10px" fill="#000" opacity="1">ironclad</text>
<text aria-label="239,266,129,140" text-anchor="start" x="239.0" y="139.0" font-family="Balto" font-size="10px" fill="#000" opacity="1">moral</text>
<text aria-label="239,261,145,156" text-anchor="start" x="239.0" y="155.0" font-family="Balto" font-size="10px" fill="#000" opacity="1">pink</text>
<text aria-label="239,261,161,172" text-anchor="start" x="239.0" y="171.0" font-family="Balto" font-size="10px" fill="#000" opacity="1">plus</text>
<text aria-label="239,288,177,188" text-anchor="start" x="239.0" y="187.0" font-family="Balto" font-size="10px" fill="#000" opacity="1">similique</text>
<text aria-label="223,343,32,44" text-anchor="start" x="223.0" y="43.0" font-family="Balto" font-size="11px" font-weight="bold" fill="#000" opacity="1">East anterior purple</text>
</svg>