<svg xmlns="http://www.w3.org/2000/svg" xmlns:xlink="http://www.w3.org/1999/xlink" version="1.1" class="marks" width="559" height="270" viewBox="0 0 559 270" style="background-color: rgb(255, 255, 255);">
<text aria-label="5,57,0,26" text-anchor="start" x="5.0" y="25.0" font-family="serif" font-size="25px" font-weight="bold" fill="#000" opacity="1">lime</text>
<path aria-label="at: 63; Hybrid: Latin" role="graphics-symbol" aria-roledescription="arc mark"  d="M178.60462099275486,119.6000080377485A75,75,0,0,0,166.19049238538076,90.63268925060422L131.92381664956753,114.91838327026585A33,33,0,0,1,137.38603323681215,127.66400353660934Z" fill="#5adfda" stroke="black" stroke-width="3"/>
<path aria-label="at: 105; Hybrid: female" role="graphics-symbol" aria-roledescription="arc mark"  d="M30.8367940189287,145.17223695636596A75,75,0,0,0,55.79029008532353,190.59862586771334L83.34772763754235,158.90339538179387A33,33,0,0,1,72.36818936832863,138.91578426080102Z" fill="#beba3b" stroke="black" stroke-width="3"/>
<path aria-label="at: 132; Hybrid: man" role="graphics-symbol" aria-roledescription="arc mark"  d="M49.48952401209973,83.56601289213049A75,75,0,0,0,30.8367940189287,145.17223695636596L72.36818936832863,138.91578426080102A33,33,0,0,1,80.57539056532389,111.80904567253742Z" fill="#ceeaba" stroke="black" stroke-width="3"/>
<path aria-label="at: 143; Hybrid: Steel" role="graphics-symbol" aria-roledescription="arc mark"  d="M156.08328633912413,188.9135489364424A75,75,0,0,0,179.2720522805194,123.57588133030954L137.67970300342856,129.4133877853362A33,33,0,0,1,127.47664598921462,158.16196153203467Z" fill="#48efcc" stroke="black" stroke-width="3"/>
<path aria-label="at: 145; Hybrid: beanie" role="graphics-symbol" aria-roledescription="arc mark"  d="M73.50043109537147,202.06450733548695A75,75,0,0,0,143.62185529294385,198.29115253074022L121.9936163288953,162.2881071135257A33,33,0,0,1,91.14018968196345,163.94838322761427Z" fill="#9ba30e" stroke="black" stroke-width="3"/>
<path aria-label="at: 142; Hybrid: Chair" role="graphics-symbol" aria-roledescription="arc mark"  d="M166.19049238538076,90.63268925060422A75,75,0,0,0,105.0,59.0L105.0,101.0A33,33,0,0,1,131.92381664956753,114.91838327026585Z" fill="#b6ecbc" stroke="black" stroke-width="3"/>
<path aria-label="at: 42; Hybrid: driver" role="graphics-symbol" aria-roledescription="arc mark"  d="M55.79029008532353,190.59862586771334A75,75,0,0,0,73.50043109537147,202.06450733548695L91.14018968196345,163.94838322761427A33,33,0,0,1,83.34772763754235,158.90339538179387Z" fill="#2be2be" stroke="black" stroke-width="3"/>
<path aria-label="at: 8; Hybrid: Palladium" role="graphics-symbol" aria-roledescription="arc mark"  d="M179.2720522805194,123.57588133030954A75,75,0,0,0,178.60462099275486,119.6000080377485L137.38603323681215,127.66400353660934A33,33,0,0,1,137.67970300342856,129.4133877853362Z" fill="#2df77a" stroke="black" stroke-width="3"/>
<path aria-label="at: 31; Hybrid: architect" role="graphics-symbol" aria-roledescription="arc mark"  d="M143.62185529294385,198.29115253074022A75,75,0,0,0,156.08328633912413,188.9135489364424L127.47664598921462,158.16196153203467A33,33,0,0,1,121.9936163288953,162.2881071135257Z" fill="#c3cf80" stroke="black" stroke-width="3"/>
<path aria-label="at: 124; Hybrid: watt" role="graphics-symbol" aria-roledescription="arc mark"  d="M104.99999999999999,59.0A75,75,0,0,0,49.48952401209973,83.56601289213049L80.57539056532389,111.80904567253742A33,33,0,0,1,105.0,101.0Z" fill="#27aa45" stroke="black" stroke-width="3"/>
<path  d="M16.0,258.25A5,5,0,1,1,6.0,258.25A5,5,0,1,1,16.0,258.25" fill="#b6ecbc" stroke="black" stroke-width="1.5" opacity="1"/>
<path  d="M68.0,258.25A5,5,0,1,1,58.0,258.25A5,5,0,1,1,68.0,258.25" fill="#5adfda" stroke="black" stroke-width="1.5" opacity="1"/>
<path  d="M120.0,258.25A5,5,0,1,1,110.0,258.25A5,5,0,1,1,120.0,258.25" fill="#2df77a" stroke="black" stroke-width="1.5" opacity="1"/>
<path  d="M192.0,258.25A5,5,0,1,1,182.0,258.25A5,5,0,1,1,192.0,258.25" fill="#48efcc" stroke="black" stroke-width="1.5" opacity="1"/>
<path  d="M244.0,258.25A5,5,0,1,1,234.0,258.25A5,5,0,1,1,244.0,258.25" fill="#c3cf80" stroke="black" stroke-width="1.5" opacity="1"/>
<path  d="M316.0,258.25A5,5,0,1,1,306.0,258.25A5,5,0,1,1,316.0,258.25" fill="#9ba30e" stroke="black" stroke-width="1.5" opacity="1"/>
<path  d="M373.0,258.25A5,5,0,1,1,363.0,258.25A5,5,0,1,1,373.0,258.25" fill="#2be2be" stroke="black" stroke-width="1.5" opacity="1"/>
<path  d="M430.0,258.25A5,5,0,1,1,420.0,258.25A5,5,0,1,1,430.0,258.25" fill="#beba3b" stroke="black" stroke-width="1.5" opacity="1"/>
<path  d="M487.0,258.25A5,5,0,1,1,477.0,258.25A5,5,0,1,1,487.0,258.25" fill="#ceeaba" stroke="black" stroke-width="1.5" opacity="1"/>
<path  d="M529.0,258.25A5,5,0,1,1,519.0,258.25A5,5,0,1,1,529.0,258.25" fill="#27aa45" stroke="black" stroke-width="1.5" opacity="1"/>
<text aria-label="21,48,251,262" text-anchor="start" x="21.0" y="261.25" font-family="serif" font-size="10px" fill="#000" opacity="1">Chair</text>
<text aria-label="73,100,251,262" text-anchor="start" x="73.0" y="261.25" font-family="serif" font-size="10px" fill="#000" opacity="1">Latin</text>
<text aria-label="125,174,251,262" text-anchor="start" x="125.0" y="261.25" font-family="serif" font-size="10px" fill="#000" opacity="1">Palladium</text>
<text aria-label="197,224,251,262" text-anchor="start" x="197.0" y="261.25" font-family="serif" font-size="10px" fill="#000" opacity="1">Steel</text>
<text aria-label="249,298,251,262" text-anchor="start" x="249.0" y="261.25" font-family="serif" font-size="10px" fill="#000" opacity="1">architect</text>
<text aria-label="321,354,251,262" text-anchor="start" x="321.0" y="261.25" font-family="serif" font-size="10px" fill="#000" opacity="1">beanie</text>
<text aria-label="378,411,251,262" text-anchor="start" x="378.0" y="261.25" font-family="serif" font-size="10px" fill="#000" opacity="1">driver</text>
<text aria-label="435,468,251,262" text-anchor="start" x="435.0" y="261.25" font-family="serif" font-size="10px" fill="#000" opacity="1">female</text>
<text aria-label="492,508,251,262" text-anchor="start" x="492.0" y="261.25" font-family="serif" font-size="10px" fill="#000" opacity="1">man</text>
<text aria-label="534,556,251,262" text-anchor="start" x="534.0" y="261.25" font-family="serif" font-size="10px" fill="#000" opacity="1">watt</text>
</svg>