<svg xmlns="http://www.w3.org/2000/svg" xmlns:xlink="http://www.w3.org/1999/xlink" version="1.1" class="marks" width="550" height="270" viewBox="0 0 550 270" style="background-color: rgb(255, 255, 255);">
<text aria-label="506,545,0,26" text-anchor="end" x="545.0" y="25.0" font-family="avenir" font-size="25px" font-weight="bold" fill="#000" opacity="1">boo</text>
<path aria-label="Bronze ack next: 278; CSS watt Palau: deliver" role="graphics-symbol" aria-roledescription="arc mark"  d="M91.84684794981335,60.16237685878106A75,75,0,0,0,45.89109490146058,87.83575693188655L63.22970706369882,101.37726823186648A53,53,0,0,1,95.70510588453477,81.82141298020528Z" fill="#b3daed" stroke="black" stroke-width="0"/>
<path aria-label="Bronze ack next: 67; CSS watt Palau: impactful" role="graphics-symbol" aria-roledescription="arc mark"  d="M104.99999999999999,59.0A75,75,0,0,0,91.84684794981335,60.16237685878106L95.70510588453477,81.82141298020528A53,53,0,0,1,104.99999999999999,81.0Z" fill="#f4d4f2" stroke="black" stroke-width="0"/>
<path aria-label="Bronze ack next: 405; CSS watt Palau: Bacon" role="graphics-symbol" aria-roledescription="arc mark"  d="M170.63152668589453,97.7025799142871A75,75,0,0,0,105.0,59.0L105.0,81.0A53,53,0,0,1,151.37961219136548,108.34982313942955Z" fill="#a3dbec" stroke="black" stroke-width="0"/>
<path aria-label="Bronze ack next: 386; CSS watt Palau: Program" role="graphics-symbol" aria-roledescription="arc mark"  d="M40.048094716167114,171.50000000000003A75,75,0,0,0,102.63235876763922,208.96261918446305L103.32686686246505,186.97358422368723A53,53,0,0,1,59.10065359942476,160.50000000000003Z" fill="#662da5" stroke="black" stroke-width="0"/>
<path aria-label="Bronze ack next: 349; CSS watt Palau: Kwacha" role="graphics-symbol" aria-roledescription="arc mark"  d="M102.63235876763922,208.96261918446305A75,75,0,0,0,163.12416243707355,181.39811959338357L146.07440812219863,167.49467117932437A53,53,0,0,1,103.32686686246505,186.97358422368723Z" fill="#e9ec88" stroke="black" stroke-width="0"/>
<path aria-label="Bronze ack next: 452; CSS watt Palau: Intersex" role="graphics-symbol" aria-roledescription="arc mark"  d="M163.12416243707355,181.39811959338357A75,75,0,0,0,170.63152668589453,97.7025799142871L151.37961219136548,108.34982313942955A53,53,0,0,1,146.07440812219863,167.49467117932437Z" fill="#cdd09f" stroke="black" stroke-width="0"/>
<path aria-label="Bronze ack next: 131; CSS watt Palau: Rustic" role="graphics-symbol" aria-roledescription="arc mark"  d="M45.89109490146058,87.83575693188655A75,75,0,0,0,33.768961457693266,110.52364704251505L54.66339943010324,117.41004391004398A53,53,0,0,1,63.22970706369882,101.37726823186648Z" fill="#dddb0f" stroke="black" stroke-width="0"/>
<path aria-label="Bronze ack next: 2; CSS watt Palau: Royce" role="graphics-symbol" aria-roledescription="arc mark"  d="M33.768961457693266,110.52364704251505A75,75,0,0,0,33.646408688577324,110.89880940378903L54.57679547326131,117.67515864534424A53,53,0,0,1,54.66339943010324,117.41004391004398Z" fill="#ddfafd" stroke="black" stroke-width="0"/>
<path aria-label="Bronze ack next: 318; CSS watt Palau: Road" role="graphics-symbol" aria-roledescription="arc mark"  d="M33.646408688577324,110.89880940378903A75,75,0,0,0,40.048094716167114,171.50000000000003L59.10065359942476,160.50000000000003A53,53,0,0,1,54.57679547326131,117.67515864534424Z" fill="#fef3d9" stroke="black" stroke-width="0"/>
<path  d="M16.0,258.25A5,5,0,1,1,6.0,258.25A5,5,0,1,1,16.0,258.25" fill="#a3dbec" stroke="black" stroke-width="1.5" opacity="1"/>
<path  d="M73.0,258.25A5,5,0,1,1,63.0,258.25A5,5,0,1,1,73.0,258.25" fill="#cdd09f" stroke="black" stroke-width="1.5" opacity="1"/>
<path  d="M138.0,258.25A5,5,0,1,1,128.0,258.25A5,5,0,1,1,138.0,258.25" fill="#e9ec88" stroke="black" stroke-width="1.5" opacity="1"/>
<path  d="M202.0,258.25A5,5,0,1,1,192.0,258.25A5,5,0,1,1,202.0,258.25" fill="#662da5" stroke="black" stroke-width="1.5" opacity="1"/>
<path  d="M271.0,258.25A5,5,0,1,1,261.0,258.25A5,5,0,1,1,271.0,258.25" fill="#fef3d9" stroke="black" stroke-width="1.5" opacity="1"/>
<path  d="M323.0,258.25A5,5,0,1,1,313.0,258.25A5,5,0,1,1,323.0,258.25" fill="#ddfafd" stroke="black" stroke-width="1.5" opacity="1"/>
<path  d="M379.0,258.25A5,5,0,1,1,369.0,258.25A5,5,0,1,1,379.0,258.25" fill="#dddb0f" stroke="black" stroke-width="1.5" opacity="1"/>
<path  d="M435.0,258.25A5,5,0,1,1,425.0,258.25A5,5,0,1,1,435.0,258.25" fill="#b3daed" stroke="black" stroke-width="1.5" opacity="1"/>
<path  d="M495.0,258.25A5,5,0,1,1,485.0,258.25A5,5,0,1,1,495.0,258.25" fill="#f4d4f2" stroke="black" stroke-width="1.5" opacity="1"/>
<text aria-label="21,48,251,262" text-anchor="start" x="21.0" y="261.25" font-family="avenir" font-size="10px" fill="#000" opacity="1">Bacon</text>
<text aria-label="78,122,251,262" text-anchor="start" x="78.0" y="261.25" font-family="avenir" font-size="10px" fill="#000" opacity="1">Intersex</text>
<text aria-label="143,176,251,262" text-anchor="start" x="143.0" y="261.25" font-family="avenir" font-size="10px" fill="#000" opacity="1">Kwacha</text>
<text aria-label="207,245,251,262" text-anchor="start" x="207.0" y="261.25" font-family="avenir" font-size="10px" fill="#000" opacity="1">Program</text>
<text aria-label="276,298,251,262" text-anchor="start" x="276.0" y="261.25" font-family="avenir" font-size="10px" fill="#000" opacity="1">Road</text>
<text aria-label="328,355,251,262" text-anchor="start" x="328.0" y="261.25" font-family="avenir" font-size="10px" fill="#000" opacity="1">Royce</text>
<text aria-label="384,417,251,262" text-anchor="start" x="384.0" y="261.25" font-family="avenir" font-size="10px" fill="#000" opacity="1">Rustic</text>
<text aria-label="440,478,251,262" text-anchor="start" x="440.0" y="261.25" font-family="avenir" font-size="10px" fill="#000" opacity="1">deliver</text>
<text aria-label="500,549,251,262" text-anchor="start" x="500.0" y="261.25" font-family="avenir" font-size="10px" fill="#000" opacity="1">impactful</text>
</svg>