<svg xmlns="http://www.w3.org/2000/svg" xmlns:xlink="http://www.w3.org/1999/xlink" version="1.1" class="marks" width="579" height="286" viewBox="0 0 579 286" style="background-color: rgb(255, 255, 255);">
<text aria-label="483,574,0,26" text-anchor="end" x="574.0" y="25.0" font-family="monospace" font-size="25px" font-weight="bold" fill="#000" opacity="1">relapse</text>
<path aria-label="Electric Electric: 292; reinvent instead: Gloves" role="graphics-symbol" aria-roledescription="arc mark"  d="M179.31841409857765,144.0882766552238A75,75,0,0,0,163.2430293746232,86.74802089576798L105.0,134.0Z" fill="#e89db1" stroke="black" stroke-width="0"/>
<path aria-label="Electric Electric: 121; reinvent instead: Jazz" role="graphics-symbol" aria-roledescription="arc mark"  d="M171.7563244298865,168.18469172907288A75,75,0,0,0,179.31841409857765,144.0882766552238L105.0,134.0Z" fill="#e48984" stroke="black" stroke-width="0"/>
<path aria-label="Electric Electric: 664; reinvent instead: solid" role="graphics-symbol" aria-roledescription="arc mark"  d="M94.9636791174832,59.67455171246421A75,75,0,0,0,36.52253011498151,164.59143864133208L105.0,134.0Z" fill="#e6aabb" stroke="black" stroke-width="0"/>
<path aria-label="Electric Electric: 191; reinvent instead: B2C" role="graphics-symbol" aria-roledescription="arc mark"  d="M143.1790087479164,69.44488175964261A75,75,0,0,0,105.0,59.0L105.0,134.0Z" fill="#af1a5c" stroke="black" stroke-width="0"/>
<path aria-label="Electric Electric: 243; reinvent instead: Web" role="graphics-symbol" aria-roledescription="arc mark"  d="M135.44776111478933,202.54147534957735A75,75,0,0,0,171.7563244298865,168.18469172907288L105.0,134.0Z" fill="#ebde05" stroke="black" stroke-width="0"/>
<path aria-label="Electric Electric: 284; reinvent instead: olive" role="graphics-symbol" aria-roledescription="arc mark"  d="M63.185219650588294,196.26173900824207A75,75,0,0,0,120.10070231666018,207.4640646135484L105.0,134.0Z" fill="#ab7142" stroke="black" stroke-width="0"/>
<path aria-label="Electric Electric: 48; reinvent instead: soulful" role="graphics-symbol" aria-roledescription="arc mark"  d="M104.99999999999999,59.0A75,75,0,0,0,94.9636791174832,59.67455171246421L105.0,134.0Z" fill="#4af6d7" stroke="black" stroke-width="0"/>
<path aria-label="Electric Electric: 200; reinvent instead: quantifying" role="graphics-symbol" aria-roledescription="arc mark"  d="M36.52253011498151,164.59143864133208A75,75,0,0,0,63.185219650588294,196.26173900824207L105.0,134.0Z" fill="#ac7d8a" stroke="black" stroke-width="0"/>
<path aria-label="Electric Electric: 127; reinvent instead: Gainesville" role="graphics-symbol" aria-roledescription="arc mark"  d="M163.2430293746232,86.74802089576798A75,75,0,0,0,143.1790087479164,69.44488175964261L105.0,134.0Z" fill="#afe1fe" stroke="black" stroke-width="0"/>
<path aria-label="Electric Electric: 77; reinvent instead: monitor" role="graphics-symbol" aria-roledescription="arc mark"  d="M120.10070231666018,207.4640646135484A75,75,0,0,0,135.44776111478933,202.54147534957735L105.0,134.0Z" fill="#f13791" stroke="black" stroke-width="0"/>
<path  d="M16.0,274.25A5,5,0,1,1,6.0,274.25A5,5,0,1,1,16.0,274.25" fill="#af1a5c" stroke="black" stroke-width="1.5" opacity="1"/>
<path  d="M58.0,274.25A5,5,0,1,1,48.0,274.25A5,5,0,1,1,58.0,274.25" fill="#afe1fe" stroke="black" stroke-width="1.5" opacity="1"/>
<path  d="M140.0,274.25A5,5,0,1,1,130.0,274.25A5,5,0,1,1,140.0,274.25" fill="#e89db1" stroke="black" stroke-width="1.5" opacity="1"/>
<path  d="M197.0,274.25A5,5,0,1,1,187.0,274.25A5,5,0,1,1,197.0,274.25" fill="#e48984" stroke="black" stroke-width="1.5" opacity="1"/>
<path  d="M244.0,274.25A5,5,0,1,1,234.0,274.25A5,5,0,1,1,244.0,274.25" fill="#ebde05" stroke="black" stroke-width="1.5" opacity="1"/>
<path  d="M286.0,274.25A5,5,0,1,1,276.0,274.25A5,5,0,1,1,286.0,274.25" fill="#f13791" stroke="black" stroke-width="1.5" opacity="1"/>
<path  d="M348.0,274.25A5,5,0,1,1,338.0,274.25A5,5,0,1,1,348.0,274.25" fill="#ab7142" stroke="black" stroke-width="1.5" opacity="1"/>
<path  d="M400.0,274.25A5,5,0,1,1,390.0,274.25A5,5,0,1,1,400.0,274.25" fill="#ac7d8a" stroke="black" stroke-width="1.5" opacity="1"/>
<path  d="M482.0,274.25A5,5,0,1,1,472.0,274.25A5,5,0,1,1,482.0,274.25" fill="#e6aabb" stroke="black" stroke-width="1.5" opacity="1"/>
<path  d="M534.0,274.25A5,5,0,1,1,524.0,274.25A5,5,0,1,1,534.0,274.25" fill="#4af6d7" stroke="black" stroke-width="1.5" opacity="1"/>
<text aria-label="21,37,267,278" text-anchor="start" x="21.0" y="277.25" font-family="monospace" font-size="10px" fill="#000" opacity="1">B2C</text>
<text aria-label="63,123,267,278" text-anchor="start" x="63.0" y="277.25" font-family="monospace" font-size="10px" fill="#000" opacity="1">Gainesville</text>
<text aria-label="145,178,267,278" text-anchor="start" x="145.0" y="277.25" font-family="monospace" font-size="10px" fill="#000" opacity="1">Gloves</text>
<text aria-label="202,224,267,278" text-anchor="start" x="202.0" y="277.25" font-family="monospace" font-size="10px" fill="#000" opacity="1">Jazz</text>
<text aria-label="249,265,267,278" text-anchor="start" x="249.0" y="277.25" font-family="monospace" font-size="10px" fill="#000" opacity="1">Web</text>
<text aria-label="291,329,267,278" text-anchor="start" x="291.0" y="277.25" font-family="monospace" font-size="10px" fill="#000" opacity="1">monitor</text>
<text aria-label="353,380,267,278" text-anchor="start" x="353.0" y="277.25" font-family="monospace" font-size="10px" fill="#000" opacity="1">olive</text>
<text aria-label="405,465,267,278" text-anchor="start" x="405.0" y="277.25" font-family="monospace" font-size="10px" fill="#000" opacity="1">quantifying</text>
<text aria-label="487,514,267,278" text-anchor="start" x="487.0" y="277.25" font-family="monospace" font-size="10px" fill="#000" opacity="1">solid</text>
<text aria-label="539,577,267,278" text-anchor="start" x="539.0" y="277.25" font-family="monospace" font-size="10px" fill="#000" opacity="1">soulful</text>
<text aria-label="5,101,250,262" text-anchor="start" x="5.0" y="261.0" font-family="monospace" font-size="11px" font-weight="bold" fill="#000" opacity="1">reinvent instead</text>
</svg>