<svg xmlns="http://www.w3.org/2000/svg" xmlns:xlink="http://www.w3.org/1999/xlink" version="1.1" class="marks" width="451" height="270" viewBox="0 0 451 270" style="background-color: rgb(255, 255, 255);">
<text aria-label="69,446,0,26" text-anchor="end" x="446.0" y="25.0" font-family="Balto" font-size="25px" font-weight="bold" fill="#000" opacity="1">generating Computer Classical</text>
<path aria-label="Trigender: 123; when Oriental Toyota: Executive" role="graphics-symbol" aria-roledescription="arc mark"  d="M92.08501014154481,238.87965238789366A75,75,0,0,0,129.14711826631566,236.0064551955142L105.0,165.0Z" fill="#ffd2db" stroke="black" stroke-width="0"/>
<path aria-label="Trigender: 82; when Oriental Toyota: Lead" role="graphics-symbol" aria-roledescription="arc mark"  d="M68.58512637273972,230.5664317979152A75,75,0,0,0,92.08501014154481,238.87965238789366L105.0,165.0Z" fill="#ace61b" stroke="black" stroke-width="0"/>
<path aria-label="Trigender: 172; when Oriental Toyota: politely" role="graphics-symbol" aria-roledescription="arc mark"  d="M50.871858408179335,113.0852209114224A75,75,0,0,0,30.154195393159966,160.19317851852995L105.0,165.0Z" fill="#6d5abb" stroke="black" stroke-width="0"/>
<path aria-label="Trigender: 198; when Oriental Toyota: roughly" role="graphics-symbol" aria-roledescription="arc mark"  d="M104.99999999999999,90.0A75,75,0,0,0,50.871858408179335,113.0852209114224L105.0,165.0Z" fill="#38dc0d" stroke="black" stroke-width="0"/>
<path aria-label="Trigender: 343; when Oriental Toyota: Account" role="graphics-symbol" aria-roledescription="arc mark"  d="M178.86646646089883,152.00980629163263A75,75,0,0,0,105.0,90.0L105.0,165.0Z" fill="#edbb8f" stroke="black" stroke-width="0"/>
<path aria-label="Trigender: 277; when Oriental Toyota: Northeast" role="graphics-symbol" aria-roledescription="arc mark"  d="M30.154195393159966,160.19317851852995A75,75,0,0,0,68.58512637273972,230.5664317979152L105.0,165.0Z" fill="#bca9ee" stroke="black" stroke-width="0"/>
<path aria-label="Trigender: 348; when Oriental Toyota: Cotton" role="graphics-symbol" aria-roledescription="arc mark"  d="M129.14711826631566,236.0064551955142A75,75,0,0,0,178.86646646089883,152.00980629163263L105.0,165.0Z" fill="#a22f96" stroke="black" stroke-width="0"/>
<text aria-label="104,119,248,258" role="graphics-symbol" aria-roledescription="text mark" text-anchor="middle" x="111.95627410642413" y="257.73076535144617" font-family="Balto" font-size="9px" fill="#ffd2db" opacity="1">123</text>
<text aria-label="69,79,243,253" role="graphics-symbol" aria-roledescription="text mark" text-anchor="middle" x="74.98473347586418" y="252.8474146658877" font-family="Balto" font-size="9px" fill="#ace61b" opacity="1">82</text>
<text aria-label="15,30,122,132" role="graphics-symbol" aria-roledescription="text mark" text-anchor="middle" x="22.61530573906036" y="131.76794028030565" font-family="Balto" font-size="9px" fill="#6d5abb" opacity="1">172</text>
<text aria-label="62,77,76,86" role="graphics-symbol" aria-roledescription="text mark" text-anchor="middle" x="69.69274962253769" y="85.21474726267252" font-family="Balto" font-size="9px" fill="#38dc0d" opacity="1">198</text>
<text aria-label="155,170,90,100" role="graphics-symbol" aria-roledescription="text mark" text-anchor="middle" x="162.86648027786174" y="99.06908922513908" font-family="Balto" font-size="9px" fill="#edbb8f" opacity="1">343</text>
<text aria-label="18,33,202,212" role="graphics-symbol" aria-roledescription="text mark" text-anchor="middle" x="26.01088690607328" y="211.1360639446259" font-family="Balto" font-size="9px" fill="#bca9ee" opacity="1">277</text>
<text aria-label="174,189,204,214" role="graphics-symbol" aria-roledescription="text mark" text-anchor="middle" x="182.44905380014586" y="213.843691664853" font-family="Balto" font-size="9px" fill="#a22f96" opacity="1">348</text>
<path  d="M16.0,40.25A5,5,0,1,1,6.0,40.25A5,5,0,1,1,16.0,40.25" fill="#edbb8f" stroke="black" stroke-width="1.5" opacity="1"/>
<path  d="M83.0,40.25A5,5,0,1,1,73.0,40.25A5,5,0,1,1,83.0,40.25" fill="#a22f96" stroke="black" stroke-width="1.5" opacity="1"/>
<path  d="M143.0,40.25A5,5,0,1,1,133.0,40.25A5,5,0,1,1,143.0,40.25" fill="#ffd2db" stroke="black" stroke-width="1.5" opacity="1"/>
<path  d="M215.0,40.25A5,5,0,1,1,205.0,40.25A5,5,0,1,1,215.0,40.25" fill="#ace61b" stroke="black" stroke-width="1.5" opacity="1"/>
<path  d="M265.0,40.25A5,5,0,1,1,255.0,40.25A5,5,0,1,1,265.0,40.25" fill="#bca9ee" stroke="black" stroke-width="1.5" opacity="1"/>
<path  d="M341.0,40.25A5,5,0,1,1,331.0,40.25A5,5,0,1,1,341.0,40.25" fill="#6d5abb" stroke="black" stroke-width="1.5" opacity="1"/>
<path  d="M404.0,40.25A5,5,0,1,1,394.0,40.25A5,5,0,1,1,404.0,40.25" fill="#38dc0d" stroke="black" stroke-width="1.5" opacity="1"/>
<text aria-label="21,59,33,44" text-anchor="start" x="21.0" y="43.25" font-family="Balto" font-size="10px" fill="#000" opacity="1">Account</text>
<text aria-label="88,121,33,44" text-anchor="start" x="88.0" y="43.25" font-family="Balto" font-size="10px" fill="#000" opacity="1">Cotton</text>
<text aria-label="148,197,33,44" text-anchor="start" x="148.0" y="43.25" font-family="Balto" font-size="10px" fill="#000" opacity="1">Executive</text>
<text aria-label="220,242,33,44" text-anchor="start" x="220.0" y="43.25" font-family="Balto" font-size="10px" fill="#000" opacity="1">Lead</text>
<text aria-label="270,319,33,44" text-anchor="start" x="270.0" y="43.25" font-family="Balto" font-size="10px" fill="#000" opacity="1">Northeast</text>
<text aria-label="346,390,33,44" text-anchor="start" x="346.0" y="43.25" font-family="Balto" font-size="10px" fill="#000" opacity="1">politely</text>
<text aria-label="409,447,33,44" text-anchor="start" x="409.0" y="43.25" font-family="Balto" font-size="10px" fill="#000" opacity="1">roughly</text>
</svg>