<svg xmlns="http://www.w3.org/2000/svg" xmlns:xlink="http://www.w3.org/1999/xlink" version="1.1" class="marks" width="618" height="286" viewBox="0 0 618 286" style="background-color: rgb(255, 255, 255);">
<text aria-label="483,613,0,26" text-anchor="end" x="613.0" y="25.0" font-family="sans-serif" font-size="25px" font-weight="bold" fill="#000" opacity="1">Supervisor</text>
<path aria-label="UDP Northeast: 338; Avon ha: Avon" role="graphics-symbol" aria-roledescription="arc mark"  d="M140.6756860635513,68.02844989016151A75,75,0,0,0,105.0,59.0L105.0,98.0A36,36,0,0,1,122.12432931050462,102.33365594727752Z" fill="#7f92e1" stroke="white" stroke-width="1"/>
<path aria-label="UDP Northeast: 664; Avon ha: Forward" role="graphics-symbol" aria-roledescription="arc mark"  d="M179.61627545339167,126.42296644698067A75,75,0,0,0,140.6756860635513,68.02844989016151L122.12432931050462,102.33365594727752A36,36,0,0,1,140.815812217628,130.3630238945507Z" fill="#3c2c0b" stroke="white" stroke-width="1"/>
<path aria-label="UDP Northeast: 579; Avon ha: policy" role="graphics-symbol" aria-roledescription="arc mark"  d="M68.55272303544896,68.4515751381522A75,75,0,0,0,31.712922391058456,118.06248904185541L69.82220274770806,126.3499947400906A36,36,0,0,1,87.5053070570155,102.53675606631305Z" fill="#b8371e" stroke="white" stroke-width="1"/>
<path aria-label="UDP Northeast: 748; Avon ha: if" role="graphics-symbol" aria-roledescription="arc mark"  d="M31.712922391058456,118.06248904185541A75,75,0,0,0,57.38331244425577,191.9452419635869L82.14398997324277,161.8137161425217A36,36,0,0,1,69.82220274770806,126.3499947400906Z" fill="#ba13d9" stroke="white" stroke-width="1"/>
<path aria-label="UDP Northeast: 346; Avon ha: tesla" role="graphics-symbol" aria-roledescription="arc mark"  d="M104.99999999999999,59.0A75,75,0,0,0,68.55272303544896,68.4515751381522L87.5053070570155,102.53675606631305A36,36,0,0,1,105.0,98.0Z" fill="#5b78d7" stroke="white" stroke-width="1"/>
<path aria-label="UDP Northeast: 417; Avon ha: circuit" role="graphics-symbol" aria-roledescription="arc mark"  d="M92.40992270764782,207.93571500819206A75,75,0,0,0,137.14429733789953,201.7624095546543L120.42926272219178,166.52595658623406A36,36,0,0,1,98.95676289967095,169.4891432039322Z" fill="#f872ee" stroke="white" stroke-width="1"/>
<path aria-label="UDP Northeast: 60; Avon ha: coherent" role="graphics-symbol" aria-roledescription="arc mark"  d="M85.96070631217442,206.5431271442631A75,75,0,0,0,92.40992270764782,207.93571500819206L98.95676289967095,169.4891432039322A36,36,0,0,1,95.86113902984373,168.8207010292463Z" fill="#fe5169" stroke="white" stroke-width="1"/>
<path aria-label="UDP Northeast: 197; Avon ha: cyan" role="graphics-symbol" aria-roledescription="arc mark"  d="M66.08025128116071,198.11125610735144A75,75,0,0,0,85.96070631217442,206.5431271442631L95.86113902984373,168.8207010292463A36,36,0,0,1,86.31852061495715,164.7734029315287Z" fill="#7d14da" stroke="white" stroke-width="1"/>
<path aria-label="UDP Northeast: 579; Avon ha: blue" role="graphics-symbol" aria-roledescription="arc mark"  d="M137.14429733789953,201.7624095546543A75,75,0,0,0,177.1067428033477,154.6305027154422L139.61123654560689,143.90264130341225A36,36,0,0,1,120.42926272219178,166.52595658623406Z" fill="#eb40d8" stroke="white" stroke-width="1"/>
<path aria-label="UDP Northeast: 97; Avon ha: dull" role="graphics-symbol" aria-roledescription="arc mark"  d="M57.38331244425577,191.9452419635869A75,75,0,0,0,66.08025128116071,198.11125610735144L86.31852061495715,164.7734029315287A36,36,0,0,1,82.14398997324277,161.8137161425217Z" fill="#ecadb2" stroke="white" stroke-width="1"/>
<path aria-label="UDP Northeast: 259; Avon ha: Infrastructure" role="graphics-symbol" aria-roledescription="arc mark"  d="M177.1067428033477,154.6305027154422A75,75,0,0,0,179.61627545339167,126.42296644698067L140.815812217628,130.3630238945507A36,36,0,0,1,139.61123654560689,143.90264130341225Z" fill="#7cb4ca" stroke="white" stroke-width="1"/>
<text aria-label="121,133,41,49" role="graphics-symbol" aria-roledescription="text mark" text-anchor="middle" x="127.0802240493325" y="48.750566156958484" font-family="sans-serif" font-size="7px" fill="#7f92e1" opacity="1">338</text>
<text aria-label="173,185,79,87" role="graphics-symbol" aria-roledescription="text mark" text-anchor="middle" x="179.87806809805795" y="86.06729610863641" font-family="sans-serif" font-size="7px" fill="#3c2c0b" opacity="1">664</text>
<text aria-label="26,38,75,83" role="graphics-symbol" aria-roledescription="text mark" text-anchor="middle" x="32.74327929716301" y="82.34400021179171" font-family="sans-serif" font-size="7px" fill="#b8371e" opacity="1">579</text>
<text aria-label="13,25,158,166" role="graphics-symbol" aria-roledescription="text mark" text-anchor="middle" x="19.98531080039875" y="165.5381553299322" font-family="sans-serif" font-size="7px" fill="#ba13d9" opacity="1">748</text>
<text aria-label="76,88,41,49" role="graphics-symbol" aria-roledescription="text mark" text-anchor="middle" x="82.40829671184089" y="48.88160387989353" font-family="sans-serif" font-size="7px" fill="#5b78d7" opacity="1">346</text>
<text aria-label="111,123,218,226" role="graphics-symbol" aria-roledescription="text mark" text-anchor="middle" x="117.30332474790657" y="225.15507949717477" font-family="sans-serif" font-size="7px" fill="#f872ee" opacity="1">417</text>
<text aria-label="82,90,216,224" role="graphics-symbol" aria-roledescription="text mark" text-anchor="middle" x="86.0039923288663" y="223.97244848563798" font-family="sans-serif" font-size="7px" fill="#fe5169" opacity="1">60</text>
<text aria-label="63,75,211,219" role="graphics-symbol" aria-roledescription="text mark" text-anchor="middle" x="69.8585012198249" y="218.8557485240641" font-family="sans-serif" font-size="7px" fill="#7d14da" opacity="1">197</text>
<text aria-label="167,179,187,195" role="graphics-symbol" aria-roledescription="text mark" text-anchor="middle" x="173.64612563444172" y="194.20403281028248" font-family="sans-serif" font-size="7px" fill="#eb40d8" opacity="1">579</text>
<text aria-label="48,56,202,210" role="graphics-symbol" aria-roledescription="text mark" text-anchor="middle" x="52.94650028989967" y="209.41956937990432" font-family="sans-serif" font-size="7px" fill="#ecadb2" opacity="1">97</text>
<text aria-label="188,200,136,144" role="graphics-symbol" aria-roledescription="text mark" text-anchor="middle" x="194.6459218700631" y="143.9755057561603" font-family="sans-serif" font-size="7px" fill="#7cb4ca" opacity="1">259</text>
<path  d="M16.0,274.25A5,5,0,1,1,6.0,274.25A5,5,0,1,1,16.0,274.25" fill="#7f92e1" stroke="white" stroke-width="1.5" opacity="1"/>
<path  d="M68.0,274.25A5,5,0,1,1,58.0,274.25A5,5,0,1,1,68.0,274.25" fill="#3c2c0b" stroke="white" stroke-width="1.5" opacity="1"/>
<path  d="M135.0,274.25A5,5,0,1,1,125.0,274.25A5,5,0,1,1,135.0,274.25" fill="#7cb4ca" stroke="white" stroke-width="1.5" opacity="1"/>
<path  d="M227.0,274.25A5,5,0,1,1,217.0,274.25A5,5,0,1,1,227.0,274.25" fill="#eb40d8" stroke="white" stroke-width="1.5" opacity="1"/>
<path  d="M275.0,274.25A5,5,0,1,1,265.0,274.25A5,5,0,1,1,275.0,274.25" fill="#f872ee" stroke="white" stroke-width="1.5" opacity="1"/>
<path  d="M331.0,274.25A5,5,0,1,1,321.0,274.25A5,5,0,1,1,331.0,274.25" fill="#fe5169" stroke="white" stroke-width="1.5" opacity="1"/>
<path  d="M401.0,274.25A5,5,0,1,1,391.0,274.25A5,5,0,1,1,401.0,274.25" fill="#7d14da" stroke="white" stroke-width="1.5" opacity="1"/>
<path  d="M450.0,274.25A5,5,0,1,1,440.0,274.25A5,5,0,1,1,450.0,274.25" fill="#ecadb2" stroke="white" stroke-width="1.5" opacity="1"/>
<path  d="M495.0,274.25A5,5,0,1,1,485.0,274.25A5,5,0,1,1,495.0,274.25" fill="#ba13d9" stroke="white" stroke-width="1.5" opacity="1"/>
<path  d="M529.0,274.25A5,5,0,1,1,519.0,274.25A5,5,0,1,1,529.0,274.25" fill="#b8371e" stroke="white" stroke-width="1.5" opacity="1"/>
<path  d="M585.0,274.25A5,5,0,1,1,575.0,274.25A5,5,0,1,1,585.0,274.25" fill="#5b78d7" stroke="white" stroke-width="1.5" opacity="1"/>
<text aria-label="21,43,267,278" text-anchor="start" x="21.0" y="277.25" font-family="sans-serif" font-size="10px" fill="#000" opacity="1">Avon</text>
<text aria-label="73,111,267,278" text-anchor="start" x="73.0" y="277.25" font-family="sans-serif" font-size="10px" fill="#000" opacity="1">Forward</text>
<text aria-label="140,217,267,278" text-anchor="start" x="140.0" y="277.25" font-family="sans-serif" font-size="10px" fill="#000" opacity="1">Infrastructure</text>
<text aria-label="232,254,267,278" text-anchor="start" x="232.0" y="277.25" font-family="sans-serif" font-size="10px" fill="#000" opacity="1">blue</text>
<text aria-label="280,318,267,278" text-anchor="start" x="280.0" y="277.25" font-family="sans-serif" font-size="10px" fill="#000" opacity="1">circuit</text>
<text aria-label="336,380,267,278" text-anchor="start" x="336.0" y="277.25" font-family="sans-serif" font-size="10px" fill="#000" opacity="1">coherent</text>
<text aria-label="406,428,267,278" text-anchor="start" x="406.0" y="277.25" font-family="sans-serif" font-size="10px" fill="#000" opacity="1">cyan</text>
<text aria-label="455,477,267,278" text-anchor="start" x="455.0" y="277.25" font-family="sans-serif" font-size="10px" fill="#000" opacity="1">dull</text>
<text aria-label="500,511,267,278" text-anchor="start" x="500.0" y="277.25" font-family="sans-serif" font-size="10px" fill="#000" opacity="1">if</text>
<text aria-label="534,567,267,278" text-anchor="start" x="534.0" y="277.25" font-family="sans-serif" font-size="10px" fill="#000" opacity="1">policy</text>
<text aria-label="590,617,267,278" text-anchor="start" x="590.0" y="277.25" font-family="sans-serif" font-size="10px" fill="#000" opacity="1">tesla</text>
<text aria-label="5,47,250,262" text-anchor="start" x="5.0" y="261.0" font-family="sans-serif" font-size="11px" font-weight="bold" fill="#000" opacity="1">Avon ha</text>
</svg>