<svg xmlns="http://www.w3.org/2000/svg" xmlns:xlink="http://www.w3.org/1999/xlink" version="1.1" class="marks" width="525" height="286" viewBox="0 0 525 286" style="background-color: rgb(255, 255, 255);">
<text aria-label="85,124,0,26" text-anchor="middle" x="105.0" y="25.0" font-family="avenir" font-size="25px" font-weight="bold" fill="#000" opacity="1">man</text>
<path aria-label="Mayotte: 392; setback integrate: Rap" role="graphics-symbol" aria-roledescription="arc mark"  d="M119.61259270384413,254.56270885762405A75,75,0,0,0,176.98729943040868,202.04349592431544L150.11204097638944,194.18725744590435A47,47,0,0,1,114.15722476107565,227.09929755077775Z" fill="#dbaedd" stroke="black" stroke-width="3"/>
<path aria-label="Mayotte: 262; setback integrate: Orchestrator" role="graphics-symbol" aria-roledescription="arc mark"  d="M176.98729943040868,202.04349592431544A75,75,0,0,0,172.71745256787128,148.7611008606357L147.436270275866,160.79695653933172A47,47,0,0,1,150.11204097638944,194.18725744590435Z" fill="#44d4bf" stroke="black" stroke-width="3"/>
<path aria-label="Mayotte: 310; setback integrate: Southwest" role="graphics-symbol" aria-roledescription="arc mark"  d="M58.65298430415245,239.96570304922056A75,75,0,0,0,119.61259270384413,254.56270885762405L114.15722476107565,227.09929755077775A47,47,0,0,1,75.95587016393553,217.95184057751158Z" fill="#e6eacc" stroke="black" stroke-width="3"/>
<path aria-label="Mayotte: 192; setback integrate: brand" role="graphics-symbol" aria-roledescription="arc mark"  d="M31.03331938767566,168.593140639372A75,75,0,0,0,35.0170388649948,207.9700788055273L61.14401102206341,197.9012493847971A47,47,0,0,1,58.64754681627675,173.22503480067311Z" fill="#eef65c" stroke="black" stroke-width="3"/>
<path aria-label="Mayotte: 33; setback integrate: Liaison" role="graphics-symbol" aria-roledescription="arc mark"  d="M172.71745256787128,148.7611008606357A75,75,0,0,0,169.47746853822457,142.69000064079535L145.40588028395408,156.9924004015651A47,47,0,0,1,147.436270275866,160.79695653933172Z" fill="#bd5f09" stroke="black" stroke-width="3"/>
<path aria-label="Mayotte: 193; setback integrate: West" role="graphics-symbol" aria-roledescription="arc mark"  d="M35.0170388649948,207.9700788055273A75,75,0,0,0,58.65298430415245,239.96570304922056L75.95587016393553,217.95184057751158A47,47,0,0,1,61.14401102206341,197.9012493847971Z" fill="#fe4efb" stroke="black" stroke-width="3"/>
<path aria-label="Mayotte: 372; setback integrate: Jaguar" role="graphics-symbol" aria-roledescription="arc mark"  d="M169.47746853822457,142.69000064079535A75,75,0,0,0,105.0,106.0L105.0,134.0A47,47,0,0,1,145.40588028395408,156.9924004015651Z" fill="#ebcc46" stroke="black" stroke-width="3"/>
<path aria-label="Mayotte: 174; setback integrate: local" role="graphics-symbol" aria-roledescription="arc mark"  d="M45.300638990216214,135.60191309070933A75,75,0,0,0,31.03331938767566,168.593140639372L58.64754681627675,173.22503480067311A47,47,0,0,1,67.58840043386883,152.55053220351118Z" fill="#0edefd" stroke="black" stroke-width="3"/>
<path aria-label="Mayotte: 331; setback integrate: to" role="graphics-symbol" aria-roledescription="arc mark"  d="M104.99999999999999,106.0A75,75,0,0,0,45.300638990216214,135.60191309070933L67.58840043386883,152.55053220351118A47,47,0,0,1,104.99999999999999,134.0Z" fill="#3f85c1" stroke="black" stroke-width="3"/>
<text aria-label="156,174,239,251" role="graphics-symbol" aria-roledescription="text mark" text-anchor="middle" x="165.76850546234814" y="250.38666088810737" font-family="avenir" font-size="11px" fill="#dbaedd" opacity="1">392</text>
<text aria-label="185,203,165,177" role="graphics-symbol" aria-roledescription="text mark" text-anchor="middle" x="194.71240319857822" y="176.8107919535086" font-family="avenir" font-size="11px" fill="#44d4bf" opacity="1">262</text>
<text aria-label="75,93,260,272" role="graphics-symbol" aria-roledescription="text mark" text-anchor="middle" x="84.04164545499465" y="271.525695511466" font-family="avenir" font-size="11px" fill="#e6eacc" opacity="1">310</text>
<text aria-label="6,24,182,194" role="graphics-symbol" aria-roledescription="text mark" text-anchor="middle" x="15.457075418159008" y="193.0589545385069" font-family="avenir" font-size="11px" fill="#eef65c" opacity="1">192</text>
<text aria-label="178,190,130,142" role="graphics-symbol" aria-roledescription="text mark" text-anchor="middle" x="184.400553856289" y="141.62604517731972" font-family="avenir" font-size="11px" fill="#bd5f09" opacity="1">33</text>
<text aria-label="23,41,226,238" role="graphics-symbol" aria-roledescription="text mark" text-anchor="middle" x="32.61009702399289" y="237.47618111948793" font-family="avenir" font-size="11px" fill="#fe4efb" opacity="1">193</text>
<text aria-label="140,158,94,106" role="graphics-symbol" aria-roledescription="text mark" text-anchor="middle" x="149.51134725665975" y="105.77762490567645" font-family="avenir" font-size="11px" fill="#ebcc46" opacity="1">372</text>
<text aria-label="13,31,137,149" role="graphics-symbol" aria-roledescription="text mark" text-anchor="middle" x="22.393635595599036" y="148.27621856679622" font-family="avenir" font-size="11px" fill="#0edefd" opacity="1">174</text>
<text aria-label="56,74,92,104" role="graphics-symbol" aria-roledescription="text mark" text-anchor="middle" x="65.01871304099501" y="103.36814095469647" font-family="avenir" font-size="11px" fill="#3f85c1" opacity="1">331</text>
<path  d="M16.0,56.25A5,5,0,1,1,6.0,56.25A5,5,0,1,1,16.0,56.25" fill="#ebcc46" stroke="black" stroke-width="1.5" opacity="1"/>
<path  d="M75.0,56.25A5,5,0,1,1,65.0,56.25A5,5,0,1,1,75.0,56.25" fill="#bd5f09" stroke="black" stroke-width="1.5" opacity="1"/>
<path  d="M136.0,56.25A5,5,0,1,1,126.0,56.25A5,5,0,1,1,136.0,56.25" fill="#44d4bf" stroke="black" stroke-width="1.5" opacity="1"/>
<path  d="M224.0,56.25A5,5,0,1,1,214.0,56.25A5,5,0,1,1,224.0,56.25" fill="#dbaedd" stroke="black" stroke-width="1.5" opacity="1"/>
<path  d="M270.0,56.25A5,5,0,1,1,260.0,56.25A5,5,0,1,1,270.0,56.25" fill="#e6eacc" stroke="black" stroke-width="1.5" opacity="1"/>
<path  d="M348.0,56.25A5,5,0,1,1,338.0,56.25A5,5,0,1,1,348.0,56.25" fill="#fe4efb" stroke="black" stroke-width="1.5" opacity="1"/>
<path  d="M399.0,56.25A5,5,0,1,1,389.0,56.25A5,5,0,1,1,399.0,56.25" fill="#eef65c" stroke="black" stroke-width="1.5" opacity="1"/>
<path  d="M455.0,56.25A5,5,0,1,1,445.0,56.25A5,5,0,1,1,455.0,56.25" fill="#0edefd" stroke="black" stroke-width="1.5" opacity="1"/>
<path  d="M505.0,56.25A5,5,0,1,1,495.0,56.25A5,5,0,1,1,505.0,56.25" fill="#3f85c1" stroke="black" stroke-width="1.5" opacity="1"/>
<text aria-label="21,54,49,60" text-anchor="start" x="21.0" y="59.25" font-family="avenir" font-size="10px" fill="#000" opacity="1">Jaguar</text>
<text aria-label="80,118,49,60" text-anchor="start" x="80.0" y="59.25" font-family="avenir" font-size="10px" fill="#000" opacity="1">Liaison</text>
<text aria-label="141,207,49,60" text-anchor="start" x="141.0" y="59.25" font-family="avenir" font-size="10px" fill="#000" opacity="1">Orchestrator</text>
<text aria-label="229,245,49,60" text-anchor="start" x="229.0" y="59.25" font-family="avenir" font-size="10px" fill="#000" opacity="1">Rap</text>
<text aria-label="275,324,49,60" text-anchor="start" x="275.0" y="59.25" font-family="avenir" font-size="10px" fill="#000" opacity="1">Southwest</text>
<text aria-label="353,375,49,60" text-anchor="start" x="353.0" y="59.25" font-family="avenir" font-size="10px" fill="#000" opacity="1">West</text>
<text aria-label="404,431,49,60" text-anchor="start" x="404.0" y="59.25" font-family="avenir" font-size="10px" fill="#000" opacity="1">brand</text>
<text aria-label="460,487,49,60" text-anchor="start" x="460.0" y="59.25" font-family="avenir" font-size="10px" fill="#000" opacity="1">local</text>
<text aria-label="510,521,49,60" text-anchor="start" x="510.0" y="59.25" font-family="avenir" font-size="10px" fill="#000" opacity="1">to</text>
<text aria-label="5,107,32,44" text-anchor="start" x="5.0" y="43.0" font-family="avenir" font-size="11px" font-weight="bold" fill="#000" opacity="1">setback integrate</text>
</svg>