<svg xmlns="http://www.w3.org/2000/svg" xmlns:xlink="http://www.w3.org/1999/xlink" version="1.1" class="marks" width="299" height="239" viewBox="0 0 299 239" style="background-color: rgb(255, 255, 255);">
<text aria-label="151,294,0,26" text-anchor="end" x="294.0" y="25.0" font-family="monospace" font-size="25px" font-weight="bold" fill="#000" opacity="1">ampere Avon</text>
<path aria-label="Folding Blues resource: 1; deposit: deforest" role="graphics-symbol" aria-roledescription="arc mark"  d="M161.48649418572944,84.66161763286564A75,75,0,0,0,160.61925011675632,83.68599582174261L105.0,134.0Z" fill="#1e427b" stroke="black" stroke-width="0"/>
<path aria-label="Folding Blues resource: 84; deposit: soon" role="graphics-symbol" aria-roledescription="arc mark"  d="M104.99999999999999,59.0A75,75,0,0,0,30.44331082082651,125.85751274854452L105.0,134.0Z" fill="#8ebcb5" stroke="black" stroke-width="0"/>
<path aria-label="Folding Blues resource: 43; deposit: save" role="graphics-symbol" aria-roledescription="arc mark"  d="M30.44331082082651,125.85751274854452A75,75,0,0,0,44.82632823415487,178.76750189832276L105.0,134.0Z" fill="#dab9ed" stroke="black" stroke-width="0"/>
<path aria-label="Folding Blues resource: 48; deposit: safely" role="graphics-symbol" aria-roledescription="arc mark"  d="M44.82632823415487,178.76750189832276A75,75,0,0,0,97.83142016716478,208.6566237060066L105.0,134.0Z" fill="#3d48fe" stroke="black" stroke-width="0"/>
<path aria-label="Folding Blues resource: 48; deposit: Intelligent" role="graphics-symbol" aria-roledescription="arc mark"  d="M160.61925011675632,83.68599582174261A75,75,0,0,0,105.0,59.0L105.0,134.0Z" fill="#66fe92" stroke="black" stroke-width="0"/>
<path aria-label="Folding Blues resource: 77; deposit: outside" role="graphics-symbol" aria-roledescription="arc mark"  d="M165.94369431623048,177.71345471465116A75,75,0,0,0,161.48649418572944,84.66161763286564L105.0,134.0Z" fill="#92fd93" stroke="black" stroke-width="0"/>
<path aria-label="Folding Blues resource: 60; deposit: programming" role="graphics-symbol" aria-roledescription="arc mark"  d="M97.83142016716478,208.6566237060066A75,75,0,0,0,165.94369431623048,177.71345471465116L105.0,134.0Z" fill="#8542ed" stroke="black" stroke-width="0"/>
<path  d="M234.0,56.0A5,5,0,1,1,224.0,56.0A5,5,0,1,1,234.0,56.0" fill="#66fe92" stroke="black" stroke-width="1.5" opacity="1"/>
<path  d="M234.0,72.0A5,5,0,1,1,224.0,72.0A5,5,0,1,1,234.0,72.0" fill="#1e427b" stroke="black" stroke-width="1.5" opacity="1"/>
<path  d="M234.0,88.0A5,5,0,1,1,224.0,88.0A5,5,0,1,1,234.0,88.0" fill="#92fd93" stroke="black" stroke-width="1.5" opacity="1"/>
<path  d="M234.0,104.0A5,5,0,1,1,224.0,104.0A5,5,0,1,1,234.0,104.0" fill="#8542ed" stroke="black" stroke-width="1.5" opacity="1"/>
<path  d="M234.0,120.0A5,5,0,1,1,224.0,120.0A5,5,0,1,1,234.0,120.0" fill="#3d48fe" stroke="black" stroke-width="1.5" opacity="1"/>
<path  d="M234.0,136.0A5,5,0,1,1,224.0,136.0A5,5,0,1,1,234.0,136.0" fill="#dab9ed" stroke="black" stroke-width="1.5" opacity="1"/>
<path  d="M234.0,152.0A5,5,0,1,1,224.0,152.0A5,5,0,1,1,234.0,152.0" fill="#8ebcb5" stroke="black" stroke-width="1.5" opacity="1"/>
<text aria-label="239,299,49,60" text-anchor="start" x="239.0" y="59.0" font-family="monospace" font-size="10px" fill="#000" opacity="1">Intelligent</text>
<text aria-label="239,283,65,76" text-anchor="start" x="239.0" y="75.0" font-family="monospace" font-size="10px" fill="#000" opacity="1">deforest</text>
<text aria-label="239,277,81,92" text-anchor="start" x="239.0" y="91.0" font-family="monospace" font-size="10px" fill="#000" opacity="1">outside</text>
<text aria-label="239,299,97,108" text-anchor="start" x="239.0" y="107.0" font-family="monospace" font-size="10px" fill="#000" opacity="1">programming</text>
<text aria-label="239,272,113,124" text-anchor="start" x="239.0" y="123.0" font-family="monospace" font-size="10px" fill="#000" opacity="1">safely</text>
<text aria-label="239,261,129,140" text-anchor="start" x="239.0" y="139.0" font-family="monospace" font-size="10px" fill="#000" opacity="1">save</text>
<text aria-label="239,261,145,156" text-anchor="start" x="239.0" y="155.0" font-family="monospace" font-size="10px" fill="#000" opacity="1">soon</text>
<text aria-label="223,265,32,44" text-anchor="start" x="223.0" y="43.0" font-family="monospace" font-size="11px" font-weight="bold" fill="#000" opacity="1">deposit</text>
</svg>