<svg xmlns="http://www.w3.org/2000/svg" xmlns:xlink="http://www.w3.org/1999/xlink" version="1.1" class="marks" width="264" height="270" viewBox="0 0 264 270" style="background-color: rgb(255, 255, 255);">
<text aria-label="5,57,0,26" text-anchor="start" x="5.0" y="25.0" font-family="monospace" font-size="25px" font-weight="bold" fill="#000" opacity="1">into</text>
<path aria-label="male engineer initiative: 597; male: nisi" role="graphics-symbol" aria-roledescription="arc mark"  d="M104.99999999999999,59.0A75,75,0,0,0,52.601822783119935,187.66033008050204L63.78010058938768,176.2127929966616A59,59,0,0,1,104.99999999999999,75.0Z" fill="#383f18" stroke="white" stroke-width="1"/>
<path aria-label="male engineer initiative: 195; male: Islands," role="graphics-symbol" aria-roledescription="arc mark"  d="M179.53788483459405,142.31286499257584A75,75,0,0,0,164.13741969050332,87.87229040642413L151.52143682319593,97.71286845305364A59,59,0,0,1,163.636469403214,140.53945379415964Z" fill="#4ac54f" stroke="white" stroke-width="1"/>
<path aria-label="male engineer initiative: 229; male: Diesel" role="graphics-symbol" aria-roledescription="arc mark"  d="M164.13741969050332,87.87229040642413A75,75,0,0,0,105.0,59.0L105.0,75.0A59,59,0,0,1,151.52143682319593,97.71286845305364Z" fill="#a919ca" stroke="white" stroke-width="1"/>
<path aria-label="male engineer initiative: 518; male: duh" role="graphics-symbol" aria-roledescription="arc mark"  d="M52.601822783119935,187.66033008050204A75,75,0,0,0,176.87759186377673,155.41522327374466L161.54370559950436,150.84664230867912A59,59,0,0,1,63.78010058938768,176.2127929966616Z" fill="#9fa6fb" stroke="white" stroke-width="1"/>
<path aria-label="male engineer initiative: 45; male: Metal" role="graphics-symbol" aria-roledescription="arc mark"  d="M176.87759186377673,155.41522327374466A75,75,0,0,0,179.53788483459405,142.31286499257584L163.636469403214,140.53945379415964A59,59,0,0,1,161.54370559950436,150.84664230867912Z" fill="#81a490" stroke="white" stroke-width="1"/>
<text aria-label="13,29,93,104" role="graphics-symbol" aria-roledescription="text mark" text-anchor="middle" x="21.64738861710984" y="103.0538341538711" font-family="monospace" font-size="10px" fill="#383f18" opacity="1">597</text>
<text aria-label="183,199,102,113" role="graphics-symbol" aria-roledescription="text mark" text-anchor="middle" x="191.6015632215333" y="112.5016480638642" font-family="monospace" font-size="10px" fill="#4ac54f" opacity="1">195</text>
<text aria-label="136,152,46,57" role="graphics-symbol" aria-roledescription="text mark" text-anchor="middle" x="144.485486978723" y="56.124192009890265" font-family="monospace" font-size="10px" fill="#a919ca" opacity="1">229</text>
<text aria-label="119,135,214,225" role="graphics-symbol" aria-roledescription="text mark" text-anchor="middle" x="127.60331884629713" y="224.11538312567205" font-family="monospace" font-size="10px" fill="#9fa6fb" opacity="1">518</text>
<text aria-label="187,198,144,155" role="graphics-symbol" aria-roledescription="text mark" text-anchor="middle" x="193.20033389597876" y="154.90812945669816" font-family="monospace" font-size="10px" fill="#81a490" opacity="1">45</text>
<path  d="M16.0,258.25A5,5,0,1,1,6.0,258.25A5,5,0,1,1,16.0,258.25" fill="#a919ca" stroke="white" stroke-width="1.5" opacity="1"/>
<path  d="M73.0,258.25A5,5,0,1,1,63.0,258.25A5,5,0,1,1,73.0,258.25" fill="#4ac54f" stroke="white" stroke-width="1.5" opacity="1"/>
<path  d="M140.0,258.25A5,5,0,1,1,130.0,258.25A5,5,0,1,1,140.0,258.25" fill="#81a490" stroke="white" stroke-width="1.5" opacity="1"/>
<path  d="M192.0,258.25A5,5,0,1,1,182.0,258.25A5,5,0,1,1,192.0,258.25" fill="#9fa6fb" stroke="white" stroke-width="1.5" opacity="1"/>
<path  d="M234.0,258.25A5,5,0,1,1,224.0,258.25A5,5,0,1,1,234.0,258.25" fill="#383f18" stroke="white" stroke-width="1.5" opacity="1"/>
<text aria-label="21,54,251,262" text-anchor="start" x="21.0" y="261.25" font-family="monospace" font-size="10px" fill="#000" opacity="1">Diesel</text>
<text aria-label="78,122,251,262" text-anchor="start" x="78.0" y="261.25" font-family="monospace" font-size="10px" fill="#000" opacity="1">Islands,</text>
<text aria-label="145,172,251,262" text-anchor="start" x="145.0" y="261.25" font-family="monospace" font-size="10px" fill="#000" opacity="1">Metal</text>
<text aria-label="197,213,251,262" text-anchor="start" x="197.0" y="261.25" font-family="monospace" font-size="10px" fill="#000" opacity="1">duh</text>
<text aria-label="239,261,251,262" text-anchor="start" x="239.0" y="261.25" font-family="monospace" font-size="10px" fill="#000" opacity="1">nisi</text>
</svg>