<svg xmlns="http://www.w3.org/2000/svg" xmlns:xlink="http://www.w3.org/1999/xlink" version="1.1" class="marks" width="312" height="239" viewBox="0 0 312 239" style="background-color: rgb(255, 255, 255);">
<text aria-label="4,251,0,26" text-anchor="middle" x="128.0" y="25.0" font-family="serif" font-size="25px" font-weight="bold" fill="#000" opacity="1">Awesome Tesla henry</text>
<path aria-label="Sausages Mauritius: 769; Executive: Electric" role="graphics-symbol" aria-roledescription="arc mark"  d="M175.46151706408344,192.07240651097314A75,75,0,0,0,198.45746589490437,108.2950296699571L164.63788226535027,120.6334154283777A39,39,0,0,1,152.6799888733234,164.19765138570602Z" fill="#12f6b4" stroke="black" stroke-width="4"/>
<path aria-label="Sausages Mauritius: 710; Executive: urinate" role="graphics-symbol" aria-roledescription="arc mark"  d="M127.99999999999999,59.0A75,75,0,0,0,59.83230904608767,102.72435596167684L92.55280070396559,117.73666510007196A39,39,0,0,1,127.99999999999999,95.0Z" fill="#bafbc6" stroke="black" stroke-width="4"/>
<path aria-label="Sausages Mauritius: 11; Executive: Human" role="graphics-symbol" aria-roledescription="arc mark"  d="M144.90296093849895,207.0704448563958A75,75,0,0,0,146.19155244581356,206.76034235496155L137.45960727182305,171.83537802458002A39,39,0,0,1,136.78953968801946,171.9966313253258Z" fill="#46efdc" stroke="black" stroke-width="4"/>
<path aria-label="Sausages Mauritius: 369; Executive: M2F" role="graphics-symbol" aria-roledescription="arc mark"  d="M67.97828459862365,178.97103156784578A75,75,0,0,0,103.3448634049053,204.83166127853576L115.17932897055076,170.8324638648386A39,39,0,0,1,96.7887079912843,157.3849364152798Z" fill="#8da5b3" stroke="black" stroke-width="4"/>
<path aria-label="Sausages Mauritius: 350; Executive: Hybrid" role="graphics-symbol" aria-roledescription="arc mark"  d="M103.3448634049053,204.83166127853576A75,75,0,0,0,144.90296093849895,207.0704448563958L136.78953968801946,171.9966313253258A39,39,0,0,1,115.17932897055076,170.8324638648386Z" fill="#addb72" stroke="black" stroke-width="4"/>
<path aria-label="Sausages Mauritius: 553; Executive: Bugatti" role="graphics-symbol" aria-roledescription="arc mark"  d="M186.20561242747493,86.70193786271392A75,75,0,0,0,128.0,59.0L128.0,95.0A39,39,0,0,1,158.26691846228698,109.40500768861124Z" fill="#b81dff" stroke="black" stroke-width="4"/>
<path aria-label="Sausages Mauritius: 321; Executive: turquoise" role="graphics-symbol" aria-roledescription="arc mark"  d="M59.83230904608767,102.72435596167684A75,75,0,0,0,53.27427720457217,140.4083034182909L89.14262414637753,137.33231777751126A39,39,0,0,1,92.55280070396559,117.73666510007196Z" fill="#0ef1f7" stroke="black" stroke-width="4"/>
<path aria-label="Sausages Mauritius: 274; Executive: Electric" role="graphics-symbol" aria-roledescription="arc mark"  d="M146.19155244581356,206.76034235496155A75,75,0,0,0,175.46151706408344,192.07240651097314L152.6799888733234,164.19765138570602A39,39,0,0,1,137.45960727182305,171.83537802458002Z" fill="#12f6b4" stroke="black" stroke-width="4"/>
<path aria-label="Sausages Mauritius: 347; Executive: Table" role="graphics-symbol" aria-roledescription="arc mark"  d="M53.27427720457217,140.4083034182909A75,75,0,0,0,67.97828459862365,178.97103156784578L96.7887079912843,157.3849364152798A39,39,0,0,1,89.14262414637753,137.33231777751126Z" fill="#c96f06" stroke="black" stroke-width="4"/>
<path aria-label="Sausages Mauritius: 207; Executive: Checking" role="graphics-symbol" aria-roledescription="arc mark"  d="M198.45746589490437,108.2950296699571A75,75,0,0,0,186.20561242747493,86.70193786271392L158.26691846228698,109.40500768861124A39,39,0,0,1,164.63788226535027,120.6334154283777Z" fill="#d76813" stroke="black" stroke-width="4"/>
<path  d="M257.0,56.0A5,5,0,1,1,247.0,56.0A5,5,0,1,1,257.0,56.0" fill="#b81dff" stroke="black" stroke-width="1.5" opacity="1"/>
<path  d="M257.0,72.0A5,5,0,1,1,247.0,72.0A5,5,0,1,1,257.0,72.0" fill="#d76813" stroke="black" stroke-width="1.5" opacity="1"/>
<path  d="M257.0,88.0A5,5,0,1,1,247.0,88.0A5,5,0,1,1,257.0,88.0" fill="#12f6b4" stroke="black" stroke-width="1.5" opacity="1"/>
<path  d="M257.0,104.0A5,5,0,1,1,247.0,104.0A5,5,0,1,1,257.0,104.0" fill="#46efdc" stroke="black" stroke-width="1.5" opacity="1"/>
<path  d="M257.0,120.0A5,5,0,1,1,247.0,120.0A5,5,0,1,1,257.0,120.0" fill="#addb72" stroke="black" stroke-width="1.5" opacity="1"/>
<path  d="M257.0,136.0A5,5,0,1,1,247.0,136.0A5,5,0,1,1,257.0,136.0" fill="#8da5b3" stroke="black" stroke-width="1.5" opacity="1"/>
<path  d="M257.0,152.0A5,5,0,1,1,247.0,152.0A5,5,0,1,1,257.0,152.0" fill="#c96f06" stroke="black" stroke-width="1.5" opacity="1"/>
<path  d="M257.0,168.0A5,5,0,1,1,247.0,168.0A5,5,0,1,1,257.0,168.0" fill="#0ef1f7" stroke="black" stroke-width="1.5" opacity="1"/>
<path  d="M257.0,184.0A5,5,0,1,1,247.0,184.0A5,5,0,1,1,257.0,184.0" fill="#bafbc6" stroke="black" stroke-width="1.5" opacity="1"/>
<text aria-label="262,300,49,60" text-anchor="start" x="262.0" y="59.0" font-family="serif" font-size="10px" fill="#000" opacity="1">Bugatti</text>
<text aria-label="262,306,65,76" text-anchor="start" x="262.0" y="75.0" font-family="serif" font-size="10px" fill="#000" opacity="1">Checking</text>
<text aria-label="262,306,81,92" text-anchor="start" x="262.0" y="91.0" font-family="serif" font-size="10px" fill="#000" opacity="1">Electric</text>
<text aria-label="262,289,97,108" text-anchor="start" x="262.0" y="107.0" font-family="serif" font-size="10px" fill="#000" opacity="1">Human</text>
<text aria-label="262,295,113,124" text-anchor="start" x="262.0" y="123.0" font-family="serif" font-size="10px" fill="#000" opacity="1">Hybrid</text>
<text aria-label="262,278,129,140" text-anchor="start" x="262.0" y="139.0" font-family="serif" font-size="10px" fill="#000" opacity="1">M2F</text>
<text aria-label="262,289,145,156" text-anchor="start" x="262.0" y="155.0" font-family="serif" font-size="10px" fill="#000" opacity="1">Table</text>
<text aria-label="262,311,161,172" text-anchor="start" x="262.0" y="171.0" font-family="serif" font-size="10px" fill="#000" opacity="1">turquoise</text>
<text aria-label="262,300,177,188" text-anchor="start" x="262.0" y="187.0" font-family="serif" font-size="10px" fill="#000" opacity="1">urinate</text>
<text aria-label="246,300,32,44" text-anchor="start" x="246.0" y="43.0" font-family="serif" font-size="11px" font-weight="bold" fill="#000" opacity="1">Executive</text>
</svg>