<svg xmlns="http://www.w3.org/2000/svg" xmlns:xlink="http://www.w3.org/1999/xlink" version="1.1" class="marks" width="314" height="239" viewBox="0 0 314 239" style="background-color: rgb(255, 255, 255);">
<text aria-label="103,298,0,26" text-anchor="middle" x="201.0" y="25.0" font-family="Balto" font-size="25px" font-weight="bold" fill="#000" opacity="1">JSON withdrawal</text>
<path aria-label="Small plum Omani: 311; female Northeast Robust: sentimental" role="graphics-symbol" aria-roledescription="arc mark"  d="M177.45895410925132,62.790315557716A75,75,0,0,0,134.95038605945325,98.46904872783826L161.37023163567196,112.68142923670295A45,45,0,0,1,186.87537246555078,91.2741893346296Z" fill="#e5519f" stroke="white" stroke-width="0"/>
<path aria-label="Small plum Omani: 464; female Northeast Robust: index" role="graphics-symbol" aria-roledescription="arc mark"  d="M142.50945831860435,180.94525038613511A75,75,0,0,0,218.56616289691533,206.9138527378648L211.5396977381492,177.74831164271887A45,45,0,0,1,165.9056749911626,162.16715023168106Z" fill="#bec20f" stroke="white" stroke-width="0"/>
<path aria-label="Small plum Omani: 289; female Northeast Robust: Southwest" role="graphics-symbol" aria-roledescription="arc mark"  d="M260.05826702130815,180.22900708905465A75,75,0,0,0,275.93936344241234,130.9847376820529L245.9636180654474,132.19084260923174A45,45,0,0,1,236.4349602127849,161.7374042534328Z" fill="#248f9c" stroke="white" stroke-width="0"/>
<path aria-label="Small plum Omani: 131; female Northeast Robust: where" role="graphics-symbol" aria-roledescription="arc mark"  d="M201.0,59.0A75,75,0,0,0,177.45895410925132,62.790315557716L186.87537246555078,91.2741893346296A45,45,0,0,1,201.0,89.0Z" fill="#fbee32" stroke="white" stroke-width="0"/>
<path aria-label="Small plum Omani: 399; female Northeast Robust: Functionality" role="graphics-symbol" aria-roledescription="arc mark"  d="M267.222022949585,98.7914260944207A75,75,0,0,0,209.20917882632216,59.45062452979593L205.9255072957933,89.27037471787756A45,45,0,0,1,240.733213769751,112.87485565665241Z" fill="#38df32" stroke="white" stroke-width="0"/>
<path aria-label="Small plum Omani: 184; female Northeast Robust: Regional" role="graphics-symbol" aria-roledescription="arc mark"  d="M275.93936344241234,130.9847376820529A75,75,0,0,0,267.222022949585,98.7914260944207L240.733213769751,112.87485565665241A45,45,0,0,1,245.9636180654474,132.19084260923174Z" fill="#9e18e0" stroke="white" stroke-width="0"/>
<path aria-label="Small plum Omani: 275; female Northeast Robust: hack" role="graphics-symbol" aria-roledescription="arc mark"  d="M218.56616289691533,206.9138527378648A75,75,0,0,0,260.05826702130815,180.22900708905465L236.4349602127849,161.7374042534328A45,45,0,0,1,211.5396977381492,177.74831164271887Z" fill="#d1d55d" stroke="white" stroke-width="0"/>
<path aria-label="Small plum Omani: 341; female Northeast Robust: pish" role="graphics-symbol" aria-roledescription="arc mark"  d="M134.95038605945325,98.46904872783826A75,75,0,0,0,130.23250044647784,158.83869978364896L158.53950026788672,148.90321987018936A45,45,0,0,1,161.37023163567196,112.68142923670295Z" fill="#b9d81d" stroke="white" stroke-width="0"/>
<path aria-label="Small plum Omani: 139; female Northeast Robust: male" role="graphics-symbol" aria-roledescription="arc mark"  d="M130.23250044647784,158.83869978364896A75,75,0,0,0,142.50945831860435,180.94525038613511L165.9056749911626,162.16715023168106A45,45,0,0,1,158.53950026788672,148.90321987018936Z" fill="#d4a37d" stroke="white" stroke-width="0"/>
<path aria-label="Small plum Omani: 45; female Northeast Robust: Electric" role="graphics-symbol" aria-roledescription="arc mark"  d="M209.20917882632216,59.45062452979593A75,75,0,0,0,201.0,59.0L201.0,89.0A45,45,0,0,1,205.9255072957933,89.27037471787756Z" fill="#dceedd" stroke="white" stroke-width="0"/>
<path  d="M16.0,40.0A5,5,0,1,1,6.0,40.0A5,5,0,1,1,16.0,40.0" fill="#dceedd" stroke="white" stroke-width="1.5" opacity="1"/>
<path  d="M16.0,56.0A5,5,0,1,1,6.0,56.0A5,5,0,1,1,16.0,56.0" fill="#38df32" stroke="white" stroke-width="1.5" opacity="1"/>
<path  d="M16.0,72.0A5,5,0,1,1,6.0,72.0A5,5,0,1,1,16.0,72.0" fill="#9e18e0" stroke="white" stroke-width="1.5" opacity="1"/>
<path  d="M16.0,88.0A5,5,0,1,1,6.0,88.0A5,5,0,1,1,16.0,88.0" fill="#248f9c" stroke="white" stroke-width="1.5" opacity="1"/>
<path  d="M16.0,104.0A5,5,0,1,1,6.0,104.0A5,5,0,1,1,16.0,104.0" fill="#d1d55d" stroke="white" stroke-width="1.5" opacity="1"/>
<path  d="M16.0,120.0A5,5,0,1,1,6.0,120.0A5,5,0,1,1,16.0,120.0" fill="#bec20f" stroke="white" stroke-width="1.5" opacity="1"/>
<path  d="M16.0,136.0A5,5,0,1,1,6.0,136.0A5,5,0,1,1,16.0,136.0" fill="#d4a37d" stroke="white" stroke-width="1.5" opacity="1"/>
<path  d="M16.0,152.0A5,5,0,1,1,6.0,152.0A5,5,0,1,1,16.0,152.0" fill="#b9d81d" stroke="white" stroke-width="1.5" opacity="1"/>
<path  d="M16.0,168.0A5,5,0,1,1,6.0,168.0A5,5,0,1,1,16.0,168.0" fill="#e5519f" stroke="white" stroke-width="1.5" opacity="1"/>
<path  d="M16.0,184.0A5,5,0,1,1,6.0,184.0A5,5,0,1,1,16.0,184.0" fill="#fbee32" stroke="white" stroke-width="1.5" opacity="1"/>
<text aria-label="21,65,33,44" text-anchor="start" x="21.0" y="43.0" font-family="Balto" font-size="10px" fill="#000" opacity="1">Electric</text>
<text aria-label="21,92,49,60" text-anchor="start" x="21.0" y="59.0" font-family="Balto" font-size="10px" fill="#000" opacity="1">Functionality</text>
<text aria-label="21,65,65,76" text-anchor="start" x="21.0" y="75.0" font-family="Balto" font-size="10px" fill="#000" opacity="1">Regional</text>
<text aria-label="21,70,81,92" text-anchor="start" x="21.0" y="91.0" font-family="Balto" font-size="10px" fill="#000" opacity="1">Southwest</text>
<text aria-label="21,43,97,108" text-anchor="start" x="21.0" y="107.0" font-family="Balto" font-size="10px" fill="#000" opacity="1">hack</text>
<text aria-label="21,48,113,124" text-anchor="start" x="21.0" y="123.0" font-family="Balto" font-size="10px" fill="#000" opacity="1">index</text>
<text aria-label="21,43,129,140" text-anchor="start" x="21.0" y="139.0" font-family="Balto" font-size="10px" fill="#000" opacity="1">male</text>
<text aria-label="21,43,145,156" text-anchor="start" x="21.0" y="155.0" font-family="Balto" font-size="10px" fill="#000" opacity="1">pish</text>
<text aria-label="21,81,161,172" text-anchor="start" x="21.0" y="171.0" font-family="Balto" font-size="10px" fill="#000" opacity="1">sentimental</text>
<text aria-label="21,48,177,188" text-anchor="start" x="21.0" y="187.0" font-family="Balto" font-size="10px" fill="#000" opacity="1">where</text>
</svg>