<svg xmlns="http://www.w3.org/2000/svg" xmlns:xlink="http://www.w3.org/1999/xlink" version="1.1" class="marks" width="368" height="239" viewBox="0 0 368 239" style="background-color: rgb(255, 255, 255);">
<text aria-label="20,358,0,26" text-anchor="middle" x="189.0" y="25.0" font-family="avenir" font-size="25px" font-weight="bold" fill="#000" opacity="1">mockingly male Integration</text>
<path aria-label="Hermaphrodite: 114; wireless Soap payment: niches" role="graphics-symbol" aria-roledescription="arc mark"  d="M121.77129247274618,100.7539343047186A75,75,0,0,0,115.00488502380372,121.76386663772031L189.0,134.0Z" fill="#56f503" stroke="white" stroke-width="0"/>
<path aria-label="Hermaphrodite: 411; wireless Soap payment: neural" role="graphics-symbol" aria-roledescription="arc mark"  d="M115.00488502380372,121.76386663772031A75,75,0,0,0,142.4393027355257,192.79712127516086L189.0,134.0Z" fill="#dcd92d" stroke="white" stroke-width="0"/>
<path aria-label="Hermaphrodite: 121; wireless Soap payment: Computer" role="graphics-symbol" aria-roledescription="arc mark"  d="M258.67945287016664,106.2552014295611A75,75,0,0,0,246.7265109215543,86.11837579171241L189.0,134.0Z" fill="#acf5d4" stroke="white" stroke-width="0"/>
<path aria-label="Hermaphrodite: 339; wireless Soap payment: Borders" role="graphics-symbol" aria-roledescription="arc mark"  d="M246.7265109215543,86.11837579171241A75,75,0,0,0,189.0,59.0L189.0,134.0Z" fill="#3bec72" stroke="white" stroke-width="0"/>
<path aria-label="Hermaphrodite: 37; wireless Soap payment: Electric" role="graphics-symbol" aria-roledescription="arc mark"  d="M261.0152457690489,113.05234197282451A75,75,0,0,0,258.67945287016664,106.2552014295611L189.0,134.0Z" fill="#978f93" stroke="white" stroke-width="0"/>
<path aria-label="Hermaphrodite: 316; wireless Soap payment: holistic" role="graphics-symbol" aria-roledescription="arc mark"  d="M142.4393027355257,192.79712127516086A75,75,0,0,0,200.13241668060357,208.16919373196274L189.0,134.0Z" fill="#f9c795" stroke="white" stroke-width="0"/>
<path aria-label="Hermaphrodite: 123; wireless Soap payment: up" role="graphics-symbol" aria-roledescription="arc mark"  d="M189.0,59.0A75,75,0,0,0,165.50053964467605,62.776581358316164L189.0,134.0Z" fill="#f74b0c" stroke="white" stroke-width="0"/>
<path aria-label="Hermaphrodite: 306; wireless Soap payment: supposing" role="graphics-symbol" aria-roledescription="arc mark"  d="M165.50053964467605,62.776581358316164A75,75,0,0,0,121.77129247274618,100.7539343047186L189.0,134.0Z" fill="#56ff17" stroke="white" stroke-width="0"/>
<path aria-label="Hermaphrodite: 238; wireless Soap payment: Enhanced" role="graphics-symbol" aria-roledescription="arc mark"  d="M259.8654260050407,158.557919234416A75,75,0,0,0,261.0152457690489,113.05234197282451L189.0,134.0Z" fill="#dd7611" stroke="white" stroke-width="0"/>
<path aria-label="Hermaphrodite: 420; wireless Soap payment: coulomb" role="graphics-symbol" aria-roledescription="arc mark"  d="M200.13241668060357,208.16919373196274A75,75,0,0,0,259.8654260050407,158.557919234416L189.0,134.0Z" fill="#4255ba" stroke="white" stroke-width="0"/>
<text aria-label="95,111,99,110" role="graphics-symbol" aria-roledescription="text mark" text-anchor="middle" x="103.33314113565045" y="109.41034084451903" font-family="avenir" font-size="10px" fill="#56f503" opacity="1">114</text>
<text aria-label="96,113,159,170" role="graphics-symbol" aria-roledescription="text mark" text-anchor="middle" x="105.04409629703039" y="169.42539488452985" font-family="avenir" font-size="10px" fill="#dcd92d" opacity="1">411</text>
<text aria-label="258,274,81,92" role="graphics-symbol" aria-roledescription="text mark" text-anchor="middle" x="266.3924911624372" y="91.06088473128713" font-family="avenir" font-size="10px" fill="#acf5d4" opacity="1">121</text>
<text aria-label="219,235,45,56" role="graphics-symbol" aria-roledescription="text mark" text-anchor="middle" x="227.2673789637136" y="55.54076045501327" font-family="avenir" font-size="10px" fill="#3bec72" opacity="1">339</text>
<text aria-label="268,279,97,108" role="graphics-symbol" aria-roledescription="text mark" text-anchor="middle" x="274.1145812838686" y="107.75093073494936" font-family="avenir" font-size="10px" fill="#978f93" opacity="1">37</text>
<text aria-label="157,174,213,224" role="graphics-symbol" aria-roledescription="text mark" text-anchor="middle" x="165.82831634022273" y="223.9659305496768" font-family="avenir" font-size="10px" fill="#f9c795" opacity="1">316</text>
<text aria-label="166,182,38,49" role="graphics-symbol" aria-roledescription="text mark" text-anchor="middle" x="174.71940500717585" y="48.14019690179971" font-family="avenir" font-size="10px" fill="#f74b0c" opacity="1">123</text>
<text aria-label="121,138,59,70" role="graphics-symbol" aria-roledescription="text mark" text-anchor="middle" x="129.9864700065134" y="69.04852262306684" font-family="avenir" font-size="10px" fill="#56ff17" opacity="1">306</text>
<text aria-label="270,287,129,140" role="graphics-symbol" aria-roledescription="text mark" text-anchor="middle" x="278.9712832756613" y="139.273364407814" font-family="avenir" font-size="10px" fill="#dd7611" opacity="1">238</text>
<text aria-label="238,254,196,207" role="graphics-symbol" aria-roledescription="text mark" text-anchor="middle" x="246.5028078832105" y="206.23458012833316" font-family="avenir" font-size="10px" fill="#4255ba" opacity="1">420</text>
<path  d="M16.0,40.0A5,5,0,1,1,6.0,40.0A5,5,0,1,1,16.0,40.0" fill="#3bec72" stroke="white" stroke-width="1.5" opacity="1"/>
<path  d="M16.0,56.0A5,5,0,1,1,6.0,56.0A5,5,0,1,1,16.0,56.0" fill="#acf5d4" stroke="white" stroke-width="1.5" opacity="1"/>
<path  d="M16.0,72.0A5,5,0,1,1,6.0,72.0A5,5,0,1,1,16.0,72.0" fill="#978f93" stroke="white" stroke-width="1.5" opacity="1"/>
<path  d="M16.0,88.0A5,5,0,1,1,6.0,88.0A5,5,0,1,1,16.0,88.0" fill="#dd7611" stroke="white" stroke-width="1.5" opacity="1"/>
<path  d="M16.0,104.0A5,5,0,1,1,6.0,104.0A5,5,0,1,1,16.0,104.0" fill="#4255ba" stroke="white" stroke-width="1.5" opacity="1"/>
<path  d="M16.0,120.0A5,5,0,1,1,6.0,120.0A5,5,0,1,1,16.0,120.0" fill="#f9c795" stroke="white" stroke-width="1.5" opacity="1"/>
<path  d="M16.0,136.0A5,5,0,1,1,6.0,136.0A5,5,0,1,1,16.0,136.0" fill="#dcd92d" stroke="white" stroke-width="1.5" opacity="1"/>
<path  d="M16.0,152.0A5,5,0,1,1,6.0,152.0A5,5,0,1,1,16.0,152.0" fill="#56f503" stroke="white" stroke-width="1.5" opacity="1"/>
<path  d="M16.0,168.0A5,5,0,1,1,6.0,168.0A5,5,0,1,1,16.0,168.0" fill="#56ff17" stroke="white" stroke-width="1.5" opacity="1"/>
<path  d="M16.0,184.0A5,5,0,1,1,6.0,184.0A5,5,0,1,1,16.0,184.0" fill="#f74b0c" stroke="white" stroke-width="1.5" opacity="1"/>
<text aria-label="21,59,33,44" text-anchor="start" x="21.0" y="43.0" font-family="avenir" font-size="10px" fill="#000" opacity="1">Borders</text>
<text aria-label="21,65,49,60" text-anchor="start" x="21.0" y="59.0" font-family="avenir" font-size="10px" fill="#000" opacity="1">Computer</text>
<text aria-label="21,65,65,76" text-anchor="start" x="21.0" y="75.0" font-family="avenir" font-size="10px" fill="#000" opacity="1">Electric</text>
<text aria-label="21,65,81,92" text-anchor="start" x="21.0" y="91.0" font-family="avenir" font-size="10px" fill="#000" opacity="1">Enhanced</text>
<text aria-label="21,59,97,108" text-anchor="start" x="21.0" y="107.0" font-family="avenir" font-size="10px" fill="#000" opacity="1">coulomb</text>
<text aria-label="21,65,113,124" text-anchor="start" x="21.0" y="123.0" font-family="avenir" font-size="10px" fill="#000" opacity="1">holistic</text>
<text aria-label="21,54,129,140" text-anchor="start" x="21.0" y="139.0" font-family="avenir" font-size="10px" fill="#000" opacity="1">neural</text>
<text aria-label="21,54,145,156" text-anchor="start" x="21.0" y="155.0" font-family="avenir" font-size="10px" fill="#000" opacity="1">niches</text>
<text aria-label="21,70,161,172" text-anchor="start" x="21.0" y="171.0" font-family="avenir" font-size="10px" fill="#000" opacity="1">supposing</text>
<text aria-label="21,32,177,188" text-anchor="start" x="21.0" y="187.0" font-family="avenir" font-size="10px" fill="#000" opacity="1">up</text>
</svg>