<svg xmlns="http://www.w3.org/2000/svg" xmlns:xlink="http://www.w3.org/1999/xlink" version="1.1" class="marks" width="319" height="239" viewBox="0 0 319 239" style="background-color: rgb(255, 255, 255);">
<text aria-label="5,291,0,26" text-anchor="start" x="5.0" y="25.0" font-family="Balto" font-size="25px" font-weight="bold" fill="#000" opacity="1">Pizza Dynamic Keyboard</text>
<path aria-label="Electric Vermont Folding: 511; Funk West: Southwest" role="graphics-symbol" aria-roledescription="arc mark"  d="M79.03890066481007,204.36349423748368A75,75,0,0,0,167.8841255128768,174.87281197178334L105.0,134.0Z" fill="#7cdee1" stroke="black" stroke-width="0"/>
<path aria-label="Electric Vermont Folding: 625; Funk West: inside" role="graphics-symbol" aria-roledescription="arc mark"  d="M104.99999999999999,59.0A75,75,0,0,0,30.226951140845003,139.83019419114143L105.0,134.0Z" fill="#a9b65e" stroke="black" stroke-width="0"/>
<path aria-label="Electric Vermont Folding: 608; Funk West: Cruiser" role="graphics-symbol" aria-roledescription="arc mark"  d="M179.95923493211072,136.4724680771715A75,75,0,0,0,105.0,59.0L105.0,134.0Z" fill="#1e15a2" stroke="black" stroke-width="0"/>
<path aria-label="Electric Vermont Folding: 432; Funk West: farad" role="graphics-symbol" aria-roledescription="arc mark"  d="M30.226951140845003,139.83019419114143A75,75,0,0,0,79.03890066481007,204.36349423748368L105.0,134.0Z" fill="#b1ae22" stroke="black" stroke-width="0"/>
<path aria-label="Electric Vermont Folding: 206; Funk West: Legacy" role="graphics-symbol" aria-roledescription="arc mark"  d="M167.8841255128768,174.87281197178334A75,75,0,0,0,179.95923493211072,136.4724680771715L105.0,134.0Z" fill="#ceea8d" stroke="black" stroke-width="0"/>
<path  d="M234.0,40.0A5,5,0,1,1,224.0,40.0A5,5,0,1,1,234.0,40.0" fill="#1e15a2" stroke="black" stroke-width="1.5" opacity="1"/>
<path  d="M234.0,56.0A5,5,0,1,1,224.0,56.0A5,5,0,1,1,234.0,56.0" fill="#ceea8d" stroke="black" stroke-width="1.5" opacity="1"/>
<path  d="M234.0,72.0A5,5,0,1,1,224.0,72.0A5,5,0,1,1,234.0,72.0" fill="#7cdee1" stroke="black" stroke-width="1.5" opacity="1"/>
<path  d="M234.0,88.0A5,5,0,1,1,224.0,88.0A5,5,0,1,1,234.0,88.0" fill="#b1ae22" stroke="black" stroke-width="1.5" opacity="1"/>
<path  d="M234.0,104.0A5,5,0,1,1,224.0,104.0A5,5,0,1,1,234.0,104.0" fill="#a9b65e" stroke="black" stroke-width="1.5" opacity="1"/>
<text aria-label="239,277,33,44" text-anchor="start" x="239.0" y="43.0" font-family="Balto" font-size="10px" fill="#000" opacity="1">Cruiser</text>
<text aria-label="239,272,49,60" text-anchor="start" x="239.0" y="59.0" font-family="Balto" font-size="10px" fill="#000" opacity="1">Legacy</text>
<text aria-label="239,288,65,76" text-anchor="start" x="239.0" y="75.0" font-family="Balto" font-size="10px" fill="#000" opacity="1">Southwest</text>
<text aria-label="239,266,81,92" text-anchor="start" x="239.0" y="91.0" font-family="Balto" font-size="10px" fill="#000" opacity="1">farad</text>
<text aria-label="239,272,97,108" text-anchor="start" x="239.0" y="107.0" font-family="Balto" font-size="10px" fill="#000" opacity="1">inside</text>
</svg>