<svg xmlns="http://www.w3.org/2000/svg" xmlns:xlink="http://www.w3.org/1999/xlink" version="1.1" class="marks" width="289" height="239" viewBox="0 0 289 239" style="background-color: rgb(255, 255, 255);">
<text aria-label="66,144,0,26" text-anchor="middle" x="105.0" y="25.0" font-family="monospace" font-size="25px" font-weight="bold" fill="#000" opacity="1">Tucson</text>
<path aria-label="huzzah Automotive Sulfur: 11; Corporate female Hybrid: sint" role="graphics-symbol" aria-roledescription="arc mark"  d="M30.055036421189257,131.12729497324736A75,75,0,0,0,110.74119396273719,208.77993508878052L105.0,134.0Z" fill="#9d1b0f" stroke="black" stroke-width="1"/>
<path aria-label="huzzah Automotive Sulfur: 2; Corporate female Hybrid: Audi" role="graphics-symbol" aria-roledescription="arc mark"  d="M157.00743755941812,79.96088047994097A75,75,0,0,0,138.27898784002198,66.78758322792083L105.0,134.0Z" fill="#2b87d3" stroke="black" stroke-width="1"/>
<path aria-label="huzzah Automotive Sulfur: 10; Corporate female Hybrid: warming" role="graphics-symbol" aria-roledescription="arc mark"  d="M104.99999999999999,59.0A75,75,0,0,0,30.055036421189257,131.12729497324736L105.0,134.0Z" fill="#9b69ec" stroke="black" stroke-width="1"/>
<path aria-label="huzzah Automotive Sulfur: 3; Corporate female Hybrid: Arab" role="graphics-symbol" aria-roledescription="arc mark"  d="M138.27898784002198,66.78758322792083A75,75,0,0,0,105.0,59.0L105.0,134.0Z" fill="#87158d" stroke="black" stroke-width="1"/>
<path aria-label="huzzah Automotive Sulfur: 6; Corporate female Hybrid: Vietnam" role="graphics-symbol" aria-roledescription="arc mark"  d="M110.74119396273719,208.77993508878052A75,75,0,0,0,167.95240695989625,174.7675662500916L105.0,134.0Z" fill="#e8a3e1" stroke="black" stroke-width="1"/>
<path aria-label="huzzah Automotive Sulfur: 9; Corporate female Hybrid: Southwest" role="graphics-symbol" aria-roledescription="arc mark"  d="M167.95240695989625,174.7675662500916A75,75,0,0,0,157.00743755941812,79.96088047994097L105.0,134.0Z" fill="#cdebea" stroke="black" stroke-width="1"/>
<text aria-label="35,49,189,203" role="graphics-symbol" aria-roledescription="text mark" text-anchor="middle" x="42.591074928698255" y="202.84694342407084" font-family="monospace" font-size="13px" fill="#9d1b0f" opacity="1">11</text>
<text aria-label="153,160,51,65" role="graphics-symbol" aria-roledescription="text mark" text-anchor="middle" x="156.77867941967585" y="64.38635753099541" font-family="monospace" font-size="13px" fill="#2b87d3" opacity="1">2</text>
<text aria-label="35,49,60,74" role="graphics-symbol" aria-roledescription="text mark" text-anchor="middle" x="42.591074928698234" y="73.15305657592917" font-family="monospace" font-size="13px" fill="#9b69ec" opacity="1">10</text>
<text aria-label="122,129,37,51" role="graphics-symbol" aria-roledescription="text mark" text-anchor="middle" x="125.50681580128239" y="50.367411850999886" font-family="monospace" font-size="13px" fill="#87158d" opacity="1">3</text>
<text aria-label="147,154,202,216" role="graphics-symbol" aria-roledescription="text mark" text-anchor="middle" x="150.99168115023997" y="215.3612646288481" font-family="monospace" font-size="13px" fill="#e8a3e1" opacity="1">6</text>
<text aria-label="190,197,114,128" role="graphics-symbol" aria-roledescription="text mark" text-anchor="middle" x="194.40618807837075" y="127.67849171414396" font-family="monospace" font-size="13px" fill="#cdebea" opacity="1">9</text>
<path  d="M234.0,40.0A5,5,0,1,1,224.0,40.0A5,5,0,1,1,234.0,40.0" fill="#87158d" stroke="black" stroke-width="1.5" opacity="1"/>
<path  d="M234.0,56.0A5,5,0,1,1,224.0,56.0A5,5,0,1,1,234.0,56.0" fill="#2b87d3" stroke="black" stroke-width="1.5" opacity="1"/>
<path  d="M234.0,72.0A5,5,0,1,1,224.0,72.0A5,5,0,1,1,234.0,72.0" fill="#cdebea" stroke="black" stroke-width="1.5" opacity="1"/>
<path  d="M234.0,88.0A5,5,0,1,1,224.0,88.0A5,5,0,1,1,234.0,88.0" fill="#e8a3e1" stroke="black" stroke-width="1.5" opacity="1"/>
<path  d="M234.0,104.0A5,5,0,1,1,224.0,104.0A5,5,0,1,1,234.0,104.0" fill="#9d1b0f" stroke="black" stroke-width="1.5" opacity="1"/>
<path  d="M234.0,120.0A5,5,0,1,1,224.0,120.0A5,5,0,1,1,234.0,120.0" fill="#9b69ec" stroke="black" stroke-width="1.5" opacity="1"/>
<text aria-label="239,261,33,44" text-anchor="start" x="239.0" y="43.0" font-family="monospace" font-size="10px" fill="#000" opacity="1">Arab</text>
<text aria-label="239,261,49,60" text-anchor="start" x="239.0" y="59.0" font-family="monospace" font-size="10px" fill="#000" opacity="1">Audi</text>
<text aria-label="239,288,65,76" text-anchor="start" x="239.0" y="75.0" font-family="monospace" font-size="10px" fill="#000" opacity="1">Southwest</text>
<text aria-label="239,277,81,92" text-anchor="start" x="239.0" y="91.0" font-family="monospace" font-size="10px" fill="#000" opacity="1">Vietnam</text>
<text aria-label="239,261,97,108" text-anchor="start" x="239.0" y="107.0" font-family="monospace" font-size="10px" fill="#000" opacity="1">sint</text>
<text aria-label="239,277,113,124" text-anchor="start" x="239.0" y="123.0" font-family="monospace" font-size="10px" fill="#000" opacity="1">warming</text>
</svg>