<svg xmlns="http://www.w3.org/2000/svg" xmlns:xlink="http://www.w3.org/1999/xlink" version="1.1" class="marks" width="358" height="239" viewBox="0 0 358 239" style="background-color: rgb(255, 255, 255);">
<text aria-label="41,353,0,26" text-anchor="end" x="353.0" y="25.0" font-family="avenir" font-size="25px" font-weight="bold" fill="#000" opacity="1">Recumbent Granite modulo</text>
<path aria-label="male Facilitator: 336; hacking: Ferry" role="graphics-symbol" aria-roledescription="arc mark"  d="M246.6935272329108,108.95154281458241A75,75,0,0,0,176.0,59.0L176.0,92.0A42,42,0,0,1,215.58837525043006,119.97286397616615Z" fill="#cdef2d" stroke="white" stroke-width="4"/>
<path aria-label="male Facilitator: 10; hacking: than" role="graphics-symbol" aria-roledescription="arc mark"  d="M176.0,59.0A75,75,0,0,0,173.25446615194474,59.050269887816256L174.46250104508906,92.0281511371771A42,42,0,0,1,176.0,92.0Z" fill="#b0afbb" stroke="white" stroke-width="4"/>
<path aria-label="male Facilitator: 200; hacking: instead" role="graphics-symbol" aria-roledescription="arc mark"  d="M131.60565145154888,194.44949807036147A75,75,0,0,0,183.4025261127534,208.63378998248717L180.1454146231419,175.79492239019282A42,42,0,0,1,151.13916481286736,167.85171891940243Z" fill="#3ec5ac" stroke="white" stroke-width="4"/>
<path aria-label="male Facilitator: 357; hacking: mole" role="graphics-symbol" aria-roledescription="arc mark"  d="M173.25446615194474,59.050269887816256A75,75,0,0,0,102.92430484793006,117.11975183708068L135.07761071484083,124.54706102876519A42,42,0,0,1,174.46250104508906,92.0281511371771Z" fill="#ba7e15" stroke="white" stroke-width="4"/>
<path aria-label="male Facilitator: 318; hacking: invoice" role="graphics-symbol" aria-roledescription="arc mark"  d="M102.92430484793006,117.11975183708068A75,75,0,0,0,131.60565145154888,194.44949807036147L151.13916481286736,167.85171891940243A42,42,0,0,1,135.07761071484083,124.54706102876519Z" fill="#681eea" stroke="white" stroke-width="4"/>
<path aria-label="male Facilitator: 204; hacking: coherent" role="graphics-symbol" aria-roledescription="arc mark"  d="M244.89035618152485,163.6499380299966A75,75,0,0,0,246.6935272329108,108.95154281458241L215.58837525043006,119.97286397616615A42,42,0,0,1,214.57859946165394,150.6039652967981Z" fill="#b40aeb" stroke="white" stroke-width="4"/>
<path aria-label="male Facilitator: 291; hacking: incubate" role="graphics-symbol" aria-roledescription="arc mark"  d="M183.4025261127534,208.63378998248717A75,75,0,0,0,244.89035618152485,163.6499380299966L214.57859946165394,150.6039652967981A42,42,0,0,1,180.1454146231419,175.79492239019282Z" fill="#a19466" stroke="white" stroke-width="4"/>
<path  d="M305.0,56.0A5,5,0,1,1,295.0,56.0A5,5,0,1,1,305.0,56.0" fill="#cdef2d" stroke="white" stroke-width="1.5" opacity="1"/>
<path  d="M305.0,72.0A5,5,0,1,1,295.0,72.0A5,5,0,1,1,305.0,72.0" fill="#b40aeb" stroke="white" stroke-width="1.5" opacity="1"/>
<path  d="M305.0,88.0A5,5,0,1,1,295.0,88.0A5,5,0,1,1,305.0,88.0" fill="#a19466" stroke="white" stroke-width="1.5" opacity="1"/>
<path  d="M305.0,104.0A5,5,0,1,1,295.0,104.0A5,5,0,1,1,305.0,104.0" fill="#3ec5ac" stroke="white" stroke-width="1.5" opacity="1"/>
<path  d="M305.0,120.0A5,5,0,1,1,295.0,120.0A5,5,0,1,1,305.0,120.0" fill="#681eea" stroke="white" stroke-width="1.5" opacity="1"/>
<path  d="M305.0,136.0A5,5,0,1,1,295.0,136.0A5,5,0,1,1,305.0,136.0" fill="#ba7e15" stroke="white" stroke-width="1.5" opacity="1"/>
<path  d="M305.0,152.0A5,5,0,1,1,295.0,152.0A5,5,0,1,1,305.0,152.0" fill="#b0afbb" stroke="white" stroke-width="1.5" opacity="1"/>
<text aria-label="310,337,49,60" text-anchor="start" x="310.0" y="59.0" font-family="avenir" font-size="10px" fill="#000" opacity="1">Ferry</text>
<text aria-label="310,354,65,76" text-anchor="start" x="310.0" y="75.0" font-family="avenir" font-size="10px" fill="#000" opacity="1">coherent</text>
<text aria-label="310,354,81,92" text-anchor="start" x="310.0" y="91.0" font-family="avenir" font-size="10px" fill="#000" opacity="1">incubate</text>
<text aria-label="310,348,97,108" text-anchor="start" x="310.0" y="107.0" font-family="avenir" font-size="10px" fill="#000" opacity="1">instead</text>
<text aria-label="310,348,113,124" text-anchor="start" x="310.0" y="123.0" font-family="avenir" font-size="10px" fill="#000" opacity="1">invoice</text>
<text aria-label="310,332,129,140" text-anchor="start" x="310.0" y="139.0" font-family="avenir" font-size="10px" fill="#000" opacity="1">mole</text>
<text aria-label="310,332,145,156" text-anchor="start" x="310.0" y="155.0" font-family="avenir" font-size="10px" fill="#000" opacity="1">than</text>
<text aria-label="294,336,32,44" text-anchor="start" x="294.0" y="43.0" font-family="avenir" font-size="11px" font-weight="bold" fill="#000" opacity="1">hacking</text>
</svg>