<svg xmlns="http://www.w3.org/2000/svg" xmlns:xlink="http://www.w3.org/1999/xlink" version="1.1" class="marks" width="512" height="270" viewBox="0 0 512 270" style="background-color: rgb(255, 255, 255);">
<text aria-label="33,176,0,26" text-anchor="middle" x="105.0" y="25.0" font-family="serif" font-size="25px" font-weight="bold" fill="#000" opacity="1">lime Gender</text>
<path aria-label="Toney: 152; Fantastic Doyle EXE: Concrete" role="graphics-symbol" aria-roledescription="arc mark"  d="M169.57760319653167,172.14096440038327A75,75,0,0,0,179.9648479176349,131.70400856145523L105.0,134.0Z" fill="#d5bb4e" stroke="white" stroke-width="4"/>
<path aria-label="Toney: 463; Fantastic Doyle EXE: Pickup" role="graphics-symbol" aria-roledescription="arc mark"  d="M30.75441538302897,123.38900735632174A75,75,0,0,0,105.41751606384122,208.99883785990576L105.0,134.0Z" fill="#db48dd" stroke="white" stroke-width="4"/>
<path aria-label="Toney: 9; Fantastic Doyle EXE: transform" role="graphics-symbol" aria-roledescription="arc mark"  d="M104.99999999999999,59.0A75,75,0,0,0,102.49535645917865,59.041833261922534L105.0,134.0Z" fill="#4a0bce" stroke="white" stroke-width="4"/>
<path aria-label="Toney: 207; Fantastic Doyle EXE: Fish" role="graphics-symbol" aria-roledescription="arc mark"  d="M124.93743070004992,206.30144436372422A75,75,0,0,0,169.57760319653167,172.14096440038327L105.0,134.0Z" fill="#c203cd" stroke="white" stroke-width="4"/>
<path aria-label="Toney: 287; Fantastic Doyle EXE: copy" role="graphics-symbol" aria-roledescription="arc mark"  d="M78.31956887075128,63.90610158681845A75,75,0,0,0,30.75441538302897,123.38900735632174L105.0,134.0Z" fill="#beafc9" stroke="white" stroke-width="4"/>
<path aria-label="Toney: 38; Fantastic Doyle EXE: Granite" role="graphics-symbol" aria-roledescription="arc mark"  d="M114.57670224695444,208.38606572519598A75,75,0,0,0,124.93743070004992,206.30144436372422L105.0,134.0Z" fill="#a3efb7" stroke="white" stroke-width="4"/>
<path aria-label="Toney: 33; Fantastic Doyle EXE: Handmade" role="graphics-symbol" aria-roledescription="arc mark"  d="M105.41751606384122,208.99883785990576A75,75,0,0,0,114.57670224695444,208.38606572519598L105.0,134.0Z" fill="#cce4ab" stroke="white" stroke-width="4"/>
<path aria-label="Toney: 89; Fantastic Doyle EXE: female" role="graphics-symbol" aria-roledescription="arc mark"  d="M102.49535645917865,59.041833261922534A75,75,0,0,0,78.31956887075128,63.90610158681845L105.0,134.0Z" fill="#cb42f5" stroke="white" stroke-width="4"/>
<path aria-label="Toney: 415; Fantastic Doyle EXE: 24" role="graphics-symbol" aria-roledescription="arc mark"  d="M179.9648479176349,131.70400856145523A75,75,0,0,0,105.0,59.0L105.0,134.0Z" fill="#443a51" stroke="white" stroke-width="4"/>
<path  d="M16.0,258.25A5,5,0,1,1,6.0,258.25A5,5,0,1,1,16.0,258.25" fill="#443a51" stroke="white" stroke-width="1.5" opacity="1"/>
<path  d="M53.0,258.25A5,5,0,1,1,43.0,258.25A5,5,0,1,1,53.0,258.25" fill="#d5bb4e" stroke="white" stroke-width="1.5" opacity="1"/>
<path  d="M120.0,258.25A5,5,0,1,1,110.0,258.25A5,5,0,1,1,120.0,258.25" fill="#c203cd" stroke="white" stroke-width="1.5" opacity="1"/>
<path  d="M167.0,258.25A5,5,0,1,1,157.0,258.25A5,5,0,1,1,167.0,258.25" fill="#a3efb7" stroke="white" stroke-width="1.5" opacity="1"/>
<path  d="M229.0,258.25A5,5,0,1,1,219.0,258.25A5,5,0,1,1,229.0,258.25" fill="#cce4ab" stroke="white" stroke-width="1.5" opacity="1"/>
<path  d="M296.0,258.25A5,5,0,1,1,286.0,258.25A5,5,0,1,1,296.0,258.25" fill="#db48dd" stroke="white" stroke-width="1.5" opacity="1"/>
<path  d="M353.0,258.25A5,5,0,1,1,343.0,258.25A5,5,0,1,1,353.0,258.25" fill="#beafc9" stroke="white" stroke-width="1.5" opacity="1"/>
<path  d="M400.0,258.25A5,5,0,1,1,390.0,258.25A5,5,0,1,1,400.0,258.25" fill="#cb42f5" stroke="white" stroke-width="1.5" opacity="1"/>
<path  d="M457.0,258.25A5,5,0,1,1,447.0,258.25A5,5,0,1,1,457.0,258.25" fill="#4a0bce" stroke="white" stroke-width="1.5" opacity="1"/>
<text aria-label="21,32,251,262" text-anchor="start" x="21.0" y="261.25" font-family="serif" font-size="10px" fill="#000" opacity="1">24</text>
<text aria-label="58,102,251,262" text-anchor="start" x="58.0" y="261.25" font-family="serif" font-size="10px" fill="#000" opacity="1">Concrete</text>
<text aria-label="125,147,251,262" text-anchor="start" x="125.0" y="261.25" font-family="serif" font-size="10px" fill="#000" opacity="1">Fish</text>
<text aria-label="172,210,251,262" text-anchor="start" x="172.0" y="261.25" font-family="serif" font-size="10px" fill="#000" opacity="1">Granite</text>
<text aria-label="234,278,251,262" text-anchor="start" x="234.0" y="261.25" font-family="serif" font-size="10px" fill="#000" opacity="1">Handmade</text>
<text aria-label="301,334,251,262" text-anchor="start" x="301.0" y="261.25" font-family="serif" font-size="10px" fill="#000" opacity="1">Pickup</text>
<text aria-label="358,380,251,262" text-anchor="start" x="358.0" y="261.25" font-family="serif" font-size="10px" fill="#000" opacity="1">copy</text>
<text aria-label="405,438,251,262" text-anchor="start" x="405.0" y="261.25" font-family="serif" font-size="10px" fill="#000" opacity="1">female</text>
<text aria-label="462,511,251,262" text-anchor="start" x="462.0" y="261.25" font-family="serif" font-size="10px" fill="#000" opacity="1">transform</text>
</svg>