<svg xmlns="http://www.w3.org/2000/svg" xmlns:xlink="http://www.w3.org/1999/xlink" version="1.1" class="marks" width="210" height="270" viewBox="0 0 210 270" style="background-color: rgb(255, 255, 255);">
<text aria-label="46,163,0,26" text-anchor="middle" x="105.0" y="25.0" font-family="avenir" font-size="25px" font-weight="bold" fill="#000" opacity="1">Neptunium</text>
<path aria-label="Pinellas: 160; Helium Audrey skeletal: however" role="graphics-symbol" aria-roledescription="arc mark"  d="M164.7834101164781,210.28734784512096A75,75,0,0,0,161.77601804239941,115.99506376650271L105.0,165.0Z" fill="#72a4c1" stroke="black" stroke-width="0"/>
<path aria-label="Pinellas: 101; Helium Audrey skeletal: Borders" role="graphics-symbol" aria-roledescription="arc mark"  d="M161.77601804239941,115.99506376650271A75,75,0,0,0,105.0,90.0L105.0,165.0Z" fill="#7d9bfa" stroke="black" stroke-width="0"/>
<path aria-label="Pinellas: 478; Helium Audrey skeletal: neatly" role="graphics-symbol" aria-roledescription="arc mark"  d="M104.99999999999999,90.0A75,75,0,1,0,164.7834101164781,210.28734784512096L105.0,165.0Z" fill="#7a09ed" stroke="black" stroke-width="0"/>
<path  d="M16.0,40.25A5,5,0,1,1,6.0,40.25A5,5,0,1,1,16.0,40.25" fill="#7d9bfa" stroke="black" stroke-width="1.5" opacity="1"/>
<path  d="M80.0,40.25A5,5,0,1,1,70.0,40.25A5,5,0,1,1,80.0,40.25" fill="#72a4c1" stroke="black" stroke-width="1.5" opacity="1"/>
<path  d="M148.0,40.25A5,5,0,1,1,138.0,40.25A5,5,0,1,1,148.0,40.25" fill="#7a09ed" stroke="black" stroke-width="1.5" opacity="1"/>
<text aria-label="21,59,33,44" text-anchor="start" x="21.0" y="43.25" font-family="avenir" font-size="10px" fill="#000" opacity="1">Borders</text>
<text aria-label="85,123,33,44" text-anchor="start" x="85.0" y="43.25" font-family="avenir" font-size="10px" fill="#000" opacity="1">however</text>
<text aria-label="153,186,33,44" text-anchor="start" x="153.0" y="43.25" font-family="avenir" font-size="10px" fill="#000" opacity="1">neatly</text>
</svg>