<svg xmlns="http://www.w3.org/2000/svg" xmlns:xlink="http://www.w3.org/1999/xlink" version="1.1" class="marks" width="329" height="239" viewBox="0 0 329 239" style="background-color: rgb(255, 255, 255);">
<text aria-label="5,213,0,26" text-anchor="start" x="5.0" y="25.0" font-family="Balto" font-size="25px" font-weight="bold" fill="#000" opacity="1">salmon Northeast</text>
<path aria-label="Bedfordshire East: 343; deliverables plum: Fresh" role="graphics-symbol" aria-roledescription="arc mark"  d="M286.09960550095644,95.06106608262428A75,75,0,0,0,263.06081046452414,71.23846843809159L249.9213511158764,91.32215853790228A51,51,0,0,1,265.5877317406504,107.5215249361845Z" fill="#bacb3f" stroke="white" stroke-width="0"/>
<path aria-label="Bedfordshire East: 373; deliverables plum: olive" role="graphics-symbol" aria-roledescription="arc mark"  d="M167.78365307571215,82.1773435051303A75,75,0,0,0,149.88586154350332,113.39536375770673L172.96238584958226,119.98884735524058A51,51,0,0,1,185.13288409148424,98.7605935834886Z" fill="#c5e68b" stroke="white" stroke-width="0"/>
<path aria-label="Bedfordshire East: 446; deliverables plum: Androgyne" role="graphics-symbol" aria-roledescription="arc mark"  d="M263.06081046452414,71.23846843809159A75,75,0,0,0,222.0,59.0L222.0,83.0A51,51,0,0,1,249.9213511158764,91.32215853790228Z" fill="#6c8148" stroke="white" stroke-width="0"/>
<path aria-label="Bedfordshire East: 712; deliverables plum: Kids" role="graphics-symbol" aria-roledescription="arc mark"  d="M291.67822669741105,161.74787783424517A75,75,0,0,0,286.09960550095644,95.06106608262428L265.5877317406504,107.5215249361845A51,51,0,0,1,269.3811941542395,152.8685569272867Z" fill="#723bda" stroke="white" stroke-width="0"/>
<path aria-label="Bedfordshire East: 319; deliverables plum: Rock" role="graphics-symbol" aria-roledescription="arc mark"  d="M245.69914946434898,205.15722250528364A75,75,0,0,0,272.3426667433857,189.59330809696803L256.23301338550226,171.80344950593826A51,51,0,0,1,238.11542163575731,182.38691130359288Z" fill="#28ded1" stroke="white" stroke-width="0"/>
<path aria-label="Bedfordshire East: 713; deliverables plum: Southeast" role="graphics-symbol" aria-roledescription="arc mark"  d="M179.36277019653198,195.70143138279906A75,75,0,0,0,245.69914946434898,205.15722250528364L238.11542163575731,182.38691130359288A51,51,0,0,1,193.00668373364175,175.95697334030336Z" fill="#63eceb" stroke="white" stroke-width="0"/>
<path aria-label="Bedfordshire East: 270; deliverables plum: illo" role="graphics-symbol" aria-roledescription="arc mark"  d="M157.77428009379645,172.73056806360947A75,75,0,0,0,174.9911330876644,192.43942531902857L190.0339704996118,173.73880921693944A51,51,0,0,1,178.32651046378157,160.33678628325444Z" fill="#d1acb6" stroke="white" stroke-width="0"/>
<path aria-label="Bedfordshire East: 351; deliverables plum: Northwest" role="graphics-symbol" aria-roledescription="arc mark"  d="M272.3426667433857,189.59330809696803A75,75,0,0,0,291.67822669741105,161.74787783424517L269.3811941542395,152.8685569272867A51,51,0,0,1,256.23301338550226,171.80344950593826Z" fill="#cfcfe6" stroke="white" stroke-width="0"/>
<path aria-label="Bedfordshire East: 56; deliverables plum: candela" role="graphics-symbol" aria-roledescription="arc mark"  d="M174.9911330876644,192.43942531902857A75,75,0,0,0,179.36277019653198,195.70143138279906L193.00668373364175,175.95697334030336A51,51,0,0,1,190.0339704996118,173.73880921693944Z" fill="#a20bbb" stroke="white" stroke-width="0"/>
<path aria-label="Bedfordshire East: 622; deliverables plum: payment" role="graphics-symbol" aria-roledescription="arc mark"  d="M222.0,59.0A75,75,0,0,0,167.78365307571215,82.1773435051303L185.13288409148424,98.7605935834886A51,51,0,0,1,222.0,83.0Z" fill="#3e0759" stroke="white" stroke-width="0"/>
<path aria-label="Bedfordshire East: 632; deliverables plum: invoice" role="graphics-symbol" aria-roledescription="arc mark"  d="M149.88586154350332,113.39536375770673A75,75,0,0,0,157.77428009379645,172.73056806360947L178.32651046378157,160.33678628325444A51,51,0,0,1,172.96238584958226,119.98884735524058Z" fill="#b8abe0" stroke="white" stroke-width="0"/>
<text aria-label="276,297,62,76" role="graphics-symbol" aria-roledescription="text mark" text-anchor="middle" x="286.6949961592381" y="75.43357552204083" font-family="Balto" font-size="13px" fill="#bacb3f" opacity="1">343</text>
<text aria-label="133,154,80,94" role="graphics-symbol" aria-roledescription="text mark" text-anchor="middle" x="143.92167857200974" y="93.2364464883826" font-family="Balto" font-size="13px" fill="#c5e68b" opacity="1">373</text>
<text aria-label="237,258,38,52" role="graphics-symbol" aria-roledescription="text mark" text-anchor="middle" x="247.70753383070704" y="51.74965099002176" font-family="Balto" font-size="13px" fill="#6c8148" opacity="1">446</text>
<text aria-label="301,322,117,131" role="graphics-symbol" aria-roledescription="text mark" text-anchor="middle" x="311.68673329843523" y="130.49734245381345" font-family="Balto" font-size="13px" fill="#723bda" opacity="1">712</text>
<text aria-label="256,277,202,216" role="graphics-symbol" aria-roledescription="text mark" text-anchor="middle" x="267.3959618518846" y="215.71233266053878" font-family="Balto" font-size="13px" fill="#28ded1" opacity="1">319</text>
<text aria-label="198,219,214,228" role="graphics-symbol" aria-roledescription="text mark" text-anchor="middle" x="209.299502601635" y="227.09936793173182" font-family="Balto" font-size="13px" fill="#63eceb" opacity="1">713</text>
<text aria-label="143,164,184,198" role="graphics-symbol" aria-roledescription="text mark" text-anchor="middle" x="154.21972226936492" y="197.21008318485943" font-family="Balto" font-size="13px" fill="#d1acb6" opacity="1">270</text>
<text aria-label="285,306,176,190" role="graphics-symbol" aria-roledescription="text mark" text-anchor="middle" x="295.92521779192515" y="189.3328566750033" font-family="Balto" font-size="13px" fill="#cfcfe6" opacity="1">351</text>
<text aria-label="161,175,197,211" role="graphics-symbol" aria-roledescription="text mark" text-anchor="middle" x="168.1767447809207" y="210.1322202460305" font-family="Balto" font-size="13px" fill="#a20bbb" opacity="1">56</text>
<text aria-label="176,197,42,56" role="graphics-symbol" aria-roledescription="text mark" text-anchor="middle" x="186.6223721926267" y="55.2447980443346" font-family="Balto" font-size="13px" fill="#3e0759" opacity="1">622</text>
<text aria-label="122,143,136,150" role="graphics-symbol" aria-roledescription="text mark" text-anchor="middle" x="132.78497636934472" y="149.86084139433706" font-family="Balto" font-size="13px" fill="#b8abe0" opacity="1">632</text>
<path  d="M16.0,56.0A5,5,0,1,1,6.0,56.0A5,5,0,1,1,16.0,56.0" fill="#6c8148" stroke="white" stroke-width="1.5" opacity="1"/>
<path  d="M16.0,72.0A5,5,0,1,1,6.0,72.0A5,5,0,1,1,16.0,72.0" fill="#bacb3f" stroke="white" stroke-width="1.5" opacity="1"/>
<path  d="M16.0,88.0A5,5,0,1,1,6.0,88.0A5,5,0,1,1,16.0,88.0" fill="#723bda" stroke="white" stroke-width="1.5" opacity="1"/>
<path  d="M16.0,104.0A5,5,0,1,1,6.0,104.0A5,5,0,1,1,16.0,104.0" fill="#cfcfe6" stroke="white" stroke-width="1.5" opacity="1"/>
<path  d="M16.0,120.0A5,5,0,1,1,6.0,120.0A5,5,0,1,1,16.0,120.0" fill="#28ded1" stroke="white" stroke-width="1.5" opacity="1"/>
<path  d="M16.0,136.0A5,5,0,1,1,6.0,136.0A5,5,0,1,1,16.0,136.0" fill="#63eceb" stroke="white" stroke-width="1.5" opacity="1"/>
<path  d="M16.0,152.0A5,5,0,1,1,6.0,152.0A5,5,0,1,1,16.0,152.0" fill="#a20bbb" stroke="white" stroke-width="1.5" opacity="1"/>
<path  d="M16.0,168.0A5,5,0,1,1,6.0,168.0A5,5,0,1,1,16.0,168.0" fill="#d1acb6" stroke="white" stroke-width="1.5" opacity="1"/>
<path  d="M16.0,184.0A5,5,0,1,1,6.0,184.0A5,5,0,1,1,16.0,184.0" fill="#b8abe0" stroke="white" stroke-width="1.5" opacity="1"/>
<path  d="M16.0,200.0A5,5,0,1,1,6.0,200.0A5,5,0,1,1,16.0,200.0" fill="#c5e68b" stroke="white" stroke-width="1.5" opacity="1"/>
<path  d="M16.0,216.0A5,5,0,1,1,6.0,216.0A5,5,0,1,1,16.0,216.0" fill="#3e0759" stroke="white" stroke-width="1.5" opacity="1"/>
<text aria-label="21,70,49,60" text-anchor="start" x="21.0" y="59.0" font-family="Balto" font-size="10px" fill="#000" opacity="1">Androgyne</text>
<text aria-label="21,48,65,76" text-anchor="start" x="21.0" y="75.0" font-family="Balto" font-size="10px" fill="#000" opacity="1">Fresh</text>
<text aria-label="21,43,81,92" text-anchor="start" x="21.0" y="91.0" font-family="Balto" font-size="10px" fill="#000" opacity="1">Kids</text>
<text aria-label="21,70,97,108" text-anchor="start" x="21.0" y="107.0" font-family="Balto" font-size="10px" fill="#000" opacity="1">Northwest</text>
<text aria-label="21,43,113,124" text-anchor="start" x="21.0" y="123.0" font-family="Balto" font-size="10px" fill="#000" opacity="1">Rock</text>
<text aria-label="21,70,129,140" text-anchor="start" x="21.0" y="139.0" font-family="Balto" font-size="10px" fill="#000" opacity="1">Southeast</text>
<text aria-label="21,59,145,156" text-anchor="start" x="21.0" y="155.0" font-family="Balto" font-size="10px" fill="#000" opacity="1">candela</text>
<text aria-label="21,43,161,172" text-anchor="start" x="21.0" y="171.0" font-family="Balto" font-size="10px" fill="#000" opacity="1">illo</text>
<text aria-label="21,59,177,188" text-anchor="start" x="21.0" y="187.0" font-family="Balto" font-size="10px" fill="#000" opacity="1">invoice</text>
<text aria-label="21,48,193,204" text-anchor="start" x="21.0" y="203.0" font-family="Balto" font-size="10px" fill="#000" opacity="1">olive</text>
<text aria-label="21,59,209,220" text-anchor="start" x="21.0" y="219.0" font-family="Balto" font-size="10px" fill="#000" opacity="1">payment</text>
<text aria-label="5,107,32,44" text-anchor="start" x="5.0" y="43.0" font-family="Balto" font-size="11px" font-weight="bold" fill="#000" opacity="1">deliverables plum</text>
</svg>