<svg xmlns="http://www.w3.org/2000/svg" xmlns:xlink="http://www.w3.org/1999/xlink" version="1.1" class="marks" width="320" height="239" viewBox="0 0 320 239" style="background-color: rgb(255, 255, 255);">
<text aria-label="5,161,0,26" text-anchor="start" x="5.0" y="25.0" font-family="monospace" font-size="25px" font-weight="bold" fill="#000" opacity="1">blue Bicycle</text>
<path aria-label="purple Borders: 61; leading transmit: ick" role="graphics-symbol" aria-roledescription="arc mark"  d="M144.1017800058071,158.46308242341968A75,75,0,0,0,158.26310010115864,183.05022109908228L215.0,134.0Z" fill="#22aeda" stroke="white" stroke-width="0"/>
<path aria-label="purple Borders: 78; leading transmit: payment" role="graphics-symbol" aria-roledescription="arc mark"  d="M140.89252257943474,122.46389188849152A75,75,0,0,0,144.1017800058071,158.46308242341968L215.0,134.0Z" fill="#879ece" stroke="white" stroke-width="0"/>
<path aria-label="purple Borders: 63; leading transmit: red" role="graphics-symbol" aria-roledescription="arc mark"  d="M171.56217721642986,72.85954243037467A75,75,0,0,0,151.45570373115595,94.1612950549673L215.0,134.0Z" fill="#19295f" stroke="white" stroke-width="0"/>
<path aria-label="purple Borders: 103; leading transmit: hertz" role="graphics-symbol" aria-roledescription="arc mark"  d="M158.26310010115864,183.05022109908228A75,75,0,0,0,198.9796687810636,207.26901792460148L215.0,134.0Z" fill="#4a0aa3" stroke="white" stroke-width="0"/>
<path aria-label="purple Borders: 65; leading transmit: radical" role="graphics-symbol" aria-roledescription="arc mark"  d="M151.45570373115595,94.1612950549673A75,75,0,0,0,140.89252257943474,122.46389188849152L215.0,134.0Z" fill="#8a087d" stroke="white" stroke-width="0"/>
<path aria-label="purple Borders: 90; leading transmit: Southwest" role="graphics-symbol" aria-roledescription="arc mark"  d="M284.5017205573875,105.81293134143215A75,75,0,0,0,258.8184611816172,73.13176148700283L215.0,134.0Z" fill="#9bfdae" stroke="white" stroke-width="0"/>
<path aria-label="purple Borders: 99; leading transmit: square" role="graphics-symbol" aria-roledescription="arc mark"  d="M215.0,59.0A75,75,0,0,0,171.56217721642986,72.85954243037467L215.0,134.0Z" fill="#ed6751" stroke="white" stroke-width="0"/>
<path aria-label="purple Borders: 127; leading transmit: Tuna" role="graphics-symbol" aria-roledescription="arc mark"  d="M283.8696399773586,163.6980250082225A75,75,0,0,0,284.5017205573875,105.81293134143215L215.0,134.0Z" fill="#60f7ed" stroke="white" stroke-width="0"/>
<path aria-label="purple Borders: 109; leading transmit: compelling" role="graphics-symbol" aria-roledescription="arc mark"  d="M198.9796687810636,207.26901792460148A75,75,0,0,0,248.62121186730752,201.0418832713821L215.0,134.0Z" fill="#eb7fa6" stroke="white" stroke-width="0"/>
<path aria-label="purple Borders: 112; leading transmit: Unbranded" role="graphics-symbol" aria-roledescription="arc mark"  d="M248.62121186730752,201.0418832713821A75,75,0,0,0,283.8696399773586,163.6980250082225L215.0,134.0Z" fill="#72fff2" stroke="white" stroke-width="0"/>
<path aria-label="purple Borders: 100; leading transmit: B2C" role="graphics-symbol" aria-roledescription="arc mark"  d="M258.8184611816172,73.13176148700283A75,75,0,0,0,215.0,59.0L215.0,134.0Z" fill="#a611d4" stroke="white" stroke-width="0"/>
<path  d="M16.0,56.0A5,5,0,1,1,6.0,56.0A5,5,0,1,1,16.0,56.0" fill="#a611d4" stroke="white" stroke-width="1.5" opacity="1"/>
<path  d="M16.0,72.0A5,5,0,1,1,6.0,72.0A5,5,0,1,1,16.0,72.0" fill="#9bfdae" stroke="white" stroke-width="1.5" opacity="1"/>
<path  d="M16.0,88.0A5,5,0,1,1,6.0,88.0A5,5,0,1,1,16.0,88.0" fill="#60f7ed" stroke="white" stroke-width="1.5" opacity="1"/>
<path  d="M16.0,104.0A5,5,0,1,1,6.0,104.0A5,5,0,1,1,16.0,104.0" fill="#72fff2" stroke="white" stroke-width="1.5" opacity="1"/>
<path  d="M16.0,120.0A5,5,0,1,1,6.0,120.0A5,5,0,1,1,16.0,120.0" fill="#eb7fa6" stroke="white" stroke-width="1.5" opacity="1"/>
<path  d="M16.0,136.0A5,5,0,1,1,6.0,136.0A5,5,0,1,1,16.0,136.0" fill="#4a0aa3" stroke="white" stroke-width="1.5" opacity="1"/>
<path  d="M16.0,152.0A5,5,0,1,1,6.0,152.0A5,5,0,1,1,16.0,152.0" fill="#22aeda" stroke="white" stroke-width="1.5" opacity="1"/>
<path  d="M16.0,168.0A5,5,0,1,1,6.0,168.0A5,5,0,1,1,16.0,168.0" fill="#879ece" stroke="white" stroke-width="1.5" opacity="1"/>
<path  d="M16.0,184.0A5,5,0,1,1,6.0,184.0A5,5,0,1,1,16.0,184.0" fill="#8a087d" stroke="white" stroke-width="1.5" opacity="1"/>
<path  d="M16.0,200.0A5,5,0,1,1,6.0,200.0A5,5,0,1,1,16.0,200.0" fill="#19295f" stroke="white" stroke-width="1.5" opacity="1"/>
<path  d="M16.0,216.0A5,5,0,1,1,6.0,216.0A5,5,0,1,1,16.0,216.0" fill="#ed6751" stroke="white" stroke-width="1.5" opacity="1"/>
<text aria-label="21,37,49,60" text-anchor="start" x="21.0" y="59.0" font-family="monospace" font-size="10px" fill="#000" opacity="1">B2C</text>
<text aria-label="21,70,65,76" text-anchor="start" x="21.0" y="75.0" font-family="monospace" font-size="10px" fill="#000" opacity="1">Southwest</text>
<text aria-label="21,43,81,92" text-anchor="start" x="21.0" y="91.0" font-family="monospace" font-size="10px" fill="#000" opacity="1">Tuna</text>
<text aria-label="21,70,97,108" text-anchor="start" x="21.0" y="107.0" font-family="monospace" font-size="10px" fill="#000" opacity="1">Unbranded</text>
<text aria-label="21,76,113,124" text-anchor="start" x="21.0" y="123.0" font-family="monospace" font-size="10px" fill="#000" opacity="1">compelling</text>
<text aria-label="21,48,129,140" text-anchor="start" x="21.0" y="139.0" font-family="monospace" font-size="10px" fill="#000" opacity="1">hertz</text>
<text aria-label="21,37,145,156" text-anchor="start" x="21.0" y="155.0" font-family="monospace" font-size="10px" fill="#000" opacity="1">ick</text>
<text aria-label="21,59,161,172" text-anchor="start" x="21.0" y="171.0" font-family="monospace" font-size="10px" fill="#000" opacity="1">payment</text>
<text aria-label="21,59,177,188" text-anchor="start" x="21.0" y="187.0" font-family="monospace" font-size="10px" fill="#000" opacity="1">radical</text>
<text aria-label="21,37,193,204" text-anchor="start" x="21.0" y="203.0" font-family="monospace" font-size="10px" fill="#000" opacity="1">red</text>
<text aria-label="21,54,209,220" text-anchor="start" x="21.0" y="219.0" font-family="monospace" font-size="10px" fill="#000" opacity="1">square</text>
<text aria-label="5,101,32,44" text-anchor="start" x="5.0" y="43.0" font-family="monospace" font-size="11px" font-weight="bold" fill="#000" opacity="1">leading transmit</text>
</svg>