<svg xmlns="http://www.w3.org/2000/svg" xmlns:xlink="http://www.w3.org/1999/xlink" version="1.1" class="marks" width="289" height="239" viewBox="0 0 289 239" style="background-color: rgb(255, 255, 255);">
<text aria-label="106,262,0,26" text-anchor="middle" x="184.0" y="25.0" font-family="monospace" font-size="25px" font-weight="bold" fill="#000" opacity="1">Maserati red</text>
<path aria-label="Northwest bypass: 239; withdrawal Buckinghamshire: greedily" role="graphics-symbol" aria-roledescription="arc mark"  d="M160.62819820180334,62.73458846883847A75,75,0,0,0,119.12440697068415,96.36813279819106L144.20963627535295,110.91912144955718A46,46,0,0,1,169.66529489710604,90.29054759422093Z" fill="#dabd0b" stroke="black" stroke-width="2"/>
<path aria-label="Northwest bypass: 308; withdrawal Buckinghamshire: Auto" role="graphics-symbol" aria-roledescription="arc mark"  d="M247.81930464951847,94.60334590283145A75,75,0,0,0,189.9356926261333,59.23525193616936L187.64055814402843,88.14428785418389A46,46,0,0,1,223.14250685170467,109.83671882040329Z" fill="#1ac082" stroke="black" stroke-width="2"/>
<path aria-label="Northwest bypass: 142; withdrawal Buckinghamshire: Electric" role="graphics-symbol" aria-roledescription="arc mark"  d="M239.28507708402344,184.680965379653A75,75,0,0,0,255.4413843943379,156.828241189817L227.81738242852722,148.00132126308776A46,46,0,0,1,217.90818061153436,165.08432543285383Z" fill="#a6affd" stroke="black" stroke-width="2"/>
<path aria-label="Northwest bypass: 364; withdrawal Buckinghamshire: bypassing" role="graphics-symbol" aria-roledescription="arc mark"  d="M119.12440697068415,96.36813279819106A75,75,0,0,0,121.41060332722691,175.3227228548442L145.61183670736585,159.3446033509711A46,46,0,0,1,144.20963627535295,110.91912144955718Z" fill="#6fe9ed" stroke="black" stroke-width="2"/>
<path aria-label="Northwest bypass: 283; withdrawal Buckinghamshire: Bronze" role="graphics-symbol" aria-roledescription="arc mark"  d="M255.4413843943379,156.828241189817A75,75,0,0,0,247.81930464951847,94.60334590283145L223.14250685170467,109.83671882040329A46,46,0,0,1,227.81738242852722,148.00132126308776Z" fill="#0cf871" stroke="black" stroke-width="2"/>
<path aria-label="Northwest bypass: 104; withdrawal Buckinghamshire: neat" role="graphics-symbol" aria-roledescription="arc mark"  d="M184.0,59.0A75,75,0,0,0,160.62819820180334,62.73458846883847L169.66529489710604,90.29054759422093A46,46,0,0,1,184.0,88.0Z" fill="#60b8db" stroke="black" stroke-width="2"/>
<path aria-label="Northwest bypass: 442; withdrawal Buckinghamshire: Hybrid" role="graphics-symbol" aria-roledescription="arc mark"  d="M146.86343109627032,199.16038098460245A75,75,0,0,0,239.28507708402344,184.680965379653L217.90818061153436,165.08432543285383A46,46,0,0,1,161.22290440571246,173.96503367055615Z" fill="#b35aed" stroke="black" stroke-width="2"/>
<path aria-label="Northwest bypass: 154; withdrawal Buckinghamshire: South" role="graphics-symbol" aria-roledescription="arc mark"  d="M121.41060332722691,175.3227228548442A75,75,0,0,0,146.86343109627032,199.16038098460245L161.22290440571246,173.96503367055615A46,46,0,0,1,145.61183670736585,159.3446033509711Z" fill="#a3d0c2" stroke="black" stroke-width="2"/>
<path aria-label="Northwest bypass: 26; withdrawal Buckinghamshire: Account" role="graphics-symbol" aria-roledescription="arc mark"  d="M189.9356926261333,59.23525193616936A75,75,0,0,0,184.0,59.0L184.0,88.0A46,46,0,0,1,187.64055814402843,88.14428785418389Z" fill="#4bb254" stroke="black" stroke-width="2"/>
<text aria-label="120,134,58,67" role="graphics-symbol" aria-roledescription="text mark" text-anchor="middle" x="127.3363036920546" y="66.07700291949052" font-family="monospace" font-size="8px" fill="#dabd0b" opacity="1">239</text>
<text aria-label="224,237,51,60" role="graphics-symbol" aria-roledescription="text mark" text-anchor="middle" x="230.92545383556666" y="59.201550911974124" font-family="monospace" font-size="8px" fill="#1ac082" opacity="1">308</text>
<text aria-label="255,268,173,182" role="graphics-symbol" aria-roledescription="text mark" text-anchor="middle" x="261.85071163517904" y="181.1582406421707" font-family="monospace" font-size="8px" fill="#a6affd" opacity="1">142</text>
<text aria-label="87,100,130,139" role="graphics-symbol" aria-roledescription="text mark" text-anchor="middle" x="94.03770611708256" y="138.60493365051715" font-family="monospace" font-size="8px" fill="#6fe9ed" opacity="1">364</text>
<text aria-label="266,280,117,126" role="graphics-symbol" aria-roledescription="text mark" text-anchor="middle" x="273.33230643991146" y="125.05746710648046" font-family="monospace" font-size="8px" fill="#0cf871" opacity="1">283</text>
<text aria-label="163,176,39,48" role="graphics-symbol" aria-roledescription="text mark" text-anchor="middle" x="169.7990219591298" y="47.12743830246187" font-family="monospace" font-size="8px" fill="#60b8db" opacity="1">104</text>
<text aria-label="191,204,216,225" role="graphics-symbol" aria-roledescription="text mark" text-anchor="middle" x="197.93010614299746" y="224.9154212881254" font-family="monospace" font-size="8px" fill="#b35aed" opacity="1">442</text>
<text aria-label="115,129,193,202" role="graphics-symbol" aria-roledescription="text mark" text-anchor="middle" x="122.47877784130311" y="201.68971931817234" font-family="monospace" font-size="8px" fill="#a3d0c2" opacity="1">154</text>
<text aria-label="183,192,38,47" role="graphics-symbol" aria-roledescription="text mark" text-anchor="middle" x="187.56421163136332" y="46.07060327430827" font-family="monospace" font-size="8px" fill="#4bb254" opacity="1">26</text>
<path  d="M16.0,40.0A5,5,0,1,1,6.0,40.0A5,5,0,1,1,16.0,40.0" fill="#4bb254" stroke="black" stroke-width="1.5" opacity="1"/>
<path  d="M16.0,56.0A5,5,0,1,1,6.0,56.0A5,5,0,1,1,16.0,56.0" fill="#1ac082" stroke="black" stroke-width="1.5" opacity="1"/>
<path  d="M16.0,72.0A5,5,0,1,1,6.0,72.0A5,5,0,1,1,16.0,72.0" fill="#0cf871" stroke="black" stroke-width="1.5" opacity="1"/>
<path  d="M16.0,88.0A5,5,0,1,1,6.0,88.0A5,5,0,1,1,16.0,88.0" fill="#a6affd" stroke="black" stroke-width="1.5" opacity="1"/>
<path  d="M16.0,104.0A5,5,0,1,1,6.0,104.0A5,5,0,1,1,16.0,104.0" fill="#b35aed" stroke="black" stroke-width="1.5" opacity="1"/>
<path  d="M16.0,120.0A5,5,0,1,1,6.0,120.0A5,5,0,1,1,16.0,120.0" fill="#a3d0c2" stroke="black" stroke-width="1.5" opacity="1"/>
<path  d="M16.0,136.0A5,5,0,1,1,6.0,136.0A5,5,0,1,1,16.0,136.0" fill="#6fe9ed" stroke="black" stroke-width="1.5" opacity="1"/>
<path  d="M16.0,152.0A5,5,0,1,1,6.0,152.0A5,5,0,1,1,16.0,152.0" fill="#dabd0b" stroke="black" stroke-width="1.5" opacity="1"/>
<path  d="M16.0,168.0A5,5,0,1,1,6.0,168.0A5,5,0,1,1,16.0,168.0" fill="#60b8db" stroke="black" stroke-width="1.5" opacity="1"/>
<text aria-label="21,59,33,44" text-anchor="start" x="21.0" y="43.0" font-family="monospace" font-size="10px" fill="#000" opacity="1">Account</text>
<text aria-label="21,43,49,60" text-anchor="start" x="21.0" y="59.0" font-family="monospace" font-size="10px" fill="#000" opacity="1">Auto</text>
<text aria-label="21,54,65,76" text-anchor="start" x="21.0" y="75.0" font-family="monospace" font-size="10px" fill="#000" opacity="1">Bronze</text>
<text aria-label="21,65,81,92" text-anchor="start" x="21.0" y="91.0" font-family="monospace" font-size="10px" fill="#000" opacity="1">Electric</text>
<text aria-label="21,54,97,108" text-anchor="start" x="21.0" y="107.0" font-family="monospace" font-size="10px" fill="#000" opacity="1">Hybrid</text>
<text aria-label="21,48,113,124" text-anchor="start" x="21.0" y="123.0" font-family="monospace" font-size="10px" fill="#000" opacity="1">South</text>
<text aria-label="21,70,129,140" text-anchor="start" x="21.0" y="139.0" font-family="monospace" font-size="10px" fill="#000" opacity="1">bypassing</text>
<text aria-label="21,65,145,156" text-anchor="start" x="21.0" y="155.0" font-family="monospace" font-size="10px" fill="#000" opacity="1">greedily</text>
<text aria-label="21,43,161,172" text-anchor="start" x="21.0" y="171.0" font-family="monospace" font-size="10px" fill="#000" opacity="1">neat</text>
</svg>