<svg xmlns="http://www.w3.org/2000/svg" xmlns:xlink="http://www.w3.org/1999/xlink" version="1.1" class="marks" width="210" height="286" viewBox="0 0 210 286" style="background-color: rgb(255, 255, 255);">
<text aria-label="5,109,0,26" text-anchor="start" x="5.0" y="25.0" font-family="serif" font-size="25px" font-weight="bold" fill="#000" opacity="1">Profound</text>
<path aria-label="Trigender Israeli Health: 87; Salad virtual: Electronic" role="graphics-symbol" aria-roledescription="arc mark"  d="M160.1919980562376,130.21768663638625A75,75,0,0,0,105.0,106.0L105.0,144.0A37,37,0,0,1,132.22805237441054,155.94739207395054Z" fill="#6f2bc1" stroke="black" stroke-width="0"/>
<path aria-label="Trigender Israeli Health: 349; Salad virtual: back" role="graphics-symbol" aria-roledescription="arc mark"  d="M41.774919049960594,221.34339027475212A75,75,0,1,0,160.1919980562376,130.21768663638625L132.22805237441054,155.94739207395054A37,37,0,1,1,73.80896006464722,200.90273920221105Z" fill="#ecaa4f" stroke="black" stroke-width="0"/>
<path aria-label="Trigender Israeli Health: 225; Salad virtual: programming" role="graphics-symbol" aria-roledescription="arc mark"  d="M104.99999999999999,106.0A75,75,0,0,0,41.774919049960594,221.34339027475212L73.80896006464722,200.90273920221105A37,37,0,0,1,105.0,144.0Z" fill="#5b1eda" stroke="black" stroke-width="0"/>
<path  d="M16.0,56.25A5,5,0,1,1,6.0,56.25A5,5,0,1,1,16.0,56.25" fill="#6f2bc1" stroke="black" stroke-width="1.5" opacity="1"/>
<path  d="M93.0,56.25A5,5,0,1,1,83.0,56.25A5,5,0,1,1,93.0,56.25" fill="#ecaa4f" stroke="black" stroke-width="1.5" opacity="1"/>
<path  d="M140.0,56.25A5,5,0,1,1,130.0,56.25A5,5,0,1,1,140.0,56.25" fill="#5b1eda" stroke="black" stroke-width="1.5" opacity="1"/>
<text aria-label="21,76,49,60" text-anchor="start" x="21.0" y="59.25" font-family="serif" font-size="10px" fill="#000" opacity="1">Electronic</text>
<text aria-label="98,120,49,60" text-anchor="start" x="98.0" y="59.25" font-family="serif" font-size="10px" fill="#000" opacity="1">back</text>
<text aria-label="145,205,49,60" text-anchor="start" x="145.0" y="59.25" font-family="serif" font-size="10px" fill="#000" opacity="1">programming</text>
<text aria-label="5,83,32,44" text-anchor="start" x="5.0" y="43.0" font-family="serif" font-size="11px" font-weight="bold" fill="#000" opacity="1">Salad virtual</text>
</svg>