<svg xmlns="http://www.w3.org/2000/svg" xmlns:xlink="http://www.w3.org/1999/xlink" version="1.1" class="marks" width="281" height="239" viewBox="0 0 281 239" style="background-color: rgb(255, 255, 255);">
<text aria-label="5,174,0,26" text-anchor="start" x="5.0" y="25.0" font-family="Balto" font-size="25px" font-weight="bold" fill="#000" opacity="1">black Pascale</text>
<path aria-label="Tasty Forward: 49; incentivize hunker Neither: South" role="graphics-symbol" aria-roledescription="arc mark"  d="M139.1323502420613,200.78310165718014A75,75,0,0,0,155.75196749256273,189.21990398066492L126.65417279682677,157.56049236508372A32,32,0,0,1,119.56313610327949,162.4941233737302Z" fill="#1cd9af" stroke="black" stroke-width="2"/>
<path aria-label="Tasty Forward: 182; incentivize hunker Neither: male" role="graphics-symbol" aria-roledescription="arc mark"  d="M33.345141092977826,111.85093241206877A75,75,0,0,0,47.92583561355289,182.65737107149144L80.64835652844923,154.76047832383634A32,32,0,0,1,74.42726019967054,124.54973116248267Z" fill="#a3ba7e" stroke="black" stroke-width="2"/>
<path aria-label="Tasty Forward: 139; incentivize hunker Neither: Steel" role="graphics-symbol" aria-roledescription="arc mark"  d="M83.14810118591964,205.74604182963122A75,75,0,0,0,139.1323502420613,200.78310165718014L119.56313610327949,162.4941233737302A32,32,0,0,1,95.67652317265905,164.611644513976Z" fill="#8fbc2a" stroke="black" stroke-width="2"/>
<path aria-label="Tasty Forward: 230; incentivize hunker Neither: severe" role="graphics-symbol" aria-roledescription="arc mark"  d="M104.99999999999999,59.0A75,75,0,0,0,33.345141092977826,111.85093241206877L74.42726019967054,124.54973116248267A32,32,0,0,1,105.0,102.0Z" fill="#369282" stroke="black" stroke-width="2"/>
<path aria-label="Tasty Forward: 196; incentivize hunker Neither: SCSI" role="graphics-symbol" aria-roledescription="arc mark"  d="M171.2567077963601,98.85674073185936A75,75,0,0,0,105.0,59.0L105.0,102.0A32,32,0,0,1,133.26952865978032,119.00554271226Z" fill="#9057dd" stroke="black" stroke-width="2"/>
<path aria-label="Tasty Forward: 103; incentivize hunker Neither: West" role="graphics-symbol" aria-roledescription="arc mark"  d="M47.92583561355289,182.65737107149144A75,75,0,0,0,83.14810118591964,205.74604182963122L95.67652317265905,164.611644513976A32,32,0,0,1,80.64835652844923,154.76047832383634Z" fill="#a6be8e" stroke="black" stroke-width="2"/>
<path aria-label="Tasty Forward: 238; incentivize hunker Neither: Serbian" role="graphics-symbol" aria-roledescription="arc mark"  d="M155.75196749256273,189.21990398066492A75,75,0,0,0,171.2567077963601,98.85674073185936L133.26952865978032,119.00554271226A32,32,0,0,1,126.65417279682677,157.56049236508372Z" fill="#4dacef" stroke="black" stroke-width="2"/>
<path  d="M234.0,40.0A5,5,0,1,1,224.0,40.0A5,5,0,1,1,234.0,40.0" fill="#9057dd" stroke="black" stroke-width="1.5" opacity="1"/>
<path  d="M234.0,56.0A5,5,0,1,1,224.0,56.0A5,5,0,1,1,234.0,56.0" fill="#4dacef" stroke="black" stroke-width="1.5" opacity="1"/>
<path  d="M234.0,72.0A5,5,0,1,1,224.0,72.0A5,5,0,1,1,234.0,72.0" fill="#1cd9af" stroke="black" stroke-width="1.5" opacity="1"/>
<path  d="M234.0,88.0A5,5,0,1,1,224.0,88.0A5,5,0,1,1,234.0,88.0" fill="#8fbc2a" stroke="black" stroke-width="1.5" opacity="1"/>
<path  d="M234.0,104.0A5,5,0,1,1,224.0,104.0A5,5,0,1,1,234.0,104.0" fill="#a6be8e" stroke="black" stroke-width="1.5" opacity="1"/>
<path  d="M234.0,120.0A5,5,0,1,1,224.0,120.0A5,5,0,1,1,234.0,120.0" fill="#a3ba7e" stroke="black" stroke-width="1.5" opacity="1"/>
<path  d="M234.0,136.0A5,5,0,1,1,224.0,136.0A5,5,0,1,1,234.0,136.0" fill="#369282" stroke="black" stroke-width="1.5" opacity="1"/>
<text aria-label="239,261,33,44" text-anchor="start" x="239.0" y="43.0" font-family="Balto" font-size="10px" fill="#000" opacity="1">SCSI</text>
<text aria-label="239,277,49,60" text-anchor="start" x="239.0" y="59.0" font-family="Balto" font-size="10px" fill="#000" opacity="1">Serbian</text>
<text aria-label="239,266,65,76" text-anchor="start" x="239.0" y="75.0" font-family="Balto" font-size="10px" fill="#000" opacity="1">South</text>
<text aria-label="239,266,81,92" text-anchor="start" x="239.0" y="91.0" font-family="Balto" font-size="10px" fill="#000" opacity="1">Steel</text>
<text aria-label="239,261,97,108" text-anchor="start" x="239.0" y="107.0" font-family="Balto" font-size="10px" fill="#000" opacity="1">West</text>
<text aria-label="239,261,113,124" text-anchor="start" x="239.0" y="123.0" font-family="Balto" font-size="10px" fill="#000" opacity="1">male</text>
<text aria-label="239,272,129,140" text-anchor="start" x="239.0" y="139.0" font-family="Balto" font-size="10px" fill="#000" opacity="1">severe</text>
</svg>