<svg xmlns="http://www.w3.org/2000/svg" xmlns:xlink="http://www.w3.org/1999/xlink" version="1.1" class="marks" width="210" height="286" viewBox="0 0 210 286" style="background-color: rgb(255, 255, 255);">
<text aria-label="5,109,0,26" text-anchor="start" x="5.0" y="25.0" font-family="Balto" font-size="25px" font-weight="bold" fill="#000" opacity="1">indexing</text>
<path aria-label="Northwest: 334; transmitting compressing Associate: bolívar" role="graphics-symbol" aria-roledescription="arc mark"  d="M154.6716503946053,237.19365753424586A75,75,0,0,0,105.0,106.0L105.0,181.0Z" fill="#f4bce7" stroke="black" stroke-width="0"/>
<path aria-label="Northwest: 379; transmitting compressing Associate: for" role="graphics-symbol" aria-roledescription="arc mark"  d="M37.42733490731857,148.45871956618316A75,75,0,0,0,154.6716503946053,237.19365753424586L105.0,181.0Z" fill="#1b2d3a" stroke="black" stroke-width="0"/>
<path aria-label="Northwest: 155; transmitting compressing Associate: rock" role="graphics-symbol" aria-roledescription="arc mark"  d="M104.99999999999999,106.0A75,75,0,0,0,37.42733490731857,148.45871956618316L105.0,181.0Z" fill="#eab79f" stroke="black" stroke-width="0"/>
<text aria-label="183,195,144,152" role="graphics-symbol" aria-roledescription="text mark" text-anchor="middle" x="189.16921947392217" y="151.13242254028833" font-family="Balto" font-size="7px" fill="#f4bce7" opacity="1">334</text>
<text aria-label="44,56,247,255" role="graphics-symbol" aria-roledescription="text mark" text-anchor="middle" x="50.686458450677314" y="254.7637736213056" font-family="Balto" font-size="7px" fill="#1b2d3a" opacity="1">379</text>
<text aria-label="51,63,99,107" role="graphics-symbol" aria-roledescription="text mark" text-anchor="middle" x="57.1171131136197" y="106.79482206945443" font-family="Balto" font-size="7px" fill="#eab79f" opacity="1">155</text>
<path  d="M16.0,56.25A5,5,0,1,1,6.0,56.25A5,5,0,1,1,16.0,56.25" fill="#f4bce7" stroke="black" stroke-width="1.5" opacity="1"/>
<path  d="M76.0,56.25A5,5,0,1,1,66.0,56.25A5,5,0,1,1,76.0,56.25" fill="#1b2d3a" stroke="black" stroke-width="1.5" opacity="1"/>
<path  d="M117.0,56.25A5,5,0,1,1,107.0,56.25A5,5,0,1,1,117.0,56.25" fill="#eab79f" stroke="black" stroke-width="1.5" opacity="1"/>
<text aria-label="21,59,49,60" text-anchor="start" x="21.0" y="59.25" font-family="Balto" font-size="10px" fill="#000" opacity="1">bolívar</text>
<text aria-label="81,97,49,60" text-anchor="start" x="81.0" y="59.25" font-family="Balto" font-size="10px" fill="#000" opacity="1">for</text>
<text aria-label="122,144,49,60" text-anchor="start" x="122.0" y="59.25" font-family="Balto" font-size="10px" fill="#000" opacity="1">rock</text>
<text aria-label="5,179,32,44" text-anchor="start" x="5.0" y="43.0" font-family="Balto" font-size="11px" font-weight="bold" fill="#000" opacity="1">transmitting compressing Ass…</text>
</svg>