<svg xmlns="http://www.w3.org/2000/svg" xmlns:xlink="http://www.w3.org/1999/xlink" version="1.1" class="marks" width="376" height="239" viewBox="0 0 376 239" style="background-color: rgb(255, 255, 255);">
<text aria-label="5,96,0,26" text-anchor="start" x="5.0" y="25.0" font-family="Balto" font-size="25px" font-weight="bold" fill="#000" opacity="1">payment</text>
<path aria-label="Human: 156; Southwest female Country: collaboration" role="graphics-symbol" aria-roledescription="arc mark"  d="M196.273588417822,127.59973343907211A75,75,0,0,0,202.74041823530223,165.07457959986814L237.32527299608245,149.33012593593494A37,37,0,0,1,234.1349702861255,130.84253516327558Z" fill="#decdae" stroke="black" stroke-width="3"/>
<path aria-label="Human: 305; Southwest female Country: Accountability" role="graphics-symbol" aria-roledescription="arc mark"  d="M334.2028082112395,93.62172571526523A75,75,0,0,0,271.0,59.0L271.0,97.0A37,37,0,0,1,302.18005205087815,114.08005135286417Z" fill="#efd3b9" stroke="black" stroke-width="3"/>
<path aria-label="Human: 170; Southwest female Country: Road" role="graphics-symbol" aria-roledescription="arc mark"  d="M306.0555230004721,200.30316966151295A75,75,0,0,0,335.86959485972113,171.6422058696836L303.0023334641291,152.57015489571057A37,37,0,0,1,288.2940580135662,166.70956369967973Z" fill="#cdce05" stroke="black" stroke-width="3"/>
<path aria-label="Human: 189; Southwest female Country: henry" role="graphics-symbol" aria-roledescription="arc mark"  d="M271.0,59.0A75,75,0,0,0,227.3559199134364,73.00660467396798L249.46892049062862,103.90992497249087A37,37,0,0,1,271.0,97.0Z" fill="#b9bfef" stroke="black" stroke-width="3"/>
<path aria-label="Human: 252; Southwest female Country: East" role="graphics-symbol" aria-roledescription="arc mark"  d="M343.4867894474062,153.25267138885945A75,75,0,0,0,334.2028082112395,93.62172571526523L302.18005205087815,114.08005135286417A37,37,0,0,1,306.76014946072036,143.49798455183733Z" fill="#ca90f8" stroke="black" stroke-width="3"/>
<path aria-label="Human: 81; Southwest female Country: RAM" role="graphics-symbol" aria-roledescription="arc mark"  d="M335.86959485972113,171.6422058696836A75,75,0,0,0,343.4867894474062,153.25267138885945L306.76014946072036,143.49798455183733A37,37,0,0,1,303.0023334641291,152.57015489571057Z" fill="#a2ab0f" stroke="black" stroke-width="3"/>
<path aria-label="Human: 156; Southwest female Country: Southwest" role="graphics-symbol" aria-roledescription="arc mark"  d="M269.0285162419779,208.9740838676396A75,75,0,0,0,306.0555230004721,200.30316966151295L288.2940580135662,166.70956369967973A37,37,0,0,1,270.02740134604244,170.98721470803554Z" fill="#e5c595" stroke="black" stroke-width="3"/>
<path aria-label="Human: 340; Southwest female Country: Southwest" role="graphics-symbol" aria-roledescription="arc mark"  d="M202.74041823530223,165.07457959986814A75,75,0,0,0,269.0285162419779,208.9740838676396L270.02740134604244,170.98721470803554A37,37,0,0,1,237.32527299608245,149.33012593593494Z" fill="#e5c595" stroke="black" stroke-width="3"/>
<path aria-label="Human: 263; Southwest female Country: drive" role="graphics-symbol" aria-roledescription="arc mark"  d="M227.3559199134364,73.00660467396798A75,75,0,0,0,196.273588417822,127.59973343907211L234.1349702861255,130.84253516327558A37,37,0,0,1,249.46892049062862,103.90992497249087Z" fill="#e6dd0d" stroke="black" stroke-width="3"/>
<path  d="M16.0,56.0A5,5,0,1,1,6.0,56.0A5,5,0,1,1,16.0,56.0" fill="#efd3b9" stroke="black" stroke-width="1.5" opacity="1"/>
<path  d="M16.0,72.0A5,5,0,1,1,6.0,72.0A5,5,0,1,1,16.0,72.0" fill="#ca90f8" stroke="black" stroke-width="1.5" opacity="1"/>
<path  d="M16.0,88.0A5,5,0,1,1,6.0,88.0A5,5,0,1,1,16.0,88.0" fill="#a2ab0f" stroke="black" stroke-width="1.5" opacity="1"/>
<path  d="M16.0,104.0A5,5,0,1,1,6.0,104.0A5,5,0,1,1,16.0,104.0" fill="#cdce05" stroke="black" stroke-width="1.5" opacity="1"/>
<path  d="M16.0,120.0A5,5,0,1,1,6.0,120.0A5,5,0,1,1,16.0,120.0" fill="#e5c595" stroke="black" stroke-width="1.5" opacity="1"/>
<path  d="M16.0,136.0A5,5,0,1,1,6.0,136.0A5,5,0,1,1,16.0,136.0" fill="#decdae" stroke="black" stroke-width="1.5" opacity="1"/>
<path  d="M16.0,152.0A5,5,0,1,1,6.0,152.0A5,5,0,1,1,16.0,152.0" fill="#e6dd0d" stroke="black" stroke-width="1.5" opacity="1"/>
<path  d="M16.0,168.0A5,5,0,1,1,6.0,168.0A5,5,0,1,1,16.0,168.0" fill="#b9bfef" stroke="black" stroke-width="1.5" opacity="1"/>
<text aria-label="21,98,49,60" text-anchor="start" x="21.0" y="59.0" font-family="Balto" font-size="10px" fill="#000" opacity="1">Accountability</text>
<text aria-label="21,43,65,76" text-anchor="start" x="21.0" y="75.0" font-family="Balto" font-size="10px" fill="#000" opacity="1">East</text>
<text aria-label="21,37,81,92" text-anchor="start" x="21.0" y="91.0" font-family="Balto" font-size="10px" fill="#000" opacity="1">RAM</text>
<text aria-label="21,43,97,108" text-anchor="start" x="21.0" y="107.0" font-family="Balto" font-size="10px" fill="#000" opacity="1">Road</text>
<text aria-label="21,70,113,124" text-anchor="start" x="21.0" y="123.0" font-family="Balto" font-size="10px" fill="#000" opacity="1">Southwest</text>
<text aria-label="21,92,129,140" text-anchor="start" x="21.0" y="139.0" font-family="Balto" font-size="10px" fill="#000" opacity="1">collaboration</text>
<text aria-label="21,48,145,156" text-anchor="start" x="21.0" y="155.0" font-family="Balto" font-size="10px" fill="#000" opacity="1">drive</text>
<text aria-label="21,48,161,172" text-anchor="start" x="21.0" y="171.0" font-family="Balto" font-size="10px" fill="#000" opacity="1">henry</text>
<text aria-label="5,149,32,44" text-anchor="start" x="5.0" y="43.0" font-family="Balto" font-size="11px" font-weight="bold" fill="#000" opacity="1">Southwest female Country</text>
</svg>