<svg xmlns="http://www.w3.org/2000/svg" xmlns:xlink="http://www.w3.org/1999/xlink" version="1.1" class="marks" width="429" height="270" viewBox="0 0 429 270" style="background-color: rgb(255, 255, 255);">
<text aria-label="73,424,0,26" text-anchor="end" x="424.0" y="25.0" font-family="Balto" font-size="25px" font-weight="bold" fill="#000" opacity="1">Security Shilling Southwest</text>
<path aria-label="Illinois: 34; Tucson: ack" role="graphics-symbol" aria-roledescription="arc mark"  d="M30.035318765347284,131.69857275002923A75,75,0,0,0,30.946429839665342,145.87723648448542L75.37857193586613,138.75089459379416A30,30,0,0,1,75.01412750613892,133.07942910001168Z" fill="#edb52a" stroke="black" stroke-width="3"/>
<path aria-label="Illinois: 164; Tucson: Lebanese" role="graphics-symbol" aria-roledescription="arc mark"  d="M30.946429839665342,145.87723648448542A75,75,0,0,0,69.26520789975547,199.9395528764967L90.70608315990219,160.37582115059868A30,30,0,0,1,75.37857193586613,138.75089459379416Z" fill="#df85d8" stroke="black" stroke-width="3"/>
<path aria-label="Illinois: 262; Tucson: foolishly" role="graphics-symbol" aria-roledescription="arc mark"  d="M99.14685960208097,59.22874384175262A75,75,0,0,0,30.035318765347284,131.69857275002923L75.01412750613892,133.07942910001168A30,30,0,0,1,102.65874384083239,104.09149753670104Z" fill="#d8f965" stroke="black" stroke-width="3"/>
<path aria-label="Illinois: 407; Tucson: Buckinghamshire" role="graphics-symbol" aria-roledescription="arc mark"  d="M162.3485826037005,182.33363294173677A75,75,0,0,0,105.0,59.0L105.0,104.0A30,30,0,0,1,127.93943304148019,153.33345317669472Z" fill="#241dfb" stroke="black" stroke-width="3"/>
<path aria-label="Illinois: 14; Tucson: steradian" role="graphics-symbol" aria-roledescription="arc mark"  d="M104.99999999999999,59.0A75,75,0,0,0,99.14685960208097,59.22874384175262L102.65874384083239,104.09149753670104A30,30,0,0,1,105.0,104.0Z" fill="#80bf7a" stroke="black" stroke-width="3"/>
<path aria-label="Illinois: 245; Tucson: Country" role="graphics-symbol" aria-roledescription="arc mark"  d="M69.26520789975547,199.9395528764967A75,75,0,0,0,162.3485826037005,182.33363294173677L127.93943304148019,153.33345317669472A30,30,0,0,1,90.70608315990219,160.37582115059868Z" fill="#e36eb1" stroke="black" stroke-width="3"/>
<text aria-label="8,22,130,144" role="graphics-symbol" aria-roledescription="text mark" text-anchor="middle" x="15.185243130757186" y="143.77143383560812" font-family="Balto" font-size="13px" fill="#edb52a" opacity="1">34</text>
<text aria-label="21,42,177,191" role="graphics-symbol" aria-roledescription="text mark" text-anchor="middle" x="31.57358326221525" y="190.04384041410822" font-family="Balto" font-size="13px" fill="#df85d8" opacity="1">164</text>
<text aria-label="29,50,62,76" role="graphics-symbol" aria-roledescription="text mark" text-anchor="middle" x="39.86918776527912" y="75.88738213820373" font-family="Balto" font-size="13px" fill="#d8f965" opacity="1">262</text>
<text aria-label="176,197,87,101" role="graphics-symbol" aria-roledescription="text mark" text-anchor="middle" x="186.60892217676806" y="100.05288125369445" font-family="Balto" font-size="13px" fill="#241dfb" opacity="1">407</text>
<text aria-label="94,108,35,49" role="graphics-symbol" aria-roledescription="text mark" text-anchor="middle" x="101.48543495512726" y="48.06864933436529" font-family="Balto" font-size="13px" fill="#80bf7a" opacity="1">14</text>
<text aria-label="111,132,213,227" role="graphics-symbol" aria-roledescription="text mark" text-anchor="middle" x="121.72617016544805" y="226.43209390032825" font-family="Balto" font-size="13px" fill="#e36eb1" opacity="1">245</text>
<path  d="M16.0,258.25A5,5,0,1,1,6.0,258.25A5,5,0,1,1,16.0,258.25" fill="#241dfb" stroke="black" stroke-width="1.5" opacity="1"/>
<path  d="M125.0,258.25A5,5,0,1,1,115.0,258.25A5,5,0,1,1,125.0,258.25" fill="#e36eb1" stroke="black" stroke-width="1.5" opacity="1"/>
<path  d="M191.0,258.25A5,5,0,1,1,181.0,258.25A5,5,0,1,1,191.0,258.25" fill="#df85d8" stroke="black" stroke-width="1.5" opacity="1"/>
<path  d="M263.0,258.25A5,5,0,1,1,253.0,258.25A5,5,0,1,1,263.0,258.25" fill="#edb52a" stroke="black" stroke-width="1.5" opacity="1"/>
<path  d="M306.0,258.25A5,5,0,1,1,296.0,258.25A5,5,0,1,1,306.0,258.25" fill="#d8f965" stroke="black" stroke-width="1.5" opacity="1"/>
<path  d="M374.0,258.25A5,5,0,1,1,364.0,258.25A5,5,0,1,1,374.0,258.25" fill="#80bf7a" stroke="black" stroke-width="1.5" opacity="1"/>
<text aria-label="21,103,251,262" text-anchor="start" x="21.0" y="261.25" font-family="Balto" font-size="10px" fill="#000" opacity="1">Buckinghamshire</text>
<text aria-label="130,168,251,262" text-anchor="start" x="130.0" y="261.25" font-family="Balto" font-size="10px" fill="#000" opacity="1">Country</text>
<text aria-label="196,240,251,262" text-anchor="start" x="196.0" y="261.25" font-family="Balto" font-size="10px" fill="#000" opacity="1">Lebanese</text>
<text aria-label="268,284,251,262" text-anchor="start" x="268.0" y="261.25" font-family="Balto" font-size="10px" fill="#000" opacity="1">ack</text>
<text aria-label="311,360,251,262" text-anchor="start" x="311.0" y="261.25" font-family="Balto" font-size="10px" fill="#000" opacity="1">foolishly</text>
<text aria-label="379,428,251,262" text-anchor="start" x="379.0" y="261.25" font-family="Balto" font-size="10px" fill="#000" opacity="1">steradian</text>
</svg>