<svg xmlns="http://www.w3.org/2000/svg" xmlns:xlink="http://www.w3.org/1999/xlink" version="1.1" class="marks" width="279" height="239" viewBox="0 0 279 239" style="background-color: rgb(255, 255, 255);">
<text aria-label="183,274,0,26" text-anchor="end" x="274.0" y="25.0" font-family="serif" font-size="25px" font-weight="bold" fill="#000" opacity="1">Planner</text>
<path aria-label="male Bicycle: 22; Strategist sky: Wooden" role="graphics-symbol" aria-roledescription="arc mark"  d="M174.0,59.0A75,75,0,0,0,159.34768124841565,60.445193527533704L174.0,134.0Z" fill="#bf49a5" stroke="black" stroke-width="0"/>
<path aria-label="male Bicycle: 394; Strategist sky: Bicycle" role="graphics-symbol" aria-roledescription="arc mark"  d="M146.1913307872025,203.65398708339103A75,75,0,1,0,174.0,59.0L174.0,134.0Z" fill="#e761ea" stroke="black" stroke-width="0"/>
<path aria-label="male Bicycle: 287; Strategist sky: Mouse" role="graphics-symbol" aria-roledescription="arc mark"  d="M159.34768124841565,60.445193527533704A75,75,0,0,0,146.1913307872025,203.65398708339103L174.0,134.0Z" fill="#776688" stroke="black" stroke-width="0"/>
<path  d="M16.0,40.0A5,5,0,1,1,6.0,40.0A5,5,0,1,1,16.0,40.0" fill="#e761ea" stroke="black" stroke-width="1.5" opacity="1"/>
<path  d="M16.0,56.0A5,5,0,1,1,6.0,56.0A5,5,0,1,1,16.0,56.0" fill="#776688" stroke="black" stroke-width="1.5" opacity="1"/>
<path  d="M16.0,72.0A5,5,0,1,1,6.0,72.0A5,5,0,1,1,16.0,72.0" fill="#bf49a5" stroke="black" stroke-width="1.5" opacity="1"/>
<text aria-label="21,59,33,44" text-anchor="start" x="21.0" y="43.0" font-family="serif" font-size="10px" fill="#000" opacity="1">Bicycle</text>
<text aria-label="21,48,49,60" text-anchor="start" x="21.0" y="59.0" font-family="serif" font-size="10px" fill="#000" opacity="1">Mouse</text>
<text aria-label="21,54,65,76" text-anchor="start" x="21.0" y="75.0" font-family="serif" font-size="10px" fill="#000" opacity="1">Wooden</text>
</svg>