<svg xmlns="http://www.w3.org/2000/svg" xmlns:xlink="http://www.w3.org/1999/xlink" version="1.1" class="marks" width="289" height="239" viewBox="0 0 289 239" style="background-color: rgb(255, 255, 255);">
<text aria-label="46,163,0,26" text-anchor="middle" x="105.0" y="25.0" font-family="serif" font-size="25px" font-weight="bold" fill="#000" opacity="1">woman ohm</text>
<path aria-label="infomediaries: 90; hungry: Homestead" role="graphics-symbol" aria-roledescription="arc mark"  d="M175.38513165373203,159.90237908159807A75,75,0,0,0,105.0,59.0L105.0,89.0A45,45,0,0,1,147.23107899223922,149.54142744895884Z" fill="#967cfd" stroke="white" stroke-width="2"/>
<path aria-label="infomediaries: 169; hungry: deliver" role="graphics-symbol" aria-roledescription="arc mark"  d="M53.987044667181024,79.02110961276304A75,75,0,1,0,175.38513165373203,159.90237908159807L147.23107899223922,149.54142744895884A45,45,0,1,1,74.3922268003086,101.01266576765784Z" fill="#ac3ecb" stroke="white" stroke-width="2"/>
<path aria-label="infomediaries: 35; hungry: man" role="graphics-symbol" aria-roledescription="arc mark"  d="M104.99999999999999,59.0A75,75,0,0,0,53.987044667181024,79.02110961276304L74.3922268003086,101.01266576765784A45,45,0,0,1,104.99999999999999,89.0Z" fill="#e0dd12" stroke="white" stroke-width="2"/>
<path  d="M234.0,56.0A5,5,0,1,1,224.0,56.0A5,5,0,1,1,234.0,56.0" fill="#967cfd" stroke="white" stroke-width="1.5" opacity="1"/>
<path  d="M234.0,72.0A5,5,0,1,1,224.0,72.0A5,5,0,1,1,234.0,72.0" fill="#ac3ecb" stroke="white" stroke-width="1.5" opacity="1"/>
<path  d="M234.0,88.0A5,5,0,1,1,224.0,88.0A5,5,0,1,1,234.0,88.0" fill="#e0dd12" stroke="white" stroke-width="1.5" opacity="1"/>
<text aria-label="239,288,49,60" text-anchor="start" x="239.0" y="59.0" font-family="serif" font-size="10px" fill="#000" opacity="1">Homestead</text>
<text aria-label="239,277,65,76" text-anchor="start" x="239.0" y="75.0" font-family="serif" font-size="10px" fill="#000" opacity="1">deliver</text>
<text aria-label="239,255,81,92" text-anchor="start" x="239.0" y="91.0" font-family="serif" font-size="10px" fill="#000" opacity="1">man</text>
<text aria-label="223,259,32,44" text-anchor="start" x="223.0" y="43.0" font-family="serif" font-size="11px" font-weight="bold" fill="#000" opacity="1">hungry</text>
</svg>