<svg xmlns="http://www.w3.org/2000/svg" xmlns:xlink="http://www.w3.org/1999/xlink" version="1.1" class="marks" width="306" height="239" viewBox="0 0 306 239" style="background-color: rgb(255, 255, 255);">
<text aria-label="103,298,0,26" text-anchor="middle" x="201.0" y="25.0" font-family="Balto" font-size="25px" font-weight="bold" fill="#000" opacity="1">Jewelery father</text>
<path aria-label="yellow: 250; applications: South" role="graphics-symbol" aria-roledescription="arc mark"  d="M200.07891506710502,208.99434380369223A75,75,0,0,0,271.3252162013016,160.064611377118L248.82114701688508,151.72393573644024A51,51,0,0,1,200.3736622456314,184.99615378651072Z" fill="#30deee" stroke="white" stroke-width="0"/>
<path aria-label="yellow: 243; applications: blindly" role="graphics-symbol" aria-roledescription="arc mark"  d="M130.9342628186138,160.7542982197051A75,75,0,0,0,200.07891506710502,208.99434380369223L200.3736622456314,184.99615378651072A51,51,0,0,1,153.3552987166574,152.19292278939946Z" fill="#662bfc" stroke="white" stroke-width="0"/>
<path aria-label="yellow: 185; applications: International" role="graphics-symbol" aria-roledescription="arc mark"  d="M260.15872920846334,87.89962301195678A75,75,0,0,0,201.0,59.0L201.0,83.0A51,51,0,0,1,241.22793586175507,102.6517436481306Z" fill="#213ca5" stroke="white" stroke-width="0"/>
<path aria-label="yellow: 107; applications: clueless" role="graphics-symbol" aria-roledescription="arc mark"  d="M126.96858006771257,121.9854728428741A75,75,0,0,0,130.9342628186138,160.7542982197051L153.3552987166574,152.19292278939946A51,51,0,0,1,150.65863444604454,125.8301215331544Z" fill="#8a7e7d" stroke="white" stroke-width="0"/>
<path aria-label="yellow: 207; applications: Nigeria" role="graphics-symbol" aria-roledescription="arc mark"  d="M271.3252162013016,160.064611377118A75,75,0,0,0,260.15872920846334,87.89962301195678L241.22793586175507,102.6517436481306A51,51,0,0,1,248.82114701688508,151.72393573644024Z" fill="#a0eeeb" stroke="white" stroke-width="0"/>
<path aria-label="yellow: 1; applications: keen" role="graphics-symbol" aria-roledescription="arc mark"  d="M127.02849542716017,121.621934269429A75,75,0,0,0,126.96858006771257,121.9854728428741L150.65863444604454,125.8301215331544A51,51,0,0,1,150.6993768904689,125.58291530321172Z" fill="#07d9b3" stroke="white" stroke-width="0"/>
<path aria-label="yellow: 286; applications: networks" role="graphics-symbol" aria-roledescription="arc mark"  d="M201.0,59.0A75,75,0,0,0,127.02849542716017,121.621934269429L150.6993768904689,125.58291530321172A51,51,0,0,1,201.0,83.0Z" fill="#cb79d5" stroke="white" stroke-width="0"/>
<path  d="M16.0,56.0A5,5,0,1,1,6.0,56.0A5,5,0,1,1,16.0,56.0" fill="#213ca5" stroke="white" stroke-width="1.5" opacity="1"/>
<path  d="M16.0,72.0A5,5,0,1,1,6.0,72.0A5,5,0,1,1,16.0,72.0" fill="#a0eeeb" stroke="white" stroke-width="1.5" opacity="1"/>
<path  d="M16.0,88.0A5,5,0,1,1,6.0,88.0A5,5,0,1,1,16.0,88.0" fill="#30deee" stroke="white" stroke-width="1.5" opacity="1"/>
<path  d="M16.0,104.0A5,5,0,1,1,6.0,104.0A5,5,0,1,1,16.0,104.0" fill="#662bfc" stroke="white" stroke-width="1.5" opacity="1"/>
<path  d="M16.0,120.0A5,5,0,1,1,6.0,120.0A5,5,0,1,1,16.0,120.0" fill="#8a7e7d" stroke="white" stroke-width="1.5" opacity="1"/>
<path  d="M16.0,136.0A5,5,0,1,1,6.0,136.0A5,5,0,1,1,16.0,136.0" fill="#07d9b3" stroke="white" stroke-width="1.5" opacity="1"/>
<path  d="M16.0,152.0A5,5,0,1,1,6.0,152.0A5,5,0,1,1,16.0,152.0" fill="#cb79d5" stroke="white" stroke-width="1.5" opacity="1"/>
<text aria-label="21,92,49,60" text-anchor="start" x="21.0" y="59.0" font-family="Balto" font-size="10px" fill="#000" opacity="1">International</text>
<text aria-label="21,59,65,76" text-anchor="start" x="21.0" y="75.0" font-family="Balto" font-size="10px" fill="#000" opacity="1">Nigeria</text>
<text aria-label="21,48,81,92" text-anchor="start" x="21.0" y="91.0" font-family="Balto" font-size="10px" fill="#000" opacity="1">South</text>
<text aria-label="21,59,97,108" text-anchor="start" x="21.0" y="107.0" font-family="Balto" font-size="10px" fill="#000" opacity="1">blindly</text>
<text aria-label="21,65,113,124" text-anchor="start" x="21.0" y="123.0" font-family="Balto" font-size="10px" fill="#000" opacity="1">clueless</text>
<text aria-label="21,43,129,140" text-anchor="start" x="21.0" y="139.0" font-family="Balto" font-size="10px" fill="#000" opacity="1">keen</text>
<text aria-label="21,65,145,156" text-anchor="start" x="21.0" y="155.0" font-family="Balto" font-size="10px" fill="#000" opacity="1">networks</text>
<text aria-label="5,77,32,44" text-anchor="start" x="5.0" y="43.0" font-family="Balto" font-size="11px" font-weight="bold" fill="#000" opacity="1">applications</text>
</svg>