<svg xmlns="http://www.w3.org/2000/svg" xmlns:xlink="http://www.w3.org/1999/xlink" version="1.1" class="marks" width="306" height="239" viewBox="0 0 306 239" style="background-color: rgb(255, 255, 255);">
<text aria-label="41,301,0,26" text-anchor="end" x="301.0" y="25.0" font-family="Balto" font-size="25px" font-weight="bold" fill="#000" opacity="1">since Garden connect</text>
<path aria-label="neural: 39; Cruiser Investor bypassing: embrace" role="graphics-symbol" aria-roledescription="arc mark"  d="M178.11144041187168,117.27524945174558A75,75,0,0,0,176.3397873816622,110.85621603239369L134.48711211775372,124.43390262672273A31,31,0,0,1,135.2193953702403,127.0871031067215Z" fill="#d1ed5d" stroke="black" stroke-width="1"/>
<path aria-label="neural: 463; Cruiser Investor bypassing: payment" role="graphics-symbol" aria-roledescription="arc mark"  d="M44.66180810134218,178.54551154045427A75,75,0,0,0,113.94568407431942,208.46458713000743L108.69754941738536,164.7786960137364A31,31,0,0,1,80.06021401522143,152.41214477005443Z" fill="#dca5a1" stroke="black" stroke-width="1"/>
<path aria-label="neural: 131; Cruiser Investor bypassing: multicolored" role="graphics-symbol" aria-roledescription="arc mark"  d="M113.94568407431942,208.46458713000743A75,75,0,0,0,135.43761859949208,202.54597999877058L117.58088235445672,162.33233839949185A31,31,0,0,1,108.69754941738536,164.7786960137364Z" fill="#bad1c7" stroke="black" stroke-width="1"/>
<path aria-label="neural: 475; Cruiser Investor bypassing: purple" role="graphics-symbol" aria-roledescription="arc mark"  d="M37.32971311628435,101.66221601476653A75,75,0,0,0,44.66180810134218,178.54551154045427L80.06021401522143,152.41214477005443A31,31,0,0,1,77.02961475473086,120.63371595277016Z" fill="#68df19" stroke="black" stroke-width="1"/>
<path aria-label="neural: 309; Cruiser Investor bypassing: iure" role="graphics-symbol" aria-roledescription="arc mark"  d="M135.43761859949208,202.54597999877058A75,75,0,0,0,172.55942600376937,166.56875739172756L132.92456274822467,147.46175305524739A31,31,0,0,1,117.58088235445672,162.33233839949185Z" fill="#3a5ce2" stroke="black" stroke-width="1"/>
<path aria-label="neural: 494; Cruiser Investor bypassing: until" role="graphics-symbol" aria-roledescription="arc mark"  d="M104.99999999999999,59.0A75,75,0,0,0,37.32971311628435,101.66221601476653L77.02961475473086,120.63371595277016A31,31,0,0,1,105.0,103.0Z" fill="#44675e" stroke="black" stroke-width="1"/>
<path aria-label="neural: 296; Cruiser Investor bypassing: invoice" role="graphics-symbol" aria-roledescription="arc mark"  d="M172.55942600376937,166.56875739172756A75,75,0,0,0,178.11144041187168,117.27524945174558L135.2193953702403,127.0871031067215A31,31,0,0,1,132.92456274822467,147.46175305524739Z" fill="#bce9e1" stroke="black" stroke-width="1"/>
<path aria-label="neural: 435; Cruiser Investor bypassing: constellation" role="graphics-symbol" aria-roledescription="arc mark"  d="M176.3397873816622,110.85621603239369A75,75,0,0,0,124.74805299434534,61.64660061246239L113.16252857099607,104.09392825315112A31,31,0,0,1,134.48711211775372,124.43390262672273Z" fill="#c58a89" stroke="black" stroke-width="1"/>
<path aria-label="neural: 117; Cruiser Investor bypassing: ah" role="graphics-symbol" aria-roledescription="arc mark"  d="M124.74805299434534,61.64660061246239A75,75,0,0,0,105.0,59.0L105.0,103.0A31,31,0,0,1,113.16252857099607,104.09392825315112Z" fill="#cee5ec" stroke="black" stroke-width="1"/>
<path  d="M234.0,40.0A5,5,0,1,1,224.0,40.0A5,5,0,1,1,234.0,40.0" fill="#cee5ec" stroke="black" stroke-width="1.5" opacity="1"/>
<path  d="M234.0,56.0A5,5,0,1,1,224.0,56.0A5,5,0,1,1,234.0,56.0" fill="#c58a89" stroke="black" stroke-width="1.5" opacity="1"/>
<path  d="M234.0,72.0A5,5,0,1,1,224.0,72.0A5,5,0,1,1,234.0,72.0" fill="#d1ed5d" stroke="black" stroke-width="1.5" opacity="1"/>
<path  d="M234.0,88.0A5,5,0,1,1,224.0,88.0A5,5,0,1,1,234.0,88.0" fill="#bce9e1" stroke="black" stroke-width="1.5" opacity="1"/>
<path  d="M234.0,104.0A5,5,0,1,1,224.0,104.0A5,5,0,1,1,234.0,104.0" fill="#3a5ce2" stroke="black" stroke-width="1.5" opacity="1"/>
<path  d="M234.0,120.0A5,5,0,1,1,224.0,120.0A5,5,0,1,1,234.0,120.0" fill="#bad1c7" stroke="black" stroke-width="1.5" opacity="1"/>
<path  d="M234.0,136.0A5,5,0,1,1,224.0,136.0A5,5,0,1,1,234.0,136.0" fill="#dca5a1" stroke="black" stroke-width="1.5" opacity="1"/>
<path  d="M234.0,152.0A5,5,0,1,1,224.0,152.0A5,5,0,1,1,234.0,152.0" fill="#68df19" stroke="black" stroke-width="1.5" opacity="1"/>
<path  d="M234.0,168.0A5,5,0,1,1,224.0,168.0A5,5,0,1,1,234.0,168.0" fill="#44675e" stroke="black" stroke-width="1.5" opacity="1"/>
<text aria-label="239,250,33,44" text-anchor="start" x="239.0" y="43.0" font-family="Balto" font-size="10px" fill="#000" opacity="1">ah</text>
<text aria-label="239,310,49,60" text-anchor="start" x="239.0" y="59.0" font-family="Balto" font-size="10px" fill="#000" opacity="1">constellation</text>
<text aria-label="239,277,65,76" text-anchor="start" x="239.0" y="75.0" font-family="Balto" font-size="10px" fill="#000" opacity="1">embrace</text>
<text aria-label="239,277,81,92" text-anchor="start" x="239.0" y="91.0" font-family="Balto" font-size="10px" fill="#000" opacity="1">invoice</text>
<text aria-label="239,261,97,108" text-anchor="start" x="239.0" y="107.0" font-family="Balto" font-size="10px" fill="#000" opacity="1">iure</text>
<text aria-label="239,305,113,124" text-anchor="start" x="239.0" y="123.0" font-family="Balto" font-size="10px" fill="#000" opacity="1">multicolored</text>
<text aria-label="239,277,129,140" text-anchor="start" x="239.0" y="139.0" font-family="Balto" font-size="10px" fill="#000" opacity="1">payment</text>
<text aria-label="239,272,145,156" text-anchor="start" x="239.0" y="155.0" font-family="Balto" font-size="10px" fill="#000" opacity="1">purple</text>
<text aria-label="239,266,161,172" text-anchor="start" x="239.0" y="171.0" font-family="Balto" font-size="10px" fill="#000" opacity="1">until</text>
</svg>