<svg xmlns="http://www.w3.org/2000/svg" xmlns:xlink="http://www.w3.org/1999/xlink" version="1.1" class="marks" width="545" height="286" viewBox="0 0 545 286" style="background-color: rgb(255, 255, 255);">
<text aria-label="345,540,0,26" text-anchor="end" x="540.0" y="25.0" font-family="Balto" font-size="25px" font-weight="bold" fill="#000" opacity="1">Gloves Paradigm</text>
<path aria-label="Bronze West Northwest: 431; yum Chicken Hybrid: er" role="graphics-symbol" aria-roledescription="arc mark"  d="M36.45311150990254,164.43557258088214A75,75,0,0,0,84.52273636204639,206.15041007438379L105.0,134.0Z" fill="#4876cb" stroke="black" stroke-width="4"/>
<path aria-label="Bronze West Northwest: 521; yum Chicken Hybrid: yellow" role="graphics-symbol" aria-roledescription="arc mark"  d="M104.99999999999999,59.0A75,75,0,0,0,39.59542651885593,97.2952078367194L105.0,134.0Z" fill="#0c0976" stroke="black" stroke-width="4"/>
<path aria-label="Bronze West Northwest: 393; yum Chicken Hybrid: withdrawal" role="graphics-symbol" aria-roledescription="arc mark"  d="M39.59542651885593,97.2952078367194A75,75,0,0,0,33.083108005659525,155.28287212465386L105.0,134.0Z" fill="#9bcb6d" stroke="black" stroke-width="4"/>
<path aria-label="Bronze West Northwest: 515; yum Chicken Hybrid: chink" role="graphics-symbol" aria-roledescription="arc mark"  d="M84.52273636204639,206.15041007438379A75,75,0,0,0,157.24545619890424,187.8090355476511L105.0,134.0Z" fill="#ff7dac" stroke="black" stroke-width="4"/>
<path aria-label="Bronze West Northwest: 411; yum Chicken Hybrid: Massachusetts" role="graphics-symbol" aria-roledescription="arc mark"  d="M157.24545619890424,187.8090355476511A75,75,0,0,0,179.95252069912334,131.33173448707043L105.0,134.0Z" fill="#f2ca40" stroke="black" stroke-width="4"/>
<path aria-label="Bronze West Northwest: 529; yum Chicken Hybrid: Hybrid" role="graphics-symbol" aria-roledescription="arc mark"  d="M179.95252069912334,131.33173448707043A75,75,0,0,0,138.26565359715607,66.78098267042267L105.0,134.0Z" fill="#1250a4" stroke="black" stroke-width="4"/>
<path aria-label="Bronze West Northwest: 64; yum Chicken Hybrid: users" role="graphics-symbol" aria-roledescription="arc mark"  d="M33.083108005659525,155.28287212465386A75,75,0,0,0,36.45311150990254,164.43557258088214L105.0,134.0Z" fill="#9aecb9" stroke="black" stroke-width="4"/>
<path aria-label="Bronze West Northwest: 226; yum Chicken Hybrid: Buckinghamshire" role="graphics-symbol" aria-roledescription="arc mark"  d="M138.26565359715607,66.78098267042267A75,75,0,0,0,105.0,59.0L105.0,134.0Z" fill="#ef2050" stroke="black" stroke-width="4"/>
<text aria-label="39,52,195,204" role="graphics-symbol" aria-roledescription="text mark" text-anchor="middle" x="46.012256878890945" y="203.97386381160078" font-family="Balto" font-size="8px" fill="#4876cb" opacity="1">431</text>
<text aria-label="52,66,50,59" role="graphics-symbol" aria-roledescription="text mark" text-anchor="middle" x="59.525378251349416" y="58.33367025011961" font-family="Balto" font-size="8px" fill="#0c0976" opacity="1">521</text>
<text aria-label="8,22,117,126" role="graphics-symbol" aria-roledescription="text mark" text-anchor="middle" x="15.562248058407917" y="125.95567186745467" font-family="Balto" font-size="8px" fill="#9bcb6d" opacity="1">393</text>
<text aria-label="120,133,215,224" role="graphics-symbol" aria-roledescription="text mark" text-anchor="middle" x="127.00964943207926" y="223.26726380422946" font-family="Balto" font-size="8px" fill="#ff7dac" opacity="1">515</text>
<text aria-label="181,195,161,170" role="graphics-symbol" aria-roledescription="text mark" text-anchor="middle" x="188.5035562735738" y="169.5731453645037" font-family="Balto" font-size="8px" fill="#f2ca40" opacity="1">411</text>
<text aria-label="173,187,79,88" role="graphics-symbol" aria-roledescription="text mark" text-anchor="middle" x="180.6046970162646" y="87.17449653020637" font-family="Balto" font-size="8px" fill="#1250a4" opacity="1">529</text>
<text aria-label="16,25,159,168" role="graphics-symbol" aria-roledescription="text mark" text-anchor="middle" x="20.543002662278766" y="167.09687445220416" font-family="Balto" font-size="8px" fill="#9aecb9" opacity="1">64</text>
<text aria-label="118,132,40,49" role="graphics-symbol" aria-roledescription="text mark" text-anchor="middle" x="125.49812343125156" y="48.36537821273389" font-family="Balto" font-size="8px" fill="#ef2050" opacity="1">226</text>
<path  d="M16.0,274.25A5,5,0,1,1,6.0,274.25A5,5,0,1,1,16.0,274.25" fill="#ef2050" stroke="black" stroke-width="1.5" opacity="1"/>
<path  d="M125.0,274.25A5,5,0,1,1,115.0,274.25A5,5,0,1,1,125.0,274.25" fill="#1250a4" stroke="black" stroke-width="1.5" opacity="1"/>
<path  d="M185.0,274.25A5,5,0,1,1,175.0,274.25A5,5,0,1,1,185.0,274.25" fill="#f2ca40" stroke="black" stroke-width="1.5" opacity="1"/>
<path  d="M282.0,274.25A5,5,0,1,1,272.0,274.25A5,5,0,1,1,282.0,274.25" fill="#ff7dac" stroke="black" stroke-width="1.5" opacity="1"/>
<path  d="M335.0,274.25A5,5,0,1,1,325.0,274.25A5,5,0,1,1,335.0,274.25" fill="#4876cb" stroke="black" stroke-width="1.5" opacity="1"/>
<path  d="M372.0,274.25A5,5,0,1,1,362.0,274.25A5,5,0,1,1,372.0,274.25" fill="#9aecb9" stroke="black" stroke-width="1.5" opacity="1"/>
<path  d="M424.0,274.25A5,5,0,1,1,414.0,274.25A5,5,0,1,1,424.0,274.25" fill="#9bcb6d" stroke="black" stroke-width="1.5" opacity="1"/>
<path  d="M504.0,274.25A5,5,0,1,1,494.0,274.25A5,5,0,1,1,504.0,274.25" fill="#0c0976" stroke="black" stroke-width="1.5" opacity="1"/>
<text aria-label="21,103,267,278" text-anchor="start" x="21.0" y="277.25" font-family="Balto" font-size="10px" fill="#000" opacity="1">Buckinghamshire</text>
<text aria-label="130,163,267,278" text-anchor="start" x="130.0" y="277.25" font-family="Balto" font-size="10px" fill="#000" opacity="1">Hybrid</text>
<text aria-label="190,261,267,278" text-anchor="start" x="190.0" y="277.25" font-family="Balto" font-size="10px" fill="#000" opacity="1">Massachusetts</text>
<text aria-label="287,314,267,278" text-anchor="start" x="287.0" y="277.25" font-family="Balto" font-size="10px" fill="#000" opacity="1">chink</text>
<text aria-label="340,351,267,278" text-anchor="start" x="340.0" y="277.25" font-family="Balto" font-size="10px" fill="#000" opacity="1">er</text>
<text aria-label="377,404,267,278" text-anchor="start" x="377.0" y="277.25" font-family="Balto" font-size="10px" fill="#000" opacity="1">users</text>
<text aria-label="429,484,267,278" text-anchor="start" x="429.0" y="277.25" font-family="Balto" font-size="10px" fill="#000" opacity="1">withdrawal</text>
<text aria-label="509,542,267,278" text-anchor="start" x="509.0" y="277.25" font-family="Balto" font-size="10px" fill="#000" opacity="1">yellow</text>
<text aria-label="5,113,250,262" text-anchor="start" x="5.0" y="261.0" font-family="Balto" font-size="11px" font-weight="bold" fill="#000" opacity="1">yum Chicken Hybrid</text>
</svg>