<svg xmlns="http://www.w3.org/2000/svg" xmlns:xlink="http://www.w3.org/1999/xlink" version="1.1" class="marks" width="710" height="270" viewBox="0 0 710 270" style="background-color: rgb(255, 255, 255);">
<text aria-label="20,189,0,26" text-anchor="middle" x="105.0" y="25.0" font-family="sans-serif" font-size="25px" font-weight="bold" fill="#000" opacity="1">iterate Money</text>
<path aria-label="Bronze: 266; Fantastic: Verde" role="graphics-symbol" aria-roledescription="arc mark"  d="M142.16499197582823,199.14417373362426A75,75,0,0,0,179.27606601687995,144.3954806072682L142.63320678188586,139.26704350768256A38,38,0,0,1,123.8302626010863,167.00638135836962Z" fill="#d94cfa" stroke="black" stroke-width="0"/>
<path aria-label="Bronze: 146; Fantastic: Customer" role="graphics-symbol" aria-roledescription="arc mark"  d="M148.66620179655422,73.02244002370541A75,75,0,0,0,113.99108942244204,59.5408816128095L109.55548530737065,96.27404668382349A38,38,0,0,1,127.12420891025414,103.10470294534407Z" fill="#dc3eee" stroke="black" stroke-width="0"/>
<path aria-label="Bronze: 206; Fantastic: red" role="graphics-symbol" aria-roledescription="arc mark"  d="M95.24244955677455,59.63744080958543A75,75,0,0,0,49.264138089195455,83.81520452308561L76.76049663185903,108.57303695836337A38,38,0,0,1,100.0561744420991,96.32297001018995Z" fill="#1bf601" stroke="black" stroke-width="0"/>
<path aria-label="Bronze: 4; Fantastic: Checking" role="graphics-symbol" aria-roledescription="arc mark"  d="M113.99108942244204,59.5408816128095A75,75,0,0,0,112.96767160052082,59.424426188823375L109.03695361093054,96.21504260233718A38,38,0,0,1,109.55548530737065,96.27404668382349Z" fill="#ebb3be" stroke="black" stroke-width="0"/>
<path aria-label="Bronze: 24; Fantastic: Frozen" role="graphics-symbol" aria-roledescription="arc mark"  d="M153.53705004949546,76.82347708637073A75,75,0,0,0,148.66620179655422,73.02244002370541L127.12420891025414,103.10470294534407A38,38,0,0,1,129.59210535841103,105.03056172376117Z" fill="#6597bc" stroke="black" stroke-width="0"/>
<path aria-label="Bronze: 297; Fantastic: generating" role="graphics-symbol" aria-roledescription="arc mark"  d="M68.95877073894137,199.7725610977086A75,75,0,0,0,142.16499197582823,199.14417373362426L123.8302626010863,167.00638135836962A38,38,0,0,1,86.73911050773029,167.3247642895057Z" fill="#3635dd" stroke="black" stroke-width="0"/>
<path aria-label="Bronze: 293; Fantastic: Northeast" role="graphics-symbol" aria-roledescription="arc mark"  d="M179.27606601687995,144.3954806072682A75,75,0,0,0,153.53705004949546,76.82347708637073L129.59210535841103,105.03056172376117A38,38,0,0,1,142.63320678188586,139.26704350768256Z" fill="#19ea3f" stroke="black" stroke-width="0"/>
<path aria-label="Bronze: 31; Fantastic: Assurance" role="graphics-symbol" aria-roledescription="arc mark"  d="M112.96767160052082,59.424426188823375A75,75,0,0,0,105.0,59.0L105.0,96.0A38,38,0,0,1,109.03695361093054,96.21504260233718Z" fill="#47d0b1" stroke="black" stroke-width="0"/>
<path aria-label="Bronze: 300; Fantastic: primary" role="graphics-symbol" aria-roledescription="arc mark"  d="M49.264138089195455,83.81520452308561A75,75,0,0,0,33.28342023299422,155.94839826781663L68.66359958471708,145.1205217890271A38,38,0,0,1,76.76049663185903,108.57303695836337Z" fill="#50efa2" stroke="black" stroke-width="0"/>
<path aria-label="Bronze: 225; Fantastic: magenta" role="graphics-symbol" aria-roledescription="arc mark"  d="M33.28342023299422,155.94839826781663A75,75,0,0,0,68.95877073894137,199.7725610977086L86.73911050773029,167.3247642895057A38,38,0,0,1,68.66359958471708,145.1205217890271Z" fill="#6acf00" stroke="black" stroke-width="0"/>
<path aria-label="Bronze: 38; Fantastic: up" role="graphics-symbol" aria-roledescription="arc mark"  d="M104.99999999999999,59.0A75,75,0,0,0,95.24244955677455,59.63744080958543L100.0561744420991,96.32297001018995A38,38,0,0,1,105.0,96.0Z" fill="#ad53cc" stroke="black" stroke-width="0"/>
<path  d="M16.0,258.25A5,5,0,1,1,6.0,258.25A5,5,0,1,1,16.0,258.25" fill="#47d0b1" stroke="black" stroke-width="1.5" opacity="1"/>
<path  d="M92.0,258.25A5,5,0,1,1,82.0,258.25A5,5,0,1,1,92.0,258.25" fill="#ebb3be" stroke="black" stroke-width="1.5" opacity="1"/>
<path  d="M164.0,258.25A5,5,0,1,1,154.0,258.25A5,5,0,1,1,164.0,258.25" fill="#dc3eee" stroke="black" stroke-width="1.5" opacity="1"/>
<path  d="M238.0,258.25A5,5,0,1,1,228.0,258.25A5,5,0,1,1,238.0,258.25" fill="#6597bc" stroke="black" stroke-width="1.5" opacity="1"/>
<path  d="M298.0,258.25A5,5,0,1,1,288.0,258.25A5,5,0,1,1,298.0,258.25" fill="#19ea3f" stroke="black" stroke-width="1.5" opacity="1"/>
<path  d="M374.0,258.25A5,5,0,1,1,364.0,258.25A5,5,0,1,1,374.0,258.25" fill="#d94cfa" stroke="black" stroke-width="1.5" opacity="1"/>
<path  d="M429.0,258.25A5,5,0,1,1,419.0,258.25A5,5,0,1,1,429.0,258.25" fill="#3635dd" stroke="black" stroke-width="1.5" opacity="1"/>
<path  d="M509.0,258.25A5,5,0,1,1,499.0,258.25A5,5,0,1,1,509.0,258.25" fill="#6acf00" stroke="black" stroke-width="1.5" opacity="1"/>
<path  d="M579.0,258.25A5,5,0,1,1,569.0,258.25A5,5,0,1,1,579.0,258.25" fill="#50efa2" stroke="black" stroke-width="1.5" opacity="1"/>
<path  d="M644.0,258.25A5,5,0,1,1,634.0,258.25A5,5,0,1,1,644.0,258.25" fill="#1bf601" stroke="black" stroke-width="1.5" opacity="1"/>
<path  d="M687.0,258.25A5,5,0,1,1,677.0,258.25A5,5,0,1,1,687.0,258.25" fill="#ad53cc" stroke="black" stroke-width="1.5" opacity="1"/>
<text aria-label="21,70,251,262" text-anchor="start" x="21.0" y="261.25" font-family="sans-serif" font-size="10px" fill="#000" opacity="1">Assurance</text>
<text aria-label="97,141,251,262" text-anchor="start" x="97.0" y="261.25" font-family="sans-serif" font-size="10px" fill="#000" opacity="1">Checking</text>
<text aria-label="169,213,251,262" text-anchor="start" x="169.0" y="261.25" font-family="sans-serif" font-size="10px" fill="#000" opacity="1">Customer</text>
<text aria-label="243,276,251,262" text-anchor="start" x="243.0" y="261.25" font-family="sans-serif" font-size="10px" fill="#000" opacity="1">Frozen</text>
<text aria-label="303,352,251,262" text-anchor="start" x="303.0" y="261.25" font-family="sans-serif" font-size="10px" fill="#000" opacity="1">Northeast</text>
<text aria-label="379,406,251,262" text-anchor="start" x="379.0" y="261.25" font-family="sans-serif" font-size="10px" fill="#000" opacity="1">Verde</text>
<text aria-label="434,489,251,262" text-anchor="start" x="434.0" y="261.25" font-family="sans-serif" font-size="10px" fill="#000" opacity="1">generating</text>
<text aria-label="514,552,251,262" text-anchor="start" x="514.0" y="261.25" font-family="sans-serif" font-size="10px" fill="#000" opacity="1">magenta</text>
<text aria-label="584,622,251,262" text-anchor="start" x="584.0" y="261.25" font-family="sans-serif" font-size="10px" fill="#000" opacity="1">primary</text>
<text aria-label="649,665,251,262" text-anchor="start" x="649.0" y="261.25" font-family="sans-serif" font-size="10px" fill="#000" opacity="1">red</text>
<text aria-label="692,703,251,262" text-anchor="start" x="692.0" y="261.25" font-family="sans-serif" font-size="10px" fill="#000" opacity="1">up</text>
</svg>