<svg xmlns="http://www.w3.org/2000/svg" xmlns:xlink="http://www.w3.org/1999/xlink" version="1.1" class="marks" width="320" height="239" viewBox="0 0 320 239" style="background-color: rgb(255, 255, 255);">
<text aria-label="42,315,0,26" text-anchor="end" x="315.0" y="25.0" font-family="monospace" font-size="25px" font-weight="bold" fill="#000" opacity="1">black stipulate tesla</text>
<path aria-label="1080p especially: 274; Bronze Architect: Southeast" role="graphics-symbol" aria-roledescription="arc mark"  d="M239.9140160304587,204.74101925498422A75,75,0,0,0,274.851292046018,179.19759772844424L215.0,134.0Z" fill="#fcfb11" stroke="white" stroke-width="4"/>
<path aria-label="1080p especially: 95; Bronze Architect: relationships" role="graphics-symbol" aria-roledescription="arc mark"  d="M173.42803856935296,71.5758698674239A75,75,0,0,0,161.69858699465078,81.2367611718804L215.0,134.0Z" fill="#a36352" stroke="white" stroke-width="4"/>
<path aria-label="1080p especially: 432; Bronze Architect: mobile" role="graphics-symbol" aria-roledescription="arc mark"  d="M161.69858699465078,81.2367611718804A75,75,0,0,0,140.761320238544,144.6591944947064L215.0,134.0Z" fill="#29e750" stroke="white" stroke-width="4"/>
<path aria-label="1080p especially: 497; Bronze Architect: Bicycle" role="graphics-symbol" aria-roledescription="arc mark"  d="M280.492419882644,97.45218285703706A75,75,0,0,0,215.0,59.0L215.0,134.0Z" fill="#99b2ba" stroke="white" stroke-width="4"/>
<path aria-label="1080p especially: 338; Bronze Architect: magenta" role="graphics-symbol" aria-roledescription="arc mark"  d="M140.761320238544,144.6591944947064A75,75,0,0,0,166.33557815400343,191.0681526457173L215.0,134.0Z" fill="#7ffe67" stroke="white" stroke-width="4"/>
<path aria-label="1080p especially: 59; Bronze Architect: Electronics" role="graphics-symbol" aria-roledescription="arc mark"  d="M284.5674307698892,105.97550043128919A75,75,0,0,0,280.492419882644,97.45218285703706L215.0,134.0Z" fill="#b611d9" stroke="white" stroke-width="4"/>
<path aria-label="1080p especially: 482; Bronze Architect: Howell" role="graphics-symbol" aria-roledescription="arc mark"  d="M274.851292046018,179.19759772844424A75,75,0,0,0,284.5674307698892,105.97550043128919L215.0,134.0Z" fill="#b6983f" stroke="white" stroke-width="4"/>
<path aria-label="1080p especially: 174; Bronze Architect: yellow" role="graphics-symbol" aria-roledescription="arc mark"  d="M215.0,59.0A75,75,0,0,0,187.75752617170073,64.12262440736323L215.0,134.0Z" fill="#e05c31" stroke="white" stroke-width="4"/>
<path aria-label="1080p especially: 101; Bronze Architect: wisely" role="graphics-symbol" aria-roledescription="arc mark"  d="M187.75752617170073,64.12262440736323A75,75,0,0,0,173.42803856935296,71.5758698674239L215.0,134.0Z" fill="#ff7bd2" stroke="white" stroke-width="4"/>
<path aria-label="1080p especially: 489; Bronze Architect: connect" role="graphics-symbol" aria-roledescription="arc mark"  d="M166.33557815400343,191.0681526457173A75,75,0,0,0,239.9140160304587,204.74101925498422L215.0,134.0Z" fill="#0fa57a" stroke="white" stroke-width="4"/>
<text aria-label="259,276,199,210" role="graphics-symbol" aria-roledescription="text mark" text-anchor="middle" x="268.11821327162374" y="209.65297942156468" font-family="monospace" font-size="10px" fill="#fcfb11" opacity="1">274</text>
<text aria-label="152,163,57,68" role="graphics-symbol" aria-roledescription="text mark" text-anchor="middle" x="157.78160785935228" y="67.53018208718939" font-family="monospace" font-size="10px" fill="#a36352" opacity="1">95</text>
<text aria-label="121,137,98,109" role="graphics-symbol" aria-roledescription="text mark" text-anchor="middle" x="129.53657558838813" y="108.78647331791538" font-family="monospace" font-size="10px" fill="#29e750" opacity="1">432</text>
<text aria-label="252,268,49,60" role="graphics-symbol" aria-roledescription="text mark" text-anchor="middle" x="260.5677284301072" y="59.38826038723266" font-family="monospace" font-size="10px" fill="#99b2ba" opacity="1">497</text>
<text aria-label="127,144,170,181" role="graphics-symbol" aria-roledescription="text mark" text-anchor="middle" x="136.17597472025506" y="180.43700080228984" font-family="monospace" font-size="10px" fill="#7ffe67" opacity="1">338</text>
<text aria-label="290,301,88,99" role="graphics-symbol" aria-roledescription="text mark" text-anchor="middle" x="296.1971161573624" y="98.17953725510486" font-family="monospace" font-size="10px" fill="#b611d9" opacity="1">59</text>
<text aria-label="295,312,138,149" role="graphics-symbol" aria-roledescription="text mark" text-anchor="middle" x="304.2179650364324" y="148.83869565272823" font-family="monospace" font-size="10px" fill="#b6983f" opacity="1">482</text>
<text aria-label="190,206,38,49" role="graphics-symbol" aria-roledescription="text mark" text-anchor="middle" x="198.36805128682707" y="48.5501369022971" font-family="monospace" font-size="10px" fill="#e05c31" opacity="1">174</text>
<text aria-label="165,181,47,58" role="graphics-symbol" aria-roledescription="text mark" text-anchor="middle" x="173.46986813839342" y="57.154848941481916" font-family="monospace" font-size="10px" fill="#ff7bd2" opacity="1">101</text>
<text aria-label="190,206,215,226" role="graphics-symbol" aria-roledescription="text mark" text-anchor="middle" x="198.5570543764715" y="225.48519389831094" font-family="monospace" font-size="10px" fill="#0fa57a" opacity="1">489</text>
<path  d="M16.0,56.0A5,5,0,1,1,6.0,56.0A5,5,0,1,1,16.0,56.0" fill="#99b2ba" stroke="white" stroke-width="1.5" opacity="1"/>
<path  d="M16.0,72.0A5,5,0,1,1,6.0,72.0A5,5,0,1,1,16.0,72.0" fill="#b611d9" stroke="white" stroke-width="1.5" opacity="1"/>
<path  d="M16.0,88.0A5,5,0,1,1,6.0,88.0A5,5,0,1,1,16.0,88.0" fill="#b6983f" stroke="white" stroke-width="1.5" opacity="1"/>
<path  d="M16.0,104.0A5,5,0,1,1,6.0,104.0A5,5,0,1,1,16.0,104.0" fill="#fcfb11" stroke="white" stroke-width="1.5" opacity="1"/>
<path  d="M16.0,120.0A5,5,0,1,1,6.0,120.0A5,5,0,1,1,16.0,120.0" fill="#0fa57a" stroke="white" stroke-width="1.5" opacity="1"/>
<path  d="M16.0,136.0A5,5,0,1,1,6.0,136.0A5,5,0,1,1,16.0,136.0" fill="#7ffe67" stroke="white" stroke-width="1.5" opacity="1"/>
<path  d="M16.0,152.0A5,5,0,1,1,6.0,152.0A5,5,0,1,1,16.0,152.0" fill="#29e750" stroke="white" stroke-width="1.5" opacity="1"/>
<path  d="M16.0,168.0A5,5,0,1,1,6.0,168.0A5,5,0,1,1,16.0,168.0" fill="#a36352" stroke="white" stroke-width="1.5" opacity="1"/>
<path  d="M16.0,184.0A5,5,0,1,1,6.0,184.0A5,5,0,1,1,16.0,184.0" fill="#ff7bd2" stroke="white" stroke-width="1.5" opacity="1"/>
<path  d="M16.0,200.0A5,5,0,1,1,6.0,200.0A5,5,0,1,1,16.0,200.0" fill="#e05c31" stroke="white" stroke-width="1.5" opacity="1"/>
<text aria-label="21,59,49,60" text-anchor="start" x="21.0" y="59.0" font-family="monospace" font-size="10px" fill="#000" opacity="1">Bicycle</text>
<text aria-label="21,81,65,76" text-anchor="start" x="21.0" y="75.0" font-family="monospace" font-size="10px" fill="#000" opacity="1">Electronics</text>
<text aria-label="21,54,81,92" text-anchor="start" x="21.0" y="91.0" font-family="monospace" font-size="10px" fill="#000" opacity="1">Howell</text>
<text aria-label="21,70,97,108" text-anchor="start" x="21.0" y="107.0" font-family="monospace" font-size="10px" fill="#000" opacity="1">Southeast</text>
<text aria-label="21,59,113,124" text-anchor="start" x="21.0" y="123.0" font-family="monospace" font-size="10px" fill="#000" opacity="1">connect</text>
<text aria-label="21,59,129,140" text-anchor="start" x="21.0" y="139.0" font-family="monospace" font-size="10px" fill="#000" opacity="1">magenta</text>
<text aria-label="21,54,145,156" text-anchor="start" x="21.0" y="155.0" font-family="monospace" font-size="10px" fill="#000" opacity="1">mobile</text>
<text aria-label="21,92,161,172" text-anchor="start" x="21.0" y="171.0" font-family="monospace" font-size="10px" fill="#000" opacity="1">relationships</text>
<text aria-label="21,54,177,188" text-anchor="start" x="21.0" y="187.0" font-family="monospace" font-size="10px" fill="#000" opacity="1">wisely</text>
<text aria-label="21,54,193,204" text-anchor="start" x="21.0" y="203.0" font-family="monospace" font-size="10px" fill="#000" opacity="1">yellow</text>
<text aria-label="5,101,32,44" text-anchor="start" x="5.0" y="43.0" font-family="monospace" font-size="11px" font-weight="bold" fill="#000" opacity="1">Bronze Architect</text>
</svg>