<svg xmlns="http://www.w3.org/2000/svg" xmlns:xlink="http://www.w3.org/1999/xlink" version="1.1" class="marks" width="355" height="239" viewBox="0 0 355 239" style="background-color: rgb(255, 255, 255);">
<text aria-label="69,355,0,26" text-anchor="middle" x="212.0" y="25.0" font-family="avenir" font-size="25px" font-weight="bold" fill="#000" opacity="1">copyright auxiliary ah</text>
<path aria-label="close: 264; HDD Southwest: Southeast" role="graphics-symbol" aria-roledescription="arc mark"  d="M149.82218205837188,92.06053223969397A75,75,0,0,0,212.30799841404868,208.9993675771799L212.0,134.0Z" fill="#499641" stroke="white" stroke-width="0"/>
<path aria-label="close: 119; HDD Southwest: reinvent" role="graphics-symbol" aria-roledescription="arc mark"  d="M212.0,59.0A75,75,0,0,0,149.82218205837188,92.06053223969397L212.0,134.0Z" fill="#ba93c9" stroke="white" stroke-width="0"/>
<path aria-label="close: 382; HDD Southwest: Response" role="graphics-symbol" aria-roledescription="arc mark"  d="M212.30799841404868,208.9993675771799A75,75,0,0,0,212.0,59.0L212.0,134.0Z" fill="#bdc53a" stroke="white" stroke-width="0"/>
<path  d="M16.0,56.0A5,5,0,1,1,6.0,56.0A5,5,0,1,1,16.0,56.0" fill="#bdc53a" stroke="white" stroke-width="1.5" opacity="1"/>
<path  d="M16.0,72.0A5,5,0,1,1,6.0,72.0A5,5,0,1,1,16.0,72.0" fill="#499641" stroke="white" stroke-width="1.5" opacity="1"/>
<path  d="M16.0,88.0A5,5,0,1,1,6.0,88.0A5,5,0,1,1,16.0,88.0" fill="#ba93c9" stroke="white" stroke-width="1.5" opacity="1"/>
<text aria-label="21,65,49,60" text-anchor="start" x="21.0" y="59.0" font-family="avenir" font-size="10px" fill="#000" opacity="1">Response</text>
<text aria-label="21,70,65,76" text-anchor="start" x="21.0" y="75.0" font-family="avenir" font-size="10px" fill="#000" opacity="1">Southeast</text>
<text aria-label="21,65,81,92" text-anchor="start" x="21.0" y="91.0" font-family="avenir" font-size="10px" fill="#000" opacity="1">reinvent</text>
<text aria-label="5,83,32,44" text-anchor="start" x="5.0" y="43.0" font-family="avenir" font-size="11px" font-weight="bold" fill="#000" opacity="1">HDD Southwest</text>
</svg>