<svg xmlns="http://www.w3.org/2000/svg" xmlns:xlink="http://www.w3.org/1999/xlink" version="1.1" class="marks" width="381" height="270" viewBox="0 0 381 270" style="background-color: rgb(255, 255, 255);">
<text aria-label="246,376,0,26" text-anchor="end" x="376.0" y="25.0" font-family="monospace" font-size="25px" font-weight="bold" fill="#000" opacity="1">black blue</text>
<path aria-label="Bike optical: 3; card male besides: lest" role="graphics-symbol" aria-roledescription="arc mark"  d="M46.36263881489776,87.238264860595A75,75,0,0,0,46.36263881489777,180.761735139405L105.0,134.0Z" fill="#bd6a4c" stroke="black" stroke-width="4"/>
<path aria-label="Bike optical: 2; card male besides: loving" role="graphics-symbol" aria-roledescription="arc mark"  d="M104.99999999999999,59.0A75,75,0,0,0,46.36263881489776,87.238264860595L105.0,134.0Z" fill="#6ed9ad" stroke="black" stroke-width="4"/>
<path aria-label="Bike optical: 2; card male besides: Paradigm" role="graphics-symbol" aria-roledescription="arc mark"  d="M105.0,209.0A75,75,0,0,0,163.63736118510224,180.761735139405L105.0,134.0Z" fill="#a9ebda" stroke="black" stroke-width="4"/>
<path aria-label="Bike optical: 3; card male besides: Maldives" role="graphics-symbol" aria-roledescription="arc mark"  d="M163.63736118510224,180.761735139405A75,75,0,0,0,163.63736118510224,87.238264860595L105.0,134.0Z" fill="#36989a" stroke="black" stroke-width="4"/>
<path aria-label="Bike optical: 2; card male besides: Xenogender" role="graphics-symbol" aria-roledescription="arc mark"  d="M46.36263881489777,180.761735139405A75,75,0,0,0,105.0,209.0L105.0,134.0Z" fill="#9940a4" stroke="black" stroke-width="4"/>
<path aria-label="Bike optical: 2; card male besides: Director" role="graphics-symbol" aria-roledescription="arc mark"  d="M163.63736118510224,87.238264860595A75,75,0,0,0,105.0,59.0L105.0,134.0Z" fill="#a1cb1e" stroke="black" stroke-width="4"/>
<path  d="M16.0,258.25A5,5,0,1,1,6.0,258.25A5,5,0,1,1,16.0,258.25" fill="#a1cb1e" stroke="black" stroke-width="1.5" opacity="1"/>
<path  d="M83.0,258.25A5,5,0,1,1,73.0,258.25A5,5,0,1,1,83.0,258.25" fill="#36989a" stroke="black" stroke-width="1.5" opacity="1"/>
<path  d="M150.0,258.25A5,5,0,1,1,140.0,258.25A5,5,0,1,1,150.0,258.25" fill="#a9ebda" stroke="black" stroke-width="1.5" opacity="1"/>
<path  d="M217.0,258.25A5,5,0,1,1,207.0,258.25A5,5,0,1,1,217.0,258.25" fill="#9940a4" stroke="black" stroke-width="1.5" opacity="1"/>
<path  d="M294.0,258.25A5,5,0,1,1,284.0,258.25A5,5,0,1,1,294.0,258.25" fill="#bd6a4c" stroke="black" stroke-width="1.5" opacity="1"/>
<path  d="M341.0,258.25A5,5,0,1,1,331.0,258.25A5,5,0,1,1,341.0,258.25" fill="#6ed9ad" stroke="black" stroke-width="1.5" opacity="1"/>
<text aria-label="21,65,251,262" text-anchor="start" x="21.0" y="261.25" font-family="monospace" font-size="10px" fill="#000" opacity="1">Director</text>
<text aria-label="88,132,251,262" text-anchor="start" x="88.0" y="261.25" font-family="monospace" font-size="10px" fill="#000" opacity="1">Maldives</text>
<text aria-label="155,199,251,262" text-anchor="start" x="155.0" y="261.25" font-family="monospace" font-size="10px" fill="#000" opacity="1">Paradigm</text>
<text aria-label="222,277,251,262" text-anchor="start" x="222.0" y="261.25" font-family="monospace" font-size="10px" fill="#000" opacity="1">Xenogender</text>
<text aria-label="299,321,251,262" text-anchor="start" x="299.0" y="261.25" font-family="monospace" font-size="10px" fill="#000" opacity="1">lest</text>
<text aria-label="346,379,251,262" text-anchor="start" x="346.0" y="261.25" font-family="monospace" font-size="10px" fill="#000" opacity="1">loving</text>
</svg>