<svg xmlns="http://www.w3.org/2000/svg" xmlns:xlink="http://www.w3.org/1999/xlink" version="1.1" class="marks" width="289" height="239" viewBox="0 0 289 239" style="background-color: rgb(255, 255, 255);">
<text aria-label="24,284,0,26" text-anchor="end" x="284.0" y="25.0" font-family="monospace" font-size="25px" font-weight="bold" fill="#000" opacity="1">Tactics Bicycle West</text>
<path aria-label="Calcium: 113; Cheese: Southwest" role="graphics-symbol" aria-roledescription="arc mark"  d="M154.38722610232824,190.44379414884781A75,75,0,0,0,176.2081132502903,157.54579808232947L158.16872456021676,151.58086256813934A56,56,0,0,1,141.87579548973844,176.1446996311397Z" fill="#7f5fbd" stroke="white" stroke-width="0"/>
<path aria-label="Calcium: 88; Cheese: Hybrid" role="graphics-symbol" aria-roledescription="arc mark"  d="M135.22510070007212,65.36004598143658A75,75,0,0,0,105.0,59.0L105.0,78.0A56,56,0,0,1,127.56807518938719,82.74883433280598Z" fill="#ed8c80" stroke="white" stroke-width="0"/>
<path aria-label="Calcium: 127; Cheese: Soap" role="graphics-symbol" aria-roledescription="arc mark"  d="M176.2081132502903,157.54579808232947A75,75,0,0,0,177.09408582263563,113.32531041591072L158.83025074756793,118.56289844388002A56,56,0,0,1,158.16872456021676,151.58086256813934Z" fill="#70cfa9" stroke="white" stroke-width="0"/>
<path aria-label="Calcium: 186; Cheese: ivory" role="graphics-symbol" aria-roledescription="arc mark"  d="M31.517514776959814,149.01080828755335A75,75,0,0,0,69.53325150171312,200.08411118384862L78.51816112127912,183.34280301727364A56,56,0,0,1,50.133077700129995,145.20807018803984Z" fill="#d8f2db" stroke="white" stroke-width="0"/>
<path aria-label="Calcium: 166; Cheese: porro" role="graphics-symbol" aria-roledescription="arc mark"  d="M104.99999999999999,59.0A75,75,0,0,0,52.12345547801768,80.8109876063221L65.51884675691987,94.2855374127205A56,56,0,0,1,104.99999999999999,78.0Z" fill="#1e8baa" stroke="white" stroke-width="0"/>
<path aria-label="Calcium: 210; Cheese: populate" role="graphics-symbol" aria-roledescription="arc mark"  d="M52.12345547801768,80.8109876063221A75,75,0,0,0,31.517514776959814,149.01080828755335L50.133077700129995,145.20807018803984A56,56,0,0,1,65.51884675691987,94.2855374127205Z" fill="#1d9be0" stroke="white" stroke-width="0"/>
<path aria-label="Calcium: 186; Cheese: Product" role="graphics-symbol" aria-roledescription="arc mark"  d="M177.09408582263563,113.32531041591072A75,75,0,0,0,135.22510070007212,65.36004598143658L127.56807518938719,82.74883433280598A56,56,0,0,1,158.83025074756793,118.56289844388002Z" fill="#17e7c7" stroke="white" stroke-width="0"/>
<path aria-label="Calcium: 65; Cheese: indeed" role="graphics-symbol" aria-roledescription="arc mark"  d="M69.53325150171312,200.08411118384862A75,75,0,0,0,91.1165940737685,207.7038061424746L94.63372357508047,189.0321752530477A56,56,0,0,1,78.51816112127912,183.34280301727364Z" fill="#d0dfe3" stroke="white" stroke-width="0"/>
<path aria-label="Calcium: 60; Cheese: an" role="graphics-symbol" aria-roledescription="arc mark"  d="M136.67411823072896,201.98345559256165A75,75,0,0,0,154.38722610232824,190.44379414884781L141.87579548973844,176.1446996311397A56,56,0,0,1,128.65000827894428,184.76098017577937Z" fill="#11eb5c" stroke="white" stroke-width="0"/>
<path aria-label="Calcium: 132; Cheese: hack" role="graphics-symbol" aria-roledescription="arc mark"  d="M91.1165940737685,207.7038061424746A75,75,0,0,0,136.67411823072896,201.98345559256165L128.65000827894428,184.76098017577937A56,56,0,0,1,94.63372357508047,189.0321752530477Z" fill="#bb7fe3" stroke="white" stroke-width="0"/>
<text aria-label="174,186,178,186" role="graphics-symbol" aria-roledescription="text mark" text-anchor="middle" x="180.00123363489243" y="185.74751203069638" font-family="monospace" font-size="7px" fill="#7f5fbd" opacity="1">113</text>
<text aria-label="119,127,40,48" role="graphics-symbol" aria-roledescription="text mark" text-anchor="middle" x="123.53220124533445" y="47.92867937289448" font-family="monospace" font-size="7px" fill="#ed8c80" opacity="1">88</text>
<text aria-label="188,200,130,138" role="graphics-symbol" aria-roledescription="text mark" text-anchor="middle" x="194.98194176551903" y="137.80281893343215" font-family="monospace" font-size="7px" fill="#70cfa9" opacity="1">127</text>
<text aria-label="26,38,182,190" role="graphics-symbol" aria-roledescription="text mark" text-anchor="middle" x="32.80422168164965" y="189.73797161233026" font-family="monospace" font-size="7px" fill="#d8f2db" opacity="1">186</text>
<text aria-label="64,76,45,53" role="graphics-symbol" aria-roledescription="text mark" text-anchor="middle" x="70.68100626851955" y="52.800200305177384" font-family="monospace" font-size="7px" fill="#1e8baa" opacity="1">166</text>
<text aria-label="12,24,102,110" role="graphics-symbol" aria-roledescription="text mark" text-anchor="middle" x="18.84656026565156" y="109.96954049694872" font-family="monospace" font-size="7px" fill="#1d9be0" opacity="1">210</text>
<text aria-label="166,178,69,77" role="graphics-symbol" aria-roledescription="text mark" text-anchor="middle" x="172.8023429407684" y="76.8151852943474" font-family="monospace" font-size="7px" fill="#17e7c7" opacity="1">186</text>
<text aria-label="71,79,213,221" role="graphics-symbol" aria-roledescription="text mark" text-anchor="middle" x="75.03904044468737" y="220.86660652179347" font-family="monospace" font-size="7px" fill="#d0dfe3" opacity="1">65</text>
<text aria-label="150,158,204,212" role="graphics-symbol" aria-roledescription="text mark" text-anchor="middle" x="154.1271607084562" y="211.40903182461315" font-family="monospace" font-size="7px" fill="#11eb5c" opacity="1">60</text>
<text aria-label="110,122,218,226" role="graphics-symbol" aria-roledescription="text mark" text-anchor="middle" x="116.21264766669778" y="225.2988047641316" font-family="monospace" font-size="7px" fill="#bb7fe3" opacity="1">132</text>
<path  d="M234.0,40.0A5,5,0,1,1,224.0,40.0A5,5,0,1,1,234.0,40.0" fill="#ed8c80" stroke="white" stroke-width="1.5" opacity="1"/>
<path  d="M234.0,56.0A5,5,0,1,1,224.0,56.0A5,5,0,1,1,234.0,56.0" fill="#17e7c7" stroke="white" stroke-width="1.5" opacity="1"/>
<path  d="M234.0,72.0A5,5,0,1,1,224.0,72.0A5,5,0,1,1,234.0,72.0" fill="#70cfa9" stroke="white" stroke-width="1.5" opacity="1"/>
<path  d="M234.0,88.0A5,5,0,1,1,224.0,88.0A5,5,0,1,1,234.0,88.0" fill="#7f5fbd" stroke="white" stroke-width="1.5" opacity="1"/>
<path  d="M234.0,104.0A5,5,0,1,1,224.0,104.0A5,5,0,1,1,234.0,104.0" fill="#11eb5c" stroke="white" stroke-width="1.5" opacity="1"/>
<path  d="M234.0,120.0A5,5,0,1,1,224.0,120.0A5,5,0,1,1,234.0,120.0" fill="#bb7fe3" stroke="white" stroke-width="1.5" opacity="1"/>
<path  d="M234.0,136.0A5,5,0,1,1,224.0,136.0A5,5,0,1,1,234.0,136.0" fill="#d0dfe3" stroke="white" stroke-width="1.5" opacity="1"/>
<path  d="M234.0,152.0A5,5,0,1,1,224.0,152.0A5,5,0,1,1,234.0,152.0" fill="#d8f2db" stroke="white" stroke-width="1.5" opacity="1"/>
<path  d="M234.0,168.0A5,5,0,1,1,224.0,168.0A5,5,0,1,1,234.0,168.0" fill="#1d9be0" stroke="white" stroke-width="1.5" opacity="1"/>
<path  d="M234.0,184.0A5,5,0,1,1,224.0,184.0A5,5,0,1,1,234.0,184.0" fill="#1e8baa" stroke="white" stroke-width="1.5" opacity="1"/>
<text aria-label="239,272,33,44" text-anchor="start" x="239.0" y="43.0" font-family="monospace" font-size="10px" fill="#000" opacity="1">Hybrid</text>
<text aria-label="239,277,49,60" text-anchor="start" x="239.0" y="59.0" font-family="monospace" font-size="10px" fill="#000" opacity="1">Product</text>
<text aria-label="239,261,65,76" text-anchor="start" x="239.0" y="75.0" font-family="monospace" font-size="10px" fill="#000" opacity="1">Soap</text>
<text aria-label="239,288,81,92" text-anchor="start" x="239.0" y="91.0" font-family="monospace" font-size="10px" fill="#000" opacity="1">Southwest</text>
<text aria-label="239,250,97,108" text-anchor="start" x="239.0" y="107.0" font-family="monospace" font-size="10px" fill="#000" opacity="1">an</text>
<text aria-label="239,261,113,124" text-anchor="start" x="239.0" y="123.0" font-family="monospace" font-size="10px" fill="#000" opacity="1">hack</text>
<text aria-label="239,272,129,140" text-anchor="start" x="239.0" y="139.0" font-family="monospace" font-size="10px" fill="#000" opacity="1">indeed</text>
<text aria-label="239,266,145,156" text-anchor="start" x="239.0" y="155.0" font-family="monospace" font-size="10px" fill="#000" opacity="1">ivory</text>
<text aria-label="239,283,161,172" text-anchor="start" x="239.0" y="171.0" font-family="monospace" font-size="10px" fill="#000" opacity="1">populate</text>
<text aria-label="239,266,177,188" text-anchor="start" x="239.0" y="187.0" font-family="monospace" font-size="10px" fill="#000" opacity="1">porro</text>
</svg>