<svg xmlns="http://www.w3.org/2000/svg" xmlns:xlink="http://www.w3.org/1999/xlink" version="1.1" class="marks" width="407" height="239" viewBox="0 0 407 239" style="background-color: rgb(255, 255, 255);">
<text aria-label="7,202,0,26" text-anchor="middle" x="105.0" y="25.0" font-family="Balto" font-size="25px" font-weight="bold" fill="#000" opacity="1">peaceful Frozen</text>
<path aria-label="Cambridgeshire Bypass: 363; Grove Bedfordshire Applications: Intelligent" role="graphics-symbol" aria-roledescription="arc mark"  d="M179.99460833094605,134.89928932385322A75,75,0,0,0,105.0,59.0L105.0,93.0A41,41,0,0,1,145.9970525542505,134.49161149703977Z" fill="#c948b0" stroke="black" stroke-width="1"/>
<path aria-label="Cambridgeshire Bypass: 322; Grove Bedfordshire Applications: bah" role="graphics-symbol" aria-roledescription="arc mark"  d="M104.99999999999999,59.0A75,75,0,0,0,31.040684278529994,121.54931254862129L64.56890740559639,127.19362419324631A41,41,0,0,1,104.99999999999999,93.0Z" fill="#5e5343" stroke="black" stroke-width="1"/>
<path aria-label="Cambridgeshire Bypass: 85; Grove Bedfordshire Applications: Sedan" role="graphics-symbol" aria-roledescription="arc mark"  d="M174.5768376557811,162.0011367951567A75,75,0,0,0,179.99460833094605,134.89928932385322L145.9970525542505,134.49161149703977A41,41,0,0,1,143.03533791849367,149.30728811468566Z" fill="#ad93bb" stroke="black" stroke-width="1"/>
<path aria-label="Cambridgeshire Bypass: 432; Grove Bedfordshire Applications: VGA" role="graphics-symbol" aria-roledescription="arc mark"  d="M31.040684278529994,121.54931254862129A75,75,0,0,0,115.91632550584129,208.20130617078462L110.96759127652658,174.5633807066956A41,41,0,0,1,64.56890740559639,127.19362419324631Z" fill="#dfd7b1" stroke="black" stroke-width="1"/>
<path aria-label="Cambridgeshire Bypass: 239; Grove Bedfordshire Applications: Sedan" role="graphics-symbol" aria-roledescription="arc mark"  d="M115.91632550584129,208.20130617078462A75,75,0,0,0,174.5768376557811,162.0011367951567L143.03533791849367,149.30728811468566A41,41,0,0,1,110.96759127652658,174.5633807066956Z" fill="#ad93bb" stroke="black" stroke-width="1"/>
<text aria-label="160,177,63,74" role="graphics-symbol" aria-roledescription="text mark" text-anchor="middle" x="169.02000955551375" y="73.74307645394121" font-family="Balto" font-size="10px" fill="#c948b0" opacity="1">363</text>
<text aria-label="38,55,58,69" role="graphics-symbol" aria-roledescription="text mark" text-anchor="middle" x="46.882335924217" y="68.28073689005068" font-family="Balto" font-size="10px" fill="#5e5343" opacity="1">322</text>
<text aria-label="187,198,144,155" role="graphics-symbol" aria-roledescription="text mark" text-anchor="middle" x="193.25388788704072" y="154.64231483739167" font-family="Balto" font-size="10px" fill="#ad93bb" opacity="1">85</text>
<text aria-label="32,48,189,200" role="graphics-symbol" aria-roledescription="text mark" text-anchor="middle" x="40.70478104051293" y="199.97717696873698" font-family="Balto" font-size="10px" fill="#dfd7b1" opacity="1">432</text>
<text aria-label="152,168,197,208" role="graphics-symbol" aria-roledescription="text mark" text-anchor="middle" x="160.6857054170646" y="207.70432951527016" font-family="Balto" font-size="10px" fill="#ad93bb" opacity="1">239</text>
<path  d="M234.0,56.0A5,5,0,1,1,224.0,56.0A5,5,0,1,1,234.0,56.0" fill="#c948b0" stroke="black" stroke-width="1.5" opacity="1"/>
<path  d="M234.0,72.0A5,5,0,1,1,224.0,72.0A5,5,0,1,1,234.0,72.0" fill="#ad93bb" stroke="black" stroke-width="1.5" opacity="1"/>
<path  d="M234.0,88.0A5,5,0,1,1,224.0,88.0A5,5,0,1,1,234.0,88.0" fill="#dfd7b1" stroke="black" stroke-width="1.5" opacity="1"/>
<path  d="M234.0,104.0A5,5,0,1,1,224.0,104.0A5,5,0,1,1,234.0,104.0" fill="#5e5343" stroke="black" stroke-width="1.5" opacity="1"/>
<text aria-label="239,299,49,60" text-anchor="start" x="239.0" y="59.0" font-family="Balto" font-size="10px" fill="#000" opacity="1">Intelligent</text>
<text aria-label="239,266,65,76" text-anchor="start" x="239.0" y="75.0" font-family="Balto" font-size="10px" fill="#000" opacity="1">Sedan</text>
<text aria-label="239,255,81,92" text-anchor="start" x="239.0" y="91.0" font-family="Balto" font-size="10px" fill="#000" opacity="1">VGA</text>
<text aria-label="239,255,97,108" text-anchor="start" x="239.0" y="107.0" font-family="Balto" font-size="10px" fill="#000" opacity="1">bah</text>
<text aria-label="223,403,32,44" text-anchor="start" x="223.0" y="43.0" font-family="Balto" font-size="11px" font-weight="bold" fill="#000" opacity="1">Grove Bedfordshire Applicatio…</text>
</svg>