<svg xmlns="http://www.w3.org/2000/svg" xmlns:xlink="http://www.w3.org/1999/xlink" version="1.1" class="marks" width="309" height="239" viewBox="0 0 309 239" style="background-color: rgb(255, 255, 255);">
<text aria-label="53,157,0,26" text-anchor="middle" x="105.0" y="25.0" font-family="serif" font-size="25px" font-weight="bold" fill="#000" opacity="1">protocol</text>
<path aria-label="Data: 205; Marketing Reactive Xenogender: Configuration" role="graphics-symbol" aria-roledescription="arc mark"  d="M130.8801599922601,63.60669549754736A75,75,0,0,0,105.0,59.0L105.0,134.0Z" fill="#ad8adc" stroke="white" stroke-width="2"/>
<path aria-label="Data: 58; Marketing Reactive Xenogender: haptic" role="graphics-symbol" aria-roledescription="arc mark"  d="M31.642505032004877,118.38981319712764A75,75,0,0,0,30.453211268244488,125.767364347731L105.0,134.0Z" fill="#90e8ae" stroke="white" stroke-width="2"/>
<path aria-label="Data: 195; Marketing Reactive Xenogender: Extension" role="graphics-symbol" aria-roledescription="arc mark"  d="M152.5919498297941,76.03443857428479A75,75,0,0,0,130.8801599922601,63.60669549754736L105.0,134.0Z" fill="#f1e10d" stroke="white" stroke-width="2"/>
<path aria-label="Data: 204; Marketing Reactive Xenogender: Officer" role="graphics-symbol" aria-roledescription="arc mark"  d="M159.99975974528903,184.9904542827428A75,75,0,0,0,174.16701113670314,162.9986994607549L105.0,134.0Z" fill="#deac15" stroke="white" stroke-width="2"/>
<path aria-label="Data: 44; Marketing Reactive Xenogender: OCR" role="graphics-symbol" aria-roledescription="arc mark"  d="M174.16701113670314,162.9986994607549A75,75,0,0,0,176.1600933237484,157.6905280260998L105.0,134.0Z" fill="#ab48c5" stroke="white" stroke-width="2"/>
<path aria-label="Data: 701; Marketing Reactive Xenogender: Gourde" role="graphics-symbol" aria-roledescription="arc mark"  d="M176.1600933237484,157.6905280260998A75,75,0,0,0,152.5919498297941,76.03443857428479L105.0,134.0Z" fill="#c69758" stroke="white" stroke-width="2"/>
<path aria-label="Data: 699; Marketing Reactive Xenogender: matrix" role="graphics-symbol" aria-roledescription="arc mark"  d="M93.0637673208429,59.95591617536873A75,75,0,0,0,31.642505032004877,118.38981319712764L105.0,134.0Z" fill="#0a4fda" stroke="white" stroke-width="2"/>
<path aria-label="Data: 93; Marketing Reactive Xenogender: right" role="graphics-symbol" aria-roledescription="arc mark"  d="M104.99999999999999,59.0A75,75,0,0,0,93.0637673208429,59.95591617536873L105.0,134.0Z" fill="#dceaf3" stroke="white" stroke-width="2"/>
<path aria-label="Data: 705; Marketing Reactive Xenogender: Steel" role="graphics-symbol" aria-roledescription="arc mark"  d="M76.59671442512226,203.4136396434587A75,75,0,0,0,159.99975974528903,184.9904542827428L105.0,134.0Z" fill="#3ce6ce" stroke="white" stroke-width="2"/>
<path aria-label="Data: 128; Marketing Reactive Xenogender: beatae" role="graphics-symbol" aria-roledescription="arc mark"  d="M62.13441036187481,195.54300305457846A75,75,0,0,0,76.59671442512226,203.4136396434587L105.0,134.0Z" fill="#3a1daf" stroke="white" stroke-width="2"/>
<path aria-label="Data: 624; Marketing Reactive Xenogender: considering" role="graphics-symbol" aria-roledescription="arc mark"  d="M30.453211268244488,125.767364347731A75,75,0,0,0,62.13441036187481,195.54300305457846L105.0,134.0Z" fill="#ffd48d" stroke="white" stroke-width="2"/>
<text aria-label="114,126,40,48" role="graphics-symbol" aria-roledescription="text mark" text-anchor="middle" x="120.77217666866426" y="47.39278560335822" font-family="serif" font-size="7px" fill="#ad8adc" opacity="1">205</text>
<text aria-label="12,20,114,122" role="graphics-symbol" aria-roledescription="text mark" text-anchor="middle" x="16.147099410442465" y="121.6765207850115" font-family="serif" font-size="7px" fill="#90e8ae" opacity="1">58</text>
<text aria-label="143,155,50,58" role="graphics-symbol" aria-roledescription="text mark" text-anchor="middle" x="149.70946095723744" y="57.89069132994928" font-family="serif" font-size="7px" fill="#f1e10d" opacity="1">195</text>
<text aria-label="174,186,177,185" role="graphics-symbol" aria-roledescription="text mark" text-anchor="middle" x="180.65955813846762" y="184.74044790819877" font-family="serif" font-size="7px" fill="#deac15" opacity="1">204</text>
<text aria-label="185,193,160,168" role="graphics-symbol" aria-roledescription="text mark" text-anchor="middle" x="189.25647900834866" y="167.63614617989526" font-family="serif" font-size="7px" fill="#ab48c5" opacity="1">44</text>
<text aria-label="185,197,104,112" role="graphics-symbol" aria-roledescription="text mark" text-anchor="middle" x="191.47031450835198" y="111.04234167982312" font-family="serif" font-size="7px" fill="#c69758" opacity="1">701</text>
<text aria-label="36,48,63,71" role="graphics-symbol" aria-roledescription="text mark" text-anchor="middle" x="42.96586014979657" y="70.79443664038013" font-family="serif" font-size="7px" fill="#0a4fda" opacity="1">699</text>
<text aria-label="93,101,39,47" role="graphics-symbol" aria-roledescription="text mark" text-anchor="middle" x="97.81533066384323" y="46.28723320212396" font-family="serif" font-size="7px" fill="#dceaf3" opacity="1">93</text>
<text aria-label="118,130,216,224" role="graphics-symbol" aria-roledescription="text mark" text-anchor="middle" x="124.41244525987781" y="223.8814938939493" font-family="serif" font-size="7px" fill="#3ce6ce" opacity="1">705</text>
<text aria-label="55,67,208,216" role="graphics-symbol" aria-roledescription="text mark" text-anchor="middle" x="61.97870506367002" y="215.0516804502049" font-family="serif" font-size="7px" fill="#3a1daf" opacity="1">128</text>
<text aria-label="17,29,166,174" role="graphics-symbol" aria-roledescription="text mark" text-anchor="middle" x="23.05153883988183" y="173.20819417129246" font-family="serif" font-size="7px" fill="#ffd48d" opacity="1">624</text>
<path  d="M234.0,40.0A5,5,0,1,1,224.0,40.0A5,5,0,1,1,234.0,40.0" fill="#ad8adc" stroke="white" stroke-width="1.5" opacity="1"/>
<path  d="M234.0,56.0A5,5,0,1,1,224.0,56.0A5,5,0,1,1,234.0,56.0" fill="#f1e10d" stroke="white" stroke-width="1.5" opacity="1"/>
<path  d="M234.0,72.0A5,5,0,1,1,224.0,72.0A5,5,0,1,1,234.0,72.0" fill="#c69758" stroke="white" stroke-width="1.5" opacity="1"/>
<path  d="M234.0,88.0A5,5,0,1,1,224.0,88.0A5,5,0,1,1,234.0,88.0" fill="#ab48c5" stroke="white" stroke-width="1.5" opacity="1"/>
<path  d="M234.0,104.0A5,5,0,1,1,224.0,104.0A5,5,0,1,1,234.0,104.0" fill="#deac15" stroke="white" stroke-width="1.5" opacity="1"/>
<path  d="M234.0,120.0A5,5,0,1,1,224.0,120.0A5,5,0,1,1,234.0,120.0" fill="#3ce6ce" stroke="white" stroke-width="1.5" opacity="1"/>
<path  d="M234.0,136.0A5,5,0,1,1,224.0,136.0A5,5,0,1,1,234.0,136.0" fill="#3a1daf" stroke="white" stroke-width="1.5" opacity="1"/>
<path  d="M234.0,152.0A5,5,0,1,1,224.0,152.0A5,5,0,1,1,234.0,152.0" fill="#ffd48d" stroke="white" stroke-width="1.5" opacity="1"/>
<path  d="M234.0,168.0A5,5,0,1,1,224.0,168.0A5,5,0,1,1,234.0,168.0" fill="#90e8ae" stroke="white" stroke-width="1.5" opacity="1"/>
<path  d="M234.0,184.0A5,5,0,1,1,224.0,184.0A5,5,0,1,1,234.0,184.0" fill="#0a4fda" stroke="white" stroke-width="1.5" opacity="1"/>
<path  d="M234.0,200.0A5,5,0,1,1,224.0,200.0A5,5,0,1,1,234.0,200.0" fill="#dceaf3" stroke="white" stroke-width="1.5" opacity="1"/>
<text aria-label="239,310,33,44" text-anchor="start" x="239.0" y="43.0" font-family="serif" font-size="10px" fill="#000" opacity="1">Configuration</text>
<text aria-label="239,288,49,60" text-anchor="start" x="239.0" y="59.0" font-family="serif" font-size="10px" fill="#000" opacity="1">Extension</text>
<text aria-label="239,272,65,76" text-anchor="start" x="239.0" y="75.0" font-family="serif" font-size="10px" fill="#000" opacity="1">Gourde</text>
<text aria-label="239,255,81,92" text-anchor="start" x="239.0" y="91.0" font-family="serif" font-size="10px" fill="#000" opacity="1">OCR</text>
<text aria-label="239,277,97,108" text-anchor="start" x="239.0" y="107.0" font-family="serif" font-size="10px" fill="#000" opacity="1">Officer</text>
<text aria-label="239,266,113,124" text-anchor="start" x="239.0" y="123.0" font-family="serif" font-size="10px" fill="#000" opacity="1">Steel</text>
<text aria-label="239,272,129,140" text-anchor="start" x="239.0" y="139.0" font-family="serif" font-size="10px" fill="#000" opacity="1">beatae</text>
<text aria-label="239,299,145,156" text-anchor="start" x="239.0" y="155.0" font-family="serif" font-size="10px" fill="#000" opacity="1">considering</text>
<text aria-label="239,272,161,172" text-anchor="start" x="239.0" y="171.0" font-family="serif" font-size="10px" fill="#000" opacity="1">haptic</text>
<text aria-label="239,272,177,188" text-anchor="start" x="239.0" y="187.0" font-family="serif" font-size="10px" fill="#000" opacity="1">matrix</text>
<text aria-label="239,266,193,204" text-anchor="start" x="239.0" y="203.0" font-family="serif" font-size="10px" fill="#000" opacity="1">right</text>
</svg>