<svg xmlns="http://www.w3.org/2000/svg" xmlns:xlink="http://www.w3.org/1999/xlink" version="1.1" class="marks" width="321" height="239" viewBox="0 0 321 239" style="background-color: rgb(255, 255, 255);">
<text aria-label="82,316,0,26" text-anchor="middle" x="199.0" y="25.0" font-family="serif" font-size="25px" font-weight="bold" fill="#000" opacity="1">Checking Oganesson</text>
<path aria-label="Avon payment impractical: 14; fuchsia Convertible Southeast: among" role="graphics-symbol" aria-roledescription="arc mark"  d="M182.58630257405963,207.1819003361465A75,75,0,0,0,184.42161676652836,207.56949600410508L192.19675449104656,168.33243146858237A35,35,0,0,1,191.34027453456116,168.1515534902017Z" fill="#b6b017" stroke="black" stroke-width="3"/>
<path aria-label="Avon payment impractical: 271; fuchsia Convertible Southeast: Lamborghini" role="graphics-symbol" aria-roledescription="arc mark"  d="M184.42161676652836,207.56949600410508A75,75,0,0,0,220.34022435783817,205.89989446694017L208.95877136699113,167.55328408457206A35,35,0,0,1,192.19675449104656,168.33243146858237Z" fill="#d52afa" stroke="black" stroke-width="3"/>
<path aria-label="Avon payment impractical: 752; fuchsia Convertible Southeast: Bedfordshire" role="graphics-symbol" aria-roledescription="arc mark"  d="M227.5387048437304,203.3580732564165A75,75,0,0,0,273.0056254439293,121.82759667720289L233.53595854050036,128.31954511602802A35,35,0,0,1,212.31806226040752,166.36710085299438Z" fill="#ff78ff" stroke="black" stroke-width="3"/>
<path aria-label="Avon payment impractical: 361; fuchsia Convertible Southeast: though" role="graphics-symbol" aria-roledescription="arc mark"  d="M171.01980402740506,64.41473838997814A75,75,0,0,0,134.80907406300815,95.21179267674742L169.04423456273713,115.89883658248212A35,35,0,0,1,185.94257521278902,101.52687791532313Z" fill="#ddeefc" stroke="black" stroke-width="3"/>
<path aria-label="Avon payment impractical: 788; fuchsia Convertible Southeast: Avon" role="graphics-symbol" aria-roledescription="arc mark"  d="M273.0056254439293,121.82759667720289A75,75,0,0,0,199.0,59.0L199.0,99.0A35,35,0,0,1,233.53595854050036,128.31954511602802Z" fill="#1ec1a7" stroke="black" stroke-width="3"/>
<path aria-label="Avon payment impractical: 294; fuchsia Convertible Southeast: female" role="graphics-symbol" aria-roledescription="arc mark"  d="M134.80907406300815,95.21179267674742A75,75,0,0,0,124.0125742434025,132.6266907126299L164.0058679802545,133.35912233256062A35,35,0,0,1,169.04423456273713,115.89883658248212Z" fill="#3959ca" stroke="black" stroke-width="3"/>
<path aria-label="Avon payment impractical: 214; fuchsia Convertible Southeast: um" role="graphics-symbol" aria-roledescription="arc mark"  d="M199.0,59.0A75,75,0,0,0,171.01980402740506,64.41473838997814L185.94257521278902,101.52687791532313A35,35,0,0,1,199.0,99.0Z" fill="#f7fdfa" stroke="black" stroke-width="3"/>
<path aria-label="Avon payment impractical: 57; fuchsia Convertible Southeast: Data" role="graphics-symbol" aria-roledescription="arc mark"  d="M220.34022435783817,205.89989446694017A75,75,0,0,0,227.5387048437304,203.3580732564165L212.31806226040752,166.36710085299438A35,35,0,0,1,208.95877136699113,167.55328408457206Z" fill="#e86d7a" stroke="black" stroke-width="3"/>
<path aria-label="Avon payment impractical: 183; fuchsia Convertible Southeast: expedite" role="graphics-symbol" aria-roledescription="arc mark"  d="M124.0125742434025,132.6266907126299A75,75,0,0,0,127.54350081812005,156.78088507213866L165.65363371512268,144.63107970033138A35,35,0,0,1,164.0058679802545,133.35912233256062Z" fill="#18bc86" stroke="black" stroke-width="3"/>
<path aria-label="Avon payment impractical: 583; fuchsia Convertible Southeast: disability" role="graphics-symbol" aria-roledescription="arc mark"  d="M127.54350081812005,156.78088507213866A75,75,0,0,0,182.58630257405963,207.1819003361465L191.34027453456116,168.1515534902017A35,35,0,0,1,165.65363371512268,144.63107970033138Z" fill="#8726ae" stroke="black" stroke-width="3"/>
<text aria-label="174,185,215,226" role="graphics-symbol" aria-roledescription="text mark" text-anchor="middle" x="180.40329744711514" y="225.05772342139858" font-family="serif" font-size="10px" fill="#b6b017" opacity="1">14</text>
<text aria-label="194,211,216,227" role="graphics-symbol" aria-roledescription="text mark" text-anchor="middle" x="203.17895002198736" y="226.9029275202634" font-family="serif" font-size="10px" fill="#d52afa" opacity="1">271</text>
<text aria-label="269,285,170,181" role="graphics-symbol" aria-roledescription="text mark" text-anchor="middle" x="277.60356851146264" y="180.8346782498035" font-family="serif" font-size="10px" fill="#ff78ff" opacity="1">752</text>
<text aria-label="132,148,58,69" role="graphics-symbol" aria-roledescription="text mark" text-anchor="middle" x="140.69193249598231" y="68.44221952289503" font-family="serif" font-size="10px" fill="#ddeefc" opacity="1">361</text>
<text aria-label="248,265,58,69" role="graphics-symbol" aria-roledescription="text mark" text-anchor="middle" x="257.24680438074654" y="68.39016266284372" font-family="serif" font-size="10px" fill="#1ec1a7" opacity="1">788</text>
<text aria-label="104,120,102,113" role="graphics-symbol" aria-roledescription="text mark" text-anchor="middle" x="112.52817948565685" y="112.04756010055884" font-family="serif" font-size="10px" fill="#3959ca" opacity="1">294</text>
<text aria-label="173,190,38,49" role="graphics-symbol" aria-roledescription="text mark" text-anchor="middle" x="181.9004130734447" y="48.63935193231559" font-family="serif" font-size="10px" fill="#f7fdfa" opacity="1">214</text>
<text aria-label="223,234,211,222" role="graphics-symbol" aria-roledescription="text mark" text-anchor="middle" x="228.9661915499799" y="221.86475925842194" font-family="serif" font-size="10px" fill="#e86d7a" opacity="1">57</text>
<text aria-label="101,118,140,151" role="graphics-symbol" aria-roledescription="text mark" text-anchor="middle" x="109.94648029215463" y="150.0180884788972" font-family="serif" font-size="10px" fill="#18bc86" opacity="1">183</text>
<text aria-label="129,146,193,204" role="graphics-symbol" aria-roledescription="text mark" text-anchor="middle" x="138.22075876621764" y="203.37683206545557" font-family="serif" font-size="10px" fill="#8726ae" opacity="1">583</text>
<path  d="M16.0,40.0A5,5,0,1,1,6.0,40.0A5,5,0,1,1,16.0,40.0" fill="#1ec1a7" stroke="black" stroke-width="1.5" opacity="1"/>
<path  d="M16.0,56.0A5,5,0,1,1,6.0,56.0A5,5,0,1,1,16.0,56.0" fill="#ff78ff" stroke="black" stroke-width="1.5" opacity="1"/>
<path  d="M16.0,72.0A5,5,0,1,1,6.0,72.0A5,5,0,1,1,16.0,72.0" fill="#e86d7a" stroke="black" stroke-width="1.5" opacity="1"/>
<path  d="M16.0,88.0A5,5,0,1,1,6.0,88.0A5,5,0,1,1,16.0,88.0" fill="#d52afa" stroke="black" stroke-width="1.5" opacity="1"/>
<path  d="M16.0,104.0A5,5,0,1,1,6.0,104.0A5,5,0,1,1,16.0,104.0" fill="#b6b017" stroke="black" stroke-width="1.5" opacity="1"/>
<path  d="M16.0,120.0A5,5,0,1,1,6.0,120.0A5,5,0,1,1,16.0,120.0" fill="#8726ae" stroke="black" stroke-width="1.5" opacity="1"/>
<path  d="M16.0,136.0A5,5,0,1,1,6.0,136.0A5,5,0,1,1,16.0,136.0" fill="#18bc86" stroke="black" stroke-width="1.5" opacity="1"/>
<path  d="M16.0,152.0A5,5,0,1,1,6.0,152.0A5,5,0,1,1,16.0,152.0" fill="#3959ca" stroke="black" stroke-width="1.5" opacity="1"/>
<path  d="M16.0,168.0A5,5,0,1,1,6.0,168.0A5,5,0,1,1,16.0,168.0" fill="#ddeefc" stroke="black" stroke-width="1.5" opacity="1"/>
<path  d="M16.0,184.0A5,5,0,1,1,6.0,184.0A5,5,0,1,1,16.0,184.0" fill="#f7fdfa" stroke="black" stroke-width="1.5" opacity="1"/>
<text aria-label="21,43,33,44" text-anchor="start" x="21.0" y="43.0" font-family="serif" font-size="10px" fill="#000" opacity="1">Avon</text>
<text aria-label="21,87,49,60" text-anchor="start" x="21.0" y="59.0" font-family="serif" font-size="10px" fill="#000" opacity="1">Bedfordshire</text>
<text aria-label="21,43,65,76" text-anchor="start" x="21.0" y="75.0" font-family="serif" font-size="10px" fill="#000" opacity="1">Data</text>
<text aria-label="21,81,81,92" text-anchor="start" x="21.0" y="91.0" font-family="serif" font-size="10px" fill="#000" opacity="1">Lamborghini</text>
<text aria-label="21,48,97,108" text-anchor="start" x="21.0" y="107.0" font-family="serif" font-size="10px" fill="#000" opacity="1">among</text>
<text aria-label="21,76,113,124" text-anchor="start" x="21.0" y="123.0" font-family="serif" font-size="10px" fill="#000" opacity="1">disability</text>
<text aria-label="21,65,129,140" text-anchor="start" x="21.0" y="139.0" font-family="serif" font-size="10px" fill="#000" opacity="1">expedite</text>
<text aria-label="21,54,145,156" text-anchor="start" x="21.0" y="155.0" font-family="serif" font-size="10px" fill="#000" opacity="1">female</text>
<text aria-label="21,54,161,172" text-anchor="start" x="21.0" y="171.0" font-family="serif" font-size="10px" fill="#000" opacity="1">though</text>
<text aria-label="21,32,177,188" text-anchor="start" x="21.0" y="187.0" font-family="serif" font-size="10px" fill="#000" opacity="1">um</text>
</svg>