<svg xmlns="http://www.w3.org/2000/svg" xmlns:xlink="http://www.w3.org/1999/xlink" version="1.1" class="marks" width="291" height="239" viewBox="0 0 291 239" style="background-color: rgb(255, 255, 255);">
<text aria-label="5,122,0,26" text-anchor="start" x="5.0" y="25.0" font-family="sans-serif" font-size="25px" font-weight="bold" fill="#000" opacity="1">Music red</text>
<path aria-label="Salad Northwest Practical: 512; transmit Paradigm turquoise: Sausages" role="graphics-symbol" aria-roledescription="arc mark"  d="M30.00692386627196,132.980916097237A75,75,0,0,0,90.61819310558047,207.6081763831412L105.0,134.0Z" fill="#f2facb" stroke="black" stroke-width="1"/>
<path aria-label="Salad Northwest Practical: 105; transmit Paradigm turquoise: payment" role="graphics-symbol" aria-roledescription="arc mark"  d="M104.99999999999999,59.0A75,75,0,0,0,83.88783768039308,62.032808848819386L105.0,134.0Z" fill="#df2d03" stroke="black" stroke-width="1"/>
<path aria-label="Salad Northwest Practical: 135; transmit Paradigm turquoise: Modern" role="graphics-symbol" aria-roledescription="arc mark"  d="M144.828415014693,70.4492536832385A75,75,0,0,0,119.38180689441953,60.39182361685879L105.0,134.0Z" fill="#deeec0" stroke="black" stroke-width="1"/>
<path aria-label="Salad Northwest Practical: 97; transmit Paradigm turquoise: hm" role="graphics-symbol" aria-roledescription="arc mark"  d="M83.88783768039308,62.032808848819386A75,75,0,0,0,65.86475698085202,70.02005975438685L105.0,134.0Z" fill="#560d49" stroke="black" stroke-width="1"/>
<path aria-label="Salad Northwest Practical: 916; transmit Paradigm turquoise: Palladium" role="graphics-symbol" aria-roledescription="arc mark"  d="M111.92012695974766,208.6800632221276A75,75,0,0,0,144.828415014693,70.4492536832385L105.0,134.0Z" fill="#cb89bd" stroke="black" stroke-width="1"/>
<path aria-label="Salad Northwest Practical: 71; transmit Paradigm turquoise: Bespoke" role="graphics-symbol" aria-roledescription="arc mark"  d="M119.38180689441953,60.39182361685879A75,75,0,0,0,105.0,59.0L105.0,134.0Z" fill="#b10b50" stroke="black" stroke-width="1"/>
<path aria-label="Salad Northwest Practical: 348; transmit Paradigm turquoise: farad" role="graphics-symbol" aria-roledescription="arc mark"  d="M65.86475698085202,70.02005975438685A75,75,0,0,0,30.21703103424882,128.29846050022488L105.0,134.0Z" fill="#a61427" stroke="black" stroke-width="1"/>
<path aria-label="Salad Northwest Practical: 23; transmit Paradigm turquoise: Soap" role="graphics-symbol" aria-roledescription="arc mark"  d="M30.21703103424882,128.29846050022488A75,75,0,0,0,30.00692386627196,132.980916097237L105.0,134.0Z" fill="#3bde82" stroke="black" stroke-width="1"/>
<path aria-label="Salad Northwest Practical: 105; transmit Paradigm turquoise: Pants" role="graphics-symbol" aria-roledescription="arc mark"  d="M90.61819310558047,207.6081763831412A75,75,0,0,0,111.92012695974766,208.6800632221276L105.0,134.0Z" fill="#7793bd" stroke="black" stroke-width="1"/>
<text aria-label="28,41,184,193" role="graphics-symbol" aria-roledescription="text mark" text-anchor="middle" x="35.1390297099514" y="192.74015183389048" font-family="sans-serif" font-size="8px" fill="#f2facb" opacity="1">512</text>
<text aria-label="85,98,38,47" role="graphics-symbol" aria-roledescription="text mark" text-anchor="middle" x="92.2026691128093" y="46.91448870796242" font-family="sans-serif" font-size="8px" fill="#df2d03" opacity="1">105</text>
<text aria-label="131,144,44,53" role="graphics-symbol" aria-roledescription="text mark" text-anchor="middle" x="138.08117321424868" y="52.30032270809596" font-family="sans-serif" font-size="8px" fill="#deeec0" opacity="1">135</text>
<text aria-label="64,73,45,54" role="graphics-symbol" aria-roledescription="text mark" text-anchor="middle" x="68.53526950944158" y="53.718024876337964" font-family="sans-serif" font-size="8px" fill="#560d49" opacity="1">97</text>
<text aria-label="185,199,148,157" role="graphics-symbol" aria-roledescription="text mark" text-anchor="middle" x="192.55310295874477" y="156.8435640497358" font-family="sans-serif" font-size="8px" fill="#cb89bd" opacity="1">916</text>
<text aria-label="109,118,38,47" role="graphics-symbol" aria-roledescription="text mark" text-anchor="middle" x="113.66939878598134" y="46.41852019145014" font-family="sans-serif" font-size="8px" fill="#b10b50" opacity="1">71</text>
<text aria-label="21,34,81,90" role="graphics-symbol" aria-roledescription="text mark" text-anchor="middle" x="28.224071705264194" y="89.03770837702245" font-family="sans-serif" font-size="8px" fill="#a61427" opacity="1">348</text>
<text aria-label="10,19,123,132" role="graphics-symbol" aria-roledescription="text mark" text-anchor="middle" x="15.090467316411221" y="131.9656558626364" font-family="sans-serif" font-size="8px" fill="#3bde82" opacity="1">23</text>
<text aria-label="93,107,217,226" role="graphics-symbol" aria-roledescription="text mark" text-anchor="middle" x="100.47703424913391" y="225.88627693266915" font-family="sans-serif" font-size="8px" fill="#7793bd" opacity="1">105</text>
<path  d="M234.0,40.0A5,5,0,1,1,224.0,40.0A5,5,0,1,1,234.0,40.0" fill="#b10b50" stroke="black" stroke-width="1.5" opacity="1"/>
<path  d="M234.0,56.0A5,5,0,1,1,224.0,56.0A5,5,0,1,1,234.0,56.0" fill="#deeec0" stroke="black" stroke-width="1.5" opacity="1"/>
<path  d="M234.0,72.0A5,5,0,1,1,224.0,72.0A5,5,0,1,1,234.0,72.0" fill="#cb89bd" stroke="black" stroke-width="1.5" opacity="1"/>
<path  d="M234.0,88.0A5,5,0,1,1,224.0,88.0A5,5,0,1,1,234.0,88.0" fill="#7793bd" stroke="black" stroke-width="1.5" opacity="1"/>
<path  d="M234.0,104.0A5,5,0,1,1,224.0,104.0A5,5,0,1,1,234.0,104.0" fill="#f2facb" stroke="black" stroke-width="1.5" opacity="1"/>
<path  d="M234.0,120.0A5,5,0,1,1,224.0,120.0A5,5,0,1,1,234.0,120.0" fill="#3bde82" stroke="black" stroke-width="1.5" opacity="1"/>
<path  d="M234.0,136.0A5,5,0,1,1,224.0,136.0A5,5,0,1,1,234.0,136.0" fill="#a61427" stroke="black" stroke-width="1.5" opacity="1"/>
<path  d="M234.0,152.0A5,5,0,1,1,224.0,152.0A5,5,0,1,1,234.0,152.0" fill="#560d49" stroke="black" stroke-width="1.5" opacity="1"/>
<path  d="M234.0,168.0A5,5,0,1,1,224.0,168.0A5,5,0,1,1,234.0,168.0" fill="#df2d03" stroke="black" stroke-width="1.5" opacity="1"/>
<text aria-label="239,277,33,44" text-anchor="start" x="239.0" y="43.0" font-family="sans-serif" font-size="10px" fill="#000" opacity="1">Bespoke</text>
<text aria-label="239,272,49,60" text-anchor="start" x="239.0" y="59.0" font-family="sans-serif" font-size="10px" fill="#000" opacity="1">Modern</text>
<text aria-label="239,288,65,76" text-anchor="start" x="239.0" y="75.0" font-family="sans-serif" font-size="10px" fill="#000" opacity="1">Palladium</text>
<text aria-label="239,266,81,92" text-anchor="start" x="239.0" y="91.0" font-family="sans-serif" font-size="10px" fill="#000" opacity="1">Pants</text>
<text aria-label="239,283,97,108" text-anchor="start" x="239.0" y="107.0" font-family="sans-serif" font-size="10px" fill="#000" opacity="1">Sausages</text>
<text aria-label="239,261,113,124" text-anchor="start" x="239.0" y="123.0" font-family="sans-serif" font-size="10px" fill="#000" opacity="1">Soap</text>
<text aria-label="239,266,129,140" text-anchor="start" x="239.0" y="139.0" font-family="sans-serif" font-size="10px" fill="#000" opacity="1">farad</text>
<text aria-label="239,250,145,156" text-anchor="start" x="239.0" y="155.0" font-family="sans-serif" font-size="10px" fill="#000" opacity="1">hm</text>
<text aria-label="239,277,161,172" text-anchor="start" x="239.0" y="171.0" font-family="sans-serif" font-size="10px" fill="#000" opacity="1">payment</text>
</svg>