<svg xmlns="http://www.w3.org/2000/svg" xmlns:xlink="http://www.w3.org/1999/xlink" version="1.1" class="marks" width="286" height="239" viewBox="0 0 286 239" style="background-color: rgb(255, 255, 255);">
<text aria-label="34,281,0,26" text-anchor="end" x="281.0" y="25.0" font-family="sans-serif" font-size="25px" font-weight="bold" fill="#000" opacity="1">South Pickup Cheese</text>
<path aria-label="Folk Dodge: 191; warlike: interface" role="graphics-symbol" aria-roledescription="arc mark"  d="M104.99999999999999,59.0A75,75,0,0,0,34.13457399495928,109.442080765584L105.0,134.0Z" fill="#e3bb34" stroke="white" stroke-width="1"/>
<path aria-label="Folk Dodge: 557; warlike: Devan" role="graphics-symbol" aria-roledescription="arc mark"  d="M34.13457399495928,109.442080765584A75,75,0,1,0,179.3397369284047,124.07006981819201L105.0,134.0Z" fill="#61bef2" stroke="white" stroke-width="1"/>
<path aria-label="Folk Dodge: 51; warlike: Blues" role="graphics-symbol" aria-roledescription="arc mark"  d="M179.3397369284047,124.07006981819201A75,75,0,0,0,172.09898906437118,100.49290125153483L105.0,134.0Z" fill="#bd9d7e" stroke="white" stroke-width="1"/>
<path aria-label="Folk Dodge: 30; warlike: Bicycle" role="graphics-symbol" aria-roledescription="arc mark"  d="M172.09898906437118,100.49290125153483A75,75,0,0,0,164.36568897912184,88.16644272987125L105.0,134.0Z" fill="#9ee9da" stroke="white" stroke-width="1"/>
<path aria-label="Folk Dodge: 141; warlike: Account" role="graphics-symbol" aria-roledescription="arc mark"  d="M164.36568897912184,88.16644272987125A75,75,0,0,0,105.0,59.0L105.0,134.0Z" fill="#5eeb32" stroke="white" stroke-width="1"/>
<path  d="M234.0,56.0A5,5,0,1,1,224.0,56.0A5,5,0,1,1,234.0,56.0" fill="#5eeb32" stroke="white" stroke-width="1.5" opacity="1"/>
<path  d="M234.0,72.0A5,5,0,1,1,224.0,72.0A5,5,0,1,1,234.0,72.0" fill="#9ee9da" stroke="white" stroke-width="1.5" opacity="1"/>
<path  d="M234.0,88.0A5,5,0,1,1,224.0,88.0A5,5,0,1,1,234.0,88.0" fill="#bd9d7e" stroke="white" stroke-width="1.5" opacity="1"/>
<path  d="M234.0,104.0A5,5,0,1,1,224.0,104.0A5,5,0,1,1,234.0,104.0" fill="#61bef2" stroke="white" stroke-width="1.5" opacity="1"/>
<path  d="M234.0,120.0A5,5,0,1,1,224.0,120.0A5,5,0,1,1,234.0,120.0" fill="#e3bb34" stroke="white" stroke-width="1.5" opacity="1"/>
<text aria-label="239,277,49,60" text-anchor="start" x="239.0" y="59.0" font-family="sans-serif" font-size="10px" fill="#000" opacity="1">Account</text>
<text aria-label="239,277,65,76" text-anchor="start" x="239.0" y="75.0" font-family="sans-serif" font-size="10px" fill="#000" opacity="1">Bicycle</text>
<text aria-label="239,266,81,92" text-anchor="start" x="239.0" y="91.0" font-family="sans-serif" font-size="10px" fill="#000" opacity="1">Blues</text>
<text aria-label="239,266,97,108" text-anchor="start" x="239.0" y="107.0" font-family="sans-serif" font-size="10px" fill="#000" opacity="1">Devan</text>
<text aria-label="239,288,113,124" text-anchor="start" x="239.0" y="123.0" font-family="sans-serif" font-size="10px" fill="#000" opacity="1">interface</text>
<text aria-label="223,265,32,44" text-anchor="start" x="223.0" y="43.0" font-family="sans-serif" font-size="11px" font-weight="bold" fill="#000" opacity="1">warlike</text>
</svg>