<svg xmlns="http://www.w3.org/2000/svg" xmlns:xlink="http://www.w3.org/1999/xlink" version="1.1" class="marks" width="671" height="286" viewBox="0 0 671 286" style="background-color: rgb(255, 255, 255);">
<text aria-label="5,239,0,26" text-anchor="start" x="5.0" y="25.0" font-family="Balto" font-size="25px" font-weight="bold" fill="#000" opacity="1">North Koepp Cyprus</text>
<path aria-label="system robust: 474; optimize neural quas: Gasoline" role="graphics-symbol" aria-roledescription="arc mark"  d="M96.19046410868393,255.48081684151708A75,75,0,0,0,148.36649970190348,242.19106718798756L137.38031977742125,226.6893301670307A56,56,0,0,1,98.42221320115067,236.61234324166608Z" fill="#abcae2" stroke="white" stroke-width="0"/>
<path aria-label="system robust: 44; optimize neural quas: Executive" role="graphics-symbol" aria-roledescription="arc mark"  d="M148.36649970190348,242.19106718798756A75,75,0,0,0,152.4334031696533,239.0953721370741L140.41694103334112,224.37787786234867A56,56,0,0,1,137.38031977742125,226.6893301670307Z" fill="#8c6e0e" stroke="white" stroke-width="0"/>
<path aria-label="system robust: 597; optimize neural quas: AI" role="graphics-symbol" aria-roledescription="arc mark"  d="M164.8883392064312,135.8515024934889A75,75,0,0,0,105.0,106.0L105.0,125.0A56,56,0,0,1,149.7166266074686,147.28912186180506Z" fill="#e2c3af" stroke="white" stroke-width="0"/>
<path aria-label="system robust: 7; optimize neural quas: firm" role="graphics-symbol" aria-roledescription="arc mark"  d="M31.446776038468414,166.3397392634109A75,75,0,0,0,31.292131196392802,167.1381791805611L49.964791293306625,170.64984045481896A56,56,0,0,1,50.080259442056416,170.05367198334682Z" fill="#ffeab1" stroke="white" stroke-width="0"/>
<path aria-label="system robust: 546; optimize neural quas: monitor" role="graphics-symbol" aria-roledescription="arc mark"  d="M67.19855333677637,116.22307023200729A75,75,0,0,0,31.446776038468414,166.3397392634109L50.080259442056416,170.05367198334682A56,56,0,0,1,76.77491982479303,132.6332257732321Z" fill="#e877bd" stroke="white" stroke-width="0"/>
<path aria-label="system robust: 326; optimize neural quas: Electronic" role="graphics-symbol" aria-roledescription="arc mark"  d="M152.4334031696533,239.0953721370741A75,75,0,0,0,174.61974113840597,208.8942941086765L156.9827400500098,201.8277396011451A56,56,0,0,1,140.41694103334112,224.37787786234867Z" fill="#b5a2da" stroke="white" stroke-width="0"/>
<path aria-label="system robust: 397; optimize neural quas: crooked" role="graphics-symbol" aria-roledescription="arc mark"  d="M31.292131196392802,167.1381791805611A75,75,0,0,0,36.79955554532002,212.20415639276456L54.07700147383895,204.2991034399309A56,56,0,0,1,49.964791293306625,170.64984045481896Z" fill="#db598b" stroke="white" stroke-width="0"/>
<path aria-label="system robust: 663; optimize neural quas: Direct" role="graphics-symbol" aria-roledescription="arc mark"  d="M174.61974113840597,208.8942941086765A75,75,0,0,0,164.8883392064312,135.8515024934889L149.7166266074686,147.28912186180506A56,56,0,0,1,156.9827400500098,201.8277396011451Z" fill="#db7858" stroke="white" stroke-width="0"/>
<path aria-label="system robust: 146; optimize neural quas: West" role="graphics-symbol" aria-roledescription="arc mark"  d="M36.79955554532002,212.20415639276456A75,75,0,0,0,45.53388123645769,226.7031806245504L60.59863132322174,215.12504153299764A56,56,0,0,1,54.07700147383895,204.2991034399309Z" fill="#51ee0d" stroke="white" stroke-width="0"/>
<path aria-label="system robust: 341; optimize neural quas: yellow" role="graphics-symbol" aria-roledescription="arc mark"  d="M104.99999999999999,106.0A75,75,0,0,0,67.19855333677637,116.22307023200729L76.77491982479303,132.6332257732321A56,56,0,0,1,104.99999999999999,125.0Z" fill="#c979da" stroke="white" stroke-width="0"/>
<path aria-label="system robust: 515; optimize neural quas: Northeast" role="graphics-symbol" aria-roledescription="arc mark"  d="M45.53388123645769,226.7031806245504A75,75,0,0,0,96.19046410868393,255.48081684151708L98.42221320115067,236.61234324166608A56,56,0,0,1,60.59863132322174,215.12504153299764Z" fill="#7cf28a" stroke="white" stroke-width="0"/>
<text aria-label="121,133,263,271" role="graphics-symbol" aria-roledescription="text mark" text-anchor="middle" x="127.21459947236289" y="270.21531729164604" font-family="Balto" font-size="7px" fill="#abcae2" opacity="1">474</text>
<text aria-label="155,163,247,255" role="graphics-symbol" aria-roledescription="text mark" text-anchor="middle" x="159.51159553856098" y="254.61344812142715" font-family="Balto" font-size="7px" fill="#8c6e0e" opacity="1">44</text>
<text aria-label="139,151,95,103" role="graphics-symbol" aria-roledescription="text mark" text-anchor="middle" x="145.14948486155708" y="102.45176063158426" font-family="Balto" font-size="7px" fill="#e2c3af" opacity="1">597</text>
<text aria-label="14,18,158,166" role="graphics-symbol" aria-roledescription="text mark" text-anchor="middle" x="16.64204562391521" y="165.88649952599644" font-family="Balto" font-size="7px" fill="#ffeab1" opacity="1">7</text>
<text aria-label="25,37,123,131" role="graphics-symbol" aria-roledescription="text mark" text-anchor="middle" x="31.73230216179607" y="130.7329505951441" font-family="Balto" font-size="7px" fill="#e877bd" opacity="1">546</text>
<text aria-label="171,183,229,237" role="graphics-symbol" aria-roledescription="text mark" text-anchor="middle" x="177.5318946004656" y="236.2834333134319" font-family="Balto" font-size="7px" fill="#b5a2da" opacity="1">326</text>
<text aria-label="9,21,186,194" role="graphics-symbol" aria-roledescription="text mark" text-anchor="middle" x="15.664630730012192" y="193.91749959445468" font-family="Balto" font-size="7px" fill="#db598b" opacity="1">397</text>
<text aria-label="188,200,164,172" role="graphics-symbol" aria-roledescription="text mark" text-anchor="middle" x="194.2117325319715" y="171.1144298140991" font-family="Balto" font-size="7px" fill="#db7858" opacity="1">663</text>
<text aria-label="21,33,222,230" role="graphics-symbol" aria-roledescription="text mark" text-anchor="middle" x="27.907650805378523" y="229.44103461007887" font-family="Balto" font-size="7px" fill="#51ee0d" opacity="1">146</text>
<text aria-label="75,87,89,97" role="graphics-symbol" aria-roledescription="text mark" text-anchor="middle" x="81.50434524154744" y="96.12103702580465" font-family="Balto" font-size="7px" fill="#c979da" opacity="1">341</text>
<text aria-label="54,66,254,262" role="graphics-symbol" aria-roledescription="text mark" text-anchor="middle" x="60.54442384443994" y="261.25408454948024" font-family="Balto" font-size="7px" fill="#7cf28a" opacity="1">515</text>
<path  d="M16.0,56.25A5,5,0,1,1,6.0,56.25A5,5,0,1,1,16.0,56.25" fill="#e2c3af" stroke="white" stroke-width="1.5" opacity="1"/>
<path  d="M53.0,56.25A5,5,0,1,1,43.0,56.25A5,5,0,1,1,53.0,56.25" fill="#db7858" stroke="white" stroke-width="1.5" opacity="1"/>
<path  d="M109.0,56.25A5,5,0,1,1,99.0,56.25A5,5,0,1,1,109.0,56.25" fill="#b5a2da" stroke="white" stroke-width="1.5" opacity="1"/>
<path  d="M183.0,56.25A5,5,0,1,1,173.0,56.25A5,5,0,1,1,183.0,56.25" fill="#8c6e0e" stroke="white" stroke-width="1.5" opacity="1"/>
<path  d="M255.0,56.25A5,5,0,1,1,245.0,56.25A5,5,0,1,1,255.0,56.25" fill="#abcae2" stroke="white" stroke-width="1.5" opacity="1"/>
<path  d="M324.0,56.25A5,5,0,1,1,314.0,56.25A5,5,0,1,1,324.0,56.25" fill="#7cf28a" stroke="white" stroke-width="1.5" opacity="1"/>
<path  d="M400.0,56.25A5,5,0,1,1,390.0,56.25A5,5,0,1,1,400.0,56.25" fill="#51ee0d" stroke="white" stroke-width="1.5" opacity="1"/>
<path  d="M451.0,56.25A5,5,0,1,1,441.0,56.25A5,5,0,1,1,451.0,56.25" fill="#db598b" stroke="white" stroke-width="1.5" opacity="1"/>
<path  d="M517.0,56.25A5,5,0,1,1,507.0,56.25A5,5,0,1,1,517.0,56.25" fill="#ffeab1" stroke="white" stroke-width="1.5" opacity="1"/>
<path  d="M564.0,56.25A5,5,0,1,1,554.0,56.25A5,5,0,1,1,564.0,56.25" fill="#e877bd" stroke="white" stroke-width="1.5" opacity="1"/>
<path  d="M630.0,56.25A5,5,0,1,1,620.0,56.25A5,5,0,1,1,630.0,56.25" fill="#c979da" stroke="white" stroke-width="1.5" opacity="1"/>
<text aria-label="21,32,49,60" text-anchor="start" x="21.0" y="59.25" font-family="Balto" font-size="10px" fill="#000" opacity="1">AI</text>
<text aria-label="58,91,49,60" text-anchor="start" x="58.0" y="59.25" font-family="Balto" font-size="10px" fill="#000" opacity="1">Direct</text>
<text aria-label="114,169,49,60" text-anchor="start" x="114.0" y="59.25" font-family="Balto" font-size="10px" fill="#000" opacity="1">Electronic</text>
<text aria-label="188,237,49,60" text-anchor="start" x="188.0" y="59.25" font-family="Balto" font-size="10px" fill="#000" opacity="1">Executive</text>
<text aria-label="260,304,49,60" text-anchor="start" x="260.0" y="59.25" font-family="Balto" font-size="10px" fill="#000" opacity="1">Gasoline</text>
<text aria-label="329,378,49,60" text-anchor="start" x="329.0" y="59.25" font-family="Balto" font-size="10px" fill="#000" opacity="1">Northeast</text>
<text aria-label="405,427,49,60" text-anchor="start" x="405.0" y="59.25" font-family="Balto" font-size="10px" fill="#000" opacity="1">West</text>
<text aria-label="456,494,49,60" text-anchor="start" x="456.0" y="59.25" font-family="Balto" font-size="10px" fill="#000" opacity="1">crooked</text>
<text aria-label="522,544,49,60" text-anchor="start" x="522.0" y="59.25" font-family="Balto" font-size="10px" fill="#000" opacity="1">firm</text>
<text aria-label="569,607,49,60" text-anchor="start" x="569.0" y="59.25" font-family="Balto" font-size="10px" fill="#000" opacity="1">monitor</text>
<text aria-label="635,668,49,60" text-anchor="start" x="635.0" y="59.25" font-family="Balto" font-size="10px" fill="#000" opacity="1">yellow</text>
<text aria-label="5,125,32,44" text-anchor="start" x="5.0" y="43.0" font-family="Balto" font-size="11px" font-weight="bold" fill="#000" opacity="1">optimize neural quas</text>
</svg>