<svg xmlns="http://www.w3.org/2000/svg" xmlns:xlink="http://www.w3.org/1999/xlink" version="1.1" class="marks" width="281" height="270" viewBox="0 0 281 270" style="background-color: rgb(255, 255, 255);">
<text aria-label="27,183,0,26" text-anchor="middle" x="105.0" y="25.0" font-family="sans-serif" font-size="25px" font-weight="bold" fill="#000" opacity="1">unexpectedly</text>
<path aria-label="green Cruiser Buckinghamshire: 515; indexing Kong Mexico: card" role="graphics-symbol" aria-roledescription="arc mark"  d="M67.556041519648,229.9842286506632A75,75,0,0,0,176.27305346988516,188.34848708329707L133.50922138795406,174.33939483331883A30,30,0,0,1,90.0224166078592,190.99369146026527Z" fill="#0fa4e3" stroke="white" stroke-width="0"/>
<path aria-label="green Cruiser Buckinghamshire: 537; indexing Kong Mexico: male" role="graphics-symbol" aria-roledescription="arc mark"  d="M104.99999999999999,90.0A75,75,0,0,0,32.963911384854285,185.87586973112434L76.1855645539417,173.35034789244975A30,30,0,0,1,105.0,135.0Z" fill="#d6b9bd" stroke="white" stroke-width="0"/>
<path aria-label="green Cruiser Buckinghamshire: 547; indexing Kong Mexico: Alaska" role="graphics-symbol" aria-roledescription="arc mark"  d="M176.27305346988516,188.34848708329707A75,75,0,0,0,105.0,90.0L105.0,135.0A30,30,0,0,1,133.50922138795406,174.33939483331883Z" fill="#f8e47d" stroke="white" stroke-width="0"/>
<path aria-label="green Cruiser Buckinghamshire: 128; indexing Kong Mexico: lavender" role="graphics-symbol" aria-roledescription="arc mark"  d="M32.963911384854285,185.87586973112434A75,75,0,0,0,48.79903739583409,214.66338492657488L82.51961495833363,184.86535397062994A30,30,0,0,1,76.1855645539417,173.35034789244975Z" fill="#2dcf6b" stroke="white" stroke-width="0"/>
<path aria-label="green Cruiser Buckinghamshire: 94; indexing Kong Mexico: hence" role="graphics-symbol" aria-roledescription="arc mark"  d="M48.79903739583409,214.66338492657488A75,75,0,0,0,67.556041519648,229.9842286506632L90.0224166078592,190.99369146026527A30,30,0,0,1,82.51961495833363,184.86535397062994Z" fill="#c13cdd" stroke="white" stroke-width="0"/>
<path  d="M16.0,40.25A5,5,0,1,1,6.0,40.25A5,5,0,1,1,16.0,40.25" fill="#f8e47d" stroke="white" stroke-width="1.5" opacity="1"/>
<path  d="M74.0,40.25A5,5,0,1,1,64.0,40.25A5,5,0,1,1,74.0,40.25" fill="#0fa4e3" stroke="white" stroke-width="1.5" opacity="1"/>
<path  d="M122.0,40.25A5,5,0,1,1,112.0,40.25A5,5,0,1,1,122.0,40.25" fill="#c13cdd" stroke="white" stroke-width="1.5" opacity="1"/>
<path  d="M178.0,40.25A5,5,0,1,1,168.0,40.25A5,5,0,1,1,178.0,40.25" fill="#2dcf6b" stroke="white" stroke-width="1.5" opacity="1"/>
<path  d="M247.0,40.25A5,5,0,1,1,237.0,40.25A5,5,0,1,1,247.0,40.25" fill="#d6b9bd" stroke="white" stroke-width="1.5" opacity="1"/>
<text aria-label="21,54,33,44" text-anchor="start" x="21.0" y="43.25" font-family="sans-serif" font-size="10px" fill="#000" opacity="1">Alaska</text>
<text aria-label="79,101,33,44" text-anchor="start" x="79.0" y="43.25" font-family="sans-serif" font-size="10px" fill="#000" opacity="1">card</text>
<text aria-label="127,154,33,44" text-anchor="start" x="127.0" y="43.25" font-family="sans-serif" font-size="10px" fill="#000" opacity="1">hence</text>
<text aria-label="183,227,33,44" text-anchor="start" x="183.0" y="43.25" font-family="sans-serif" font-size="10px" fill="#000" opacity="1">lavender</text>
<text aria-label="252,274,33,44" text-anchor="start" x="252.0" y="43.25" font-family="sans-serif" font-size="10px" fill="#000" opacity="1">male</text>
</svg>