<svg xmlns="http://www.w3.org/2000/svg" xmlns:xlink="http://www.w3.org/1999/xlink" version="1.1" class="marks" width="281" height="270" viewBox="0 0 281 270" style="background-color: rgb(255, 255, 255);">
<text aria-label="5,239,0,26" text-anchor="start" x="5.0" y="25.0" font-family="sans-serif" font-size="25px" font-weight="bold" fill="#000" opacity="1">COM invoice tender</text>
<path aria-label="unnaturally Recycled fuchsia: 334; female coulomb: Neutrois" role="graphics-symbol" aria-roledescription="arc mark"  d="M55.3170799374654,221.18369384492087A75,75,0,0,0,147.19060792452163,227.00768180604152L123.0013260477959,191.45661090391104A32,32,0,0,1,83.8019541066519,188.9717093738329Z" fill="#bdb977" stroke="black" stroke-width="0"/>
<path aria-label="unnaturally Recycled fuchsia: 215; female coulomb: deposit" role="graphics-symbol" aria-roledescription="arc mark"  d="M104.99999999999999,90.0A75,75,0,0,0,48.62016773984155,115.53976835561326L80.9446049023324,143.89696783172832A32,32,0,0,1,105.0,133.0Z" fill="#ffacb9" stroke="black" stroke-width="0"/>
<path aria-label="unnaturally Recycled fuchsia: 609; female coulomb: Franc" role="graphics-symbol" aria-roledescription="arc mark"  d="M147.19060792452163,227.00768180604152A75,75,0,0,0,115.05909303549261,90.67763023622494L109.2918796951435,133.28912223412266A32,32,0,0,1,123.0013260477959,191.45661090391104Z" fill="#a445eb" stroke="black" stroke-width="0"/>
<path aria-label="unnaturally Recycled fuchsia: 34; female coulomb: Cis" role="graphics-symbol" aria-roledescription="arc mark"  d="M115.05909303549261,90.67763023622494A75,75,0,0,0,105.0,90.0L105.0,133.0A32,32,0,0,1,109.2918796951435,133.28912223412266Z" fill="#f8abca" stroke="black" stroke-width="0"/>
<path aria-label="unnaturally Recycled fuchsia: 396; female coulomb: North" role="graphics-symbol" aria-roledescription="arc mark"  d="M48.62016773984155,115.53976835561326A75,75,0,0,0,55.3170799374654,221.18369384492087L83.8019541066519,188.9717093738329A32,32,0,0,1,80.9446049023324,143.89696783172832Z" fill="#ad5a5c" stroke="black" stroke-width="0"/>
<path  d="M16.0,40.25A5,5,0,1,1,6.0,40.25A5,5,0,1,1,16.0,40.25" fill="#f8abca" stroke="black" stroke-width="1.5" opacity="1"/>
<path  d="M57.0,40.25A5,5,0,1,1,47.0,40.25A5,5,0,1,1,57.0,40.25" fill="#a445eb" stroke="black" stroke-width="1.5" opacity="1"/>
<path  d="M110.0,40.25A5,5,0,1,1,100.0,40.25A5,5,0,1,1,110.0,40.25" fill="#bdb977" stroke="black" stroke-width="1.5" opacity="1"/>
<path  d="M179.0,40.25A5,5,0,1,1,169.0,40.25A5,5,0,1,1,179.0,40.25" fill="#ad5a5c" stroke="black" stroke-width="1.5" opacity="1"/>
<path  d="M235.0,40.25A5,5,0,1,1,225.0,40.25A5,5,0,1,1,235.0,40.25" fill="#ffacb9" stroke="black" stroke-width="1.5" opacity="1"/>
<text aria-label="21,37,33,44" text-anchor="start" x="21.0" y="43.25" font-family="sans-serif" font-size="10px" fill="#000" opacity="1">Cis</text>
<text aria-label="62,89,33,44" text-anchor="start" x="62.0" y="43.25" font-family="sans-serif" font-size="10px" fill="#000" opacity="1">Franc</text>
<text aria-label="115,159,33,44" text-anchor="start" x="115.0" y="43.25" font-family="sans-serif" font-size="10px" fill="#000" opacity="1">Neutrois</text>
<text aria-label="184,211,33,44" text-anchor="start" x="184.0" y="43.25" font-family="sans-serif" font-size="10px" fill="#000" opacity="1">North</text>
<text aria-label="240,278,33,44" text-anchor="start" x="240.0" y="43.25" font-family="sans-serif" font-size="10px" fill="#000" opacity="1">deposit</text>
</svg>