<svg xmlns="http://www.w3.org/2000/svg" xmlns:xlink="http://www.w3.org/1999/xlink" version="1.1" class="marks" width="284" height="239" viewBox="0 0 284 239" style="background-color: rgb(255, 255, 255);">
<text aria-label="107,250,0,26" text-anchor="middle" x="179.0" y="25.0" font-family="monospace" font-size="25px" font-weight="bold" fill="#000" opacity="1">interactive</text>
<path aria-label="duh female plum: 271; Town: monitor" role="graphics-symbol" aria-roledescription="arc mark"  d="M104.04046186066785,131.53674160145383A75,75,0,0,0,109.12424276537035,161.24662457786474L179.0,134.0Z" fill="#de24bb" stroke="black" stroke-width="0"/>
<path aria-label="duh female plum: 105; Town: Keyboard" role="graphics-symbol" aria-roledescription="arc mark"  d="M190.71046281691793,59.919874051041305A75,75,0,0,0,179.0,59.0L179.0,134.0Z" fill="#af9bcc" stroke="black" stroke-width="0"/>
<path aria-label="duh female plum: 287; Town: receiver" role="graphics-symbol" aria-roledescription="arc mark"  d="M114.01079809240156,96.56467396410974A75,75,0,0,0,104.33158919087825,126.95525534598804L179.0,134.0Z" fill="#fdb19b" stroke="black" stroke-width="0"/>
<path aria-label="duh female plum: 41; Town: payment" role="graphics-symbol" aria-roledescription="arc mark"  d="M104.33158919087825,126.95525534598804A75,75,0,0,0,104.04046186066785,131.53674160145383L179.0,134.0Z" fill="#d8bb62" stroke="black" stroke-width="0"/>
<path aria-label="duh female plum: 702; Town: shoddy" role="graphics-symbol" aria-roledescription="arc mark"  d="M179.0,59.0A75,75,0,0,0,114.01079809240156,96.56467396410974L179.0,134.0Z" fill="#e4525f" stroke="black" stroke-width="0"/>
<path aria-label="duh female plum: 98; Town: grass" role="graphics-symbol" aria-roledescription="arc mark"  d="M253.24671656473924,144.60306933653052A75,75,0,0,0,253.99924754362604,133.66404183310613L179.0,134.0Z" fill="#c7d7e7" stroke="black" stroke-width="0"/>
<path aria-label="duh female plum: 811; Town: ha" role="graphics-symbol" aria-roledescription="arc mark"  d="M195.22082283260931,207.22489267068337A75,75,0,0,0,253.24671656473924,144.60306933653052L179.0,134.0Z" fill="#aa3dae" stroke="black" stroke-width="0"/>
<path aria-label="duh female plum: 149; Town: Movies" role="graphics-symbol" aria-roledescription="arc mark"  d="M206.76753617822823,64.32960503491611A75,75,0,0,0,190.71046281691793,59.919874051041305L179.0,134.0Z" fill="#1d33b4" stroke="black" stroke-width="0"/>
<path aria-label="duh female plum: 949; Town: instead" role="graphics-symbol" aria-roledescription="arc mark"  d="M109.12424276537035,161.24662457786474A75,75,0,0,0,195.22082283260931,207.22489267068337L179.0,134.0Z" fill="#bff146" stroke="black" stroke-width="0"/>
<path aria-label="duh female plum: 795; Town: Web" role="graphics-symbol" aria-roledescription="arc mark"  d="M253.99924754362604,133.66404183310613A75,75,0,0,0,206.76753617822823,64.32960503491611L179.0,134.0Z" fill="#515750" stroke="black" stroke-width="0"/>
<path  d="M16.0,56.0A5,5,0,1,1,6.0,56.0A5,5,0,1,1,16.0,56.0" fill="#af9bcc" stroke="black" stroke-width="1.5" opacity="1"/>
<path  d="M16.0,72.0A5,5,0,1,1,6.0,72.0A5,5,0,1,1,16.0,72.0" fill="#1d33b4" stroke="black" stroke-width="1.5" opacity="1"/>
<path  d="M16.0,88.0A5,5,0,1,1,6.0,88.0A5,5,0,1,1,16.0,88.0" fill="#515750" stroke="black" stroke-width="1.5" opacity="1"/>
<path  d="M16.0,104.0A5,5,0,1,1,6.0,104.0A5,5,0,1,1,16.0,104.0" fill="#c7d7e7" stroke="black" stroke-width="1.5" opacity="1"/>
<path  d="M16.0,120.0A5,5,0,1,1,6.0,120.0A5,5,0,1,1,16.0,120.0" fill="#aa3dae" stroke="black" stroke-width="1.5" opacity="1"/>
<path  d="M16.0,136.0A5,5,0,1,1,6.0,136.0A5,5,0,1,1,16.0,136.0" fill="#bff146" stroke="black" stroke-width="1.5" opacity="1"/>
<path  d="M16.0,152.0A5,5,0,1,1,6.0,152.0A5,5,0,1,1,16.0,152.0" fill="#de24bb" stroke="black" stroke-width="1.5" opacity="1"/>
<path  d="M16.0,168.0A5,5,0,1,1,6.0,168.0A5,5,0,1,1,16.0,168.0" fill="#d8bb62" stroke="black" stroke-width="1.5" opacity="1"/>
<path  d="M16.0,184.0A5,5,0,1,1,6.0,184.0A5,5,0,1,1,16.0,184.0" fill="#fdb19b" stroke="black" stroke-width="1.5" opacity="1"/>
<path  d="M16.0,200.0A5,5,0,1,1,6.0,200.0A5,5,0,1,1,16.0,200.0" fill="#e4525f" stroke="black" stroke-width="1.5" opacity="1"/>
<text aria-label="21,65,49,60" text-anchor="start" x="21.0" y="59.0" font-family="monospace" font-size="10px" fill="#000" opacity="1">Keyboard</text>
<text aria-label="21,54,65,76" text-anchor="start" x="21.0" y="75.0" font-family="monospace" font-size="10px" fill="#000" opacity="1">Movies</text>
<text aria-label="21,37,81,92" text-anchor="start" x="21.0" y="91.0" font-family="monospace" font-size="10px" fill="#000" opacity="1">Web</text>
<text aria-label="21,48,97,108" text-anchor="start" x="21.0" y="107.0" font-family="monospace" font-size="10px" fill="#000" opacity="1">grass</text>
<text aria-label="21,32,113,124" text-anchor="start" x="21.0" y="123.0" font-family="monospace" font-size="10px" fill="#000" opacity="1">ha</text>
<text aria-label="21,59,129,140" text-anchor="start" x="21.0" y="139.0" font-family="monospace" font-size="10px" fill="#000" opacity="1">instead</text>
<text aria-label="21,59,145,156" text-anchor="start" x="21.0" y="155.0" font-family="monospace" font-size="10px" fill="#000" opacity="1">monitor</text>
<text aria-label="21,59,161,172" text-anchor="start" x="21.0" y="171.0" font-family="monospace" font-size="10px" fill="#000" opacity="1">payment</text>
<text aria-label="21,65,177,188" text-anchor="start" x="21.0" y="187.0" font-family="monospace" font-size="10px" fill="#000" opacity="1">receiver</text>
<text aria-label="21,54,193,204" text-anchor="start" x="21.0" y="203.0" font-family="monospace" font-size="10px" fill="#000" opacity="1">shoddy</text>
<text aria-label="5,29,32,44" text-anchor="start" x="5.0" y="43.0" font-family="monospace" font-size="11px" font-weight="bold" fill="#000" opacity="1">Town</text>
</svg>