<svg xmlns="http://www.w3.org/2000/svg" xmlns:xlink="http://www.w3.org/1999/xlink" version="1.1" class="marks" width="342" height="286" viewBox="0 0 342 286" style="background-color: rgb(255, 255, 255);">
<text aria-label="5,96,0,26" text-anchor="start" x="5.0" y="25.0" font-family="Balto" font-size="25px" font-weight="bold" fill="#000" opacity="1">dolorem</text>
<path aria-label="networks Implementation befog: 56; West Bicycle: Aston" role="graphics-symbol" aria-roledescription="arc mark"  d="M140.71143626401388,115.04779518498813A75,75,0,0,0,105.0,106.0L105.0,181.0Z" fill="#ce0c12" stroke="black" stroke-width="0"/>
<path aria-label="networks Implementation befog: 222; West Bicycle: nor" role="graphics-symbol" aria-roledescription="arc mark"  d="M36.08027809286931,210.58161476734782A75,75,0,0,0,158.90686050174043,233.14451448470777L105.0,181.0Z" fill="#cca77c" stroke="black" stroke-width="0"/>
<path aria-label="networks Implementation befog: 223; West Bicycle: withdrawal" role="graphics-symbol" aria-roledescription="arc mark"  d="M104.99999999999999,106.0A75,75,0,0,0,36.08027809286931,210.58161476734782L105.0,181.0Z" fill="#6e5af9" stroke="black" stroke-width="0"/>
<path aria-label="networks Implementation befog: 109; West Bicycle: Promethium" role="graphics-symbol" aria-roledescription="arc mark"  d="M179.5584863382087,172.8739852968907A75,75,0,0,0,140.71143626401388,115.04779518498813L105.0,181.0Z" fill="#4dca36" stroke="black" stroke-width="0"/>
<path aria-label="networks Implementation befog: 99; West Bicycle: Zimbabwe" role="graphics-symbol" aria-roledescription="arc mark"  d="M158.90686050174043,233.14451448470777A75,75,0,0,0,179.5584863382087,172.8739852968907L105.0,181.0Z" fill="#d3faae" stroke="black" stroke-width="0"/>
<path  d="M16.0,56.25A5,5,0,1,1,6.0,56.25A5,5,0,1,1,16.0,56.25" fill="#ce0c12" stroke="black" stroke-width="1.5" opacity="1"/>
<path  d="M71.0,56.25A5,5,0,1,1,61.0,56.25A5,5,0,1,1,71.0,56.25" fill="#4dca36" stroke="black" stroke-width="1.5" opacity="1"/>
<path  d="M158.0,56.25A5,5,0,1,1,148.0,56.25A5,5,0,1,1,158.0,56.25" fill="#d3faae" stroke="black" stroke-width="1.5" opacity="1"/>
<path  d="M235.0,56.25A5,5,0,1,1,225.0,56.25A5,5,0,1,1,235.0,56.25" fill="#cca77c" stroke="black" stroke-width="1.5" opacity="1"/>
<path  d="M279.0,56.25A5,5,0,1,1,269.0,56.25A5,5,0,1,1,279.0,56.25" fill="#6e5af9" stroke="black" stroke-width="1.5" opacity="1"/>
<text aria-label="21,48,49,60" text-anchor="start" x="21.0" y="59.25" font-family="Balto" font-size="10px" fill="#000" opacity="1">Aston</text>
<text aria-label="76,131,49,60" text-anchor="start" x="76.0" y="59.25" font-family="Balto" font-size="10px" fill="#000" opacity="1">Promethium</text>
<text aria-label="163,207,49,60" text-anchor="start" x="163.0" y="59.25" font-family="Balto" font-size="10px" fill="#000" opacity="1">Zimbabwe</text>
<text aria-label="240,256,49,60" text-anchor="start" x="240.0" y="59.25" font-family="Balto" font-size="10px" fill="#000" opacity="1">nor</text>
<text aria-label="284,339,49,60" text-anchor="start" x="284.0" y="59.25" font-family="Balto" font-size="10px" fill="#000" opacity="1">withdrawal</text>
<text aria-label="5,77,32,44" text-anchor="start" x="5.0" y="43.0" font-family="Balto" font-size="11px" font-weight="bold" fill="#000" opacity="1">West Bicycle</text>
</svg>