<svg xmlns="http://www.w3.org/2000/svg" xmlns:xlink="http://www.w3.org/1999/xlink" version="1.1" class="marks" width="359" height="239" viewBox="0 0 359 239" style="background-color: rgb(255, 255, 255);">
<text aria-label="208,299,0,26" text-anchor="middle" x="254.0" y="25.0" font-family="avenir" font-size="25px" font-weight="bold" fill="#000" opacity="1">Cis THX</text>
<path aria-label="hierarchy Automotive: 640; stimulating considerate: East" role="graphics-symbol" aria-roledescription="arc mark"  d="M321.9231269640126,165.80328321778467A75,75,0,0,0,297.23361054531637,72.7149698603655L286.85754401444046,87.42337709387778A57,57,0,0,1,305.6215764926496,158.17049524551635Z" fill="#0d42ea" stroke="black" stroke-width="2"/>
<path aria-label="hierarchy Automotive: 282; stimulating considerate: Avon" role="graphics-symbol" aria-roledescription="arc mark"  d="M297.23361054531637,72.7149698603655A75,75,0,0,0,254.0,59.0L254.0,77.0A57,57,0,0,1,286.85754401444046,87.42337709387778Z" fill="#2fd9c2" stroke="black" stroke-width="2"/>
<path aria-label="hierarchy Automotive: 106; stimulating considerate: Hybrid" role="graphics-symbol" aria-roledescription="arc mark"  d="M199.88080192902046,185.92410230474945A75,75,0,0,0,213.20233223644348,196.93290319899808L222.99377249969706,181.82900643123855A57,57,0,0,1,212.86940946605557,173.4623177516096Z" fill="#add4e0" stroke="black" stroke-width="2"/>
<path aria-label="hierarchy Automotive: 82; stimulating considerate: henry" role="graphics-symbol" aria-roledescription="arc mark"  d="M191.51523809982405,175.48077301929558A75,75,0,0,0,199.88080192902046,185.92410230474945L212.86940946605557,173.4623177516096A57,57,0,0,1,206.5115809558663,165.52538749466464Z" fill="#3d9858" stroke="black" stroke-width="2"/>
<path aria-label="hierarchy Automotive: 784; stimulating considerate: FTM" role="graphics-symbol" aria-roledescription="arc mark"  d="M213.20233223644348,196.93290319899808A75,75,0,0,0,321.9231269640126,165.80328321778467L305.6215764926496,158.17049524551635A57,57,0,0,1,222.99377249969706,181.82900643123855Z" fill="#ce16fd" stroke="black" stroke-width="2"/>
<path aria-label="hierarchy Automotive: 990; stimulating considerate: systemic" role="graphics-symbol" aria-roledescription="arc mark"  d="M254.0,59.0A75,75,0,0,0,191.51523809982405,175.48077301929558L206.5115809558663,165.52538749466464A57,57,0,0,1,254.0,77.0Z" fill="#811edd" stroke="black" stroke-width="2"/>
<text aria-label="333,348,104,114" role="graphics-symbol" aria-roledescription="text mark" text-anchor="middle" x="340.9922500909184" y="113.92732299625578" font-family="avenir" font-size="9px" fill="#0d42ea" opacity="1">640</text>
<text aria-label="273,288,42,52" role="graphics-symbol" aria-roledescription="text mark" text-anchor="middle" x="281.21412082834456" y="51.213103404189624" font-family="avenir" font-size="9px" fill="#2fd9c2" opacity="1">282</text>
<text aria-label="189,204,197,207" role="graphics-symbol" aria-roledescription="text mark" text-anchor="middle" x="196.66810798418572" y="206.3761786053903" font-family="avenir" font-size="9px" fill="#add4e0" opacity="1">106</text>
<text aria-label="178,188,184,194" role="graphics-symbol" aria-roledescription="text mark" text-anchor="middle" x="183.75758561448123" y="193.26724821148682" font-family="avenir" font-size="9px" fill="#3d9858" opacity="1">82</text>
<text aria-label="271,286,214,224" role="graphics-symbol" aria-roledescription="text mark" text-anchor="middle" x="278.7738523391848" y="223.52315435925962" font-family="avenir" font-size="9px" fill="#ce16fd" opacity="1">784</text>
<text aria-label="167,182,85,95" role="graphics-symbol" aria-roledescription="text mark" text-anchor="middle" x="174.69072095245122" y="94.455455614638" font-family="avenir" font-size="9px" fill="#811edd" opacity="1">990</text>
<path  d="M16.0,56.0A5,5,0,1,1,6.0,56.0A5,5,0,1,1,16.0,56.0" fill="#2fd9c2" stroke="black" stroke-width="1.5" opacity="1"/>
<path  d="M16.0,72.0A5,5,0,1,1,6.0,72.0A5,5,0,1,1,16.0,72.0" fill="#0d42ea" stroke="black" stroke-width="1.5" opacity="1"/>
<path  d="M16.0,88.0A5,5,0,1,1,6.0,88.0A5,5,0,1,1,16.0,88.0" fill="#ce16fd" stroke="black" stroke-width="1.5" opacity="1"/>
<path  d="M16.0,104.0A5,5,0,1,1,6.0,104.0A5,5,0,1,1,16.0,104.0" fill="#add4e0" stroke="black" stroke-width="1.5" opacity="1"/>
<path  d="M16.0,120.0A5,5,0,1,1,6.0,120.0A5,5,0,1,1,16.0,120.0" fill="#3d9858" stroke="black" stroke-width="1.5" opacity="1"/>
<path  d="M16.0,136.0A5,5,0,1,1,6.0,136.0A5,5,0,1,1,16.0,136.0" fill="#811edd" stroke="black" stroke-width="1.5" opacity="1"/>
<text aria-label="21,43,49,60" text-anchor="start" x="21.0" y="59.0" font-family="avenir" font-size="10px" fill="#000" opacity="1">Avon</text>
<text aria-label="21,43,65,76" text-anchor="start" x="21.0" y="75.0" font-family="avenir" font-size="10px" fill="#000" opacity="1">East</text>
<text aria-label="21,37,81,92" text-anchor="start" x="21.0" y="91.0" font-family="avenir" font-size="10px" fill="#000" opacity="1">FTM</text>
<text aria-label="21,54,97,108" text-anchor="start" x="21.0" y="107.0" font-family="avenir" font-size="10px" fill="#000" opacity="1">Hybrid</text>
<text aria-label="21,48,113,124" text-anchor="start" x="21.0" y="123.0" font-family="avenir" font-size="10px" fill="#000" opacity="1">henry</text>
<text aria-label="21,65,129,140" text-anchor="start" x="21.0" y="139.0" font-family="avenir" font-size="10px" fill="#000" opacity="1">systemic</text>
<text aria-label="5,143,32,44" text-anchor="start" x="5.0" y="43.0" font-family="avenir" font-size="11px" font-weight="bold" fill="#000" opacity="1">stimulating considerate</text>
</svg>