<svg xmlns="http://www.w3.org/2000/svg" xmlns:xlink="http://www.w3.org/1999/xlink" version="1.1" class="marks" width="389" height="286" viewBox="0 0 389 286" style="background-color: rgb(255, 255, 255);">
<text aria-label="5,135,0,26" text-anchor="start" x="5.0" y="25.0" font-family="avenir" font-size="25px" font-weight="bold" fill="#000" opacity="1">Credit RSS</text>
<path aria-label="Reggae yahoo tan: 279; positively Supervisor North: users" role="graphics-symbol" aria-roledescription="arc mark"  d="M104.99999999999999,59.0A75,75,0,0,0,30.0755200094014,137.36486227628862L105.0,134.0Z" fill="#ffeefe" stroke="white" stroke-width="0"/>
<path aria-label="Reggae yahoo tan: 179; positively Supervisor North: Montana" role="graphics-symbol" aria-roledescription="arc mark"  d="M179.99363365133266,133.0228041293037A75,75,0,0,0,142.34316869292948,68.95780022192199L105.0,134.0Z" fill="#b2b1bb" stroke="white" stroke-width="0"/>
<path aria-label="Reggae yahoo tan: 90; positively Supervisor North: Crooks" role="graphics-symbol" aria-roledescription="arc mark"  d="M142.34316869292948,68.95780022192199A75,75,0,0,0,105.0,59.0L105.0,134.0Z" fill="#6d7d9a" stroke="white" stroke-width="0"/>
<path aria-label="Reggae yahoo tan: 248; positively Supervisor North: index" role="graphics-symbol" aria-roledescription="arc mark"  d="M76.02310396409213,203.1761483180741A75,75,0,0,0,169.66042430766026,172.0003885289787L105.0,134.0Z" fill="#4bb2bb" stroke="white" stroke-width="0"/>
<path aria-label="Reggae yahoo tan: 94; positively Supervisor North: female" role="graphics-symbol" aria-roledescription="arc mark"  d="M169.66042430766026,172.0003885289787A75,75,0,0,0,179.99363365133266,133.0228041293037L105.0,134.0Z" fill="#c5ed32" stroke="white" stroke-width="0"/>
<path aria-label="Reggae yahoo tan: 195; positively Supervisor North: tremendously" role="graphics-symbol" aria-roledescription="arc mark"  d="M30.0755200094014,137.36486227628862A75,75,0,0,0,76.02310396409213,203.1761483180741L105.0,134.0Z" fill="#e435ce" stroke="white" stroke-width="0"/>
<path  d="M16.0,274.25A5,5,0,1,1,6.0,274.25A5,5,0,1,1,16.0,274.25" fill="#6d7d9a" stroke="white" stroke-width="1.5" opacity="1"/>
<path  d="M77.0,274.25A5,5,0,1,1,67.0,274.25A5,5,0,1,1,77.0,274.25" fill="#b2b1bb" stroke="white" stroke-width="1.5" opacity="1"/>
<path  d="M148.0,274.25A5,5,0,1,1,138.0,274.25A5,5,0,1,1,148.0,274.25" fill="#c5ed32" stroke="white" stroke-width="1.5" opacity="1"/>
<path  d="M208.0,274.25A5,5,0,1,1,198.0,274.25A5,5,0,1,1,208.0,274.25" fill="#4bb2bb" stroke="white" stroke-width="1.5" opacity="1"/>
<path  d="M261.0,274.25A5,5,0,1,1,251.0,274.25A5,5,0,1,1,261.0,274.25" fill="#e435ce" stroke="white" stroke-width="1.5" opacity="1"/>
<path  d="M354.0,274.25A5,5,0,1,1,344.0,274.25A5,5,0,1,1,354.0,274.25" fill="#ffeefe" stroke="white" stroke-width="1.5" opacity="1"/>
<text aria-label="21,54,267,278" text-anchor="start" x="21.0" y="277.25" font-family="avenir" font-size="10px" fill="#000" opacity="1">Crooks</text>
<text aria-label="82,120,267,278" text-anchor="start" x="82.0" y="277.25" font-family="avenir" font-size="10px" fill="#000" opacity="1">Montana</text>
<text aria-label="153,186,267,278" text-anchor="start" x="153.0" y="277.25" font-family="avenir" font-size="10px" fill="#000" opacity="1">female</text>
<text aria-label="213,240,267,278" text-anchor="start" x="213.0" y="277.25" font-family="avenir" font-size="10px" fill="#000" opacity="1">index</text>
<text aria-label="266,332,267,278" text-anchor="start" x="266.0" y="277.25" font-family="avenir" font-size="10px" fill="#000" opacity="1">tremendously</text>
<text aria-label="359,386,267,278" text-anchor="start" x="359.0" y="277.25" font-family="avenir" font-size="10px" fill="#000" opacity="1">users</text>
<text aria-label="5,167,250,262" text-anchor="start" x="5.0" y="261.0" font-family="avenir" font-size="11px" font-weight="bold" fill="#000" opacity="1">positively Supervisor North</text>
</svg>