<svg xmlns="http://www.w3.org/2000/svg" xmlns:xlink="http://www.w3.org/1999/xlink" version="1.1" class="marks" width="335" height="239" viewBox="0 0 335 239" style="background-color: rgb(255, 255, 255);">
<text aria-label="122,330,0,26" text-anchor="end" x="330.0" y="25.0" font-family="avenir" font-size="25px" font-weight="bold" fill="#000" opacity="1">parse Specialist</text>
<path aria-label="past vel Pants: 170; Folk orange fishery: grey" role="graphics-symbol" aria-roledescription="arc mark"  d="M89.40662318866806,207.36107005503544A75,75,0,0,0,141.60332394774863,199.46141364174906L128.91417164586244,176.76812357927605A49,49,0,0,1,94.8123271499298,181.92923243595646Z" fill="#32fede" stroke="white" stroke-width="2"/>
<path aria-label="past vel Pants: 36; Folk orange fishery: Bedfordshire" role="graphics-symbol" aria-roledescription="arc mark"  d="M116.37984938124987,59.86836688659781A75,75,0,0,0,105.0,59.0L105.0,85.0A49,49,0,0,1,112.43483492908325,85.56733303257724Z" fill="#bfdf9a" stroke="white" stroke-width="2"/>
<path aria-label="past vel Pants: 400; Folk orange fishery: virtual" role="graphics-symbol" aria-roledescription="arc mark"  d="M104.99999999999999,59.0A75,75,0,0,0,30.554214899201384,143.10082857358114L56.362087067478235,139.94587466807303A49,49,0,0,1,104.99999999999999,85.0Z" fill="#130992" stroke="white" stroke-width="2"/>
<path aria-label="past vel Pants: 158; Folk orange fishery: DNS" role="graphics-symbol" aria-roledescription="arc mark"  d="M159.8785724869384,82.8791404434956A75,75,0,0,0,116.37984938124987,59.86836688659781L112.43483492908325,85.56733303257724A49,49,0,0,1,140.8540006914664,100.60103842308379Z" fill="#d09d3f" stroke="white" stroke-width="2"/>
<path aria-label="past vel Pants: 293; Folk orange fishery: simplify" role="graphics-symbol" aria-roledescription="arc mark"  d="M30.554214899201384,143.10082857358114A75,75,0,0,0,89.40662318866806,207.36107005503544L94.8123271499298,181.92923243595646A49,49,0,0,1,56.362087067478235,139.94587466807303Z" fill="#c56bf7" stroke="white" stroke-width="2"/>
<path aria-label="past vel Pants: 144; Folk orange fishery: Investor" role="graphics-symbol" aria-roledescription="arc mark"  d="M179.25902256750308,123.48346219903772A75,75,0,0,0,159.8785724869384,82.8791404434956L140.8540006914664,100.60103842308379A49,49,0,0,1,153.515894744102,127.1291953033713Z" fill="#edbbb1" stroke="white" stroke-width="2"/>
<path aria-label="past vel Pants: 284; Folk orange fishery: fooey" role="graphics-symbol" aria-roledescription="arc mark"  d="M141.60332394774863,199.46141364174906A75,75,0,0,0,179.25902256750308,123.48346219903772L153.515894744102,127.1291953033713A49,49,0,0,1,128.91417164586244,176.76812357927605Z" fill="#5e082d" stroke="white" stroke-width="2"/>
<text aria-label="110,126,215,226" role="graphics-symbol" aria-roledescription="text mark" text-anchor="middle" x="118.46759377336132" y="225.98665022325383" font-family="avenir" font-size="10px" fill="#32fede" opacity="1">170</text>
<text aria-label="106,117,37,48" role="graphics-symbol" aria-roledescription="text mark" text-anchor="middle" x="111.84775962459857" y="47.26088819180502" font-family="avenir" font-size="10px" fill="#bfdf9a" opacity="1">36</text>
<text aria-label="29,45,67,78" role="graphics-symbol" aria-roledescription="text mark" text-anchor="middle" x="37.60975780594504" y="77.3463726415014" font-family="avenir" font-size="10px" fill="#130992" opacity="1">400</text>
<text aria-label="138,155,47,58" role="graphics-symbol" aria-roledescription="text mark" text-anchor="middle" x="147.0842333960578" y="57.445507358376474" font-family="avenir" font-size="10px" fill="#d09d3f" opacity="1">158</text>
<text aria-label="30,46,187,198" role="graphics-symbol" aria-roledescription="text mark" text-anchor="middle" x="38.628962998053694" y="197.78556940003338" font-family="avenir" font-size="10px" fill="#c56bf7" opacity="1">293</text>
<text aria-label="177,194,88,99" role="graphics-symbol" aria-roledescription="text mark" text-anchor="middle" x="186.22242661114046" y="98.23252116273356" font-family="avenir" font-size="10px" fill="#edbbb1" opacity="1">144</text>
<text aria-label="177,193,166,177" role="graphics-symbol" aria-roledescription="text mark" text-anchor="middle" x="185.63943968622021" y="176.9659951345197" font-family="avenir" font-size="10px" fill="#5e082d" opacity="1">284</text>
<path  d="M234.0,56.0A5,5,0,1,1,224.0,56.0A5,5,0,1,1,234.0,56.0" fill="#bfdf9a" stroke="white" stroke-width="1.5" opacity="1"/>
<path  d="M234.0,72.0A5,5,0,1,1,224.0,72.0A5,5,0,1,1,234.0,72.0" fill="#d09d3f" stroke="white" stroke-width="1.5" opacity="1"/>
<path  d="M234.0,88.0A5,5,0,1,1,224.0,88.0A5,5,0,1,1,234.0,88.0" fill="#edbbb1" stroke="white" stroke-width="1.5" opacity="1"/>
<path  d="M234.0,104.0A5,5,0,1,1,224.0,104.0A5,5,0,1,1,234.0,104.0" fill="#5e082d" stroke="white" stroke-width="1.5" opacity="1"/>
<path  d="M234.0,120.0A5,5,0,1,1,224.0,120.0A5,5,0,1,1,234.0,120.0" fill="#32fede" stroke="white" stroke-width="1.5" opacity="1"/>
<path  d="M234.0,136.0A5,5,0,1,1,224.0,136.0A5,5,0,1,1,234.0,136.0" fill="#c56bf7" stroke="white" stroke-width="1.5" opacity="1"/>
<path  d="M234.0,152.0A5,5,0,1,1,224.0,152.0A5,5,0,1,1,234.0,152.0" fill="#130992" stroke="white" stroke-width="1.5" opacity="1"/>
<text aria-label="239,305,49,60" text-anchor="start" x="239.0" y="59.0" font-family="avenir" font-size="10px" fill="#000" opacity="1">Bedfordshire</text>
<text aria-label="239,255,65,76" text-anchor="start" x="239.0" y="75.0" font-family="avenir" font-size="10px" fill="#000" opacity="1">DNS</text>
<text aria-label="239,283,81,92" text-anchor="start" x="239.0" y="91.0" font-family="avenir" font-size="10px" fill="#000" opacity="1">Investor</text>
<text aria-label="239,266,97,108" text-anchor="start" x="239.0" y="107.0" font-family="avenir" font-size="10px" fill="#000" opacity="1">fooey</text>
<text aria-label="239,261,113,124" text-anchor="start" x="239.0" y="123.0" font-family="avenir" font-size="10px" fill="#000" opacity="1">grey</text>
<text aria-label="239,283,129,140" text-anchor="start" x="239.0" y="139.0" font-family="avenir" font-size="10px" fill="#000" opacity="1">simplify</text>
<text aria-label="239,277,145,156" text-anchor="start" x="239.0" y="155.0" font-family="avenir" font-size="10px" fill="#000" opacity="1">virtual</text>
<text aria-label="223,337,32,44" text-anchor="start" x="223.0" y="43.0" font-family="avenir" font-size="11px" font-weight="bold" fill="#000" opacity="1">Folk orange fishery</text>
</svg>