<svg xmlns="http://www.w3.org/2000/svg" xmlns:xlink="http://www.w3.org/1999/xlink" version="1.1" class="marks" width="330" height="239" viewBox="0 0 330 239" style="background-color: rgb(255, 255, 255);">
<text aria-label="5,174,0,26" text-anchor="start" x="5.0" y="25.0" font-family="Balto" font-size="25px" font-weight="bold" fill="#000" opacity="1">alarm codling</text>
<path aria-label="Northeast West generating: 9; Dominican Bronze: Female" role="graphics-symbol" aria-roledescription="arc mark"  d="M155.84245686569167,78.86340072274785A75,75,0,0,0,155.25285586469974,78.32549526541155L105.0,134.0Z" fill="#839244" stroke="black" stroke-width="3"/>
<path aria-label="Northeast West generating: 417; Dominican Bronze: Northwest" role="graphics-symbol" aria-roledescription="arc mark"  d="M175.88384593870376,109.49529871763148A75,75,0,0,0,155.84245686569167,78.86340072274785L105.0,134.0Z" fill="#ea99a8" stroke="black" stroke-width="3"/>
<path aria-label="Northeast West generating: 836; Dominican Bronze: protocol" role="graphics-symbol" aria-roledescription="arc mark"  d="M37.69618498143541,100.90624705557198A75,75,0,0,0,40.34570537398767,172.01081670278597L105.0,134.0Z" fill="#4cab7a" stroke="black" stroke-width="3"/>
<path aria-label="Northeast West generating: 283; Dominican Bronze: analyzer" role="graphics-symbol" aria-roledescription="arc mark"  d="M179.93393965380127,137.1471714221612A75,75,0,0,0,176.81142417072917,112.36393384712427L105.0,134.0Z" fill="#fe21bd" stroke="black" stroke-width="3"/>
<path aria-label="Northeast West generating: 942; Dominican Bronze: system" role="graphics-symbol" aria-roledescription="arc mark"  d="M104.99999999999999,59.0A75,75,0,0,0,37.69618498143541,100.90624705557198L105.0,134.0Z" fill="#6a2ffb" stroke="black" stroke-width="3"/>
<path aria-label="Northeast West generating: 621; Dominican Bronze: Developer" role="graphics-symbol" aria-roledescription="arc mark"  d="M155.25285586469974,78.32549526541155A75,75,0,0,0,105.0,59.0L105.0,134.0Z" fill="#410fc3" stroke="black" stroke-width="3"/>
<path aria-label="Northeast West generating: 34; Dominican Bronze: Plastic" role="graphics-symbol" aria-roledescription="arc mark"  d="M176.81142417072917,112.36393384712427A75,75,0,0,0,175.88384593870376,109.49529871763148L105.0,134.0Z" fill="#ef9a59" stroke="black" stroke-width="3"/>
<path aria-label="Northeast West generating: 325; Dominican Bronze: mmm" role="graphics-symbol" aria-roledescription="arc mark"  d="M40.34570537398767,172.01081670278597A75,75,0,0,0,59.31065413689709,193.47674902515908L105.0,134.0Z" fill="#da7f2c" stroke="black" stroke-width="3"/>
<path aria-label="Northeast West generating: 608; Dominican Bronze: merrily" role="graphics-symbol" aria-roledescription="arc mark"  d="M59.31065413689709,193.47674902515908A75,75,0,0,0,109.78539975619576,208.84717729596355L105.0,134.0Z" fill="#2e1ddc" stroke="black" stroke-width="3"/>
<path aria-label="Northeast West generating: 815; Dominican Bronze: connect" role="graphics-symbol" aria-roledescription="arc mark"  d="M145.16754049820275,197.3369456977935A75,75,0,0,0,179.93393965380127,137.1471714221612L105.0,134.0Z" fill="#f9cff3" stroke="black" stroke-width="3"/>
<path aria-label="Northeast West generating: 424; Dominican Bronze: group" role="graphics-symbol" aria-roledescription="arc mark"  d="M109.78539975619576,208.84717729596355A75,75,0,0,0,145.16754049820275,197.3369456977935L105.0,134.0Z" fill="#c4c197" stroke="black" stroke-width="3"/>
<text aria-label="162,168,59,71" role="graphics-symbol" aria-roledescription="text mark" text-anchor="middle" x="165.65804625440225" y="70.51239645919851" font-family="Balto" font-size="11px" fill="#839244" opacity="1">9</text>
<text aria-label="171,189,76,88" role="graphics-symbol" aria-roledescription="text mark" text-anchor="middle" x="180.31280202535737" y="87.72544418171458" font-family="Balto" font-size="11px" fill="#ea99a8" opacity="1">417</text>
<text aria-label="6,24,129,141" role="graphics-symbol" aria-roledescription="text mark" text-anchor="middle" x="15.062416592134028" y="140.35128195667724" font-family="Balto" font-size="11px" fill="#4cab7a" opacity="1">836</text>
<text aria-label="185,203,114,126" role="graphics-symbol" aria-roledescription="text mark" text-anchor="middle" x="194.29405266158565" y="125.74957070730328" font-family="Balto" font-size="11px" fill="#fe21bd" opacity="1">283</text>
<text aria-label="48,66,49,61" role="graphics-symbol" aria-roledescription="text mark" text-anchor="middle" x="57.42965901950157" y="60.59932815086563" font-family="Balto" font-size="11px" fill="#6a2ffb" opacity="1">942</text>
<text aria-label="128,146,41,53" role="graphics-symbol" aria-roledescription="text mark" text-anchor="middle" x="137.3044384618" y="52.99748065880537" font-family="Balto" font-size="11px" fill="#410fc3" opacity="1">621</text>
<text aria-label="184,196,98,110" role="graphics-symbol" aria-roledescription="text mark" text-anchor="middle" x="190.6344609633275" y="109.30994590976145" font-family="Balto" font-size="11px" fill="#ef9a59" opacity="1">34</text>
<text aria-label="28,46,185,197" role="graphics-symbol" aria-roledescription="text mark" text-anchor="middle" x="37.5526732266613" y="196.58907711259226" font-family="Balto" font-size="11px" fill="#da7f2c" opacity="1">325</text>
<text aria-label="69,87,212,224" role="graphics-symbol" aria-roledescription="text mark" text-anchor="middle" x="78.7821085126188" y="223.0965862619181" font-family="Balto" font-size="11px" fill="#2e1ddc" opacity="1">608</text>
<text aria-label="173,191,171,183" role="graphics-symbol" aria-roledescription="text mark" text-anchor="middle" x="182.93341695185802" y="182.01535873685617" font-family="Balto" font-size="11px" fill="#f9cff3" opacity="1">815</text>
<text aria-label="123,141,211,223" role="graphics-symbol" aria-roledescription="text mark" text-anchor="middle" x="132.8418896058664" y="222.58521591475215" font-family="Balto" font-size="11px" fill="#c4c197" opacity="1">424</text>
<path  d="M234.0,56.0A5,5,0,1,1,224.0,56.0A5,5,0,1,1,234.0,56.0" fill="#410fc3" stroke="black" stroke-width="1.5" opacity="1"/>
<path  d="M234.0,72.0A5,5,0,1,1,224.0,72.0A5,5,0,1,1,234.0,72.0" fill="#839244" stroke="black" stroke-width="1.5" opacity="1"/>
<path  d="M234.0,88.0A5,5,0,1,1,224.0,88.0A5,5,0,1,1,234.0,88.0" fill="#ea99a8" stroke="black" stroke-width="1.5" opacity="1"/>
<path  d="M234.0,104.0A5,5,0,1,1,224.0,104.0A5,5,0,1,1,234.0,104.0" fill="#ef9a59" stroke="black" stroke-width="1.5" opacity="1"/>
<path  d="M234.0,120.0A5,5,0,1,1,224.0,120.0A5,5,0,1,1,234.0,120.0" fill="#fe21bd" stroke="black" stroke-width="1.5" opacity="1"/>
<path  d="M234.0,136.0A5,5,0,1,1,224.0,136.0A5,5,0,1,1,234.0,136.0" fill="#f9cff3" stroke="black" stroke-width="1.5" opacity="1"/>
<path  d="M234.0,152.0A5,5,0,1,1,224.0,152.0A5,5,0,1,1,234.0,152.0" fill="#c4c197" stroke="black" stroke-width="1.5" opacity="1"/>
<path  d="M234.0,168.0A5,5,0,1,1,224.0,168.0A5,5,0,1,1,234.0,168.0" fill="#2e1ddc" stroke="black" stroke-width="1.5" opacity="1"/>
<path  d="M234.0,184.0A5,5,0,1,1,224.0,184.0A5,5,0,1,1,234.0,184.0" fill="#da7f2c" stroke="black" stroke-width="1.5" opacity="1"/>
<path  d="M234.0,200.0A5,5,0,1,1,224.0,200.0A5,5,0,1,1,234.0,200.0" fill="#4cab7a" stroke="black" stroke-width="1.5" opacity="1"/>
<path  d="M234.0,216.0A5,5,0,1,1,224.0,216.0A5,5,0,1,1,234.0,216.0" fill="#6a2ffb" stroke="black" stroke-width="1.5" opacity="1"/>
<text aria-label="239,288,49,60" text-anchor="start" x="239.0" y="59.0" font-family="Balto" font-size="10px" fill="#000" opacity="1">Developer</text>
<text aria-label="239,272,65,76" text-anchor="start" x="239.0" y="75.0" font-family="Balto" font-size="10px" fill="#000" opacity="1">Female</text>
<text aria-label="239,288,81,92" text-anchor="start" x="239.0" y="91.0" font-family="Balto" font-size="10px" fill="#000" opacity="1">Northwest</text>
<text aria-label="239,277,97,108" text-anchor="start" x="239.0" y="107.0" font-family="Balto" font-size="10px" fill="#000" opacity="1">Plastic</text>
<text aria-label="239,283,113,124" text-anchor="start" x="239.0" y="123.0" font-family="Balto" font-size="10px" fill="#000" opacity="1">analyzer</text>
<text aria-label="239,277,129,140" text-anchor="start" x="239.0" y="139.0" font-family="Balto" font-size="10px" fill="#000" opacity="1">connect</text>
<text aria-label="239,266,145,156" text-anchor="start" x="239.0" y="155.0" font-family="Balto" font-size="10px" fill="#000" opacity="1">group</text>
<text aria-label="239,277,161,172" text-anchor="start" x="239.0" y="171.0" font-family="Balto" font-size="10px" fill="#000" opacity="1">merrily</text>
<text aria-label="239,255,177,188" text-anchor="start" x="239.0" y="187.0" font-family="Balto" font-size="10px" fill="#000" opacity="1">mmm</text>
<text aria-label="239,283,193,204" text-anchor="start" x="239.0" y="203.0" font-family="Balto" font-size="10px" fill="#000" opacity="1">protocol</text>
<text aria-label="239,272,209,220" text-anchor="start" x="239.0" y="219.0" font-family="Balto" font-size="10px" fill="#000" opacity="1">system</text>
<text aria-label="223,319,32,44" text-anchor="start" x="223.0" y="43.0" font-family="Balto" font-size="11px" font-weight="bold" fill="#000" opacity="1">Dominican Bronze</text>
</svg>