<svg xmlns="http://www.w3.org/2000/svg" xmlns:xlink="http://www.w3.org/1999/xlink" version="1.1" class="marks" width="614" height="286" viewBox="0 0 614 286" style="background-color: rgb(255, 255, 255);">
<text aria-label="5,122,0,26" text-anchor="start" x="5.0" y="25.0" font-family="serif" font-size="25px" font-weight="bold" fill="#000" opacity="1">Northeast</text>
<path aria-label="Chair Androgynous Chips: 533; South: purple" role="graphics-symbol" aria-roledescription="arc mark"  d="M33.86737212285037,110.2271320347974A75,75,0,0,0,40.51609970858223,172.2991723566775L105.0,134.0Z" fill="#a2ff7d" stroke="white" stroke-width="1"/>
<path aria-label="Chair Androgynous Chips: 679; South: interject" role="graphics-symbol" aria-roledescription="arc mark"  d="M43.389919050676106,176.7691235053719A75,75,0,0,0,114.69713722718389,208.3704614050307L105.0,134.0Z" fill="#cdb4e3" stroke="white" stroke-width="1"/>
<path aria-label="Chair Androgynous Chips: 94; South: Tuna" role="graphics-symbol" aria-roledescription="arc mark"  d="M179.9788357580473,135.78162520406752A75,75,0,0,0,179.38983415318174,124.4526142498527L105.0,134.0Z" fill="#c08319" stroke="white" stroke-width="1"/>
<path aria-label="Chair Androgynous Chips: 483; South: communities" role="graphics-symbol" aria-roledescription="arc mark"  d="M114.69713722718389,208.3704614050307A75,75,0,0,0,164.10245918500345,180.1724952572958L105.0,134.0Z" fill="#0ff2e7" stroke="white" stroke-width="1"/>
<path aria-label="Chair Androgynous Chips: 650; South: wrathful" role="graphics-symbol" aria-roledescription="arc mark"  d="M104.99999999999999,59.0A75,75,0,0,0,40.05816368235989,96.48256544361223L105.0,134.0Z" fill="#a47b97" stroke="white" stroke-width="1"/>
<path aria-label="Chair Androgynous Chips: 125; South: who" role="graphics-symbol" aria-roledescription="arc mark"  d="M40.05816368235989,96.48256544361223A75,75,0,0,0,33.86737212285037,110.2271320347974L105.0,134.0Z" fill="#e1e520" stroke="white" stroke-width="1"/>
<path aria-label="Chair Androgynous Chips: 318; South: Blues" role="graphics-symbol" aria-roledescription="arc mark"  d="M141.75654949046267,68.6244994699454A75,75,0,0,0,105.0,59.0L105.0,134.0Z" fill="#80c7da" stroke="white" stroke-width="1"/>
<path aria-label="Chair Androgynous Chips: 44; South: knowledge" role="graphics-symbol" aria-roledescription="arc mark"  d="M40.51609970858223,172.2991723566775A75,75,0,0,0,43.389919050676106,176.7691235053719L105.0,134.0Z" fill="#90d9dd" stroke="white" stroke-width="1"/>
<path aria-label="Chair Androgynous Chips: 397; South: VonRueden" role="graphics-symbol" aria-roledescription="arc mark"  d="M164.10245918500345,180.1724952572958A75,75,0,0,0,179.9788357580473,135.78162520406752L105.0,134.0Z" fill="#1e67ab" stroke="white" stroke-width="1"/>
<path aria-label="Chair Androgynous Chips: 578; South: South" role="graphics-symbol" aria-roledescription="arc mark"  d="M179.38983415318174,124.4526142498527A75,75,0,0,0,141.75654949046267,68.6244994699454L105.0,134.0Z" fill="#abce1e" stroke="white" stroke-width="1"/>
<text aria-label="9,21,138,146" role="graphics-symbol" aria-roledescription="text mark" text-anchor="middle" x="15.511893947865346" y="145.58534690044658" font-family="serif" font-size="7px" fill="#a2ff7d" opacity="1">533</text>
<text aria-label="62,74,211,219" role="graphics-symbol" aria-roledescription="text mark" text-anchor="middle" x="68.53501156094057" y="218.28186080868164" font-family="serif" font-size="7px" fill="#cdb4e3" opacity="1">679</text>
<text aria-label="190,198,124,132" role="graphics-symbol" aria-roledescription="text mark" text-anchor="middle" x="194.87861021672592" y="131.32716087267602" font-family="serif" font-size="7px" fill="#c08319" opacity="1">94</text>
<text aria-label="143,155,207,215" role="graphics-symbol" aria-roledescription="text mark" text-anchor="middle" x="149.61236951883993" y="214.16480337027969" font-family="serif" font-size="7px" fill="#0ff2e7" opacity="1">483</text>
<text aria-label="54,66,51,59" role="graphics-symbol" aria-roledescription="text mark" text-anchor="middle" x="60.01046194997047" y="58.051674385879565" font-family="serif" font-size="7px" fill="#a47b97" opacity="1">650</text>
<text aria-label="16,28,92,100" role="graphics-symbol" aria-roledescription="text mark" text-anchor="middle" x="22.93988636368877" y="99.03869929242629" font-family="serif" font-size="7px" fill="#e1e520" opacity="1">125</text>
<text aria-label="121,133,41,49" role="graphics-symbol" aria-roledescription="text mark" text-anchor="middle" x="127.79743343837312" y="48.935213612948274" font-family="serif" font-size="7px" fill="#80c7da" opacity="1">318</text>
<text aria-label="25,33,177,185" role="graphics-symbol" aria-roledescription="text mark" text-anchor="middle" x="29.296089106120803" y="184.67153043999747" font-family="serif" font-size="7px" fill="#90d9dd" opacity="1">44</text>
<text aria-label="183,195,159,167" role="graphics-symbol" aria-roledescription="text mark" text-anchor="middle" x="189.74316184311078" y="166.30835727703393" font-family="serif" font-size="7px" fill="#1e67ab" opacity="1">397</text>
<text aria-label="173,185,78,86" role="graphics-symbol" aria-roledescription="text mark" text-anchor="middle" x="179.62778918672274" y="85.6940055152264" font-family="serif" font-size="7px" fill="#abce1e" opacity="1">578</text>
<path  d="M16.0,274.25A5,5,0,1,1,6.0,274.25A5,5,0,1,1,16.0,274.25" fill="#80c7da" stroke="white" stroke-width="1.5" opacity="1"/>
<path  d="M68.0,274.25A5,5,0,1,1,58.0,274.25A5,5,0,1,1,68.0,274.25" fill="#abce1e" stroke="white" stroke-width="1.5" opacity="1"/>
<path  d="M120.0,274.25A5,5,0,1,1,110.0,274.25A5,5,0,1,1,120.0,274.25" fill="#c08319" stroke="white" stroke-width="1.5" opacity="1"/>
<path  d="M167.0,274.25A5,5,0,1,1,157.0,274.25A5,5,0,1,1,167.0,274.25" fill="#1e67ab" stroke="white" stroke-width="1.5" opacity="1"/>
<path  d="M239.0,274.25A5,5,0,1,1,229.0,274.25A5,5,0,1,1,239.0,274.25" fill="#0ff2e7" stroke="white" stroke-width="1.5" opacity="1"/>
<path  d="M321.0,274.25A5,5,0,1,1,311.0,274.25A5,5,0,1,1,321.0,274.25" fill="#cdb4e3" stroke="white" stroke-width="1.5" opacity="1"/>
<path  d="M393.0,274.25A5,5,0,1,1,383.0,274.25A5,5,0,1,1,393.0,274.25" fill="#90d9dd" stroke="white" stroke-width="1.5" opacity="1"/>
<path  d="M465.0,274.25A5,5,0,1,1,455.0,274.25A5,5,0,1,1,465.0,274.25" fill="#a2ff7d" stroke="white" stroke-width="1.5" opacity="1"/>
<path  d="M522.0,274.25A5,5,0,1,1,512.0,274.25A5,5,0,1,1,522.0,274.25" fill="#e1e520" stroke="white" stroke-width="1.5" opacity="1"/>
<path  d="M564.0,274.25A5,5,0,1,1,554.0,274.25A5,5,0,1,1,564.0,274.25" fill="#a47b97" stroke="white" stroke-width="1.5" opacity="1"/>
<text aria-label="21,48,267,278" text-anchor="start" x="21.0" y="277.25" font-family="serif" font-size="10px" fill="#000" opacity="1">Blues</text>
<text aria-label="73,100,267,278" text-anchor="start" x="73.0" y="277.25" font-family="serif" font-size="10px" fill="#000" opacity="1">South</text>
<text aria-label="125,147,267,278" text-anchor="start" x="125.0" y="277.25" font-family="serif" font-size="10px" fill="#000" opacity="1">Tuna</text>
<text aria-label="172,221,267,278" text-anchor="start" x="172.0" y="277.25" font-family="serif" font-size="10px" fill="#000" opacity="1">VonRueden</text>
<text aria-label="244,304,267,278" text-anchor="start" x="244.0" y="277.25" font-family="serif" font-size="10px" fill="#000" opacity="1">communities</text>
<text aria-label="326,375,267,278" text-anchor="start" x="326.0" y="277.25" font-family="serif" font-size="10px" fill="#000" opacity="1">interject</text>
<text aria-label="398,447,267,278" text-anchor="start" x="398.0" y="277.25" font-family="serif" font-size="10px" fill="#000" opacity="1">knowledge</text>
<text aria-label="470,503,267,278" text-anchor="start" x="470.0" y="277.25" font-family="serif" font-size="10px" fill="#000" opacity="1">purple</text>
<text aria-label="527,543,267,278" text-anchor="start" x="527.0" y="277.25" font-family="serif" font-size="10px" fill="#000" opacity="1">who</text>
<text aria-label="569,613,267,278" text-anchor="start" x="569.0" y="277.25" font-family="serif" font-size="10px" fill="#000" opacity="1">wrathful</text>
<text aria-label="5,35,250,262" text-anchor="start" x="5.0" y="261.0" font-family="serif" font-size="11px" font-weight="bold" fill="#000" opacity="1">South</text>
</svg>