<svg xmlns="http://www.w3.org/2000/svg" xmlns:xlink="http://www.w3.org/1999/xlink" version="1.1" class="marks" width="360" height="239" viewBox="0 0 360 239" style="background-color: rgb(255, 255, 255);">
<text aria-label="4,355,0,26" text-anchor="end" x="355.0" y="25.0" font-family="monospace" font-size="25px" font-weight="bold" fill="#000" opacity="1">Southwest Hybrid withdrawal</text>
<path aria-label="hearty: 20; orchid: Rubber" role="graphics-symbol" aria-roledescription="arc mark"  d="M329.69383409724105,140.76987059358078A75,75,0,0,0,329.58658465116474,126.1360703160165L297.7629752000011,129.4913469811828A43,43,0,0,1,297.8244648824182,137.881392473653Z" fill="#4d009d" stroke="black" stroke-width="1"/>
<path aria-label="hearty: 78; orchid: Buckinghamshire" role="graphics-symbol" aria-roledescription="arc mark"  d="M306.78806265531597,79.75060768626923A75,75,0,0,0,255.0,59.0L255.0,91.0A43,43,0,0,1,284.69182258904783,102.89701507346103Z" fill="#6aa3d6" stroke="black" stroke-width="1"/>
<path aria-label="hearty: 126; orchid: forenenst" role="graphics-symbol" aria-roledescription="arc mark"  d="M224.40550901753136,65.52389379116504A75,75,0,0,0,180.24358006204653,140.0396753273955L212.13965256890668,137.46274718770678A43,43,0,0,1,237.45915850338466,94.7403657736013Z" fill="#f091d1" stroke="black" stroke-width="1"/>
<path aria-label="hearty: 72; orchid: Keyboard" role="graphics-symbol" aria-roledescription="arc mark"  d="M329.58658465116474,126.1360703160165A75,75,0,0,0,306.78806265531597,79.75060768626923L284.69182258904783,102.89701507346103A43,43,0,0,1,297.7629752000011,129.4913469811828Z" fill="#60063c" stroke="black" stroke-width="1"/>
<path aria-label="hearty: 43; orchid: hertz" role="graphics-symbol" aria-roledescription="arc mark"  d="M255.0,59.0A75,75,0,0,0,224.40550901753136,65.52389379116504L237.45915850338466,94.7403657736013A43,43,0,0,1,255.0,91.0Z" fill="#ccdb9f" stroke="black" stroke-width="1"/>
<path aria-label="hearty: 112; orchid: female" role="graphics-symbol" aria-roledescription="arc mark"  d="M180.24358006204653,140.0396753273955A75,75,0,0,0,226.08728652860546,203.20299848793434L238.4233776097338,173.67638579974903A43,43,0,0,1,212.13965256890668,137.46274718770678Z" fill="#f5a5e8" stroke="black" stroke-width="1"/>
<path aria-label="hearty: 192; orchid: Virginia" role="graphics-symbol" aria-roledescription="arc mark"  d="M226.08728652860546,203.20299848793434A75,75,0,0,0,329.69383409724105,140.76987059358078L297.8244648824182,137.881392473653A43,43,0,0,1,238.4233776097338,173.67638579974903Z" fill="#3fbc76" stroke="black" stroke-width="1"/>
<path  d="M57.0,40.0A5,5,0,1,1,47.0,40.0A5,5,0,1,1,57.0,40.0" fill="#6aa3d6" stroke="black" stroke-width="1.5" opacity="1"/>
<path  d="M57.0,56.0A5,5,0,1,1,47.0,56.0A5,5,0,1,1,57.0,56.0" fill="#60063c" stroke="black" stroke-width="1.5" opacity="1"/>
<path  d="M57.0,72.0A5,5,0,1,1,47.0,72.0A5,5,0,1,1,57.0,72.0" fill="#4d009d" stroke="black" stroke-width="1.5" opacity="1"/>
<path  d="M57.0,88.0A5,5,0,1,1,47.0,88.0A5,5,0,1,1,57.0,88.0" fill="#3fbc76" stroke="black" stroke-width="1.5" opacity="1"/>
<path  d="M57.0,104.0A5,5,0,1,1,47.0,104.0A5,5,0,1,1,57.0,104.0" fill="#f5a5e8" stroke="black" stroke-width="1.5" opacity="1"/>
<path  d="M57.0,120.0A5,5,0,1,1,47.0,120.0A5,5,0,1,1,57.0,120.0" fill="#f091d1" stroke="black" stroke-width="1.5" opacity="1"/>
<path  d="M57.0,136.0A5,5,0,1,1,47.0,136.0A5,5,0,1,1,57.0,136.0" fill="#ccdb9f" stroke="black" stroke-width="1.5" opacity="1"/>
<text aria-label="62,144,33,44" text-anchor="start" x="62.0" y="43.0" font-family="monospace" font-size="10px" fill="#000" opacity="1">Buckinghamshire</text>
<text aria-label="62,106,49,60" text-anchor="start" x="62.0" y="59.0" font-family="monospace" font-size="10px" fill="#000" opacity="1">Keyboard</text>
<text aria-label="62,95,65,76" text-anchor="start" x="62.0" y="75.0" font-family="monospace" font-size="10px" fill="#000" opacity="1">Rubber</text>
<text aria-label="62,106,81,92" text-anchor="start" x="62.0" y="91.0" font-family="monospace" font-size="10px" fill="#000" opacity="1">Virginia</text>
<text aria-label="62,95,97,108" text-anchor="start" x="62.0" y="107.0" font-family="monospace" font-size="10px" fill="#000" opacity="1">female</text>
<text aria-label="62,111,113,124" text-anchor="start" x="62.0" y="123.0" font-family="monospace" font-size="10px" fill="#000" opacity="1">forenenst</text>
<text aria-label="62,89,129,140" text-anchor="start" x="62.0" y="139.0" font-family="monospace" font-size="10px" fill="#000" opacity="1">hertz</text>
</svg>