<svg xmlns="http://www.w3.org/2000/svg" xmlns:xlink="http://www.w3.org/1999/xlink" version="1.1" class="marks" width="374" height="239" viewBox="0 0 374 239" style="background-color: rgb(255, 255, 255);">
<text aria-label="70,369,0,26" text-anchor="middle" x="220.0" y="25.0" font-family="monospace" font-size="25px" font-weight="bold" fill="#000" opacity="1">Gloves Outdoors Danbury</text>
<path aria-label="Waterbury: 335; Incredible Rustic: yellow" role="graphics-symbol" aria-roledescription="arc mark"  d="M220.0,59.0A75,75,0,0,0,150.2638120350896,106.39811441001387L176.2986555419895,116.7028183636087A47,47,0,0,1,220.0,87.0Z" fill="#df0c5c" stroke="white" stroke-width="0"/>
<path aria-label="Waterbury: 773; Incredible Rustic: geez" role="graphics-symbol" aria-roledescription="arc mark"  d="M206.83748128543155,207.83595398644644A75,75,0,0,0,260.03568719766986,70.57962669133576L245.08903064387312,94.25656605990375A47,47,0,0,1,211.75148827220377,180.27053116483978Z" fill="#f04dad" stroke="white" stroke-width="0"/>
<path aria-label="Waterbury: 158; Incredible Rustic: babyish" role="graphics-symbol" aria-roledescription="arc mark"  d="M260.03568719766986,70.57962669133576A75,75,0,0,0,220.0,59.0L220.0,87.0A47,47,0,0,1,245.08903064387312,94.25656605990375Z" fill="#d70b8f" stroke="white" stroke-width="0"/>
<path aria-label="Waterbury: 497; Incredible Rustic: phooey" role="graphics-symbol" aria-roledescription="arc mark"  d="M150.2638120350896,106.39811441001387A75,75,0,0,0,206.83748128543155,207.83595398644644L211.75148827220377,180.27053116483978A47,47,0,0,1,176.2986555419895,116.7028183636087Z" fill="#bdea5a" stroke="white" stroke-width="0"/>
<path  d="M16.0,56.0A5,5,0,1,1,6.0,56.0A5,5,0,1,1,16.0,56.0" fill="#d70b8f" stroke="white" stroke-width="1.5" opacity="1"/>
<path  d="M16.0,72.0A5,5,0,1,1,6.0,72.0A5,5,0,1,1,16.0,72.0" fill="#f04dad" stroke="white" stroke-width="1.5" opacity="1"/>
<path  d="M16.0,88.0A5,5,0,1,1,6.0,88.0A5,5,0,1,1,16.0,88.0" fill="#bdea5a" stroke="white" stroke-width="1.5" opacity="1"/>
<path  d="M16.0,104.0A5,5,0,1,1,6.0,104.0A5,5,0,1,1,16.0,104.0" fill="#df0c5c" stroke="white" stroke-width="1.5" opacity="1"/>
<text aria-label="21,59,49,60" text-anchor="start" x="21.0" y="59.0" font-family="monospace" font-size="10px" fill="#000" opacity="1">babyish</text>
<text aria-label="21,43,65,76" text-anchor="start" x="21.0" y="75.0" font-family="monospace" font-size="10px" fill="#000" opacity="1">geez</text>
<text aria-label="21,54,81,92" text-anchor="start" x="21.0" y="91.0" font-family="monospace" font-size="10px" fill="#000" opacity="1">phooey</text>
<text aria-label="21,54,97,108" text-anchor="start" x="21.0" y="107.0" font-family="monospace" font-size="10px" fill="#000" opacity="1">yellow</text>
<text aria-label="5,107,32,44" text-anchor="start" x="5.0" y="43.0" font-family="monospace" font-size="11px" font-weight="bold" fill="#000" opacity="1">Incredible Rustic</text>
</svg>