<svg xmlns="http://www.w3.org/2000/svg" xmlns:xlink="http://www.w3.org/1999/xlink" version="1.1" class="marks" width="410" height="270" viewBox="0 0 410 270" style="background-color: rgb(255, 255, 255);">
<text aria-label="5,278,0,26" text-anchor="start" x="5.0" y="25.0" font-family="avenir" font-size="25px" font-weight="bold" fill="#000" opacity="1">Specialist Strategist</text>
<path aria-label="Plastic Tungsten barren: 263; Northwest deposit Diesel: Sheboygan" role="graphics-symbol" aria-roledescription="arc mark"  d="M67.34104461657438,198.8598726442564A75,75,0,0,0,168.89901755817812,173.2672325877397L133.96755462637407,151.80114543977533A34,34,0,0,1,87.92794022618038,163.40314226539624Z" fill="#0ecf6e" stroke="white" stroke-width="0"/>
<path aria-label="Plastic Tungsten barren: 48; Northwest deposit Diesel: Gasoline" role="graphics-symbol" aria-roledescription="arc mark"  d="M125.87988050277406,61.96507381700266A75,75,0,0,0,105.0,59.0L105.0,100.0A34,34,0,0,1,114.46554582792423,101.3441667970412Z" fill="#007bdd" stroke="white" stroke-width="0"/>
<path aria-label="Plastic Tungsten barren: 45; Northwest deposit Diesel: Investment" role="graphics-symbol" aria-roledescription="arc mark"  d="M143.98517093720287,69.92850519148884A75,75,0,0,0,125.87988050277406,61.96507381700266L114.46554582792423,101.3441667970412A34,34,0,0,1,122.67327749153196,104.95425568680827Z" fill="#68fb9c" stroke="white" stroke-width="0"/>
<path aria-label="Plastic Tungsten barren: 309; Northwest deposit Diesel: anenst" role="graphics-symbol" aria-roledescription="arc mark"  d="M51.23187516307401,81.71244171391494A75,75,0,0,0,67.34104461657438,198.8598726442564L87.92794022618038,163.40314226539624A34,34,0,0,1,80.62511674059355,110.2963069103081Z" fill="#cc20ec" stroke="white" stroke-width="0"/>
<path aria-label="Plastic Tungsten barren: 268; Northwest deposit Diesel: New" role="graphics-symbol" aria-roledescription="arc mark"  d="M168.89901755817812,173.2672325877397A75,75,0,0,0,143.98517093720287,69.92850519148884L122.67327749153196,104.95425568680827A34,34,0,0,1,133.96755462637407,151.80114543977533Z" fill="#8ba8dc" stroke="white" stroke-width="0"/>
<path aria-label="Plastic Tungsten barren: 136; Northwest deposit Diesel: steradian" role="graphics-symbol" aria-roledescription="arc mark"  d="M104.99999999999999,59.0A75,75,0,0,0,51.23187516307401,81.71244171391494L80.62511674059355,110.2963069103081A34,34,0,0,1,105.0,100.0Z" fill="#dbbaa8" stroke="white" stroke-width="0"/>
<text aria-label="117,135,213,225" role="graphics-symbol" aria-roledescription="text mark" text-anchor="middle" x="126.99246852172413" y="224.27159519752672" font-family="avenir" font-size="11px" fill="#0ecf6e" opacity="1">263</text>
<text aria-label="111,123,36,48" role="graphics-symbol" aria-roledescription="text mark" text-anchor="middle" x="117.65361553541689" y="47.89396196731752" font-family="avenir" font-size="11px" fill="#007bdd" opacity="1">48</text>
<text aria-label="135,147,43,55" role="graphics-symbol" aria-roledescription="text mark" text-anchor="middle" x="141.23543327104292" y="54.61678947953172" font-family="avenir" font-size="11px" fill="#68fb9c" opacity="1">45</text>
<text aria-label="6,24,138,150" role="graphics-symbol" aria-roledescription="text mark" text-anchor="middle" x="15.839047977092676" y="149.2606946935652" font-family="avenir" font-size="11px" fill="#cc20ec" opacity="1">309</text>
<text aria-label="183,201,104,116" role="graphics-symbol" aria-roledescription="text mark" text-anchor="middle" x="192.49318588326008" y="115.90634161655932" font-family="avenir" font-size="11px" fill="#8ba8dc" opacity="1">268</text>
<text aria-label="60,78,43,55" role="graphics-symbol" aria-roledescription="text mark" text-anchor="middle" x="69.97897984707743" y="54.09325632104111" font-family="avenir" font-size="11px" fill="#dbbaa8" opacity="1">136</text>
<path  d="M16.0,258.25A5,5,0,1,1,6.0,258.25A5,5,0,1,1,16.0,258.25" fill="#007bdd" stroke="white" stroke-width="1.5" opacity="1"/>
<path  d="M85.0,258.25A5,5,0,1,1,75.0,258.25A5,5,0,1,1,85.0,258.25" fill="#68fb9c" stroke="white" stroke-width="1.5" opacity="1"/>
<path  d="M166.0,258.25A5,5,0,1,1,156.0,258.25A5,5,0,1,1,166.0,258.25" fill="#8ba8dc" stroke="white" stroke-width="1.5" opacity="1"/>
<path  d="M215.0,258.25A5,5,0,1,1,205.0,258.25A5,5,0,1,1,215.0,258.25" fill="#0ecf6e" stroke="white" stroke-width="1.5" opacity="1"/>
<path  d="M296.0,258.25A5,5,0,1,1,286.0,258.25A5,5,0,1,1,296.0,258.25" fill="#cc20ec" stroke="white" stroke-width="1.5" opacity="1"/>
<path  d="M355.0,258.25A5,5,0,1,1,345.0,258.25A5,5,0,1,1,355.0,258.25" fill="#dbbaa8" stroke="white" stroke-width="1.5" opacity="1"/>
<text aria-label="21,65,251,262" text-anchor="start" x="21.0" y="261.25" font-family="avenir" font-size="10px" fill="#000" opacity="1">Gasoline</text>
<text aria-label="90,145,251,262" text-anchor="start" x="90.0" y="261.25" font-family="avenir" font-size="10px" fill="#000" opacity="1">Investment</text>
<text aria-label="171,187,251,262" text-anchor="start" x="171.0" y="261.25" font-family="avenir" font-size="10px" fill="#000" opacity="1">New</text>
<text aria-label="220,269,251,262" text-anchor="start" x="220.0" y="261.25" font-family="avenir" font-size="10px" fill="#000" opacity="1">Sheboygan</text>
<text aria-label="301,334,251,262" text-anchor="start" x="301.0" y="261.25" font-family="avenir" font-size="10px" fill="#000" opacity="1">anenst</text>
<text aria-label="360,409,251,262" text-anchor="start" x="360.0" y="261.25" font-family="avenir" font-size="10px" fill="#000" opacity="1">steradian</text>
</svg>