<svg xmlns="http://www.w3.org/2000/svg" xmlns:xlink="http://www.w3.org/1999/xlink" version="1.1" class="marks" width="408" height="239" viewBox="0 0 408 239" style="background-color: rgb(255, 255, 255);">
<text aria-label="125,398,0,26" text-anchor="middle" x="262.0" y="25.0" font-family="Balto" font-size="25px" font-weight="bold" fill="#000" opacity="1">metrics male Maldives</text>
<path aria-label="zowie: 434; Home maroon bluetooth: likewise" role="graphics-symbol" aria-roledescription="arc mark"  d="M262.0,59.0A75,75,0,0,0,191.48096942063637,108.46441059723156L262.0,134.0Z" fill="#ad8bef" stroke="black" stroke-width="4"/>
<path aria-label="zowie: 173; Home maroon bluetooth: Corporate" role="graphics-symbol" aria-roledescription="arc mark"  d="M335.4712595814354,149.06565682329637A75,75,0,0,0,333.9660327264787,112.88388924040721L262.0,134.0Z" fill="#8d7fdf" stroke="black" stroke-width="4"/>
<path aria-label="zowie: 163; Home maroon bluetooth: Classical" role="graphics-symbol" aria-roledescription="arc mark"  d="M333.9660327264787,112.88388924040721A75,75,0,0,0,317.1378263787651,83.1588739087621L262.0,134.0Z" fill="#4f0d12" stroke="black" stroke-width="4"/>
<path aria-label="zowie: 140; Home maroon bluetooth: Naira" role="graphics-symbol" aria-roledescription="arc mark"  d="M240.02326828735124,205.70790237644843A75,75,0,0,0,269.2822466338869,208.64562200131527L262.0,134.0Z" fill="#4c0c68" stroke="black" stroke-width="4"/>
<path aria-label="zowie: 401; Home maroon bluetooth: Cotton" role="graphics-symbol" aria-roledescription="arc mark"  d="M279.69592801630614,206.88246793050928A75,75,0,0,0,335.4712595814354,149.06565682329637L262.0,134.0Z" fill="#a9bc3f" stroke="black" stroke-width="4"/>
<path aria-label="zowie: 90; Home maroon bluetooth: infatuated" role="graphics-symbol" aria-roledescription="arc mark"  d="M191.48096942063637,108.46441059723156A75,75,0,0,0,187.32918210460764,126.98081523016026L262.0,134.0Z" fill="#feb20a" stroke="black" stroke-width="4"/>
<path aria-label="zowie: 336; Home maroon bluetooth: biodegradable" role="graphics-symbol" aria-roledescription="arc mark"  d="M188.61484277650254,149.47962206523664A75,75,0,0,0,231.707346692861,202.6101680191317L262.0,134.0Z" fill="#6cb68d" stroke="black" stroke-width="4"/>
<path aria-label="zowie: 293; Home maroon bluetooth: Bicycle" role="graphics-symbol" aria-roledescription="arc mark"  d="M317.1378263787651,83.1588739087621A75,75,0,0,0,262.0,59.0L262.0,134.0Z" fill="#3a8ad1" stroke="black" stroke-width="4"/>
<path aria-label="zowie: 107; Home maroon bluetooth: engineer" role="graphics-symbol" aria-roledescription="arc mark"  d="M187.32918210460764,126.98081523016026A75,75,0,0,0,188.61484277650254,149.47962206523664L262.0,134.0Z" fill="#ffc4c3" stroke="black" stroke-width="4"/>
<path aria-label="zowie: 42; Home maroon bluetooth: Virginia" role="graphics-symbol" aria-roledescription="arc mark"  d="M231.707346692861,202.6101680191317A75,75,0,0,0,240.02326828735124,205.70790237644843L262.0,134.0Z" fill="#4adabc" stroke="black" stroke-width="4"/>
<path aria-label="zowie: 50; Home maroon bluetooth: Licensed" role="graphics-symbol" aria-roledescription="arc mark"  d="M269.2822466338869,208.64562200131527A75,75,0,0,0,279.69592801630614,206.88246793050928L262.0,134.0Z" fill="#a2a6fc" stroke="black" stroke-width="4"/>
<path  d="M16.0,56.0A5,5,0,1,1,6.0,56.0A5,5,0,1,1,16.0,56.0" fill="#3a8ad1" stroke="black" stroke-width="1.5" opacity="1"/>
<path  d="M16.0,72.0A5,5,0,1,1,6.0,72.0A5,5,0,1,1,16.0,72.0" fill="#4f0d12" stroke="black" stroke-width="1.5" opacity="1"/>
<path  d="M16.0,88.0A5,5,0,1,1,6.0,88.0A5,5,0,1,1,16.0,88.0" fill="#8d7fdf" stroke="black" stroke-width="1.5" opacity="1"/>
<path  d="M16.0,104.0A5,5,0,1,1,6.0,104.0A5,5,0,1,1,16.0,104.0" fill="#a9bc3f" stroke="black" stroke-width="1.5" opacity="1"/>
<path  d="M16.0,120.0A5,5,0,1,1,6.0,120.0A5,5,0,1,1,16.0,120.0" fill="#a2a6fc" stroke="black" stroke-width="1.5" opacity="1"/>
<path  d="M16.0,136.0A5,5,0,1,1,6.0,136.0A5,5,0,1,1,16.0,136.0" fill="#4c0c68" stroke="black" stroke-width="1.5" opacity="1"/>
<path  d="M16.0,152.0A5,5,0,1,1,6.0,152.0A5,5,0,1,1,16.0,152.0" fill="#4adabc" stroke="black" stroke-width="1.5" opacity="1"/>
<path  d="M16.0,168.0A5,5,0,1,1,6.0,168.0A5,5,0,1,1,16.0,168.0" fill="#6cb68d" stroke="black" stroke-width="1.5" opacity="1"/>
<path  d="M16.0,184.0A5,5,0,1,1,6.0,184.0A5,5,0,1,1,16.0,184.0" fill="#ffc4c3" stroke="black" stroke-width="1.5" opacity="1"/>
<path  d="M16.0,200.0A5,5,0,1,1,6.0,200.0A5,5,0,1,1,16.0,200.0" fill="#feb20a" stroke="black" stroke-width="1.5" opacity="1"/>
<path  d="M16.0,216.0A5,5,0,1,1,6.0,216.0A5,5,0,1,1,16.0,216.0" fill="#ad8bef" stroke="black" stroke-width="1.5" opacity="1"/>
<text aria-label="21,59,49,60" text-anchor="start" x="21.0" y="59.0" font-family="Balto" font-size="10px" fill="#000" opacity="1">Bicycle</text>
<text aria-label="21,70,65,76" text-anchor="start" x="21.0" y="75.0" font-family="Balto" font-size="10px" fill="#000" opacity="1">Classical</text>
<text aria-label="21,70,81,92" text-anchor="start" x="21.0" y="91.0" font-family="Balto" font-size="10px" fill="#000" opacity="1">Corporate</text>
<text aria-label="21,54,97,108" text-anchor="start" x="21.0" y="107.0" font-family="Balto" font-size="10px" fill="#000" opacity="1">Cotton</text>
<text aria-label="21,65,113,124" text-anchor="start" x="21.0" y="123.0" font-family="Balto" font-size="10px" fill="#000" opacity="1">Licensed</text>
<text aria-label="21,48,129,140" text-anchor="start" x="21.0" y="139.0" font-family="Balto" font-size="10px" fill="#000" opacity="1">Naira</text>
<text aria-label="21,65,145,156" text-anchor="start" x="21.0" y="155.0" font-family="Balto" font-size="10px" fill="#000" opacity="1">Virginia</text>
<text aria-label="21,92,161,172" text-anchor="start" x="21.0" y="171.0" font-family="Balto" font-size="10px" fill="#000" opacity="1">biodegradable</text>
<text aria-label="21,65,177,188" text-anchor="start" x="21.0" y="187.0" font-family="Balto" font-size="10px" fill="#000" opacity="1">engineer</text>
<text aria-label="21,76,193,204" text-anchor="start" x="21.0" y="203.0" font-family="Balto" font-size="10px" fill="#000" opacity="1">infatuated</text>
<text aria-label="21,65,209,220" text-anchor="start" x="21.0" y="219.0" font-family="Balto" font-size="10px" fill="#000" opacity="1">likewise</text>
<text aria-label="5,131,32,44" text-anchor="start" x="5.0" y="43.0" font-family="Balto" font-size="11px" font-weight="bold" fill="#000" opacity="1">Home maroon bluetooth</text>
</svg>