<svg xmlns="http://www.w3.org/2000/svg" xmlns:xlink="http://www.w3.org/1999/xlink" version="1.1" class="marks" width="445" height="270" viewBox="0 0 445 270" style="background-color: rgb(255, 255, 255);">
<text aria-label="5,278,0,26" text-anchor="start" x="5.0" y="25.0" font-family="monospace" font-size="25px" font-weight="bold" fill="#000" opacity="1">Account lux Cleveland</text>
<path aria-label="Account Lilla: 488; Quality: Car" role="graphics-symbol" aria-roledescription="arc mark"  d="M179.24929993313992,175.5849638373794A75,75,0,0,0,164.26804034450367,119.04024158329065L105.0,165.0Z" fill="#06d516" stroke="black" stroke-width="0"/>
<path aria-label="Account Lilla: 510; Quality: behold" role="graphics-symbol" aria-roledescription="arc mark"  d="M42.63764133680724,123.33543205596261A75,75,0,0,0,32.30055168354576,183.4333994282986L105.0,165.0Z" fill="#fbe6ba" stroke="black" stroke-width="0"/>
<path aria-label="Account Lilla: 598; Quality: female" role="graphics-symbol" aria-roledescription="arc mark"  d="M104.99999999999999,90.0A75,75,0,0,0,42.63764133680724,123.33543205596261L105.0,165.0Z" fill="#d534e4" stroke="black" stroke-width="0"/>
<path aria-label="Account Lilla: 44; Quality: Ponce" role="graphics-symbol" aria-roledescription="arc mark"  d="M32.30055168354576,183.4333994282986A75,75,0,0,0,33.82062101264809,188.63252011476823L105.0,165.0Z" fill="#e529ad" stroke="black" stroke-width="0"/>
<path aria-label="Account Lilla: 425; Quality: Northeast" role="graphics-symbol" aria-roledescription="arc mark"  d="M33.82062101264809,188.63252011476823A75,75,0,0,0,65.64082814139688,228.8424278251144L105.0,165.0Z" fill="#ac26fc" stroke="black" stroke-width="0"/>
<path aria-label="Account Lilla: 618; Quality: Checking" role="graphics-symbol" aria-roledescription="arc mark"  d="M135.20874112594723,233.64715550979156A75,75,0,0,0,179.24929993313992,175.5849638373794L105.0,165.0Z" fill="#4b7191" stroke="black" stroke-width="0"/>
<path aria-label="Account Lilla: 589; Quality: Chief" role="graphics-symbol" aria-roledescription="arc mark"  d="M65.64082814139688,228.8424278251144A75,75,0,0,0,135.20874112594723,233.64715550979156L105.0,165.0Z" fill="#3de32c" stroke="black" stroke-width="0"/>
<path aria-label="Account Lilla: 555; Quality: Bike" role="graphics-symbol" aria-roledescription="arc mark"  d="M164.26804034450367,119.04024158329065A75,75,0,0,0,105.0,90.0L105.0,165.0Z" fill="#cbcd8f" stroke="black" stroke-width="0"/>
<path  d="M16.0,40.25A5,5,0,1,1,6.0,40.25A5,5,0,1,1,16.0,40.25" fill="#cbcd8f" stroke="black" stroke-width="1.5" opacity="1"/>
<path  d="M63.0,40.25A5,5,0,1,1,53.0,40.25A5,5,0,1,1,63.0,40.25" fill="#06d516" stroke="black" stroke-width="1.5" opacity="1"/>
<path  d="M105.0,40.25A5,5,0,1,1,95.0,40.25A5,5,0,1,1,105.0,40.25" fill="#4b7191" stroke="black" stroke-width="1.5" opacity="1"/>
<path  d="M172.0,40.25A5,5,0,1,1,162.0,40.25A5,5,0,1,1,172.0,40.25" fill="#3de32c" stroke="black" stroke-width="1.5" opacity="1"/>
<path  d="M224.0,40.25A5,5,0,1,1,214.0,40.25A5,5,0,1,1,224.0,40.25" fill="#ac26fc" stroke="black" stroke-width="1.5" opacity="1"/>
<path  d="M296.0,40.25A5,5,0,1,1,286.0,40.25A5,5,0,1,1,296.0,40.25" fill="#e529ad" stroke="black" stroke-width="1.5" opacity="1"/>
<path  d="M348.0,40.25A5,5,0,1,1,338.0,40.25A5,5,0,1,1,348.0,40.25" fill="#fbe6ba" stroke="black" stroke-width="1.5" opacity="1"/>
<path  d="M405.0,40.25A5,5,0,1,1,395.0,40.25A5,5,0,1,1,405.0,40.25" fill="#d534e4" stroke="black" stroke-width="1.5" opacity="1"/>
<text aria-label="21,43,33,44" text-anchor="start" x="21.0" y="43.25" font-family="monospace" font-size="10px" fill="#000" opacity="1">Bike</text>
<text aria-label="68,84,33,44" text-anchor="start" x="68.0" y="43.25" font-family="monospace" font-size="10px" fill="#000" opacity="1">Car</text>
<text aria-label="110,154,33,44" text-anchor="start" x="110.0" y="43.25" font-family="monospace" font-size="10px" fill="#000" opacity="1">Checking</text>
<text aria-label="177,204,33,44" text-anchor="start" x="177.0" y="43.25" font-family="monospace" font-size="10px" fill="#000" opacity="1">Chief</text>
<text aria-label="229,278,33,44" text-anchor="start" x="229.0" y="43.25" font-family="monospace" font-size="10px" fill="#000" opacity="1">Northeast</text>
<text aria-label="301,328,33,44" text-anchor="start" x="301.0" y="43.25" font-family="monospace" font-size="10px" fill="#000" opacity="1">Ponce</text>
<text aria-label="353,386,33,44" text-anchor="start" x="353.0" y="43.25" font-family="monospace" font-size="10px" fill="#000" opacity="1">behold</text>
<text aria-label="410,443,33,44" text-anchor="start" x="410.0" y="43.25" font-family="monospace" font-size="10px" fill="#000" opacity="1">female</text>
</svg>