<svg xmlns="http://www.w3.org/2000/svg" xmlns:xlink="http://www.w3.org/1999/xlink" version="1.1" class="marks" width="295" height="239" viewBox="0 0 295 239" style="background-color: rgb(255, 255, 255);">
<text aria-label="199,290,0,26" text-anchor="end" x="290.0" y="25.0" font-family="sans-serif" font-size="25px" font-weight="bold" fill="#000" opacity="1">Account</text>
<path aria-label="white: 482; maroon brr: functional" role="graphics-symbol" aria-roledescription="arc mark"  d="M120.1281654304991,161.25668237134332A75,75,0,0,0,152.3339318554721,198.8557423096196L173.4269300164077,162.5365266162326A33,33,0,0,1,159.2563927894196,145.99294024339108Z" fill="#4cedd7" stroke="black" stroke-width="2"/>
<path aria-label="white: 431; maroon brr: Estonia" role="graphics-symbol" aria-roledescription="arc mark"  d="M232.44235978870347,72.16436225309675A75,75,0,0,0,190.0,59.0L190.0,101.0A33,33,0,0,1,208.67463830702954,106.79231939136257Z" fill="#afc8d0" stroke="black" stroke-width="2"/>
<path aria-label="white: 160; maroon brr: Tactics" role="graphics-symbol" aria-roledescription="arc mark"  d="M152.3339318554721,198.8557423096196A75,75,0,0,0,167.63154545802442,205.58667642378413L180.15788000153074,165.49813762646502A33,33,0,0,1,173.4269300164077,162.5365266162326Z" fill="#ae0a1d" stroke="black" stroke-width="2"/>
<path aria-label="white: 699; maroon brr: moderator" role="graphics-symbol" aria-roledescription="arc mark"  d="M190.0,59.0A75,75,0,0,0,127.89902876105687,91.94682685955841L162.67557265486502,115.4966038182057A33,33,0,0,1,190.0,101.0Z" fill="#f3e85c" stroke="black" stroke-width="2"/>
<path aria-label="white: 593; maroon brr: Refined" role="graphics-symbol" aria-roledescription="arc mark"  d="M167.63154545802442,205.58667642378413A75,75,0,0,0,227.57551602029127,198.90824751762162L206.53322704892815,162.5596289077535A33,33,0,0,1,180.15788000153074,165.49813762646502Z" fill="#b904f7" stroke="black" stroke-width="2"/>
<path aria-label="white: 472; maroon brr: Music" role="graphics-symbol" aria-roledescription="arc mark"  d="M264.68684441224923,140.84655181390414A75,75,0,0,0,253.25045252170028,93.69639897229854L217.83019910954812,116.26641554781136A33,33,0,0,1,222.86221154138966,137.01248279811782Z" fill="#f524ba" stroke="black" stroke-width="2"/>
<path aria-label="white: 684; maroon brr: Music" role="graphics-symbol" aria-roledescription="arc mark"  d="M227.57551602029127,198.90824751762162A75,75,0,0,0,264.68684441224923,140.84655181390414L222.86221154138966,137.01248279811782A33,33,0,0,1,206.53322704892815,162.5596289077535Z" fill="#f524ba" stroke="black" stroke-width="2"/>
<path aria-label="white: 288; maroon brr: Kris" role="graphics-symbol" aria-roledescription="arc mark"  d="M253.25045252170028,93.69639897229854A75,75,0,0,0,232.44235978870347,72.16436225309675L208.67463830702954,106.79231939136257A33,33,0,0,1,217.83019910954812,116.26641554781136Z" fill="#41181f" stroke="black" stroke-width="2"/>
<path aria-label="white: 693; maroon brr: huff" role="graphics-symbol" aria-roledescription="arc mark"  d="M127.89902876105687,91.94682685955841A75,75,0,0,0,120.1281654304991,161.25668237134332L159.2563927894196,145.99294024339108A33,33,0,0,1,162.67557265486502,115.4966038182057Z" fill="#b59419" stroke="black" stroke-width="2"/>
<text aria-label="113,129,185,196" role="graphics-symbol" aria-roledescription="text mark" text-anchor="middle" x="121.64714828030473" y="195.54816531527996" font-family="sans-serif" font-size="10px" fill="#4cedd7" opacity="1">482</text>
<text aria-label="208,224,41,52" role="graphics-symbol" aria-roledescription="text mark" text-anchor="middle" x="216.662249748797" y="51.039983490387954" font-family="sans-serif" font-size="10px" fill="#afc8d0" opacity="1">431</text>
<text aria-label="145,162,209,220" role="graphics-symbol" aria-roledescription="text mark" text-anchor="middle" x="153.75359631951895" y="219.37838442353438" font-family="sans-serif" font-size="10px" fill="#ae0a1d" opacity="1">160</text>
<text aria-label="139,156,47,58" role="graphics-symbol" aria-roledescription="text mark" text-anchor="middle" x="147.82028152753796" y="57.49609223702369" font-family="sans-serif" font-size="10px" fill="#f3e85c" opacity="1">699</text>
<text aria-label="191,208,216,227" role="graphics-symbol" aria-roledescription="text mark" text-anchor="middle" x="199.96535033631926" y="226.44658625500708" font-family="sans-serif" font-size="10px" fill="#b904f7" opacity="1">593</text>
<text aria-label="269,285,105,116" role="graphics-symbol" aria-roledescription="text mark" text-anchor="middle" x="277.4639384399952" y="115.7853948289222" font-family="sans-serif" font-size="10px" fill="#f524ba" opacity="1">472</text>
<text aria-label="257,274,175,186" role="graphics-symbol" aria-roledescription="text mark" text-anchor="middle" x="265.8329697957005" y="185.47020416672882" font-family="sans-serif" font-size="10px" fill="#f524ba" opacity="1">684</text>
<text aria-label="246,262,64,75" role="graphics-symbol" aria-roledescription="text mark" text-anchor="middle" x="254.71827952417573" y="74.45765997797449" font-family="sans-serif" font-size="10px" fill="#41181f" opacity="1">288</text>
<text aria-label="92,108,116,127" role="graphics-symbol" aria-roledescription="text mark" text-anchor="middle" x="100.56038955895212" y="126.97223433891685" font-family="sans-serif" font-size="10px" fill="#b59419" opacity="1">693</text>
<path  d="M16.0,40.0A5,5,0,1,1,6.0,40.0A5,5,0,1,1,16.0,40.0" fill="#afc8d0" stroke="black" stroke-width="1.5" opacity="1"/>
<path  d="M16.0,56.0A5,5,0,1,1,6.0,56.0A5,5,0,1,1,16.0,56.0" fill="#41181f" stroke="black" stroke-width="1.5" opacity="1"/>
<path  d="M16.0,72.0A5,5,0,1,1,6.0,72.0A5,5,0,1,1,16.0,72.0" fill="#f524ba" stroke="black" stroke-width="1.5" opacity="1"/>
<path  d="M16.0,88.0A5,5,0,1,1,6.0,88.0A5,5,0,1,1,16.0,88.0" fill="#b904f7" stroke="black" stroke-width="1.5" opacity="1"/>
<path  d="M16.0,104.0A5,5,0,1,1,6.0,104.0A5,5,0,1,1,16.0,104.0" fill="#ae0a1d" stroke="black" stroke-width="1.5" opacity="1"/>
<path  d="M16.0,120.0A5,5,0,1,1,6.0,120.0A5,5,0,1,1,16.0,120.0" fill="#4cedd7" stroke="black" stroke-width="1.5" opacity="1"/>
<path  d="M16.0,136.0A5,5,0,1,1,6.0,136.0A5,5,0,1,1,16.0,136.0" fill="#b59419" stroke="black" stroke-width="1.5" opacity="1"/>
<path  d="M16.0,152.0A5,5,0,1,1,6.0,152.0A5,5,0,1,1,16.0,152.0" fill="#f3e85c" stroke="black" stroke-width="1.5" opacity="1"/>
<text aria-label="21,59,33,44" text-anchor="start" x="21.0" y="43.0" font-family="sans-serif" font-size="10px" fill="#000" opacity="1">Estonia</text>
<text aria-label="21,43,49,60" text-anchor="start" x="21.0" y="59.0" font-family="sans-serif" font-size="10px" fill="#000" opacity="1">Kris</text>
<text aria-label="21,48,65,76" text-anchor="start" x="21.0" y="75.0" font-family="sans-serif" font-size="10px" fill="#000" opacity="1">Music</text>
<text aria-label="21,59,81,92" text-anchor="start" x="21.0" y="91.0" font-family="sans-serif" font-size="10px" fill="#000" opacity="1">Refined</text>
<text aria-label="21,59,97,108" text-anchor="start" x="21.0" y="107.0" font-family="sans-serif" font-size="10px" fill="#000" opacity="1">Tactics</text>
<text aria-label="21,76,113,124" text-anchor="start" x="21.0" y="123.0" font-family="sans-serif" font-size="10px" fill="#000" opacity="1">functional</text>
<text aria-label="21,43,129,140" text-anchor="start" x="21.0" y="139.0" font-family="sans-serif" font-size="10px" fill="#000" opacity="1">huff</text>
<text aria-label="21,70,145,156" text-anchor="start" x="21.0" y="155.0" font-family="sans-serif" font-size="10px" fill="#000" opacity="1">moderator</text>
</svg>