<svg xmlns="http://www.w3.org/2000/svg" xmlns:xlink="http://www.w3.org/1999/xlink" version="1.1" class="marks" width="336" height="286" viewBox="0 0 336 286" style="background-color: rgb(255, 255, 255);">
<text aria-label="136,331,0,26" text-anchor="end" x="331.0" y="25.0" font-family="serif" font-size="25px" font-weight="bold" fill="#000" opacity="1">female Clothing</text>
<path aria-label="stormy Northeast: 107; gah: Assistant" role="graphics-symbol" aria-roledescription="arc mark"  d="M177.81205587936049,116.01654875667948A75,75,0,0,0,105.0,59.0L105.0,81.0A53,53,0,0,1,156.45385282141473,121.29169445472017Z" fill="#ead8bb" stroke="black" stroke-width="0"/>
<path aria-label="stormy Northeast: 20; gah: pro" role="graphics-symbol" aria-roledescription="arc mark"  d="M104.99999999999999,59.0A75,75,0,0,0,86.56483143281743,61.30100028267539L91.97248087919098,82.62604019975727A53,53,0,0,1,104.99999999999999,81.0Z" fill="#272cee" stroke="black" stroke-width="0"/>
<path aria-label="stormy Northeast: 31; gah: framework" role="graphics-symbol" aria-roledescription="arc mark"  d="M146.32837638566247,196.58566373639428A75,75,0,0,0,166.80506802109397,176.4868634628157L148.67558140157308,164.02405018038976A53,53,0,0,1,134.20538597920148,178.22720237371863Z" fill="#d364d3" stroke="black" stroke-width="0"/>
<path aria-label="stormy Northeast: 8; gah: Sleek" role="graphics-symbol" aria-roledescription="arc mark"  d="M166.80506802109397,176.4868634628157A75,75,0,0,0,170.7140258117622,170.14784656948532L151.4379115736453,159.5444782424363A53,53,0,0,1,148.67558140157308,164.02405018038976Z" fill="#ea63b9" stroke="black" stroke-width="0"/>
<path aria-label="stormy Northeast: 280; gah: grey" role="graphics-symbol" aria-roledescription="arc mark"  d="M86.56483143281743,61.30100028267539A75,75,0,1,0,146.32837638566247,196.58566373639428L134.20538597920148,178.22720237371863A53,53,0,1,1,91.97248087919098,82.62604019975727Z" fill="#5fee80" stroke="black" stroke-width="0"/>
<path aria-label="stormy Northeast: 60; gah: Coupe" role="graphics-symbol" aria-roledescription="arc mark"  d="M170.7140258117622,170.14784656948532A75,75,0,0,0,177.81205587936049,116.01654875667948L156.45385282141473,121.29169445472017A53,53,0,0,1,151.4379115736453,159.5444782424363Z" fill="#8f1ace" stroke="black" stroke-width="0"/>
<path  d="M16.0,274.25A5,5,0,1,1,6.0,274.25A5,5,0,1,1,16.0,274.25" fill="#ead8bb" stroke="black" stroke-width="1.5" opacity="1"/>
<path  d="M88.0,274.25A5,5,0,1,1,78.0,274.25A5,5,0,1,1,88.0,274.25" fill="#8f1ace" stroke="black" stroke-width="1.5" opacity="1"/>
<path  d="M140.0,274.25A5,5,0,1,1,130.0,274.25A5,5,0,1,1,140.0,274.25" fill="#ea63b9" stroke="black" stroke-width="1.5" opacity="1"/>
<path  d="M192.0,274.25A5,5,0,1,1,182.0,274.25A5,5,0,1,1,192.0,274.25" fill="#d364d3" stroke="black" stroke-width="1.5" opacity="1"/>
<path  d="M264.0,274.25A5,5,0,1,1,254.0,274.25A5,5,0,1,1,264.0,274.25" fill="#5fee80" stroke="black" stroke-width="1.5" opacity="1"/>
<path  d="M311.0,274.25A5,5,0,1,1,301.0,274.25A5,5,0,1,1,311.0,274.25" fill="#272cee" stroke="black" stroke-width="1.5" opacity="1"/>
<text aria-label="21,70,267,278" text-anchor="start" x="21.0" y="277.25" font-family="serif" font-size="10px" fill="#000" opacity="1">Assistant</text>
<text aria-label="93,120,267,278" text-anchor="start" x="93.0" y="277.25" font-family="serif" font-size="10px" fill="#000" opacity="1">Coupe</text>
<text aria-label="145,172,267,278" text-anchor="start" x="145.0" y="277.25" font-family="serif" font-size="10px" fill="#000" opacity="1">Sleek</text>
<text aria-label="197,246,267,278" text-anchor="start" x="197.0" y="277.25" font-family="serif" font-size="10px" fill="#000" opacity="1">framework</text>
<text aria-label="269,291,267,278" text-anchor="start" x="269.0" y="277.25" font-family="serif" font-size="10px" fill="#000" opacity="1">grey</text>
<text aria-label="316,332,267,278" text-anchor="start" x="316.0" y="277.25" font-family="serif" font-size="10px" fill="#000" opacity="1">pro</text>
<text aria-label="5,23,250,262" text-anchor="start" x="5.0" y="261.0" font-family="serif" font-size="11px" font-weight="bold" fill="#000" opacity="1">gah</text>
</svg>