<svg xmlns="http://www.w3.org/2000/svg" xmlns:xlink="http://www.w3.org/1999/xlink" version="1.1" class="marks" width="660" height="270" viewBox="0 0 660 270" style="background-color: rgb(255, 255, 255);">
<text aria-label="11,336,0,26" text-anchor="middle" x="174.0" y="25.0" font-family="sans-serif" font-size="25px" font-weight="bold" fill="#000" opacity="1">Investment Loan Associate</text>
<path aria-label="probation Bedfordshire: 187; South Global Southwest: male" role="graphics-symbol" aria-roledescription="arc mark"  d="M99.17075173419066,170.0580237221537A75,75,0,0,0,105.31406884587554,195.12047246460247L132.78844130752532,183.07228347876148A45,45,0,0,1,129.10245104051438,168.03481423329222Z" fill="#c1c84b" stroke="black" stroke-width="0"/>
<path aria-label="probation Bedfordshire: 243; South Global Southwest: DNS" role="graphics-symbol" aria-roledescription="arc mark"  d="M244.34693440754995,138.99406184234334A75,75,0,0,0,226.06833304916037,111.01955267430887L205.24099982949622,132.61173160458532A45,45,0,0,1,216.20816064452998,149.396437105406Z" fill="#fea21f" stroke="black" stroke-width="0"/>
<path aria-label="probation Bedfordshire: 253; South Global Southwest: Dollar" role="graphics-symbol" aria-roledescription="arc mark"  d="M248.51557514887742,173.51052643683101A75,75,0,0,0,244.34693440754995,138.99406184234334L216.20816064452998,149.396437105406A45,45,0,0,1,218.70934508932646,170.1063158620986Z" fill="#78ba29" stroke="black" stroke-width="0"/>
<path aria-label="probation Bedfordshire: 886; South Global Southwest: whether" role="graphics-symbol" aria-roledescription="arc mark"  d="M174.0,90.0A75,75,0,0,0,99.17075173419066,170.0580237221537L129.10245104051438,168.03481423329222A45,45,0,0,1,174.0,120.0Z" fill="#d32699" stroke="black" stroke-width="0"/>
<path aria-label="probation Bedfordshire: 319; South Global Southwest: Cadillac" role="graphics-symbol" aria-roledescription="arc mark"  d="M215.71820163235512,102.67350761865254A75,75,0,0,0,174.0,90.0L174.0,120.0A45,45,0,0,1,199.03092097941308,127.60410457119153Z" fill="#c31ceb" stroke="black" stroke-width="0"/>
<path aria-label="probation Bedfordshire: 96; South Global Southwest: Chips" role="graphics-symbol" aria-roledescription="arc mark"  d="M226.06833304916037,111.01955267430887A75,75,0,0,0,215.71820163235512,102.67350761865254L199.03092097941308,127.60410457119153A45,45,0,0,1,205.24099982949622,132.61173160458532Z" fill="#00e692" stroke="black" stroke-width="0"/>
<path aria-label="probation Bedfordshire: 612; South Global Southwest: Virginia" role="graphics-symbol" aria-roledescription="arc mark"  d="M109.00191699409379,202.41990386889478A75,75,0,0,0,180.2334574804848,239.74051115585837L177.74007448829087,209.84430669351502A45,45,0,0,1,135.00115019645628,187.45194232133684Z" fill="#dd27ea" stroke="black" stroke-width="0"/>
<path aria-label="probation Bedfordshire: 53; South Global Southwest: Iridium" role="graphics-symbol" aria-roledescription="arc mark"  d="M180.2334574804848,239.74051115585837A75,75,0,0,0,187.51650456516413,238.77197370505888L182.1099027390985,209.26318422303532A45,45,0,0,1,177.74007448829087,209.84430669351502Z" fill="#f47cac" stroke="black" stroke-width="0"/>
<path aria-label="probation Bedfordshire: 690; South Global Southwest: Incredible" role="graphics-symbol" aria-roledescription="arc mark"  d="M187.51650456516413,238.77197370505888A75,75,0,0,0,248.51557514887742,173.51052643683101L218.70934508932646,170.1063158620986A45,45,0,0,1,182.1099027390985,209.26318422303532Z" fill="#aacf9d" stroke="black" stroke-width="0"/>
<path aria-label="probation Bedfordshire: 59; South Global Southwest: gold" role="graphics-symbol" aria-roledescription="arc mark"  d="M105.31406884587554,195.12047246460247A75,75,0,0,0,109.00191699409379,202.41990386889478L135.00115019645628,187.45194232133684A45,45,0,0,1,132.78844130752532,183.07228347876148Z" fill="#0dc35a" stroke="black" stroke-width="0"/>
<path  d="M85.0,40.25A5,5,0,1,1,75.0,40.25A5,5,0,1,1,85.0,40.25" fill="#c31ceb" stroke="black" stroke-width="1.5" opacity="1"/>
<path  d="M150.0,40.25A5,5,0,1,1,140.0,40.25A5,5,0,1,1,150.0,40.25" fill="#00e692" stroke="black" stroke-width="1.5" opacity="1"/>
<path  d="M204.0,40.25A5,5,0,1,1,194.0,40.25A5,5,0,1,1,204.0,40.25" fill="#fea21f" stroke="black" stroke-width="1.5" opacity="1"/>
<path  d="M253.0,40.25A5,5,0,1,1,243.0,40.25A5,5,0,1,1,253.0,40.25" fill="#78ba29" stroke="black" stroke-width="1.5" opacity="1"/>
<path  d="M309.0,40.25A5,5,0,1,1,299.0,40.25A5,5,0,1,1,309.0,40.25" fill="#aacf9d" stroke="black" stroke-width="1.5" opacity="1"/>
<path  d="M384.0,40.25A5,5,0,1,1,374.0,40.25A5,5,0,1,1,384.0,40.25" fill="#f47cac" stroke="black" stroke-width="1.5" opacity="1"/>
<path  d="M446.0,40.25A5,5,0,1,1,436.0,40.25A5,5,0,1,1,446.0,40.25" fill="#dd27ea" stroke="black" stroke-width="1.5" opacity="1"/>
<path  d="M510.0,40.25A5,5,0,1,1,500.0,40.25A5,5,0,1,1,510.0,40.25" fill="#0dc35a" stroke="black" stroke-width="1.5" opacity="1"/>
<path  d="M559.0,40.25A5,5,0,1,1,549.0,40.25A5,5,0,1,1,559.0,40.25" fill="#c1c84b" stroke="black" stroke-width="1.5" opacity="1"/>
<path  d="M610.0,40.25A5,5,0,1,1,600.0,40.25A5,5,0,1,1,610.0,40.25" fill="#d32699" stroke="black" stroke-width="1.5" opacity="1"/>
<text aria-label="90,134,33,44" text-anchor="start" x="90.0" y="43.25" font-family="sans-serif" font-size="10px" fill="#000" opacity="1">Cadillac</text>
<text aria-label="155,182,33,44" text-anchor="start" x="155.0" y="43.25" font-family="sans-serif" font-size="10px" fill="#000" opacity="1">Chips</text>
<text aria-label="209,225,33,44" text-anchor="start" x="209.0" y="43.25" font-family="sans-serif" font-size="10px" fill="#000" opacity="1">DNS</text>
<text aria-label="258,291,33,44" text-anchor="start" x="258.0" y="43.25" font-family="sans-serif" font-size="10px" fill="#000" opacity="1">Dollar</text>
<text aria-label="314,369,33,44" text-anchor="start" x="314.0" y="43.25" font-family="sans-serif" font-size="10px" fill="#000" opacity="1">Incredible</text>
<text aria-label="389,427,33,44" text-anchor="start" x="389.0" y="43.25" font-family="sans-serif" font-size="10px" fill="#000" opacity="1">Iridium</text>
<text aria-label="451,495,33,44" text-anchor="start" x="451.0" y="43.25" font-family="sans-serif" font-size="10px" fill="#000" opacity="1">Virginia</text>
<text aria-label="515,537,33,44" text-anchor="start" x="515.0" y="43.25" font-family="sans-serif" font-size="10px" fill="#000" opacity="1">gold</text>
<text aria-label="564,586,33,44" text-anchor="start" x="564.0" y="43.25" font-family="sans-serif" font-size="10px" fill="#000" opacity="1">male</text>
<text aria-label="615,653,33,44" text-anchor="start" x="615.0" y="43.25" font-family="sans-serif" font-size="10px" fill="#000" opacity="1">whether</text>
</svg>