<svg xmlns="http://www.w3.org/2000/svg" xmlns:xlink="http://www.w3.org/1999/xlink" version="1.1" class="marks" width="362" height="239" viewBox="0 0 362 239" style="background-color: rgb(255, 255, 255);">
<text aria-label="224,289,0,26" text-anchor="middle" x="257.0" y="25.0" font-family="sans-serif" font-size="25px" font-weight="bold" fill="#000" opacity="1">1080p</text>
<path aria-label="boo Product Sedan: 296; IB generation Southeast: programming" role="graphics-symbol" aria-roledescription="arc mark"  d="M257.0,59.0A75,75,0,0,0,207.9065816807582,190.6995262566799L257.0,134.0Z" fill="#ed804d" stroke="black" stroke-width="0"/>
<path aria-label="boo Product Sedan: 454; IB generation Southeast: afore" role="graphics-symbol" aria-roledescription="arc mark"  d="M215.74876111307566,196.6365331918514A75,75,0,1,0,257.0,59.0L257.0,134.0Z" fill="#f9bf63" stroke="black" stroke-width="0"/>
<path aria-label="boo Product Sedan: 16; IB generation Southeast: exotic" role="graphics-symbol" aria-roledescription="arc mark"  d="M207.9065816807582,190.6995262566799A75,75,0,0,0,215.74876111307566,196.6365331918514L257.0,134.0Z" fill="#b11fef" stroke="black" stroke-width="0"/>
<path  d="M16.0,56.0A5,5,0,1,1,6.0,56.0A5,5,0,1,1,16.0,56.0" fill="#f9bf63" stroke="black" stroke-width="1.5" opacity="1"/>
<path  d="M16.0,72.0A5,5,0,1,1,6.0,72.0A5,5,0,1,1,16.0,72.0" fill="#b11fef" stroke="black" stroke-width="1.5" opacity="1"/>
<path  d="M16.0,88.0A5,5,0,1,1,6.0,88.0A5,5,0,1,1,16.0,88.0" fill="#ed804d" stroke="black" stroke-width="1.5" opacity="1"/>
<text aria-label="21,48,49,60" text-anchor="start" x="21.0" y="59.0" font-family="sans-serif" font-size="10px" fill="#000" opacity="1">afore</text>
<text aria-label="21,54,65,76" text-anchor="start" x="21.0" y="75.0" font-family="sans-serif" font-size="10px" fill="#000" opacity="1">exotic</text>
<text aria-label="21,81,81,92" text-anchor="start" x="21.0" y="91.0" font-family="sans-serif" font-size="10px" fill="#000" opacity="1">programming</text>
<text aria-label="5,143,32,44" text-anchor="start" x="5.0" y="43.0" font-family="sans-serif" font-size="11px" font-weight="bold" fill="#000" opacity="1">IB generation Southeast</text>
</svg>