<svg xmlns="http://www.w3.org/2000/svg" xmlns:xlink="http://www.w3.org/1999/xlink" version="1.1" class="marks" width="289" height="239" viewBox="0 0 289 239" style="background-color: rgb(255, 255, 255);">
<text aria-label="158,210,0,26" text-anchor="middle" x="184.0" y="25.0" font-family="monospace" font-size="25px" font-weight="bold" fill="#000" opacity="1">Cape</text>
<path aria-label="SAS architect Plaza: 5; yum North: Mouse" role="graphics-symbol" aria-roledescription="arc mark"  d="M169.36822584879036,60.44110396975772A75,75,0,0,0,114.70903506165351,105.29874257261824L184.0,134.0Z" fill="#dbacbf" stroke="black" stroke-width="2"/>
<path aria-label="SAS architect Plaza: 1; yum North: Oriental" role="graphics-symbol" aria-roledescription="arc mark"  d="M184.0,59.0A75,75,0,0,0,169.36822584879036,60.44110396975772L184.0,134.0Z" fill="#ca0bac" stroke="black" stroke-width="2"/>
<path aria-label="SAS architect Plaza: 19; yum North: Adventure" role="graphics-symbol" aria-roledescription="arc mark"  d="M142.33223252352985,196.3602209226909A75,75,0,1,0,184.0,59.0L184.0,134.0Z" fill="#07d0ec" stroke="black" stroke-width="2"/>
<path aria-label="SAS architect Plaza: 7; yum North: Hat" role="graphics-symbol" aria-roledescription="arc mark"  d="M114.70903506165351,105.29874257261824A75,75,0,0,0,142.33223252352985,196.3602209226909L184.0,134.0Z" fill="#8ea32c" stroke="black" stroke-width="2"/>
<path  d="M16.0,56.0A5,5,0,1,1,6.0,56.0A5,5,0,1,1,16.0,56.0" fill="#07d0ec" stroke="black" stroke-width="1.5" opacity="1"/>
<path  d="M16.0,72.0A5,5,0,1,1,6.0,72.0A5,5,0,1,1,16.0,72.0" fill="#8ea32c" stroke="black" stroke-width="1.5" opacity="1"/>
<path  d="M16.0,88.0A5,5,0,1,1,6.0,88.0A5,5,0,1,1,16.0,88.0" fill="#dbacbf" stroke="black" stroke-width="1.5" opacity="1"/>
<path  d="M16.0,104.0A5,5,0,1,1,6.0,104.0A5,5,0,1,1,16.0,104.0" fill="#ca0bac" stroke="black" stroke-width="1.5" opacity="1"/>
<text aria-label="21,70,49,60" text-anchor="start" x="21.0" y="59.0" font-family="monospace" font-size="10px" fill="#000" opacity="1">Adventure</text>
<text aria-label="21,37,65,76" text-anchor="start" x="21.0" y="75.0" font-family="monospace" font-size="10px" fill="#000" opacity="1">Hat</text>
<text aria-label="21,48,81,92" text-anchor="start" x="21.0" y="91.0" font-family="monospace" font-size="10px" fill="#000" opacity="1">Mouse</text>
<text aria-label="21,65,97,108" text-anchor="start" x="21.0" y="107.0" font-family="monospace" font-size="10px" fill="#000" opacity="1">Oriental</text>
<text aria-label="5,59,32,44" text-anchor="start" x="5.0" y="43.0" font-family="monospace" font-size="11px" font-weight="bold" fill="#000" opacity="1">yum North</text>
</svg>