<svg xmlns="http://www.w3.org/2000/svg" xmlns:xlink="http://www.w3.org/1999/xlink" version="1.1" class="marks" width="554" height="270" viewBox="0 0 554 270" style="background-color: rgb(255, 255, 255);">
<text aria-label="66,144,0,26" text-anchor="middle" x="105.0" y="25.0" font-family="monospace" font-size="25px" font-weight="bold" fill="#000" opacity="1">salmon</text>
<path aria-label="Orchestrator male: 501; Pop: East" role="graphics-symbol" aria-roledescription="arc mark"  d="M162.45566587255104,85.79370934056662A75,75,0,0,0,105.0,59.0L105.0,134.0Z" fill="#8c27d7" stroke="black" stroke-width="3"/>
<path aria-label="Orchestrator male: 191; Pop: Tellurium" role="graphics-symbol" aria-roledescription="arc mark"  d="M142.4905710665143,198.95734816867636A75,75,0,0,0,161.65009590250858,183.15044897288917L105.0,134.0Z" fill="#d7523d" stroke="black" stroke-width="3"/>
<path aria-label="Orchestrator male: 355; Pop: Utah" role="graphics-symbol" aria-roledescription="arc mark"  d="M97.89050216496294,208.66227320764887A75,75,0,0,0,142.4905710665143,198.95734816867636L105.0,134.0Z" fill="#e288e9" stroke="black" stroke-width="3"/>
<path aria-label="Orchestrator male: 57; Pop: resound" role="graphics-symbol" aria-roledescription="arc mark"  d="M72.65222944485845,66.33448633083528A75,75,0,0,0,66.10402856596045,69.87431554983307L105.0,134.0Z" fill="#ffe1d6" stroke="black" stroke-width="3"/>
<path aria-label="Orchestrator male: 470; Pop: feed" role="graphics-symbol" aria-roledescription="arc mark"  d="M66.10402856596045,69.87431554983307A75,75,0,0,0,31.59888345741959,118.59623129547418L105.0,134.0Z" fill="#9e75ad" stroke="black" stroke-width="3"/>
<path aria-label="Orchestrator male: 249; Pop: candela" role="graphics-symbol" aria-roledescription="arc mark"  d="M67.17048657060157,198.76054287677772A75,75,0,0,0,97.89050216496294,208.66227320764887L105.0,134.0Z" fill="#ba3efc" stroke="black" stroke-width="3"/>
<path aria-label="Orchestrator male: 630; Pop: deposit" role="graphics-symbol" aria-roledescription="arc mark"  d="M30.11467677568946,129.8541146192236A75,75,0,0,0,67.17048657060157,198.76054287677772L105.0,134.0Z" fill="#beb6aa" stroke="black" stroke-width="3"/>
<path aria-label="Orchestrator male: 256; Pop: till" role="graphics-symbol" aria-roledescription="arc mark"  d="M104.99999999999999,59.0A75,75,0,0,0,72.65222944485845,66.33448633083528L105.0,134.0Z" fill="#30bda4" stroke="black" stroke-width="3"/>
<path aria-label="Orchestrator male: 87; Pop: drill" role="graphics-symbol" aria-roledescription="arc mark"  d="M31.59888345741959,118.59623129547418A75,75,0,0,0,30.11467677568946,129.8541146192236L105.0,134.0Z" fill="#f3fd60" stroke="black" stroke-width="3"/>
<path aria-label="Orchestrator male: 811; Pop: States" role="graphics-symbol" aria-roledescription="arc mark"  d="M161.65009590250858,183.15044897288917A75,75,0,0,0,162.45566587255104,85.79370934056662L105.0,134.0Z" fill="#1cecf2" stroke="black" stroke-width="3"/>
<text aria-label="135,150,46,56" role="graphics-symbol" aria-roledescription="text mark" text-anchor="middle" x="143.03761696519115" y="55.4332194112738" font-family="monospace" font-size="9px" fill="#8c27d7" opacity="1">501</text>
<text aria-label="154,169,197,207" role="graphics-symbol" aria-roledescription="text mark" text-anchor="middle" x="162.27509376894085" y="206.4230770980301" font-family="monospace" font-size="9px" fill="#d7523d" opacity="1">191</text>
<text aria-label="116,131,215,225" role="graphics-symbol" aria-roledescription="text mark" text-anchor="middle" x="124.13609848049084" y="224.9420817069107" font-family="monospace" font-size="9px" fill="#e288e9" opacity="1">355</text>
<text aria-label="57,67,48,58" role="graphics-symbol" aria-roledescription="text mark" text-anchor="middle" x="62.20102315630147" y="57.82773477326447" font-family="monospace" font-size="9px" fill="#ffe1d6" opacity="1">57</text>
<text aria-label="24,39,75,85" role="graphics-symbol" aria-roledescription="text mark" text-anchor="middle" x="31.553380097492123" y="84.98467509573229" font-family="monospace" font-size="9px" fill="#9e75ad" opacity="1">470</text>
<text aria-label="69,84,213,223" role="graphics-symbol" aria-roledescription="text mark" text-anchor="middle" x="77.38983450050821" y="222.66025193221577" font-family="monospace" font-size="9px" fill="#ba3efc" opacity="1">249</text>
<text aria-label="18,33,170,180" role="graphics-symbol" aria-roledescription="text mark" text-anchor="middle" x="25.73473085549466" y="179.62648363927207" font-family="monospace" font-size="9px" fill="#beb6aa" opacity="1">630</text>
<text aria-label="77,92,40,50" role="graphics-symbol" aria-roledescription="text mark" text-anchor="middle" x="85.09868693113177" y="49.22792164853965" font-family="monospace" font-size="9px" fill="#30bda4" opacity="1">256</text>
<text aria-label="10,20,116,126" role="graphics-symbol" aria-roledescription="text mark" text-anchor="middle" x="15.772095530369327" y="125.23645189755817" font-family="monospace" font-size="9px" fill="#f3fd60" opacity="1">87</text>
<text aria-label="187,202,128,138" role="graphics-symbol" aria-roledescription="text mark" text-anchor="middle" x="194.99691919147511" y="137.74467176870127" font-family="monospace" font-size="9px" fill="#1cecf2" opacity="1">811</text>
<path  d="M16.0,258.25A5,5,0,1,1,6.0,258.25A5,5,0,1,1,16.0,258.25" fill="#8c27d7" stroke="black" stroke-width="1.5" opacity="1"/>
<path  d="M63.0,258.25A5,5,0,1,1,53.0,258.25A5,5,0,1,1,63.0,258.25" fill="#1cecf2" stroke="black" stroke-width="1.5" opacity="1"/>
<path  d="M120.0,258.25A5,5,0,1,1,110.0,258.25A5,5,0,1,1,120.0,258.25" fill="#d7523d" stroke="black" stroke-width="1.5" opacity="1"/>
<path  d="M192.0,258.25A5,5,0,1,1,182.0,258.25A5,5,0,1,1,192.0,258.25" fill="#e288e9" stroke="black" stroke-width="1.5" opacity="1"/>
<path  d="M239.0,258.25A5,5,0,1,1,229.0,258.25A5,5,0,1,1,239.0,258.25" fill="#ba3efc" stroke="black" stroke-width="1.5" opacity="1"/>
<path  d="M301.0,258.25A5,5,0,1,1,291.0,258.25A5,5,0,1,1,301.0,258.25" fill="#beb6aa" stroke="black" stroke-width="1.5" opacity="1"/>
<path  d="M363.0,258.25A5,5,0,1,1,353.0,258.25A5,5,0,1,1,363.0,258.25" fill="#f3fd60" stroke="black" stroke-width="1.5" opacity="1"/>
<path  d="M415.0,258.25A5,5,0,1,1,405.0,258.25A5,5,0,1,1,415.0,258.25" fill="#9e75ad" stroke="black" stroke-width="1.5" opacity="1"/>
<path  d="M462.0,258.25A5,5,0,1,1,452.0,258.25A5,5,0,1,1,462.0,258.25" fill="#ffe1d6" stroke="black" stroke-width="1.5" opacity="1"/>
<path  d="M524.0,258.25A5,5,0,1,1,514.0,258.25A5,5,0,1,1,524.0,258.25" fill="#30bda4" stroke="black" stroke-width="1.5" opacity="1"/>
<text aria-label="21,43,251,262" text-anchor="start" x="21.0" y="261.25" font-family="monospace" font-size="10px" fill="#000" opacity="1">East</text>
<text aria-label="68,101,251,262" text-anchor="start" x="68.0" y="261.25" font-family="monospace" font-size="10px" fill="#000" opacity="1">States</text>
<text aria-label="125,174,251,262" text-anchor="start" x="125.0" y="261.25" font-family="monospace" font-size="10px" fill="#000" opacity="1">Tellurium</text>
<text aria-label="197,219,251,262" text-anchor="start" x="197.0" y="261.25" font-family="monospace" font-size="10px" fill="#000" opacity="1">Utah</text>
<text aria-label="244,282,251,262" text-anchor="start" x="244.0" y="261.25" font-family="monospace" font-size="10px" fill="#000" opacity="1">candela</text>
<text aria-label="306,344,251,262" text-anchor="start" x="306.0" y="261.25" font-family="monospace" font-size="10px" fill="#000" opacity="1">deposit</text>
<text aria-label="368,395,251,262" text-anchor="start" x="368.0" y="261.25" font-family="monospace" font-size="10px" fill="#000" opacity="1">drill</text>
<text aria-label="420,442,251,262" text-anchor="start" x="420.0" y="261.25" font-family="monospace" font-size="10px" fill="#000" opacity="1">feed</text>
<text aria-label="467,505,251,262" text-anchor="start" x="467.0" y="261.25" font-family="monospace" font-size="10px" fill="#000" opacity="1">resound</text>
<text aria-label="529,551,251,262" text-anchor="start" x="529.0" y="261.25" font-family="monospace" font-size="10px" fill="#000" opacity="1">till</text>
</svg>