<svg xmlns="http://www.w3.org/2000/svg" xmlns:xlink="http://www.w3.org/1999/xlink" version="1.1" class="marks" width="505" height="286" viewBox="0 0 505 286" style="background-color: rgb(255, 255, 255);">
<text aria-label="149,500,0,26" text-anchor="end" x="500.0" y="25.0" font-family="Balto" font-size="25px" font-weight="bold" fill="#000" opacity="1">grey Operative mysteriously</text>
<path aria-label="Electronic: 333; AI Licensed: invoice" role="graphics-symbol" aria-roledescription="arc mark"  d="M54.49433738473862,125.55472929281173A75,75,0,0,0,32.644340629437934,200.73977094728292L56.762893752958625,194.1598472981886A50,50,0,0,1,71.32955825649242,144.03648619520783Z" fill="#eed25a" stroke="black" stroke-width="3"/>
<path aria-label="Electronic: 224; AI Licensed: withdrawal" role="graphics-symbol" aria-roledescription="arc mark"  d="M104.99999999999999,106.0A75,75,0,0,0,54.49433738473862,125.55472929281173L71.32955825649242,144.03648619520783A50,50,0,0,1,104.99999999999999,131.0Z" fill="#7dabcb" stroke="black" stroke-width="3"/>
<path aria-label="Electronic: 33; AI Licensed: foolishly" role="graphics-symbol" aria-roledescription="arc mark"  d="M32.644340629437934,200.73977094728292A75,75,0,0,0,35.216793790561425,208.482797003416L58.47786252704095,199.32186466894402A50,50,0,0,1,56.762893752958625,194.1598472981886Z" fill="#dffec0" stroke="black" stroke-width="3"/>
<path aria-label="Electronic: 421; AI Licensed: Chips" role="graphics-symbol" aria-roledescription="arc mark"  d="M178.758166240724,167.40835135806824A75,75,0,0,0,105.0,106.0L105.0,131.0A50,50,0,0,1,154.1721108271493,171.93890090537883Z" fill="#0e8b13" stroke="black" stroke-width="3"/>
<path aria-label="Electronic: 48; AI Licensed: Oleta" role="graphics-symbol" aria-roledescription="arc mark"  d="M177.08894244932742,201.69261647393967A75,75,0,0,0,179.44971973139732,190.06858489051007L154.63314648759822,187.04572326034005A50,50,0,0,1,153.0592949662183,194.79507764929312Z" fill="#cb4ace" stroke="black" stroke-width="3"/>
<path aria-label="Electronic: 229; AI Licensed: Southeast" role="graphics-symbol" aria-roledescription="arc mark"  d="M143.3004672120407,245.48313121537598A75,75,0,0,0,177.08894244932742,201.69261647393967L153.0592949662183,194.79507764929312A50,50,0,0,1,130.53364480802713,223.988754143584Z" fill="#2b6af9" stroke="black" stroke-width="3"/>
<path aria-label="Electronic: 92; AI Licensed: Metal" role="graphics-symbol" aria-roledescription="arc mark"  d="M179.44971973139732,190.06858489051007A75,75,0,0,0,178.758166240724,167.40835135806824L154.1721108271493,171.93890090537883A50,50,0,0,1,154.63314648759822,187.04572326034005Z" fill="#7eded8" stroke="black" stroke-width="3"/>
<path aria-label="Electronic: 525; AI Licensed: deliver" role="graphics-symbol" aria-roledescription="arc mark"  d="M35.216793790561425,208.482797003416A75,75,0,0,0,143.3004672120407,245.48313121537598L130.53364480802713,223.988754143584A50,50,0,0,1,58.47786252704095,199.32186466894402Z" fill="#4e7ffa" stroke="black" stroke-width="3"/>
<path  d="M16.0,56.25A5,5,0,1,1,6.0,56.25A5,5,0,1,1,16.0,56.25" fill="#0e8b13" stroke="black" stroke-width="1.5" opacity="1"/>
<path  d="M70.0,56.25A5,5,0,1,1,60.0,56.25A5,5,0,1,1,70.0,56.25" fill="#7eded8" stroke="black" stroke-width="1.5" opacity="1"/>
<path  d="M125.0,56.25A5,5,0,1,1,115.0,56.25A5,5,0,1,1,125.0,56.25" fill="#cb4ace" stroke="black" stroke-width="1.5" opacity="1"/>
<path  d="M178.0,56.25A5,5,0,1,1,168.0,56.25A5,5,0,1,1,178.0,56.25" fill="#2b6af9" stroke="black" stroke-width="1.5" opacity="1"/>
<path  d="M253.0,56.25A5,5,0,1,1,243.0,56.25A5,5,0,1,1,253.0,56.25" fill="#4e7ffa" stroke="black" stroke-width="1.5" opacity="1"/>
<path  d="M313.0,56.25A5,5,0,1,1,303.0,56.25A5,5,0,1,1,313.0,56.25" fill="#dffec0" stroke="black" stroke-width="1.5" opacity="1"/>
<path  d="M381.0,56.25A5,5,0,1,1,371.0,56.25A5,5,0,1,1,381.0,56.25" fill="#eed25a" stroke="black" stroke-width="1.5" opacity="1"/>
<path  d="M442.0,56.25A5,5,0,1,1,432.0,56.25A5,5,0,1,1,442.0,56.25" fill="#7dabcb" stroke="black" stroke-width="1.5" opacity="1"/>
<text aria-label="21,48,49,60" text-anchor="start" x="21.0" y="59.25" font-family="Balto" font-size="10px" fill="#000" opacity="1">Chips</text>
<text aria-label="75,102,49,60" text-anchor="start" x="75.0" y="59.25" font-family="Balto" font-size="10px" fill="#000" opacity="1">Metal</text>
<text aria-label="130,157,49,60" text-anchor="start" x="130.0" y="59.25" font-family="Balto" font-size="10px" fill="#000" opacity="1">Oleta</text>
<text aria-label="183,232,49,60" text-anchor="start" x="183.0" y="59.25" font-family="Balto" font-size="10px" fill="#000" opacity="1">Southeast</text>
<text aria-label="258,296,49,60" text-anchor="start" x="258.0" y="59.25" font-family="Balto" font-size="10px" fill="#000" opacity="1">deliver</text>
<text aria-label="318,367,49,60" text-anchor="start" x="318.0" y="59.25" font-family="Balto" font-size="10px" fill="#000" opacity="1">foolishly</text>
<text aria-label="386,424,49,60" text-anchor="start" x="386.0" y="59.25" font-family="Balto" font-size="10px" fill="#000" opacity="1">invoice</text>
<text aria-label="447,502,49,60" text-anchor="start" x="447.0" y="59.25" font-family="Balto" font-size="10px" fill="#000" opacity="1">withdrawal</text>
<text aria-label="5,71,32,44" text-anchor="start" x="5.0" y="43.0" font-family="Balto" font-size="11px" font-weight="bold" fill="#000" opacity="1">AI Licensed</text>
</svg>