<svg xmlns="http://www.w3.org/2000/svg" xmlns:xlink="http://www.w3.org/1999/xlink" version="1.1" class="marks" width="529" height="286" viewBox="0 0 529 286" style="background-color: rgb(255, 255, 255);">
<text aria-label="1,209,0,26" text-anchor="middle" x="105.0" y="25.0" font-family="Balto" font-size="25px" font-weight="bold" fill="#000" opacity="1">Bicycle wireless</text>
<path aria-label="bandwidth Dominican Borders: 324; Intelligent Tools Tandem: propound" role="graphics-symbol" aria-roledescription="arc mark"  d="M83.23098312098142,205.77123312387076A75,75,0,0,0,132.80660711158393,203.65481032162825L117.60566189058471,165.57684734580482A34,34,0,0,1,95.13137901484491,166.53629234948806Z" fill="#0ba30a" stroke="black" stroke-width="0"/>
<path aria-label="bandwidth Dominican Borders: 301; Intelligent Tools Tandem: Tennessine" role="graphics-symbol" aria-roledescription="arc mark"  d="M148.97016436950005,73.2412586921096A75,75,0,0,0,105.0,59.0L105.0,100.0A34,34,0,0,1,124.93314118084002,106.45603727375635Z" fill="#e5eb7c" stroke="black" stroke-width="0"/>
<path aria-label="bandwidth Dominican Borders: 591; Intelligent Tools Tandem: robust" role="graphics-symbol" aria-roledescription="arc mark"  d="M30.080398362128236,137.47178490442647A75,75,0,0,0,83.23098312098142,205.77123312387076L95.13137901484491,166.53629234948806A34,34,0,0,1,71.03644725749814,135.57387582334Z" fill="#fa7ff4" stroke="black" stroke-width="0"/>
<path aria-label="bandwidth Dominican Borders: 176; Intelligent Tools Tandem: female" role="graphics-symbol" aria-roledescription="arc mark"  d="M167.81443242807535,93.02016253401243A75,75,0,0,0,148.97016436950005,73.2412586921096L124.93314118084002,106.45603727375635A34,34,0,0,1,133.47587603406083,115.42247368208564Z" fill="#adad1f" stroke="black" stroke-width="0"/>
<path aria-label="bandwidth Dominican Borders: 427; Intelligent Tools Tandem: molestiae" role="graphics-symbol" aria-roledescription="arc mark"  d="M176.41079124676665,156.92376263859657A75,75,0,0,0,167.81443242807535,93.02016253401243L133.47587603406083,115.42247368208564A34,34,0,0,1,137.37289203186754,144.3921057294971Z" fill="#e07faa" stroke="black" stroke-width="0"/>
<path aria-label="bandwidth Dominican Borders: 423; Intelligent Tools Tandem: parse" role="graphics-symbol" aria-roledescription="arc mark"  d="M132.80660711158393,203.65481032162825A75,75,0,0,0,176.41079124676665,156.92376263859657L137.37289203186754,144.3921057294971A34,34,0,0,1,117.60566189058471,165.57684734580482Z" fill="#ebc640" stroke="black" stroke-width="0"/>
<path aria-label="bandwidth Dominican Borders: 452; Intelligent Tools Tandem: yellow" role="graphics-symbol" aria-roledescription="arc mark"  d="M104.99999999999999,59.0A75,75,0,0,0,44.40180614121101,89.80883684431208L77.52881878401566,113.9666727027548A34,34,0,0,1,105.0,100.0Z" fill="#30b871" stroke="black" stroke-width="0"/>
<path aria-label="bandwidth Dominican Borders: 325; Intelligent Tools Tandem: synergies" role="graphics-symbol" aria-roledescription="arc mark"  d="M44.40180614121101,89.80883684431208A75,75,0,0,0,30.080398362128236,137.47178490442647L71.03644725749814,135.57387582334A34,34,0,0,1,77.52881878401566,113.9666727027548Z" fill="#cd909b" stroke="black" stroke-width="0"/>
<text aria-label="102,114,218,226" role="graphics-symbol" aria-roledescription="text mark" text-anchor="middle" x="108.83867514461949" y="225.9180992522311" font-family="Balto" font-size="7px" fill="#0ba30a" opacity="1">324</text>
<text aria-label="126,138,43,51" role="graphics-symbol" aria-roledescription="text mark" text-anchor="middle" x="132.73135354384848" y="50.378904289736624" font-family="Balto" font-size="7px" fill="#e5eb7c" opacity="1">301</text>
<text aria-label="27,39,184,192" role="graphics-symbol" aria-roledescription="text mark" text-anchor="middle" x="33.972813036114786" y="191.27330921880193" font-family="Balto" font-size="7px" fill="#fa7ff4" opacity="1">591</text>
<text aria-label="164,176,66,74" role="graphics-symbol" aria-roledescription="text mark" text-anchor="middle" x="170.1605390872948" y="73.91856842941583" font-family="Balto" font-size="7px" fill="#adad1f" opacity="1">176</text>
<text aria-label="188,200,117,125" role="graphics-symbol" aria-roledescription="text mark" text-anchor="middle" x="194.19657549300683" y="124.00121171449665" font-family="Balto" font-size="7px" fill="#e07faa" opacity="1">427</text>
<text aria-label="164,176,190,198" role="graphics-symbol" aria-roledescription="text mark" text-anchor="middle" x="170.80302321048197" y="197.40001739707225" font-family="Balto" font-size="7px" fill="#ebc640" opacity="1">423</text>
<text aria-label="58,70,48,56" role="graphics-symbol" aria-roledescription="text mark" text-anchor="middle" x="64.21180085376585" y="55.77330363023077" font-family="Balto" font-size="7px" fill="#30b871" opacity="1">452</text>
<text aria-label="12,24,103,111" role="graphics-symbol" aria-roledescription="text mark" text-anchor="middle" x="18.806852795247508" y="110.10132484199497" font-family="Balto" font-size="7px" fill="#cd909b" opacity="1">325</text>
<path  d="M16.0,274.25A5,5,0,1,1,6.0,274.25A5,5,0,1,1,16.0,274.25" fill="#e5eb7c" stroke="black" stroke-width="1.5" opacity="1"/>
<path  d="M96.0,274.25A5,5,0,1,1,86.0,274.25A5,5,0,1,1,96.0,274.25" fill="#adad1f" stroke="black" stroke-width="1.5" opacity="1"/>
<path  d="M156.0,274.25A5,5,0,1,1,146.0,274.25A5,5,0,1,1,156.0,274.25" fill="#e07faa" stroke="black" stroke-width="1.5" opacity="1"/>
<path  d="M230.0,274.25A5,5,0,1,1,220.0,274.25A5,5,0,1,1,230.0,274.25" fill="#ebc640" stroke="black" stroke-width="1.5" opacity="1"/>
<path  d="M283.0,274.25A5,5,0,1,1,273.0,274.25A5,5,0,1,1,283.0,274.25" fill="#0ba30a" stroke="black" stroke-width="1.5" opacity="1"/>
<path  d="M358.0,274.25A5,5,0,1,1,348.0,274.25A5,5,0,1,1,358.0,274.25" fill="#fa7ff4" stroke="black" stroke-width="1.5" opacity="1"/>
<path  d="M416.0,274.25A5,5,0,1,1,406.0,274.25A5,5,0,1,1,416.0,274.25" fill="#cd909b" stroke="black" stroke-width="1.5" opacity="1"/>
<path  d="M488.0,274.25A5,5,0,1,1,478.0,274.25A5,5,0,1,1,488.0,274.25" fill="#30b871" stroke="black" stroke-width="1.5" opacity="1"/>
<text aria-label="21,76,267,278" text-anchor="start" x="21.0" y="277.25" font-family="Balto" font-size="10px" fill="#000" opacity="1">Tennessine</text>
<text aria-label="101,134,267,278" text-anchor="start" x="101.0" y="277.25" font-family="Balto" font-size="10px" fill="#000" opacity="1">female</text>
<text aria-label="161,210,267,278" text-anchor="start" x="161.0" y="277.25" font-family="Balto" font-size="10px" fill="#000" opacity="1">molestiae</text>
<text aria-label="235,262,267,278" text-anchor="start" x="235.0" y="277.25" font-family="Balto" font-size="10px" fill="#000" opacity="1">parse</text>
<text aria-label="288,332,267,278" text-anchor="start" x="288.0" y="277.25" font-family="Balto" font-size="10px" fill="#000" opacity="1">propound</text>
<text aria-label="363,396,267,278" text-anchor="start" x="363.0" y="277.25" font-family="Balto" font-size="10px" fill="#000" opacity="1">robust</text>
<text aria-label="421,470,267,278" text-anchor="start" x="421.0" y="277.25" font-family="Balto" font-size="10px" fill="#000" opacity="1">synergies</text>
<text aria-label="493,526,267,278" text-anchor="start" x="493.0" y="277.25" font-family="Balto" font-size="10px" fill="#000" opacity="1">yellow</text>
<text aria-label="5,149,250,262" text-anchor="start" x="5.0" y="261.0" font-family="Balto" font-size="11px" font-weight="bold" fill="#000" opacity="1">Intelligent Tools Tandem</text>
</svg>