<svg xmlns="http://www.w3.org/2000/svg" xmlns:xlink="http://www.w3.org/1999/xlink" version="1.1" class="marks" width="592" height="286" viewBox="0 0 592 286" style="background-color: rgb(255, 255, 255);">
<text aria-label="33,176,0,26" text-anchor="middle" x="105.0" y="25.0" font-family="monospace" font-size="25px" font-weight="bold" fill="#000" opacity="1">cactus past</text>
<path aria-label="male Chesley Tricycle: 184; Saint Cove rapidly: open" role="graphics-symbol" aria-roledescription="arc mark"  d="M104.99999999999999,106.0A75,75,0,0,0,55.22323353147846,124.89943387149938L105.0,181.0Z" fill="#c1d42b" stroke="black" stroke-width="0"/>
<path aria-label="male Chesley Tricycle: 250; Saint Cove rapidly: Representative" role="graphics-symbol" aria-roledescription="arc mark"  d="M90.44983514824662,254.57508207801607A75,75,0,0,0,158.31984327076646,233.74461407177893L105.0,181.0Z" fill="#ecadaf" stroke="black" stroke-width="0"/>
<path aria-label="male Chesley Tricycle: 76; Saint Cove rapidly: Administrator" role="graphics-symbol" aria-roledescription="arc mark"  d="M127.147016873713,109.34450723360092A75,75,0,0,0,105.0,106.0L105.0,181.0Z" fill="#3adafa" stroke="black" stroke-width="0"/>
<path aria-label="male Chesley Tricycle: 78; Saint Cove rapidly: learn" role="graphics-symbol" aria-roledescription="arc mark"  d="M35.28529190310485,208.65609290852024A75,75,0,0,0,46.9334214882257,228.46864712561282L105.0,181.0Z" fill="#abddbc" stroke="black" stroke-width="0"/>
<path aria-label="male Chesley Tricycle: 175; Saint Cove rapidly: above" role="graphics-symbol" aria-roledescription="arc mark"  d="M46.9334214882257,228.46864712561282A75,75,0,0,0,90.44983514824662,254.57508207801607L105.0,181.0Z" fill="#bffbef" stroke="black" stroke-width="0"/>
<path aria-label="male Chesley Tricycle: 306; Saint Cove rapidly: Incredible" role="graphics-symbol" aria-roledescription="arc mark"  d="M158.31984327076646,233.74461407177893A75,75,0,0,0,173.26701581155623,149.94175548771742L105.0,181.0Z" fill="#84ee52" stroke="black" stroke-width="0"/>
<path aria-label="male Chesley Tricycle: 59; Saint Cove rapidly: Borders" role="graphics-symbol" aria-roledescription="arc mark"  d="M143.074935025413,116.38344389546454A75,75,0,0,0,127.147016873713,109.34450723360092L105.0,181.0Z" fill="#8a84f5" stroke="black" stroke-width="0"/>
<path aria-label="male Chesley Tricycle: 155; Saint Cove rapidly: Carolina" role="graphics-symbol" aria-roledescription="arc mark"  d="M173.26701581155623,149.94175548771742A75,75,0,0,0,143.074935025413,116.38344389546454L105.0,181.0Z" fill="#a2e14a" stroke="black" stroke-width="0"/>
<path aria-label="male Chesley Tricycle: 310; Saint Cove rapidly: male" role="graphics-symbol" aria-roledescription="arc mark"  d="M55.22323353147846,124.89943387149938A75,75,0,0,0,35.28529190310485,208.65609290852024L105.0,181.0Z" fill="#34ac42" stroke="black" stroke-width="0"/>
<text aria-label="62,83,87,101" role="graphics-symbol" aria-roledescription="text mark" text-anchor="middle" x="73.05364764075604" y="100.86064790516254" font-family="monospace" font-size="13px" fill="#c1d42b" opacity="1">184</text>
<text aria-label="120,141,258,272" role="graphics-symbol" aria-roledescription="text mark" text-anchor="middle" x="131.4067925039396" y="271.0388360547368" font-family="monospace" font-size="13px" fill="#ecadaf" opacity="1">250</text>
<text aria-label="111,125,83,97" role="graphics-symbol" aria-roledescription="text mark" text-anchor="middle" x="118.4388760919375" y="96.00900826833342" font-family="monospace" font-size="13px" fill="#3adafa" opacity="1">76</text>
<text aria-label="20,34,217,231" role="graphics-symbol" aria-roledescription="text mark" text-anchor="middle" x="27.415117295248976" y="230.61344073505117" font-family="monospace" font-size="13px" fill="#abddbc" opacity="1">78</text>
<text aria-label="48,69,249,263" role="graphics-symbol" aria-roledescription="text mark" text-anchor="middle" x="58.69983314767147" y="262.17703382125114" font-family="monospace" font-size="13px" fill="#bffbef" opacity="1">175</text>
<text aria-label="183,204,187,201" role="graphics-symbol" aria-roledescription="text mark" text-anchor="middle" x="193.60170442497895" y="200.8031001068989" font-family="monospace" font-size="13px" fill="#84ee52" opacity="1">306</text>
<text aria-label="134,148,89,103" role="graphics-symbol" aria-roledescription="text mark" text-anchor="middle" x="141.37915396423253" y="102.68015332347451" font-family="monospace" font-size="13px" fill="#8a84f5" opacity="1">59</text>
<text aria-label="161,182,111,125" role="graphics-symbol" aria-roledescription="text mark" text-anchor="middle" x="171.90678203668625" y="124.80463043144132" font-family="monospace" font-size="13px" fill="#a2e14a" opacity="1">155</text>
<text aria-label="6,27,151,165" role="graphics-symbol" aria-roledescription="text mark" text-anchor="middle" x="17.446470352874414" y="164.15822833034818" font-family="monospace" font-size="13px" fill="#34ac42" opacity="1">310</text>
<path  d="M16.0,56.25A5,5,0,1,1,6.0,56.25A5,5,0,1,1,16.0,56.25" fill="#3adafa" stroke="black" stroke-width="1.5" opacity="1"/>
<path  d="M108.0,56.25A5,5,0,1,1,98.0,56.25A5,5,0,1,1,108.0,56.25" fill="#8a84f5" stroke="black" stroke-width="1.5" opacity="1"/>
<path  d="M170.0,56.25A5,5,0,1,1,160.0,56.25A5,5,0,1,1,170.0,56.25" fill="#a2e14a" stroke="black" stroke-width="1.5" opacity="1"/>
<path  d="M237.0,56.25A5,5,0,1,1,227.0,56.25A5,5,0,1,1,237.0,56.25" fill="#84ee52" stroke="black" stroke-width="1.5" opacity="1"/>
<path  d="M314.0,56.25A5,5,0,1,1,304.0,56.25A5,5,0,1,1,314.0,56.25" fill="#ecadaf" stroke="black" stroke-width="1.5" opacity="1"/>
<path  d="M411.0,56.25A5,5,0,1,1,401.0,56.25A5,5,0,1,1,411.0,56.25" fill="#bffbef" stroke="black" stroke-width="1.5" opacity="1"/>
<path  d="M463.0,56.25A5,5,0,1,1,453.0,56.25A5,5,0,1,1,463.0,56.25" fill="#abddbc" stroke="black" stroke-width="1.5" opacity="1"/>
<path  d="M515.0,56.25A5,5,0,1,1,505.0,56.25A5,5,0,1,1,515.0,56.25" fill="#34ac42" stroke="black" stroke-width="1.5" opacity="1"/>
<path  d="M562.0,56.25A5,5,0,1,1,552.0,56.25A5,5,0,1,1,562.0,56.25" fill="#c1d42b" stroke="black" stroke-width="1.5" opacity="1"/>
<text aria-label="21,92,49,60" text-anchor="start" x="21.0" y="59.25" font-family="monospace" font-size="10px" fill="#000" opacity="1">Administrator</text>
<text aria-label="113,151,49,60" text-anchor="start" x="113.0" y="59.25" font-family="monospace" font-size="10px" fill="#000" opacity="1">Borders</text>
<text aria-label="175,219,49,60" text-anchor="start" x="175.0" y="59.25" font-family="monospace" font-size="10px" fill="#000" opacity="1">Carolina</text>
<text aria-label="242,297,49,60" text-anchor="start" x="242.0" y="59.25" font-family="monospace" font-size="10px" fill="#000" opacity="1">Incredible</text>
<text aria-label="319,396,49,60" text-anchor="start" x="319.0" y="59.25" font-family="monospace" font-size="10px" fill="#000" opacity="1">Representative</text>
<text aria-label="416,443,49,60" text-anchor="start" x="416.0" y="59.25" font-family="monospace" font-size="10px" fill="#000" opacity="1">above</text>
<text aria-label="468,495,49,60" text-anchor="start" x="468.0" y="59.25" font-family="monospace" font-size="10px" fill="#000" opacity="1">learn</text>
<text aria-label="520,542,49,60" text-anchor="start" x="520.0" y="59.25" font-family="monospace" font-size="10px" fill="#000" opacity="1">male</text>
<text aria-label="567,589,49,60" text-anchor="start" x="567.0" y="59.25" font-family="monospace" font-size="10px" fill="#000" opacity="1">open</text>
<text aria-label="5,113,32,44" text-anchor="start" x="5.0" y="43.0" font-family="monospace" font-size="11px" font-weight="bold" fill="#000" opacity="1">Saint Cove rapidly</text>
</svg>