<svg xmlns="http://www.w3.org/2000/svg" xmlns:xlink="http://www.w3.org/1999/xlink" version="1.1" class="marks" width="360" height="270" viewBox="0 0 360 270" style="background-color: rgb(255, 255, 255);">
<text aria-label="4,355,0,26" text-anchor="end" x="355.0" y="25.0" font-family="avenir" font-size="25px" font-weight="bold" fill="#000" opacity="1">Mobility briefly Meitnerium</text>
<path aria-label="Awesome quos Wagon: 472; wildly: Analyst" role="graphics-symbol" aria-roledescription="arc mark"  d="M195.58922427135192,82.57027519564156A75,75,0,0,0,141.0,59.0L141.0,134.0Z" fill="#e711ad" stroke="white" stroke-width="1"/>
<path aria-label="Awesome quos Wagon: 716; wildly: male" role="graphics-symbol" aria-roledescription="arc mark"  d="M77.6809587465514,93.80424133389103A75,75,0,0,0,82.25894643595956,180.63141244039826L141.0,134.0Z" fill="#a1cd7b" stroke="white" stroke-width="1"/>
<path aria-label="Awesome quos Wagon: 399; wildly: backing" role="graphics-symbol" aria-roledescription="arc mark"  d="M167.73040679934715,204.07485535012836A75,75,0,0,0,206.18807739696234,171.0879301833851L141.0,134.0Z" fill="#bdb5aa" stroke="white" stroke-width="1"/>
<path aria-label="Awesome quos Wagon: 582; wildly: male" role="graphics-symbol" aria-roledescription="arc mark"  d="M141.0,59.0A75,75,0,0,0,77.6809587465514,93.80424133389103L141.0,134.0Z" fill="#a1cd7b" stroke="white" stroke-width="1"/>
<path aria-label="Awesome quos Wagon: 732; wildly: female" role="graphics-symbol" aria-roledescription="arc mark"  d="M82.25894643595956,180.63141244039826A75,75,0,0,0,167.73040679934715,204.07485535012836L141.0,134.0Z" fill="#f5eafa" stroke="white" stroke-width="1"/>
<path aria-label="Awesome quos Wagon: 737; wildly: Netherlands" role="graphics-symbol" aria-roledescription="arc mark"  d="M206.18807739696234,171.0879301833851A75,75,0,0,0,195.58922427135192,82.57027519564156L141.0,134.0Z" fill="#656b44" stroke="white" stroke-width="1"/>
<text aria-label="169,184,45,55" role="graphics-symbol" aria-roledescription="text mark" text-anchor="middle" x="176.6762506517241" y="54.37309675756113" font-family="avenir" font-size="9px" fill="#e711ad" opacity="1">472</text>
<text aria-label="81,96,54,64" role="graphics-symbol" aria-roledescription="text mark" text-anchor="middle" x="88.83133487512356" y="63.66221724725719" font-family="avenir" font-size="9px" fill="#a1cd7b" opacity="1">716</text>
<text aria-label="192,207,196,206" role="graphics-symbol" aria-roledescription="text mark" text-anchor="middle" x="199.59498433147044" y="205.3127207128711" font-family="avenir" font-size="9px" fill="#bdb5aa" opacity="1">399</text>
<text aria-label="44,59,143,153" role="graphics-symbol" aria-roledescription="text mark" text-anchor="middle" x="52.27300355141793" y="152.08376946301235" font-family="avenir" font-size="9px" fill="#a1cd7b" opacity="1">582</text>
<text aria-label="109,124,214,224" role="graphics-symbol" aria-roledescription="text mark" text-anchor="middle" x="117.19370781007532" y="223.79435725995057" font-family="avenir" font-size="9px" fill="#f5eafa" opacity="1">732</text>
<text aria-label="222,237,117,127" role="graphics-symbol" aria-roledescription="text mark" text-anchor="middle" x="230.3616909319075" y="126.30008440265814" font-family="avenir" font-size="9px" fill="#656b44" opacity="1">737</text>
<path  d="M52.0,258.25A5,5,0,1,1,42.0,258.25A5,5,0,1,1,52.0,258.25" fill="#e711ad" stroke="white" stroke-width="1.5" opacity="1"/>
<path  d="M115.0,258.25A5,5,0,1,1,105.0,258.25A5,5,0,1,1,115.0,258.25" fill="#656b44" stroke="white" stroke-width="1.5" opacity="1"/>
<path  d="M201.0,258.25A5,5,0,1,1,191.0,258.25A5,5,0,1,1,201.0,258.25" fill="#bdb5aa" stroke="white" stroke-width="1.5" opacity="1"/>
<path  d="M266.0,258.25A5,5,0,1,1,256.0,258.25A5,5,0,1,1,266.0,258.25" fill="#f5eafa" stroke="white" stroke-width="1.5" opacity="1"/>
<path  d="M326.0,258.25A5,5,0,1,1,316.0,258.25A5,5,0,1,1,326.0,258.25" fill="#a1cd7b" stroke="white" stroke-width="1.5" opacity="1"/>
<text aria-label="57,95,251,262" text-anchor="start" x="57.0" y="261.25" font-family="avenir" font-size="10px" fill="#000" opacity="1">Analyst</text>
<text aria-label="120,180,251,262" text-anchor="start" x="120.0" y="261.25" font-family="avenir" font-size="10px" fill="#000" opacity="1">Netherlands</text>
<text aria-label="206,244,251,262" text-anchor="start" x="206.0" y="261.25" font-family="avenir" font-size="10px" fill="#000" opacity="1">backing</text>
<text aria-label="271,304,251,262" text-anchor="start" x="271.0" y="261.25" font-family="avenir" font-size="10px" fill="#000" opacity="1">female</text>
<text aria-label="331,353,251,262" text-anchor="start" x="331.0" y="261.25" font-family="avenir" font-size="10px" fill="#000" opacity="1">male</text>
</svg>