<svg xmlns="http://www.w3.org/2000/svg" xmlns:xlink="http://www.w3.org/1999/xlink" version="1.1" class="marks" width="220" height="270" viewBox="0 0 220 270" style="background-color: rgb(255, 255, 255);">
<text aria-label="59,215,0,26" text-anchor="end" x="215.0" y="25.0" font-family="serif" font-size="25px" font-weight="bold" fill="#000" opacity="1">consequently</text>
<path aria-label="Yttrium New judgementally: 175; Recumbent: Northwest" role="graphics-symbol" aria-roledescription="arc mark"  d="M103.64593880620798,239.9877757923481A75,75,0,1,0,105.0,90.0L105.0,127.0A38,38,0,1,1,104.3139423284787,202.99380640145637Z" fill="#bfa0e5" stroke="black" stroke-width="3"/>
<path aria-label="Yttrium New judgementally: 138; Recumbent: maximize" role="graphics-symbol" aria-roledescription="arc mark"  d="M104.99999999999999,90.0A75,75,0,0,0,59.61193386046763,224.7069799279233L82.00337982263693,195.25153649681448A38,38,0,0,1,105.0,127.0Z" fill="#0d1fcf" stroke="black" stroke-width="3"/>
<path aria-label="Yttrium New judgementally: 35; Recumbent: illustrious" role="graphics-symbol" aria-roledescription="arc mark"  d="M59.61193386046763,224.7069799279233A75,75,0,0,0,103.64593880620798,239.9877757923481L104.3139423284787,202.99380640145637A38,38,0,0,1,82.00337982263693,195.25153649681448Z" fill="#3b9b26" stroke="black" stroke-width="3"/>
<text aria-label="186,203,158,169" role="graphics-symbol" aria-roledescription="text mark" text-anchor="middle" x="194.99633266298576" y="168.81246982294914" font-family="serif" font-size="10px" fill="#bfa0e5" opacity="1">175</text>
<text aria-label="11,27,129,140" role="graphics-symbol" aria-roledescription="text mark" text-anchor="middle" x="19.711214593547766" y="139.26286228776183" font-family="serif" font-size="10px" fill="#0d1fcf" opacity="1">138</text>
<text aria-label="69,80,243,254" role="graphics-symbol" aria-roledescription="text mark" text-anchor="middle" x="75.49409366987389" y="253.0258871852439" font-family="serif" font-size="10px" fill="#3b9b26" opacity="1">35</text>
<path  d="M16.0,40.25A5,5,0,1,1,6.0,40.25A5,5,0,1,1,16.0,40.25" fill="#bfa0e5" stroke="black" stroke-width="1.5" opacity="1"/>
<path  d="M88.0,40.25A5,5,0,1,1,78.0,40.25A5,5,0,1,1,88.0,40.25" fill="#3b9b26" stroke="black" stroke-width="1.5" opacity="1"/>
<path  d="M170.0,40.25A5,5,0,1,1,160.0,40.25A5,5,0,1,1,170.0,40.25" fill="#0d1fcf" stroke="black" stroke-width="1.5" opacity="1"/>
<text aria-label="21,70,33,44" text-anchor="start" x="21.0" y="43.25" font-family="serif" font-size="10px" fill="#000" opacity="1">Northwest</text>
<text aria-label="93,153,33,44" text-anchor="start" x="93.0" y="43.25" font-family="serif" font-size="10px" fill="#000" opacity="1">illustrious</text>
<text aria-label="175,219,33,44" text-anchor="start" x="175.0" y="43.25" font-family="serif" font-size="10px" fill="#000" opacity="1">maximize</text>
</svg>