<svg xmlns="http://www.w3.org/2000/svg" xmlns:xlink="http://www.w3.org/1999/xlink" version="1.1" class="marks" width="619" height="286" viewBox="0 0 619 286" style="background-color: rgb(255, 255, 255);">
<text aria-label="4,355,0,26" text-anchor="middle" x="180.0" y="25.0" font-family="monospace" font-size="25px" font-weight="bold" fill="#000" opacity="1">24/365 Francium calculating</text>
<path aria-label="applications wasteful Burnsville: 55; utilize Unbranded: pish" role="graphics-symbol" aria-roledescription="arc mark"  d="M106.53633969868302,196.10266913935098A75,75,0,0,0,122.29681244343519,228.9097291352383L140.76183246153593,213.57861581196207A51,51,0,0,1,130.04471099510445,191.26981501475865Z" fill="#6b2648" stroke="white" stroke-width="0"/>
<path aria-label="applications wasteful Burnsville: 59; utilize Unbranded: outlying" role="graphics-symbol" aria-roledescription="arc mark"  d="M122.29681244343519,228.9097291352383A75,75,0,0,0,154.13923172838307,251.4004308538075L162.4146775753005,228.8722929805891A51,51,0,0,1,140.76183246153593,213.57861581196207Z" fill="#e7fbfa" stroke="white" stroke-width="0"/>
<path aria-label="applications wasteful Burnsville: 27; utilize Unbranded: Maine" role="graphics-symbol" aria-roledescription="arc mark"  d="M242.30213603023458,139.24543323096088A75,75,0,0,0,230.55622346239045,125.60082790130485L214.3782319544255,143.3285629728873A51,51,0,0,1,222.3654525005595,152.6068945970534Z" fill="#ead7f4" stroke="white" stroke-width="0"/>
<path aria-label="applications wasteful Burnsville: 199; utilize Unbranded: synergy" role="graphics-symbol" aria-roledescription="arc mark"  d="M180.0,106.0A75,75,0,0,0,106.53633969868302,196.10266913935098L130.04471099510445,191.26981501475865A51,51,0,0,1,180.0,130.0Z" fill="#e539ab" stroke="white" stroke-width="0"/>
<path aria-label="applications wasteful Burnsville: 151; utilize Unbranded: blue" role="graphics-symbol" aria-roledescription="arc mark"  d="M154.13923172838307,251.4004308538075A75,75,0,0,0,242.85474734984683,221.91797570245774L222.74122819789585,208.82422347767127A51,51,0,0,1,162.4146775753005,228.8722929805891Z" fill="#e436b3" stroke="white" stroke-width="0"/>
<path aria-label="applications wasteful Burnsville: 54; utilize Unbranded: Keyboard" role="graphics-symbol" aria-roledescription="arc mark"  d="M230.55622346239045,125.60082790130485A75,75,0,0,0,199.16920243256786,108.49109242238417L193.03505765414616,131.69394284722125A51,51,0,0,1,214.3782319544255,143.3285629728873Z" fill="#2df0e0" stroke="white" stroke-width="0"/>
<path aria-label="applications wasteful Burnsville: 29; utilize Unbranded: Rap" role="graphics-symbol" aria-roledescription="arc mark"  d="M248.8514912858571,210.7400764577622A75,75,0,0,0,254.165866189415,192.15456374645774L230.4327890088022,188.58510334759126A51,51,0,0,1,226.81901407438284,201.2232519912783Z" fill="#a013ff" stroke="white" stroke-width="0"/>
<path aria-label="applications wasteful Burnsville: 83; utilize Unbranded: Oriental" role="graphics-symbol" aria-roledescription="arc mark"  d="M254.165866189415,192.15456374645774A75,75,0,0,0,242.30213603023458,139.24543323096088L222.3654525005595,152.6068945970534A51,51,0,0,1,230.4327890088022,188.58510334759126Z" fill="#6f63c1" stroke="white" stroke-width="0"/>
<path aria-label="applications wasteful Burnsville: 29; utilize Unbranded: Fresh" role="graphics-symbol" aria-roledescription="arc mark"  d="M199.16920243256786,108.49109242238417A75,75,0,0,0,180.0,106.0L180.0,130.0A51,51,0,0,1,193.03505765414616,131.69394284722125Z" fill="#ff5cdf" stroke="white" stroke-width="0"/>
<path aria-label="applications wasteful Burnsville: 19; utilize Unbranded: THX" role="graphics-symbol" aria-roledescription="arc mark"  d="M242.85474734984683,221.91797570245774A75,75,0,0,0,248.8514912858571,210.7400764577622L226.81901407438284,201.2232519912783A51,51,0,0,1,222.74122819789585,208.82422347767127Z" fill="#1ac21c" stroke="white" stroke-width="0"/>
<path  d="M91.0,56.25A5,5,0,1,1,81.0,56.25A5,5,0,1,1,91.0,56.25" fill="#ff5cdf" stroke="white" stroke-width="1.5" opacity="1"/>
<path  d="M143.0,56.25A5,5,0,1,1,133.0,56.25A5,5,0,1,1,143.0,56.25" fill="#2df0e0" stroke="white" stroke-width="1.5" opacity="1"/>
<path  d="M210.0,56.25A5,5,0,1,1,200.0,56.25A5,5,0,1,1,210.0,56.25" fill="#ead7f4" stroke="white" stroke-width="1.5" opacity="1"/>
<path  d="M262.0,56.25A5,5,0,1,1,252.0,56.25A5,5,0,1,1,262.0,56.25" fill="#6f63c1" stroke="white" stroke-width="1.5" opacity="1"/>
<path  d="M329.0,56.25A5,5,0,1,1,319.0,56.25A5,5,0,1,1,329.0,56.25" fill="#a013ff" stroke="white" stroke-width="1.5" opacity="1"/>
<path  d="M371.0,56.25A5,5,0,1,1,361.0,56.25A5,5,0,1,1,371.0,56.25" fill="#1ac21c" stroke="white" stroke-width="1.5" opacity="1"/>
<path  d="M413.0,56.25A5,5,0,1,1,403.0,56.25A5,5,0,1,1,413.0,56.25" fill="#e436b3" stroke="white" stroke-width="1.5" opacity="1"/>
<path  d="M460.0,56.25A5,5,0,1,1,450.0,56.25A5,5,0,1,1,460.0,56.25" fill="#e7fbfa" stroke="white" stroke-width="1.5" opacity="1"/>
<path  d="M527.0,56.25A5,5,0,1,1,517.0,56.25A5,5,0,1,1,527.0,56.25" fill="#6b2648" stroke="white" stroke-width="1.5" opacity="1"/>
<path  d="M574.0,56.25A5,5,0,1,1,564.0,56.25A5,5,0,1,1,574.0,56.25" fill="#e539ab" stroke="white" stroke-width="1.5" opacity="1"/>
<text aria-label="96,123,49,60" text-anchor="start" x="96.0" y="59.25" font-family="monospace" font-size="10px" fill="#000" opacity="1">Fresh</text>
<text aria-label="148,192,49,60" text-anchor="start" x="148.0" y="59.25" font-family="monospace" font-size="10px" fill="#000" opacity="1">Keyboard</text>
<text aria-label="215,242,49,60" text-anchor="start" x="215.0" y="59.25" font-family="monospace" font-size="10px" fill="#000" opacity="1">Maine</text>
<text aria-label="267,311,49,60" text-anchor="start" x="267.0" y="59.25" font-family="monospace" font-size="10px" fill="#000" opacity="1">Oriental</text>
<text aria-label="334,350,49,60" text-anchor="start" x="334.0" y="59.25" font-family="monospace" font-size="10px" fill="#000" opacity="1">Rap</text>
<text aria-label="376,392,49,60" text-anchor="start" x="376.0" y="59.25" font-family="monospace" font-size="10px" fill="#000" opacity="1">THX</text>
<text aria-label="418,440,49,60" text-anchor="start" x="418.0" y="59.25" font-family="monospace" font-size="10px" fill="#000" opacity="1">blue</text>
<text aria-label="465,509,49,60" text-anchor="start" x="465.0" y="59.25" font-family="monospace" font-size="10px" fill="#000" opacity="1">outlying</text>
<text aria-label="532,554,49,60" text-anchor="start" x="532.0" y="59.25" font-family="monospace" font-size="10px" fill="#000" opacity="1">pish</text>
<text aria-label="579,617,49,60" text-anchor="start" x="579.0" y="59.25" font-family="monospace" font-size="10px" fill="#000" opacity="1">synergy</text>
<text aria-label="80,182,32,44" text-anchor="start" x="80.0" y="43.0" font-family="monospace" font-size="11px" font-weight="bold" fill="#000" opacity="1">utilize Unbranded</text>
</svg>