<svg xmlns="http://www.w3.org/2000/svg" xmlns:xlink="http://www.w3.org/1999/xlink" version="1.1" class="marks" width="299" height="239" viewBox="0 0 299 239" style="background-color: rgb(255, 255, 255);">
<text aria-label="5,265,0,26" text-anchor="start" x="5.0" y="25.0" font-family="sans-serif" font-size="25px" font-weight="bold" fill="#000" opacity="1">Grocery Davie Diesel</text>
<path aria-label="sensor Dearborn Account: 171; salmon XSS: odio" role="graphics-symbol" aria-roledescription="arc mark"  d="M157.50721434111392,68.47690029573847A75,75,0,0,0,139.68467686209294,82.28108979855881L158.51398888323405,100.2103120017251A49,49,0,0,1,170.1580467028611,91.19157485988246Z" fill="#e2bc39" stroke="black" stroke-width="0"/>
<path aria-label="sensor Dearborn Account: 230; salmon XSS: kelvin" role="graphics-symbol" aria-roledescription="arc mark"  d="M139.68467686209294,82.28108979855881A75,75,0,0,0,123.67897374714931,107.92408646382864L148.0569295148042,116.96373648970138A49,49,0,0,1,158.51398888323405,100.2103120017251Z" fill="#d2f9fc" stroke="black" stroke-width="0"/>
<path aria-label="sensor Dearborn Account: 616; salmon XSS: customized" role="graphics-symbol" aria-roledescription="arc mark"  d="M127.15499630381709,168.01096118690697A75,75,0,0,0,193.00752918242432,208.99343305701012L193.35158573251724,182.99570959724662A49,49,0,0,1,150.32793091849382,156.22049464211256Z" fill="#0ffcda" stroke="black" stroke-width="0"/>
<path aria-label="sensor Dearborn Account: 468; salmon XSS: extensible" role="graphics-symbol" aria-roledescription="arc mark"  d="M123.67897374714931,107.92408646382864A75,75,0,0,0,127.15499630381709,168.01096118690697L150.32793091849382,156.22049464211256A49,49,0,0,1,148.0569295148042,116.96373648970138Z" fill="#bfa40c" stroke="black" stroke-width="0"/>
<path aria-label="sensor Dearborn Account: 136; salmon XSS: Arkansas" role="graphics-symbol" aria-roledescription="arc mark"  d="M211.82510295368027,61.14901713298099A75,75,0,0,0,194.0,59.0L194.0,85.0A49,49,0,0,1,205.6457339297378,86.4040245268809Z" fill="#4212f9" stroke="black" stroke-width="0"/>
<path aria-label="sensor Dearborn Account: 678; salmon XSS: Bicycle" role="graphics-symbol" aria-roledescription="arc mark"  d="M268.32224681378,123.93999858093596A75,75,0,0,0,211.82510295368027,61.14901713298099L205.6457339297378,86.4040245268809A49,49,0,0,1,242.5572012516696,127.42746573954483Z" fill="#c0df9c" stroke="black" stroke-width="0"/>
<path aria-label="sensor Dearborn Account: 512; salmon XSS: Ferrari" role="graphics-symbol" aria-roledescription="arc mark"  d="M204.74803155245857,208.22587027275165A75,75,0,0,0,258.9519052838329,171.5L236.4352447854375,158.5A49,49,0,0,1,201.0220472809396,182.4942352448644Z" fill="#ac385f" stroke="black" stroke-width="0"/>
<path aria-label="sensor Dearborn Account: 373; salmon XSS: Cruiser" role="graphics-symbol" aria-roledescription="arc mark"  d="M258.9519052838329,171.5A75,75,0,0,0,268.32224681378,123.93999858093596L242.5572012516696,127.42746573954483A49,49,0,0,1,236.4352447854375,158.5Z" fill="#82c7be" stroke="black" stroke-width="0"/>
<path aria-label="sensor Dearborn Account: 89; salmon XSS: Soft" role="graphics-symbol" aria-roledescription="arc mark"  d="M193.00752918242432,208.99343305701012A75,75,0,0,0,204.74803155245857,208.22587027275165L201.0220472809396,182.4942352448644A49,49,0,0,1,193.35158573251724,182.99570959724662Z" fill="#5e5efc" stroke="black" stroke-width="0"/>
<path aria-label="sensor Dearborn Account: 288; salmon XSS: overriding" role="graphics-symbol" aria-roledescription="arc mark"  d="M194.0,59.0A75,75,0,0,0,157.50721434111392,68.47690029573847L170.1580467028611,91.19157485988246A49,49,0,0,1,194.0,85.0Z" fill="#229efb" stroke="black" stroke-width="0"/>
<path  d="M16.0,40.0A5,5,0,1,1,6.0,40.0A5,5,0,1,1,16.0,40.0" fill="#4212f9" stroke="black" stroke-width="1.5" opacity="1"/>
<path  d="M16.0,56.0A5,5,0,1,1,6.0,56.0A5,5,0,1,1,16.0,56.0" fill="#c0df9c" stroke="black" stroke-width="1.5" opacity="1"/>
<path  d="M16.0,72.0A5,5,0,1,1,6.0,72.0A5,5,0,1,1,16.0,72.0" fill="#82c7be" stroke="black" stroke-width="1.5" opacity="1"/>
<path  d="M16.0,88.0A5,5,0,1,1,6.0,88.0A5,5,0,1,1,16.0,88.0" fill="#ac385f" stroke="black" stroke-width="1.5" opacity="1"/>
<path  d="M16.0,104.0A5,5,0,1,1,6.0,104.0A5,5,0,1,1,16.0,104.0" fill="#5e5efc" stroke="black" stroke-width="1.5" opacity="1"/>
<path  d="M16.0,120.0A5,5,0,1,1,6.0,120.0A5,5,0,1,1,16.0,120.0" fill="#0ffcda" stroke="black" stroke-width="1.5" opacity="1"/>
<path  d="M16.0,136.0A5,5,0,1,1,6.0,136.0A5,5,0,1,1,16.0,136.0" fill="#bfa40c" stroke="black" stroke-width="1.5" opacity="1"/>
<path  d="M16.0,152.0A5,5,0,1,1,6.0,152.0A5,5,0,1,1,16.0,152.0" fill="#d2f9fc" stroke="black" stroke-width="1.5" opacity="1"/>
<path  d="M16.0,168.0A5,5,0,1,1,6.0,168.0A5,5,0,1,1,16.0,168.0" fill="#e2bc39" stroke="black" stroke-width="1.5" opacity="1"/>
<path  d="M16.0,184.0A5,5,0,1,1,6.0,184.0A5,5,0,1,1,16.0,184.0" fill="#229efb" stroke="black" stroke-width="1.5" opacity="1"/>
<text aria-label="21,65,33,44" text-anchor="start" x="21.0" y="43.0" font-family="sans-serif" font-size="10px" fill="#000" opacity="1">Arkansas</text>
<text aria-label="21,59,49,60" text-anchor="start" x="21.0" y="59.0" font-family="sans-serif" font-size="10px" fill="#000" opacity="1">Bicycle</text>
<text aria-label="21,59,65,76" text-anchor="start" x="21.0" y="75.0" font-family="sans-serif" font-size="10px" fill="#000" opacity="1">Cruiser</text>
<text aria-label="21,59,81,92" text-anchor="start" x="21.0" y="91.0" font-family="sans-serif" font-size="10px" fill="#000" opacity="1">Ferrari</text>
<text aria-label="21,43,97,108" text-anchor="start" x="21.0" y="107.0" font-family="sans-serif" font-size="10px" fill="#000" opacity="1">Soft</text>
<text aria-label="21,76,113,124" text-anchor="start" x="21.0" y="123.0" font-family="sans-serif" font-size="10px" fill="#000" opacity="1">customized</text>
<text aria-label="21,76,129,140" text-anchor="start" x="21.0" y="139.0" font-family="sans-serif" font-size="10px" fill="#000" opacity="1">extensible</text>
<text aria-label="21,54,145,156" text-anchor="start" x="21.0" y="155.0" font-family="sans-serif" font-size="10px" fill="#000" opacity="1">kelvin</text>
<text aria-label="21,43,161,172" text-anchor="start" x="21.0" y="171.0" font-family="sans-serif" font-size="10px" fill="#000" opacity="1">odio</text>
<text aria-label="21,76,177,188" text-anchor="start" x="21.0" y="187.0" font-family="sans-serif" font-size="10px" fill="#000" opacity="1">overriding</text>
</svg>