<svg xmlns="http://www.w3.org/2000/svg" xmlns:xlink="http://www.w3.org/1999/xlink" version="1.1" class="marks" width="401" height="286" viewBox="0 0 401 286" style="background-color: rgb(255, 255, 255);">
<text aria-label="19,396,0,26" text-anchor="end" x="396.0" y="25.0" font-family="avenir" font-size="25px" font-weight="bold" fill="#000" opacity="1">platforms punishment Intersex</text>
<path aria-label="Consultant: 87; vase meter Group: Associate" role="graphics-symbol" aria-roledescription="arc mark"  d="M272.6153881056912,120.71345801774206A75,75,0,0,0,228.0,106.0L228.0,181.0Z" fill="#fbe446" stroke="black" stroke-width="0"/>
<path aria-label="Consultant: 124; vase meter Group: solidly" role="graphics-symbol" aria-roledescription="arc mark"  d="M228.0,106.0A75,75,0,0,0,168.87665789452942,134.85424810148297L228.0,181.0Z" fill="#275d95" stroke="black" stroke-width="0"/>
<path aria-label="Consultant: 406; vase meter Group: grandchild" role="graphics-symbol" aria-roledescription="arc mark"  d="M168.87665789452942,134.85424810148297A75,75,0,0,0,278.5510442016891,236.40389814912734L228.0,181.0Z" fill="#13a9df" stroke="black" stroke-width="0"/>
<path aria-label="Consultant: 241; vase meter Group: Pittsfield" role="graphics-symbol" aria-roledescription="arc mark"  d="M278.5510442016891,236.40389814912734A75,75,0,0,0,272.6153881056912,120.71345801774206L228.0,181.0Z" fill="#4a7aa9" stroke="black" stroke-width="0"/>
<text aria-label="250,261,88,99" role="graphics-symbol" aria-roledescription="text mark" text-anchor="middle" x="256.1873505842261" y="98.5279386756004" font-family="avenir" font-size="10px" fill="#fbe446" opacity="1">87</text>
<text aria-label="180,196,93,104" role="graphics-symbol" aria-roledescription="text mark" text-anchor="middle" x="188.52685219696713" y="103.11816889733565" font-family="avenir" font-size="10px" fill="#275d95" opacity="1">124</text>
<text aria-label="158,175,240,251" role="graphics-symbol" aria-roledescription="text mark" text-anchor="middle" x="166.85350657793958" y="250.03867308014236" font-family="avenir" font-size="10px" fill="#13a9df" opacity="1">406</text>
<text aria-label="309,326,169,180" role="graphics-symbol" aria-roledescription="text mark" text-anchor="middle" x="317.8817779047966" y="179.3884925812898" font-family="avenir" font-size="10px" fill="#4a7aa9" opacity="1">241</text>
<path  d="M139.0,56.25A5,5,0,1,1,129.0,56.25A5,5,0,1,1,139.0,56.25" fill="#fbe446" stroke="black" stroke-width="1.5" opacity="1"/>
<path  d="M212.0,56.25A5,5,0,1,1,202.0,56.25A5,5,0,1,1,212.0,56.25" fill="#4a7aa9" stroke="black" stroke-width="1.5" opacity="1"/>
<path  d="M281.0,56.25A5,5,0,1,1,271.0,56.25A5,5,0,1,1,281.0,56.25" fill="#13a9df" stroke="black" stroke-width="1.5" opacity="1"/>
<path  d="M360.0,56.25A5,5,0,1,1,350.0,56.25A5,5,0,1,1,360.0,56.25" fill="#275d95" stroke="black" stroke-width="1.5" opacity="1"/>
<text aria-label="144,193,49,60" text-anchor="start" x="144.0" y="59.25" font-family="avenir" font-size="10px" fill="#000" opacity="1">Associate</text>
<text aria-label="217,272,49,60" text-anchor="start" x="217.0" y="59.25" font-family="avenir" font-size="10px" fill="#000" opacity="1">Pittsfield</text>
<text aria-label="286,341,49,60" text-anchor="start" x="286.0" y="59.25" font-family="avenir" font-size="10px" fill="#000" opacity="1">grandchild</text>
<text aria-label="365,403,49,60" text-anchor="start" x="365.0" y="59.25" font-family="avenir" font-size="10px" fill="#000" opacity="1">solidly</text>
<text aria-label="128,224,32,44" text-anchor="start" x="128.0" y="43.0" font-family="avenir" font-size="11px" font-weight="bold" fill="#000" opacity="1">vase meter Group</text>
</svg>