<svg xmlns="http://www.w3.org/2000/svg" xmlns:xlink="http://www.w3.org/1999/xlink" version="1.1" class="marks" width="343" height="239" viewBox="0 0 343 239" style="background-color: rgb(255, 255, 255);">
<text aria-label="4,303,0,26" text-anchor="middle" x="154.0" y="25.0" font-family="monospace" font-size="25px" font-weight="bold" fill="#000" opacity="1">Polonium boohoo Plastic</text>
<path aria-label="veritatis Northwest: 599; Northwest: pascal" role="graphics-symbol" aria-roledescription="arc mark"  d="M118.26803520165105,68.05891499490207A75,75,0,0,0,79.06420883255802,130.89722670671466L105.04194977060457,131.97285478172023A49,49,0,0,1,130.65511633174535,90.91849113000268Z" fill="#8e69ea" stroke="white" stroke-width="0"/>
<path aria-label="veritatis Northwest: 803; Northwest: invoice" role="graphics-symbol" aria-roledescription="arc mark"  d="M79.06420883255802,130.89722670671466A75,75,0,0,0,137.07687324087965,207.06577708267218L142.94355718404137,181.7363076940125A49,49,0,0,1,105.04194977060457,131.97285478172023Z" fill="#563d94" stroke="white" stroke-width="0"/>
<path aria-label="veritatis Northwest: 288; Northwest: violet" role="graphics-symbol" aria-roledescription="arc mark"  d="M154.0,59.0A75,75,0,0,0,118.26803520165105,68.05891499490207L130.65511633174535,90.91849113000268A49,49,0,0,1,154.0,85.0Z" fill="#2d2c9d" stroke="white" stroke-width="0"/>
<path aria-label="veritatis Northwest: 450; Northwest: South" role="graphics-symbol" aria-roledescription="arc mark"  d="M228.7214486525113,127.54205053673228A75,75,0,0,0,202.8117755272601,77.0578313560471L185.89036001114326,96.79778315261746A49,49,0,0,1,202.8180131196407,129.78080635066507Z" fill="#41acbf" stroke="white" stroke-width="0"/>
<path aria-label="veritatis Northwest: 860; Northwest: although" role="graphics-symbol" aria-roledescription="arc mark"  d="M137.07687324087965,207.06577708267218A75,75,0,0,0,225.2972014249351,157.27464433610606L200.58083826429092,149.20610096625595A49,49,0,0,1,142.94355718404137,181.7363076940125Z" fill="#9da5c3" stroke="white" stroke-width="0"/>
<path aria-label="veritatis Northwest: 411; Northwest: California" role="graphics-symbol" aria-roledescription="arc mark"  d="M202.8117755272601,77.0578313560471A75,75,0,0,0,154.0,59.0L154.0,85.0A49,49,0,0,1,185.89036001114326,96.79778315261746Z" fill="#742c65" stroke="white" stroke-width="0"/>
<path aria-label="veritatis Northwest: 233; Northwest: Specialist" role="graphics-symbol" aria-roledescription="arc mark"  d="M225.2972014249351,157.27464433610606A75,75,0,0,0,228.7214486525113,127.54205053673228L202.8180131196407,129.78080635066507A49,49,0,0,1,200.58083826429092,149.20610096625595Z" fill="#a7b53e" stroke="white" stroke-width="0"/>
<path  d="M283.0,56.0A5,5,0,1,1,273.0,56.0A5,5,0,1,1,283.0,56.0" fill="#742c65" stroke="white" stroke-width="1.5" opacity="1"/>
<path  d="M283.0,72.0A5,5,0,1,1,273.0,72.0A5,5,0,1,1,283.0,72.0" fill="#41acbf" stroke="white" stroke-width="1.5" opacity="1"/>
<path  d="M283.0,88.0A5,5,0,1,1,273.0,88.0A5,5,0,1,1,283.0,88.0" fill="#a7b53e" stroke="white" stroke-width="1.5" opacity="1"/>
<path  d="M283.0,104.0A5,5,0,1,1,273.0,104.0A5,5,0,1,1,283.0,104.0" fill="#9da5c3" stroke="white" stroke-width="1.5" opacity="1"/>
<path  d="M283.0,120.0A5,5,0,1,1,273.0,120.0A5,5,0,1,1,283.0,120.0" fill="#563d94" stroke="white" stroke-width="1.5" opacity="1"/>
<path  d="M283.0,136.0A5,5,0,1,1,273.0,136.0A5,5,0,1,1,283.0,136.0" fill="#8e69ea" stroke="white" stroke-width="1.5" opacity="1"/>
<path  d="M283.0,152.0A5,5,0,1,1,273.0,152.0A5,5,0,1,1,283.0,152.0" fill="#2d2c9d" stroke="white" stroke-width="1.5" opacity="1"/>
<text aria-label="288,343,49,60" text-anchor="start" x="288.0" y="59.0" font-family="monospace" font-size="10px" fill="#000" opacity="1">California</text>
<text aria-label="288,315,65,76" text-anchor="start" x="288.0" y="75.0" font-family="monospace" font-size="10px" fill="#000" opacity="1">South</text>
<text aria-label="288,343,81,92" text-anchor="start" x="288.0" y="91.0" font-family="monospace" font-size="10px" fill="#000" opacity="1">Specialist</text>
<text aria-label="288,332,97,108" text-anchor="start" x="288.0" y="107.0" font-family="monospace" font-size="10px" fill="#000" opacity="1">although</text>
<text aria-label="288,326,113,124" text-anchor="start" x="288.0" y="123.0" font-family="monospace" font-size="10px" fill="#000" opacity="1">invoice</text>
<text aria-label="288,321,129,140" text-anchor="start" x="288.0" y="139.0" font-family="monospace" font-size="10px" fill="#000" opacity="1">pascal</text>
<text aria-label="288,321,145,156" text-anchor="start" x="288.0" y="155.0" font-family="monospace" font-size="10px" fill="#000" opacity="1">violet</text>
<text aria-label="272,326,32,44" text-anchor="start" x="272.0" y="43.0" font-family="monospace" font-size="11px" font-weight="bold" fill="#000" opacity="1">Northwest</text>
</svg>