<svg xmlns="http://www.w3.org/2000/svg" xmlns:xlink="http://www.w3.org/1999/xlink" version="1.1" class="marks" width="286" height="239" viewBox="0 0 286 239" style="background-color: rgb(255, 255, 255);">
<text aria-label="5,187,0,26" text-anchor="start" x="5.0" y="25.0" font-family="sans-serif" font-size="25px" font-weight="bold" fill="#000" opacity="1">compressing of</text>
<path aria-label="forecast Electric Northeast: 207; stag: Car" role="graphics-symbol" aria-roledescription="arc mark"  d="M255.13664808869524,145.34713224444658A75,75,0,0,0,181.0,59.0L181.0,134.0Z" fill="#8c5d02" stroke="white" stroke-width="3"/>
<path aria-label="forecast Electric Northeast: 135; stag: Modern" role="graphics-symbol" aria-roledescription="arc mark"  d="M202.8366694267875,205.75067852184537A75,75,0,0,0,255.13664808869524,145.34713224444658L181.0,134.0Z" fill="#d9daef" stroke="white" stroke-width="3"/>
<path aria-label="forecast Electric Northeast: 300; stag: Zambian" role="graphics-symbol" aria-roledescription="arc mark"  d="M140.78664417684308,70.69213308410897A75,75,0,0,0,175.07667902991483,208.7657292393069L181.0,134.0Z" fill="#a9caae" stroke="white" stroke-width="3"/>
<path aria-label="forecast Electric Northeast: 45; stag: TLS" role="graphics-symbol" aria-roledescription="arc mark"  d="M175.07667902991483,208.7657292393069A75,75,0,0,0,202.8366694267875,205.75067852184537L181.0,134.0Z" fill="#a83fa9" stroke="white" stroke-width="3"/>
<path aria-label="forecast Electric Northeast: 68; stag: salmon" role="graphics-symbol" aria-roledescription="arc mark"  d="M181.0,59.0A75,75,0,0,0,140.78664417684308,70.69213308410897L181.0,134.0Z" fill="#76ea28" stroke="white" stroke-width="3"/>
<path  d="M16.0,56.0A5,5,0,1,1,6.0,56.0A5,5,0,1,1,16.0,56.0" fill="#8c5d02" stroke="white" stroke-width="1.5" opacity="1"/>
<path  d="M16.0,72.0A5,5,0,1,1,6.0,72.0A5,5,0,1,1,16.0,72.0" fill="#d9daef" stroke="white" stroke-width="1.5" opacity="1"/>
<path  d="M16.0,88.0A5,5,0,1,1,6.0,88.0A5,5,0,1,1,16.0,88.0" fill="#a83fa9" stroke="white" stroke-width="1.5" opacity="1"/>
<path  d="M16.0,104.0A5,5,0,1,1,6.0,104.0A5,5,0,1,1,16.0,104.0" fill="#a9caae" stroke="white" stroke-width="1.5" opacity="1"/>
<path  d="M16.0,120.0A5,5,0,1,1,6.0,120.0A5,5,0,1,1,16.0,120.0" fill="#76ea28" stroke="white" stroke-width="1.5" opacity="1"/>
<text aria-label="21,37,49,60" text-anchor="start" x="21.0" y="59.0" font-family="sans-serif" font-size="10px" fill="#000" opacity="1">Car</text>
<text aria-label="21,54,65,76" text-anchor="start" x="21.0" y="75.0" font-family="sans-serif" font-size="10px" fill="#000" opacity="1">Modern</text>
<text aria-label="21,37,81,92" text-anchor="start" x="21.0" y="91.0" font-family="sans-serif" font-size="10px" fill="#000" opacity="1">TLS</text>
<text aria-label="21,59,97,108" text-anchor="start" x="21.0" y="107.0" font-family="sans-serif" font-size="10px" fill="#000" opacity="1">Zambian</text>
<text aria-label="21,54,113,124" text-anchor="start" x="21.0" y="123.0" font-family="sans-serif" font-size="10px" fill="#000" opacity="1">salmon</text>
<text aria-label="5,29,32,44" text-anchor="start" x="5.0" y="43.0" font-family="sans-serif" font-size="11px" font-weight="bold" fill="#000" opacity="1">stag</text>
</svg>