<svg xmlns="http://www.w3.org/2000/svg" xmlns:xlink="http://www.w3.org/1999/xlink" version="1.1" class="marks" width="325" height="239" viewBox="0 0 325 239" style="background-color: rgb(255, 255, 255);">
<text aria-label="5,213,0,26" text-anchor="start" x="5.0" y="25.0" font-family="monospace" font-size="25px" font-weight="bold" fill="#000" opacity="1">Architect kelvin</text>
<path aria-label="Congo: 401; black compressing: distributed" role="graphics-symbol" aria-roledescription="arc mark"  d="M148.1413488596216,112.52130692324619A75,75,0,1,0,238.47945000298773,61.31224361980158L232.31963333532514,85.54149574653438A50,50,0,1,1,172.09423257308106,119.68087128216412Z" fill="#acffab" stroke="white" stroke-width="3"/>
<path aria-label="Congo: 21; black compressing: Games" role="graphics-symbol" aria-roledescription="arc mark"  d="M238.47945000298773,61.31224361980158A75,75,0,0,0,220.0,59.0L220.0,84.0A50,50,0,0,1,232.31963333532514,85.54149574653438Z" fill="#cdaf4a" stroke="white" stroke-width="3"/>
<path aria-label="Congo: 108; black compressing: engineer" role="graphics-symbol" aria-roledescription="arc mark"  d="M220.0,59.0A75,75,0,0,0,148.1413488596216,112.52130692324619L172.09423257308106,119.68087128216412A50,50,0,0,1,220.0,84.0Z" fill="#1cf175" stroke="white" stroke-width="3"/>
<path  d="M16.0,56.0A5,5,0,1,1,6.0,56.0A5,5,0,1,1,16.0,56.0" fill="#cdaf4a" stroke="white" stroke-width="1.5" opacity="1"/>
<path  d="M16.0,72.0A5,5,0,1,1,6.0,72.0A5,5,0,1,1,16.0,72.0" fill="#acffab" stroke="white" stroke-width="1.5" opacity="1"/>
<path  d="M16.0,88.0A5,5,0,1,1,6.0,88.0A5,5,0,1,1,16.0,88.0" fill="#1cf175" stroke="white" stroke-width="1.5" opacity="1"/>
<text aria-label="21,48,49,60" text-anchor="start" x="21.0" y="59.0" font-family="monospace" font-size="10px" fill="#000" opacity="1">Games</text>
<text aria-label="21,81,65,76" text-anchor="start" x="21.0" y="75.0" font-family="monospace" font-size="10px" fill="#000" opacity="1">distributed</text>
<text aria-label="21,65,81,92" text-anchor="start" x="21.0" y="91.0" font-family="monospace" font-size="10px" fill="#000" opacity="1">engineer</text>
<text aria-label="5,107,32,44" text-anchor="start" x="5.0" y="43.0" font-family="monospace" font-size="11px" font-weight="bold" fill="#000" opacity="1">black compressing</text>
</svg>