<svg xmlns="http://www.w3.org/2000/svg" xmlns:xlink="http://www.w3.org/1999/xlink" version="1.1" class="marks" width="341" height="239" viewBox="0 0 341 239" style="background-color: rgb(255, 255, 255);">
<text aria-label="59,332,0,26" text-anchor="middle" x="196.0" y="25.0" font-family="sans-serif" font-size="25px" font-weight="bold" fill="#000" opacity="1">West yippee incarnate</text>
<path aria-label="female: 182; Accountability withdrawal: Tasty" role="graphics-symbol" aria-roledescription="arc mark"  d="M185.7066395920798,208.29028692576617A75,75,0,0,0,259.16312920112586,174.44031539839773L196.0,134.0Z" fill="#9dcc66" stroke="black" stroke-width="0"/>
<path aria-label="female: 187; Accountability withdrawal: ivory" role="graphics-symbol" aria-roledescription="arc mark"  d="M121.33020766969419,126.96991370259191A75,75,0,0,0,160.4126231117096,200.01922906404445L196.0,134.0Z" fill="#48b9b6" stroke="black" stroke-width="0"/>
<path aria-label="female: 57; Accountability withdrawal: indexing" role="graphics-symbol" aria-roledescription="arc mark"  d="M160.4126231117096,200.01922906404445A75,75,0,0,0,185.7066395920798,208.29028692576617L196.0,134.0Z" fill="#aabec2" stroke="black" stroke-width="0"/>
<path aria-label="female: 113; Accountability withdrawal: Soap" role="graphics-symbol" aria-roledescription="arc mark"  d="M259.16312920112586,174.44031539839773A75,75,0,0,0,270.29028692576617,123.70663959207978L196.0,134.0Z" fill="#f7b84a" stroke="black" stroke-width="0"/>
<path aria-label="female: 88; Accountability withdrawal: melodic" role="graphics-symbol" aria-roledescription="arc mark"  d="M136.04902339514467,88.93470954133227A75,75,0,0,0,121.33020766969419,126.96991370259191L196.0,134.0Z" fill="#fcd7e1" stroke="black" stroke-width="0"/>
<path aria-label="female: 148; Accountability withdrawal: psst" role="graphics-symbol" aria-roledescription="arc mark"  d="M196.0,59.0A75,75,0,0,0,136.04902339514467,88.93470954133227L196.0,134.0Z" fill="#f516f9" stroke="black" stroke-width="0"/>
<path aria-label="female: 63; Accountability withdrawal: Interactions" role="graphics-symbol" aria-roledescription="arc mark"  d="M270.29028692576617,123.70663959207978A75,75,0,0,0,260.6367401311624,95.95933984252409L196.0,134.0Z" fill="#c9ee1e" stroke="black" stroke-width="0"/>
<path aria-label="female: 166; Accountability withdrawal: Folk" role="graphics-symbol" aria-roledescription="arc mark"  d="M260.6367401311624,95.95933984252409A75,75,0,0,0,196.0,59.0L196.0,134.0Z" fill="#dafebd" stroke="black" stroke-width="0"/>
<text aria-label="223,243,207,220" role="graphics-symbol" aria-roledescription="text mark" text-anchor="middle" x="233.6665884952997" y="219.7387797261848" font-family="sans-serif" font-size="12px" fill="#9dcc66" opacity="1">182</text>
<text aria-label="106,126,168,181" role="graphics-symbol" aria-roledescription="text mark" text-anchor="middle" x="116.64368643897929" y="180.45674855667778" font-family="sans-serif" font-size="12px" fill="#48b9b6" opacity="1">187</text>
<text aria-label="161,174,211,224" role="graphics-symbol" aria-roledescription="text mark" text-anchor="middle" x="168.02781947937376" y="223.54272100489612" font-family="sans-serif" font-size="12px" fill="#aabec2" opacity="1">57</text>
<text aria-label="274,293,145,158" role="graphics-symbol" aria-roledescription="text mark" text-anchor="middle" x="283.9104378767295" y="157.28094687305799" font-family="sans-serif" font-size="12px" fill="#f7b84a" opacity="1">113</text>
<text aria-label="105,118,93,106" role="graphics-symbol" aria-roledescription="text mark" text-anchor="middle" x="112.06553659942902" y="105.5191463526863" font-family="sans-serif" font-size="12px" fill="#fcd7e1" opacity="1">88</text>
<text aria-label="146,165,45,58" role="graphics-symbol" aria-roledescription="text mark" text-anchor="middle" x="155.79459843215164" y="57.47965670237082" font-family="sans-serif" font-size="12px" fill="#f516f9" opacity="1">148</text>
<text aria-label="274,287,96,109" role="graphics-symbol" aria-roledescription="text mark" text-anchor="middle" x="281.00251370692854" y="108.42682527182063" font-family="sans-serif" font-size="12px" fill="#c9ee1e" opacity="1">63</text>
<text aria-label="230,250,47,60" role="graphics-symbol" aria-roledescription="text mark" text-anchor="middle" x="240.67442614624503" y="59.87064797079334" font-family="sans-serif" font-size="12px" fill="#dafebd" opacity="1">166</text>
<path  d="M16.0,40.0A5,5,0,1,1,6.0,40.0A5,5,0,1,1,16.0,40.0" fill="#dafebd" stroke="black" stroke-width="1.5" opacity="1"/>
<path  d="M16.0,56.0A5,5,0,1,1,6.0,56.0A5,5,0,1,1,16.0,56.0" fill="#c9ee1e" stroke="black" stroke-width="1.5" opacity="1"/>
<path  d="M16.0,72.0A5,5,0,1,1,6.0,72.0A5,5,0,1,1,16.0,72.0" fill="#f7b84a" stroke="black" stroke-width="1.5" opacity="1"/>
<path  d="M16.0,88.0A5,5,0,1,1,6.0,88.0A5,5,0,1,1,16.0,88.0" fill="#9dcc66" stroke="black" stroke-width="1.5" opacity="1"/>
<path  d="M16.0,104.0A5,5,0,1,1,6.0,104.0A5,5,0,1,1,16.0,104.0" fill="#aabec2" stroke="black" stroke-width="1.5" opacity="1"/>
<path  d="M16.0,120.0A5,5,0,1,1,6.0,120.0A5,5,0,1,1,16.0,120.0" fill="#48b9b6" stroke="black" stroke-width="1.5" opacity="1"/>
<path  d="M16.0,136.0A5,5,0,1,1,6.0,136.0A5,5,0,1,1,16.0,136.0" fill="#fcd7e1" stroke="black" stroke-width="1.5" opacity="1"/>
<path  d="M16.0,152.0A5,5,0,1,1,6.0,152.0A5,5,0,1,1,16.0,152.0" fill="#f516f9" stroke="black" stroke-width="1.5" opacity="1"/>
<text aria-label="21,43,33,44" text-anchor="start" x="21.0" y="43.0" font-family="sans-serif" font-size="10px" fill="#000" opacity="1">Folk</text>
<text aria-label="21,87,49,60" text-anchor="start" x="21.0" y="59.0" font-family="sans-serif" font-size="10px" fill="#000" opacity="1">Interactions</text>
<text aria-label="21,43,65,76" text-anchor="start" x="21.0" y="75.0" font-family="sans-serif" font-size="10px" fill="#000" opacity="1">Soap</text>
<text aria-label="21,48,81,92" text-anchor="start" x="21.0" y="91.0" font-family="sans-serif" font-size="10px" fill="#000" opacity="1">Tasty</text>
<text aria-label="21,65,97,108" text-anchor="start" x="21.0" y="107.0" font-family="sans-serif" font-size="10px" fill="#000" opacity="1">indexing</text>
<text aria-label="21,48,113,124" text-anchor="start" x="21.0" y="123.0" font-family="sans-serif" font-size="10px" fill="#000" opacity="1">ivory</text>
<text aria-label="21,59,129,140" text-anchor="start" x="21.0" y="139.0" font-family="sans-serif" font-size="10px" fill="#000" opacity="1">melodic</text>
<text aria-label="21,43,145,156" text-anchor="start" x="21.0" y="155.0" font-family="sans-serif" font-size="10px" fill="#000" opacity="1">psst</text>
</svg>