<svg xmlns="http://www.w3.org/2000/svg" xmlns:xlink="http://www.w3.org/1999/xlink" version="1.1" class="marks" width="326" height="239" viewBox="0 0 326 239" style="background-color: rgb(255, 255, 255);">
<text aria-label="191,321,0,26" text-anchor="end" x="321.0" y="25.0" font-family="Balto" font-size="25px" font-weight="bold" fill="#000" opacity="1">Consultant</text>
<path aria-label="kilogram: 49; Dobra scale: virtual" role="graphics-symbol" aria-roledescription="arc mark"  d="M221.0,59.0A75,75,0,0,0,166.33591033989853,82.64985587525203L178.72643732952153,94.28922187686157A58,58,0,0,1,221.0,76.0Z" fill="#0f069f" stroke="black" stroke-width="2"/>
<path aria-label="kilogram: 25; Dobra scale: haunt" role="graphics-symbol" aria-roledescription="arc mark"  d="M207.94219416377325,207.8545442524927A75,75,0,0,0,238.9486748215668,206.8206363069539L234.88030852867834,190.31462541071102A58,58,0,0,1,210.9019634866513,191.11418088859435Z" fill="#4cfebf" stroke="black" stroke-width="2"/>
<path aria-label="kilogram: 49; Dobra scale: bypass" role="graphics-symbol" aria-roledescription="arc mark"  d="M238.9486748215668,206.8206363069539A75,75,0,0,0,286.36454441499546,170.77602933189073L271.54858101426316,162.4401293499955A58,58,0,0,1,234.88030852867834,190.31462541071102Z" fill="#2d89df" stroke="black" stroke-width="2"/>
<path aria-label="kilogram: 25; Dobra scale: support" role="graphics-symbol" aria-roledescription="arc mark"  d="M166.33591033989853,82.64985587525203A75,75,0,0,0,150.2308948202065,109.16587525095113L166.27189199429301,114.79494352740221A58,58,0,0,1,178.72643732952153,94.28922187686157Z" fill="#becb45" stroke="black" stroke-width="2"/>
<path aria-label="kilogram: 56; Dobra scale: silver" role="graphics-symbol" aria-roledescription="arc mark"  d="M150.2308948202065,109.16587525095113A75,75,0,0,0,158.92332513823322,176.08902990217868L172.99403810690035,166.5488497910182A58,58,0,0,1,166.27189199429301,114.79494352740221Z" fill="#bd7f7d" stroke="black" stroke-width="2"/>
<path aria-label="kilogram: 29; Dobra scale: South" role="graphics-symbol" aria-roledescription="arc mark"  d="M289.9575628479431,104.5067037096228A75,75,0,0,0,268.35267133198033,75.83880574020641L257.61939916339816,89.02200977242629A58,58,0,0,1,274.32718193574266,111.19185086877496Z" fill="#0ff8b5" stroke="black" stroke-width="2"/>
<path aria-label="kilogram: 31; Dobra scale: North" role="graphics-symbol" aria-roledescription="arc mark"  d="M268.35267133198033,75.83880574020641A75,75,0,0,0,233.44191955073725,60.039208779969215L230.62175111923682,76.80365478984285A58,58,0,0,1,257.61939916339816,89.02200977242629Z" fill="#fee6c1" stroke="black" stroke-width="2"/>
<path aria-label="kilogram: 10; Dobra scale: Buckinghamshire" role="graphics-symbol" aria-roledescription="arc mark"  d="M233.44191955073725,60.039208779969215A75,75,0,0,0,221.0,59.0L221.0,76.0A58,58,0,0,1,230.62175111923682,76.80365478984285Z" fill="#eadc1b" stroke="black" stroke-width="2"/>
<path aria-label="kilogram: 48; Dobra scale: microchip" role="graphics-symbol" aria-roledescription="arc mark"  d="M158.92332513823322,176.08902990217868A75,75,0,0,0,207.94219416377325,207.8545442524927L210.9019634866513,191.11418088859435A58,58,0,0,1,172.99403810690035,166.5488497910182Z" fill="#bda0c6" stroke="black" stroke-width="2"/>
<path aria-label="kilogram: 55; Dobra scale: Zambia" role="graphics-symbol" aria-roledescription="arc mark"  d="M286.36454441499546,170.77602933189073A75,75,0,0,0,289.9575628479431,104.5067037096228L274.32718193574266,111.19185086877496A58,58,0,0,1,271.54858101426316,162.4401293499955Z" fill="#daeb7c" stroke="black" stroke-width="2"/>
<path  d="M16.0,56.0A5,5,0,1,1,6.0,56.0A5,5,0,1,1,16.0,56.0" fill="#eadc1b" stroke="black" stroke-width="1.5" opacity="1"/>
<path  d="M16.0,72.0A5,5,0,1,1,6.0,72.0A5,5,0,1,1,16.0,72.0" fill="#fee6c1" stroke="black" stroke-width="1.5" opacity="1"/>
<path  d="M16.0,88.0A5,5,0,1,1,6.0,88.0A5,5,0,1,1,16.0,88.0" fill="#0ff8b5" stroke="black" stroke-width="1.5" opacity="1"/>
<path  d="M16.0,104.0A5,5,0,1,1,6.0,104.0A5,5,0,1,1,16.0,104.0" fill="#daeb7c" stroke="black" stroke-width="1.5" opacity="1"/>
<path  d="M16.0,120.0A5,5,0,1,1,6.0,120.0A5,5,0,1,1,16.0,120.0" fill="#2d89df" stroke="black" stroke-width="1.5" opacity="1"/>
<path  d="M16.0,136.0A5,5,0,1,1,6.0,136.0A5,5,0,1,1,16.0,136.0" fill="#4cfebf" stroke="black" stroke-width="1.5" opacity="1"/>
<path  d="M16.0,152.0A5,5,0,1,1,6.0,152.0A5,5,0,1,1,16.0,152.0" fill="#bda0c6" stroke="black" stroke-width="1.5" opacity="1"/>
<path  d="M16.0,168.0A5,5,0,1,1,6.0,168.0A5,5,0,1,1,16.0,168.0" fill="#bd7f7d" stroke="black" stroke-width="1.5" opacity="1"/>
<path  d="M16.0,184.0A5,5,0,1,1,6.0,184.0A5,5,0,1,1,16.0,184.0" fill="#becb45" stroke="black" stroke-width="1.5" opacity="1"/>
<path  d="M16.0,200.0A5,5,0,1,1,6.0,200.0A5,5,0,1,1,16.0,200.0" fill="#0f069f" stroke="black" stroke-width="1.5" opacity="1"/>
<text aria-label="21,103,49,60" text-anchor="start" x="21.0" y="59.0" font-family="Balto" font-size="10px" fill="#000" opacity="1">Buckinghamshire</text>
<text aria-label="21,48,65,76" text-anchor="start" x="21.0" y="75.0" font-family="Balto" font-size="10px" fill="#000" opacity="1">North</text>
<text aria-label="21,48,81,92" text-anchor="start" x="21.0" y="91.0" font-family="Balto" font-size="10px" fill="#000" opacity="1">South</text>
<text aria-label="21,54,97,108" text-anchor="start" x="21.0" y="107.0" font-family="Balto" font-size="10px" fill="#000" opacity="1">Zambia</text>
<text aria-label="21,54,113,124" text-anchor="start" x="21.0" y="123.0" font-family="Balto" font-size="10px" fill="#000" opacity="1">bypass</text>
<text aria-label="21,48,129,140" text-anchor="start" x="21.0" y="139.0" font-family="Balto" font-size="10px" fill="#000" opacity="1">haunt</text>
<text aria-label="21,70,145,156" text-anchor="start" x="21.0" y="155.0" font-family="Balto" font-size="10px" fill="#000" opacity="1">microchip</text>
<text aria-label="21,54,161,172" text-anchor="start" x="21.0" y="171.0" font-family="Balto" font-size="10px" fill="#000" opacity="1">silver</text>
<text aria-label="21,59,177,188" text-anchor="start" x="21.0" y="187.0" font-family="Balto" font-size="10px" fill="#000" opacity="1">support</text>
<text aria-label="21,59,193,204" text-anchor="start" x="21.0" y="203.0" font-family="Balto" font-size="10px" fill="#000" opacity="1">virtual</text>
<text aria-label="5,71,32,44" text-anchor="start" x="5.0" y="43.0" font-family="Balto" font-size="11px" font-weight="bold" fill="#000" opacity="1">Dobra scale</text>
</svg>