<svg xmlns="http://www.w3.org/2000/svg" xmlns:xlink="http://www.w3.org/1999/xlink" version="1.1" class="marks" width="413" height="286" viewBox="0 0 413 286" style="background-color: rgb(255, 255, 255);">
<text aria-label="11,219,0,26" text-anchor="middle" x="115.0" y="25.0" font-family="sans-serif" font-size="25px" font-weight="bold" fill="#000" opacity="1">wheel sidestream</text>
<path aria-label="North solemnly salmon: 92; cleverly: Response" role="graphics-symbol" aria-roledescription="arc mark"  d="M189.63546463964533,126.61437761429337A75,75,0,0,0,187.09530346130214,113.32955687889694L169.79243063058962,118.29046322796168A57,57,0,0,1,171.72295312613045,128.38692698686296Z" fill="#5e4ff4" stroke="black" stroke-width="2"/>
<path aria-label="North solemnly salmon: 524; cleverly: Utah" role="graphics-symbol" aria-roledescription="arc mark"  d="M159.8426377217565,194.11769990739253A75,75,0,0,0,189.63546463964533,126.61437761429337L171.72295312613045,128.38692698686296A57,57,0,0,1,149.08040466853492,179.68945192961831Z" fill="#5be1b3" stroke="black" stroke-width="2"/>
<path aria-label="North solemnly salmon: 572; cleverly: unlike" role="graphics-symbol" aria-roledescription="arc mark"  d="M114.99999999999999,59.0A75,75,0,0,0,47.40226137093758,101.51083669533853L63.625718641912556,109.30823588845729A57,57,0,0,1,114.99999999999999,77.0Z" fill="#f7bb14" stroke="black" stroke-width="2"/>
<path aria-label="North solemnly salmon: 719; cleverly: systems" role="graphics-symbol" aria-roledescription="arc mark"  d="M47.40226137093758,101.51083669533853A75,75,0,0,0,72.18802077794913,195.58030882587943L82.46289579124134,180.80103470766838A57,57,0,0,1,63.625718641912556,109.30823588845729Z" fill="#cad17d" stroke="black" stroke-width="2"/>
<path aria-label="North solemnly salmon: 658; cleverly: Funk" role="graphics-symbol" aria-roledescription="arc mark"  d="M187.09530346130214,113.32955687889694A75,75,0,0,0,115.0,59.0L115.0,77.0A57,57,0,0,1,169.79243063058962,118.29046322796168Z" fill="#c17fd0" stroke="black" stroke-width="2"/>
<path aria-label="North solemnly salmon: 613; cleverly: West" role="graphics-symbol" aria-roledescription="arc mark"  d="M75.01082072115463,197.44970875113899A75,75,0,0,0,159.8426377217565,194.11769990739253L149.08040466853492,179.68945192961831A57,57,0,0,1,84.60822374807752,182.22177865086564Z" fill="#58abc6" stroke="black" stroke-width="2"/>
<path aria-label="North solemnly salmon: 23; cleverly: orchid" role="graphics-symbol" aria-roledescription="arc mark"  d="M72.18802077794913,195.58030882587943A75,75,0,0,0,75.01082072115463,197.44970875113899L84.60822374807752,182.22177865086564A57,57,0,0,1,82.46289579124134,180.80103470766838Z" fill="#e5ac3a" stroke="black" stroke-width="2"/>
<path  d="M26.0,274.25A5,5,0,1,1,16.0,274.25A5,5,0,1,1,26.0,274.25" fill="#c17fd0" stroke="black" stroke-width="1.5" opacity="1"/>
<path  d="M77.0,274.25A5,5,0,1,1,67.0,274.25A5,5,0,1,1,77.0,274.25" fill="#5e4ff4" stroke="black" stroke-width="1.5" opacity="1"/>
<path  d="M150.0,274.25A5,5,0,1,1,140.0,274.25A5,5,0,1,1,150.0,274.25" fill="#5be1b3" stroke="black" stroke-width="1.5" opacity="1"/>
<path  d="M200.0,274.25A5,5,0,1,1,190.0,274.25A5,5,0,1,1,200.0,274.25" fill="#58abc6" stroke="black" stroke-width="1.5" opacity="1"/>
<path  d="M251.0,274.25A5,5,0,1,1,241.0,274.25A5,5,0,1,1,251.0,274.25" fill="#e5ac3a" stroke="black" stroke-width="1.5" opacity="1"/>
<path  d="M309.0,274.25A5,5,0,1,1,299.0,274.25A5,5,0,1,1,309.0,274.25" fill="#cad17d" stroke="black" stroke-width="1.5" opacity="1"/>
<path  d="M374.0,274.25A5,5,0,1,1,364.0,274.25A5,5,0,1,1,374.0,274.25" fill="#f7bb14" stroke="black" stroke-width="1.5" opacity="1"/>
<text aria-label="31,53,267,278" text-anchor="start" x="31.0" y="277.25" font-family="sans-serif" font-size="10px" fill="#000" opacity="1">Funk</text>
<text aria-label="82,126,267,278" text-anchor="start" x="82.0" y="277.25" font-family="sans-serif" font-size="10px" fill="#000" opacity="1">Response</text>
<text aria-label="155,177,267,278" text-anchor="start" x="155.0" y="277.25" font-family="sans-serif" font-size="10px" fill="#000" opacity="1">Utah</text>
<text aria-label="205,227,267,278" text-anchor="start" x="205.0" y="277.25" font-family="sans-serif" font-size="10px" fill="#000" opacity="1">West</text>
<text aria-label="256,289,267,278" text-anchor="start" x="256.0" y="277.25" font-family="sans-serif" font-size="10px" fill="#000" opacity="1">orchid</text>
<text aria-label="314,352,267,278" text-anchor="start" x="314.0" y="277.25" font-family="sans-serif" font-size="10px" fill="#000" opacity="1">systems</text>
<text aria-label="379,412,267,278" text-anchor="start" x="379.0" y="277.25" font-family="sans-serif" font-size="10px" fill="#000" opacity="1">unlike</text>
<text aria-label="15,63,250,262" text-anchor="start" x="15.0" y="261.0" font-family="sans-serif" font-size="11px" font-weight="bold" fill="#000" opacity="1">cleverly</text>
</svg>