<svg xmlns="http://www.w3.org/2000/svg" xmlns:xlink="http://www.w3.org/1999/xlink" version="1.1" class="marks" width="861" height="324" viewBox="0 0 861 324" style="background-color: rgb(255, 255, 255);">
<line x1="45.5" y1="34.5" x2="45.5" y2="234.5" stroke="#D0D0D0" stroke-width="1" stroke-dasharray="1,0" opacity="1"/>
<line x1="75.5" y1="34.5" x2="75.5" y2="234.5" stroke="#D0D0D0" stroke-width="1" stroke-dasharray="1,0" opacity="1"/>
<line x1="105.5" y1="34.5" x2="105.5" y2="234.5" stroke="#D0D0D0" stroke-width="1" stroke-dasharray="1,0" opacity="1"/>
<line x1="135.5" y1="34.5" x2="135.5" y2="234.5" stroke="#D0D0D0" stroke-width="1" stroke-dasharray="1,0" opacity="1"/>
<line x1="165.5" y1="34.5" x2="165.5" y2="234.5" stroke="#D0D0D0" stroke-width="1" stroke-dasharray="1,0" opacity="1"/>
<line x1="195.5" y1="34.5" x2="195.5" y2="234.5" stroke="#D0D0D0" stroke-width="1" stroke-dasharray="1,0" opacity="1"/>
<line x1="225.5" y1="34.5" x2="225.5" y2="234.5" stroke="#D0D0D0" stroke-width="1" stroke-dasharray="1,0" opacity="1"/>
<line x1="255.5" y1="34.5" x2="255.5" y2="234.5" stroke="#D0D0D0" stroke-width="1" stroke-dasharray="1,0" opacity="1"/>
<line x1="286.5" y1="34.5" x2="286.5" y2="234.5" stroke="#D0D0D0" stroke-width="1" stroke-dasharray="1,0" opacity="1"/>
<line x1="316.5" y1="34.5" x2="316.5" y2="234.5" stroke="#D0D0D0" stroke-width="1" stroke-dasharray="1,0" opacity="1"/>
<line x1="346.5" y1="34.5" x2="346.5" y2="234.5" stroke="#D0D0D0" stroke-width="1" stroke-dasharray="1,0" opacity="1"/>
<line x1="376.5" y1="34.5" x2="376.5" y2="234.5" stroke="#D0D0D0" stroke-width="1" stroke-dasharray="1,0" opacity="1"/>
<line x1="406.5" y1="34.5" x2="406.5" y2="234.5" stroke="#D0D0D0" stroke-width="1" stroke-dasharray="1,0" opacity="1"/>
<line x1="436.5" y1="34.5" x2="436.5" y2="234.5" stroke="#D0D0D0" stroke-width="1" stroke-dasharray="1,0" opacity="1"/>
<line x1="466.5" y1="34.5" x2="466.5" y2="234.5" stroke="#D0D0D0" stroke-width="1" stroke-dasharray="1,0" opacity="1"/>
<line x1="496.5" y1="34.5" x2="496.5" y2="234.5" stroke="#D0D0D0" stroke-width="1" stroke-dasharray="1,0" opacity="1"/>
<line x1="527.5" y1="34.5" x2="527.5" y2="234.5" stroke="#D0D0D0" stroke-width="1" stroke-dasharray="1,0" opacity="1"/>
<line x1="557.5" y1="34.5" x2="557.5" y2="234.5" stroke="#D0D0D0" stroke-width="1" stroke-dasharray="1,0" opacity="1"/>
<line x1="587.5" y1="34.5" x2="587.5" y2="234.5" stroke="#D0D0D0" stroke-width="1" stroke-dasharray="1,0" opacity="1"/>
<line x1="617.5" y1="34.5" x2="617.5" y2="234.5" stroke="#D0D0D0" stroke-width="1" stroke-dasharray="1,0" opacity="1"/>
<line x1="647.5" y1="34.5" x2="647.5" y2="234.5" stroke="#D0D0D0" stroke-width="1" stroke-dasharray="1,0" opacity="1"/>
<line x1="677.5" y1="34.5" x2="677.5" y2="234.5" stroke="#D0D0D0" stroke-width="1" stroke-dasharray="1,0" opacity="1"/>
<line x1="707.5" y1="34.5" x2="707.5" y2="234.5" stroke="#D0D0D0" stroke-width="1" stroke-dasharray="1,0" opacity="1"/>
<line x1="737.5" y1="34.5" x2="737.5" y2="234.5" stroke="#D0D0D0" stroke-width="1" stroke-dasharray="1,0" opacity="1"/>
<line x1="30.5" y1="234.5" x2="753.5" y2="234.5" stroke="#D0D0D0" stroke-width="1" stroke-dasharray="1,0" opacity="1"/>
<line x1="30.5" y1="190.5" x2="753.5" y2="190.5" stroke="#D0D0D0" stroke-width="1" stroke-dasharray="1,0" opacity="1"/>
<line x1="30.5" y1="145.5" x2="753.5" y2="145.5" stroke="#D0D0D0" stroke-width="1" stroke-dasharray="1,0" opacity="1"/>
<line x1="30.5" y1="101.5" x2="753.5" y2="101.5" stroke="#D0D0D0" stroke-width="1" stroke-dasharray="1,0" opacity="1"/>
<line x1="30.5" y1="56.5" x2="753.5" y2="56.5" stroke="#D0D0D0" stroke-width="1" stroke-dasharray="1,0" opacity="1"/>
<text aria-label="35,49,241,262" text-anchor="end" x="45.06250000000002" y="241.5" transform="rotate(270.0, 49.06250000000002, 241.5)" font-family="sans-serif" font-size="13px" font-weight="bold" fill="#000" opacity="1">age</text>
<text aria-label="65,79,241,290" text-anchor="end" x="75.18750000000003" y="241.5" transform="rotate(270.0, 79.18750000000003, 241.5)" font-family="sans-serif" font-size="13px" font-weight="bold" fill="#000" opacity="1">booster</text>
<text aria-label="95,109,241,297" text-anchor="end" x="105.31250000000003" y="241.5" transform="rotate(270.0, 109.31250000000003, 241.5)" font-family="sans-serif" font-size="13px" font-weight="bold" fill="#000" opacity="1">bracelet</text>
<text aria-label="125,139,241,304" text-anchor="end" x="135.43750000000003" y="241.5" transform="rotate(270.0, 139.43750000000003, 241.5)" font-family="sans-serif" font-size="13px" font-weight="bold" fill="#000" opacity="1">education</text>
<text aria-label="155,169,241,297" text-anchor="end" x="165.56250000000003" y="241.5" transform="rotate(270.0, 169.56250000000003, 241.5)" font-family="sans-serif" font-size="13px" font-weight="bold" fill="#000" opacity="1">fedelini</text>
<text aria-label="185,199,241,283" text-anchor="end" x="195.68750000000003" y="241.5" transform="rotate(270.0, 199.68750000000003, 241.5)" font-family="sans-serif" font-size="13px" font-weight="bold" fill="#000" opacity="1">fondue</text>
<text aria-label="215,229,241,290" text-anchor="end" x="225.81250000000003" y="241.5" transform="rotate(270.0, 229.81250000000003, 241.5)" font-family="sans-serif" font-size="13px" font-weight="bold" fill="#000" opacity="1">freedom</text>
<text aria-label="245,259,241,311" text-anchor="end" x="255.93750000000003" y="241.5" transform="rotate(270.0, 259.9375, 241.5)" font-family="sans-serif" font-size="13px" font-weight="bold" fill="#000" opacity="1">greenhouse</text>
<text aria-label="276,290,241,283" text-anchor="end" x="286.0625" y="241.5" transform="rotate(270.0, 290.0625, 241.5)" font-family="sans-serif" font-size="13px" font-weight="bold" fill="#000" opacity="1">heater</text>
<text aria-label="306,320,241,269" text-anchor="end" x="316.1875" y="241.5" transform="rotate(270.0, 320.1875, 241.5)" font-family="sans-serif" font-size="13px" font-weight="bold" fill="#000" opacity="1">hype</text>
<text aria-label="336,350,241,276" text-anchor="end" x="346.3125" y="241.5" transform="rotate(270.0, 350.3125, 241.5)" font-family="sans-serif" font-size="13px" font-weight="bold" fill="#000" opacity="1">inbox</text>
<text aria-label="366,380,241,304" text-anchor="end" x="376.4375" y="241.5" transform="rotate(270.0, 380.4375, 241.5)" font-family="sans-serif" font-size="13px" font-weight="bold" fill="#000" opacity="1">metronome</text>
<text aria-label="396,410,241,304" text-anchor="end" x="406.5625" y="241.5" transform="rotate(270.0, 410.5625, 241.5)" font-family="sans-serif" font-size="13px" font-weight="bold" fill="#000" opacity="1">mezzanine</text>
<text aria-label="426,440,241,283" text-anchor="end" x="436.6875" y="241.5" transform="rotate(270.0, 440.6875, 241.5)" font-family="sans-serif" font-size="13px" font-weight="bold" fill="#000" opacity="1">neuron</text>
<text aria-label="456,470,241,290" text-anchor="end" x="466.8125" y="241.5" transform="rotate(270.0, 470.8125, 241.5)" font-family="sans-serif" font-size="13px" font-weight="bold" fill="#000" opacity="1">orchard</text>
<text aria-label="486,500,241,290" text-anchor="end" x="496.9375" y="241.5" transform="rotate(270.0, 500.9375, 241.5)" font-family="sans-serif" font-size="13px" font-weight="bold" fill="#000" opacity="1">pennant</text>
<text aria-label="517,531,241,276" text-anchor="end" x="527.0625" y="241.5" transform="rotate(270.0, 531.0625, 241.5)" font-family="sans-serif" font-size="13px" font-weight="bold" fill="#000" opacity="1">phone</text>
<text aria-label="547,561,241,290" text-anchor="end" x="557.1875" y="241.5" transform="rotate(270.0, 561.1875, 241.5)" font-family="sans-serif" font-size="13px" font-weight="bold" fill="#000" opacity="1">pinworm</text>
<text aria-label="577,591,241,262" text-anchor="end" x="587.3125" y="241.5" transform="rotate(270.0, 591.3125, 241.5)" font-family="sans-serif" font-size="13px" font-weight="bold" fill="#000" opacity="1">rap</text>
<text aria-label="607,621,241,311" text-anchor="end" x="617.4375" y="241.5" transform="rotate(270.0, 621.4375, 241.5)" font-family="sans-serif" font-size="13px" font-weight="bold" fill="#000" opacity="1">repository</text>
<text aria-label="637,651,241,290" text-anchor="end" x="647.5625" y="241.5" transform="rotate(270.0, 651.5625, 241.5)" font-family="sans-serif" font-size="13px" font-weight="bold" fill="#000" opacity="1">skyline</text>
<text aria-label="667,681,241,269" text-anchor="end" x="677.6875" y="241.5" transform="rotate(270.0, 681.6875, 241.5)" font-family="sans-serif" font-size="13px" font-weight="bold" fill="#000" opacity="1">snap</text>
<text aria-label="697,711,241,290" text-anchor="end" x="707.8125" y="241.5" transform="rotate(270.0, 711.8125, 241.5)" font-family="sans-serif" font-size="13px" font-weight="bold" fill="#000" opacity="1">tadpole</text>
<text aria-label="727,741,241,269" text-anchor="end" x="737.9375" y="241.5" transform="rotate(270.0, 741.9375, 241.5)" font-family="sans-serif" font-size="13px" font-weight="bold" fill="#000" opacity="1">vise</text>
<line aria-label="45,45,234,239" x1="45.5" y1="234.5" x2="45.5" y2="239.5" stroke="#888" stroke-width="1" opacity="1"/>
<line aria-label="75,75,234,239" x1="75.5" y1="234.5" x2="75.5" y2="239.5" stroke="#888" stroke-width="1" opacity="1"/>
<line aria-label="105,105,234,239" x1="105.5" y1="234.5" x2="105.5" y2="239.5" stroke="#888" stroke-width="1" opacity="1"/>
<line aria-label="135,135,234,239" x1="135.5" y1="234.5" x2="135.5" y2="239.5" stroke="#888" stroke-width="1" opacity="1"/>
<line aria-label="165,165,234,239" x1="165.5" y1="234.5" x2="165.5" y2="239.5" stroke="#888" stroke-width="1" opacity="1"/>
<line aria-label="195,195,234,239" x1="195.5" y1="234.5" x2="195.5" y2="239.5" stroke="#888" stroke-width="1" opacity="1"/>
<line aria-label="225,225,234,239" x1="225.5" y1="234.5" x2="225.5" y2="239.5" stroke="#888" stroke-width="1" opacity="1"/>
<line aria-label="255,255,234,239" x1="255.5" y1="234.5" x2="255.5" y2="239.5" stroke="#888" stroke-width="1" opacity="1"/>
<line aria-label="286,286,234,239" x1="286.5" y1="234.5" x2="286.5" y2="239.5" stroke="#888" stroke-width="1" opacity="1"/>
<line aria-label="316,316,234,239" x1="316.5" y1="234.5" x2="316.5" y2="239.5" stroke="#888" stroke-width="1" opacity="1"/>
<line aria-label="346,346,234,239" x1="346.5" y1="234.5" x2="346.5" y2="239.5" stroke="#888" stroke-width="1" opacity="1"/>
<line aria-label="376,376,234,239" x1="376.5" y1="234.5" x2="376.5" y2="239.5" stroke="#888" stroke-width="1" opacity="1"/>
<line aria-label="406,406,234,239" x1="406.5" y1="234.5" x2="406.5" y2="239.5" stroke="#888" stroke-width="1" opacity="1"/>
<line aria-label="436,436,234,239" x1="436.5" y1="234.5" x2="436.5" y2="239.5" stroke="#888" stroke-width="1" opacity="1"/>
<line aria-label="466,466,234,239" x1="466.5" y1="234.5" x2="466.5" y2="239.5" stroke="#888" stroke-width="1" opacity="1"/>
<line aria-label="496,496,234,239" x1="496.5" y1="234.5" x2="496.5" y2="239.5" stroke="#888" stroke-width="1" opacity="1"/>
<line aria-label="527,527,234,239" x1="527.5" y1="234.5" x2="527.5" y2="239.5" stroke="#888" stroke-width="1" opacity="1"/>
<line aria-label="557,557,234,239" x1="557.5" y1="234.5" x2="557.5" y2="239.5" stroke="#888" stroke-width="1" opacity="1"/>
<line aria-label="587,587,234,239" x1="587.5" y1="234.5" x2="587.5" y2="239.5" stroke="#888" stroke-width="1" opacity="1"/>
<line aria-label="617,617,234,239" x1="617.5" y1="234.5" x2="617.5" y2="239.5" stroke="#888" stroke-width="1" opacity="1"/>
<line aria-label="647,647,234,239" x1="647.5" y1="234.5" x2="647.5" y2="239.5" stroke="#888" stroke-width="1" opacity="1"/>
<line aria-label="677,677,234,239" x1="677.5" y1="234.5" x2="677.5" y2="239.5" stroke="#888" stroke-width="1" opacity="1"/>
<line aria-label="707,707,234,239" x1="707.5" y1="234.5" x2="707.5" y2="239.5" stroke="#888" stroke-width="1" opacity="1"/>
<line aria-label="737,737,234,239" x1="737.5" y1="234.5" x2="737.5" y2="239.5" stroke="#888" stroke-width="1" opacity="1"/>
<line aria-label="30,753,234,234" x1="30.5" y1="234.5" x2="753.5" y2="234.5" stroke="#888" stroke-width="1" opacity="1"/>
<text aria-label="5,226,0,26" text-anchor="start" x="5.12939453125" y="25.0" font-family="sans-serif" font-size="25px" font-weight="bold" fill="#000" opacity="1">amid South buffer</text>
<text aria-label="21,28,225,239" text-anchor="end" x="28.5" y="238.5" font-family="sans-serif" font-size="13px" font-weight="normal" fill="#000" opacity="1">0</text>
<text aria-label="7,28,181,195" text-anchor="end" x="28.5" y="194.05555555555557" font-family="sans-serif" font-size="13px" font-weight="normal" fill="#000" opacity="1">200</text>
<text aria-label="7,28,136,150" text-anchor="end" x="28.5" y="149.61111111111111" font-family="sans-serif" font-size="13px" font-weight="normal" fill="#000" opacity="1">400</text>
<text aria-label="7,28,92,106" text-anchor="end" x="28.5" y="105.16666666666667" font-family="sans-serif" font-size="13px" font-weight="normal" fill="#000" opacity="1">600</text>
<text aria-label="7,28,47,61" text-anchor="end" x="28.5" y="60.72222222222223" font-family="sans-serif" font-size="13px" font-weight="normal" fill="#000" opacity="1">800</text>
<path aria-label="Dale Checking up: fondue; Fork: 585; Coordinator: Beach Borders" role="graphics-symbol" aria-roledescription="bar" d="M188.909375,104.0h13.55625v130h-13.55625Z" fill="#c0eafb"/>
<path aria-label="Dale Checking up: orchard; Fork: 387; Coordinator: Beach Borders" role="graphics-symbol" aria-roledescription="bar" d="M460.034375,148.0h13.55625v85.99999999999999h-13.55625Z" fill="#c0eafb"/>
<path aria-label="Dale Checking up: pinworm; Fork: 291; Coordinator: Beach Borders" role="graphics-symbol" aria-roledescription="bar" d="M550.4093750000001,169.33333333333334h13.55625v64.66666666666666h-13.55625Z" fill="#c0eafb"/>
<path aria-label="Dale Checking up: snap; Fork: 639; Coordinator: Beach Borders" role="graphics-symbol" aria-roledescription="bar" d="M670.9093750000001,92.0h13.55625v142h-13.55625Z" fill="#c0eafb"/>
<path aria-label="Dale Checking up: skyline; Fork: 199; Coordinator: Beach Borders" role="graphics-symbol" aria-roledescription="bar" d="M640.7843750000001,189.77777777777777h13.55625v44.22222222222223h-13.55625Z" fill="#c0eafb"/>
<path aria-label="Dale Checking up: freedom; Fork: 107; Coordinator: Beach Borders" role="graphics-symbol" aria-roledescription="bar" d="M219.034375,210.2222222222222h13.55625v23.7777777777778h-13.55625Z" fill="#c0eafb"/>
<path aria-label="Dale Checking up: metronome; Fork: 481; Coordinator: Beach Borders" role="graphics-symbol" aria-roledescription="bar" d="M369.659375,127.1111111111111h13.55625v106.8888888888889h-13.55625Z" fill="#c0eafb"/>
<path aria-label="Dale Checking up: mezzanine; Fork: 330; Coordinator: Beach Borders" role="graphics-symbol" aria-roledescription="bar" d="M399.784375,160.66666666666666h13.55625v73.33333333333334h-13.55625Z" fill="#c0eafb"/>
<path aria-label="Dale Checking up: greenhouse; Fork: 499; Coordinator: Beach Borders" role="graphics-symbol" aria-roledescription="bar" d="M249.159375,123.11111111111111h13.55625v110.88888888888889h-13.55625Z" fill="#c0eafb"/>
<path aria-label="Dale Checking up: education; Fork: 892; Coordinator: Beach Borders" role="graphics-symbol" aria-roledescription="bar" d="M128.659375,35.777777777777764h13.55625v198.22222222222223h-13.55625Z" fill="#c0eafb"/>
<path aria-label="Dale Checking up: inbox; Fork: 406; Coordinator: Beach Borders" role="graphics-symbol" aria-roledescription="bar" d="M339.534375,143.77777777777777h13.55625v90.22222222222223h-13.55625Z" fill="#c0eafb"/>
<path aria-label="Dale Checking up: rap; Fork: 166; Coordinator: Beach Borders" role="graphics-symbol" aria-roledescription="bar" d="M580.5343750000001,197.11111111111111h13.55625v36.888888888888886h-13.55625Z" fill="#c0eafb"/>
<path aria-label="Dale Checking up: phone; Fork: 201; Coordinator: Beach Borders" role="graphics-symbol" aria-roledescription="bar" d="M520.284375,189.33333333333331h13.55625v44.666666666666686h-13.55625Z" fill="#c0eafb"/>
<path aria-label="Dale Checking up: booster; Fork: 16; Coordinator: Beach Borders" role="graphics-symbol" aria-roledescription="bar" d="M68.40937500000003,230.44444444444446h13.55625v3.555555555555543h-13.55625Z" fill="#c0eafb"/>
<path aria-label="Dale Checking up: age; Fork: 531; Coordinator: Beach Borders" role="graphics-symbol" aria-roledescription="bar" d="M38.284375000000026,116.0h13.55625v118h-13.55625Z" fill="#c0eafb"/>
<path aria-label="Dale Checking up: heater; Fork: 714; Coordinator: Beach Borders" role="graphics-symbol" aria-roledescription="bar" d="M279.284375,75.33333333333334h13.55625v158.66666666666666h-13.55625Z" fill="#c0eafb"/>
<path aria-label="Dale Checking up: hype; Fork: 694; Coordinator: Beach Borders" role="graphics-symbol" aria-roledescription="bar" d="M309.409375,79.77777777777779h13.55625v154.22222222222223h-13.55625Z" fill="#c0eafb"/>
<path aria-label="Dale Checking up: fedelini; Fork: 260; Coordinator: Beach Borders" role="graphics-symbol" aria-roledescription="bar" d="M158.784375,176.22222222222223h13.55625v57.77777777777777h-13.55625Z" fill="#c0eafb"/>
<path aria-label="Dale Checking up: neuron; Fork: 157; Coordinator: Beach Borders" role="graphics-symbol" aria-roledescription="bar" d="M429.909375,199.11111111111111h13.55625v34.888888888888886h-13.55625Z" fill="#c0eafb"/>
<path aria-label="Dale Checking up: pennant; Fork: 117; Coordinator: Beach Borders" role="graphics-symbol" aria-roledescription="bar" d="M490.159375,208.0h13.55625v26h-13.55625Z" fill="#c0eafb"/>
<path aria-label="Dale Checking up: bracelet; Fork: 392; Coordinator: Beach Borders" role="graphics-symbol" aria-roledescription="bar" d="M98.53437500000003,146.8888888888889h13.55625v87.1111111111111h-13.55625Z" fill="#c0eafb"/>
<path aria-label="Dale Checking up: tadpole; Fork: 166; Coordinator: Beach Borders" role="graphics-symbol" aria-roledescription="bar" d="M701.0343750000001,197.11111111111111h13.55625v36.888888888888886h-13.55625Z" fill="#c0eafb"/>
<path aria-label="Dale Checking up: vise; Fork: 68; Coordinator: Beach Borders" role="graphics-symbol" aria-roledescription="bar" d="M731.1593750000001,218.88888888888889h13.55625v15.111111111111114h-13.55625Z" fill="#c0eafb"/>
<path aria-label="Dale Checking up: repository; Fork: 713; Coordinator: Beach Borders" role="graphics-symbol" aria-roledescription="bar" d="M610.6593750000001,75.55555555555554h13.55625v158.44444444444446h-13.55625Z" fill="#c0eafb"/>
<path  d="M772.0,51.0h10v10h-10Z" fill="#c0eafb" stroke-width="1.5" opacity="1"/>
<text aria-label="787,858,49,60" text-anchor="start" x="787.0" y="59.0" font-family="sans-serif" font-size="10px" fill="#000" opacity="1">Beach Borders</text>
<text aria-label="771,837,32,44" text-anchor="start" x="771.0" y="43.0" font-family="sans-serif" font-size="11px" font-weight="bold" fill="#000" opacity="1">Coordinator</text>
</svg>