<svg xmlns="http://www.w3.org/2000/svg" xmlns:xlink="http://www.w3.org/1999/xlink" version="1.1" class="marks" width="786" height="319" viewBox="0 0 786 319" style="background-color: rgb(255, 255, 255);">
<line x1="62.5" y1="34.5" x2="62.5" y2="234.5" stroke="#D0D0D0" stroke-width="1" stroke-dasharray="1,0" opacity="1"/>
<line x1="84.5" y1="34.5" x2="84.5" y2="234.5" stroke="#D0D0D0" stroke-width="1" stroke-dasharray="1,0" opacity="1"/>
<line x1="106.5" y1="34.5" x2="106.5" y2="234.5" stroke="#D0D0D0" stroke-width="1" stroke-dasharray="1,0" opacity="1"/>
<line x1="128.5" y1="34.5" x2="128.5" y2="234.5" stroke="#D0D0D0" stroke-width="1" stroke-dasharray="1,0" opacity="1"/>
<line x1="150.5" y1="34.5" x2="150.5" y2="234.5" stroke="#D0D0D0" stroke-width="1" stroke-dasharray="1,0" opacity="1"/>
<line x1="172.5" y1="34.5" x2="172.5" y2="234.5" stroke="#D0D0D0" stroke-width="1" stroke-dasharray="1,0" opacity="1"/>
<line x1="194.5" y1="34.5" x2="194.5" y2="234.5" stroke="#D0D0D0" stroke-width="1" stroke-dasharray="1,0" opacity="1"/>
<line x1="216.5" y1="34.5" x2="216.5" y2="234.5" stroke="#D0D0D0" stroke-width="1" stroke-dasharray="1,0" opacity="1"/>
<line x1="238.5" y1="34.5" x2="238.5" y2="234.5" stroke="#D0D0D0" stroke-width="1" stroke-dasharray="1,0" opacity="1"/>
<line x1="259.5" y1="34.5" x2="259.5" y2="234.5" stroke="#D0D0D0" stroke-width="1" stroke-dasharray="1,0" opacity="1"/>
<line x1="281.5" y1="34.5" x2="281.5" y2="234.5" stroke="#D0D0D0" stroke-width="1" stroke-dasharray="1,0" opacity="1"/>
<line x1="303.5" y1="34.5" x2="303.5" y2="234.5" stroke="#D0D0D0" stroke-width="1" stroke-dasharray="1,0" opacity="1"/>
<line x1="325.5" y1="34.5" x2="325.5" y2="234.5" stroke="#D0D0D0" stroke-width="1" stroke-dasharray="1,0" opacity="1"/>
<line x1="347.5" y1="34.5" x2="347.5" y2="234.5" stroke="#D0D0D0" stroke-width="1" stroke-dasharray="1,0" opacity="1"/>
<line x1="369.5" y1="34.5" x2="369.5" y2="234.5" stroke="#D0D0D0" stroke-width="1" stroke-dasharray="1,0" opacity="1"/>
<line x1="391.5" y1="34.5" x2="391.5" y2="234.5" stroke="#D0D0D0" stroke-width="1" stroke-dasharray="1,0" opacity="1"/>
<line x1="413.5" y1="34.5" x2="413.5" y2="234.5" stroke="#D0D0D0" stroke-width="1" stroke-dasharray="1,0" opacity="1"/>
<line x1="435.5" y1="34.5" x2="435.5" y2="234.5" stroke="#D0D0D0" stroke-width="1" stroke-dasharray="1,0" opacity="1"/>
<line x1="456.5" y1="34.5" x2="456.5" y2="234.5" stroke="#D0D0D0" stroke-width="1" stroke-dasharray="1,0" opacity="1"/>
<line x1="478.5" y1="34.5" x2="478.5" y2="234.5" stroke="#D0D0D0" stroke-width="1" stroke-dasharray="1,0" opacity="1"/>
<line x1="500.5" y1="34.5" x2="500.5" y2="234.5" stroke="#D0D0D0" stroke-width="1" stroke-dasharray="1,0" opacity="1"/>
<line x1="522.5" y1="34.5" x2="522.5" y2="234.5" stroke="#D0D0D0" stroke-width="1" stroke-dasharray="1,0" opacity="1"/>
<line x1="544.5" y1="34.5" x2="544.5" y2="234.5" stroke="#D0D0D0" stroke-width="1" stroke-dasharray="1,0" opacity="1"/>
<line x1="566.5" y1="34.5" x2="566.5" y2="234.5" stroke="#D0D0D0" stroke-width="1" stroke-dasharray="1,0" opacity="1"/>
<line x1="588.5" y1="34.5" x2="588.5" y2="234.5" stroke="#D0D0D0" stroke-width="1" stroke-dasharray="1,0" opacity="1"/>
<line x1="610.5" y1="34.5" x2="610.5" y2="234.5" stroke="#D0D0D0" stroke-width="1" stroke-dasharray="1,0" opacity="1"/>
<line x1="632.5" y1="34.5" x2="632.5" y2="234.5" stroke="#D0D0D0" stroke-width="1" stroke-dasharray="1,0" opacity="1"/>
<line x1="52.5" y1="234.5" x2="643.5" y2="234.5" stroke="#D0D0D0" stroke-width="1" stroke-dasharray="1,0" opacity="1"/>
<line x1="52.5" y1="178.5" x2="643.5" y2="178.5" stroke="#D0D0D0" stroke-width="1" stroke-dasharray="1,0" opacity="1"/>
<line x1="52.5" y1="123.5" x2="643.5" y2="123.5" stroke="#D0D0D0" stroke-width="1" stroke-dasharray="1,0" opacity="1"/>
<line x1="52.5" y1="67.5" x2="643.5" y2="67.5" stroke="#D0D0D0" stroke-width="1" stroke-dasharray="1,0" opacity="1"/>
<text aria-label="52,66,241,276" text-anchor="end" x="62.944444444444436" y="241.5" transform="rotate(270.0, 66.94444444444443, 241.5)" font-family="sans-serif" font-size="13px" font-weight="normal" fill="#000" opacity="1">actor</text>
<text aria-label="74,88,241,297" text-anchor="end" x="84.83333333333331" y="241.5" transform="rotate(270.0, 88.83333333333331, 241.5)" font-family="sans-serif" font-size="13px" font-weight="normal" fill="#000" opacity="1">antennae</text>
<text aria-label="96,110,241,311" text-anchor="end" x="106.72222222222221" y="241.5" transform="rotate(270.0, 110.72222222222221, 241.5)" font-family="sans-serif" font-size="13px" font-weight="normal" fill="#000" opacity="1">assumption</text>
<text aria-label="118,132,241,269" text-anchor="end" x="128.6111111111111" y="241.5" transform="rotate(270.0, 132.6111111111111, 241.5)" font-family="sans-serif" font-size="13px" font-weight="normal" fill="#000" opacity="1">bark</text>
<text aria-label="140,154,241,283" text-anchor="end" x="150.5" y="241.5" transform="rotate(270.0, 154.5, 241.5)" font-family="sans-serif" font-size="13px" font-weight="normal" fill="#000" opacity="1">botany</text>
<text aria-label="162,176,241,269" text-anchor="end" x="172.38888888888886" y="241.5" transform="rotate(270.0, 176.38888888888886, 241.5)" font-family="sans-serif" font-size="13px" font-weight="normal" fill="#000" opacity="1">city</text>
<text aria-label="184,198,241,290" text-anchor="end" x="194.27777777777777" y="241.5" transform="rotate(270.0, 198.27777777777777, 241.5)" font-family="sans-serif" font-size="13px" font-weight="normal" fill="#000" opacity="1">element</text>
<text aria-label="206,220,241,269" text-anchor="end" x="216.16666666666666" y="241.5" transform="rotate(270.0, 220.16666666666666, 241.5)" font-family="sans-serif" font-size="13px" font-weight="normal" fill="#000" opacity="1">fame</text>
<text aria-label="228,242,241,290" text-anchor="end" x="238.05555555555554" y="241.5" transform="rotate(270.0, 242.05555555555554, 241.5)" font-family="sans-serif" font-size="13px" font-weight="normal" fill="#000" opacity="1">fashion</text>
<text aria-label="249,263,241,269" text-anchor="end" x="259.94444444444446" y="241.5" transform="rotate(270.0, 263.94444444444446, 241.5)" font-family="sans-serif" font-size="13px" font-weight="normal" fill="#000" opacity="1">fava</text>
<text aria-label="271,285,241,297" text-anchor="end" x="281.8333333333333" y="241.5" transform="rotate(270.0, 285.8333333333333, 241.5)" font-family="sans-serif" font-size="13px" font-weight="normal" fill="#000" opacity="1">flatboat</text>
<text aria-label="293,307,241,283" text-anchor="end" x="303.7222222222222" y="241.5" transform="rotate(270.0, 307.7222222222222, 241.5)" font-family="sans-serif" font-size="13px" font-weight="normal" fill="#000" opacity="1">health</text>
<text aria-label="315,329,241,283" text-anchor="end" x="325.61111111111114" y="241.5" transform="rotate(270.0, 329.61111111111114, 241.5)" font-family="sans-serif" font-size="13px" font-weight="normal" fill="#000" opacity="1">holder</text>
<text aria-label="337,351,241,283" text-anchor="end" x="347.5" y="241.5" transform="rotate(270.0, 351.5, 241.5)" font-family="sans-serif" font-size="13px" font-weight="normal" fill="#000" opacity="1">letter</text>
<text aria-label="359,373,241,269" text-anchor="end" x="369.3888888888889" y="241.5" transform="rotate(270.0, 373.3888888888889, 241.5)" font-family="sans-serif" font-size="13px" font-weight="normal" fill="#000" opacity="1">lode</text>
<text aria-label="381,395,241,297" text-anchor="end" x="391.27777777777777" y="241.5" transform="rotate(270.0, 395.27777777777777, 241.5)" font-family="sans-serif" font-size="13px" font-weight="normal" fill="#000" opacity="1">mattress</text>
<text aria-label="403,417,241,269" text-anchor="end" x="413.1666666666667" y="241.5" transform="rotate(270.0, 417.1666666666667, 241.5)" font-family="sans-serif" font-size="13px" font-weight="normal" fill="#000" opacity="1">need</text>
<text aria-label="425,439,241,283" text-anchor="end" x="435.0555555555556" y="241.5" transform="rotate(270.0, 439.0555555555556, 241.5)" font-family="sans-serif" font-size="13px" font-weight="normal" fill="#000" opacity="1">parade</text>
<text aria-label="446,460,241,290" text-anchor="end" x="456.94444444444446" y="241.5" transform="rotate(270.0, 460.94444444444446, 241.5)" font-family="sans-serif" font-size="13px" font-weight="normal" fill="#000" opacity="1">parsnip</text>
<text aria-label="468,482,241,290" text-anchor="end" x="478.83333333333337" y="241.5" transform="rotate(270.0, 482.83333333333337, 241.5)" font-family="sans-serif" font-size="13px" font-weight="normal" fill="#000" opacity="1">pursuit</text>
<text aria-label="490,504,241,276" text-anchor="end" x="500.72222222222223" y="241.5" transform="rotate(270.0, 504.72222222222223, 241.5)" font-family="sans-serif" font-size="13px" font-weight="normal" fill="#000" opacity="1">quart</text>
<text aria-label="512,526,241,304" text-anchor="end" x="522.6111111111111" y="241.5" transform="rotate(270.0, 526.6111111111111, 241.5)" font-family="sans-serif" font-size="13px" font-weight="normal" fill="#000" opacity="1">sculpture</text>
<text aria-label="534,548,241,269" text-anchor="end" x="544.5" y="241.5" transform="rotate(270.0, 548.5, 241.5)" font-family="sans-serif" font-size="13px" font-weight="normal" fill="#000" opacity="1">self</text>
<text aria-label="556,570,241,276" text-anchor="end" x="566.3888888888889" y="241.5" transform="rotate(270.0, 570.3888888888889, 241.5)" font-family="sans-serif" font-size="13px" font-weight="normal" fill="#000" opacity="1">still</text>
<text aria-label="578,592,241,311" text-anchor="end" x="588.2777777777778" y="241.5" transform="rotate(270.0, 592.2777777777778, 241.5)" font-family="sans-serif" font-size="13px" font-weight="normal" fill="#000" opacity="1">tabernacle</text>
<text aria-label="600,614,241,283" text-anchor="end" x="610.1666666666667" y="241.5" transform="rotate(270.0, 614.1666666666667, 241.5)" font-family="sans-serif" font-size="13px" font-weight="normal" fill="#000" opacity="1">turtle</text>
<text aria-label="622,636,241,290" text-anchor="end" x="632.0555555555555" y="241.5" transform="rotate(270.0, 636.0555555555555, 241.5)" font-family="sans-serif" font-size="13px" font-weight="normal" fill="#000" opacity="1">wedding</text>
<line aria-label="62,62,234,239" x1="62.5" y1="234.5" x2="62.5" y2="239.5" stroke="#888" stroke-width="1" opacity="1"/>
<line aria-label="84,84,234,239" x1="84.5" y1="234.5" x2="84.5" y2="239.5" stroke="#888" stroke-width="1" opacity="1"/>
<line aria-label="106,106,234,239" x1="106.5" y1="234.5" x2="106.5" y2="239.5" stroke="#888" stroke-width="1" opacity="1"/>
<line aria-label="128,128,234,239" x1="128.5" y1="234.5" x2="128.5" y2="239.5" stroke="#888" stroke-width="1" opacity="1"/>
<line aria-label="150,150,234,239" x1="150.5" y1="234.5" x2="150.5" y2="239.5" stroke="#888" stroke-width="1" opacity="1"/>
<line aria-label="172,172,234,239" x1="172.5" y1="234.5" x2="172.5" y2="239.5" stroke="#888" stroke-width="1" opacity="1"/>
<line aria-label="194,194,234,239" x1="194.5" y1="234.5" x2="194.5" y2="239.5" stroke="#888" stroke-width="1" opacity="1"/>
<line aria-label="216,216,234,239" x1="216.5" y1="234.5" x2="216.5" y2="239.5" stroke="#888" stroke-width="1" opacity="1"/>
<line aria-label="238,238,234,239" x1="238.5" y1="234.5" x2="238.5" y2="239.5" stroke="#888" stroke-width="1" opacity="1"/>
<line aria-label="259,259,234,239" x1="259.5" y1="234.5" x2="259.5" y2="239.5" stroke="#888" stroke-width="1" opacity="1"/>
<line aria-label="281,281,234,239" x1="281.5" y1="234.5" x2="281.5" y2="239.5" stroke="#888" stroke-width="1" opacity="1"/>
<line aria-label="303,303,234,239" x1="303.5" y1="234.5" x2="303.5" y2="239.5" stroke="#888" stroke-width="1" opacity="1"/>
<line aria-label="325,325,234,239" x1="325.5" y1="234.5" x2="325.5" y2="239.5" stroke="#888" stroke-width="1" opacity="1"/>
<line aria-label="347,347,234,239" x1="347.5" y1="234.5" x2="347.5" y2="239.5" stroke="#888" stroke-width="1" opacity="1"/>
<line aria-label="369,369,234,239" x1="369.5" y1="234.5" x2="369.5" y2="239.5" stroke="#888" stroke-width="1" opacity="1"/>
<line aria-label="391,391,234,239" x1="391.5" y1="234.5" x2="391.5" y2="239.5" stroke="#888" stroke-width="1" opacity="1"/>
<line aria-label="413,413,234,239" x1="413.5" y1="234.5" x2="413.5" y2="239.5" stroke="#888" stroke-width="1" opacity="1"/>
<line aria-label="435,435,234,239" x1="435.5" y1="234.5" x2="435.5" y2="239.5" stroke="#888" stroke-width="1" opacity="1"/>
<line aria-label="456,456,234,239" x1="456.5" y1="234.5" x2="456.5" y2="239.5" stroke="#888" stroke-width="1" opacity="1"/>
<line aria-label="478,478,234,239" x1="478.5" y1="234.5" x2="478.5" y2="239.5" stroke="#888" stroke-width="1" opacity="1"/>
<line aria-label="500,500,234,239" x1="500.5" y1="234.5" x2="500.5" y2="239.5" stroke="#888" stroke-width="1" opacity="1"/>
<line aria-label="522,522,234,239" x1="522.5" y1="234.5" x2="522.5" y2="239.5" stroke="#888" stroke-width="1" opacity="1"/>
<line aria-label="544,544,234,239" x1="544.5" y1="234.5" x2="544.5" y2="239.5" stroke="#888" stroke-width="1" opacity="1"/>
<line aria-label="566,566,234,239" x1="566.5" y1="234.5" x2="566.5" y2="239.5" stroke="#888" stroke-width="1" opacity="1"/>
<line aria-label="588,588,234,239" x1="588.5" y1="234.5" x2="588.5" y2="239.5" stroke="#888" stroke-width="1" opacity="1"/>
<line aria-label="610,610,234,239" x1="610.5" y1="234.5" x2="610.5" y2="239.5" stroke="#888" stroke-width="1" opacity="1"/>
<line aria-label="632,632,234,239" x1="632.5" y1="234.5" x2="632.5" y2="239.5" stroke="#888" stroke-width="1" opacity="1"/>
<line aria-label="52,643,234,234" x1="52.5" y1="234.5" x2="643.5" y2="234.5" stroke="#888" stroke-width="1" opacity="1"/>
<text aria-label="5,239,0,26" text-anchor="start" x="5.94873046875" y="25.0" font-family="sans-serif" font-size="25px" font-weight="bold" fill="#000" opacity="1">female experiences</text>
<text aria-label="38,45,225,239" text-anchor="end" x="45.5" y="238.5" font-family="sans-serif" font-size="13px" font-weight="bold" fill="#000" opacity="1">0</text>
<text aria-label="31,45,169,183" text-anchor="end" x="45.5" y="182.94444444444443" font-family="sans-serif" font-size="13px" font-weight="bold" fill="#000" opacity="1">50</text>
<text aria-label="24,45,114,128" text-anchor="end" x="45.5" y="127.38888888888889" font-family="sans-serif" font-size="13px" font-weight="bold" fill="#000" opacity="1">100</text>
<text aria-label="24,45,58,72" text-anchor="end" x="45.5" y="71.83333333333333" font-family="sans-serif" font-size="13px" font-weight="bold" fill="#000" opacity="1">150</text>
<line aria-label="47,52,234,234" x1="52.5" y1="234.5" x2="47.5" y2="234.5" stroke="#888" stroke-width="1" opacity="1"/>
<line aria-label="47,52,178,178" x1="52.5" y1="178.5" x2="47.5" y2="178.5" stroke="#888" stroke-width="1" opacity="1"/>
<line aria-label="47,52,123,123" x1="52.5" y1="123.5" x2="47.5" y2="123.5" stroke="#888" stroke-width="1" opacity="1"/>
<line aria-label="47,52,67,67" x1="52.5" y1="67.5" x2="47.5" y2="67.5" stroke="#888" stroke-width="1" opacity="1"/>
<text aria-label="3,15,122,146" text-anchor="middle" x="17.44873046875" y="134.5" transform="rotate(-90.0, 15.44873046875, 134.5)" font-family="sans-serif" font-size="11px" font-weight="bold" fill="#000" opacity="1">fuga</text>
<path aria-label="National: holder; fuga: 125; Bronze: Bicycle Chair ducimus" role="graphics-symbol" aria-roledescription="bar" d="M316.74611111111113,95.11111111111111h17.73v138.88888888888889h-17.73Z" fill="#ec2ba5"/>
<path aria-label="National: element; fuga: 145; Bronze: Bicycle Chair ducimus" role="graphics-symbol" aria-roledescription="bar" d="M185.4127777777778,72.88888888888889h17.73v161.11111111111111h-17.73Z" fill="#ec2ba5"/>
<path aria-label="National: antennae; fuga: 16; Bronze: Bicycle Chair ducimus" role="graphics-symbol" aria-roledescription="bar" d="M75.96833333333332,216.22222222222223h17.73v17.77777777777777h-17.73Z" fill="#ec2ba5"/>
<path aria-label="National: fashion; fuga: 129; Bronze: Bicycle Chair ducimus" role="graphics-symbol" aria-roledescription="bar" d="M229.19055555555556,90.66666666666666h17.73v143.33333333333334h-17.73Z" fill="#ec2ba5"/>
<path aria-label="National: city; fuga: 100; Bronze: Bicycle Chair ducimus" role="graphics-symbol" aria-roledescription="bar" d="M163.52388888888888,122.88888888888889h17.73v111.11111111111111h-17.73Z" fill="#ec2ba5"/>
<path aria-label="National: health; fuga: 82; Bronze: Bicycle Chair ducimus" role="graphics-symbol" aria-roledescription="bar" d="M294.8572222222222,142.8888888888889h17.73v91.1111111111111h-17.73Z" fill="#ec2ba5"/>
<path aria-label="National: botany; fuga: 131; Bronze: Bicycle Chair ducimus" role="graphics-symbol" aria-roledescription="bar" d="M141.635,88.44444444444446h17.73v145.55555555555554h-17.73Z" fill="#ec2ba5"/>
<path aria-label="National: sculpture; fuga: 154; Bronze: Bicycle Chair ducimus" role="graphics-symbol" aria-roledescription="bar" d="M513.7461111111111,62.8888888888889h17.73v171.11111111111111h-17.73Z" fill="#ec2ba5"/>
<path aria-label="National: fame; fuga: 96; Bronze: Bicycle Chair ducimus" role="graphics-symbol" aria-roledescription="bar" d="M207.30166666666668,127.33333333333333h17.73v106.66666666666667h-17.73Z" fill="#ec2ba5"/>
<path aria-label="National: actor; fuga: 26; Bronze: Bicycle Chair ducimus" role="graphics-symbol" aria-roledescription="bar" d="M54.079444444444434,205.11111111111111h17.73v28.888888888888886h-17.73Z" fill="#ec2ba5"/>
<path aria-label="National: still; fuga: 108; Bronze: Bicycle Chair ducimus" role="graphics-symbol" aria-roledescription="bar" d="M557.5238888888889,114.0h17.73v120h-17.73Z" fill="#ec2ba5"/>
<path aria-label="National: quart; fuga: 27; Bronze: Bicycle Chair ducimus" role="graphics-symbol" aria-roledescription="bar" d="M491.8572222222222,204.0h17.73v30h-17.73Z" fill="#ec2ba5"/>
<path aria-label="National: mattress; fuga: 78; Bronze: Bicycle Chair ducimus" role="graphics-symbol" aria-roledescription="bar" d="M382.41277777777776,147.33333333333331h17.73v86.66666666666667h-17.73Z" fill="#ec2ba5"/>
<path aria-label="National: letter; fuga: 37; Bronze: Bicycle Chair ducimus" role="graphics-symbol" aria-roledescription="bar" d="M338.635,192.8888888888889h17.73v41.111111111111086h-17.73Z" fill="#ec2ba5"/>
<path aria-label="National: fava; fuga: 68; Bronze: Bicycle Chair ducimus" role="graphics-symbol" aria-roledescription="bar" d="M251.07944444444445,158.44444444444446h17.73v75.55555555555556h-17.73Z" fill="#ec2ba5"/>
<path aria-label="National: wedding; fuga: 45; Bronze: Bicycle Chair ducimus" role="graphics-symbol" aria-roledescription="bar" d="M623.1905555555555,184.0h17.73v50h-17.73Z" fill="#ec2ba5"/>
<path aria-label="National: self; fuga: 64; Bronze: Bicycle Chair ducimus" role="graphics-symbol" aria-roledescription="bar" d="M535.635,162.88888888888889h17.73v71.11111111111111h-17.73Z" fill="#ec2ba5"/>
<path aria-label="National: flatboat; fuga: 20; Bronze: Bicycle Chair ducimus" role="graphics-symbol" aria-roledescription="bar" d="M272.96833333333336,211.77777777777777h17.73v22.22222222222223h-17.73Z" fill="#ec2ba5"/>
<path aria-label="National: tabernacle; fuga: 161; Bronze: Bicycle Chair ducimus" role="graphics-symbol" aria-roledescription="bar" d="M579.4127777777778,55.1111111111111h17.73v178.88888888888889h-17.73Z" fill="#ec2ba5"/>
<path aria-label="National: turtle; fuga: 83; Bronze: Bicycle Chair ducimus" role="graphics-symbol" aria-roledescription="bar" d="M601.3016666666667,141.77777777777777h17.73v92.22222222222223h-17.73Z" fill="#ec2ba5"/>
<path aria-label="National: bark; fuga: 5; Bronze: Bicycle Chair ducimus" role="graphics-symbol" aria-roledescription="bar" d="M119.7461111111111,228.44444444444443h17.73v5.555555555555571h-17.73Z" fill="#ec2ba5"/>
<path aria-label="National: need; fuga: 134; Bronze: Bicycle Chair ducimus" role="graphics-symbol" aria-roledescription="bar" d="M404.3016666666667,85.11111111111111h17.73v148.88888888888889h-17.73Z" fill="#ec2ba5"/>
<path aria-label="National: parsnip; fuga: 153; Bronze: Bicycle Chair ducimus" role="graphics-symbol" aria-roledescription="bar" d="M448.07944444444445,64.0h17.73v170h-17.73Z" fill="#ec2ba5"/>
<path aria-label="National: pursuit; fuga: 38; Bronze: Bicycle Chair ducimus" role="graphics-symbol" aria-roledescription="bar" d="M469.96833333333336,191.77777777777777h17.73v42.22222222222223h-17.73Z" fill="#ec2ba5"/>
<path aria-label="National: assumption; fuga: 29; Bronze: Bicycle Chair ducimus" role="graphics-symbol" aria-roledescription="bar" d="M97.85722222222222,201.77777777777777h17.73v32.22222222222223h-17.73Z" fill="#ec2ba5"/>
<path aria-label="National: lode; fuga: 71; Bronze: Bicycle Chair ducimus" role="graphics-symbol" aria-roledescription="bar" d="M360.5238888888889,155.11111111111114h17.73v78.88888888888887h-17.73Z" fill="#ec2ba5"/>
<path aria-label="National: parade; fuga: 166; Bronze: Bicycle Chair ducimus" role="graphics-symbol" aria-roledescription="bar" d="M426.1905555555556,49.55555555555554h17.73v184.44444444444446h-17.73Z" fill="#ec2ba5"/>
<path  d="M662.0,35.0h10v10h-10Z" fill="#ec2ba5" stroke-width="1.5" opacity="1"/>
<text aria-label="677,792,33,44" text-anchor="start" x="677.0" y="43.0" font-family="sans-serif" font-size="10px" fill="#000" opacity="1">Bicycle Chair ducimus</text>
</svg>