<svg class="main-svg" xmlns="http://www.w3.org/2000/svg" xmlns:xlink="http://www.w3.org/1999/xlink" width="805" height="600" style="" viewBox="0 0 805 600"><rect x="0" y="0" width="805" height="600" style="fill: rgb(255, 255, 255); fill-opacity: 1;"/><defs id="defs-080dee"><g class="clips"><clipPath id="clip080deexyplot" class="plotclip"><rect width="645" height="359"/></clipPath><clipPath class="axesclip" id="clip080deex"><rect x="80" y="0" width="645" height="600"/></clipPath><clipPath class="axesclip" id="clip080deey"><rect x="0" y="60" width="805" height="359"/></clipPath><clipPath class="axesclip" id="clip080deexy"><rect x="80" y="60" width="645" height="359"/></clipPath></g><g class="gradients"/><g class="patterns"/></defs><g class="bglayer"><rect class="bg" x="80" y="60" width="645" height="359" style="fill: rgb(51, 51, 51); fill-opacity: 1; stroke-width: 0;"/></g><g class="layer-below"><g class="imagelayer"/><g class="shapelayer"/></g><g class="cartesianlayer"><g class="subplot xy"><g class="layer-subplot"><g class="shapelayer"/><g class="imagelayer"/></g><g class="minor-gridlayer"><g class="x"/><g class="y"/></g><g class="gridlayer"><g class="x"><path class="xgrid crisp" transform="translate(90.75,0)" d="M0,60v359" style="stroke: rgb(116, 116, 116); stroke-opacity: 1; stroke-width: 1px;"/><path class="xgrid crisp" transform="translate(112.25,0)" d="M0,60v359" style="stroke: rgb(116, 116, 116); stroke-opacity: 1; stroke-width: 1px;"/><path class="xgrid crisp" transform="translate(133.75,0)" d="M0,60v359" style="stroke: rgb(116, 116, 116); stroke-opacity: 1; stroke-width: 1px;"/><path class="xgrid crisp" transform="translate(155.25,0)" d="M0,60v359" style="stroke: rgb(116, 116, 116); stroke-opacity: 1; stroke-width: 1px;"/><path class="xgrid crisp" transform="translate(176.75,0)" d="M0,60v359" style="stroke: rgb(116, 116, 116); stroke-opacity: 1; stroke-width: 1px;"/><path class="xgrid crisp" transform="translate(198.25,0)" d="M0,60v359" style="stroke: rgb(116, 116, 116); stroke-opacity: 1; stroke-width: 1px;"/><path class="xgrid crisp" transform="translate(219.75,0)" d="M0,60v359" style="stroke: rgb(116, 116, 116); stroke-opacity: 1; stroke-width: 1px;"/><path class="xgrid crisp" transform="translate(241.25,0)" d="M0,60v359" style="stroke: rgb(116, 116, 116); stroke-opacity: 1; stroke-width: 1px;"/><path class="xgrid crisp" transform="translate(262.75,0)" d="M0,60v359" style="stroke: rgb(116, 116, 116); stroke-opacity: 1; stroke-width: 1px;"/><path class="xgrid crisp" transform="translate(284.25,0)" d="M0,60v359" style="stroke: rgb(116, 116, 116); stroke-opacity: 1; stroke-width: 1px;"/><path class="xgrid crisp" transform="translate(305.75,0)" d="M0,60v359" style="stroke: rgb(116, 116, 116); stroke-opacity: 1; stroke-width: 1px;"/><path class="xgrid crisp" transform="translate(327.25,0)" d="M0,60v359" style="stroke: rgb(116, 116, 116); stroke-opacity: 1; stroke-width: 1px;"/><path class="xgrid crisp" transform="translate(348.75,0)" d="M0,60v359" style="stroke: rgb(116, 116, 116); stroke-opacity: 1; stroke-width: 1px;"/><path class="xgrid crisp" transform="translate(370.25,0)" d="M0,60v359" style="stroke: rgb(116, 116, 116); stroke-opacity: 1; stroke-width: 1px;"/><path class="xgrid crisp" transform="translate(391.75,0)" d="M0,60v359" style="stroke: rgb(116, 116, 116); stroke-opacity: 1; stroke-width: 1px;"/><path class="xgrid crisp" transform="translate(413.25,0)" d="M0,60v359" style="stroke: rgb(116, 116, 116); stroke-opacity: 1; stroke-width: 1px;"/><path class="xgrid crisp" transform="translate(434.75,0)" d="M0,60v359" style="stroke: rgb(116, 116, 116); stroke-opacity: 1; stroke-width: 1px;"/><path class="xgrid crisp" transform="translate(456.25,0)" d="M0,60v359" style="stroke: rgb(116, 116, 116); stroke-opacity: 1; stroke-width: 1px;"/><path class="xgrid crisp" transform="translate(477.75,0)" d="M0,60v359" style="stroke: rgb(116, 116, 116); stroke-opacity: 1; stroke-width: 1px;"/><path class="xgrid crisp" transform="translate(499.25,0)" d="M0,60v359" style="stroke: rgb(116, 116, 116); stroke-opacity: 1; stroke-width: 1px;"/><path class="xgrid crisp" transform="translate(520.75,0)" d="M0,60v359" style="stroke: rgb(116, 116, 116); stroke-opacity: 1; stroke-width: 1px;"/><path class="xgrid crisp" transform="translate(542.25,0)" d="M0,60v359" style="stroke: rgb(116, 116, 116); stroke-opacity: 1; stroke-width: 1px;"/><path class="xgrid crisp" transform="translate(563.75,0)" d="M0,60v359" style="stroke: rgb(116, 116, 116); stroke-opacity: 1; stroke-width: 1px;"/><path class="xgrid crisp" transform="translate(585.25,0)" d="M0,60v359" style="stroke: rgb(116, 116, 116); stroke-opacity: 1; stroke-width: 1px;"/><path class="xgrid crisp" transform="translate(606.75,0)" d="M0,60v359" style="stroke: rgb(116, 116, 116); stroke-opacity: 1; stroke-width: 1px;"/><path class="xgrid crisp" transform="translate(628.25,0)" d="M0,60v359" style="stroke: rgb(116, 116, 116); stroke-opacity: 1; stroke-width: 1px;"/><path class="xgrid crisp" transform="translate(649.75,0)" d="M0,60v359" style="stroke: rgb(116, 116, 116); stroke-opacity: 1; stroke-width: 1px;"/><path class="xgrid crisp" transform="translate(671.25,0)" d="M0,60v359" style="stroke: rgb(116, 116, 116); stroke-opacity: 1; stroke-width: 1px;"/><path class="xgrid crisp" transform="translate(692.75,0)" d="M0,60v359" style="stroke: rgb(116, 116, 116); stroke-opacity: 1; stroke-width: 1px;"/><path class="xgrid crisp" transform="translate(714.25,0)" d="M0,60v359" style="stroke: rgb(116, 116, 116); stroke-opacity: 1; stroke-width: 1px;"/></g><g class="y"/></g><g class="zerolinelayer"><path class="yzl zl crisp" transform="translate(0,419)" d="M80,0h645" style="stroke: rgb(255, 255, 255); stroke-opacity: 1; stroke-width: 2px;"/></g><path class="xlines-below"/><path class="ylines-below"/><g class="overlines-below"/><g class="xaxislayer-below"/><g class="yaxislayer-below"/><g class="overaxes-below"/><g class="plot" transform="translate(80,60)" clip-path="url(#clip080deexyplot)"><g class="barlayer mlayer"><g class="trace bars" style="opacity: 1;"><g class="points"><g class="point"><path d="M2.15,359V191.09H19.35V359Z" style="vector-effect: none; opacity: 1; stroke-width: 0.5px; fill: rgb(187, 194, 247); fill-opacity: 1; stroke: rgb(229, 236, 246); stroke-opacity: 1;"/></g><g class="point"><path d="M23.65,359V55.09H40.85V359Z" style="vector-effect: none; opacity: 1; stroke-width: 0.5px; fill: rgb(187, 194, 247); fill-opacity: 1; stroke: rgb(229, 236, 246); stroke-opacity: 1;"/></g><g class="point"><path d="M45.15,359V273.74H62.35V359Z" style="vector-effect: none; opacity: 1; stroke-width: 0.5px; fill: rgb(187, 194, 247); fill-opacity: 1; stroke: rgb(229, 236, 246); stroke-opacity: 1;"/></g><g class="point"><path d="M66.65,359V154.47H83.85V359Z" style="vector-effect: none; opacity: 1; stroke-width: 0.5px; fill: rgb(187, 194, 247); fill-opacity: 1; stroke: rgb(229, 236, 246); stroke-opacity: 1;"/></g><g class="point"><path d="M88.15,359V209.92H105.35V359Z" style="vector-effect: none; opacity: 1; stroke-width: 0.5px; fill: rgb(187, 194, 247); fill-opacity: 1; stroke: rgb(229, 236, 246); stroke-opacity: 1;"/></g><g class="point"><path d="M109.65,359V287.86H126.85V359Z" style="vector-effect: none; opacity: 1; stroke-width: 0.5px; fill: rgb(187, 194, 247); fill-opacity: 1; stroke: rgb(229, 236, 246); stroke-opacity: 1;"/></g><g class="point"><path d="M131.15,359V355.86H148.35V359Z" style="vector-effect: none; opacity: 1; stroke-width: 0.5px; fill: rgb(187, 194, 247); fill-opacity: 1; stroke: rgb(229, 236, 246); stroke-opacity: 1;"/></g><g class="point"><path d="M152.65,359V133.03H169.85V359Z" style="vector-effect: none; opacity: 1; stroke-width: 0.5px; fill: rgb(187, 194, 247); fill-opacity: 1; stroke: rgb(229, 236, 246); stroke-opacity: 1;"/></g><g class="point"><path d="M174.15,359V87.52H191.35V359Z" style="vector-effect: none; opacity: 1; stroke-width: 0.5px; fill: rgb(187, 194, 247); fill-opacity: 1; stroke: rgb(229, 236, 246); stroke-opacity: 1;"/></g><g class="point"><path d="M195.65,359V224.57H212.85V359Z" style="vector-effect: none; opacity: 1; stroke-width: 0.5px; fill: rgb(187, 194, 247); fill-opacity: 1; stroke: rgb(229, 236, 246); stroke-opacity: 1;"/></g><g class="point"><path d="M217.15,359V168.6H234.35V359Z" style="vector-effect: none; opacity: 1; stroke-width: 0.5px; fill: rgb(187, 194, 247); fill-opacity: 1; stroke: rgb(229, 236, 246); stroke-opacity: 1;"/></g><g class="point"><path d="M238.65,359V202.08H255.85V359Z" style="vector-effect: none; opacity: 1; stroke-width: 0.5px; fill: rgb(187, 194, 247); fill-opacity: 1; stroke: rgb(229, 236, 246); stroke-opacity: 1;"/></g><g class="point"><path d="M260.15,359V135.12H277.35V359Z" style="vector-effect: none; opacity: 1; stroke-width: 0.5px; fill: rgb(187, 194, 247); fill-opacity: 1; stroke: rgb(229, 236, 246); stroke-opacity: 1;"/></g><g class="point"><path d="M281.65,359V264.32H298.85V359Z" style="vector-effect: none; opacity: 1; stroke-width: 0.5px; fill: rgb(187, 194, 247); fill-opacity: 1; stroke: rgb(229, 236, 246); stroke-opacity: 1;"/></g><g class="point"><path d="M303.15,359V103.74H320.35V359Z" style="vector-effect: none; opacity: 1; stroke-width: 0.5px; fill: rgb(187, 194, 247); fill-opacity: 1; stroke: rgb(229, 236, 246); stroke-opacity: 1;"/></g><g class="point"><path d="M324.65,359V42.01H341.85V359Z" style="vector-effect: none; opacity: 1; stroke-width: 0.5px; fill: rgb(187, 194, 247); fill-opacity: 1; stroke: rgb(229, 236, 246); stroke-opacity: 1;"/></g><g class="point"><path d="M346.15,359V23.7H363.35V359Z" style="vector-effect: none; opacity: 1; stroke-width: 0.5px; fill: rgb(187, 194, 247); fill-opacity: 1; stroke: rgb(229, 236, 246); stroke-opacity: 1;"/></g><g class="point"><path d="M367.65,359V17.95H384.85V359Z" style="vector-effect: none; opacity: 1; stroke-width: 0.5px; fill: rgb(187, 194, 247); fill-opacity: 1; stroke: rgb(229, 236, 246); stroke-opacity: 1;"/></g><g class="point"><path d="M389.15,359V71.83H406.35V359Z" style="vector-effect: none; opacity: 1; stroke-width: 0.5px; fill: rgb(187, 194, 247); fill-opacity: 1; stroke: rgb(229, 236, 246); stroke-opacity: 1;"/></g><g class="point"><path d="M410.65,359V216.2H427.85V359Z" style="vector-effect: none; opacity: 1; stroke-width: 0.5px; fill: rgb(187, 194, 247); fill-opacity: 1; stroke: rgb(229, 236, 246); stroke-opacity: 1;"/></g><g class="point"><path d="M432.15,359V55.09H449.35V359Z" style="vector-effect: none; opacity: 1; stroke-width: 0.5px; fill: rgb(187, 194, 247); fill-opacity: 1; stroke: rgb(229, 236, 246); stroke-opacity: 1;"/></g><g class="point"><path d="M453.65,359V111.58H470.85V359Z" style="vector-effect: none; opacity: 1; stroke-width: 0.5px; fill: rgb(187, 194, 247); fill-opacity: 1; stroke: rgb(229, 236, 246); stroke-opacity: 1;"/></g><g class="point"><path d="M475.15,359V241.83H492.35V359Z" style="vector-effect: none; opacity: 1; stroke-width: 0.5px; fill: rgb(187, 194, 247); fill-opacity: 1; stroke: rgb(229, 236, 246); stroke-opacity: 1;"/></g><g class="point"><path d="M496.65,359V343.83H513.85V359Z" style="vector-effect: none; opacity: 1; stroke-width: 0.5px; fill: rgb(187, 194, 247); fill-opacity: 1; stroke: rgb(229, 236, 246); stroke-opacity: 1;"/></g><g class="point"><path d="M518.15,359V65.03H535.35V359Z" style="vector-effect: none; opacity: 1; stroke-width: 0.5px; fill: rgb(187, 194, 247); fill-opacity: 1; stroke: rgb(229, 236, 246); stroke-opacity: 1;"/></g><g class="point"><path d="M539.65,359V332.85H556.85V359Z" style="vector-effect: none; opacity: 1; stroke-width: 0.5px; fill: rgb(187, 194, 247); fill-opacity: 1; stroke: rgb(229, 236, 246); stroke-opacity: 1;"/></g><g class="point"><path d="M561.15,359V173.31H578.35V359Z" style="vector-effect: none; opacity: 1; stroke-width: 0.5px; fill: rgb(187, 194, 247); fill-opacity: 1; stroke: rgb(229, 236, 246); stroke-opacity: 1;"/></g><g class="point"><path d="M582.65,359V165.46H599.85V359Z" style="vector-effect: none; opacity: 1; stroke-width: 0.5px; fill: rgb(187, 194, 247); fill-opacity: 1; stroke: rgb(229, 236, 246); stroke-opacity: 1;"/></g><g class="point"><path d="M604.15,359V304.6H621.35V359Z" style="vector-effect: none; opacity: 1; stroke-width: 0.5px; fill: rgb(187, 194, 247); fill-opacity: 1; stroke: rgb(229, 236, 246); stroke-opacity: 1;"/></g><g class="point"><path d="M625.65,359V256.48H642.85V359Z" style="vector-effect: none; opacity: 1; stroke-width: 0.5px; fill: rgb(187, 194, 247); fill-opacity: 1; stroke: rgb(229, 236, 246); stroke-opacity: 1;"/></g></g></g></g></g><g class="overplot"/><path class="xlines-above crisp" d="M0,0" style="fill: none;"/><path class="ylines-above crisp" d="M79.5,60V419" style="fill: none; stroke-width: 1px; stroke: rgb(255, 255, 255); stroke-opacity: 1;"/><g class="overlines-above"/><g class="xaxislayer-above"><g class="xtick"><text text-anchor="start" x="1.75" y="425" transform="translate(90.75,0) rotate(90,1.75,420)" style="font-family: avenir; font-size: 10px; fill: rgb(0, 0, 0); fill-opacity: 1; white-space: pre; opacity: 1;">history region finish</text></g><g class="xtick"><text text-anchor="start" x="1.75" y="425" transform="translate(112.25,0) rotate(90,1.75,420)" style="font-family: avenir; font-size: 10px; fill: rgb(0, 0, 0); fill-opacity: 1; white-space: pre; opacity: 1;">Mrs beautiful</text></g><g class="xtick"><text text-anchor="start" x="1.75" y="425" transform="translate(133.75,0) rotate(90,1.75,420)" style="font-family: avenir; font-size: 10px; fill: rgb(0, 0, 0); fill-opacity: 1; white-space: pre; opacity: 1;">you</text></g><g class="xtick"><text text-anchor="start" x="1.75" y="425" transform="translate(155.25,0) rotate(90,1.75,420)" style="font-family: avenir; font-size: 10px; fill: rgb(0, 0, 0); fill-opacity: 1; white-space: pre; opacity: 1;">long table light himself</text></g><g class="xtick"><text text-anchor="start" x="1.75" y="425" transform="translate(176.75,0) rotate(90,1.75,420)" style="font-family: avenir; font-size: 10px; fill: rgb(0, 0, 0); fill-opacity: 1; white-space: pre; opacity: 1;">next report</text></g><g class="xtick"><text text-anchor="start" x="1.75" y="425" transform="translate(198.25,0) rotate(90,1.75,420)" style="font-family: avenir; font-size: 10px; fill: rgb(0, 0, 0); fill-opacity: 1; white-space: pre; opacity: 1;">vote answer price</text></g><g class="xtick"><text text-anchor="start" x="1.75" y="425" transform="translate(219.75,0) rotate(90,1.75,420)" style="font-family: avenir; font-size: 10px; fill: rgb(0, 0, 0); fill-opacity: 1; white-space: pre; opacity: 1;">another mean continue teach</text></g><g class="xtick"><text text-anchor="start" x="1.75" y="425" transform="translate(241.25,0) rotate(90,1.75,420)" style="font-family: avenir; font-size: 10px; fill: rgb(0, 0, 0); fill-opacity: 1; white-space: pre; opacity: 1;">figure quickly certainly</text></g><g class="xtick"><text text-anchor="start" x="1.75" y="425" transform="translate(262.75,0) rotate(90,1.75,420)" style="font-family: avenir; font-size: 10px; fill: rgb(0, 0, 0); fill-opacity: 1; white-space: pre; opacity: 1;">test</text></g><g class="xtick"><text text-anchor="start" x="1.75" y="425" transform="translate(284.25,0) rotate(90,1.75,420)" style="font-family: avenir; font-size: 10px; fill: rgb(0, 0, 0); fill-opacity: 1; white-space: pre; opacity: 1;">ago professional international leave</text></g><g class="xtick"><text text-anchor="start" x="1.75" y="425" transform="translate(305.75,0) rotate(90,1.75,420)" style="font-family: avenir; font-size: 10px; fill: rgb(0, 0, 0); fill-opacity: 1; white-space: pre; opacity: 1;">maybe against</text></g><g class="xtick"><text text-anchor="start" x="1.75" y="425" transform="translate(327.25,0) rotate(90,1.75,420)" style="font-family: avenir; font-size: 10px; fill: rgb(0, 0, 0); fill-opacity: 1; white-space: pre; opacity: 1;">second specific relationship</text></g><g class="xtick"><text text-anchor="start" x="1.75" y="425" transform="translate(348.75,0) rotate(90,1.75,420)" style="font-family: avenir; font-size: 10px; fill: rgb(0, 0, 0); fill-opacity: 1; white-space: pre; opacity: 1;">truth today</text></g><g class="xtick"><text text-anchor="start" x="1.75" y="425" transform="translate(370.25,0) rotate(90,1.75,420)" style="font-family: avenir; font-size: 10px; fill: rgb(0, 0, 0); fill-opacity: 1; white-space: pre; opacity: 1;">hard</text></g><g class="xtick"><text text-anchor="start" x="1.75" y="425" transform="translate(391.75,0) rotate(90,1.75,420)" style="font-family: avenir; font-size: 10px; fill: rgb(0, 0, 0); fill-opacity: 1; white-space: pre; opacity: 1;">surface child baby plant</text></g><g class="xtick"><text text-anchor="start" x="1.75" y="425" transform="translate(413.25,0) rotate(90,1.75,420)" style="font-family: avenir; font-size: 10px; fill: rgb(0, 0, 0); fill-opacity: 1; white-space: pre; opacity: 1;">stuff</text></g><g class="xtick"><text text-anchor="start" x="1.75" y="425" transform="translate(434.75,0) rotate(90,1.75,420)" style="font-family: avenir; font-size: 10px; fill: rgb(0, 0, 0); fill-opacity: 1; white-space: pre; opacity: 1;">model detail</text></g><g class="xtick"><text text-anchor="start" x="1.75" y="425" transform="translate(456.25,0) rotate(90,1.75,420)" style="font-family: avenir; font-size: 10px; fill: rgb(0, 0, 0); fill-opacity: 1; white-space: pre; opacity: 1;">audience interest among</text></g><g class="xtick"><text text-anchor="start" x="1.75" y="425" transform="translate(477.75,0) rotate(90,1.75,420)" style="font-family: avenir; font-size: 10px; fill: rgb(0, 0, 0); fill-opacity: 1; white-space: pre; opacity: 1;">seven half</text></g><g class="xtick"><text text-anchor="start" x="1.75" y="425" transform="translate(499.25,0) rotate(90,1.75,420)" style="font-family: avenir; font-size: 10px; fill: rgb(0, 0, 0); fill-opacity: 1; white-space: pre; opacity: 1;">who</text></g><g class="xtick"><text text-anchor="start" x="1.75" y="425" transform="translate(520.75,0) rotate(90,1.75,420)" style="font-family: avenir; font-size: 10px; fill: rgb(0, 0, 0); fill-opacity: 1; white-space: pre; opacity: 1;">explain</text></g><g class="xtick"><text text-anchor="start" x="1.75" y="425" transform="translate(542.25,0) rotate(90,1.75,420)" style="font-family: avenir; font-size: 10px; fill: rgb(0, 0, 0); fill-opacity: 1; white-space: pre; opacity: 1;">individual senior run</text></g><g class="xtick"><text text-anchor="start" x="1.75" y="425" transform="translate(563.75,0) rotate(90,1.75,420)" style="font-family: avenir; font-size: 10px; fill: rgb(0, 0, 0); fill-opacity: 1; white-space: pre; opacity: 1;">continue those suffer</text></g><g class="xtick"><text text-anchor="start" x="1.75" y="425" transform="translate(585.25,0) rotate(90,1.75,420)" style="font-family: avenir; font-size: 10px; fill: rgb(0, 0, 0); fill-opacity: 1; white-space: pre; opacity: 1;">involve stage matter popular</text></g><g class="xtick"><text text-anchor="start" x="1.75" y="425" transform="translate(606.75,0) rotate(90,1.75,420)" style="font-family: avenir; font-size: 10px; fill: rgb(0, 0, 0); fill-opacity: 1; white-space: pre; opacity: 1;">much development yeah defense</text></g><g class="xtick"><text text-anchor="start" x="1.75" y="425" transform="translate(628.25,0) rotate(90,1.75,420)" style="font-family: avenir; font-size: 10px; fill: rgb(0, 0, 0); fill-opacity: 1; white-space: pre; opacity: 1;">reveal because</text></g><g class="xtick"><text text-anchor="start" x="1.75" y="425" transform="translate(649.75,0) rotate(90,1.75,420)" style="font-family: avenir; font-size: 10px; fill: rgb(0, 0, 0); fill-opacity: 1; white-space: pre; opacity: 1;">Mrs even agency two</text></g><g class="xtick"><text text-anchor="start" x="1.75" y="425" transform="translate(671.25,0) rotate(90,1.75,420)" style="font-family: avenir; font-size: 10px; fill: rgb(0, 0, 0); fill-opacity: 1; white-space: pre; opacity: 1;">owner</text></g><g class="xtick"><text text-anchor="start" x="1.75" y="425" transform="translate(692.75,0) rotate(90,1.75,420)" style="font-family: avenir; font-size: 10px; fill: rgb(0, 0, 0); fill-opacity: 1; white-space: pre; opacity: 1;">threat anything start</text></g><g class="xtick"><text text-anchor="start" x="1.75" y="425" transform="translate(714.25,0) rotate(90,1.75,420)" style="font-family: avenir; font-size: 10px; fill: rgb(0, 0, 0); fill-opacity: 1; white-space: pre; opacity: 1;">music spring enter government</text></g></g><g class="yaxislayer-above"><g class="ytick"><text text-anchor="end" x="77" y="3.5" transform="translate(0,419)" style="font-family: avenir; font-size: 10px; fill: rgb(0, 0, 0); fill-opacity: 1; white-space: pre; opacity: 1;">0</text></g><g class="ytick"><text text-anchor="end" x="77" y="3.5" style="font-family: avenir; font-size: 10px; fill: rgb(0, 0, 0); fill-opacity: 1; white-space: pre; opacity: 1;" transform="translate(0,366.69)">100</text></g><g class="ytick"><text text-anchor="end" x="77" y="3.5" style="font-family: avenir; font-size: 10px; fill: rgb(0, 0, 0); fill-opacity: 1; white-space: pre; opacity: 1;" transform="translate(0,314.38)">200</text></g><g class="ytick"><text text-anchor="end" x="77" y="3.5" style="font-family: avenir; font-size: 10px; fill: rgb(0, 0, 0); fill-opacity: 1; white-space: pre; opacity: 1;" transform="translate(0,262.08000000000004)">300</text></g><g class="ytick"><text text-anchor="end" x="77" y="3.5" style="font-family: avenir; font-size: 10px; fill: rgb(0, 0, 0); fill-opacity: 1; white-space: pre; opacity: 1;" transform="translate(0,209.77)">400</text></g><g class="ytick"><text text-anchor="end" x="77" y="3.5" style="font-family: avenir; font-size: 10px; fill: rgb(0, 0, 0); fill-opacity: 1; white-space: pre; opacity: 1;" transform="translate(0,157.45999999999998)">500</text></g><g class="ytick"><text text-anchor="end" x="77" y="3.5" style="font-family: avenir; font-size: 10px; fill: rgb(0, 0, 0); fill-opacity: 1; white-space: pre; opacity: 1;" transform="translate(0,105.15)">600</text></g></g><g class="overaxes-above"/></g></g><g class="polarlayer"/><g class="smithlayer"/><g class="ternarylayer"/><g class="geolayer"/><g class="funnelarealayer"/><g class="pielayer"/><g class="iciclelayer"/><g class="treemaplayer"/><g class="sunburstlayer"/><g class="glimages"/><defs id="topdefs-080dee"><g class="clips"/><clipPath id="legend080dee"><rect width="74" height="29" x="0" y="0"/></clipPath></defs><g class="layer-above"><g class="imagelayer"/><g class="shapelayer"/></g><g class="infolayer"><g class="legend" pointer-events="all" transform="translate(80,454.90000000000003)"><rect class="bg" shape-rendering="crispEdges" style="stroke: rgb(68, 68, 68); stroke-opacity: 1; fill: rgb(255, 255, 255); fill-opacity: 1; stroke-width: 0px;" width="74" height="29" x="0" y="0"/><g class="scrollbox" transform="" clip-path="url(#legend080dee)"><g class="groups" transform=""><g class="traces" transform="translate(0,14.5)" style="opacity: 1;"><text class="legendtext" text-anchor="start" x="40" y="4.680000000000001" style="font-family: avenir; font-size: 12px; fill: rgb(42, 63, 95); fill-opacity: 1; white-space: pre;">water</text><g class="layers" style="opacity: 1;"><g class="legendfill"/><g class="legendlines"/><g class="legendsymbols"><g class="legendpoints"><path class="legendundefined" d="M6,6H-6V-6H6Z" transform="translate(20,0)" style="stroke-width: 0.5px; fill: rgb(187, 194, 247); fill-opacity: 1; stroke: rgb(229, 236, 246); stroke-opacity: 1;"/></g></g></g><rect class="legendtoggle" x="0" y="-9.5" width="71.15625" height="19" style="fill: rgb(0, 0, 0); fill-opacity: 0;"/></g></g></g><rect class="scrollbar" rx="20" ry="3" width="0" height="0" style="fill: rgb(128, 139, 164); fill-opacity: 1;" x="0" y="0"/></g><g class="g-gtitle"><text class="gtitle" x="402.5" y="30" text-anchor="middle" dy="0em" style="font-family: avenir; font-size: 25px; fill: rgb(0, 0, 0); opacity: 1; font-weight: normal; white-space: pre;">herself dream drive</text></g><g class="g-xtitle"><text class="xtitle" x="402.5" y="587.315625" text-anchor="middle" style="font-family: 'Open Sans', verdana, arial, sans-serif; font-size: 14px; fill: rgb(0, 0, 0); opacity: 1; font-weight: normal; white-space: pre;">you raise kind</text></g><g class="g-ytitle"/></g></svg>